ISO-10303-21;
HEADER;
FILE_DESCRIPTION(('Open CASCADE Model'),'2;1');
FILE_NAME('WP02-020_HBD15_ROD_DRAWING_DERIVED_STOWED_LOCAL','2026-08-18T00:00:00',('STINGRAY DF8 WP02'),(
    'Open CASCADE'),'Open CASCADE STEP processor 7.9','Open CASCADE 7.9'
  ,'Unknown');
FILE_SCHEMA((
'AP242_MANAGED_MODEL_BASED_3D_ENGINEERING_MIM_LF {1 0 10303 442 1 1 4 }'
    ));
ENDSEC;
DATA;
#1 = APPLICATION_PROTOCOL_DEFINITION('international standard',
  'ap242_managed_model_based_3d_engineering',2013,#2);
#2 = APPLICATION_CONTEXT('Managed model based 3d engineering');
#3 = SHAPE_DEFINITION_REPRESENTATION(#4,#10);
#4 = PRODUCT_DEFINITION_SHAPE('','',#5);
#5 = PRODUCT_DEFINITION('design','',#6,#9);
#6 = PRODUCT_DEFINITION_FORMATION('','',#7);
#7 = PRODUCT('Open CASCADE STEP translator 7.9 25',
  'Open CASCADE STEP translator 7.9 25','',(#8));
#8 = PRODUCT_CONTEXT('',#2,'mechanical');
#9 = PRODUCT_DEFINITION_CONTEXT('part definition',#2,'design');
#10 = ADVANCED_BREP_SHAPE_REPRESENTATION('',(#11,#15),#762);
#11 = AXIS2_PLACEMENT_3D('',#12,#13,#14);
#12 = CARTESIAN_POINT('',(0.,0.,0.));
#13 = DIRECTION('',(0.,0.,1.));
#14 = DIRECTION('',(1.,0.,-0.));
#15 = MANIFOLD_SOLID_BREP('',#16);
#16 = CLOSED_SHELL('',(#17,#516,#576,#611,#646,#676,#731,#758));
#17 = ADVANCED_FACE('',(#18),#61,.T.);
#18 = FACE_BOUND('',#19,.T.);
#19 = EDGE_LOOP('',(#20,#142,#165,#192,#193,#318));
#20 = ORIENTED_EDGE('',*,*,#21,.T.);
#21 = EDGE_CURVE('',#22,#24,#26,.T.);
#22 = VERTEX_POINT('',#23);
#23 = CARTESIAN_POINT('',(-9.2,-3.,611.00242841321));
#24 = VERTEX_POINT('',#25);
#25 = CARTESIAN_POINT('',(-6.2,-7.347880794884E-16,610.1985808359));
#26 = SURFACE_CURVE('',#27,(#60,#101),.PCURVE_S1.);
#27 = B_SPLINE_CURVE_WITH_KNOTS('',6,(#28,#29,#30,#31,#32,#33,#34,#35,
    #36,#37,#38,#39,#40,#41,#42,#43,#44,#45,#46,#47,#48,#49,#50,#51,#52,
    #53,#54,#55,#56,#57,#58,#59),.UNSPECIFIED.,.F.,.F.,(7,5,5,5,5,5,7),(
    0.,0.236087042649,0.346261622204,0.428543532741,0.489971954549,
    0.670349827401,1.),.UNSPECIFIED.);
#28 = CARTESIAN_POINT('',(-9.2,-3.,611.00242841321));
#29 = CARTESIAN_POINT('',(-8.973272340351,-3.,611.00242841321));
#30 = CARTESIAN_POINT('',(-8.748542715401,-2.979437683787,
    610.99214717304));
#31 = CARTESIAN_POINT('',(-8.529237747316,-2.938993448384,
    610.97192545183));
#32 = CARTESIAN_POINT('',(-8.318666449076,-2.88034897903,610.94299854302
    ));
#33 = CARTESIAN_POINT('',(-8.119823556375,-2.806184541724,
    610.90741686852));
#34 = CARTESIAN_POINT('',(-7.849046179435,-2.680289421478,
    610.84902502613));
#35 = CARTESIAN_POINT('',(-7.765643234157,-2.637529867325,
    610.82945023101));
#36 = CARTESIAN_POINT('',(-7.685009752438,-2.59228897834,610.80905115403
    ));
#37 = CARTESIAN_POINT('',(-7.607151041561,-2.544771973403,
    610.78799199723));
#38 = CARTESIAN_POINT('',(-7.532062597007,-2.495169372378,
    610.76642852626));
#39 = CARTESIAN_POINT('',(-7.405710779352,-2.405186962816,
    610.72813469077));
#40 = CARTESIAN_POINT('',(-7.353217701924,-2.365643759017,
    610.71155957809));
#41 = CARTESIAN_POINT('',(-7.302236319253,-2.325093377017,
    610.69483881386));
#42 = CARTESIAN_POINT('',(-7.252750122343,-2.283594757548,610.6780264798
    ));
#43 = CARTESIAN_POINT('',(-7.204741161817,-2.241200397656,
    610.66117323809));
#44 = CARTESIAN_POINT('',(-7.12343682645,-2.165672054682,610.63174909687
    ));
#45 = CARTESIAN_POINT('',(-7.089496484169,-2.132914454854,
    610.61917551888));
#46 = CARTESIAN_POINT('',(-7.056361270911,-2.099702863162,
    610.60662533294));
#47 = CARTESIAN_POINT('',(-7.024023730102,-2.066055216377,
    610.59411752272));
#48 = CARTESIAN_POINT('',(-6.992476698763,-2.031988076102,
    610.58167032011));
#49 = CARTESIAN_POINT('',(-6.871379958333,-1.896294976627,610.5329806459
    ));
#50 = CARTESIAN_POINT('',(-6.78778419473,-1.791566447867,610.49732585999
    ));
#51 = CARTESIAN_POINT('',(-6.710778608951,-1.683733789427,
    610.46278841512));
#52 = CARTESIAN_POINT('',(-6.640241676016,-1.57313278062,610.42977511274
    ));
#53 = CARTESIAN_POINT('',(-6.576078500846,-1.460033711712,
    610.39865108061));
#54 = CARTESIAN_POINT('',(-6.412484933422,-1.133759937916,610.3169115617
    ));
#55 = CARTESIAN_POINT('',(-6.32763111643,-0.91485967595,610.27139076424)
  );
#56 = CARTESIAN_POINT('',(-6.263916169306,-0.690191188115,
    610.23548302951));
#57 = CARTESIAN_POINT('',(-6.221355285085,-0.461682462672,
    610.21091026413));
#58 = CARTESIAN_POINT('',(-6.2,-0.231061084778,610.19858083592));
#59 = CARTESIAN_POINT('',(-6.2,-8.881784197001E-16,610.19858083592));
#60 = PCURVE('',#61,#66);
#61 = CYLINDRICAL_SURFACE('',#62,3.);
#62 = AXIS2_PLACEMENT_3D('',#63,#64,#65);
#63 = CARTESIAN_POINT('',(-9.2,0.,610.00242841321));
#64 = DIRECTION('',(0.,0.,1.));
#65 = DIRECTION('',(1.,0.,-0.));
#66 = DEFINITIONAL_REPRESENTATION('',(#67),#100);
#67 = B_SPLINE_CURVE_WITH_KNOTS('',6,(#68,#69,#70,#71,#72,#73,#74,#75,
    #76,#77,#78,#79,#80,#81,#82,#83,#84,#85,#86,#87,#88,#89,#90,#91,#92,
    #93,#94,#95,#96,#97,#98,#99),.UNSPECIFIED.,.F.,.F.,(7,5,5,5,5,5,7),(
    0.,0.236087042649,0.346261622204,0.428543532741,0.489971954549,
    0.670349827401,1.),.UNSPECIFIED.);
#68 = CARTESIAN_POINT('',(4.712388980385,1.));
#69 = CARTESIAN_POINT('',(4.787964866934,1.));
#70 = CARTESIAN_POINT('',(4.86287466622,0.989718759826));
#71 = CARTESIAN_POINT('',(4.936753710203,0.969497038617));
#72 = CARTESIAN_POINT('',(5.009205498273,0.940570129813));
#73 = CARTESIAN_POINT('',(5.07973041328,0.90498845531));
#74 = CARTESIAN_POINT('',(5.17926821691,0.846596612925));
#75 = CARTESIAN_POINT('',(5.210486793609,0.827021817802));
#76 = CARTESIAN_POINT('',(5.241274129507,0.806622740823));
#77 = CARTESIAN_POINT('',(5.271648882377,0.785563584017));
#78 = CARTESIAN_POINT('',(5.301628021009,0.764000113046));
#79 = CARTESIAN_POINT('',(5.353334044573,0.725706277564));
#80 = CARTESIAN_POINT('',(5.375233107229,0.709131164876));
#81 = CARTESIAN_POINT('',(5.396935774114,0.692410400649));
#82 = CARTESIAN_POINT('',(5.418452897639,0.675598066586));
#83 = CARTESIAN_POINT('',(5.439795499534,0.658744824881));
#84 = CARTESIAN_POINT('',(5.476786377601,0.629320683661));
#85 = CARTESIAN_POINT('',(5.49250685589,0.616747105673));
#86 = CARTESIAN_POINT('',(5.508140792083,0.60419691973));
#87 = CARTESIAN_POINT('',(5.523692671597,0.591689109512));
#88 = CARTESIAN_POINT('',(5.539166878897,0.579241906903));
#89 = CARTESIAN_POINT('',(5.599790524621,0.530552232693));
#90 = CARTESIAN_POINT('',(5.6443901614,0.494897446783));
#91 = CARTESIAN_POINT('',(5.688465430779,0.460360001914));
#92 = CARTESIAN_POINT('',(5.732103875098,0.427346699534));
#93 = CARTESIAN_POINT('',(5.775390843139,0.396222667401));
#94 = CARTESIAN_POINT('',(5.897054053487,0.31448314849));
#95 = CARTESIAN_POINT('',(5.974958470425,0.268962351027));
#96 = CARTESIAN_POINT('',(6.052298927869,0.233054616304));
#97 = CARTESIAN_POINT('',(6.129291224838,0.208481850924));
#98 = CARTESIAN_POINT('',(6.206164945587,0.196152422707));
#99 = CARTESIAN_POINT('',(6.28318530718,0.196152422707));
#100 = ( GEOMETRIC_REPRESENTATION_CONTEXT(2) 
PARAMETRIC_REPRESENTATION_CONTEXT() REPRESENTATION_CONTEXT('2D SPACE',''
  ) );
#101 = PCURVE('',#102,#107);
#102 = CYLINDRICAL_SURFACE('',#103,6.);
#103 = AXIS2_PLACEMENT_3D('',#104,#105,#106);
#104 = CARTESIAN_POINT('',(-9.2,-3.,605.00242841321));
#105 = DIRECTION('',(0.,1.,0.));
#106 = DIRECTION('',(0.,-0.,1.));
#107 = DEFINITIONAL_REPRESENTATION('',(#108),#141);
#108 = B_SPLINE_CURVE_WITH_KNOTS('',6,(#109,#110,#111,#112,#113,#114,
    #115,#116,#117,#118,#119,#120,#121,#122,#123,#124,#125,#126,#127,
    #128,#129,#130,#131,#132,#133,#134,#135,#136,#137,#138,#139,#140),
  .UNSPECIFIED.,.F.,.F.,(7,5,5,5,5,5,7),(0.,0.236087042649,
    0.346261622204,0.428543532741,0.489971954549,0.670349827401,1.),
  .UNSPECIFIED.);
#109 = CARTESIAN_POINT('',(0.,0.));
#110 = CARTESIAN_POINT('',(3.778794327487E-02,0.));
#111 = CARTESIAN_POINT('',(7.524294690892E-02,2.056231621349E-02));
#112 = CARTESIAN_POINT('',(0.111890595201,6.100655161628E-02));
#113 = CARTESIAN_POINT('',(0.147269420044,0.11965102097));
#114 = CARTESIAN_POINT('',(0.180915354379,0.193815458276));
#115 = CARTESIAN_POINT('',(0.227082320419,0.319710578522));
#116 = CARTESIAN_POINT('',(0.241358183701,0.362470132675));
#117 = CARTESIAN_POINT('',(0.255217508097,0.40771102166));
#118 = CARTESIAN_POINT('',(0.268657755671,0.455228026597));
#119 = CARTESIAN_POINT('',(0.281676921858,0.504830627622));
#120 = CARTESIAN_POINT('',(0.303681466629,0.594813037184));
#121 = CARTESIAN_POINT('',(0.312855492886,0.634356240983));
#122 = CARTESIAN_POINT('',(0.321796916278,0.674906622983));
#123 = CARTESIAN_POINT('',(0.330506906745,0.716405242452));
#124 = CARTESIAN_POINT('',(0.338986717384,0.758799602344));
#125 = CARTESIAN_POINT('',(0.353397530296,0.834327945318));
#126 = CARTESIAN_POINT('',(0.359429777091,0.867085545146));
#127 = CARTESIAN_POINT('',(0.36533493395,0.900297136838));
#128 = CARTESIAN_POINT('',(0.371113431122,0.933944783623));
#129 = CARTESIAN_POINT('',(0.376765619993,0.968011923898));
#130 = CARTESIAN_POINT('',(0.398518719975,1.103705023373));
#131 = CARTESIAN_POINT('',(0.413662415108,1.208433552133));
#132 = CARTESIAN_POINT('',(0.427725211464,1.316266210573));
#133 = CARTESIAN_POINT('',(0.440703284016,1.42686721938));
#134 = CARTESIAN_POINT('',(0.452588041022,1.539966288288));
#135 = CARTESIAN_POINT('',(0.483067635405,1.866240062084));
#136 = CARTESIAN_POINT('',(0.499109639629,2.08514032405));
#137 = CARTESIAN_POINT('',(0.511297936115,2.309808811885));
#138 = CARTESIAN_POINT('',(0.519488994768,2.538317537328));
#139 = CARTESIAN_POINT('',(0.523598775598,2.768938915222));
#140 = CARTESIAN_POINT('',(0.523598775598,3.));
#141 = ( GEOMETRIC_REPRESENTATION_CONTEXT(2) 
PARAMETRIC_REPRESENTATION_CONTEXT() REPRESENTATION_CONTEXT('2D SPACE',''
  ) );
#142 = ORIENTED_EDGE('',*,*,#143,.T.);
#143 = EDGE_CURVE('',#24,#144,#146,.T.);
#144 = VERTEX_POINT('',#145);
#145 = CARTESIAN_POINT('',(-6.2,-7.347880794884E-16,634.62803785313));
#146 = SEAM_CURVE('',#147,(#151,#158),.PCURVE_S1.);
#147 = LINE('',#148,#149);
#148 = CARTESIAN_POINT('',(-6.2,-7.347880794884E-16,610.00242841321));
#149 = VECTOR('',#150,1.);
#150 = DIRECTION('',(0.,0.,1.));
#151 = PCURVE('',#61,#152);
#152 = DEFINITIONAL_REPRESENTATION('',(#153),#157);
#153 = LINE('',#154,#155);
#154 = CARTESIAN_POINT('',(0.,-0.));
#155 = VECTOR('',#156,1.);
#156 = DIRECTION('',(0.,1.));
#157 = ( GEOMETRIC_REPRESENTATION_CONTEXT(2) 
PARAMETRIC_REPRESENTATION_CONTEXT() REPRESENTATION_CONTEXT('2D SPACE',''
  ) );
#158 = PCURVE('',#61,#159);
#159 = DEFINITIONAL_REPRESENTATION('',(#160),#164);
#160 = LINE('',#161,#162);
#161 = CARTESIAN_POINT('',(6.28318530718,-0.));
#162 = VECTOR('',#163,1.);
#163 = DIRECTION('',(0.,1.));
#164 = ( GEOMETRIC_REPRESENTATION_CONTEXT(2) 
PARAMETRIC_REPRESENTATION_CONTEXT() REPRESENTATION_CONTEXT('2D SPACE',''
  ) );
#165 = ORIENTED_EDGE('',*,*,#166,.F.);
#166 = EDGE_CURVE('',#144,#144,#167,.T.);
#167 = SURFACE_CURVE('',#168,(#173,#180),.PCURVE_S1.);
#168 = CIRCLE('',#169,3.);
#169 = AXIS2_PLACEMENT_3D('',#170,#171,#172);
#170 = CARTESIAN_POINT('',(-9.2,0.,634.62803785313));
#171 = DIRECTION('',(0.,0.,1.));
#172 = DIRECTION('',(1.,0.,-0.));
#173 = PCURVE('',#61,#174);
#174 = DEFINITIONAL_REPRESENTATION('',(#175),#179);
#175 = LINE('',#176,#177);
#176 = CARTESIAN_POINT('',(0.,24.625609439921));
#177 = VECTOR('',#178,1.);
#178 = DIRECTION('',(1.,0.));
#179 = ( GEOMETRIC_REPRESENTATION_CONTEXT(2) 
PARAMETRIC_REPRESENTATION_CONTEXT() REPRESENTATION_CONTEXT('2D SPACE',''
  ) );
#180 = PCURVE('',#181,#186);
#181 = PLANE('',#182);
#182 = AXIS2_PLACEMENT_3D('',#183,#184,#185);
#183 = CARTESIAN_POINT('',(-9.2,0.,634.62803785313));
#184 = DIRECTION('',(0.,0.,1.));
#185 = DIRECTION('',(1.,0.,-0.));
#186 = DEFINITIONAL_REPRESENTATION('',(#187),#191);
#187 = CIRCLE('',#188,3.);
#188 = AXIS2_PLACEMENT_2D('',#189,#190);
#189 = CARTESIAN_POINT('',(0.,0.));
#190 = DIRECTION('',(1.,0.));
#191 = ( GEOMETRIC_REPRESENTATION_CONTEXT(2) 
PARAMETRIC_REPRESENTATION_CONTEXT() REPRESENTATION_CONTEXT('2D SPACE',''
  ) );
#192 = ORIENTED_EDGE('',*,*,#143,.F.);
#193 = ORIENTED_EDGE('',*,*,#194,.T.);
#194 = EDGE_CURVE('',#24,#195,#197,.T.);
#195 = VERTEX_POINT('',#196);
#196 = CARTESIAN_POINT('',(-9.2,3.,611.00242841321));
#197 = SURFACE_CURVE('',#198,(#236,#277),.PCURVE_S1.);
#198 = B_SPLINE_CURVE_WITH_KNOTS('',6,(#199,#200,#201,#202,#203,#204,
    #205,#206,#207,#208,#209,#210,#211,#212,#213,#214,#215,#216,#217,
    #218,#219,#220,#221,#222,#223,#224,#225,#226,#227,#228,#229,#230,
    #231,#232,#233,#234,#235),.UNSPECIFIED.,.F.,.F.,(7,5,5,5,5,5,5,7),(
    0.,0.331404947579,0.507858803238,0.569240982725,0.651122750871,
    0.762142704063,0.851589278877,1.),.UNSPECIFIED.);
#199 = CARTESIAN_POINT('',(-6.2,-8.114832495943E-16,610.19858083592));
#200 = CARTESIAN_POINT('',(-6.2,0.232448879208,610.19858083592));
#201 = CARTESIAN_POINT('',(-6.221612572549,0.464446505983,
    610.21105880643));
#202 = CARTESIAN_POINT('',(-6.264683193938,0.69429378575,610.23592588089
    ));
#203 = CARTESIAN_POINT('',(-6.329160301954,0.920235352091,
    610.27225234891));
#204 = CARTESIAN_POINT('',(-6.415031033681,1.140309409803,
    610.31827700746));
#205 = CARTESIAN_POINT('',(-6.579009895091,1.465055614902,
    610.40006348708));
#206 = CARTESIAN_POINT('',(-6.64202909927,1.575682211911,610.43058927403
    ));
#207 = CARTESIAN_POINT('',(-6.711157794316,1.68390815435,610.4629169283)
  );
#208 = CARTESIAN_POINT('',(-6.78648529507,1.789479353382,610.49670350104
    ));
#209 = CARTESIAN_POINT('',(-6.86812538107,1.892081585925,610.53156779578
    ));
#210 = CARTESIAN_POINT('',(-6.986859193122,2.025867468045,
    610.57944369644));
#211 = CARTESIAN_POINT('',(-7.018285427765,2.05999334523,610.59187996628
    ));
#212 = CARTESIAN_POINT('',(-7.05050117174,2.093701737476,610.60437898178
    ));
#213 = CARTESIAN_POINT('',(-7.083513553571,2.126976202617,
    610.61692257981));
#214 = CARTESIAN_POINT('',(-7.117330006761,2.159798939228,
    610.62949185287));
#215 = CARTESIAN_POINT('',(-7.198151210946,2.235307065707,
    610.65884217238));
#216 = CARTESIAN_POINT('',(-7.245788144141,2.277624934628,
    610.67562769244));
#217 = CARTESIAN_POINT('',(-7.294888170378,2.319059262649,
    610.69237724468));
#218 = CARTESIAN_POINT('',(-7.345469069246,2.359558637778,
    610.70904103024));
#219 = CARTESIAN_POINT('',(-7.397547298927,2.399065366776,
    610.72556591605));
#220 = CARTESIAN_POINT('',(-7.523799308186,2.489648316565,
    610.76403592399));
#221 = CARTESIAN_POINT('',(-7.599259946992,2.539852450281,
    610.78582303425));
#222 = CARTESIAN_POINT('',(-7.677535523393,2.587948987481,
    610.80710818235));
#223 = CARTESIAN_POINT('',(-7.758632215832,2.633744183021,
    610.82773250119));
#224 = CARTESIAN_POINT('',(-7.842546244036,2.677028831235,
    610.84752826668));
#225 = CARTESIAN_POINT('',(-7.999129589418,2.750247050427,610.8814607129
    ));
#226 = CARTESIAN_POINT('',(-8.070824343733,2.781144729708,
    610.89595152091));
#227 = CARTESIAN_POINT('',(-8.144284424329,2.810125480069,
    610.90968856032));
#228 = CARTESIAN_POINT('',(-8.219439413067,2.83704970387,610.92256945367
    ));
#229 = CARTESIAN_POINT('',(-8.296211679309,2.861782762358,
    610.93449522021));
#230 = CARTESIAN_POINT('',(-8.504440448109,2.921379798535,610.9634185028
    ));
#231 = CARTESIAN_POINT('',(-8.638780136762,2.952230574799,
    610.97860426427));
#232 = CARTESIAN_POINT('',(-8.776560418526,2.975939880897,610.9903983518
    ));
#233 = CARTESIAN_POINT('',(-8.916742290172,2.991962776211,
    610.99840980192));
#234 = CARTESIAN_POINT('',(-9.0582501424,3.,611.00242841321));
#235 = CARTESIAN_POINT('',(-9.2,3.,611.00242841321));
#236 = PCURVE('',#61,#237);
#237 = DEFINITIONAL_REPRESENTATION('',(#238),#276);
#238 = B_SPLINE_CURVE_WITH_KNOTS('',6,(#239,#240,#241,#242,#243,#244,
    #245,#246,#247,#248,#249,#250,#251,#252,#253,#254,#255,#256,#257,
    #258,#259,#260,#261,#262,#263,#264,#265,#266,#267,#268,#269,#270,
    #271,#272,#273,#274,#275),.UNSPECIFIED.,.F.,.F.,(7,5,5,5,5,5,5,7),(
    0.,0.331404947579,0.507858803238,0.569240982725,0.651122750871,
    0.762142704063,0.851589278877,1.),.UNSPECIFIED.);
#239 = CARTESIAN_POINT('',(0.,0.196152422707));
#240 = CARTESIAN_POINT('',(7.748295973605E-02,0.196152422707));
#241 = CARTESIAN_POINT('',(0.154815428663,0.208630393219));
#242 = CARTESIAN_POINT('',(0.232268823746,0.233497467676));
#243 = CARTESIAN_POINT('',(0.310077753995,0.269823935699));
#244 = CARTESIAN_POINT('',(0.388462921747,0.315848594256));
#245 = CARTESIAN_POINT('',(0.50972900417,0.397635073867));
#246 = CARTESIAN_POINT('',(0.552114523615,0.428160860818));
#247 = CARTESIAN_POINT('',(0.594838447708,0.460488515094));
#248 = CARTESIAN_POINT('',(0.637980996819,0.494275087832));
#249 = CARTESIAN_POINT('',(0.681624405612,0.529139382572));
#250 = CARTESIAN_POINT('',(0.741249512534,0.577015283228));
#251 = CARTESIAN_POINT('',(0.7567107926,0.589451553072));
#252 = CARTESIAN_POINT('',(0.772249209771,0.60195056857));
#253 = CARTESIAN_POINT('',(0.787869136873,0.614494166597));
#254 = CARTESIAN_POINT('',(0.803575050027,0.627063439658));
#255 = CARTESIAN_POINT('',(0.840443501175,0.656413759175));
#256 = CARTESIAN_POINT('',(0.861676465626,0.673199279235));
#257 = CARTESIAN_POINT('',(0.883081454239,0.689948831468));
#258 = CARTESIAN_POINT('',(0.904669352548,0.706612617031));
#259 = CARTESIAN_POINT('',(0.926450899387,0.72313750284));
#260 = CARTESIAN_POINT('',(0.978246266656,0.761607510781));
#261 = CARTESIAN_POINT('',(1.00843920977,0.783394621044));
#262 = CARTESIAN_POINT('',(1.039032708591,0.804679769138));
#263 = CARTESIAN_POINT('',(1.070044521038,0.825304087981));
#264 = CARTESIAN_POINT('',(1.101494116236,0.845099853471));
#265 = CARTESIAN_POINT('',(1.159112835872,0.879032299689));
#266 = CARTESIAN_POINT('',(1.185123819498,0.893523107705));
#267 = CARTESIAN_POINT('',(1.211427788544,0.907260147113));
#268 = CARTESIAN_POINT('',(1.238017923618,0.920141040459));
#269 = CARTESIAN_POINT('',(1.264889356373,0.932066806997));
#270 = CARTESIAN_POINT('',(1.337085868198,0.960990089589));
#271 = CARTESIAN_POINT('',(1.382966817224,0.976175851065));
#272 = CARTESIAN_POINT('',(1.429459901553,0.987969938588));
#273 = CARTESIAN_POINT('',(1.476377094928,0.995981388712));
#274 = CARTESIAN_POINT('',(1.523546374261,1.));
#275 = CARTESIAN_POINT('',(1.570796326795,1.));
#276 = ( GEOMETRIC_REPRESENTATION_CONTEXT(2) 
PARAMETRIC_REPRESENTATION_CONTEXT() REPRESENTATION_CONTEXT('2D SPACE',''
  ) );
#277 = PCURVE('',#102,#278);
#278 = DEFINITIONAL_REPRESENTATION('',(#279),#317);
#279 = B_SPLINE_CURVE_WITH_KNOTS('',6,(#280,#281,#282,#283,#284,#285,
    #286,#287,#288,#289,#290,#291,#292,#293,#294,#295,#296,#297,#298,
    #299,#300,#301,#302,#303,#304,#305,#306,#307,#308,#309,#310,#311,
    #312,#313,#314,#315,#316),.UNSPECIFIED.,.F.,.F.,(7,5,5,5,5,5,5,7),(
    0.,0.331404947579,0.507858803238,0.569240982725,0.651122750871,
    0.762142704063,0.851589278877,1.),.UNSPECIFIED.);
#280 = CARTESIAN_POINT('',(0.523598775598,3.));
#281 = CARTESIAN_POINT('',(0.523598775598,3.232448879208));
#282 = CARTESIAN_POINT('',(0.51943948169,3.464446505983));
#283 = CARTESIAN_POINT('',(0.511150314999,3.69429378575));
#284 = CARTESIAN_POINT('',(0.498817135873,3.920235352091));
#285 = CARTESIAN_POINT('',(0.482586319717,4.140309409803));
#286 = CARTESIAN_POINT('',(0.452045775064,4.465055614902));
#287 = CARTESIAN_POINT('',(0.440376040224,4.575682211911));
#288 = CARTESIAN_POINT('',(0.427658878052,4.68390815435));
#289 = CARTESIAN_POINT('',(0.41390227661,4.789479353382));
#290 = CARTESIAN_POINT('',(0.399109844003,4.892081585925));
#291 = CARTESIAN_POINT('',(0.377772721952,5.025867468045));
#292 = CARTESIAN_POINT('',(0.372139925473,5.05999334523));
#293 = CARTESIAN_POINT('',(0.366380884533,5.093701737476));
#294 = CARTESIAN_POINT('',(0.36049525573,5.126976202617));
#295 = CARTESIAN_POINT('',(0.354482615283,5.159798939228));
#296 = CARTESIAN_POINT('',(0.34015169659,5.235307065707));
#297 = CARTESIAN_POINT('',(0.331734114885,5.277624934628));
#298 = CARTESIAN_POINT('',(0.32308840918,5.319059262649));
#299 = CARTESIAN_POINT('',(0.314213342809,5.359558637778));
#300 = CARTESIAN_POINT('',(0.305107747182,5.399065366776));
#301 = CARTESIAN_POINT('',(0.283110581107,5.489648316565));
#302 = CARTESIAN_POINT('',(0.270021511486,5.539852450281));
#303 = CARTESIAN_POINT('',(0.256504391074,5.587948987481));
#304 = CARTESIAN_POINT('',(0.242561060065,5.633744183021));
#305 = CARTESIAN_POINT('',(0.228193893773,5.677028831235));
#306 = CARTESIAN_POINT('',(0.201490921114,5.750247050427));
#307 = CARTESIAN_POINT('',(0.189301356349,5.781144729708));
#308 = CARTESIAN_POINT('',(0.176847811376,5.810125480069));
#309 = CARTESIAN_POINT('',(0.164141612364,5.83704970387));
#310 = CARTESIAN_POINT('',(0.151194453542,5.861782762358));
#311 = CARTESIAN_POINT('',(0.116156467635,5.921379798535));
#312 = CARTESIAN_POINT('',(9.36312203382E-02,5.952230574799));
#313 = CARTESIAN_POINT('',(7.059698035476E-02,5.975939880897));
#314 = CARTESIAN_POINT('',(4.720962318905E-02,5.991962776211));
#315 = CARTESIAN_POINT('',(2.362497626672E-02,6.));
#316 = CARTESIAN_POINT('',(0.,6.));
#317 = ( GEOMETRIC_REPRESENTATION_CONTEXT(2) 
PARAMETRIC_REPRESENTATION_CONTEXT() REPRESENTATION_CONTEXT('2D SPACE',''
  ) );
#318 = ORIENTED_EDGE('',*,*,#319,.T.);
#319 = EDGE_CURVE('',#195,#22,#320,.T.);
#320 = SURFACE_CURVE('',#321,(#384,#450),.PCURVE_S1.);
#321 = B_SPLINE_CURVE_WITH_KNOTS('',6,(#322,#323,#324,#325,#326,#327,
    #328,#329,#330,#331,#332,#333,#334,#335,#336,#337,#338,#339,#340,
    #341,#342,#343,#344,#345,#346,#347,#348,#349,#350,#351,#352,#353,
    #354,#355,#356,#357,#358,#359,#360,#361,#362,#363,#364,#365,#366,
    #367,#368,#369,#370,#371,#372,#373,#374,#375,#376,#377,#378,#379,
    #380,#381,#382,#383),.UNSPECIFIED.,.F.,.F.,(7,5,5,5,5,5,5,5,5,5,5,5,
    7),(0.,0.118054470968,0.173146870609,0.214291642087,0.245008702022,
    0.335206004318,0.50004637969,0.588152307873,0.665756264114,
    0.825568351419,0.881076108087,0.925797606962,1.),.UNSPECIFIED.);
#322 = CARTESIAN_POINT('',(-9.2,3.,611.00242841321));
#323 = CARTESIAN_POINT('',(-9.426727659649,3.,611.00242841321));
#324 = CARTESIAN_POINT('',(-9.651457284599,2.979437683786,
    610.99214717304));
#325 = CARTESIAN_POINT('',(-9.870762252684,2.938993448384,
    610.97192545183));
#326 = CARTESIAN_POINT('',(-10.08133355092,2.88034897903,610.94299854302
    ));
#327 = CARTESIAN_POINT('',(-10.28017644362,2.806184541724,
    610.90741686852));
#328 = CARTESIAN_POINT('',(-10.55095382056,2.680289421478,
    610.84902502613));
#329 = CARTESIAN_POINT('',(-10.63435676584,2.637529867325,
    610.82945023101));
#330 = CARTESIAN_POINT('',(-10.71499024756,2.59228897834,610.80905115403
    ));
#331 = CARTESIAN_POINT('',(-10.79284895843,2.544771973403,
    610.78799199723));
#332 = CARTESIAN_POINT('',(-10.86793740299,2.495169372378,
    610.76642852626));
#333 = CARTESIAN_POINT('',(-10.99428922064,2.405186962816,
    610.72813469077));
#334 = CARTESIAN_POINT('',(-11.04678229807,2.365643759017,
    610.71155957809));
#335 = CARTESIAN_POINT('',(-11.09776368074,2.325093377017,
    610.69483881386));
#336 = CARTESIAN_POINT('',(-11.14724987765,2.283594757548,610.6780264798
    ));
#337 = CARTESIAN_POINT('',(-11.19525883818,2.241200397656,
    610.66117323809));
#338 = CARTESIAN_POINT('',(-11.27656317355,2.165672054682,
    610.63174909687));
#339 = CARTESIAN_POINT('',(-11.31050351583,2.132914454854,
    610.61917551888));
#340 = CARTESIAN_POINT('',(-11.34363872908,2.099702863162,
    610.60662533294));
#341 = CARTESIAN_POINT('',(-11.37597626989,2.066055216377,
    610.59411752272));
#342 = CARTESIAN_POINT('',(-11.40752330123,2.031988076102,
    610.58167032011));
#343 = CARTESIAN_POINT('',(-11.52862004166,1.896294976627,610.5329806459
    ));
#344 = CARTESIAN_POINT('',(-11.61221580527,1.791566447867,
    610.49732585999));
#345 = CARTESIAN_POINT('',(-11.68922139104,1.683733789427,
    610.46278841512));
#346 = CARTESIAN_POINT('',(-11.75975832398,1.57313278062,610.42977511274
    ));
#347 = CARTESIAN_POINT('',(-11.82392149915,1.460033711712,
    610.39865108061));
#348 = CARTESIAN_POINT('',(-11.98751506657,1.133759937916,610.3169115617
    ));
#349 = CARTESIAN_POINT('',(-12.07236888357,0.91485967595,610.27139076424
    ));
#350 = CARTESIAN_POINT('',(-12.13608383069,0.690191188116,
    610.23548302951));
#351 = CARTESIAN_POINT('',(-12.17864471491,0.461682462672,
    610.21091026413));
#352 = CARTESIAN_POINT('',(-12.2,0.231061084778,610.19858083592));
#353 = CARTESIAN_POINT('',(-12.2,-0.123500394217,610.19858083592));
#354 = CARTESIAN_POINT('',(-12.19389907697,-0.246976143552,
    610.20210300637));
#355 = CARTESIAN_POINT('',(-12.18170171182,-0.370129798369,
    610.2091457187));
#356 = CARTESIAN_POINT('',(-12.1634175816,-0.492655339519,
    610.21962986925));
#357 = CARTESIAN_POINT('',(-12.13906632054,-0.614237736996,
    610.23340308018));
#358 = CARTESIAN_POINT('',(-12.08191993123,-0.840526107221,
    610.26507734358));
#359 = CARTESIAN_POINT('',(-12.05047848806,-0.945511639906,
    610.28229014818));
#360 = CARTESIAN_POINT('',(-12.01436541761,-1.049352754973,
    610.30174057194));
#361 = CARTESIAN_POINT('',(-11.9735798738,-1.151878445154,
    610.32325547928));
#362 = CARTESIAN_POINT('',(-11.92811563091,-1.252902610907,
    610.34663330972));
#363 = CARTESIAN_POINT('',(-11.77468533497,-1.556758278183,
    610.42315856219));
#364 = CARTESIAN_POINT('',(-11.65164286678,-1.753841726646,
    610.48155093718));
#365 = CARTESIAN_POINT('',(-11.50846659621,-1.94249185062,
    610.54499826111));
#366 = CARTESIAN_POINT('',(-11.34429382453,-2.121166715604,
    610.61140413617));
#367 = CARTESIAN_POINT('',(-11.15806080112,-2.287420088445,
    610.67815086991));
#368 = CARTESIAN_POINT('',(-10.87620069181,-2.489648316568,
    610.76403592399));
#369 = CARTESIAN_POINT('',(-10.800740053,-2.53985245028,610.78582303425)
  );
#370 = CARTESIAN_POINT('',(-10.72246447661,-2.587948987479,
    610.80710818235));
#371 = CARTESIAN_POINT('',(-10.64136778417,-2.63374418302,
    610.82773250119));
#372 = CARTESIAN_POINT('',(-10.55745375596,-2.677028831237,
    610.84752826668));
#373 = CARTESIAN_POINT('',(-10.40087041055,-2.750247050439,
    610.8814607129));
#374 = CARTESIAN_POINT('',(-10.32917565627,-2.781144729703,
    610.89595152091));
#375 = CARTESIAN_POINT('',(-10.25571557569,-2.810125480059,
    610.90968856032));
#376 = CARTESIAN_POINT('',(-10.18056058694,-2.83704970387,
    610.92256945367));
#377 = CARTESIAN_POINT('',(-10.10378832066,-2.861782762366,
    610.93449522021));
#378 = CARTESIAN_POINT('',(-9.895559551891,-2.921379798535,
    610.9634185028));
#379 = CARTESIAN_POINT('',(-9.761219863238,-2.952230574799,
    610.97860426427));
#380 = CARTESIAN_POINT('',(-9.623439581475,-2.975939880897,
    610.9903983518));
#381 = CARTESIAN_POINT('',(-9.483257709827,-2.991962776211,
    610.99840980192));
#382 = CARTESIAN_POINT('',(-9.3417498576,-3.,611.00242841321));
#383 = CARTESIAN_POINT('',(-9.2,-3.,611.00242841321));
#384 = PCURVE('',#61,#385);
#385 = DEFINITIONAL_REPRESENTATION('',(#386),#449);
#386 = B_SPLINE_CURVE_WITH_KNOTS('',6,(#387,#388,#389,#390,#391,#392,
    #393,#394,#395,#396,#397,#398,#399,#400,#401,#402,#403,#404,#405,
    #406,#407,#408,#409,#410,#411,#412,#413,#414,#415,#416,#417,#418,
    #419,#420,#421,#422,#423,#424,#425,#426,#427,#428,#429,#430,#431,
    #432,#433,#434,#435,#436,#437,#438,#439,#440,#441,#442,#443,#444,
    #445,#446,#447,#448),.UNSPECIFIED.,.F.,.F.,(7,5,5,5,5,5,5,5,5,5,5,5,
    7),(0.,0.118054470968,0.173146870609,0.214291642087,0.245008702022,
    0.335206004318,0.50004637969,0.588152307873,0.665756264114,
    0.825568351419,0.881076108087,0.925797606962,1.),.UNSPECIFIED.);
#387 = CARTESIAN_POINT('',(1.570796326795,1.));
#388 = CARTESIAN_POINT('',(1.646372213345,1.));
#389 = CARTESIAN_POINT('',(1.72128201263,0.989718759826));
#390 = CARTESIAN_POINT('',(1.795161056613,0.969497038617));
#391 = CARTESIAN_POINT('',(1.867612844683,0.940570129813));
#392 = CARTESIAN_POINT('',(1.93813775969,0.90498845531));
#393 = CARTESIAN_POINT('',(2.03767556332,0.846596612925));
#394 = CARTESIAN_POINT('',(2.068894140019,0.827021817802));
#395 = CARTESIAN_POINT('',(2.099681475917,0.806622740823));
#396 = CARTESIAN_POINT('',(2.130056228787,0.785563584017));
#397 = CARTESIAN_POINT('',(2.160035367419,0.764000113046));
#398 = CARTESIAN_POINT('',(2.211741390983,0.725706277564));
#399 = CARTESIAN_POINT('',(2.233640453639,0.709131164876));
#400 = CARTESIAN_POINT('',(2.255343120524,0.692410400649));
#401 = CARTESIAN_POINT('',(2.276860244049,0.675598066586));
#402 = CARTESIAN_POINT('',(2.298202845944,0.658744824881));
#403 = CARTESIAN_POINT('',(2.335193724011,0.629320683661));
#404 = CARTESIAN_POINT('',(2.3509142023,0.616747105673));
#405 = CARTESIAN_POINT('',(2.366548138493,0.60419691973));
#406 = CARTESIAN_POINT('',(2.382100018007,0.591689109512));
#407 = CARTESIAN_POINT('',(2.397574225307,0.579241906903));
#408 = CARTESIAN_POINT('',(2.458197871031,0.530552232693));
#409 = CARTESIAN_POINT('',(2.502797507811,0.494897446783));
#410 = CARTESIAN_POINT('',(2.546872777189,0.460360001914));
#411 = CARTESIAN_POINT('',(2.590511221508,0.427346699534));
#412 = CARTESIAN_POINT('',(2.633798189549,0.396222667401));
#413 = CARTESIAN_POINT('',(2.755461399897,0.31448314849));
#414 = CARTESIAN_POINT('',(2.833365816835,0.268962351027));
#415 = CARTESIAN_POINT('',(2.910706274279,0.233054616304));
#416 = CARTESIAN_POINT('',(2.987698571248,0.208481850924));
#417 = CARTESIAN_POINT('',(3.064572291997,0.196152422707));
#418 = CARTESIAN_POINT('',(3.182759451662,0.196152422707));
#419 = CARTESIAN_POINT('',(3.223918050347,0.199674593161));
#420 = CARTESIAN_POINT('',(3.265094801843,0.20671730549));
#421 = CARTESIAN_POINT('',(3.306313182798,0.217201456036));
#422 = CARTESIAN_POINT('',(3.347594483384,0.230974666973));
#423 = CARTESIAN_POINT('',(3.425392038551,0.262648930372));
#424 = CARTESIAN_POINT('',(3.461888146966,0.279861734968));
#425 = CARTESIAN_POINT('',(3.498482716338,0.299312158726));
#426 = CARTESIAN_POINT('',(3.535209141701,0.320827066073));
#427 = CARTESIAN_POINT('',(3.572099904696,0.344204896506));
#428 = CARTESIAN_POINT('',(3.685565084008,0.420730148984));
#429 = CARTESIAN_POINT('',(3.762694656443,0.479122523975));
#430 = CARTESIAN_POINT('',(3.841140137736,0.542569847904));
#431 = CARTESIAN_POINT('',(3.921459992997,0.608975722965));
#432 = CARTESIAN_POINT('',(4.004204737743,0.675722456698));
#433 = CARTESIAN_POINT('',(4.119838920247,0.761607510782));
#434 = CARTESIAN_POINT('',(4.15003186336,0.783394621044));
#435 = CARTESIAN_POINT('',(4.180625362179,0.804679769137));
#436 = CARTESIAN_POINT('',(4.211637174627,0.825304087981));
#437 = CARTESIAN_POINT('',(4.243086769827,0.845099853472));
#438 = CARTESIAN_POINT('',(4.300705489471,0.879032299695));
#439 = CARTESIAN_POINT('',(4.326716473085,0.893523107702));
#440 = CARTESIAN_POINT('',(4.353020442124,0.907260147108));
#441 = CARTESIAN_POINT('',(4.379610577206,0.920141040458));
#442 = CARTESIAN_POINT('',(4.406482009974,0.932066807001));
#443 = CARTESIAN_POINT('',(4.478678521788,0.960990089589));
#444 = CARTESIAN_POINT('',(4.524559470814,0.976175851065));
#445 = CARTESIAN_POINT('',(4.571052555142,0.987969938588));
#446 = CARTESIAN_POINT('',(4.617969748518,0.995981388712));
#447 = CARTESIAN_POINT('',(4.665139027851,1.));
#448 = CARTESIAN_POINT('',(4.712388980385,1.));
#449 = ( GEOMETRIC_REPRESENTATION_CONTEXT(2) 
PARAMETRIC_REPRESENTATION_CONTEXT() REPRESENTATION_CONTEXT('2D SPACE',''
  ) );
#450 = PCURVE('',#102,#451);
#451 = DEFINITIONAL_REPRESENTATION('',(#452),#515);
#452 = B_SPLINE_CURVE_WITH_KNOTS('',6,(#453,#454,#455,#456,#457,#458,
    #459,#460,#461,#462,#463,#464,#465,#466,#467,#468,#469,#470,#471,
    #472,#473,#474,#475,#476,#477,#478,#479,#480,#481,#482,#483,#484,
    #485,#486,#487,#488,#489,#490,#491,#492,#493,#494,#495,#496,#497,
    #498,#499,#500,#501,#502,#503,#504,#505,#506,#507,#508,#509,#510,
    #511,#512,#513,#514),.UNSPECIFIED.,.F.,.F.,(7,5,5,5,5,5,5,5,5,5,5,5,
    7),(0.,0.118054470968,0.173146870609,0.214291642087,0.245008702022,
    0.335206004318,0.50004637969,0.588152307873,0.665756264114,
    0.825568351419,0.881076108087,0.925797606962,1.),.UNSPECIFIED.);
#453 = CARTESIAN_POINT('',(6.28318530718,6.));
#454 = CARTESIAN_POINT('',(6.245397363905,6.));
#455 = CARTESIAN_POINT('',(6.207942360271,5.979437683786));
#456 = CARTESIAN_POINT('',(6.171294711978,5.938993448384));
#457 = CARTESIAN_POINT('',(6.135915887135,5.88034897903));
#458 = CARTESIAN_POINT('',(6.1022699528,5.806184541724));
#459 = CARTESIAN_POINT('',(6.05610298676,5.680289421478));
#460 = CARTESIAN_POINT('',(6.041827123478,5.637529867325));
#461 = CARTESIAN_POINT('',(6.027967799083,5.59228897834));
#462 = CARTESIAN_POINT('',(6.014527551508,5.544771973403));
#463 = CARTESIAN_POINT('',(6.001508385322,5.495169372378));
#464 = CARTESIAN_POINT('',(5.979503840551,5.405186962816));
#465 = CARTESIAN_POINT('',(5.970329814293,5.365643759017));
#466 = CARTESIAN_POINT('',(5.961388390902,5.325093377017));
#467 = CARTESIAN_POINT('',(5.952678400435,5.283594757548));
#468 = CARTESIAN_POINT('',(5.944198589796,5.241200397656));
#469 = CARTESIAN_POINT('',(5.929787776884,5.165672054682));
#470 = CARTESIAN_POINT('',(5.923755530088,5.132914454854));
#471 = CARTESIAN_POINT('',(5.91785037323,5.099702863162));
#472 = CARTESIAN_POINT('',(5.912071876057,5.066055216377));
#473 = CARTESIAN_POINT('',(5.906419687187,5.031988076102));
#474 = CARTESIAN_POINT('',(5.884666587205,4.896294976627));
#475 = CARTESIAN_POINT('',(5.869522892071,4.791566447867));
#476 = CARTESIAN_POINT('',(5.855460095716,4.683733789427));
#477 = CARTESIAN_POINT('',(5.842482023163,4.57313278062));
#478 = CARTESIAN_POINT('',(5.830597266157,4.460033711712));
#479 = CARTESIAN_POINT('',(5.800117671775,4.133759937916));
#480 = CARTESIAN_POINT('',(5.78407566755,3.91485967595));
#481 = CARTESIAN_POINT('',(5.771887371065,3.690191188116));
#482 = CARTESIAN_POINT('',(5.763696312411,3.461682462672));
#483 = CARTESIAN_POINT('',(5.759586531581,3.231061084778));
#484 = CARTESIAN_POINT('',(5.759586531581,2.876499605783));
#485 = CARTESIAN_POINT('',(5.76076062605,2.753023856448));
#486 = CARTESIAN_POINT('',(5.763108091474,2.629870201631));
#487 = CARTESIAN_POINT('',(5.766620820197,2.507344660481));
#488 = CARTESIAN_POINT('',(5.77128341031,2.385762263004));
#489 = CARTESIAN_POINT('',(5.782172967965,2.159473892779));
#490 = CARTESIAN_POINT('',(5.788147005884,2.054488360094));
#491 = CARTESIAN_POINT('',(5.79498308188,1.950647245027));
#492 = CARTESIAN_POINT('',(5.802667948619,1.848121554846));
#493 = CARTESIAN_POINT('',(5.811187741486,1.747097389093));
#494 = CARTESIAN_POINT('',(5.839763649161,1.443241721817));
#495 = CARTESIAN_POINT('',(5.862458514816,1.246158273354));
#496 = CARTESIAN_POINT('',(5.888544978505,1.05750814938));
#497 = CARTESIAN_POINT('',(5.918032009116,0.878833284396));
#498 = CARTESIAN_POINT('',(5.950965617466,0.712579911555));
#499 = CARTESIAN_POINT('',(6.000074726073,0.510351683432));
#500 = CARTESIAN_POINT('',(6.013163795694,0.46014754972));
#501 = CARTESIAN_POINT('',(6.026680916105,0.412051012521));
#502 = CARTESIAN_POINT('',(6.040624247115,0.36625581698));
#503 = CARTESIAN_POINT('',(6.054991413408,0.322971168763));
#504 = CARTESIAN_POINT('',(6.08169438607,0.249752949561));
#505 = CARTESIAN_POINT('',(6.09388395083,0.218855270297));
#506 = CARTESIAN_POINT('',(6.106337495799,0.189874519941));
#507 = CARTESIAN_POINT('',(6.119043694815,0.16295029613));
#508 = CARTESIAN_POINT('',(6.131990853643,0.138217237634));
#509 = CARTESIAN_POINT('',(6.167028839545,7.862020146472E-02));
#510 = CARTESIAN_POINT('',(6.189554086841,4.776942520074E-02));
#511 = CARTESIAN_POINT('',(6.212588326825,2.406011910269E-02));
#512 = CARTESIAN_POINT('',(6.235975683991,8.037223788583E-03));
#513 = CARTESIAN_POINT('',(6.259560330913,0.));
#514 = CARTESIAN_POINT('',(6.28318530718,0.));
#515 = ( GEOMETRIC_REPRESENTATION_CONTEXT(2) 
PARAMETRIC_REPRESENTATION_CONTEXT() REPRESENTATION_CONTEXT('2D SPACE',''
  ) );
#516 = ADVANCED_FACE('',(#517),#102,.T.);
#517 = FACE_BOUND('',#518,.T.);
#518 = EDGE_LOOP('',(#519,#520,#547,#548,#549));
#519 = ORIENTED_EDGE('',*,*,#319,.F.);
#520 = ORIENTED_EDGE('',*,*,#521,.F.);
#521 = EDGE_CURVE('',#195,#195,#522,.T.);
#522 = SURFACE_CURVE('',#523,(#528,#535),.PCURVE_S1.);
#523 = CIRCLE('',#524,6.);
#524 = AXIS2_PLACEMENT_3D('',#525,#526,#527);
#525 = CARTESIAN_POINT('',(-9.2,3.,605.00242841321));
#526 = DIRECTION('',(0.,1.,0.));
#527 = DIRECTION('',(0.,-0.,1.));
#528 = PCURVE('',#102,#529);
#529 = DEFINITIONAL_REPRESENTATION('',(#530),#534);
#530 = LINE('',#531,#532);
#531 = CARTESIAN_POINT('',(0.,6.));
#532 = VECTOR('',#533,1.);
#533 = DIRECTION('',(1.,0.));
#534 = ( GEOMETRIC_REPRESENTATION_CONTEXT(2) 
PARAMETRIC_REPRESENTATION_CONTEXT() REPRESENTATION_CONTEXT('2D SPACE',''
  ) );
#535 = PCURVE('',#536,#541);
#536 = PLANE('',#537);
#537 = AXIS2_PLACEMENT_3D('',#538,#539,#540);
#538 = CARTESIAN_POINT('',(-9.2,3.,605.00242841321));
#539 = DIRECTION('',(0.,1.,0.));
#540 = DIRECTION('',(0.,-0.,1.));
#541 = DEFINITIONAL_REPRESENTATION('',(#542),#546);
#542 = CIRCLE('',#543,6.);
#543 = AXIS2_PLACEMENT_2D('',#544,#545);
#544 = CARTESIAN_POINT('',(0.,0.));
#545 = DIRECTION('',(1.,0.));
#546 = ( GEOMETRIC_REPRESENTATION_CONTEXT(2) 
PARAMETRIC_REPRESENTATION_CONTEXT() REPRESENTATION_CONTEXT('2D SPACE',''
  ) );
#547 = ORIENTED_EDGE('',*,*,#194,.F.);
#548 = ORIENTED_EDGE('',*,*,#21,.F.);
#549 = ORIENTED_EDGE('',*,*,#550,.T.);
#550 = EDGE_CURVE('',#22,#22,#551,.T.);
#551 = SURFACE_CURVE('',#552,(#557,#564),.PCURVE_S1.);
#552 = CIRCLE('',#553,6.);
#553 = AXIS2_PLACEMENT_3D('',#554,#555,#556);
#554 = CARTESIAN_POINT('',(-9.2,-3.,605.00242841321));
#555 = DIRECTION('',(0.,1.,0.));
#556 = DIRECTION('',(0.,-0.,1.));
#557 = PCURVE('',#102,#558);
#558 = DEFINITIONAL_REPRESENTATION('',(#559),#563);
#559 = LINE('',#560,#561);
#560 = CARTESIAN_POINT('',(0.,0.));
#561 = VECTOR('',#562,1.);
#562 = DIRECTION('',(1.,0.));
#563 = ( GEOMETRIC_REPRESENTATION_CONTEXT(2) 
PARAMETRIC_REPRESENTATION_CONTEXT() REPRESENTATION_CONTEXT('2D SPACE',''
  ) );
#564 = PCURVE('',#565,#570);
#565 = PLANE('',#566);
#566 = AXIS2_PLACEMENT_3D('',#567,#568,#569);
#567 = CARTESIAN_POINT('',(-9.2,-3.,605.00242841321));
#568 = DIRECTION('',(0.,1.,0.));
#569 = DIRECTION('',(0.,-0.,1.));
#570 = DEFINITIONAL_REPRESENTATION('',(#571),#575);
#571 = CIRCLE('',#572,6.);
#572 = AXIS2_PLACEMENT_2D('',#573,#574);
#573 = CARTESIAN_POINT('',(0.,0.));
#574 = DIRECTION('',(1.,0.));
#575 = ( GEOMETRIC_REPRESENTATION_CONTEXT(2) 
PARAMETRIC_REPRESENTATION_CONTEXT() REPRESENTATION_CONTEXT('2D SPACE',''
  ) );
#576 = ADVANCED_FACE('',(#577,#608),#181,.F.);
#577 = FACE_BOUND('',#578,.F.);
#578 = EDGE_LOOP('',(#579));
#579 = ORIENTED_EDGE('',*,*,#580,.T.);
#580 = EDGE_CURVE('',#581,#581,#583,.T.);
#581 = VERTEX_POINT('',#582);
#582 = CARTESIAN_POINT('',(-4.7,-1.102182119233E-15,634.62803785313));
#583 = SURFACE_CURVE('',#584,(#589,#596),.PCURVE_S1.);
#584 = CIRCLE('',#585,4.5);
#585 = AXIS2_PLACEMENT_3D('',#586,#587,#588);
#586 = CARTESIAN_POINT('',(-9.2,0.,634.62803785313));
#587 = DIRECTION('',(0.,0.,1.));
#588 = DIRECTION('',(1.,0.,-0.));
#589 = PCURVE('',#181,#590);
#590 = DEFINITIONAL_REPRESENTATION('',(#591),#595);
#591 = CIRCLE('',#592,4.5);
#592 = AXIS2_PLACEMENT_2D('',#593,#594);
#593 = CARTESIAN_POINT('',(0.,0.));
#594 = DIRECTION('',(1.,0.));
#595 = ( GEOMETRIC_REPRESENTATION_CONTEXT(2) 
PARAMETRIC_REPRESENTATION_CONTEXT() REPRESENTATION_CONTEXT('2D SPACE',''
  ) );
#596 = PCURVE('',#597,#602);
#597 = CYLINDRICAL_SURFACE('',#598,4.5);
#598 = AXIS2_PLACEMENT_3D('',#599,#600,#601);
#599 = CARTESIAN_POINT('',(-9.2,0.,634.62803785313));
#600 = DIRECTION('',(0.,0.,1.));
#601 = DIRECTION('',(1.,0.,-0.));
#602 = DEFINITIONAL_REPRESENTATION('',(#603),#607);
#603 = LINE('',#604,#605);
#604 = CARTESIAN_POINT('',(0.,0.));
#605 = VECTOR('',#606,1.);
#606 = DIRECTION('',(1.,0.));
#607 = ( GEOMETRIC_REPRESENTATION_CONTEXT(2) 
PARAMETRIC_REPRESENTATION_CONTEXT() REPRESENTATION_CONTEXT('2D SPACE',''
  ) );
#608 = FACE_BOUND('',#609,.F.);
#609 = EDGE_LOOP('',(#610));
#610 = ORIENTED_EDGE('',*,*,#166,.F.);
#611 = ADVANCED_FACE('',(#612,#615),#565,.F.);
#612 = FACE_BOUND('',#613,.F.);
#613 = EDGE_LOOP('',(#614));
#614 = ORIENTED_EDGE('',*,*,#550,.T.);
#615 = FACE_BOUND('',#616,.F.);
#616 = EDGE_LOOP('',(#617));
#617 = ORIENTED_EDGE('',*,*,#618,.F.);
#618 = EDGE_CURVE('',#619,#619,#621,.T.);
#619 = VERTEX_POINT('',#620);
#620 = CARTESIAN_POINT('',(-9.2,-3.,607.65242841321));
#621 = SURFACE_CURVE('',#622,(#627,#634),.PCURVE_S1.);
#622 = CIRCLE('',#623,2.65);
#623 = AXIS2_PLACEMENT_3D('',#624,#625,#626);
#624 = CARTESIAN_POINT('',(-9.2,-3.,605.00242841321));
#625 = DIRECTION('',(0.,1.,0.));
#626 = DIRECTION('',(0.,-0.,1.));
#627 = PCURVE('',#565,#628);
#628 = DEFINITIONAL_REPRESENTATION('',(#629),#633);
#629 = CIRCLE('',#630,2.65);
#630 = AXIS2_PLACEMENT_2D('',#631,#632);
#631 = CARTESIAN_POINT('',(0.,0.));
#632 = DIRECTION('',(1.,0.));
#633 = ( GEOMETRIC_REPRESENTATION_CONTEXT(2) 
PARAMETRIC_REPRESENTATION_CONTEXT() REPRESENTATION_CONTEXT('2D SPACE',''
  ) );
#634 = PCURVE('',#635,#640);
#635 = CYLINDRICAL_SURFACE('',#636,2.65);
#636 = AXIS2_PLACEMENT_3D('',#637,#638,#639);
#637 = CARTESIAN_POINT('',(-9.2,-8.,605.00242841321));
#638 = DIRECTION('',(0.,1.,0.));
#639 = DIRECTION('',(0.,-0.,1.));
#640 = DEFINITIONAL_REPRESENTATION('',(#641),#645);
#641 = LINE('',#642,#643);
#642 = CARTESIAN_POINT('',(0.,5.));
#643 = VECTOR('',#644,1.);
#644 = DIRECTION('',(1.,0.));
#645 = ( GEOMETRIC_REPRESENTATION_CONTEXT(2) 
PARAMETRIC_REPRESENTATION_CONTEXT() REPRESENTATION_CONTEXT('2D SPACE',''
  ) );
#646 = ADVANCED_FACE('',(#647,#650),#536,.T.);
#647 = FACE_BOUND('',#648,.T.);
#648 = EDGE_LOOP('',(#649));
#649 = ORIENTED_EDGE('',*,*,#521,.T.);
#650 = FACE_BOUND('',#651,.T.);
#651 = EDGE_LOOP('',(#652));
#652 = ORIENTED_EDGE('',*,*,#653,.F.);
#653 = EDGE_CURVE('',#654,#654,#656,.T.);
#654 = VERTEX_POINT('',#655);
#655 = CARTESIAN_POINT('',(-9.2,3.,607.65242841321));
#656 = SURFACE_CURVE('',#657,(#662,#669),.PCURVE_S1.);
#657 = CIRCLE('',#658,2.65);
#658 = AXIS2_PLACEMENT_3D('',#659,#660,#661);
#659 = CARTESIAN_POINT('',(-9.2,3.,605.00242841321));
#660 = DIRECTION('',(0.,1.,0.));
#661 = DIRECTION('',(0.,-0.,1.));
#662 = PCURVE('',#536,#663);
#663 = DEFINITIONAL_REPRESENTATION('',(#664),#668);
#664 = CIRCLE('',#665,2.65);
#665 = AXIS2_PLACEMENT_2D('',#666,#667);
#666 = CARTESIAN_POINT('',(0.,0.));
#667 = DIRECTION('',(1.,0.));
#668 = ( GEOMETRIC_REPRESENTATION_CONTEXT(2) 
PARAMETRIC_REPRESENTATION_CONTEXT() REPRESENTATION_CONTEXT('2D SPACE',''
  ) );
#669 = PCURVE('',#635,#670);
#670 = DEFINITIONAL_REPRESENTATION('',(#671),#675);
#671 = LINE('',#672,#673);
#672 = CARTESIAN_POINT('',(0.,11.));
#673 = VECTOR('',#674,1.);
#674 = DIRECTION('',(1.,0.));
#675 = ( GEOMETRIC_REPRESENTATION_CONTEXT(2) 
PARAMETRIC_REPRESENTATION_CONTEXT() REPRESENTATION_CONTEXT('2D SPACE',''
  ) );
#676 = ADVANCED_FACE('',(#677),#597,.T.);
#677 = FACE_BOUND('',#678,.T.);
#678 = EDGE_LOOP('',(#679,#708,#729,#730));
#679 = ORIENTED_EDGE('',*,*,#680,.F.);
#680 = EDGE_CURVE('',#681,#681,#683,.T.);
#681 = VERTEX_POINT('',#682);
#682 = CARTESIAN_POINT('',(-4.7,-1.102182119233E-15,642.62803785313));
#683 = SURFACE_CURVE('',#684,(#689,#696),.PCURVE_S1.);
#684 = CIRCLE('',#685,4.5);
#685 = AXIS2_PLACEMENT_3D('',#686,#687,#688);
#686 = CARTESIAN_POINT('',(-9.2,0.,642.62803785313));
#687 = DIRECTION('',(0.,0.,1.));
#688 = DIRECTION('',(1.,0.,-0.));
#689 = PCURVE('',#597,#690);
#690 = DEFINITIONAL_REPRESENTATION('',(#691),#695);
#691 = LINE('',#692,#693);
#692 = CARTESIAN_POINT('',(0.,8.));
#693 = VECTOR('',#694,1.);
#694 = DIRECTION('',(1.,0.));
#695 = ( GEOMETRIC_REPRESENTATION_CONTEXT(2) 
PARAMETRIC_REPRESENTATION_CONTEXT() REPRESENTATION_CONTEXT('2D SPACE',''
  ) );
#696 = PCURVE('',#697,#702);
#697 = PLANE('',#698);
#698 = AXIS2_PLACEMENT_3D('',#699,#700,#701);
#699 = CARTESIAN_POINT('',(-9.2,0.,642.62803785313));
#700 = DIRECTION('',(0.,0.,1.));
#701 = DIRECTION('',(1.,0.,-0.));
#702 = DEFINITIONAL_REPRESENTATION('',(#703),#707);
#703 = CIRCLE('',#704,4.5);
#704 = AXIS2_PLACEMENT_2D('',#705,#706);
#705 = CARTESIAN_POINT('',(0.,0.));
#706 = DIRECTION('',(1.,0.));
#707 = ( GEOMETRIC_REPRESENTATION_CONTEXT(2) 
PARAMETRIC_REPRESENTATION_CONTEXT() REPRESENTATION_CONTEXT('2D SPACE',''
  ) );
#708 = ORIENTED_EDGE('',*,*,#709,.F.);
#709 = EDGE_CURVE('',#581,#681,#710,.T.);
#710 = SEAM_CURVE('',#711,(#715,#722),.PCURVE_S1.);
#711 = LINE('',#712,#713);
#712 = CARTESIAN_POINT('',(-4.7,-1.102182119233E-15,634.62803785313));
#713 = VECTOR('',#714,1.);
#714 = DIRECTION('',(0.,0.,1.));
#715 = PCURVE('',#597,#716);
#716 = DEFINITIONAL_REPRESENTATION('',(#717),#721);
#717 = LINE('',#718,#719);
#718 = CARTESIAN_POINT('',(6.28318530718,-0.));
#719 = VECTOR('',#720,1.);
#720 = DIRECTION('',(0.,1.));
#721 = ( GEOMETRIC_REPRESENTATION_CONTEXT(2) 
PARAMETRIC_REPRESENTATION_CONTEXT() REPRESENTATION_CONTEXT('2D SPACE',''
  ) );
#722 = PCURVE('',#597,#723);
#723 = DEFINITIONAL_REPRESENTATION('',(#724),#728);
#724 = LINE('',#725,#726);
#725 = CARTESIAN_POINT('',(0.,-0.));
#726 = VECTOR('',#727,1.);
#727 = DIRECTION('',(0.,1.));
#728 = ( GEOMETRIC_REPRESENTATION_CONTEXT(2) 
PARAMETRIC_REPRESENTATION_CONTEXT() REPRESENTATION_CONTEXT('2D SPACE',''
  ) );
#729 = ORIENTED_EDGE('',*,*,#580,.T.);
#730 = ORIENTED_EDGE('',*,*,#709,.T.);
#731 = ADVANCED_FACE('',(#732),#635,.F.);
#732 = FACE_BOUND('',#733,.F.);
#733 = EDGE_LOOP('',(#734,#735,#756,#757));
#734 = ORIENTED_EDGE('',*,*,#653,.F.);
#735 = ORIENTED_EDGE('',*,*,#736,.F.);
#736 = EDGE_CURVE('',#619,#654,#737,.T.);
#737 = SEAM_CURVE('',#738,(#742,#749),.PCURVE_S1.);
#738 = LINE('',#739,#740);
#739 = CARTESIAN_POINT('',(-9.2,-8.,607.65242841321));
#740 = VECTOR('',#741,1.);
#741 = DIRECTION('',(0.,1.,0.));
#742 = PCURVE('',#635,#743);
#743 = DEFINITIONAL_REPRESENTATION('',(#744),#748);
#744 = LINE('',#745,#746);
#745 = CARTESIAN_POINT('',(6.28318530718,-0.));
#746 = VECTOR('',#747,1.);
#747 = DIRECTION('',(0.,1.));
#748 = ( GEOMETRIC_REPRESENTATION_CONTEXT(2) 
PARAMETRIC_REPRESENTATION_CONTEXT() REPRESENTATION_CONTEXT('2D SPACE',''
  ) );
#749 = PCURVE('',#635,#750);
#750 = DEFINITIONAL_REPRESENTATION('',(#751),#755);
#751 = LINE('',#752,#753);
#752 = CARTESIAN_POINT('',(0.,-0.));
#753 = VECTOR('',#754,1.);
#754 = DIRECTION('',(0.,1.));
#755 = ( GEOMETRIC_REPRESENTATION_CONTEXT(2) 
PARAMETRIC_REPRESENTATION_CONTEXT() REPRESENTATION_CONTEXT('2D SPACE',''
  ) );
#756 = ORIENTED_EDGE('',*,*,#618,.T.);
#757 = ORIENTED_EDGE('',*,*,#736,.T.);
#758 = ADVANCED_FACE('',(#759),#697,.T.);
#759 = FACE_BOUND('',#760,.T.);
#760 = EDGE_LOOP('',(#761));
#761 = ORIENTED_EDGE('',*,*,#680,.T.);
#762 = ( GEOMETRIC_REPRESENTATION_CONTEXT(3) 
GLOBAL_UNCERTAINTY_ASSIGNED_CONTEXT((#766)) GLOBAL_UNIT_ASSIGNED_CONTEXT
((#763,#764,#765)) REPRESENTATION_CONTEXT('Context #1',
  '3D Context with UNIT and UNCERTAINTY') );
#763 = ( LENGTH_UNIT() NAMED_UNIT(*) SI_UNIT(.MILLI.,.METRE.) );
#764 = ( NAMED_UNIT(*) PLANE_ANGLE_UNIT() SI_UNIT($,.RADIAN.) );
#765 = ( NAMED_UNIT(*) SI_UNIT($,.STERADIAN.) SOLID_ANGLE_UNIT() );
#766 = UNCERTAINTY_MEASURE_WITH_UNIT(LENGTH_MEASURE(1.E-07),#763,
  'distance_accuracy_value','confusion accuracy');
#767 = PRODUCT_RELATED_PRODUCT_CATEGORY('part',$,(#7));
ENDSEC;
END-ISO-10303-21;
