ISO-10303-21;
HEADER;
FILE_DESCRIPTION(('Open CASCADE Model'),'2;1');
FILE_NAME('Open CASCADE Shape Model','2026-08-26T03:20:18',('Author'),(
    'Open CASCADE'),'Open CASCADE STEP processor 7.9','Open CASCADE 7.9'
  ,'Unknown');
FILE_SCHEMA((
'AP242_MANAGED_MODEL_BASED_3D_ENGINEERING_MIM_LF {1 0 10303 442 1 1 4 }'
    ));
ENDSEC;
DATA;
#1 = APPLICATION_PROTOCOL_DEFINITION('international standard',
  'ap242_managed_model_based_3d_engineering',2013,#2);
#2 = APPLICATION_CONTEXT('Managed model based 3d engineering');
#3 = SHAPE_DEFINITION_REPRESENTATION(#4,#10);
#4 = PRODUCT_DEFINITION_SHAPE('','',#5);
#5 = PRODUCT_DEFINITION('design','',#6,#9);
#6 = PRODUCT_DEFINITION_FORMATION('','',#7);
#7 = PRODUCT(
'STRUCTURAL_RECOVERY_TETHER_WITH_TWO_BURIED_EYE_SPLICES_HMPE_DEPLOYED_
PART',
'STRUCTURAL_RECOVERY_TETHER_WITH_TWO_BURIED_EYE_SPLICES_HMPE_DEPLOYED_
PART','',(#8));
#8 = PRODUCT_CONTEXT('',#2,'mechanical');
#9 = PRODUCT_DEFINITION_CONTEXT('part definition',#2,'design');
#10 = SHAPE_REPRESENTATION('',(#11,#15),#19);
#11 = AXIS2_PLACEMENT_3D('',#12,#13,#14);
#12 = CARTESIAN_POINT('',(0.,0.,0.));
#13 = DIRECTION('',(0.,0.,1.));
#14 = DIRECTION('',(1.,0.,-0.));
#15 = AXIS2_PLACEMENT_3D('',#16,#17,#18);
#16 = CARTESIAN_POINT('',(0.,0.,0.));
#17 = DIRECTION('',(0.,0.,1.));
#18 = DIRECTION('',(1.,0.,-0.));
#19 = ( GEOMETRIC_REPRESENTATION_CONTEXT(3) 
GLOBAL_UNCERTAINTY_ASSIGNED_CONTEXT((#23)) GLOBAL_UNIT_ASSIGNED_CONTEXT(
(#20,#21,#22)) REPRESENTATION_CONTEXT('Context #1',
  '3D Context with UNIT and UNCERTAINTY') );
#20 = ( LENGTH_UNIT() NAMED_UNIT(*) SI_UNIT(.MILLI.,.METRE.) );
#21 = ( NAMED_UNIT(*) PLANE_ANGLE_UNIT() SI_UNIT($,.RADIAN.) );
#22 = ( NAMED_UNIT(*) SI_UNIT($,.STERADIAN.) SOLID_ANGLE_UNIT() );
#23 = UNCERTAINTY_MEASURE_WITH_UNIT(LENGTH_MEASURE(2.E-07),#20,
  'distance_accuracy_value','confusion accuracy');
#24 = PRODUCT_RELATED_PRODUCT_CATEGORY('part',$,(#7));
#25 = SHAPE_DEFINITION_REPRESENTATION(#26,#32);
#26 = PRODUCT_DEFINITION_SHAPE('','',#27);
#27 = PRODUCT_DEFINITION('design','',#28,#31);
#28 = PRODUCT_DEFINITION_FORMATION('','',#29);
#29 = PRODUCT(
'STRUCTURAL_RECOVERY_TETHER_WITH_TWO_BURIED_EYE_SPLICES_HMPE_DEPLOYED_
LOCAL_DEFINITION',
'STRUCTURAL_RECOVERY_TETHER_WITH_TWO_BURIED_EYE_SPLICES_HMPE_DEPLOYED_
LOCAL_DEFINITION','',(#30));
#30 = PRODUCT_CONTEXT('',#2,'mechanical');
#31 = PRODUCT_DEFINITION_CONTEXT('part definition',#2,'design');
#32 = ADVANCED_BREP_SHAPE_REPRESENTATION('',(#11,#33),#745);
#33 = MANIFOLD_SOLID_BREP('',#34);
#34 = CLOSED_SHELL('',(#35,#188,#192,#222,#455,#505,#589,#702,#708,#735,
    #741));
#35 = ADVANCED_FACE('',(#36),#50,.T.);
#36 = FACE_BOUND('',#37,.T.);
#37 = EDGE_LOOP('',(#38,#68,#97,#138,#160,#161));
#38 = ORIENTED_EDGE('',*,*,#39,.T.);
#39 = EDGE_CURVE('',#40,#42,#44,.T.);
#40 = VERTEX_POINT('',#41);
#41 = CARTESIAN_POINT('',(31.764705882353,-4.898587196589E-16,
    1.612058823529E+03));
#42 = VERTEX_POINT('',#43);
#43 = CARTESIAN_POINT('',(39.764705882353,-4.89858719659E-16,
    1.627058823529E+03));
#44 = SEAM_CURVE('',#45,(#49,#61),.PCURVE_S1.);
#45 = LINE('',#46,#47);
#46 = CARTESIAN_POINT('',(31.764705882353,-4.898587196589E-16,
    1.612058823529E+03));
#47 = VECTOR('',#48,1.);
#48 = DIRECTION('',(0.470588235294,0.,0.882352941176));
#49 = PCURVE('',#50,#55);
#50 = CYLINDRICAL_SURFACE('',#51,2.);
#51 = AXIS2_PLACEMENT_3D('',#52,#53,#54);
#52 = CARTESIAN_POINT('',(30.,0.,1.613E+03));
#53 = DIRECTION('',(0.470588235294,0.,0.882352941176));
#54 = DIRECTION('',(0.882352941176,0.,-0.470588235294));
#55 = DEFINITIONAL_REPRESENTATION('',(#56),#60);
#56 = LINE('',#57,#58);
#57 = CARTESIAN_POINT('',(6.28318530718,-0.));
#58 = VECTOR('',#59,1.);
#59 = DIRECTION('',(0.,1.));
#60 = ( GEOMETRIC_REPRESENTATION_CONTEXT(2) 
PARAMETRIC_REPRESENTATION_CONTEXT() REPRESENTATION_CONTEXT('2D SPACE',''
  ) );
#61 = PCURVE('',#50,#62);
#62 = DEFINITIONAL_REPRESENTATION('',(#63),#67);
#63 = LINE('',#64,#65);
#64 = CARTESIAN_POINT('',(0.,-0.));
#65 = VECTOR('',#66,1.);
#66 = DIRECTION('',(0.,1.));
#67 = ( GEOMETRIC_REPRESENTATION_CONTEXT(2) 
PARAMETRIC_REPRESENTATION_CONTEXT() REPRESENTATION_CONTEXT('2D SPACE',''
  ) );
#68 = ORIENTED_EDGE('',*,*,#69,.F.);
#69 = EDGE_CURVE('',#70,#42,#72,.T.);
#70 = VERTEX_POINT('',#71);
#71 = CARTESIAN_POINT('',(38.,-2.,1.628E+03));
#72 = SURFACE_CURVE('',#73,(#78,#85),.PCURVE_S1.);
#73 = CIRCLE('',#74,2.);
#74 = AXIS2_PLACEMENT_3D('',#75,#76,#77);
#75 = CARTESIAN_POINT('',(38.,0.,1.628E+03));
#76 = DIRECTION('',(0.470588235294,0.,0.882352941176));
#77 = DIRECTION('',(0.882352941176,0.,-0.470588235294));
#78 = PCURVE('',#50,#79);
#79 = DEFINITIONAL_REPRESENTATION('',(#80),#84);
#80 = LINE('',#81,#82);
#81 = CARTESIAN_POINT('',(0.,17.));
#82 = VECTOR('',#83,1.);
#83 = DIRECTION('',(1.,0.));
#84 = ( GEOMETRIC_REPRESENTATION_CONTEXT(2) 
PARAMETRIC_REPRESENTATION_CONTEXT() REPRESENTATION_CONTEXT('2D SPACE',''
  ) );
#85 = PCURVE('',#86,#91);
#86 = PLANE('',#87);
#87 = AXIS2_PLACEMENT_3D('',#88,#89,#90);
#88 = CARTESIAN_POINT('',(38.,0.,1.628E+03));
#89 = DIRECTION('',(0.470588235294,0.,0.882352941176));
#90 = DIRECTION('',(0.882352941176,0.,-0.470588235294));
#91 = DEFINITIONAL_REPRESENTATION('',(#92),#96);
#92 = CIRCLE('',#93,2.);
#93 = AXIS2_PLACEMENT_2D('',#94,#95);
#94 = CARTESIAN_POINT('',(0.,0.));
#95 = DIRECTION('',(1.,0.));
#96 = ( GEOMETRIC_REPRESENTATION_CONTEXT(2) 
PARAMETRIC_REPRESENTATION_CONTEXT() REPRESENTATION_CONTEXT('2D SPACE',''
  ) );
#97 = ORIENTED_EDGE('',*,*,#98,.F.);
#98 = EDGE_CURVE('',#99,#70,#101,.T.);
#99 = VERTEX_POINT('',#100);
#100 = CARTESIAN_POINT('',(38.,2.,1.628E+03));
#101 = SURFACE_CURVE('',#102,(#107,#120),.PCURVE_S1.);
#102 = ELLIPSE('',#103,2.093702310199,2.);
#103 = AXIS2_PLACEMENT_3D('',#104,#105,#106);
#104 = CARTESIAN_POINT('',(38.,0.,1.628E+03));
#105 = DIRECTION('',(0.188515233532,0.,0.982070265677));
#106 = DIRECTION('',(0.982070265677,0.,-0.188515233532));
#107 = PCURVE('',#50,#108);
#108 = DEFINITIONAL_REPRESENTATION('',(#109),#119);
#109 = B_SPLINE_CURVE_WITH_KNOTS('',8,(#110,#111,#112,#113,#114,#115,
    #116,#117,#118),.UNSPECIFIED.,.F.,.F.,(9,9),(1.570795842413,
    4.712389464767),.PIECEWISE_BEZIER_KNOTS.);
#110 = CARTESIAN_POINT('',(1.570795842413,17.0000003));
#111 = CARTESIAN_POINT('',(1.963495045207,16.756783652512));
#112 = CARTESIAN_POINT('',(2.356194248001,16.513565012838));
#113 = CARTESIAN_POINT('',(2.748893450778,16.327520784005));
#114 = CARTESIAN_POINT('',(3.141592653597,16.255670889776));
#115 = CARTESIAN_POINT('',(3.534291856377,16.32752078402));
#116 = CARTESIAN_POINT('',(3.926991059179,16.51356501284));
#117 = CARTESIAN_POINT('',(4.319690261972,16.756783652512));
#118 = CARTESIAN_POINT('',(4.712389464767,17.0000003));
#119 = ( GEOMETRIC_REPRESENTATION_CONTEXT(2) 
PARAMETRIC_REPRESENTATION_CONTEXT() REPRESENTATION_CONTEXT('2D SPACE',''
  ) );
#120 = PCURVE('',#121,#126);
#121 = CYLINDRICAL_SURFACE('',#122,2.);
#122 = AXIS2_PLACEMENT_3D('',#123,#124,#125);
#123 = CARTESIAN_POINT('',(38.,0.,1.628E+03));
#124 = DIRECTION('',(-0.110431526075,0.,0.993883734674));
#125 = DIRECTION('',(0.993883734674,0.,0.110431526075));
#126 = DEFINITIONAL_REPRESENTATION('',(#127),#137);
#127 = B_SPLINE_CURVE_WITH_KNOTS('',8,(#128,#129,#130,#131,#132,#133,
    #134,#135,#136),.UNSPECIFIED.,.F.,.F.,(9,9),(1.570795842413,
    4.712389464767),.PIECEWISE_BEZIER_KNOTS.);
#128 = CARTESIAN_POINT('',(1.570795842413,-3.000000106113E-07));
#129 = CARTESIAN_POINT('',(1.963495045207,0.243216347488));
#130 = CARTESIAN_POINT('',(2.356194248,0.486434987149));
#131 = CARTESIAN_POINT('',(2.748893450798,0.672479215992));
#132 = CARTESIAN_POINT('',(3.141592653588,0.744329110166));
#133 = CARTESIAN_POINT('',(3.534291856384,0.672479215993));
#134 = CARTESIAN_POINT('',(3.926991059174,0.486434987149));
#135 = CARTESIAN_POINT('',(4.319690261972,0.243216347488));
#136 = CARTESIAN_POINT('',(4.712389464767,-3.000000106113E-07));
#137 = ( GEOMETRIC_REPRESENTATION_CONTEXT(2) 
PARAMETRIC_REPRESENTATION_CONTEXT() REPRESENTATION_CONTEXT('2D SPACE',''
  ) );
#138 = ORIENTED_EDGE('',*,*,#139,.F.);
#139 = EDGE_CURVE('',#42,#99,#140,.T.);
#140 = SURFACE_CURVE('',#141,(#146,#153),.PCURVE_S1.);
#141 = CIRCLE('',#142,2.);
#142 = AXIS2_PLACEMENT_3D('',#143,#144,#145);
#143 = CARTESIAN_POINT('',(38.,0.,1.628E+03));
#144 = DIRECTION('',(0.470588235294,0.,0.882352941176));
#145 = DIRECTION('',(0.882352941176,0.,-0.470588235294));
#146 = PCURVE('',#50,#147);
#147 = DEFINITIONAL_REPRESENTATION('',(#148),#152);
#148 = LINE('',#149,#150);
#149 = CARTESIAN_POINT('',(0.,17.));
#150 = VECTOR('',#151,1.);
#151 = DIRECTION('',(1.,0.));
#152 = ( GEOMETRIC_REPRESENTATION_CONTEXT(2) 
PARAMETRIC_REPRESENTATION_CONTEXT() REPRESENTATION_CONTEXT('2D SPACE',''
  ) );
#153 = PCURVE('',#86,#154);
#154 = DEFINITIONAL_REPRESENTATION('',(#155),#159);
#155 = CIRCLE('',#156,2.);
#156 = AXIS2_PLACEMENT_2D('',#157,#158);
#157 = CARTESIAN_POINT('',(0.,0.));
#158 = DIRECTION('',(1.,0.));
#159 = ( GEOMETRIC_REPRESENTATION_CONTEXT(2) 
PARAMETRIC_REPRESENTATION_CONTEXT() REPRESENTATION_CONTEXT('2D SPACE',''
  ) );
#160 = ORIENTED_EDGE('',*,*,#39,.F.);
#161 = ORIENTED_EDGE('',*,*,#162,.T.);
#162 = EDGE_CURVE('',#40,#40,#163,.T.);
#163 = SURFACE_CURVE('',#164,(#169,#176),.PCURVE_S1.);
#164 = CIRCLE('',#165,2.);
#165 = AXIS2_PLACEMENT_3D('',#166,#167,#168);
#166 = CARTESIAN_POINT('',(30.,0.,1.613E+03));
#167 = DIRECTION('',(0.470588235294,0.,0.882352941176));
#168 = DIRECTION('',(0.882352941176,0.,-0.470588235294));
#169 = PCURVE('',#50,#170);
#170 = DEFINITIONAL_REPRESENTATION('',(#171),#175);
#171 = LINE('',#172,#173);
#172 = CARTESIAN_POINT('',(0.,0.));
#173 = VECTOR('',#174,1.);
#174 = DIRECTION('',(1.,0.));
#175 = ( GEOMETRIC_REPRESENTATION_CONTEXT(2) 
PARAMETRIC_REPRESENTATION_CONTEXT() REPRESENTATION_CONTEXT('2D SPACE',''
  ) );
#176 = PCURVE('',#177,#182);
#177 = PLANE('',#178);
#178 = AXIS2_PLACEMENT_3D('',#179,#180,#181);
#179 = CARTESIAN_POINT('',(30.,0.,1.613E+03));
#180 = DIRECTION('',(0.470588235294,0.,0.882352941176));
#181 = DIRECTION('',(0.882352941176,0.,-0.470588235294));
#182 = DEFINITIONAL_REPRESENTATION('',(#183),#187);
#183 = CIRCLE('',#184,2.);
#184 = AXIS2_PLACEMENT_2D('',#185,#186);
#185 = CARTESIAN_POINT('',(0.,0.));
#186 = DIRECTION('',(1.,0.));
#187 = ( GEOMETRIC_REPRESENTATION_CONTEXT(2) 
PARAMETRIC_REPRESENTATION_CONTEXT() REPRESENTATION_CONTEXT('2D SPACE',''
  ) );
#188 = ADVANCED_FACE('',(#189),#177,.F.);
#189 = FACE_BOUND('',#190,.T.);
#190 = EDGE_LOOP('',(#191));
#191 = ORIENTED_EDGE('',*,*,#162,.F.);
#192 = ADVANCED_FACE('',(#193),#86,.T.);
#193 = FACE_BOUND('',#194,.T.);
#194 = EDGE_LOOP('',(#195,#196,#197));
#195 = ORIENTED_EDGE('',*,*,#69,.T.);
#196 = ORIENTED_EDGE('',*,*,#139,.T.);
#197 = ORIENTED_EDGE('',*,*,#198,.T.);
#198 = EDGE_CURVE('',#99,#70,#199,.T.);
#199 = SURFACE_CURVE('',#200,(#204,#210),.PCURVE_S1.);
#200 = LINE('',#201,#202);
#201 = CARTESIAN_POINT('',(38.,0.,1.628E+03));
#202 = VECTOR('',#203,1.);
#203 = DIRECTION('',(0.,-1.,0.));
#204 = PCURVE('',#86,#205);
#205 = DEFINITIONAL_REPRESENTATION('',(#206),#209);
#206 = B_SPLINE_CURVE_WITH_KNOTS('',1,(#207,#208),.UNSPECIFIED.,.F.,.F.,
  (2,2),(-2.,2.),.PIECEWISE_BEZIER_KNOTS.);
#207 = CARTESIAN_POINT('',(0.,2.));
#208 = CARTESIAN_POINT('',(0.,-2.));
#209 = ( GEOMETRIC_REPRESENTATION_CONTEXT(2) 
PARAMETRIC_REPRESENTATION_CONTEXT() REPRESENTATION_CONTEXT('2D SPACE',''
  ) );
#210 = PCURVE('',#211,#216);
#211 = PLANE('',#212);
#212 = AXIS2_PLACEMENT_3D('',#213,#214,#215);
#213 = CARTESIAN_POINT('',(38.,0.,1.628E+03));
#214 = DIRECTION('',(0.,0.,1.));
#215 = DIRECTION('',(1.,0.,-0.));
#216 = DEFINITIONAL_REPRESENTATION('',(#217),#221);
#217 = LINE('',#218,#219);
#218 = CARTESIAN_POINT('',(0.,0.));
#219 = VECTOR('',#220,1.);
#220 = DIRECTION('',(0.,-1.));
#221 = ( GEOMETRIC_REPRESENTATION_CONTEXT(2) 
PARAMETRIC_REPRESENTATION_CONTEXT() REPRESENTATION_CONTEXT('2D SPACE',''
  ) );
#222 = ADVANCED_FACE('',(#223),#121,.T.);
#223 = FACE_BOUND('',#224,.T.);
#224 = EDGE_LOOP('',(#225,#261,#284,#316,#317,#349,#350,#384,#423));
#225 = ORIENTED_EDGE('',*,*,#226,.F.);
#226 = EDGE_CURVE('',#227,#229,#231,.T.);
#227 = VERTEX_POINT('',#228);
#228 = CARTESIAN_POINT('',(33.987767469347,-4.898587196589E-16,
    1.682220863052E+03));
#229 = VERTEX_POINT('',#230);
#230 = CARTESIAN_POINT('',(32.,2.,1.682E+03));
#231 = SURFACE_CURVE('',#232,(#237,#244),.PCURVE_S1.);
#232 = CIRCLE('',#233,2.);
#233 = AXIS2_PLACEMENT_3D('',#234,#235,#236);
#234 = CARTESIAN_POINT('',(32.,0.,1.682E+03));
#235 = DIRECTION('',(-0.110431526075,0.,0.993883734674));
#236 = DIRECTION('',(0.993883734674,0.,0.110431526075));
#237 = PCURVE('',#121,#238);
#238 = DEFINITIONAL_REPRESENTATION('',(#239),#243);
#239 = LINE('',#240,#241);
#240 = CARTESIAN_POINT('',(0.,54.332310828824));
#241 = VECTOR('',#242,1.);
#242 = DIRECTION('',(1.,0.));
#243 = ( GEOMETRIC_REPRESENTATION_CONTEXT(2) 
PARAMETRIC_REPRESENTATION_CONTEXT() REPRESENTATION_CONTEXT('2D SPACE',''
  ) );
#244 = PCURVE('',#245,#250);
#245 = SPHERICAL_SURFACE('',#246,2.);
#246 = AXIS2_PLACEMENT_3D('',#247,#248,#249);
#247 = CARTESIAN_POINT('',(32.,0.,1.682E+03));
#248 = DIRECTION('',(0.,0.,1.));
#249 = DIRECTION('',(1.,0.,-0.));
#250 = DEFINITIONAL_REPRESENTATION('',(#251),#260);
#251 = B_SPLINE_CURVE_WITH_KNOTS('',7,(#252,#253,#254,#255,#256,#257,
    #258,#259),.UNSPECIFIED.,.F.,.F.,(8,8),(0.,1.570796326795),
  .PIECEWISE_BEZIER_KNOTS.);
#252 = CARTESIAN_POINT('',(0.,0.110657221174));
#253 = CARTESIAN_POINT('',(0.225780408138,0.110657221174));
#254 = CARTESIAN_POINT('',(0.451559749016,0.104129854956));
#255 = CARTESIAN_POINT('',(0.6768883345,9.107410787964E-02));
#256 = CARTESIAN_POINT('',(0.901272447624,7.232760705755E-02));
#257 = CARTESIAN_POINT('',(1.124741430482,4.956181436593E-02));
#258 = CARTESIAN_POINT('',(1.347769338268,2.478077650296E-02));
#259 = CARTESIAN_POINT('',(1.570796326795,0.));
#260 = ( GEOMETRIC_REPRESENTATION_CONTEXT(2) 
PARAMETRIC_REPRESENTATION_CONTEXT() REPRESENTATION_CONTEXT('2D SPACE',''
  ) );
#261 = ORIENTED_EDGE('',*,*,#262,.F.);
#262 = EDGE_CURVE('',#263,#227,#265,.T.);
#263 = VERTEX_POINT('',#264);
#264 = CARTESIAN_POINT('',(39.987767469347,-4.898587196589E-16,
    1.628220863052E+03));
#265 = SEAM_CURVE('',#266,(#270,#277),.PCURVE_S1.);
#266 = LINE('',#267,#268);
#267 = CARTESIAN_POINT('',(39.987767469347,-4.898587196589E-16,
    1.628220863052E+03));
#268 = VECTOR('',#269,1.);
#269 = DIRECTION('',(-0.110431526075,-3.08148791102E-33,0.993883734674)
  );
#270 = PCURVE('',#121,#271);
#271 = DEFINITIONAL_REPRESENTATION('',(#272),#276);
#272 = LINE('',#273,#274);
#273 = CARTESIAN_POINT('',(6.28318530718,-0.));
#274 = VECTOR('',#275,1.);
#275 = DIRECTION('',(0.,1.));
#276 = ( GEOMETRIC_REPRESENTATION_CONTEXT(2) 
PARAMETRIC_REPRESENTATION_CONTEXT() REPRESENTATION_CONTEXT('2D SPACE',''
  ) );
#277 = PCURVE('',#121,#278);
#278 = DEFINITIONAL_REPRESENTATION('',(#279),#283);
#279 = LINE('',#280,#281);
#280 = CARTESIAN_POINT('',(0.,-0.));
#281 = VECTOR('',#282,1.);
#282 = DIRECTION('',(0.,1.));
#283 = ( GEOMETRIC_REPRESENTATION_CONTEXT(2) 
PARAMETRIC_REPRESENTATION_CONTEXT() REPRESENTATION_CONTEXT('2D SPACE',''
  ) );
#284 = ORIENTED_EDGE('',*,*,#285,.T.);
#285 = EDGE_CURVE('',#263,#99,#286,.T.);
#286 = SURFACE_CURVE('',#287,(#292,#299),.PCURVE_S1.);
#287 = CIRCLE('',#288,2.);
#288 = AXIS2_PLACEMENT_3D('',#289,#290,#291);
#289 = CARTESIAN_POINT('',(38.,0.,1.628E+03));
#290 = DIRECTION('',(-0.110431526075,0.,0.993883734674));
#291 = DIRECTION('',(0.993883734674,0.,0.110431526075));
#292 = PCURVE('',#121,#293);
#293 = DEFINITIONAL_REPRESENTATION('',(#294),#298);
#294 = LINE('',#295,#296);
#295 = CARTESIAN_POINT('',(0.,0.));
#296 = VECTOR('',#297,1.);
#297 = DIRECTION('',(1.,0.));
#298 = ( GEOMETRIC_REPRESENTATION_CONTEXT(2) 
PARAMETRIC_REPRESENTATION_CONTEXT() REPRESENTATION_CONTEXT('2D SPACE',''
  ) );
#299 = PCURVE('',#300,#305);
#300 = SPHERICAL_SURFACE('',#301,2.);
#301 = AXIS2_PLACEMENT_3D('',#302,#303,#304);
#302 = CARTESIAN_POINT('',(38.,0.,1.628E+03));
#303 = DIRECTION('',(0.,0.,1.));
#304 = DIRECTION('',(1.,0.,-0.));
#305 = DEFINITIONAL_REPRESENTATION('',(#306),#315);
#306 = B_SPLINE_CURVE_WITH_KNOTS('',7,(#307,#308,#309,#310,#311,#312,
    #313,#314),.UNSPECIFIED.,.F.,.F.,(8,8),(0.,1.570796326795),
  .PIECEWISE_BEZIER_KNOTS.);
#307 = CARTESIAN_POINT('',(0.,0.110657221174));
#308 = CARTESIAN_POINT('',(0.225780408138,0.110657221174));
#309 = CARTESIAN_POINT('',(0.451559749016,0.104129854956));
#310 = CARTESIAN_POINT('',(0.6768883345,9.10741078797E-02));
#311 = CARTESIAN_POINT('',(0.901272447624,7.232760705752E-02));
#312 = CARTESIAN_POINT('',(1.124741430483,4.956181436594E-02));
#313 = CARTESIAN_POINT('',(1.347769338268,2.478077650296E-02));
#314 = CARTESIAN_POINT('',(1.570796326795,0.));
#315 = ( GEOMETRIC_REPRESENTATION_CONTEXT(2) 
PARAMETRIC_REPRESENTATION_CONTEXT() REPRESENTATION_CONTEXT('2D SPACE',''
  ) );
#316 = ORIENTED_EDGE('',*,*,#98,.T.);
#317 = ORIENTED_EDGE('',*,*,#318,.T.);
#318 = EDGE_CURVE('',#70,#263,#319,.T.);
#319 = SURFACE_CURVE('',#320,(#325,#332),.PCURVE_S1.);
#320 = CIRCLE('',#321,2.);
#321 = AXIS2_PLACEMENT_3D('',#322,#323,#324);
#322 = CARTESIAN_POINT('',(38.,0.,1.628E+03));
#323 = DIRECTION('',(-0.110431526075,0.,0.993883734674));
#324 = DIRECTION('',(0.993883734674,0.,0.110431526075));
#325 = PCURVE('',#121,#326);
#326 = DEFINITIONAL_REPRESENTATION('',(#327),#331);
#327 = LINE('',#328,#329);
#328 = CARTESIAN_POINT('',(0.,0.));
#329 = VECTOR('',#330,1.);
#330 = DIRECTION('',(1.,0.));
#331 = ( GEOMETRIC_REPRESENTATION_CONTEXT(2) 
PARAMETRIC_REPRESENTATION_CONTEXT() REPRESENTATION_CONTEXT('2D SPACE',''
  ) );
#332 = PCURVE('',#333,#338);
#333 = SPHERICAL_SURFACE('',#334,2.);
#334 = AXIS2_PLACEMENT_3D('',#335,#336,#337);
#335 = CARTESIAN_POINT('',(38.,0.,1.628E+03));
#336 = DIRECTION('',(0.,0.,1.));
#337 = DIRECTION('',(1.,0.,-0.));
#338 = DEFINITIONAL_REPRESENTATION('',(#339),#348);
#339 = B_SPLINE_CURVE_WITH_KNOTS('',7,(#340,#341,#342,#343,#344,#345,
    #346,#347),.UNSPECIFIED.,.F.,.F.,(8,8),(4.712388980385,6.28318530718
    ),.PIECEWISE_BEZIER_KNOTS.);
#340 = CARTESIAN_POINT('',(4.712388980385,0.));
#341 = CARTESIAN_POINT('',(4.935415968911,2.478077650296E-02));
#342 = CARTESIAN_POINT('',(5.158443876697,4.956181436593E-02));
#343 = CARTESIAN_POINT('',(5.381912859556,7.23276070575E-02));
#344 = CARTESIAN_POINT('',(5.606296972681,9.10741078797E-02));
#345 = CARTESIAN_POINT('',(5.831625558164,0.104129854956));
#346 = CARTESIAN_POINT('',(6.057404899041,0.110657221174));
#347 = CARTESIAN_POINT('',(6.28318530718,0.110657221174));
#348 = ( GEOMETRIC_REPRESENTATION_CONTEXT(2) 
PARAMETRIC_REPRESENTATION_CONTEXT() REPRESENTATION_CONTEXT('2D SPACE',''
  ) );
#349 = ORIENTED_EDGE('',*,*,#262,.T.);
#350 = ORIENTED_EDGE('',*,*,#351,.F.);
#351 = EDGE_CURVE('',#352,#227,#354,.T.);
#352 = VERTEX_POINT('',#353);
#353 = CARTESIAN_POINT('',(32.,-2.,1.682E+03));
#354 = SURFACE_CURVE('',#355,(#360,#367),.PCURVE_S1.);
#355 = CIRCLE('',#356,2.);
#356 = AXIS2_PLACEMENT_3D('',#357,#358,#359);
#357 = CARTESIAN_POINT('',(32.,0.,1.682E+03));
#358 = DIRECTION('',(-0.110431526075,0.,0.993883734674));
#359 = DIRECTION('',(0.993883734674,0.,0.110431526075));
#360 = PCURVE('',#121,#361);
#361 = DEFINITIONAL_REPRESENTATION('',(#362),#366);
#362 = LINE('',#363,#364);
#363 = CARTESIAN_POINT('',(0.,54.332310828824));
#364 = VECTOR('',#365,1.);
#365 = DIRECTION('',(1.,0.));
#366 = ( GEOMETRIC_REPRESENTATION_CONTEXT(2) 
PARAMETRIC_REPRESENTATION_CONTEXT() REPRESENTATION_CONTEXT('2D SPACE',''
  ) );
#367 = PCURVE('',#368,#373);
#368 = SPHERICAL_SURFACE('',#369,2.);
#369 = AXIS2_PLACEMENT_3D('',#370,#371,#372);
#370 = CARTESIAN_POINT('',(32.,0.,1.682E+03));
#371 = DIRECTION('',(0.,0.,1.));
#372 = DIRECTION('',(1.,0.,-0.));
#373 = DEFINITIONAL_REPRESENTATION('',(#374),#383);
#374 = B_SPLINE_CURVE_WITH_KNOTS('',7,(#375,#376,#377,#378,#379,#380,
    #381,#382),.UNSPECIFIED.,.F.,.F.,(8,8),(4.712388980385,6.28318530718
    ),.PIECEWISE_BEZIER_KNOTS.);
#375 = CARTESIAN_POINT('',(4.712388980385,0.));
#376 = CARTESIAN_POINT('',(4.935415968911,2.478077650296E-02));
#377 = CARTESIAN_POINT('',(5.158443876698,4.956181436593E-02));
#378 = CARTESIAN_POINT('',(5.381912859555,7.232760705756E-02));
#379 = CARTESIAN_POINT('',(5.606296972682,9.107410787963E-02));
#380 = CARTESIAN_POINT('',(5.831625558163,0.104129854956));
#381 = CARTESIAN_POINT('',(6.057404899042,0.110657221174));
#382 = CARTESIAN_POINT('',(6.28318530718,0.110657221174));
#383 = ( GEOMETRIC_REPRESENTATION_CONTEXT(2) 
PARAMETRIC_REPRESENTATION_CONTEXT() REPRESENTATION_CONTEXT('2D SPACE',''
  ) );
#384 = ORIENTED_EDGE('',*,*,#385,.F.);
#385 = EDGE_CURVE('',#386,#352,#388,.T.);
#386 = VERTEX_POINT('',#387);
#387 = CARTESIAN_POINT('',(30.165126020253,4.898587196589E-16,
    1.680403095541E+03));
#388 = SURFACE_CURVE('',#389,(#394,#406),.PCURVE_S1.);
#389 = ELLIPSE('',#390,2.432460970148,2.);
#390 = AXIS2_PLACEMENT_3D('',#391,#392,#393);
#391 = CARTESIAN_POINT('',(32.,0.,1.682E+03));
#392 = DIRECTION('',(-0.656497464152,0.,0.754328230654));
#393 = DIRECTION('',(0.754328230654,0.,0.656497464152));
#394 = PCURVE('',#121,#395);
#395 = DEFINITIONAL_REPRESENTATION('',(#396),#405);
#396 = B_SPLINE_CURVE_WITH_KNOTS('',7,(#397,#398,#399,#400,#401,#402,
    #403,#404),.UNSPECIFIED.,.F.,.F.,(8,8),(3.14159265359,4.712389120781
    ),.PIECEWISE_BEZIER_KNOTS.);
#397 = CARTESIAN_POINT('',(3.14159265359,52.947801395381));
#398 = CARTESIAN_POINT('',(3.365992148903,52.947801395381));
#399 = CARTESIAN_POINT('',(3.590391644216,53.029139501363));
#400 = CARTESIAN_POINT('',(3.81479113953,53.191803913847));
#401 = CARTESIAN_POINT('',(4.039190634842,53.425807755717));
#402 = CARTESIAN_POINT('',(4.263590130155,53.710945837089));
#403 = CARTESIAN_POINT('',(4.487989625468,54.021627805084));
#404 = CARTESIAN_POINT('',(4.712389120781,54.332311023205));
#405 = ( GEOMETRIC_REPRESENTATION_CONTEXT(2) 
PARAMETRIC_REPRESENTATION_CONTEXT() REPRESENTATION_CONTEXT('2D SPACE',''
  ) );
#406 = PCURVE('',#407,#412);
#407 = CYLINDRICAL_SURFACE('',#408,2.);
#408 = AXIS2_PLACEMENT_3D('',#409,#410,#411);
#409 = CARTESIAN_POINT('',(32.,0.,1.682E+03));
#410 = DIRECTION('',(-0.969129416047,0.,0.246552580501));
#411 = DIRECTION('',(-0.246552580501,0.,-0.969129416047));
#412 = DEFINITIONAL_REPRESENTATION('',(#413),#422);
#413 = B_SPLINE_CURVE_WITH_KNOTS('',7,(#414,#415,#416,#417,#418,#419,
    #420,#421),.UNSPECIFIED.,.F.,.F.,(8,8),(3.14159265359,4.712389120781
    ),.PIECEWISE_BEZIER_KNOTS.);
#414 = CARTESIAN_POINT('',(-8.881784197001E-16,1.384509433443));
#415 = CARTESIAN_POINT('',(0.224399495313,1.384509433443));
#416 = CARTESIAN_POINT('',(0.448798990626,1.303171327471));
#417 = CARTESIAN_POINT('',(0.673198485939,1.140506914957));
#418 = CARTESIAN_POINT('',(0.897597981253,0.906503073136));
#419 = CARTESIAN_POINT('',(1.121997476565,0.621364991724));
#420 = CARTESIAN_POINT('',(1.346396971878,0.310683023741));
#421 = CARTESIAN_POINT('',(1.570796467191,-1.943798793036E-07));
#422 = ( GEOMETRIC_REPRESENTATION_CONTEXT(2) 
PARAMETRIC_REPRESENTATION_CONTEXT() REPRESENTATION_CONTEXT('2D SPACE',''
  ) );
#423 = ORIENTED_EDGE('',*,*,#424,.F.);
#424 = EDGE_CURVE('',#229,#386,#425,.T.);
#425 = SURFACE_CURVE('',#426,(#431,#443),.PCURVE_S1.);
#426 = ELLIPSE('',#427,2.432460970148,2.);
#427 = AXIS2_PLACEMENT_3D('',#428,#429,#430);
#428 = CARTESIAN_POINT('',(32.,0.,1.682E+03));
#429 = DIRECTION('',(-0.656497464152,0.,0.754328230654));
#430 = DIRECTION('',(0.754328230654,0.,0.656497464152));
#431 = PCURVE('',#121,#432);
#432 = DEFINITIONAL_REPRESENTATION('',(#433),#442);
#433 = B_SPLINE_CURVE_WITH_KNOTS('',7,(#434,#435,#436,#437,#438,#439,
    #440,#441),.UNSPECIFIED.,.F.,.F.,(8,8),(1.570796033825,3.14159265359
    ),.PIECEWISE_BEZIER_KNOTS.);
#434 = CARTESIAN_POINT('',(1.570796033825,54.332311234445));
#435 = CARTESIAN_POINT('',(1.795195550934,54.021627986147));
#436 = CARTESIAN_POINT('',(2.019595068043,53.710945975592));
#437 = CARTESIAN_POINT('',(2.243994585154,53.425807846586));
#438 = CARTESIAN_POINT('',(2.468394102261,53.191803961286));
#439 = CARTESIAN_POINT('',(2.692793619371,53.029139517152));
#440 = CARTESIAN_POINT('',(2.91719313648,52.947801395381));
#441 = CARTESIAN_POINT('',(3.14159265359,52.947801395381));
#442 = ( GEOMETRIC_REPRESENTATION_CONTEXT(2) 
PARAMETRIC_REPRESENTATION_CONTEXT() REPRESENTATION_CONTEXT('2D SPACE',''
  ) );
#443 = PCURVE('',#407,#444);
#444 = DEFINITIONAL_REPRESENTATION('',(#445),#454);
#445 = B_SPLINE_CURVE_WITH_KNOTS('',7,(#446,#447,#448,#449,#450,#451,
    #452,#453),.UNSPECIFIED.,.F.,.F.,(8,8),(1.570796033825,3.14159265359
    ),.PIECEWISE_BEZIER_KNOTS.);
#446 = CARTESIAN_POINT('',(4.712388687414,-4.056201419189E-07));
#447 = CARTESIAN_POINT('',(4.936788204524,0.310682842678));
#448 = CARTESIAN_POINT('',(5.161187721633,0.621364853247));
#449 = CARTESIAN_POINT('',(5.385587238744,0.906502982216));
#450 = CARTESIAN_POINT('',(5.60998675585,1.14050686756));
#451 = CARTESIAN_POINT('',(5.834386272961,1.30317131167));
#452 = CARTESIAN_POINT('',(6.05878579007,1.384509433443));
#453 = CARTESIAN_POINT('',(6.28318530718,1.384509433443));
#454 = ( GEOMETRIC_REPRESENTATION_CONTEXT(2) 
PARAMETRIC_REPRESENTATION_CONTEXT() REPRESENTATION_CONTEXT('2D SPACE',''
  ) );
#455 = ADVANCED_FACE('',(#456),#211,.F.);
#456 = FACE_BOUND('',#457,.F.);
#457 = EDGE_LOOP('',(#458,#482,#504));
#458 = ORIENTED_EDGE('',*,*,#459,.T.);
#459 = EDGE_CURVE('',#70,#460,#462,.T.);
#460 = VERTEX_POINT('',#461);
#461 = CARTESIAN_POINT('',(40.,-4.898587196589E-16,1.628E+03));
#462 = SURFACE_CURVE('',#463,(#468,#475),.PCURVE_S1.);
#463 = CIRCLE('',#464,2.);
#464 = AXIS2_PLACEMENT_3D('',#465,#466,#467);
#465 = CARTESIAN_POINT('',(38.,0.,1.628E+03));
#466 = DIRECTION('',(0.,0.,1.));
#467 = DIRECTION('',(1.,0.,-0.));
#468 = PCURVE('',#211,#469);
#469 = DEFINITIONAL_REPRESENTATION('',(#470),#474);
#470 = CIRCLE('',#471,2.);
#471 = AXIS2_PLACEMENT_2D('',#472,#473);
#472 = CARTESIAN_POINT('',(0.,0.));
#473 = DIRECTION('',(1.,0.));
#474 = ( GEOMETRIC_REPRESENTATION_CONTEXT(2) 
PARAMETRIC_REPRESENTATION_CONTEXT() REPRESENTATION_CONTEXT('2D SPACE',''
  ) );
#475 = PCURVE('',#333,#476);
#476 = DEFINITIONAL_REPRESENTATION('',(#477),#481);
#477 = LINE('',#478,#479);
#478 = CARTESIAN_POINT('',(0.,0.));
#479 = VECTOR('',#480,1.);
#480 = DIRECTION('',(1.,0.));
#481 = ( GEOMETRIC_REPRESENTATION_CONTEXT(2) 
PARAMETRIC_REPRESENTATION_CONTEXT() REPRESENTATION_CONTEXT('2D SPACE',''
  ) );
#482 = ORIENTED_EDGE('',*,*,#483,.T.);
#483 = EDGE_CURVE('',#460,#99,#484,.T.);
#484 = SURFACE_CURVE('',#485,(#490,#497),.PCURVE_S1.);
#485 = CIRCLE('',#486,2.);
#486 = AXIS2_PLACEMENT_3D('',#487,#488,#489);
#487 = CARTESIAN_POINT('',(38.,0.,1.628E+03));
#488 = DIRECTION('',(0.,0.,1.));
#489 = DIRECTION('',(1.,0.,-0.));
#490 = PCURVE('',#211,#491);
#491 = DEFINITIONAL_REPRESENTATION('',(#492),#496);
#492 = CIRCLE('',#493,2.);
#493 = AXIS2_PLACEMENT_2D('',#494,#495);
#494 = CARTESIAN_POINT('',(0.,0.));
#495 = DIRECTION('',(1.,0.));
#496 = ( GEOMETRIC_REPRESENTATION_CONTEXT(2) 
PARAMETRIC_REPRESENTATION_CONTEXT() REPRESENTATION_CONTEXT('2D SPACE',''
  ) );
#497 = PCURVE('',#300,#498);
#498 = DEFINITIONAL_REPRESENTATION('',(#499),#503);
#499 = LINE('',#500,#501);
#500 = CARTESIAN_POINT('',(0.,0.));
#501 = VECTOR('',#502,1.);
#502 = DIRECTION('',(1.,0.));
#503 = ( GEOMETRIC_REPRESENTATION_CONTEXT(2) 
PARAMETRIC_REPRESENTATION_CONTEXT() REPRESENTATION_CONTEXT('2D SPACE',''
  ) );
#504 = ORIENTED_EDGE('',*,*,#198,.T.);
#505 = ADVANCED_FACE('',(#506),#245,.T.);
#506 = FACE_BOUND('',#507,.T.);
#507 = EDGE_LOOP('',(#508,#566,#588));
#508 = ORIENTED_EDGE('',*,*,#509,.F.);
#509 = EDGE_CURVE('',#510,#229,#512,.T.);
#510 = VERTEX_POINT('',#511);
#511 = CARTESIAN_POINT('',(32.493105161003,8.064138354709E-14,
    1.683938258832E+03));
#512 = SURFACE_CURVE('',#513,(#518,#559),.PCURVE_S1.);
#513 = CIRCLE('',#514,2.);
#514 = AXIS2_PLACEMENT_3D('',#515,#516,#517);
#515 = CARTESIAN_POINT('',(32.,0.,1.682E+03));
#516 = DIRECTION('',(-0.969129416047,0.,0.246552580501));
#517 = DIRECTION('',(-0.246552580501,0.,-0.969129416047));
#518 = PCURVE('',#245,#519);
#519 = DEFINITIONAL_REPRESENTATION('',(#520),#558);
#520 = B_SPLINE_CURVE_WITH_KNOTS('',8,(#521,#522,#523,#524,#525,#526,
    #527,#528,#529,#530,#531,#532,#533,#534,#535,#536,#537,#538,#539,
    #540,#541,#542,#543,#544,#545,#546,#547,#548,#549,#550,#551,#552,
    #553,#554,#555,#556,#557),.UNSPECIFIED.,.F.,.F.,(9,7,7,7,7,9),(
    3.14159265359,3.239767424014,3.423845118561,3.745981084017,
    4.229185032201,4.712388980385),.UNSPECIFIED.);
#521 = CARTESIAN_POINT('',(1.304486569483E-15,1.321674923616));
#522 = CARTESIAN_POINT('',(4.977374918622E-02,1.321674923616));
#523 = CARTESIAN_POINT('',(9.954731471272E-02,1.320998437318));
#524 = CARTESIAN_POINT('',(0.148968748503,1.319645278774));
#525 = CARTESIAN_POINT('',(0.197682832504,1.317626050357));
#526 = CARTESIAN_POINT('',(0.245371278901,1.314961229666));
#527 = CARTESIAN_POINT('',(0.291777036632,1.311679386452));
#528 = CARTESIAN_POINT('',(0.336712704205,1.30781452955));
#529 = CARTESIAN_POINT('',(0.46131619499,1.295130185587));
#530 = CARTESIAN_POINT('',(0.536970796603,1.284934597065));
#531 = CARTESIAN_POINT('',(0.6061878368,1.273053674525));
#532 = CARTESIAN_POINT('',(0.668915625334,1.259757042665));
#533 = CARTESIAN_POINT('',(0.725690781173,1.245282534685));
#534 = CARTESIAN_POINT('',(0.777093156794,1.229822209313));
#535 = CARTESIAN_POINT('',(0.823739084761,1.213533824775));
#536 = CARTESIAN_POINT('',(0.940473233887,1.16681372091));
#537 = CARTESIAN_POINT('',(1.001904685693,1.134936700687));
#538 = CARTESIAN_POINT('',(1.053500413922,1.101597543267));
#539 = CARTESIAN_POINT('',(1.097804744983,1.067197771707));
#540 = CARTESIAN_POINT('',(1.136333979647,1.031988131631));
#541 = CARTESIAN_POINT('',(1.170323401259,0.996148852876));
#542 = CARTESIAN_POINT('',(1.200618925098,0.959805729358));
#543 = CARTESIAN_POINT('',(1.268790885256,0.867925769774));
#544 = CARTESIAN_POINT('',(1.302882438845,0.811877792273));
#545 = CARTESIAN_POINT('',(1.332392849973,0.755228786177));
#546 = CARTESIAN_POINT('',(1.358499280547,0.698134265034));
#547 = CARTESIAN_POINT('',(1.382026657277,0.640706319984));
#548 = CARTESIAN_POINT('',(1.403539059753,0.583017994134));
#549 = CARTESIAN_POINT('',(1.423468088337,0.525126176446));
#550 = CARTESIAN_POINT('',(1.460826164116,0.409021856124));
#551 = CARTESIAN_POINT('',(1.478255718768,0.350809438703));
#552 = CARTESIAN_POINT('',(1.494767841232,0.292479842553));
#553 = CARTESIAN_POINT('',(1.510606840998,0.234064475592));
#554 = CARTESIAN_POINT('',(1.525965712283,0.175587985385));
#555 = CARTESIAN_POINT('',(1.541012189123,0.117071742224));
#556 = CARTESIAN_POINT('',(1.555904429253,5.853589501691E-02));
#557 = CARTESIAN_POINT('',(1.570796326795,0.));
#558 = ( GEOMETRIC_REPRESENTATION_CONTEXT(2) 
PARAMETRIC_REPRESENTATION_CONTEXT() REPRESENTATION_CONTEXT('2D SPACE',''
  ) );
#559 = PCURVE('',#407,#560);
#560 = DEFINITIONAL_REPRESENTATION('',(#561),#565);
#561 = LINE('',#562,#563);
#562 = CARTESIAN_POINT('',(0.,0.));
#563 = VECTOR('',#564,1.);
#564 = DIRECTION('',(1.,0.));
#565 = ( GEOMETRIC_REPRESENTATION_CONTEXT(2) 
PARAMETRIC_REPRESENTATION_CONTEXT() REPRESENTATION_CONTEXT('2D SPACE',''
  ) );
#566 = ORIENTED_EDGE('',*,*,#567,.F.);
#567 = EDGE_CURVE('',#227,#510,#568,.T.);
#568 = SURFACE_CURVE('',#569,(#574,#581),.PCURVE_S1.);
#569 = CIRCLE('',#570,2.);
#570 = AXIS2_PLACEMENT_3D('',#571,#572,#573);
#571 = CARTESIAN_POINT('',(32.,0.,1.682E+03));
#572 = DIRECTION('',(-2.449293598295E-16,-1.,0.));
#573 = DIRECTION('',(1.,-2.449293598295E-16,0.));
#574 = PCURVE('',#245,#575);
#575 = DEFINITIONAL_REPRESENTATION('',(#576),#580);
#576 = LINE('',#577,#578);
#577 = CARTESIAN_POINT('',(0.,-6.28318530718));
#578 = VECTOR('',#579,1.);
#579 = DIRECTION('',(0.,1.));
#580 = ( GEOMETRIC_REPRESENTATION_CONTEXT(2) 
PARAMETRIC_REPRESENTATION_CONTEXT() REPRESENTATION_CONTEXT('2D SPACE',''
  ) );
#581 = PCURVE('',#368,#582);
#582 = DEFINITIONAL_REPRESENTATION('',(#583),#587);
#583 = LINE('',#584,#585);
#584 = CARTESIAN_POINT('',(6.28318530718,-6.28318530718));
#585 = VECTOR('',#586,1.);
#586 = DIRECTION('',(0.,1.));
#587 = ( GEOMETRIC_REPRESENTATION_CONTEXT(2) 
PARAMETRIC_REPRESENTATION_CONTEXT() REPRESENTATION_CONTEXT('2D SPACE',''
  ) );
#588 = ORIENTED_EDGE('',*,*,#226,.T.);
#589 = ADVANCED_FACE('',(#590),#407,.T.);
#590 = FACE_BOUND('',#591,.T.);
#591 = EDGE_LOOP('',(#592,#593,#616,#643,#644,#645,#701));
#592 = ORIENTED_EDGE('',*,*,#424,.T.);
#593 = ORIENTED_EDGE('',*,*,#594,.T.);
#594 = EDGE_CURVE('',#386,#595,#597,.T.);
#595 = VERTEX_POINT('',#596);
#596 = CARTESIAN_POINT('',(-0.493105161003,4.89858719659E-16,
    1.688202741168E+03));
#597 = SEAM_CURVE('',#598,(#602,#609),.PCURVE_S1.);
#598 = LINE('',#599,#600);
#599 = CARTESIAN_POINT('',(31.506894838997,4.898587196589E-16,
    1.680061741168E+03));
#600 = VECTOR('',#601,1.);
#601 = DIRECTION('',(-0.969129416047,0.,0.246552580501));
#602 = PCURVE('',#407,#603);
#603 = DEFINITIONAL_REPRESENTATION('',(#604),#608);
#604 = LINE('',#605,#606);
#605 = CARTESIAN_POINT('',(0.,-0.));
#606 = VECTOR('',#607,1.);
#607 = DIRECTION('',(0.,1.));
#608 = ( GEOMETRIC_REPRESENTATION_CONTEXT(2) 
PARAMETRIC_REPRESENTATION_CONTEXT() REPRESENTATION_CONTEXT('2D SPACE',''
  ) );
#609 = PCURVE('',#407,#610);
#610 = DEFINITIONAL_REPRESENTATION('',(#611),#615);
#611 = LINE('',#612,#613);
#612 = CARTESIAN_POINT('',(6.28318530718,-0.));
#613 = VECTOR('',#614,1.);
#614 = DIRECTION('',(0.,1.));
#615 = ( GEOMETRIC_REPRESENTATION_CONTEXT(2) 
PARAMETRIC_REPRESENTATION_CONTEXT() REPRESENTATION_CONTEXT('2D SPACE',''
  ) );
#616 = ORIENTED_EDGE('',*,*,#617,.F.);
#617 = EDGE_CURVE('',#595,#595,#618,.T.);
#618 = SURFACE_CURVE('',#619,(#624,#631),.PCURVE_S1.);
#619 = CIRCLE('',#620,2.);
#620 = AXIS2_PLACEMENT_3D('',#621,#622,#623);
#621 = CARTESIAN_POINT('',(0.,0.,1.690141E+03));
#622 = DIRECTION('',(-0.969129416047,0.,0.246552580501));
#623 = DIRECTION('',(-0.246552580501,0.,-0.969129416047));
#624 = PCURVE('',#407,#625);
#625 = DEFINITIONAL_REPRESENTATION('',(#626),#630);
#626 = LINE('',#627,#628);
#627 = CARTESIAN_POINT('',(0.,33.019325871374));
#628 = VECTOR('',#629,1.);
#629 = DIRECTION('',(1.,0.));
#630 = ( GEOMETRIC_REPRESENTATION_CONTEXT(2) 
PARAMETRIC_REPRESENTATION_CONTEXT() REPRESENTATION_CONTEXT('2D SPACE',''
  ) );
#631 = PCURVE('',#632,#637);
#632 = PLANE('',#633);
#633 = AXIS2_PLACEMENT_3D('',#634,#635,#636);
#634 = CARTESIAN_POINT('',(0.,0.,1.690141E+03));
#635 = DIRECTION('',(-0.969129416047,0.,0.246552580501));
#636 = DIRECTION('',(-0.246552580501,0.,-0.969129416047));
#637 = DEFINITIONAL_REPRESENTATION('',(#638),#642);
#638 = CIRCLE('',#639,2.);
#639 = AXIS2_PLACEMENT_2D('',#640,#641);
#640 = CARTESIAN_POINT('',(0.,0.));
#641 = DIRECTION('',(1.,0.));
#642 = ( GEOMETRIC_REPRESENTATION_CONTEXT(2) 
PARAMETRIC_REPRESENTATION_CONTEXT() REPRESENTATION_CONTEXT('2D SPACE',''
  ) );
#643 = ORIENTED_EDGE('',*,*,#594,.F.);
#644 = ORIENTED_EDGE('',*,*,#385,.T.);
#645 = ORIENTED_EDGE('',*,*,#646,.T.);
#646 = EDGE_CURVE('',#352,#510,#647,.T.);
#647 = SURFACE_CURVE('',#648,(#653,#660),.PCURVE_S1.);
#648 = CIRCLE('',#649,2.);
#649 = AXIS2_PLACEMENT_3D('',#650,#651,#652);
#650 = CARTESIAN_POINT('',(32.,0.,1.682E+03));
#651 = DIRECTION('',(-0.969129416047,0.,0.246552580501));
#652 = DIRECTION('',(-0.246552580501,0.,-0.969129416047));
#653 = PCURVE('',#407,#654);
#654 = DEFINITIONAL_REPRESENTATION('',(#655),#659);
#655 = LINE('',#656,#657);
#656 = CARTESIAN_POINT('',(0.,0.));
#657 = VECTOR('',#658,1.);
#658 = DIRECTION('',(1.,0.));
#659 = ( GEOMETRIC_REPRESENTATION_CONTEXT(2) 
PARAMETRIC_REPRESENTATION_CONTEXT() REPRESENTATION_CONTEXT('2D SPACE',''
  ) );
#660 = PCURVE('',#368,#661);
#661 = DEFINITIONAL_REPRESENTATION('',(#662),#700);
#662 = B_SPLINE_CURVE_WITH_KNOTS('',8,(#663,#664,#665,#666,#667,#668,
    #669,#670,#671,#672,#673,#674,#675,#676,#677,#678,#679,#680,#681,
    #682,#683,#684,#685,#686,#687,#688,#689,#690,#691,#692,#693,#694,
    #695,#696,#697,#698,#699),.UNSPECIFIED.,.F.,.F.,(9,7,7,7,7,9),(
    1.570796326795,2.356194490192,2.748893571891,2.94524311274,
    3.043417883165,3.14159265359),.UNSPECIFIED.);
#663 = CARTESIAN_POINT('',(4.712388980385,0.));
#664 = CARTESIAN_POINT('',(4.736594223373,9.514405793225E-02));
#665 = CARTESIAN_POINT('',(4.760800422137,0.190287954477));
#666 = CARTESIAN_POINT('',(4.785667067021,0.285348140105));
#667 = CARTESIAN_POINT('',(4.811895308652,0.380234092586));
#668 = CARTESIAN_POINT('',(4.840218063269,0.474855347084));
#669 = CARTESIAN_POINT('',(4.87191345937,0.569042181598));
#670 = CARTESIAN_POINT('',(4.908484054389,0.662607585527));
#671 = CARTESIAN_POINT('',(4.976938558955,0.801174196252));
#672 = CARTESIAN_POINT('',(5.002023179279,0.847066073459));
#673 = CARTESIAN_POINT('',(5.029902369368,0.892590059359));
#674 = CARTESIAN_POINT('',(5.061263752821,0.937649832101));
#675 = CARTESIAN_POINT('',(5.097090176208,0.982114042878));
#676 = CARTESIAN_POINT('',(5.138714088702,1.025782517891));
#677 = CARTESIAN_POINT('',(5.188272318471,1.068357848571));
#678 = CARTESIAN_POINT('',(5.279805105804,1.129675509987));
#679 = CARTESIAN_POINT('',(5.313182111388,1.14969044966));
#680 = CARTESIAN_POINT('',(5.349863622852,1.16920598825));
#681 = CARTESIAN_POINT('',(5.390381291309,1.188126489681));
#682 = CARTESIAN_POINT('',(5.435349433543,1.206332947404));
#683 = CARTESIAN_POINT('',(5.485503425991,1.223669407587));
#684 = CARTESIAN_POINT('',(5.541641841477,1.239931063655));
#685 = CARTESIAN_POINT('',(5.63566976141,1.26233409161));
#686 = CARTESIAN_POINT('',(5.6686491959,1.269470035946));
#687 = CARTESIAN_POINT('',(5.703334844607,1.276243427498));
#688 = CARTESIAN_POINT('',(5.739782880128,1.282619688978));
#689 = CARTESIAN_POINT('',(5.778023255893,1.28856177553));
#690 = CARTESIAN_POINT('',(5.818046734115,1.294031463315));
#691 = CARTESIAN_POINT('',(5.859791913733,1.298990638097));
#692 = CARTESIAN_POINT('',(5.946472602975,1.30781452955));
#693 = CARTESIAN_POINT('',(5.991408270548,1.311679386452));
#694 = CARTESIAN_POINT('',(6.037814028278,1.314961229666));
#695 = CARTESIAN_POINT('',(6.085502474676,1.317626050357));
#696 = CARTESIAN_POINT('',(6.134216558677,1.319645278774));
#697 = CARTESIAN_POINT('',(6.183637992467,1.320998437318));
#698 = CARTESIAN_POINT('',(6.233411557993,1.321674923616));
#699 = CARTESIAN_POINT('',(6.28318530718,1.321674923616));
#700 = ( GEOMETRIC_REPRESENTATION_CONTEXT(2) 
PARAMETRIC_REPRESENTATION_CONTEXT() REPRESENTATION_CONTEXT('2D SPACE',''
  ) );
#701 = ORIENTED_EDGE('',*,*,#509,.T.);
#702 = ADVANCED_FACE('',(#703),#368,.T.);
#703 = FACE_BOUND('',#704,.T.);
#704 = EDGE_LOOP('',(#705,#706,#707));
#705 = ORIENTED_EDGE('',*,*,#567,.T.);
#706 = ORIENTED_EDGE('',*,*,#646,.F.);
#707 = ORIENTED_EDGE('',*,*,#351,.T.);
#708 = ADVANCED_FACE('',(#709),#333,.T.);
#709 = FACE_BOUND('',#710,.T.);
#710 = EDGE_LOOP('',(#711,#733,#734));
#711 = ORIENTED_EDGE('',*,*,#712,.T.);
#712 = EDGE_CURVE('',#460,#263,#713,.T.);
#713 = SURFACE_CURVE('',#714,(#719,#726),.PCURVE_S1.);
#714 = CIRCLE('',#715,2.);
#715 = AXIS2_PLACEMENT_3D('',#716,#717,#718);
#716 = CARTESIAN_POINT('',(38.,0.,1.628E+03));
#717 = DIRECTION('',(-2.449293598295E-16,-1.,0.));
#718 = DIRECTION('',(1.,-2.449293598295E-16,0.));
#719 = PCURVE('',#333,#720);
#720 = DEFINITIONAL_REPRESENTATION('',(#721),#725);
#721 = LINE('',#722,#723);
#722 = CARTESIAN_POINT('',(6.28318530718,-6.28318530718));
#723 = VECTOR('',#724,1.);
#724 = DIRECTION('',(0.,1.));
#725 = ( GEOMETRIC_REPRESENTATION_CONTEXT(2) 
PARAMETRIC_REPRESENTATION_CONTEXT() REPRESENTATION_CONTEXT('2D SPACE',''
  ) );
#726 = PCURVE('',#300,#727);
#727 = DEFINITIONAL_REPRESENTATION('',(#728),#732);
#728 = LINE('',#729,#730);
#729 = CARTESIAN_POINT('',(0.,-6.28318530718));
#730 = VECTOR('',#731,1.);
#731 = DIRECTION('',(0.,1.));
#732 = ( GEOMETRIC_REPRESENTATION_CONTEXT(2) 
PARAMETRIC_REPRESENTATION_CONTEXT() REPRESENTATION_CONTEXT('2D SPACE',''
  ) );
#733 = ORIENTED_EDGE('',*,*,#318,.F.);
#734 = ORIENTED_EDGE('',*,*,#459,.T.);
#735 = ADVANCED_FACE('',(#736),#300,.T.);
#736 = FACE_BOUND('',#737,.T.);
#737 = EDGE_LOOP('',(#738,#739,#740));
#738 = ORIENTED_EDGE('',*,*,#285,.F.);
#739 = ORIENTED_EDGE('',*,*,#712,.F.);
#740 = ORIENTED_EDGE('',*,*,#483,.T.);
#741 = ADVANCED_FACE('',(#742),#632,.T.);
#742 = FACE_BOUND('',#743,.T.);
#743 = EDGE_LOOP('',(#744));
#744 = ORIENTED_EDGE('',*,*,#617,.T.);
#745 = ( GEOMETRIC_REPRESENTATION_CONTEXT(3) 
GLOBAL_UNCERTAINTY_ASSIGNED_CONTEXT((#749)) GLOBAL_UNIT_ASSIGNED_CONTEXT
((#746,#747,#748)) REPRESENTATION_CONTEXT('Context #1',
  '3D Context with UNIT and UNCERTAINTY') );
#746 = ( LENGTH_UNIT() NAMED_UNIT(*) SI_UNIT(.MILLI.,.METRE.) );
#747 = ( NAMED_UNIT(*) PLANE_ANGLE_UNIT() SI_UNIT($,.RADIAN.) );
#748 = ( NAMED_UNIT(*) SI_UNIT($,.STERADIAN.) SOLID_ANGLE_UNIT() );
#749 = UNCERTAINTY_MEASURE_WITH_UNIT(LENGTH_MEASURE(2.E-07),#746,
  'distance_accuracy_value','confusion accuracy');
#750 = CONTEXT_DEPENDENT_SHAPE_REPRESENTATION(#751,#753);
#751 = ( REPRESENTATION_RELATIONSHIP('','',#32,#10) 
REPRESENTATION_RELATIONSHIP_WITH_TRANSFORMATION(#752) 
SHAPE_REPRESENTATION_RELATIONSHIP() );
#752 = ITEM_DEFINED_TRANSFORMATION('','',#11,#15);
#753 = PRODUCT_DEFINITION_SHAPE('Placement','Placement of an item',#754
  );
#754 = NEXT_ASSEMBLY_USAGE_OCCURRENCE('2',
'STRUCTURAL_RECOVERY_TETHER_WITH_TWO_BURIED_EYE_SPLICES_HMPE_DEPLOYED_
LOCAL_DEFINITION','',#5,#27,$);
#755 = PRODUCT_RELATED_PRODUCT_CATEGORY('part',$,(#29));
#756 = MECHANICAL_DESIGN_GEOMETRIC_PRESENTATION_REPRESENTATION('',(#757)
  ,#745);
#757 = STYLED_ITEM('color',(#758),#33);
#758 = PRESENTATION_STYLE_ASSIGNMENT((#759));
#759 = SURFACE_STYLE_USAGE(.BOTH.,#760);
#760 = SURFACE_SIDE_STYLE('',(#761));
#761 = SURFACE_STYLE_FILL_AREA(#762);
#762 = FILL_AREA_STYLE('',(#763));
#763 = FILL_AREA_STYLE_COLOUR('',#764);
#764 = COLOUR_RGB('',0.1599999992,0.250000000672,0.339999993741);
ENDSEC;
END-ISO-10303-21;
