ISO-10303-21;
HEADER;
FILE_DESCRIPTION(('Open CASCADE Model'),'2;1');
FILE_NAME('Open CASCADE Shape Model','2026-08-26T03:20:18',('Author'),(
    'Open CASCADE'),'Open CASCADE STEP processor 7.9','Open CASCADE 7.9'
  ,'Unknown');
FILE_SCHEMA((
'AP242_MANAGED_MODEL_BASED_3D_ENGINEERING_MIM_LF {1 0 10303 442 1 1 4 }'
    ));
ENDSEC;
DATA;
#1 = APPLICATION_PROTOCOL_DEFINITION('international standard',
  'ap242_managed_model_based_3d_engineering',2013,#2);
#2 = APPLICATION_CONTEXT('Managed model based 3d engineering');
#3 = SHAPE_DEFINITION_REPRESENTATION(#4,#10);
#4 = PRODUCT_DEFINITION_SHAPE('','',#5);
#5 = PRODUCT_DEFINITION('design','',#6,#9);
#6 = PRODUCT_DEFINITION_FORMATION('','',#7);
#7 = PRODUCT(
'STRUCTURAL_RECOVERY_TETHER_WITH_TWO_BURIED_EYE_SPLICES_HMPE_STOWED_
PART',
'STRUCTURAL_RECOVERY_TETHER_WITH_TWO_BURIED_EYE_SPLICES_HMPE_STOWED_
PART','',(#8));
#8 = PRODUCT_CONTEXT('',#2,'mechanical');
#9 = PRODUCT_DEFINITION_CONTEXT('part definition',#2,'design');
#10 = SHAPE_REPRESENTATION('',(#11,#15),#19);
#11 = AXIS2_PLACEMENT_3D('',#12,#13,#14);
#12 = CARTESIAN_POINT('',(0.,0.,0.));
#13 = DIRECTION('',(0.,0.,1.));
#14 = DIRECTION('',(1.,0.,-0.));
#15 = AXIS2_PLACEMENT_3D('',#16,#17,#18);
#16 = CARTESIAN_POINT('',(0.,0.,0.));
#17 = DIRECTION('',(0.,0.,1.));
#18 = DIRECTION('',(1.,0.,-0.));
#19 = ( GEOMETRIC_REPRESENTATION_CONTEXT(3) 
GLOBAL_UNCERTAINTY_ASSIGNED_CONTEXT((#23)) GLOBAL_UNIT_ASSIGNED_CONTEXT(
(#20,#21,#22)) REPRESENTATION_CONTEXT('Context #1',
  '3D Context with UNIT and UNCERTAINTY') );
#20 = ( LENGTH_UNIT() NAMED_UNIT(*) SI_UNIT(.MILLI.,.METRE.) );
#21 = ( NAMED_UNIT(*) PLANE_ANGLE_UNIT() SI_UNIT($,.RADIAN.) );
#22 = ( NAMED_UNIT(*) SI_UNIT($,.STERADIAN.) SOLID_ANGLE_UNIT() );
#23 = UNCERTAINTY_MEASURE_WITH_UNIT(LENGTH_MEASURE(2.E-07),#20,
  'distance_accuracy_value','confusion accuracy');
#24 = PRODUCT_RELATED_PRODUCT_CATEGORY('part',$,(#7));
#25 = SHAPE_DEFINITION_REPRESENTATION(#26,#32);
#26 = PRODUCT_DEFINITION_SHAPE('','',#27);
#27 = PRODUCT_DEFINITION('design','',#28,#31);
#28 = PRODUCT_DEFINITION_FORMATION('','',#29);
#29 = PRODUCT(
'STRUCTURAL_RECOVERY_TETHER_WITH_TWO_BURIED_EYE_SPLICES_HMPE_STOWED_
LOCAL_DEFINITION',
'STRUCTURAL_RECOVERY_TETHER_WITH_TWO_BURIED_EYE_SPLICES_HMPE_STOWED_
LOCAL_DEFINITION','',(#30));
#30 = PRODUCT_CONTEXT('',#2,'mechanical');
#31 = PRODUCT_DEFINITION_CONTEXT('part definition',#2,'design');
#32 = ADVANCED_BREP_SHAPE_REPRESENTATION('',(#11,#33),#1015);
#33 = MANIFOLD_SOLID_BREP('',#34);
#34 = CLOSED_SHELL('',(#35,#284,#397,#446,#708,#712,#736,#742,#853,#902,
    #952,#980,#1004,#1008));
#35 = ADVANCED_FACE('',(#36),#51,.T.);
#36 = FACE_BOUND('',#37,.T.);
#37 = EDGE_LOOP('',(#38,#101,#142,#165,#192,#193,#227,#257));
#38 = ORIENTED_EDGE('',*,*,#39,.F.);
#39 = EDGE_CURVE('',#40,#42,#44,.T.);
#40 = VERTEX_POINT('',#41);
#41 = CARTESIAN_POINT('',(37.704759301217,1.968271325221,
    1.625196827133E+03));
#42 = VERTEX_POINT('',#43);
#43 = CARTESIAN_POINT('',(38.,-2.,1.625E+03));
#44 = SURFACE_CURVE('',#45,(#50,#62),.PCURVE_S1.);
#45 = CIRCLE('',#46,2.);
#46 = AXIS2_PLACEMENT_3D('',#47,#48,#49);
#47 = CARTESIAN_POINT('',(38.,0.,1.625E+03));
#48 = DIRECTION('',(0.554700196225,0.,0.832050294338));
#49 = DIRECTION('',(0.832050294338,0.,-0.554700196225));
#50 = PCURVE('',#51,#56);
#51 = CYLINDRICAL_SURFACE('',#52,2.);
#52 = AXIS2_PLACEMENT_3D('',#53,#54,#55);
#53 = CARTESIAN_POINT('',(30.,0.,1.613E+03));
#54 = DIRECTION('',(0.554700196225,0.,0.832050294338));
#55 = DIRECTION('',(0.832050294338,0.,-0.554700196225));
#56 = DEFINITIONAL_REPRESENTATION('',(#57),#61);
#57 = LINE('',#58,#59);
#58 = CARTESIAN_POINT('',(0.,14.422205101856));
#59 = VECTOR('',#60,1.);
#60 = DIRECTION('',(1.,0.));
#61 = ( GEOMETRIC_REPRESENTATION_CONTEXT(2) 
PARAMETRIC_REPRESENTATION_CONTEXT() REPRESENTATION_CONTEXT('2D SPACE',''
  ) );
#62 = PCURVE('',#63,#68);
#63 = SPHERICAL_SURFACE('',#64,2.);
#64 = AXIS2_PLACEMENT_3D('',#65,#66,#67);
#65 = CARTESIAN_POINT('',(38.,0.,1.625E+03));
#66 = DIRECTION('',(0.,0.,1.));
#67 = DIRECTION('',(1.,0.,-0.));
#68 = DEFINITIONAL_REPRESENTATION('',(#69),#100);
#69 = B_SPLINE_CURVE_WITH_KNOTS('',8,(#70,#71,#72,#73,#74,#75,#76,#77,
    #78,#79,#80,#81,#82,#83,#84,#85,#86,#87,#88,#89,#90,#91,#92,#93,#94,
    #95,#96,#97,#98,#99),.UNSPECIFIED.,.F.,.F.,(9,7,7,7,9),(
    1.749158104947,2.489965823807,3.045571612951,3.878980296668,
    4.712388980385),.UNSPECIFIED.);
#70 = CARTESIAN_POINT('',(1.719686274404,9.857312231673E-02));
#71 = CARTESIAN_POINT('',(1.797488466598,0.149370602902));
#72 = CARTESIAN_POINT('',(1.876183816193,0.199490515024));
#73 = CARTESIAN_POINT('',(1.956389468223,0.248455620283));
#74 = CARTESIAN_POINT('',(2.038710951947,0.295765767762));
#75 = CARTESIAN_POINT('',(2.12374198438,0.340881216709));
#76 = CARTESIAN_POINT('',(2.212023657096,0.383197857787));
#77 = CARTESIAN_POINT('',(2.303949763677,0.422047750849));
#78 = CARTESIAN_POINT('',(2.471346471231,0.482791381933));
#79 = CARTESIAN_POINT('',(2.545185845821,0.506496105362));
#80 = CARTESIAN_POINT('',(2.621159060797,0.527588679689));
#81 = CARTESIAN_POINT('',(2.69920966014,0.545785201388));
#82 = CARTESIAN_POINT('',(2.779151239632,0.560812650672));
#83 = CARTESIAN_POINT('',(2.860644722312,0.572439133597));
#84 = CARTESIAN_POINT('',(2.94321690391,0.580504797423));
#85 = CARTESIAN_POINT('',(3.151041350253,0.591579678531));
#86 = CARTESIAN_POINT('',(3.27698980417,0.590043892812));
#87 = CARTESIAN_POINT('',(3.402433068433,0.58007666545));
#88 = CARTESIAN_POINT('',(3.525330485623,0.561839139815));
#89 = CARTESIAN_POINT('',(3.643942560118,0.536051702252));
#90 = CARTESIAN_POINT('',(3.757695403524,0.503687765738));
#91 = CARTESIAN_POINT('',(3.866524396094,0.46572758027));
#92 = CARTESIAN_POINT('',(4.075038513051,0.380505944699));
#93 = CARTESIAN_POINT('',(4.174723242841,0.333244120151));
#94 = CARTESIAN_POINT('',(4.270179052956,0.282276074348));
#95 = CARTESIAN_POINT('',(4.362141739828,0.228498868922));
#96 = CARTESIAN_POINT('',(4.451467211194,0.172698442545));
#97 = CARTESIAN_POINT('',(4.539029634889,0.11557283974));
#98 = CARTESIAN_POINT('',(4.625709237811,5.778649504918E-02));
#99 = CARTESIAN_POINT('',(4.712388980385,0.));
#100 = ( GEOMETRIC_REPRESENTATION_CONTEXT(2) 
PARAMETRIC_REPRESENTATION_CONTEXT() REPRESENTATION_CONTEXT('2D SPACE',''
  ) );
#101 = ORIENTED_EDGE('',*,*,#102,.F.);
#102 = EDGE_CURVE('',#103,#40,#105,.T.);
#103 = VERTEX_POINT('',#104);
#104 = CARTESIAN_POINT('',(36.644532161474,-4.898587196589E-16,
    1.619361246967E+03));
#105 = SURFACE_CURVE('',#106,(#111,#124),.PCURVE_S1.);
#106 = ELLIPSE('',#107,5.881827587436,2.);
#107 = AXIS2_PLACEMENT_3D('',#108,#109,#110);
#108 = CARTESIAN_POINT('',(38.,0.,1.625E+03));
#109 = DIRECTION('',(0.958673634926,0.166846056647,-0.23045011408));
#110 = DIRECTION('',(0.24321409117,-6.032736493558E-02,0.968094786111));
#111 = PCURVE('',#51,#112);
#112 = DEFINITIONAL_REPRESENTATION('',(#113),#123);
#113 = B_SPLINE_CURVE_WITH_KNOTS('',8,(#114,#115,#116,#117,#118,#119,
    #120,#121,#122),.UNSPECIFIED.,.F.,.F.,(9,9),(2.963230875437,
    4.712388982243),.PIECEWISE_BEZIER_KNOTS.);
#114 = CARTESIAN_POINT('',(-1.7763568394E-14,8.978600704832));
#115 = CARTESIAN_POINT('',(0.218644763351,8.764031536971));
#116 = CARTESIAN_POINT('',(0.437289526701,8.846873662789));
#117 = CARTESIAN_POINT('',(0.65593429005,9.242752901002));
#118 = CARTESIAN_POINT('',(0.874579053403,9.936988263369));
#119 = CARTESIAN_POINT('',(1.093223816751,10.882103846488));
#120 = CARTESIAN_POINT('',(1.311868580103,12.003400577214));
#121 = CARTESIAN_POINT('',(1.530513343455,13.212803156303));
#122 = CARTESIAN_POINT('',(1.749158106805,14.422205112133));
#123 = ( GEOMETRIC_REPRESENTATION_CONTEXT(2) 
PARAMETRIC_REPRESENTATION_CONTEXT() REPRESENTATION_CONTEXT('2D SPACE',''
  ) );
#124 = PCURVE('',#125,#130);
#125 = CYLINDRICAL_SURFACE('',#126,2.);
#126 = AXIS2_PLACEMENT_3D('',#127,#128,#129);
#127 = CARTESIAN_POINT('',(38.,0.,1.625E+03));
#128 = DIRECTION('',(9.725610182987E-02,0.113465452135,-0.988770368604)
  );
#129 = DIRECTION('',(0.,-0.993480071526,-0.114005909847));
#130 = DEFINITIONAL_REPRESENTATION('',(#131),#141);
#131 = B_SPLINE_CURVE_WITH_KNOTS('',8,(#132,#133,#134,#135,#136,#137,
    #138,#139,#140),.UNSPECIFIED.,.F.,.F.,(9,9),(2.963230875437,
    4.712388982243),.PIECEWISE_BEZIER_KNOTS.);
#132 = CARTESIAN_POINT('',(1.243561750243,5.443604397024));
#133 = CARTESIAN_POINT('',(1.462206513594,5.658173564885));
#134 = CARTESIAN_POINT('',(1.680851276943,5.575331439046));
#135 = CARTESIAN_POINT('',(1.899496040289,5.179452200882));
#136 = CARTESIAN_POINT('',(2.118140803639,4.485216838439));
#137 = CARTESIAN_POINT('',(2.336785566997,3.540101255383));
#138 = CARTESIAN_POINT('',(2.555430330347,2.41880452462));
#139 = CARTESIAN_POINT('',(2.774075093698,1.209401945552));
#140 = CARTESIAN_POINT('',(2.992719857049,-1.027683538268E-08));
#141 = ( GEOMETRIC_REPRESENTATION_CONTEXT(2) 
PARAMETRIC_REPRESENTATION_CONTEXT() REPRESENTATION_CONTEXT('2D SPACE',''
  ) );
#142 = ORIENTED_EDGE('',*,*,#143,.F.);
#143 = EDGE_CURVE('',#144,#103,#146,.T.);
#144 = VERTEX_POINT('',#145);
#145 = CARTESIAN_POINT('',(31.664100588676,-4.898587196589E-16,
    1.611890599608E+03));
#146 = SEAM_CURVE('',#147,(#151,#158),.PCURVE_S1.);
#147 = LINE('',#148,#149);
#148 = CARTESIAN_POINT('',(31.664100588676,-4.898587196589E-16,
    1.611890599608E+03));
#149 = VECTOR('',#150,1.);
#150 = DIRECTION('',(0.554700196225,0.,0.832050294338));
#151 = PCURVE('',#51,#152);
#152 = DEFINITIONAL_REPRESENTATION('',(#153),#157);
#153 = LINE('',#154,#155);
#154 = CARTESIAN_POINT('',(6.28318530718,-0.));
#155 = VECTOR('',#156,1.);
#156 = DIRECTION('',(0.,1.));
#157 = ( GEOMETRIC_REPRESENTATION_CONTEXT(2) 
PARAMETRIC_REPRESENTATION_CONTEXT() REPRESENTATION_CONTEXT('2D SPACE',''
  ) );
#158 = PCURVE('',#51,#159);
#159 = DEFINITIONAL_REPRESENTATION('',(#160),#164);
#160 = LINE('',#161,#162);
#161 = CARTESIAN_POINT('',(0.,-0.));
#162 = VECTOR('',#163,1.);
#163 = DIRECTION('',(0.,1.));
#164 = ( GEOMETRIC_REPRESENTATION_CONTEXT(2) 
PARAMETRIC_REPRESENTATION_CONTEXT() REPRESENTATION_CONTEXT('2D SPACE',''
  ) );
#165 = ORIENTED_EDGE('',*,*,#166,.T.);
#166 = EDGE_CURVE('',#144,#144,#167,.T.);
#167 = SURFACE_CURVE('',#168,(#173,#180),.PCURVE_S1.);
#168 = CIRCLE('',#169,2.);
#169 = AXIS2_PLACEMENT_3D('',#170,#171,#172);
#170 = CARTESIAN_POINT('',(30.,0.,1.613E+03));
#171 = DIRECTION('',(0.554700196225,0.,0.832050294338));
#172 = DIRECTION('',(0.832050294338,0.,-0.554700196225));
#173 = PCURVE('',#51,#174);
#174 = DEFINITIONAL_REPRESENTATION('',(#175),#179);
#175 = LINE('',#176,#177);
#176 = CARTESIAN_POINT('',(0.,0.));
#177 = VECTOR('',#178,1.);
#178 = DIRECTION('',(1.,0.));
#179 = ( GEOMETRIC_REPRESENTATION_CONTEXT(2) 
PARAMETRIC_REPRESENTATION_CONTEXT() REPRESENTATION_CONTEXT('2D SPACE',''
  ) );
#180 = PCURVE('',#181,#186);
#181 = PLANE('',#182);
#182 = AXIS2_PLACEMENT_3D('',#183,#184,#185);
#183 = CARTESIAN_POINT('',(30.,0.,1.613E+03));
#184 = DIRECTION('',(0.554700196225,0.,0.832050294338));
#185 = DIRECTION('',(0.832050294338,0.,-0.554700196225));
#186 = DEFINITIONAL_REPRESENTATION('',(#187),#191);
#187 = CIRCLE('',#188,2.);
#188 = AXIS2_PLACEMENT_2D('',#189,#190);
#189 = CARTESIAN_POINT('',(0.,0.));
#190 = DIRECTION('',(1.,0.));
#191 = ( GEOMETRIC_REPRESENTATION_CONTEXT(2) 
PARAMETRIC_REPRESENTATION_CONTEXT() REPRESENTATION_CONTEXT('2D SPACE',''
  ) );
#192 = ORIENTED_EDGE('',*,*,#143,.T.);
#193 = ORIENTED_EDGE('',*,*,#194,.F.);
#194 = EDGE_CURVE('',#195,#103,#197,.T.);
#195 = VERTEX_POINT('',#196);
#196 = CARTESIAN_POINT('',(38.079791823606,-1.893869682179,
    1.623960771307E+03));
#197 = SURFACE_CURVE('',#198,(#203,#215),.PCURVE_S1.);
#198 = ELLIPSE('',#199,5.881827587436,2.);
#199 = AXIS2_PLACEMENT_3D('',#200,#201,#202);
#200 = CARTESIAN_POINT('',(38.,0.,1.625E+03));
#201 = DIRECTION('',(0.958673634926,0.166846056647,-0.23045011408));
#202 = DIRECTION('',(0.24321409117,-6.032736493558E-02,0.968094786111));
#203 = PCURVE('',#51,#204);
#204 = DEFINITIONAL_REPRESENTATION('',(#205),#214);
#205 = B_SPLINE_CURVE_WITH_KNOTS('',7,(#206,#207,#208,#209,#210,#211,
    #212,#213),.UNSPECIFIED.,.F.,.F.,(8,8),(1.719669125269,
    2.963230875437),.PIECEWISE_BEZIER_KNOTS.);
#206 = CARTESIAN_POINT('',(5.039623557011,13.601775102112));
#207 = CARTESIAN_POINT('',(5.217275235606,12.629989723251));
#208 = CARTESIAN_POINT('',(5.394926914202,11.688413472895));
#209 = CARTESIAN_POINT('',(5.572578592798,10.82713387624));
#210 = CARTESIAN_POINT('',(5.750230271393,10.093932655745));
#211 = CARTESIAN_POINT('',(5.927881949989,9.527716246069));
#212 = CARTESIAN_POINT('',(6.105533628584,9.152940909743));
#213 = CARTESIAN_POINT('',(6.28318530718,8.978600704832));
#214 = ( GEOMETRIC_REPRESENTATION_CONTEXT(2) 
PARAMETRIC_REPRESENTATION_CONTEXT() REPRESENTATION_CONTEXT('2D SPACE',''
  ) );
#215 = PCURVE('',#125,#216);
#216 = DEFINITIONAL_REPRESENTATION('',(#217),#226);
#217 = B_SPLINE_CURVE_WITH_KNOTS('',7,(#218,#219,#220,#221,#222,#223,
    #224,#225),.UNSPECIFIED.,.F.,.F.,(8,8),(1.719669125269,
    2.963230875437),.PIECEWISE_BEZIER_KNOTS.);
#218 = CARTESIAN_POINT('',(7.449330041709E-11,0.820429999744));
#219 = CARTESIAN_POINT('',(0.17765167867,1.792215378605));
#220 = CARTESIAN_POINT('',(0.355303357265,2.733791628964));
#221 = CARTESIAN_POINT('',(0.532955035861,3.595071225605));
#222 = CARTESIAN_POINT('',(0.710606714457,4.328272446119));
#223 = CARTESIAN_POINT('',(0.888258393052,4.894488855784));
#224 = CARTESIAN_POINT('',(1.065910071648,5.269264192113));
#225 = CARTESIAN_POINT('',(1.243561750243,5.443604397024));
#226 = ( GEOMETRIC_REPRESENTATION_CONTEXT(2) 
PARAMETRIC_REPRESENTATION_CONTEXT() REPRESENTATION_CONTEXT('2D SPACE',''
  ) );
#227 = ORIENTED_EDGE('',*,*,#228,.F.);
#228 = EDGE_CURVE('',#229,#195,#231,.T.);
#229 = VERTEX_POINT('',#230);
#230 = CARTESIAN_POINT('',(38.295240698783,-1.96827132522,
    1.624803172867E+03));
#231 = SURFACE_CURVE('',#232,(#237,#247),.PCURVE_S1.);
#232 = ELLIPSE('',#233,5.881827587436,2.);
#233 = AXIS2_PLACEMENT_3D('',#234,#235,#236);
#234 = CARTESIAN_POINT('',(38.,0.,1.625E+03));
#235 = DIRECTION('',(0.958673634926,0.166846056647,-0.23045011408));
#236 = DIRECTION('',(0.24321409117,-6.032736493558E-02,0.968094786111));
#237 = PCURVE('',#51,#238);
#238 = DEFINITIONAL_REPRESENTATION('',(#239),#246);
#239 = B_SPLINE_CURVE_WITH_KNOTS('',5,(#240,#241,#242,#243,#244,#245),
  .UNSPECIFIED.,.F.,.F.,(6,6),(1.570796272558,1.719669125269),
  .PIECEWISE_BEZIER_KNOTS.);
#240 = CARTESIAN_POINT('',(4.890750704301,14.422205401858));
#241 = CARTESIAN_POINT('',(4.920525274843,14.257511661675));
#242 = CARTESIAN_POINT('',(4.950299845385,14.092817921038));
#243 = CARTESIAN_POINT('',(4.980074415927,13.928428358043));
#244 = CARTESIAN_POINT('',(5.009848986469,13.76464714781));
#245 = CARTESIAN_POINT('',(5.039623557011,13.601775102112));
#246 = ( GEOMETRIC_REPRESENTATION_CONTEXT(2) 
PARAMETRIC_REPRESENTATION_CONTEXT() REPRESENTATION_CONTEXT('2D SPACE',''
  ) );
#247 = PCURVE('',#125,#248);
#248 = DEFINITIONAL_REPRESENTATION('',(#249),#256);
#249 = B_SPLINE_CURVE_WITH_KNOTS('',5,(#250,#251,#252,#253,#254,#255),
  .UNSPECIFIED.,.F.,.F.,(6,6),(1.570796272558,1.719669125269),
  .PIECEWISE_BEZIER_KNOTS.);
#250 = CARTESIAN_POINT('',(6.134312454544,-3.000020569743E-07));
#251 = CARTESIAN_POINT('',(6.164087025086,0.16469344018));
#252 = CARTESIAN_POINT('',(6.193861595628,0.329387180818));
#253 = CARTESIAN_POINT('',(6.22363616617,0.493776743812));
#254 = CARTESIAN_POINT('',(6.253410736712,0.657557954046));
#255 = CARTESIAN_POINT('',(6.283185307254,0.820429999744));
#256 = ( GEOMETRIC_REPRESENTATION_CONTEXT(2) 
PARAMETRIC_REPRESENTATION_CONTEXT() REPRESENTATION_CONTEXT('2D SPACE',''
  ) );
#257 = ORIENTED_EDGE('',*,*,#258,.F.);
#258 = EDGE_CURVE('',#42,#229,#259,.T.);
#259 = SURFACE_CURVE('',#260,(#265,#272),.PCURVE_S1.);
#260 = CIRCLE('',#261,2.);
#261 = AXIS2_PLACEMENT_3D('',#262,#263,#264);
#262 = CARTESIAN_POINT('',(38.,0.,1.625E+03));
#263 = DIRECTION('',(0.554700196225,0.,0.832050294338));
#264 = DIRECTION('',(0.832050294338,0.,-0.554700196225));
#265 = PCURVE('',#51,#266);
#266 = DEFINITIONAL_REPRESENTATION('',(#267),#271);
#267 = LINE('',#268,#269);
#268 = CARTESIAN_POINT('',(0.,14.422205101856));
#269 = VECTOR('',#270,1.);
#270 = DIRECTION('',(1.,0.));
#271 = ( GEOMETRIC_REPRESENTATION_CONTEXT(2) 
PARAMETRIC_REPRESENTATION_CONTEXT() REPRESENTATION_CONTEXT('2D SPACE',''
  ) );
#272 = PCURVE('',#273,#278);
#273 = PLANE('',#274);
#274 = AXIS2_PLACEMENT_3D('',#275,#276,#277);
#275 = CARTESIAN_POINT('',(38.,0.,1.625E+03));
#276 = DIRECTION('',(0.554700196225,0.,0.832050294338));
#277 = DIRECTION('',(0.832050294338,0.,-0.554700196225));
#278 = DEFINITIONAL_REPRESENTATION('',(#279),#283);
#279 = CIRCLE('',#280,2.);
#280 = AXIS2_PLACEMENT_2D('',#281,#282);
#281 = CARTESIAN_POINT('',(0.,0.));
#282 = DIRECTION('',(1.,0.));
#283 = ( GEOMETRIC_REPRESENTATION_CONTEXT(2) 
PARAMETRIC_REPRESENTATION_CONTEXT() REPRESENTATION_CONTEXT('2D SPACE',''
  ) );
#284 = ADVANCED_FACE('',(#285),#63,.T.);
#285 = FACE_BOUND('',#286,.T.);
#286 = EDGE_LOOP('',(#287,#313,#314,#342,#343,#372));
#287 = ORIENTED_EDGE('',*,*,#288,.T.);
#288 = EDGE_CURVE('',#289,#291,#293,.T.);
#289 = VERTEX_POINT('',#290);
#290 = CARTESIAN_POINT('',(39.990394821749,5.77012152033E-14,
    1.62519577654E+03));
#291 = VERTEX_POINT('',#292);
#292 = CARTESIAN_POINT('',(38.,0.,1.627E+03));
#293 = SEAM_CURVE('',#294,(#299,#306),.PCURVE_S1.);
#294 = CIRCLE('',#295,2.);
#295 = AXIS2_PLACEMENT_3D('',#296,#297,#298);
#296 = CARTESIAN_POINT('',(38.,0.,1.625E+03));
#297 = DIRECTION('',(-2.449293598295E-16,-1.,0.));
#298 = DIRECTION('',(1.,-2.449293598295E-16,0.));
#299 = PCURVE('',#63,#300);
#300 = DEFINITIONAL_REPRESENTATION('',(#301),#305);
#301 = LINE('',#302,#303);
#302 = CARTESIAN_POINT('',(6.28318530718,-6.28318530718));
#303 = VECTOR('',#304,1.);
#304 = DIRECTION('',(0.,1.));
#305 = ( GEOMETRIC_REPRESENTATION_CONTEXT(2) 
PARAMETRIC_REPRESENTATION_CONTEXT() REPRESENTATION_CONTEXT('2D SPACE',''
  ) );
#306 = PCURVE('',#63,#307);
#307 = DEFINITIONAL_REPRESENTATION('',(#308),#312);
#308 = LINE('',#309,#310);
#309 = CARTESIAN_POINT('',(0.,-6.28318530718));
#310 = VECTOR('',#311,1.);
#311 = DIRECTION('',(0.,1.));
#312 = ( GEOMETRIC_REPRESENTATION_CONTEXT(2) 
PARAMETRIC_REPRESENTATION_CONTEXT() REPRESENTATION_CONTEXT('2D SPACE',''
  ) );
#313 = ORIENTED_EDGE('',*,*,#288,.F.);
#314 = ORIENTED_EDGE('',*,*,#315,.F.);
#315 = EDGE_CURVE('',#40,#289,#316,.T.);
#316 = SURFACE_CURVE('',#317,(#322,#335),.PCURVE_S1.);
#317 = CIRCLE('',#318,2.);
#318 = AXIS2_PLACEMENT_3D('',#319,#320,#321);
#319 = CARTESIAN_POINT('',(38.,0.,1.625E+03));
#320 = DIRECTION('',(9.725610182987E-02,0.113465452135,-0.988770368604)
  );
#321 = DIRECTION('',(1.734723475977E-18,-0.993480071526,-0.114005909847)
  );
#322 = PCURVE('',#63,#323);
#323 = DEFINITIONAL_REPRESENTATION('',(#324),#334);
#324 = B_SPLINE_CURVE_WITH_KNOTS('',8,(#325,#326,#327,#328,#329,#330,
    #331,#332,#333),.UNSPECIFIED.,.F.,.F.,(9,9),(2.992719855191,
    4.701228907451),.PIECEWISE_BEZIER_KNOTS.);
#325 = CARTESIAN_POINT('',(1.719686274404,9.857312231673E-02));
#326 = CARTESIAN_POINT('',(1.506455696539,0.12270829241));
#327 = CARTESIAN_POINT('',(1.292061046773,0.141754528493));
#328 = CARTESIAN_POINT('',(1.076405734564,0.154006490862));
#329 = CARTESIAN_POINT('',(0.859806156091,0.15821599437));
#330 = CARTESIAN_POINT('',(0.643214837271,0.153847103441));
#331 = CARTESIAN_POINT('',(0.427579080561,0.141448490642));
#332 = CARTESIAN_POINT('',(0.21320837752,0.122277371305));
#333 = CARTESIAN_POINT('',(3.42831893981E-14,9.804527729386E-02));
#334 = ( GEOMETRIC_REPRESENTATION_CONTEXT(2) 
PARAMETRIC_REPRESENTATION_CONTEXT() REPRESENTATION_CONTEXT('2D SPACE',''
  ) );
#335 = PCURVE('',#125,#336);
#336 = DEFINITIONAL_REPRESENTATION('',(#337),#341);
#337 = LINE('',#338,#339);
#338 = CARTESIAN_POINT('',(0.,0.));
#339 = VECTOR('',#340,1.);
#340 = DIRECTION('',(1.,0.));
#341 = ( GEOMETRIC_REPRESENTATION_CONTEXT(2) 
PARAMETRIC_REPRESENTATION_CONTEXT() REPRESENTATION_CONTEXT('2D SPACE',''
  ) );
#342 = ORIENTED_EDGE('',*,*,#39,.T.);
#343 = ORIENTED_EDGE('',*,*,#344,.T.);
#344 = EDGE_CURVE('',#42,#345,#347,.T.);
#345 = VERTEX_POINT('',#346);
#346 = CARTESIAN_POINT('',(39.518513204731,-1.301582746912,1.625E+03));
#347 = SURFACE_CURVE('',#348,(#353,#360),.PCURVE_S1.);
#348 = CIRCLE('',#349,2.);
#349 = AXIS2_PLACEMENT_3D('',#350,#351,#352);
#350 = CARTESIAN_POINT('',(38.,0.,1.625E+03));
#351 = DIRECTION('',(0.,0.,1.));
#352 = DIRECTION('',(1.,0.,-0.));
#353 = PCURVE('',#63,#354);
#354 = DEFINITIONAL_REPRESENTATION('',(#355),#359);
#355 = LINE('',#356,#357);
#356 = CARTESIAN_POINT('',(0.,0.));
#357 = VECTOR('',#358,1.);
#358 = DIRECTION('',(1.,0.));
#359 = ( GEOMETRIC_REPRESENTATION_CONTEXT(2) 
PARAMETRIC_REPRESENTATION_CONTEXT() REPRESENTATION_CONTEXT('2D SPACE',''
  ) );
#360 = PCURVE('',#361,#366);
#361 = PLANE('',#362);
#362 = AXIS2_PLACEMENT_3D('',#363,#364,#365);
#363 = CARTESIAN_POINT('',(38.,0.,1.625E+03));
#364 = DIRECTION('',(0.,0.,1.));
#365 = DIRECTION('',(1.,0.,-0.));
#366 = DEFINITIONAL_REPRESENTATION('',(#367),#371);
#367 = CIRCLE('',#368,2.);
#368 = AXIS2_PLACEMENT_2D('',#369,#370);
#369 = CARTESIAN_POINT('',(0.,0.));
#370 = DIRECTION('',(1.,0.));
#371 = ( GEOMETRIC_REPRESENTATION_CONTEXT(2) 
PARAMETRIC_REPRESENTATION_CONTEXT() REPRESENTATION_CONTEXT('2D SPACE',''
  ) );
#372 = ORIENTED_EDGE('',*,*,#373,.F.);
#373 = EDGE_CURVE('',#289,#345,#374,.T.);
#374 = SURFACE_CURVE('',#375,(#380,#390),.PCURVE_S1.);
#375 = CIRCLE('',#376,2.);
#376 = AXIS2_PLACEMENT_3D('',#377,#378,#379);
#377 = CARTESIAN_POINT('',(38.,0.,1.625E+03));
#378 = DIRECTION('',(9.725610182987E-02,0.113465452135,-0.988770368604)
  );
#379 = DIRECTION('',(1.734723475977E-18,-0.993480071526,-0.114005909847)
  );
#380 = PCURVE('',#63,#381);
#381 = DEFINITIONAL_REPRESENTATION('',(#382),#389);
#382 = B_SPLINE_CURVE_WITH_KNOTS('',5,(#383,#384,#385,#386,#387,#388),
  .UNSPECIFIED.,.F.,.F.,(6,6),(4.701228907451,5.415440034783),
  .PIECEWISE_BEZIER_KNOTS.);
#383 = CARTESIAN_POINT('',(6.28318530718,9.804527729386E-02));
#384 = CARTESIAN_POINT('',(6.140580693677,8.183761959736E-02));
#385 = CARTESIAN_POINT('',(5.99854364638,6.31534693214E-02));
#386 = CARTESIAN_POINT('',(5.857034731616,4.26933793369E-02));
#387 = CARTESIAN_POINT('',(5.715797194979,2.134674581165E-02));
#388 = CARTESIAN_POINT('',(5.574559035052,0.));
#389 = ( GEOMETRIC_REPRESENTATION_CONTEXT(2) 
PARAMETRIC_REPRESENTATION_CONTEXT() REPRESENTATION_CONTEXT('2D SPACE',''
  ) );
#390 = PCURVE('',#125,#391);
#391 = DEFINITIONAL_REPRESENTATION('',(#392),#396);
#392 = LINE('',#393,#394);
#393 = CARTESIAN_POINT('',(0.,0.));
#394 = VECTOR('',#395,1.);
#395 = DIRECTION('',(1.,0.));
#396 = ( GEOMETRIC_REPRESENTATION_CONTEXT(2) 
PARAMETRIC_REPRESENTATION_CONTEXT() REPRESENTATION_CONTEXT('2D SPACE',''
  ) );
#397 = ADVANCED_FACE('',(#398),#273,.T.);
#398 = FACE_BOUND('',#399,.T.);
#399 = EDGE_LOOP('',(#400,#401,#427));
#400 = ORIENTED_EDGE('',*,*,#258,.T.);
#401 = ORIENTED_EDGE('',*,*,#402,.T.);
#402 = EDGE_CURVE('',#229,#403,#405,.T.);
#403 = VERTEX_POINT('',#404);
#404 = CARTESIAN_POINT('',(38.,0.,1.625E+03));
#405 = SURFACE_CURVE('',#406,(#410,#416),.PCURVE_S1.);
#406 = LINE('',#407,#408);
#407 = CARTESIAN_POINT('',(38.,0.,1.625E+03));
#408 = VECTOR('',#409,1.);
#409 = DIRECTION('',(-0.147620349392,0.98413566261,9.841356626102E-02));
#410 = PCURVE('',#273,#411);
#411 = DEFINITIONAL_REPRESENTATION('',(#412),#415);
#412 = B_SPLINE_CURVE_WITH_KNOTS('',1,(#413,#414),.UNSPECIFIED.,.F.,.F.,
  (2,2),(-2.022369639607,2.022369639607),.PIECEWISE_BEZIER_KNOTS.);
#413 = CARTESIAN_POINT('',(0.358803926673,-1.990286085317));
#414 = CARTESIAN_POINT('',(-0.358803926673,1.990286085317));
#415 = ( GEOMETRIC_REPRESENTATION_CONTEXT(2) 
PARAMETRIC_REPRESENTATION_CONTEXT() REPRESENTATION_CONTEXT('2D SPACE',''
  ) );
#416 = PCURVE('',#417,#422);
#417 = PLANE('',#418);
#418 = AXIS2_PLACEMENT_3D('',#419,#420,#421);
#419 = CARTESIAN_POINT('',(38.,0.,1.625E+03));
#420 = DIRECTION('',(9.725610182987E-02,0.113465452135,-0.988770368604)
  );
#421 = DIRECTION('',(0.,-0.993480071526,-0.114005909847));
#422 = DEFINITIONAL_REPRESENTATION('',(#423),#426);
#423 = B_SPLINE_CURVE_WITH_KNOTS('',1,(#424,#425),.UNSPECIFIED.,.F.,.F.,
  (2,2),(-2.022369639607,2.022369639607),.PIECEWISE_BEZIER_KNOTS.);
#424 = CARTESIAN_POINT('',(2.,-0.299964929955));
#425 = CARTESIAN_POINT('',(-2.,0.299964929955));
#426 = ( GEOMETRIC_REPRESENTATION_CONTEXT(2) 
PARAMETRIC_REPRESENTATION_CONTEXT() REPRESENTATION_CONTEXT('2D SPACE',''
  ) );
#427 = ORIENTED_EDGE('',*,*,#428,.T.);
#428 = EDGE_CURVE('',#403,#42,#429,.T.);
#429 = SURFACE_CURVE('',#430,(#434,#440),.PCURVE_S1.);
#430 = LINE('',#431,#432);
#431 = CARTESIAN_POINT('',(38.,0.,1.625E+03));
#432 = VECTOR('',#433,1.);
#433 = DIRECTION('',(0.,-1.,0.));
#434 = PCURVE('',#273,#435);
#435 = DEFINITIONAL_REPRESENTATION('',(#436),#439);
#436 = B_SPLINE_CURVE_WITH_KNOTS('',1,(#437,#438),.UNSPECIFIED.,.F.,.F.,
  (2,2),(-1.968271325221,2.),.PIECEWISE_BEZIER_KNOTS.);
#437 = CARTESIAN_POINT('',(0.,1.968271325221));
#438 = CARTESIAN_POINT('',(0.,-2.));
#439 = ( GEOMETRIC_REPRESENTATION_CONTEXT(2) 
PARAMETRIC_REPRESENTATION_CONTEXT() REPRESENTATION_CONTEXT('2D SPACE',''
  ) );
#440 = PCURVE('',#361,#441);
#441 = DEFINITIONAL_REPRESENTATION('',(#442),#445);
#442 = B_SPLINE_CURVE_WITH_KNOTS('',1,(#443,#444),.UNSPECIFIED.,.F.,.F.,
  (2,2),(-1.968271325221,2.),.PIECEWISE_BEZIER_KNOTS.);
#443 = CARTESIAN_POINT('',(0.,1.968271325221));
#444 = CARTESIAN_POINT('',(0.,-2.));
#445 = ( GEOMETRIC_REPRESENTATION_CONTEXT(2) 
PARAMETRIC_REPRESENTATION_CONTEXT() REPRESENTATION_CONTEXT('2D SPACE',''
  ) );
#446 = ADVANCED_FACE('',(#447),#125,.T.);
#447 = FACE_BOUND('',#448,.T.);
#448 = EDGE_LOOP('',(#449,#450,#472,#473,#496,#537,#569,#609,#638,#674,
    #704,#705,#706,#707));
#449 = ORIENTED_EDGE('',*,*,#373,.T.);
#450 = ORIENTED_EDGE('',*,*,#451,.T.);
#451 = EDGE_CURVE('',#345,#229,#452,.T.);
#452 = SURFACE_CURVE('',#453,(#458,#465),.PCURVE_S1.);
#453 = CIRCLE('',#454,2.);
#454 = AXIS2_PLACEMENT_3D('',#455,#456,#457);
#455 = CARTESIAN_POINT('',(38.,0.,1.625E+03));
#456 = DIRECTION('',(9.725610182987E-02,0.113465452135,-0.988770368604)
  );
#457 = DIRECTION('',(1.734723475977E-18,-0.993480071526,-0.114005909847)
  );
#458 = PCURVE('',#125,#459);
#459 = DEFINITIONAL_REPRESENTATION('',(#460),#464);
#460 = LINE('',#461,#462);
#461 = CARTESIAN_POINT('',(0.,0.));
#462 = VECTOR('',#463,1.);
#463 = DIRECTION('',(1.,0.));
#464 = ( GEOMETRIC_REPRESENTATION_CONTEXT(2) 
PARAMETRIC_REPRESENTATION_CONTEXT() REPRESENTATION_CONTEXT('2D SPACE',''
  ) );
#465 = PCURVE('',#417,#466);
#466 = DEFINITIONAL_REPRESENTATION('',(#467),#471);
#467 = CIRCLE('',#468,2.);
#468 = AXIS2_PLACEMENT_2D('',#469,#470);
#469 = CARTESIAN_POINT('',(0.,0.));
#470 = DIRECTION('',(1.,0.));
#471 = ( GEOMETRIC_REPRESENTATION_CONTEXT(2) 
PARAMETRIC_REPRESENTATION_CONTEXT() REPRESENTATION_CONTEXT('2D SPACE',''
  ) );
#472 = ORIENTED_EDGE('',*,*,#228,.T.);
#473 = ORIENTED_EDGE('',*,*,#474,.T.);
#474 = EDGE_CURVE('',#195,#475,#477,.T.);
#475 = VERTEX_POINT('',#476);
#476 = CARTESIAN_POINT('',(41.970108733476,2.644833379336,
    1.584409216057E+03));
#477 = SEAM_CURVE('',#478,(#482,#489),.PCURVE_S1.);
#478 = LINE('',#479,#480);
#479 = CARTESIAN_POINT('',(38.,-1.986960143053,1.62477198818E+03));
#480 = VECTOR('',#481,1.);
#481 = DIRECTION('',(9.725610182987E-02,0.113465452135,-0.988770368604)
  );
#482 = PCURVE('',#125,#483);
#483 = DEFINITIONAL_REPRESENTATION('',(#484),#488);
#484 = LINE('',#485,#486);
#485 = CARTESIAN_POINT('',(0.,-0.));
#486 = VECTOR('',#487,1.);
#487 = DIRECTION('',(0.,1.));
#488 = ( GEOMETRIC_REPRESENTATION_CONTEXT(2) 
PARAMETRIC_REPRESENTATION_CONTEXT() REPRESENTATION_CONTEXT('2D SPACE',''
  ) );
#489 = PCURVE('',#125,#490);
#490 = DEFINITIONAL_REPRESENTATION('',(#491),#495);
#491 = LINE('',#492,#493);
#492 = CARTESIAN_POINT('',(6.28318530718,-0.));
#493 = VECTOR('',#494,1.);
#494 = DIRECTION('',(0.,1.));
#495 = ( GEOMETRIC_REPRESENTATION_CONTEXT(2) 
PARAMETRIC_REPRESENTATION_CONTEXT() REPRESENTATION_CONTEXT('2D SPACE',''
  ) );
#496 = ORIENTED_EDGE('',*,*,#497,.F.);
#497 = EDGE_CURVE('',#498,#475,#500,.T.);
#498 = VERTEX_POINT('',#499);
#499 = CARTESIAN_POINT('',(45.863393742894,6.280542956413,
    1.564100723986E+03));
#500 = SURFACE_CURVE('',#501,(#506,#519),.PCURVE_S1.);
#501 = ELLIPSE('',#502,22.385042170463,2.);
#502 = AXIS2_PLACEMENT_3D('',#503,#504,#505);
#503 = CARTESIAN_POINT('',(44.,7.,1.564E+03));
#504 = DIRECTION('',(-0.339885522252,-0.912290780308,-0.228480554816));
#505 = DIRECTION('',(0.128135754181,0.195757305799,-0.972244982361));
#506 = PCURVE('',#125,#507);
#507 = DEFINITIONAL_REPRESENTATION('',(#508),#518);
#508 = B_SPLINE_CURVE_WITH_KNOTS('',8,(#509,#510,#511,#512,#513,#514,
    #515,#516,#517),.UNSPECIFIED.,.F.,.F.,(9,9),(1.570796313339,
    2.782268582937),.PIECEWISE_BEZIER_KNOTS.);
#509 = CARTESIAN_POINT('',(5.071713037584,61.692787560749));
#510 = CARTESIAN_POINT('',(5.223147071284,58.316487370255));
#511 = CARTESIAN_POINT('',(5.374581104983,54.940187056898));
#512 = CARTESIAN_POINT('',(5.526015138684,51.681870475208));
#513 = CARTESIAN_POINT('',(5.677449172383,48.659515854408));
#514 = CARTESIAN_POINT('',(5.828883206082,45.982461343025));
#515 = CARTESIAN_POINT('',(5.980317239783,43.742683377699));
#516 = CARTESIAN_POINT('',(6.131751273482,42.008426357625));
#517 = CARTESIAN_POINT('',(6.283185307182,40.82117891619));
#518 = ( GEOMETRIC_REPRESENTATION_CONTEXT(2) 
PARAMETRIC_REPRESENTATION_CONTEXT() REPRESENTATION_CONTEXT('2D SPACE',''
  ) );
#519 = PCURVE('',#520,#525);
#520 = CYLINDRICAL_SURFACE('',#521,2.);
#521 = AXIS2_PLACEMENT_3D('',#522,#523,#524);
#522 = CARTESIAN_POINT('',(44.,7.,1.564E+03));
#523 = DIRECTION('',(-0.157990501107,-0.276483376937,0.94794300664));
#524 = DIRECTION('',(0.,0.96,0.28));
#525 = DEFINITIONAL_REPRESENTATION('',(#526),#536);
#526 = B_SPLINE_CURVE_WITH_KNOTS('',8,(#527,#528,#529,#530,#531,#532,
    #533,#534,#535),.UNSPECIFIED.,.F.,.F.,(9,9),(1.570796313339,
    2.782268582937),.PIECEWISE_BEZIER_KNOTS.);
#527 = CARTESIAN_POINT('',(4.374773599224,-3.000002379849E-07));
#528 = CARTESIAN_POINT('',(4.526207632924,3.376299890493));
#529 = CARTESIAN_POINT('',(4.67764166661,6.752600203799));
#530 = CARTESIAN_POINT('',(4.829075700343,10.010916785548));
#531 = CARTESIAN_POINT('',(4.980509733974,13.033271406064));
#532 = CARTESIAN_POINT('',(5.131943767745,15.710325917775));
#533 = CARTESIAN_POINT('',(5.283377801408,17.950103882995));
#534 = CARTESIAN_POINT('',(5.434811835122,19.684360903123));
#535 = CARTESIAN_POINT('',(5.586245868822,20.871608344559));
#536 = ( GEOMETRIC_REPRESENTATION_CONTEXT(2) 
PARAMETRIC_REPRESENTATION_CONTEXT() REPRESENTATION_CONTEXT('2D SPACE',''
  ) );
#537 = ORIENTED_EDGE('',*,*,#538,.F.);
#538 = EDGE_CURVE('',#539,#498,#541,.T.);
#539 = VERTEX_POINT('',#540);
#540 = CARTESIAN_POINT('',(45.990394821749,7.,1.56419577654E+03));
#541 = SURFACE_CURVE('',#542,(#547,#554),.PCURVE_S1.);
#542 = CIRCLE('',#543,2.);
#543 = AXIS2_PLACEMENT_3D('',#544,#545,#546);
#544 = CARTESIAN_POINT('',(44.,7.,1.564E+03));
#545 = DIRECTION('',(9.725610182987E-02,0.113465452135,-0.988770368604)
  );
#546 = DIRECTION('',(1.734723475977E-18,-0.993480071526,-0.114005909847)
  );
#547 = PCURVE('',#125,#548);
#548 = DEFINITIONAL_REPRESENTATION('',(#549),#553);
#549 = LINE('',#550,#551);
#550 = CARTESIAN_POINT('',(0.,61.692787260749));
#551 = VECTOR('',#552,1.);
#552 = DIRECTION('',(1.,0.));
#553 = ( GEOMETRIC_REPRESENTATION_CONTEXT(2) 
PARAMETRIC_REPRESENTATION_CONTEXT() REPRESENTATION_CONTEXT('2D SPACE',''
  ) );
#554 = PCURVE('',#555,#560);
#555 = SPHERICAL_SURFACE('',#556,2.);
#556 = AXIS2_PLACEMENT_3D('',#557,#558,#559);
#557 = CARTESIAN_POINT('',(44.,7.,1.564E+03));
#558 = DIRECTION('',(0.,0.,1.));
#559 = DIRECTION('',(1.,0.,-0.));
#560 = DEFINITIONAL_REPRESENTATION('',(#561),#568);
#561 = B_SPLINE_CURVE_WITH_KNOTS('',5,(#562,#563,#564,#565,#566,#567),
  .UNSPECIFIED.,.F.,.F.,(6,6),(4.701228907451,5.071713051039),
  .PIECEWISE_BEZIER_KNOTS.);
#562 = CARTESIAN_POINT('',(6.28318530718,9.804527729386E-02));
#563 = CARTESIAN_POINT('',(6.209211735383,8.963784712166E-02));
#564 = CARTESIAN_POINT('',(6.135391075536,8.056406429503E-02));
#565 = CARTESIAN_POINT('',(6.061717210835,7.092162174819E-02));
#566 = CARTESIAN_POINT('',(5.988169526856,6.08220657256E-02));
#567 = CARTESIAN_POINT('',(5.914718482099,5.038330649487E-02));
#568 = ( GEOMETRIC_REPRESENTATION_CONTEXT(2) 
PARAMETRIC_REPRESENTATION_CONTEXT() REPRESENTATION_CONTEXT('2D SPACE',''
  ) );
#569 = ORIENTED_EDGE('',*,*,#570,.F.);
#570 = EDGE_CURVE('',#571,#539,#573,.T.);
#571 = VERTEX_POINT('',#572);
#572 = CARTESIAN_POINT('',(42.48148679527,8.301582746912,1.564E+03));
#573 = SURFACE_CURVE('',#574,(#579,#586),.PCURVE_S1.);
#574 = CIRCLE('',#575,2.);
#575 = AXIS2_PLACEMENT_3D('',#576,#577,#578);
#576 = CARTESIAN_POINT('',(44.,7.,1.564E+03));
#577 = DIRECTION('',(9.725610182987E-02,0.113465452135,-0.988770368604)
  );
#578 = DIRECTION('',(1.734723475977E-18,-0.993480071526,-0.114005909847)
  );
#579 = PCURVE('',#125,#580);
#580 = DEFINITIONAL_REPRESENTATION('',(#581),#585);
#581 = LINE('',#582,#583);
#582 = CARTESIAN_POINT('',(0.,61.692787260749));
#583 = VECTOR('',#584,1.);
#584 = DIRECTION('',(1.,0.));
#585 = ( GEOMETRIC_REPRESENTATION_CONTEXT(2) 
PARAMETRIC_REPRESENTATION_CONTEXT() REPRESENTATION_CONTEXT('2D SPACE',''
  ) );
#586 = PCURVE('',#587,#592);
#587 = SPHERICAL_SURFACE('',#588,2.);
#588 = AXIS2_PLACEMENT_3D('',#589,#590,#591);
#589 = CARTESIAN_POINT('',(44.,7.,1.564E+03));
#590 = DIRECTION('',(0.,0.,1.));
#591 = DIRECTION('',(1.,0.,-0.));
#592 = DEFINITIONAL_REPRESENTATION('',(#593),#608);
#593 = B_SPLINE_CURVE_WITH_KNOTS('',7,(#594,#595,#596,#597,#598,#599,
    #600,#601,#602,#603,#604,#605,#606,#607),.UNSPECIFIED.,.F.,.F.,(8,6,
    8),(2.273847381194,3.487538144322,4.701228907451),.UNSPECIFIED.);
#594 = CARTESIAN_POINT('',(2.432966381462,0.));
#595 = CARTESIAN_POINT('',(2.261529029572,2.591105389164E-02));
#596 = CARTESIAN_POINT('',(2.090091577828,5.182223283285E-02));
#597 = CARTESIAN_POINT('',(1.918278784938,7.64886662784E-02));
#598 = CARTESIAN_POINT('',(1.745712094948,9.867040052509E-02));
#599 = CARTESIAN_POINT('',(1.572192977878,0.11723546298));
#600 = CARTESIAN_POINT('',(1.397855483331,0.131328741248));
#601 = CARTESIAN_POINT('',(1.048124599274,0.149624097864));
#602 = CARTESIAN_POINT('',(0.872731579359,0.153825899571));
#603 = CARTESIAN_POINT('',(0.697101098993,0.152608345391));
#604 = CARTESIAN_POINT('',(0.521693904982,0.145867999236));
#605 = CARTESIAN_POINT('',(0.346973795569,0.133986094935));
#606 = CARTESIAN_POINT('',(0.17309597717,0.117718416035));
#607 = CARTESIAN_POINT('',(-1.7763568394E-14,9.804527729386E-02));
#608 = ( GEOMETRIC_REPRESENTATION_CONTEXT(2) 
PARAMETRIC_REPRESENTATION_CONTEXT() REPRESENTATION_CONTEXT('2D SPACE',''
  ) );
#609 = ORIENTED_EDGE('',*,*,#610,.F.);
#610 = EDGE_CURVE('',#611,#571,#613,.T.);
#611 = VERTEX_POINT('',#612);
#612 = CARTESIAN_POINT('',(42.136606257106,7.719457043588,
    1.563899276014E+03));
#613 = SURFACE_CURVE('',#614,(#619,#626),.PCURVE_S1.);
#614 = CIRCLE('',#615,2.);
#615 = AXIS2_PLACEMENT_3D('',#616,#617,#618);
#616 = CARTESIAN_POINT('',(44.,7.,1.564E+03));
#617 = DIRECTION('',(9.725610182987E-02,0.113465452135,-0.988770368604)
  );
#618 = DIRECTION('',(1.734723475977E-18,-0.993480071526,-0.114005909847)
  );
#619 = PCURVE('',#125,#620);
#620 = DEFINITIONAL_REPRESENTATION('',(#621),#625);
#621 = LINE('',#622,#623);
#622 = CARTESIAN_POINT('',(0.,61.692787260749));
#623 = VECTOR('',#624,1.);
#624 = DIRECTION('',(1.,0.));
#625 = ( GEOMETRIC_REPRESENTATION_CONTEXT(2) 
PARAMETRIC_REPRESENTATION_CONTEXT() REPRESENTATION_CONTEXT('2D SPACE',''
  ) );
#626 = PCURVE('',#627,#632);
#627 = PLANE('',#628);
#628 = AXIS2_PLACEMENT_3D('',#629,#630,#631);
#629 = CARTESIAN_POINT('',(44.,7.,1.564E+03));
#630 = DIRECTION('',(9.725610182987E-02,0.113465452135,-0.988770368604)
  );
#631 = DIRECTION('',(0.,-0.993480071526,-0.114005909847));
#632 = DEFINITIONAL_REPRESENTATION('',(#633),#637);
#633 = CIRCLE('',#634,2.);
#634 = AXIS2_PLACEMENT_2D('',#635,#636);
#635 = CARTESIAN_POINT('',(0.,0.));
#636 = DIRECTION('',(1.,0.));
#637 = ( GEOMETRIC_REPRESENTATION_CONTEXT(2) 
PARAMETRIC_REPRESENTATION_CONTEXT() REPRESENTATION_CONTEXT('2D SPACE',''
  ) );
#638 = ORIENTED_EDGE('',*,*,#639,.F.);
#639 = EDGE_CURVE('',#640,#611,#642,.T.);
#640 = VERTEX_POINT('',#641);
#641 = CARTESIAN_POINT('',(40.676373734287,3.103654035003,
    1.584501757594E+03));
#642 = SURFACE_CURVE('',#643,(#648,#661),.PCURVE_S1.);
#643 = ELLIPSE('',#644,22.385042170463,2.);
#644 = AXIS2_PLACEMENT_3D('',#645,#646,#647);
#645 = CARTESIAN_POINT('',(44.,7.,1.564E+03));
#646 = DIRECTION('',(-0.339885522252,-0.912290780308,-0.228480554816));
#647 = DIRECTION('',(0.128135754181,0.195757305799,-0.972244982361));
#648 = PCURVE('',#125,#649);
#649 = DEFINITIONAL_REPRESENTATION('',(#650),#660);
#650 = B_SPLINE_CURVE_WITH_KNOTS('',8,(#651,#652,#653,#654,#655,#656,
    #657,#658,#659),.UNSPECIFIED.,.F.,.F.,(9,9),(3.479208021295,
    4.71238899384),.PIECEWISE_BEZIER_KNOTS.);
#651 = CARTESIAN_POINT('',(0.69693943836,40.655913256084));
#652 = CARTESIAN_POINT('',(0.851087059928,41.794312436589));
#653 = CARTESIAN_POINT('',(1.005234681494,43.503988835255));
#654 = CARTESIAN_POINT('',(1.159382303065,45.743722177955));
#655 = CARTESIAN_POINT('',(1.313529924626,48.443339435384));
#656 = CARTESIAN_POINT('',(1.4676775462,51.50682488142));
#657 = CARTESIAN_POINT('',(1.621825167768,54.819185344568));
#658 = CARTESIAN_POINT('',(1.775972789337,58.255986523694));
#659 = CARTESIAN_POINT('',(1.930120410905,61.692787560749));
#660 = ( GEOMETRIC_REPRESENTATION_CONTEXT(2) 
PARAMETRIC_REPRESENTATION_CONTEXT() REPRESENTATION_CONTEXT('2D SPACE',''
  ) );
#661 = PCURVE('',#520,#662);
#662 = DEFINITIONAL_REPRESENTATION('',(#663),#673);
#663 = B_SPLINE_CURVE_WITH_KNOTS('',8,(#664,#665,#666,#667,#668,#669,
    #670,#671,#672),.UNSPECIFIED.,.F.,.F.,(9,9),(3.479208021295,
    4.71238899384),.PIECEWISE_BEZIER_KNOTS.);
#664 = CARTESIAN_POINT('',(2.273736754432E-13,21.036874004665));
#665 = CARTESIAN_POINT('',(0.154147621568,19.898474824159));
#666 = CARTESIAN_POINT('',(0.308295243137,18.188798425506));
#667 = CARTESIAN_POINT('',(0.462442864703,15.949065082561));
#668 = CARTESIAN_POINT('',(0.616590486274,13.249447825801));
#669 = CARTESIAN_POINT('',(0.770738107838,10.185962378993));
#670 = CARTESIAN_POINT('',(0.92488572941,6.873601916208));
#671 = CARTESIAN_POINT('',(1.079033350977,3.436800737054));
#672 = CARTESIAN_POINT('',(1.233180972545,-3.000004653586E-07));
#673 = ( GEOMETRIC_REPRESENTATION_CONTEXT(2) 
PARAMETRIC_REPRESENTATION_CONTEXT() REPRESENTATION_CONTEXT('2D SPACE',''
  ) );
#674 = ORIENTED_EDGE('',*,*,#675,.F.);
#675 = EDGE_CURVE('',#475,#640,#676,.T.);
#676 = SURFACE_CURVE('',#677,(#682,#693),.PCURVE_S1.);
#677 = ELLIPSE('',#678,22.385042170463,2.);
#678 = AXIS2_PLACEMENT_3D('',#679,#680,#681);
#679 = CARTESIAN_POINT('',(44.,7.,1.564E+03));
#680 = DIRECTION('',(-0.339885522252,-0.912290780308,-0.228480554816));
#681 = DIRECTION('',(0.128135754181,0.195757305799,-0.972244982361));
#682 = PCURVE('',#125,#683);
#683 = DEFINITIONAL_REPRESENTATION('',(#684),#692);
#684 = B_SPLINE_CURVE_WITH_KNOTS('',6,(#685,#686,#687,#688,#689,#690,
    #691),.UNSPECIFIED.,.F.,.F.,(7,7),(2.782268582937,3.479208021295),
  .PIECEWISE_BEZIER_KNOTS.);
#685 = CARTESIAN_POINT('',(2.259525899717E-12,40.82117891619));
#686 = CARTESIAN_POINT('',(0.116156573062,39.910507841783));
#687 = CARTESIAN_POINT('',(0.232313146122,39.337765294464));
#688 = CARTESIAN_POINT('',(0.348469719181,39.125067216255));
#689 = CARTESIAN_POINT('',(0.464626292241,39.280856313952));
#690 = CARTESIAN_POINT('',(0.580782865301,39.798082650355));
#691 = CARTESIAN_POINT('',(0.69693943836,40.655913256084));
#692 = ( GEOMETRIC_REPRESENTATION_CONTEXT(2) 
PARAMETRIC_REPRESENTATION_CONTEXT() REPRESENTATION_CONTEXT('2D SPACE',''
  ) );
#693 = PCURVE('',#520,#694);
#694 = DEFINITIONAL_REPRESENTATION('',(#695),#703);
#695 = B_SPLINE_CURVE_WITH_KNOTS('',6,(#696,#697,#698,#699,#700,#701,
    #702),.UNSPECIFIED.,.F.,.F.,(7,7),(2.782268582937,3.479208021295),
  .PIECEWISE_BEZIER_KNOTS.);
#696 = CARTESIAN_POINT('',(5.586245868822,20.871608344559));
#697 = CARTESIAN_POINT('',(5.702402441881,21.782279418965));
#698 = CARTESIAN_POINT('',(5.818559014941,22.355021966284));
#699 = CARTESIAN_POINT('',(5.934715588001,22.567720044494));
#700 = CARTESIAN_POINT('',(6.05087216106,22.411930946796));
#701 = CARTESIAN_POINT('',(6.16702873412,21.894704610394));
#702 = CARTESIAN_POINT('',(6.28318530718,21.036874004665));
#703 = ( GEOMETRIC_REPRESENTATION_CONTEXT(2) 
PARAMETRIC_REPRESENTATION_CONTEXT() REPRESENTATION_CONTEXT('2D SPACE',''
  ) );
#704 = ORIENTED_EDGE('',*,*,#474,.F.);
#705 = ORIENTED_EDGE('',*,*,#194,.T.);
#706 = ORIENTED_EDGE('',*,*,#102,.T.);
#707 = ORIENTED_EDGE('',*,*,#315,.T.);
#708 = ADVANCED_FACE('',(#709),#181,.F.);
#709 = FACE_BOUND('',#710,.T.);
#710 = EDGE_LOOP('',(#711));
#711 = ORIENTED_EDGE('',*,*,#166,.F.);
#712 = ADVANCED_FACE('',(#713),#361,.F.);
#713 = FACE_BOUND('',#714,.F.);
#714 = EDGE_LOOP('',(#715,#716,#717));
#715 = ORIENTED_EDGE('',*,*,#428,.T.);
#716 = ORIENTED_EDGE('',*,*,#344,.T.);
#717 = ORIENTED_EDGE('',*,*,#718,.F.);
#718 = EDGE_CURVE('',#403,#345,#719,.T.);
#719 = SURFACE_CURVE('',#720,(#724,#730),.PCURVE_S1.);
#720 = LINE('',#721,#722);
#721 = CARTESIAN_POINT('',(38.,0.,1.625E+03));
#722 = VECTOR('',#723,1.);
#723 = DIRECTION('',(0.759256602365,-0.650791373456,0.));
#724 = PCURVE('',#361,#725);
#725 = DEFINITIONAL_REPRESENTATION('',(#726),#729);
#726 = B_SPLINE_CURVE_WITH_KNOTS('',1,(#727,#728),.UNSPECIFIED.,.F.,.F.,
  (2,2),(-0.388854964005,2.621668051433),.PIECEWISE_BEZIER_KNOTS.);
#727 = CARTESIAN_POINT('',(-0.295240698783,0.2530634561));
#728 = CARTESIAN_POINT('',(1.990518777261,-1.706158951938));
#729 = ( GEOMETRIC_REPRESENTATION_CONTEXT(2) 
PARAMETRIC_REPRESENTATION_CONTEXT() REPRESENTATION_CONTEXT('2D SPACE',''
  ) );
#730 = PCURVE('',#417,#731);
#731 = DEFINITIONAL_REPRESENTATION('',(#732),#735);
#732 = B_SPLINE_CURVE_WITH_KNOTS('',1,(#733,#734),.UNSPECIFIED.,.F.,.F.,
  (2,2),(-0.388854964005,2.621668051433),.PIECEWISE_BEZIER_KNOTS.);
#733 = CARTESIAN_POINT('',(-0.251413500467,0.296646986862));
#734 = CARTESIAN_POINT('',(1.695034917606,-2.));
#735 = ( GEOMETRIC_REPRESENTATION_CONTEXT(2) 
PARAMETRIC_REPRESENTATION_CONTEXT() REPRESENTATION_CONTEXT('2D SPACE',''
  ) );
#736 = ADVANCED_FACE('',(#737),#417,.F.);
#737 = FACE_BOUND('',#738,.F.);
#738 = EDGE_LOOP('',(#739,#740,#741));
#739 = ORIENTED_EDGE('',*,*,#451,.T.);
#740 = ORIENTED_EDGE('',*,*,#402,.T.);
#741 = ORIENTED_EDGE('',*,*,#718,.T.);
#742 = ADVANCED_FACE('',(#743),#520,.T.);
#743 = FACE_BOUND('',#744,.T.);
#744 = EDGE_LOOP('',(#745,#746,#769,#796,#797,#798,#827,#852));
#745 = ORIENTED_EDGE('',*,*,#675,.T.);
#746 = ORIENTED_EDGE('',*,*,#747,.T.);
#747 = EDGE_CURVE('',#640,#748,#750,.T.);
#748 = VERTEX_POINT('',#749);
#749 = CARTESIAN_POINT('',(40.,1.92,1.58856E+03));
#750 = SEAM_CURVE('',#751,(#755,#762),.PCURVE_S1.);
#751 = LINE('',#752,#753);
#752 = CARTESIAN_POINT('',(44.,8.92,1.56456E+03));
#753 = VECTOR('',#754,1.);
#754 = DIRECTION('',(-0.157990501107,-0.276483376937,0.94794300664));
#755 = PCURVE('',#520,#756);
#756 = DEFINITIONAL_REPRESENTATION('',(#757),#761);
#757 = LINE('',#758,#759);
#758 = CARTESIAN_POINT('',(0.,-0.));
#759 = VECTOR('',#760,1.);
#760 = DIRECTION('',(0.,1.));
#761 = ( GEOMETRIC_REPRESENTATION_CONTEXT(2) 
PARAMETRIC_REPRESENTATION_CONTEXT() REPRESENTATION_CONTEXT('2D SPACE',''
  ) );
#762 = PCURVE('',#520,#763);
#763 = DEFINITIONAL_REPRESENTATION('',(#764),#768);
#764 = LINE('',#765,#766);
#765 = CARTESIAN_POINT('',(6.28318530718,-0.));
#766 = VECTOR('',#767,1.);
#767 = DIRECTION('',(0.,1.));
#768 = ( GEOMETRIC_REPRESENTATION_CONTEXT(2) 
PARAMETRIC_REPRESENTATION_CONTEXT() REPRESENTATION_CONTEXT('2D SPACE',''
  ) );
#769 = ORIENTED_EDGE('',*,*,#770,.F.);
#770 = EDGE_CURVE('',#748,#748,#771,.T.);
#771 = SURFACE_CURVE('',#772,(#777,#784),.PCURVE_S1.);
#772 = CIRCLE('',#773,2.);
#773 = AXIS2_PLACEMENT_3D('',#774,#775,#776);
#774 = CARTESIAN_POINT('',(40.,-8.881784197001E-16,1.588E+03));
#775 = DIRECTION('',(-0.157990501107,-0.276483376937,0.94794300664));
#776 = DIRECTION('',(-6.938893903907E-18,0.96,0.28));
#777 = PCURVE('',#520,#778);
#778 = DEFINITIONAL_REPRESENTATION('',(#779),#783);
#779 = LINE('',#780,#781);
#780 = CARTESIAN_POINT('',(0.,25.317977802344));
#781 = VECTOR('',#782,1.);
#782 = DIRECTION('',(1.,0.));
#783 = ( GEOMETRIC_REPRESENTATION_CONTEXT(2) 
PARAMETRIC_REPRESENTATION_CONTEXT() REPRESENTATION_CONTEXT('2D SPACE',''
  ) );
#784 = PCURVE('',#785,#790);
#785 = PLANE('',#786);
#786 = AXIS2_PLACEMENT_3D('',#787,#788,#789);
#787 = CARTESIAN_POINT('',(40.,-8.881784197001E-16,1.588E+03));
#788 = DIRECTION('',(-0.157990501107,-0.276483376937,0.94794300664));
#789 = DIRECTION('',(0.,0.96,0.28));
#790 = DEFINITIONAL_REPRESENTATION('',(#791),#795);
#791 = CIRCLE('',#792,2.);
#792 = AXIS2_PLACEMENT_2D('',#793,#794);
#793 = CARTESIAN_POINT('',(0.,0.));
#794 = DIRECTION('',(1.,0.));
#795 = ( GEOMETRIC_REPRESENTATION_CONTEXT(2) 
PARAMETRIC_REPRESENTATION_CONTEXT() REPRESENTATION_CONTEXT('2D SPACE',''
  ) );
#796 = ORIENTED_EDGE('',*,*,#747,.F.);
#797 = ORIENTED_EDGE('',*,*,#639,.T.);
#798 = ORIENTED_EDGE('',*,*,#799,.T.);
#799 = EDGE_CURVE('',#611,#800,#802,.T.);
#800 = VERTEX_POINT('',#801);
#801 = CARTESIAN_POINT('',(45.736486284249,6.007722123286,1.564E+03));
#802 = SURFACE_CURVE('',#803,(#808,#815),.PCURVE_S1.);
#803 = CIRCLE('',#804,2.);
#804 = AXIS2_PLACEMENT_3D('',#805,#806,#807);
#805 = CARTESIAN_POINT('',(44.,7.,1.564E+03));
#806 = DIRECTION('',(-0.157990501107,-0.276483376937,0.94794300664));
#807 = DIRECTION('',(-6.938893903907E-18,0.96,0.28));
#808 = PCURVE('',#520,#809);
#809 = DEFINITIONAL_REPRESENTATION('',(#810),#814);
#810 = LINE('',#811,#812);
#811 = CARTESIAN_POINT('',(0.,0.));
#812 = VECTOR('',#813,1.);
#813 = DIRECTION('',(1.,0.));
#814 = ( GEOMETRIC_REPRESENTATION_CONTEXT(2) 
PARAMETRIC_REPRESENTATION_CONTEXT() REPRESENTATION_CONTEXT('2D SPACE',''
  ) );
#815 = PCURVE('',#816,#821);
#816 = PLANE('',#817);
#817 = AXIS2_PLACEMENT_3D('',#818,#819,#820);
#818 = CARTESIAN_POINT('',(44.,7.,1.564E+03));
#819 = DIRECTION('',(-0.157990501107,-0.276483376937,0.94794300664));
#820 = DIRECTION('',(0.,0.96,0.28));
#821 = DEFINITIONAL_REPRESENTATION('',(#822),#826);
#822 = CIRCLE('',#823,2.);
#823 = AXIS2_PLACEMENT_2D('',#824,#825);
#824 = CARTESIAN_POINT('',(0.,0.));
#825 = DIRECTION('',(1.,0.));
#826 = ( GEOMETRIC_REPRESENTATION_CONTEXT(2) 
PARAMETRIC_REPRESENTATION_CONTEXT() REPRESENTATION_CONTEXT('2D SPACE',''
  ) );
#827 = ORIENTED_EDGE('',*,*,#828,.T.);
#828 = EDGE_CURVE('',#800,#498,#829,.T.);
#829 = SURFACE_CURVE('',#830,(#835,#842),.PCURVE_S1.);
#830 = CIRCLE('',#831,2.);
#831 = AXIS2_PLACEMENT_3D('',#832,#833,#834);
#832 = CARTESIAN_POINT('',(44.,7.,1.564E+03));
#833 = DIRECTION('',(-0.157990501107,-0.276483376937,0.94794300664));
#834 = DIRECTION('',(-6.938893903907E-18,0.96,0.28));
#835 = PCURVE('',#520,#836);
#836 = DEFINITIONAL_REPRESENTATION('',(#837),#841);
#837 = LINE('',#838,#839);
#838 = CARTESIAN_POINT('',(0.,0.));
#839 = VECTOR('',#840,1.);
#840 = DIRECTION('',(1.,0.));
#841 = ( GEOMETRIC_REPRESENTATION_CONTEXT(2) 
PARAMETRIC_REPRESENTATION_CONTEXT() REPRESENTATION_CONTEXT('2D SPACE',''
  ) );
#842 = PCURVE('',#555,#843);
#843 = DEFINITIONAL_REPRESENTATION('',(#844),#851);
#844 = B_SPLINE_CURVE_WITH_KNOTS('',5,(#845,#846,#847,#848,#849,#850),
  .UNSPECIFIED.,.F.,.F.,(6,6),(4.215954589987,4.37477361268),
  .PIECEWISE_BEZIER_KNOTS.);
#845 = CARTESIAN_POINT('',(5.764039192933,0.));
#846 = CARTESIAN_POINT('',(5.79414946931,1.011486704252E-02));
#847 = CARTESIAN_POINT('',(5.824259745716,2.022973402787E-02));
#848 = CARTESIAN_POINT('',(5.854382857796,3.032549624724E-02));
#849 = CARTESIAN_POINT('',(5.884531641924,4.038304759083E-02));
#850 = CARTESIAN_POINT('',(5.914718482099,5.038330649487E-02));
#851 = ( GEOMETRIC_REPRESENTATION_CONTEXT(2) 
PARAMETRIC_REPRESENTATION_CONTEXT() REPRESENTATION_CONTEXT('2D SPACE',''
  ) );
#852 = ORIENTED_EDGE('',*,*,#497,.T.);
#853 = ADVANCED_FACE('',(#854),#627,.T.);
#854 = FACE_BOUND('',#855,.T.);
#855 = EDGE_LOOP('',(#856,#882,#901));
#856 = ORIENTED_EDGE('',*,*,#857,.T.);
#857 = EDGE_CURVE('',#571,#858,#860,.T.);
#858 = VERTEX_POINT('',#859);
#859 = CARTESIAN_POINT('',(44.,7.,1.564E+03));
#860 = SURFACE_CURVE('',#861,(#865,#871),.PCURVE_S1.);
#861 = LINE('',#862,#863);
#862 = CARTESIAN_POINT('',(44.,7.,1.564E+03));
#863 = VECTOR('',#864,1.);
#864 = DIRECTION('',(0.759256602365,-0.650791373456,0.));
#865 = PCURVE('',#627,#866);
#866 = DEFINITIONAL_REPRESENTATION('',(#867),#870);
#867 = B_SPLINE_CURVE_WITH_KNOTS('',1,(#868,#869),.UNSPECIFIED.,.F.,.F.,
  (2,2),(-2.454234493436,1.087750364023),.PIECEWISE_BEZIER_KNOTS.);
#868 = CARTESIAN_POINT('',(-1.586781041976,1.87226944471));
#869 = CARTESIAN_POINT('',(0.703283105445,-0.829815478301));
#870 = ( GEOMETRIC_REPRESENTATION_CONTEXT(2) 
PARAMETRIC_REPRESENTATION_CONTEXT() REPRESENTATION_CONTEXT('2D SPACE',''
  ) );
#871 = PCURVE('',#872,#877);
#872 = PLANE('',#873);
#873 = AXIS2_PLACEMENT_3D('',#874,#875,#876);
#874 = CARTESIAN_POINT('',(44.,7.,1.564E+03));
#875 = DIRECTION('',(0.,0.,1.));
#876 = DIRECTION('',(1.,0.,-0.));
#877 = DEFINITIONAL_REPRESENTATION('',(#878),#881);
#878 = B_SPLINE_CURVE_WITH_KNOTS('',1,(#879,#880),.UNSPECIFIED.,.F.,.F.,
  (2,2),(-2.454234493436,1.087750364023),.PIECEWISE_BEZIER_KNOTS.);
#879 = CARTESIAN_POINT('',(-1.863393742894,1.597194636766));
#880 = CARTESIAN_POINT('',(0.82588164561,-0.70789855338));
#881 = ( GEOMETRIC_REPRESENTATION_CONTEXT(2) 
PARAMETRIC_REPRESENTATION_CONTEXT() REPRESENTATION_CONTEXT('2D SPACE',''
  ) );
#882 = ORIENTED_EDGE('',*,*,#883,.T.);
#883 = EDGE_CURVE('',#858,#611,#884,.T.);
#884 = SURFACE_CURVE('',#885,(#889,#895),.PCURVE_S1.);
#885 = LINE('',#886,#887);
#886 = CARTESIAN_POINT('',(44.,7.,1.564E+03));
#887 = VECTOR('',#888,1.);
#888 = DIRECTION('',(-0.931696871447,0.359728521794,-5.036199305118E-02)
  );
#889 = PCURVE('',#627,#890);
#890 = DEFINITIONAL_REPRESENTATION('',(#891),#894);
#891 = B_SPLINE_CURVE_WITH_KNOTS('',1,(#892,#893),.UNSPECIFIED.,.F.,.F.,
  (2,2),(-2.119660722663,2.119660722663),.PIECEWISE_BEZIER_KNOTS.);
#892 = CARTESIAN_POINT('',(0.745360787762,-1.984288002097));
#893 = CARTESIAN_POINT('',(-0.745360787762,1.984288002097));
#894 = ( GEOMETRIC_REPRESENTATION_CONTEXT(2) 
PARAMETRIC_REPRESENTATION_CONTEXT() REPRESENTATION_CONTEXT('2D SPACE',''
  ) );
#895 = PCURVE('',#816,#896);
#896 = DEFINITIONAL_REPRESENTATION('',(#897),#900);
#897 = B_SPLINE_CURVE_WITH_KNOTS('',1,(#898,#899),.UNSPECIFIED.,.F.,.F.,
  (2,2),(-2.119660722663,2.119660722663),.PIECEWISE_BEZIER_KNOTS.);
#898 = CARTESIAN_POINT('',(-0.702112226926,-2.));
#899 = CARTESIAN_POINT('',(0.702112226926,2.));
#900 = ( GEOMETRIC_REPRESENTATION_CONTEXT(2) 
PARAMETRIC_REPRESENTATION_CONTEXT() REPRESENTATION_CONTEXT('2D SPACE',''
  ) );
#901 = ORIENTED_EDGE('',*,*,#610,.T.);
#902 = ADVANCED_FACE('',(#903),#587,.T.);
#903 = FACE_BOUND('',#904,.T.);
#904 = EDGE_LOOP('',(#905,#906,#930));
#905 = ORIENTED_EDGE('',*,*,#570,.T.);
#906 = ORIENTED_EDGE('',*,*,#907,.F.);
#907 = EDGE_CURVE('',#908,#539,#910,.T.);
#908 = VERTEX_POINT('',#909);
#909 = CARTESIAN_POINT('',(46.,7.,1.564E+03));
#910 = SURFACE_CURVE('',#911,(#916,#923),.PCURVE_S1.);
#911 = CIRCLE('',#912,2.);
#912 = AXIS2_PLACEMENT_3D('',#913,#914,#915);
#913 = CARTESIAN_POINT('',(44.,7.,1.564E+03));
#914 = DIRECTION('',(-2.449293598295E-16,-1.,0.));
#915 = DIRECTION('',(1.,-2.449293598295E-16,0.));
#916 = PCURVE('',#587,#917);
#917 = DEFINITIONAL_REPRESENTATION('',(#918),#922);
#918 = LINE('',#919,#920);
#919 = CARTESIAN_POINT('',(0.,-6.28318530718));
#920 = VECTOR('',#921,1.);
#921 = DIRECTION('',(0.,1.));
#922 = ( GEOMETRIC_REPRESENTATION_CONTEXT(2) 
PARAMETRIC_REPRESENTATION_CONTEXT() REPRESENTATION_CONTEXT('2D SPACE',''
  ) );
#923 = PCURVE('',#555,#924);
#924 = DEFINITIONAL_REPRESENTATION('',(#925),#929);
#925 = LINE('',#926,#927);
#926 = CARTESIAN_POINT('',(6.28318530718,-6.28318530718));
#927 = VECTOR('',#928,1.);
#928 = DIRECTION('',(0.,1.));
#929 = ( GEOMETRIC_REPRESENTATION_CONTEXT(2) 
PARAMETRIC_REPRESENTATION_CONTEXT() REPRESENTATION_CONTEXT('2D SPACE',''
  ) );
#930 = ORIENTED_EDGE('',*,*,#931,.T.);
#931 = EDGE_CURVE('',#908,#571,#932,.T.);
#932 = SURFACE_CURVE('',#933,(#938,#945),.PCURVE_S1.);
#933 = CIRCLE('',#934,2.);
#934 = AXIS2_PLACEMENT_3D('',#935,#936,#937);
#935 = CARTESIAN_POINT('',(44.,7.,1.564E+03));
#936 = DIRECTION('',(0.,0.,1.));
#937 = DIRECTION('',(1.,0.,-0.));
#938 = PCURVE('',#587,#939);
#939 = DEFINITIONAL_REPRESENTATION('',(#940),#944);
#940 = LINE('',#941,#942);
#941 = CARTESIAN_POINT('',(0.,0.));
#942 = VECTOR('',#943,1.);
#943 = DIRECTION('',(1.,0.));
#944 = ( GEOMETRIC_REPRESENTATION_CONTEXT(2) 
PARAMETRIC_REPRESENTATION_CONTEXT() REPRESENTATION_CONTEXT('2D SPACE',''
  ) );
#945 = PCURVE('',#872,#946);
#946 = DEFINITIONAL_REPRESENTATION('',(#947),#951);
#947 = CIRCLE('',#948,2.);
#948 = AXIS2_PLACEMENT_2D('',#949,#950);
#949 = CARTESIAN_POINT('',(0.,0.));
#950 = DIRECTION('',(1.,0.));
#951 = ( GEOMETRIC_REPRESENTATION_CONTEXT(2) 
PARAMETRIC_REPRESENTATION_CONTEXT() REPRESENTATION_CONTEXT('2D SPACE',''
  ) );
#952 = ADVANCED_FACE('',(#953),#555,.T.);
#953 = FACE_BOUND('',#954,.T.);
#954 = EDGE_LOOP('',(#955,#956,#957,#958));
#955 = ORIENTED_EDGE('',*,*,#907,.T.);
#956 = ORIENTED_EDGE('',*,*,#538,.T.);
#957 = ORIENTED_EDGE('',*,*,#828,.F.);
#958 = ORIENTED_EDGE('',*,*,#959,.T.);
#959 = EDGE_CURVE('',#800,#908,#960,.T.);
#960 = SURFACE_CURVE('',#961,(#966,#973),.PCURVE_S1.);
#961 = CIRCLE('',#962,2.);
#962 = AXIS2_PLACEMENT_3D('',#963,#964,#965);
#963 = CARTESIAN_POINT('',(44.,7.,1.564E+03));
#964 = DIRECTION('',(0.,0.,1.));
#965 = DIRECTION('',(1.,0.,-0.));
#966 = PCURVE('',#555,#967);
#967 = DEFINITIONAL_REPRESENTATION('',(#968),#972);
#968 = LINE('',#969,#970);
#969 = CARTESIAN_POINT('',(0.,0.));
#970 = VECTOR('',#971,1.);
#971 = DIRECTION('',(1.,0.));
#972 = ( GEOMETRIC_REPRESENTATION_CONTEXT(2) 
PARAMETRIC_REPRESENTATION_CONTEXT() REPRESENTATION_CONTEXT('2D SPACE',''
  ) );
#973 = PCURVE('',#872,#974);
#974 = DEFINITIONAL_REPRESENTATION('',(#975),#979);
#975 = CIRCLE('',#976,2.);
#976 = AXIS2_PLACEMENT_2D('',#977,#978);
#977 = CARTESIAN_POINT('',(0.,0.));
#978 = DIRECTION('',(1.,0.));
#979 = ( GEOMETRIC_REPRESENTATION_CONTEXT(2) 
PARAMETRIC_REPRESENTATION_CONTEXT() REPRESENTATION_CONTEXT('2D SPACE',''
  ) );
#980 = ADVANCED_FACE('',(#981),#816,.F.);
#981 = FACE_BOUND('',#982,.F.);
#982 = EDGE_LOOP('',(#983,#1002,#1003));
#983 = ORIENTED_EDGE('',*,*,#984,.T.);
#984 = EDGE_CURVE('',#800,#858,#985,.T.);
#985 = SURFACE_CURVE('',#986,(#990,#996),.PCURVE_S1.);
#986 = LINE('',#987,#988);
#987 = CARTESIAN_POINT('',(44.,7.,1.564E+03));
#988 = VECTOR('',#989,1.);
#989 = DIRECTION('',(-0.868243142124,0.496138938357,0.));
#990 = PCURVE('',#816,#991);
#991 = DEFINITIONAL_REPRESENTATION('',(#992),#995);
#992 = B_SPLINE_CURVE_WITH_KNOTS('',1,(#993,#994),.UNSPECIFIED.,.F.,.F.,
  (2,2),(-2.146165805968,1.390899123124),.PIECEWISE_BEZIER_KNOTS.);
#993 = CARTESIAN_POINT('',(-1.02220456753,-1.887094456785));
#994 = CARTESIAN_POINT('',(0.662476045736,1.22299871608));
#995 = ( GEOMETRIC_REPRESENTATION_CONTEXT(2) 
PARAMETRIC_REPRESENTATION_CONTEXT() REPRESENTATION_CONTEXT('2D SPACE',''
  ) );
#996 = PCURVE('',#872,#997);
#997 = DEFINITIONAL_REPRESENTATION('',(#998),#1001);
#998 = B_SPLINE_CURVE_WITH_KNOTS('',1,(#999,#1000),.UNSPECIFIED.,.F.,.F.
  ,(2,2),(-2.146165805968,1.390899123124),.PIECEWISE_BEZIER_KNOTS.);
#999 = CARTESIAN_POINT('',(1.863393742894,-1.064796424511));
#1000 = CARTESIAN_POINT('',(-1.20763862504,0.690079214308));
#1001 = ( GEOMETRIC_REPRESENTATION_CONTEXT(2) 
PARAMETRIC_REPRESENTATION_CONTEXT() REPRESENTATION_CONTEXT('2D SPACE',''
  ) );
#1002 = ORIENTED_EDGE('',*,*,#883,.T.);
#1003 = ORIENTED_EDGE('',*,*,#799,.T.);
#1004 = ADVANCED_FACE('',(#1005),#785,.T.);
#1005 = FACE_BOUND('',#1006,.T.);
#1006 = EDGE_LOOP('',(#1007));
#1007 = ORIENTED_EDGE('',*,*,#770,.T.);
#1008 = ADVANCED_FACE('',(#1009),#872,.F.);
#1009 = FACE_BOUND('',#1010,.F.);
#1010 = EDGE_LOOP('',(#1011,#1012,#1013,#1014));
#1011 = ORIENTED_EDGE('',*,*,#959,.T.);
#1012 = ORIENTED_EDGE('',*,*,#931,.T.);
#1013 = ORIENTED_EDGE('',*,*,#857,.T.);
#1014 = ORIENTED_EDGE('',*,*,#984,.F.);
#1015 = ( GEOMETRIC_REPRESENTATION_CONTEXT(3) 
GLOBAL_UNCERTAINTY_ASSIGNED_CONTEXT((#1019)) 
GLOBAL_UNIT_ASSIGNED_CONTEXT((#1016,#1017,#1018)) REPRESENTATION_CONTEXT
('Context #1','3D Context with UNIT and UNCERTAINTY') );
#1016 = ( LENGTH_UNIT() NAMED_UNIT(*) SI_UNIT(.MILLI.,.METRE.) );
#1017 = ( NAMED_UNIT(*) PLANE_ANGLE_UNIT() SI_UNIT($,.RADIAN.) );
#1018 = ( NAMED_UNIT(*) SI_UNIT($,.STERADIAN.) SOLID_ANGLE_UNIT() );
#1019 = UNCERTAINTY_MEASURE_WITH_UNIT(LENGTH_MEASURE(2.E-07),#1016,
  'distance_accuracy_value','confusion accuracy');
#1020 = CONTEXT_DEPENDENT_SHAPE_REPRESENTATION(#1021,#1023);
#1021 = ( REPRESENTATION_RELATIONSHIP('','',#32,#10) 
REPRESENTATION_RELATIONSHIP_WITH_TRANSFORMATION(#1022) 
SHAPE_REPRESENTATION_RELATIONSHIP() );
#1022 = ITEM_DEFINED_TRANSFORMATION('','',#11,#15);
#1023 = PRODUCT_DEFINITION_SHAPE('Placement','Placement of an item',
  #1024);
#1024 = NEXT_ASSEMBLY_USAGE_OCCURRENCE('1',
'STRUCTURAL_RECOVERY_TETHER_WITH_TWO_BURIED_EYE_SPLICES_HMPE_STOWED_
LOCAL_DEFINITION','',#5,#27,$);
#1025 = PRODUCT_RELATED_PRODUCT_CATEGORY('part',$,(#29));
#1026 = MECHANICAL_DESIGN_GEOMETRIC_PRESENTATION_REPRESENTATION('',(
    #1027),#1015);
#1027 = STYLED_ITEM('color',(#1028),#33);
#1028 = PRESENTATION_STYLE_ASSIGNMENT((#1029));
#1029 = SURFACE_STYLE_USAGE(.BOTH.,#1030);
#1030 = SURFACE_SIDE_STYLE('',(#1031));
#1031 = SURFACE_STYLE_FILL_AREA(#1032);
#1032 = FILL_AREA_STYLE('',(#1033));
#1033 = FILL_AREA_STYLE_COLOUR('',#1034);
#1034 = COLOUR_RGB('',0.1599999992,0.250000000672,0.339999993741);
ENDSEC;
END-ISO-10303-21;
