ISO-10303-21;
HEADER;
FILE_DESCRIPTION(('Open CASCADE Model'),'2;1');
FILE_NAME('Open CASCADE Shape Model','2026-08-26T03:21:59',('Author'),(
    'Open CASCADE'),'Open CASCADE STEP processor 7.9','Open CASCADE 7.9'
  ,'Unknown');
FILE_SCHEMA((
'AP242_MANAGED_MODEL_BASED_3D_ENGINEERING_MIM_LF {1 0 10303 442 1 1 4 }'
    ));
ENDSEC;
DATA;
#1 = APPLICATION_PROTOCOL_DEFINITION('international standard',
  'ap242_managed_model_based_3d_engineering',2013,#2);
#2 = APPLICATION_CONTEXT('Managed model based 3d engineering');
#3 = SHAPE_DEFINITION_REPRESENTATION(#4,#10);
#4 = PRODUCT_DEFINITION_SHAPE('','',#5);
#5 = PRODUCT_DEFINITION('design','',#6,#9);
#6 = PRODUCT_DEFINITION_FORMATION('','',#7);
#7 = PRODUCT(
  'SHORTENED_AFT_GRADE-9_TITANIUM_SHELL_FORWARD_SEGMENT_TI_STOWED_PART',
  'SHORTENED_AFT_GRADE-9_TITANIUM_SHELL_FORWARD_SEGMENT_TI_STOWED_PART',
  '',(#8));
#8 = PRODUCT_CONTEXT('',#2,'mechanical');
#9 = PRODUCT_DEFINITION_CONTEXT('part definition',#2,'design');
#10 = SHAPE_REPRESENTATION('',(#11,#15),#19);
#11 = AXIS2_PLACEMENT_3D('',#12,#13,#14);
#12 = CARTESIAN_POINT('',(0.,0.,0.));
#13 = DIRECTION('',(0.,0.,1.));
#14 = DIRECTION('',(1.,0.,-0.));
#15 = AXIS2_PLACEMENT_3D('',#16,#17,#18);
#16 = CARTESIAN_POINT('',(0.,0.,0.));
#17 = DIRECTION('',(0.,0.,1.));
#18 = DIRECTION('',(1.,0.,-0.));
#19 = ( GEOMETRIC_REPRESENTATION_CONTEXT(3) 
GLOBAL_UNCERTAINTY_ASSIGNED_CONTEXT((#23)) GLOBAL_UNIT_ASSIGNED_CONTEXT(
(#20,#21,#22)) REPRESENTATION_CONTEXT('Context #1',
  '3D Context with UNIT and UNCERTAINTY') );
#20 = ( LENGTH_UNIT() NAMED_UNIT(*) SI_UNIT(.MILLI.,.METRE.) );
#21 = ( NAMED_UNIT(*) PLANE_ANGLE_UNIT() SI_UNIT($,.RADIAN.) );
#22 = ( NAMED_UNIT(*) SI_UNIT($,.STERADIAN.) SOLID_ANGLE_UNIT() );
#23 = UNCERTAINTY_MEASURE_WITH_UNIT(LENGTH_MEASURE(2.E-07),#20,
  'distance_accuracy_value','confusion accuracy');
#24 = PRODUCT_RELATED_PRODUCT_CATEGORY('part',$,(#7));
#25 = SHAPE_DEFINITION_REPRESENTATION(#26,#32);
#26 = PRODUCT_DEFINITION_SHAPE('','',#27);
#27 = PRODUCT_DEFINITION('design','',#28,#31);
#28 = PRODUCT_DEFINITION_FORMATION('','',#29);
#29 = PRODUCT(
'SHORTENED_AFT_GRADE-9_TITANIUM_SHELL_FORWARD_SEGMENT_TI_STOWED_LOCAL_
DEFINITION',
'SHORTENED_AFT_GRADE-9_TITANIUM_SHELL_FORWARD_SEGMENT_TI_STOWED_LOCAL_
DEFINITION','',(#30));
#30 = PRODUCT_CONTEXT('',#2,'mechanical');
#31 = PRODUCT_DEFINITION_CONTEXT('part definition',#2,'design');
#32 = ADVANCED_BREP_SHAPE_REPRESENTATION('',(#11,#33),#771);
#33 = MANIFOLD_SOLID_BREP('',#34);
#34 = CLOSED_SHELL('',(#35,#384,#457,#712,#742));
#35 = ADVANCED_FACE('',(#36),#51,.T.);
#36 = FACE_BOUND('',#37,.T.);
#37 = EDGE_LOOP('',(#38,#74,#207,#230,#257,#258));
#38 = ORIENTED_EDGE('',*,*,#39,.F.);
#39 = EDGE_CURVE('',#40,#42,#44,.T.);
#40 = VERTEX_POINT('',#41);
#41 = CARTESIAN_POINT('',(24.944939366533,8.944271909999,867.6));
#42 = VERTEX_POINT('',#43);
#43 = CARTESIAN_POINT('',(24.944939366533,-8.944271909999,867.6));
#44 = SURFACE_CURVE('',#45,(#50,#62),.PCURVE_S1.);
#45 = CIRCLE('',#46,26.5);
#46 = AXIS2_PLACEMENT_3D('',#47,#48,#49);
#47 = CARTESIAN_POINT('',(0.,0.,867.6));
#48 = DIRECTION('',(0.,0.,1.));
#49 = DIRECTION('',(1.,0.,-0.));
#50 = PCURVE('',#51,#56);
#51 = CYLINDRICAL_SURFACE('',#52,26.5);
#52 = AXIS2_PLACEMENT_3D('',#53,#54,#55);
#53 = CARTESIAN_POINT('',(0.,0.,0.));
#54 = DIRECTION('',(0.,0.,1.));
#55 = DIRECTION('',(1.,0.,-0.));
#56 = DEFINITIONAL_REPRESENTATION('',(#57),#61);
#57 = LINE('',#58,#59);
#58 = CARTESIAN_POINT('',(0.,867.6));
#59 = VECTOR('',#60,1.);
#60 = DIRECTION('',(1.,0.));
#61 = ( GEOMETRIC_REPRESENTATION_CONTEXT(2) 
PARAMETRIC_REPRESENTATION_CONTEXT() REPRESENTATION_CONTEXT('2D SPACE',''
  ) );
#62 = PCURVE('',#63,#68);
#63 = PLANE('',#64);
#64 = AXIS2_PLACEMENT_3D('',#65,#66,#67);
#65 = CARTESIAN_POINT('',(0.,0.,867.6));
#66 = DIRECTION('',(0.,0.,1.));
#67 = DIRECTION('',(1.,0.,-0.));
#68 = DEFINITIONAL_REPRESENTATION('',(#69),#73);
#69 = CIRCLE('',#70,26.5);
#70 = AXIS2_PLACEMENT_2D('',#71,#72);
#71 = CARTESIAN_POINT('',(0.,0.));
#72 = DIRECTION('',(1.,0.));
#73 = ( GEOMETRIC_REPRESENTATION_CONTEXT(2) 
PARAMETRIC_REPRESENTATION_CONTEXT() REPRESENTATION_CONTEXT('2D SPACE',''
  ) );
#74 = ORIENTED_EDGE('',*,*,#75,.F.);
#75 = EDGE_CURVE('',#76,#40,#78,.T.);
#76 = VERTEX_POINT('',#77);
#77 = CARTESIAN_POINT('',(26.5,-6.490628035481E-15,857.6));
#78 = SURFACE_CURVE('',#79,(#118,#160),.PCURVE_S1.);
#79 = B_SPLINE_CURVE_WITH_KNOTS('',7,(#80,#81,#82,#83,#84,#85,#86,#87,
    #88,#89,#90,#91,#92,#93,#94,#95,#96,#97,#98,#99,#100,#101,#102,#103,
    #104,#105,#106,#107,#108,#109,#110,#111,#112,#113,#114,#115,#116,
    #117),.UNSPECIFIED.,.F.,.F.,(8,6,6,6,6,6,8),(0.,0.152516351402,
    0.24701583108,0.374510016517,0.481676960736,0.925018152593,1.),
  .UNSPECIFIED.);
#80 = CARTESIAN_POINT('',(26.5,3.445711829034E-15,857.6));
#81 = CARTESIAN_POINT('',(26.5,0.409062357651,857.6));
#82 = CARTESIAN_POINT('',(26.492633205837,0.817425033232,857.62169124759
    ));
#83 = CARTESIAN_POINT('',(26.477944850546,1.222572270614,857.66493985205
    ));
#84 = CARTESIAN_POINT('',(26.456239405575,1.622011145889,857.72914224514
    ));
#85 = CARTESIAN_POINT('',(26.428073555767,2.013317926882,857.8132303792)
  );
#86 = CARTESIAN_POINT('',(26.39422287834,2.394183593989,857.91566824654)
  );
#87 = CARTESIAN_POINT('',(26.331705173421,2.990642509099,858.10803079603
    ));
#88 = CARTESIAN_POINT('',(26.305937801144,3.214248261562,858.18797487306
    ));
#89 = CARTESIAN_POINT('',(26.278498790105,3.433092392002,858.27392980059
    ));
#90 = CARTESIAN_POINT('',(26.249571392757,3.64700848057,858.36554923262)
  );
#91 = CARTESIAN_POINT('',(26.219341202667,3.855847016977,858.46248203212
    ));
#92 = CARTESIAN_POINT('',(26.187993924251,4.059475342183,858.5643716757)
  );
#93 = CARTESIAN_POINT('',(26.112161453269,4.52531751358,858.81451876249)
  );
#94 = CARTESIAN_POINT('',(26.066903837861,4.783204214985,858.96656631727
    ));
#95 = CARTESIAN_POINT('',(26.020340475777,5.031454444017,859.12627901055
    ));
#96 = CARTESIAN_POINT('',(25.972847569352,5.270109687735,859.29298963559
    ));
#97 = CARTESIAN_POINT('',(25.924775526825,5.499235653794,859.46608255944
    ));
#98 = CARTESIAN_POINT('',(25.876447145386,5.718921753707,859.64499319144
    ));
#99 = CARTESIAN_POINT('',(25.787563852588,6.106100518577,859.9840512142)
  );
#100 = CARTESIAN_POINT('',(25.746991124697,6.276360698984,
    860.14266902147));
#101 = CARTESIAN_POINT('',(25.70660558183,6.44015150345,860.30478360439)
  );
#102 = CARTESIAN_POINT('',(25.666562360287,6.597562917165,860.4701414265
    ));
#103 = CARTESIAN_POINT('',(25.627004248747,6.748684588388,
    860.63851269606));
#104 = CARTESIAN_POINT('',(25.58806217562,6.893605882452,860.80969137793
    ));
#105 = CARTESIAN_POINT('',(25.391798506654,7.606662172967,
    861.70250792558));
#106 = CARTESIAN_POINT('',(25.246047802129,8.077346116037,
    862.46773558886));
#107 = CARTESIAN_POINT('',(25.121488998128,8.44886516571,863.26506372603
    ));
#108 = CARTESIAN_POINT('',(25.024179659062,8.72502947673,864.08455091526
    ));
#109 = CARTESIAN_POINT('',(24.957950094418,8.908434598466,
    864.91836739143));
#110 = CARTESIAN_POINT('',(24.924781648175,9.000292211237,
    865.75999422904));
#111 = CARTESIAN_POINT('',(24.924905235579,8.999949944316,
    866.74572285477));
#112 = CARTESIAN_POINT('',(24.925874903444,8.997264512621,866.8883200965
    ));
#113 = CARTESIAN_POINT('',(24.927796332689,8.991943175487,867.030879743)
  );
#114 = CARTESIAN_POINT('',(24.930667789213,8.983985169111,867.1733647511
    ));
#115 = CARTESIAN_POINT('',(24.934485832859,8.973388952786,
    867.31573801672));
#116 = CARTESIAN_POINT('',(24.939245317409,8.960152208895,
    867.45796237495));
#117 = CARTESIAN_POINT('',(24.944939390586,8.944271842917,867.6000006));
#118 = PCURVE('',#51,#119);
#119 = DEFINITIONAL_REPRESENTATION('',(#120),#159);
#120 = B_SPLINE_CURVE_WITH_KNOTS('',7,(#121,#122,#123,#124,#125,#126,
    #127,#128,#129,#130,#131,#132,#133,#134,#135,#136,#137,#138,#139,
    #140,#141,#142,#143,#144,#145,#146,#147,#148,#149,#150,#151,#152,
    #153,#154,#155,#156,#157,#158),.UNSPECIFIED.,.F.,.F.,(8,6,6,6,6,6,8)
  ,(0.,0.152516351402,0.24701583108,0.374510016517,0.481676960736,
    0.925018152593,1.),.UNSPECIFIED.);
#121 = CARTESIAN_POINT('',(0.,857.6));
#122 = CARTESIAN_POINT('',(1.543631538304E-02,857.6));
#123 = CARTESIAN_POINT('',(3.084623007138E-02,857.62169124759));
#124 = CARTESIAN_POINT('',(4.614080407647E-02,857.66493985205));
#125 = CARTESIAN_POINT('',(6.123191278679E-02,857.72914224514));
#126 = CARTESIAN_POINT('',(7.603300119555E-02,857.8132303792));
#127 = CARTESIAN_POINT('',(9.046014885009E-02,857.91566824654));
#128 = CARTESIAN_POINT('',(0.113091332056,858.10803079603));
#129 = CARTESIAN_POINT('',(0.121584674253,858.18797487306));
#130 = CARTESIAN_POINT('',(0.129906949269,858.27392980059));
#131 = CARTESIAN_POINT('',(0.138052065923,858.36554923262));
#132 = CARTESIAN_POINT('',(0.146014377526,858.46248203212));
#133 = CARTESIAN_POINT('',(0.153788694713,858.5643716757));
#134 = CARTESIAN_POINT('',(0.17159903576,858.81451876249));
#135 = CARTESIAN_POINT('',(0.1814785768,858.96656631727));
#136 = CARTESIAN_POINT('',(0.191008865644,859.12627901055));
#137 = CARTESIAN_POINT('',(0.200190378829,859.29298963559));
#138 = CARTESIAN_POINT('',(0.209024204283,859.46608255944));
#139 = CARTESIAN_POINT('',(0.217512120435,859.64499319144));
#140 = CARTESIAN_POINT('',(0.232502689949,859.9840512142));
#141 = CARTESIAN_POINT('',(0.239107280649,860.14266902147));
#142 = CARTESIAN_POINT('',(0.245472875697,860.30478360439));
#143 = CARTESIAN_POINT('',(0.251601834534,860.4701414265));
#144 = CARTESIAN_POINT('',(0.257496473833,860.63851269606));
#145 = CARTESIAN_POINT('',(0.263159093558,860.80969137793));
#146 = CARTESIAN_POINT('',(0.29106752087,861.70250792558));
#147 = CARTESIAN_POINT('',(0.309651912921,862.46773558886));
#148 = CARTESIAN_POINT('',(0.324434702956,863.26506372603));
#149 = CARTESIAN_POINT('',(0.335483615433,864.08455091526));
#150 = CARTESIAN_POINT('',(0.34284201305,864.91836739143));
#151 = CARTESIAN_POINT('',(0.346527386697,865.75999422904));
#152 = CARTESIAN_POINT('',(0.346513654763,866.74572285477));
#153 = CARTESIAN_POINT('',(0.346405913686,866.8883200965));
#154 = CARTESIAN_POINT('',(0.346192419091,867.030879743));
#155 = CARTESIAN_POINT('',(0.345873166105,867.1733647511));
#156 = CARTESIAN_POINT('',(0.345448143923,867.31573801672));
#157 = CARTESIAN_POINT('',(0.344917335801,867.45796237495));
#158 = CARTESIAN_POINT('',(0.344280719061,867.6000006));
#159 = ( GEOMETRIC_REPRESENTATION_CONTEXT(2) 
PARAMETRIC_REPRESENTATION_CONTEXT() REPRESENTATION_CONTEXT('2D SPACE',''
  ) );
#160 = PCURVE('',#161,#166);
#161 = CYLINDRICAL_SURFACE('',#162,9.);
#162 = AXIS2_PLACEMENT_3D('',#163,#164,#165);
#163 = CARTESIAN_POINT('',(15.,0.,866.6));
#164 = DIRECTION('',(1.,0.,0.));
#165 = DIRECTION('',(-0.,0.,1.));
#166 = DEFINITIONAL_REPRESENTATION('',(#167),#206);
#167 = B_SPLINE_CURVE_WITH_KNOTS('',7,(#168,#169,#170,#171,#172,#173,
    #174,#175,#176,#177,#178,#179,#180,#181,#182,#183,#184,#185,#186,
    #187,#188,#189,#190,#191,#192,#193,#194,#195,#196,#197,#198,#199,
    #200,#201,#202,#203,#204,#205),.UNSPECIFIED.,.F.,.F.,(8,6,6,6,6,6,8)
  ,(0.,0.152516351402,0.24701583108,0.374510016517,0.481676960736,
    0.925018152593,1.),.UNSPECIFIED.);
#168 = CARTESIAN_POINT('',(3.14159265359,11.5));
#169 = CARTESIAN_POINT('',(3.187044026662,11.5));
#170 = CARTESIAN_POINT('',(3.232417653411,11.492633205837));
#171 = CARTESIAN_POINT('',(3.277587390025,11.477944850546));
#172 = CARTESIAN_POINT('',(3.322427180809,11.456239405575));
#173 = CARTESIAN_POINT('',(3.366804561185,11.428073555767));
#174 = CARTESIAN_POINT('',(3.410573793816,11.39422287834));
#175 = CARTESIAN_POINT('',(3.480208341423,11.331705173421));
#176 = CARTESIAN_POINT('',(3.506580576911,11.305937801144));
#177 = CARTESIAN_POINT('',(3.532685146213,11.278498790105));
#178 = CARTESIAN_POINT('',(3.558520746647,11.249571392757));
#179 = CARTESIAN_POINT('',(3.584084934634,11.219341202667));
#180 = CARTESIAN_POINT('',(3.609374089379,11.187993924251));
#181 = CARTESIAN_POINT('',(3.668124712563,11.112161453269));
#182 = CARTESIAN_POINT('',(3.701361838896,11.066903837861));
#183 = CARTESIAN_POINT('',(3.734121242558,11.020340475777));
#184 = CARTESIAN_POINT('',(3.766426339118,10.972847569352));
#185 = CARTESIAN_POINT('',(3.79829858033,10.924775526825));
#186 = CARTESIAN_POINT('',(3.829758561737,10.876447145386));
#187 = CARTESIAN_POINT('',(3.886942231464,10.787563852588));
#188 = CARTESIAN_POINT('',(3.912785270785,10.746991124697));
#189 = CARTESIAN_POINT('',(3.938372579052,10.70660558183));
#190 = CARTESIAN_POINT('',(3.96371950897,10.666562360287));
#191 = CARTESIAN_POINT('',(3.988840871026,10.627004248747));
#192 = CARTESIAN_POINT('',(4.013751369377,10.58806217562));
#193 = CARTESIAN_POINT('',(4.140708670511,10.391798506654));
#194 = CARTESIAN_POINT('',(4.239782827267,10.246047802129));
#195 = CARTESIAN_POINT('',(4.336512850997,10.121488998128));
#196 = CARTESIAN_POINT('',(4.43156213377,10.024179659062));
#197 = CARTESIAN_POINT('',(4.525544524348,9.957950094418));
#198 = CARTESIAN_POINT('',(4.619055000194,9.924781648175));
#199 = CARTESIAN_POINT('',(4.728580409655,9.924905235579));
#200 = CARTESIAN_POINT('',(4.744424659326,9.925874903444));
#201 = CARTESIAN_POINT('',(4.760271317441,9.927796332689));
#202 = CARTESIAN_POINT('',(4.776122770125,9.930667789213));
#203 = CARTESIAN_POINT('',(4.791981423836,9.934485832859));
#204 = CARTESIAN_POINT('',(4.807849705358,9.939245317409));
#205 = CARTESIAN_POINT('',(4.823730061808,9.944939390586));
#206 = ( GEOMETRIC_REPRESENTATION_CONTEXT(2) 
PARAMETRIC_REPRESENTATION_CONTEXT() REPRESENTATION_CONTEXT('2D SPACE',''
  ) );
#207 = ORIENTED_EDGE('',*,*,#208,.F.);
#208 = EDGE_CURVE('',#209,#76,#211,.T.);
#209 = VERTEX_POINT('',#210);
#210 = CARTESIAN_POINT('',(26.5,-6.490628035481E-15,0.));
#211 = SEAM_CURVE('',#212,(#216,#223),.PCURVE_S1.);
#212 = LINE('',#213,#214);
#213 = CARTESIAN_POINT('',(26.5,-6.490628035481E-15,0.));
#214 = VECTOR('',#215,1.);
#215 = DIRECTION('',(0.,0.,1.));
#216 = PCURVE('',#51,#217);
#217 = DEFINITIONAL_REPRESENTATION('',(#218),#222);
#218 = LINE('',#219,#220);
#219 = CARTESIAN_POINT('',(6.28318530718,-0.));
#220 = VECTOR('',#221,1.);
#221 = DIRECTION('',(0.,1.));
#222 = ( GEOMETRIC_REPRESENTATION_CONTEXT(2) 
PARAMETRIC_REPRESENTATION_CONTEXT() REPRESENTATION_CONTEXT('2D SPACE',''
  ) );
#223 = PCURVE('',#51,#224);
#224 = DEFINITIONAL_REPRESENTATION('',(#225),#229);
#225 = LINE('',#226,#227);
#226 = CARTESIAN_POINT('',(0.,-0.));
#227 = VECTOR('',#228,1.);
#228 = DIRECTION('',(0.,1.));
#229 = ( GEOMETRIC_REPRESENTATION_CONTEXT(2) 
PARAMETRIC_REPRESENTATION_CONTEXT() REPRESENTATION_CONTEXT('2D SPACE',''
  ) );
#230 = ORIENTED_EDGE('',*,*,#231,.T.);
#231 = EDGE_CURVE('',#209,#209,#232,.T.);
#232 = SURFACE_CURVE('',#233,(#238,#245),.PCURVE_S1.);
#233 = CIRCLE('',#234,26.5);
#234 = AXIS2_PLACEMENT_3D('',#235,#236,#237);
#235 = CARTESIAN_POINT('',(0.,0.,0.));
#236 = DIRECTION('',(0.,0.,1.));
#237 = DIRECTION('',(1.,0.,-0.));
#238 = PCURVE('',#51,#239);
#239 = DEFINITIONAL_REPRESENTATION('',(#240),#244);
#240 = LINE('',#241,#242);
#241 = CARTESIAN_POINT('',(0.,0.));
#242 = VECTOR('',#243,1.);
#243 = DIRECTION('',(1.,0.));
#244 = ( GEOMETRIC_REPRESENTATION_CONTEXT(2) 
PARAMETRIC_REPRESENTATION_CONTEXT() REPRESENTATION_CONTEXT('2D SPACE',''
  ) );
#245 = PCURVE('',#246,#251);
#246 = PLANE('',#247);
#247 = AXIS2_PLACEMENT_3D('',#248,#249,#250);
#248 = CARTESIAN_POINT('',(0.,0.,0.));
#249 = DIRECTION('',(0.,0.,1.));
#250 = DIRECTION('',(1.,0.,-0.));
#251 = DEFINITIONAL_REPRESENTATION('',(#252),#256);
#252 = CIRCLE('',#253,26.5);
#253 = AXIS2_PLACEMENT_2D('',#254,#255);
#254 = CARTESIAN_POINT('',(0.,0.));
#255 = DIRECTION('',(1.,0.));
#256 = ( GEOMETRIC_REPRESENTATION_CONTEXT(2) 
PARAMETRIC_REPRESENTATION_CONTEXT() REPRESENTATION_CONTEXT('2D SPACE',''
  ) );
#257 = ORIENTED_EDGE('',*,*,#208,.T.);
#258 = ORIENTED_EDGE('',*,*,#259,.F.);
#259 = EDGE_CURVE('',#42,#76,#260,.T.);
#260 = SURFACE_CURVE('',#261,(#300,#342),.PCURVE_S1.);
#261 = B_SPLINE_CURVE_WITH_KNOTS('',7,(#262,#263,#264,#265,#266,#267,
    #268,#269,#270,#271,#272,#273,#274,#275,#276,#277,#278,#279,#280,
    #281,#282,#283,#284,#285,#286,#287,#288,#289,#290,#291,#292,#293,
    #294,#295,#296,#297,#298,#299),.UNSPECIFIED.,.F.,.F.,(8,6,6,6,6,6,8)
  ,(0.,7.499310966161E-02,0.520710933877,0.627326373726,0.753249567305,
    0.848401580472,1.),.UNSPECIFIED.);
#262 = CARTESIAN_POINT('',(24.944939390586,-8.944271842917,867.6000006)
  );
#263 = CARTESIAN_POINT('',(24.939244198583,-8.960155329223,
    867.4579344659));
#264 = CARTESIAN_POINT('',(24.93448396256,-8.973394154335,
    867.31568212736));
#265 = CARTESIAN_POINT('',(24.930665538794,-8.983991414706,
    867.17328083056));
#266 = CARTESIAN_POINT('',(24.927794076176,-8.991949429231,
    867.03076776149));
#267 = CARTESIAN_POINT('',(24.92587301621,-8.997269739258,
    866.88818004589));
#268 = CARTESIAN_POINT('',(24.924904093012,-8.999953108576,
    866.74555474929));
#269 = CARTESIAN_POINT('',(24.924787722868,-9.000275387786,
    865.7552390855));
#270 = CARTESIAN_POINT('',(24.958323076007,-8.90740165179,
    864.90909569338));
#271 = CARTESIAN_POINT('',(25.025273047545,-8.722000739587,
    864.07089248729));
#272 = CARTESIAN_POINT('',(25.123614176173,-8.442830494009,
    863.24724103986));
#273 = CARTESIAN_POINT('',(25.249436962178,-8.067231122663,
    862.44610385574));
#274 = CARTESIAN_POINT('',(25.39655163388,-7.591299186481,
    861.67761552681));
#275 = CARTESIAN_POINT('',(25.593973739335,-6.871627042633,
    860.78365958593));
#276 = CARTESIAN_POINT('',(25.632796239355,-6.726652437952,
    860.6137205786));
#277 = CARTESIAN_POINT('',(25.672214723702,-6.575531575411,
    860.44658178995));
#278 = CARTESIAN_POINT('',(25.712099326212,-6.418176292495,
    860.28244791471));
#279 = CARTESIAN_POINT('',(25.752308491973,-6.254498292826,
    860.12154707307));
#280 = CARTESIAN_POINT('',(25.792688509736,-6.08440909716,859.964130799)
  );
#281 = CARTESIAN_POINT('',(25.880771103593,-5.699251106022,
    859.62899045332));
#282 = CARTESIAN_POINT('',(25.928484993396,-5.481573072395,
    859.45271473772));
#283 = CARTESIAN_POINT('',(25.97593022799,-5.254679197998,
    859.28214615928));
#284 = CARTESIAN_POINT('',(26.022794332113,-5.018485150353,
    859.11783190072));
#285 = CARTESIAN_POINT('',(26.068738597951,-4.772929443485,
    858.96036755604));
#286 = CARTESIAN_POINT('',(26.113399842089,-4.517973921396,
    858.81039763632));
#287 = CARTESIAN_POINT('',(26.188878678388,-4.053837172865,
    858.56148092002));
#288 = CARTESIAN_POINT('',(26.220416433172,-3.848669186503,
    858.45900770513));
#289 = CARTESIAN_POINT('',(26.250817699397,-3.638219984846,
    858.36156745492));
#290 = CARTESIAN_POINT('',(26.279892643022,-3.422626577435,
    858.26952478431));
#291 = CARTESIAN_POINT('',(26.307451645034,-3.202043339892,
    858.1832385194));
#292 = CARTESIAN_POINT('',(26.333307623091,-2.976642072865,
    858.1030623177));
#293 = CARTESIAN_POINT('',(26.39546908266,-2.380122849785,
    857.91189758783));
#294 = CARTESIAN_POINT('',(26.428937356265,-2.001279782404,
    857.81065181926));
#295 = CARTESIAN_POINT('',(26.456771010166,-1.61219008915,
    857.72756990884));
#296 = CARTESIAN_POINT('',(26.478213814209,-1.215115370998,
    857.6641479099));
#297 = CARTESIAN_POINT('',(26.492722733221,-0.812428396781,
    857.6214276388));
#298 = CARTESIAN_POINT('',(26.5,-0.406569132106,857.6));
#299 = CARTESIAN_POINT('',(26.5,0.,857.6));
#300 = PCURVE('',#51,#301);
#301 = DEFINITIONAL_REPRESENTATION('',(#302),#341);
#302 = B_SPLINE_CURVE_WITH_KNOTS('',7,(#303,#304,#305,#306,#307,#308,
    #309,#310,#311,#312,#313,#314,#315,#316,#317,#318,#319,#320,#321,
    #322,#323,#324,#325,#326,#327,#328,#329,#330,#331,#332,#333,#334,
    #335,#336,#337,#338,#339,#340),.UNSPECIFIED.,.F.,.F.,(8,6,6,6,6,6,8)
  ,(0.,7.499310966161E-02,0.520710933877,0.627326373726,0.753249567305,
    0.848401580472,1.),.UNSPECIFIED.);
#303 = CARTESIAN_POINT('',(5.938904588118,867.6000006));
#304 = CARTESIAN_POINT('',(5.93826784629,867.4579344659));
#305 = CARTESIAN_POINT('',(5.937736954669,867.31568212736));
#306 = CARTESIAN_POINT('',(5.937311890558,867.17328083056));
#307 = CARTESIAN_POINT('',(5.936992637206,867.03076776149));
#308 = CARTESIAN_POINT('',(5.936779183798,866.88818004589));
#309 = CARTESIAN_POINT('',(5.936671525465,866.74555474929));
#310 = CARTESIAN_POINT('',(5.936658595448,865.7552390855));
#311 = CARTESIAN_POINT('',(5.940384736323,864.90909569338));
#312 = CARTESIAN_POINT('',(5.947823204091,864.07089248729));
#313 = CARTESIAN_POINT('',(5.958992026009,863.24724103986));
#314 = CARTESIAN_POINT('',(5.973935846429,862.44610385574));
#315 = CARTESIAN_POINT('',(5.992724325694,861.67761552681));
#316 = CARTESIAN_POINT('',(6.020885067637,860.78365958593));
#317 = CARTESIAN_POINT('',(6.026548461128,860.6137205786));
#318 = CARTESIAN_POINT('',(6.032441738781,860.44658178995));
#319 = CARTESIAN_POINT('',(6.038567171893,860.28244791471));
#320 = CARTESIAN_POINT('',(6.044927043867,860.12154707307));
#321 = CARTESIAN_POINT('',(6.05152367576,859.964130799));
#322 = CARTESIAN_POINT('',(6.066433167576,859.62899045332));
#323 = CARTESIAN_POINT('',(6.074842106576,859.45271473772));
#324 = CARTESIAN_POINT('',(6.083588661221,859.28214615928));
#325 = CARTESIAN_POINT('',(6.092674484216,859.11783190072));
#326 = CARTESIAN_POINT('',(6.102100563324,858.96036755604));
#327 = CARTESIAN_POINT('',(6.111867296104,858.81039763632));
#328 = CARTESIAN_POINT('',(6.129611973797,858.56148092002));
#329 = CARTESIAN_POINT('',(6.137444802427,858.45900770513));
#330 = CARTESIAN_POINT('',(6.145468180036,858.36156745492));
#331 = CARTESIAN_POINT('',(6.153676751892,858.26952478431));
#332 = CARTESIAN_POINT('',(6.162064692179,858.1832385194));
#333 = CARTESIAN_POINT('',(6.170625717134,858.1030623177));
#334 = CARTESIAN_POINT('',(6.193257766433,857.91189758783));
#335 = CARTESIAN_POINT('',(6.207607638963,857.81065181926));
#336 = CARTESIAN_POINT('',(6.222324437643,857.72756990884));
#337 = CARTESIAN_POINT('',(6.237326004597,857.6641479099));
#338 = CARTESIAN_POINT('',(6.252527629431,857.6214276388));
#339 = CARTESIAN_POINT('',(6.267843075779,857.6));
#340 = CARTESIAN_POINT('',(6.28318530718,857.6));
#341 = ( GEOMETRIC_REPRESENTATION_CONTEXT(2) 
PARAMETRIC_REPRESENTATION_CONTEXT() REPRESENTATION_CONTEXT('2D SPACE',''
  ) );
#342 = PCURVE('',#161,#343);
#343 = DEFINITIONAL_REPRESENTATION('',(#344),#383);
#344 = B_SPLINE_CURVE_WITH_KNOTS('',7,(#345,#346,#347,#348,#349,#350,
    #351,#352,#353,#354,#355,#356,#357,#358,#359,#360,#361,#362,#363,
    #364,#365,#366,#367,#368,#369,#370,#371,#372,#373,#374,#375,#376,
    #377,#378,#379,#380,#381,#382),.UNSPECIFIED.,.F.,.F.,(8,6,6,6,6,6,8)
  ,(0.,7.499310966161E-02,0.520710933877,0.627326373726,0.753249567305,
    0.848401580472,1.),.UNSPECIFIED.);
#345 = CARTESIAN_POINT('',(1.459455245372,9.944939390586));
#346 = CARTESIAN_POINT('',(1.475338722148,9.939244198583));
#347 = CARTESIAN_POINT('',(1.491210119061,9.93448396256));
#348 = CARTESIAN_POINT('',(1.507071884815,9.930665538794));
#349 = CARTESIAN_POINT('',(1.522926447704,9.927794076176));
#350 = CARTESIAN_POINT('',(1.538776215616,9.92587301621));
#351 = CARTESIAN_POINT('',(1.554623576029,9.924904093012));
#352 = CARTESIAN_POINT('',(1.66465865561,9.924787722868));
#353 = CARTESIAN_POINT('',(1.758671153538,9.958323076007));
#354 = CARTESIAN_POINT('',(1.853163250458,10.025273047545));
#355 = CARTESIAN_POINT('',(1.948740623572,10.123614176173));
#356 = CARTESIAN_POINT('',(2.046028382292,10.249436962178));
#357 = CARTESIAN_POINT('',(2.145702289546,10.39655163388));
#358 = CARTESIAN_POINT('',(2.273218215392,10.593973739335));
#359 = CARTESIAN_POINT('',(2.298027715004,10.632796239355));
#360 = CARTESIAN_POINT('',(2.323047476082,10.672214723702));
#361 = CARTESIAN_POINT('',(2.348292003406,10.712099326212));
#362 = CARTESIAN_POINT('',(2.37377590745,10.752308491973));
#363 = CARTESIAN_POINT('',(2.399514331524,10.792688509736));
#364 = CARTESIAN_POINT('',(2.456242591018,10.880771103593));
#365 = CARTESIAN_POINT('',(2.487345481585,10.928484993396));
#366 = CARTESIAN_POINT('',(2.51885200505,10.97593022799));
#367 = CARTESIAN_POINT('',(2.550781911493,11.022794332113));
#368 = CARTESIAN_POINT('',(2.583155785802,11.068738597951));
#369 = CARTESIAN_POINT('',(2.615996086829,11.113399842089));
#370 = CARTESIAN_POINT('',(2.674515098511,11.188878678388));
#371 = CARTESIAN_POINT('',(2.699986040108,11.220416433172));
#372 = CARTESIAN_POINT('',(2.725735918285,11.250817699397));
#373 = CARTESIAN_POINT('',(2.751760899136,11.279892643022));
#374 = CARTESIAN_POINT('',(2.778058366631,11.307451645034));
#375 = CARTESIAN_POINT('',(2.804626881351,11.333307623091));
#376 = CARTESIAN_POINT('',(2.874227074469,11.39546908266));
#377 = CARTESIAN_POINT('',(2.917745786494,11.428937356265));
#378 = CARTESIAN_POINT('',(2.96186050799,11.456771010166));
#379 = CARTESIAN_POINT('',(3.006429248811,11.478213814209));
#380 = CARTESIAN_POINT('',(3.051322835643,11.492722733221));
#381 = CARTESIAN_POINT('',(3.096418305578,11.5));
#382 = CARTESIAN_POINT('',(3.14159265359,11.5));
#383 = ( GEOMETRIC_REPRESENTATION_CONTEXT(2) 
PARAMETRIC_REPRESENTATION_CONTEXT() REPRESENTATION_CONTEXT('2D SPACE',''
  ) );
#384 = ADVANCED_FACE('',(#385),#63,.T.);
#385 = FACE_BOUND('',#386,.T.);
#386 = EDGE_LOOP('',(#387,#408,#409,#430));
#387 = ORIENTED_EDGE('',*,*,#388,.T.);
#388 = EDGE_CURVE('',#389,#40,#391,.T.);
#389 = VERTEX_POINT('',#390);
#390 = CARTESIAN_POINT('',(23.71966483743,8.944271909999,867.6));
#391 = SURFACE_CURVE('',#392,(#396,#402),.PCURVE_S1.);
#392 = LINE('',#393,#394);
#393 = CARTESIAN_POINT('',(15.,8.944271909999,867.6));
#394 = VECTOR('',#395,1.);
#395 = DIRECTION('',(1.,0.,0.));
#396 = PCURVE('',#63,#397);
#397 = DEFINITIONAL_REPRESENTATION('',(#398),#401);
#398 = B_SPLINE_CURVE_WITH_KNOTS('',1,(#399,#400),.UNSPECIFIED.,.F.,.F.,
  (2,2),(-5.999999999062E-07,16.8),.PIECEWISE_BEZIER_KNOTS.);
#399 = CARTESIAN_POINT('',(14.9999994,8.944271909999));
#400 = CARTESIAN_POINT('',(31.8,8.944271909999));
#401 = ( GEOMETRIC_REPRESENTATION_CONTEXT(2) 
PARAMETRIC_REPRESENTATION_CONTEXT() REPRESENTATION_CONTEXT('2D SPACE',''
  ) );
#402 = PCURVE('',#161,#403);
#403 = DEFINITIONAL_REPRESENTATION('',(#404),#407);
#404 = B_SPLINE_CURVE_WITH_KNOTS('',1,(#405,#406),.UNSPECIFIED.,.F.,.F.,
  (2,2),(-5.999999999062E-07,16.8),.PIECEWISE_BEZIER_KNOTS.);
#405 = CARTESIAN_POINT('',(4.823729994726,-5.999999999062E-07));
#406 = CARTESIAN_POINT('',(4.823729994726,16.8));
#407 = ( GEOMETRIC_REPRESENTATION_CONTEXT(2) 
PARAMETRIC_REPRESENTATION_CONTEXT() REPRESENTATION_CONTEXT('2D SPACE',''
  ) );
#408 = ORIENTED_EDGE('',*,*,#39,.T.);
#409 = ORIENTED_EDGE('',*,*,#410,.F.);
#410 = EDGE_CURVE('',#411,#42,#413,.T.);
#411 = VERTEX_POINT('',#412);
#412 = CARTESIAN_POINT('',(23.71966483743,-8.944271909999,867.6));
#413 = SURFACE_CURVE('',#414,(#418,#424),.PCURVE_S1.);
#414 = LINE('',#415,#416);
#415 = CARTESIAN_POINT('',(15.,-8.944271909999,867.6));
#416 = VECTOR('',#417,1.);
#417 = DIRECTION('',(1.,0.,0.));
#418 = PCURVE('',#63,#419);
#419 = DEFINITIONAL_REPRESENTATION('',(#420),#423);
#420 = B_SPLINE_CURVE_WITH_KNOTS('',1,(#421,#422),.UNSPECIFIED.,.F.,.F.,
  (2,2),(-5.999999999062E-07,16.8),.PIECEWISE_BEZIER_KNOTS.);
#421 = CARTESIAN_POINT('',(14.9999994,-8.944271909999));
#422 = CARTESIAN_POINT('',(31.8,-8.944271909999));
#423 = ( GEOMETRIC_REPRESENTATION_CONTEXT(2) 
PARAMETRIC_REPRESENTATION_CONTEXT() REPRESENTATION_CONTEXT('2D SPACE',''
  ) );
#424 = PCURVE('',#161,#425);
#425 = DEFINITIONAL_REPRESENTATION('',(#426),#429);
#426 = B_SPLINE_CURVE_WITH_KNOTS('',1,(#427,#428),.UNSPECIFIED.,.F.,.F.,
  (2,2),(-5.999999999062E-07,16.8),.PIECEWISE_BEZIER_KNOTS.);
#427 = CARTESIAN_POINT('',(1.459455312454,-5.999999999062E-07));
#428 = CARTESIAN_POINT('',(1.459455312454,16.8));
#429 = ( GEOMETRIC_REPRESENTATION_CONTEXT(2) 
PARAMETRIC_REPRESENTATION_CONTEXT() REPRESENTATION_CONTEXT('2D SPACE',''
  ) );
#430 = ORIENTED_EDGE('',*,*,#431,.F.);
#431 = EDGE_CURVE('',#389,#411,#432,.T.);
#432 = SURFACE_CURVE('',#433,(#438,#445),.PCURVE_S1.);
#433 = CIRCLE('',#434,25.35);
#434 = AXIS2_PLACEMENT_3D('',#435,#436,#437);
#435 = CARTESIAN_POINT('',(0.,0.,867.6));
#436 = DIRECTION('',(0.,0.,1.));
#437 = DIRECTION('',(1.,0.,-0.));
#438 = PCURVE('',#63,#439);
#439 = DEFINITIONAL_REPRESENTATION('',(#440),#444);
#440 = CIRCLE('',#441,25.35);
#441 = AXIS2_PLACEMENT_2D('',#442,#443);
#442 = CARTESIAN_POINT('',(0.,0.));
#443 = DIRECTION('',(1.,0.));
#444 = ( GEOMETRIC_REPRESENTATION_CONTEXT(2) 
PARAMETRIC_REPRESENTATION_CONTEXT() REPRESENTATION_CONTEXT('2D SPACE',''
  ) );
#445 = PCURVE('',#446,#451);
#446 = CYLINDRICAL_SURFACE('',#447,25.35);
#447 = AXIS2_PLACEMENT_3D('',#448,#449,#450);
#448 = CARTESIAN_POINT('',(0.,0.,-0.2));
#449 = DIRECTION('',(0.,0.,1.));
#450 = DIRECTION('',(1.,0.,-0.));
#451 = DEFINITIONAL_REPRESENTATION('',(#452),#456);
#452 = LINE('',#453,#454);
#453 = CARTESIAN_POINT('',(0.,867.8));
#454 = VECTOR('',#455,1.);
#455 = DIRECTION('',(1.,0.));
#456 = ( GEOMETRIC_REPRESENTATION_CONTEXT(2) 
PARAMETRIC_REPRESENTATION_CONTEXT() REPRESENTATION_CONTEXT('2D SPACE',''
  ) );
#457 = ADVANCED_FACE('',(#458),#161,.F.);
#458 = FACE_BOUND('',#459,.F.);
#459 = EDGE_LOOP('',(#460,#461,#462,#587,#710,#711));
#460 = ORIENTED_EDGE('',*,*,#259,.F.);
#461 = ORIENTED_EDGE('',*,*,#410,.F.);
#462 = ORIENTED_EDGE('',*,*,#463,.T.);
#463 = EDGE_CURVE('',#411,#464,#466,.T.);
#464 = VERTEX_POINT('',#465);
#465 = CARTESIAN_POINT('',(25.35,-6.208959271677E-15,857.6));
#466 = SURFACE_CURVE('',#467,(#505,#546),.PCURVE_S1.);
#467 = B_SPLINE_CURVE_WITH_KNOTS('',6,(#468,#469,#470,#471,#472,#473,
    #474,#475,#476,#477,#478,#479,#480,#481,#482,#483,#484,#485,#486,
    #487,#488,#489,#490,#491,#492,#493,#494,#495,#496,#497,#498,#499,
    #500,#501,#502,#503,#504),.UNSPECIFIED.,.F.,.F.,(7,5,5,5,5,5,5,7),(
    0.,7.496948899804E-02,0.443750782843,0.529545232265,0.632342682891,
    0.756555495777,0.848538231338,1.),.UNSPECIFIED.);
#468 = CARTESIAN_POINT('',(23.719664862725,-8.944271842917,867.6000006)
  );
#469 = CARTESIAN_POINT('',(23.712677638318,-8.962801537025,
    867.43426607817));
#470 = CARTESIAN_POINT('',(23.70706634114,-8.977629740142,
    867.26826537423));
#471 = CARTESIAN_POINT('',(23.702843996891,-8.9887612545,867.10206495834
    ));
#472 = CARTESIAN_POINT('',(23.70001930786,-8.996199271405,
    866.93573121642));
#473 = CARTESIAN_POINT('',(23.698596652929,-8.999945371231,
    866.76933045015));
#474 = CARTESIAN_POINT('',(23.698474924817,-9.000265902683,
    865.78438538309));
#475 = CARTESIAN_POINT('',(23.732300635763,-8.911197451474,
    864.96677204209));
#476 = CARTESIAN_POINT('',(23.799910505492,-8.733179080744,
    864.15695007648));
#477 = CARTESIAN_POINT('',(23.898898486711,-8.464968865138,
    863.36204892775));
#478 = CARTESIAN_POINT('',(24.024505337564,-8.104041004033,
    862.59053109277));
#479 = CARTESIAN_POINT('',(24.202767221593,-7.54062320146,
    861.68271768237));
#480 = CARTESIAN_POINT('',(24.23745022331,-7.42905099026,861.5132273722)
  );
#481 = CARTESIAN_POINT('',(24.273082024985,-7.312180553682,
    861.34571000372));
#482 = CARTESIAN_POINT('',(24.309563329575,-7.189945046941,
    861.18030873433));
#483 = CARTESIAN_POINT('',(24.34678545022,-7.062273573236,
    861.01718298378));
#484 = CARTESIAN_POINT('',(24.429975378084,-6.769514309043,
    860.66399092052));
#485 = CARTESIAN_POINT('',(24.476214126913,-6.602026289937,
    860.47499305354));
#486 = CARTESIAN_POINT('',(24.523146077528,-6.426486338743,
    860.28980419266));
#487 = CARTESIAN_POINT('',(24.57054694399,-6.242753719582,
    860.10876255545));
#488 = CARTESIAN_POINT('',(24.61816724388,-6.05068759951,859.93225516248
    ));
#489 = CARTESIAN_POINT('',(24.723203312222,-5.607828395826,
    859.55344473838));
#490 = CARTESIAN_POINT('',(24.780606890245,-5.353077912555,
    859.35337770379));
#491 = CARTESIAN_POINT('',(24.837435719755,-5.085715149224,
    859.16136431446));
#492 = CARTESIAN_POINT('',(24.893119608243,-4.805610163506,
    858.97836020555));
#493 = CARTESIAN_POINT('',(24.947030222092,-4.512685009004,
    858.80543081818));
#494 = CARTESIAN_POINT('',(25.036592422423,-3.980485209041,
    858.52402683739));
#495 = CARTESIAN_POINT('',(25.073356973322,-3.746982639643,
    858.41045576607));
#496 = CARTESIAN_POINT('',(25.108469583478,-3.506599345407,
    858.3036302413));
#497 = CARTESIAN_POINT('',(25.141615028809,-3.259562275193,
    858.20412743908));
#498 = CARTESIAN_POINT('',(25.172481224096,-3.006133832339,
    858.11251345358));
#499 = CARTESIAN_POINT('',(25.24734143152,-2.319275058445,
    857.89239787828));
#500 = CARTESIAN_POINT('',(25.287016147253,-1.874517166321,
    857.77806210219));
#501 = CARTESIAN_POINT('',(25.318113999573,-1.416051702653,
    857.68981161494));
#502 = CARTESIAN_POINT('',(25.339342545439,-0.947949355003,
    857.63001866703));
#503 = CARTESIAN_POINT('',(25.35,-0.474488511942,857.6));
#504 = CARTESIAN_POINT('',(25.35,0.,857.6));
#505 = PCURVE('',#161,#506);
#506 = DEFINITIONAL_REPRESENTATION('',(#507),#545);
#507 = B_SPLINE_CURVE_WITH_KNOTS('',6,(#508,#509,#510,#511,#512,#513,
    #514,#515,#516,#517,#518,#519,#520,#521,#522,#523,#524,#525,#526,
    #527,#528,#529,#530,#531,#532,#533,#534,#535,#536,#537,#538,#539,
    #540,#541,#542,#543,#544),.UNSPECIFIED.,.F.,.F.,(7,5,5,5,5,5,5,7),(
    0.,7.496948899804E-02,0.443750782843,0.529545232265,0.632342682891,
    0.756555495777,0.848538231338,1.),.UNSPECIFIED.);
#508 = CARTESIAN_POINT('',(1.459455245372,8.719664862725));
#509 = CARTESIAN_POINT('',(1.477984928362,8.712677638318));
#510 = CARTESIAN_POINT('',(1.496498318547,8.70706634114));
#511 = CARTESIAN_POINT('',(1.514999551172,8.702843996891));
#512 = CARTESIAN_POINT('',(1.533492710808,8.70001930786));
#513 = CARTESIAN_POINT('',(1.551981831349,8.698596652929));
#514 = CARTESIAN_POINT('',(1.661420177928,8.698474924817));
#515 = CARTESIAN_POINT('',(1.752263302222,8.732300635763));
#516 = CARTESIAN_POINT('',(1.843589198048,8.799910505492));
#517 = CARTESIAN_POINT('',(1.935953904144,8.898898486711));
#518 = CARTESIAN_POINT('',(2.029938458959,9.024505337564));
#519 = CARTESIAN_POINT('',(2.1486540548,9.202767221593));
#520 = CARTESIAN_POINT('',(2.17119241591,9.23745022331));
#521 = CARTESIAN_POINT('',(2.19387505259,9.273082024985));
#522 = CARTESIAN_POINT('',(2.216713949727,9.309563329575));
#523 = CARTESIAN_POINT('',(2.239721349451,9.34678545022));
#524 = CARTESIAN_POINT('',(2.290693699778,9.429975378084));
#525 = CARTESIAN_POINT('',(2.318737513955,9.476214126913));
#526 = CARTESIAN_POINT('',(2.34706505855,9.523146077528));
#527 = CARTESIAN_POINT('',(2.375699549587,9.57054694399));
#528 = CARTESIAN_POINT('',(2.404664845473,9.61816724388));
#529 = CARTESIAN_POINT('',(2.469417138125,9.723203312222));
#530 = CARTESIAN_POINT('',(2.505376764089,9.780606890245));
#531 = CARTESIAN_POINT('',(2.541899807088,9.837435719755));
#532 = CARTESIAN_POINT('',(2.57902001328,9.893119608243));
#533 = CARTESIAN_POINT('',(2.616774163971,9.947030222092));
#534 = CARTESIAN_POINT('',(2.683664974896,10.036592422423));
#535 = CARTESIAN_POINT('',(2.712499389656,10.073356973322));
#536 = CARTESIAN_POINT('',(2.741700828045,10.108469583478));
#537 = CARTESIAN_POINT('',(2.771263937542,10.141615028809));
#538 = CARTESIAN_POINT('',(2.801185865411,10.172481224096));
#539 = CARTESIAN_POINT('',(2.881326624432,10.24734143152));
#540 = CARTESIAN_POINT('',(2.932263685091,10.287016147253));
#541 = CARTESIAN_POINT('',(2.983989781962,10.318113999573));
#542 = CARTESIAN_POINT('',(3.036264953232,10.339342545439));
#543 = CARTESIAN_POINT('',(3.088871707818,10.35));
#544 = CARTESIAN_POINT('',(3.14159265359,10.35));
#545 = ( GEOMETRIC_REPRESENTATION_CONTEXT(2) 
PARAMETRIC_REPRESENTATION_CONTEXT() REPRESENTATION_CONTEXT('2D SPACE',''
  ) );
#546 = PCURVE('',#446,#547);
#547 = DEFINITIONAL_REPRESENTATION('',(#548),#586);
#548 = B_SPLINE_CURVE_WITH_KNOTS('',6,(#549,#550,#551,#552,#553,#554,
    #555,#556,#557,#558,#559,#560,#561,#562,#563,#564,#565,#566,#567,
    #568,#569,#570,#571,#572,#573,#574,#575,#576,#577,#578,#579,#580,
    #581,#582,#583,#584,#585),.UNSPECIFIED.,.F.,.F.,(7,5,5,5,5,5,5,7),(
    0.,7.496948899804E-02,0.443750782843,0.529545232265,0.632342682891,
    0.756555495777,0.848538231338,1.),.UNSPECIFIED.);
#549 = CARTESIAN_POINT('',(5.922590086046,867.8000006));
#550 = CARTESIAN_POINT('',(5.921808890603,867.63426607817));
#551 = CARTESIAN_POINT('',(5.921183470338,867.46826537423));
#552 = CARTESIAN_POINT('',(5.920713829233,867.30206495834));
#553 = CARTESIAN_POINT('',(5.920399970739,867.13573121642));
#554 = CARTESIAN_POINT('',(5.920241897777,866.96933045015));
#555 = CARTESIAN_POINT('',(5.920228372431,865.98438538309));
#556 = CARTESIAN_POINT('',(5.923986772234,865.16677204209));
#557 = CARTESIAN_POINT('',(5.931498563155,864.35695007648));
#558 = CARTESIAN_POINT('',(5.942776022627,863.56204892775));
#559 = CARTESIAN_POINT('',(5.957845254878,862.79053109277));
#560 = CARTESIAN_POINT('',(5.981156725645,861.88271768237));
#561 = CARTESIAN_POINT('',(5.985765691995,861.7132273722));
#562 = CARTESIAN_POINT('',(5.990585358443,861.54571000372));
#563 = CARTESIAN_POINT('',(5.995617293472,861.38030873433));
#564 = CARTESIAN_POINT('',(6.000863204912,861.21718298378));
#565 = CARTESIAN_POINT('',(6.012869097987,860.86399092052));
#566 = CARTESIAN_POINT('',(6.019723083939,860.67499305354));
#567 = CARTESIAN_POINT('',(6.026890585367,860.48980419266));
#568 = CARTESIAN_POINT('',(6.034375262796,860.30876255545));
#569 = CARTESIAN_POINT('',(6.042180836502,860.13225516248));
#570 = CARTESIAN_POINT('',(6.060135269125,859.75344473838));
#571 = CARTESIAN_POINT('',(6.07043591371,859.55337770379));
#572 = CARTESIAN_POINT('',(6.081217130532,859.36136431446));
#573 = CARTESIAN_POINT('',(6.092481246501,859.17836020555));
#574 = CARTESIAN_POINT('',(6.104229175334,859.00543081818));
#575 = CARTESIAN_POINT('',(6.125518455576,858.72402683739));
#576 = CARTESIAN_POINT('',(6.134842556277,858.61045576607));
#577 = CARTESIAN_POINT('',(6.144424842187,858.5036302413));
#578 = CARTESIAN_POINT('',(6.15425616014,858.40412743908));
#579 = CARTESIAN_POINT('',(6.164326407965,858.31251345358));
#580 = CARTESIAN_POINT('',(6.191581879711,858.09239787828));
#581 = CARTESIAN_POINT('',(6.209192861027,857.97806210219));
#582 = CARTESIAN_POINT('',(6.227313490824,857.88981161494));
#583 = CARTESIAN_POINT('',(6.245790851499,857.83001866703));
#584 = CARTESIAN_POINT('',(6.264467811639,857.8));
#585 = CARTESIAN_POINT('',(6.28318530718,857.8));
#586 = ( GEOMETRIC_REPRESENTATION_CONTEXT(2) 
PARAMETRIC_REPRESENTATION_CONTEXT() REPRESENTATION_CONTEXT('2D SPACE',''
  ) );
#587 = ORIENTED_EDGE('',*,*,#588,.T.);
#588 = EDGE_CURVE('',#464,#389,#589,.T.);
#589 = SURFACE_CURVE('',#590,(#628,#669),.PCURVE_S1.);
#590 = B_SPLINE_CURVE_WITH_KNOTS('',6,(#591,#592,#593,#594,#595,#596,
    #597,#598,#599,#600,#601,#602,#603,#604,#605,#606,#607,#608,#609,
    #610,#611,#612,#613,#614,#615,#616,#617,#618,#619,#620,#621,#622,
    #623,#624,#625,#626,#627),.UNSPECIFIED.,.F.,.F.,(7,5,5,5,5,5,5,7),(
    0.,0.147680329537,0.243654511264,0.366960990155,0.468364595513,
    0.554705356522,0.925045646201,1.),.UNSPECIFIED.);
#591 = CARTESIAN_POINT('',(25.35,3.445711829034E-15,857.6));
#592 = CARTESIAN_POINT('',(25.35,0.462594105873,857.6));
#593 = CARTESIAN_POINT('',(25.339870162784,0.924316264764,857.6285325125
    ));
#594 = CARTESIAN_POINT('',(25.319681932113,1.38109174087,857.68539538068
    ));
#595 = CARTESIAN_POINT('',(25.290071709386,1.828891617671,
    857.76939202576));
#596 = CARTESIAN_POINT('',(25.252220186805,2.263872614144,
    857.87834721449));
#597 = CARTESIAN_POINT('',(25.178717916884,2.954576338579,858.0940188963
    ));
#598 = CARTESIAN_POINT('',(25.146900653457,3.220077505261,
    858.18826863134));
#599 = CARTESIAN_POINT('',(25.112559584008,3.478664891998,
    858.29118513502));
#600 = CARTESIAN_POINT('',(25.076049480519,3.730030479123,
    858.40212502931));
#601 = CARTESIAN_POINT('',(25.037729684682,3.97390853319,858.52043011989
    ));
#602 = CARTESIAN_POINT('',(24.946853464737,4.513499743577,
    858.80601667167));
#603 = CARTESIAN_POINT('',(24.893338384058,4.804267309528,
    858.97768853119));
#604 = CARTESIAN_POINT('',(24.83807529943,5.082401700281,859.15928944605
    ));
#605 = CARTESIAN_POINT('',(24.781679034056,5.347978713639,859.3497767106
    ));
#606 = CARTESIAN_POINT('',(24.724707972323,5.601124764341,
    859.54821419321));
#607 = CARTESIAN_POINT('',(24.620742005182,6.040116584099,
    859.92281410527));
#608 = CARTESIAN_POINT('',(24.573763492537,6.229968150015,
    860.09670522485));
#609 = CARTESIAN_POINT('',(24.526988127119,6.41170522211,860.27502451403
    ));
#610 = CARTESIAN_POINT('',(24.480656225893,6.585462966835,
    860.45739889596));
#611 = CARTESIAN_POINT('',(24.434984163728,6.751376634047,
    860.64350170221));
#612 = CARTESIAN_POINT('',(24.352004653359,7.044286407256,
    860.99444716882));
#613 = CARTESIAN_POINT('',(24.314462667799,7.173402297954,
    861.15834124016));
#614 = CARTESIAN_POINT('',(24.277660775897,7.297006128439,
    861.32455464882));
#615 = CARTESIAN_POINT('',(24.241710371859,7.415170553069,
    861.49292393333));
#616 = CARTESIAN_POINT('',(24.20671317185,7.527964109216,861.66330245528
    ));
#617 = CARTESIAN_POINT('',(24.027131528073,8.096494254968,
    862.57442413112));
#618 = CARTESIAN_POINT('',(23.900547255856,8.460502476755,863.3488149833
    ));
#619 = CARTESIAN_POINT('',(23.800749009164,8.730972098507,
    864.14688470789));
#620 = CARTESIAN_POINT('',(23.732574037152,8.910477568903,864.9600567375
    ));
#621 = CARTESIAN_POINT('',(23.698467718931,9.000284877047,
    865.78111669534));
#622 = CARTESIAN_POINT('',(23.698598050764,8.999941690485,866.7694938858
    ));
#623 = CARTESIAN_POINT('',(23.700021527661,8.996193426186,866.9358619119
    ));
#624 = CARTESIAN_POINT('',(23.702846485328,8.988754694142,
    867.10216290133));
#625 = CARTESIAN_POINT('',(23.707068545756,8.977623914304,
    867.26833059174));
#626 = CARTESIAN_POINT('',(23.712679010909,8.962797896995,
    867.43429863556));
#627 = CARTESIAN_POINT('',(23.719664862725,8.944271842917,867.6000006));
#628 = PCURVE('',#161,#629);
#629 = DEFINITIONAL_REPRESENTATION('',(#630),#668);
#630 = B_SPLINE_CURVE_WITH_KNOTS('',6,(#631,#632,#633,#634,#635,#636,
    #637,#638,#639,#640,#641,#642,#643,#644,#645,#646,#647,#648,#649,
    #650,#651,#652,#653,#654,#655,#656,#657,#658,#659,#660,#661,#662,
    #663,#664,#665,#666,#667),.UNSPECIFIED.,.F.,.F.,(7,5,5,5,5,5,5,7),(
    0.,0.147680329537,0.243654511264,0.366960990155,0.468364595513,
    0.554705356522,0.925045646201,1.),.UNSPECIFIED.);
#631 = CARTESIAN_POINT('',(3.14159265359,10.35));
#632 = CARTESIAN_POINT('',(3.192991998687,10.35));
#633 = CARTESIAN_POINT('',(3.244294456104,10.339870162784));
#634 = CARTESIAN_POINT('',(3.295291737328,10.319681932113));
#635 = CARTESIAN_POINT('',(3.345775862086,10.290071709386));
#636 = CARTESIAN_POINT('',(3.39551864939,10.252220186805));
#637 = CARTESIAN_POINT('',(3.475917800948,10.178717916884));
#638 = CARTESIAN_POINT('',(3.507198409484,10.146900653457));
#639 = CARTESIAN_POINT('',(3.538089902946,10.112559584008));
#640 = CARTESIAN_POINT('',(3.568588528284,10.076049480519));
#641 = CARTESIAN_POINT('',(3.598687530664,10.037729684682));
#642 = CARTESIAN_POINT('',(3.666521601357,9.946853464737));
#643 = CARTESIAN_POINT('',(3.703999205251,9.893338384058));
#644 = CARTESIAN_POINT('',(3.74085204906,9.83807529943));
#645 = CARTESIAN_POINT('',(3.777116094004,9.781679034056));
#646 = CARTESIAN_POINT('',(3.812824347817,9.724707972323));
#647 = CARTESIAN_POINT('',(3.876946040756,9.620742005182));
#648 = CARTESIAN_POINT('',(3.905534217579,9.573763492537));
#649 = CARTESIAN_POINT('',(3.933799512429,9.526988127119));
#650 = CARTESIAN_POINT('',(3.961764867235,9.480656225893));
#651 = CARTESIAN_POINT('',(3.989452613101,9.434984163728));
#652 = CARTESIAN_POINT('',(4.040243743824,9.352004653359));
#653 = CARTESIAN_POINT('',(4.063417205509,9.314462667799));
#654 = CARTESIAN_POINT('',(4.086418852826,9.277660775897));
#655 = CARTESIAN_POINT('',(4.109261208781,9.241710371859));
#656 = CARTESIAN_POINT('',(4.131956531692,9.20671317185));
#657 = CARTESIAN_POINT('',(4.25128434218,9.027131528073));
#658 = CARTESIAN_POINT('',(4.345693711165,8.900547255856));
#659 = CARTESIAN_POINT('',(4.438461251003,8.800749009164));
#660 = CARTESIAN_POINT('',(4.530176090659,8.732574037152));
#661 = CARTESIAN_POINT('',(4.621401941035,8.698467718931));
#662 = CARTESIAN_POINT('',(4.731221635484,8.698598050764));
#663 = CARTESIAN_POINT('',(4.749707127256,8.700021527661));
#664 = CARTESIAN_POINT('',(4.768196658947,8.702846485328));
#665 = CARTESIAN_POINT('',(4.786694262109,8.707068545756));
#666 = CARTESIAN_POINT('',(4.805204018845,8.712679010909));
#667 = CARTESIAN_POINT('',(4.823730061808,8.719664862725));
#668 = ( GEOMETRIC_REPRESENTATION_CONTEXT(2) 
PARAMETRIC_REPRESENTATION_CONTEXT() REPRESENTATION_CONTEXT('2D SPACE',''
  ) );
#669 = PCURVE('',#446,#670);
#670 = DEFINITIONAL_REPRESENTATION('',(#671),#709);
#671 = B_SPLINE_CURVE_WITH_KNOTS('',6,(#672,#673,#674,#675,#676,#677,
    #678,#679,#680,#681,#682,#683,#684,#685,#686,#687,#688,#689,#690,
    #691,#692,#693,#694,#695,#696,#697,#698,#699,#700,#701,#702,#703,
    #704,#705,#706,#707,#708),.UNSPECIFIED.,.F.,.F.,(7,5,5,5,5,5,5,7),(
    0.,0.147680329537,0.243654511264,0.366960990155,0.468364595513,
    0.554705356522,0.925045646201,1.),.UNSPECIFIED.);
#672 = CARTESIAN_POINT('',(0.,857.8));
#673 = CARTESIAN_POINT('',(1.824828820013E-02,857.8));
#674 = CARTESIAN_POINT('',(3.646218323557E-02,857.8285325125));
#675 = CARTESIAN_POINT('',(5.449186187891E-02,857.88539538068));
#676 = CARTESIAN_POINT('',(7.21892036607E-02,857.96939202576));
#677 = CARTESIAN_POINT('',(8.940988401858E-02,858.07834721449));
#678 = CARTESIAN_POINT('',(0.11681042214,858.2940188963));
#679 = CARTESIAN_POINT('',(0.127357851165,858.38826863134));
#680 = CARTESIAN_POINT('',(0.137646881396,858.49118513502));
#681 = CARTESIAN_POINT('',(0.147665686076,858.60212502931));
#682 = CARTESIAN_POINT('',(0.157403568943,858.72043011989));
#683 = CARTESIAN_POINT('',(0.178988982855,859.00601667167));
#684 = CARTESIAN_POINT('',(0.190650412977,859.1776885312));
#685 = CARTESIAN_POINT('',(0.201835083118,859.35928944605));
#686 = CARTESIAN_POINT('',(0.212543872146,859.5497767106));
#687 = CARTESIAN_POINT('',(0.222779034786,859.74821419321));
#688 = CARTESIAN_POINT('',(0.24057528515,860.12281410527));
#689 = CARTESIAN_POINT('',(0.248289990123,860.29670522485));
#690 = CARTESIAN_POINT('',(0.255692296502,860.47502451403));
#691 = CARTESIAN_POINT('',(0.262785777922,860.65739889596));
#692 = CARTESIAN_POINT('',(0.269573956594,860.84350170221));
#693 = CARTESIAN_POINT('',(0.28158329582,861.19444716882));
#694 = CARTESIAN_POINT('',(0.28688743797,861.35834124016));
#695 = CARTESIAN_POINT('',(0.29197470861,861.52455464882));
#696 = CARTESIAN_POINT('',(0.296846863297,861.69292393333));
#697 = CARTESIAN_POINT('',(0.30150551548,861.86330245528));
#698 = CARTESIAN_POINT('',(0.325024969493,862.77442413112));
#699 = CARTESIAN_POINT('',(0.340221479831,863.5488149833));
#700 = CARTESIAN_POINT('',(0.351593613029,864.34688470789));
#701 = CARTESIAN_POINT('',(0.35916815782,865.1600567375));
#702 = CARTESIAN_POINT('',(0.362957735403,865.98111669534));
#703 = CARTESIAN_POINT('',(0.362943254087,866.9694938858));
#704 = CARTESIAN_POINT('',(0.362785089792,867.1358619119));
#705 = CARTESIAN_POINT('',(0.362471201163,867.30216290133));
#706 = CARTESIAN_POINT('',(0.36200159112,867.46833059174));
#707 = CARTESIAN_POINT('',(0.361376263116,867.63429863556));
#708 = CARTESIAN_POINT('',(0.360595221133,867.8000006));
#709 = ( GEOMETRIC_REPRESENTATION_CONTEXT(2) 
PARAMETRIC_REPRESENTATION_CONTEXT() REPRESENTATION_CONTEXT('2D SPACE',''
  ) );
#710 = ORIENTED_EDGE('',*,*,#388,.T.);
#711 = ORIENTED_EDGE('',*,*,#75,.F.);
#712 = ADVANCED_FACE('',(#713,#716),#246,.F.);
#713 = FACE_BOUND('',#714,.F.);
#714 = EDGE_LOOP('',(#715));
#715 = ORIENTED_EDGE('',*,*,#231,.T.);
#716 = FACE_BOUND('',#717,.F.);
#717 = EDGE_LOOP('',(#718));
#718 = ORIENTED_EDGE('',*,*,#719,.F.);
#719 = EDGE_CURVE('',#720,#720,#722,.T.);
#720 = VERTEX_POINT('',#721);
#721 = CARTESIAN_POINT('',(25.35,-6.208959271677E-15,0.));
#722 = SURFACE_CURVE('',#723,(#728,#735),.PCURVE_S1.);
#723 = CIRCLE('',#724,25.35);
#724 = AXIS2_PLACEMENT_3D('',#725,#726,#727);
#725 = CARTESIAN_POINT('',(0.,0.,0.));
#726 = DIRECTION('',(0.,0.,1.));
#727 = DIRECTION('',(1.,0.,-0.));
#728 = PCURVE('',#246,#729);
#729 = DEFINITIONAL_REPRESENTATION('',(#730),#734);
#730 = CIRCLE('',#731,25.35);
#731 = AXIS2_PLACEMENT_2D('',#732,#733);
#732 = CARTESIAN_POINT('',(0.,0.));
#733 = DIRECTION('',(1.,0.));
#734 = ( GEOMETRIC_REPRESENTATION_CONTEXT(2) 
PARAMETRIC_REPRESENTATION_CONTEXT() REPRESENTATION_CONTEXT('2D SPACE',''
  ) );
#735 = PCURVE('',#446,#736);
#736 = DEFINITIONAL_REPRESENTATION('',(#737),#741);
#737 = LINE('',#738,#739);
#738 = CARTESIAN_POINT('',(0.,0.2));
#739 = VECTOR('',#740,1.);
#740 = DIRECTION('',(1.,0.));
#741 = ( GEOMETRIC_REPRESENTATION_CONTEXT(2) 
PARAMETRIC_REPRESENTATION_CONTEXT() REPRESENTATION_CONTEXT('2D SPACE',''
  ) );
#742 = ADVANCED_FACE('',(#743),#446,.F.);
#743 = FACE_BOUND('',#744,.F.);
#744 = EDGE_LOOP('',(#745,#746,#747,#768,#769,#770));
#745 = ORIENTED_EDGE('',*,*,#431,.F.);
#746 = ORIENTED_EDGE('',*,*,#588,.F.);
#747 = ORIENTED_EDGE('',*,*,#748,.F.);
#748 = EDGE_CURVE('',#720,#464,#749,.T.);
#749 = SEAM_CURVE('',#750,(#754,#761),.PCURVE_S1.);
#750 = LINE('',#751,#752);
#751 = CARTESIAN_POINT('',(25.35,-6.208959271677E-15,-0.2));
#752 = VECTOR('',#753,1.);
#753 = DIRECTION('',(0.,0.,1.));
#754 = PCURVE('',#446,#755);
#755 = DEFINITIONAL_REPRESENTATION('',(#756),#760);
#756 = LINE('',#757,#758);
#757 = CARTESIAN_POINT('',(6.28318530718,-0.));
#758 = VECTOR('',#759,1.);
#759 = DIRECTION('',(0.,1.));
#760 = ( GEOMETRIC_REPRESENTATION_CONTEXT(2) 
PARAMETRIC_REPRESENTATION_CONTEXT() REPRESENTATION_CONTEXT('2D SPACE',''
  ) );
#761 = PCURVE('',#446,#762);
#762 = DEFINITIONAL_REPRESENTATION('',(#763),#767);
#763 = LINE('',#764,#765);
#764 = CARTESIAN_POINT('',(0.,-0.));
#765 = VECTOR('',#766,1.);
#766 = DIRECTION('',(0.,1.));
#767 = ( GEOMETRIC_REPRESENTATION_CONTEXT(2) 
PARAMETRIC_REPRESENTATION_CONTEXT() REPRESENTATION_CONTEXT('2D SPACE',''
  ) );
#768 = ORIENTED_EDGE('',*,*,#719,.T.);
#769 = ORIENTED_EDGE('',*,*,#748,.T.);
#770 = ORIENTED_EDGE('',*,*,#463,.F.);
#771 = ( GEOMETRIC_REPRESENTATION_CONTEXT(3) 
GLOBAL_UNCERTAINTY_ASSIGNED_CONTEXT((#775)) GLOBAL_UNIT_ASSIGNED_CONTEXT
((#772,#773,#774)) REPRESENTATION_CONTEXT('Context #1',
  '3D Context with UNIT and UNCERTAINTY') );
#772 = ( LENGTH_UNIT() NAMED_UNIT(*) SI_UNIT(.MILLI.,.METRE.) );
#773 = ( NAMED_UNIT(*) PLANE_ANGLE_UNIT() SI_UNIT($,.RADIAN.) );
#774 = ( NAMED_UNIT(*) SI_UNIT($,.STERADIAN.) SOLID_ANGLE_UNIT() );
#775 = UNCERTAINTY_MEASURE_WITH_UNIT(LENGTH_MEASURE(2.E-07),#772,
  'distance_accuracy_value','confusion accuracy');
#776 = CONTEXT_DEPENDENT_SHAPE_REPRESENTATION(#777,#779);
#777 = ( REPRESENTATION_RELATIONSHIP('','',#32,#10) 
REPRESENTATION_RELATIONSHIP_WITH_TRANSFORMATION(#778) 
SHAPE_REPRESENTATION_RELATIONSHIP() );
#778 = ITEM_DEFINED_TRANSFORMATION('','',#11,#15);
#779 = PRODUCT_DEFINITION_SHAPE('Placement','Placement of an item',#780
  );
#780 = NEXT_ASSEMBLY_USAGE_OCCURRENCE('40',
'SHORTENED_AFT_GRADE-9_TITANIUM_SHELL_FORWARD_SEGMENT_TI_STOWED_LOCAL_
DEFINITION','',#5,#27,$);
#781 = PRODUCT_RELATED_PRODUCT_CATEGORY('part',$,(#29));
#782 = MECHANICAL_DESIGN_GEOMETRIC_PRESENTATION_REPRESENTATION('',(#783)
  ,#771);
#783 = STYLED_ITEM('color',(#784),#33);
#784 = PRESENTATION_STYLE_ASSIGNMENT((#785));
#785 = SURFACE_STYLE_USAGE(.BOTH.,#786);
#786 = SURFACE_SIDE_STYLE('',(#787));
#787 = SURFACE_STYLE_FILL_AREA(#788);
#788 = FILL_AREA_STYLE('',(#789));
#789 = FILL_AREA_STYLE_COLOUR('',#790);
#790 = COLOUR_RGB('',0.530000000233,0.590000005974,0.640000008347);
ENDSEC;
END-ISO-10303-21;
