ISO-10303-21;
HEADER;
FILE_DESCRIPTION(('Open CASCADE Model'),'2;1');
FILE_NAME('Open CASCADE Shape Model','2026-08-26T03:21:55',('Author'),(
    'Open CASCADE'),'Open CASCADE STEP processor 7.9','Open CASCADE 7.9'
  ,'Unknown');
FILE_SCHEMA((
'AP242_MANAGED_MODEL_BASED_3D_ENGINEERING_MIM_LF {1 0 10303 442 1 1 4 }'
    ));
ENDSEC;
DATA;
#1 = APPLICATION_PROTOCOL_DEFINITION('international standard',
  'ap242_managed_model_based_3d_engineering',2013,#2);
#2 = APPLICATION_CONTEXT('Managed model based 3d engineering');
#3 = SHAPE_DEFINITION_REPRESENTATION(#4,#10);
#4 = PRODUCT_DEFINITION_SHAPE('','',#5);
#5 = PRODUCT_DEFINITION('design','',#6,#9);
#6 = PRODUCT_DEFINITION_FORMATION('','',#7);
#7 = PRODUCT('CAPTIVE_STOW-DOG_RADIAL_RETURN_SPRING_SS_STOWED_PART',
  'CAPTIVE_STOW-DOG_RADIAL_RETURN_SPRING_SS_STOWED_PART','',(#8));
#8 = PRODUCT_CONTEXT('',#2,'mechanical');
#9 = PRODUCT_DEFINITION_CONTEXT('part definition',#2,'design');
#10 = SHAPE_REPRESENTATION('',(#11,#15),#19);
#11 = AXIS2_PLACEMENT_3D('',#12,#13,#14);
#12 = CARTESIAN_POINT('',(0.,0.,0.));
#13 = DIRECTION('',(0.,0.,1.));
#14 = DIRECTION('',(1.,0.,-0.));
#15 = AXIS2_PLACEMENT_3D('',#16,#17,#18);
#16 = CARTESIAN_POINT('',(0.,0.,0.));
#17 = DIRECTION('',(0.,0.,1.));
#18 = DIRECTION('',(1.,0.,-0.));
#19 = ( GEOMETRIC_REPRESENTATION_CONTEXT(3) 
GLOBAL_UNCERTAINTY_ASSIGNED_CONTEXT((#23)) GLOBAL_UNIT_ASSIGNED_CONTEXT(
(#20,#21,#22)) REPRESENTATION_CONTEXT('Context #1',
  '3D Context with UNIT and UNCERTAINTY') );
#20 = ( LENGTH_UNIT() NAMED_UNIT(*) SI_UNIT(.MILLI.,.METRE.) );
#21 = ( NAMED_UNIT(*) PLANE_ANGLE_UNIT() SI_UNIT($,.RADIAN.) );
#22 = ( NAMED_UNIT(*) SI_UNIT($,.STERADIAN.) SOLID_ANGLE_UNIT() );
#23 = UNCERTAINTY_MEASURE_WITH_UNIT(LENGTH_MEASURE(5.E-06),#20,
  'distance_accuracy_value','confusion accuracy');
#24 = PRODUCT_RELATED_PRODUCT_CATEGORY('part',$,(#7));
#25 = SHAPE_DEFINITION_REPRESENTATION(#26,#32);
#26 = PRODUCT_DEFINITION_SHAPE('','',#27);
#27 = PRODUCT_DEFINITION('design','',#28,#31);
#28 = PRODUCT_DEFINITION_FORMATION('','',#29);
#29 = PRODUCT(
  'CAPTIVE_STOW-DOG_RADIAL_RETURN_SPRING_SS_STOWED_LOCAL_DEFINITION',
  'CAPTIVE_STOW-DOG_RADIAL_RETURN_SPRING_SS_STOWED_LOCAL_DEFINITION','',
  (#30));
#30 = PRODUCT_CONTEXT('',#2,'mechanical');
#31 = PRODUCT_DEFINITION_CONTEXT('part definition',#2,'design');
#32 = ADVANCED_BREP_SHAPE_REPRESENTATION('',(#11,#33),#273);
#33 = MANIFOLD_SOLID_BREP('',#34);
#34 = CLOSED_SHELL('',(#35,#265,#269));
#35 = ADVANCED_FACE('',(#36),#64,.F.);
#36 = FACE_BOUND('',#37,.F.);
#37 = EDGE_LOOP('',(#38,#196,#230,#231));
#38 = ORIENTED_EDGE('',*,*,#39,.T.);
#39 = EDGE_CURVE('',#40,#42,#44,.T.);
#40 = VERTEX_POINT('',#41);
#41 = CARTESIAN_POINT('',(0.6,4.163336342344E-17,5.E-02));
#42 = VERTEX_POINT('',#43);
#43 = CARTESIAN_POINT('',(-0.599999999982,-7.804844329579E-07,
    3.729998900614));
#44 = SEAM_CURVE('',#45,(#63,#189),.PCURVE_S1.);
#45 = ( BOUNDED_CURVE() B_SPLINE_CURVE(9,(#46,#47,#48,#49,#50,#51,#52,
    #53,#54,#55,#56,#57,#58,#59,#60,#61,#62),.UNSPECIFIED.,.F.,.F.) 
B_SPLINE_CURVE_WITH_KNOTS((10,7,10),(0.,5.058874371088,10.117748742176),
.UNSPECIFIED.) CURVE() GEOMETRIC_REPRESENTATION_ITEM() 
RATIONAL_B_SPLINE_CURVE((1.669078461068,1.669078461068,1.669078461068,
    1.669078461068,1.669078461068,1.669078461068,1.669078461068,
    1.669078461068,1.669078461068,1.669078461068,1.669078461068,
    1.669078461068,1.669078461068,1.669078461068,1.669078461068,
1.669078461068,1.669078461068)) REPRESENTATION_ITEM('') );
#46 = CARTESIAN_POINT('',(0.6,4.163336342344E-17,5.E-02));
#47 = CARTESIAN_POINT('',(0.6,0.314163675598,0.254442628566));
#48 = CARTESIAN_POINT('',(0.414919498015,0.628313237217,0.458872146171)
  );
#49 = CARTESIAN_POINT('',(4.513059755764E-02,0.817580033921,
    0.66338346786));
#50 = CARTESIAN_POINT('',(-0.413457289329,0.759821159874,0.867709942665)
  );
#51 = CARTESIAN_POINT('',(-0.759745309782,0.413353147285,1.072266823243)
  );
#52 = CARTESIAN_POINT('',(-0.817603919327,-4.505709019327E-02,
    1.276653637012));
#53 = CARTESIAN_POINT('',(-0.628317099143,-0.41494557132,1.481110166051)
  );
#54 = CARTESIAN_POINT('',(5.106006045841E-07,-0.785054757179,
    1.889999450308));
#55 = CARTESIAN_POINT('',(0.628317638912,-0.41494475401,2.298888734562)
  );
#56 = CARTESIAN_POINT('',(0.817603977648,-4.505602653186E-02,
    2.503345263599));
#57 = CARTESIAN_POINT('',(0.759744773031,0.413354135264,2.707732077373)
  );
#58 = CARTESIAN_POINT('',(0.4134562996,0.759821698064,2.912288957955));
#59 = CARTESIAN_POINT('',(-4.513166013575E-02,0.817579974991,
    3.116615432745));
#60 = CARTESIAN_POINT('',(-0.414920315539,0.628312697551,3.321126754451)
  );
#61 = CARTESIAN_POINT('',(-0.600000408751,0.314162895112,3.525556272044)
  );
#62 = CARTESIAN_POINT('',(-0.599999999982,-7.804844329579E-07,
    3.729998900614));
#63 = PCURVE('',#64,#184);
#64 = ( BOUNDED_SURFACE() B_SPLINE_SURFACE(6,9,(
    (#65,#66,#67,#68,#69,#70,#71,#72,#73,#74,#75,#76,#77,#78,#79,#80,#81
      )
    ,(#82,#83,#84,#85,#86,#87,#88,#89,#90,#91,#92,#93,#94,#95,#96,#97
      ,#98)
    ,(#99,#100,#101,#102,#103,#104,#105,#106,#107,#108,#109,#110,#111
      ,#112,#113,#114,#115)
    ,(#116,#117,#118,#119,#120,#121,#122,#123,#124,#125,#126,#127,#128
      ,#129,#130,#131,#132)
    ,(#133,#134,#135,#136,#137,#138,#139,#140,#141,#142,#143,#144,#145
      ,#146,#147,#148,#149)
    ,(#150,#151,#152,#153,#154,#155,#156,#157,#158,#159,#160,#161,#162
      ,#163,#164,#165,#166)
    ,(#167,#168,#169,#170,#171,#172,#173,#174,#175,#176,#177,#178,#179
      ,#180,#181,#182,#183
)),.UNSPECIFIED.,.T.,.F.,.F.) B_SPLINE_SURFACE_WITH_KNOTS((1,6,6,1),(10,
    7,10),(-6.28318530718,0.,6.28318530718,12.566370614359),(0.,
    5.058874371088,10.117748742176),.UNSPECIFIED.) 
GEOMETRIC_REPRESENTATION_ITEM() RATIONAL_B_SPLINE_SURFACE((
    (1.669078461068,1.669078461068,1.669078461068,1.669078461068
      ,1.669078461068,1.669078461068,1.669078461068,1.669078461068
      ,1.669078461068,1.669078461068,1.669078461068,1.669078461068
      ,1.669078461068,1.669078461068,1.669078461068,1.669078461068
      ,1.669078461068)
    ,(1.03672962321,1.03672962321,1.03672962321,1.03672962321
      ,1.03672962321,1.03672962321,1.03672962321,1.03672962321
      ,1.03672962321,1.03672962321,1.03672962321,1.03672962321
      ,1.03672962321,1.03672962321,1.03672962321,1.03672962321
      ,1.03672962321)
    ,(1.038346699848,1.038346699848,1.038346699848,1.038346699847
      ,1.038346699848,1.038346699847,1.038346699848,1.038346699848
      ,1.038346699847,1.038346699848,1.038346699847,1.038346699848
      ,1.038346699847,1.038346699848,1.038346699848,1.038346699848
      ,1.038346699848)
    ,(0.853534330196,0.853534330196,0.853534330196,0.853534330196
      ,0.853534330196,0.853534330196,0.853534330196,0.853534330196
      ,0.853534330196,0.853534330196,0.853534330196,0.853534330196
      ,0.853534330196,0.853534330196,0.853534330196,0.853534330196
      ,0.853534330196)
    ,(1.038346699848,1.038346699847,1.038346699848,1.038346699847
      ,1.038346699848,1.038346699847,1.038346699848,1.038346699847
      ,1.038346699848,1.038346699848,1.038346699847,1.038346699848
      ,1.038346699848,1.038346699847,1.038346699848,1.038346699848
      ,1.038346699848)
    ,(1.03672962321,1.03672962321,1.03672962321,1.03672962321
      ,1.03672962321,1.03672962321,1.03672962321,1.03672962321
      ,1.03672962321,1.03672962321,1.03672962321,1.03672962321
      ,1.036729623209,1.03672962321,1.03672962321,1.03672962321
      ,1.03672962321)
    ,(1.669078461068,1.669078461068,1.669078461068,1.669078461068
      ,1.669078461068,1.669078461068,1.669078461068,1.669078461068
      ,1.669078461068,1.669078461068,1.669078461068,1.669078461068
      ,1.669078461068,1.669078461068,1.669078461068,1.669078461068
,1.669078461068))) REPRESENTATION_ITEM('') SURFACE() );
#65 = CARTESIAN_POINT('',(0.6,4.163336342344E-17,5.E-02));
#66 = CARTESIAN_POINT('',(0.6,0.314163675598,0.254442628566));
#67 = CARTESIAN_POINT('',(0.414919498015,0.628313237217,0.458872146171)
  );
#68 = CARTESIAN_POINT('',(4.513059755764E-02,0.817580033921,
    0.66338346786));
#69 = CARTESIAN_POINT('',(-0.413457289329,0.759821159874,0.867709942665)
  );
#70 = CARTESIAN_POINT('',(-0.759745309782,0.413353147285,1.072266823243)
  );
#71 = CARTESIAN_POINT('',(-0.817603919327,-4.505709019327E-02,
    1.276653637012));
#72 = CARTESIAN_POINT('',(-0.628317099143,-0.41494557132,1.481110166051)
  );
#73 = CARTESIAN_POINT('',(5.106006045841E-07,-0.785054757179,
    1.889999450308));
#74 = CARTESIAN_POINT('',(0.628317638912,-0.41494475401,2.298888734562)
  );
#75 = CARTESIAN_POINT('',(0.817603977648,-4.505602653186E-02,
    2.503345263599));
#76 = CARTESIAN_POINT('',(0.759744773031,0.413354135264,2.707732077373)
  );
#77 = CARTESIAN_POINT('',(0.4134562996,0.759821698064,2.912288957955));
#78 = CARTESIAN_POINT('',(-4.513166013575E-02,0.817579974991,
    3.116615432745));
#79 = CARTESIAN_POINT('',(-0.414920315539,0.628312697551,3.321126754451)
  );
#80 = CARTESIAN_POINT('',(-0.600000408751,0.314162895112,3.525556272044)
  );
#81 = CARTESIAN_POINT('',(-0.599999999982,-7.804844329579E-07,
    3.729998900614));
#82 = CARTESIAN_POINT('',(0.6,1.387778780781E-16,0.133077153779));
#83 = CARTESIAN_POINT('',(0.600003017159,0.314164153878,0.337519782345)
  );
#84 = CARTESIAN_POINT('',(0.414946753209,0.628315970831,0.541949299823)
  );
#85 = CARTESIAN_POINT('',(4.504604104007E-02,0.817573799952,
    0.746460621951));
#86 = CARTESIAN_POINT('',(-0.413344853222,0.759836175728,0.950787096036)
  );
#87 = CARTESIAN_POINT('',(-0.759823435172,0.413341052751,1.155343977274)
  );
#88 = CARTESIAN_POINT('',(-0.817582001321,-4.505168947588E-02,
    1.359730790728));
#89 = CARTESIAN_POINT('',(-0.628318292402,-0.414946794256,1.564187319816
    ));
#90 = CARTESIAN_POINT('',(6.220807997332E-07,-0.785055952211,
    1.973076604083));
#91 = CARTESIAN_POINT('',(0.628318358535,-0.414944794363,2.381965888341)
  );
#92 = CARTESIAN_POINT('',(0.817628384921,-4.506156446124E-02,
    2.586422417771));
#93 = CARTESIAN_POINT('',(0.759668960339,0.41336748841,2.790809229754));
#94 = CARTESIAN_POINT('',(0.413569994884,0.759808995116,2.995366113785)
  );
#95 = CARTESIAN_POINT('',(-4.521635434319E-02,0.817588698477,
    3.199692584984));
#96 = CARTESIAN_POINT('',(-0.414894323457,0.628311876478,3.404203908695)
  );
#97 = CARTESIAN_POINT('',(-0.599999218274,0.314163373425,3.608633425869)
  );
#98 = CARTESIAN_POINT('',(-0.600001826659,-7.80498584832E-07,
    3.813076054372));
#99 = CARTESIAN_POINT('',(0.497272590473,3.053113317719E-16,
    0.145005619162));
#100 = CARTESIAN_POINT('',(0.497276040845,0.260367215653,0.349451978537)
  );
#101 = CARTESIAN_POINT('',(0.343917648324,0.520759465664,0.553912163911)
  );
#102 = CARTESIAN_POINT('',(3.729158410055E-02,0.677569246893,
    0.758286083575));
#103 = CARTESIAN_POINT('',(-0.342514960636,0.629766969198,0.962854931874
    ));
#104 = CARTESIAN_POINT('',(-0.629774180216,0.342559471236,1.167180807745
    ));
#105 = CARTESIAN_POINT('',(-0.677589136965,-3.73334252344E-02,
    1.371686026156));
#106 = CARTESIAN_POINT('',(-0.520743622088,-0.343902144237,
    1.576117726869));
#107 = CARTESIAN_POINT('',(-4.109661080163E-07,-0.650645290772,
    1.985006198834));
#108 = CARTESIAN_POINT('',(0.520742511235,-0.343901653747,2.393894670797
    ));
#109 = CARTESIAN_POINT('',(0.677642052266,-3.734705616768E-02,
    2.598326371905));
#110 = CARTESIAN_POINT('',(0.629598705272,0.342587530902,2.802831588619)
  );
#111 = CARTESIAN_POINT('',(0.342774604368,0.629734702896,3.007157467687)
  );
#112 = CARTESIAN_POINT('',(-3.748401581252E-02,0.677586414128,
    3.211726312705));
#113 = CARTESIAN_POINT('',(-0.343855893527,0.520755969687,3.416100234151
    ));
#114 = CARTESIAN_POINT('',(-0.497270798015,0.260368038751,3.620560419198
    ));
#115 = CARTESIAN_POINT('',(-0.497274679449,8.230422898492E-07,
    3.825006778495));
#116 = CARTESIAN_POINT('',(0.41254415395,-1.387778780781E-17,5.E-02));
#117 = CARTESIAN_POINT('',(0.412544153949,0.215995489625,0.254449436505)
  );
#118 = CARTESIAN_POINT('',(0.285299228236,0.432044594371,0.458934916581)
  );
#119 = CARTESIAN_POINT('',(3.100250443624E-02,0.562102900066,
    0.663195507652));
#120 = CARTESIAN_POINT('',(-0.284237140288,0.522468369355,0.867964264441
    ));
#121 = CARTESIAN_POINT('',(-0.522412391435,0.284194865396,1.072099608798
    ));
#122 = CARTESIAN_POINT('',(-0.562152224242,-3.09743016051E-02,
    1.27670248671));
#123 = CARTESIAN_POINT('',(-0.432015712325,-0.285303755628,
    1.481113709191));
#124 = CARTESIAN_POINT('',(-1.403700777973E-06,-0.53978334871,
    1.890001511166));
#125 = CARTESIAN_POINT('',(0.432014228438,-0.285306002507,2.298889313152
    ));
#126 = CARTESIAN_POINT('',(0.562152063914,-3.09772257361E-02,
    2.503300535638));
#127 = CARTESIAN_POINT('',(0.522413867019,0.28419214933,2.707903413529)
  );
#128 = CARTESIAN_POINT('',(0.284239861178,0.522466889803,2.912038757896)
  );
#129 = CARTESIAN_POINT('',(-3.099958329063E-02,0.562103062071,
    3.116807514702));
#130 = CARTESIAN_POINT('',(-0.285296980767,0.432046077976,3.321068105743
    ));
#131 = CARTESIAN_POINT('',(-0.412543030244,0.215997635273,3.525553585844
    ));
#132 = CARTESIAN_POINT('',(-0.412544153999,2.14564301039E-06,
    3.730003022341));
#133 = CARTESIAN_POINT('',(0.497272590473,2.359223927328E-16,
    -4.500561916228E-02));
#134 = CARTESIAN_POINT('',(0.4972691401,0.260366121748,0.159440740213));
#135 = CARTESIAN_POINT('',(0.343855311174,0.520753213433,0.363900925875)
  );
#136 = CARTESIAN_POINT('',(3.748497888933E-02,0.677583505014,
    0.568274844537));
#137 = CARTESIAN_POINT('',(-0.342772120674,0.629732625446,0.77284369448)
  );
#138 = CARTESIAN_POINT('',(-0.629595494485,0.342587133443,0.977169568844
    ));
#139 = CARTESIAN_POINT('',(-0.677639267082,-3.734577757141E-02,
    1.181674787975));
#140 = CARTESIAN_POINT('',(-0.520740892907,-0.343899347179,
    1.386106488575));
#141 = CARTESIAN_POINT('',(-6.659398044651E-07,-0.650642557535,
    1.794994960518));
#142 = CARTESIAN_POINT('',(0.520740865337,-0.343901561454,2.203883432471
    ));
#143 = CARTESIAN_POINT('',(0.67758622878,-3.733439000408E-02,
    2.408315132681));
#144 = CARTESIAN_POINT('',(0.629772101481,0.342556990039,2.61282035349)
  );
#145 = CARTESIAN_POINT('',(0.342514564386,0.629763756648,2.817146224671)
  );
#146 = CARTESIAN_POINT('',(-3.729030610409E-02,0.677566462068,
    3.021715077901));
#147 = CARTESIAN_POINT('',(-0.343915341733,0.520757847617,3.226088994762
    ));
#148 = CARTESIAN_POINT('',(-0.497273520834,0.26036694477,3.430549180768)
  );
#149 = CARTESIAN_POINT('',(-0.497270501534,8.230746568888E-07,
    3.634995540216));
#150 = CARTESIAN_POINT('',(0.6,-8.326672684689E-17,-3.307715377855E-02)
  );
#151 = CARTESIAN_POINT('',(0.599996982841,0.314163197319,0.171365474788)
  );
#152 = CARTESIAN_POINT('',(0.414892242822,0.628310503602,0.375794992519)
  );
#153 = CARTESIAN_POINT('',(4.521515407515E-02,0.81758626789,
    0.580306313769));
#154 = CARTESIAN_POINT('',(-0.413569725437,0.759806144019,0.784632789293
    ));
#155 = CARTESIAN_POINT('',(-0.759667184393,0.413365241819,0.989189669212
    ));
#156 = CARTESIAN_POINT('',(-0.817625837333,-4.506249091069E-02,
    1.193576483297));
#157 = CARTESIAN_POINT('',(-0.628315905884,-0.414944348383,
    1.398033012286));
#158 = CARTESIAN_POINT('',(3.991204214365E-07,-0.785053562147,
    1.806922296534));
#159 = CARTESIAN_POINT('',(0.628316919289,-0.414944713658,2.215811580782
    ));
#160 = CARTESIAN_POINT('',(0.817579570374,-4.505048860245E-02,
    2.420268109428));
#161 = CARTESIAN_POINT('',(0.759820585723,0.413340782117,2.624654924992)
  );
#162 = CARTESIAN_POINT('',(0.413342604317,0.759834401013,2.829211802125)
  );
#163 = CARTESIAN_POINT('',(-4.504696592829E-02,0.817571251505,
    3.033538280506));
#164 = CARTESIAN_POINT('',(-0.414946307621,0.628313518624,3.238049600208
    ));
#165 = CARTESIAN_POINT('',(-0.600001599228,0.314162416799,3.442479118219
    ));
#166 = CARTESIAN_POINT('',(-0.599998173304,-7.804702821385E-07,
    3.646921746855));
#167 = CARTESIAN_POINT('',(0.6,4.163336342344E-17,5.E-02));
#168 = CARTESIAN_POINT('',(0.6,0.314163675598,0.254442628566));
#169 = CARTESIAN_POINT('',(0.414919498015,0.628313237217,0.458872146171)
  );
#170 = CARTESIAN_POINT('',(4.513059755764E-02,0.817580033921,
    0.66338346786));
#171 = CARTESIAN_POINT('',(-0.413457289329,0.759821159874,0.867709942665
    ));
#172 = CARTESIAN_POINT('',(-0.759745309782,0.413353147285,1.072266823243
    ));
#173 = CARTESIAN_POINT('',(-0.817603919327,-4.505709019327E-02,
    1.276653637012));
#174 = CARTESIAN_POINT('',(-0.628317099143,-0.41494557132,1.481110166051
    ));
#175 = CARTESIAN_POINT('',(5.106006045841E-07,-0.785054757179,
    1.889999450308));
#176 = CARTESIAN_POINT('',(0.628317638912,-0.41494475401,2.298888734562)
  );
#177 = CARTESIAN_POINT('',(0.817603977648,-4.505602653186E-02,
    2.503345263599));
#178 = CARTESIAN_POINT('',(0.759744773031,0.413354135264,2.707732077373)
  );
#179 = CARTESIAN_POINT('',(0.4134562996,0.759821698064,2.912288957955));
#180 = CARTESIAN_POINT('',(-4.513166013575E-02,0.817579974991,
    3.116615432745));
#181 = CARTESIAN_POINT('',(-0.414920315539,0.628312697551,3.321126754451
    ));
#182 = CARTESIAN_POINT('',(-0.600000408751,0.314162895112,3.525556272044
    ));
#183 = CARTESIAN_POINT('',(-0.599999999982,-7.804844329579E-07,
    3.729998900614));
#184 = DEFINITIONAL_REPRESENTATION('',(#185),#188);
#185 = B_SPLINE_CURVE_WITH_KNOTS('',1,(#186,#187),.UNSPECIFIED.,.F.,.F.,
  (2,2),(0.,10.117748742176),.PIECEWISE_BEZIER_KNOTS.);
#186 = CARTESIAN_POINT('',(6.28318530718,0.));
#187 = CARTESIAN_POINT('',(6.28318530718,10.117748742176));
#188 = ( GEOMETRIC_REPRESENTATION_CONTEXT(2) 
PARAMETRIC_REPRESENTATION_CONTEXT() REPRESENTATION_CONTEXT('2D SPACE',''
  ) );
#189 = PCURVE('',#64,#190);
#190 = DEFINITIONAL_REPRESENTATION('',(#191),#195);
#191 = LINE('',#192,#193);
#192 = CARTESIAN_POINT('',(0.,0.));
#193 = VECTOR('',#194,1.);
#194 = DIRECTION('',(0.,1.));
#195 = ( GEOMETRIC_REPRESENTATION_CONTEXT(2) 
PARAMETRIC_REPRESENTATION_CONTEXT() REPRESENTATION_CONTEXT('2D SPACE',''
  ) );
#196 = ORIENTED_EDGE('',*,*,#197,.F.);
#197 = EDGE_CURVE('',#42,#42,#198,.T.);
#198 = SURFACE_CURVE('',#199,(#207,#214),.PCURVE_S1.);
#199 = ( BOUNDED_CURVE() B_SPLINE_CURVE(6,(#200,#201,#202,#203,#204,#205
,#206),.UNSPECIFIED.,.T.,.F.) B_SPLINE_CURVE_WITH_KNOTS((1,6,6,1),(
    -6.28318530718,0.,6.28318530718,12.566370614359),.UNSPECIFIED.) 
CURVE() GEOMETRIC_REPRESENTATION_ITEM() RATIONAL_B_SPLINE_CURVE((
    1.669078461068,1.03672962321,1.038346699848,0.853534330196,
1.038346699848,1.03672962321,1.669078461068)) REPRESENTATION_ITEM('') );
#200 = CARTESIAN_POINT('',(-0.599999999982,-7.804844329579E-07,
    3.729998900614));
#201 = CARTESIAN_POINT('',(-0.600001826659,-7.80498584832E-07,
    3.813076054372));
#202 = CARTESIAN_POINT('',(-0.497274679449,8.230422898492E-07,
    3.825006778495));
#203 = CARTESIAN_POINT('',(-0.412544153999,2.14564301039E-06,
    3.730003022341));
#204 = CARTESIAN_POINT('',(-0.497270501534,8.230746568888E-07,
    3.634995540216));
#205 = CARTESIAN_POINT('',(-0.599998173304,-7.804702821385E-07,
    3.646921746855));
#206 = CARTESIAN_POINT('',(-0.599999999982,-7.804844329579E-07,
    3.729998900614));
#207 = PCURVE('',#64,#208);
#208 = DEFINITIONAL_REPRESENTATION('',(#209),#213);
#209 = LINE('',#210,#211);
#210 = CARTESIAN_POINT('',(0.,10.117748742176));
#211 = VECTOR('',#212,1.);
#212 = DIRECTION('',(1.,0.));
#213 = ( GEOMETRIC_REPRESENTATION_CONTEXT(2) 
PARAMETRIC_REPRESENTATION_CONTEXT() REPRESENTATION_CONTEXT('2D SPACE',''
  ) );
#214 = PCURVE('',#215,#220);
#215 = PLANE('',#216);
#216 = AXIS2_PLACEMENT_3D('',#217,#218,#219);
#217 = CARTESIAN_POINT('',(-0.550007921162,-1.23633909692E-10,
    3.729999999826));
#218 = DIRECTION('',(-1.560968892045E-05,0.999999999878,
    -1.72880386523E-10));
#219 = DIRECTION('',(0.999999999878,1.560968892045E-05,0.));
#220 = DEFINITIONAL_REPRESENTATION('',(#221),#229);
#221 = ( BOUNDED_CURVE() B_SPLINE_CURVE(6,(#222,#223,#224,#225,#226,#227
,#228),.UNSPECIFIED.,.T.,.F.) B_SPLINE_CURVE_WITH_KNOTS((1,6,6,1),(
    -6.28318530718,0.,6.28318530718,12.566370614359),.UNSPECIFIED.) 
CURVE() GEOMETRIC_REPRESENTATION_ITEM() RATIONAL_B_SPLINE_CURVE((
    1.669078461068,1.03672962321,1.038346699848,0.853534330196,
1.038346699848,1.03672962321,1.669078461068)) REPRESENTATION_ITEM('') );
#222 = CARTESIAN_POINT('',(-4.999207882617E-02,1.099211964117E-06));
#223 = CARTESIAN_POINT('',(-4.999390550359E-02,-8.307605454651E-02));
#224 = CARTESIAN_POINT('',(5.273324171919E-02,-9.500677866914E-02));
#225 = CARTESIAN_POINT('',(0.137463767179,-3.022515195905E-06));
#226 = CARTESIAN_POINT('',(5.273741963361E-02,9.500445960949E-02));
#227 = CARTESIAN_POINT('',(-4.999025214875E-02,8.307825297043E-02));
#228 = CARTESIAN_POINT('',(-4.999207882617E-02,1.099211964117E-06));
#229 = ( GEOMETRIC_REPRESENTATION_CONTEXT(2) 
PARAMETRIC_REPRESENTATION_CONTEXT() REPRESENTATION_CONTEXT('2D SPACE',''
  ) );
#230 = ORIENTED_EDGE('',*,*,#39,.F.);
#231 = ORIENTED_EDGE('',*,*,#232,.T.);
#232 = EDGE_CURVE('',#40,#40,#233,.T.);
#233 = SURFACE_CURVE('',#234,(#242,#249),.PCURVE_S1.);
#234 = ( BOUNDED_CURVE() B_SPLINE_CURVE(6,(#235,#236,#237,#238,#239,#240
,#241),.UNSPECIFIED.,.T.,.F.) B_SPLINE_CURVE_WITH_KNOTS((1,6,6,1),(
    -6.28318530718,0.,6.28318530718,12.566370614359),.UNSPECIFIED.) 
CURVE() GEOMETRIC_REPRESENTATION_ITEM() RATIONAL_B_SPLINE_CURVE((
    1.669078461068,1.03672962321,1.038346699848,0.853534330196,
1.038346699848,1.03672962321,1.669078461068)) REPRESENTATION_ITEM('') );
#235 = CARTESIAN_POINT('',(0.6,4.163336342344E-17,5.E-02));
#236 = CARTESIAN_POINT('',(0.6,1.387778780781E-16,0.133077153779));
#237 = CARTESIAN_POINT('',(0.497272590473,3.053113317719E-16,
    0.145005619162));
#238 = CARTESIAN_POINT('',(0.41254415395,-1.387778780781E-17,5.E-02));
#239 = CARTESIAN_POINT('',(0.497272590473,2.359223927328E-16,
    -4.500561916228E-02));
#240 = CARTESIAN_POINT('',(0.6,-8.326672684689E-17,-3.307715377855E-02)
  );
#241 = CARTESIAN_POINT('',(0.6,4.163336342344E-17,5.E-02));
#242 = PCURVE('',#64,#243);
#243 = DEFINITIONAL_REPRESENTATION('',(#244),#248);
#244 = LINE('',#245,#246);
#245 = CARTESIAN_POINT('',(0.,0.));
#246 = VECTOR('',#247,1.);
#247 = DIRECTION('',(1.,0.));
#248 = ( GEOMETRIC_REPRESENTATION_CONTEXT(2) 
PARAMETRIC_REPRESENTATION_CONTEXT() REPRESENTATION_CONTEXT('2D SPACE',''
  ) );
#249 = PCURVE('',#250,#255);
#250 = PLANE('',#251);
#251 = AXIS2_PLACEMENT_3D('',#252,#253,#254);
#252 = CARTESIAN_POINT('',(0.550007921162,9.483517742622E-17,5.E-02));
#253 = DIRECTION('',(-9.30971186099E-16,-1.,9.045330030967E-16));
#254 = DIRECTION('',(-1.,9.30971186099E-16,0.));
#255 = DEFINITIONAL_REPRESENTATION('',(#256),#264);
#256 = ( BOUNDED_CURVE() B_SPLINE_CURVE(6,(#257,#258,#259,#260,#261,#262
,#263),.UNSPECIFIED.,.T.,.F.) B_SPLINE_CURVE_WITH_KNOTS((1,6,6,1),(
    -6.28318530718,0.,6.28318530718,12.566370614359),.UNSPECIFIED.) 
CURVE() GEOMETRIC_REPRESENTATION_ITEM() RATIONAL_B_SPLINE_CURVE((
    1.669078461068,1.03672962321,1.038346699848,0.853534330196,
1.038346699848,1.03672962321,1.669078461068)) REPRESENTATION_ITEM('') );
#257 = CARTESIAN_POINT('',(-4.999207883826E-02,-2.636779683485E-16));
#258 = CARTESIAN_POINT('',(-4.999207883826E-02,-8.307715377855E-02));
#259 = CARTESIAN_POINT('',(5.273533068915E-02,-9.500561916228E-02));
#260 = CARTESIAN_POINT('',(0.137463767212,-4.857225732735E-16));
#261 = CARTESIAN_POINT('',(5.273533068915E-02,9.500561916228E-02));
#262 = CARTESIAN_POINT('',(-4.999207883826E-02,8.307715377855E-02));
#263 = CARTESIAN_POINT('',(-4.999207883826E-02,-2.636779683485E-16));
#264 = ( GEOMETRIC_REPRESENTATION_CONTEXT(2) 
PARAMETRIC_REPRESENTATION_CONTEXT() REPRESENTATION_CONTEXT('2D SPACE',''
  ) );
#265 = ADVANCED_FACE('',(#266),#250,.T.);
#266 = FACE_BOUND('',#267,.T.);
#267 = EDGE_LOOP('',(#268));
#268 = ORIENTED_EDGE('',*,*,#232,.T.);
#269 = ADVANCED_FACE('',(#270),#215,.F.);
#270 = FACE_BOUND('',#271,.F.);
#271 = EDGE_LOOP('',(#272));
#272 = ORIENTED_EDGE('',*,*,#197,.T.);
#273 = ( GEOMETRIC_REPRESENTATION_CONTEXT(3) 
GLOBAL_UNCERTAINTY_ASSIGNED_CONTEXT((#277)) GLOBAL_UNIT_ASSIGNED_CONTEXT
((#274,#275,#276)) REPRESENTATION_CONTEXT('Context #1',
  '3D Context with UNIT and UNCERTAINTY') );
#274 = ( LENGTH_UNIT() NAMED_UNIT(*) SI_UNIT(.MILLI.,.METRE.) );
#275 = ( NAMED_UNIT(*) PLANE_ANGLE_UNIT() SI_UNIT($,.RADIAN.) );
#276 = ( NAMED_UNIT(*) SI_UNIT($,.STERADIAN.) SOLID_ANGLE_UNIT() );
#277 = UNCERTAINTY_MEASURE_WITH_UNIT(LENGTH_MEASURE(5.E-06),#274,
  'distance_accuracy_value','confusion accuracy');
#278 = CONTEXT_DEPENDENT_SHAPE_REPRESENTATION(#279,#281);
#279 = ( REPRESENTATION_RELATIONSHIP('','',#32,#10) 
REPRESENTATION_RELATIONSHIP_WITH_TRANSFORMATION(#280) 
SHAPE_REPRESENTATION_RELATIONSHIP() );
#280 = ITEM_DEFINED_TRANSFORMATION('','',#11,#15);
#281 = PRODUCT_DEFINITION_SHAPE('Placement','Placement of an item',#282
  );
#282 = NEXT_ASSEMBLY_USAGE_OCCURRENCE('32',
  'CAPTIVE_STOW-DOG_RADIAL_RETURN_SPRING_SS_STOWED_LOCAL_DEFINITION','',
  #5,#27,$);
#283 = PRODUCT_RELATED_PRODUCT_CATEGORY('part',$,(#29));
#284 = MECHANICAL_DESIGN_GEOMETRIC_PRESENTATION_REPRESENTATION('',(#285)
  ,#273);
#285 = STYLED_ITEM('color',(#286),#33);
#286 = PRESENTATION_STYLE_ASSIGNMENT((#287));
#287 = SURFACE_STYLE_USAGE(.BOTH.,#288);
#288 = SURFACE_SIDE_STYLE('',(#289));
#289 = SURFACE_STYLE_FILL_AREA(#290);
#290 = FILL_AREA_STYLE('',(#291));
#291 = FILL_AREA_STYLE_COLOUR('',#292);
#292 = COLOUR_RGB('',0.789999995908,0.430000007837,0.149999997808);
ENDSEC;
END-ISO-10303-21;
