ISO-10303-21;
HEADER;
FILE_DESCRIPTION(('Open CASCADE Model'),'2;1');
FILE_NAME('Open CASCADE Shape Model','2026-08-26T03:20:22',('Author'),(
    'Open CASCADE'),'Open CASCADE STEP processor 7.9','Open CASCADE 7.9'
  ,'Unknown');
FILE_SCHEMA((
'AP242_MANAGED_MODEL_BASED_3D_ENGINEERING_MIM_LF {1 0 10303 442 1 1 4 }'
    ));
ENDSEC;
DATA;
#1 = APPLICATION_PROTOCOL_DEFINITION('international standard',
  'ap242_managed_model_based_3d_engineering',2013,#2);
#2 = APPLICATION_CONTEXT('Managed model based 3d engineering');
#3 = SHAPE_DEFINITION_REPRESENTATION(#4,#10);
#4 = PRODUCT_DEFINITION_SHAPE('','',#5);
#5 = PRODUCT_DEFINITION('design','',#6,#9);
#6 = PRODUCT_DEFINITION_FORMATION('','',#7);
#7 = PRODUCT(
'CAPTIVE_LONG-STROKE_AUTOMATIC-LOCK_COMPRESSION_SPRING_SS_DEPLOYED_PART'
  ,
'CAPTIVE_LONG-STROKE_AUTOMATIC-LOCK_COMPRESSION_SPRING_SS_DEPLOYED_PART'
  ,'',(#8));
#8 = PRODUCT_CONTEXT('',#2,'mechanical');
#9 = PRODUCT_DEFINITION_CONTEXT('part definition',#2,'design');
#10 = SHAPE_REPRESENTATION('',(#11,#15),#19);
#11 = AXIS2_PLACEMENT_3D('',#12,#13,#14);
#12 = CARTESIAN_POINT('',(0.,0.,0.));
#13 = DIRECTION('',(0.,0.,1.));
#14 = DIRECTION('',(1.,0.,-0.));
#15 = AXIS2_PLACEMENT_3D('',#16,#17,#18);
#16 = CARTESIAN_POINT('',(0.,0.,0.));
#17 = DIRECTION('',(0.,0.,1.));
#18 = DIRECTION('',(1.,0.,-0.));
#19 = ( GEOMETRIC_REPRESENTATION_CONTEXT(3) 
GLOBAL_UNCERTAINTY_ASSIGNED_CONTEXT((#23)) GLOBAL_UNIT_ASSIGNED_CONTEXT(
(#20,#21,#22)) REPRESENTATION_CONTEXT('Context #1',
  '3D Context with UNIT and UNCERTAINTY') );
#20 = ( LENGTH_UNIT() NAMED_UNIT(*) SI_UNIT(.MILLI.,.METRE.) );
#21 = ( NAMED_UNIT(*) PLANE_ANGLE_UNIT() SI_UNIT($,.RADIAN.) );
#22 = ( NAMED_UNIT(*) SI_UNIT($,.STERADIAN.) SOLID_ANGLE_UNIT() );
#23 = UNCERTAINTY_MEASURE_WITH_UNIT(LENGTH_MEASURE(1.E-05),#20,
  'distance_accuracy_value','confusion accuracy');
#24 = PRODUCT_RELATED_PRODUCT_CATEGORY('part',$,(#7));
#25 = SHAPE_DEFINITION_REPRESENTATION(#26,#32);
#26 = PRODUCT_DEFINITION_SHAPE('','',#27);
#27 = PRODUCT_DEFINITION('design','',#28,#31);
#28 = PRODUCT_DEFINITION_FORMATION('','',#29);
#29 = PRODUCT(
'CAPTIVE_LONG-STROKE_AUTOMATIC-LOCK_COMPRESSION_SPRING_SS_DEPLOYED_
LOCAL_DEFINITION',
'CAPTIVE_LONG-STROKE_AUTOMATIC-LOCK_COMPRESSION_SPRING_SS_DEPLOYED_
LOCAL_DEFINITION','',(#30));
#30 = PRODUCT_CONTEXT('',#2,'mechanical');
#31 = PRODUCT_DEFINITION_CONTEXT('part definition',#2,'design');
#32 = ADVANCED_BREP_SHAPE_REPRESENTATION('',(#11,#33),#465);
#33 = MANIFOLD_SOLID_BREP('',#34);
#34 = CLOSED_SHELL('',(#35,#457,#461));
#35 = ADVANCED_FACE('',(#36),#88,.F.);
#36 = FACE_BOUND('',#37,.F.);
#37 = EDGE_LOOP('',(#38,#388,#422,#423));
#38 = ORIENTED_EDGE('',*,*,#39,.T.);
#39 = EDGE_CURVE('',#40,#42,#44,.T.);
#40 = VERTEX_POINT('',#41);
#41 = CARTESIAN_POINT('',(0.8,-1.029992063861E-17,8.E-02));
#42 = VERTEX_POINT('',#43);
#43 = CARTESIAN_POINT('',(0.799999999986,-3.77880645643E-07,
    4.87000142755));
#44 = SEAM_CURVE('',#45,(#87,#381),.PCURVE_S1.);
#45 = ( BOUNDED_CURVE() B_SPLINE_CURVE(10,(#46,#47,#48,#49,#50,#51,#52,
    #53,#54,#55,#56,#57,#58,#59,#60,#61,#62,#63,#64,#65,#66,#67,#68,#69,
    #70,#71,#72,#73,#74,#75,#76,#77,#78,#79,#80,#81,#82,#83,#84,#85,#86)
,.UNSPECIFIED.,.F.,.F.) B_SPLINE_CURVE_WITH_KNOTS((11,10,10,10,11),(0.,
    6.396282033678,12.792564067357,19.188846101035,25.585128134714),
.PIECEWISE_BEZIER_KNOTS.) CURVE() GEOMETRIC_REPRESENTATION_ITEM() 
RATIONAL_B_SPLINE_CURVE((1.669078461068,1.669078461068,1.669078461068,
    1.669078461068,1.669078461068,1.669078461069,1.669078461068,
    1.669078461068,1.669078461068,1.669078461068,1.669078461068,
    1.669078461068,1.669078461068,1.669078461069,1.669078461067,
    1.669078461069,1.669078461067,1.669078461069,1.669078461068,
    1.669078461068,1.669078461068,1.669078461068,1.669078461068,
    1.669078461068,1.669078461069,1.669078461068,1.669078461069,
    1.669078461068,1.669078461068,1.669078461068,1.669078461068,
    1.669078461068,1.669078461068,1.669078461069,1.669078461068,
    1.669078461069,1.669078461068,1.669078461069,1.669078461068,
1.669078461068,1.669078461068)) REPRESENTATION_ITEM('') );
#46 = CARTESIAN_POINT('',(0.8,-1.029992063861E-17,8.E-02));
#47 = CARTESIAN_POINT('',(0.8,0.502653128106,0.19975745088));
#48 = CARTESIAN_POINT('',(0.449157177184,1.005718042028,0.319479539489)
  );
#49 = CARTESIAN_POINT('',(-0.253352550193,1.229906937133,0.439285907122)
  );
#50 = CARTESIAN_POINT('',(-1.055551715608,0.915825854795,0.558971184099)
  );
#51 = CARTESIAN_POINT('',(-1.480503061651,3.496785429674E-07,
    0.678750713741));
#52 = CARTESIAN_POINT('',(-1.055552148724,-0.915825356231,0.798530243509
    ));
#53 = CARTESIAN_POINT('',(-0.253353130506,-1.229906817456,0.918215520397
    ));
#54 = CARTESIAN_POINT('',(0.449156701742,-1.005718254187,1.038021888073)
  );
#55 = CARTESIAN_POINT('',(0.799999762698,-0.502653505986,1.157743976669)
  );
#56 = CARTESIAN_POINT('',(0.799999999986,-3.778805604754E-07,
    1.27750142755));
#57 = CARTESIAN_POINT('',(0.800000000026,0.502653857026,1.39725469718));
#58 = CARTESIAN_POINT('',(0.449157177144,1.005716926463,1.516983753848)
  );
#59 = CARTESIAN_POINT('',(-0.253352550144,1.22990832341,1.636780670074)
  );
#60 = CARTESIAN_POINT('',(-1.055551715658,0.915824443134,1.75647651704)
  );
#61 = CARTESIAN_POINT('',(-1.480503061611,1.526064979545E-06,
    1.876246269623));
#62 = CARTESIAN_POINT('',(-1.05555214875,-0.915826148393,1.996033236108)
  );
#63 = CARTESIAN_POINT('',(-0.253353130493,-1.229906399116,2.11571394001)
  );
#64 = CARTESIAN_POINT('',(0.449156701738,-1.005718416171,2.235522500008)
  );
#65 = CARTESIAN_POINT('',(0.799999762699,-0.502653468198,2.355243833913)
  );
#66 = CARTESIAN_POINT('',(0.799999999986,-3.778807283871E-07,
    2.475001427551));
#67 = CARTESIAN_POINT('',(0.800000000026,0.502653857026,2.594754697179)
  );
#68 = CARTESIAN_POINT('',(0.449157177144,1.005716926463,2.71448375385));
#69 = CARTESIAN_POINT('',(-0.253352550144,1.22990832341,2.834280670072)
  );
#70 = CARTESIAN_POINT('',(-1.055551715658,0.915824443135,2.953976517043)
  );
#71 = CARTESIAN_POINT('',(-1.480503061611,1.526063461217E-06,
    3.07374626962));
#72 = CARTESIAN_POINT('',(-1.055552148751,-0.915826148391,3.19353323611)
  );
#73 = CARTESIAN_POINT('',(-0.253353130493,-1.229906399117,3.313213940009
    ));
#74 = CARTESIAN_POINT('',(0.449156701737,-1.005718416171,3.433022500008)
  );
#75 = CARTESIAN_POINT('',(0.799999762699,-0.502653468198,3.552743833913)
  );
#76 = CARTESIAN_POINT('',(0.799999999986,-3.778807196041E-07,
    3.672501427551));
#77 = CARTESIAN_POINT('',(0.800000000026,0.502653857026,3.792254697179)
  );
#78 = CARTESIAN_POINT('',(0.449157177144,1.005716926464,3.911983753849)
  );
#79 = CARTESIAN_POINT('',(-0.253352550143,1.229908323409,4.031780670074)
  );
#80 = CARTESIAN_POINT('',(-1.055551715659,0.915824443136,4.151476517041)
  );
#81 = CARTESIAN_POINT('',(-1.48050306161,1.526061913321E-06,
    4.271246269622));
#82 = CARTESIAN_POINT('',(-1.055552148752,-0.91582614839,4.391033236108)
  );
#83 = CARTESIAN_POINT('',(-0.253353130492,-1.229906399118,4.510713940012
    ));
#84 = CARTESIAN_POINT('',(0.449156701737,-1.00571841617,4.630522500007)
  );
#85 = CARTESIAN_POINT('',(0.799999762699,-0.502653468198,4.750243833914)
  );
#86 = CARTESIAN_POINT('',(0.799999999986,-3.77880645643E-07,
    4.87000142755));
#87 = PCURVE('',#88,#376);
#88 = ( BOUNDED_SURFACE() B_SPLINE_SURFACE(6,10,(
    (#89,#90,#91,#92,#93,#94,#95,#96,#97,#98,#99,#100,#101,#102,#103
      ,#104,#105,#106,#107,#108,#109,#110,#111,#112,#113,#114,#115,#116
      ,#117,#118,#119,#120,#121,#122,#123,#124,#125,#126,#127,#128,#129)
    ,(#130,#131,#132,#133,#134,#135,#136,#137,#138,#139,#140,#141,#142
      ,#143,#144,#145,#146,#147,#148,#149,#150,#151,#152,#153,#154,#155
      ,#156,#157,#158,#159,#160,#161,#162,#163,#164,#165,#166,#167,#168
      ,#169,#170)
    ,(#171,#172,#173,#174,#175,#176,#177,#178,#179,#180,#181,#182,#183
      ,#184,#185,#186,#187,#188,#189,#190,#191,#192,#193,#194,#195,#196
      ,#197,#198,#199,#200,#201,#202,#203,#204,#205,#206,#207,#208,#209
      ,#210,#211)
    ,(#212,#213,#214,#215,#216,#217,#218,#219,#220,#221,#222,#223,#224
      ,#225,#226,#227,#228,#229,#230,#231,#232,#233,#234,#235,#236,#237
      ,#238,#239,#240,#241,#242,#243,#244,#245,#246,#247,#248,#249,#250
      ,#251,#252)
    ,(#253,#254,#255,#256,#257,#258,#259,#260,#261,#262,#263,#264,#265
      ,#266,#267,#268,#269,#270,#271,#272,#273,#274,#275,#276,#277,#278
      ,#279,#280,#281,#282,#283,#284,#285,#286,#287,#288,#289,#290,#291
      ,#292,#293)
    ,(#294,#295,#296,#297,#298,#299,#300,#301,#302,#303,#304,#305,#306
      ,#307,#308,#309,#310,#311,#312,#313,#314,#315,#316,#317,#318,#319
      ,#320,#321,#322,#323,#324,#325,#326,#327,#328,#329,#330,#331,#332
      ,#333,#334)
    ,(#335,#336,#337,#338,#339,#340,#341,#342,#343,#344,#345,#346,#347
      ,#348,#349,#350,#351,#352,#353,#354,#355,#356,#357,#358,#359,#360
      ,#361,#362,#363,#364,#365,#366,#367,#368,#369,#370,#371,#372,#373
      ,#374,#375
)),.UNSPECIFIED.,.T.,.F.,.F.) B_SPLINE_SURFACE_WITH_KNOTS((1,6,6,1),(11,
    10,10,10,11),(-6.28318530718,0.,6.28318530718,12.566370614359),(0.,
    6.396282033678,12.792564067357,19.188846101035,25.585128134714),
.UNSPECIFIED.) GEOMETRIC_REPRESENTATION_ITEM() RATIONAL_B_SPLINE_SURFACE
((
    (1.669078461068,1.669078461068,1.669078461068,1.669078461068
      ,1.669078461068,1.669078461069,1.669078461068,1.669078461068
      ,1.669078461068,1.669078461068,1.669078461068,1.669078461068
      ,1.669078461068,1.669078461069,1.669078461067,1.669078461069
      ,1.669078461067,1.669078461069,1.669078461068,1.669078461068
      ,1.669078461068,1.669078461068,1.669078461068,1.669078461068
      ,1.669078461069,1.669078461068,1.669078461069,1.669078461068
      ,1.669078461068,1.669078461068,1.669078461068,1.669078461068
      ,1.669078461068,1.669078461069,1.669078461068,1.669078461069
      ,1.669078461068,1.669078461069,1.669078461068,1.669078461068
      ,1.669078461068)
    ,(1.03672962321,1.03672962321,1.036729623209,1.03672962321
      ,1.036729623209,1.03672962321,1.036729623209,1.03672962321
      ,1.03672962321,1.03672962321,1.03672962321,1.03672962321
      ,1.036729623209,1.03672962321,1.036729623209,1.03672962321
      ,1.036729623209,1.03672962321,1.036729623209,1.03672962321
      ,1.03672962321,1.03672962321,1.03672962321,1.036729623209
      ,1.03672962321,1.036729623209,1.03672962321,1.036729623209
      ,1.03672962321,1.03672962321,1.03672962321,1.03672962321
      ,1.036729623209,1.03672962321,1.036729623209,1.03672962321
      ,1.036729623209,1.03672962321,1.036729623209,1.03672962321
      ,1.03672962321)
    ,(1.038346699848,1.038346699848,1.038346699847,1.038346699848
      ,1.038346699847,1.038346699848,1.038346699847,1.038346699848
      ,1.038346699847,1.038346699848,1.038346699848,1.038346699848
      ,1.038346699847,1.038346699848,1.038346699847,1.038346699848
      ,1.038346699847,1.038346699848,1.038346699847,1.038346699848
      ,1.038346699848,1.038346699847,1.038346699848,1.038346699847
      ,1.038346699848,1.038346699847,1.038346699848,1.038346699847
      ,1.038346699848,1.038346699848,1.038346699848,1.038346699848
      ,1.038346699847,1.038346699848,1.038346699847,1.038346699848
      ,1.038346699847,1.038346699848,1.038346699847,1.038346699848
      ,1.038346699848)
    ,(0.853534330196,0.853534330196,0.853534330196,0.853534330196
      ,0.853534330196,0.853534330196,0.853534330196,0.853534330196
      ,0.853534330196,0.853534330196,0.853534330196,0.853534330196
      ,0.853534330196,0.853534330197,0.853534330195,0.853534330197
      ,0.853534330196,0.853534330197,0.853534330196,0.853534330196
      ,0.853534330196,0.853534330196,0.853534330196,0.853534330196
      ,0.853534330196,0.853534330196,0.853534330196,0.853534330196
      ,0.853534330196,0.853534330196,0.853534330196,0.853534330196
      ,0.853534330196,0.853534330196,0.853534330196,0.853534330197
      ,0.853534330196,0.853534330196,0.853534330196,0.853534330196
      ,0.853534330196)
    ,(1.038346699848,1.038346699848,1.038346699847,1.038346699848
      ,1.038346699847,1.038346699848,1.038346699847,1.038346699848
      ,1.038346699847,1.038346699848,1.038346699848,1.038346699848
      ,1.038346699847,1.038346699848,1.038346699847,1.038346699848
      ,1.038346699847,1.038346699848,1.038346699847,1.038346699848
      ,1.038346699848,1.038346699847,1.038346699848,1.038346699847
      ,1.038346699848,1.038346699847,1.038346699848,1.038346699847
      ,1.038346699848,1.038346699847,1.038346699848,1.038346699848
      ,1.038346699847,1.038346699848,1.038346699847,1.038346699848
      ,1.038346699847,1.038346699848,1.038346699847,1.038346699848
      ,1.038346699848)
    ,(1.03672962321,1.03672962321,1.036729623209,1.03672962321
      ,1.036729623209,1.03672962321,1.036729623209,1.03672962321
      ,1.036729623209,1.03672962321,1.03672962321,1.03672962321
      ,1.036729623209,1.03672962321,1.036729623209,1.03672962321
      ,1.036729623209,1.03672962321,1.036729623209,1.03672962321
      ,1.03672962321,1.03672962321,1.03672962321,1.036729623209
      ,1.03672962321,1.036729623209,1.03672962321,1.036729623209
      ,1.03672962321,1.03672962321,1.03672962321,1.03672962321
      ,1.036729623209,1.03672962321,1.036729623209,1.03672962321
      ,1.036729623209,1.03672962321,1.036729623209,1.03672962321
      ,1.03672962321)
    ,(1.669078461068,1.669078461068,1.669078461068,1.669078461068
      ,1.669078461068,1.669078461069,1.669078461068,1.669078461068
      ,1.669078461068,1.669078461068,1.669078461068,1.669078461068
      ,1.669078461068,1.669078461069,1.669078461067,1.669078461069
      ,1.669078461067,1.669078461069,1.669078461068,1.669078461068
      ,1.669078461068,1.669078461068,1.669078461068,1.669078461068
      ,1.669078461069,1.669078461068,1.669078461069,1.669078461068
      ,1.669078461068,1.669078461068,1.669078461068,1.669078461068
      ,1.669078461068,1.669078461069,1.669078461068,1.669078461069
      ,1.669078461068,1.669078461069,1.669078461068,1.669078461068
,1.669078461068))) REPRESENTATION_ITEM('') SURFACE() );
#89 = CARTESIAN_POINT('',(0.8,-1.029992063861E-17,8.E-02));
#90 = CARTESIAN_POINT('',(0.8,0.502653128106,0.19975745088));
#91 = CARTESIAN_POINT('',(0.449157177184,1.005718042028,0.319479539489)
  );
#92 = CARTESIAN_POINT('',(-0.253352550193,1.229906937133,0.439285907122)
  );
#93 = CARTESIAN_POINT('',(-1.055551715608,0.915825854795,0.558971184099)
  );
#94 = CARTESIAN_POINT('',(-1.480503061651,3.496785429674E-07,
    0.678750713741));
#95 = CARTESIAN_POINT('',(-1.055552148724,-0.915825356231,0.798530243509
    ));
#96 = CARTESIAN_POINT('',(-0.253353130506,-1.229906817456,0.918215520397
    ));
#97 = CARTESIAN_POINT('',(0.449156701742,-1.005718254187,1.038021888073)
  );
#98 = CARTESIAN_POINT('',(0.799999762698,-0.502653505986,1.157743976669)
  );
#99 = CARTESIAN_POINT('',(0.799999999986,-3.778805604754E-07,
    1.27750142755));
#100 = CARTESIAN_POINT('',(0.800000000026,0.502653857026,1.39725469718)
  );
#101 = CARTESIAN_POINT('',(0.449157177144,1.005716926463,1.516983753848)
  );
#102 = CARTESIAN_POINT('',(-0.253352550144,1.22990832341,1.636780670074)
  );
#103 = CARTESIAN_POINT('',(-1.055551715658,0.915824443134,1.75647651704)
  );
#104 = CARTESIAN_POINT('',(-1.480503061611,1.526064979545E-06,
    1.876246269623));
#105 = CARTESIAN_POINT('',(-1.05555214875,-0.915826148393,1.996033236108
    ));
#106 = CARTESIAN_POINT('',(-0.253353130493,-1.229906399116,2.11571394001
    ));
#107 = CARTESIAN_POINT('',(0.449156701738,-1.005718416171,2.235522500008
    ));
#108 = CARTESIAN_POINT('',(0.799999762699,-0.502653468198,2.355243833913
    ));
#109 = CARTESIAN_POINT('',(0.799999999986,-3.778807283871E-07,
    2.475001427551));
#110 = CARTESIAN_POINT('',(0.800000000026,0.502653857026,2.594754697179)
  );
#111 = CARTESIAN_POINT('',(0.449157177144,1.005716926463,2.71448375385)
  );
#112 = CARTESIAN_POINT('',(-0.253352550144,1.22990832341,2.834280670072)
  );
#113 = CARTESIAN_POINT('',(-1.055551715658,0.915824443135,2.953976517043
    ));
#114 = CARTESIAN_POINT('',(-1.480503061611,1.526063461217E-06,
    3.07374626962));
#115 = CARTESIAN_POINT('',(-1.055552148751,-0.915826148391,3.19353323611
    ));
#116 = CARTESIAN_POINT('',(-0.253353130493,-1.229906399117,
    3.313213940009));
#117 = CARTESIAN_POINT('',(0.449156701737,-1.005718416171,3.433022500008
    ));
#118 = CARTESIAN_POINT('',(0.799999762699,-0.502653468198,3.552743833913
    ));
#119 = CARTESIAN_POINT('',(0.799999999986,-3.778807196041E-07,
    3.672501427551));
#120 = CARTESIAN_POINT('',(0.800000000026,0.502653857026,3.792254697179)
  );
#121 = CARTESIAN_POINT('',(0.449157177144,1.005716926464,3.911983753849)
  );
#122 = CARTESIAN_POINT('',(-0.253352550143,1.229908323409,4.031780670074
    ));
#123 = CARTESIAN_POINT('',(-1.055551715659,0.915824443136,4.151476517041
    ));
#124 = CARTESIAN_POINT('',(-1.48050306161,1.526061913321E-06,
    4.271246269622));
#125 = CARTESIAN_POINT('',(-1.055552148752,-0.91582614839,4.391033236108
    ));
#126 = CARTESIAN_POINT('',(-0.253353130492,-1.229906399118,
    4.510713940012));
#127 = CARTESIAN_POINT('',(0.449156701737,-1.00571841617,4.630522500007)
  );
#128 = CARTESIAN_POINT('',(0.799999762699,-0.502653468198,4.750243833914
    ));
#129 = CARTESIAN_POINT('',(0.799999999986,-3.77880645643E-07,
    4.87000142755));
#130 = CARTESIAN_POINT('',(0.8,-7.613267655193E-16,0.212923446046));
#131 = CARTESIAN_POINT('',(0.799987620042,0.502652382936,0.332680896926)
  );
#132 = CARTESIAN_POINT('',(0.449191083339,1.005716857743,0.452402985371)
  );
#133 = CARTESIAN_POINT('',(-0.253408686248,1.229904686951,0.572209353845
    ));
#134 = CARTESIAN_POINT('',(-1.055503281719,0.915824181297,0.691894628535
    ));
#135 = CARTESIAN_POINT('',(-1.480500866772,1.2754340363E-06,
    0.811674162204));
#136 = CARTESIAN_POINT('',(-1.055597453128,-0.915824314245,
    0.931453687069));
#137 = CARTESIAN_POINT('',(-0.253296243215,-1.229905421233,
    1.051138968164));
#138 = CARTESIAN_POINT('',(0.449121463857,-1.005716456484,1.170945333328
    ));
#139 = CARTESIAN_POINT('',(0.800009770721,-0.502652760869,1.290667422915
    ));
#140 = CARTESIAN_POINT('',(0.79999762805,-3.778750317981E-07,
    1.410424873575));
#141 = CARTESIAN_POINT('',(0.79999219546,0.502653111845,1.530178143266)
  );
#142 = CARTESIAN_POINT('',(0.449184080955,1.005715742196,1.649907199669)
  );
#143 = CARTESIAN_POINT('',(-0.253399984609,1.229906073204,1.769704116875
    ));
#144 = CARTESIAN_POINT('',(-1.055512142695,0.91582276966,1.889399961398)
  );
#145 = CARTESIAN_POINT('',(-1.480493482621,2.451800884021E-06,
    2.009169718152));
#146 = CARTESIAN_POINT('',(-1.055602425501,-0.915825106395,
    2.128956679625));
#147 = CARTESIAN_POINT('',(-0.253293617313,-1.229905002899,2.2486373878)
  );
#148 = CARTESIAN_POINT('',(0.449120447092,-1.005716618466,2.368445945254
    ));
#149 = CARTESIAN_POINT('',(0.800010007919,-0.502652723081,2.48816728016)
  );
#150 = CARTESIAN_POINT('',(0.799997628049,-3.778751247814E-07,
    2.607924873575));
#151 = CARTESIAN_POINT('',(0.799992195461,0.502653111845,2.727678143265)
  );
#152 = CARTESIAN_POINT('',(0.449184080955,1.005715742195,2.84740719967)
  );
#153 = CARTESIAN_POINT('',(-0.253399984611,1.229906073207,2.967204116872
    ));
#154 = CARTESIAN_POINT('',(-1.055512142692,0.915822769656,3.086899961401
    ));
#155 = CARTESIAN_POINT('',(-1.480493482624,2.451804277679E-06,
    3.206669718149));
#156 = CARTESIAN_POINT('',(-1.0556024255,-0.915825106397,3.326456679627)
  );
#157 = CARTESIAN_POINT('',(-0.253293617313,-1.229905002898,
    3.446137387799));
#158 = CARTESIAN_POINT('',(0.449120447091,-1.005716618466,3.565945945255
    ));
#159 = CARTESIAN_POINT('',(0.800010007919,-0.502652723081,3.68566728016)
  );
#160 = CARTESIAN_POINT('',(0.799997628049,-3.778751202924E-07,
    3.805424873575));
#161 = CARTESIAN_POINT('',(0.799992195461,0.502653111845,3.925178143266)
  );
#162 = CARTESIAN_POINT('',(0.449184080956,1.005715742196,4.04490719967)
  );
#163 = CARTESIAN_POINT('',(-0.253399984613,1.229906073204,4.164704116873
    ));
#164 = CARTESIAN_POINT('',(-1.055512142688,0.915822769661,4.2843999614)
  );
#165 = CARTESIAN_POINT('',(-1.48049348263,2.451796650188E-06,
    4.40416971815));
#166 = CARTESIAN_POINT('',(-1.055602425492,-0.91582510639,4.523956679626
    ));
#167 = CARTESIAN_POINT('',(-0.25329361732,-1.229905002903,4.643637387801
    ));
#168 = CARTESIAN_POINT('',(0.449120447096,-1.005716618464,4.763445945253
    ));
#169 = CARTESIAN_POINT('',(0.800010007917,-0.502652723081,4.883167280161
    ));
#170 = CARTESIAN_POINT('',(0.79999762805,-3.778750810625E-07,
    5.002924873575));
#171 = CARTESIAN_POINT('',(0.635636144756,-2.074078755965E-16,
    0.23200899066));
#172 = CARTESIAN_POINT('',(0.635621987247,0.399382905388,0.351751133348)
  );
#173 = CARTESIAN_POINT('',(0.356912656626,0.799079416886,0.471530567069)
  );
#174 = CARTESIAN_POINT('',(-0.201359913325,0.977225782921,0.591221125642
    ));
#175 = CARTESIAN_POINT('',(-0.838638895146,0.727653390576,0.711039376578
    ));
#176 = CARTESIAN_POINT('',(-1.176310797906,6.899267443528E-07,
    0.830758240747));
#177 = CARTESIAN_POINT('',(-0.83874563592,-0.727654638525,0.950477094584
    ));
#178 = CARTESIAN_POINT('',(-0.201230049782,-0.977226885701,
    1.070295353028));
#179 = CARTESIAN_POINT('',(0.356834086054,-0.799078491659,1.189985907729
    ));
#180 = CARTESIAN_POINT('',(0.635647840008,-0.399382506956,1.30976534278)
  );
#181 = CARTESIAN_POINT('',(0.635633432264,3.984996181024E-07,
    1.429507485215));
#182 = CARTESIAN_POINT('',(0.635627219559,0.399382136695,1.549254037304)
  );
#183 = CARTESIAN_POINT('',(0.356904648909,0.799080593323,1.669026122749)
  );
#184 = CARTESIAN_POINT('',(-0.201349962392,0.977224320999,1.788726648459
    ));
#185 = CARTESIAN_POINT('',(-0.838649028293,0.727654879268,1.90853375263)
  );
#186 = CARTESIAN_POINT('',(-1.17630235361,-5.506497644387E-07,
    2.028262927375));
#187 = CARTESIAN_POINT('',(-0.83875132218,-0.727653803141,2.147973938679
    ));
#188 = CARTESIAN_POINT('',(-0.201227046877,-0.977227326864,
    2.267797019657));
#189 = CARTESIAN_POINT('',(0.356832923311,-0.799078320838,2.3874852624)
  );
#190 = CARTESIAN_POINT('',(0.63564811126,-0.399382546806,2.507265493327)
  );
#191 = CARTESIAN_POINT('',(0.635633432263,3.984998657143E-07,
    2.627007485214));
#192 = CARTESIAN_POINT('',(0.635627219561,0.399382136695,2.746754037305)
  );
#193 = CARTESIAN_POINT('',(0.356904648908,0.799080593323,2.86652612275)
  );
#194 = CARTESIAN_POINT('',(-0.201349962392,0.977224321001,2.986226648456
    ));
#195 = CARTESIAN_POINT('',(-0.838649028292,0.727654879264,3.106033752634
    ));
#196 = CARTESIAN_POINT('',(-1.176302353611,-5.506457296994E-07,
    3.225762927371));
#197 = CARTESIAN_POINT('',(-0.83875132218,-0.727653803144,3.345473938682
    ));
#198 = CARTESIAN_POINT('',(-0.201227046877,-0.977227326863,
    3.465297019656));
#199 = CARTESIAN_POINT('',(0.35683292331,-0.799078320838,3.5849852624));
#200 = CARTESIAN_POINT('',(0.63564811126,-0.399382546806,3.704765493327)
  );
#201 = CARTESIAN_POINT('',(0.635633432264,3.984998526172E-07,
    3.824507485214));
#202 = CARTESIAN_POINT('',(0.63562721956,0.399382136695,3.944254037305)
  );
#203 = CARTESIAN_POINT('',(0.356904648909,0.799080593323,4.06402612275)
  );
#204 = CARTESIAN_POINT('',(-0.201349962395,0.977224321,4.183726648454));
#205 = CARTESIAN_POINT('',(-0.838649028285,0.727654879268,4.303533752638
    ));
#206 = CARTESIAN_POINT('',(-1.176302353622,-5.506517456909E-07,
    4.423262927365));
#207 = CARTESIAN_POINT('',(-0.838751322168,-0.727653803138,4.54297393869
    ));
#208 = CARTESIAN_POINT('',(-0.201227046887,-0.977227326866,
    4.662797019649));
#209 = CARTESIAN_POINT('',(0.356832923317,-0.799078320838,4.782485262404
    ));
#210 = CARTESIAN_POINT('',(0.635648111257,-0.399382546806,4.902265493325
    ));
#211 = CARTESIAN_POINT('',(0.635633432264,3.984996764776E-07,
    5.022007485215));
#212 = CARTESIAN_POINT('',(0.500070646319,2.488243985854E-16,8.E-02));
#213 = CARTESIAN_POINT('',(0.500070646319,0.314208317541,0.19972951666)
  );
#214 = CARTESIAN_POINT('',(0.280759636243,0.628648624974,0.319556248339)
  );
#215 = CARTESIAN_POINT('',(-0.158359814202,0.768821844196,0.439151287122
    ));
#216 = CARTESIAN_POINT('',(-0.659832660396,0.572454305802,0.559079218284
    ));
#217 = CARTESIAN_POINT('',(-0.925420947681,-9.613047788359E-07,
    0.678748037838));
#218 = CARTESIAN_POINT('',(-0.65983146971,-0.572455676416,0.798416857064
    ));
#219 = CARTESIAN_POINT('',(-0.158358218853,-0.768822173201,
    0.918344788456));
#220 = CARTESIAN_POINT('',(0.280760943287,-0.628648041725,1.037939827131
    ));
#221 = CARTESIAN_POINT('',(0.50007129869,-0.314207278703,1.15776655884)
  );
#222 = CARTESIAN_POINT('',(0.500070646357,1.038837907311E-06,
    1.277496075497));
#223 = CARTESIAN_POINT('',(0.500070646247,0.314206313655,1.397237086905)
  );
#224 = CARTESIAN_POINT('',(0.280759636356,0.628651691792,1.517044662565)
  );
#225 = CARTESIAN_POINT('',(-0.158359814343,0.76881803316,1.636665684394)
  );
#226 = CARTESIAN_POINT('',(-0.659832660252,0.572458186622,1.756564557379
    ));
#227 = CARTESIAN_POINT('',(-0.925420947801,-4.195324670473E-06,
    1.876260255268));
#228 = CARTESIAN_POINT('',(-0.659831469631,-0.572453498676,
    1.995908630033));
#229 = CARTESIAN_POINT('',(-0.158358218895,-0.768823323263,
    2.115849133139));
#230 = CARTESIAN_POINT('',(0.280760943303,-0.628647596413,2.235438144843
    ));
#231 = CARTESIAN_POINT('',(0.500071298687,-0.314207382589,2.355266951295
    ));
#232 = CARTESIAN_POINT('',(0.500070646357,1.038838340684E-06,
    2.474996075496));
#233 = CARTESIAN_POINT('',(0.500070646247,0.314206313654,2.594737086906)
  );
#234 = CARTESIAN_POINT('',(0.280759636354,0.628651691794,2.714544662565)
  );
#235 = CARTESIAN_POINT('',(-0.158359814341,0.768818033158,2.83416568439)
  );
#236 = CARTESIAN_POINT('',(-0.659832660256,0.572458186624,2.954064557385
    ));
#237 = CARTESIAN_POINT('',(-0.925420947798,-4.195326554137E-06,
    3.073760255263));
#238 = CARTESIAN_POINT('',(-0.659831469633,-0.572453498674,
    3.193408630036));
#239 = CARTESIAN_POINT('',(-0.158358218893,-0.768823323264,
    3.313349133138));
#240 = CARTESIAN_POINT('',(0.280760943302,-0.628647596413,3.432938144843
    ));
#241 = CARTESIAN_POINT('',(0.500071298687,-0.314207382589,3.552766951295
    ));
#242 = CARTESIAN_POINT('',(0.500070646357,1.038838315264E-06,
    3.672496075496));
#243 = CARTESIAN_POINT('',(0.500070646247,0.314206313654,3.792237086906)
  );
#244 = CARTESIAN_POINT('',(0.280759636355,0.628651691793,3.912044662567)
  );
#245 = CARTESIAN_POINT('',(-0.158359814342,0.768818033159,4.031665684386
    ));
#246 = CARTESIAN_POINT('',(-0.659832660254,0.572458186623,4.151564557393
    ));
#247 = CARTESIAN_POINT('',(-0.925420947801,-4.195323550596E-06,
    4.271260255249));
#248 = CARTESIAN_POINT('',(-0.65983146963,-0.572453498678,4.390908630051
    ));
#249 = CARTESIAN_POINT('',(-0.158358218896,-0.768823323261,
    4.510849133124));
#250 = CARTESIAN_POINT('',(0.280760943303,-0.628647596415,4.630438144852
    ));
#251 = CARTESIAN_POINT('',(0.500071298687,-0.314207382588,4.750266951291
    ));
#252 = CARTESIAN_POINT('',(0.500070646357,1.038838003589E-06,
    4.869996075497));
#253 = CARTESIAN_POINT('',(0.635636144756,-1.033244670379E-16,
    -7.200899065965E-02));
#254 = CARTESIAN_POINT('',(0.635650302265,0.399384609716,
    4.773315202844E-02));
#255 = CARTESIAN_POINT('',(0.356835107624,0.799082125542,0.167512586122)
  );
#256 = CARTESIAN_POINT('',(-0.201231520852,0.977230929463,0.287203142775
    ));
#257 = CARTESIAN_POINT('',(-0.838749671488,0.727657218145,0.407021398938
    ));
#258 = CARTESIAN_POINT('',(-1.17631581796,-1.42742968348E-06,
    0.526740253899));
#259 = CARTESIAN_POINT('',(-0.83864201723,-0.72765702172,0.646459118947)
  );
#260 = CARTESIAN_POINT('',(-0.201360160459,-0.977230079093,
    0.766277367774));
#261 = CARTESIAN_POINT('',(0.356914680947,-0.799082603306,0.885967928218
    ));
#262 = CARTESIAN_POINT('',(0.635624949998,-0.399384211162,1.005747361004
    ));
#263 = CARTESIAN_POINT('',(0.635638857277,3.984869757268E-07,
    1.125489503944));
#264 = CARTESIAN_POINT('',(0.635645069897,0.399383841047,1.245236055892)
  );
#265 = CARTESIAN_POINT('',(0.356843115428,0.799083301939,1.365008141945)
  );
#266 = CARTESIAN_POINT('',(-0.201241471896,0.977229467595,1.484708665414
    ));
#267 = CARTESIAN_POINT('',(-0.838739538226,0.727658706781,1.604515775171
    ));
#268 = CARTESIAN_POINT('',(-1.176324262351,-2.667961715661E-06,
    1.724244940377));
#269 = CARTESIAN_POINT('',(-0.838636330906,-0.727656186363,
    1.843955963144));
#270 = CARTESIAN_POINT('',(-0.201363163398,-0.977230520245,
    1.963779034349));
#271 = CARTESIAN_POINT('',(0.356915843703,-0.799082432489,2.08346728291)
  );
#272 = CARTESIAN_POINT('',(0.635624678742,-0.399384251012,2.203247511546
    ));
#273 = CARTESIAN_POINT('',(0.635638857278,3.984870507788E-07,
    2.322989503943));
#274 = CARTESIAN_POINT('',(0.635645069896,0.399383841047,2.442736055892)
  );
#275 = CARTESIAN_POINT('',(0.356843115427,0.799083301941,2.562508141946)
  );
#276 = CARTESIAN_POINT('',(-0.201241471893,0.97722946759,2.682208665411)
  );
#277 = CARTESIAN_POINT('',(-0.838739538231,0.727658706788,2.802015775175
    ));
#278 = CARTESIAN_POINT('',(-1.176324262346,-2.667968932811E-06,
    2.921744940373));
#279 = CARTESIAN_POINT('',(-0.83863633091,-0.727656186358,3.041455963146
    ));
#280 = CARTESIAN_POINT('',(-0.201363163396,-0.977230520247,
    3.161279034348));
#281 = CARTESIAN_POINT('',(0.356915843703,-0.799082432489,3.28096728291)
  );
#282 = CARTESIAN_POINT('',(0.635624678742,-0.399384251012,3.400747511546
    ));
#283 = CARTESIAN_POINT('',(0.635638857278,3.98487043647E-07,
    3.520489503943));
#284 = CARTESIAN_POINT('',(0.635645069896,0.399383841047,3.640236055892)
  );
#285 = CARTESIAN_POINT('',(0.356843115427,0.79908330194,3.760008141946)
  );
#286 = CARTESIAN_POINT('',(-0.20124147189,0.977229467592,3.879708665409)
  );
#287 = CARTESIAN_POINT('',(-0.838739538237,0.727658706783,3.999515775179
    ));
#288 = CARTESIAN_POINT('',(-1.176324262337,-2.667961151712E-06,
    4.119244940366));
#289 = CARTESIAN_POINT('',(-0.838636330919,-0.727656186366,
    4.238955963153));
#290 = CARTESIAN_POINT('',(-0.201363163388,-0.977230520242,
    4.358779034342));
#291 = CARTESIAN_POINT('',(0.356915843698,-0.799082432491,4.478467282914
    ));
#292 = CARTESIAN_POINT('',(0.635624678745,-0.399384251011,4.598247511544
    ));
#293 = CARTESIAN_POINT('',(0.635638857277,3.984869450339E-07,
    4.717989503944));
#294 = CARTESIAN_POINT('',(0.8,1.694607995595E-16,-5.292344604568E-02));
#295 = CARTESIAN_POINT('',(0.800012379958,0.502653873276,
    6.683400483419E-02));
#296 = CARTESIAN_POINT('',(0.44912327103,1.005719226313,0.186556093606)
  );
#297 = CARTESIAN_POINT('',(-0.253296414139,1.229909187316,0.306362460399
    ));
#298 = CARTESIAN_POINT('',(-1.055600149497,0.915827528295,0.426047739662
    ));
#299 = CARTESIAN_POINT('',(-1.48050525653,-5.760771093033E-07,
    0.545827265278));
#300 = CARTESIAN_POINT('',(-1.055506844321,-0.915826398218,
    0.665606799947));
#301 = CARTESIAN_POINT('',(-0.253410017797,-1.229908213678,
    0.785292072631));
#302 = CARTESIAN_POINT('',(0.449191939628,-1.005720051891,0.905098442818
    ));
#303 = CARTESIAN_POINT('',(0.799989754675,-0.502654251103,1.024820530424
    ));
#304 = CARTESIAN_POINT('',(0.800002371923,-3.778860871604E-07,
    1.144577981526));
#305 = CARTESIAN_POINT('',(0.800007804592,0.502654602207,1.264331251093)
  );
#306 = CARTESIAN_POINT('',(0.449130273333,1.00571811073,1.384060308028)
  );
#307 = CARTESIAN_POINT('',(-0.253305115678,1.229910573617,1.503857223274
    ));
#308 = CARTESIAN_POINT('',(-1.055591288621,0.915826116608,1.623553072682
    ));
#309 = CARTESIAN_POINT('',(-1.480512640601,6.003289780348E-07,
    1.743322821094));
#310 = CARTESIAN_POINT('',(-1.055501871999,-0.915827190391,
    1.863109792591));
#311 = CARTESIAN_POINT('',(-0.253412643674,-1.229907795333,
    1.982790492221));
#312 = CARTESIAN_POINT('',(0.449192956384,-1.005720213877,2.102599054762
    ));
#313 = CARTESIAN_POINT('',(0.799989517479,-0.502654213314,2.222320387665
    ));
#314 = CARTESIAN_POINT('',(0.800002371924,-3.778863318484E-07,
    2.342077981526));
#315 = CARTESIAN_POINT('',(0.800007804591,0.502654602207,2.461831251092)
  );
#316 = CARTESIAN_POINT('',(0.449130273333,1.005718110732,2.581560308029)
  );
#317 = CARTESIAN_POINT('',(-0.253305115676,1.229910573613,2.701357223272
    ));
#318 = CARTESIAN_POINT('',(-1.055591288623,0.915826116613,2.821053072685
    ));
#319 = CARTESIAN_POINT('',(-1.480512640599,6.003224355166E-07,
    2.940822821092));
#320 = CARTESIAN_POINT('',(-1.055501872001,-0.915827190386,
    3.060609792593));
#321 = CARTESIAN_POINT('',(-0.253412643672,-1.229907795336,3.18029049222
    ));
#322 = CARTESIAN_POINT('',(0.449192956383,-1.005720213876,3.300099054762
    ));
#323 = CARTESIAN_POINT('',(0.799989517479,-0.502654213314,3.419820387665
    ));
#324 = CARTESIAN_POINT('',(0.800002371924,-3.778863228099E-07,
    3.539577981526));
#325 = CARTESIAN_POINT('',(0.800007804592,0.502654602207,3.659331251093)
  );
#326 = CARTESIAN_POINT('',(0.449130273332,1.005718110731,3.779060308029)
  );
#327 = CARTESIAN_POINT('',(-0.253305115674,1.229910573614,3.898857223273
    ));
#328 = CARTESIAN_POINT('',(-1.05559128863,0.915826116611,4.018553072684)
  );
#329 = CARTESIAN_POINT('',(-1.480512640589,6.003269536487E-07,
    4.138322821092));
#330 = CARTESIAN_POINT('',(-1.055501872011,-0.91582719039,4.258109792592
    ));
#331 = CARTESIAN_POINT('',(-0.253412643664,-1.229907795333,
    4.377790492221));
#332 = CARTESIAN_POINT('',(0.449192956378,-1.005720213877,4.497599054761
    ));
#333 = CARTESIAN_POINT('',(0.799989517482,-0.502654213315,4.617320387666
    ));
#334 = CARTESIAN_POINT('',(0.800002371923,-3.778862126897E-07,
    4.737077981526));
#335 = CARTESIAN_POINT('',(0.8,-1.029992063861E-17,8.E-02));
#336 = CARTESIAN_POINT('',(0.8,0.502653128106,0.19975745088));
#337 = CARTESIAN_POINT('',(0.449157177184,1.005718042028,0.319479539489)
  );
#338 = CARTESIAN_POINT('',(-0.253352550193,1.229906937133,0.439285907122
    ));
#339 = CARTESIAN_POINT('',(-1.055551715608,0.915825854795,0.558971184099
    ));
#340 = CARTESIAN_POINT('',(-1.480503061651,3.496785429674E-07,
    0.678750713741));
#341 = CARTESIAN_POINT('',(-1.055552148724,-0.915825356231,
    0.798530243509));
#342 = CARTESIAN_POINT('',(-0.253353130506,-1.229906817456,
    0.918215520397));
#343 = CARTESIAN_POINT('',(0.449156701742,-1.005718254187,1.038021888073
    ));
#344 = CARTESIAN_POINT('',(0.799999762698,-0.502653505986,1.157743976669
    ));
#345 = CARTESIAN_POINT('',(0.799999999986,-3.778805604754E-07,
    1.27750142755));
#346 = CARTESIAN_POINT('',(0.800000000026,0.502653857026,1.39725469718)
  );
#347 = CARTESIAN_POINT('',(0.449157177144,1.005716926463,1.516983753848)
  );
#348 = CARTESIAN_POINT('',(-0.253352550144,1.22990832341,1.636780670074)
  );
#349 = CARTESIAN_POINT('',(-1.055551715658,0.915824443134,1.75647651704)
  );
#350 = CARTESIAN_POINT('',(-1.480503061611,1.526064979545E-06,
    1.876246269623));
#351 = CARTESIAN_POINT('',(-1.05555214875,-0.915826148393,1.996033236108
    ));
#352 = CARTESIAN_POINT('',(-0.253353130493,-1.229906399116,2.11571394001
    ));
#353 = CARTESIAN_POINT('',(0.449156701738,-1.005718416171,2.235522500008
    ));
#354 = CARTESIAN_POINT('',(0.799999762699,-0.502653468198,2.355243833913
    ));
#355 = CARTESIAN_POINT('',(0.799999999986,-3.778807283871E-07,
    2.475001427551));
#356 = CARTESIAN_POINT('',(0.800000000026,0.502653857026,2.594754697179)
  );
#357 = CARTESIAN_POINT('',(0.449157177144,1.005716926463,2.71448375385)
  );
#358 = CARTESIAN_POINT('',(-0.253352550144,1.22990832341,2.834280670072)
  );
#359 = CARTESIAN_POINT('',(-1.055551715658,0.915824443135,2.953976517043
    ));
#360 = CARTESIAN_POINT('',(-1.480503061611,1.526063461217E-06,
    3.07374626962));
#361 = CARTESIAN_POINT('',(-1.055552148751,-0.915826148391,3.19353323611
    ));
#362 = CARTESIAN_POINT('',(-0.253353130493,-1.229906399117,
    3.313213940009));
#363 = CARTESIAN_POINT('',(0.449156701737,-1.005718416171,3.433022500008
    ));
#364 = CARTESIAN_POINT('',(0.799999762699,-0.502653468198,3.552743833913
    ));
#365 = CARTESIAN_POINT('',(0.799999999986,-3.778807196041E-07,
    3.672501427551));
#366 = CARTESIAN_POINT('',(0.800000000026,0.502653857026,3.792254697179)
  );
#367 = CARTESIAN_POINT('',(0.449157177144,1.005716926464,3.911983753849)
  );
#368 = CARTESIAN_POINT('',(-0.253352550143,1.229908323409,4.031780670074
    ));
#369 = CARTESIAN_POINT('',(-1.055551715659,0.915824443136,4.151476517041
    ));
#370 = CARTESIAN_POINT('',(-1.48050306161,1.526061913321E-06,
    4.271246269622));
#371 = CARTESIAN_POINT('',(-1.055552148752,-0.91582614839,4.391033236108
    ));
#372 = CARTESIAN_POINT('',(-0.253353130492,-1.229906399118,
    4.510713940012));
#373 = CARTESIAN_POINT('',(0.449156701737,-1.00571841617,4.630522500007)
  );
#374 = CARTESIAN_POINT('',(0.799999762699,-0.502653468198,4.750243833914
    ));
#375 = CARTESIAN_POINT('',(0.799999999986,-3.77880645643E-07,
    4.87000142755));
#376 = DEFINITIONAL_REPRESENTATION('',(#377),#380);
#377 = B_SPLINE_CURVE_WITH_KNOTS('',1,(#378,#379),.UNSPECIFIED.,.F.,.F.,
  (2,2),(0.,25.585128134714),.PIECEWISE_BEZIER_KNOTS.);
#378 = CARTESIAN_POINT('',(6.28318530718,0.));
#379 = CARTESIAN_POINT('',(6.28318530718,25.585128134714));
#380 = ( GEOMETRIC_REPRESENTATION_CONTEXT(2) 
PARAMETRIC_REPRESENTATION_CONTEXT() REPRESENTATION_CONTEXT('2D SPACE',''
  ) );
#381 = PCURVE('',#88,#382);
#382 = DEFINITIONAL_REPRESENTATION('',(#383),#387);
#383 = LINE('',#384,#385);
#384 = CARTESIAN_POINT('',(0.,0.));
#385 = VECTOR('',#386,1.);
#386 = DIRECTION('',(0.,1.));
#387 = ( GEOMETRIC_REPRESENTATION_CONTEXT(2) 
PARAMETRIC_REPRESENTATION_CONTEXT() REPRESENTATION_CONTEXT('2D SPACE',''
  ) );
#388 = ORIENTED_EDGE('',*,*,#389,.F.);
#389 = EDGE_CURVE('',#42,#42,#390,.T.);
#390 = SURFACE_CURVE('',#391,(#399,#406),.PCURVE_S1.);
#391 = ( BOUNDED_CURVE() B_SPLINE_CURVE(6,(#392,#393,#394,#395,#396,#397
,#398),.UNSPECIFIED.,.T.,.F.) B_SPLINE_CURVE_WITH_KNOTS((1,6,6,1),(
    -6.28318530718,0.,6.28318530718,12.566370614359),.UNSPECIFIED.) 
CURVE() GEOMETRIC_REPRESENTATION_ITEM() RATIONAL_B_SPLINE_CURVE((
    1.669078461068,1.03672962321,1.038346699848,0.853534330196,
1.038346699848,1.03672962321,1.669078461068)) REPRESENTATION_ITEM('') );
#392 = CARTESIAN_POINT('',(0.799999999986,-3.77880645643E-07,
    4.87000142755));
#393 = CARTESIAN_POINT('',(0.79999762805,-3.778750810625E-07,
    5.002924873575));
#394 = CARTESIAN_POINT('',(0.635633432264,3.984996764776E-07,
    5.022007485215));
#395 = CARTESIAN_POINT('',(0.500070646357,1.038838003589E-06,
    4.869996075497));
#396 = CARTESIAN_POINT('',(0.635638857277,3.984869450339E-07,
    4.717989503944));
#397 = CARTESIAN_POINT('',(0.800002371923,-3.778862126897E-07,
    4.737077981526));
#398 = CARTESIAN_POINT('',(0.799999999986,-3.77880645643E-07,
    4.87000142755));
#399 = PCURVE('',#88,#400);
#400 = DEFINITIONAL_REPRESENTATION('',(#401),#405);
#401 = LINE('',#402,#403);
#402 = CARTESIAN_POINT('',(0.,25.585128134714));
#403 = VECTOR('',#404,1.);
#404 = DIRECTION('',(1.,0.));
#405 = ( GEOMETRIC_REPRESENTATION_CONTEXT(2) 
PARAMETRIC_REPRESENTATION_CONTEXT() REPRESENTATION_CONTEXT('2D SPACE',''
  ) );
#406 = PCURVE('',#407,#412);
#407 = PLANE('',#408);
#408 = AXIS2_PLACEMENT_3D('',#409,#410,#411);
#409 = CARTESIAN_POINT('',(0.720012673859,-5.988498362674E-11,
    4.870000000226));
#410 = DIRECTION('',(-4.723507824633E-06,-0.999999999989,
    -4.241354713908E-11));
#411 = DIRECTION('',(-0.999999999989,4.723507824633E-06,0.));
#412 = DEFINITIONAL_REPRESENTATION('',(#413),#421);
#413 = ( BOUNDED_CURVE() B_SPLINE_CURVE(6,(#414,#415,#416,#417,#418,#419
,#420),.UNSPECIFIED.,.T.,.F.) B_SPLINE_CURVE_WITH_KNOTS((1,6,6,1),(
    -6.28318530718,0.,6.28318530718,12.566370614359),.UNSPECIFIED.) 
CURVE() GEOMETRIC_REPRESENTATION_ITEM() RATIONAL_B_SPLINE_CURVE((
    1.669078461068,1.03672962321,1.038346699848,0.853534330196,
1.038346699848,1.03672962321,1.669078461068)) REPRESENTATION_ITEM('') );
#414 = CARTESIAN_POINT('',(-7.998732612848E-02,-1.427324289871E-06));
#415 = CARTESIAN_POINT('',(-7.998495419192E-02,-0.132924873349));
#416 = CARTESIAN_POINT('',(8.437924159549E-02,-0.152007484989));
#417 = CARTESIAN_POINT('',(0.219942027504,3.924729247373E-06));
#418 = CARTESIAN_POINT('',(8.437381658292E-02,0.152010496282));
#419 = CARTESIAN_POINT('',(-7.998969806504E-02,0.1329220187));
#420 = CARTESIAN_POINT('',(-7.998732612848E-02,-1.427324289871E-06));
#421 = ( GEOMETRIC_REPRESENTATION_CONTEXT(2) 
PARAMETRIC_REPRESENTATION_CONTEXT() REPRESENTATION_CONTEXT('2D SPACE',''
  ) );
#422 = ORIENTED_EDGE('',*,*,#39,.F.);
#423 = ORIENTED_EDGE('',*,*,#424,.T.);
#424 = EDGE_CURVE('',#40,#40,#425,.T.);
#425 = SURFACE_CURVE('',#426,(#434,#441),.PCURVE_S1.);
#426 = ( BOUNDED_CURVE() B_SPLINE_CURVE(6,(#427,#428,#429,#430,#431,#432
,#433),.UNSPECIFIED.,.T.,.F.) B_SPLINE_CURVE_WITH_KNOTS((1,6,6,1),(
    -6.28318530718,0.,6.28318530718,12.566370614359),.UNSPECIFIED.) 
CURVE() GEOMETRIC_REPRESENTATION_ITEM() RATIONAL_B_SPLINE_CURVE((
    1.669078461068,1.03672962321,1.038346699848,0.853534330196,
1.038346699848,1.03672962321,1.669078461068)) REPRESENTATION_ITEM('') );
#427 = CARTESIAN_POINT('',(0.8,-1.029992063861E-17,8.E-02));
#428 = CARTESIAN_POINT('',(0.8,-7.613267655193E-16,0.212923446046));
#429 = CARTESIAN_POINT('',(0.635636144756,-2.074078755965E-16,
    0.23200899066));
#430 = CARTESIAN_POINT('',(0.500070646319,2.488243985854E-16,8.E-02));
#431 = CARTESIAN_POINT('',(0.635636144756,-1.033244670379E-16,
    -7.200899065965E-02));
#432 = CARTESIAN_POINT('',(0.8,1.694607995595E-16,-5.292344604568E-02));
#433 = CARTESIAN_POINT('',(0.8,-1.029992063861E-17,8.E-02));
#434 = PCURVE('',#88,#435);
#435 = DEFINITIONAL_REPRESENTATION('',(#436),#440);
#436 = LINE('',#437,#438);
#437 = CARTESIAN_POINT('',(0.,0.));
#438 = VECTOR('',#439,1.);
#439 = DIRECTION('',(1.,0.));
#440 = ( GEOMETRIC_REPRESENTATION_CONTEXT(2) 
PARAMETRIC_REPRESENTATION_CONTEXT() REPRESENTATION_CONTEXT('2D SPACE',''
  ) );
#441 = PCURVE('',#442,#447);
#442 = PLANE('',#443);
#443 = AXIS2_PLACEMENT_3D('',#444,#445,#446);
#444 = CARTESIAN_POINT('',(0.720012673859,-8.764715169949E-17,8.E-02));
#445 = DIRECTION('',(-0.,-1.,-2.096623931802E-15));
#446 = DIRECTION('',(0.,2.096623931802E-15,-1.));
#447 = DEFINITIONAL_REPRESENTATION('',(#448),#456);
#448 = ( BOUNDED_CURVE() B_SPLINE_CURVE(6,(#449,#450,#451,#452,#453,#454
,#455),.UNSPECIFIED.,.T.,.F.) B_SPLINE_CURVE_WITH_KNOTS((1,6,6,1),(
    -6.28318530718,0.,6.28318530718,12.566370614359),.UNSPECIFIED.) 
CURVE() GEOMETRIC_REPRESENTATION_ITEM() RATIONAL_B_SPLINE_CURVE((
    1.669078461068,1.03672962321,1.038346699848,0.853534330196,
1.038346699848,1.03672962321,1.669078461068)) REPRESENTATION_ITEM('') );
#449 = CARTESIAN_POINT('',(-5.551115123126E-17,7.998732614121E-02));
#450 = CARTESIAN_POINT('',(-0.132923446046,7.998732614121E-02));
#451 = CARTESIAN_POINT('',(-0.15200899066,-8.437652910264E-02));
#452 = CARTESIAN_POINT('',(-4.996003610813E-16,-0.219942027539));
#453 = CARTESIAN_POINT('',(0.15200899066,-8.437652910264E-02));
#454 = CARTESIAN_POINT('',(0.132923446046,7.998732614121E-02));
#455 = CARTESIAN_POINT('',(-5.551115123126E-17,7.998732614121E-02));
#456 = ( GEOMETRIC_REPRESENTATION_CONTEXT(2) 
PARAMETRIC_REPRESENTATION_CONTEXT() REPRESENTATION_CONTEXT('2D SPACE',''
  ) );
#457 = ADVANCED_FACE('',(#458),#442,.T.);
#458 = FACE_BOUND('',#459,.T.);
#459 = EDGE_LOOP('',(#460));
#460 = ORIENTED_EDGE('',*,*,#424,.T.);
#461 = ADVANCED_FACE('',(#462),#407,.F.);
#462 = FACE_BOUND('',#463,.F.);
#463 = EDGE_LOOP('',(#464));
#464 = ORIENTED_EDGE('',*,*,#389,.T.);
#465 = ( GEOMETRIC_REPRESENTATION_CONTEXT(3) 
GLOBAL_UNCERTAINTY_ASSIGNED_CONTEXT((#469)) GLOBAL_UNIT_ASSIGNED_CONTEXT
((#466,#467,#468)) REPRESENTATION_CONTEXT('Context #1',
  '3D Context with UNIT and UNCERTAINTY') );
#466 = ( LENGTH_UNIT() NAMED_UNIT(*) SI_UNIT(.MILLI.,.METRE.) );
#467 = ( NAMED_UNIT(*) PLANE_ANGLE_UNIT() SI_UNIT($,.RADIAN.) );
#468 = ( NAMED_UNIT(*) SI_UNIT($,.STERADIAN.) SOLID_ANGLE_UNIT() );
#469 = UNCERTAINTY_MEASURE_WITH_UNIT(LENGTH_MEASURE(1.E-05),#466,
  'distance_accuracy_value','confusion accuracy');
#470 = CONTEXT_DEPENDENT_SHAPE_REPRESENTATION(#471,#473);
#471 = ( REPRESENTATION_RELATIONSHIP('','',#32,#10) 
REPRESENTATION_RELATIONSHIP_WITH_TRANSFORMATION(#472) 
SHAPE_REPRESENTATION_RELATIONSHIP() );
#472 = ITEM_DEFINED_TRANSFORMATION('','',#11,#15);
#473 = PRODUCT_DEFINITION_SHAPE('Placement','Placement of an item',#474
  );
#474 = NEXT_ASSEMBLY_USAGE_OCCURRENCE('11',
'CAPTIVE_LONG-STROKE_AUTOMATIC-LOCK_COMPRESSION_SPRING_SS_DEPLOYED_
LOCAL_DEFINITION','',#5,#27,$);
#475 = PRODUCT_RELATED_PRODUCT_CATEGORY('part',$,(#29));
#476 = MECHANICAL_DESIGN_GEOMETRIC_PRESENTATION_REPRESENTATION('',(#477)
  ,#465);
#477 = STYLED_ITEM('color',(#478),#33);
#478 = PRESENTATION_STYLE_ASSIGNMENT((#479));
#479 = SURFACE_STYLE_USAGE(.BOTH.,#480);
#480 = SURFACE_SIDE_STYLE('',(#481));
#481 = SURFACE_STYLE_FILL_AREA(#482);
#482 = FILL_AREA_STYLE('',(#483));
#483 = FILL_AREA_STYLE_COLOUR('',#484);
#484 = COLOUR_RGB('',0.789999995908,0.430000007837,0.149999997808);
ENDSEC;
END-ISO-10303-21;
