ISO-10303-21;
HEADER;
FILE_DESCRIPTION(('Open CASCADE Model'),'2;1');
FILE_NAME('Open CASCADE Shape Model','2026-08-26T03:20:21',('Author'),(
    'Open CASCADE'),'Open CASCADE STEP processor 7.9','Open CASCADE 7.9'
  ,'Unknown');
FILE_SCHEMA((
'AP242_MANAGED_MODEL_BASED_3D_ENGINEERING_MIM_LF {1 0 10303 442 1 1 4 }'
    ));
ENDSEC;
DATA;
#1 = APPLICATION_PROTOCOL_DEFINITION('international standard',
  'ap242_managed_model_based_3d_engineering',2013,#2);
#2 = APPLICATION_CONTEXT('Managed model based 3d engineering');
#3 = SHAPE_DEFINITION_REPRESENTATION(#4,#10);
#4 = PRODUCT_DEFINITION_SHAPE('','',#5);
#5 = PRODUCT_DEFINITION('design','',#6,#9);
#6 = PRODUCT_DEFINITION_FORMATION('','',#7);
#7 = PRODUCT(
  'CAPTIVE_LONG-STROKE_AUTOMATIC-LOCK_COMPRESSION_SPRING_SS_STOWED_PART'
  ,
  'CAPTIVE_LONG-STROKE_AUTOMATIC-LOCK_COMPRESSION_SPRING_SS_STOWED_PART'
  ,'',(#8));
#8 = PRODUCT_CONTEXT('',#2,'mechanical');
#9 = PRODUCT_DEFINITION_CONTEXT('part definition',#2,'design');
#10 = SHAPE_REPRESENTATION('',(#11,#15),#19);
#11 = AXIS2_PLACEMENT_3D('',#12,#13,#14);
#12 = CARTESIAN_POINT('',(0.,0.,0.));
#13 = DIRECTION('',(0.,0.,1.));
#14 = DIRECTION('',(1.,0.,-0.));
#15 = AXIS2_PLACEMENT_3D('',#16,#17,#18);
#16 = CARTESIAN_POINT('',(0.,0.,0.));
#17 = DIRECTION('',(0.,0.,1.));
#18 = DIRECTION('',(1.,0.,-0.));
#19 = ( GEOMETRIC_REPRESENTATION_CONTEXT(3) 
GLOBAL_UNCERTAINTY_ASSIGNED_CONTEXT((#23)) GLOBAL_UNIT_ASSIGNED_CONTEXT(
(#20,#21,#22)) REPRESENTATION_CONTEXT('Context #1',
  '3D Context with UNIT and UNCERTAINTY') );
#20 = ( LENGTH_UNIT() NAMED_UNIT(*) SI_UNIT(.MILLI.,.METRE.) );
#21 = ( NAMED_UNIT(*) PLANE_ANGLE_UNIT() SI_UNIT($,.RADIAN.) );
#22 = ( NAMED_UNIT(*) SI_UNIT($,.STERADIAN.) SOLID_ANGLE_UNIT() );
#23 = UNCERTAINTY_MEASURE_WITH_UNIT(LENGTH_MEASURE(1.E-05),#20,
  'distance_accuracy_value','confusion accuracy');
#24 = PRODUCT_RELATED_PRODUCT_CATEGORY('part',$,(#7));
#25 = SHAPE_DEFINITION_REPRESENTATION(#26,#32);
#26 = PRODUCT_DEFINITION_SHAPE('','',#27);
#27 = PRODUCT_DEFINITION('design','',#28,#31);
#28 = PRODUCT_DEFINITION_FORMATION('','',#29);
#29 = PRODUCT(
'CAPTIVE_LONG-STROKE_AUTOMATIC-LOCK_COMPRESSION_SPRING_SS_STOWED_LOCAL_
DEFINITION',
'CAPTIVE_LONG-STROKE_AUTOMATIC-LOCK_COMPRESSION_SPRING_SS_STOWED_LOCAL_
DEFINITION','',(#30));
#30 = PRODUCT_CONTEXT('',#2,'mechanical');
#31 = PRODUCT_DEFINITION_CONTEXT('part definition',#2,'design');
#32 = ADVANCED_BREP_SHAPE_REPRESENTATION('',(#11,#33),#465);
#33 = MANIFOLD_SOLID_BREP('',#34);
#34 = CLOSED_SHELL('',(#35,#457,#461));
#35 = ADVANCED_FACE('',(#36),#88,.F.);
#36 = FACE_BOUND('',#37,.F.);
#37 = EDGE_LOOP('',(#38,#388,#422,#423));
#38 = ORIENTED_EDGE('',*,*,#39,.T.);
#39 = EDGE_CURVE('',#40,#42,#44,.T.);
#40 = VERTEX_POINT('',#41);
#41 = CARTESIAN_POINT('',(0.8,-9.911776260862E-16,8.E-02));
#42 = VERTEX_POINT('',#43);
#43 = CARTESIAN_POINT('',(0.799999999999,-3.886274333202E-08,
    1.570000471976));
#44 = SEAM_CURVE('',#45,(#87,#381),.PCURVE_S1.);
#45 = ( BOUNDED_CURVE() B_SPLINE_CURVE(10,(#46,#47,#48,#49,#50,#51,#52,
    #53,#54,#55,#56,#57,#58,#59,#60,#61,#62,#63,#64,#65,#66,#67,#68,#69,
    #70,#71,#72,#73,#74,#75,#76,#77,#78,#79,#80,#81,#82,#83,#84,#85,#86)
,.UNSPECIFIED.,.F.,.F.) B_SPLINE_CURVE_WITH_KNOTS((11,10,10,10,11),(0.,
    6.294217493411,12.588434986821,18.882652480232,25.176869973643),
.PIECEWISE_BEZIER_KNOTS.) CURVE() GEOMETRIC_REPRESENTATION_ITEM() 
RATIONAL_B_SPLINE_CURVE((1.669078461068,1.669078461068,1.669078461068,
    1.669078461069,1.669078461068,1.669078461069,1.669078461068,
    1.669078461068,1.669078461068,1.669078461068,1.669078461068,
    1.669078461068,1.669078461068,1.669078461069,1.669078461067,
    1.66907846107,1.669078461067,1.669078461069,1.669078461068,
    1.669078461068,1.669078461068,1.669078461068,1.669078461068,
    1.669078461068,1.669078461069,1.669078461067,1.669078461069,
    1.669078461068,1.669078461068,1.669078461068,1.669078461068,
    1.669078461068,1.669078461068,1.669078461069,1.669078461068,
    1.669078461069,1.669078461068,1.669078461068,1.669078461068,
1.669078461068,1.669078461068)) REPRESENTATION_ITEM('') );
#46 = CARTESIAN_POINT('',(0.8,-9.911776260862E-16,8.E-02));
#47 = CARTESIAN_POINT('',(0.8,0.502654893671,0.117252510601));
#48 = CARTESIAN_POINT('',(0.449156461693,1.005713197905,0.154493033047)
  );
#49 = CARTESIAN_POINT('',(-0.253351422301,1.229914966533,0.191762394089)
  );
#50 = CARTESIAN_POINT('',(-1.055554432894,0.915818957651,0.228989483495)
  );
#51 = CARTESIAN_POINT('',(-1.480499986828,-8.502208184409E-08,
    0.266251705298));
#52 = CARTESIAN_POINT('',(-1.055554477435,-0.915818679726,0.303508235898
    ));
#53 = CARTESIAN_POINT('',(-0.253351481987,-1.229915139819,0.340740331861
    ));
#54 = CARTESIAN_POINT('',(0.4491564128,-1.005713088336,0.378005843263));
#55 = CARTESIAN_POINT('',(0.799999975592,-0.502655011385,0.415248918999)
  );
#56 = CARTESIAN_POINT('',(0.8,1.501836849327E-15,0.4525));
#57 = CARTESIAN_POINT('',(0.8,0.502654893671,0.489752510601));
#58 = CARTESIAN_POINT('',(0.449156461693,1.005713197905,0.526993033046)
  );
#59 = CARTESIAN_POINT('',(-0.2533514223,1.229914966532,0.56426239409));
#60 = CARTESIAN_POINT('',(-1.055554432897,0.915818957653,0.601489483495)
  );
#61 = CARTESIAN_POINT('',(-1.480499986824,-8.502412843876E-08,
    0.638751705297));
#62 = CARTESIAN_POINT('',(-1.055554477438,-0.915818679725,0.676008235899
    ));
#63 = CARTESIAN_POINT('',(-0.253351481985,-1.22991513982,0.713240331859)
  );
#64 = CARTESIAN_POINT('',(0.4491564128,-1.005713088335,0.750505843265));
#65 = CARTESIAN_POINT('',(0.799999975592,-0.502655011385,0.787748918998)
  );
#66 = CARTESIAN_POINT('',(0.8,-1.42353576843E-14,0.825));
#67 = CARTESIAN_POINT('',(0.8,0.502654893671,0.8622525106));
#68 = CARTESIAN_POINT('',(0.449156461693,1.005713197905,0.899493033049)
  );
#69 = CARTESIAN_POINT('',(-0.253351422303,1.229914966533,0.936762394085)
  );
#70 = CARTESIAN_POINT('',(-1.055554432891,0.915818957651,0.9739894835));
#71 = CARTESIAN_POINT('',(-1.480499986832,-8.502194532721E-08,
    1.011251705293));
#72 = CARTESIAN_POINT('',(-1.055554477432,-0.915818679727,1.048508235902
    ));
#73 = CARTESIAN_POINT('',(-0.253351481988,-1.229915139818,1.085740331857
    ));
#74 = CARTESIAN_POINT('',(0.449156412801,-1.005713088336,1.123005843266)
  );
#75 = CARTESIAN_POINT('',(0.799999975592,-0.502655011385,1.160248918998)
  );
#76 = CARTESIAN_POINT('',(0.8,-6.358628901193E-15,1.1975));
#77 = CARTESIAN_POINT('',(0.8,0.502654897558,1.234752463403));
#78 = CARTESIAN_POINT('',(0.449156461692,1.005713181246,1.271993235365)
  );
#79 = CARTESIAN_POINT('',(-0.2533514223,1.229915009556,1.309261871581));
#80 = CARTESIAN_POINT('',(-1.055554432897,0.915818876182,1.346490472908)
  );
#81 = CARTESIAN_POINT('',(-1.480499986824,3.596203532446E-08,
    1.383750235985));
#82 = CARTESIAN_POINT('',(-1.05555447744,-0.915818824908,1.421009999072)
  );
#83 = CARTESIAN_POINT('',(-0.253351481981,-1.229914997248,1.458238600391
    ));
#84 = CARTESIAN_POINT('',(0.449156412796,-1.005713203065,1.495507236613)
  );
#85 = CARTESIAN_POINT('',(0.799999975595,-0.50265493642,1.532748008572)
  );
#86 = CARTESIAN_POINT('',(0.799999999999,-3.886274333202E-08,
    1.570000471976));
#87 = PCURVE('',#88,#376);
#88 = ( BOUNDED_SURFACE() B_SPLINE_SURFACE(6,10,(
    (#89,#90,#91,#92,#93,#94,#95,#96,#97,#98,#99,#100,#101,#102,#103
      ,#104,#105,#106,#107,#108,#109,#110,#111,#112,#113,#114,#115,#116
      ,#117,#118,#119,#120,#121,#122,#123,#124,#125,#126,#127,#128,#129)
    ,(#130,#131,#132,#133,#134,#135,#136,#137,#138,#139,#140,#141,#142
      ,#143,#144,#145,#146,#147,#148,#149,#150,#151,#152,#153,#154,#155
      ,#156,#157,#158,#159,#160,#161,#162,#163,#164,#165,#166,#167,#168
      ,#169,#170)
    ,(#171,#172,#173,#174,#175,#176,#177,#178,#179,#180,#181,#182,#183
      ,#184,#185,#186,#187,#188,#189,#190,#191,#192,#193,#194,#195,#196
      ,#197,#198,#199,#200,#201,#202,#203,#204,#205,#206,#207,#208,#209
      ,#210,#211)
    ,(#212,#213,#214,#215,#216,#217,#218,#219,#220,#221,#222,#223,#224
      ,#225,#226,#227,#228,#229,#230,#231,#232,#233,#234,#235,#236,#237
      ,#238,#239,#240,#241,#242,#243,#244,#245,#246,#247,#248,#249,#250
      ,#251,#252)
    ,(#253,#254,#255,#256,#257,#258,#259,#260,#261,#262,#263,#264,#265
      ,#266,#267,#268,#269,#270,#271,#272,#273,#274,#275,#276,#277,#278
      ,#279,#280,#281,#282,#283,#284,#285,#286,#287,#288,#289,#290,#291
      ,#292,#293)
    ,(#294,#295,#296,#297,#298,#299,#300,#301,#302,#303,#304,#305,#306
      ,#307,#308,#309,#310,#311,#312,#313,#314,#315,#316,#317,#318,#319
      ,#320,#321,#322,#323,#324,#325,#326,#327,#328,#329,#330,#331,#332
      ,#333,#334)
    ,(#335,#336,#337,#338,#339,#340,#341,#342,#343,#344,#345,#346,#347
      ,#348,#349,#350,#351,#352,#353,#354,#355,#356,#357,#358,#359,#360
      ,#361,#362,#363,#364,#365,#366,#367,#368,#369,#370,#371,#372,#373
      ,#374,#375
)),.UNSPECIFIED.,.T.,.F.,.F.) B_SPLINE_SURFACE_WITH_KNOTS((1,6,6,1),(11,
    10,10,10,11),(-6.28318530718,0.,6.28318530718,12.566370614359),(0.,
    6.294217493411,12.588434986821,18.882652480232,25.176869973643),
.UNSPECIFIED.) GEOMETRIC_REPRESENTATION_ITEM() RATIONAL_B_SPLINE_SURFACE
((
    (1.669078461068,1.669078461068,1.669078461068,1.669078461069
      ,1.669078461068,1.669078461069,1.669078461068,1.669078461068
      ,1.669078461068,1.669078461068,1.669078461068,1.669078461068
      ,1.669078461068,1.669078461069,1.669078461067,1.66907846107
      ,1.669078461067,1.669078461069,1.669078461068,1.669078461068
      ,1.669078461068,1.669078461068,1.669078461068,1.669078461068
      ,1.669078461069,1.669078461067,1.669078461069,1.669078461068
      ,1.669078461068,1.669078461068,1.669078461068,1.669078461068
      ,1.669078461068,1.669078461069,1.669078461068,1.669078461069
      ,1.669078461068,1.669078461068,1.669078461068,1.669078461068
      ,1.669078461068)
    ,(1.03672962321,1.03672962321,1.036729623209,1.03672962321
      ,1.036729623209,1.03672962321,1.036729623209,1.03672962321
      ,1.03672962321,1.03672962321,1.03672962321,1.03672962321
      ,1.036729623209,1.03672962321,1.036729623209,1.03672962321
      ,1.036729623209,1.03672962321,1.036729623209,1.03672962321
      ,1.03672962321,1.03672962321,1.03672962321,1.036729623209
      ,1.03672962321,1.036729623209,1.03672962321,1.036729623209
      ,1.03672962321,1.03672962321,1.03672962321,1.03672962321
      ,1.03672962321,1.03672962321,1.03672962321,1.03672962321
      ,1.03672962321,1.03672962321,1.03672962321,1.03672962321
      ,1.03672962321)
    ,(1.038346699848,1.038346699848,1.038346699847,1.038346699848
      ,1.038346699847,1.038346699848,1.038346699847,1.038346699848
      ,1.038346699847,1.038346699848,1.038346699848,1.038346699848
      ,1.038346699847,1.038346699848,1.038346699847,1.038346699848
      ,1.038346699847,1.038346699848,1.038346699847,1.038346699848
      ,1.038346699848,1.038346699847,1.038346699848,1.038346699847
      ,1.038346699848,1.038346699847,1.038346699848,1.038346699847
      ,1.038346699848,1.038346699847,1.038346699848,1.038346699848
      ,1.038346699847,1.038346699848,1.038346699847,1.038346699848
      ,1.038346699847,1.038346699848,1.038346699847,1.038346699848
      ,1.038346699848)
    ,(0.853534330196,0.853534330196,0.853534330196,0.853534330196
      ,0.853534330196,0.853534330196,0.853534330196,0.853534330196
      ,0.853534330196,0.853534330196,0.853534330196,0.853534330196
      ,0.853534330196,0.853534330196,0.853534330196,0.853534330197
      ,0.853534330196,0.853534330196,0.853534330196,0.853534330196
      ,0.853534330196,0.853534330196,0.853534330196,0.853534330196
      ,0.853534330196,0.853534330196,0.853534330196,0.853534330196
      ,0.853534330196,0.853534330196,0.853534330196,0.853534330196
      ,0.853534330196,0.853534330196,0.853534330196,0.853534330196
      ,0.853534330196,0.853534330196,0.853534330196,0.853534330196
      ,0.853534330196)
    ,(1.038346699848,1.038346699848,1.038346699847,1.038346699848
      ,1.038346699847,1.038346699848,1.038346699847,1.038346699848
      ,1.038346699847,1.038346699848,1.038346699848,1.038346699848
      ,1.038346699847,1.038346699848,1.038346699847,1.038346699848
      ,1.038346699847,1.038346699848,1.038346699847,1.038346699848
      ,1.038346699848,1.038346699847,1.038346699848,1.038346699847
      ,1.038346699848,1.038346699847,1.038346699848,1.038346699847
      ,1.038346699848,1.038346699847,1.038346699848,1.038346699848
      ,1.038346699847,1.038346699848,1.038346699847,1.038346699848
      ,1.038346699847,1.038346699848,1.038346699847,1.038346699848
      ,1.038346699848)
    ,(1.03672962321,1.03672962321,1.036729623209,1.03672962321
      ,1.036729623209,1.03672962321,1.036729623209,1.03672962321
      ,1.03672962321,1.03672962321,1.03672962321,1.03672962321
      ,1.036729623209,1.03672962321,1.036729623209,1.03672962321
      ,1.036729623209,1.03672962321,1.036729623209,1.03672962321
      ,1.03672962321,1.03672962321,1.03672962321,1.036729623209
      ,1.03672962321,1.036729623209,1.03672962321,1.036729623209
      ,1.03672962321,1.03672962321,1.03672962321,1.03672962321
      ,1.03672962321,1.03672962321,1.036729623209,1.03672962321
      ,1.03672962321,1.03672962321,1.03672962321,1.03672962321
      ,1.03672962321)
    ,(1.669078461068,1.669078461068,1.669078461068,1.669078461069
      ,1.669078461068,1.669078461069,1.669078461068,1.669078461068
      ,1.669078461068,1.669078461068,1.669078461068,1.669078461068
      ,1.669078461068,1.669078461069,1.669078461067,1.66907846107
      ,1.669078461067,1.669078461069,1.669078461068,1.669078461068
      ,1.669078461068,1.669078461068,1.669078461068,1.669078461068
      ,1.669078461069,1.669078461067,1.669078461069,1.669078461068
      ,1.669078461068,1.669078461068,1.669078461068,1.669078461068
      ,1.669078461068,1.669078461069,1.669078461068,1.669078461069
      ,1.669078461068,1.669078461068,1.669078461068,1.669078461068
,1.669078461068))) REPRESENTATION_ITEM('') SURFACE() );
#89 = CARTESIAN_POINT('',(0.8,-9.911776260862E-16,8.E-02));
#90 = CARTESIAN_POINT('',(0.8,0.502654893671,0.117252510601));
#91 = CARTESIAN_POINT('',(0.449156461693,1.005713197905,0.154493033047)
  );
#92 = CARTESIAN_POINT('',(-0.253351422301,1.229914966533,0.191762394089)
  );
#93 = CARTESIAN_POINT('',(-1.055554432894,0.915818957651,0.228989483495)
  );
#94 = CARTESIAN_POINT('',(-1.480499986828,-8.502208184409E-08,
    0.266251705298));
#95 = CARTESIAN_POINT('',(-1.055554477435,-0.915818679726,0.303508235898
    ));
#96 = CARTESIAN_POINT('',(-0.253351481987,-1.229915139819,0.340740331861
    ));
#97 = CARTESIAN_POINT('',(0.4491564128,-1.005713088336,0.378005843263));
#98 = CARTESIAN_POINT('',(0.799999975592,-0.502655011385,0.415248918999)
  );
#99 = CARTESIAN_POINT('',(0.8,1.501836849327E-15,0.4525));
#100 = CARTESIAN_POINT('',(0.8,0.502654893671,0.489752510601));
#101 = CARTESIAN_POINT('',(0.449156461693,1.005713197905,0.526993033046)
  );
#102 = CARTESIAN_POINT('',(-0.2533514223,1.229914966532,0.56426239409));
#103 = CARTESIAN_POINT('',(-1.055554432897,0.915818957653,0.601489483495
    ));
#104 = CARTESIAN_POINT('',(-1.480499986824,-8.502412843876E-08,
    0.638751705297));
#105 = CARTESIAN_POINT('',(-1.055554477438,-0.915818679725,
    0.676008235899));
#106 = CARTESIAN_POINT('',(-0.253351481985,-1.22991513982,0.713240331859
    ));
#107 = CARTESIAN_POINT('',(0.4491564128,-1.005713088335,0.750505843265)
  );
#108 = CARTESIAN_POINT('',(0.799999975592,-0.502655011385,0.787748918998
    ));
#109 = CARTESIAN_POINT('',(0.8,-1.42353576843E-14,0.825));
#110 = CARTESIAN_POINT('',(0.8,0.502654893671,0.8622525106));
#111 = CARTESIAN_POINT('',(0.449156461693,1.005713197905,0.899493033049)
  );
#112 = CARTESIAN_POINT('',(-0.253351422303,1.229914966533,0.936762394085
    ));
#113 = CARTESIAN_POINT('',(-1.055554432891,0.915818957651,0.9739894835)
  );
#114 = CARTESIAN_POINT('',(-1.480499986832,-8.502194532721E-08,
    1.011251705293));
#115 = CARTESIAN_POINT('',(-1.055554477432,-0.915818679727,
    1.048508235902));
#116 = CARTESIAN_POINT('',(-0.253351481988,-1.229915139818,
    1.085740331857));
#117 = CARTESIAN_POINT('',(0.449156412801,-1.005713088336,1.123005843266
    ));
#118 = CARTESIAN_POINT('',(0.799999975592,-0.502655011385,1.160248918998
    ));
#119 = CARTESIAN_POINT('',(0.8,-6.358628901193E-15,1.1975));
#120 = CARTESIAN_POINT('',(0.8,0.502654897558,1.234752463403));
#121 = CARTESIAN_POINT('',(0.449156461692,1.005713181246,1.271993235365)
  );
#122 = CARTESIAN_POINT('',(-0.2533514223,1.229915009556,1.309261871581)
  );
#123 = CARTESIAN_POINT('',(-1.055554432897,0.915818876182,1.346490472908
    ));
#124 = CARTESIAN_POINT('',(-1.480499986824,3.596203532446E-08,
    1.383750235985));
#125 = CARTESIAN_POINT('',(-1.05555447744,-0.915818824908,1.421009999072
    ));
#126 = CARTESIAN_POINT('',(-0.253351481981,-1.229914997248,
    1.458238600391));
#127 = CARTESIAN_POINT('',(0.449156412796,-1.005713203065,1.495507236613
    ));
#128 = CARTESIAN_POINT('',(0.799999975595,-0.50265493642,1.532748008572)
  );
#129 = CARTESIAN_POINT('',(0.799999999999,-3.886274333202E-08,
    1.570000471976));
#130 = CARTESIAN_POINT('',(0.8,-6.123573870198E-16,0.212923446046));
#131 = CARTESIAN_POINT('',(0.799995828528,0.502654647304,0.250175956646)
  );
#132 = CARTESIAN_POINT('',(0.449168007876,1.005712806344,0.287416479076)
  );
#133 = CARTESIAN_POINT('',(-0.253370850123,1.229914222635,0.324685840206
    ));
#134 = CARTESIAN_POINT('',(-1.055536775766,0.915818404233,0.36191292937)
  );
#135 = CARTESIAN_POINT('',(-1.480501702497,2.212424536163E-07,
    0.399175151601));
#136 = CARTESIAN_POINT('',(-1.055566526334,-0.91581833542,0.43643168168)
  );
#137 = CARTESIAN_POINT('',(-0.253335550881,-1.229914678065,
    0.473663778086));
#138 = CARTESIAN_POINT('',(0.449147077594,-1.005712494043,0.51092928923)
  );
#139 = CARTESIAN_POINT('',(0.800001771722,-0.502654765019,0.548172365062
    ));
#140 = CARTESIAN_POINT('',(0.8,9.182541879649E-15,0.585423446045));
#141 = CARTESIAN_POINT('',(0.799995828527,0.502654647304,0.622675956647)
  );
#142 = CARTESIAN_POINT('',(0.449168007878,1.005712806344,0.659916479075)
  );
#143 = CARTESIAN_POINT('',(-0.253370850126,1.229914222634,0.697185840207
    ));
#144 = CARTESIAN_POINT('',(-1.055536775763,0.915818404234,0.73441292937)
  );
#145 = CARTESIAN_POINT('',(-1.480501702499,2.21240123505E-07,
    0.7716751516));
#146 = CARTESIAN_POINT('',(-1.055566526335,-0.915818335417,
    0.808931681682));
#147 = CARTESIAN_POINT('',(-0.253335550879,-1.229914678068,
    0.846163778084));
#148 = CARTESIAN_POINT('',(0.449147077592,-1.005712494042,0.883429289231
    ));
#149 = CARTESIAN_POINT('',(0.800001771724,-0.502654765019,0.920672365061
    ));
#150 = CARTESIAN_POINT('',(0.799999999999,-6.827741497184E-14,
    0.957923446046));
#151 = CARTESIAN_POINT('',(0.799995828531,0.502654647304,0.995175956645)
  );
#152 = CARTESIAN_POINT('',(0.44916800787,1.005712806345,1.032416479078)
  );
#153 = CARTESIAN_POINT('',(-0.253370850114,1.229914222633,1.069685840202
    ));
#154 = CARTESIAN_POINT('',(-1.055536775778,0.915818404234,1.106912929375
    ));
#155 = CARTESIAN_POINT('',(-1.480501702484,2.212415460758E-07,
    1.144175151596));
#156 = CARTESIAN_POINT('',(-1.055566526346,-0.91581833542,1.181431681685
    ));
#157 = CARTESIAN_POINT('',(-0.253335550872,-1.229914678064,
    1.218663778082));
#158 = CARTESIAN_POINT('',(0.449147077588,-1.005712494043,1.255929289232
    ));
#159 = CARTESIAN_POINT('',(0.800001771724,-0.502654765019,1.293172365061
    ));
#160 = CARTESIAN_POINT('',(0.8,-8.055405301133E-15,1.330423446046));
#161 = CARTESIAN_POINT('',(0.799995906951,0.50265465119,1.367675909448)
  );
#162 = CARTESIAN_POINT('',(0.449167671713,1.005712789686,1.404916681393)
  );
#163 = CARTESIAN_POINT('',(-0.25336998195,1.229914265657,1.442185317701)
  );
#164 = CARTESIAN_POINT('',(-1.055538419724,0.915818322766,1.479413918778
    ));
#165 = CARTESIAN_POINT('',(-1.480499261163,3.422248490137E-07,
    1.516673682295));
#166 = CARTESIAN_POINT('',(-1.055569455933,-0.9158184806,1.553933444846)
  );
#167 = CARTESIAN_POINT('',(-0.253332673962,-1.229914535496,
    1.591162046625));
#168 = CARTESIAN_POINT('',(0.449144762479,-1.005712608771,1.628430682572
    ));
#169 = CARTESIAN_POINT('',(0.800003284438,-0.502654690055,1.66567145464)
  );
#170 = CARTESIAN_POINT('',(0.799999215791,-3.886254630082E-08,
    1.702923918019));
#171 = CARTESIAN_POINT('',(0.635636144756,-1.281526967878E-16,
    0.23200899066));
#172 = CARTESIAN_POINT('',(0.635631374332,0.399381613937,0.26925634311)
  );
#173 = CARTESIAN_POINT('',(0.356887840662,0.799085431795,0.306516337629)
  );
#174 = CARTESIAN_POINT('',(-0.201319123831,0.977219038094,0.343745920577
    ));
#175 = CARTESIAN_POINT('',(-0.838671225417,0.727661944853,0.381020080626
    ));
#176 = CARTESIAN_POINT('',(-1.176318512492,4.398996391534E-07,
    0.418257192634));
#177 = CARTESIAN_POINT('',(-0.838705149754,-0.727662477075,
    0.455500305209));
#178 = CARTESIAN_POINT('',(-0.201278625023,-0.977219178011,
    0.492769186383));
#179 = CARTESIAN_POINT('',(0.356864012621,-0.799085315499,0.530002828566
    ));
#180 = CARTESIAN_POINT('',(0.635638224519,-0.399381489803,0.567260130647
    ));
#181 = CARTESIAN_POINT('',(0.635636144757,-1.295318019512E-14,
    0.60450899066));
#182 = CARTESIAN_POINT('',(0.635631374331,0.399381613937,0.641756343109)
  );
#183 = CARTESIAN_POINT('',(0.356887840665,0.799085431795,0.679016337631)
  );
#184 = CARTESIAN_POINT('',(-0.201319123835,0.977219038092,0.716245920574
    ));
#185 = CARTESIAN_POINT('',(-0.838671225413,0.727661944855,0.753520080631
    ));
#186 = CARTESIAN_POINT('',(-1.176318512494,4.39896959641E-07,
    0.790757192629));
#187 = CARTESIAN_POINT('',(-0.838705149753,-0.727662477073,
    0.828000305212));
#188 = CARTESIAN_POINT('',(-0.201278625022,-0.977219178012,
    0.865269186382));
#189 = CARTESIAN_POINT('',(0.356864012619,-0.799085315498,0.902502828565
    ));
#190 = CARTESIAN_POINT('',(0.635638224521,-0.399381489803,0.939760130648
    ));
#191 = CARTESIAN_POINT('',(0.635636144755,-7.106706716165E-14,
    0.977008990659));
#192 = CARTESIAN_POINT('',(0.635631374335,0.399381613937,1.014256343111)
  );
#193 = CARTESIAN_POINT('',(0.356887840656,0.799085431795,1.051516337624)
  );
#194 = CARTESIAN_POINT('',(-0.20131912382,0.977219038092,1.088745920585)
  );
#195 = CARTESIAN_POINT('',(-0.838671225432,0.727661944855,1.126020080614
    ));
#196 = CARTESIAN_POINT('',(-1.176318512476,4.398968965679E-07,
    1.163257192647));
#197 = CARTESIAN_POINT('',(-0.838705149768,-0.727662477073,
    1.200500305197));
#198 = CARTESIAN_POINT('',(-0.201278625012,-0.977219178012,
    1.237769186391));
#199 = CARTESIAN_POINT('',(0.356864012615,-0.799085315498,1.275002828562
    ));
#200 = CARTESIAN_POINT('',(0.635638224522,-0.399381489803,1.312260130649
    ));
#201 = CARTESIAN_POINT('',(0.635636144756,1.742009314576E-14,
    1.34950899066));
#202 = CARTESIAN_POINT('',(0.635631464014,0.399381609838,1.386756392883)
  );
#203 = CARTESIAN_POINT('',(0.356887456235,0.799085449363,1.424016124272)
  );
#204 = CARTESIAN_POINT('',(-0.201318131007,0.977218992722,1.461246471592
    ));
#205 = CARTESIAN_POINT('',(-0.838673105413,0.727662030767,1.498519037233
    ));
#206 = CARTESIAN_POINT('',(-1.176315720633,3.123143249865E-07,
    1.535758742107));
#207 = CARTESIAN_POINT('',(-0.838708499982,-0.727662323974,
    1.572998445843));
#208 = CARTESIAN_POINT('',(-0.201275335039,-0.977219328359,
    1.610271012313));
#209 = CARTESIAN_POINT('',(0.356861365104,-0.799085194511,1.647501359204
    ));
#210 = CARTESIAN_POINT('',(0.635639954429,-0.399381568858,1.684761090741
    ));
#211 = CARTESIAN_POINT('',(0.635635247951,4.098284813923E-08,
    1.722008492936));
#212 = CARTESIAN_POINT('',(0.500070646319,-8.448103328007E-16,8.E-02));
#213 = CARTESIAN_POINT('',(0.50007064632,0.314203463795,0.117243098065)
  );
#214 = CARTESIAN_POINT('',(0.280761603212,0.628661942037,0.15451915297)
  );
#215 = CARTESIAN_POINT('',(-0.158362914908,0.768799770437,0.1917159272)
  );
#216 = CARTESIAN_POINT('',(-0.659825190261,0.572473266859,0.229028911102
    ));
#217 = CARTESIAN_POINT('',(-0.925429400729,2.337373794913E-07,
    0.266245311935));
#218 = CARTESIAN_POINT('',(-0.659825067813,-0.572474030909,
    0.303477358556));
#219 = CARTESIAN_POINT('',(-0.158362750827,-0.768799294052,
    0.340776578844));
#220 = CARTESIAN_POINT('',(0.280761737623,-0.628662243255,0.377983936186
    ));
#221 = CARTESIAN_POINT('',(0.500070713419,-0.314203140185,0.415252971799
    ));
#222 = CARTESIAN_POINT('',(0.500070646319,-4.290101260351E-14,0.4525));
#223 = CARTESIAN_POINT('',(0.50007064632,0.314203463795,0.489743098063)
  );
#224 = CARTESIAN_POINT('',(0.280761603211,0.628661942038,0.527019152974)
  );
#225 = CARTESIAN_POINT('',(-0.158362914907,0.768799770435,0.564215927193
    ));
#226 = CARTESIAN_POINT('',(-0.659825190263,0.572473266862,0.601528911111
    ));
#227 = CARTESIAN_POINT('',(-0.925429400727,2.337347884925E-07,
    0.638745311927));
#228 = CARTESIAN_POINT('',(-0.659825067814,-0.572474030908,0.67597735856
    ));
#229 = CARTESIAN_POINT('',(-0.158362750826,-0.768799294052,
    0.713276578844));
#230 = CARTESIAN_POINT('',(0.280761737623,-0.628662243255,0.750483936184
    ));
#231 = CARTESIAN_POINT('',(0.500070713419,-0.314203140185,0.787752971801
    ));
#232 = CARTESIAN_POINT('',(0.500070646319,-3.91722244919E-15,
    0.824999999999));
#233 = CARTESIAN_POINT('',(0.50007064632,0.314203463795,0.862243098069)
  );
#234 = CARTESIAN_POINT('',(0.280761603212,0.628661942037,0.89951915296)
  );
#235 = CARTESIAN_POINT('',(-0.158362914909,0.768799770437,0.936715927219
    ));
#236 = CARTESIAN_POINT('',(-0.65982519026,0.57247326686,0.974028911076)
  );
#237 = CARTESIAN_POINT('',(-0.92542940073,2.337341070307E-07,
    1.011245311963));
#238 = CARTESIAN_POINT('',(-0.659825067812,-0.572474030904,
    1.048477358531));
#239 = CARTESIAN_POINT('',(-0.158362750827,-0.768799294056,
    1.085776578861));
#240 = CARTESIAN_POINT('',(0.280761737623,-0.628662243253,1.122983936176
    ));
#241 = CARTESIAN_POINT('',(0.500070713419,-0.314203140186,1.160252971802
    ));
#242 = CARTESIAN_POINT('',(0.500070646319,3.902780876253E-14,1.1975));
#243 = CARTESIAN_POINT('',(0.500070646319,0.314203453111,1.234743227818)
  );
#244 = CARTESIAN_POINT('',(0.280761603213,0.628661987834,1.272018596771)
  );
#245 = CARTESIAN_POINT('',(-0.158362914913,0.768799652161,1.309217363639
    ));
#246 = CARTESIAN_POINT('',(-0.659825190252,0.572473490826,1.346526191084
    ));
#247 = CARTESIAN_POINT('',(-0.925429400741,-9.886215399232E-08,
    1.383749351255));
#248 = CARTESIAN_POINT('',(-0.659825067798,-0.572473631789,
    1.420972511377));
#249 = CARTESIAN_POINT('',(-0.158362750841,-0.768799685995,1.45828133886
    ));
#250 = CARTESIAN_POINT('',(0.280761737635,-0.628661927851,1.495480105705
    ));
#251 = CARTESIAN_POINT('',(0.500070713412,-0.314203346273,1.532755474668
    ));
#252 = CARTESIAN_POINT('',(0.500070646323,1.068382039166E-07,
    1.569998702484));
#253 = CARTESIAN_POINT('',(0.635636144756,-4.722784663347E-16,
    -7.200899065965E-02));
#254 = CARTESIAN_POINT('',(0.63564091518,0.39938217742,
    -3.476163820907E-02));
#255 = CARTESIAN_POINT('',(0.356861432627,0.799086327358,
    2.498356347784E-03));
#256 = CARTESIAN_POINT('',(-0.201274689178,0.977220739512,
    3.972793909432E-02));
#257 = CARTESIAN_POINT('',(-0.838711610201,0.727663210612,
    7.70020996978E-02));
#258 = CARTESIAN_POINT('',(-1.176314588471,-2.60578026079E-07,
    0.114239210726));
#259 = CARTESIAN_POINT('',(-0.838677591922,-0.727663264562,
    0.151482324491));
#260 = CARTESIAN_POINT('',(-0.201315062105,-0.977220234117,
    0.188751204653));
#261 = CARTESIAN_POINT('',(0.356885363788,-0.799086674746,0.225984847429
    ));
#262 = CARTESIAN_POINT('',(0.635634116471,-0.399382053283,0.263242149288
    ));
#263 = CARTESIAN_POINT('',(0.635636144756,-3.283419543199E-14,
    0.300491009341));
#264 = CARTESIAN_POINT('',(0.635640915181,0.39938217742,0.33773836179));
#265 = CARTESIAN_POINT('',(0.356861432623,0.799086327359,0.37499835635)
  );
#266 = CARTESIAN_POINT('',(-0.201274689173,0.97722073951,0.412227939091)
  );
#267 = CARTESIAN_POINT('',(-0.838711610208,0.727663210615,0.449502099703
    ));
#268 = CARTESIAN_POINT('',(-1.176314588463,-2.605800214269E-07,
    0.486739210722));
#269 = CARTESIAN_POINT('',(-0.838677591927,-0.727663264562,
    0.523982324494));
#270 = CARTESIAN_POINT('',(-0.201315062104,-0.977220234116,
    0.561251204652));
#271 = CARTESIAN_POINT('',(0.356885363789,-0.799086674746,0.598484847428
    ));
#272 = CARTESIAN_POINT('',(0.63563411647,-0.399382053283,0.635742149289)
  );
#273 = CARTESIAN_POINT('',(0.635636144757,5.371679663579E-14,
    0.67299100934));
#274 = CARTESIAN_POINT('',(0.635640915177,0.39938217742,0.710238361793)
  );
#275 = CARTESIAN_POINT('',(0.356861432634,0.799086327357,0.747498356343)
  );
#276 = CARTESIAN_POINT('',(-0.201274689192,0.977220739515,0.784727939103
    ));
#277 = CARTESIAN_POINT('',(-0.838711610181,0.72766321061,0.822002099686)
  );
#278 = CARTESIAN_POINT('',(-1.176314588493,-2.605783534621E-07,
    0.85923921074));
#279 = CARTESIAN_POINT('',(-0.838677591904,-0.727663264559,
    0.896482324479));
#280 = CARTESIAN_POINT('',(-0.201315062117,-0.97722023412,0.933751204661
    ));
#281 = CARTESIAN_POINT('',(0.356885363794,-0.799086674745,0.970984847425
    ));
#282 = CARTESIAN_POINT('',(0.635634116469,-0.399382053283,1.00824214929)
  );
#283 = CARTESIAN_POINT('',(0.635636144756,1.912662736525E-14,
    1.04549100934));
#284 = CARTESIAN_POINT('',(0.635640825498,0.399382173322,1.082738411564)
  );
#285 = CARTESIAN_POINT('',(0.356861817056,0.799086344925,1.119998142994)
  );
#286 = CARTESIAN_POINT('',(-0.201275682007,0.977220694144,1.157228490103
    ));
#287 = CARTESIAN_POINT('',(-0.838709730196,0.727663296522,1.194501056316
    ));
#288 = CARTESIAN_POINT('',(-1.176317380341,-3.881596657026E-07,
    1.231740760184));
#289 = CARTESIAN_POINT('',(-0.838674241682,-0.727663111463,
    1.268980465145));
#290 = CARTESIAN_POINT('',(-0.2013183521,-0.977220384464,1.306253030564)
  );
#291 = CARTESIAN_POINT('',(0.356888011313,-0.799086553759,1.343483378082
    ));
#292 = CARTESIAN_POINT('',(0.635632386556,-0.399382132337,1.380743109372
    ));
#293 = CARTESIAN_POINT('',(0.635637041564,4.098240034486E-08,
    1.417990511622));
#294 = CARTESIAN_POINT('',(0.8,6.548581121812E-17,-5.292344604568E-02));
#295 = CARTESIAN_POINT('',(0.800004171471,0.502655140039,
    -1.567093544455E-02));
#296 = CARTESIAN_POINT('',(0.44914491551,1.005713589465,
    2.156958701782E-02));
#297 = CARTESIAN_POINT('',(-0.253331994479,1.229915710431,
    5.883894797153E-02));
#298 = CARTESIAN_POINT('',(-1.055572090023,0.915819511069,
    9.606603762069E-02));
#299 = CARTESIAN_POINT('',(-1.480498271158,-3.912864516406E-07,
    0.133328258995));
#300 = CARTESIAN_POINT('',(-1.055542428536,-0.915819024033,
    0.170584790115));
#301 = CARTESIAN_POINT('',(-0.253367413092,-1.229915601572,
    0.207816885636));
#302 = CARTESIAN_POINT('',(0.449165748007,-1.005713682629,0.245082397297
    ));
#303 = CARTESIAN_POINT('',(0.799998179462,-0.502655257751,0.282325472936
    ));
#304 = CARTESIAN_POINT('',(0.8,-8.35854822856E-15,0.319576553954));
#305 = CARTESIAN_POINT('',(0.800004171473,0.502655140039,0.356829064556)
  );
#306 = CARTESIAN_POINT('',(0.449144915507,1.005713589466,0.394069587017)
  );
#307 = CARTESIAN_POINT('',(-0.253331994474,1.22991571043,0.431338947972)
  );
#308 = CARTESIAN_POINT('',(-1.055572090031,0.915819511071,0.46856603762)
  );
#309 = CARTESIAN_POINT('',(-1.48049827115,-3.912881505206E-07,
    0.505828258994));
#310 = CARTESIAN_POINT('',(-1.055542428541,-0.915819024033,
    0.543084790116));
#311 = CARTESIAN_POINT('',(-0.25336741309,-1.229915601572,0.580316885634
    ));
#312 = CARTESIAN_POINT('',(0.449165748008,-1.005713682629,0.617582397299
    ));
#313 = CARTESIAN_POINT('',(0.799998179461,-0.502655257752,0.654825472935
    ));
#314 = CARTESIAN_POINT('',(0.800000000001,4.036636476468E-14,
    0.692076553955));
#315 = CARTESIAN_POINT('',(0.800004171469,0.502655140039,0.729329064554)
  );
#316 = CARTESIAN_POINT('',(0.449144915517,1.005713589464,0.76656958702)
  );
#317 = CARTESIAN_POINT('',(-0.253331994491,1.229915710433,0.803838947968
    ));
#318 = CARTESIAN_POINT('',(-1.055572090005,0.915819511067,0.841066037625
    ));
#319 = CARTESIAN_POINT('',(-1.480498271178,-3.912853228161E-07,
    0.87832825899));
#320 = CARTESIAN_POINT('',(-1.055542428519,-0.915819024033,
    0.915584790119));
#321 = CARTESIAN_POINT('',(-0.253367413103,-1.229915601572,
    0.952816885632));
#322 = CARTESIAN_POINT('',(0.449165748013,-1.005713682629,0.9900823973)
  );
#323 = CARTESIAN_POINT('',(0.79999817946,-0.502655257751,1.027325472934)
  );
#324 = CARTESIAN_POINT('',(0.8,-5.230841801374E-15,1.064576553955));
#325 = CARTESIAN_POINT('',(0.80000409305,0.502655143925,1.101829017357)
  );
#326 = CARTESIAN_POINT('',(0.449145251671,1.005713572806,1.139069789337)
  );
#327 = CARTESIAN_POINT('',(-0.253332862649,1.229915753456,1.176338425461
    ));
#328 = CARTESIAN_POINT('',(-1.055570446069,0.915819429598,1.213567027038
    ));
#329 = CARTESIAN_POINT('',(-1.480500712486,-2.703006066061E-07,
    1.250826789675));
#330 = CARTESIAN_POINT('',(-1.055539498947,-0.915819169215,
    1.288086553298));
#331 = CARTESIAN_POINT('',(-0.253370290001,-1.229915459001,
    1.325315154157));
#332 = CARTESIAN_POINT('',(0.449168063113,-1.005713797359,1.362583790653
    ));
#333 = CARTESIAN_POINT('',(0.799996666752,-0.502655182786,1.399824562505
    ));
#334 = CARTESIAN_POINT('',(0.800000784206,-3.886293884901E-08,
    1.437077025932));
#335 = CARTESIAN_POINT('',(0.8,-9.911776260862E-16,8.E-02));
#336 = CARTESIAN_POINT('',(0.8,0.502654893671,0.117252510601));
#337 = CARTESIAN_POINT('',(0.449156461693,1.005713197905,0.154493033047)
  );
#338 = CARTESIAN_POINT('',(-0.253351422301,1.229914966533,0.191762394089
    ));
#339 = CARTESIAN_POINT('',(-1.055554432894,0.915818957651,0.228989483495
    ));
#340 = CARTESIAN_POINT('',(-1.480499986828,-8.502208184409E-08,
    0.266251705298));
#341 = CARTESIAN_POINT('',(-1.055554477435,-0.915818679726,
    0.303508235898));
#342 = CARTESIAN_POINT('',(-0.253351481987,-1.229915139819,
    0.340740331861));
#343 = CARTESIAN_POINT('',(0.4491564128,-1.005713088336,0.378005843263)
  );
#344 = CARTESIAN_POINT('',(0.799999975592,-0.502655011385,0.415248918999
    ));
#345 = CARTESIAN_POINT('',(0.8,1.501836849327E-15,0.4525));
#346 = CARTESIAN_POINT('',(0.8,0.502654893671,0.489752510601));
#347 = CARTESIAN_POINT('',(0.449156461693,1.005713197905,0.526993033046)
  );
#348 = CARTESIAN_POINT('',(-0.2533514223,1.229914966532,0.56426239409));
#349 = CARTESIAN_POINT('',(-1.055554432897,0.915818957653,0.601489483495
    ));
#350 = CARTESIAN_POINT('',(-1.480499986824,-8.502412843876E-08,
    0.638751705297));
#351 = CARTESIAN_POINT('',(-1.055554477438,-0.915818679725,
    0.676008235899));
#352 = CARTESIAN_POINT('',(-0.253351481985,-1.22991513982,0.713240331859
    ));
#353 = CARTESIAN_POINT('',(0.4491564128,-1.005713088335,0.750505843265)
  );
#354 = CARTESIAN_POINT('',(0.799999975592,-0.502655011385,0.787748918998
    ));
#355 = CARTESIAN_POINT('',(0.8,-1.42353576843E-14,0.825));
#356 = CARTESIAN_POINT('',(0.8,0.502654893671,0.8622525106));
#357 = CARTESIAN_POINT('',(0.449156461693,1.005713197905,0.899493033049)
  );
#358 = CARTESIAN_POINT('',(-0.253351422303,1.229914966533,0.936762394085
    ));
#359 = CARTESIAN_POINT('',(-1.055554432891,0.915818957651,0.9739894835)
  );
#360 = CARTESIAN_POINT('',(-1.480499986832,-8.502194532721E-08,
    1.011251705293));
#361 = CARTESIAN_POINT('',(-1.055554477432,-0.915818679727,
    1.048508235902));
#362 = CARTESIAN_POINT('',(-0.253351481988,-1.229915139818,
    1.085740331857));
#363 = CARTESIAN_POINT('',(0.449156412801,-1.005713088336,1.123005843266
    ));
#364 = CARTESIAN_POINT('',(0.799999975592,-0.502655011385,1.160248918998
    ));
#365 = CARTESIAN_POINT('',(0.8,-6.358628901193E-15,1.1975));
#366 = CARTESIAN_POINT('',(0.8,0.502654897558,1.234752463403));
#367 = CARTESIAN_POINT('',(0.449156461692,1.005713181246,1.271993235365)
  );
#368 = CARTESIAN_POINT('',(-0.2533514223,1.229915009556,1.309261871581)
  );
#369 = CARTESIAN_POINT('',(-1.055554432897,0.915818876182,1.346490472908
    ));
#370 = CARTESIAN_POINT('',(-1.480499986824,3.596203532446E-08,
    1.383750235985));
#371 = CARTESIAN_POINT('',(-1.05555447744,-0.915818824908,1.421009999072
    ));
#372 = CARTESIAN_POINT('',(-0.253351481981,-1.229914997248,
    1.458238600391));
#373 = CARTESIAN_POINT('',(0.449156412796,-1.005713203065,1.495507236613
    ));
#374 = CARTESIAN_POINT('',(0.799999975595,-0.50265493642,1.532748008572)
  );
#375 = CARTESIAN_POINT('',(0.799999999999,-3.886274333202E-08,
    1.570000471976));
#376 = DEFINITIONAL_REPRESENTATION('',(#377),#380);
#377 = B_SPLINE_CURVE_WITH_KNOTS('',1,(#378,#379),.UNSPECIFIED.,.F.,.F.,
  (2,2),(0.,25.176869973643),.PIECEWISE_BEZIER_KNOTS.);
#378 = CARTESIAN_POINT('',(6.28318530718,0.));
#379 = CARTESIAN_POINT('',(6.28318530718,25.176869973643));
#380 = ( GEOMETRIC_REPRESENTATION_CONTEXT(2) 
PARAMETRIC_REPRESENTATION_CONTEXT() REPRESENTATION_CONTEXT('2D SPACE',''
  ) );
#381 = PCURVE('',#88,#382);
#382 = DEFINITIONAL_REPRESENTATION('',(#383),#387);
#383 = LINE('',#384,#385);
#384 = CARTESIAN_POINT('',(0.,0.));
#385 = VECTOR('',#386,1.);
#386 = DIRECTION('',(0.,1.));
#387 = ( GEOMETRIC_REPRESENTATION_CONTEXT(2) 
PARAMETRIC_REPRESENTATION_CONTEXT() REPRESENTATION_CONTEXT('2D SPACE',''
  ) );
#388 = ORIENTED_EDGE('',*,*,#389,.F.);
#389 = EDGE_CURVE('',#42,#42,#390,.T.);
#390 = SURFACE_CURVE('',#391,(#399,#406),.PCURVE_S1.);
#391 = ( BOUNDED_CURVE() B_SPLINE_CURVE(6,(#392,#393,#394,#395,#396,#397
,#398),.UNSPECIFIED.,.T.,.F.) B_SPLINE_CURVE_WITH_KNOTS((1,6,6,1),(
    -6.28318530718,0.,6.28318530718,12.566370614359),.UNSPECIFIED.) 
CURVE() GEOMETRIC_REPRESENTATION_ITEM() RATIONAL_B_SPLINE_CURVE((
    1.669078461068,1.03672962321,1.038346699848,0.853534330196,
1.038346699848,1.03672962321,1.669078461068)) REPRESENTATION_ITEM('') );
#392 = CARTESIAN_POINT('',(0.799999999999,-3.886274333202E-08,
    1.570000471976));
#393 = CARTESIAN_POINT('',(0.799999215791,-3.886254630082E-08,
    1.702923918019));
#394 = CARTESIAN_POINT('',(0.635635247951,4.098284813923E-08,
    1.722008492936));
#395 = CARTESIAN_POINT('',(0.500070646323,1.068382039166E-07,
    1.569998702484));
#396 = CARTESIAN_POINT('',(0.635637041564,4.098240034486E-08,
    1.417990511622));
#397 = CARTESIAN_POINT('',(0.800000784206,-3.886293884901E-08,
    1.437077025932));
#398 = CARTESIAN_POINT('',(0.799999999999,-3.886274333202E-08,
    1.570000471976));
#399 = PCURVE('',#88,#400);
#400 = DEFINITIONAL_REPRESENTATION('',(#401),#405);
#401 = LINE('',#402,#403);
#402 = CARTESIAN_POINT('',(0.,25.176869973643));
#403 = VECTOR('',#404,1.);
#404 = DIRECTION('',(1.,0.));
#405 = ( GEOMETRIC_REPRESENTATION_CONTEXT(2) 
PARAMETRIC_REPRESENTATION_CONTEXT() REPRESENTATION_CONTEXT('2D SPACE',''
  ) );
#406 = PCURVE('',#407,#412);
#407 = PLANE('',#408);
#408 = AXIS2_PLACEMENT_3D('',#409,#410,#411);
#409 = CARTESIAN_POINT('',(0.720012673859,-6.162201663251E-12,
    1.570000000075));
#410 = DIRECTION('',(-4.857842216831E-07,-1.,-1.391017940924E-12));
#411 = DIRECTION('',(-1.,4.857842216831E-07,-9.629649721936E-35));
#412 = DEFINITIONAL_REPRESENTATION('',(#413),#421);
#413 = ( BOUNDED_CURVE() B_SPLINE_CURVE(6,(#414,#415,#416,#417,#418,#419
,#420),.UNSPECIFIED.,.T.,.F.) B_SPLINE_CURVE_WITH_KNOTS((1,6,6,1),(
    -6.28318530718,0.,6.28318530718,12.566370614359),.UNSPECIFIED.) 
CURVE() GEOMETRIC_REPRESENTATION_ITEM() RATIONAL_B_SPLINE_CURVE((
    1.669078461068,1.03672962321,1.038346699848,0.853534330196,
1.038346699848,1.03672962321,1.669078461068)) REPRESENTATION_ITEM('') );
#414 = CARTESIAN_POINT('',(-7.998732613982E-02,-4.719008912524E-07));
#415 = CARTESIAN_POINT('',(-7.998654193192E-02,-0.132923917944));
#416 = CARTESIAN_POINT('',(8.437742590797E-02,-0.152008492861));
#417 = CARTESIAN_POINT('',(0.219942027536,1.297591055716E-06));
#418 = CARTESIAN_POINT('',(8.437563229437E-02,0.152009488453));
#419 = CARTESIAN_POINT('',(-7.998811034772E-02,0.132922974142));
#420 = CARTESIAN_POINT('',(-7.998732613982E-02,-4.719008912524E-07));
#421 = ( GEOMETRIC_REPRESENTATION_CONTEXT(2) 
PARAMETRIC_REPRESENTATION_CONTEXT() REPRESENTATION_CONTEXT('2D SPACE',''
  ) );
#422 = ORIENTED_EDGE('',*,*,#39,.F.);
#423 = ORIENTED_EDGE('',*,*,#424,.T.);
#424 = EDGE_CURVE('',#40,#40,#425,.T.);
#425 = SURFACE_CURVE('',#426,(#434,#441),.PCURVE_S1.);
#426 = ( BOUNDED_CURVE() B_SPLINE_CURVE(6,(#427,#428,#429,#430,#431,#432
,#433),.UNSPECIFIED.,.T.,.F.) B_SPLINE_CURVE_WITH_KNOTS((1,6,6,1),(
    -6.28318530718,0.,6.28318530718,12.566370614359),.UNSPECIFIED.) 
CURVE() GEOMETRIC_REPRESENTATION_ITEM() RATIONAL_B_SPLINE_CURVE((
    1.669078461068,1.03672962321,1.038346699848,0.853534330196,
1.038346699848,1.03672962321,1.669078461068)) REPRESENTATION_ITEM('') );
#427 = CARTESIAN_POINT('',(0.8,-9.911776260862E-16,8.E-02));
#428 = CARTESIAN_POINT('',(0.8,-6.123573870198E-16,0.212923446046));
#429 = CARTESIAN_POINT('',(0.635636144756,-1.281526967878E-16,
    0.23200899066));
#430 = CARTESIAN_POINT('',(0.500070646319,-8.448103328007E-16,8.E-02));
#431 = CARTESIAN_POINT('',(0.635636144756,-4.722784663347E-16,
    -7.200899065965E-02));
#432 = CARTESIAN_POINT('',(0.8,6.548581121812E-17,-5.292344604568E-02));
#433 = CARTESIAN_POINT('',(0.8,-9.911776260862E-16,8.E-02));
#434 = PCURVE('',#88,#435);
#435 = DEFINITIONAL_REPRESENTATION('',(#436),#440);
#436 = LINE('',#437,#438);
#437 = CARTESIAN_POINT('',(0.,0.));
#438 = VECTOR('',#439,1.);
#439 = DIRECTION('',(1.,0.));
#440 = ( GEOMETRIC_REPRESENTATION_CONTEXT(2) 
PARAMETRIC_REPRESENTATION_CONTEXT() REPRESENTATION_CONTEXT('2D SPACE',''
  ) );
#441 = PCURVE('',#442,#447);
#442 = PLANE('',#443);
#443 = AXIS2_PLACEMENT_3D('',#444,#445,#446);
#444 = CARTESIAN_POINT('',(0.720012673859,-6.145302376711E-16,8.E-02));
#445 = DIRECTION('',(-2.706747494246E-15,-1.,-9.126851070925E-16));
#446 = DIRECTION('',(-1.,2.706747494246E-15,0.));
#447 = DEFINITIONAL_REPRESENTATION('',(#448),#456);
#448 = ( BOUNDED_CURVE() B_SPLINE_CURVE(6,(#449,#450,#451,#452,#453,#454
,#455),.UNSPECIFIED.,.T.,.F.) B_SPLINE_CURVE_WITH_KNOTS((1,6,6,1),(
    -6.28318530718,0.,6.28318530718,12.566370614359),.UNSPECIFIED.) 
CURVE() GEOMETRIC_REPRESENTATION_ITEM() RATIONAL_B_SPLINE_CURVE((
    1.669078461068,1.03672962321,1.038346699848,0.853534330196,
1.038346699848,1.03672962321,1.669078461068)) REPRESENTATION_ITEM('') );
#449 = CARTESIAN_POINT('',(-7.998732614121E-02,-6.938893903907E-17));
#450 = CARTESIAN_POINT('',(-7.998732614121E-02,-0.132923446046));
#451 = CARTESIAN_POINT('',(8.437652910264E-02,-0.15200899066));
#452 = CARTESIAN_POINT('',(0.219942027539,-4.163336342344E-16));
#453 = CARTESIAN_POINT('',(8.437652910264E-02,0.15200899066));
#454 = CARTESIAN_POINT('',(-7.998732614121E-02,0.132923446046));
#455 = CARTESIAN_POINT('',(-7.998732614121E-02,-6.938893903907E-17));
#456 = ( GEOMETRIC_REPRESENTATION_CONTEXT(2) 
PARAMETRIC_REPRESENTATION_CONTEXT() REPRESENTATION_CONTEXT('2D SPACE',''
  ) );
#457 = ADVANCED_FACE('',(#458),#442,.T.);
#458 = FACE_BOUND('',#459,.T.);
#459 = EDGE_LOOP('',(#460));
#460 = ORIENTED_EDGE('',*,*,#424,.T.);
#461 = ADVANCED_FACE('',(#462),#407,.F.);
#462 = FACE_BOUND('',#463,.F.);
#463 = EDGE_LOOP('',(#464));
#464 = ORIENTED_EDGE('',*,*,#389,.T.);
#465 = ( GEOMETRIC_REPRESENTATION_CONTEXT(3) 
GLOBAL_UNCERTAINTY_ASSIGNED_CONTEXT((#469)) GLOBAL_UNIT_ASSIGNED_CONTEXT
((#466,#467,#468)) REPRESENTATION_CONTEXT('Context #1',
  '3D Context with UNIT and UNCERTAINTY') );
#466 = ( LENGTH_UNIT() NAMED_UNIT(*) SI_UNIT(.MILLI.,.METRE.) );
#467 = ( NAMED_UNIT(*) PLANE_ANGLE_UNIT() SI_UNIT($,.RADIAN.) );
#468 = ( NAMED_UNIT(*) SI_UNIT($,.STERADIAN.) SOLID_ANGLE_UNIT() );
#469 = UNCERTAINTY_MEASURE_WITH_UNIT(LENGTH_MEASURE(1.E-05),#466,
  'distance_accuracy_value','confusion accuracy');
#470 = CONTEXT_DEPENDENT_SHAPE_REPRESENTATION(#471,#473);
#471 = ( REPRESENTATION_RELATIONSHIP('','',#32,#10) 
REPRESENTATION_RELATIONSHIP_WITH_TRANSFORMATION(#472) 
SHAPE_REPRESENTATION_RELATIONSHIP() );
#472 = ITEM_DEFINED_TRANSFORMATION('','',#11,#15);
#473 = PRODUCT_DEFINITION_SHAPE('Placement','Placement of an item',#474
  );
#474 = NEXT_ASSEMBLY_USAGE_OCCURRENCE('10',
'CAPTIVE_LONG-STROKE_AUTOMATIC-LOCK_COMPRESSION_SPRING_SS_STOWED_LOCAL_
DEFINITION','',#5,#27,$);
#475 = PRODUCT_RELATED_PRODUCT_CATEGORY('part',$,(#29));
#476 = MECHANICAL_DESIGN_GEOMETRIC_PRESENTATION_REPRESENTATION('',(#477)
  ,#465);
#477 = STYLED_ITEM('color',(#478),#33);
#478 = PRESENTATION_STYLE_ASSIGNMENT((#479));
#479 = SURFACE_STYLE_USAGE(.BOTH.,#480);
#480 = SURFACE_SIDE_STYLE('',(#481));
#481 = SURFACE_STYLE_FILL_AREA(#482);
#482 = FILL_AREA_STYLE('',(#483));
#483 = FILL_AREA_STYLE_COLOUR('',#484);
#484 = COLOUR_RGB('',0.789999995908,0.430000007837,0.149999997808);
ENDSEC;
END-ISO-10303-21;
