ISO-10303-21;
HEADER;
FILE_DESCRIPTION(('Open CASCADE Model'),'2;1');
FILE_NAME('Open CASCADE Shape Model','2026-08-26T03:21:56',('Author'),(
    'Open CASCADE'),'Open CASCADE STEP processor 7.9','Open CASCADE 7.9'
  ,'Unknown');
FILE_SCHEMA((
'AP242_MANAGED_MODEL_BASED_3D_ENGINEERING_MIM_LF {1 0 10303 442 1 1 4 }'
    ));
ENDSEC;
DATA;
#1 = APPLICATION_PROTOCOL_DEFINITION('international standard',
  'ap242_managed_model_based_3d_engineering',2013,#2);
#2 = APPLICATION_CONTEXT('Managed model based 3d engineering');
#3 = SHAPE_DEFINITION_REPRESENTATION(#4,#10);
#4 = PRODUCT_DEFINITION_SHAPE('','',#5);
#5 = PRODUCT_DEFINITION('design','',#6,#9);
#6 = PRODUCT_DEFINITION_FORMATION('','',#7);
#7 = PRODUCT('CAPTIVE_STOW-DOG_RADIAL_RETURN_SPRING_SS_DEPLOYED_PART',
  'CAPTIVE_STOW-DOG_RADIAL_RETURN_SPRING_SS_DEPLOYED_PART','',(#8));
#8 = PRODUCT_CONTEXT('',#2,'mechanical');
#9 = PRODUCT_DEFINITION_CONTEXT('part definition',#2,'design');
#10 = SHAPE_REPRESENTATION('',(#11,#15),#19);
#11 = AXIS2_PLACEMENT_3D('',#12,#13,#14);
#12 = CARTESIAN_POINT('',(0.,0.,0.));
#13 = DIRECTION('',(0.,0.,1.));
#14 = DIRECTION('',(1.,0.,-0.));
#15 = AXIS2_PLACEMENT_3D('',#16,#17,#18);
#16 = CARTESIAN_POINT('',(0.,0.,0.));
#17 = DIRECTION('',(0.,0.,1.));
#18 = DIRECTION('',(1.,0.,-0.));
#19 = ( GEOMETRIC_REPRESENTATION_CONTEXT(3) 
GLOBAL_UNCERTAINTY_ASSIGNED_CONTEXT((#23)) GLOBAL_UNIT_ASSIGNED_CONTEXT(
(#20,#21,#22)) REPRESENTATION_CONTEXT('Context #1',
  '3D Context with UNIT and UNCERTAINTY') );
#20 = ( LENGTH_UNIT() NAMED_UNIT(*) SI_UNIT(.MILLI.,.METRE.) );
#21 = ( NAMED_UNIT(*) PLANE_ANGLE_UNIT() SI_UNIT($,.RADIAN.) );
#22 = ( NAMED_UNIT(*) SI_UNIT($,.STERADIAN.) SOLID_ANGLE_UNIT() );
#23 = UNCERTAINTY_MEASURE_WITH_UNIT(LENGTH_MEASURE(5.E-06),#20,
  'distance_accuracy_value','confusion accuracy');
#24 = PRODUCT_RELATED_PRODUCT_CATEGORY('part',$,(#7));
#25 = SHAPE_DEFINITION_REPRESENTATION(#26,#32);
#26 = PRODUCT_DEFINITION_SHAPE('','',#27);
#27 = PRODUCT_DEFINITION('design','',#28,#31);
#28 = PRODUCT_DEFINITION_FORMATION('','',#29);
#29 = PRODUCT(
  'CAPTIVE_STOW-DOG_RADIAL_RETURN_SPRING_SS_DEPLOYED_LOCAL_DEFINITION',
  'CAPTIVE_STOW-DOG_RADIAL_RETURN_SPRING_SS_DEPLOYED_LOCAL_DEFINITION',
  '',(#30));
#30 = PRODUCT_CONTEXT('',#2,'mechanical');
#31 = PRODUCT_DEFINITION_CONTEXT('part definition',#2,'design');
#32 = ADVANCED_BREP_SHAPE_REPRESENTATION('',(#11,#33),#273);
#33 = MANIFOLD_SOLID_BREP('',#34);
#34 = CLOSED_SHELL('',(#35,#265,#269));
#35 = ADVANCED_FACE('',(#36),#64,.F.);
#36 = FACE_BOUND('',#37,.F.);
#37 = EDGE_LOOP('',(#38,#196,#230,#231));
#38 = ORIENTED_EDGE('',*,*,#39,.T.);
#39 = EDGE_CURVE('',#40,#42,#44,.T.);
#40 = VERTEX_POINT('',#41);
#41 = CARTESIAN_POINT('',(0.6,6.938893903907E-17,5.E-02));
#42 = VERTEX_POINT('',#43);
#43 = CARTESIAN_POINT('',(-0.6,-2.805195825628E-09,0.229999919221));
#44 = SEAM_CURVE('',#45,(#63,#189),.PCURVE_S1.);
#45 = ( BOUNDED_CURVE() B_SPLINE_CURVE(9,(#46,#47,#48,#49,#50,#51,#52,
    #53,#54,#55,#56,#57,#58,#59,#60,#61,#62),.UNSPECIFIED.,.F.,.F.) 
B_SPLINE_CURVE_WITH_KNOTS((10,7,10),(0.,4.71324833872,9.426496677441),
.UNSPECIFIED.) CURVE() GEOMETRIC_REPRESENTATION_ITEM() 
RATIONAL_B_SPLINE_CURVE((1.669078461068,1.669078461068,1.669078461068,
    1.669078461068,1.669078461068,1.669078461068,1.669078461068,
    1.669078461068,1.669078461068,1.669078461068,1.669078461068,
    1.669078461068,1.669078461068,1.669078461068,1.669078461068,
1.669078461068,1.669078461068)) REPRESENTATION_ITEM('') );
#46 = CARTESIAN_POINT('',(0.6,6.938893903907E-17,5.E-02));
#47 = CARTESIAN_POINT('',(0.6,0.31416239109,5.999986657548E-02));
#48 = CARTESIAN_POINT('',(0.414921011582,0.628301393854,
    6.99987698068E-02));
#49 = CARTESIAN_POINT('',(4.512778053996E-02,0.817616417734,
    8.00036837013E-02));
#50 = CARTESIAN_POINT('',(-0.413451069178,0.759773073335,
    8.999501572377E-02));
#51 = CARTESIAN_POINT('',(-0.759750321045,0.413386452975,0.10000327712)
  );
#52 = CARTESIAN_POINT('',(-0.81760156272,-4.506644351682E-02,
    0.109999042629));
#53 = CARTESIAN_POINT('',(-0.628317647736,-0.414944999397,0.11999993056)
  );
#54 = CARTESIAN_POINT('',(1.835098608662E-09,-0.785054921925,
    0.13999995961));
#55 = CARTESIAN_POINT('',(0.628317649676,-0.41494499646,0.159999988661)
  );
#56 = CARTESIAN_POINT('',(0.817601562928,-4.506643969098E-02,
    0.170000876592));
#57 = CARTESIAN_POINT('',(0.759750319121,0.413386456516,0.179996642101)
  );
#58 = CARTESIAN_POINT('',(0.413451065614,0.759773075282,0.190004903497)
  );
#59 = CARTESIAN_POINT('',(-4.512778435424E-02,0.817616417515,
    0.19999623552));
#60 = CARTESIAN_POINT('',(-0.414921014521,0.628301391914,0.210001149414)
  );
#61 = CARTESIAN_POINT('',(-0.600000001469,0.314162388285,0.220000052646)
  );
#62 = CARTESIAN_POINT('',(-0.6,-2.805195825628E-09,0.229999919221));
#63 = PCURVE('',#64,#184);
#64 = ( BOUNDED_SURFACE() B_SPLINE_SURFACE(6,9,(
    (#65,#66,#67,#68,#69,#70,#71,#72,#73,#74,#75,#76,#77,#78,#79,#80,#81
      )
    ,(#82,#83,#84,#85,#86,#87,#88,#89,#90,#91,#92,#93,#94,#95,#96,#97
      ,#98)
    ,(#99,#100,#101,#102,#103,#104,#105,#106,#107,#108,#109,#110,#111
      ,#112,#113,#114,#115)
    ,(#116,#117,#118,#119,#120,#121,#122,#123,#124,#125,#126,#127,#128
      ,#129,#130,#131,#132)
    ,(#133,#134,#135,#136,#137,#138,#139,#140,#141,#142,#143,#144,#145
      ,#146,#147,#148,#149)
    ,(#150,#151,#152,#153,#154,#155,#156,#157,#158,#159,#160,#161,#162
      ,#163,#164,#165,#166)
    ,(#167,#168,#169,#170,#171,#172,#173,#174,#175,#176,#177,#178,#179
      ,#180,#181,#182,#183
)),.UNSPECIFIED.,.T.,.F.,.F.) B_SPLINE_SURFACE_WITH_KNOTS((1,6,6,1),(10,
    7,10),(-6.28318530718,0.,6.28318530718,12.566370614359),(0.,
    4.71324833872,9.426496677441),.UNSPECIFIED.) 
GEOMETRIC_REPRESENTATION_ITEM() RATIONAL_B_SPLINE_SURFACE((
    (1.669078461068,1.669078461068,1.669078461068,1.669078461068
      ,1.669078461068,1.669078461068,1.669078461068,1.669078461068
      ,1.669078461068,1.669078461068,1.669078461068,1.669078461068
      ,1.669078461068,1.669078461068,1.669078461068,1.669078461068
      ,1.669078461068)
    ,(1.03672962321,1.03672962321,1.03672962321,1.03672962321
      ,1.03672962321,1.03672962321,1.03672962321,1.03672962321
      ,1.03672962321,1.03672962321,1.03672962321,1.03672962321
      ,1.036729623209,1.03672962321,1.03672962321,1.03672962321
      ,1.03672962321)
    ,(1.038346699848,1.038346699848,1.038346699848,1.038346699847
      ,1.038346699848,1.038346699847,1.038346699848,1.038346699848
      ,1.038346699848,1.038346699848,1.038346699847,1.038346699848
      ,1.038346699847,1.038346699848,1.038346699847,1.038346699848
      ,1.038346699848)
    ,(0.853534330196,0.853534330196,0.853534330196,0.853534330196
      ,0.853534330196,0.853534330196,0.853534330196,0.853534330196
      ,0.853534330196,0.853534330196,0.853534330196,0.853534330196
      ,0.853534330196,0.853534330196,0.853534330196,0.853534330196
      ,0.853534330196)
    ,(1.038346699848,1.038346699847,1.038346699848,1.038346699847
      ,1.038346699848,1.038346699847,1.038346699848,1.038346699847
      ,1.038346699848,1.038346699848,1.038346699847,1.038346699848
      ,1.038346699847,1.038346699848,1.038346699847,1.038346699848
      ,1.038346699848)
    ,(1.03672962321,1.03672962321,1.03672962321,1.03672962321
      ,1.03672962321,1.03672962321,1.03672962321,1.03672962321
      ,1.03672962321,1.03672962321,1.03672962321,1.03672962321
      ,1.036729623209,1.03672962321,1.03672962321,1.03672962321
      ,1.03672962321)
    ,(1.669078461068,1.669078461068,1.669078461068,1.669078461068
      ,1.669078461068,1.669078461068,1.669078461068,1.669078461068
      ,1.669078461068,1.669078461068,1.669078461068,1.669078461068
      ,1.669078461068,1.669078461068,1.669078461068,1.669078461068
,1.669078461068))) REPRESENTATION_ITEM('') SURFACE() );
#65 = CARTESIAN_POINT('',(0.6,6.938893903907E-17,5.E-02));
#66 = CARTESIAN_POINT('',(0.6,0.31416239109,5.999986657548E-02));
#67 = CARTESIAN_POINT('',(0.414921011582,0.628301393854,
    6.99987698068E-02));
#68 = CARTESIAN_POINT('',(4.512778053996E-02,0.817616417734,
    8.00036837013E-02));
#69 = CARTESIAN_POINT('',(-0.413451069178,0.759773073335,
    8.999501572377E-02));
#70 = CARTESIAN_POINT('',(-0.759750321045,0.413386452975,0.10000327712)
  );
#71 = CARTESIAN_POINT('',(-0.81760156272,-4.506644351682E-02,
    0.109999042629));
#72 = CARTESIAN_POINT('',(-0.628317647736,-0.414944999397,0.11999993056)
  );
#73 = CARTESIAN_POINT('',(1.835098608662E-09,-0.785054921925,
    0.13999995961));
#74 = CARTESIAN_POINT('',(0.628317649676,-0.41494499646,0.159999988661)
  );
#75 = CARTESIAN_POINT('',(0.817601562928,-4.506643969098E-02,
    0.170000876592));
#76 = CARTESIAN_POINT('',(0.759750319121,0.413386456516,0.179996642101)
  );
#77 = CARTESIAN_POINT('',(0.413451065614,0.759773075282,0.190004903497)
  );
#78 = CARTESIAN_POINT('',(-4.512778435424E-02,0.817616417515,
    0.19999623552));
#79 = CARTESIAN_POINT('',(-0.414921014521,0.628301391914,0.210001149414)
  );
#80 = CARTESIAN_POINT('',(-0.600000001469,0.314162388285,0.220000052646)
  );
#81 = CARTESIAN_POINT('',(-0.6,-2.805195825628E-09,0.229999919221));
#82 = CARTESIAN_POINT('',(0.6,4.163336342344E-16,0.133077153779));
#83 = CARTESIAN_POINT('',(0.600000221691,0.314162426232,0.143077020354)
  );
#84 = CARTESIAN_POINT('',(0.414923014195,0.628301594704,0.153075923585)
  );
#85 = CARTESIAN_POINT('',(4.512156763187E-02,0.817615959701,
    0.163080837482));
#86 = CARTESIAN_POINT('',(-0.413442807774,0.759774176626,0.1730721695));
#87 = CARTESIAN_POINT('',(-0.759756061422,0.413385564326,0.1830804309));
#88 = CARTESIAN_POINT('',(-0.817599952262,-4.506604669507E-02,
    0.193076196407));
#89 = CARTESIAN_POINT('',(-0.628317735413,-0.414945089254,0.203077084339
    ));
#90 = CARTESIAN_POINT('',(1.002600068852E-08,-0.785055009732,
    0.223077113389));
#91 = CARTESIAN_POINT('',(0.628317702551,-0.414944999425,0.243077142439)
  );
#92 = CARTESIAN_POINT('',(0.817603356283,-4.506684662111E-02,
    0.253078030373));
#93 = CARTESIAN_POINT('',(0.759744748688,0.413387437732,0.263073795872)
  );
#94 = CARTESIAN_POINT('',(0.413459419522,0.759772141805,0.273082057287)
  );
#95 = CARTESIAN_POINT('',(-4.513400737023E-02,0.817617058568,
    0.28307338929));
#96 = CARTESIAN_POINT('',(-0.41491910472,0.62830133156,0.293078303195));
#97 = CARTESIAN_POINT('',(-0.599999913996,0.314162423427,0.303077206424)
  );
#98 = CARTESIAN_POINT('',(-0.600000134218,-2.805195464806E-09,
    0.313077072999));
#99 = CARTESIAN_POINT('',(0.497272590473,-1.110223024625E-16,
    0.145005619162));
#100 = CARTESIAN_POINT('',(0.497272843994,0.260368063464,0.155005759865)
  );
#101 = CARTESIAN_POINT('',(0.343887173773,0.520769058635,0.16500691646)
  );
#102 = CARTESIAN_POINT('',(3.738414720235E-02,0.677537483667,
    0.175001734524));
#103 = CARTESIAN_POINT('',(-0.342640652506,0.629801768602,0.185010875319
    ));
#104 = CARTESIAN_POINT('',(-0.629686117328,0.342537163638,0.195002163283
    ));
#105 = CARTESIAN_POINT('',(-0.677614845486,-3.732928407351E-02,
    0.205006628756));
#106 = CARTESIAN_POINT('',(-0.520741779247,-0.343901451587,0.21500569239
    ));
#107 = CARTESIAN_POINT('',(7.431773360773E-09,-0.650643850836,
    0.235005661755));
#108 = CARTESIAN_POINT('',(0.520741737402,-0.343901355317,0.25500563112)
  );
#109 = CARTESIAN_POINT('',(0.677618737806,-3.733020725937E-02,
    0.265004694756));
#110 = CARTESIAN_POINT('',(0.629673184518,0.342539298233,0.27500916022)
  );
#111 = CARTESIAN_POINT('',(0.342659657236,0.629799437359,0.285000448201)
  );
#112 = CARTESIAN_POINT('',(-3.739836468111E-02,0.67753874078,
    0.295009588979));
#113 = CARTESIAN_POINT('',(-0.343882696504,0.520768761972,0.305004407053
    ));
#114 = CARTESIAN_POINT('',(-0.497272488891,0.260368066422,0.315005563645
    ));
#115 = CARTESIAN_POINT('',(-0.497272743962,2.957805944614E-09,
    0.325005704348));
#116 = CARTESIAN_POINT('',(0.41254415395,2.359223927328E-16,5.E-02));
#117 = CARTESIAN_POINT('',(0.41254415395,0.215999020888,
    6.000036679957E-02));
#118 = CARTESIAN_POINT('',(0.285295067262,0.432077153163,
    7.000338194505E-02));
#119 = CARTESIAN_POINT('',(3.101024875172E-02,0.562002876703,
    7.998987307425E-02));
#120 = CARTESIAN_POINT('',(-0.284254240215,0.522600564877,
    9.001370235827E-02));
#121 = CARTESIAN_POINT('',(-0.522398614885,0.284103304156,
    9.999099081447E-02));
#122 = CARTESIAN_POINT('',(-0.562158702829,-3.094858822442E-02,
    0.110002631925));
#123 = CARTESIAN_POINT('',(-0.432014204181,-0.28530532791,0.120000190898
    ));
#124 = CARTESIAN_POINT('',(-5.044915263319E-09,-0.539782895805,
    0.140000111035));
#125 = CARTESIAN_POINT('',(0.432014198848,-0.285305335985,0.160000031173
    ));
#126 = CARTESIAN_POINT('',(0.562158702251,-3.094859873183E-02,
    0.169997590146));
#127 = CARTESIAN_POINT('',(0.522398620195,0.284103294389,0.180009231256)
  );
#128 = CARTESIAN_POINT('',(0.284254249985,0.522600559567,0.189986519713)
  );
#129 = CARTESIAN_POINT('',(-3.101023824745E-02,0.562002877282,
    0.200010348996));
#130 = CARTESIAN_POINT('',(-0.285295059185,0.432077158494,0.209996840126
    ));
#131 = CARTESIAN_POINT('',(-0.412544149911,0.2159990286,0.219999855271)
  );
#132 = CARTESIAN_POINT('',(-0.41254415395,7.711066063454E-09,
    0.230000222071));
#133 = CARTESIAN_POINT('',(0.497272590473,1.942890293094E-16,
    -4.500561916228E-02));
#134 = CARTESIAN_POINT('',(0.497272336951,0.260367983088,
    -3.500547845971E-02));
#135 = CARTESIAN_POINT('',(0.343882593464,0.520768599258,
    -2.500432186342E-02));
#136 = CARTESIAN_POINT('',(3.73983571543E-02,0.677538531265,
    -1.500950380485E-02));
#137 = CARTESIAN_POINT('',(-0.342659547707,0.629799245192,
    -5.000363000193E-03));
#138 = CARTESIAN_POINT('',(-0.629672988134,0.342539196127,
    4.990924955369E-03));
#139 = CARTESIAN_POINT('',(-0.677618528872,-3.733019167073E-02,
    1.49953904322E-02));
#140 = CARTESIAN_POINT('',(-0.520741578715,-0.34390124607,
    2.499445406527E-02));
#141 = CARTESIAN_POINT('',(-1.130218905835E-08,-0.650643650007,
    4.499442343042E-02));
#142 = CARTESIAN_POINT('',(0.520741616467,-0.343901348535,
    6.49943927956E-02));
#143 = CARTESIAN_POINT('',(0.677614636106,-3.732927654266E-02,
    7.499345642661E-02));
#144 = CARTESIAN_POINT('',(0.629685925024,0.342537054029,
    8.499792191232E-02));
#145 = CARTESIAN_POINT('',(0.342640550462,0.629801572375,
    9.498920985112E-02));
#146 = CARTESIAN_POINT('',(-3.738413161073E-02,0.677537274588,
    0.104998350673));
#147 = CARTESIAN_POINT('',(-0.343887064536,0.520768900012,0.114993168722
    ));
#148 = CARTESIAN_POINT('',(-0.497272688956,0.260367986046,0.12499432532)
  );
#149 = CARTESIAN_POINT('',(-0.497272436984,2.957805833592E-09,
    0.134994466023));
#150 = CARTESIAN_POINT('',(0.6,8.326672684689E-17,-3.307715377855E-02));
#151 = CARTESIAN_POINT('',(0.59999977831,0.314162355948,
    -2.307728720307E-02));
#152 = CARTESIAN_POINT('',(0.414919008969,0.628301193004,
    -1.307838397107E-02));
#153 = CARTESIAN_POINT('',(4.513399344808E-02,0.817616875768,
    -3.07347007895E-03));
#154 = CARTESIAN_POINT('',(-0.413459330582,0.759771970043,
    6.917861947434E-03));
#155 = CARTESIAN_POINT('',(-0.759744580669,0.413387341625,
    1.692612333985E-02));
#156 = CARTESIAN_POINT('',(-0.817603173179,-4.506684033858E-02,
    2.692188885058E-02));
#157 = CARTESIAN_POINT('',(-0.628317560058,-0.41494490954,
    3.692277678186E-02));
#158 = CARTESIAN_POINT('',(-6.355805223703E-09,-0.785054834118,
    5.692280583196E-02));
#159 = CARTESIAN_POINT('',(0.6283175968,-0.414944993495,
    7.69228348821E-02));
#160 = CARTESIAN_POINT('',(0.817599769573,-4.506603276087E-02,
    8.69237228115E-02));
#161 = CARTESIAN_POINT('',(0.759755889555,0.4133854753,
    9.691948833027E-02));
#162 = CARTESIAN_POINT('',(0.413442711706,0.759774008758,0.106927749708)
  );
#163 = CARTESIAN_POINT('',(-4.512156133826E-02,0.817615776463,
    0.11691908175));
#164 = CARTESIAN_POINT('',(-0.414922924322,0.628301452269,0.126923995633
    ));
#165 = CARTESIAN_POINT('',(-0.600000088942,0.314162353142,0.136922898867
    ));
#166 = CARTESIAN_POINT('',(-0.599999865782,-2.805195839506E-09,
    0.146922765443));
#167 = CARTESIAN_POINT('',(0.6,6.938893903907E-17,5.E-02));
#168 = CARTESIAN_POINT('',(0.6,0.31416239109,5.999986657548E-02));
#169 = CARTESIAN_POINT('',(0.414921011582,0.628301393854,
    6.99987698068E-02));
#170 = CARTESIAN_POINT('',(4.512778053996E-02,0.817616417734,
    8.00036837013E-02));
#171 = CARTESIAN_POINT('',(-0.413451069178,0.759773073335,
    8.999501572377E-02));
#172 = CARTESIAN_POINT('',(-0.759750321045,0.413386452975,0.10000327712)
  );
#173 = CARTESIAN_POINT('',(-0.81760156272,-4.506644351682E-02,
    0.109999042629));
#174 = CARTESIAN_POINT('',(-0.628317647736,-0.414944999397,0.11999993056
    ));
#175 = CARTESIAN_POINT('',(1.835098608662E-09,-0.785054921925,
    0.13999995961));
#176 = CARTESIAN_POINT('',(0.628317649676,-0.41494499646,0.159999988661)
  );
#177 = CARTESIAN_POINT('',(0.817601562928,-4.506643969098E-02,
    0.170000876592));
#178 = CARTESIAN_POINT('',(0.759750319121,0.413386456516,0.179996642101)
  );
#179 = CARTESIAN_POINT('',(0.413451065614,0.759773075282,0.190004903497)
  );
#180 = CARTESIAN_POINT('',(-4.512778435424E-02,0.817616417515,
    0.19999623552));
#181 = CARTESIAN_POINT('',(-0.414921014521,0.628301391914,0.210001149414
    ));
#182 = CARTESIAN_POINT('',(-0.600000001469,0.314162388285,0.220000052646
    ));
#183 = CARTESIAN_POINT('',(-0.6,-2.805195825628E-09,0.229999919221));
#184 = DEFINITIONAL_REPRESENTATION('',(#185),#188);
#185 = B_SPLINE_CURVE_WITH_KNOTS('',1,(#186,#187),.UNSPECIFIED.,.F.,.F.,
  (2,2),(0.,9.426496677441),.PIECEWISE_BEZIER_KNOTS.);
#186 = CARTESIAN_POINT('',(6.28318530718,0.));
#187 = CARTESIAN_POINT('',(6.28318530718,9.426496677441));
#188 = ( GEOMETRIC_REPRESENTATION_CONTEXT(2) 
PARAMETRIC_REPRESENTATION_CONTEXT() REPRESENTATION_CONTEXT('2D SPACE',''
  ) );
#189 = PCURVE('',#64,#190);
#190 = DEFINITIONAL_REPRESENTATION('',(#191),#195);
#191 = LINE('',#192,#193);
#192 = CARTESIAN_POINT('',(0.,0.));
#193 = VECTOR('',#194,1.);
#194 = DIRECTION('',(0.,1.));
#195 = ( GEOMETRIC_REPRESENTATION_CONTEXT(2) 
PARAMETRIC_REPRESENTATION_CONTEXT() REPRESENTATION_CONTEXT('2D SPACE',''
  ) );
#196 = ORIENTED_EDGE('',*,*,#197,.F.);
#197 = EDGE_CURVE('',#42,#42,#198,.T.);
#198 = SURFACE_CURVE('',#199,(#207,#214),.PCURVE_S1.);
#199 = ( BOUNDED_CURVE() B_SPLINE_CURVE(6,(#200,#201,#202,#203,#204,#205
,#206),.UNSPECIFIED.,.T.,.F.) B_SPLINE_CURVE_WITH_KNOTS((1,6,6,1),(
    -6.28318530718,0.,6.28318530718,12.566370614359),.UNSPECIFIED.) 
CURVE() GEOMETRIC_REPRESENTATION_ITEM() RATIONAL_B_SPLINE_CURVE((
    1.669078461068,1.03672962321,1.038346699848,0.853534330196,
1.038346699848,1.03672962321,1.669078461068)) REPRESENTATION_ITEM('') );
#200 = CARTESIAN_POINT('',(-0.6,-2.805195825628E-09,0.229999919221));
#201 = CARTESIAN_POINT('',(-0.600000134218,-2.805195464806E-09,
    0.313077072999));
#202 = CARTESIAN_POINT('',(-0.497272743962,2.957805944614E-09,
    0.325005704348));
#203 = CARTESIAN_POINT('',(-0.41254415395,7.711066063454E-09,
    0.230000222071));
#204 = CARTESIAN_POINT('',(-0.497272436984,2.957805833592E-09,
    0.134994466023));
#205 = CARTESIAN_POINT('',(-0.599999865782,-2.805195839506E-09,
    0.146922765443));
#206 = CARTESIAN_POINT('',(-0.6,-2.805195825628E-09,0.229999919221));
#207 = PCURVE('',#64,#208);
#208 = DEFINITIONAL_REPRESENTATION('',(#209),#213);
#209 = LINE('',#210,#211);
#210 = CARTESIAN_POINT('',(0.,9.426496677441));
#211 = VECTOR('',#212,1.);
#212 = DIRECTION('',(1.,0.));
#213 = ( GEOMETRIC_REPRESENTATION_CONTEXT(2) 
PARAMETRIC_REPRESENTATION_CONTEXT() REPRESENTATION_CONTEXT('2D SPACE',''
  ) );
#214 = PCURVE('',#215,#220);
#215 = PLANE('',#216);
#216 = AXIS2_PLACEMENT_3D('',#217,#218,#219);
#217 = CARTESIAN_POINT('',(-0.550007921162,-6.430851798178E-13,
    0.229999999987));
#218 = DIRECTION('',(-5.609994159674E-08,1.,-9.214617635583E-14));
#219 = DIRECTION('',(1.,5.609994159674E-08,-7.523163845263E-37));
#220 = DEFINITIONAL_REPRESENTATION('',(#221),#229);
#221 = ( BOUNDED_CURVE() B_SPLINE_CURVE(6,(#222,#223,#224,#225,#226,#227
,#228),.UNSPECIFIED.,.T.,.F.) B_SPLINE_CURVE_WITH_KNOTS((1,6,6,1),(
    -6.28318530718,0.,6.28318530718,12.566370614359),.UNSPECIFIED.) 
CURVE() GEOMETRIC_REPRESENTATION_ITEM() RATIONAL_B_SPLINE_CURVE((
    1.669078461068,1.03672962321,1.038346699848,0.853534330196,
1.038346699848,1.03672962321,1.669078461068)) REPRESENTATION_ITEM('') );
#222 = CARTESIAN_POINT('',(-4.999207883819E-02,8.076623927988E-08));
#223 = CARTESIAN_POINT('',(-4.999221305604E-02,-8.307707301221E-02));
#224 = CARTESIAN_POINT('',(5.273517719983E-02,-9.500570436034E-02));
#225 = CARTESIAN_POINT('',(0.137463767212,-2.22083814061E-07));
#226 = CARTESIAN_POINT('',(5.273548417833E-02,9.500553396397E-02));
#227 = CARTESIAN_POINT('',(-4.999194462034E-02,8.307723454468E-02));
#228 = CARTESIAN_POINT('',(-4.999207883819E-02,8.076623927988E-08));
#229 = ( GEOMETRIC_REPRESENTATION_CONTEXT(2) 
PARAMETRIC_REPRESENTATION_CONTEXT() REPRESENTATION_CONTEXT('2D SPACE',''
  ) );
#230 = ORIENTED_EDGE('',*,*,#39,.F.);
#231 = ORIENTED_EDGE('',*,*,#232,.T.);
#232 = EDGE_CURVE('',#40,#40,#233,.T.);
#233 = SURFACE_CURVE('',#234,(#242,#249),.PCURVE_S1.);
#234 = ( BOUNDED_CURVE() B_SPLINE_CURVE(6,(#235,#236,#237,#238,#239,#240
,#241),.UNSPECIFIED.,.T.,.F.) B_SPLINE_CURVE_WITH_KNOTS((1,6,6,1),(
    -6.28318530718,0.,6.28318530718,12.566370614359),.UNSPECIFIED.) 
CURVE() GEOMETRIC_REPRESENTATION_ITEM() RATIONAL_B_SPLINE_CURVE((
    1.669078461068,1.03672962321,1.038346699848,0.853534330196,
1.038346699848,1.03672962321,1.669078461068)) REPRESENTATION_ITEM('') );
#235 = CARTESIAN_POINT('',(0.6,6.938893903907E-17,5.E-02));
#236 = CARTESIAN_POINT('',(0.6,4.163336342344E-16,0.133077153779));
#237 = CARTESIAN_POINT('',(0.497272590473,-1.110223024625E-16,
    0.145005619162));
#238 = CARTESIAN_POINT('',(0.41254415395,2.359223927328E-16,5.E-02));
#239 = CARTESIAN_POINT('',(0.497272590473,1.942890293094E-16,
    -4.500561916228E-02));
#240 = CARTESIAN_POINT('',(0.6,8.326672684689E-17,-3.307715377855E-02));
#241 = CARTESIAN_POINT('',(0.6,6.938893903907E-17,5.E-02));
#242 = PCURVE('',#64,#243);
#243 = DEFINITIONAL_REPRESENTATION('',(#244),#248);
#244 = LINE('',#245,#246);
#245 = CARTESIAN_POINT('',(0.,0.));
#246 = VECTOR('',#247,1.);
#247 = DIRECTION('',(1.,0.));
#248 = ( GEOMETRIC_REPRESENTATION_CONTEXT(2) 
PARAMETRIC_REPRESENTATION_CONTEXT() REPRESENTATION_CONTEXT('2D SPACE',''
  ) );
#249 = PCURVE('',#250,#255);
#250 = PLANE('',#251);
#251 = AXIS2_PLACEMENT_3D('',#252,#253,#254);
#252 = CARTESIAN_POINT('',(0.550007921162,1.237663471994E-16,5.E-02));
#253 = DIRECTION('',(-4.786522297092E-16,-1.,3.987600818356E-16));
#254 = DIRECTION('',(-1.,4.786522297092E-16,0.));
#255 = DEFINITIONAL_REPRESENTATION('',(#256),#264);
#256 = ( BOUNDED_CURVE() B_SPLINE_CURVE(6,(#257,#258,#259,#260,#261,#262
,#263),.UNSPECIFIED.,.T.,.F.) B_SPLINE_CURVE_WITH_KNOTS((1,6,6,1),(
    -6.28318530718,0.,6.28318530718,12.566370614359),.UNSPECIFIED.) 
CURVE() GEOMETRIC_REPRESENTATION_ITEM() RATIONAL_B_SPLINE_CURVE((
    1.669078461068,1.03672962321,1.038346699848,0.853534330196,
1.038346699848,1.03672962321,1.669078461068)) REPRESENTATION_ITEM('') );
#257 = CARTESIAN_POINT('',(-4.999207883826E-02,-8.326672684689E-17));
#258 = CARTESIAN_POINT('',(-4.999207883826E-02,-8.307715377855E-02));
#259 = CARTESIAN_POINT('',(5.273533068915E-02,-9.500561916228E-02));
#260 = CARTESIAN_POINT('',(0.137463767212,-2.567390744446E-16));
#261 = CARTESIAN_POINT('',(5.273533068915E-02,9.500561916228E-02));
#262 = CARTESIAN_POINT('',(-4.999207883826E-02,8.307715377855E-02));
#263 = CARTESIAN_POINT('',(-4.999207883826E-02,-8.326672684689E-17));
#264 = ( GEOMETRIC_REPRESENTATION_CONTEXT(2) 
PARAMETRIC_REPRESENTATION_CONTEXT() REPRESENTATION_CONTEXT('2D SPACE',''
  ) );
#265 = ADVANCED_FACE('',(#266),#250,.T.);
#266 = FACE_BOUND('',#267,.T.);
#267 = EDGE_LOOP('',(#268));
#268 = ORIENTED_EDGE('',*,*,#232,.T.);
#269 = ADVANCED_FACE('',(#270),#215,.F.);
#270 = FACE_BOUND('',#271,.F.);
#271 = EDGE_LOOP('',(#272));
#272 = ORIENTED_EDGE('',*,*,#197,.T.);
#273 = ( GEOMETRIC_REPRESENTATION_CONTEXT(3) 
GLOBAL_UNCERTAINTY_ASSIGNED_CONTEXT((#277)) GLOBAL_UNIT_ASSIGNED_CONTEXT
((#274,#275,#276)) REPRESENTATION_CONTEXT('Context #1',
  '3D Context with UNIT and UNCERTAINTY') );
#274 = ( LENGTH_UNIT() NAMED_UNIT(*) SI_UNIT(.MILLI.,.METRE.) );
#275 = ( NAMED_UNIT(*) PLANE_ANGLE_UNIT() SI_UNIT($,.RADIAN.) );
#276 = ( NAMED_UNIT(*) SI_UNIT($,.STERADIAN.) SOLID_ANGLE_UNIT() );
#277 = UNCERTAINTY_MEASURE_WITH_UNIT(LENGTH_MEASURE(5.E-06),#274,
  'distance_accuracy_value','confusion accuracy');
#278 = CONTEXT_DEPENDENT_SHAPE_REPRESENTATION(#279,#281);
#279 = ( REPRESENTATION_RELATIONSHIP('','',#32,#10) 
REPRESENTATION_RELATIONSHIP_WITH_TRANSFORMATION(#280) 
SHAPE_REPRESENTATION_RELATIONSHIP() );
#280 = ITEM_DEFINED_TRANSFORMATION('','',#11,#15);
#281 = PRODUCT_DEFINITION_SHAPE('Placement','Placement of an item',#282
  );
#282 = NEXT_ASSEMBLY_USAGE_OCCURRENCE('33',
  'CAPTIVE_STOW-DOG_RADIAL_RETURN_SPRING_SS_DEPLOYED_LOCAL_DEFINITION',
  '',#5,#27,$);
#283 = PRODUCT_RELATED_PRODUCT_CATEGORY('part',$,(#29));
#284 = MECHANICAL_DESIGN_GEOMETRIC_PRESENTATION_REPRESENTATION('',(#285)
  ,#273);
#285 = STYLED_ITEM('color',(#286),#33);
#286 = PRESENTATION_STYLE_ASSIGNMENT((#287));
#287 = SURFACE_STYLE_USAGE(.BOTH.,#288);
#288 = SURFACE_SIDE_STYLE('',(#289));
#289 = SURFACE_STYLE_FILL_AREA(#290);
#290 = FILL_AREA_STYLE('',(#291));
#291 = FILL_AREA_STYLE_COLOUR('',#292);
#292 = COLOUR_RGB('',0.789999995908,0.430000007837,0.149999997808);
ENDSEC;
END-ISO-10303-21;
