ISO-10303-21;
HEADER;
FILE_DESCRIPTION(('Open CASCADE Model'),'2;1');
FILE_NAME('Open CASCADE Shape Model','2026-08-26T03:21:48',('Author'),(
    'Open CASCADE'),'Open CASCADE STEP processor 7.9','Open CASCADE 7.9'
  ,'Unknown');
FILE_SCHEMA((
'AP242_MANAGED_MODEL_BASED_3D_ENGINEERING_MIM_LF {1 0 10303 442 1 1 4 }'
    ));
ENDSEC;
DATA;
#1 = APPLICATION_PROTOCOL_DEFINITION('international standard',
  'ap242_managed_model_based_3d_engineering',2013,#2);
#2 = APPLICATION_CONTEXT('Managed model based 3d engineering');
#3 = SHAPE_DEFINITION_REPRESENTATION(#4,#10);
#4 = PRODUCT_DEFINITION_SHAPE('','',#5);
#5 = PRODUCT_DEFINITION('design','',#6,#9);
#6 = PRODUCT_DEFINITION_FORMATION('','',#7);
#7 = PRODUCT('Forward_Ballast_W_STOWED_PART',
  'Forward_Ballast_W_STOWED_PART','',(#8));
#8 = PRODUCT_CONTEXT('',#2,'mechanical');
#9 = PRODUCT_DEFINITION_CONTEXT('part definition',#2,'design');
#10 = SHAPE_REPRESENTATION('',(#11,#15),#19);
#11 = AXIS2_PLACEMENT_3D('',#12,#13,#14);
#12 = CARTESIAN_POINT('',(0.,0.,0.));
#13 = DIRECTION('',(0.,0.,1.));
#14 = DIRECTION('',(1.,0.,-0.));
#15 = AXIS2_PLACEMENT_3D('',#16,#17,#18);
#16 = CARTESIAN_POINT('',(0.,0.,0.));
#17 = DIRECTION('',(0.,0.,1.));
#18 = DIRECTION('',(1.,0.,-0.));
#19 = ( GEOMETRIC_REPRESENTATION_CONTEXT(3) 
GLOBAL_UNCERTAINTY_ASSIGNED_CONTEXT((#23)) GLOBAL_UNIT_ASSIGNED_CONTEXT(
(#20,#21,#22)) REPRESENTATION_CONTEXT('Context #1',
  '3D Context with UNIT and UNCERTAINTY') );
#20 = ( LENGTH_UNIT() NAMED_UNIT(*) SI_UNIT(.MILLI.,.METRE.) );
#21 = ( NAMED_UNIT(*) PLANE_ANGLE_UNIT() SI_UNIT($,.RADIAN.) );
#22 = ( NAMED_UNIT(*) SI_UNIT($,.STERADIAN.) SOLID_ANGLE_UNIT() );
#23 = UNCERTAINTY_MEASURE_WITH_UNIT(LENGTH_MEASURE(1.E-07),#20,
  'distance_accuracy_value','confusion accuracy');
#24 = PRODUCT_RELATED_PRODUCT_CATEGORY('part',$,(#7));
#25 = SHAPE_DEFINITION_REPRESENTATION(#26,#32);
#26 = PRODUCT_DEFINITION_SHAPE('','',#27);
#27 = PRODUCT_DEFINITION('design','',#28,#31);
#28 = PRODUCT_DEFINITION_FORMATION('','',#29);
#29 = PRODUCT('Forward_Ballast_W_STOWED_LOCAL_DEFINITION',
  'Forward_Ballast_W_STOWED_LOCAL_DEFINITION','',(#30));
#30 = PRODUCT_CONTEXT('',#2,'mechanical');
#31 = PRODUCT_DEFINITION_CONTEXT('part definition',#2,'design');
#32 = ADVANCED_BREP_SHAPE_REPRESENTATION('',(#11,#33),#1252);
#33 = MANIFOLD_SOLID_BREP('',#34);
#34 = CLOSED_SHELL('',(#35,#123,#158,#516,#932,#981,#1031,#1058,#1085,
    #1092,#1141,#1191,#1218,#1245));
#35 = ADVANCED_FACE('',(#36),#49,.T.);
#36 = FACE_BOUND('',#37,.T.);
#37 = EDGE_LOOP('',(#38,#72,#95,#122));
#38 = ORIENTED_EDGE('',*,*,#39,.F.);
#39 = EDGE_CURVE('',#40,#40,#42,.T.);
#40 = VERTEX_POINT('',#41);
#41 = CARTESIAN_POINT('',(24.8,-6.074248123771E-15,166.));
#42 = SURFACE_CURVE('',#43,(#48,#60),.PCURVE_S1.);
#43 = CIRCLE('',#44,24.8);
#44 = AXIS2_PLACEMENT_3D('',#45,#46,#47);
#45 = CARTESIAN_POINT('',(0.,0.,166.));
#46 = DIRECTION('',(0.,0.,1.));
#47 = DIRECTION('',(1.,0.,-0.));
#48 = PCURVE('',#49,#54);
#49 = CYLINDRICAL_SURFACE('',#50,24.8);
#50 = AXIS2_PLACEMENT_3D('',#51,#52,#53);
#51 = CARTESIAN_POINT('',(0.,0.,0.));
#52 = DIRECTION('',(0.,0.,1.));
#53 = DIRECTION('',(1.,0.,-0.));
#54 = DEFINITIONAL_REPRESENTATION('',(#55),#59);
#55 = LINE('',#56,#57);
#56 = CARTESIAN_POINT('',(0.,166.));
#57 = VECTOR('',#58,1.);
#58 = DIRECTION('',(1.,0.));
#59 = ( GEOMETRIC_REPRESENTATION_CONTEXT(2) 
PARAMETRIC_REPRESENTATION_CONTEXT() REPRESENTATION_CONTEXT('2D SPACE',''
  ) );
#60 = PCURVE('',#61,#66);
#61 = PLANE('',#62);
#62 = AXIS2_PLACEMENT_3D('',#63,#64,#65);
#63 = CARTESIAN_POINT('',(0.,0.,166.));
#64 = DIRECTION('',(0.,0.,1.));
#65 = DIRECTION('',(1.,0.,-0.));
#66 = DEFINITIONAL_REPRESENTATION('',(#67),#71);
#67 = CIRCLE('',#68,24.8);
#68 = AXIS2_PLACEMENT_2D('',#69,#70);
#69 = CARTESIAN_POINT('',(0.,0.));
#70 = DIRECTION('',(1.,0.));
#71 = ( GEOMETRIC_REPRESENTATION_CONTEXT(2) 
PARAMETRIC_REPRESENTATION_CONTEXT() REPRESENTATION_CONTEXT('2D SPACE',''
  ) );
#72 = ORIENTED_EDGE('',*,*,#73,.F.);
#73 = EDGE_CURVE('',#74,#40,#76,.T.);
#74 = VERTEX_POINT('',#75);
#75 = CARTESIAN_POINT('',(24.8,-6.074248123771E-15,0.));
#76 = SEAM_CURVE('',#77,(#81,#88),.PCURVE_S1.);
#77 = LINE('',#78,#79);
#78 = CARTESIAN_POINT('',(24.8,-6.074248123771E-15,0.));
#79 = VECTOR('',#80,1.);
#80 = DIRECTION('',(0.,0.,1.));
#81 = PCURVE('',#49,#82);
#82 = DEFINITIONAL_REPRESENTATION('',(#83),#87);
#83 = LINE('',#84,#85);
#84 = CARTESIAN_POINT('',(6.28318530718,-0.));
#85 = VECTOR('',#86,1.);
#86 = DIRECTION('',(0.,1.));
#87 = ( GEOMETRIC_REPRESENTATION_CONTEXT(2) 
PARAMETRIC_REPRESENTATION_CONTEXT() REPRESENTATION_CONTEXT('2D SPACE',''
  ) );
#88 = PCURVE('',#49,#89);
#89 = DEFINITIONAL_REPRESENTATION('',(#90),#94);
#90 = LINE('',#91,#92);
#91 = CARTESIAN_POINT('',(0.,-0.));
#92 = VECTOR('',#93,1.);
#93 = DIRECTION('',(0.,1.));
#94 = ( GEOMETRIC_REPRESENTATION_CONTEXT(2) 
PARAMETRIC_REPRESENTATION_CONTEXT() REPRESENTATION_CONTEXT('2D SPACE',''
  ) );
#95 = ORIENTED_EDGE('',*,*,#96,.T.);
#96 = EDGE_CURVE('',#74,#74,#97,.T.);
#97 = SURFACE_CURVE('',#98,(#103,#110),.PCURVE_S1.);
#98 = CIRCLE('',#99,24.8);
#99 = AXIS2_PLACEMENT_3D('',#100,#101,#102);
#100 = CARTESIAN_POINT('',(0.,0.,0.));
#101 = DIRECTION('',(0.,0.,1.));
#102 = DIRECTION('',(1.,0.,-0.));
#103 = PCURVE('',#49,#104);
#104 = DEFINITIONAL_REPRESENTATION('',(#105),#109);
#105 = LINE('',#106,#107);
#106 = CARTESIAN_POINT('',(0.,0.));
#107 = VECTOR('',#108,1.);
#108 = DIRECTION('',(1.,0.));
#109 = ( GEOMETRIC_REPRESENTATION_CONTEXT(2) 
PARAMETRIC_REPRESENTATION_CONTEXT() REPRESENTATION_CONTEXT('2D SPACE',''
  ) );
#110 = PCURVE('',#111,#116);
#111 = PLANE('',#112);
#112 = AXIS2_PLACEMENT_3D('',#113,#114,#115);
#113 = CARTESIAN_POINT('',(0.,0.,0.));
#114 = DIRECTION('',(0.,0.,1.));
#115 = DIRECTION('',(1.,0.,-0.));
#116 = DEFINITIONAL_REPRESENTATION('',(#117),#121);
#117 = CIRCLE('',#118,24.8);
#118 = AXIS2_PLACEMENT_2D('',#119,#120);
#119 = CARTESIAN_POINT('',(0.,0.));
#120 = DIRECTION('',(1.,0.));
#121 = ( GEOMETRIC_REPRESENTATION_CONTEXT(2) 
PARAMETRIC_REPRESENTATION_CONTEXT() REPRESENTATION_CONTEXT('2D SPACE',''
  ) );
#122 = ORIENTED_EDGE('',*,*,#73,.T.);
#123 = ADVANCED_FACE('',(#124,#127),#61,.T.);
#124 = FACE_BOUND('',#125,.T.);
#125 = EDGE_LOOP('',(#126));
#126 = ORIENTED_EDGE('',*,*,#39,.T.);
#127 = FACE_BOUND('',#128,.T.);
#128 = EDGE_LOOP('',(#129));
#129 = ORIENTED_EDGE('',*,*,#130,.F.);
#130 = EDGE_CURVE('',#131,#131,#133,.T.);
#131 = VERTEX_POINT('',#132);
#132 = CARTESIAN_POINT('',(8.,-1.959434878636E-15,166.));
#133 = SURFACE_CURVE('',#134,(#139,#146),.PCURVE_S1.);
#134 = CIRCLE('',#135,8.);
#135 = AXIS2_PLACEMENT_3D('',#136,#137,#138);
#136 = CARTESIAN_POINT('',(0.,0.,166.));
#137 = DIRECTION('',(0.,0.,1.));
#138 = DIRECTION('',(1.,0.,-0.));
#139 = PCURVE('',#61,#140);
#140 = DEFINITIONAL_REPRESENTATION('',(#141),#145);
#141 = CIRCLE('',#142,8.);
#142 = AXIS2_PLACEMENT_2D('',#143,#144);
#143 = CARTESIAN_POINT('',(0.,0.));
#144 = DIRECTION('',(1.,0.));
#145 = ( GEOMETRIC_REPRESENTATION_CONTEXT(2) 
PARAMETRIC_REPRESENTATION_CONTEXT() REPRESENTATION_CONTEXT('2D SPACE',''
  ) );
#146 = PCURVE('',#147,#152);
#147 = CYLINDRICAL_SURFACE('',#148,8.);
#148 = AXIS2_PLACEMENT_3D('',#149,#150,#151);
#149 = CARTESIAN_POINT('',(0.,0.,-0.2));
#150 = DIRECTION('',(0.,0.,1.));
#151 = DIRECTION('',(1.,0.,-0.));
#152 = DEFINITIONAL_REPRESENTATION('',(#153),#157);
#153 = LINE('',#154,#155);
#154 = CARTESIAN_POINT('',(0.,166.2));
#155 = VECTOR('',#156,1.);
#156 = DIRECTION('',(1.,0.));
#157 = ( GEOMETRIC_REPRESENTATION_CONTEXT(2) 
PARAMETRIC_REPRESENTATION_CONTEXT() REPRESENTATION_CONTEXT('2D SPACE',''
  ) );
#158 = ADVANCED_FACE('',(#159,#162),#111,.F.);
#159 = FACE_BOUND('',#160,.F.);
#160 = EDGE_LOOP('',(#161));
#161 = ORIENTED_EDGE('',*,*,#96,.T.);
#162 = FACE_BOUND('',#163,.F.);
#163 = EDGE_LOOP('',(#164,#190,#227,#253,#279,#305,#342,#366,#403,#429,
    #455,#481));
#164 = ORIENTED_EDGE('',*,*,#165,.F.);
#165 = EDGE_CURVE('',#166,#168,#170,.T.);
#166 = VERTEX_POINT('',#167);
#167 = CARTESIAN_POINT('',(7.811122300983,1.72811122301,0.));
#168 = VERTEX_POINT('',#169);
#169 = CARTESIAN_POINT('',(-7.844119001313,1.571558809987,0.));
#170 = SURFACE_CURVE('',#171,(#176,#183),.PCURVE_S1.);
#171 = CIRCLE('',#172,8.);
#172 = AXIS2_PLACEMENT_3D('',#173,#174,#175);
#173 = CARTESIAN_POINT('',(0.,0.,0.));
#174 = DIRECTION('',(0.,0.,1.));
#175 = DIRECTION('',(1.,0.,-0.));
#176 = PCURVE('',#111,#177);
#177 = DEFINITIONAL_REPRESENTATION('',(#178),#182);
#178 = CIRCLE('',#179,8.);
#179 = AXIS2_PLACEMENT_2D('',#180,#181);
#180 = CARTESIAN_POINT('',(0.,0.));
#181 = DIRECTION('',(1.,0.));
#182 = ( GEOMETRIC_REPRESENTATION_CONTEXT(2) 
PARAMETRIC_REPRESENTATION_CONTEXT() REPRESENTATION_CONTEXT('2D SPACE',''
  ) );
#183 = PCURVE('',#147,#184);
#184 = DEFINITIONAL_REPRESENTATION('',(#185),#189);
#185 = LINE('',#186,#187);
#186 = CARTESIAN_POINT('',(0.,0.2));
#187 = VECTOR('',#188,1.);
#188 = DIRECTION('',(1.,0.));
#189 = ( GEOMETRIC_REPRESENTATION_CONTEXT(2) 
PARAMETRIC_REPRESENTATION_CONTEXT() REPRESENTATION_CONTEXT('2D SPACE',''
  ) );
#190 = ORIENTED_EDGE('',*,*,#191,.F.);
#191 = EDGE_CURVE('',#192,#166,#194,.T.);
#192 = VERTEX_POINT('',#193);
#193 = CARTESIAN_POINT('',(15.,1.8,-3.306546357698E-16));
#194 = SURFACE_CURVE('',#195,(#202,#212),.PCURVE_S1.);
#195 = B_SPLINE_CURVE_WITH_KNOTS('',5,(#196,#197,#198,#199,#200,#201),
  .UNSPECIFIED.,.F.,.F.,(6,6),(0.,1.),.PIECEWISE_BEZIER_KNOTS.);
#196 = CARTESIAN_POINT('',(14.99999999973,1.799999999997,0.));
#197 = CARTESIAN_POINT('',(9.211445532552,1.742114455326,0.));
#198 = CARTESIAN_POINT('',(2.987238793287,1.679872387933,0.));
#199 = CARTESIAN_POINT('',(-3.099777464393,1.619002225356,0.));
#200 = CARTESIAN_POINT('',(-8.962748686149,1.560372513139,0.));
#201 = CARTESIAN_POINT('',(-15.,1.5,0.));
#202 = PCURVE('',#111,#203);
#203 = DEFINITIONAL_REPRESENTATION('',(#204),#211);
#204 = B_SPLINE_CURVE_WITH_KNOTS('',5,(#205,#206,#207,#208,#209,#210),
  .UNSPECIFIED.,.F.,.F.,(6,6),(0.,1.),.PIECEWISE_BEZIER_KNOTS.);
#205 = CARTESIAN_POINT('',(14.99999999973,1.799999999997));
#206 = CARTESIAN_POINT('',(9.211445532552,1.742114455326));
#207 = CARTESIAN_POINT('',(2.987238793287,1.679872387933));
#208 = CARTESIAN_POINT('',(-3.099777464393,1.619002225356));
#209 = CARTESIAN_POINT('',(-8.962748686149,1.560372513139));
#210 = CARTESIAN_POINT('',(-15.,1.5));
#211 = ( GEOMETRIC_REPRESENTATION_CONTEXT(2) 
PARAMETRIC_REPRESENTATION_CONTEXT() REPRESENTATION_CONTEXT('2D SPACE',''
  ) );
#212 = PCURVE('',#213,#218);
#213 = CONICAL_SURFACE('',#214,1.5,9.999666686665E-03);
#214 = AXIS2_PLACEMENT_3D('',#215,#216,#217);
#215 = CARTESIAN_POINT('',(-15.,0.,0.));
#216 = DIRECTION('',(1.,0.,0.));
#217 = DIRECTION('',(-0.,0.,1.));
#218 = DEFINITIONAL_REPRESENTATION('',(#219),#226);
#219 = B_SPLINE_CURVE_WITH_KNOTS('',5,(#220,#221,#222,#223,#224,#225),
  .UNSPECIFIED.,.F.,.F.,(6,6),(0.,1.),.PIECEWISE_BEZIER_KNOTS.);
#220 = CARTESIAN_POINT('',(4.712388980385,30.));
#221 = CARTESIAN_POINT('',(4.712388980385,24.211445532822));
#222 = CARTESIAN_POINT('',(4.712388980385,17.987238792601));
#223 = CARTESIAN_POINT('',(4.712388980385,11.900222535997));
#224 = CARTESIAN_POINT('',(4.712388980385,6.037251313851));
#225 = CARTESIAN_POINT('',(4.712388980385,0.));
#226 = ( GEOMETRIC_REPRESENTATION_CONTEXT(2) 
PARAMETRIC_REPRESENTATION_CONTEXT() REPRESENTATION_CONTEXT('2D SPACE',''
  ) );
#227 = ORIENTED_EDGE('',*,*,#228,.T.);
#228 = EDGE_CURVE('',#192,#229,#231,.T.);
#229 = VERTEX_POINT('',#230);
#230 = CARTESIAN_POINT('',(15.2,1.8,-3.306546357698E-16));
#231 = SURFACE_CURVE('',#232,(#236,#242),.PCURVE_S1.);
#232 = LINE('',#233,#234);
#233 = CARTESIAN_POINT('',(15.,1.8,0.));
#234 = VECTOR('',#235,1.);
#235 = DIRECTION('',(1.,0.,0.));
#236 = PCURVE('',#111,#237);
#237 = DEFINITIONAL_REPRESENTATION('',(#238),#241);
#238 = B_SPLINE_CURVE_WITH_KNOTS('',1,(#239,#240),.UNSPECIFIED.,.F.,.F.,
  (2,2),(-5.999999999062E-07,0.2000006),.PIECEWISE_BEZIER_KNOTS.);
#239 = CARTESIAN_POINT('',(14.9999994,1.8));
#240 = CARTESIAN_POINT('',(15.2000006,1.8));
#241 = ( GEOMETRIC_REPRESENTATION_CONTEXT(2) 
PARAMETRIC_REPRESENTATION_CONTEXT() REPRESENTATION_CONTEXT('2D SPACE',''
  ) );
#242 = PCURVE('',#243,#248);
#243 = CYLINDRICAL_SURFACE('',#244,1.8);
#244 = AXIS2_PLACEMENT_3D('',#245,#246,#247);
#245 = CARTESIAN_POINT('',(15.,0.,0.));
#246 = DIRECTION('',(1.,0.,0.));
#247 = DIRECTION('',(-0.,0.,1.));
#248 = DEFINITIONAL_REPRESENTATION('',(#249),#252);
#249 = B_SPLINE_CURVE_WITH_KNOTS('',1,(#250,#251),.UNSPECIFIED.,.F.,.F.,
  (2,2),(-5.999999999062E-07,0.2000006),.PIECEWISE_BEZIER_KNOTS.);
#250 = CARTESIAN_POINT('',(4.712388980385,-5.999999999062E-07));
#251 = CARTESIAN_POINT('',(4.712388980385,0.2000006));
#252 = ( GEOMETRIC_REPRESENTATION_CONTEXT(2) 
PARAMETRIC_REPRESENTATION_CONTEXT() REPRESENTATION_CONTEXT('2D SPACE',''
  ) );
#253 = ORIENTED_EDGE('',*,*,#254,.F.);
#254 = EDGE_CURVE('',#255,#229,#257,.T.);
#255 = VERTEX_POINT('',#256);
#256 = CARTESIAN_POINT('',(15.2,-1.8,1.102182119233E-16));
#257 = SURFACE_CURVE('',#258,(#262,#268),.PCURVE_S1.);
#258 = LINE('',#259,#260);
#259 = CARTESIAN_POINT('',(15.2,0.,0.));
#260 = VECTOR('',#261,1.);
#261 = DIRECTION('',(0.,1.,0.));
#262 = PCURVE('',#111,#263);
#263 = DEFINITIONAL_REPRESENTATION('',(#264),#267);
#264 = B_SPLINE_CURVE_WITH_KNOTS('',1,(#265,#266),.UNSPECIFIED.,.F.,.F.,
  (2,2),(-1.8,1.8),.PIECEWISE_BEZIER_KNOTS.);
#265 = CARTESIAN_POINT('',(15.2,-1.8));
#266 = CARTESIAN_POINT('',(15.2,1.8));
#267 = ( GEOMETRIC_REPRESENTATION_CONTEXT(2) 
PARAMETRIC_REPRESENTATION_CONTEXT() REPRESENTATION_CONTEXT('2D SPACE',''
  ) );
#268 = PCURVE('',#269,#274);
#269 = PLANE('',#270);
#270 = AXIS2_PLACEMENT_3D('',#271,#272,#273);
#271 = CARTESIAN_POINT('',(15.2,0.,0.));
#272 = DIRECTION('',(1.,0.,0.));
#273 = DIRECTION('',(-0.,0.,1.));
#274 = DEFINITIONAL_REPRESENTATION('',(#275),#278);
#275 = B_SPLINE_CURVE_WITH_KNOTS('',1,(#276,#277),.UNSPECIFIED.,.F.,.F.,
  (2,2),(-1.8,1.8),.PIECEWISE_BEZIER_KNOTS.);
#276 = CARTESIAN_POINT('',(0.,1.8));
#277 = CARTESIAN_POINT('',(0.,-1.8));
#278 = ( GEOMETRIC_REPRESENTATION_CONTEXT(2) 
PARAMETRIC_REPRESENTATION_CONTEXT() REPRESENTATION_CONTEXT('2D SPACE',''
  ) );
#279 = ORIENTED_EDGE('',*,*,#280,.F.);
#280 = EDGE_CURVE('',#281,#255,#283,.T.);
#281 = VERTEX_POINT('',#282);
#282 = CARTESIAN_POINT('',(15.,-1.8,1.102182119233E-16));
#283 = SURFACE_CURVE('',#284,(#288,#294),.PCURVE_S1.);
#284 = LINE('',#285,#286);
#285 = CARTESIAN_POINT('',(15.,-1.8,0.));
#286 = VECTOR('',#287,1.);
#287 = DIRECTION('',(1.,0.,0.));
#288 = PCURVE('',#111,#289);
#289 = DEFINITIONAL_REPRESENTATION('',(#290),#293);
#290 = B_SPLINE_CURVE_WITH_KNOTS('',1,(#291,#292),.UNSPECIFIED.,.F.,.F.,
  (2,2),(-5.999999999062E-07,0.2000006),.PIECEWISE_BEZIER_KNOTS.);
#291 = CARTESIAN_POINT('',(14.9999994,-1.8));
#292 = CARTESIAN_POINT('',(15.2000006,-1.8));
#293 = ( GEOMETRIC_REPRESENTATION_CONTEXT(2) 
PARAMETRIC_REPRESENTATION_CONTEXT() REPRESENTATION_CONTEXT('2D SPACE',''
  ) );
#294 = PCURVE('',#295,#300);
#295 = CYLINDRICAL_SURFACE('',#296,1.8);
#296 = AXIS2_PLACEMENT_3D('',#297,#298,#299);
#297 = CARTESIAN_POINT('',(15.,0.,0.));
#298 = DIRECTION('',(1.,0.,0.));
#299 = DIRECTION('',(-0.,0.,1.));
#300 = DEFINITIONAL_REPRESENTATION('',(#301),#304);
#301 = B_SPLINE_CURVE_WITH_KNOTS('',1,(#302,#303),.UNSPECIFIED.,.F.,.F.,
  (2,2),(-5.999999999062E-07,0.2000006),.PIECEWISE_BEZIER_KNOTS.);
#302 = CARTESIAN_POINT('',(1.570796326795,-5.999999999062E-07));
#303 = CARTESIAN_POINT('',(1.570796326795,0.2000006));
#304 = ( GEOMETRIC_REPRESENTATION_CONTEXT(2) 
PARAMETRIC_REPRESENTATION_CONTEXT() REPRESENTATION_CONTEXT('2D SPACE',''
  ) );
#305 = ORIENTED_EDGE('',*,*,#306,.F.);
#306 = EDGE_CURVE('',#307,#281,#309,.T.);
#307 = VERTEX_POINT('',#308);
#308 = CARTESIAN_POINT('',(7.811122300983,-1.72811122301,0.));
#309 = SURFACE_CURVE('',#310,(#317,#327),.PCURVE_S1.);
#310 = B_SPLINE_CURVE_WITH_KNOTS('',5,(#311,#312,#313,#314,#315,#316),
  .UNSPECIFIED.,.F.,.F.,(6,6),(0.,1.),.PIECEWISE_BEZIER_KNOTS.);
#311 = CARTESIAN_POINT('',(-14.99999999999,-1.5,0.));
#312 = CARTESIAN_POINT('',(-9.373645542834,-1.556263544572,0.));
#313 = CARTESIAN_POINT('',(-3.105223580757,-1.618947764192,0.));
#314 = CARTESIAN_POINT('',(3.039167722718,-1.680391677227,0.));
#315 = CARTESIAN_POINT('',(8.91597603721,-1.739159760372,0.));
#316 = CARTESIAN_POINT('',(14.999999999451,-1.799999999995,0.));
#317 = PCURVE('',#111,#318);
#318 = DEFINITIONAL_REPRESENTATION('',(#319),#326);
#319 = B_SPLINE_CURVE_WITH_KNOTS('',5,(#320,#321,#322,#323,#324,#325),
  .UNSPECIFIED.,.F.,.F.,(6,6),(0.,1.),.PIECEWISE_BEZIER_KNOTS.);
#320 = CARTESIAN_POINT('',(-14.99999999999,-1.5));
#321 = CARTESIAN_POINT('',(-9.373645542834,-1.556263544572));
#322 = CARTESIAN_POINT('',(-3.105223580757,-1.618947764192));
#323 = CARTESIAN_POINT('',(3.039167722718,-1.680391677227));
#324 = CARTESIAN_POINT('',(8.91597603721,-1.739159760372));
#325 = CARTESIAN_POINT('',(14.999999999451,-1.799999999995));
#326 = ( GEOMETRIC_REPRESENTATION_CONTEXT(2) 
PARAMETRIC_REPRESENTATION_CONTEXT() REPRESENTATION_CONTEXT('2D SPACE',''
  ) );
#327 = PCURVE('',#328,#333);
#328 = CONICAL_SURFACE('',#329,1.5,9.999666686665E-03);
#329 = AXIS2_PLACEMENT_3D('',#330,#331,#332);
#330 = CARTESIAN_POINT('',(-15.,0.,0.));
#331 = DIRECTION('',(1.,0.,0.));
#332 = DIRECTION('',(-0.,0.,1.));
#333 = DEFINITIONAL_REPRESENTATION('',(#334),#341);
#334 = B_SPLINE_CURVE_WITH_KNOTS('',5,(#335,#336,#337,#338,#339,#340),
  .UNSPECIFIED.,.F.,.F.,(6,6),(0.,1.),.PIECEWISE_BEZIER_KNOTS.);
#335 = CARTESIAN_POINT('',(1.570796326795,0.));
#336 = CARTESIAN_POINT('',(1.570796326795,5.626354457165));
#337 = CARTESIAN_POINT('',(1.570796326795,11.894776420041));
#338 = CARTESIAN_POINT('',(1.570796326795,18.039167721318));
#339 = CARTESIAN_POINT('',(1.570796326795,23.915976037759));
#340 = CARTESIAN_POINT('',(1.570796326795,30.));
#341 = ( GEOMETRIC_REPRESENTATION_CONTEXT(2) 
PARAMETRIC_REPRESENTATION_CONTEXT() REPRESENTATION_CONTEXT('2D SPACE',''
  ) );
#342 = ORIENTED_EDGE('',*,*,#343,.F.);
#343 = EDGE_CURVE('',#344,#307,#346,.T.);
#344 = VERTEX_POINT('',#345);
#345 = CARTESIAN_POINT('',(-7.844119001313,-1.571558809987,0.));
#346 = SURFACE_CURVE('',#347,(#352,#359),.PCURVE_S1.);
#347 = CIRCLE('',#348,8.);
#348 = AXIS2_PLACEMENT_3D('',#349,#350,#351);
#349 = CARTESIAN_POINT('',(0.,0.,0.));
#350 = DIRECTION('',(0.,0.,1.));
#351 = DIRECTION('',(1.,0.,-0.));
#352 = PCURVE('',#111,#353);
#353 = DEFINITIONAL_REPRESENTATION('',(#354),#358);
#354 = CIRCLE('',#355,8.);
#355 = AXIS2_PLACEMENT_2D('',#356,#357);
#356 = CARTESIAN_POINT('',(0.,0.));
#357 = DIRECTION('',(1.,0.));
#358 = ( GEOMETRIC_REPRESENTATION_CONTEXT(2) 
PARAMETRIC_REPRESENTATION_CONTEXT() REPRESENTATION_CONTEXT('2D SPACE',''
  ) );
#359 = PCURVE('',#147,#360);
#360 = DEFINITIONAL_REPRESENTATION('',(#361),#365);
#361 = LINE('',#362,#363);
#362 = CARTESIAN_POINT('',(0.,0.2));
#363 = VECTOR('',#364,1.);
#364 = DIRECTION('',(1.,0.));
#365 = ( GEOMETRIC_REPRESENTATION_CONTEXT(2) 
PARAMETRIC_REPRESENTATION_CONTEXT() REPRESENTATION_CONTEXT('2D SPACE',''
  ) );
#366 = ORIENTED_EDGE('',*,*,#367,.F.);
#367 = EDGE_CURVE('',#368,#344,#370,.T.);
#368 = VERTEX_POINT('',#369);
#369 = CARTESIAN_POINT('',(-15.,-1.5,9.184850993605E-17));
#370 = SURFACE_CURVE('',#371,(#378,#388),.PCURVE_S1.);
#371 = B_SPLINE_CURVE_WITH_KNOTS('',5,(#372,#373,#374,#375,#376,#377),
  .UNSPECIFIED.,.F.,.F.,(6,6),(0.,1.),.PIECEWISE_BEZIER_KNOTS.);
#372 = CARTESIAN_POINT('',(-14.99999999999,-1.5,0.));
#373 = CARTESIAN_POINT('',(-9.373645542834,-1.556263544572,0.));
#374 = CARTESIAN_POINT('',(-3.105223580757,-1.618947764192,0.));
#375 = CARTESIAN_POINT('',(3.039167722718,-1.680391677227,0.));
#376 = CARTESIAN_POINT('',(8.91597603721,-1.739159760372,0.));
#377 = CARTESIAN_POINT('',(14.999999999451,-1.799999999995,0.));
#378 = PCURVE('',#111,#379);
#379 = DEFINITIONAL_REPRESENTATION('',(#380),#387);
#380 = B_SPLINE_CURVE_WITH_KNOTS('',5,(#381,#382,#383,#384,#385,#386),
  .UNSPECIFIED.,.F.,.F.,(6,6),(0.,1.),.PIECEWISE_BEZIER_KNOTS.);
#381 = CARTESIAN_POINT('',(-14.99999999999,-1.5));
#382 = CARTESIAN_POINT('',(-9.373645542834,-1.556263544572));
#383 = CARTESIAN_POINT('',(-3.105223580757,-1.618947764192));
#384 = CARTESIAN_POINT('',(3.039167722718,-1.680391677227));
#385 = CARTESIAN_POINT('',(8.91597603721,-1.739159760372));
#386 = CARTESIAN_POINT('',(14.999999999451,-1.799999999995));
#387 = ( GEOMETRIC_REPRESENTATION_CONTEXT(2) 
PARAMETRIC_REPRESENTATION_CONTEXT() REPRESENTATION_CONTEXT('2D SPACE',''
  ) );
#388 = PCURVE('',#389,#394);
#389 = CONICAL_SURFACE('',#390,1.5,9.999666686665E-03);
#390 = AXIS2_PLACEMENT_3D('',#391,#392,#393);
#391 = CARTESIAN_POINT('',(-15.,0.,0.));
#392 = DIRECTION('',(1.,0.,0.));
#393 = DIRECTION('',(-0.,0.,1.));
#394 = DEFINITIONAL_REPRESENTATION('',(#395),#402);
#395 = B_SPLINE_CURVE_WITH_KNOTS('',5,(#396,#397,#398,#399,#400,#401),
  .UNSPECIFIED.,.F.,.F.,(6,6),(0.,1.),.PIECEWISE_BEZIER_KNOTS.);
#396 = CARTESIAN_POINT('',(1.570796326795,0.));
#397 = CARTESIAN_POINT('',(1.570796326795,5.626354457165));
#398 = CARTESIAN_POINT('',(1.570796326795,11.894776420041));
#399 = CARTESIAN_POINT('',(1.570796326795,18.039167721318));
#400 = CARTESIAN_POINT('',(1.570796326795,23.915976037759));
#401 = CARTESIAN_POINT('',(1.570796326795,30.));
#402 = ( GEOMETRIC_REPRESENTATION_CONTEXT(2) 
PARAMETRIC_REPRESENTATION_CONTEXT() REPRESENTATION_CONTEXT('2D SPACE',''
  ) );
#403 = ORIENTED_EDGE('',*,*,#404,.F.);
#404 = EDGE_CURVE('',#405,#368,#407,.T.);
#405 = VERTEX_POINT('',#406);
#406 = CARTESIAN_POINT('',(-15.2,-1.5,9.184850993605E-17));
#407 = SURFACE_CURVE('',#408,(#412,#418),.PCURVE_S1.);
#408 = LINE('',#409,#410);
#409 = CARTESIAN_POINT('',(-15.2,-1.5,0.));
#410 = VECTOR('',#411,1.);
#411 = DIRECTION('',(1.,0.,0.));
#412 = PCURVE('',#111,#413);
#413 = DEFINITIONAL_REPRESENTATION('',(#414),#417);
#414 = B_SPLINE_CURVE_WITH_KNOTS('',1,(#415,#416),.UNSPECIFIED.,.F.,.F.,
  (2,2),(-5.999999999062E-07,0.2000006),.PIECEWISE_BEZIER_KNOTS.);
#415 = CARTESIAN_POINT('',(-15.2000006,-1.5));
#416 = CARTESIAN_POINT('',(-14.9999994,-1.5));
#417 = ( GEOMETRIC_REPRESENTATION_CONTEXT(2) 
PARAMETRIC_REPRESENTATION_CONTEXT() REPRESENTATION_CONTEXT('2D SPACE',''
  ) );
#418 = PCURVE('',#419,#424);
#419 = CYLINDRICAL_SURFACE('',#420,1.5);
#420 = AXIS2_PLACEMENT_3D('',#421,#422,#423);
#421 = CARTESIAN_POINT('',(-15.2,0.,0.));
#422 = DIRECTION('',(1.,0.,0.));
#423 = DIRECTION('',(-0.,0.,1.));
#424 = DEFINITIONAL_REPRESENTATION('',(#425),#428);
#425 = B_SPLINE_CURVE_WITH_KNOTS('',1,(#426,#427),.UNSPECIFIED.,.F.,.F.,
  (2,2),(-5.999999999062E-07,0.2000006),.PIECEWISE_BEZIER_KNOTS.);
#426 = CARTESIAN_POINT('',(1.570796326795,-5.999999999062E-07));
#427 = CARTESIAN_POINT('',(1.570796326795,0.2000006));
#428 = ( GEOMETRIC_REPRESENTATION_CONTEXT(2) 
PARAMETRIC_REPRESENTATION_CONTEXT() REPRESENTATION_CONTEXT('2D SPACE',''
  ) );
#429 = ORIENTED_EDGE('',*,*,#430,.T.);
#430 = EDGE_CURVE('',#405,#431,#433,.T.);
#431 = VERTEX_POINT('',#432);
#432 = CARTESIAN_POINT('',(-15.2,1.5,-2.755455298082E-16));
#433 = SURFACE_CURVE('',#434,(#438,#444),.PCURVE_S1.);
#434 = LINE('',#435,#436);
#435 = CARTESIAN_POINT('',(-15.2,0.,0.));
#436 = VECTOR('',#437,1.);
#437 = DIRECTION('',(0.,1.,0.));
#438 = PCURVE('',#111,#439);
#439 = DEFINITIONAL_REPRESENTATION('',(#440),#443);
#440 = B_SPLINE_CURVE_WITH_KNOTS('',1,(#441,#442),.UNSPECIFIED.,.F.,.F.,
  (2,2),(-1.5,1.5),.PIECEWISE_BEZIER_KNOTS.);
#441 = CARTESIAN_POINT('',(-15.2,-1.5));
#442 = CARTESIAN_POINT('',(-15.2,1.5));
#443 = ( GEOMETRIC_REPRESENTATION_CONTEXT(2) 
PARAMETRIC_REPRESENTATION_CONTEXT() REPRESENTATION_CONTEXT('2D SPACE',''
  ) );
#444 = PCURVE('',#445,#450);
#445 = PLANE('',#446);
#446 = AXIS2_PLACEMENT_3D('',#447,#448,#449);
#447 = CARTESIAN_POINT('',(-15.2,0.,0.));
#448 = DIRECTION('',(1.,0.,0.));
#449 = DIRECTION('',(-0.,0.,1.));
#450 = DEFINITIONAL_REPRESENTATION('',(#451),#454);
#451 = B_SPLINE_CURVE_WITH_KNOTS('',1,(#452,#453),.UNSPECIFIED.,.F.,.F.,
  (2,2),(-1.5,1.5),.PIECEWISE_BEZIER_KNOTS.);
#452 = CARTESIAN_POINT('',(0.,1.5));
#453 = CARTESIAN_POINT('',(0.,-1.5));
#454 = ( GEOMETRIC_REPRESENTATION_CONTEXT(2) 
PARAMETRIC_REPRESENTATION_CONTEXT() REPRESENTATION_CONTEXT('2D SPACE',''
  ) );
#455 = ORIENTED_EDGE('',*,*,#456,.T.);
#456 = EDGE_CURVE('',#431,#457,#459,.T.);
#457 = VERTEX_POINT('',#458);
#458 = CARTESIAN_POINT('',(-15.,1.5,-2.755455298082E-16));
#459 = SURFACE_CURVE('',#460,(#464,#470),.PCURVE_S1.);
#460 = LINE('',#461,#462);
#461 = CARTESIAN_POINT('',(-15.2,1.5,0.));
#462 = VECTOR('',#463,1.);
#463 = DIRECTION('',(1.,0.,0.));
#464 = PCURVE('',#111,#465);
#465 = DEFINITIONAL_REPRESENTATION('',(#466),#469);
#466 = B_SPLINE_CURVE_WITH_KNOTS('',1,(#467,#468),.UNSPECIFIED.,.F.,.F.,
  (2,2),(-5.999999999062E-07,0.2000006),.PIECEWISE_BEZIER_KNOTS.);
#467 = CARTESIAN_POINT('',(-15.2000006,1.5));
#468 = CARTESIAN_POINT('',(-14.9999994,1.5));
#469 = ( GEOMETRIC_REPRESENTATION_CONTEXT(2) 
PARAMETRIC_REPRESENTATION_CONTEXT() REPRESENTATION_CONTEXT('2D SPACE',''
  ) );
#470 = PCURVE('',#471,#476);
#471 = CYLINDRICAL_SURFACE('',#472,1.5);
#472 = AXIS2_PLACEMENT_3D('',#473,#474,#475);
#473 = CARTESIAN_POINT('',(-15.2,0.,0.));
#474 = DIRECTION('',(1.,0.,0.));
#475 = DIRECTION('',(-0.,0.,1.));
#476 = DEFINITIONAL_REPRESENTATION('',(#477),#480);
#477 = B_SPLINE_CURVE_WITH_KNOTS('',1,(#478,#479),.UNSPECIFIED.,.F.,.F.,
  (2,2),(-5.999999999062E-07,0.2000006),.PIECEWISE_BEZIER_KNOTS.);
#478 = CARTESIAN_POINT('',(4.712388980385,-5.999999999062E-07));
#479 = CARTESIAN_POINT('',(4.712388980385,0.2000006));
#480 = ( GEOMETRIC_REPRESENTATION_CONTEXT(2) 
PARAMETRIC_REPRESENTATION_CONTEXT() REPRESENTATION_CONTEXT('2D SPACE',''
  ) );
#481 = ORIENTED_EDGE('',*,*,#482,.F.);
#482 = EDGE_CURVE('',#168,#457,#483,.T.);
#483 = SURFACE_CURVE('',#484,(#491,#501),.PCURVE_S1.);
#484 = B_SPLINE_CURVE_WITH_KNOTS('',5,(#485,#486,#487,#488,#489,#490),
  .UNSPECIFIED.,.F.,.F.,(6,6),(0.,1.),.PIECEWISE_BEZIER_KNOTS.);
#485 = CARTESIAN_POINT('',(14.99999999973,1.799999999997,0.));
#486 = CARTESIAN_POINT('',(9.211445532552,1.742114455326,0.));
#487 = CARTESIAN_POINT('',(2.987238793287,1.679872387933,0.));
#488 = CARTESIAN_POINT('',(-3.099777464393,1.619002225356,0.));
#489 = CARTESIAN_POINT('',(-8.962748686149,1.560372513139,0.));
#490 = CARTESIAN_POINT('',(-15.,1.5,0.));
#491 = PCURVE('',#111,#492);
#492 = DEFINITIONAL_REPRESENTATION('',(#493),#500);
#493 = B_SPLINE_CURVE_WITH_KNOTS('',5,(#494,#495,#496,#497,#498,#499),
  .UNSPECIFIED.,.F.,.F.,(6,6),(0.,1.),.PIECEWISE_BEZIER_KNOTS.);
#494 = CARTESIAN_POINT('',(14.99999999973,1.799999999997));
#495 = CARTESIAN_POINT('',(9.211445532552,1.742114455326));
#496 = CARTESIAN_POINT('',(2.987238793287,1.679872387933));
#497 = CARTESIAN_POINT('',(-3.099777464393,1.619002225356));
#498 = CARTESIAN_POINT('',(-8.962748686149,1.560372513139));
#499 = CARTESIAN_POINT('',(-15.,1.5));
#500 = ( GEOMETRIC_REPRESENTATION_CONTEXT(2) 
PARAMETRIC_REPRESENTATION_CONTEXT() REPRESENTATION_CONTEXT('2D SPACE',''
  ) );
#501 = PCURVE('',#502,#507);
#502 = CONICAL_SURFACE('',#503,1.5,9.999666686665E-03);
#503 = AXIS2_PLACEMENT_3D('',#504,#505,#506);
#504 = CARTESIAN_POINT('',(-15.,0.,0.));
#505 = DIRECTION('',(1.,0.,0.));
#506 = DIRECTION('',(-0.,0.,1.));
#507 = DEFINITIONAL_REPRESENTATION('',(#508),#515);
#508 = B_SPLINE_CURVE_WITH_KNOTS('',5,(#509,#510,#511,#512,#513,#514),
  .UNSPECIFIED.,.F.,.F.,(6,6),(0.,1.),.PIECEWISE_BEZIER_KNOTS.);
#509 = CARTESIAN_POINT('',(4.712388980385,30.));
#510 = CARTESIAN_POINT('',(4.712388980385,24.211445532822));
#511 = CARTESIAN_POINT('',(4.712388980385,17.987238792601));
#512 = CARTESIAN_POINT('',(4.712388980385,11.900222535997));
#513 = CARTESIAN_POINT('',(4.712388980385,6.037251313851));
#514 = CARTESIAN_POINT('',(4.712388980385,0.));
#515 = ( GEOMETRIC_REPRESENTATION_CONTEXT(2) 
PARAMETRIC_REPRESENTATION_CONTEXT() REPRESENTATION_CONTEXT('2D SPACE',''
  ) );
#516 = ADVANCED_FACE('',(#517),#147,.F.);
#517 = FACE_BOUND('',#518,.F.);
#518 = EDGE_LOOP('',(#519,#542,#543,#544,#646,#647,#739,#829,#830));
#519 = ORIENTED_EDGE('',*,*,#520,.T.);
#520 = EDGE_CURVE('',#521,#131,#523,.T.);
#521 = VERTEX_POINT('',#522);
#522 = CARTESIAN_POINT('',(8.,-7.678535430654E-16,1.73));
#523 = SEAM_CURVE('',#524,(#528,#535),.PCURVE_S1.);
#524 = LINE('',#525,#526);
#525 = CARTESIAN_POINT('',(8.,-1.959434878636E-15,-0.2));
#526 = VECTOR('',#527,1.);
#527 = DIRECTION('',(0.,0.,1.));
#528 = PCURVE('',#147,#529);
#529 = DEFINITIONAL_REPRESENTATION('',(#530),#534);
#530 = LINE('',#531,#532);
#531 = CARTESIAN_POINT('',(6.28318530718,-0.));
#532 = VECTOR('',#533,1.);
#533 = DIRECTION('',(0.,1.));
#534 = ( GEOMETRIC_REPRESENTATION_CONTEXT(2) 
PARAMETRIC_REPRESENTATION_CONTEXT() REPRESENTATION_CONTEXT('2D SPACE',''
  ) );
#535 = PCURVE('',#147,#536);
#536 = DEFINITIONAL_REPRESENTATION('',(#537),#541);
#537 = LINE('',#538,#539);
#538 = CARTESIAN_POINT('',(0.,-0.));
#539 = VECTOR('',#540,1.);
#540 = DIRECTION('',(0.,1.));
#541 = ( GEOMETRIC_REPRESENTATION_CONTEXT(2) 
PARAMETRIC_REPRESENTATION_CONTEXT() REPRESENTATION_CONTEXT('2D SPACE',''
  ) );
#542 = ORIENTED_EDGE('',*,*,#130,.F.);
#543 = ORIENTED_EDGE('',*,*,#520,.F.);
#544 = ORIENTED_EDGE('',*,*,#545,.F.);
#545 = EDGE_CURVE('',#166,#521,#546,.T.);
#546 = SURFACE_CURVE('',#547,(#578,#612),.PCURVE_S1.);
#547 = B_SPLINE_CURVE_WITH_KNOTS('',8,(#548,#549,#550,#551,#552,#553,
    #554,#555,#556,#557,#558,#559,#560,#561,#562,#563,#564,#565,#566,
    #567,#568,#569,#570,#571,#572,#573,#574,#575,#576,#577),
  .UNSPECIFIED.,.F.,.F.,(9,7,7,7,9),(0.,0.515080353478,0.676239242659,
    0.799729152416,1.),.UNSPECIFIED.);
#548 = CARTESIAN_POINT('',(7.811122300983,1.72811122301,
    -5.999999997563E-07));
#549 = CARTESIAN_POINT('',(7.811122289089,1.72811127677,0.155181447177)
  );
#550 = CARTESIAN_POINT('',(7.814637870997,1.712220455406,0.310169652387)
  );
#551 = CARTESIAN_POINT('',(7.82165387312,1.680509370876,0.464051422869)
  );
#552 = CARTESIAN_POINT('',(7.83202954049,1.632748756426,0.615689617021)
  );
#553 = CARTESIAN_POINT('',(7.845458881087,1.568639414132,0.763737168915)
  );
#554 = CARTESIAN_POINT('',(7.861430908751,1.487778911209,0.906593608943)
  );
#555 = CARTESIAN_POINT('',(7.879230575052,1.389786038975,1.042432971313)
  );
#556 = CARTESIAN_POINT('',(7.903771413532,1.237637426401,1.208597494842)
  );
#557 = CARTESIAN_POINT('',(7.909704009073,1.19964593229,1.247267409456)
  );
#558 = CARTESIAN_POINT('',(7.915690807067,1.159910134946,1.28493171479)
  );
#559 = CARTESIAN_POINT('',(7.921698577126,1.118422014384,1.321505173713)
  );
#560 = CARTESIAN_POINT('',(7.92769098417,1.075179350771,1.356893941049)
  );
#561 = CARTESIAN_POINT('',(7.933628804856,1.030187228672,1.390996396725)
  );
#562 = CARTESIAN_POINT('',(7.939470144011,0.983459541299,1.423703978912)
  );
#563 = CARTESIAN_POINT('',(7.949538732171,0.897903500979,1.478807883899)
  );
#564 = CARTESIAN_POINT('',(7.953823928527,0.859783353993,1.501826295149)
  );
#565 = CARTESIAN_POINT('',(7.958006299366,0.820672489827,1.523905161224)
  );
#566 = CARTESIAN_POINT('',(7.962064839252,0.780588796092,1.544989179429)
  );
#567 = CARTESIAN_POINT('',(7.965977844301,0.739556496841,1.56502084229)
  );
#568 = CARTESIAN_POINT('',(7.969723278414,0.697607037441,1.583941445783)
  );
#569 = CARTESIAN_POINT('',(7.973279139513,0.654779969435,1.601692097563)
  );
#570 = CARTESIAN_POINT('',(7.982048100125,0.540324115982,1.645010441895)
  );
#571 = CARTESIAN_POINT('',(7.986919514952,0.467311161926,1.668588946414)
  );
#572 = CARTESIAN_POINT('',(7.991142249387,0.392331143843,1.688681654494)
  );
#573 = CARTESIAN_POINT('',(7.994627292391,0.315677767906,1.705047627001)
  );
#574 = CARTESIAN_POINT('',(7.997298708247,0.237694692722,1.717481830331)
  );
#575 = CARTESIAN_POINT('',(7.99909991845,0.158777806965,1.725828556079)
  );
#576 = CARTESIAN_POINT('',(7.999999999983,7.937736778587E-02,
    1.72999999996));
#577 = CARTESIAN_POINT('',(8.,0.,1.73));
#578 = PCURVE('',#147,#579);
#579 = DEFINITIONAL_REPRESENTATION('',(#580),#611);
#580 = B_SPLINE_CURVE_WITH_KNOTS('',8,(#581,#582,#583,#584,#585,#586,
    #587,#588,#589,#590,#591,#592,#593,#594,#595,#596,#597,#598,#599,
    #600,#601,#602,#603,#604,#605,#606,#607,#608,#609,#610),
  .UNSPECIFIED.,.F.,.F.,(9,7,7,7,9),(0.,0.515080353478,0.676239242659,
    0.799729152416,1.),.UNSPECIFIED.);
#581 = CARTESIAN_POINT('',(0.21773013044,0.1999994));
#582 = CARTESIAN_POINT('',(0.217730137322,0.355181447177));
#583 = CARTESIAN_POINT('',(0.215695753986,0.510169652387));
#584 = CARTESIAN_POINT('',(0.211636016172,0.664051422869));
#585 = CARTESIAN_POINT('',(0.205526714927,0.815689617021));
#586 = CARTESIAN_POINT('',(0.19733965628,0.963737168915));
#587 = CARTESIAN_POINT('',(0.18703833842,1.106593608943));
#588 = CARTESIAN_POINT('',(0.174591226426,1.242432971313));
#589 = CARTESIAN_POINT('',(0.155326843381,1.408597494842));
#590 = CARTESIAN_POINT('',(0.150520414832,1.447267409456));
#591 = CARTESIAN_POINT('',(0.145497504679,1.48493171479));
#592 = CARTESIAN_POINT('',(0.140257578755,1.521505173713));
#593 = CARTESIAN_POINT('',(0.134800809163,1.556893941049));
#594 = CARTESIAN_POINT('',(0.129128243605,1.590996396725));
#595 = CARTESIAN_POINT('',(0.123241974711,1.623703978912));
#596 = CARTESIAN_POINT('',(0.11247366726,1.678807883899));
#597 = CARTESIAN_POINT('',(0.107678700725,1.701826295149));
#598 = CARTESIAN_POINT('',(0.102762091456,1.723905161224));
#599 = CARTESIAN_POINT('',(9.772617588653E-02,1.744989179429));
#600 = CARTESIAN_POINT('',(9.257405012184E-02,1.76502084229));
#601 = CARTESIAN_POINT('',(8.730967487249E-02,1.783941445783));
#602 = CARTESIAN_POINT('',(8.193798038656E-02,1.801692097563));
#603 = CARTESIAN_POINT('',(6.758907087887E-02,1.845010441895));
#604 = CARTESIAN_POINT('',(5.84426033038E-02,1.868588946422));
#605 = CARTESIAN_POINT('',(4.905610046162E-02,1.888681654489));
#606 = CARTESIAN_POINT('',(3.946567947661E-02,1.905047626991));
#607 = CARTESIAN_POINT('',(2.97133246682E-02,1.917481830336));
#608 = CARTESIAN_POINT('',(1.984722558384E-02,1.925828556093));
#609 = CARTESIAN_POINT('',(9.92217118927E-03,1.929999999952));
#610 = CARTESIAN_POINT('',(2.160361952788E-10,1.929999999991));
#611 = ( GEOMETRIC_REPRESENTATION_CONTEXT(2) 
PARAMETRIC_REPRESENTATION_CONTEXT() REPRESENTATION_CONTEXT('2D SPACE',''
  ) );
#612 = PCURVE('',#213,#613);
#613 = DEFINITIONAL_REPRESENTATION('',(#614),#645);
#614 = B_SPLINE_CURVE_WITH_KNOTS('',8,(#615,#616,#617,#618,#619,#620,
    #621,#622,#623,#624,#625,#626,#627,#628,#629,#630,#631,#632,#633,
    #634,#635,#636,#637,#638,#639,#640,#641,#642,#643,#644),
  .UNSPECIFIED.,.F.,.F.,(9,7,7,7,9),(0.,0.515080353478,0.676239242659,
    0.799729152416,1.),.UNSPECIFIED.);
#615 = CARTESIAN_POINT('',(4.712388633185,22.811122300983));
#616 = CARTESIAN_POINT('',(4.80218727873,22.811122289089));
#617 = CARTESIAN_POINT('',(4.891873979137,22.814637870997));
#618 = CARTESIAN_POINT('',(4.98201499349,22.82165387312));
#619 = CARTESIAN_POINT('',(5.073043542565,22.83202954049));
#620 = CARTESIAN_POINT('',(5.165355562046,22.845458881087));
#621 = CARTESIAN_POINT('',(5.259387841939,22.861430908751));
#622 = CARTESIAN_POINT('',(5.355619736548,22.879230575052));
#623 = CARTESIAN_POINT('',(5.485927451123,22.903771413532));
#624 = CARTESIAN_POINT('',(5.517260611159,22.909704009073));
#625 = CARTESIAN_POINT('',(5.548890412981,22.915690807067));
#626 = CARTESIAN_POINT('',(5.580832767123,22.921698577126));
#627 = CARTESIAN_POINT('',(5.613101660814,22.92769098417));
#628 = CARTESIAN_POINT('',(5.645709268885,22.933628804856));
#629 = CARTESIAN_POINT('',(5.678666064669,22.939470144011));
#630 = CARTESIAN_POINT('',(5.737508842183,22.949538732171));
#631 = CARTESIAN_POINT('',(5.763245845208,22.953823928527));
#632 = CARTESIAN_POINT('',(5.789194878655,22.958006299366));
#633 = CARTESIAN_POINT('',(5.815357173716,22.962064839252));
#634 = CARTESIAN_POINT('',(5.841732018663,22.965977844301));
#635 = CARTESIAN_POINT('',(5.86831652341,22.969723278414));
#636 = CARTESIAN_POINT('',(5.895105384081,22.973279139513));
#637 = CARTESIAN_POINT('',(5.965854236059,22.982048100125));
#638 = CARTESIAN_POINT('',(6.01015450153,22.986919514966));
#639 = CARTESIAN_POINT('',(6.05493196803,22.991142249377));
#640 = CARTESIAN_POINT('',(6.100119679523,22.994627292374));
#641 = CARTESIAN_POINT('',(6.145641285523,22.997298708259));
#642 = CARTESIAN_POINT('',(6.191406286009,22.999099918474));
#643 = CARTESIAN_POINT('',(6.237302435627,22.999999999957));
#644 = CARTESIAN_POINT('',(6.28318530718,23.));
#645 = ( GEOMETRIC_REPRESENTATION_CONTEXT(2) 
PARAMETRIC_REPRESENTATION_CONTEXT() REPRESENTATION_CONTEXT('2D SPACE',''
  ) );
#646 = ORIENTED_EDGE('',*,*,#165,.T.);
#647 = ORIENTED_EDGE('',*,*,#648,.F.);
#648 = EDGE_CURVE('',#649,#168,#651,.T.);
#649 = VERTEX_POINT('',#650);
#650 = CARTESIAN_POINT('',(-8.,3.845390949323E-16,1.57));
#651 = SURFACE_CURVE('',#652,(#679,#709),.PCURVE_S1.);
#652 = B_SPLINE_CURVE_WITH_KNOTS('',7,(#653,#654,#655,#656,#657,#658,
    #659,#660,#661,#662,#663,#664,#665,#666,#667,#668,#669,#670,#671,
    #672,#673,#674,#675,#676,#677,#678),.UNSPECIFIED.,.F.,.F.,(8,6,6,6,8
    ),(0.,0.207031878705,0.334451561387,0.497975157754,1.),
  .UNSPECIFIED.);
#653 = CARTESIAN_POINT('',(-8.,4.898587196589E-16,1.57));
#654 = CARTESIAN_POINT('',(-7.999999999999,8.455330814836E-02,
    1.569999999998));
#655 = CARTESIAN_POINT('',(-7.998957435614,0.169134894413,1.564697707109
    ));
#656 = CARTESIAN_POINT('',(-7.996870847232,0.252980105942,1.5540873216)
  );
#657 = CARTESIAN_POINT('',(-7.993795198699,0.335426405043,1.538335917485
    ));
#658 = CARTESIAN_POINT('',(-7.989827431614,0.415910788984,1.5177246621)
  );
#659 = CARTESIAN_POINT('',(-7.985091666145,0.493965723555,1.49260897413)
  );
#660 = CARTESIAN_POINT('',(-7.97642049845,0.615525585348,1.445419222336)
  );
#661 = CARTESIAN_POINT('',(-7.97287652127,0.660789275711,1.425883500013)
  );
#662 = CARTESIAN_POINT('',(-7.969122714986,0.70492978388,1.404878528914)
  );
#663 = CARTESIAN_POINT('',(-7.965190421462,0.747889079399,1.38249412117)
  );
#664 = CARTESIAN_POINT('',(-7.961110857011,0.789623785912,1.358819293431
    ));
#665 = CARTESIAN_POINT('',(-7.956914243107,0.830102988103,1.333939735054
    ));
#666 = CARTESIAN_POINT('',(-7.947129404884,0.919617134028,1.274562546679
    ));
#667 = CARTESIAN_POINT('',(-7.941484130677,0.967823330234,1.239339249563
    ));
#668 = CARTESIAN_POINT('',(-7.935753122961,1.013885554727,1.202432627982
    ));
#669 = CARTESIAN_POINT('',(-7.929992292702,1.057783626374,1.163999370401
    ));
#670 = CARTESIAN_POINT('',(-7.924252952669,1.099512584998,1.124183606679
    ));
#671 = CARTESIAN_POINT('',(-7.918581316751,1.13907902094,1.083114904029)
  );
#672 = CARTESIAN_POINT('',(-7.89593836283,1.291373536189,0.911323824505)
  );
#673 = CARTESIAN_POINT('',(-7.879910402036,1.385802959132,0.771226567538
    ));
#674 = CARTESIAN_POINT('',(-7.866064007816,1.460617757559,0.623620132701
    ));
#675 = CARTESIAN_POINT('',(-7.855204157849,1.516222788435,0.470857318898
    ));
#676 = CARTESIAN_POINT('',(-7.84781978108,1.553088696608,0.314967870178)
  );
#677 = CARTESIAN_POINT('',(-7.844118989235,1.57155887027,0.15758086592)
  );
#678 = CARTESIAN_POINT('',(-7.844119001313,1.571558809987,
    -5.999999998027E-07));
#679 = PCURVE('',#147,#680);
#680 = DEFINITIONAL_REPRESENTATION('',(#681),#708);
#681 = B_SPLINE_CURVE_WITH_KNOTS('',7,(#682,#683,#684,#685,#686,#687,
    #688,#689,#690,#691,#692,#693,#694,#695,#696,#697,#698,#699,#700,
    #701,#702,#703,#704,#705,#706,#707),.UNSPECIFIED.,.F.,.F.,(8,6,6,6,8
    ),(0.,0.207031878705,0.334451561387,0.497975157754,1.),
  .UNSPECIFIED.);
#682 = CARTESIAN_POINT('',(3.14159265358,1.77));
#683 = CARTESIAN_POINT('',(3.131023490061,1.769999999998));
#684 = CARTESIAN_POINT('',(3.120450791667,1.764697707109));
#685 = CARTESIAN_POINT('',(3.109968212586,1.7540873216));
#686 = CARTESIAN_POINT('',(3.099656631898,1.738335917485));
#687 = CARTESIAN_POINT('',(3.089584923954,1.7177246621));
#688 = CARTESIAN_POINT('',(3.079810665937,1.69260897413));
#689 = CARTESIAN_POINT('',(3.064577073766,1.645419222336));
#690 = CARTESIAN_POINT('',(3.05890193315,1.625883500012));
#691 = CARTESIAN_POINT('',(3.053364647143,1.604878528914));
#692 = CARTESIAN_POINT('',(3.047972477576,1.58249412117));
#693 = CARTESIAN_POINT('',(3.042730923295,1.558819293431));
#694 = CARTESIAN_POINT('',(3.037643981746,1.533939735054));
#695 = CARTESIAN_POINT('',(3.026388062901,1.474562546679));
#696 = CARTESIAN_POINT('',(3.020321290277,1.439339249563));
#697 = CARTESIAN_POINT('',(3.014519348359,1.402432627982));
#698 = CARTESIAN_POINT('',(3.008985245308,1.363999370401));
#699 = CARTESIAN_POINT('',(3.003720161807,1.324183606679));
#700 = CARTESIAN_POINT('',(2.998723871101,1.283114904029));
#701 = CARTESIAN_POINT('',(2.979477798963,1.111323824505));
#702 = CARTESIAN_POINT('',(2.967507819546,0.971226567538));
#703 = CARTESIAN_POINT('',(2.957998128758,0.823620132701));
#704 = CARTESIAN_POINT('',(2.950916292544,0.670857318898));
#705 = CARTESIAN_POINT('',(2.946216506723,0.514967870178));
#706 = CARTESIAN_POINT('',(2.943861848838,0.35758086592));
#707 = CARTESIAN_POINT('',(2.943861856523,0.1999994));
#708 = ( GEOMETRIC_REPRESENTATION_CONTEXT(2) 
PARAMETRIC_REPRESENTATION_CONTEXT() REPRESENTATION_CONTEXT('2D SPACE',''
  ) );
#709 = PCURVE('',#502,#710);
#710 = DEFINITIONAL_REPRESENTATION('',(#711),#738);
#711 = B_SPLINE_CURVE_WITH_KNOTS('',7,(#712,#713,#714,#715,#716,#717,
    #718,#719,#720,#721,#722,#723,#724,#725,#726,#727,#728,#729,#730,
    #731,#732,#733,#734,#735,#736,#737),.UNSPECIFIED.,.F.,.F.,(8,6,6,6,8
    ),(0.,0.207031878705,0.334451561387,0.497975157754,1.),
  .UNSPECIFIED.);
#712 = CARTESIAN_POINT('',(6.28318530718,7.));
#713 = CARTESIAN_POINT('',(6.229329696894,7.000000000002));
#714 = CARTESIAN_POINT('',(6.175456155861,7.001042564384));
#715 = CARTESIAN_POINT('',(6.121797635924,7.003129152768));
#716 = CARTESIAN_POINT('',(6.068522877002,7.006204801302));
#717 = CARTESIAN_POINT('',(6.015763959921,7.010172568386));
#718 = CARTESIAN_POINT('',(5.96363272361,7.014908333855));
#719 = CARTESIAN_POINT('',(5.880587332318,7.02357950155));
#720 = CARTESIAN_POINT('',(5.849212889746,7.02712347873));
#721 = CARTESIAN_POINT('',(5.818115777497,7.030877285014));
#722 = CARTESIAN_POINT('',(5.787303679041,7.034809578538));
#723 = CARTESIAN_POINT('',(5.756779543333,7.038889142989));
#724 = CARTESIAN_POINT('',(5.726542225396,7.043085756893));
#725 = CARTESIAN_POINT('',(5.658144357839,7.052870595116));
#726 = CARTESIAN_POINT('',(5.620168755939,7.058515869323));
#727 = CARTESIAN_POINT('',(5.582647108516,7.064246877039));
#728 = CARTESIAN_POINT('',(5.545562865629,7.070007707298));
#729 = CARTESIAN_POINT('',(5.508895929447,7.075747047331));
#730 = CARTESIAN_POINT('',(5.472622443611,7.081418683249));
#731 = CARTESIAN_POINT('',(5.32647582402,7.10406163717));
#732 = CARTESIAN_POINT('',(5.219876374341,7.120089597964));
#733 = CARTESIAN_POINT('',(5.115808726077,7.133935992184));
#734 = CARTESIAN_POINT('',(5.013659543847,7.144795842151));
#735 = CARTESIAN_POINT('',(4.912805844056,7.15218021892));
#736 = CARTESIAN_POINT('',(4.812659402922,7.155881010765));
#737 = CARTESIAN_POINT('',(4.712388598598,7.155880998687));
#738 = ( GEOMETRIC_REPRESENTATION_CONTEXT(2) 
PARAMETRIC_REPRESENTATION_CONTEXT() REPRESENTATION_CONTEXT('2D SPACE',''
  ) );
#739 = ORIENTED_EDGE('',*,*,#740,.F.);
#740 = EDGE_CURVE('',#344,#649,#741,.T.);
#741 = SURFACE_CURVE('',#742,(#769,#799),.PCURVE_S1.);
#742 = B_SPLINE_CURVE_WITH_KNOTS('',7,(#743,#744,#745,#746,#747,#748,
    #749,#750,#751,#752,#753,#754,#755,#756,#757,#758,#759,#760,#761,
    #762,#763,#764,#765,#766,#767,#768),.UNSPECIFIED.,.F.,.F.,(8,6,6,6,8
    ),(0.,0.502642333149,0.666762874613,0.793227061776,1.),
  .UNSPECIFIED.);
#743 = CARTESIAN_POINT('',(-7.844119001313,-1.571558809987,
    -5.999999999592E-07));
#744 = CARTESIAN_POINT('',(-7.84411898922,-1.571558870344,0.157773942787
    ));
#745 = CARTESIAN_POINT('',(-7.847828855661,-1.55304341728,0.315353843069
    ));
#746 = CARTESIAN_POINT('',(-7.855231341588,-1.516087029012,
    0.471431158023));
#747 = CARTESIAN_POINT('',(-7.866117357131,-1.460344681402,
    0.624370381816));
#748 = CARTESIAN_POINT('',(-7.879995490926,-1.385343126018,
    0.772132973713));
#749 = CARTESIAN_POINT('',(-7.896056492776,-1.290677354982,
    0.912355663752));
#750 = CARTESIAN_POINT('',(-7.918750818467,-1.137906292783,
    1.084355857888));
#751 = CARTESIAN_POINT('',(-7.92444524513,-1.09813842433,1.125542382364)
  );
#752 = CARTESIAN_POINT('',(-7.930206871414,-1.056191999323,
    1.165463997128));
#753 = CARTESIAN_POINT('',(-7.935988876741,-1.012060503729,
    1.203989444337));
#754 = CARTESIAN_POINT('',(-7.941739264656,-0.965749237076,
    1.240972670327));
#755 = CARTESIAN_POINT('',(-7.947401381878,-0.917279074459,
    1.276254891199));
#756 = CARTESIAN_POINT('',(-7.95716255932,-0.827708653043,1.335412320354
    ));
#757 = CARTESIAN_POINT('',(-7.961321975836,-0.787470974514,
    1.360046111289));
#758 = CARTESIAN_POINT('',(-7.965364902818,-0.745997746801,
    1.383489795923));
#759 = CARTESIAN_POINT('',(-7.969261762266,-0.703319554083,
    1.405659495818));
#760 = CARTESIAN_POINT('',(-7.972982024485,-0.659479127656,
    1.426468141663));
#761 = CARTESIAN_POINT('',(-7.976495050312,-0.614533462716,
    1.445827925558));
#762 = CARTESIAN_POINT('',(-7.985127105509,-0.493381226145,
    1.492796909338));
#763 = CARTESIAN_POINT('',(-7.989852173224,-0.415408595474,
    1.517853187667));
#764 = CARTESIAN_POINT('',(-7.993810545169,-0.335014815981,
    1.538414510802));
#765 = CARTESIAN_POINT('',(-7.996878657343,-0.252666124997,
    1.554127033584));
#766 = CARTESIAN_POINT('',(-7.99896003612,-0.168923721226,1.564710934584
    ));
#767 = CARTESIAN_POINT('',(-7.999999999996,-8.444778186752E-02,
    1.569999999989));
#768 = CARTESIAN_POINT('',(-8.,4.440892098501E-16,1.57));
#769 = PCURVE('',#147,#770);
#770 = DEFINITIONAL_REPRESENTATION('',(#771),#798);
#771 = B_SPLINE_CURVE_WITH_KNOTS('',7,(#772,#773,#774,#775,#776,#777,
    #778,#779,#780,#781,#782,#783,#784,#785,#786,#787,#788,#789,#790,
    #791,#792,#793,#794,#795,#796,#797),.UNSPECIFIED.,.F.,.F.,(8,6,6,6,8
    ),(0.,0.502642333149,0.666762874613,0.793227061776,1.),
  .UNSPECIFIED.);
#772 = CARTESIAN_POINT('',(3.339323450656,0.1999994));
#773 = CARTESIAN_POINT('',(3.339323458351,0.357773942787));
#774 = CARTESIAN_POINT('',(3.336963028014,0.515353843069));
#775 = CARTESIAN_POINT('',(3.332251707751,0.671431158023));
#776 = CARTESIAN_POINT('',(3.325152399227,0.824370381816));
#777 = CARTESIAN_POINT('',(3.315619038687,0.972132973713));
#778 = CARTESIAN_POINT('',(3.303619260299,1.112355663752));
#779 = CARTESIAN_POINT('',(3.284313322957,1.284355857888));
#780 = CARTESIAN_POINT('',(3.279291704653,1.325542382364));
#781 = CARTESIAN_POINT('',(3.273999313897,1.365463997128));
#782 = CARTESIAN_POINT('',(3.268435939636,1.403989444337));
#783 = CARTESIAN_POINT('',(3.262602810109,1.440972670327));
#784 = CARTESIAN_POINT('',(3.256503023501,1.476254891199));
#785 = CARTESIAN_POINT('',(3.245240432645,1.535412320354));
#786 = CARTESIAN_POINT('',(3.240183998565,1.560046111289));
#787 = CARTESIAN_POINT('',(3.234975416747,1.583489795923));
#788 = CARTESIAN_POINT('',(3.229618638607,1.605659495818));
#789 = CARTESIAN_POINT('',(3.22411907912,1.626468141663));
#790 = CARTESIAN_POINT('',(3.218483869359,1.645827925558));
#791 = CARTESIAN_POINT('',(3.203301449013,1.692796909338));
#792 = CARTESIAN_POINT('',(3.19353753944,1.717853187668));
#793 = CARTESIAN_POINT('',(3.183477197823,1.738414510801));
#794 = CARTESIAN_POINT('',(3.17317783979,1.754127033584));
#795 = CARTESIAN_POINT('',(3.162708118763,1.764710934585));
#796 = CARTESIAN_POINT('',(3.152148626373,1.769999999989));
#797 = CARTESIAN_POINT('',(3.14159265364,1.769999999999));
#798 = ( GEOMETRIC_REPRESENTATION_CONTEXT(2) 
PARAMETRIC_REPRESENTATION_CONTEXT() REPRESENTATION_CONTEXT('2D SPACE',''
  ) );
#799 = PCURVE('',#389,#800);
#800 = DEFINITIONAL_REPRESENTATION('',(#801),#828);
#801 = B_SPLINE_CURVE_WITH_KNOTS('',7,(#802,#803,#804,#805,#806,#807,
    #808,#809,#810,#811,#812,#813,#814,#815,#816,#817,#818,#819,#820,
    #821,#822,#823,#824,#825,#826,#827),.UNSPECIFIED.,.F.,.F.,(8,6,6,6,8
    ),(0.,0.502642333149,0.666762874613,0.793227061776,1.),
  .UNSPECIFIED.);
#802 = CARTESIAN_POINT('',(1.570796708581,7.155880998687));
#803 = CARTESIAN_POINT('',(1.470403047342,7.15588101078));
#804 = CARTESIAN_POINT('',(1.370133872769,7.152171144339));
#805 = CARTESIAN_POINT('',(1.269154487437,7.144768658412));
#806 = CARTESIAN_POINT('',(1.166874949011,7.133882642869));
#807 = CARTESIAN_POINT('',(1.062669770619,7.120004509074));
#808 = CARTESIAN_POINT('',(0.955924120077,7.103943507224));
#809 = CARTESIAN_POINT('',(0.809476442391,7.081249181533));
#810 = CARTESIAN_POINT('',(0.77306026779,7.07555475487));
#811 = CARTESIAN_POINT('',(0.736247192661,7.069793128586));
#812 = CARTESIAN_POINT('',(0.69901313722,7.064011123259));
#813 = CARTESIAN_POINT('',(0.661337868273,7.058260735344));
#814 = CARTESIAN_POINT('',(0.623204793487,7.052598618122));
#815 = CARTESIAN_POINT('',(0.554854154663,7.04283744068));
#816 = CARTESIAN_POINT('',(0.524829343299,7.038678024164));
#817 = CARTESIAN_POINT('',(0.49452194674,7.034635097182));
#818 = CARTESIAN_POINT('',(0.463930959767,7.030738237734));
#819 = CARTESIAN_POINT('',(0.433059368892,7.027017975515));
#820 = CARTESIAN_POINT('',(0.401914774466,7.023504949688));
#821 = CARTESIAN_POINT('',(0.319162236056,7.014872894491));
#822 = CARTESIAN_POINT('',(0.267092162685,7.010147826772));
#823 = CARTESIAN_POINT('',(0.214396474924,7.006189454837));
#824 = CARTESIAN_POINT('',(0.161186733031,7.003121342659));
#825 = CARTESIAN_POINT('',(0.107594646818,7.00103996387));
#826 = CARTESIAN_POINT('',(5.378839609396E-02,7.000000000011));
#827 = CARTESIAN_POINT('',(0.,7.));
#828 = ( GEOMETRIC_REPRESENTATION_CONTEXT(2) 
PARAMETRIC_REPRESENTATION_CONTEXT() REPRESENTATION_CONTEXT('2D SPACE',''
  ) );
#829 = ORIENTED_EDGE('',*,*,#343,.T.);
#830 = ORIENTED_EDGE('',*,*,#831,.F.);
#831 = EDGE_CURVE('',#521,#307,#832,.T.);
#832 = SURFACE_CURVE('',#833,(#864,#898),.PCURVE_S1.);
#833 = B_SPLINE_CURVE_WITH_KNOTS('',8,(#834,#835,#836,#837,#838,#839,
    #840,#841,#842,#843,#844,#845,#846,#847,#848,#849,#850,#851,#852,
    #853,#854,#855,#856,#857,#858,#859,#860,#861,#862,#863),
  .UNSPECIFIED.,.F.,.F.,(9,7,7,7,9),(0.,0.199556848396,0.323390321614,
    0.484827033134,1.),.UNSPECIFIED.);
#834 = CARTESIAN_POINT('',(8.,-8.881784197001E-16,1.73));
#835 = CARTESIAN_POINT('',(7.999999999974,-7.909456533345E-02,
    1.729999999939));
#836 = CARTESIAN_POINT('',(7.999106319911,-0.158211690443,1.725858227874
    ));
#837 = CARTESIAN_POINT('',(7.997317940203,-0.236850428959,1.717570946782
    ));
#838 = CARTESIAN_POINT('',(7.994665334178,-0.314565299894,1.705224686005
    ));
#839 = CARTESIAN_POINT('',(7.991204284929,-0.390964288858,1.6889729672)
  );
#840 = CARTESIAN_POINT('',(7.987009713408,-0.465706733254,1.669018096489
    ));
#841 = CARTESIAN_POINT('',(7.982169517796,-0.538501091467,1.645598022839
    ));
#842 = CARTESIAN_POINT('',(7.973433022248,-0.652913818716,1.602459574421
    ));
#843 = CARTESIAN_POINT('',(7.96987451614,-0.695893077347,1.58470399065)
  );
#844 = CARTESIAN_POINT('',(7.966124673454,-0.737991146362,1.565770039848
    ));
#845 = CARTESIAN_POINT('',(7.962205678485,-0.779167917691,1.545717110885
    ));
#846 = CARTESIAN_POINT('',(7.958139759099,-0.81939150265,1.524604426453)
  );
#847 = CARTESIAN_POINT('',(7.953948813674,-0.858637333839,1.502490016529
    ));
#848 = CARTESIAN_POINT('',(7.949654038034,-0.896887267038,1.479429691837
    ));
#849 = CARTESIAN_POINT('',(7.939567497002,-0.982678817304,1.424248576602
    ));
#850 = CARTESIAN_POINT('',(7.93371750686,-1.02951206009,1.391504774075)
  );
#851 = CARTESIAN_POINT('',(7.927770190702,-1.074603932601,1.357359954409
    ));
#852 = CARTESIAN_POINT('',(7.92176768825,-1.117940367245,1.321923319126)
  );
#853 = CARTESIAN_POINT('',(7.915749450839,-1.159516187744,1.285297083556
    ));
#854 = CARTESIAN_POINT('',(7.90975202204,-1.199333589174,1.247575633787)
  );
#855 = CARTESIAN_POINT('',(7.90380881829,-1.237400618012,1.208844683619)
  );
#856 = CARTESIAN_POINT('',(7.879253100161,-1.389661995805,1.042604820321
    ));
#857 = CARTESIAN_POINT('',(7.861448209401,-1.487691365488,0.906748386917
    ));
#858 = CARTESIAN_POINT('',(7.845470985838,-1.568581616149,0.763870680265
    ));
#859 = CARTESIAN_POINT('',(7.832037020014,-1.63271432743,0.615798935069)
  );
#860 = CARTESIAN_POINT('',(7.821657677134,-1.680492175477,0.464134688876
    ));
#861 = CARTESIAN_POINT('',(7.814639153289,-1.712214659355,0.310225737236
    ));
#862 = CARTESIAN_POINT('',(7.811122289087,-1.72811127678,0.155209748249)
  );
#863 = CARTESIAN_POINT('',(7.811122300983,-1.72811122301,
    -5.999999999284E-07));
#864 = PCURVE('',#147,#865);
#865 = DEFINITIONAL_REPRESENTATION('',(#866),#897);
#866 = B_SPLINE_CURVE_WITH_KNOTS('',8,(#867,#868,#869,#870,#871,#872,
    #873,#874,#875,#876,#877,#878,#879,#880,#881,#882,#883,#884,#885,
    #886,#887,#888,#889,#890,#891,#892,#893,#894,#895,#896),
  .UNSPECIFIED.,.F.,.F.,(9,7,7,7,9),(0.,0.199556848396,0.323390321614,
    0.484827033134,1.),.UNSPECIFIED.);
#867 = CARTESIAN_POINT('',(6.283185306849,1.92999999998));
#868 = CARTESIAN_POINT('',(6.273298486182,1.929999999919));
#869 = CARTESIAN_POINT('',(6.263408846343,1.925858227908));
#870 = CARTESIAN_POINT('',(6.253577531396,1.917570946793));
#871 = CARTESIAN_POINT('',(6.243858749612,1.905224685982));
#872 = CARTESIAN_POINT('',(6.23430021899,1.888972967188));
#873 = CARTESIAN_POINT('',(6.224943556091,1.869018096507));
#874 = CARTESIAN_POINT('',(6.215824608182,1.845598022839));
#875 = CARTESIAN_POINT('',(6.20148138324,1.802459574421));
#876 = CARTESIAN_POINT('',(6.196090703833,1.78470399065));
#877 = CARTESIAN_POINT('',(6.190807778627,1.765770039848));
#878 = CARTESIAN_POINT('',(6.185637606158,1.745717110885));
#879 = CARTESIAN_POINT('',(6.180584201861,1.724604426453));
#880 = CARTESIAN_POINT('',(6.175650704595,1.702490016529));
#881 = CARTESIAN_POINT('',(6.170839483159,1.679429691837));
#882 = CARTESIAN_POINT('',(6.160041676375,1.624248576602));
#883 = CARTESIAN_POINT('',(6.154142181853,1.591504774075));
#884 = CARTESIAN_POINT('',(6.148457100814,1.557359954409));
#885 = CARTESIAN_POINT('',(6.142988548974,1.521923319126));
#886 = CARTESIAN_POINT('',(6.137737587329,1.485297083556));
#887 = CARTESIAN_POINT('',(6.132704393265,1.447575633787));
#888 = CARTESIAN_POINT('',(6.127888431677,1.408844683619));
#889 = CARTESIAN_POINT('',(6.108609836658,1.242604820321));
#890 = CARTESIAN_POINT('',(6.096158121917,1.106748386917));
#891 = CARTESIAN_POINT('',(6.08585303193,0.963870680265));
#892 = CARTESIAN_POINT('',(6.077662996233,0.815798935069));
#893 = CARTESIAN_POINT('',(6.071551492395,0.664134688876));
#894 = CARTESIAN_POINT('',(6.067490295221,0.510225737236));
#895 = CARTESIAN_POINT('',(6.065455169856,0.355209748249));
#896 = CARTESIAN_POINT('',(6.06545517674,0.1999994));
#897 = ( GEOMETRIC_REPRESENTATION_CONTEXT(2) 
PARAMETRIC_REPRESENTATION_CONTEXT() REPRESENTATION_CONTEXT('2D SPACE',''
  ) );
#898 = PCURVE('',#328,#899);
#899 = DEFINITIONAL_REPRESENTATION('',(#900),#931);
#900 = B_SPLINE_CURVE_WITH_KNOTS('',8,(#901,#902,#903,#904,#905,#906,
    #907,#908,#909,#910,#911,#912,#913,#914,#915,#916,#917,#918,#919,
    #920,#921,#922,#923,#924,#925,#926,#927,#928,#929,#930),
  .UNSPECIFIED.,.F.,.F.,(9,7,7,7,9),(0.,0.199556848396,0.323390321614,
    0.484827033134,1.),.UNSPECIFIED.);
#901 = CARTESIAN_POINT('',(0.,23.));
#902 = CARTESIAN_POINT('',(4.571940192685E-02,22.999999999934));
#903 = CARTESIAN_POINT('',(9.145178743482E-02,22.999106319948));
#904 = CARTESIAN_POINT('',(0.137054427947,22.997317940221));
#905 = CARTESIAN_POINT('',(0.182416261274,22.994665334153));
#906 = CARTESIAN_POINT('',(0.227447623742,22.991204284913));
#907 = CARTESIAN_POINT('',(0.272072766635,22.987009713428));
#908 = CARTESIAN_POINT('',(0.316225156932,22.982169517796));
#909 = CARTESIAN_POINT('',(0.386913870725,22.973433022248));
#910 = CARTESIAN_POINT('',(0.413784976649,22.96987451614));
#911 = CARTESIAN_POINT('',(0.440450772492,22.966124673454));
#912 = CARTESIAN_POINT('',(0.466905839869,22.962205678485));
#913 = CARTESIAN_POINT('',(0.49314720959,22.958139759099));
#914 = CARTESIAN_POINT('',(0.51917412159,22.953948813674));
#915 = CARTESIAN_POINT('',(0.544987784861,22.949654038034));
#916 = CARTESIAN_POINT('',(0.603969196881,22.939567497002));
#917 = CARTESIAN_POINT('',(0.636987852728,22.93371750686));
#918 = CARTESIAN_POINT('',(0.669655997423,22.927770190702));
#919 = CARTESIAN_POINT('',(0.701984131421,22.92176768825));
#920 = CARTESIAN_POINT('',(0.733984474106,22.915749450839));
#921 = CARTESIAN_POINT('',(0.765671074762,22.90975202204));
#922 = CARTESIAN_POINT('',(0.797059923539,22.90380881829));
#923 = CARTESIAN_POINT('',(0.927443801255,22.879253100161));
#924 = CARTESIAN_POINT('',(1.023695611772,22.861448209401));
#925 = CARTESIAN_POINT('',(1.117746496336,22.845470985838));
#926 = CARTESIAN_POINT('',(1.210076140093,22.832037020014));
#927 = CARTESIAN_POINT('',(1.301121531657,22.821657677134));
#928 = CARTESIAN_POINT('',(1.391278873201,22.814639153289));
#929 = CARTESIAN_POINT('',(1.480981651569,22.811122289087));
#930 = CARTESIAN_POINT('',(1.570796673995,22.811122300983));
#931 = ( GEOMETRIC_REPRESENTATION_CONTEXT(2) 
PARAMETRIC_REPRESENTATION_CONTEXT() REPRESENTATION_CONTEXT('2D SPACE',''
  ) );
#932 = ADVANCED_FACE('',(#933),#502,.F.);
#933 = FACE_BOUND('',#934,.F.);
#934 = EDGE_LOOP('',(#935,#958,#959,#960));
#935 = ORIENTED_EDGE('',*,*,#936,.T.);
#936 = EDGE_CURVE('',#937,#649,#939,.T.);
#937 = VERTEX_POINT('',#938);
#938 = CARTESIAN_POINT('',(-15.,3.673940397442E-16,1.5));
#939 = SURFACE_CURVE('',#940,(#944,#951),.PCURVE_S1.);
#940 = LINE('',#941,#942);
#941 = CARTESIAN_POINT('',(-15.,3.673940397442E-16,1.5));
#942 = VECTOR('',#943,1.);
#943 = DIRECTION('',(0.99995000375,2.449171142799E-18,9.999500037497E-03
    ));
#944 = PCURVE('',#502,#945);
#945 = DEFINITIONAL_REPRESENTATION('',(#946),#950);
#946 = LINE('',#947,#948);
#947 = CARTESIAN_POINT('',(6.28318530718,-0.));
#948 = VECTOR('',#949,1.);
#949 = DIRECTION('',(0.,1.));
#950 = ( GEOMETRIC_REPRESENTATION_CONTEXT(2) 
PARAMETRIC_REPRESENTATION_CONTEXT() REPRESENTATION_CONTEXT('2D SPACE',''
  ) );
#951 = PCURVE('',#389,#952);
#952 = DEFINITIONAL_REPRESENTATION('',(#953),#957);
#953 = LINE('',#954,#955);
#954 = CARTESIAN_POINT('',(0.,-0.));
#955 = VECTOR('',#956,1.);
#956 = DIRECTION('',(0.,1.));
#957 = ( GEOMETRIC_REPRESENTATION_CONTEXT(2) 
PARAMETRIC_REPRESENTATION_CONTEXT() REPRESENTATION_CONTEXT('2D SPACE',''
  ) );
#958 = ORIENTED_EDGE('',*,*,#648,.T.);
#959 = ORIENTED_EDGE('',*,*,#482,.T.);
#960 = ORIENTED_EDGE('',*,*,#961,.T.);
#961 = EDGE_CURVE('',#457,#937,#962,.T.);
#962 = SURFACE_CURVE('',#963,(#968,#974),.PCURVE_S1.);
#963 = CIRCLE('',#964,1.5);
#964 = AXIS2_PLACEMENT_3D('',#965,#966,#967);
#965 = CARTESIAN_POINT('',(-15.,0.,0.));
#966 = DIRECTION('',(1.,0.,0.));
#967 = DIRECTION('',(-0.,0.,1.));
#968 = PCURVE('',#502,#969);
#969 = DEFINITIONAL_REPRESENTATION('',(#970),#973);
#970 = B_SPLINE_CURVE_WITH_KNOTS('',1,(#971,#972),.UNSPECIFIED.,.F.,.F.,
  (2,2),(0.,6.28318530718),.PIECEWISE_BEZIER_KNOTS.);
#971 = CARTESIAN_POINT('',(0.,0.));
#972 = CARTESIAN_POINT('',(6.28318530718,0.));
#973 = ( GEOMETRIC_REPRESENTATION_CONTEXT(2) 
PARAMETRIC_REPRESENTATION_CONTEXT() REPRESENTATION_CONTEXT('2D SPACE',''
  ) );
#974 = PCURVE('',#471,#975);
#975 = DEFINITIONAL_REPRESENTATION('',(#976),#980);
#976 = LINE('',#977,#978);
#977 = CARTESIAN_POINT('',(0.,0.2));
#978 = VECTOR('',#979,1.);
#979 = DIRECTION('',(1.,0.));
#980 = ( GEOMETRIC_REPRESENTATION_CONTEXT(2) 
PARAMETRIC_REPRESENTATION_CONTEXT() REPRESENTATION_CONTEXT('2D SPACE',''
  ) );
#981 = ADVANCED_FACE('',(#982),#471,.F.);
#982 = FACE_BOUND('',#983,.F.);
#983 = EDGE_LOOP('',(#984,#1007,#1008,#1009));
#984 = ORIENTED_EDGE('',*,*,#985,.T.);
#985 = EDGE_CURVE('',#986,#937,#988,.T.);
#986 = VERTEX_POINT('',#987);
#987 = CARTESIAN_POINT('',(-15.2,3.673940397442E-16,1.5));
#988 = SURFACE_CURVE('',#989,(#993,#1000),.PCURVE_S1.);
#989 = LINE('',#990,#991);
#990 = CARTESIAN_POINT('',(-15.2,3.673940397442E-16,1.5));
#991 = VECTOR('',#992,1.);
#992 = DIRECTION('',(1.,0.,0.));
#993 = PCURVE('',#471,#994);
#994 = DEFINITIONAL_REPRESENTATION('',(#995),#999);
#995 = LINE('',#996,#997);
#996 = CARTESIAN_POINT('',(6.28318530718,-0.));
#997 = VECTOR('',#998,1.);
#998 = DIRECTION('',(0.,1.));
#999 = ( GEOMETRIC_REPRESENTATION_CONTEXT(2) 
PARAMETRIC_REPRESENTATION_CONTEXT() REPRESENTATION_CONTEXT('2D SPACE',''
  ) );
#1000 = PCURVE('',#419,#1001);
#1001 = DEFINITIONAL_REPRESENTATION('',(#1002),#1006);
#1002 = LINE('',#1003,#1004);
#1003 = CARTESIAN_POINT('',(0.,-0.));
#1004 = VECTOR('',#1005,1.);
#1005 = DIRECTION('',(0.,1.));
#1006 = ( GEOMETRIC_REPRESENTATION_CONTEXT(2) 
PARAMETRIC_REPRESENTATION_CONTEXT() REPRESENTATION_CONTEXT('2D SPACE',''
  ) );
#1007 = ORIENTED_EDGE('',*,*,#961,.F.);
#1008 = ORIENTED_EDGE('',*,*,#456,.F.);
#1009 = ORIENTED_EDGE('',*,*,#1010,.T.);
#1010 = EDGE_CURVE('',#431,#986,#1011,.T.);
#1011 = SURFACE_CURVE('',#1012,(#1017,#1024),.PCURVE_S1.);
#1012 = CIRCLE('',#1013,1.5);
#1013 = AXIS2_PLACEMENT_3D('',#1014,#1015,#1016);
#1014 = CARTESIAN_POINT('',(-15.2,0.,0.));
#1015 = DIRECTION('',(1.,0.,0.));
#1016 = DIRECTION('',(-0.,0.,1.));
#1017 = PCURVE('',#471,#1018);
#1018 = DEFINITIONAL_REPRESENTATION('',(#1019),#1023);
#1019 = LINE('',#1020,#1021);
#1020 = CARTESIAN_POINT('',(0.,0.));
#1021 = VECTOR('',#1022,1.);
#1022 = DIRECTION('',(1.,0.));
#1023 = ( GEOMETRIC_REPRESENTATION_CONTEXT(2) 
PARAMETRIC_REPRESENTATION_CONTEXT() REPRESENTATION_CONTEXT('2D SPACE',''
  ) );
#1024 = PCURVE('',#445,#1025);
#1025 = DEFINITIONAL_REPRESENTATION('',(#1026),#1030);
#1026 = CIRCLE('',#1027,1.5);
#1027 = AXIS2_PLACEMENT_2D('',#1028,#1029);
#1028 = CARTESIAN_POINT('',(0.,0.));
#1029 = DIRECTION('',(1.,0.));
#1030 = ( GEOMETRIC_REPRESENTATION_CONTEXT(2) 
PARAMETRIC_REPRESENTATION_CONTEXT() REPRESENTATION_CONTEXT('2D SPACE',''
  ) );
#1031 = ADVANCED_FACE('',(#1032),#445,.T.);
#1032 = FACE_BOUND('',#1033,.T.);
#1033 = EDGE_LOOP('',(#1034,#1035,#1057));
#1034 = ORIENTED_EDGE('',*,*,#1010,.T.);
#1035 = ORIENTED_EDGE('',*,*,#1036,.T.);
#1036 = EDGE_CURVE('',#986,#405,#1037,.T.);
#1037 = SURFACE_CURVE('',#1038,(#1043,#1050),.PCURVE_S1.);
#1038 = CIRCLE('',#1039,1.5);
#1039 = AXIS2_PLACEMENT_3D('',#1040,#1041,#1042);
#1040 = CARTESIAN_POINT('',(-15.2,0.,0.));
#1041 = DIRECTION('',(1.,0.,0.));
#1042 = DIRECTION('',(-0.,0.,1.));
#1043 = PCURVE('',#445,#1044);
#1044 = DEFINITIONAL_REPRESENTATION('',(#1045),#1049);
#1045 = CIRCLE('',#1046,1.5);
#1046 = AXIS2_PLACEMENT_2D('',#1047,#1048);
#1047 = CARTESIAN_POINT('',(0.,0.));
#1048 = DIRECTION('',(1.,0.));
#1049 = ( GEOMETRIC_REPRESENTATION_CONTEXT(2) 
PARAMETRIC_REPRESENTATION_CONTEXT() REPRESENTATION_CONTEXT('2D SPACE',''
  ) );
#1050 = PCURVE('',#419,#1051);
#1051 = DEFINITIONAL_REPRESENTATION('',(#1052),#1056);
#1052 = LINE('',#1053,#1054);
#1053 = CARTESIAN_POINT('',(0.,0.));
#1054 = VECTOR('',#1055,1.);
#1055 = DIRECTION('',(1.,0.));
#1056 = ( GEOMETRIC_REPRESENTATION_CONTEXT(2) 
PARAMETRIC_REPRESENTATION_CONTEXT() REPRESENTATION_CONTEXT('2D SPACE',''
  ) );
#1057 = ORIENTED_EDGE('',*,*,#430,.T.);
#1058 = ADVANCED_FACE('',(#1059),#419,.F.);
#1059 = FACE_BOUND('',#1060,.F.);
#1060 = EDGE_LOOP('',(#1061,#1082,#1083,#1084));
#1061 = ORIENTED_EDGE('',*,*,#1062,.F.);
#1062 = EDGE_CURVE('',#937,#368,#1063,.T.);
#1063 = SURFACE_CURVE('',#1064,(#1069,#1076),.PCURVE_S1.);
#1064 = CIRCLE('',#1065,1.5);
#1065 = AXIS2_PLACEMENT_3D('',#1066,#1067,#1068);
#1066 = CARTESIAN_POINT('',(-15.,0.,0.));
#1067 = DIRECTION('',(1.,0.,0.));
#1068 = DIRECTION('',(-0.,0.,1.));
#1069 = PCURVE('',#419,#1070);
#1070 = DEFINITIONAL_REPRESENTATION('',(#1071),#1075);
#1071 = LINE('',#1072,#1073);
#1072 = CARTESIAN_POINT('',(0.,0.2));
#1073 = VECTOR('',#1074,1.);
#1074 = DIRECTION('',(1.,0.));
#1075 = ( GEOMETRIC_REPRESENTATION_CONTEXT(2) 
PARAMETRIC_REPRESENTATION_CONTEXT() REPRESENTATION_CONTEXT('2D SPACE',''
  ) );
#1076 = PCURVE('',#389,#1077);
#1077 = DEFINITIONAL_REPRESENTATION('',(#1078),#1081);
#1078 = B_SPLINE_CURVE_WITH_KNOTS('',1,(#1079,#1080),.UNSPECIFIED.,.F.,
  .F.,(2,2),(0.,6.28318530718),.PIECEWISE_BEZIER_KNOTS.);
#1079 = CARTESIAN_POINT('',(0.,0.));
#1080 = CARTESIAN_POINT('',(6.28318530718,0.));
#1081 = ( GEOMETRIC_REPRESENTATION_CONTEXT(2) 
PARAMETRIC_REPRESENTATION_CONTEXT() REPRESENTATION_CONTEXT('2D SPACE',''
  ) );
#1082 = ORIENTED_EDGE('',*,*,#985,.F.);
#1083 = ORIENTED_EDGE('',*,*,#1036,.T.);
#1084 = ORIENTED_EDGE('',*,*,#404,.T.);
#1085 = ADVANCED_FACE('',(#1086),#389,.F.);
#1086 = FACE_BOUND('',#1087,.F.);
#1087 = EDGE_LOOP('',(#1088,#1089,#1090,#1091));
#1088 = ORIENTED_EDGE('',*,*,#740,.T.);
#1089 = ORIENTED_EDGE('',*,*,#936,.F.);
#1090 = ORIENTED_EDGE('',*,*,#1062,.T.);
#1091 = ORIENTED_EDGE('',*,*,#367,.T.);
#1092 = ADVANCED_FACE('',(#1093),#328,.F.);
#1093 = FACE_BOUND('',#1094,.F.);
#1094 = EDGE_LOOP('',(#1095,#1118,#1139,#1140));
#1095 = ORIENTED_EDGE('',*,*,#1096,.F.);
#1096 = EDGE_CURVE('',#1097,#281,#1099,.T.);
#1097 = VERTEX_POINT('',#1098);
#1098 = CARTESIAN_POINT('',(15.,4.40872847693E-16,1.8));
#1099 = SURFACE_CURVE('',#1100,(#1105,#1112),.PCURVE_S1.);
#1100 = CIRCLE('',#1101,1.8);
#1101 = AXIS2_PLACEMENT_3D('',#1102,#1103,#1104);
#1102 = CARTESIAN_POINT('',(15.,0.,0.));
#1103 = DIRECTION('',(1.,0.,0.));
#1104 = DIRECTION('',(-0.,0.,1.));
#1105 = PCURVE('',#328,#1106);
#1106 = DEFINITIONAL_REPRESENTATION('',(#1107),#1111);
#1107 = LINE('',#1108,#1109);
#1108 = CARTESIAN_POINT('',(0.,30.));
#1109 = VECTOR('',#1110,1.);
#1110 = DIRECTION('',(1.,0.));
#1111 = ( GEOMETRIC_REPRESENTATION_CONTEXT(2) 
PARAMETRIC_REPRESENTATION_CONTEXT() REPRESENTATION_CONTEXT('2D SPACE',''
  ) );
#1112 = PCURVE('',#295,#1113);
#1113 = DEFINITIONAL_REPRESENTATION('',(#1114),#1117);
#1114 = B_SPLINE_CURVE_WITH_KNOTS('',1,(#1115,#1116),.UNSPECIFIED.,.F.,
  .F.,(2,2),(0.,6.28318530718),.PIECEWISE_BEZIER_KNOTS.);
#1115 = CARTESIAN_POINT('',(0.,0.));
#1116 = CARTESIAN_POINT('',(6.28318530718,0.));
#1117 = ( GEOMETRIC_REPRESENTATION_CONTEXT(2) 
PARAMETRIC_REPRESENTATION_CONTEXT() REPRESENTATION_CONTEXT('2D SPACE',''
  ) );
#1118 = ORIENTED_EDGE('',*,*,#1119,.F.);
#1119 = EDGE_CURVE('',#521,#1097,#1120,.T.);
#1120 = SURFACE_CURVE('',#1121,(#1125,#1132),.PCURVE_S1.);
#1121 = LINE('',#1122,#1123);
#1122 = CARTESIAN_POINT('',(-15.,3.673940397442E-16,1.5));
#1123 = VECTOR('',#1124,1.);
#1124 = DIRECTION('',(0.99995000375,2.449171142799E-18,
    9.999500037497E-03));
#1125 = PCURVE('',#328,#1126);
#1126 = DEFINITIONAL_REPRESENTATION('',(#1127),#1131);
#1127 = LINE('',#1128,#1129);
#1128 = CARTESIAN_POINT('',(0.,-0.));
#1129 = VECTOR('',#1130,1.);
#1130 = DIRECTION('',(0.,1.));
#1131 = ( GEOMETRIC_REPRESENTATION_CONTEXT(2) 
PARAMETRIC_REPRESENTATION_CONTEXT() REPRESENTATION_CONTEXT('2D SPACE',''
  ) );
#1132 = PCURVE('',#213,#1133);
#1133 = DEFINITIONAL_REPRESENTATION('',(#1134),#1138);
#1134 = LINE('',#1135,#1136);
#1135 = CARTESIAN_POINT('',(6.28318530718,-0.));
#1136 = VECTOR('',#1137,1.);
#1137 = DIRECTION('',(0.,1.));
#1138 = ( GEOMETRIC_REPRESENTATION_CONTEXT(2) 
PARAMETRIC_REPRESENTATION_CONTEXT() REPRESENTATION_CONTEXT('2D SPACE',''
  ) );
#1139 = ORIENTED_EDGE('',*,*,#831,.T.);
#1140 = ORIENTED_EDGE('',*,*,#306,.T.);
#1141 = ADVANCED_FACE('',(#1142),#295,.F.);
#1142 = FACE_BOUND('',#1143,.F.);
#1143 = EDGE_LOOP('',(#1144,#1168,#1189,#1190));
#1144 = ORIENTED_EDGE('',*,*,#1145,.F.);
#1145 = EDGE_CURVE('',#1146,#255,#1148,.T.);
#1146 = VERTEX_POINT('',#1147);
#1147 = CARTESIAN_POINT('',(15.2,4.40872847693E-16,1.8));
#1148 = SURFACE_CURVE('',#1149,(#1154,#1161),.PCURVE_S1.);
#1149 = CIRCLE('',#1150,1.8);
#1150 = AXIS2_PLACEMENT_3D('',#1151,#1152,#1153);
#1151 = CARTESIAN_POINT('',(15.2,0.,0.));
#1152 = DIRECTION('',(1.,0.,0.));
#1153 = DIRECTION('',(-0.,0.,1.));
#1154 = PCURVE('',#295,#1155);
#1155 = DEFINITIONAL_REPRESENTATION('',(#1156),#1160);
#1156 = LINE('',#1157,#1158);
#1157 = CARTESIAN_POINT('',(0.,0.2));
#1158 = VECTOR('',#1159,1.);
#1159 = DIRECTION('',(1.,0.));
#1160 = ( GEOMETRIC_REPRESENTATION_CONTEXT(2) 
PARAMETRIC_REPRESENTATION_CONTEXT() REPRESENTATION_CONTEXT('2D SPACE',''
  ) );
#1161 = PCURVE('',#269,#1162);
#1162 = DEFINITIONAL_REPRESENTATION('',(#1163),#1167);
#1163 = CIRCLE('',#1164,1.8);
#1164 = AXIS2_PLACEMENT_2D('',#1165,#1166);
#1165 = CARTESIAN_POINT('',(0.,0.));
#1166 = DIRECTION('',(1.,0.));
#1167 = ( GEOMETRIC_REPRESENTATION_CONTEXT(2) 
PARAMETRIC_REPRESENTATION_CONTEXT() REPRESENTATION_CONTEXT('2D SPACE',''
  ) );
#1168 = ORIENTED_EDGE('',*,*,#1169,.F.);
#1169 = EDGE_CURVE('',#1097,#1146,#1170,.T.);
#1170 = SURFACE_CURVE('',#1171,(#1175,#1182),.PCURVE_S1.);
#1171 = LINE('',#1172,#1173);
#1172 = CARTESIAN_POINT('',(15.,4.40872847693E-16,1.8));
#1173 = VECTOR('',#1174,1.);
#1174 = DIRECTION('',(1.,0.,0.));
#1175 = PCURVE('',#295,#1176);
#1176 = DEFINITIONAL_REPRESENTATION('',(#1177),#1181);
#1177 = LINE('',#1178,#1179);
#1178 = CARTESIAN_POINT('',(0.,-0.));
#1179 = VECTOR('',#1180,1.);
#1180 = DIRECTION('',(0.,1.));
#1181 = ( GEOMETRIC_REPRESENTATION_CONTEXT(2) 
PARAMETRIC_REPRESENTATION_CONTEXT() REPRESENTATION_CONTEXT('2D SPACE',''
  ) );
#1182 = PCURVE('',#243,#1183);
#1183 = DEFINITIONAL_REPRESENTATION('',(#1184),#1188);
#1184 = LINE('',#1185,#1186);
#1185 = CARTESIAN_POINT('',(6.28318530718,-0.));
#1186 = VECTOR('',#1187,1.);
#1187 = DIRECTION('',(0.,1.));
#1188 = ( GEOMETRIC_REPRESENTATION_CONTEXT(2) 
PARAMETRIC_REPRESENTATION_CONTEXT() REPRESENTATION_CONTEXT('2D SPACE',''
  ) );
#1189 = ORIENTED_EDGE('',*,*,#1096,.T.);
#1190 = ORIENTED_EDGE('',*,*,#280,.T.);
#1191 = ADVANCED_FACE('',(#1192),#269,.F.);
#1192 = FACE_BOUND('',#1193,.F.);
#1193 = EDGE_LOOP('',(#1194,#1216,#1217));
#1194 = ORIENTED_EDGE('',*,*,#1195,.T.);
#1195 = EDGE_CURVE('',#229,#1146,#1196,.T.);
#1196 = SURFACE_CURVE('',#1197,(#1202,#1209),.PCURVE_S1.);
#1197 = CIRCLE('',#1198,1.8);
#1198 = AXIS2_PLACEMENT_3D('',#1199,#1200,#1201);
#1199 = CARTESIAN_POINT('',(15.2,0.,0.));
#1200 = DIRECTION('',(1.,0.,0.));
#1201 = DIRECTION('',(-0.,0.,1.));
#1202 = PCURVE('',#269,#1203);
#1203 = DEFINITIONAL_REPRESENTATION('',(#1204),#1208);
#1204 = CIRCLE('',#1205,1.8);
#1205 = AXIS2_PLACEMENT_2D('',#1206,#1207);
#1206 = CARTESIAN_POINT('',(0.,0.));
#1207 = DIRECTION('',(1.,0.));
#1208 = ( GEOMETRIC_REPRESENTATION_CONTEXT(2) 
PARAMETRIC_REPRESENTATION_CONTEXT() REPRESENTATION_CONTEXT('2D SPACE',''
  ) );
#1209 = PCURVE('',#243,#1210);
#1210 = DEFINITIONAL_REPRESENTATION('',(#1211),#1215);
#1211 = LINE('',#1212,#1213);
#1212 = CARTESIAN_POINT('',(0.,0.2));
#1213 = VECTOR('',#1214,1.);
#1214 = DIRECTION('',(1.,0.));
#1215 = ( GEOMETRIC_REPRESENTATION_CONTEXT(2) 
PARAMETRIC_REPRESENTATION_CONTEXT() REPRESENTATION_CONTEXT('2D SPACE',''
  ) );
#1216 = ORIENTED_EDGE('',*,*,#1145,.T.);
#1217 = ORIENTED_EDGE('',*,*,#254,.T.);
#1218 = ADVANCED_FACE('',(#1219),#243,.F.);
#1219 = FACE_BOUND('',#1220,.F.);
#1220 = EDGE_LOOP('',(#1221,#1222,#1223,#1224));
#1221 = ORIENTED_EDGE('',*,*,#1169,.T.);
#1222 = ORIENTED_EDGE('',*,*,#1195,.F.);
#1223 = ORIENTED_EDGE('',*,*,#228,.F.);
#1224 = ORIENTED_EDGE('',*,*,#1225,.T.);
#1225 = EDGE_CURVE('',#192,#1097,#1226,.T.);
#1226 = SURFACE_CURVE('',#1227,(#1232,#1238),.PCURVE_S1.);
#1227 = CIRCLE('',#1228,1.8);
#1228 = AXIS2_PLACEMENT_3D('',#1229,#1230,#1231);
#1229 = CARTESIAN_POINT('',(15.,0.,0.));
#1230 = DIRECTION('',(1.,0.,0.));
#1231 = DIRECTION('',(-0.,0.,1.));
#1232 = PCURVE('',#243,#1233);
#1233 = DEFINITIONAL_REPRESENTATION('',(#1234),#1237);
#1234 = B_SPLINE_CURVE_WITH_KNOTS('',1,(#1235,#1236),.UNSPECIFIED.,.F.,
  .F.,(2,2),(0.,6.28318530718),.PIECEWISE_BEZIER_KNOTS.);
#1235 = CARTESIAN_POINT('',(0.,0.));
#1236 = CARTESIAN_POINT('',(6.28318530718,0.));
#1237 = ( GEOMETRIC_REPRESENTATION_CONTEXT(2) 
PARAMETRIC_REPRESENTATION_CONTEXT() REPRESENTATION_CONTEXT('2D SPACE',''
  ) );
#1238 = PCURVE('',#213,#1239);
#1239 = DEFINITIONAL_REPRESENTATION('',(#1240),#1244);
#1240 = LINE('',#1241,#1242);
#1241 = CARTESIAN_POINT('',(0.,30.));
#1242 = VECTOR('',#1243,1.);
#1243 = DIRECTION('',(1.,0.));
#1244 = ( GEOMETRIC_REPRESENTATION_CONTEXT(2) 
PARAMETRIC_REPRESENTATION_CONTEXT() REPRESENTATION_CONTEXT('2D SPACE',''
  ) );
#1245 = ADVANCED_FACE('',(#1246),#213,.F.);
#1246 = FACE_BOUND('',#1247,.F.);
#1247 = EDGE_LOOP('',(#1248,#1249,#1250,#1251));
#1248 = ORIENTED_EDGE('',*,*,#1119,.T.);
#1249 = ORIENTED_EDGE('',*,*,#1225,.F.);
#1250 = ORIENTED_EDGE('',*,*,#191,.T.);
#1251 = ORIENTED_EDGE('',*,*,#545,.T.);
#1252 = ( GEOMETRIC_REPRESENTATION_CONTEXT(3) 
GLOBAL_UNCERTAINTY_ASSIGNED_CONTEXT((#1256)) 
GLOBAL_UNIT_ASSIGNED_CONTEXT((#1253,#1254,#1255)) REPRESENTATION_CONTEXT
('Context #1','3D Context with UNIT and UNCERTAINTY') );
#1253 = ( LENGTH_UNIT() NAMED_UNIT(*) SI_UNIT(.MILLI.,.METRE.) );
#1254 = ( NAMED_UNIT(*) PLANE_ANGLE_UNIT() SI_UNIT($,.RADIAN.) );
#1255 = ( NAMED_UNIT(*) SI_UNIT($,.STERADIAN.) SOLID_ANGLE_UNIT() );
#1256 = UNCERTAINTY_MEASURE_WITH_UNIT(LENGTH_MEASURE(1.E-07),#1253,
  'distance_accuracy_value','confusion accuracy');
#1257 = CONTEXT_DEPENDENT_SHAPE_REPRESENTATION(#1258,#1260);
#1258 = ( REPRESENTATION_RELATIONSHIP('','',#32,#10) 
REPRESENTATION_RELATIONSHIP_WITH_TRANSFORMATION(#1259) 
SHAPE_REPRESENTATION_RELATIONSHIP() );
#1259 = ITEM_DEFINED_TRANSFORMATION('','',#11,#15);
#1260 = PRODUCT_DEFINITION_SHAPE('Placement','Placement of an item',
  #1261);
#1261 = NEXT_ASSEMBLY_USAGE_OCCURRENCE('17',
  'Forward_Ballast_W_STOWED_LOCAL_DEFINITION','',#5,#27,$);
#1262 = PRODUCT_RELATED_PRODUCT_CATEGORY('part',$,(#29));
#1263 = MECHANICAL_DESIGN_GEOMETRIC_PRESENTATION_REPRESENTATION('',(
    #1264),#1252);
#1264 = STYLED_ITEM('color',(#1265),#33);
#1265 = PRESENTATION_STYLE_ASSIGNMENT((#1266));
#1266 = SURFACE_STYLE_USAGE(.BOTH.,#1267);
#1267 = SURFACE_SIDE_STYLE('',(#1268));
#1268 = SURFACE_STYLE_FILL_AREA(#1269);
#1269 = FILL_AREA_STYLE('',(#1270));
#1270 = FILL_AREA_STYLE_COLOUR('',#1271);
#1271 = COLOUR_RGB('',0.199999998682,0.219999994989,0.24000000363);
ENDSEC;
END-ISO-10303-21;
