ISO-10303-21;
HEADER;
FILE_DESCRIPTION(('Open CASCADE Model'),'2;1');
FILE_NAME('Open CASCADE Shape Model','2026-08-26T03:22:16',('Author'),(
    'Open CASCADE'),'Open CASCADE STEP processor 7.9','Open CASCADE 7.9'
  ,'Unknown');
FILE_SCHEMA((
'AP242_MANAGED_MODEL_BASED_3D_ENGINEERING_MIM_LF {1 0 10303 442 1 1 4 }'
    ));
ENDSEC;
DATA;
#1 = APPLICATION_PROTOCOL_DEFINITION('international standard',
  'ap242_managed_model_based_3d_engineering',2013,#2);
#2 = APPLICATION_CONTEXT('Managed model based 3d engineering');
#3 = SHAPE_DEFINITION_REPRESENTATION(#4,#10);
#4 = PRODUCT_DEFINITION_SHAPE('','',#5);
#5 = PRODUCT_DEFINITION('design','',#6,#9);
#6 = PRODUCT_DEFINITION_FORMATION('','',#7);
#7 = PRODUCT(
'MANUAL_INFLATOR_PULL_LANYARD_WITH_MODELED_SLACK_AND_FIRED_TRAVEL_HMPE_
DEPLOYED_PART',
'MANUAL_INFLATOR_PULL_LANYARD_WITH_MODELED_SLACK_AND_FIRED_TRAVEL_HMPE_
DEPLOYED_PART','',(#8));
#8 = PRODUCT_CONTEXT('',#2,'mechanical');
#9 = PRODUCT_DEFINITION_CONTEXT('part definition',#2,'design');
#10 = SHAPE_REPRESENTATION('',(#11,#15),#19);
#11 = AXIS2_PLACEMENT_3D('',#12,#13,#14);
#12 = CARTESIAN_POINT('',(0.,0.,0.));
#13 = DIRECTION('',(0.,0.,1.));
#14 = DIRECTION('',(1.,0.,-0.));
#15 = AXIS2_PLACEMENT_3D('',#16,#17,#18);
#16 = CARTESIAN_POINT('',(0.,0.,0.));
#17 = DIRECTION('',(0.,0.,1.));
#18 = DIRECTION('',(1.,0.,-0.));
#19 = ( GEOMETRIC_REPRESENTATION_CONTEXT(3) 
GLOBAL_UNCERTAINTY_ASSIGNED_CONTEXT((#23)) GLOBAL_UNIT_ASSIGNED_CONTEXT(
(#20,#21,#22)) REPRESENTATION_CONTEXT('Context #1',
  '3D Context with UNIT and UNCERTAINTY') );
#20 = ( LENGTH_UNIT() NAMED_UNIT(*) SI_UNIT(.MILLI.,.METRE.) );
#21 = ( NAMED_UNIT(*) PLANE_ANGLE_UNIT() SI_UNIT($,.RADIAN.) );
#22 = ( NAMED_UNIT(*) SI_UNIT($,.STERADIAN.) SOLID_ANGLE_UNIT() );
#23 = UNCERTAINTY_MEASURE_WITH_UNIT(LENGTH_MEASURE(2.E-07),#20,
  'distance_accuracy_value','confusion accuracy');
#24 = PRODUCT_RELATED_PRODUCT_CATEGORY('part',$,(#7));
#25 = SHAPE_DEFINITION_REPRESENTATION(#26,#32);
#26 = PRODUCT_DEFINITION_SHAPE('','',#27);
#27 = PRODUCT_DEFINITION('design','',#28,#31);
#28 = PRODUCT_DEFINITION_FORMATION('','',#29);
#29 = PRODUCT(
'MANUAL_INFLATOR_PULL_LANYARD_WITH_MODELED_SLACK_AND_FIRED_TRAVEL_HMPE_
DEPLOYED_LOCAL_DEFINITION',
'MANUAL_INFLATOR_PULL_LANYARD_WITH_MODELED_SLACK_AND_FIRED_TRAVEL_HMPE_
DEPLOYED_LOCAL_DEFINITION','',(#30));
#30 = PRODUCT_CONTEXT('',#2,'mechanical');
#31 = PRODUCT_DEFINITION_CONTEXT('part definition',#2,'design');
#32 = ADVANCED_BREP_SHAPE_REPRESENTATION('',(#11,#33),#896);
#33 = MANIFOLD_SOLID_BREP('',#34);
#34 = CLOSED_SHELL('',(#35,#273,#355,#404,#597,#601,#625,#631,#785,#834,
    #862,#866,#890));
#35 = ADVANCED_FACE('',(#36),#51,.T.);
#36 = FACE_BOUND('',#37,.T.);
#37 = EDGE_LOOP('',(#38,#94,#135,#165,#188,#215,#216,#246));
#38 = ORIENTED_EDGE('',*,*,#39,.F.);
#39 = EDGE_CURVE('',#40,#42,#44,.T.);
#40 = VERTEX_POINT('',#41);
#41 = CARTESIAN_POINT('',(11.109601780795,0.254399491202,32.763198473605
    ));
#42 = VERTEX_POINT('',#43);
#43 = CARTESIAN_POINT('',(12.,-1.2,32.));
#44 = SURFACE_CURVE('',#45,(#50,#62),.PCURVE_S1.);
#45 = CIRCLE('',#46,1.2);
#46 = AXIS2_PLACEMENT_3D('',#47,#48,#49);
#47 = CARTESIAN_POINT('',(12.,0.,32.));
#48 = DIRECTION('',(0.650791373456,0.,0.759256602365));
#49 = DIRECTION('',(0.759256602365,0.,-0.650791373456));
#50 = PCURVE('',#51,#56);
#51 = CYLINDRICAL_SURFACE('',#52,1.2);
#52 = AXIS2_PLACEMENT_3D('',#53,#54,#55);
#53 = CARTESIAN_POINT('',(0.,0.,18.));
#54 = DIRECTION('',(0.650791373456,0.,0.759256602365));
#55 = DIRECTION('',(0.759256602365,0.,-0.650791373456));
#56 = DEFINITIONAL_REPRESENTATION('',(#57),#61);
#57 = LINE('',#58,#59);
#58 = CARTESIAN_POINT('',(0.,18.439088914586));
#59 = VECTOR('',#60,1.);
#60 = DIRECTION('',(1.,0.));
#61 = ( GEOMETRIC_REPRESENTATION_CONTEXT(2) 
PARAMETRIC_REPRESENTATION_CONTEXT() REPRESENTATION_CONTEXT('2D SPACE',''
  ) );
#62 = PCURVE('',#63,#68);
#63 = SPHERICAL_SURFACE('',#64,1.2);
#64 = AXIS2_PLACEMENT_3D('',#65,#66,#67);
#65 = CARTESIAN_POINT('',(12.,0.,32.));
#66 = DIRECTION('',(0.,0.,1.));
#67 = DIRECTION('',(1.,0.,-0.));
#68 = DEFINITIONAL_REPRESENTATION('',(#69),#93);
#69 = B_SPLINE_CURVE_WITH_KNOTS('',8,(#70,#71,#72,#73,#74,#75,#76,#77,
    #78,#79,#80,#81,#82,#83,#84,#85,#86,#87,#88,#89,#90,#91,#92),
  .UNSPECIFIED.,.F.,.F.,(9,7,7,9),(2.927972062304,3.374076291824,
    4.043232636104,4.712388980385),.UNSPECIFIED.);
#70 = CARTESIAN_POINT('',(2.863292994585,0.689302039547));
#71 = CARTESIAN_POINT('',(2.934389633177,0.699271696209));
#72 = CARTESIAN_POINT('',(3.006821540271,0.706406059296));
#73 = CARTESIAN_POINT('',(3.080210971652,0.710566601277));
#74 = CARTESIAN_POINT('',(3.154081490377,0.711658893829));
#75 = CARTESIAN_POINT('',(3.227882588211,0.709654378073));
#76 = CARTESIAN_POINT('',(3.301070461916,0.704596429343));
#77 = CARTESIAN_POINT('',(3.373186353305,0.696591765587));
#78 = CARTESIAN_POINT('',(3.549905124877,0.669582972863));
#79 = CARTESIAN_POINT('',(3.652722492272,0.647080477473));
#80 = CARTESIAN_POINT('',(3.751125639861,0.618780408899));
#81 = CARTESIAN_POINT('',(3.844432631089,0.585401386998));
#82 = CARTESIAN_POINT('',(3.932701009984,0.547730684584));
#83 = CARTESIAN_POINT('',(4.016297502813,0.506465063434));
#84 = CARTESIAN_POINT('',(4.095741816289,0.462227268391));
#85 = CARTESIAN_POINT('',(4.24748802241,0.368891627379));
#86 = CARTESIAN_POINT('',(4.319789794521,0.319793800096));
#87 = CARTESIAN_POINT('',(4.389101677414,0.268809173318));
#88 = CARTESIAN_POINT('',(4.456063804362,0.216402195622));
#89 = CARTESIAN_POINT('',(4.521292772244,0.162971047018));
#90 = CARTESIAN_POINT('',(4.585373549258,0.108870249645));
#91 = CARTESIAN_POINT('',(4.648881308833,5.443514704391E-02));
#92 = CARTESIAN_POINT('',(4.712388980385,3.552713678801E-14));
#93 = ( GEOMETRIC_REPRESENTATION_CONTEXT(2) 
PARAMETRIC_REPRESENTATION_CONTEXT() REPRESENTATION_CONTEXT('2D SPACE',''
  ) );
#94 = ORIENTED_EDGE('',*,*,#95,.F.);
#95 = EDGE_CURVE('',#96,#40,#98,.T.);
#96 = VERTEX_POINT('',#97);
#97 = CARTESIAN_POINT('',(12.880155038227,1.581345040134E-02,
    31.183098763379));
#98 = SURFACE_CURVE('',#99,(#104,#117),.PCURVE_S1.);
#99 = ELLIPSE('',#100,1.21840535456,1.2);
#100 = AXIS2_PLACEMENT_3D('',#101,#102,#103);
#101 = CARTESIAN_POINT('',(12.,0.,32.));
#102 = DIRECTION('',(0.668832471039,0.169222965911,0.723896894242));
#103 = DIRECTION('',(-4.584024357938E-02,-0.962507022096,0.267355389856)
  );
#104 = PCURVE('',#51,#105);
#105 = DEFINITIONAL_REPRESENTATION('',(#106),#116);
#106 = B_SPLINE_CURVE_WITH_KNOTS('',8,(#107,#108,#109,#110,#111,#112,
    #113,#114,#115),.UNSPECIFIED.,.F.,.F.,(9,9),(1.797595174849,
    4.712388980385),.PIECEWISE_BEZIER_KNOTS.);
#107 = CARTESIAN_POINT('',(1.317825676794E-02,18.391648563382));
#108 = CARTESIAN_POINT('',(0.37752748246,18.316747524062));
#109 = CARTESIAN_POINT('',(0.741876708152,18.24904394111));
#110 = CARTESIAN_POINT('',(1.106225933841,18.203689596106));
#111 = CARTESIAN_POINT('',(1.470575159538,18.193790270569));
#112 = CARTESIAN_POINT('',(1.834924385226,18.2240348138));
#113 = CARTESIAN_POINT('',(2.199273610919,18.285349075228));
#114 = CARTESIAN_POINT('',(2.563622836612,18.362219337304));
#115 = CARTESIAN_POINT('',(2.927972062304,18.439088914586));
#116 = ( GEOMETRIC_REPRESENTATION_CONTEXT(2) 
PARAMETRIC_REPRESENTATION_CONTEXT() REPRESENTATION_CONTEXT('2D SPACE',''
  ) );
#117 = PCURVE('',#118,#123);
#118 = CYLINDRICAL_SURFACE('',#119,1.2);
#119 = AXIS2_PLACEMENT_3D('',#120,#121,#122);
#120 = CARTESIAN_POINT('',(12.,0.,32.));
#121 = DIRECTION('',(0.666666666667,0.333333333333,0.666666666667));
#122 = DIRECTION('',(0.707106781187,0.,-0.707106781187));
#123 = DEFINITIONAL_REPRESENTATION('',(#124),#134);
#124 = B_SPLINE_CURVE_WITH_KNOTS('',8,(#125,#126,#127,#128,#129,#130,
    #131,#132,#133),.UNSPECIFIED.,.F.,.F.,(9,9),(1.797595174849,
    4.712388980385),.PIECEWISE_BEZIER_KNOTS.);
#125 = CARTESIAN_POINT('',(4.440892098501E-14,4.744035120369E-02));
#126 = CARTESIAN_POINT('',(0.364349225692,0.122341390523));
#127 = CARTESIAN_POINT('',(0.728698451382,0.190044973473));
#128 = CARTESIAN_POINT('',(1.093047677075,0.235399318476));
#129 = CARTESIAN_POINT('',(1.45739690276,0.245298644023));
#130 = CARTESIAN_POINT('',(1.82174612846,0.215054100784));
#131 = CARTESIAN_POINT('',(2.18609535415,0.153739839349));
#132 = CARTESIAN_POINT('',(2.550444579844,7.686957728131E-02));
#133 = CARTESIAN_POINT('',(2.914793805536,0.));
#134 = ( GEOMETRIC_REPRESENTATION_CONTEXT(2) 
PARAMETRIC_REPRESENTATION_CONTEXT() REPRESENTATION_CONTEXT('2D SPACE',''
  ) );
#135 = ORIENTED_EDGE('',*,*,#136,.F.);
#136 = EDGE_CURVE('',#137,#96,#139,.T.);
#137 = VERTEX_POINT('',#138);
#138 = CARTESIAN_POINT('',(12.881999852093,-2.939152317954E-16,
    31.185090935984));
#139 = SURFACE_CURVE('',#140,(#145,#155),.PCURVE_S1.);
#140 = ELLIPSE('',#141,1.21840535456,1.2);
#141 = AXIS2_PLACEMENT_3D('',#142,#143,#144);
#142 = CARTESIAN_POINT('',(12.,0.,32.));
#143 = DIRECTION('',(0.668832471039,0.169222965911,0.723896894242));
#144 = DIRECTION('',(-4.584024357938E-02,-0.962507022096,0.267355389856)
  );
#145 = PCURVE('',#51,#146);
#146 = DEFINITIONAL_REPRESENTATION('',(#147),#154);
#147 = B_SPLINE_CURVE_WITH_KNOTS('',5,(#148,#149,#150,#151,#152,#153),
  .UNSPECIFIED.,.F.,.F.,(6,6),(1.784416918081,1.797595174849),
  .PIECEWISE_BEZIER_KNOTS.);
#148 = CARTESIAN_POINT('',(-7.727152251391E-14,18.394361722535));
#149 = CARTESIAN_POINT('',(2.635651353526E-03,18.393818298226));
#150 = CARTESIAN_POINT('',(5.27130270713E-03,18.393275262297));
#151 = CARTESIAN_POINT('',(7.906954060731E-03,18.392732622613));
#152 = CARTESIAN_POINT('',(1.054260541433E-02,18.392190387028));
#153 = CARTESIAN_POINT('',(1.317825676794E-02,18.391648563382));
#154 = ( GEOMETRIC_REPRESENTATION_CONTEXT(2) 
PARAMETRIC_REPRESENTATION_CONTEXT() REPRESENTATION_CONTEXT('2D SPACE',''
  ) );
#155 = PCURVE('',#118,#156);
#156 = DEFINITIONAL_REPRESENTATION('',(#157),#164);
#157 = B_SPLINE_CURVE_WITH_KNOTS('',5,(#158,#159,#160,#161,#162,#163),
  .UNSPECIFIED.,.F.,.F.,(6,6),(1.784416918081,1.797595174849),
  .PIECEWISE_BEZIER_KNOTS.);
#158 = CARTESIAN_POINT('',(6.270007050412,4.472719205065E-02));
#159 = CARTESIAN_POINT('',(6.272642701765,4.527061636025E-02));
#160 = CARTESIAN_POINT('',(6.275278353119,4.58136522892E-02));
#161 = CARTESIAN_POINT('',(6.277914004472,4.635629197298E-02));
#162 = CARTESIAN_POINT('',(6.280549655826,4.689852755828E-02));
#163 = CARTESIAN_POINT('',(6.28318530718,4.744035120369E-02));
#164 = ( GEOMETRIC_REPRESENTATION_CONTEXT(2) 
PARAMETRIC_REPRESENTATION_CONTEXT() REPRESENTATION_CONTEXT('2D SPACE',''
  ) );
#165 = ORIENTED_EDGE('',*,*,#166,.F.);
#166 = EDGE_CURVE('',#167,#137,#169,.T.);
#167 = VERTEX_POINT('',#168);
#168 = CARTESIAN_POINT('',(0.911107922838,-2.939152317954E-16,
    17.219050351853));
#169 = SEAM_CURVE('',#170,(#174,#181),.PCURVE_S1.);
#170 = LINE('',#171,#172);
#171 = CARTESIAN_POINT('',(0.911107922838,-2.939152317954E-16,
    17.219050351853));
#172 = VECTOR('',#173,1.);
#173 = DIRECTION('',(0.650791373456,0.,0.759256602365));
#174 = PCURVE('',#51,#175);
#175 = DEFINITIONAL_REPRESENTATION('',(#176),#180);
#176 = LINE('',#177,#178);
#177 = CARTESIAN_POINT('',(6.28318530718,-0.));
#178 = VECTOR('',#179,1.);
#179 = DIRECTION('',(0.,1.));
#180 = ( GEOMETRIC_REPRESENTATION_CONTEXT(2) 
PARAMETRIC_REPRESENTATION_CONTEXT() REPRESENTATION_CONTEXT('2D SPACE',''
  ) );
#181 = PCURVE('',#51,#182);
#182 = DEFINITIONAL_REPRESENTATION('',(#183),#187);
#183 = LINE('',#184,#185);
#184 = CARTESIAN_POINT('',(0.,-0.));
#185 = VECTOR('',#186,1.);
#186 = DIRECTION('',(0.,1.));
#187 = ( GEOMETRIC_REPRESENTATION_CONTEXT(2) 
PARAMETRIC_REPRESENTATION_CONTEXT() REPRESENTATION_CONTEXT('2D SPACE',''
  ) );
#188 = ORIENTED_EDGE('',*,*,#189,.T.);
#189 = EDGE_CURVE('',#167,#167,#190,.T.);
#190 = SURFACE_CURVE('',#191,(#196,#203),.PCURVE_S1.);
#191 = CIRCLE('',#192,1.2);
#192 = AXIS2_PLACEMENT_3D('',#193,#194,#195);
#193 = CARTESIAN_POINT('',(0.,0.,18.));
#194 = DIRECTION('',(0.650791373456,0.,0.759256602365));
#195 = DIRECTION('',(0.759256602365,0.,-0.650791373456));
#196 = PCURVE('',#51,#197);
#197 = DEFINITIONAL_REPRESENTATION('',(#198),#202);
#198 = LINE('',#199,#200);
#199 = CARTESIAN_POINT('',(0.,0.));
#200 = VECTOR('',#201,1.);
#201 = DIRECTION('',(1.,0.));
#202 = ( GEOMETRIC_REPRESENTATION_CONTEXT(2) 
PARAMETRIC_REPRESENTATION_CONTEXT() REPRESENTATION_CONTEXT('2D SPACE',''
  ) );
#203 = PCURVE('',#204,#209);
#204 = PLANE('',#205);
#205 = AXIS2_PLACEMENT_3D('',#206,#207,#208);
#206 = CARTESIAN_POINT('',(0.,0.,18.));
#207 = DIRECTION('',(0.650791373456,0.,0.759256602365));
#208 = DIRECTION('',(0.759256602365,0.,-0.650791373456));
#209 = DEFINITIONAL_REPRESENTATION('',(#210),#214);
#210 = CIRCLE('',#211,1.2);
#211 = AXIS2_PLACEMENT_2D('',#212,#213);
#212 = CARTESIAN_POINT('',(0.,0.));
#213 = DIRECTION('',(1.,0.));
#214 = ( GEOMETRIC_REPRESENTATION_CONTEXT(2) 
PARAMETRIC_REPRESENTATION_CONTEXT() REPRESENTATION_CONTEXT('2D SPACE',''
  ) );
#215 = ORIENTED_EDGE('',*,*,#166,.T.);
#216 = ORIENTED_EDGE('',*,*,#217,.F.);
#217 = EDGE_CURVE('',#218,#137,#220,.T.);
#218 = VERTEX_POINT('',#219);
#219 = CARTESIAN_POINT('',(12.890398219205,-0.254399491202,
    31.236801526395));
#220 = SURFACE_CURVE('',#221,(#226,#236),.PCURVE_S1.);
#221 = ELLIPSE('',#222,1.21840535456,1.2);
#222 = AXIS2_PLACEMENT_3D('',#223,#224,#225);
#223 = CARTESIAN_POINT('',(12.,0.,32.));
#224 = DIRECTION('',(0.668832471039,0.169222965911,0.723896894242));
#225 = DIRECTION('',(-4.584024357938E-02,-0.962507022096,0.267355389856)
  );
#226 = PCURVE('',#51,#227);
#227 = DEFINITIONAL_REPRESENTATION('',(#228),#235);
#228 = B_SPLINE_CURVE_WITH_KNOTS('',5,(#229,#230,#231,#232,#233,#234),
  .UNSPECIFIED.,.F.,.F.,(6,6),(1.570796130242,1.784416918081),
  .PIECEWISE_BEZIER_KNOTS.);
#229 = CARTESIAN_POINT('',(6.069564519341,18.439088956054));
#230 = CARTESIAN_POINT('',(6.112288676909,18.430075109721));
#231 = CARTESIAN_POINT('',(6.155012834476,18.421061263236));
#232 = CARTESIAN_POINT('',(6.197736992044,18.412081694989));
#233 = CARTESIAN_POINT('',(6.240461149612,18.403170681959));
#234 = CARTESIAN_POINT('',(6.28318530718,18.394361722535));
#235 = ( GEOMETRIC_REPRESENTATION_CONTEXT(2) 
PARAMETRIC_REPRESENTATION_CONTEXT() REPRESENTATION_CONTEXT('2D SPACE',''
  ) );
#236 = PCURVE('',#118,#237);
#237 = DEFINITIONAL_REPRESENTATION('',(#238),#245);
#238 = B_SPLINE_CURVE_WITH_KNOTS('',5,(#239,#240,#241,#242,#243,#244),
  .UNSPECIFIED.,.F.,.F.,(6,6),(1.570796130242,1.784416918081),
  .PIECEWISE_BEZIER_KNOTS.);
#239 = CARTESIAN_POINT('',(6.056386262573,-4.146822973894E-08));
#240 = CARTESIAN_POINT('',(6.099110420141,9.013804864756E-03));
#241 = CARTESIAN_POINT('',(6.141834577708,1.802765135003E-02));
#242 = CARTESIAN_POINT('',(6.184558735276,2.700721959652E-02));
#243 = CARTESIAN_POINT('',(6.227282892844,3.591823262674E-02));
#244 = CARTESIAN_POINT('',(6.270007050412,4.472719205065E-02));
#245 = ( GEOMETRIC_REPRESENTATION_CONTEXT(2) 
PARAMETRIC_REPRESENTATION_CONTEXT() REPRESENTATION_CONTEXT('2D SPACE',''
  ) );
#246 = ORIENTED_EDGE('',*,*,#247,.F.);
#247 = EDGE_CURVE('',#42,#218,#248,.T.);
#248 = SURFACE_CURVE('',#249,(#254,#261),.PCURVE_S1.);
#249 = CIRCLE('',#250,1.2);
#250 = AXIS2_PLACEMENT_3D('',#251,#252,#253);
#251 = CARTESIAN_POINT('',(12.,0.,32.));
#252 = DIRECTION('',(0.650791373456,0.,0.759256602365));
#253 = DIRECTION('',(0.759256602365,0.,-0.650791373456));
#254 = PCURVE('',#51,#255);
#255 = DEFINITIONAL_REPRESENTATION('',(#256),#260);
#256 = LINE('',#257,#258);
#257 = CARTESIAN_POINT('',(0.,18.439088914586));
#258 = VECTOR('',#259,1.);
#259 = DIRECTION('',(1.,0.));
#260 = ( GEOMETRIC_REPRESENTATION_CONTEXT(2) 
PARAMETRIC_REPRESENTATION_CONTEXT() REPRESENTATION_CONTEXT('2D SPACE',''
  ) );
#261 = PCURVE('',#262,#267);
#262 = PLANE('',#263);
#263 = AXIS2_PLACEMENT_3D('',#264,#265,#266);
#264 = CARTESIAN_POINT('',(12.,0.,32.));
#265 = DIRECTION('',(0.650791373456,0.,0.759256602365));
#266 = DIRECTION('',(0.759256602365,0.,-0.650791373456));
#267 = DEFINITIONAL_REPRESENTATION('',(#268),#272);
#268 = CIRCLE('',#269,1.2);
#269 = AXIS2_PLACEMENT_2D('',#270,#271);
#270 = CARTESIAN_POINT('',(0.,0.));
#271 = DIRECTION('',(1.,0.));
#272 = ( GEOMETRIC_REPRESENTATION_CONTEXT(2) 
PARAMETRIC_REPRESENTATION_CONTEXT() REPRESENTATION_CONTEXT('2D SPACE',''
  ) );
#273 = ADVANCED_FACE('',(#274),#63,.T.);
#274 = FACE_BOUND('',#275,.T.);
#275 = EDGE_LOOP('',(#276,#277,#306));
#276 = ORIENTED_EDGE('',*,*,#39,.T.);
#277 = ORIENTED_EDGE('',*,*,#278,.T.);
#278 = EDGE_CURVE('',#42,#279,#281,.T.);
#279 = VERTEX_POINT('',#280);
#280 = CARTESIAN_POINT('',(12.5366563146,-1.0733126292,32.));
#281 = SURFACE_CURVE('',#282,(#287,#294),.PCURVE_S1.);
#282 = CIRCLE('',#283,1.2);
#283 = AXIS2_PLACEMENT_3D('',#284,#285,#286);
#284 = CARTESIAN_POINT('',(12.,0.,32.));
#285 = DIRECTION('',(0.,0.,1.));
#286 = DIRECTION('',(1.,0.,-0.));
#287 = PCURVE('',#63,#288);
#288 = DEFINITIONAL_REPRESENTATION('',(#289),#293);
#289 = LINE('',#290,#291);
#290 = CARTESIAN_POINT('',(0.,0.));
#291 = VECTOR('',#292,1.);
#292 = DIRECTION('',(1.,0.));
#293 = ( GEOMETRIC_REPRESENTATION_CONTEXT(2) 
PARAMETRIC_REPRESENTATION_CONTEXT() REPRESENTATION_CONTEXT('2D SPACE',''
  ) );
#294 = PCURVE('',#295,#300);
#295 = PLANE('',#296);
#296 = AXIS2_PLACEMENT_3D('',#297,#298,#299);
#297 = CARTESIAN_POINT('',(12.,0.,32.));
#298 = DIRECTION('',(0.,0.,1.));
#299 = DIRECTION('',(1.,0.,-0.));
#300 = DEFINITIONAL_REPRESENTATION('',(#301),#305);
#301 = CIRCLE('',#302,1.2);
#302 = AXIS2_PLACEMENT_2D('',#303,#304);
#303 = CARTESIAN_POINT('',(0.,0.));
#304 = DIRECTION('',(1.,0.));
#305 = ( GEOMETRIC_REPRESENTATION_CONTEXT(2) 
PARAMETRIC_REPRESENTATION_CONTEXT() REPRESENTATION_CONTEXT('2D SPACE',''
  ) );
#306 = ORIENTED_EDGE('',*,*,#307,.F.);
#307 = EDGE_CURVE('',#40,#279,#308,.T.);
#308 = SURFACE_CURVE('',#309,(#314,#348),.PCURVE_S1.);
#309 = CIRCLE('',#310,1.2);
#310 = AXIS2_PLACEMENT_3D('',#311,#312,#313);
#311 = CARTESIAN_POINT('',(12.,0.,32.));
#312 = DIRECTION('',(0.666666666667,0.333333333333,0.666666666667));
#313 = DIRECTION('',(0.707106781187,0.,-0.707106781187));
#314 = PCURVE('',#63,#315);
#315 = DEFINITIONAL_REPRESENTATION('',(#316),#347);
#316 = B_SPLINE_CURVE_WITH_KNOTS('',8,(#317,#318,#319,#320,#321,#322,
    #323,#324,#325,#326,#327,#328,#329,#330,#331,#332,#333,#334,#335,
    #336,#337,#338,#339,#340,#341,#342,#343,#344,#345,#346),
  .UNSPECIFIED.,.F.,.F.,(9,7,7,7,9),(2.914793805536,3.444630237847,
    3.842007562081,4.438073548431,5.034139534781),.UNSPECIFIED.);
#317 = CARTESIAN_POINT('',(2.863292994585,0.689302039547));
#318 = CARTESIAN_POINT('',(2.937436772062,0.722658912155));
#319 = CARTESIAN_POINT('',(3.016239111446,0.752932336204));
#320 = CARTESIAN_POINT('',(3.099965451556,0.779616631819));
#321 = CARTESIAN_POINT('',(3.188643182706,0.80215411252));
#322 = CARTESIAN_POINT('',(3.281978163091,0.819961499305));
#323 = CARTESIAN_POINT('',(3.378925027092,0.832502353804));
#324 = CARTESIAN_POINT('',(3.477874031284,0.839487690465));
#325 = CARTESIAN_POINT('',(3.651650554218,0.841911883762));
#326 = CARTESIAN_POINT('',(3.726323298372,0.839801405556));
#327 = CARTESIAN_POINT('',(3.800498622627,0.83452013358));
#328 = CARTESIAN_POINT('',(3.873449632272,0.826132796441));
#329 = CARTESIAN_POINT('',(3.944555855709,0.814779667303));
#330 = CARTESIAN_POINT('',(4.013377375426,0.800658305775));
#331 = CARTESIAN_POINT('',(4.079664283492,0.783997601301));
#332 = CARTESIAN_POINT('',(4.23875722868,0.736563893201));
#333 = CARTESIAN_POINT('',(4.328252813951,0.702901165003));
#334 = CARTESIAN_POINT('',(4.41139394206,0.664810569763));
#335 = CARTESIAN_POINT('',(4.48854146529,0.623092737398));
#336 = CARTESIAN_POINT('',(4.560385243229,0.57842457283));
#337 = CARTESIAN_POINT('',(4.627674009184,0.531349987241));
#338 = CARTESIAN_POINT('',(4.691096864563,0.482323981733));
#339 = CARTESIAN_POINT('',(4.811527220457,0.381121990104));
#340 = CARTESIAN_POINT('',(4.868533204053,0.328946191158));
#341 = CARTESIAN_POINT('',(4.922985781332,0.275572923359));
#342 = CARTESIAN_POINT('',(4.975480053728,0.221305442833));
#343 = CARTESIAN_POINT('',(5.026552513588,0.166396856216));
#344 = CARTESIAN_POINT('',(5.076692698703,0.111070271259));
#345 = CARTESIAN_POINT('',(5.126364423856,5.553516935644E-02));
#346 = CARTESIAN_POINT('',(5.176036589386,-8.881784197001E-15));
#347 = ( GEOMETRIC_REPRESENTATION_CONTEXT(2) 
PARAMETRIC_REPRESENTATION_CONTEXT() REPRESENTATION_CONTEXT('2D SPACE',''
  ) );
#348 = PCURVE('',#118,#349);
#349 = DEFINITIONAL_REPRESENTATION('',(#350),#354);
#350 = LINE('',#351,#352);
#351 = CARTESIAN_POINT('',(0.,0.));
#352 = VECTOR('',#353,1.);
#353 = DIRECTION('',(1.,0.));
#354 = ( GEOMETRIC_REPRESENTATION_CONTEXT(2) 
PARAMETRIC_REPRESENTATION_CONTEXT() REPRESENTATION_CONTEXT('2D SPACE',''
  ) );
#355 = ADVANCED_FACE('',(#356),#262,.T.);
#356 = FACE_BOUND('',#357,.T.);
#357 = EDGE_LOOP('',(#358,#359,#385));
#358 = ORIENTED_EDGE('',*,*,#247,.T.);
#359 = ORIENTED_EDGE('',*,*,#360,.T.);
#360 = EDGE_CURVE('',#218,#361,#363,.T.);
#361 = VERTEX_POINT('',#362);
#362 = CARTESIAN_POINT('',(12.,0.,32.));
#363 = SURFACE_CURVE('',#364,(#368,#374),.PCURVE_S1.);
#364 = LINE('',#365,#366);
#365 = CARTESIAN_POINT('',(12.,0.,32.));
#366 = VECTOR('',#367,1.);
#367 = DIRECTION('',(-0.741998516004,0.211999576001,0.635998728004));
#368 = PCURVE('',#262,#369);
#369 = DEFINITIONAL_REPRESENTATION('',(#370),#373);
#370 = B_SPLINE_CURVE_WITH_KNOTS('',1,(#371,#372),.UNSPECIFIED.,.F.,.F.,
  (2,2),(-1.227910707618,1.227910707618),.PIECEWISE_BEZIER_KNOTS.);
#371 = CARTESIAN_POINT('',(1.2,-0.260316549382));
#372 = CARTESIAN_POINT('',(-1.2,0.260316549382));
#373 = ( GEOMETRIC_REPRESENTATION_CONTEXT(2) 
PARAMETRIC_REPRESENTATION_CONTEXT() REPRESENTATION_CONTEXT('2D SPACE',''
  ) );
#374 = PCURVE('',#375,#380);
#375 = PLANE('',#376);
#376 = AXIS2_PLACEMENT_3D('',#377,#378,#379);
#377 = CARTESIAN_POINT('',(12.,0.,32.));
#378 = DIRECTION('',(0.666666666667,0.333333333333,0.666666666667));
#379 = DIRECTION('',(0.707106781187,0.,-0.707106781187));
#380 = DEFINITIONAL_REPRESENTATION('',(#381),#384);
#381 = B_SPLINE_CURVE_WITH_KNOTS('',1,(#382,#383),.UNSPECIFIED.,.F.,.F.,
  (2,2),(-1.227910707618,1.227910707618),.PIECEWISE_BEZIER_KNOTS.);
#382 = CARTESIAN_POINT('',(1.196465382602,-0.276107395985));
#383 = CARTESIAN_POINT('',(-1.196465382602,0.276107395985));
#384 = ( GEOMETRIC_REPRESENTATION_CONTEXT(2) 
PARAMETRIC_REPRESENTATION_CONTEXT() REPRESENTATION_CONTEXT('2D SPACE',''
  ) );
#385 = ORIENTED_EDGE('',*,*,#386,.T.);
#386 = EDGE_CURVE('',#361,#42,#387,.T.);
#387 = SURFACE_CURVE('',#388,(#392,#398),.PCURVE_S1.);
#388 = LINE('',#389,#390);
#389 = CARTESIAN_POINT('',(12.,0.,32.));
#390 = VECTOR('',#391,1.);
#391 = DIRECTION('',(0.,-1.,0.));
#392 = PCURVE('',#262,#393);
#393 = DEFINITIONAL_REPRESENTATION('',(#394),#397);
#394 = B_SPLINE_CURVE_WITH_KNOTS('',1,(#395,#396),.UNSPECIFIED.,.F.,.F.,
  (2,2),(-0.254399491202,1.2),.PIECEWISE_BEZIER_KNOTS.);
#395 = CARTESIAN_POINT('',(0.,0.254399491202));
#396 = CARTESIAN_POINT('',(0.,-1.2));
#397 = ( GEOMETRIC_REPRESENTATION_CONTEXT(2) 
PARAMETRIC_REPRESENTATION_CONTEXT() REPRESENTATION_CONTEXT('2D SPACE',''
  ) );
#398 = PCURVE('',#295,#399);
#399 = DEFINITIONAL_REPRESENTATION('',(#400),#403);
#400 = B_SPLINE_CURVE_WITH_KNOTS('',1,(#401,#402),.UNSPECIFIED.,.F.,.F.,
  (2,2),(-0.254399491202,1.2),.PIECEWISE_BEZIER_KNOTS.);
#401 = CARTESIAN_POINT('',(0.,0.254399491202));
#402 = CARTESIAN_POINT('',(0.,-1.2));
#403 = ( GEOMETRIC_REPRESENTATION_CONTEXT(2) 
PARAMETRIC_REPRESENTATION_CONTEXT() REPRESENTATION_CONTEXT('2D SPACE',''
  ) );
#404 = ADVANCED_FACE('',(#405),#118,.T.);
#405 = FACE_BOUND('',#406,.T.);
#406 = EDGE_LOOP('',(#407,#429,#430,#431,#454,#495,#537,#566,#594,#595,
    #596));
#407 = ORIENTED_EDGE('',*,*,#408,.T.);
#408 = EDGE_CURVE('',#279,#218,#409,.T.);
#409 = SURFACE_CURVE('',#410,(#415,#422),.PCURVE_S1.);
#410 = CIRCLE('',#411,1.2);
#411 = AXIS2_PLACEMENT_3D('',#412,#413,#414);
#412 = CARTESIAN_POINT('',(12.,0.,32.));
#413 = DIRECTION('',(0.666666666667,0.333333333333,0.666666666667));
#414 = DIRECTION('',(0.707106781187,0.,-0.707106781187));
#415 = PCURVE('',#118,#416);
#416 = DEFINITIONAL_REPRESENTATION('',(#417),#421);
#417 = LINE('',#418,#419);
#418 = CARTESIAN_POINT('',(0.,0.));
#419 = VECTOR('',#420,1.);
#420 = DIRECTION('',(1.,0.));
#421 = ( GEOMETRIC_REPRESENTATION_CONTEXT(2) 
PARAMETRIC_REPRESENTATION_CONTEXT() REPRESENTATION_CONTEXT('2D SPACE',''
  ) );
#422 = PCURVE('',#375,#423);
#423 = DEFINITIONAL_REPRESENTATION('',(#424),#428);
#424 = CIRCLE('',#425,1.2);
#425 = AXIS2_PLACEMENT_2D('',#426,#427);
#426 = CARTESIAN_POINT('',(0.,0.));
#427 = DIRECTION('',(1.,0.));
#428 = ( GEOMETRIC_REPRESENTATION_CONTEXT(2) 
PARAMETRIC_REPRESENTATION_CONTEXT() REPRESENTATION_CONTEXT('2D SPACE',''
  ) );
#429 = ORIENTED_EDGE('',*,*,#217,.T.);
#430 = ORIENTED_EDGE('',*,*,#136,.T.);
#431 = ORIENTED_EDGE('',*,*,#432,.T.);
#432 = EDGE_CURVE('',#96,#433,#435,.T.);
#433 = VERTEX_POINT('',#434);
#434 = CARTESIAN_POINT('',(28.835674939362,7.993573400969,
    47.138618664514));
#435 = SEAM_CURVE('',#436,(#440,#447),.PCURVE_S1.);
#436 = LINE('',#437,#438);
#437 = CARTESIAN_POINT('',(12.848528137424,-2.771059379954E-16,
    31.151471862576));
#438 = VECTOR('',#439,1.);
#439 = DIRECTION('',(0.666666666667,0.333333333333,0.666666666667));
#440 = PCURVE('',#118,#441);
#441 = DEFINITIONAL_REPRESENTATION('',(#442),#446);
#442 = LINE('',#443,#444);
#443 = CARTESIAN_POINT('',(0.,-0.));
#444 = VECTOR('',#445,1.);
#445 = DIRECTION('',(0.,1.));
#446 = ( GEOMETRIC_REPRESENTATION_CONTEXT(2) 
PARAMETRIC_REPRESENTATION_CONTEXT() REPRESENTATION_CONTEXT('2D SPACE',''
  ) );
#447 = PCURVE('',#118,#448);
#448 = DEFINITIONAL_REPRESENTATION('',(#449),#453);
#449 = LINE('',#450,#451);
#450 = CARTESIAN_POINT('',(6.28318530718,-0.));
#451 = VECTOR('',#452,1.);
#452 = DIRECTION('',(0.,1.));
#453 = ( GEOMETRIC_REPRESENTATION_CONTEXT(2) 
PARAMETRIC_REPRESENTATION_CONTEXT() REPRESENTATION_CONTEXT('2D SPACE',''
  ) );
#454 = ORIENTED_EDGE('',*,*,#455,.F.);
#455 = EDGE_CURVE('',#456,#433,#458,.T.);
#456 = VERTEX_POINT('',#457);
#457 = CARTESIAN_POINT('',(27.165414576286,7.947838411018,
    48.860666218205));
#458 = SURFACE_CURVE('',#459,(#464,#477),.PCURVE_S1.);
#459 = ELLIPSE('',#460,1.270775029425,1.2);
#460 = AXIS2_PLACEMENT_3D('',#461,#462,#463);
#461 = CARTESIAN_POINT('',(28.,8.,48.));
#462 = DIRECTION('',(0.717745083777,4.84852243052E-03,0.696289082598));
#463 = DIRECTION('',(-3.374375366945E-02,0.99904305493,2.78268482557E-02
    ));
#464 = PCURVE('',#118,#465);
#465 = DEFINITIONAL_REPRESENTATION('',(#466),#476);
#466 = B_SPLINE_CURVE_WITH_KNOTS('',8,(#467,#468,#469,#470,#471,#472,
    #473,#474,#475),.UNSPECIFIED.,.F.,.F.,(9,9),(1.570796326795,
    4.66626786437),.PIECEWISE_BEZIER_KNOTS.);
#467 = CARTESIAN_POINT('',(3.187713769604,24.));
#468 = CARTESIAN_POINT('',(3.574647711801,23.838194433178));
#469 = CARTESIAN_POINT('',(3.961581653997,23.676387479467));
#470 = CARTESIAN_POINT('',(4.3485155962,23.551509281227));
#471 = CARTESIAN_POINT('',(4.735449538387,23.500386537577));
#472 = CARTESIAN_POINT('',(5.122383480594,23.542600022818));
#473 = CARTESIAN_POINT('',(5.509317422785,23.660751209791));
#474 = CARTESIAN_POINT('',(5.896251364983,23.81908669853));
#475 = CARTESIAN_POINT('',(6.28318530718,23.980720202906));
#476 = ( GEOMETRIC_REPRESENTATION_CONTEXT(2) 
PARAMETRIC_REPRESENTATION_CONTEXT() REPRESENTATION_CONTEXT('2D SPACE',''
  ) );
#477 = PCURVE('',#478,#483);
#478 = CYLINDRICAL_SURFACE('',#479,1.2);
#479 = AXIS2_PLACEMENT_3D('',#480,#481,#482);
#480 = CARTESIAN_POINT('',(28.,8.,48.));
#481 = DIRECTION('',(0.688874763702,-0.324176359389,0.648352718778));
#482 = DIRECTION('',(-0.685364699005,0.,0.728199992693));
#483 = DEFINITIONAL_REPRESENTATION('',(#484),#494);
#484 = B_SPLINE_CURVE_WITH_KNOTS('',8,(#485,#486,#487,#488,#489,#490,
    #491,#492,#493),.UNSPECIFIED.,.F.,.F.,(9,9),(1.570796326795,
    4.66626786437),.PIECEWISE_BEZIER_KNOTS.);
#485 = CARTESIAN_POINT('',(4.596559696681E-02,-7.105427357601E-15));
#486 = CARTESIAN_POINT('',(0.432899539164,0.161805566822));
#487 = CARTESIAN_POINT('',(0.819833481359,0.323612520504));
#488 = CARTESIAN_POINT('',(1.206767423553,0.448490718706));
#489 = CARTESIAN_POINT('',(1.593701365755,0.499613462362));
#490 = CARTESIAN_POINT('',(1.980635307944,0.457399977092));
#491 = CARTESIAN_POINT('',(2.367569250147,0.339248790189));
#492 = CARTESIAN_POINT('',(2.754503192345,0.18091330147));
#493 = CARTESIAN_POINT('',(3.141437134542,1.927979709378E-02));
#494 = ( GEOMETRIC_REPRESENTATION_CONTEXT(2) 
PARAMETRIC_REPRESENTATION_CONTEXT() REPRESENTATION_CONTEXT('2D SPACE',''
  ) );
#495 = ORIENTED_EDGE('',*,*,#496,.F.);
#496 = EDGE_CURVE('',#497,#456,#499,.T.);
#497 = VERTEX_POINT('',#498);
#498 = CARTESIAN_POINT('',(27.4633436854,9.0733126292,48.));
#499 = SURFACE_CURVE('',#500,(#505,#512),.PCURVE_S1.);
#500 = CIRCLE('',#501,1.2);
#501 = AXIS2_PLACEMENT_3D('',#502,#503,#504);
#502 = CARTESIAN_POINT('',(28.,8.,48.));
#503 = DIRECTION('',(0.666666666667,0.333333333333,0.666666666667));
#504 = DIRECTION('',(0.707106781187,0.,-0.707106781187));
#505 = PCURVE('',#118,#506);
#506 = DEFINITIONAL_REPRESENTATION('',(#507),#511);
#507 = LINE('',#508,#509);
#508 = CARTESIAN_POINT('',(0.,24.));
#509 = VECTOR('',#510,1.);
#510 = DIRECTION('',(1.,0.));
#511 = ( GEOMETRIC_REPRESENTATION_CONTEXT(2) 
PARAMETRIC_REPRESENTATION_CONTEXT() REPRESENTATION_CONTEXT('2D SPACE',''
  ) );
#512 = PCURVE('',#513,#518);
#513 = SPHERICAL_SURFACE('',#514,1.2);
#514 = AXIS2_PLACEMENT_3D('',#515,#516,#517);
#515 = CARTESIAN_POINT('',(28.,8.,48.));
#516 = DIRECTION('',(0.,0.,1.));
#517 = DIRECTION('',(1.,0.,-0.));
#518 = DEFINITIONAL_REPRESENTATION('',(#519),#536);
#519 = B_SPLINE_CURVE_WITH_KNOTS('',8,(#520,#521,#522,#523,#524,#525,
    #526,#527,#528,#529,#530,#531,#532,#533,#534,#535),.UNSPECIFIED.,.F.
  ,.F.,(9,7,9),(1.892546881192,2.540130325398,3.187713769604),
  .UNSPECIFIED.);
#520 = CARTESIAN_POINT('',(2.034443935796,2.960594732334E-14));
#521 = CARTESIAN_POINT('',(2.088409222813,6.03350250979E-02));
#522 = CARTESIAN_POINT('',(2.142374683352,0.120670020687));
#523 = CARTESIAN_POINT('',(2.196937891848,0.180737425846));
#524 = CARTESIAN_POINT('',(2.252700640297,0.240268993447));
#525 = CARTESIAN_POINT('',(2.31029088767,0.298975145962));
#526 = CARTESIAN_POINT('',(2.370409469835,0.356520627371));
#527 = CARTESIAN_POINT('',(2.433857217833,0.412493788605));
#528 = CARTESIAN_POINT('',(2.569139046866,0.520239899262));
#529 = CARTESIAN_POINT('',(2.64097347395,0.572012750126));
#530 = CARTESIAN_POINT('',(2.717858783521,0.621159136016));
#531 = CARTESIAN_POINT('',(2.800735682811,0.667032057108));
#532 = CARTESIAN_POINT('',(2.890463958211,0.708850767565));
#533 = CARTESIAN_POINT('',(2.987906030101,0.745625370749));
#534 = CARTESIAN_POINT('',(3.092878669213,0.776243502937));
#535 = CARTESIAN_POINT('',(3.204011463586,0.79980733775));
#536 = ( GEOMETRIC_REPRESENTATION_CONTEXT(2) 
PARAMETRIC_REPRESENTATION_CONTEXT() REPRESENTATION_CONTEXT('2D SPACE',''
  ) );
#537 = ORIENTED_EDGE('',*,*,#538,.F.);
#538 = EDGE_CURVE('',#539,#497,#541,.T.);
#539 = VERTEX_POINT('',#540);
#540 = CARTESIAN_POINT('',(28.834585423714,8.052161588982,
    47.139333781795));
#541 = SURFACE_CURVE('',#542,(#547,#554),.PCURVE_S1.);
#542 = CIRCLE('',#543,1.2);
#543 = AXIS2_PLACEMENT_3D('',#544,#545,#546);
#544 = CARTESIAN_POINT('',(28.,8.,48.));
#545 = DIRECTION('',(0.666666666667,0.333333333333,0.666666666667));
#546 = DIRECTION('',(0.707106781187,0.,-0.707106781187));
#547 = PCURVE('',#118,#548);
#548 = DEFINITIONAL_REPRESENTATION('',(#549),#553);
#549 = LINE('',#550,#551);
#550 = CARTESIAN_POINT('',(0.,24.));
#551 = VECTOR('',#552,1.);
#552 = DIRECTION('',(1.,0.));
#553 = ( GEOMETRIC_REPRESENTATION_CONTEXT(2) 
PARAMETRIC_REPRESENTATION_CONTEXT() REPRESENTATION_CONTEXT('2D SPACE',''
  ) );
#554 = PCURVE('',#555,#560);
#555 = PLANE('',#556);
#556 = AXIS2_PLACEMENT_3D('',#557,#558,#559);
#557 = CARTESIAN_POINT('',(28.,8.,48.));
#558 = DIRECTION('',(0.666666666667,0.333333333333,0.666666666667));
#559 = DIRECTION('',(0.707106781187,0.,-0.707106781187));
#560 = DEFINITIONAL_REPRESENTATION('',(#561),#565);
#561 = CIRCLE('',#562,1.2);
#562 = AXIS2_PLACEMENT_2D('',#563,#564);
#563 = CARTESIAN_POINT('',(0.,0.));
#564 = DIRECTION('',(1.,0.));
#565 = ( GEOMETRIC_REPRESENTATION_CONTEXT(2) 
PARAMETRIC_REPRESENTATION_CONTEXT() REPRESENTATION_CONTEXT('2D SPACE',''
  ) );
#566 = ORIENTED_EDGE('',*,*,#567,.F.);
#567 = EDGE_CURVE('',#433,#539,#568,.T.);
#568 = SURFACE_CURVE('',#569,(#574,#584),.PCURVE_S1.);
#569 = ELLIPSE('',#570,1.270775029425,1.2);
#570 = AXIS2_PLACEMENT_3D('',#571,#572,#573);
#571 = CARTESIAN_POINT('',(28.,8.,48.));
#572 = DIRECTION('',(0.717745083777,4.84852243052E-03,0.696289082598));
#573 = DIRECTION('',(-3.374375366945E-02,0.99904305493,2.78268482557E-02
    ));
#574 = PCURVE('',#118,#575);
#575 = DEFINITIONAL_REPRESENTATION('',(#576),#583);
#576 = B_SPLINE_CURVE_WITH_KNOTS('',5,(#577,#578,#579,#580,#581,#582),
  .UNSPECIFIED.,.F.,.F.,(6,6),(4.66626786437,4.71238921324),
  .PIECEWISE_BEZIER_KNOTS.);
#577 = CARTESIAN_POINT('',(1.717144944754E-13,23.980720202906));
#578 = CARTESIAN_POINT('',(9.224269774093E-03,23.984573447314));
#579 = CARTESIAN_POINT('',(1.844853954801E-02,23.9884287423));
#580 = CARTESIAN_POINT('',(2.767280932194E-02,23.99228540482));
#581 = CARTESIAN_POINT('',(3.689707909586E-02,23.996142751102));
#582 = CARTESIAN_POINT('',(4.612134886978E-02,24.000000097374));
#583 = ( GEOMETRIC_REPRESENTATION_CONTEXT(2) 
PARAMETRIC_REPRESENTATION_CONTEXT() REPRESENTATION_CONTEXT('2D SPACE',''
  ) );
#584 = PCURVE('',#478,#585);
#585 = DEFINITIONAL_REPRESENTATION('',(#586),#593);
#586 = B_SPLINE_CURVE_WITH_KNOTS('',5,(#587,#588,#589,#590,#591,#592),
  .UNSPECIFIED.,.F.,.F.,(6,6),(4.66626786437,4.71238921324),
  .PIECEWISE_BEZIER_KNOTS.);
#587 = CARTESIAN_POINT('',(3.141437134542,1.927979709378E-02));
#588 = CARTESIAN_POINT('',(3.150661404316,1.542655268621E-02));
#589 = CARTESIAN_POINT('',(3.15988567409,1.157125769985E-02));
#590 = CARTESIAN_POINT('',(3.169109943864,7.714595179629E-03));
#591 = CARTESIAN_POINT('',(3.178334213638,3.857248897671E-03));
#592 = CARTESIAN_POINT('',(3.187558483412,-9.737393469322E-08));
#593 = ( GEOMETRIC_REPRESENTATION_CONTEXT(2) 
PARAMETRIC_REPRESENTATION_CONTEXT() REPRESENTATION_CONTEXT('2D SPACE',''
  ) );
#594 = ORIENTED_EDGE('',*,*,#432,.F.);
#595 = ORIENTED_EDGE('',*,*,#95,.T.);
#596 = ORIENTED_EDGE('',*,*,#307,.T.);
#597 = ADVANCED_FACE('',(#598),#204,.F.);
#598 = FACE_BOUND('',#599,.T.);
#599 = EDGE_LOOP('',(#600));
#600 = ORIENTED_EDGE('',*,*,#189,.F.);
#601 = ADVANCED_FACE('',(#602),#295,.F.);
#602 = FACE_BOUND('',#603,.F.);
#603 = EDGE_LOOP('',(#604,#605,#606));
#604 = ORIENTED_EDGE('',*,*,#386,.T.);
#605 = ORIENTED_EDGE('',*,*,#278,.T.);
#606 = ORIENTED_EDGE('',*,*,#607,.F.);
#607 = EDGE_CURVE('',#361,#279,#608,.T.);
#608 = SURFACE_CURVE('',#609,(#613,#619),.PCURVE_S1.);
#609 = LINE('',#610,#611);
#610 = CARTESIAN_POINT('',(12.,0.,32.));
#611 = VECTOR('',#612,1.);
#612 = DIRECTION('',(0.4472135955,-0.894427191,0.));
#613 = PCURVE('',#295,#614);
#614 = DEFINITIONAL_REPRESENTATION('',(#615),#618);
#615 = B_SPLINE_CURVE_WITH_KNOTS('',1,(#616,#617),.UNSPECIFIED.,.F.,.F.,
  (2,2),(-0.284427277884,1.264911064067),.PIECEWISE_BEZIER_KNOTS.);
#616 = CARTESIAN_POINT('',(-0.127199745601,0.254399491202));
#617 = CARTESIAN_POINT('',(0.565685424949,-1.131370849898));
#618 = ( GEOMETRIC_REPRESENTATION_CONTEXT(2) 
PARAMETRIC_REPRESENTATION_CONTEXT() REPRESENTATION_CONTEXT('2D SPACE',''
  ) );
#619 = PCURVE('',#375,#620);
#620 = DEFINITIONAL_REPRESENTATION('',(#621),#624);
#621 = B_SPLINE_CURVE_WITH_KNOTS('',1,(#622,#623),.UNSPECIFIED.,.F.,.F.,
  (2,2),(-0.284427277884,1.264911064067),.PIECEWISE_BEZIER_KNOTS.);
#622 = CARTESIAN_POINT('',(-8.99438026795E-02,0.269831408039));
#623 = CARTESIAN_POINT('',(0.4,-1.2));
#624 = ( GEOMETRIC_REPRESENTATION_CONTEXT(2) 
PARAMETRIC_REPRESENTATION_CONTEXT() REPRESENTATION_CONTEXT('2D SPACE',''
  ) );
#625 = ADVANCED_FACE('',(#626),#375,.F.);
#626 = FACE_BOUND('',#627,.F.);
#627 = EDGE_LOOP('',(#628,#629,#630));
#628 = ORIENTED_EDGE('',*,*,#408,.T.);
#629 = ORIENTED_EDGE('',*,*,#360,.T.);
#630 = ORIENTED_EDGE('',*,*,#607,.T.);
#631 = ADVANCED_FACE('',(#632),#478,.T.);
#632 = FACE_BOUND('',#633,.T.);
#633 = EDGE_LOOP('',(#634,#663,#686,#711,#712,#713,#742,#784));
#634 = ORIENTED_EDGE('',*,*,#635,.F.);
#635 = EDGE_CURVE('',#636,#636,#638,.T.);
#636 = VERTEX_POINT('',#637);
#637 = CARTESIAN_POINT('',(44.177562361194,3.777433260768E-16,
    64.873839991231));
#638 = SURFACE_CURVE('',#639,(#644,#651),.PCURVE_S1.);
#639 = CIRCLE('',#640,1.2);
#640 = AXIS2_PLACEMENT_3D('',#641,#642,#643);
#641 = CARTESIAN_POINT('',(45.,0.,64.));
#642 = DIRECTION('',(0.688874763702,-0.324176359389,0.648352718778));
#643 = DIRECTION('',(-0.685364699005,2.775557561563E-17,0.728199992693)
  );
#644 = PCURVE('',#478,#645);
#645 = DEFINITIONAL_REPRESENTATION('',(#646),#650);
#646 = LINE('',#647,#648);
#647 = CARTESIAN_POINT('',(0.,24.677925358506));
#648 = VECTOR('',#649,1.);
#649 = DIRECTION('',(1.,0.));
#650 = ( GEOMETRIC_REPRESENTATION_CONTEXT(2) 
PARAMETRIC_REPRESENTATION_CONTEXT() REPRESENTATION_CONTEXT('2D SPACE',''
  ) );
#651 = PCURVE('',#652,#657);
#652 = PLANE('',#653);
#653 = AXIS2_PLACEMENT_3D('',#654,#655,#656);
#654 = CARTESIAN_POINT('',(45.,0.,64.));
#655 = DIRECTION('',(0.688874763702,-0.324176359389,0.648352718778));
#656 = DIRECTION('',(-0.685364699005,0.,0.728199992693));
#657 = DEFINITIONAL_REPRESENTATION('',(#658),#662);
#658 = CIRCLE('',#659,1.2);
#659 = AXIS2_PLACEMENT_2D('',#660,#661);
#660 = CARTESIAN_POINT('',(0.,0.));
#661 = DIRECTION('',(1.,0.));
#662 = ( GEOMETRIC_REPRESENTATION_CONTEXT(2) 
PARAMETRIC_REPRESENTATION_CONTEXT() REPRESENTATION_CONTEXT('2D SPACE',''
  ) );
#663 = ORIENTED_EDGE('',*,*,#664,.F.);
#664 = EDGE_CURVE('',#665,#636,#667,.T.);
#665 = VERTEX_POINT('',#666);
#666 = CARTESIAN_POINT('',(27.177562361194,8.,48.873839991231));
#667 = SEAM_CURVE('',#668,(#672,#679),.PCURVE_S1.);
#668 = LINE('',#669,#670);
#669 = CARTESIAN_POINT('',(27.177562361194,8.,48.873839991231));
#670 = VECTOR('',#671,1.);
#671 = DIRECTION('',(0.688874763702,-0.324176359389,0.648352718778));
#672 = PCURVE('',#478,#673);
#673 = DEFINITIONAL_REPRESENTATION('',(#674),#678);
#674 = LINE('',#675,#676);
#675 = CARTESIAN_POINT('',(6.28318530718,-0.));
#676 = VECTOR('',#677,1.);
#677 = DIRECTION('',(0.,1.));
#678 = ( GEOMETRIC_REPRESENTATION_CONTEXT(2) 
PARAMETRIC_REPRESENTATION_CONTEXT() REPRESENTATION_CONTEXT('2D SPACE',''
  ) );
#679 = PCURVE('',#478,#680);
#680 = DEFINITIONAL_REPRESENTATION('',(#681),#685);
#681 = LINE('',#682,#683);
#682 = CARTESIAN_POINT('',(0.,-0.));
#683 = VECTOR('',#684,1.);
#684 = DIRECTION('',(0.,1.));
#685 = ( GEOMETRIC_REPRESENTATION_CONTEXT(2) 
PARAMETRIC_REPRESENTATION_CONTEXT() REPRESENTATION_CONTEXT('2D SPACE',''
  ) );
#686 = ORIENTED_EDGE('',*,*,#687,.T.);
#687 = EDGE_CURVE('',#665,#456,#688,.T.);
#688 = SURFACE_CURVE('',#689,(#694,#701),.PCURVE_S1.);
#689 = CIRCLE('',#690,1.2);
#690 = AXIS2_PLACEMENT_3D('',#691,#692,#693);
#691 = CARTESIAN_POINT('',(28.,8.,48.));
#692 = DIRECTION('',(0.688874763702,-0.324176359389,0.648352718778));
#693 = DIRECTION('',(-0.685364699005,2.775557561563E-17,0.728199992693)
  );
#694 = PCURVE('',#478,#695);
#695 = DEFINITIONAL_REPRESENTATION('',(#696),#700);
#696 = LINE('',#697,#698);
#697 = CARTESIAN_POINT('',(0.,0.));
#698 = VECTOR('',#699,1.);
#699 = DIRECTION('',(1.,0.));
#700 = ( GEOMETRIC_REPRESENTATION_CONTEXT(2) 
PARAMETRIC_REPRESENTATION_CONTEXT() REPRESENTATION_CONTEXT('2D SPACE',''
  ) );
#701 = PCURVE('',#513,#702);
#702 = DEFINITIONAL_REPRESENTATION('',(#703),#710);
#703 = B_SPLINE_CURVE_WITH_KNOTS('',5,(#704,#705,#706,#707,#708,#709),
  .UNSPECIFIED.,.F.,.F.,(6,6),(0.,4.596559696685E-02),
  .PIECEWISE_BEZIER_KNOTS.);
#704 = CARTESIAN_POINT('',(3.14159265359,0.815691923316));
#705 = CARTESIAN_POINT('',(3.154281752239,0.81271173134));
#706 = CARTESIAN_POINT('',(3.166870402345,0.809631090732));
#707 = CARTESIAN_POINT('',(3.17935614911,0.806452061494));
#708 = CARTESIAN_POINT('',(3.19173701531,0.80317676198));
#709 = CARTESIAN_POINT('',(3.204011463586,0.799807337749));
#710 = ( GEOMETRIC_REPRESENTATION_CONTEXT(2) 
PARAMETRIC_REPRESENTATION_CONTEXT() REPRESENTATION_CONTEXT('2D SPACE',''
  ) );
#711 = ORIENTED_EDGE('',*,*,#455,.T.);
#712 = ORIENTED_EDGE('',*,*,#567,.T.);
#713 = ORIENTED_EDGE('',*,*,#714,.T.);
#714 = EDGE_CURVE('',#539,#715,#717,.T.);
#715 = VERTEX_POINT('',#716);
#716 = CARTESIAN_POINT('',(28.510956443596,9.085782442641,48.));
#717 = SURFACE_CURVE('',#718,(#723,#730),.PCURVE_S1.);
#718 = CIRCLE('',#719,1.2);
#719 = AXIS2_PLACEMENT_3D('',#720,#721,#722);
#720 = CARTESIAN_POINT('',(28.,8.,48.));
#721 = DIRECTION('',(0.688874763702,-0.324176359389,0.648352718778));
#722 = DIRECTION('',(-0.685364699005,2.775557561563E-17,0.728199992693)
  );
#723 = PCURVE('',#478,#724);
#724 = DEFINITIONAL_REPRESENTATION('',(#725),#729);
#725 = LINE('',#726,#727);
#726 = CARTESIAN_POINT('',(0.,0.));
#727 = VECTOR('',#728,1.);
#728 = DIRECTION('',(1.,0.));
#729 = ( GEOMETRIC_REPRESENTATION_CONTEXT(2) 
PARAMETRIC_REPRESENTATION_CONTEXT() REPRESENTATION_CONTEXT('2D SPACE',''
  ) );
#730 = PCURVE('',#731,#736);
#731 = PLANE('',#732);
#732 = AXIS2_PLACEMENT_3D('',#733,#734,#735);
#733 = CARTESIAN_POINT('',(28.,8.,48.));
#734 = DIRECTION('',(0.688874763702,-0.324176359389,0.648352718778));
#735 = DIRECTION('',(-0.685364699005,0.,0.728199992693));
#736 = DEFINITIONAL_REPRESENTATION('',(#737),#741);
#737 = CIRCLE('',#738,1.2);
#738 = AXIS2_PLACEMENT_2D('',#739,#740);
#739 = CARTESIAN_POINT('',(0.,0.));
#740 = DIRECTION('',(1.,0.));
#741 = ( GEOMETRIC_REPRESENTATION_CONTEXT(2) 
PARAMETRIC_REPRESENTATION_CONTEXT() REPRESENTATION_CONTEXT('2D SPACE',''
  ) );
#742 = ORIENTED_EDGE('',*,*,#743,.T.);
#743 = EDGE_CURVE('',#715,#665,#744,.T.);
#744 = SURFACE_CURVE('',#745,(#750,#757),.PCURVE_S1.);
#745 = CIRCLE('',#746,1.2);
#746 = AXIS2_PLACEMENT_3D('',#747,#748,#749);
#747 = CARTESIAN_POINT('',(28.,8.,48.));
#748 = DIRECTION('',(0.688874763702,-0.324176359389,0.648352718778));
#749 = DIRECTION('',(-0.685364699005,2.775557561563E-17,0.728199992693)
  );
#750 = PCURVE('',#478,#751);
#751 = DEFINITIONAL_REPRESENTATION('',(#752),#756);
#752 = LINE('',#753,#754);
#753 = CARTESIAN_POINT('',(0.,0.));
#754 = VECTOR('',#755,1.);
#755 = DIRECTION('',(1.,0.));
#756 = ( GEOMETRIC_REPRESENTATION_CONTEXT(2) 
PARAMETRIC_REPRESENTATION_CONTEXT() REPRESENTATION_CONTEXT('2D SPACE',''
  ) );
#757 = PCURVE('',#513,#758);
#758 = DEFINITIONAL_REPRESENTATION('',(#759),#783);
#759 = B_SPLINE_CURVE_WITH_KNOTS('',8,(#760,#761,#762,#763,#764,#765,
    #766,#767,#768,#769,#770,#771,#772,#773,#774,#775,#776,#777,#778,
    #779,#780,#781,#782),.UNSPECIFIED.,.F.,.F.,(9,7,7,9),(4.416253327371
    ,5.349719317276,5.816452312228,6.28318530718),.UNSPECIFIED.);
#760 = CARTESIAN_POINT('',(1.130953743979,3.5527136788E-14));
#761 = CARTESIAN_POINT('',(1.206605645534,8.883563658322E-02));
#762 = CARTESIAN_POINT('',(1.282256692708,0.177671686044));
#763 = CARTESIAN_POINT('',(1.359734101816,0.265729832452));
#764 = CARTESIAN_POINT('',(1.440824615439,0.352249637232));
#765 = CARTESIAN_POINT('',(1.527672169361,0.436278280201));
#766 = CARTESIAN_POINT('',(1.622605377665,0.516679255082));
#767 = CARTESIAN_POINT('',(1.729240287024,0.591601182928));
#768 = CARTESIAN_POINT('',(1.910629637329,0.691851032292));
#769 = CARTESIAN_POINT('',(1.9746648807,0.72324578956));
#770 = CARTESIAN_POINT('',(2.042598892206,0.752292008973));
#771 = CARTESIAN_POINT('',(2.114677954973,0.778621630168));
#772 = CARTESIAN_POINT('',(2.19103793586,0.80181675384));
#773 = CARTESIAN_POINT('',(2.271514572062,0.821439364378));
#774 = CARTESIAN_POINT('',(2.355499057776,0.8370914581));
#775 = CARTESIAN_POINT('',(2.528588715366,0.859904147548));
#776 = CARTESIAN_POINT('',(2.617693420021,0.867064104127));
#777 = CARTESIAN_POINT('',(2.708417803177,0.869703831419));
#778 = CARTESIAN_POINT('',(2.799475215651,0.867654402308));
#779 = CARTESIAN_POINT('',(2.889377141342,0.860950563832));
#780 = CARTESIAN_POINT('',(2.97683668658,0.84981877503));
#781 = CARTESIAN_POINT('',(3.061064750567,0.834604898705));
#782 = CARTESIAN_POINT('',(3.14159265359,0.815691923316));
#783 = ( GEOMETRIC_REPRESENTATION_CONTEXT(2) 
PARAMETRIC_REPRESENTATION_CONTEXT() REPRESENTATION_CONTEXT('2D SPACE',''
  ) );
#784 = ORIENTED_EDGE('',*,*,#664,.T.);
#785 = ADVANCED_FACE('',(#786),#555,.T.);
#786 = FACE_BOUND('',#787,.T.);
#787 = EDGE_LOOP('',(#788,#814,#833));
#788 = ORIENTED_EDGE('',*,*,#789,.T.);
#789 = EDGE_CURVE('',#497,#790,#792,.T.);
#790 = VERTEX_POINT('',#791);
#791 = CARTESIAN_POINT('',(28.,8.,48.));
#792 = SURFACE_CURVE('',#793,(#797,#803),.PCURVE_S1.);
#793 = LINE('',#794,#795);
#794 = CARTESIAN_POINT('',(28.,8.,48.));
#795 = VECTOR('',#796,1.);
#796 = DIRECTION('',(0.4472135955,-0.894427191,0.));
#797 = PCURVE('',#555,#798);
#798 = DEFINITIONAL_REPRESENTATION('',(#799),#802);
#799 = B_SPLINE_CURVE_WITH_KNOTS('',1,(#800,#801),.UNSPECIFIED.,.F.,.F.,
  (2,2),(-1.264911064067,5.831842938926E-02),.PIECEWISE_BEZIER_KNOTS.);
#800 = CARTESIAN_POINT('',(-0.4,1.2));
#801 = CARTESIAN_POINT('',(1.844190664338E-02,-5.532571993013E-02));
#802 = ( GEOMETRIC_REPRESENTATION_CONTEXT(2) 
PARAMETRIC_REPRESENTATION_CONTEXT() REPRESENTATION_CONTEXT('2D SPACE',''
  ) );
#803 = PCURVE('',#804,#809);
#804 = PLANE('',#805);
#805 = AXIS2_PLACEMENT_3D('',#806,#807,#808);
#806 = CARTESIAN_POINT('',(28.,8.,48.));
#807 = DIRECTION('',(0.,0.,1.));
#808 = DIRECTION('',(1.,0.,-0.));
#809 = DEFINITIONAL_REPRESENTATION('',(#810),#813);
#810 = B_SPLINE_CURVE_WITH_KNOTS('',1,(#811,#812),.UNSPECIFIED.,.F.,.F.,
  (2,2),(-1.264911064067,5.831842938926E-02),.PIECEWISE_BEZIER_KNOTS.);
#811 = CARTESIAN_POINT('',(-0.565685424949,1.131370849898));
#812 = CARTESIAN_POINT('',(2.608079449108E-02,-5.216158898216E-02));
#813 = ( GEOMETRIC_REPRESENTATION_CONTEXT(2) 
PARAMETRIC_REPRESENTATION_CONTEXT() REPRESENTATION_CONTEXT('2D SPACE',''
  ) );
#814 = ORIENTED_EDGE('',*,*,#815,.T.);
#815 = EDGE_CURVE('',#790,#539,#816,.T.);
#816 = SURFACE_CURVE('',#817,(#821,#827),.PCURVE_S1.);
#817 = LINE('',#818,#819);
#818 = CARTESIAN_POINT('',(28.,8.,48.));
#819 = VECTOR('',#820,1.);
#820 = DIRECTION('',(0.695487853095,4.346799081843E-02,-0.717221848504)
  );
#821 = PCURVE('',#555,#822);
#822 = DEFINITIONAL_REPRESENTATION('',(#823),#826);
#823 = B_SPLINE_CURVE_WITH_KNOTS('',1,(#824,#825),.UNSPECIFIED.,.F.,.F.,
  (2,2),(-1.201268818642,1.201268818642),.PIECEWISE_BEZIER_KNOTS.);
#824 = CARTESIAN_POINT('',(-1.199991401211,-5.538421851742E-02));
#825 = CARTESIAN_POINT('',(1.199991401211,5.538421851742E-02));
#826 = ( GEOMETRIC_REPRESENTATION_CONTEXT(2) 
PARAMETRIC_REPRESENTATION_CONTEXT() REPRESENTATION_CONTEXT('2D SPACE',''
  ) );
#827 = PCURVE('',#731,#828);
#828 = DEFINITIONAL_REPRESENTATION('',(#829),#832);
#829 = B_SPLINE_CURVE_WITH_KNOTS('',1,(#830,#831),.UNSPECIFIED.,.F.,.F.,
  (2,2),(-1.201268818642,1.201268818642),.PIECEWISE_BEZIER_KNOTS.);
#830 = CARTESIAN_POINT('',(1.2,5.519759632844E-02));
#831 = CARTESIAN_POINT('',(-1.2,-5.519759632844E-02));
#832 = ( GEOMETRIC_REPRESENTATION_CONTEXT(2) 
PARAMETRIC_REPRESENTATION_CONTEXT() REPRESENTATION_CONTEXT('2D SPACE',''
  ) );
#833 = ORIENTED_EDGE('',*,*,#538,.T.);
#834 = ADVANCED_FACE('',(#835),#513,.T.);
#835 = FACE_BOUND('',#836,.T.);
#836 = EDGE_LOOP('',(#837,#838,#860,#861));
#837 = ORIENTED_EDGE('',*,*,#743,.F.);
#838 = ORIENTED_EDGE('',*,*,#839,.T.);
#839 = EDGE_CURVE('',#715,#497,#840,.T.);
#840 = SURFACE_CURVE('',#841,(#846,#853),.PCURVE_S1.);
#841 = CIRCLE('',#842,1.2);
#842 = AXIS2_PLACEMENT_3D('',#843,#844,#845);
#843 = CARTESIAN_POINT('',(28.,8.,48.));
#844 = DIRECTION('',(0.,0.,1.));
#845 = DIRECTION('',(1.,0.,-0.));
#846 = PCURVE('',#513,#847);
#847 = DEFINITIONAL_REPRESENTATION('',(#848),#852);
#848 = LINE('',#849,#850);
#849 = CARTESIAN_POINT('',(0.,0.));
#850 = VECTOR('',#851,1.);
#851 = DIRECTION('',(1.,0.));
#852 = ( GEOMETRIC_REPRESENTATION_CONTEXT(2) 
PARAMETRIC_REPRESENTATION_CONTEXT() REPRESENTATION_CONTEXT('2D SPACE',''
  ) );
#853 = PCURVE('',#804,#854);
#854 = DEFINITIONAL_REPRESENTATION('',(#855),#859);
#855 = CIRCLE('',#856,1.2);
#856 = AXIS2_PLACEMENT_2D('',#857,#858);
#857 = CARTESIAN_POINT('',(0.,0.));
#858 = DIRECTION('',(1.,0.));
#859 = ( GEOMETRIC_REPRESENTATION_CONTEXT(2) 
PARAMETRIC_REPRESENTATION_CONTEXT() REPRESENTATION_CONTEXT('2D SPACE',''
  ) );
#860 = ORIENTED_EDGE('',*,*,#496,.T.);
#861 = ORIENTED_EDGE('',*,*,#687,.F.);
#862 = ADVANCED_FACE('',(#863),#652,.T.);
#863 = FACE_BOUND('',#864,.T.);
#864 = EDGE_LOOP('',(#865));
#865 = ORIENTED_EDGE('',*,*,#635,.T.);
#866 = ADVANCED_FACE('',(#867),#731,.F.);
#867 = FACE_BOUND('',#868,.F.);
#868 = EDGE_LOOP('',(#869,#870,#871));
#869 = ORIENTED_EDGE('',*,*,#815,.T.);
#870 = ORIENTED_EDGE('',*,*,#714,.T.);
#871 = ORIENTED_EDGE('',*,*,#872,.T.);
#872 = EDGE_CURVE('',#715,#790,#873,.T.);
#873 = SURFACE_CURVE('',#874,(#878,#884),.PCURVE_S1.);
#874 = LINE('',#875,#876);
#875 = CARTESIAN_POINT('',(28.,8.,48.));
#876 = VECTOR('',#877,1.);
#877 = DIRECTION('',(-0.42579703633,-0.904818702201,0.));
#878 = PCURVE('',#731,#879);
#879 = DEFINITIONAL_REPRESENTATION('',(#880),#883);
#880 = B_SPLINE_CURVE_WITH_KNOTS('',1,(#881,#882),.UNSPECIFIED.,.F.,.F.,
  (2,2),(-1.254611552411,5.764866359999E-02),.PIECEWISE_BEZIER_KNOTS.);
#881 = CARTESIAN_POINT('',(-0.366128594134,-1.2));
#882 = CARTESIAN_POINT('',(1.682339375641E-02,5.513929485749E-02));
#883 = ( GEOMETRIC_REPRESENTATION_CONTEXT(2) 
PARAMETRIC_REPRESENTATION_CONTEXT() REPRESENTATION_CONTEXT('2D SPACE',''
  ) );
#884 = PCURVE('',#804,#885);
#885 = DEFINITIONAL_REPRESENTATION('',(#886),#889);
#886 = B_SPLINE_CURVE_WITH_KNOTS('',1,(#887,#888),.UNSPECIFIED.,.F.,.F.,
  (2,2),(-1.254611552411,5.764866359999E-02),.PIECEWISE_BEZIER_KNOTS.);
#887 = CARTESIAN_POINT('',(0.534209880762,1.135195996619));
#888 = CARTESIAN_POINT('',(-2.454663010925E-02,-5.216158898216E-02));
#889 = ( GEOMETRIC_REPRESENTATION_CONTEXT(2) 
PARAMETRIC_REPRESENTATION_CONTEXT() REPRESENTATION_CONTEXT('2D SPACE',''
  ) );
#890 = ADVANCED_FACE('',(#891),#804,.F.);
#891 = FACE_BOUND('',#892,.F.);
#892 = EDGE_LOOP('',(#893,#894,#895));
#893 = ORIENTED_EDGE('',*,*,#872,.F.);
#894 = ORIENTED_EDGE('',*,*,#839,.T.);
#895 = ORIENTED_EDGE('',*,*,#789,.T.);
#896 = ( GEOMETRIC_REPRESENTATION_CONTEXT(3) 
GLOBAL_UNCERTAINTY_ASSIGNED_CONTEXT((#900)) GLOBAL_UNIT_ASSIGNED_CONTEXT
((#897,#898,#899)) REPRESENTATION_CONTEXT('Context #1',
  '3D Context with UNIT and UNCERTAINTY') );
#897 = ( LENGTH_UNIT() NAMED_UNIT(*) SI_UNIT(.MILLI.,.METRE.) );
#898 = ( NAMED_UNIT(*) PLANE_ANGLE_UNIT() SI_UNIT($,.RADIAN.) );
#899 = ( NAMED_UNIT(*) SI_UNIT($,.STERADIAN.) SOLID_ANGLE_UNIT() );
#900 = UNCERTAINTY_MEASURE_WITH_UNIT(LENGTH_MEASURE(2.E-07),#897,
  'distance_accuracy_value','confusion accuracy');
#901 = CONTEXT_DEPENDENT_SHAPE_REPRESENTATION(#902,#904);
#902 = ( REPRESENTATION_RELATIONSHIP('','',#32,#10) 
REPRESENTATION_RELATIONSHIP_WITH_TRANSFORMATION(#903) 
SHAPE_REPRESENTATION_RELATIONSHIP() );
#903 = ITEM_DEFINED_TRANSFORMATION('','',#11,#15);
#904 = PRODUCT_DEFINITION_SHAPE('Placement','Placement of an item',#905
  );
#905 = NEXT_ASSEMBLY_USAGE_OCCURRENCE('82',
'MANUAL_INFLATOR_PULL_LANYARD_WITH_MODELED_SLACK_AND_FIRED_TRAVEL_HMPE_
DEPLOYED_LOCAL_DEFINITION','',#5,#27,$);
#906 = PRODUCT_RELATED_PRODUCT_CATEGORY('part',$,(#29));
#907 = MECHANICAL_DESIGN_GEOMETRIC_PRESENTATION_REPRESENTATION('',(#908)
  ,#896);
#908 = STYLED_ITEM('color',(#909),#33);
#909 = PRESENTATION_STYLE_ASSIGNMENT((#910));
#910 = SURFACE_STYLE_USAGE(.BOTH.,#911);
#911 = SURFACE_SIDE_STYLE('',(#912));
#912 = SURFACE_STYLE_FILL_AREA(#913);
#913 = FILL_AREA_STYLE('',(#914));
#914 = FILL_AREA_STYLE_COLOUR('',#915);
#915 = COLOUR_RGB('',0.1599999992,0.250000000672,0.339999993741);
ENDSEC;
END-ISO-10303-21;
