ISO-10303-21;
HEADER;
FILE_DESCRIPTION(('Open CASCADE Model'),'2;1');
FILE_NAME('Open CASCADE Shape Model','2026-08-26T03:21:46',('Author'),(
    'Open CASCADE'),'Open CASCADE STEP processor 7.9','Open CASCADE 7.9'
  ,'Unknown');
FILE_SCHEMA((
'AP242_MANAGED_MODEL_BASED_3D_ENGINEERING_MIM_LF {1 0 10303 442 1 1 4 }'
    ));
ENDSEC;
DATA;
#1 = APPLICATION_PROTOCOL_DEFINITION('international standard',
  'ap242_managed_model_based_3d_engineering',2013,#2);
#2 = APPLICATION_CONTEXT('Managed model based 3d engineering');
#3 = SHAPE_DEFINITION_REPRESENTATION(#4,#10);
#4 = PRODUCT_DEFINITION_SHAPE('','',#5);
#5 = PRODUCT_DEFINITION('design','',#6,#9);
#6 = PRODUCT_DEFINITION_FORMATION('','',#7);
#7 = PRODUCT(
'BACKUP_SPRING_AFT_FIXED_SEAT_WITH_LONGERON_MOUNTING_TONGUE_TI_STOWED_
PART',
'BACKUP_SPRING_AFT_FIXED_SEAT_WITH_LONGERON_MOUNTING_TONGUE_TI_STOWED_
PART','',(#8));
#8 = PRODUCT_CONTEXT('',#2,'mechanical');
#9 = PRODUCT_DEFINITION_CONTEXT('part definition',#2,'design');
#10 = SHAPE_REPRESENTATION('',(#11,#15),#19);
#11 = AXIS2_PLACEMENT_3D('',#12,#13,#14);
#12 = CARTESIAN_POINT('',(0.,0.,0.));
#13 = DIRECTION('',(0.,0.,1.));
#14 = DIRECTION('',(1.,0.,-0.));
#15 = AXIS2_PLACEMENT_3D('',#16,#17,#18);
#16 = CARTESIAN_POINT('',(0.,0.,0.));
#17 = DIRECTION('',(0.,0.,1.));
#18 = DIRECTION('',(1.,0.,-0.));
#19 = ( GEOMETRIC_REPRESENTATION_CONTEXT(3) 
GLOBAL_UNCERTAINTY_ASSIGNED_CONTEXT((#23)) GLOBAL_UNIT_ASSIGNED_CONTEXT(
(#20,#21,#22)) REPRESENTATION_CONTEXT('Context #1',
  '3D Context with UNIT and UNCERTAINTY') );
#20 = ( LENGTH_UNIT() NAMED_UNIT(*) SI_UNIT(.MILLI.,.METRE.) );
#21 = ( NAMED_UNIT(*) PLANE_ANGLE_UNIT() SI_UNIT($,.RADIAN.) );
#22 = ( NAMED_UNIT(*) SI_UNIT($,.STERADIAN.) SOLID_ANGLE_UNIT() );
#23 = UNCERTAINTY_MEASURE_WITH_UNIT(LENGTH_MEASURE(1.E-07),#20,
  'distance_accuracy_value','confusion accuracy');
#24 = PRODUCT_RELATED_PRODUCT_CATEGORY('part',$,(#7));
#25 = SHAPE_DEFINITION_REPRESENTATION(#26,#32);
#26 = PRODUCT_DEFINITION_SHAPE('','',#27);
#27 = PRODUCT_DEFINITION('design','',#28,#31);
#28 = PRODUCT_DEFINITION_FORMATION('','',#29);
#29 = PRODUCT(
'BACKUP_SPRING_AFT_FIXED_SEAT_WITH_LONGERON_MOUNTING_TONGUE_TI_STOWED_
LOCAL_DEFINITION',
'BACKUP_SPRING_AFT_FIXED_SEAT_WITH_LONGERON_MOUNTING_TONGUE_TI_STOWED_
LOCAL_DEFINITION','',(#30));
#30 = PRODUCT_CONTEXT('',#2,'mechanical');
#31 = PRODUCT_DEFINITION_CONTEXT('part definition',#2,'design');
#32 = ADVANCED_BREP_SHAPE_REPRESENTATION('',(#11,#33),#1273);
#33 = MANIFOLD_SOLID_BREP('',#34);
#34 = CLOSED_SHELL('',(#35,#520,#960,#1045,#1105,#1135,#1165,#1216,#1266
    ));
#35 = ADVANCED_FACE('',(#36),#73,.T.);
#36 = FACE_BOUND('',#37,.T.);
#37 = EDGE_LOOP('',(#38,#142,#168,#208,#235,#270,#291,#383,#404,#439,
    #466,#501));
#38 = ORIENTED_EDGE('',*,*,#39,.F.);
#39 = EDGE_CURVE('',#40,#42,#44,.T.);
#40 = VERTEX_POINT('',#41);
#41 = CARTESIAN_POINT('',(8.45,-0.920597704407,1.369306329567));
#42 = VERTEX_POINT('',#43);
#43 = CARTESIAN_POINT('',(8.45,-0.920597709398,-1.369306325445));
#44 = SURFACE_CURVE('',#45,(#72,#107),.PCURVE_S1.);
#45 = B_SPLINE_CURVE_WITH_KNOTS('',7,(#46,#47,#48,#49,#50,#51,#52,#53,
    #54,#55,#56,#57,#58,#59,#60,#61,#62,#63,#64,#65,#66,#67,#68,#69,#70,
    #71),.UNSPECIFIED.,.F.,.F.,(8,6,6,6,8),(0.,0.247640580881,
    0.500037670655,0.752444501309,1.),.UNSPECIFIED.);
#46 = CARTESIAN_POINT('',(8.5,-8.881784197001E-16,1.65));
#47 = CARTESIAN_POINT('',(8.5,-0.217550356661,1.65));
#48 = CARTESIAN_POINT('',(8.493503730209,-0.429703155314,1.616535948766)
  );
#49 = CARTESIAN_POINT('',(8.481093235319,-0.630482383044,1.552594667126)
  );
#50 = CARTESIAN_POINT('',(8.464359891462,-0.814836595556,1.462300933034)
  );
#51 = CARTESIAN_POINT('',(8.445542634085,-0.978810935526,1.350898254714)
  );
#52 = CARTESIAN_POINT('',(8.426738799044,-1.119928465476,1.224731179526)
  );
#53 = CARTESIAN_POINT('',(8.391743989847,-1.357699816997,0.955032521193)
  );
#54 = CARTESIAN_POINT('',(8.375177585282,-1.456388030144,0.807878355494)
  );
#55 = CARTESIAN_POINT('',(8.360905469584,-1.534369639292,0.653070204315)
  );
#56 = CARTESIAN_POINT('',(8.349729937195,-1.59231560706,0.49307479572));
#57 = CARTESIAN_POINT('',(8.342122693984,-1.630758536604,0.329829315606)
  );
#58 = CARTESIAN_POINT('',(8.33831517754,-1.65,0.164964460677));
#59 = CARTESIAN_POINT('',(8.33831517754,-1.65,-0.164970827228));
#60 = CARTESIAN_POINT('',(8.342122980591,-1.630757075681,-0.329834394238
    ));
#61 = CARTESIAN_POINT('',(8.349730200216,-1.592314312839,-0.493076196001
    ));
#62 = CARTESIAN_POINT('',(8.360905388234,-1.534369778961,-0.653069029043
    ));
#63 = CARTESIAN_POINT('',(8.375177429598,-1.456389067891,-0.807877089189
    ));
#64 = CARTESIAN_POINT('',(8.391743974207,-1.357699923265,-0.955032400656
    ));
#65 = CARTESIAN_POINT('',(8.426732191356,-1.119973361247,-1.22468025527)
  );
#66 = CARTESIAN_POINT('',(8.445537360494,-0.978856881934,-1.350872011411
    ));
#67 = CARTESIAN_POINT('',(8.464361727548,-0.814840475195,-1.462317811571
    ));
#68 = CARTESIAN_POINT('',(8.481101090976,-0.63042227618,-1.552635288033)
  );
#69 = CARTESIAN_POINT('',(8.493509674546,-0.429594385277,-1.616566479253
    ));
#70 = CARTESIAN_POINT('',(8.5,-0.217451000477,-1.65));
#71 = CARTESIAN_POINT('',(8.5,-4.440892098501E-16,-1.65));
#72 = PCURVE('',#73,#78);
#73 = CYLINDRICAL_SURFACE('',#74,8.5);
#74 = AXIS2_PLACEMENT_3D('',#75,#76,#77);
#75 = CARTESIAN_POINT('',(0.,0.,-2.5));
#76 = DIRECTION('',(0.,0.,1.));
#77 = DIRECTION('',(1.,0.,-0.));
#78 = DEFINITIONAL_REPRESENTATION('',(#79),#106);
#79 = B_SPLINE_CURVE_WITH_KNOTS('',7,(#80,#81,#82,#83,#84,#85,#86,#87,
    #88,#89,#90,#91,#92,#93,#94,#95,#96,#97,#98,#99,#100,#101,#102,#103,
    #104,#105),.UNSPECIFIED.,.F.,.F.,(8,6,6,6,8),(0.,0.247640580881,
    0.500037670655,0.752444501309,1.),.UNSPECIFIED.);
#80 = CARTESIAN_POINT('',(6.28318530718,4.15));
#81 = CARTESIAN_POINT('',(6.257591147572,4.15));
#82 = CARTESIAN_POINT('',(6.232631965281,4.116535948766));
#83 = CARTESIAN_POINT('',(6.208983657951,4.052594667126));
#84 = CARTESIAN_POINT('',(6.187218419091,3.962300933034));
#85 = CARTESIAN_POINT('',(6.167805958071,3.850898254714));
#86 = CARTESIAN_POINT('',(6.151058743265,3.724731179526));
#87 = CARTESIAN_POINT('',(6.122784296813,3.455032521193));
#88 = CARTESIAN_POINT('',(6.111013869198,3.307878355494));
#89 = CARTESIAN_POINT('',(6.101688103237,3.153070204315));
#90 = CARTESIAN_POINT('',(6.094745394569,2.99307479572));
#91 = CARTESIAN_POINT('',(6.090134994836,2.829829315606));
#92 = CARTESIAN_POINT('',(6.08782739948,2.664964460677));
#93 = CARTESIAN_POINT('',(6.08782739948,2.335029172772));
#94 = CARTESIAN_POINT('',(6.090135169996,2.170165605762));
#95 = CARTESIAN_POINT('',(6.09474554989,2.006923803999));
#96 = CARTESIAN_POINT('',(6.101688085375,1.846930970957));
#97 = CARTESIAN_POINT('',(6.111013745792,1.692122910811));
#98 = CARTESIAN_POINT('',(6.122784284176,1.544967599344));
#99 = CARTESIAN_POINT('',(6.151053404509,1.27531974473));
#100 = CARTESIAN_POINT('',(6.167800518356,1.149127988589));
#101 = CARTESIAN_POINT('',(6.187217999388,1.037682188429));
#102 = CARTESIAN_POINT('',(6.208990766778,0.947364711967));
#103 = CARTESIAN_POINT('',(6.232644762856,0.883433520747));
#104 = CARTESIAN_POINT('',(6.257602836535,0.85));
#105 = CARTESIAN_POINT('',(6.28318530718,0.85));
#106 = ( GEOMETRIC_REPRESENTATION_CONTEXT(2) 
PARAMETRIC_REPRESENTATION_CONTEXT() REPRESENTATION_CONTEXT('2D SPACE',''
  ) );
#107 = PCURVE('',#108,#113);
#108 = CYLINDRICAL_SURFACE('',#109,1.65);
#109 = AXIS2_PLACEMENT_3D('',#110,#111,#112);
#110 = CARTESIAN_POINT('',(2.,0.,0.));
#111 = DIRECTION('',(1.,0.,0.));
#112 = DIRECTION('',(-0.,0.,1.));
#113 = DEFINITIONAL_REPRESENTATION('',(#114),#141);
#114 = B_SPLINE_CURVE_WITH_KNOTS('',7,(#115,#116,#117,#118,#119,#120,
    #121,#122,#123,#124,#125,#126,#127,#128,#129,#130,#131,#132,#133,
    #134,#135,#136,#137,#138,#139,#140),.UNSPECIFIED.,.F.,.F.,(8,6,6,6,8
    ),(0.,0.247640580881,0.500037670655,0.752444501309,1.),
  .UNSPECIFIED.);
#115 = CARTESIAN_POINT('',(0.,6.5));
#116 = CARTESIAN_POINT('',(0.131848701007,6.5));
#117 = CARTESIAN_POINT('',(0.260426070116,6.493503730209));
#118 = CARTESIAN_POINT('',(0.385854449864,6.481093235319));
#119 = CARTESIAN_POINT('',(0.507979538862,6.464359891462));
#120 = CARTESIAN_POINT('',(0.626396953415,6.445542634085));
#121 = CARTESIAN_POINT('',(0.740313390681,6.426738799044));
#122 = CARTESIAN_POINT('',(0.95821943012,6.391743989847));
#123 = CARTESIAN_POINT('',(1.064671438373,6.375177585282));
#124 = CARTESIAN_POINT('',(1.168476540982,6.360905469584));
#125 = CARTESIAN_POINT('',(1.270330436469,6.349729937195));
#126 = CARTESIAN_POINT('',(1.370899879283,6.342122693984));
#127 = CARTESIAN_POINT('',(1.470817865779,6.33831517754));
#128 = CARTESIAN_POINT('',(1.670778646327,6.33831517754));
#129 = CARTESIAN_POINT('',(1.770695842017,6.342122980591));
#130 = CARTESIAN_POINT('',(1.871263267523,6.349730200216));
#131 = CARTESIAN_POINT('',(1.973115492044,6.360905388234));
#132 = CARTESIAN_POINT('',(2.076920229517,6.375177429598));
#133 = CARTESIAN_POINT('',(2.18337312608,6.391743974207));
#134 = CARTESIAN_POINT('',(2.401238118088,6.426732191356));
#135 = CARTESIAN_POINT('',(2.515165373094,6.445537360494));
#136 = CARTESIAN_POINT('',(2.633616803079,6.464361727548));
#137 = CARTESIAN_POINT('',(2.755779693523,6.481101090976));
#138 = CARTESIAN_POINT('',(2.881232513538,6.493509674546));
#139 = CARTESIAN_POINT('',(3.009804168452,6.5));
#140 = CARTESIAN_POINT('',(3.14159265359,6.5));
#141 = ( GEOMETRIC_REPRESENTATION_CONTEXT(2) 
PARAMETRIC_REPRESENTATION_CONTEXT() REPRESENTATION_CONTEXT('2D SPACE',''
  ) );
#142 = ORIENTED_EDGE('',*,*,#143,.T.);
#143 = EDGE_CURVE('',#40,#144,#146,.T.);
#144 = VERTEX_POINT('',#145);
#145 = CARTESIAN_POINT('',(8.45,-0.920597631976,2.324327859834));
#146 = SURFACE_CURVE('',#147,(#151,#157),.PCURVE_S1.);
#147 = LINE('',#148,#149);
#148 = CARTESIAN_POINT('',(8.45,-0.920597631976,-2.5));
#149 = VECTOR('',#150,1.);
#150 = DIRECTION('',(0.,0.,1.));
#151 = PCURVE('',#73,#152);
#152 = DEFINITIONAL_REPRESENTATION('',(#153),#156);
#153 = B_SPLINE_CURVE_WITH_KNOTS('',1,(#154,#155),.UNSPECIFIED.,.F.,.F.,
  (2,2),(-5.999999999062E-07,5.0000006),.PIECEWISE_BEZIER_KNOTS.);
#154 = CARTESIAN_POINT('',(6.174666838546,-5.999999999062E-07));
#155 = CARTESIAN_POINT('',(6.174666838546,5.0000006));
#156 = ( GEOMETRIC_REPRESENTATION_CONTEXT(2) 
PARAMETRIC_REPRESENTATION_CONTEXT() REPRESENTATION_CONTEXT('2D SPACE',''
  ) );
#157 = PCURVE('',#158,#163);
#158 = PLANE('',#159);
#159 = AXIS2_PLACEMENT_3D('',#160,#161,#162);
#160 = CARTESIAN_POINT('',(8.45,0.,0.));
#161 = DIRECTION('',(1.,0.,0.));
#162 = DIRECTION('',(-0.,0.,1.));
#163 = DEFINITIONAL_REPRESENTATION('',(#164),#167);
#164 = B_SPLINE_CURVE_WITH_KNOTS('',1,(#165,#166),.UNSPECIFIED.,.F.,.F.,
  (2,2),(-5.999999999062E-07,5.0000006),.PIECEWISE_BEZIER_KNOTS.);
#165 = CARTESIAN_POINT('',(-2.5000006,0.920597631976));
#166 = CARTESIAN_POINT('',(2.5000006,0.920597631976));
#167 = ( GEOMETRIC_REPRESENTATION_CONTEXT(2) 
PARAMETRIC_REPRESENTATION_CONTEXT() REPRESENTATION_CONTEXT('2D SPACE',''
  ) );
#168 = ORIENTED_EDGE('',*,*,#169,.F.);
#169 = EDGE_CURVE('',#170,#144,#172,.T.);
#170 = VERTEX_POINT('',#171);
#171 = CARTESIAN_POINT('',(8.5,-2.081899558551E-15,2.5));
#172 = SURFACE_CURVE('',#173,(#181,#192),.PCURVE_S1.);
#173 = B_SPLINE_CURVE_WITH_KNOTS('',6,(#174,#175,#176,#177,#178,#179,
    #180),.UNSPECIFIED.,.F.,.F.,(7,7),(0.,1.),.PIECEWISE_BEZIER_KNOTS.);
#174 = CARTESIAN_POINT('',(8.5,-7.771561172376E-16,2.5));
#175 = CARTESIAN_POINT('',(8.5,-0.160834432309,2.5));
#176 = CARTESIAN_POINT('',(8.496348126429,-0.321191302415,2.487583448223
    ));
#177 = CARTESIAN_POINT('',(8.48908478082,-0.479151862671,2.462888926216)
  );
#178 = CARTESIAN_POINT('',(8.478529966385,-0.632832009129,2.426577940154
    ));
#179 = CARTESIAN_POINT('',(8.465264864029,-0.780485040164,2.379822704243
    ));
#180 = CARTESIAN_POINT('',(8.4499994,-0.920603139251,2.324325678557));
#181 = PCURVE('',#73,#182);
#182 = DEFINITIONAL_REPRESENTATION('',(#183),#191);
#183 = B_SPLINE_CURVE_WITH_KNOTS('',6,(#184,#185,#186,#187,#188,#189,
    #190),.UNSPECIFIED.,.F.,.F.,(7,7),(0.,1.),.PIECEWISE_BEZIER_KNOTS.);
#184 = CARTESIAN_POINT('',(6.28318530718,5.));
#185 = CARTESIAN_POINT('',(6.264263609261,5.));
#186 = CARTESIAN_POINT('',(6.245398088794,4.987583448223));
#187 = CARTESIAN_POINT('',(6.226802331259,4.962888926216));
#188 = CARTESIAN_POINT('',(6.208686002066,4.926577940154));
#189 = CARTESIAN_POINT('',(6.191248211535,4.879822704243));
#190 = CARTESIAN_POINT('',(6.174666186797,4.824325678557));
#191 = ( GEOMETRIC_REPRESENTATION_CONTEXT(2) 
PARAMETRIC_REPRESENTATION_CONTEXT() REPRESENTATION_CONTEXT('2D SPACE',''
  ) );
#192 = PCURVE('',#193,#198);
#193 = CYLINDRICAL_SURFACE('',#194,2.5);
#194 = AXIS2_PLACEMENT_3D('',#195,#196,#197);
#195 = CARTESIAN_POINT('',(8.45,0.,0.));
#196 = DIRECTION('',(1.,0.,0.));
#197 = DIRECTION('',(-0.,0.,1.));
#198 = DEFINITIONAL_REPRESENTATION('',(#199),#207);
#199 = B_SPLINE_CURVE_WITH_KNOTS('',6,(#200,#201,#202,#203,#204,#205,
    #206),.UNSPECIFIED.,.F.,.F.,(7,7),(0.,1.),.PIECEWISE_BEZIER_KNOTS.);
#200 = CARTESIAN_POINT('',(0.,5.E-02));
#201 = CARTESIAN_POINT('',(6.433377292352E-02,5.E-02));
#202 = CARTESIAN_POINT('',(0.128476501349,4.634812642882E-02));
#203 = CARTESIAN_POINT('',(0.192140111083,3.908478081977E-02));
#204 = CARTESIAN_POINT('',(0.255035445735,2.852996638543E-02));
#205 = CARTESIAN_POINT('',(0.316833305742,1.526486402905E-02));
#206 = CARTESIAN_POINT('',(0.377116638831,-6.E-07));
#207 = ( GEOMETRIC_REPRESENTATION_CONTEXT(2) 
PARAMETRIC_REPRESENTATION_CONTEXT() REPRESENTATION_CONTEXT('2D SPACE',''
  ) );
#208 = ORIENTED_EDGE('',*,*,#209,.F.);
#209 = EDGE_CURVE('',#170,#170,#210,.T.);
#210 = SURFACE_CURVE('',#211,(#216,#223),.PCURVE_S1.);
#211 = CIRCLE('',#212,8.5);
#212 = AXIS2_PLACEMENT_3D('',#213,#214,#215);
#213 = CARTESIAN_POINT('',(0.,0.,2.5));
#214 = DIRECTION('',(0.,0.,1.));
#215 = DIRECTION('',(1.,0.,-0.));
#216 = PCURVE('',#73,#217);
#217 = DEFINITIONAL_REPRESENTATION('',(#218),#222);
#218 = LINE('',#219,#220);
#219 = CARTESIAN_POINT('',(0.,5.));
#220 = VECTOR('',#221,1.);
#221 = DIRECTION('',(1.,0.));
#222 = ( GEOMETRIC_REPRESENTATION_CONTEXT(2) 
PARAMETRIC_REPRESENTATION_CONTEXT() REPRESENTATION_CONTEXT('2D SPACE',''
  ) );
#223 = PCURVE('',#224,#229);
#224 = PLANE('',#225);
#225 = AXIS2_PLACEMENT_3D('',#226,#227,#228);
#226 = CARTESIAN_POINT('',(0.,0.,2.5));
#227 = DIRECTION('',(0.,0.,1.));
#228 = DIRECTION('',(1.,0.,-0.));
#229 = DEFINITIONAL_REPRESENTATION('',(#230),#234);
#230 = CIRCLE('',#231,8.5);
#231 = AXIS2_PLACEMENT_2D('',#232,#233);
#232 = CARTESIAN_POINT('',(0.,0.));
#233 = DIRECTION('',(1.,0.));
#234 = ( GEOMETRIC_REPRESENTATION_CONTEXT(2) 
PARAMETRIC_REPRESENTATION_CONTEXT() REPRESENTATION_CONTEXT('2D SPACE',''
  ) );
#235 = ORIENTED_EDGE('',*,*,#236,.F.);
#236 = EDGE_CURVE('',#237,#170,#239,.T.);
#237 = VERTEX_POINT('',#238);
#238 = CARTESIAN_POINT('',(8.45,0.920597631976,2.324327859834));
#239 = SURFACE_CURVE('',#240,(#248,#259),.PCURVE_S1.);
#240 = B_SPLINE_CURVE_WITH_KNOTS('',6,(#241,#242,#243,#244,#245,#246,
    #247),.UNSPECIFIED.,.F.,.F.,(7,7),(0.,1.),.PIECEWISE_BEZIER_KNOTS.);
#241 = CARTESIAN_POINT('',(8.4499994,0.920603139251,2.324325678557));
#242 = CARTESIAN_POINT('',(8.465265034678,0.780483473818,2.379823324631)
  );
#243 = CARTESIAN_POINT('',(8.478530433849,0.632827137106,2.426579608382)
  );
#244 = CARTESIAN_POINT('',(8.489085332087,0.479143840689,2.462890780459)
  );
#245 = CARTESIAN_POINT('',(8.496348434631,0.321182125556,2.487584507243)
  );
#246 = CARTESIAN_POINT('',(8.5,0.160827591061,2.5));
#247 = CARTESIAN_POINT('',(8.5,3.061616997868E-16,2.5));
#248 = PCURVE('',#73,#249);
#249 = DEFINITIONAL_REPRESENTATION('',(#250),#258);
#250 = B_SPLINE_CURVE_WITH_KNOTS('',6,(#251,#252,#253,#254,#255,#256,
    #257),.UNSPECIFIED.,.F.,.F.,(7,7),(0.,1.),.PIECEWISE_BEZIER_KNOTS.);
#251 = CARTESIAN_POINT('',(0.108519120382,4.824325678557));
#252 = CARTESIAN_POINT('',(9.193691027784E-02,4.879823324631));
#253 = CARTESIAN_POINT('',(7.449872921899E-02,4.926579608382));
#254 = CARTESIAN_POINT('',(5.638203114435E-02,4.962890780459));
#255 = CARTESIAN_POINT('',(3.778613842926E-02,4.987584507243));
#256 = CARTESIAN_POINT('',(1.892089306604E-02,5.));
#257 = CARTESIAN_POINT('',(0.,5.));
#258 = ( GEOMETRIC_REPRESENTATION_CONTEXT(2) 
PARAMETRIC_REPRESENTATION_CONTEXT() REPRESENTATION_CONTEXT('2D SPACE',''
  ) );
#259 = PCURVE('',#193,#260);
#260 = DEFINITIONAL_REPRESENTATION('',(#261),#269);
#261 = B_SPLINE_CURVE_WITH_KNOTS('',6,(#262,#263,#264,#265,#266,#267,
    #268),.UNSPECIFIED.,.F.,.F.,(7,7),(0.,1.),.PIECEWISE_BEZIER_KNOTS.);
#262 = CARTESIAN_POINT('',(5.906068668349,-6.E-07));
#263 = CARTESIAN_POINT('',(5.96635267533,1.526503467786E-02));
#264 = CARTESIAN_POINT('',(6.028151918551,2.853043384894E-02));
#265 = CARTESIAN_POINT('',(6.091048468068,3.908533208741E-02));
#266 = CARTESIAN_POINT('',(6.154712475545,4.63484346305E-02));
#267 = CARTESIAN_POINT('',(6.218854270755,5.E-02));
#268 = CARTESIAN_POINT('',(6.28318530718,5.E-02));
#269 = ( GEOMETRIC_REPRESENTATION_CONTEXT(2) 
PARAMETRIC_REPRESENTATION_CONTEXT() REPRESENTATION_CONTEXT('2D SPACE',''
  ) );
#270 = ORIENTED_EDGE('',*,*,#271,.F.);
#271 = EDGE_CURVE('',#272,#237,#274,.T.);
#272 = VERTEX_POINT('',#273);
#273 = CARTESIAN_POINT('',(8.45,0.920597705691,1.369306328007));
#274 = SURFACE_CURVE('',#275,(#279,#285),.PCURVE_S1.);
#275 = LINE('',#276,#277);
#276 = CARTESIAN_POINT('',(8.45,0.920597631976,-2.5));
#277 = VECTOR('',#278,1.);
#278 = DIRECTION('',(0.,0.,1.));
#279 = PCURVE('',#73,#280);
#280 = DEFINITIONAL_REPRESENTATION('',(#281),#284);
#281 = B_SPLINE_CURVE_WITH_KNOTS('',1,(#282,#283),.UNSPECIFIED.,.F.,.F.,
  (2,2),(-5.999999999062E-07,5.0000006),.PIECEWISE_BEZIER_KNOTS.);
#282 = CARTESIAN_POINT('',(0.108518468634,-5.999999999062E-07));
#283 = CARTESIAN_POINT('',(0.108518468634,5.0000006));
#284 = ( GEOMETRIC_REPRESENTATION_CONTEXT(2) 
PARAMETRIC_REPRESENTATION_CONTEXT() REPRESENTATION_CONTEXT('2D SPACE',''
  ) );
#285 = PCURVE('',#158,#286);
#286 = DEFINITIONAL_REPRESENTATION('',(#287),#290);
#287 = B_SPLINE_CURVE_WITH_KNOTS('',1,(#288,#289),.UNSPECIFIED.,.F.,.F.,
  (2,2),(-5.999999999062E-07,5.0000006),.PIECEWISE_BEZIER_KNOTS.);
#288 = CARTESIAN_POINT('',(-2.5000006,-0.920597631976));
#289 = CARTESIAN_POINT('',(2.5000006,-0.920597631976));
#290 = ( GEOMETRIC_REPRESENTATION_CONTEXT(2) 
PARAMETRIC_REPRESENTATION_CONTEXT() REPRESENTATION_CONTEXT('2D SPACE',''
  ) );
#291 = ORIENTED_EDGE('',*,*,#292,.F.);
#292 = EDGE_CURVE('',#293,#272,#295,.T.);
#293 = VERTEX_POINT('',#294);
#294 = CARTESIAN_POINT('',(8.45,0.920597704407,-1.369306329567));
#295 = SURFACE_CURVE('',#296,(#323,#353),.PCURVE_S1.);
#296 = B_SPLINE_CURVE_WITH_KNOTS('',7,(#297,#298,#299,#300,#301,#302,
    #303,#304,#305,#306,#307,#308,#309,#310,#311,#312,#313,#314,#315,
    #316,#317,#318,#319,#320,#321,#322),.UNSPECIFIED.,.F.,.F.,(8,6,6,6,8
    ),(0.,0.247644131296,0.500045069728,0.752446008159,1.),
  .UNSPECIFIED.);
#297 = CARTESIAN_POINT('',(8.5,6.317138353229E-16,-1.65));
#298 = CARTESIAN_POINT('',(8.5,0.217550356661,-1.65));
#299 = CARTESIAN_POINT('',(8.493503730209,0.429703155314,-1.616535948766
    ));
#300 = CARTESIAN_POINT('',(8.481093235319,0.630482383044,-1.552594667126
    ));
#301 = CARTESIAN_POINT('',(8.464359891462,0.814836595556,-1.462300933034
    ));
#302 = CARTESIAN_POINT('',(8.445542634085,0.978810935526,-1.350898254714
    ));
#303 = CARTESIAN_POINT('',(8.426738799044,1.119928465476,-1.224731179526
    ));
#304 = CARTESIAN_POINT('',(8.391743973747,1.357699926385,-0.955032397117
    ));
#305 = CARTESIAN_POINT('',(8.375177430819,1.4563890597,-0.80787709708));
#306 = CARTESIAN_POINT('',(8.360905386892,1.534369788065,-0.653069025565
    ));
#307 = CARTESIAN_POINT('',(8.349730200894,1.592314308014,-0.493076188731
    ));
#308 = CARTESIAN_POINT('',(8.342122980466,1.630757076693,-0.329834404197
    ));
#309 = CARTESIAN_POINT('',(8.33831517754,1.65,-0.164970823172));
#310 = CARTESIAN_POINT('',(8.33831517754,1.65,0.164970823172));
#311 = CARTESIAN_POINT('',(8.342122980466,1.630757076692,0.329834404198)
  );
#312 = CARTESIAN_POINT('',(8.349730200894,1.592314308014,0.493076188729)
  );
#313 = CARTESIAN_POINT('',(8.360905386892,1.534369788065,0.653069025567)
  );
#314 = CARTESIAN_POINT('',(8.375177430819,1.456389059701,0.807877097079)
  );
#315 = CARTESIAN_POINT('',(8.391743973747,1.357699926385,0.955032397117)
  );
#316 = CARTESIAN_POINT('',(8.426732490784,1.119971326792,1.224682562906)
  );
#317 = CARTESIAN_POINT('',(8.445538189962,0.978850825875,1.350877718028)
  );
#318 = CARTESIAN_POINT('',(8.464362617666,0.814831969769,1.46232231334)
  );
#319 = CARTESIAN_POINT('',(8.481101256448,0.630416507149,1.552635901662)
  );
#320 = CARTESIAN_POINT('',(8.493509352611,0.429594938964,1.616564923597)
  );
#321 = CARTESIAN_POINT('',(8.5,0.217456162923,1.65));
#322 = CARTESIAN_POINT('',(8.5,2.020667218593E-16,1.65));
#323 = PCURVE('',#73,#324);
#324 = DEFINITIONAL_REPRESENTATION('',(#325),#352);
#325 = B_SPLINE_CURVE_WITH_KNOTS('',7,(#326,#327,#328,#329,#330,#331,
    #332,#333,#334,#335,#336,#337,#338,#339,#340,#341,#342,#343,#344,
    #345,#346,#347,#348,#349,#350,#351),.UNSPECIFIED.,.F.,.F.,(8,6,6,6,8
    ),(0.,0.247644131296,0.500045069728,0.752446008159,1.),
  .UNSPECIFIED.);
#326 = CARTESIAN_POINT('',(0.,0.85));
#327 = CARTESIAN_POINT('',(2.559415960718E-02,0.85));
#328 = CARTESIAN_POINT('',(5.055334189842E-02,0.883464051234));
#329 = CARTESIAN_POINT('',(7.42016492286E-02,0.947405332874));
#330 = CARTESIAN_POINT('',(9.596688808853E-02,1.037699066966));
#331 = CARTESIAN_POINT('',(0.115379349108,1.149101745286));
#332 = CARTESIAN_POINT('',(0.132126563915,1.275268820474));
#333 = CARTESIAN_POINT('',(0.160401023374,1.544967602883));
#334 = CARTESIAN_POINT('',(0.172171560413,1.69212290292));
#335 = CARTESIAN_POINT('',(0.181497222887,1.846930974435));
#336 = CARTESIAN_POINT('',(0.188439756716,2.006923811269));
#337 = CARTESIAN_POINT('',(0.193050137303,2.170165595803));
#338 = CARTESIAN_POINT('',(0.195357907699,2.335029176828));
#339 = CARTESIAN_POINT('',(0.195357907699,2.664970823172));
#340 = CARTESIAN_POINT('',(0.193050137303,2.829834404198));
#341 = CARTESIAN_POINT('',(0.188439756716,2.993076188729));
#342 = CARTESIAN_POINT('',(0.181497222887,3.153069025567));
#343 = CARTESIAN_POINT('',(0.172171560413,3.307877097079));
#344 = CARTESIAN_POINT('',(0.160401023374,3.455032397117));
#345 = CARTESIAN_POINT('',(0.132131660744,3.724682562906));
#346 = CARTESIAN_POINT('',(0.115384068915,3.850877718028));
#347 = CARTESIAN_POINT('',(9.596630485095E-02,3.96232231334));
#348 = CARTESIAN_POINT('',(7.419386092583E-02,4.052635901662));
#349 = CARTESIAN_POINT('',(5.054061100151E-02,4.116564923597));
#350 = CARTESIAN_POINT('',(2.558307799089E-02,4.15));
#351 = CARTESIAN_POINT('',(0.,4.15));
#352 = ( GEOMETRIC_REPRESENTATION_CONTEXT(2) 
PARAMETRIC_REPRESENTATION_CONTEXT() REPRESENTATION_CONTEXT('2D SPACE',''
  ) );
#353 = PCURVE('',#108,#354);
#354 = DEFINITIONAL_REPRESENTATION('',(#355),#382);
#355 = B_SPLINE_CURVE_WITH_KNOTS('',7,(#356,#357,#358,#359,#360,#361,
    #362,#363,#364,#365,#366,#367,#368,#369,#370,#371,#372,#373,#374,
    #375,#376,#377,#378,#379,#380,#381),.UNSPECIFIED.,.F.,.F.,(8,6,6,6,8
    ),(0.,0.247644131296,0.500045069728,0.752446008159,1.),
  .UNSPECIFIED.);
#356 = CARTESIAN_POINT('',(3.14159265359,6.5));
#357 = CARTESIAN_POINT('',(3.273441354596,6.5));
#358 = CARTESIAN_POINT('',(3.402018723705,6.493503730209));
#359 = CARTESIAN_POINT('',(3.527447103454,6.481093235319));
#360 = CARTESIAN_POINT('',(3.649572192452,6.464359891462));
#361 = CARTESIAN_POINT('',(3.767989607005,6.445542634085));
#362 = CARTESIAN_POINT('',(3.881906044271,6.426738799044));
#363 = CARTESIAN_POINT('',(4.099812183959,6.391743973747));
#364 = CARTESIAN_POINT('',(4.206265071056,6.375177430819));
#365 = CARTESIAN_POINT('',(4.310069819308,6.360905386892));
#366 = CARTESIAN_POINT('',(4.411922042867,6.349730200894));
#367 = CARTESIAN_POINT('',(4.512489459433,6.342122980466));
#368 = CARTESIAN_POINT('',(4.612406663311,6.33831517754));
#369 = CARTESIAN_POINT('',(4.812371297458,6.33831517754));
#370 = CARTESIAN_POINT('',(4.912288501337,6.342122980466));
#371 = CARTESIAN_POINT('',(5.012855917902,6.349730200894));
#372 = CARTESIAN_POINT('',(5.114708141462,6.360905386892));
#373 = CARTESIAN_POINT('',(5.218512889713,6.375177430819));
#374 = CARTESIAN_POINT('',(5.324965776811,6.391743973747));
#375 = CARTESIAN_POINT('',(5.542832636158,6.426732490784));
#376 = CARTESIAN_POINT('',(5.656763042387,6.445538189962));
#377 = CARTESIAN_POINT('',(5.775215040733,6.464362617666));
#378 = CARTESIAN_POINT('',(5.897375582255,6.481101256448));
#379 = CARTESIAN_POINT('',(6.022824834778,6.493509352611));
#380 = CARTESIAN_POINT('',(6.151393693287,6.5));
#381 = CARTESIAN_POINT('',(6.28318530718,6.5));
#382 = ( GEOMETRIC_REPRESENTATION_CONTEXT(2) 
PARAMETRIC_REPRESENTATION_CONTEXT() REPRESENTATION_CONTEXT('2D SPACE',''
  ) );
#383 = ORIENTED_EDGE('',*,*,#384,.F.);
#384 = EDGE_CURVE('',#385,#293,#387,.T.);
#385 = VERTEX_POINT('',#386);
#386 = CARTESIAN_POINT('',(8.45,0.920597631976,-2.324327859834));
#387 = SURFACE_CURVE('',#388,(#392,#398),.PCURVE_S1.);
#388 = LINE('',#389,#390);
#389 = CARTESIAN_POINT('',(8.45,0.920597631976,-2.5));
#390 = VECTOR('',#391,1.);
#391 = DIRECTION('',(0.,0.,1.));
#392 = PCURVE('',#73,#393);
#393 = DEFINITIONAL_REPRESENTATION('',(#394),#397);
#394 = B_SPLINE_CURVE_WITH_KNOTS('',1,(#395,#396),.UNSPECIFIED.,.F.,.F.,
  (2,2),(-5.999999999062E-07,5.0000006),.PIECEWISE_BEZIER_KNOTS.);
#395 = CARTESIAN_POINT('',(0.108518468634,-5.999999999062E-07));
#396 = CARTESIAN_POINT('',(0.108518468634,5.0000006));
#397 = ( GEOMETRIC_REPRESENTATION_CONTEXT(2) 
PARAMETRIC_REPRESENTATION_CONTEXT() REPRESENTATION_CONTEXT('2D SPACE',''
  ) );
#398 = PCURVE('',#158,#399);
#399 = DEFINITIONAL_REPRESENTATION('',(#400),#403);
#400 = B_SPLINE_CURVE_WITH_KNOTS('',1,(#401,#402),.UNSPECIFIED.,.F.,.F.,
  (2,2),(-5.999999999062E-07,5.0000006),.PIECEWISE_BEZIER_KNOTS.);
#401 = CARTESIAN_POINT('',(-2.5000006,-0.920597631976));
#402 = CARTESIAN_POINT('',(2.5000006,-0.920597631976));
#403 = ( GEOMETRIC_REPRESENTATION_CONTEXT(2) 
PARAMETRIC_REPRESENTATION_CONTEXT() REPRESENTATION_CONTEXT('2D SPACE',''
  ) );
#404 = ORIENTED_EDGE('',*,*,#405,.F.);
#405 = EDGE_CURVE('',#406,#385,#408,.T.);
#406 = VERTEX_POINT('',#407);
#407 = CARTESIAN_POINT('',(8.5,-2.081899558551E-15,-2.5));
#408 = SURFACE_CURVE('',#409,(#417,#428),.PCURVE_S1.);
#409 = B_SPLINE_CURVE_WITH_KNOTS('',6,(#410,#411,#412,#413,#414,#415,
    #416),.UNSPECIFIED.,.F.,.F.,(7,7),(0.,1.),.PIECEWISE_BEZIER_KNOTS.);
#410 = CARTESIAN_POINT('',(8.5,9.571421747317E-16,-2.5));
#411 = CARTESIAN_POINT('',(8.5,0.160834432309,-2.5));
#412 = CARTESIAN_POINT('',(8.496348126429,0.321191302415,-2.487583448223
    ));
#413 = CARTESIAN_POINT('',(8.48908478082,0.479151862671,-2.462888926216)
  );
#414 = CARTESIAN_POINT('',(8.478529966385,0.632832009129,-2.426577940154
    ));
#415 = CARTESIAN_POINT('',(8.465264864029,0.780485040164,-2.379822704243
    ));
#416 = CARTESIAN_POINT('',(8.4499994,0.920603139251,-2.324325678557));
#417 = PCURVE('',#73,#418);
#418 = DEFINITIONAL_REPRESENTATION('',(#419),#427);
#419 = B_SPLINE_CURVE_WITH_KNOTS('',6,(#420,#421,#422,#423,#424,#425,
    #426),.UNSPECIFIED.,.F.,.F.,(7,7),(0.,1.),.PIECEWISE_BEZIER_KNOTS.);
#420 = CARTESIAN_POINT('',(0.,0.));
#421 = CARTESIAN_POINT('',(1.892169791868E-02,1.244776848439E-16));
#422 = CARTESIAN_POINT('',(3.778721838596E-02,1.241655177723E-02));
#423 = CARTESIAN_POINT('',(5.63829759205E-02,3.711107378392E-02));
#424 = CARTESIAN_POINT('',(7.449930511341E-02,7.342205984557E-02));
#425 = CARTESIAN_POINT('',(9.193709564415E-02,0.120177295757));
#426 = CARTESIAN_POINT('',(0.108519120382,0.175674321443));
#427 = ( GEOMETRIC_REPRESENTATION_CONTEXT(2) 
PARAMETRIC_REPRESENTATION_CONTEXT() REPRESENTATION_CONTEXT('2D SPACE',''
  ) );
#428 = PCURVE('',#193,#429);
#429 = DEFINITIONAL_REPRESENTATION('',(#430),#438);
#430 = B_SPLINE_CURVE_WITH_KNOTS('',6,(#431,#432,#433,#434,#435,#436,
    #437),.UNSPECIFIED.,.F.,.F.,(7,7),(0.,1.),.PIECEWISE_BEZIER_KNOTS.);
#431 = CARTESIAN_POINT('',(3.14159265359,5.E-02));
#432 = CARTESIAN_POINT('',(3.205926426513,5.E-02));
#433 = CARTESIAN_POINT('',(3.270069154939,4.634812642881E-02));
#434 = CARTESIAN_POINT('',(3.333732764673,3.908478081977E-02));
#435 = CARTESIAN_POINT('',(3.396628099325,2.852996638543E-02));
#436 = CARTESIAN_POINT('',(3.458425959331,1.526486402905E-02));
#437 = CARTESIAN_POINT('',(3.51870929242,-6.E-07));
#438 = ( GEOMETRIC_REPRESENTATION_CONTEXT(2) 
PARAMETRIC_REPRESENTATION_CONTEXT() REPRESENTATION_CONTEXT('2D SPACE',''
  ) );
#439 = ORIENTED_EDGE('',*,*,#440,.T.);
#440 = EDGE_CURVE('',#406,#406,#441,.T.);
#441 = SURFACE_CURVE('',#442,(#447,#454),.PCURVE_S1.);
#442 = CIRCLE('',#443,8.5);
#443 = AXIS2_PLACEMENT_3D('',#444,#445,#446);
#444 = CARTESIAN_POINT('',(0.,0.,-2.5));
#445 = DIRECTION('',(0.,0.,1.));
#446 = DIRECTION('',(1.,0.,-0.));
#447 = PCURVE('',#73,#448);
#448 = DEFINITIONAL_REPRESENTATION('',(#449),#453);
#449 = LINE('',#450,#451);
#450 = CARTESIAN_POINT('',(0.,0.));
#451 = VECTOR('',#452,1.);
#452 = DIRECTION('',(1.,0.));
#453 = ( GEOMETRIC_REPRESENTATION_CONTEXT(2) 
PARAMETRIC_REPRESENTATION_CONTEXT() REPRESENTATION_CONTEXT('2D SPACE',''
  ) );
#454 = PCURVE('',#455,#460);
#455 = PLANE('',#456);
#456 = AXIS2_PLACEMENT_3D('',#457,#458,#459);
#457 = CARTESIAN_POINT('',(0.,0.,-2.5));
#458 = DIRECTION('',(0.,0.,1.));
#459 = DIRECTION('',(1.,0.,-0.));
#460 = DEFINITIONAL_REPRESENTATION('',(#461),#465);
#461 = CIRCLE('',#462,8.5);
#462 = AXIS2_PLACEMENT_2D('',#463,#464);
#463 = CARTESIAN_POINT('',(0.,0.));
#464 = DIRECTION('',(1.,0.));
#465 = ( GEOMETRIC_REPRESENTATION_CONTEXT(2) 
PARAMETRIC_REPRESENTATION_CONTEXT() REPRESENTATION_CONTEXT('2D SPACE',''
  ) );
#466 = ORIENTED_EDGE('',*,*,#467,.F.);
#467 = EDGE_CURVE('',#468,#406,#470,.T.);
#468 = VERTEX_POINT('',#469);
#469 = CARTESIAN_POINT('',(8.45,-0.920597631976,-2.324327859834));
#470 = SURFACE_CURVE('',#471,(#479,#490),.PCURVE_S1.);
#471 = B_SPLINE_CURVE_WITH_KNOTS('',6,(#472,#473,#474,#475,#476,#477,
    #478),.UNSPECIFIED.,.F.,.F.,(7,7),(0.,1.),.PIECEWISE_BEZIER_KNOTS.);
#472 = CARTESIAN_POINT('',(8.4499994,-0.920603139251,-2.324325678557));
#473 = CARTESIAN_POINT('',(8.465265034678,-0.780483473818,
    -2.379823324631));
#474 = CARTESIAN_POINT('',(8.478530433849,-0.632827137106,
    -2.426579608382));
#475 = CARTESIAN_POINT('',(8.489085332087,-0.479143840689,
    -2.462890780459));
#476 = CARTESIAN_POINT('',(8.496348434631,-0.321182125556,
    -2.487584507243));
#477 = CARTESIAN_POINT('',(8.5,-0.160827591061,-2.5));
#478 = CARTESIAN_POINT('',(8.5,-1.110223024625E-16,-2.5));
#479 = PCURVE('',#73,#480);
#480 = DEFINITIONAL_REPRESENTATION('',(#481),#489);
#481 = B_SPLINE_CURVE_WITH_KNOTS('',6,(#482,#483,#484,#485,#486,#487,
    #488),.UNSPECIFIED.,.F.,.F.,(7,7),(0.,1.),.PIECEWISE_BEZIER_KNOTS.);
#482 = CARTESIAN_POINT('',(6.174666186797,0.175674321443));
#483 = CARTESIAN_POINT('',(6.191248396902,0.120176675369));
#484 = CARTESIAN_POINT('',(6.208686577961,7.342039161766E-02));
#485 = CARTESIAN_POINT('',(6.226803276035,3.710921954144E-02));
#486 = CARTESIAN_POINT('',(6.24539916875,1.241549275738E-02));
#487 = CARTESIAN_POINT('',(6.264264414114,-1.288203171056E-16));
#488 = CARTESIAN_POINT('',(6.28318530718,0.));
#489 = ( GEOMETRIC_REPRESENTATION_CONTEXT(2) 
PARAMETRIC_REPRESENTATION_CONTEXT() REPRESENTATION_CONTEXT('2D SPACE',''
  ) );
#490 = PCURVE('',#193,#491);
#491 = DEFINITIONAL_REPRESENTATION('',(#492),#500);
#492 = B_SPLINE_CURVE_WITH_KNOTS('',6,(#493,#494,#495,#496,#497,#498,
    #499),.UNSPECIFIED.,.F.,.F.,(7,7),(0.,1.),.PIECEWISE_BEZIER_KNOTS.);
#493 = CARTESIAN_POINT('',(2.764476014759,-6.E-07));
#494 = CARTESIAN_POINT('',(2.824760021741,1.526503467786E-02));
#495 = CARTESIAN_POINT('',(2.886559264961,2.853043384894E-02));
#496 = CARTESIAN_POINT('',(2.949455814479,3.908533208741E-02));
#497 = CARTESIAN_POINT('',(3.013119821955,4.63484346305E-02));
#498 = CARTESIAN_POINT('',(3.077261617165,5.E-02));
#499 = CARTESIAN_POINT('',(3.14159265359,5.E-02));
#500 = ( GEOMETRIC_REPRESENTATION_CONTEXT(2) 
PARAMETRIC_REPRESENTATION_CONTEXT() REPRESENTATION_CONTEXT('2D SPACE',''
  ) );
#501 = ORIENTED_EDGE('',*,*,#502,.T.);
#502 = EDGE_CURVE('',#468,#42,#503,.T.);
#503 = SURFACE_CURVE('',#504,(#508,#514),.PCURVE_S1.);
#504 = LINE('',#505,#506);
#505 = CARTESIAN_POINT('',(8.45,-0.920597631976,-2.5));
#506 = VECTOR('',#507,1.);
#507 = DIRECTION('',(0.,0.,1.));
#508 = PCURVE('',#73,#509);
#509 = DEFINITIONAL_REPRESENTATION('',(#510),#513);
#510 = B_SPLINE_CURVE_WITH_KNOTS('',1,(#511,#512),.UNSPECIFIED.,.F.,.F.,
  (2,2),(-5.999999999062E-07,5.0000006),.PIECEWISE_BEZIER_KNOTS.);
#511 = CARTESIAN_POINT('',(6.174666838546,-5.999999999062E-07));
#512 = CARTESIAN_POINT('',(6.174666838546,5.0000006));
#513 = ( GEOMETRIC_REPRESENTATION_CONTEXT(2) 
PARAMETRIC_REPRESENTATION_CONTEXT() REPRESENTATION_CONTEXT('2D SPACE',''
  ) );
#514 = PCURVE('',#158,#515);
#515 = DEFINITIONAL_REPRESENTATION('',(#516),#519);
#516 = B_SPLINE_CURVE_WITH_KNOTS('',1,(#517,#518),.UNSPECIFIED.,.F.,.F.,
  (2,2),(-5.999999999062E-07,5.0000006),.PIECEWISE_BEZIER_KNOTS.);
#517 = CARTESIAN_POINT('',(-2.5000006,0.920597631976));
#518 = CARTESIAN_POINT('',(2.5000006,0.920597631976));
#519 = ( GEOMETRIC_REPRESENTATION_CONTEXT(2) 
PARAMETRIC_REPRESENTATION_CONTEXT() REPRESENTATION_CONTEXT('2D SPACE',''
  ) );
#520 = ADVANCED_FACE('',(#521),#108,.F.);
#521 = FACE_BOUND('',#522,.F.);
#522 = EDGE_LOOP('',(#523,#524,#548,#571,#746,#914,#915,#937,#938));
#523 = ORIENTED_EDGE('',*,*,#39,.F.);
#524 = ORIENTED_EDGE('',*,*,#525,.F.);
#525 = EDGE_CURVE('',#526,#40,#528,.T.);
#526 = VERTEX_POINT('',#527);
#527 = CARTESIAN_POINT('',(8.45,4.041334437186E-16,1.65));
#528 = SURFACE_CURVE('',#529,(#534,#541),.PCURVE_S1.);
#529 = CIRCLE('',#530,1.65);
#530 = AXIS2_PLACEMENT_3D('',#531,#532,#533);
#531 = CARTESIAN_POINT('',(8.45,0.,0.));
#532 = DIRECTION('',(1.,0.,0.));
#533 = DIRECTION('',(-0.,0.,1.));
#534 = PCURVE('',#108,#535);
#535 = DEFINITIONAL_REPRESENTATION('',(#536),#540);
#536 = LINE('',#537,#538);
#537 = CARTESIAN_POINT('',(0.,6.45));
#538 = VECTOR('',#539,1.);
#539 = DIRECTION('',(1.,0.));
#540 = ( GEOMETRIC_REPRESENTATION_CONTEXT(2) 
PARAMETRIC_REPRESENTATION_CONTEXT() REPRESENTATION_CONTEXT('2D SPACE',''
  ) );
#541 = PCURVE('',#158,#542);
#542 = DEFINITIONAL_REPRESENTATION('',(#543),#547);
#543 = CIRCLE('',#544,1.65);
#544 = AXIS2_PLACEMENT_2D('',#545,#546);
#545 = CARTESIAN_POINT('',(0.,0.));
#546 = DIRECTION('',(1.,0.));
#547 = ( GEOMETRIC_REPRESENTATION_CONTEXT(2) 
PARAMETRIC_REPRESENTATION_CONTEXT() REPRESENTATION_CONTEXT('2D SPACE',''
  ) );
#548 = ORIENTED_EDGE('',*,*,#549,.F.);
#549 = EDGE_CURVE('',#550,#526,#552,.T.);
#550 = VERTEX_POINT('',#551);
#551 = CARTESIAN_POINT('',(3.4,-2.143131898508E-16,1.65));
#552 = SEAM_CURVE('',#553,(#557,#564),.PCURVE_S1.);
#553 = LINE('',#554,#555);
#554 = CARTESIAN_POINT('',(2.,4.041334437186E-16,1.65));
#555 = VECTOR('',#556,1.);
#556 = DIRECTION('',(1.,0.,0.));
#557 = PCURVE('',#108,#558);
#558 = DEFINITIONAL_REPRESENTATION('',(#559),#563);
#559 = LINE('',#560,#561);
#560 = CARTESIAN_POINT('',(6.28318530718,-0.));
#561 = VECTOR('',#562,1.);
#562 = DIRECTION('',(0.,1.));
#563 = ( GEOMETRIC_REPRESENTATION_CONTEXT(2) 
PARAMETRIC_REPRESENTATION_CONTEXT() REPRESENTATION_CONTEXT('2D SPACE',''
  ) );
#564 = PCURVE('',#108,#565);
#565 = DEFINITIONAL_REPRESENTATION('',(#566),#570);
#566 = LINE('',#567,#568);
#567 = CARTESIAN_POINT('',(0.,-0.));
#568 = VECTOR('',#569,1.);
#569 = DIRECTION('',(0.,1.));
#570 = ( GEOMETRIC_REPRESENTATION_CONTEXT(2) 
PARAMETRIC_REPRESENTATION_CONTEXT() REPRESENTATION_CONTEXT('2D SPACE',''
  ) );
#571 = ORIENTED_EDGE('',*,*,#572,.T.);
#572 = EDGE_CURVE('',#550,#573,#575,.T.);
#573 = VERTEX_POINT('',#574);
#574 = CARTESIAN_POINT('',(3.4,-8.327598234202E-16,-1.65));
#575 = SURFACE_CURVE('',#576,(#629,#685),.PCURVE_S1.);
#576 = B_SPLINE_CURVE_WITH_KNOTS('',6,(#577,#578,#579,#580,#581,#582,
    #583,#584,#585,#586,#587,#588,#589,#590,#591,#592,#593,#594,#595,
    #596,#597,#598,#599,#600,#601,#602,#603,#604,#605,#606,#607,#608,
    #609,#610,#611,#612,#613,#614,#615,#616,#617,#618,#619,#620,#621,
    #622,#623,#624,#625,#626,#627,#628),.UNSPECIFIED.,.F.,.F.,(7,5,5,5,5
    ,5,5,5,5,5,7),(0.,0.127890901372,0.1835760128,0.253231252503,
    0.335330870562,0.500254952149,0.586542485031,0.666031042396,
    0.818434538225,0.87300274828,1.),.UNSPECIFIED.);
#577 = CARTESIAN_POINT('',(3.4,-2.22044604925E-16,1.65));
#578 = CARTESIAN_POINT('',(3.4,-0.129118984502,1.65));
#579 = CARTESIAN_POINT('',(3.394115773124,-0.257444943043,1.637875095217
    ));
#580 = CARTESIAN_POINT('',(3.38248348037,-0.38297339626,1.613904699871)
  );
#581 = CARTESIAN_POINT('',(3.365767682369,-0.503754605655,1.578951289815
    ));
#582 = CARTESIAN_POINT('',(3.345129093355,-0.618017653208,1.534453711783
    ));
#583 = CARTESIAN_POINT('',(3.311863568076,-0.770586347111,1.459914280223
    ));
#584 = CARTESIAN_POINT('',(3.301258849862,-0.815505713363,1.435820943815
    ));
#585 = CARTESIAN_POINT('',(3.290224190355,-0.85904047672,1.410345809698)
  );
#586 = CARTESIAN_POINT('',(3.278841713724,-0.901171041144,1.383585921745
    ));
#587 = CARTESIAN_POINT('',(3.267191504274,-0.941882691136,1.355634280595
    ));
#588 = CARTESIAN_POINT('',(3.240541347475,-1.030303678863,1.290236309142
    ));
#589 = CARTESIAN_POINT('',(3.225431582661,-1.077214140203,1.252161450619
    ));
#590 = CARTESIAN_POINT('',(3.210164560103,-1.121906665244,1.212505692598
    ));
#591 = CARTESIAN_POINT('',(3.194873850384,-1.164394543128,1.171402734815
    ));
#592 = CARTESIAN_POINT('',(3.17968416736,-1.204693513749,1.128970084974)
  );
#593 = CARTESIAN_POINT('',(3.147063186922,-1.287759388438,1.033848856343
    ));
#594 = CARTESIAN_POINT('',(3.129713535372,-1.329687864613,0.98067446483)
  );
#595 = CARTESIAN_POINT('',(3.112853366012,-1.368627948603,0.925955982444
    ));
#596 = CARTESIAN_POINT('',(3.0966596335,-1.404598657026,0.869842280238)
  );
#597 = CARTESIAN_POINT('',(3.081294558941,-1.437614350105,0.812462586072
    ));
#598 = CARTESIAN_POINT('',(3.037999059714,-1.528085650697,0.636340638116
    ));
#599 = CARTESIAN_POINT('',(3.01297595325,-1.576708403023,0.513870715835)
  );
#600 = CARTESIAN_POINT('',(2.993171944099,-1.613284169709,0.387861857005
    ));
#601 = CARTESIAN_POINT('',(2.979600682786,-1.637735120714,0.259500117697
    ));
#602 = CARTESIAN_POINT('',(2.972793299239,-1.65,0.12986348719));
#603 = CARTESIAN_POINT('',(2.972793299239,-1.65,-6.794398861169E-02));
#604 = CARTESIAN_POINT('',(2.974656645856,-1.646642626468,
    -0.135876208608));
#605 = CARTESIAN_POINT('',(2.978382646542,-1.639930066386,
    -0.203625595718));
#606 = CARTESIAN_POINT('',(2.983929023209,-1.629869626066,
    -0.271017032978));
#607 = CARTESIAN_POINT('',(2.991214243971,-1.616476285348,
    -0.337871111417));
#608 = CARTESIAN_POINT('',(3.008323753429,-1.584390166392,
    -0.464925776506));
#609 = CARTESIAN_POINT('',(3.01790235266,-1.566198989134,-0.525232156222
    ));
#610 = CARTESIAN_POINT('',(3.028768130698,-1.545212825368,
    -0.584815495018));
#611 = CARTESIAN_POINT('',(3.040812802169,-1.521439979847,
    -0.643560356682));
#612 = CARTESIAN_POINT('',(3.053909728049,-1.49488837201,-0.701342958336
    ));
#613 = CARTESIAN_POINT('',(3.094771189728,-1.40935187726,-0.866718240907
    ));
#614 = CARTESIAN_POINT('',(3.124962749224,-1.342973128407,
    -0.971350685214));
#615 = CARTESIAN_POINT('',(3.157546239775,-1.266378518652,
    -1.071256489693));
#616 = CARTESIAN_POINT('',(3.19141820812,-1.179390882111,-1.16555556412)
  );
#617 = CARTESIAN_POINT('',(3.2252841498,-1.081809443691,-1.253064746348)
  );
#618 = CARTESIAN_POINT('',(3.269225923538,-0.934772121447,
    -1.360516997637));
#619 = CARTESIAN_POINT('',(3.280619323949,-0.894630456997,
    -1.387775129367));
#620 = CARTESIAN_POINT('',(3.29174666655,-0.853123814014,-1.413876588711
    ));
#621 = CARTESIAN_POINT('',(3.30253196664,-0.810266995012,-1.438732815806
    ));
#622 = CARTESIAN_POINT('',(3.312897438948,-0.766079394223,
    -1.462251646797));
#623 = CARTESIAN_POINT('',(3.34572489472,-0.614705341024,-1.535737552422
    ));
#624 = CARTESIAN_POINT('',(3.366153436288,-0.50095861904,-1.579758050213
    ));
#625 = CARTESIAN_POINT('',(3.382686118223,-0.380788539886,
    -1.614322291963));
#626 = CARTESIAN_POINT('',(3.394184968105,-0.255946410379,
    -1.638017668598));
#627 = CARTESIAN_POINT('',(3.4,-0.12835759817,-1.65));
#628 = CARTESIAN_POINT('',(3.4,-4.440892098501E-16,-1.65));
#629 = PCURVE('',#108,#630);
#630 = DEFINITIONAL_REPRESENTATION('',(#631),#684);
#631 = B_SPLINE_CURVE_WITH_KNOTS('',6,(#632,#633,#634,#635,#636,#637,
    #638,#639,#640,#641,#642,#643,#644,#645,#646,#647,#648,#649,#650,
    #651,#652,#653,#654,#655,#656,#657,#658,#659,#660,#661,#662,#663,
    #664,#665,#666,#667,#668,#669,#670,#671,#672,#673,#674,#675,#676,
    #677,#678,#679,#680,#681,#682,#683),.UNSPECIFIED.,.F.,.F.,(7,5,5,5,5
    ,5,5,5,5,5,7),(0.,0.127890901372,0.1835760128,0.253231252503,
    0.335330870562,0.500254952149,0.586542485031,0.666031042396,
    0.818434538225,0.87300274828,1.),.UNSPECIFIED.);
#632 = CARTESIAN_POINT('',(0.,1.4));
#633 = CARTESIAN_POINT('',(7.825393000121E-02,1.4));
#634 = CARTESIAN_POINT('',(0.156027128596,1.394115773124));
#635 = CARTESIAN_POINT('',(0.232968104574,1.38248348037));
#636 = CARTESIAN_POINT('',(0.308701899005,1.365767682369));
#637 = CARTESIAN_POINT('',(0.382761561494,1.345129093355));
#638 = CARTESIAN_POINT('',(0.485672960291,1.311863568076));
#639 = CARTESIAN_POINT('',(0.516543647026,1.301258849862));
#640 = CARTESIAN_POINT('',(0.54708242186,1.290224190355));
#641 = CARTESIAN_POINT('',(0.577301827837,1.278841713724));
#642 = CARTESIAN_POINT('',(0.607212874784,1.267191504274));
#643 = CARTESIAN_POINT('',(0.673866222602,1.240541347475));
#644 = CARTESIAN_POINT('',(0.710445928045,1.225431582661));
#645 = CARTESIAN_POINT('',(0.746606080521,1.210164560103));
#646 = CARTESIAN_POINT('',(0.782385203601,1.194873850384));
#647 = CARTESIAN_POINT('',(0.817820646611,1.17968416736));
#648 = CARTESIAN_POINT('',(0.894357217688,1.147063186922));
#649 = CARTESIAN_POINT('',(0.935345882646,1.129713535372));
#650 = CARTESIAN_POINT('',(0.975975847843,1.112853366012));
#651 = CARTESIAN_POINT('',(1.016301801137,1.0966596335));
#652 = CARTESIAN_POINT('',(1.056377686236,1.081294558941));
#653 = CARTESIAN_POINT('',(1.176377681312,1.037999059714));
#654 = CARTESIAN_POINT('',(1.255865234682,1.01297595325));
#655 = CARTESIAN_POINT('',(1.334850608401,0.993171944099));
#656 = CARTESIAN_POINT('',(1.413523630427,0.979600682786));
#657 = CARTESIAN_POINT('',(1.492091183043,0.972793299239));
#658 = CARTESIAN_POINT('',(1.611974501711,0.972793299239));
#659 = CARTESIAN_POINT('',(1.653145560067,0.974656645856));
#660 = CARTESIAN_POINT('',(1.694331431984,0.978382646542));
#661 = CARTESIAN_POINT('',(1.735551602755,0.983929023209));
#662 = CARTESIAN_POINT('',(1.776823382604,0.991214243971));
#663 = CARTESIAN_POINT('',(1.856243704268,1.008323753429));
#664 = CARTESIAN_POINT('',(1.894379969361,1.01790235266));
#665 = CARTESIAN_POINT('',(1.932605501483,1.028768130698));
#666 = CARTESIAN_POINT('',(1.970952161305,1.040812802169));
#667 = CARTESIAN_POINT('',(2.009450321432,1.053909728049));
#668 = CARTESIAN_POINT('',(2.122290727384,1.094771189728));
#669 = CARTESIAN_POINT('',(2.197098246794,1.124962749224));
#670 = CARTESIAN_POINT('',(2.272939109894,1.157546239775));
#671 = CARTESIAN_POINT('',(2.350190253533,1.19141820812));
#672 = CARTESIAN_POINT('',(2.429231840088,1.2252841498));
#673 = CARTESIAN_POINT('',(2.539604712482,1.269225923538));
#674 = CARTESIAN_POINT('',(2.568994390181,1.280619323949));
#675 = CARTESIAN_POINT('',(2.598682485484,1.29174666655));
#676 = CARTESIAN_POINT('',(2.628679071701,1.30253196664));
#677 = CARTESIAN_POINT('',(2.658995683854,1.312897438948));
#678 = CARTESIAN_POINT('',(2.760976582527,1.34572489472));
#679 = CARTESIAN_POINT('',(2.834643707993,1.366153436288));
#680 = CARTESIAN_POINT('',(2.909963891243,1.382686118223));
#681 = CARTESIAN_POINT('',(2.986473721535,1.394184968105));
#682 = CARTESIAN_POINT('',(3.06380016985,1.4));
#683 = CARTESIAN_POINT('',(3.14159265359,1.4));
#684 = ( GEOMETRIC_REPRESENTATION_CONTEXT(2) 
PARAMETRIC_REPRESENTATION_CONTEXT() REPRESENTATION_CONTEXT('2D SPACE',''
  ) );
#685 = PCURVE('',#686,#691);
#686 = CYLINDRICAL_SURFACE('',#687,3.4);
#687 = AXIS2_PLACEMENT_3D('',#688,#689,#690);
#688 = CARTESIAN_POINT('',(0.,0.,-2.7));
#689 = DIRECTION('',(0.,0.,1.));
#690 = DIRECTION('',(1.,0.,-0.));
#691 = DEFINITIONAL_REPRESENTATION('',(#692),#745);
#692 = B_SPLINE_CURVE_WITH_KNOTS('',6,(#693,#694,#695,#696,#697,#698,
    #699,#700,#701,#702,#703,#704,#705,#706,#707,#708,#709,#710,#711,
    #712,#713,#714,#715,#716,#717,#718,#719,#720,#721,#722,#723,#724,
    #725,#726,#727,#728,#729,#730,#731,#732,#733,#734,#735,#736,#737,
    #738,#739,#740,#741,#742,#743,#744),.UNSPECIFIED.,.F.,.F.,(7,5,5,5,5
    ,5,5,5,5,5,7),(0.,0.127890901372,0.1835760128,0.253231252503,
    0.335330870562,0.500254952149,0.586542485031,0.666031042396,
    0.818434538225,0.87300274828,1.),.UNSPECIFIED.);
#693 = CARTESIAN_POINT('',(6.28318530718,4.35));
#694 = CARTESIAN_POINT('',(6.245209135267,4.35));
#695 = CARTESIAN_POINT('',(6.207466140653,4.337875095217));
#696 = CARTESIAN_POINT('',(6.170447748133,4.313904699871));
#697 = CARTESIAN_POINT('',(6.1346332729,4.278951289815));
#698 = CARTESIAN_POINT('',(6.100504729745,4.234453711783));
#699 = CARTESIAN_POINT('',(6.054577337135,4.159914280223));
#700 = CARTESIAN_POINT('',(6.041004546498,4.135820943815));
#701 = CARTESIAN_POINT('',(6.027797891214,4.110345809698));
#702 = CARTESIAN_POINT('',(6.014964486587,4.083585921745));
#703 = CARTESIAN_POINT('',(6.002511043285,4.055634280595));
#704 = CARTESIAN_POINT('',(5.975349311338,3.990236309142));
#705 = CARTESIAN_POINT('',(5.960856643498,3.952161450619));
#706 = CARTESIAN_POINT('',(5.94696902354,3.912505692598));
#707 = CARTESIAN_POINT('',(5.933690313002,3.871402734815));
#708 = CARTESIAN_POINT('',(5.921024859588,3.828970084974));
#709 = CARTESIAN_POINT('',(5.894777322379,3.733848856343));
#710 = CARTESIAN_POINT('',(5.881433545908,3.68067446483));
#711 = CARTESIAN_POINT('',(5.868955365205,3.625955982444));
#712 = CARTESIAN_POINT('',(5.857354523917,3.569842280238));
#713 = CARTESIAN_POINT('',(5.846644574257,3.512462586072));
#714 = CARTESIAN_POINT('',(5.817145356503,3.336340638116));
#715 = CARTESIAN_POINT('',(5.801068651255,3.213870715835));
#716 = CARTESIAN_POINT('',(5.788836593439,3.087861857005));
#717 = CARTESIAN_POINT('',(5.780611444264,2.959500117697));
#718 = CARTESIAN_POINT('',(5.776485786924,2.82986348719));
#719 = CARTESIAN_POINT('',(5.776485786924,2.632056011388));
#720 = CARTESIAN_POINT('',(5.777615127351,2.564123791392));
#721 = CARTESIAN_POINT('',(5.779873199197,2.496374404282));
#722 = CARTESIAN_POINT('',(5.78325198354,2.428982967022));
#723 = CARTESIAN_POINT('',(5.787736106716,2.362128888583));
#724 = CARTESIAN_POINT('',(5.79843105242,2.235074223494));
#725 = CARTESIAN_POINT('',(5.804477703548,2.174767843778));
#726 = CARTESIAN_POINT('',(5.811428110891,2.115184504982));
#727 = CARTESIAN_POINT('',(5.819265782138,2.056439643318));
#728 = CARTESIAN_POINT('',(5.827972752143,1.998657041664));
#729 = CARTESIAN_POINT('',(5.855853725961,1.833281759093));
#730 = CARTESIAN_POINT('',(5.877297687097,1.728649314786));
#731 = CARTESIAN_POINT('',(5.901767182817,1.628743510307));
#732 = CARTESIAN_POINT('',(5.929199199018,1.53444443588));
#733 = CARTESIAN_POINT('',(5.95954998256,1.446935253652));
#734 = CARTESIAN_POINT('',(6.004686121891,1.339483002363));
#735 = CARTESIAN_POINT('',(6.016957686691,1.312224870633));
#736 = CARTESIAN_POINT('',(6.029594488096,1.286123411289));
#737 = CARTESIAN_POINT('',(6.042589984893,1.261267184194));
#738 = CARTESIAN_POINT('',(6.055937253583,1.237748353203));
#739 = CARTESIAN_POINT('',(6.101493927511,1.164262447578));
#740 = CARTESIAN_POINT('',(6.135462321778,1.120241949787));
#741 = CARTESIAN_POINT('',(6.171092077051,1.085677708037));
#742 = CARTESIAN_POINT('',(6.207906888428,1.061982331402));
#743 = CARTESIAN_POINT('',(6.245433072424,1.05));
#744 = CARTESIAN_POINT('',(6.28318530718,1.05));
#745 = ( GEOMETRIC_REPRESENTATION_CONTEXT(2) 
PARAMETRIC_REPRESENTATION_CONTEXT() REPRESENTATION_CONTEXT('2D SPACE',''
  ) );
#746 = ORIENTED_EDGE('',*,*,#747,.T.);
#747 = EDGE_CURVE('',#573,#550,#748,.T.);
#748 = SURFACE_CURVE('',#749,(#802,#858),.PCURVE_S1.);
#749 = B_SPLINE_CURVE_WITH_KNOTS('',6,(#750,#751,#752,#753,#754,#755,
    #756,#757,#758,#759,#760,#761,#762,#763,#764,#765,#766,#767,#768,
    #769,#770,#771,#772,#773,#774,#775,#776,#777,#778,#779,#780,#781,
    #782,#783,#784,#785,#786,#787,#788,#789,#790,#791,#792,#793,#794,
    #795,#796,#797,#798,#799,#800,#801),.UNSPECIFIED.,.F.,.F.,(7,5,5,5,5
    ,5,5,5,5,5,7),(0.,0.127890911579,0.183576022931,0.253231256928,
    0.335330868262,0.500254936338,0.586542462152,0.666031013005,
    0.81843449638,0.873002711922,1.),.UNSPECIFIED.);
#750 = CARTESIAN_POINT('',(3.4,-1.010333609297E-16,-1.65));
#751 = CARTESIAN_POINT('',(3.4,0.129118984502,-1.65));
#752 = CARTESIAN_POINT('',(3.394115773124,0.257444943043,-1.637875095217
    ));
#753 = CARTESIAN_POINT('',(3.38248348037,0.38297339626,-1.613904699871)
  );
#754 = CARTESIAN_POINT('',(3.365767682369,0.503754605655,-1.578951289815
    ));
#755 = CARTESIAN_POINT('',(3.345129093355,0.618017653208,-1.534453711783
    ));
#756 = CARTESIAN_POINT('',(3.311863568895,0.770586343354,-1.459914282059
    ));
#757 = CARTESIAN_POINT('',(3.301258849594,0.815505713957,-1.435820943112
    ));
#758 = CARTESIAN_POINT('',(3.290224189503,0.859040480043,-1.410345807694
    ));
#759 = CARTESIAN_POINT('',(3.278841713565,0.901171042213,-1.383585921446
    ));
#760 = CARTESIAN_POINT('',(3.267191505227,0.941882687972,-1.355634282935
    ));
#761 = CARTESIAN_POINT('',(3.240541347475,1.030303678863,-1.290236309142
    ));
#762 = CARTESIAN_POINT('',(3.225431582661,1.077214140203,-1.252161450619
    ));
#763 = CARTESIAN_POINT('',(3.210164560103,1.121906665244,-1.212505692598
    ));
#764 = CARTESIAN_POINT('',(3.194873850384,1.164394543128,-1.171402734815
    ));
#765 = CARTESIAN_POINT('',(3.17968416736,1.204693513749,-1.128970084974)
  );
#766 = CARTESIAN_POINT('',(3.147063186922,1.287759388438,-1.033848856343
    ));
#767 = CARTESIAN_POINT('',(3.129713535372,1.329687864613,-0.98067446483)
  );
#768 = CARTESIAN_POINT('',(3.112853366012,1.368627948603,-0.925955982444
    ));
#769 = CARTESIAN_POINT('',(3.0966596335,1.404598657026,-0.869842280238)
  );
#770 = CARTESIAN_POINT('',(3.081294558941,1.437614350105,-0.812462586072
    ));
#771 = CARTESIAN_POINT('',(3.037999059714,1.528085650697,-0.636340638116
    ));
#772 = CARTESIAN_POINT('',(3.01297595325,1.576708403023,-0.513870715834)
  );
#773 = CARTESIAN_POINT('',(2.993171944099,1.613284169709,-0.387861857006
    ));
#774 = CARTESIAN_POINT('',(2.979600682786,1.637735120714,-0.259500117697
    ));
#775 = CARTESIAN_POINT('',(2.972793299239,1.65,-0.12986348719));
#776 = CARTESIAN_POINT('',(2.972793299239,1.65,6.794398861172E-02));
#777 = CARTESIAN_POINT('',(2.974656645856,1.646642626468,0.135876208608)
  );
#778 = CARTESIAN_POINT('',(2.978382646542,1.639930066386,0.203625595718)
  );
#779 = CARTESIAN_POINT('',(2.983929023209,1.629869626066,0.271017032978)
  );
#780 = CARTESIAN_POINT('',(2.991214243971,1.616476285348,0.337871111417)
  );
#781 = CARTESIAN_POINT('',(3.008323753429,1.584390166392,0.464925776506)
  );
#782 = CARTESIAN_POINT('',(3.01790235266,1.566198989134,0.525232156222)
  );
#783 = CARTESIAN_POINT('',(3.028768130698,1.545212825368,0.584815495018)
  );
#784 = CARTESIAN_POINT('',(3.040812802169,1.521439979847,0.643560356682)
  );
#785 = CARTESIAN_POINT('',(3.053909728049,1.49488837201,0.701342958336)
  );
#786 = CARTESIAN_POINT('',(3.094771189733,1.40935187725,0.866718240928)
  );
#787 = CARTESIAN_POINT('',(3.124962749215,1.342973128421,0.971350685177)
  );
#788 = CARTESIAN_POINT('',(3.157546239773,1.266378518666,1.071256489704)
  );
#789 = CARTESIAN_POINT('',(3.191418208131,1.179390882071,1.165555564143)
  );
#790 = CARTESIAN_POINT('',(3.225284149793,1.081809443714,1.253064746332)
  );
#791 = CARTESIAN_POINT('',(3.269225925653,0.934772114372,1.360517002808)
  );
#792 = CARTESIAN_POINT('',(3.280619323579,0.894630459465,1.38777512867)
  );
#793 = CARTESIAN_POINT('',(3.291746664643,0.853123821549,1.413876584243)
  );
#794 = CARTESIAN_POINT('',(3.302531966045,0.810266996381,1.438732814254)
  );
#795 = CARTESIAN_POINT('',(3.31289744078,0.766079385774,1.462251650899)
  );
#796 = CARTESIAN_POINT('',(3.34572489472,0.614705341023,1.535737552422)
  );
#797 = CARTESIAN_POINT('',(3.366153436288,0.50095861904,1.579758050213)
  );
#798 = CARTESIAN_POINT('',(3.382686118223,0.380788539886,1.614322291963)
  );
#799 = CARTESIAN_POINT('',(3.394184968105,0.25594641038,1.638017668598)
  );
#800 = CARTESIAN_POINT('',(3.4,0.12835759817,1.65));
#801 = CARTESIAN_POINT('',(3.4,2.020667218593E-16,1.65));
#802 = PCURVE('',#108,#803);
#803 = DEFINITIONAL_REPRESENTATION('',(#804),#857);
#804 = B_SPLINE_CURVE_WITH_KNOTS('',6,(#805,#806,#807,#808,#809,#810,
    #811,#812,#813,#814,#815,#816,#817,#818,#819,#820,#821,#822,#823,
    #824,#825,#826,#827,#828,#829,#830,#831,#832,#833,#834,#835,#836,
    #837,#838,#839,#840,#841,#842,#843,#844,#845,#846,#847,#848,#849,
    #850,#851,#852,#853,#854,#855,#856),.UNSPECIFIED.,.F.,.F.,(7,5,5,5,5
    ,5,5,5,5,5,7),(0.,0.127890911579,0.183576022931,0.253231256928,
    0.335330868262,0.500254936338,0.586542462152,0.666031013005,
    0.81843449638,0.873002711922,1.),.UNSPECIFIED.);
#805 = CARTESIAN_POINT('',(3.14159265359,1.4));
#806 = CARTESIAN_POINT('',(3.219846583591,1.4));
#807 = CARTESIAN_POINT('',(3.297619782185,1.394115773124));
#808 = CARTESIAN_POINT('',(3.374560758164,1.38248348037));
#809 = CARTESIAN_POINT('',(3.450294552595,1.365767682369));
#810 = CARTESIAN_POINT('',(3.524354215084,1.345129093355));
#811 = CARTESIAN_POINT('',(3.627265611347,1.311863568895));
#812 = CARTESIAN_POINT('',(3.658136301146,1.301258849594));
#813 = CARTESIAN_POINT('',(3.68867507781,1.290224189503));
#814 = CARTESIAN_POINT('',(3.718894482076,1.278841713565));
#815 = CARTESIAN_POINT('',(3.748805525989,1.267191505227));
#816 = CARTESIAN_POINT('',(3.815458876192,1.240541347475));
#817 = CARTESIAN_POINT('',(3.852038581634,1.225431582661));
#818 = CARTESIAN_POINT('',(3.888198734111,1.210164560103));
#819 = CARTESIAN_POINT('',(3.923977857191,1.194873850384));
#820 = CARTESIAN_POINT('',(3.959413300201,1.17968416736));
#821 = CARTESIAN_POINT('',(4.035949871278,1.147063186922));
#822 = CARTESIAN_POINT('',(4.076938536236,1.129713535372));
#823 = CARTESIAN_POINT('',(4.117568501433,1.112853366012));
#824 = CARTESIAN_POINT('',(4.157894454726,1.0966596335));
#825 = CARTESIAN_POINT('',(4.197970339826,1.081294558941));
#826 = CARTESIAN_POINT('',(4.317970334902,1.037999059714));
#827 = CARTESIAN_POINT('',(4.397457888272,1.01297595325));
#828 = CARTESIAN_POINT('',(4.47644326199,0.993171944099));
#829 = CARTESIAN_POINT('',(4.555116284017,0.979600682786));
#830 = CARTESIAN_POINT('',(4.633683836633,0.972793299239));
#831 = CARTESIAN_POINT('',(4.753567155301,0.972793299239));
#832 = CARTESIAN_POINT('',(4.794738213656,0.974656645856));
#833 = CARTESIAN_POINT('',(4.835924085573,0.978382646542));
#834 = CARTESIAN_POINT('',(4.877144256345,0.983929023209));
#835 = CARTESIAN_POINT('',(4.918416036193,0.991214243971));
#836 = CARTESIAN_POINT('',(4.997836357858,1.008323753429));
#837 = CARTESIAN_POINT('',(5.035972622951,1.01790235266));
#838 = CARTESIAN_POINT('',(5.074198155073,1.028768130698));
#839 = CARTESIAN_POINT('',(5.112544814895,1.040812802169));
#840 = CARTESIAN_POINT('',(5.151042975021,1.053909728049));
#841 = CARTESIAN_POINT('',(5.263883380988,1.094771189733));
#842 = CARTESIAN_POINT('',(5.33869090036,1.124962749215));
#843 = CARTESIAN_POINT('',(5.414531763483,1.157546239773));
#844 = CARTESIAN_POINT('',(5.49178290715,1.191418208131));
#845 = CARTESIAN_POINT('',(5.570824493661,1.225284149793));
#846 = CARTESIAN_POINT('',(5.681197371383,1.269225925653));
#847 = CARTESIAN_POINT('',(5.710587042267,1.280619323579));
#848 = CARTESIAN_POINT('',(5.740275133746,1.291746664643));
#849 = CARTESIAN_POINT('',(5.770271724092,1.302531966045));
#850 = CARTESIAN_POINT('',(5.800588343136,1.31289744078));
#851 = CARTESIAN_POINT('',(5.902569236117,1.34572489472));
#852 = CARTESIAN_POINT('',(5.976236361583,1.366153436288));
#853 = CARTESIAN_POINT('',(6.051556544833,1.382686118223));
#854 = CARTESIAN_POINT('',(6.128066375124,1.394184968105));
#855 = CARTESIAN_POINT('',(6.20539282344,1.4));
#856 = CARTESIAN_POINT('',(6.28318530718,1.4));
#857 = ( GEOMETRIC_REPRESENTATION_CONTEXT(2) 
PARAMETRIC_REPRESENTATION_CONTEXT() REPRESENTATION_CONTEXT('2D SPACE',''
  ) );
#858 = PCURVE('',#686,#859);
#859 = DEFINITIONAL_REPRESENTATION('',(#860),#913);
#860 = B_SPLINE_CURVE_WITH_KNOTS('',6,(#861,#862,#863,#864,#865,#866,
    #867,#868,#869,#870,#871,#872,#873,#874,#875,#876,#877,#878,#879,
    #880,#881,#882,#883,#884,#885,#886,#887,#888,#889,#890,#891,#892,
    #893,#894,#895,#896,#897,#898,#899,#900,#901,#902,#903,#904,#905,
    #906,#907,#908,#909,#910,#911,#912),.UNSPECIFIED.,.F.,.F.,(7,5,5,5,5
    ,5,5,5,5,5,7),(0.,0.127890911579,0.183576022931,0.253231256928,
    0.335330868262,0.500254936338,0.586542462152,0.666031013005,
    0.81843449638,0.873002711922,1.),.UNSPECIFIED.);
#861 = CARTESIAN_POINT('',(0.,1.05));
#862 = CARTESIAN_POINT('',(3.797617191237E-02,1.05));
#863 = CARTESIAN_POINT('',(7.571916652617E-02,1.062124904783));
#864 = CARTESIAN_POINT('',(0.112737559046,1.086095300129));
#865 = CARTESIAN_POINT('',(0.148552034279,1.121048710185));
#866 = CARTESIAN_POINT('',(0.182680577434,1.165546288217));
#867 = CARTESIAN_POINT('',(0.228607968914,1.240085717941));
#868 = CARTESIAN_POINT('',(0.24218076087,1.264179056888));
#869 = CARTESIAN_POINT('',(0.255387416975,1.289654192306));
#870 = CARTESIAN_POINT('',(0.268220820909,1.316414078554));
#871 = CARTESIAN_POINT('',(0.280674262923,1.344365717065));
#872 = CARTESIAN_POINT('',(0.307835995842,1.409763690858));
#873 = CARTESIAN_POINT('',(0.322328663682,1.447838549381));
#874 = CARTESIAN_POINT('',(0.336216283639,1.487494307402));
#875 = CARTESIAN_POINT('',(0.349494994177,1.528597265185));
#876 = CARTESIAN_POINT('',(0.362160447591,1.571029915026));
#877 = CARTESIAN_POINT('',(0.388407984801,1.666151143657));
#878 = CARTESIAN_POINT('',(0.401751761272,1.71932553517));
#879 = CARTESIAN_POINT('',(0.414229941975,1.774044017556));
#880 = CARTESIAN_POINT('',(0.425830783263,1.830157719762));
#881 = CARTESIAN_POINT('',(0.436540732922,1.887537413928));
#882 = CARTESIAN_POINT('',(0.466039950677,2.063659361884));
#883 = CARTESIAN_POINT('',(0.482116655925,2.186129284166));
#884 = CARTESIAN_POINT('',(0.494348713741,2.312138142994));
#885 = CARTESIAN_POINT('',(0.502573862915,2.440499882303));
#886 = CARTESIAN_POINT('',(0.506699520255,2.57013651281));
#887 = CARTESIAN_POINT('',(0.506699520255,2.767943988612));
#888 = CARTESIAN_POINT('',(0.505570179828,2.835876208608));
#889 = CARTESIAN_POINT('',(0.503312107982,2.903625595718));
#890 = CARTESIAN_POINT('',(0.499933323639,2.971017032978));
#891 = CARTESIAN_POINT('',(0.495449200464,3.037871111417));
#892 = CARTESIAN_POINT('',(0.484754254759,3.164925776506));
#893 = CARTESIAN_POINT('',(0.478707603632,3.225232156222));
#894 = CARTESIAN_POINT('',(0.471757196288,3.284815495018));
#895 = CARTESIAN_POINT('',(0.463919525041,3.343560356682));
#896 = CARTESIAN_POINT('',(0.455212555037,3.401342958336));
#897 = CARTESIAN_POINT('',(0.427331581215,3.566718240928));
#898 = CARTESIAN_POINT('',(0.405887620088,3.671350685177));
#899 = CARTESIAN_POINT('',(0.381418124367,3.771256489704));
#900 = CARTESIAN_POINT('',(0.35398610815,3.865555564143));
#901 = CARTESIAN_POINT('',(0.323635324626,3.953064746332));
#902 = CARTESIAN_POINT('',(0.278499183116,4.060517002808));
#903 = CARTESIAN_POINT('',(0.266227621219,4.08777512867));
#904 = CARTESIAN_POINT('',(0.253590821371,4.113876584243));
#905 = CARTESIAN_POINT('',(0.24059532272,4.138732814254));
#906 = CARTESIAN_POINT('',(0.227248051053,4.162251650899));
#907 = CARTESIAN_POINT('',(0.181691379669,4.235737552422));
#908 = CARTESIAN_POINT('',(0.147722985402,4.279758050213));
#909 = CARTESIAN_POINT('',(0.112093230129,4.314322291963));
#910 = CARTESIAN_POINT('',(7.527841875161E-02,4.338017668598));
#911 = CARTESIAN_POINT('',(3.775223475585E-02,4.35));
#912 = CARTESIAN_POINT('',(0.,4.35));
#913 = ( GEOMETRIC_REPRESENTATION_CONTEXT(2) 
PARAMETRIC_REPRESENTATION_CONTEXT() REPRESENTATION_CONTEXT('2D SPACE',''
  ) );
#914 = ORIENTED_EDGE('',*,*,#549,.T.);
#915 = ORIENTED_EDGE('',*,*,#916,.F.);
#916 = EDGE_CURVE('',#272,#526,#917,.T.);
#917 = SURFACE_CURVE('',#918,(#923,#930),.PCURVE_S1.);
#918 = CIRCLE('',#919,1.65);
#919 = AXIS2_PLACEMENT_3D('',#920,#921,#922);
#920 = CARTESIAN_POINT('',(8.45,0.,0.));
#921 = DIRECTION('',(1.,0.,0.));
#922 = DIRECTION('',(-0.,0.,1.));
#923 = PCURVE('',#108,#924);
#924 = DEFINITIONAL_REPRESENTATION('',(#925),#929);
#925 = LINE('',#926,#927);
#926 = CARTESIAN_POINT('',(0.,6.45));
#927 = VECTOR('',#928,1.);
#928 = DIRECTION('',(1.,0.));
#929 = ( GEOMETRIC_REPRESENTATION_CONTEXT(2) 
PARAMETRIC_REPRESENTATION_CONTEXT() REPRESENTATION_CONTEXT('2D SPACE',''
  ) );
#930 = PCURVE('',#158,#931);
#931 = DEFINITIONAL_REPRESENTATION('',(#932),#936);
#932 = CIRCLE('',#933,1.65);
#933 = AXIS2_PLACEMENT_2D('',#934,#935);
#934 = CARTESIAN_POINT('',(0.,0.));
#935 = DIRECTION('',(1.,0.));
#936 = ( GEOMETRIC_REPRESENTATION_CONTEXT(2) 
PARAMETRIC_REPRESENTATION_CONTEXT() REPRESENTATION_CONTEXT('2D SPACE',''
  ) );
#937 = ORIENTED_EDGE('',*,*,#292,.F.);
#938 = ORIENTED_EDGE('',*,*,#939,.F.);
#939 = EDGE_CURVE('',#42,#293,#940,.T.);
#940 = SURFACE_CURVE('',#941,(#946,#953),.PCURVE_S1.);
#941 = CIRCLE('',#942,1.65);
#942 = AXIS2_PLACEMENT_3D('',#943,#944,#945);
#943 = CARTESIAN_POINT('',(8.45,0.,0.));
#944 = DIRECTION('',(1.,0.,0.));
#945 = DIRECTION('',(-0.,0.,1.));
#946 = PCURVE('',#108,#947);
#947 = DEFINITIONAL_REPRESENTATION('',(#948),#952);
#948 = LINE('',#949,#950);
#949 = CARTESIAN_POINT('',(0.,6.45));
#950 = VECTOR('',#951,1.);
#951 = DIRECTION('',(1.,0.));
#952 = ( GEOMETRIC_REPRESENTATION_CONTEXT(2) 
PARAMETRIC_REPRESENTATION_CONTEXT() REPRESENTATION_CONTEXT('2D SPACE',''
  ) );
#953 = PCURVE('',#158,#954);
#954 = DEFINITIONAL_REPRESENTATION('',(#955),#959);
#955 = CIRCLE('',#956,1.65);
#956 = AXIS2_PLACEMENT_2D('',#957,#958);
#957 = CARTESIAN_POINT('',(0.,0.));
#958 = DIRECTION('',(1.,0.));
#959 = ( GEOMETRIC_REPRESENTATION_CONTEXT(2) 
PARAMETRIC_REPRESENTATION_CONTEXT() REPRESENTATION_CONTEXT('2D SPACE',''
  ) );
#960 = ADVANCED_FACE('',(#961,#1014),#158,.F.);
#961 = FACE_BOUND('',#962,.F.);
#962 = EDGE_LOOP('',(#963,#964,#986,#987,#988,#989,#1011,#1012,#1013));
#963 = ORIENTED_EDGE('',*,*,#143,.T.);
#964 = ORIENTED_EDGE('',*,*,#965,.T.);
#965 = EDGE_CURVE('',#144,#468,#966,.T.);
#966 = SURFACE_CURVE('',#967,(#972,#979),.PCURVE_S1.);
#967 = CIRCLE('',#968,2.5);
#968 = AXIS2_PLACEMENT_3D('',#969,#970,#971);
#969 = CARTESIAN_POINT('',(8.45,0.,0.));
#970 = DIRECTION('',(1.,0.,0.));
#971 = DIRECTION('',(-0.,0.,1.));
#972 = PCURVE('',#158,#973);
#973 = DEFINITIONAL_REPRESENTATION('',(#974),#978);
#974 = CIRCLE('',#975,2.5);
#975 = AXIS2_PLACEMENT_2D('',#976,#977);
#976 = CARTESIAN_POINT('',(0.,0.));
#977 = DIRECTION('',(1.,0.));
#978 = ( GEOMETRIC_REPRESENTATION_CONTEXT(2) 
PARAMETRIC_REPRESENTATION_CONTEXT() REPRESENTATION_CONTEXT('2D SPACE',''
  ) );
#979 = PCURVE('',#193,#980);
#980 = DEFINITIONAL_REPRESENTATION('',(#981),#985);
#981 = LINE('',#982,#983);
#982 = CARTESIAN_POINT('',(0.,0.));
#983 = VECTOR('',#984,1.);
#984 = DIRECTION('',(1.,0.));
#985 = ( GEOMETRIC_REPRESENTATION_CONTEXT(2) 
PARAMETRIC_REPRESENTATION_CONTEXT() REPRESENTATION_CONTEXT('2D SPACE',''
  ) );
#986 = ORIENTED_EDGE('',*,*,#502,.T.);
#987 = ORIENTED_EDGE('',*,*,#939,.T.);
#988 = ORIENTED_EDGE('',*,*,#384,.F.);
#989 = ORIENTED_EDGE('',*,*,#990,.T.);
#990 = EDGE_CURVE('',#385,#237,#991,.T.);
#991 = SURFACE_CURVE('',#992,(#997,#1004),.PCURVE_S1.);
#992 = CIRCLE('',#993,2.5);
#993 = AXIS2_PLACEMENT_3D('',#994,#995,#996);
#994 = CARTESIAN_POINT('',(8.45,0.,0.));
#995 = DIRECTION('',(1.,0.,0.));
#996 = DIRECTION('',(-0.,0.,1.));
#997 = PCURVE('',#158,#998);
#998 = DEFINITIONAL_REPRESENTATION('',(#999),#1003);
#999 = CIRCLE('',#1000,2.5);
#1000 = AXIS2_PLACEMENT_2D('',#1001,#1002);
#1001 = CARTESIAN_POINT('',(0.,0.));
#1002 = DIRECTION('',(1.,0.));
#1003 = ( GEOMETRIC_REPRESENTATION_CONTEXT(2) 
PARAMETRIC_REPRESENTATION_CONTEXT() REPRESENTATION_CONTEXT('2D SPACE',''
  ) );
#1004 = PCURVE('',#193,#1005);
#1005 = DEFINITIONAL_REPRESENTATION('',(#1006),#1010);
#1006 = LINE('',#1007,#1008);
#1007 = CARTESIAN_POINT('',(0.,0.));
#1008 = VECTOR('',#1009,1.);
#1009 = DIRECTION('',(1.,0.));
#1010 = ( GEOMETRIC_REPRESENTATION_CONTEXT(2) 
PARAMETRIC_REPRESENTATION_CONTEXT() REPRESENTATION_CONTEXT('2D SPACE',''
  ) );
#1011 = ORIENTED_EDGE('',*,*,#271,.F.);
#1012 = ORIENTED_EDGE('',*,*,#916,.T.);
#1013 = ORIENTED_EDGE('',*,*,#525,.T.);
#1014 = FACE_BOUND('',#1015,.F.);
#1015 = EDGE_LOOP('',(#1016));
#1016 = ORIENTED_EDGE('',*,*,#1017,.F.);
#1017 = EDGE_CURVE('',#1018,#1018,#1020,.T.);
#1018 = VERTEX_POINT('',#1019);
#1019 = CARTESIAN_POINT('',(8.45,3.061616997868E-16,1.25));
#1020 = SURFACE_CURVE('',#1021,(#1026,#1033),.PCURVE_S1.);
#1021 = CIRCLE('',#1022,1.25);
#1022 = AXIS2_PLACEMENT_3D('',#1023,#1024,#1025);
#1023 = CARTESIAN_POINT('',(8.45,0.,0.));
#1024 = DIRECTION('',(1.,0.,0.));
#1025 = DIRECTION('',(-0.,0.,1.));
#1026 = PCURVE('',#158,#1027);
#1027 = DEFINITIONAL_REPRESENTATION('',(#1028),#1032);
#1028 = CIRCLE('',#1029,1.25);
#1029 = AXIS2_PLACEMENT_2D('',#1030,#1031);
#1030 = CARTESIAN_POINT('',(0.,0.));
#1031 = DIRECTION('',(1.,0.));
#1032 = ( GEOMETRIC_REPRESENTATION_CONTEXT(2) 
PARAMETRIC_REPRESENTATION_CONTEXT() REPRESENTATION_CONTEXT('2D SPACE',''
  ) );
#1033 = PCURVE('',#1034,#1039);
#1034 = CYLINDRICAL_SURFACE('',#1035,1.25);
#1035 = AXIS2_PLACEMENT_3D('',#1036,#1037,#1038);
#1036 = CARTESIAN_POINT('',(8.25,0.,0.));
#1037 = DIRECTION('',(1.,0.,0.));
#1038 = DIRECTION('',(-0.,0.,1.));
#1039 = DEFINITIONAL_REPRESENTATION('',(#1040),#1044);
#1040 = LINE('',#1041,#1042);
#1041 = CARTESIAN_POINT('',(0.,0.2));
#1042 = VECTOR('',#1043,1.);
#1043 = DIRECTION('',(1.,0.));
#1044 = ( GEOMETRIC_REPRESENTATION_CONTEXT(2) 
PARAMETRIC_REPRESENTATION_CONTEXT() REPRESENTATION_CONTEXT('2D SPACE',''
  ) );
#1045 = ADVANCED_FACE('',(#1046),#193,.T.);
#1046 = FACE_BOUND('',#1047,.T.);
#1047 = EDGE_LOOP('',(#1048,#1071,#1098,#1099,#1100,#1101,#1102,#1103,
    #1104));
#1048 = ORIENTED_EDGE('',*,*,#1049,.T.);
#1049 = EDGE_CURVE('',#170,#1050,#1052,.T.);
#1050 = VERTEX_POINT('',#1051);
#1051 = CARTESIAN_POINT('',(11.2,6.123233995737E-16,2.5));
#1052 = SEAM_CURVE('',#1053,(#1057,#1064),.PCURVE_S1.);
#1053 = LINE('',#1054,#1055);
#1054 = CARTESIAN_POINT('',(8.45,6.123233995737E-16,2.5));
#1055 = VECTOR('',#1056,1.);
#1056 = DIRECTION('',(1.,0.,0.));
#1057 = PCURVE('',#193,#1058);
#1058 = DEFINITIONAL_REPRESENTATION('',(#1059),#1063);
#1059 = LINE('',#1060,#1061);
#1060 = CARTESIAN_POINT('',(6.28318530718,-0.));
#1061 = VECTOR('',#1062,1.);
#1062 = DIRECTION('',(0.,1.));
#1063 = ( GEOMETRIC_REPRESENTATION_CONTEXT(2) 
PARAMETRIC_REPRESENTATION_CONTEXT() REPRESENTATION_CONTEXT('2D SPACE',''
  ) );
#1064 = PCURVE('',#193,#1065);
#1065 = DEFINITIONAL_REPRESENTATION('',(#1066),#1070);
#1066 = LINE('',#1067,#1068);
#1067 = CARTESIAN_POINT('',(0.,-0.));
#1068 = VECTOR('',#1069,1.);
#1069 = DIRECTION('',(0.,1.));
#1070 = ( GEOMETRIC_REPRESENTATION_CONTEXT(2) 
PARAMETRIC_REPRESENTATION_CONTEXT() REPRESENTATION_CONTEXT('2D SPACE',''
  ) );
#1071 = ORIENTED_EDGE('',*,*,#1072,.F.);
#1072 = EDGE_CURVE('',#1050,#1050,#1073,.T.);
#1073 = SURFACE_CURVE('',#1074,(#1079,#1086),.PCURVE_S1.);
#1074 = CIRCLE('',#1075,2.5);
#1075 = AXIS2_PLACEMENT_3D('',#1076,#1077,#1078);
#1076 = CARTESIAN_POINT('',(11.2,0.,0.));
#1077 = DIRECTION('',(1.,0.,0.));
#1078 = DIRECTION('',(-0.,0.,1.));
#1079 = PCURVE('',#193,#1080);
#1080 = DEFINITIONAL_REPRESENTATION('',(#1081),#1085);
#1081 = LINE('',#1082,#1083);
#1082 = CARTESIAN_POINT('',(0.,2.75));
#1083 = VECTOR('',#1084,1.);
#1084 = DIRECTION('',(1.,0.));
#1085 = ( GEOMETRIC_REPRESENTATION_CONTEXT(2) 
PARAMETRIC_REPRESENTATION_CONTEXT() REPRESENTATION_CONTEXT('2D SPACE',''
  ) );
#1086 = PCURVE('',#1087,#1092);
#1087 = PLANE('',#1088);
#1088 = AXIS2_PLACEMENT_3D('',#1089,#1090,#1091);
#1089 = CARTESIAN_POINT('',(11.2,0.,0.));
#1090 = DIRECTION('',(1.,0.,0.));
#1091 = DIRECTION('',(-0.,0.,1.));
#1092 = DEFINITIONAL_REPRESENTATION('',(#1093),#1097);
#1093 = CIRCLE('',#1094,2.5);
#1094 = AXIS2_PLACEMENT_2D('',#1095,#1096);
#1095 = CARTESIAN_POINT('',(0.,0.));
#1096 = DIRECTION('',(1.,0.));
#1097 = ( GEOMETRIC_REPRESENTATION_CONTEXT(2) 
PARAMETRIC_REPRESENTATION_CONTEXT() REPRESENTATION_CONTEXT('2D SPACE',''
  ) );
#1098 = ORIENTED_EDGE('',*,*,#1049,.F.);
#1099 = ORIENTED_EDGE('',*,*,#169,.T.);
#1100 = ORIENTED_EDGE('',*,*,#965,.T.);
#1101 = ORIENTED_EDGE('',*,*,#467,.T.);
#1102 = ORIENTED_EDGE('',*,*,#405,.T.);
#1103 = ORIENTED_EDGE('',*,*,#990,.T.);
#1104 = ORIENTED_EDGE('',*,*,#236,.T.);
#1105 = ADVANCED_FACE('',(#1106,#1109),#455,.F.);
#1106 = FACE_BOUND('',#1107,.F.);
#1107 = EDGE_LOOP('',(#1108));
#1108 = ORIENTED_EDGE('',*,*,#440,.T.);
#1109 = FACE_BOUND('',#1110,.F.);
#1110 = EDGE_LOOP('',(#1111));
#1111 = ORIENTED_EDGE('',*,*,#1112,.F.);
#1112 = EDGE_CURVE('',#1113,#1113,#1115,.T.);
#1113 = VERTEX_POINT('',#1114);
#1114 = CARTESIAN_POINT('',(3.4,-8.327598234202E-16,-2.5));
#1115 = SURFACE_CURVE('',#1116,(#1121,#1128),.PCURVE_S1.);
#1116 = CIRCLE('',#1117,3.4);
#1117 = AXIS2_PLACEMENT_3D('',#1118,#1119,#1120);
#1118 = CARTESIAN_POINT('',(0.,0.,-2.5));
#1119 = DIRECTION('',(0.,0.,1.));
#1120 = DIRECTION('',(1.,0.,-0.));
#1121 = PCURVE('',#455,#1122);
#1122 = DEFINITIONAL_REPRESENTATION('',(#1123),#1127);
#1123 = CIRCLE('',#1124,3.4);
#1124 = AXIS2_PLACEMENT_2D('',#1125,#1126);
#1125 = CARTESIAN_POINT('',(0.,0.));
#1126 = DIRECTION('',(1.,0.));
#1127 = ( GEOMETRIC_REPRESENTATION_CONTEXT(2) 
PARAMETRIC_REPRESENTATION_CONTEXT() REPRESENTATION_CONTEXT('2D SPACE',''
  ) );
#1128 = PCURVE('',#686,#1129);
#1129 = DEFINITIONAL_REPRESENTATION('',(#1130),#1134);
#1130 = LINE('',#1131,#1132);
#1131 = CARTESIAN_POINT('',(0.,0.2));
#1132 = VECTOR('',#1133,1.);
#1133 = DIRECTION('',(1.,0.));
#1134 = ( GEOMETRIC_REPRESENTATION_CONTEXT(2) 
PARAMETRIC_REPRESENTATION_CONTEXT() REPRESENTATION_CONTEXT('2D SPACE',''
  ) );
#1135 = ADVANCED_FACE('',(#1136,#1139),#224,.T.);
#1136 = FACE_BOUND('',#1137,.T.);
#1137 = EDGE_LOOP('',(#1138));
#1138 = ORIENTED_EDGE('',*,*,#209,.T.);
#1139 = FACE_BOUND('',#1140,.T.);
#1140 = EDGE_LOOP('',(#1141));
#1141 = ORIENTED_EDGE('',*,*,#1142,.F.);
#1142 = EDGE_CURVE('',#1143,#1143,#1145,.T.);
#1143 = VERTEX_POINT('',#1144);
#1144 = CARTESIAN_POINT('',(3.4,-8.327598234202E-16,2.5));
#1145 = SURFACE_CURVE('',#1146,(#1151,#1158),.PCURVE_S1.);
#1146 = CIRCLE('',#1147,3.4);
#1147 = AXIS2_PLACEMENT_3D('',#1148,#1149,#1150);
#1148 = CARTESIAN_POINT('',(0.,0.,2.5));
#1149 = DIRECTION('',(0.,0.,1.));
#1150 = DIRECTION('',(1.,0.,-0.));
#1151 = PCURVE('',#224,#1152);
#1152 = DEFINITIONAL_REPRESENTATION('',(#1153),#1157);
#1153 = CIRCLE('',#1154,3.4);
#1154 = AXIS2_PLACEMENT_2D('',#1155,#1156);
#1155 = CARTESIAN_POINT('',(0.,0.));
#1156 = DIRECTION('',(1.,0.));
#1157 = ( GEOMETRIC_REPRESENTATION_CONTEXT(2) 
PARAMETRIC_REPRESENTATION_CONTEXT() REPRESENTATION_CONTEXT('2D SPACE',''
  ) );
#1158 = PCURVE('',#686,#1159);
#1159 = DEFINITIONAL_REPRESENTATION('',(#1160),#1164);
#1160 = LINE('',#1161,#1162);
#1161 = CARTESIAN_POINT('',(0.,5.2));
#1162 = VECTOR('',#1163,1.);
#1163 = DIRECTION('',(1.,0.));
#1164 = ( GEOMETRIC_REPRESENTATION_CONTEXT(2) 
PARAMETRIC_REPRESENTATION_CONTEXT() REPRESENTATION_CONTEXT('2D SPACE',''
  ) );
#1165 = ADVANCED_FACE('',(#1166),#686,.F.);
#1166 = FACE_BOUND('',#1167,.F.);
#1167 = EDGE_LOOP('',(#1168,#1189,#1190,#1191,#1192,#1213,#1214,#1215));
#1168 = ORIENTED_EDGE('',*,*,#1169,.T.);
#1169 = EDGE_CURVE('',#550,#1143,#1170,.T.);
#1170 = SEAM_CURVE('',#1171,(#1175,#1182),.PCURVE_S1.);
#1171 = LINE('',#1172,#1173);
#1172 = CARTESIAN_POINT('',(3.4,-8.327598234202E-16,-2.7));
#1173 = VECTOR('',#1174,1.);
#1174 = DIRECTION('',(0.,0.,1.));
#1175 = PCURVE('',#686,#1176);
#1176 = DEFINITIONAL_REPRESENTATION('',(#1177),#1181);
#1177 = LINE('',#1178,#1179);
#1178 = CARTESIAN_POINT('',(6.28318530718,-0.));
#1179 = VECTOR('',#1180,1.);
#1180 = DIRECTION('',(0.,1.));
#1181 = ( GEOMETRIC_REPRESENTATION_CONTEXT(2) 
PARAMETRIC_REPRESENTATION_CONTEXT() REPRESENTATION_CONTEXT('2D SPACE',''
  ) );
#1182 = PCURVE('',#686,#1183);
#1183 = DEFINITIONAL_REPRESENTATION('',(#1184),#1188);
#1184 = LINE('',#1185,#1186);
#1185 = CARTESIAN_POINT('',(0.,-0.));
#1186 = VECTOR('',#1187,1.);
#1187 = DIRECTION('',(0.,1.));
#1188 = ( GEOMETRIC_REPRESENTATION_CONTEXT(2) 
PARAMETRIC_REPRESENTATION_CONTEXT() REPRESENTATION_CONTEXT('2D SPACE',''
  ) );
#1189 = ORIENTED_EDGE('',*,*,#1142,.F.);
#1190 = ORIENTED_EDGE('',*,*,#1169,.F.);
#1191 = ORIENTED_EDGE('',*,*,#747,.F.);
#1192 = ORIENTED_EDGE('',*,*,#1193,.F.);
#1193 = EDGE_CURVE('',#1113,#573,#1194,.T.);
#1194 = SEAM_CURVE('',#1195,(#1199,#1206),.PCURVE_S1.);
#1195 = LINE('',#1196,#1197);
#1196 = CARTESIAN_POINT('',(3.4,-8.327598234202E-16,-2.7));
#1197 = VECTOR('',#1198,1.);
#1198 = DIRECTION('',(0.,0.,1.));
#1199 = PCURVE('',#686,#1200);
#1200 = DEFINITIONAL_REPRESENTATION('',(#1201),#1205);
#1201 = LINE('',#1202,#1203);
#1202 = CARTESIAN_POINT('',(6.28318530718,-0.));
#1203 = VECTOR('',#1204,1.);
#1204 = DIRECTION('',(0.,1.));
#1205 = ( GEOMETRIC_REPRESENTATION_CONTEXT(2) 
PARAMETRIC_REPRESENTATION_CONTEXT() REPRESENTATION_CONTEXT('2D SPACE',''
  ) );
#1206 = PCURVE('',#686,#1207);
#1207 = DEFINITIONAL_REPRESENTATION('',(#1208),#1212);
#1208 = LINE('',#1209,#1210);
#1209 = CARTESIAN_POINT('',(0.,-0.));
#1210 = VECTOR('',#1211,1.);
#1211 = DIRECTION('',(0.,1.));
#1212 = ( GEOMETRIC_REPRESENTATION_CONTEXT(2) 
PARAMETRIC_REPRESENTATION_CONTEXT() REPRESENTATION_CONTEXT('2D SPACE',''
  ) );
#1213 = ORIENTED_EDGE('',*,*,#1112,.T.);
#1214 = ORIENTED_EDGE('',*,*,#1193,.T.);
#1215 = ORIENTED_EDGE('',*,*,#572,.F.);
#1216 = ADVANCED_FACE('',(#1217),#1034,.F.);
#1217 = FACE_BOUND('',#1218,.F.);
#1218 = EDGE_LOOP('',(#1219,#1243,#1264,#1265));
#1219 = ORIENTED_EDGE('',*,*,#1220,.F.);
#1220 = EDGE_CURVE('',#1221,#1221,#1223,.T.);
#1221 = VERTEX_POINT('',#1222);
#1222 = CARTESIAN_POINT('',(11.2,3.061616997868E-16,1.25));
#1223 = SURFACE_CURVE('',#1224,(#1229,#1236),.PCURVE_S1.);
#1224 = CIRCLE('',#1225,1.25);
#1225 = AXIS2_PLACEMENT_3D('',#1226,#1227,#1228);
#1226 = CARTESIAN_POINT('',(11.2,0.,0.));
#1227 = DIRECTION('',(1.,0.,0.));
#1228 = DIRECTION('',(-0.,0.,1.));
#1229 = PCURVE('',#1034,#1230);
#1230 = DEFINITIONAL_REPRESENTATION('',(#1231),#1235);
#1231 = LINE('',#1232,#1233);
#1232 = CARTESIAN_POINT('',(0.,2.95));
#1233 = VECTOR('',#1234,1.);
#1234 = DIRECTION('',(1.,0.));
#1235 = ( GEOMETRIC_REPRESENTATION_CONTEXT(2) 
PARAMETRIC_REPRESENTATION_CONTEXT() REPRESENTATION_CONTEXT('2D SPACE',''
  ) );
#1236 = PCURVE('',#1087,#1237);
#1237 = DEFINITIONAL_REPRESENTATION('',(#1238),#1242);
#1238 = CIRCLE('',#1239,1.25);
#1239 = AXIS2_PLACEMENT_2D('',#1240,#1241);
#1240 = CARTESIAN_POINT('',(0.,0.));
#1241 = DIRECTION('',(1.,0.));
#1242 = ( GEOMETRIC_REPRESENTATION_CONTEXT(2) 
PARAMETRIC_REPRESENTATION_CONTEXT() REPRESENTATION_CONTEXT('2D SPACE',''
  ) );
#1243 = ORIENTED_EDGE('',*,*,#1244,.F.);
#1244 = EDGE_CURVE('',#1018,#1221,#1245,.T.);
#1245 = SEAM_CURVE('',#1246,(#1250,#1257),.PCURVE_S1.);
#1246 = LINE('',#1247,#1248);
#1247 = CARTESIAN_POINT('',(8.25,3.061616997868E-16,1.25));
#1248 = VECTOR('',#1249,1.);
#1249 = DIRECTION('',(1.,0.,0.));
#1250 = PCURVE('',#1034,#1251);
#1251 = DEFINITIONAL_REPRESENTATION('',(#1252),#1256);
#1252 = LINE('',#1253,#1254);
#1253 = CARTESIAN_POINT('',(6.28318530718,-0.));
#1254 = VECTOR('',#1255,1.);
#1255 = DIRECTION('',(0.,1.));
#1256 = ( GEOMETRIC_REPRESENTATION_CONTEXT(2) 
PARAMETRIC_REPRESENTATION_CONTEXT() REPRESENTATION_CONTEXT('2D SPACE',''
  ) );
#1257 = PCURVE('',#1034,#1258);
#1258 = DEFINITIONAL_REPRESENTATION('',(#1259),#1263);
#1259 = LINE('',#1260,#1261);
#1260 = CARTESIAN_POINT('',(0.,-0.));
#1261 = VECTOR('',#1262,1.);
#1262 = DIRECTION('',(0.,1.));
#1263 = ( GEOMETRIC_REPRESENTATION_CONTEXT(2) 
PARAMETRIC_REPRESENTATION_CONTEXT() REPRESENTATION_CONTEXT('2D SPACE',''
  ) );
#1264 = ORIENTED_EDGE('',*,*,#1017,.T.);
#1265 = ORIENTED_EDGE('',*,*,#1244,.T.);
#1266 = ADVANCED_FACE('',(#1267,#1270),#1087,.T.);
#1267 = FACE_BOUND('',#1268,.T.);
#1268 = EDGE_LOOP('',(#1269));
#1269 = ORIENTED_EDGE('',*,*,#1072,.T.);
#1270 = FACE_BOUND('',#1271,.T.);
#1271 = EDGE_LOOP('',(#1272));
#1272 = ORIENTED_EDGE('',*,*,#1220,.F.);
#1273 = ( GEOMETRIC_REPRESENTATION_CONTEXT(3) 
GLOBAL_UNCERTAINTY_ASSIGNED_CONTEXT((#1277)) 
GLOBAL_UNIT_ASSIGNED_CONTEXT((#1274,#1275,#1276)) REPRESENTATION_CONTEXT
('Context #1','3D Context with UNIT and UNCERTAINTY') );
#1274 = ( LENGTH_UNIT() NAMED_UNIT(*) SI_UNIT(.MILLI.,.METRE.) );
#1275 = ( NAMED_UNIT(*) PLANE_ANGLE_UNIT() SI_UNIT($,.RADIAN.) );
#1276 = ( NAMED_UNIT(*) SI_UNIT($,.STERADIAN.) SOLID_ANGLE_UNIT() );
#1277 = UNCERTAINTY_MEASURE_WITH_UNIT(LENGTH_MEASURE(1.E-07),#1274,
  'distance_accuracy_value','confusion accuracy');
#1278 = CONTEXT_DEPENDENT_SHAPE_REPRESENTATION(#1279,#1281);
#1279 = ( REPRESENTATION_RELATIONSHIP('','',#32,#10) 
REPRESENTATION_RELATIONSHIP_WITH_TRANSFORMATION(#1280) 
SHAPE_REPRESENTATION_RELATIONSHIP() );
#1280 = ITEM_DEFINED_TRANSFORMATION('','',#11,#15);
#1281 = PRODUCT_DEFINITION_SHAPE('Placement','Placement of an item',
  #1282);
#1282 = NEXT_ASSEMBLY_USAGE_OCCURRENCE('14',
'BACKUP_SPRING_AFT_FIXED_SEAT_WITH_LONGERON_MOUNTING_TONGUE_TI_STOWED_
LOCAL_DEFINITION','',#5,#27,$);
#1283 = PRODUCT_RELATED_PRODUCT_CATEGORY('part',$,(#29));
#1284 = MECHANICAL_DESIGN_GEOMETRIC_PRESENTATION_REPRESENTATION('',(
    #1285),#1273);
#1285 = STYLED_ITEM('color',(#1286),#33);
#1286 = PRESENTATION_STYLE_ASSIGNMENT((#1287));
#1287 = SURFACE_STYLE_USAGE(.BOTH.,#1288);
#1288 = SURFACE_SIDE_STYLE('',(#1289));
#1289 = SURFACE_STYLE_FILL_AREA(#1290);
#1290 = FILL_AREA_STYLE('',(#1291));
#1291 = FILL_AREA_STYLE_COLOUR('',#1292);
#1292 = COLOUR_RGB('',0.530000000233,0.590000005974,0.640000008347);
ENDSEC;
END-ISO-10303-21;
