ISO-10303-21;
HEADER;
FILE_DESCRIPTION(('Open CASCADE Model'),'2;1');
FILE_NAME('Open CASCADE Shape Model','2026-08-26T03:22:02',('Author'),(
    'Open CASCADE'),'Open CASCADE STEP processor 7.9','Open CASCADE 7.9'
  ,'Unknown');
FILE_SCHEMA((
'AP242_MANAGED_MODEL_BASED_3D_ENGINEERING_MIM_LF {1 0 10303 442 1 1 4 }'
    ));
ENDSEC;
DATA;
#1 = APPLICATION_PROTOCOL_DEFINITION('international standard',
  'ap242_managed_model_based_3d_engineering',2013,#2);
#2 = APPLICATION_CONTEXT('Managed model based 3d engineering');
#3 = SHAPE_DEFINITION_REPRESENTATION(#4,#10);
#4 = PRODUCT_DEFINITION_SHAPE('','',#5);
#5 = PRODUCT_DEFINITION('design','',#6,#9);
#6 = PRODUCT_DEFINITION_FORMATION('','',#7);
#7 = PRODUCT(
  'SHORTENED_PRIMARY_LONGERON_3_WITH_BACKUP-GUIDE_BORES_TI_STOWED_PART',
  'SHORTENED_PRIMARY_LONGERON_3_WITH_BACKUP-GUIDE_BORES_TI_STOWED_PART',
  '',(#8));
#8 = PRODUCT_CONTEXT('',#2,'mechanical');
#9 = PRODUCT_DEFINITION_CONTEXT('part definition',#2,'design');
#10 = SHAPE_REPRESENTATION('',(#11,#15),#19);
#11 = AXIS2_PLACEMENT_3D('',#12,#13,#14);
#12 = CARTESIAN_POINT('',(0.,0.,0.));
#13 = DIRECTION('',(0.,0.,1.));
#14 = DIRECTION('',(1.,0.,-0.));
#15 = AXIS2_PLACEMENT_3D('',#16,#17,#18);
#16 = CARTESIAN_POINT('',(0.,0.,0.));
#17 = DIRECTION('',(0.,0.,1.));
#18 = DIRECTION('',(1.,0.,-0.));
#19 = ( GEOMETRIC_REPRESENTATION_CONTEXT(3) 
GLOBAL_UNCERTAINTY_ASSIGNED_CONTEXT((#23)) GLOBAL_UNIT_ASSIGNED_CONTEXT(
(#20,#21,#22)) REPRESENTATION_CONTEXT('Context #1',
  '3D Context with UNIT and UNCERTAINTY') );
#20 = ( LENGTH_UNIT() NAMED_UNIT(*) SI_UNIT(.MILLI.,.METRE.) );
#21 = ( NAMED_UNIT(*) PLANE_ANGLE_UNIT() SI_UNIT($,.RADIAN.) );
#22 = ( NAMED_UNIT(*) SI_UNIT($,.STERADIAN.) SOLID_ANGLE_UNIT() );
#23 = UNCERTAINTY_MEASURE_WITH_UNIT(LENGTH_MEASURE(1.E-07),#20,
  'distance_accuracy_value','confusion accuracy');
#24 = PRODUCT_RELATED_PRODUCT_CATEGORY('part',$,(#7));
#25 = SHAPE_DEFINITION_REPRESENTATION(#26,#32);
#26 = PRODUCT_DEFINITION_SHAPE('','',#27);
#27 = PRODUCT_DEFINITION('design','',#28,#31);
#28 = PRODUCT_DEFINITION_FORMATION('','',#29);
#29 = PRODUCT(
'SHORTENED_PRIMARY_LONGERON_3_WITH_BACKUP-GUIDE_BORES_TI_STOWED_LOCAL_
DEFINITION',
'SHORTENED_PRIMARY_LONGERON_3_WITH_BACKUP-GUIDE_BORES_TI_STOWED_LOCAL_
DEFINITION','',(#30));
#30 = PRODUCT_CONTEXT('',#2,'mechanical');
#31 = PRODUCT_DEFINITION_CONTEXT('part definition',#2,'design');
#32 = ADVANCED_BREP_SHAPE_REPRESENTATION('',(#11,#33),#1239);
#33 = MANIFOLD_SOLID_BREP('',#34);
#34 = CLOSED_SHELL('',(#35,#575,#808,#1112,#1155,#1180,#1205,#1212));
#35 = ADVANCED_FACE('',(#36,#250,#366),#95,.T.);
#36 = FACE_BOUND('',#37,.T.);
#37 = EDGE_LOOP('',(#38));
#38 = ORIENTED_EDGE('',*,*,#39,.T.);
#39 = EDGE_CURVE('',#40,#40,#42,.T.);
#40 = VERTEX_POINT('',#41);
#41 = CARTESIAN_POINT('',(24.2,-2.651360320154E-15,14.3));
#42 = SURFACE_CURVE('',#43,(#94,#172),.PCURVE_S1.);
#43 = B_SPLINE_CURVE_WITH_KNOTS('',7,(#44,#45,#46,#47,#48,#49,#50,#51,
    #52,#53,#54,#55,#56,#57,#58,#59,#60,#61,#62,#63,#64,#65,#66,#67,#68,
    #69,#70,#71,#72,#73,#74,#75,#76,#77,#78,#79,#80,#81,#82,#83,#84,#85,
    #86,#87,#88,#89,#90,#91,#92,#93),.UNSPECIFIED.,.T.,.F.,(8,6,6,6,6,6,
    6,6,8),(0.,0.248746647207,0.499975932762,0.751204600292,1.,
    1.248743055856,1.499968714214,1.751193754557,1.999985562209),
  .UNSPECIFIED.);
#44 = CARTESIAN_POINT('',(24.2,1.4447124189E-15,14.3));
#45 = CARTESIAN_POINT('',(24.2,0.347112634161,14.3));
#46 = CARTESIAN_POINT('',(24.194191335624,0.683829227073,14.244875870753
    ));
#47 = CARTESIAN_POINT('',(24.183200713003,1.000199241599,14.140565826515
    ));
#48 = CARTESIAN_POINT('',(24.168614898368,1.288185919399,13.994739915612
    ));
#49 = CARTESIAN_POINT('',(24.152524801555,1.54186238546,13.816740647266)
  );
#50 = CARTESIAN_POINT('',(24.136727830884,1.757965661378,13.61744245137)
  );
#51 = CARTESIAN_POINT('',(24.107923070493,2.116781117344,13.198631266153
    ));
#52 = CARTESIAN_POINT('',(24.094529089319,2.263916071405,12.972893385565
    ));
#53 = CARTESIAN_POINT('',(24.083130890985,2.379483920481,12.736980974817
    ));
#54 = CARTESIAN_POINT('',(24.07428201141,2.465006063941,12.494407000795)
  );
#55 = CARTESIAN_POINT('',(24.068280945041,2.521639290587,12.24772910887)
  );
#56 = CARTESIAN_POINT('',(24.065275813919,2.55,11.998977322151));
#57 = CARTESIAN_POINT('',(24.065275813919,2.55,11.501023290333));
#58 = CARTESIAN_POINT('',(24.068280934156,2.521639402206,11.252275470467
    ));
#59 = CARTESIAN_POINT('',(24.07428181354,2.465007913789,11.005599409019)
  );
#60 = CARTESIAN_POINT('',(24.083130624193,2.379486470803,10.763022273515
    ));
#61 = CARTESIAN_POINT('',(24.094529165286,2.263916005447,10.527104090396
    ));
#62 = CARTESIAN_POINT('',(24.107923396578,2.116777055364,10.301363992684
    ));
#63 = CARTESIAN_POINT('',(24.136730351961,1.75793425679,9.882520893039)
  );
#64 = CARTESIAN_POINT('',(24.152526911237,1.541829276794,9.68323937668)
  );
#65 = CARTESIAN_POINT('',(24.168614314609,1.288181966309,9.505271772152)
  );
#66 = CARTESIAN_POINT('',(24.183197533545,1.000241712506,9.359464423383)
  );
#67 = CARTESIAN_POINT('',(24.194188888559,0.683908645419,9.255147321392)
  );
#68 = CARTESIAN_POINT('',(24.2,0.34718567826,9.2));
#69 = CARTESIAN_POINT('',(24.2,-0.347112634161,9.2));
#70 = CARTESIAN_POINT('',(24.194191335624,-0.683829227073,9.255124129247
    ));
#71 = CARTESIAN_POINT('',(24.183200713003,-1.0001992416,9.359434173486)
  );
#72 = CARTESIAN_POINT('',(24.168614898368,-1.288185919398,9.505260084387
    ));
#73 = CARTESIAN_POINT('',(24.152524801555,-1.54186238546,9.683259352735)
  );
#74 = CARTESIAN_POINT('',(24.136727830884,-1.757965661377,9.88255754863)
  );
#75 = CARTESIAN_POINT('',(24.107923070493,-2.116781117344,
    10.301368733847));
#76 = CARTESIAN_POINT('',(24.094529089319,-2.263916071405,
    10.527106614435));
#77 = CARTESIAN_POINT('',(24.083130890985,-2.37948392048,10.763019025182
    ));
#78 = CARTESIAN_POINT('',(24.07428201141,-2.465006063941,11.005592999205
    ));
#79 = CARTESIAN_POINT('',(24.068280945041,-2.521639290586,11.25227089113
    ));
#80 = CARTESIAN_POINT('',(24.065275813919,-2.55,11.501022677849));
#81 = CARTESIAN_POINT('',(24.065275813919,-2.55,11.998976709667));
#82 = CARTESIAN_POINT('',(24.068280934156,-2.521639402206,
    12.247724529534));
#83 = CARTESIAN_POINT('',(24.07428181354,-2.465007913789,12.49440059098)
  );
#84 = CARTESIAN_POINT('',(24.083130624193,-2.379486470802,
    12.736977726487));
#85 = CARTESIAN_POINT('',(24.094529165286,-2.263916005447,
    12.972895909603));
#86 = CARTESIAN_POINT('',(24.107923396578,-2.116777055364,
    13.198636007316));
#87 = CARTESIAN_POINT('',(24.136730351961,-1.75793425679,13.61747910696)
  );
#88 = CARTESIAN_POINT('',(24.152526911237,-1.541829276793,
    13.816760623321));
#89 = CARTESIAN_POINT('',(24.168614314609,-1.28818196631,13.994728227846
    ));
#90 = CARTESIAN_POINT('',(24.183197533545,-1.000241712505,
    14.140535576618));
#91 = CARTESIAN_POINT('',(24.194188888559,-0.683908645419,
    14.244852678607));
#92 = CARTESIAN_POINT('',(24.2,-0.34718567826,14.3));
#93 = CARTESIAN_POINT('',(24.2,-1.33226762955E-15,14.3));
#94 = PCURVE('',#95,#100);
#95 = CYLINDRICAL_SURFACE('',#96,24.2);
#96 = AXIS2_PLACEMENT_3D('',#97,#98,#99);
#97 = CARTESIAN_POINT('',(0.,0.,0.));
#98 = DIRECTION('',(0.,0.,1.));
#99 = DIRECTION('',(1.,0.,-0.));
#100 = DEFINITIONAL_REPRESENTATION('',(#101),#171);
#101 = B_SPLINE_CURVE_WITH_KNOTS('',3,(#102,#103,#104,#105,#106,#107,
    #108,#109,#110,#111,#112,#113,#114,#115,#116,#117,#118,#119,#120,
    #121,#122,#123,#124,#125,#126,#127,#128,#129,#130,#131,#132,#133,
    #134,#135,#136,#137,#138,#139,#140,#141,#142,#143,#144,#145,#146,
    #147,#148,#149,#150,#151,#152,#153,#154,#155,#156,#157,#158,#159,
    #160,#161,#162,#163,#164,#165,#166,#167,#168,#169,#170),
  .UNSPECIFIED.,.T.,.F.,(4,1,1,1,1,1,1,1,1,1,1,1,1,1,1,1,1,1,1,1,1,1,1,1
    ,1,1,1,1,1,1,1,1,1,1,1,1,1,1,1,1,1,1,1,1,1,1,1,1,1,1,1,1,1,1,1,1,1,1
    ,1,1,1,1,1,1,1,1,4),(0.,3.030281154862E-02,6.060562309725E-02,
    9.090843464587E-02,0.121211246194,0.151514057743,0.181816869292,
    0.21211968084,0.242422492389,0.272725303938,0.303028115486,
    0.333330927035,0.363633738583,0.393936550132,0.424239361681,
    0.454542173229,0.484844984778,0.515147796327,0.545450607875,
    0.575753419424,0.606056230972,0.636359042521,0.66666185407,
    0.696964665618,0.727267477167,0.757570288716,0.787873100264,
    0.818175911813,0.848478723361,0.87878153491,0.909084346459,
    0.939387158007,0.969689969556,0.999992781105,1.030295592653,
    1.060598404202,1.09090121575,1.121204027299,1.151506838848,
    1.181809650396,1.212112461945,1.242415273494,1.272718085042,
    1.303020896591,1.333323708139,1.363626519688,1.393929331237,
    1.424232142785,1.454534954334,1.484837765883,1.515140577431,
    1.54544338898,1.575746200528,1.606049012077,1.636351823626,
    1.666654635174,1.696957446723,1.727260258272,1.75756306982,
    1.787865881369,1.818168692917,1.848471504466,1.878774316015,
    1.909077127563,1.939379939112,1.969682750661,1.999985562209),
  .QUASI_UNIFORM_KNOTS.);
#102 = CARTESIAN_POINT('',(6.28318530718,14.3));
#103 = CARTESIAN_POINT('',(6.287263717959,14.300026208796));
#104 = CARTESIAN_POINT('',(6.295326543334,14.288525902673));
#105 = CARTESIAN_POINT('',(6.307008250075,14.239376975276));
#106 = CARTESIAN_POINT('',(6.318140825488,14.16096694465));
#107 = CARTESIAN_POINT('',(6.328608869904,14.056361358609));
#108 = CARTESIAN_POINT('',(6.338312352759,13.928893135187));
#109 = CARTESIAN_POINT('',(6.347168866256,13.782213023579));
#110 = CARTESIAN_POINT('',(6.355118028436,13.620199968435));
#111 = CARTESIAN_POINT('',(6.362110375227,13.447214813529));
#112 = CARTESIAN_POINT('',(6.368157058459,13.267115533196));
#113 = CARTESIAN_POINT('',(6.373408545369,13.078523864317));
#114 = CARTESIAN_POINT('',(6.377857391867,12.883719209285));
#115 = CARTESIAN_POINT('',(6.381531916432,12.683839936396));
#116 = CARTESIAN_POINT('',(6.384448057868,12.480090975928));
#117 = CARTESIAN_POINT('',(6.386621563565,12.273462346482));
#118 = CARTESIAN_POINT('',(6.388064023048,12.064839067377));
#119 = CARTESIAN_POINT('',(6.388783405764,11.855019898075));
#120 = CARTESIAN_POINT('',(6.38878291877,11.644696259919));
#121 = CARTESIAN_POINT('',(6.388062569525,11.434879642253));
#122 = CARTESIAN_POINT('',(6.386619142942,11.226259358366));
#123 = CARTESIAN_POINT('',(6.384444648844,11.019633639636));
#124 = CARTESIAN_POINT('',(6.38152747447,10.815887420998));
#125 = CARTESIAN_POINT('',(6.377851864415,10.61601154541));
#126 = CARTESIAN_POINT('',(6.373401871366,10.421211787597));
#127 = CARTESIAN_POINT('',(6.368149275697,10.232629889015));
#128 = CARTESIAN_POINT('',(6.362101372117,10.052540999393));
#129 = CARTESIAN_POINT('',(6.355108571045,9.879589136927));
#130 = CARTESIAN_POINT('',(6.347160160598,9.717629725684));
#131 = CARTESIAN_POINT('',(6.338305429334,9.571006336951));
#132 = CARTESIAN_POINT('',(6.328604020654,9.443588769974));
#133 = CARTESIAN_POINT('',(6.318139803099,9.339018513204));
#134 = CARTESIAN_POINT('',(6.307005466963,9.260631756241));
#135 = CARTESIAN_POINT('',(6.295341638137,9.211470146396));
#136 = CARTESIAN_POINT('',(6.283188398148,9.194268908673));
#137 = CARTESIAN_POINT('',(6.271034095629,9.21145422476));
#138 = CARTESIAN_POINT('',(6.259368140733,9.260612698785));
#139 = CARTESIAN_POINT('',(6.248230986903,9.339014114003));
#140 = CARTESIAN_POINT('',(6.237763806893,9.443617719891));
#141 = CARTESIAN_POINT('',(6.22805973531,9.571083842918));
#142 = CARTESIAN_POINT('',(6.219203036071,9.71776342679));
#143 = CARTESIAN_POINT('',(6.211253603223,9.879776867641));
#144 = CARTESIAN_POINT('',(6.204261031781,10.05276351419));
#145 = CARTESIAN_POINT('',(6.198214163686,10.232864425028));
#146 = CARTESIAN_POINT('',(6.192962519925,10.421458094537));
#147 = CARTESIAN_POINT('',(6.188513541062,10.616265078659));
#148 = CARTESIAN_POINT('',(6.184838908206,10.816146921059));
#149 = CARTESIAN_POINT('',(6.181922681407,11.019898633203));
#150 = CARTESIAN_POINT('',(6.179749112481,11.226530144348));
#151 = CARTESIAN_POINT('',(6.178306611223,11.435156392673));
#152 = CARTESIAN_POINT('',(6.177587207727,11.644978581856));
#153 = CARTESIAN_POINT('',(6.177587694727,11.855305259422));
#154 = CARTESIAN_POINT('',(6.178308064763,12.065124896912));
#155 = CARTESIAN_POINT('',(6.179751533131,12.273748149977));
#156 = CARTESIAN_POINT('',(6.181926090476,12.480376750378));
#157 = CARTESIAN_POINT('',(6.184843350212,12.684125720679));
#158 = CARTESIAN_POINT('',(6.188519068636,12.884004165597));
#159 = CARTESIAN_POINT('',(6.192969193842,13.078806252497));
#160 = CARTESIAN_POINT('',(6.198221947214,13.267390150124));
#161 = CARTESIAN_POINT('',(6.204270032519,13.447480673207));
#162 = CARTESIAN_POINT('',(6.211263069905,13.620434010878));
#163 = CARTESIAN_POINT('',(6.219211706627,13.782393848187));
#164 = CARTESIAN_POINT('',(6.228066788563,13.929016550882));
#165 = CARTESIAN_POINT('',(6.237768169705,14.056432607257));
#166 = CARTESIAN_POINT('',(6.248233822269,14.160998689907));
#167 = CARTESIAN_POINT('',(6.259364155108,14.239385032513));
#168 = CARTESIAN_POINT('',(6.271044259798,14.28852559811));
#169 = CARTESIAN_POINT('',(6.279106777358,14.30002578151));
#170 = CARTESIAN_POINT('',(6.28318530718,14.3));
#171 = ( GEOMETRIC_REPRESENTATION_CONTEXT(2) 
PARAMETRIC_REPRESENTATION_CONTEXT() REPRESENTATION_CONTEXT('2D SPACE',''
  ) );
#172 = PCURVE('',#173,#178);
#173 = CYLINDRICAL_SURFACE('',#174,2.55);
#174 = AXIS2_PLACEMENT_3D('',#175,#176,#177);
#175 = CARTESIAN_POINT('',(22.7,0.,11.75));
#176 = DIRECTION('',(1.,0.,0.));
#177 = DIRECTION('',(-0.,0.,1.));
#178 = DEFINITIONAL_REPRESENTATION('',(#179),#249);
#179 = B_SPLINE_CURVE_WITH_KNOTS('',3,(#180,#181,#182,#183,#184,#185,
    #186,#187,#188,#189,#190,#191,#192,#193,#194,#195,#196,#197,#198,
    #199,#200,#201,#202,#203,#204,#205,#206,#207,#208,#209,#210,#211,
    #212,#213,#214,#215,#216,#217,#218,#219,#220,#221,#222,#223,#224,
    #225,#226,#227,#228,#229,#230,#231,#232,#233,#234,#235,#236,#237,
    #238,#239,#240,#241,#242,#243,#244,#245,#246,#247,#248),
  .UNSPECIFIED.,.F.,.F.,(4,1,1,1,1,1,1,1,1,1,1,1,1,1,1,1,1,1,1,1,1,1,1,1
    ,1,1,1,1,1,1,1,1,1,1,1,1,1,1,1,1,1,1,1,1,1,1,1,1,1,1,1,1,1,1,1,1,1,1
    ,1,1,1,1,1,1,1,1,4),(0.,3.030281154862E-02,6.060562309725E-02,
    9.090843464587E-02,0.121211246194,0.151514057743,0.181816869292,
    0.21211968084,0.242422492389,0.272725303938,0.303028115486,
    0.333330927035,0.363633738583,0.393936550132,0.424239361681,
    0.454542173229,0.484844984778,0.515147796327,0.545450607875,
    0.575753419424,0.606056230972,0.636359042521,0.66666185407,
    0.696964665618,0.727267477167,0.757570288716,0.787873100264,
    0.818175911813,0.848478723361,0.87878153491,0.909084346459,
    0.939387158007,0.969689969556,0.999992781105,1.030295592653,
    1.060598404202,1.09090121575,1.121204027299,1.151506838848,
    1.181809650396,1.212112461945,1.242415273494,1.272718085042,
    1.303020896591,1.333323708139,1.363626519688,1.393929331237,
    1.424232142785,1.454534954334,1.484837765883,1.515140577431,
    1.54544338898,1.575746200528,1.606049012077,1.636351823626,
    1.666654635174,1.696957446723,1.727260258272,1.75756306982,
    1.787865881369,1.818168692917,1.848471504466,1.878774316015,
    1.909077127563,1.939379939112,1.969682750661,1.999985562209),
  .QUASI_UNIFORM_KNOTS.);
#180 = CARTESIAN_POINT('',(6.28318530718,1.5));
#181 = CARTESIAN_POINT('',(6.244497528366,1.500011385708));
#182 = CARTESIAN_POINT('',(6.167949027977,1.498783118475));
#183 = CARTESIAN_POINT('',(6.055626662521,1.493661050317));
#184 = CARTESIAN_POINT('',(5.945798968721,1.485687713425));
#185 = CARTESIAN_POINT('',(5.838547477198,1.475449181583));
#186 = CARTESIAN_POINT('',(5.734012207252,1.463584701548));
#187 = CARTESIAN_POINT('',(5.632418187812,1.450765028484));
#188 = CARTESIAN_POINT('',(5.534042482288,1.437642064931));
#189 = CARTESIAN_POINT('',(5.439383616048,1.42483560921));
#190 = CARTESIAN_POINT('',(5.348599269716,1.412815258277));
#191 = CARTESIAN_POINT('',(5.259610999709,1.401664192941));
#192 = CARTESIAN_POINT('',(5.172497133717,1.391696677763));
#193 = CARTESIAN_POINT('',(5.086850412115,1.383105589162));
#194 = CARTESIAN_POINT('',(5.002412385295,1.376056395853));
#195 = CARTESIAN_POINT('',(4.918896821104,1.370669504058));
#196 = CARTESIAN_POINT('',(4.836029772043,1.367031785617));
#197 = CARTESIAN_POINT('',(4.753538326147,1.365198907296));
#198 = CARTESIAN_POINT('',(4.671128355313,1.365200152316));
#199 = CARTESIAN_POINT('',(4.58863715537,1.367035476472));
#200 = CARTESIAN_POINT('',(4.505769766005,1.370675566464));
#201 = CARTESIAN_POINT('',(4.422253019466,1.376064755999));
#202 = CARTESIAN_POINT('',(4.337812832044,1.383116171401));
#203 = CARTESIAN_POINT('',(4.252163180033,1.391709359502));
#204 = CARTESIAN_POINT('',(4.165045766827,1.401678787168));
#205 = CARTESIAN_POINT('',(4.076054833314,1.412831298588));
#206 = CARTESIAN_POINT('',(3.985266368782,1.424852836131));
#207 = CARTESIAN_POINT('',(3.890613808552,1.437658514787));
#208 = CARTESIAN_POINT('',(3.792256965048,1.450778377998));
#209 = CARTESIAN_POINT('',(3.690689411898,1.463593891177));
#210 = CARTESIAN_POINT('',(3.586180556937,1.475453930191));
#211 = CARTESIAN_POINT('',(3.478967963856,1.485689489653));
#212 = CARTESIAN_POINT('',(3.369127538112,1.493659079274));
#213 = CARTESIAN_POINT('',(3.256963629282,1.49878753802));
#214 = CARTESIAN_POINT('',(3.141621918834,1.500605811699));
#215 = CARTESIAN_POINT('',(3.026270536704,1.498789214569));
#216 = CARTESIAN_POINT('',(2.914087059442,1.493661036863));
#217 = CARTESIAN_POINT('',(2.804219475616,1.485689898782));
#218 = CARTESIAN_POINT('',(2.696976066977,1.475451102153));
#219 = CARTESIAN_POINT('',(2.59243608728,1.463586801359));
#220 = CARTESIAN_POINT('',(2.490840834434,1.450767004566));
#221 = CARTESIAN_POINT('',(2.392463035694,1.437643858945));
#222 = CARTESIAN_POINT('',(2.2978022839,1.42483712952));
#223 = CARTESIAN_POINT('',(2.207016338521,1.41281651492));
#224 = CARTESIAN_POINT('',(2.118026595167,1.4016651816));
#225 = CARTESIAN_POINT('',(2.030911328791,1.391697410478));
#226 = CARTESIAN_POINT('',(1.945263275102,1.383106091335));
#227 = CARTESIAN_POINT('',(1.860823968681,1.376056702937));
#228 = CARTESIAN_POINT('',(1.777307165673,1.370669658932));
#229 = CARTESIAN_POINT('',(1.694438906384,1.367031836313));
#230 = CARTESIAN_POINT('',(1.611946267151,1.365198905091));
#231 = CARTESIAN_POINT('',(1.529535107416,1.365200150125));
#232 = CARTESIAN_POINT('',(1.447042714136,1.367035527211));
#233 = CARTESIAN_POINT('',(1.364174114531,1.370675721408));
#234 = CARTESIAN_POINT('',(1.28065612908,1.376065063175));
#235 = CARTESIAN_POINT('',(1.196214662118,1.383116673694));
#236 = CARTESIAN_POINT('',(1.110563677404,1.391710092325));
#237 = CARTESIAN_POINT('',(1.023444865725,1.401679776034));
#238 = CARTESIAN_POINT('',(0.934452451526,1.412832555035));
#239 = CARTESIAN_POINT('',(0.843662415566,1.424854357566));
#240 = CARTESIAN_POINT('',(0.749007868013,1.437660304554));
#241 = CARTESIAN_POINT('',(0.650649322017,1.450780368032));
#242 = CARTESIAN_POINT('',(0.549079083896,1.46359593586));
#243 = CARTESIAN_POINT('',(0.444570941875,1.47545605282));
#244 = CARTESIAN_POINT('',(0.337346196524,1.485690917468));
#245 = CARTESIAN_POINT('',(0.227541398843,1.493661890579));
#246 = CARTESIAN_POINT('',(0.115234536382,1.498783091066));
#247 = CARTESIAN_POINT('',(3.86888675352E-02,1.500011331561));
#248 = CARTESIAN_POINT('',(0.,1.5));
#249 = ( GEOMETRIC_REPRESENTATION_CONTEXT(2) 
PARAMETRIC_REPRESENTATION_CONTEXT() REPRESENTATION_CONTEXT('2D SPACE',''
  ) );
#250 = FACE_BOUND('',#251,.T.);
#251 = EDGE_LOOP('',(#252,#283,#309,#342));
#252 = ORIENTED_EDGE('',*,*,#253,.T.);
#253 = EDGE_CURVE('',#254,#256,#258,.T.);
#254 = VERTEX_POINT('',#255);
#255 = CARTESIAN_POINT('',(23.375404996195,-6.263420891481,0.));
#256 = VERTEX_POINT('',#257);
#257 = CARTESIAN_POINT('',(23.375404996195,6.263420891481,0.));
#258 = SURFACE_CURVE('',#259,(#264,#271),.PCURVE_S1.);
#259 = CIRCLE('',#260,24.2);
#260 = AXIS2_PLACEMENT_3D('',#261,#262,#263);
#261 = CARTESIAN_POINT('',(0.,0.,0.));
#262 = DIRECTION('',(0.,0.,1.));
#263 = DIRECTION('',(0.965925826289,-0.258819045103,0.));
#264 = PCURVE('',#95,#265);
#265 = DEFINITIONAL_REPRESENTATION('',(#266),#270);
#266 = LINE('',#267,#268);
#267 = CARTESIAN_POINT('',(6.02138591938,0.));
#268 = VECTOR('',#269,1.);
#269 = DIRECTION('',(1.,0.));
#270 = ( GEOMETRIC_REPRESENTATION_CONTEXT(2) 
PARAMETRIC_REPRESENTATION_CONTEXT() REPRESENTATION_CONTEXT('2D SPACE',''
  ) );
#271 = PCURVE('',#272,#277);
#272 = PLANE('',#273);
#273 = AXIS2_PLACEMENT_3D('',#274,#275,#276);
#274 = CARTESIAN_POINT('',(0.,0.,0.));
#275 = DIRECTION('',(0.,0.,1.));
#276 = DIRECTION('',(1.,0.,-0.));
#277 = DEFINITIONAL_REPRESENTATION('',(#278),#282);
#278 = CIRCLE('',#279,24.2);
#279 = AXIS2_PLACEMENT_2D('',#280,#281);
#280 = CARTESIAN_POINT('',(0.,0.));
#281 = DIRECTION('',(0.965925826289,-0.258819045103));
#282 = ( GEOMETRIC_REPRESENTATION_CONTEXT(2) 
PARAMETRIC_REPRESENTATION_CONTEXT() REPRESENTATION_CONTEXT('2D SPACE',''
  ) );
#283 = ORIENTED_EDGE('',*,*,#284,.T.);
#284 = EDGE_CURVE('',#256,#285,#287,.T.);
#285 = VERTEX_POINT('',#286);
#286 = CARTESIAN_POINT('',(23.375404996195,6.263420891481,389.4));
#287 = SURFACE_CURVE('',#288,(#292,#298),.PCURVE_S1.);
#288 = LINE('',#289,#290);
#289 = CARTESIAN_POINT('',(23.375404996195,6.263420891481,0.));
#290 = VECTOR('',#291,1.);
#291 = DIRECTION('',(0.,0.,1.));
#292 = PCURVE('',#95,#293);
#293 = DEFINITIONAL_REPRESENTATION('',(#294),#297);
#294 = B_SPLINE_CURVE_WITH_KNOTS('',1,(#295,#296),.UNSPECIFIED.,.F.,.F.,
  (2,2),(0.,389.4),.PIECEWISE_BEZIER_KNOTS.);
#295 = CARTESIAN_POINT('',(6.544984694979,0.));
#296 = CARTESIAN_POINT('',(6.544984694979,389.4));
#297 = ( GEOMETRIC_REPRESENTATION_CONTEXT(2) 
PARAMETRIC_REPRESENTATION_CONTEXT() REPRESENTATION_CONTEXT('2D SPACE',''
  ) );
#298 = PCURVE('',#299,#304);
#299 = PLANE('',#300);
#300 = AXIS2_PLACEMENT_3D('',#301,#302,#303);
#301 = CARTESIAN_POINT('',(58.438512490489,15.658552228703,-0.2));
#302 = DIRECTION('',(0.258819045103,-0.965925826289,0.));
#303 = DIRECTION('',(-0.965925826289,-0.258819045103,0.));
#304 = DEFINITIONAL_REPRESENTATION('',(#305),#308);
#305 = B_SPLINE_CURVE_WITH_KNOTS('',1,(#306,#307),.UNSPECIFIED.,.F.,.F.,
  (2,2),(-6.E-07,389.4000006),.PIECEWISE_BEZIER_KNOTS.);
#306 = CARTESIAN_POINT('',(36.3,-0.1999994));
#307 = CARTESIAN_POINT('',(36.3,-389.6000006));
#308 = ( GEOMETRIC_REPRESENTATION_CONTEXT(2) 
PARAMETRIC_REPRESENTATION_CONTEXT() REPRESENTATION_CONTEXT('2D SPACE',''
  ) );
#309 = ORIENTED_EDGE('',*,*,#310,.T.);
#310 = EDGE_CURVE('',#285,#311,#313,.T.);
#311 = VERTEX_POINT('',#312);
#312 = CARTESIAN_POINT('',(23.375404996195,-6.263420891481,389.4));
#313 = SURFACE_CURVE('',#314,(#319,#326),.PCURVE_S1.);
#314 = CIRCLE('',#315,24.2);
#315 = AXIS2_PLACEMENT_3D('',#316,#317,#318);
#316 = CARTESIAN_POINT('',(0.,0.,389.4));
#317 = DIRECTION('',(0.,0.,-1.));
#318 = DIRECTION('',(0.965925826289,0.258819045103,0.));
#319 = PCURVE('',#95,#320);
#320 = DEFINITIONAL_REPRESENTATION('',(#321),#325);
#321 = LINE('',#322,#323);
#322 = CARTESIAN_POINT('',(6.544984694979,389.4));
#323 = VECTOR('',#324,1.);
#324 = DIRECTION('',(-1.,-0.));
#325 = ( GEOMETRIC_REPRESENTATION_CONTEXT(2) 
PARAMETRIC_REPRESENTATION_CONTEXT() REPRESENTATION_CONTEXT('2D SPACE',''
  ) );
#326 = PCURVE('',#327,#332);
#327 = PLANE('',#328);
#328 = AXIS2_PLACEMENT_3D('',#329,#330,#331);
#329 = CARTESIAN_POINT('',(0.,0.,389.4));
#330 = DIRECTION('',(0.,0.,1.));
#331 = DIRECTION('',(1.,0.,-0.));
#332 = DEFINITIONAL_REPRESENTATION('',(#333),#341);
#333 = ( BOUNDED_CURVE() B_SPLINE_CURVE(2,(#334,#335,#336,#337,#338,#339
,#340),.UNSPECIFIED.,.T.,.F.) B_SPLINE_CURVE_WITH_KNOTS((1,2,2,2,2,1),(
    -2.094395102393,0.,2.094395102393,4.188790204786,6.28318530718,
8.377580409573),.UNSPECIFIED.) CURVE() GEOMETRIC_REPRESENTATION_ITEM() 
RATIONAL_B_SPLINE_CURVE((1.,0.5,1.,0.5,1.,0.5,1.)) REPRESENTATION_ITEM(
  '') );
#334 = CARTESIAN_POINT('',(23.375404996195,6.263420891481));
#335 = CARTESIAN_POINT('',(34.223968209429,-34.22396820942));
#336 = CARTESIAN_POINT('',(-6.263420891481,-23.37540499619));
#337 = CARTESIAN_POINT('',(-46.75080999239,-12.52684178296));
#338 = CARTESIAN_POINT('',(-17.11198410471,17.111984104714));
#339 = CARTESIAN_POINT('',(12.526841782962,46.750809992391));
#340 = CARTESIAN_POINT('',(23.375404996195,6.263420891481));
#341 = ( GEOMETRIC_REPRESENTATION_CONTEXT(2) 
PARAMETRIC_REPRESENTATION_CONTEXT() REPRESENTATION_CONTEXT('2D SPACE',''
  ) );
#342 = ORIENTED_EDGE('',*,*,#343,.F.);
#343 = EDGE_CURVE('',#254,#311,#344,.T.);
#344 = SURFACE_CURVE('',#345,(#349,#355),.PCURVE_S1.);
#345 = LINE('',#346,#347);
#346 = CARTESIAN_POINT('',(23.375404996195,-6.263420891481,0.));
#347 = VECTOR('',#348,1.);
#348 = DIRECTION('',(0.,0.,1.));
#349 = PCURVE('',#95,#350);
#350 = DEFINITIONAL_REPRESENTATION('',(#351),#354);
#351 = B_SPLINE_CURVE_WITH_KNOTS('',1,(#352,#353),.UNSPECIFIED.,.F.,.F.,
  (2,2),(0.,389.4),.PIECEWISE_BEZIER_KNOTS.);
#352 = CARTESIAN_POINT('',(6.02138591938,0.));
#353 = CARTESIAN_POINT('',(6.02138591938,389.4));
#354 = ( GEOMETRIC_REPRESENTATION_CONTEXT(2) 
PARAMETRIC_REPRESENTATION_CONTEXT() REPRESENTATION_CONTEXT('2D SPACE',''
  ) );
#355 = PCURVE('',#356,#361);
#356 = PLANE('',#357);
#357 = AXIS2_PLACEMENT_3D('',#358,#359,#360);
#358 = CARTESIAN_POINT('',(0.,0.,-0.2));
#359 = DIRECTION('',(0.258819045103,0.965925826289,-0.));
#360 = DIRECTION('',(0.965925826289,-0.258819045103,0.));
#361 = DEFINITIONAL_REPRESENTATION('',(#362),#365);
#362 = B_SPLINE_CURVE_WITH_KNOTS('',1,(#363,#364),.UNSPECIFIED.,.F.,.F.,
  (2,2),(-6.E-07,389.4000006),.PIECEWISE_BEZIER_KNOTS.);
#363 = CARTESIAN_POINT('',(24.2,-0.1999994));
#364 = CARTESIAN_POINT('',(24.2,-389.6000006));
#365 = ( GEOMETRIC_REPRESENTATION_CONTEXT(2) 
PARAMETRIC_REPRESENTATION_CONTEXT() REPRESENTATION_CONTEXT('2D SPACE',''
  ) );
#366 = FACE_BOUND('',#367,.T.);
#367 = EDGE_LOOP('',(#368));
#368 = ORIENTED_EDGE('',*,*,#369,.T.);
#369 = EDGE_CURVE('',#370,#370,#372,.T.);
#370 = VERTEX_POINT('',#371);
#371 = CARTESIAN_POINT('',(24.2,-2.651360320154E-15,196.32636328886));
#372 = SURFACE_CURVE('',#373,(#424,#497),.PCURVE_S1.);
#373 = B_SPLINE_CURVE_WITH_KNOTS('',7,(#374,#375,#376,#377,#378,#379,
    #380,#381,#382,#383,#384,#385,#386,#387,#388,#389,#390,#391,#392,
    #393,#394,#395,#396,#397,#398,#399,#400,#401,#402,#403,#404,#405,
    #406,#407,#408,#409,#410,#411,#412,#413,#414,#415,#416,#417,#418,
    #419,#420,#421,#422,#423),.UNSPECIFIED.,.T.,.F.,(8,6,6,6,6,6,6,6,8),
  (0.,0.248746647208,0.499975932762,0.751204600292,1.,1.248743055855,
    1.499968714214,1.751193754557,1.999985562209),.UNSPECIFIED.);
#374 = CARTESIAN_POINT('',(24.2,1.4447124189E-15,196.32636328886));
#375 = CARTESIAN_POINT('',(24.2,0.347112634161,196.32636328886));
#376 = CARTESIAN_POINT('',(24.194191335624,0.683829227073,
    196.27123915962));
#377 = CARTESIAN_POINT('',(24.183200713003,1.000199241599,
    196.16692911538));
#378 = CARTESIAN_POINT('',(24.168614898368,1.288185919398,
    196.02110320448));
#379 = CARTESIAN_POINT('',(24.152524801555,1.54186238546,195.84310393613
    ));
#380 = CARTESIAN_POINT('',(24.136727830884,1.757965661377,
    195.64380574023));
#381 = CARTESIAN_POINT('',(24.107923070493,2.116781117344,
    195.22499455502));
#382 = CARTESIAN_POINT('',(24.094529089319,2.263916071406,
    194.99925667443));
#383 = CARTESIAN_POINT('',(24.083130890985,2.37948392048,194.76334426368
    ));
#384 = CARTESIAN_POINT('',(24.07428201141,2.465006063942,194.52077028966
    ));
#385 = CARTESIAN_POINT('',(24.068280945041,2.521639290586,
    194.27409239773));
#386 = CARTESIAN_POINT('',(24.065275813919,2.55,194.02534061102));
#387 = CARTESIAN_POINT('',(24.065275813919,2.55,193.5273865792));
#388 = CARTESIAN_POINT('',(24.068280934156,2.521639402206,
    193.27863875933));
#389 = CARTESIAN_POINT('',(24.07428181354,2.465007913788,193.03196269788
    ));
#390 = CARTESIAN_POINT('',(24.083130624193,2.379486470803,
    192.78938556238));
#391 = CARTESIAN_POINT('',(24.094529165286,2.263916005446,
    192.55346737926));
#392 = CARTESIAN_POINT('',(24.107923396578,2.116777055365,
    192.32772728155));
#393 = CARTESIAN_POINT('',(24.136730351961,1.75793425679,191.9088841819)
  );
#394 = CARTESIAN_POINT('',(24.152526911237,1.541829276794,
    191.70960266554));
#395 = CARTESIAN_POINT('',(24.168614314609,1.288181966309,
    191.53163506102));
#396 = CARTESIAN_POINT('',(24.183197533545,1.000241712506,
    191.38582771225));
#397 = CARTESIAN_POINT('',(24.194188888559,0.683908645419,
    191.28151061026));
#398 = CARTESIAN_POINT('',(24.2,0.34718567826,191.22636328886));
#399 = CARTESIAN_POINT('',(24.2,-0.347112634161,191.22636328886));
#400 = CARTESIAN_POINT('',(24.194191335624,-0.683829227074,
    191.28148741811));
#401 = CARTESIAN_POINT('',(24.183200713003,-1.000199241599,
    191.38579746235));
#402 = CARTESIAN_POINT('',(24.168614898368,-1.288185919398,
    191.53162337325));
#403 = CARTESIAN_POINT('',(24.152524801555,-1.54186238546,191.7096226416
    ));
#404 = CARTESIAN_POINT('',(24.136727830884,-1.757965661377,
    191.90892083749));
#405 = CARTESIAN_POINT('',(24.107923070493,-2.116781117344,
    192.32773202271));
#406 = CARTESIAN_POINT('',(24.094529089319,-2.263916071405,
    192.5534699033));
#407 = CARTESIAN_POINT('',(24.083130890985,-2.37948392048,
    192.78938231405));
#408 = CARTESIAN_POINT('',(24.07428201141,-2.465006063942,
    193.03195628807));
#409 = CARTESIAN_POINT('',(24.068280945041,-2.521639290586,
    193.27863417999));
#410 = CARTESIAN_POINT('',(24.065275813919,-2.55,193.52738596671));
#411 = CARTESIAN_POINT('',(24.065275813919,-2.55,194.02533999853));
#412 = CARTESIAN_POINT('',(24.068280934156,-2.521639402206,
    194.2740878184));
#413 = CARTESIAN_POINT('',(24.07428181354,-2.465007913789,
    194.52076387985));
#414 = CARTESIAN_POINT('',(24.083130624193,-2.379486470803,
    194.76334101535));
#415 = CARTESIAN_POINT('',(24.094529165286,-2.263916005447,
    194.99925919847));
#416 = CARTESIAN_POINT('',(24.107923396578,-2.116777055364,
    195.22499929618));
#417 = CARTESIAN_POINT('',(24.136730351961,-1.75793425679,
    195.64384239582));
#418 = CARTESIAN_POINT('',(24.152526911237,-1.541829276794,
    195.84312391218));
#419 = CARTESIAN_POINT('',(24.168614314609,-1.288181966309,
    196.02109151671));
#420 = CARTESIAN_POINT('',(24.183197533545,-1.000241712506,
    196.16689886548));
#421 = CARTESIAN_POINT('',(24.194188888559,-0.683908645419,
    196.27121596747));
#422 = CARTESIAN_POINT('',(24.2,-0.34718567826,196.32636328886));
#423 = CARTESIAN_POINT('',(24.2,-1.33226762955E-15,196.32636328886));
#424 = PCURVE('',#95,#425);
#425 = DEFINITIONAL_REPRESENTATION('',(#426),#496);
#426 = B_SPLINE_CURVE_WITH_KNOTS('',3,(#427,#428,#429,#430,#431,#432,
    #433,#434,#435,#436,#437,#438,#439,#440,#441,#442,#443,#444,#445,
    #446,#447,#448,#449,#450,#451,#452,#453,#454,#455,#456,#457,#458,
    #459,#460,#461,#462,#463,#464,#465,#466,#467,#468,#469,#470,#471,
    #472,#473,#474,#475,#476,#477,#478,#479,#480,#481,#482,#483,#484,
    #485,#486,#487,#488,#489,#490,#491,#492,#493,#494,#495),
  .UNSPECIFIED.,.T.,.F.,(4,1,1,1,1,1,1,1,1,1,1,1,1,1,1,1,1,1,1,1,1,1,1,1
    ,1,1,1,1,1,1,1,1,1,1,1,1,1,1,1,1,1,1,1,1,1,1,1,1,1,1,1,1,1,1,1,1,1,1
    ,1,1,1,1,1,1,1,1,4),(0.,3.030281154862E-02,6.060562309724E-02,
    9.090843464586E-02,0.121211246194,0.151514057743,0.181816869292,
    0.21211968084,0.242422492389,0.272725303938,0.303028115486,
    0.333330927035,0.363633738583,0.393936550132,0.424239361681,
    0.454542173229,0.484844984778,0.515147796327,0.545450607875,
    0.575753419424,0.606056230972,0.636359042521,0.66666185407,
    0.696964665618,0.727267477167,0.757570288715,0.787873100264,
    0.818175911813,0.848478723361,0.87878153491,0.909084346459,
    0.939387158007,0.969689969556,0.999992781104,1.030295592653,
    1.060598404202,1.09090121575,1.121204027299,1.151506838848,
    1.181809650396,1.212112461945,1.242415273493,1.272718085042,
    1.303020896591,1.333323708139,1.363626519688,1.393929331236,
    1.424232142785,1.454534954334,1.484837765882,1.515140577431,
    1.54544338898,1.575746200528,1.606049012077,1.636351823625,
    1.666654635174,1.696957446723,1.727260258271,1.75756306982,
    1.787865881369,1.818168692917,1.848471504466,1.878774316014,
    1.909077127563,1.939379939112,1.96968275066,1.999985562209),
  .QUASI_UNIFORM_KNOTS.);
#427 = CARTESIAN_POINT('',(6.28318530718,196.32636328886));
#428 = CARTESIAN_POINT('',(6.287263717959,196.32638949766));
#429 = CARTESIAN_POINT('',(6.295326543334,196.31488919154));
#430 = CARTESIAN_POINT('',(6.307008250075,196.26574026414));
#431 = CARTESIAN_POINT('',(6.318140825488,196.18733023351));
#432 = CARTESIAN_POINT('',(6.328608869904,196.08272464747));
#433 = CARTESIAN_POINT('',(6.338312352759,195.95525642405));
#434 = CARTESIAN_POINT('',(6.347168866256,195.80857631244));
#435 = CARTESIAN_POINT('',(6.355118028436,195.6465632573));
#436 = CARTESIAN_POINT('',(6.362110375226,195.4735781024));
#437 = CARTESIAN_POINT('',(6.368157058459,195.29347882206));
#438 = CARTESIAN_POINT('',(6.373408545369,195.10488715318));
#439 = CARTESIAN_POINT('',(6.377857391867,194.91008249815));
#440 = CARTESIAN_POINT('',(6.381531916432,194.71020322526));
#441 = CARTESIAN_POINT('',(6.384448057868,194.50645426479));
#442 = CARTESIAN_POINT('',(6.386621563565,194.29982563535));
#443 = CARTESIAN_POINT('',(6.388064023048,194.09120235624));
#444 = CARTESIAN_POINT('',(6.388783405764,193.88138318694));
#445 = CARTESIAN_POINT('',(6.38878291877,193.67105954879));
#446 = CARTESIAN_POINT('',(6.388062569525,193.46124293112));
#447 = CARTESIAN_POINT('',(6.386619142942,193.25262264723));
#448 = CARTESIAN_POINT('',(6.384444648844,193.0459969285));
#449 = CARTESIAN_POINT('',(6.38152747447,192.84225070986));
#450 = CARTESIAN_POINT('',(6.377851864415,192.64237483428));
#451 = CARTESIAN_POINT('',(6.373401871366,192.44757507646));
#452 = CARTESIAN_POINT('',(6.368149275697,192.25899317788));
#453 = CARTESIAN_POINT('',(6.362101372117,192.07890428826));
#454 = CARTESIAN_POINT('',(6.355108571045,191.90595242579));
#455 = CARTESIAN_POINT('',(6.347160160598,191.74399301455));
#456 = CARTESIAN_POINT('',(6.338305429334,191.59736962582));
#457 = CARTESIAN_POINT('',(6.328604020654,191.46995205884));
#458 = CARTESIAN_POINT('',(6.318139803099,191.36538180207));
#459 = CARTESIAN_POINT('',(6.307005466963,191.28699504511));
#460 = CARTESIAN_POINT('',(6.295341638137,191.23783343526));
#461 = CARTESIAN_POINT('',(6.283188398149,191.22063219754));
#462 = CARTESIAN_POINT('',(6.271034095629,191.23781751362));
#463 = CARTESIAN_POINT('',(6.259368140733,191.28697598765));
#464 = CARTESIAN_POINT('',(6.248230986903,191.36537740287));
#465 = CARTESIAN_POINT('',(6.237763806893,191.46998100875));
#466 = CARTESIAN_POINT('',(6.22805973531,191.59744713178));
#467 = CARTESIAN_POINT('',(6.219203036071,191.74412671565));
#468 = CARTESIAN_POINT('',(6.211253603223,191.9061401565));
#469 = CARTESIAN_POINT('',(6.204261031781,192.07912680305));
#470 = CARTESIAN_POINT('',(6.198214163686,192.25922771389));
#471 = CARTESIAN_POINT('',(6.192962519925,192.4478213834));
#472 = CARTESIAN_POINT('',(6.188513541062,192.64262836752));
#473 = CARTESIAN_POINT('',(6.184838908206,192.84251020992));
#474 = CARTESIAN_POINT('',(6.181922681407,193.04626192207));
#475 = CARTESIAN_POINT('',(6.179749112481,193.25289343321));
#476 = CARTESIAN_POINT('',(6.178306611223,193.46151968154));
#477 = CARTESIAN_POINT('',(6.177587207727,193.67134187072));
#478 = CARTESIAN_POINT('',(6.177587694727,193.88166854829));
#479 = CARTESIAN_POINT('',(6.178308064763,194.09148818578));
#480 = CARTESIAN_POINT('',(6.179751533131,194.30011143884));
#481 = CARTESIAN_POINT('',(6.181926090476,194.50674003924));
#482 = CARTESIAN_POINT('',(6.184843350212,194.71048900954));
#483 = CARTESIAN_POINT('',(6.188519068636,194.91036745446));
#484 = CARTESIAN_POINT('',(6.192969193842,195.10516954136));
#485 = CARTESIAN_POINT('',(6.198221947214,195.29375343899));
#486 = CARTESIAN_POINT('',(6.204270032519,195.47384396207));
#487 = CARTESIAN_POINT('',(6.211263069905,195.64679729974));
#488 = CARTESIAN_POINT('',(6.219211706627,195.80875713705));
#489 = CARTESIAN_POINT('',(6.228066788563,195.95537983975));
#490 = CARTESIAN_POINT('',(6.237768169705,196.08279589612));
#491 = CARTESIAN_POINT('',(6.248233822269,196.18736197877));
#492 = CARTESIAN_POINT('',(6.259364155108,196.26574832138));
#493 = CARTESIAN_POINT('',(6.271044259798,196.31488888697));
#494 = CARTESIAN_POINT('',(6.279106777358,196.32638907037));
#495 = CARTESIAN_POINT('',(6.28318530718,196.32636328886));
#496 = ( GEOMETRIC_REPRESENTATION_CONTEXT(2) 
PARAMETRIC_REPRESENTATION_CONTEXT() REPRESENTATION_CONTEXT('2D SPACE',''
  ) );
#497 = PCURVE('',#498,#503);
#498 = CYLINDRICAL_SURFACE('',#499,2.55);
#499 = AXIS2_PLACEMENT_3D('',#500,#501,#502);
#500 = CARTESIAN_POINT('',(22.7,0.,193.77636328886));
#501 = DIRECTION('',(1.,0.,0.));
#502 = DIRECTION('',(-0.,0.,1.));
#503 = DEFINITIONAL_REPRESENTATION('',(#504),#574);
#504 = B_SPLINE_CURVE_WITH_KNOTS('',3,(#505,#506,#507,#508,#509,#510,
    #511,#512,#513,#514,#515,#516,#517,#518,#519,#520,#521,#522,#523,
    #524,#525,#526,#527,#528,#529,#530,#531,#532,#533,#534,#535,#536,
    #537,#538,#539,#540,#541,#542,#543,#544,#545,#546,#547,#548,#549,
    #550,#551,#552,#553,#554,#555,#556,#557,#558,#559,#560,#561,#562,
    #563,#564,#565,#566,#567,#568,#569,#570,#571,#572,#573),
  .UNSPECIFIED.,.F.,.F.,(4,1,1,1,1,1,1,1,1,1,1,1,1,1,1,1,1,1,1,1,1,1,1,1
    ,1,1,1,1,1,1,1,1,1,1,1,1,1,1,1,1,1,1,1,1,1,1,1,1,1,1,1,1,1,1,1,1,1,1
    ,1,1,1,1,1,1,1,1,4),(0.,3.030281154862E-02,6.060562309724E-02,
    9.090843464586E-02,0.121211246194,0.151514057743,0.181816869292,
    0.21211968084,0.242422492389,0.272725303938,0.303028115486,
    0.333330927035,0.363633738583,0.393936550132,0.424239361681,
    0.454542173229,0.484844984778,0.515147796327,0.545450607875,
    0.575753419424,0.606056230972,0.636359042521,0.66666185407,
    0.696964665618,0.727267477167,0.757570288715,0.787873100264,
    0.818175911813,0.848478723361,0.87878153491,0.909084346459,
    0.939387158007,0.969689969556,0.999992781104,1.030295592653,
    1.060598404202,1.09090121575,1.121204027299,1.151506838848,
    1.181809650396,1.212112461945,1.242415273493,1.272718085042,
    1.303020896591,1.333323708139,1.363626519688,1.393929331236,
    1.424232142785,1.454534954334,1.484837765882,1.515140577431,
    1.54544338898,1.575746200528,1.606049012077,1.636351823625,
    1.666654635174,1.696957446723,1.727260258271,1.75756306982,
    1.787865881369,1.818168692917,1.848471504466,1.878774316014,
    1.909077127563,1.939379939112,1.96968275066,1.999985562209),
  .QUASI_UNIFORM_KNOTS.);
#505 = CARTESIAN_POINT('',(6.28318530718,1.5));
#506 = CARTESIAN_POINT('',(6.244497528366,1.500011385708));
#507 = CARTESIAN_POINT('',(6.167949027978,1.498783118475));
#508 = CARTESIAN_POINT('',(6.055626662521,1.493661050317));
#509 = CARTESIAN_POINT('',(5.945798968722,1.485687713425));
#510 = CARTESIAN_POINT('',(5.838547477198,1.475449181584));
#511 = CARTESIAN_POINT('',(5.734012207253,1.463584701549));
#512 = CARTESIAN_POINT('',(5.632418187813,1.450765028484));
#513 = CARTESIAN_POINT('',(5.53404248229,1.437642064931));
#514 = CARTESIAN_POINT('',(5.439383616049,1.42483560921));
#515 = CARTESIAN_POINT('',(5.348599269717,1.412815258277));
#516 = CARTESIAN_POINT('',(5.25961099971,1.401664192941));
#517 = CARTESIAN_POINT('',(5.172497133718,1.391696677763));
#518 = CARTESIAN_POINT('',(5.086850412116,1.383105589162));
#519 = CARTESIAN_POINT('',(5.002412385296,1.376056395853));
#520 = CARTESIAN_POINT('',(4.918896821105,1.370669504058));
#521 = CARTESIAN_POINT('',(4.836029772044,1.367031785617));
#522 = CARTESIAN_POINT('',(4.753538326148,1.365198907296));
#523 = CARTESIAN_POINT('',(4.671128355314,1.365200152316));
#524 = CARTESIAN_POINT('',(4.588637155371,1.367035476472));
#525 = CARTESIAN_POINT('',(4.505769766006,1.370675566464));
#526 = CARTESIAN_POINT('',(4.422253019466,1.376064755999));
#527 = CARTESIAN_POINT('',(4.337812832045,1.383116171401));
#528 = CARTESIAN_POINT('',(4.252163180034,1.391709359502));
#529 = CARTESIAN_POINT('',(4.165045766828,1.401678787168));
#530 = CARTESIAN_POINT('',(4.076054833315,1.412831298588));
#531 = CARTESIAN_POINT('',(3.985266368783,1.424852836131));
#532 = CARTESIAN_POINT('',(3.890613808553,1.437658514787));
#533 = CARTESIAN_POINT('',(3.792256965049,1.450778377998));
#534 = CARTESIAN_POINT('',(3.690689411899,1.463593891177));
#535 = CARTESIAN_POINT('',(3.586180556938,1.475453930191));
#536 = CARTESIAN_POINT('',(3.478967963857,1.485689489653));
#537 = CARTESIAN_POINT('',(3.369127538112,1.493659079274));
#538 = CARTESIAN_POINT('',(3.256963629283,1.49878753802));
#539 = CARTESIAN_POINT('',(3.141621918835,1.500605811699));
#540 = CARTESIAN_POINT('',(3.026270536705,1.498789214569));
#541 = CARTESIAN_POINT('',(2.914087059443,1.493661036863));
#542 = CARTESIAN_POINT('',(2.804219475616,1.485689898782));
#543 = CARTESIAN_POINT('',(2.696976066977,1.475451102153));
#544 = CARTESIAN_POINT('',(2.59243608728,1.463586801359));
#545 = CARTESIAN_POINT('',(2.490840834434,1.450767004566));
#546 = CARTESIAN_POINT('',(2.392463035694,1.437643858945));
#547 = CARTESIAN_POINT('',(2.2978022839,1.42483712952));
#548 = CARTESIAN_POINT('',(2.207016338521,1.41281651492));
#549 = CARTESIAN_POINT('',(2.118026595167,1.4016651816));
#550 = CARTESIAN_POINT('',(2.030911328792,1.391697410478));
#551 = CARTESIAN_POINT('',(1.945263275102,1.383106091335));
#552 = CARTESIAN_POINT('',(1.860823968681,1.376056702937));
#553 = CARTESIAN_POINT('',(1.777307165673,1.370669658932));
#554 = CARTESIAN_POINT('',(1.694438906384,1.367031836313));
#555 = CARTESIAN_POINT('',(1.611946267151,1.365198905091));
#556 = CARTESIAN_POINT('',(1.529535107416,1.365200150125));
#557 = CARTESIAN_POINT('',(1.447042714136,1.367035527211));
#558 = CARTESIAN_POINT('',(1.364174114531,1.370675721408));
#559 = CARTESIAN_POINT('',(1.28065612908,1.376065063175));
#560 = CARTESIAN_POINT('',(1.196214662118,1.383116673694));
#561 = CARTESIAN_POINT('',(1.110563677404,1.391710092325));
#562 = CARTESIAN_POINT('',(1.023444865725,1.401679776034));
#563 = CARTESIAN_POINT('',(0.934452451526,1.412832555036));
#564 = CARTESIAN_POINT('',(0.843662415566,1.424854357566));
#565 = CARTESIAN_POINT('',(0.749007868013,1.437660304554));
#566 = CARTESIAN_POINT('',(0.650649322017,1.450780368032));
#567 = CARTESIAN_POINT('',(0.549079083896,1.46359593586));
#568 = CARTESIAN_POINT('',(0.444570941875,1.47545605282));
#569 = CARTESIAN_POINT('',(0.337346196524,1.485690917468));
#570 = CARTESIAN_POINT('',(0.227541398843,1.493661890579));
#571 = CARTESIAN_POINT('',(0.115234536382,1.498783091066));
#572 = CARTESIAN_POINT('',(3.868886753516E-02,1.500011331561));
#573 = CARTESIAN_POINT('',(0.,1.5));
#574 = ( GEOMETRIC_REPRESENTATION_CONTEXT(2) 
PARAMETRIC_REPRESENTATION_CONTEXT() REPRESENTATION_CONTEXT('2D SPACE',''
  ) );
#575 = ADVANCED_FACE('',(#576),#498,.F.);
#576 = FACE_BOUND('',#577,.F.);
#577 = EDGE_LOOP('',(#578,#579,#602,#807));
#578 = ORIENTED_EDGE('',*,*,#369,.T.);
#579 = ORIENTED_EDGE('',*,*,#580,.F.);
#580 = EDGE_CURVE('',#581,#370,#583,.T.);
#581 = VERTEX_POINT('',#582);
#582 = CARTESIAN_POINT('',(23.,-2.504402704256E-15,196.32636328886));
#583 = SEAM_CURVE('',#584,(#588,#595),.PCURVE_S1.);
#584 = LINE('',#585,#586);
#585 = CARTESIAN_POINT('',(22.7,6.245698675652E-16,196.32636328886));
#586 = VECTOR('',#587,1.);
#587 = DIRECTION('',(1.,0.,0.));
#588 = PCURVE('',#498,#589);
#589 = DEFINITIONAL_REPRESENTATION('',(#590),#594);
#590 = LINE('',#591,#592);
#591 = CARTESIAN_POINT('',(0.,-0.));
#592 = VECTOR('',#593,1.);
#593 = DIRECTION('',(0.,1.));
#594 = ( GEOMETRIC_REPRESENTATION_CONTEXT(2) 
PARAMETRIC_REPRESENTATION_CONTEXT() REPRESENTATION_CONTEXT('2D SPACE',''
  ) );
#595 = PCURVE('',#498,#596);
#596 = DEFINITIONAL_REPRESENTATION('',(#597),#601);
#597 = LINE('',#598,#599);
#598 = CARTESIAN_POINT('',(6.28318530718,-0.));
#599 = VECTOR('',#600,1.);
#600 = DIRECTION('',(0.,1.));
#601 = ( GEOMETRIC_REPRESENTATION_CONTEXT(2) 
PARAMETRIC_REPRESENTATION_CONTEXT() REPRESENTATION_CONTEXT('2D SPACE',''
  ) );
#602 = ORIENTED_EDGE('',*,*,#603,.F.);
#603 = EDGE_CURVE('',#581,#581,#604,.T.);
#604 = SURFACE_CURVE('',#605,(#656,#729),.PCURVE_S1.);
#605 = B_SPLINE_CURVE_WITH_KNOTS('',7,(#606,#607,#608,#609,#610,#611,
    #612,#613,#614,#615,#616,#617,#618,#619,#620,#621,#622,#623,#624,
    #625,#626,#627,#628,#629,#630,#631,#632,#633,#634,#635,#636,#637,
    #638,#639,#640,#641,#642,#643,#644,#645,#646,#647,#648,#649,#650,
    #651,#652,#653,#654,#655),.UNSPECIFIED.,.T.,.F.,(8,6,6,6,6,6,6,6,8),
  (0.,0.24875694507,0.499975906611,0.751194225563,1.,1.248753341944,
    1.499968664699,1.751183344873,1.999985515476),.UNSPECIFIED.);
#606 = CARTESIAN_POINT('',(23.,1.4447124189E-15,196.32636328886));
#607 = CARTESIAN_POINT('',(23.,0.347158651016,196.32636328886));
#608 = CARTESIAN_POINT('',(22.993886647045,0.683889225707,
    196.27122455104));
#609 = CARTESIAN_POINT('',(22.982321516116,1.000251191975,
    196.16690432999));
#610 = CARTESIAN_POINT('',(22.966973999326,1.288221091919,
    196.02107813603));
#611 = CARTESIAN_POINT('',(22.950042106134,1.541881220237,
    195.84308599042));
#612 = CARTESIAN_POINT('',(22.933417237858,1.757972453465,
    195.64379781248));
#613 = CARTESIAN_POINT('',(22.903101568892,2.11675938528,195.22501992079
    ));
#614 = CARTESIAN_POINT('',(22.88900364859,2.263888545086,194.99930181882
    ));
#615 = CARTESIAN_POINT('',(22.877004350492,2.379461317375,
    194.76339861552));
#616 = CARTESIAN_POINT('',(22.867687457867,2.464993012683,
    194.52082173828));
#617 = CARTESIAN_POINT('',(22.861368533695,2.521634862473,
    194.27413072597));
#618 = CARTESIAN_POINT('',(22.85820421643,2.55,194.02536004306));
#619 = CARTESIAN_POINT('',(22.85820421643,2.55,193.52736717158));
#620 = CARTESIAN_POINT('',(22.861368521592,2.521634979658,
    193.27860044929));
#621 = CARTESIAN_POINT('',(22.867687249106,2.464994866933,
    193.03191125573));
#622 = CARTESIAN_POINT('',(22.877004069565,2.37946386835,192.78933120958
    ));
#623 = CARTESIAN_POINT('',(22.889003728843,2.263888477587,
    192.55342222975));
#624 = CARTESIAN_POINT('',(22.903101912636,2.116755317062,
    192.32770190849));
#625 = CARTESIAN_POINT('',(22.933419896736,1.75794098555,191.90889203574
    ));
#626 = CARTESIAN_POINT('',(22.950044330777,1.541848045945,
    191.70962057186));
#627 = CARTESIAN_POINT('',(22.966973382181,1.288217139572,
    191.53166016007));
#628 = CARTESIAN_POINT('',(22.982318163849,1.000293759443,
    191.38585256242));
#629 = CARTESIAN_POINT('',(22.993884067236,0.683968804382,
    191.28152526328));
#630 = CARTESIAN_POINT('',(23.,0.347231825484,191.22636328886));
#631 = CARTESIAN_POINT('',(23.,-0.347158651016,191.22636328886));
#632 = CARTESIAN_POINT('',(22.993886647045,-0.683889225707,
    191.28150202669));
#633 = CARTESIAN_POINT('',(22.982321516117,-1.000251191975,
    191.38582224774));
#634 = CARTESIAN_POINT('',(22.966973999326,-1.28822109192,191.5316484417
    ));
#635 = CARTESIAN_POINT('',(22.950042106134,-1.541881220237,
    191.70964058731));
#636 = CARTESIAN_POINT('',(22.933417237858,-1.757972453465,
    191.90892876525));
#637 = CARTESIAN_POINT('',(22.903101568892,-2.11675938528,
    192.32770665694));
#638 = CARTESIAN_POINT('',(22.88900364859,-2.263888545086,192.5534247589
    ));
#639 = CARTESIAN_POINT('',(22.877004350492,-2.379461317375,
    192.78932796221));
#640 = CARTESIAN_POINT('',(22.867687457867,-2.464993012684,
    193.03190483945));
#641 = CARTESIAN_POINT('',(22.861368533695,-2.521634862473,
    193.27859585176));
#642 = CARTESIAN_POINT('',(22.85820421643,-2.55,193.52736653467));
#643 = CARTESIAN_POINT('',(22.85820421643,-2.55,194.02535940615));
#644 = CARTESIAN_POINT('',(22.861368521592,-2.521634979658,
    194.27412612844));
#645 = CARTESIAN_POINT('',(22.867687249106,-2.464994866932,194.520815322
    ));
#646 = CARTESIAN_POINT('',(22.877004069565,-2.37946386835,
    194.76339536815));
#647 = CARTESIAN_POINT('',(22.889003728843,-2.263888477586,
    194.99930434798));
#648 = CARTESIAN_POINT('',(22.903101912636,-2.116755317062,
    195.22502466923));
#649 = CARTESIAN_POINT('',(22.933419896736,-1.75794098555,
    195.64383454198));
#650 = CARTESIAN_POINT('',(22.950044330777,-1.541848045944,
    195.84310600587));
#651 = CARTESIAN_POINT('',(22.966973382181,-1.288217139573,
    196.02106641765));
#652 = CARTESIAN_POINT('',(22.982318163849,-1.000293759442,
    196.1668740153));
#653 = CARTESIAN_POINT('',(22.993884067236,-0.683968804383,
    196.27120131445));
#654 = CARTESIAN_POINT('',(23.,-0.347231825484,196.32636328886));
#655 = CARTESIAN_POINT('',(23.,-1.33226762955E-15,196.32636328886));
#656 = PCURVE('',#498,#657);
#657 = DEFINITIONAL_REPRESENTATION('',(#658),#728);
#658 = B_SPLINE_CURVE_WITH_KNOTS('',3,(#659,#660,#661,#662,#663,#664,
    #665,#666,#667,#668,#669,#670,#671,#672,#673,#674,#675,#676,#677,
    #678,#679,#680,#681,#682,#683,#684,#685,#686,#687,#688,#689,#690,
    #691,#692,#693,#694,#695,#696,#697,#698,#699,#700,#701,#702,#703,
    #704,#705,#706,#707,#708,#709,#710,#711,#712,#713,#714,#715,#716,
    #717,#718,#719,#720,#721,#722,#723,#724,#725,#726,#727),
  .UNSPECIFIED.,.F.,.F.,(4,1,1,1,1,1,1,1,1,1,1,1,1,1,1,1,1,1,1,1,1,1,1,1
    ,1,1,1,1,1,1,1,1,1,1,1,1,1,1,1,1,1,1,1,1,1,1,1,1,1,1,1,1,1,1,1,1,1,1
    ,1,1,1,1,1,1,1,1,4),(0.,3.030281084054E-02,6.060562168108E-02,
    9.090843252162E-02,0.121211243362,0.151514054203,0.181816865043,
    0.212119675884,0.242422486724,0.272725297565,0.303028108405,
    0.333330919246,0.363633730086,0.393936540927,0.424239351768,
    0.454542162608,0.484844973449,0.515147784289,0.54545059513,
    0.57575340597,0.606056216811,0.636359027651,0.666661838492,
    0.696964649332,0.727267460173,0.757570271014,0.787873081854,
    0.818175892695,0.848478703535,0.878781514376,0.909084325216,
    0.939387136057,0.969689946897,0.999992757738,1.030295568578,
    1.060598379419,1.090901190259,1.1212040011,1.151506811941,
    1.181809622781,1.212112433622,1.242415244462,1.272718055303,
    1.303020866143,1.333323676984,1.363626487824,1.393929298665,
    1.424232109505,1.454534920346,1.484837731186,1.515140542027,
    1.545443352868,1.575746163708,1.606048974549,1.636351785389,
    1.66665459623,1.69695740707,1.727260217911,1.757563028751,
    1.787865839592,1.818168650432,1.848471461273,1.878774272113,
    1.909077082954,1.939379893795,1.969682704635,1.999985515476),
  .QUASI_UNIFORM_KNOTS.);
#659 = CARTESIAN_POINT('',(6.28318530718,0.3));
#660 = CARTESIAN_POINT('',(6.244494027357,0.30001194872));
#661 = CARTESIAN_POINT('',(6.167940964765,0.298719423039));
#662 = CARTESIAN_POINT('',(6.055617514969,0.29332967297));
#663 = CARTESIAN_POINT('',(5.945792833039,0.284939990528));
#664 = CARTESIAN_POINT('',(5.838547144798,0.274166880157));
#665 = CARTESIAN_POINT('',(5.734019332079,0.261682671108));
#666 = CARTESIAN_POINT('',(5.632433435061,0.248192802038));
#667 = CARTESIAN_POINT('',(5.534065709246,0.234382963151));
#668 = CARTESIAN_POINT('',(5.439413747887,0.220905191293));
#669 = CARTESIAN_POINT('',(5.348635168345,0.208253738721));
#670 = CARTESIAN_POINT('',(5.259649330988,0.196515974479));
#671 = CARTESIAN_POINT('',(5.172535142042,0.186023010099));
#672 = CARTESIAN_POINT('',(5.086885505152,0.17697821072));
#673 = CARTESIAN_POINT('',(5.00244231263,0.169556144592));
#674 = CARTESIAN_POINT('',(4.918919698696,0.163883932568));
#675 = CARTESIAN_POINT('',(4.836044145983,0.16005334747));
#676 = CARTESIAN_POINT('',(4.75354323639,0.158123229732));
#677 = CARTESIAN_POINT('',(4.671123353308,0.158124541715));
#678 = CARTESIAN_POINT('',(4.588622684367,0.160057236994));
#679 = CARTESIAN_POINT('',(4.505746783487,0.163890321602));
#680 = CARTESIAN_POINT('',(4.422222978202,0.169564955479));
#681 = CARTESIAN_POINT('',(4.337777615806,0.176989363683));
#682 = CARTESIAN_POINT('',(4.252125039589,0.186036375706));
#683 = CARTESIAN_POINT('',(4.165007294586,0.196531355358));
#684 = CARTESIAN_POINT('',(4.076018787521,0.208270642909));
#685 = CARTESIAN_POINT('',(3.985236078988,0.220923345562));
#686 = CARTESIAN_POINT('',(3.890590437518,0.234400296445));
#687 = CARTESIAN_POINT('',(3.792241606754,0.248206866021));
#688 = CARTESIAN_POINT('',(3.690682222621,0.261692349695));
#689 = CARTESIAN_POINT('',(3.586180865086,0.274171878984));
#690 = CARTESIAN_POINT('',(3.47897415028,0.284941855725));
#691 = CARTESIAN_POINT('',(3.369136662157,0.293327598595));
#692 = CARTESIAN_POINT('',(3.256972106958,0.298724055645));
#693 = CARTESIAN_POINT('',(3.141622014496,0.300637529511));
#694 = CARTESIAN_POINT('',(3.026262228626,0.298725825659));
#695 = CARTESIAN_POINT('',(2.914078074716,0.293329667528));
#696 = CARTESIAN_POINT('',(2.804213383929,0.284942295087));
#697 = CARTESIAN_POINT('',(2.696975801483,0.274168908186));
#698 = CARTESIAN_POINT('',(2.592443264465,0.261684887625));
#699 = CARTESIAN_POINT('',(2.490856129922,0.248194888265));
#700 = CARTESIAN_POINT('',(2.392486304373,0.234384857237));
#701 = CARTESIAN_POINT('',(2.297832451611,0.220906796547));
#702 = CARTESIAN_POINT('',(2.207052268179,0.208255065696));
#703 = CARTESIAN_POINT('',(2.11806495307,0.196517018582));
#704 = CARTESIAN_POINT('',(2.03094935943,0.186023783978));
#705 = CARTESIAN_POINT('',(1.945298386274,0.176978741151));
#706 = CARTESIAN_POINT('',(1.860853910053,0.169556468981));
#707 = CARTESIAN_POINT('',(1.77733005326,0.163884096179));
#708 = CARTESIAN_POINT('',(1.694453286314,0.160053401028));
#709 = CARTESIAN_POINT('',(1.611951179392,0.158123227402));
#710 = CARTESIAN_POINT('',(1.529530103415,0.158124539401));
#711 = CARTESIAN_POINT('',(1.447028237146,0.160057290598));
#712 = CARTESIAN_POINT('',(1.364151122017,0.163890485286));
#713 = CARTESIAN_POINT('',(1.28062607378,0.169565279964));
#714 = CARTESIAN_POINT('',(1.196179427746,0.176989894241));
#715 = CARTESIAN_POINT('',(1.110525514645,0.186037149699));
#716 = CARTESIAN_POINT('',(1.023406366864,0.19653239968));
#717 = CARTESIAN_POINT('',(0.934416374687,0.20827196968));
#718 = CARTESIAN_POINT('',(0.843632089965,0.220924951997));
#719 = CARTESIAN_POINT('',(0.748984455028,0.234402186071));
#720 = CARTESIAN_POINT('',(0.650633916407,0.248208966884));
#721 = CARTESIAN_POINT('',(0.549071838912,0.261694508353));
#722 = CARTESIAN_POINT('',(0.444571195741,0.274174119056));
#723 = CARTESIAN_POINT('',(0.337352291977,0.284943365284));
#724 = CARTESIAN_POINT('',(0.227550535503,0.293330557566));
#725 = CARTESIAN_POINT('',(0.115242604281,0.298719393973));
#726 = CARTESIAN_POINT('',(3.869237237796E-02,0.300011891683));
#727 = CARTESIAN_POINT('',(0.,0.3));
#728 = ( GEOMETRIC_REPRESENTATION_CONTEXT(2) 
PARAMETRIC_REPRESENTATION_CONTEXT() REPRESENTATION_CONTEXT('2D SPACE',''
  ) );
#729 = PCURVE('',#730,#735);
#730 = CYLINDRICAL_SURFACE('',#731,23.);
#731 = AXIS2_PLACEMENT_3D('',#732,#733,#734);
#732 = CARTESIAN_POINT('',(0.,0.,-0.2));
#733 = DIRECTION('',(0.,0.,1.));
#734 = DIRECTION('',(1.,0.,-0.));
#735 = DEFINITIONAL_REPRESENTATION('',(#736),#806);
#736 = B_SPLINE_CURVE_WITH_KNOTS('',3,(#737,#738,#739,#740,#741,#742,
    #743,#744,#745,#746,#747,#748,#749,#750,#751,#752,#753,#754,#755,
    #756,#757,#758,#759,#760,#761,#762,#763,#764,#765,#766,#767,#768,
    #769,#770,#771,#772,#773,#774,#775,#776,#777,#778,#779,#780,#781,
    #782,#783,#784,#785,#786,#787,#788,#789,#790,#791,#792,#793,#794,
    #795,#796,#797,#798,#799,#800,#801,#802,#803,#804,#805),
  .UNSPECIFIED.,.T.,.F.,(4,1,1,1,1,1,1,1,1,1,1,1,1,1,1,1,1,1,1,1,1,1,1,1
    ,1,1,1,1,1,1,1,1,1,1,1,1,1,1,1,1,1,1,1,1,1,1,1,1,1,1,1,1,1,1,1,1,1,1
    ,1,1,1,1,1,1,1,1,4),(0.,3.030281084054E-02,6.060562168108E-02,
    9.090843252162E-02,0.121211243362,0.151514054203,0.181816865043,
    0.212119675884,0.242422486724,0.272725297565,0.303028108405,
    0.333330919246,0.363633730086,0.393936540927,0.424239351768,
    0.454542162608,0.484844973449,0.515147784289,0.54545059513,
    0.57575340597,0.606056216811,0.636359027651,0.666661838492,
    0.696964649332,0.727267460173,0.757570271014,0.787873081854,
    0.818175892695,0.848478703535,0.878781514376,0.909084325216,
    0.939387136057,0.969689946897,0.999992757738,1.030295568578,
    1.060598379419,1.090901190259,1.1212040011,1.151506811941,
    1.181809622781,1.212112433622,1.242415244462,1.272718055303,
    1.303020866143,1.333323676984,1.363626487824,1.393929298665,
    1.424232109505,1.454534920346,1.484837731186,1.515140542027,
    1.545443352868,1.575746163708,1.606048974549,1.636351785389,
    1.66665459623,1.69695740707,1.727260217911,1.757563028751,
    1.787865839592,1.818168650432,1.848471461273,1.878774272113,
    1.909077082954,1.939379893795,1.969682704635,1.999985515476),
  .QUASI_UNIFORM_KNOTS.);
#737 = CARTESIAN_POINT('',(6.28318530718,196.52636328886));
#738 = CARTESIAN_POINT('',(6.287476891517,196.52638932209));
#739 = CARTESIAN_POINT('',(6.29596089286,196.51488725565));
#740 = CARTESIAN_POINT('',(6.308252370623,196.46573485322));
#741 = CARTESIAN_POINT('',(6.319965954404,196.38732464584));
#742 = CARTESIAN_POINT('',(6.330980490632,196.28272372481));
#743 = CARTESIAN_POINT('',(6.341190914432,196.15526533067));
#744 = CARTESIAN_POINT('',(6.350510611716,196.00859934837));
#745 = CARTESIAN_POINT('',(6.358876056242,195.84660320663));
#746 = CARTESIAN_POINT('',(6.36623515037,195.67363525338));
#747 = CARTESIAN_POINT('',(6.372599483802,195.49355236009));
#748 = CARTESIAN_POINT('',(6.378127417908,195.30497069957));
#749 = CARTESIAN_POINT('',(6.382810893395,195.11016950251));
#750 = CARTESIAN_POINT('',(6.386679540918,194.91028672238));
#751 = CARTESIAN_POINT('',(6.389749968812,194.70652760567));
#752 = CARTESIAN_POINT('',(6.392038610525,194.49988291471));
#753 = CARTESIAN_POINT('',(6.393557551253,194.29123885088));
#754 = CARTESIAN_POINT('',(6.394315099445,194.08139574016));
#755 = CARTESIAN_POINT('',(6.394314586258,193.87104676148));
#756 = CARTESIAN_POINT('',(6.393556019488,193.66120619096));
#757 = CARTESIAN_POINT('',(6.392036059475,193.45256510684));
#758 = CARTESIAN_POINT('',(6.389746375961,193.24592331113));
#759 = CARTESIAN_POINT('',(6.386674859329,193.0421669235));
#760 = CARTESIAN_POINT('',(6.382805067764,192.84228753242));
#761 = CARTESIAN_POINT('',(6.378120383997,192.64749122869));
#762 = CARTESIAN_POINT('',(6.372591281667,192.4589193439));
#763 = CARTESIAN_POINT('',(6.366225662335,192.27884684249));
#764 = CARTESIAN_POINT('',(6.358866090648,192.10591223256));
#765 = CARTESIAN_POINT('',(6.350501439847,191.94396981322));
#766 = CARTESIAN_POINT('',(6.341183622428,191.79736063606));
#767 = CARTESIAN_POINT('',(6.330975385329,191.66995296391));
#768 = CARTESIAN_POINT('',(6.319964883961,191.56538742196));
#769 = CARTESIAN_POINT('',(6.308249439669,191.48700047402));
#770 = CARTESIAN_POINT('',(6.295976820668,191.43783548064));
#771 = CARTESIAN_POINT('',(6.283188570038,191.42063118833));
#772 = CARTESIAN_POINT('',(6.270399198938,191.43781950511));
#773 = CARTESIAN_POINT('',(6.258124339358,191.48698133233));
#774 = CARTESIAN_POINT('',(6.246405925131,191.56538293834));
#775 = CARTESIAN_POINT('',(6.235392300747,191.66998186272));
#776 = CARTESIAN_POINT('',(6.225181255731,191.79743815332));
#777 = CARTESIAN_POINT('',(6.215861362391,191.94410360575));
#778 = CARTESIAN_POINT('',(6.207495632204,192.10610013465));
#779 = CARTESIAN_POINT('',(6.200136300947,192.27906958398));
#780 = CARTESIAN_POINT('',(6.193771772379,192.45915411245));
#781 = CARTESIAN_POINT('',(6.188243672686,192.64773777921));
#782 = CARTESIAN_POINT('',(6.183560057438,192.84254131227));
#783 = CARTESIAN_POINT('',(6.179691295556,193.04242666978));
#784 = CARTESIAN_POINT('',(6.176620777502,193.24618854685));
#785 = CARTESIAN_POINT('',(6.174332069001,193.45283612885));
#786 = CARTESIAN_POINT('',(6.172813084143,193.66148317169));
#787 = CARTESIAN_POINT('',(6.172055513997,193.87132931239));
#788 = CARTESIAN_POINT('',(6.17205602719,194.0816813407));
#789 = CARTESIAN_POINT('',(6.172814615926,194.29152494113));
#790 = CARTESIAN_POINT('',(6.17433462008,194.50016900423));
#791 = CARTESIAN_POINT('',(6.176624370401,194.70681369094));
#792 = CARTESIAN_POINT('',(6.179695977191,194.91057283892));
#793 = CARTESIAN_POINT('',(6.183565883198,195.1104548072));
#794 = CARTESIAN_POINT('',(6.188250706506,195.30525344693));
#795 = CARTESIAN_POINT('',(6.193779975322,195.49382733638));
#796 = CARTESIAN_POINT('',(6.200145786481,195.6739014759));
#797 = CARTESIAN_POINT('',(6.207505607599,195.84683756552));
#798 = CARTESIAN_POINT('',(6.215870497225,196.00878041209));
#799 = CARTESIAN_POINT('',(6.225188684705,196.15538890214));
#800 = CARTESIAN_POINT('',(6.235396892851,196.28279505657));
#801 = CARTESIAN_POINT('',(6.246408908282,196.38735642278));
#802 = CARTESIAN_POINT('',(6.258120129222,196.46574291497));
#803 = CARTESIAN_POINT('',(6.270409919604,196.51488694919));
#804 = CARTESIAN_POINT('',(6.278893597161,196.52638889432));
#805 = CARTESIAN_POINT('',(6.28318530718,196.52636328886));
#806 = ( GEOMETRIC_REPRESENTATION_CONTEXT(2) 
PARAMETRIC_REPRESENTATION_CONTEXT() REPRESENTATION_CONTEXT('2D SPACE',''
  ) );
#807 = ORIENTED_EDGE('',*,*,#580,.T.);
#808 = ADVANCED_FACE('',(#809,#905,#1109),#730,.F.);
#809 = FACE_BOUND('',#810,.F.);
#810 = EDGE_LOOP('',(#811,#841,#862,#886));
#811 = ORIENTED_EDGE('',*,*,#812,.T.);
#812 = EDGE_CURVE('',#813,#815,#817,.T.);
#813 = VERTEX_POINT('',#814);
#814 = CARTESIAN_POINT('',(22.216294004649,5.952838037358,389.4));
#815 = VERTEX_POINT('',#816);
#816 = CARTESIAN_POINT('',(22.216294004649,-5.952838037358,389.4));
#817 = SURFACE_CURVE('',#818,(#823,#830),.PCURVE_S1.);
#818 = CIRCLE('',#819,23.);
#819 = AXIS2_PLACEMENT_3D('',#820,#821,#822);
#820 = CARTESIAN_POINT('',(0.,0.,389.4));
#821 = DIRECTION('',(0.,0.,-1.));
#822 = DIRECTION('',(0.965925826289,0.258819045103,0.));
#823 = PCURVE('',#730,#824);
#824 = DEFINITIONAL_REPRESENTATION('',(#825),#829);
#825 = LINE('',#826,#827);
#826 = CARTESIAN_POINT('',(6.544984694979,389.6));
#827 = VECTOR('',#828,1.);
#828 = DIRECTION('',(-1.,-0.));
#829 = ( GEOMETRIC_REPRESENTATION_CONTEXT(2) 
PARAMETRIC_REPRESENTATION_CONTEXT() REPRESENTATION_CONTEXT('2D SPACE',''
  ) );
#830 = PCURVE('',#327,#831);
#831 = DEFINITIONAL_REPRESENTATION('',(#832),#840);
#832 = ( BOUNDED_CURVE() B_SPLINE_CURVE(2,(#833,#834,#835,#836,#837,#838
,#839),.UNSPECIFIED.,.T.,.F.) B_SPLINE_CURVE_WITH_KNOTS((1,2,2,2,2,1),(
    -2.094395102393,0.,2.094395102393,4.188790204786,6.28318530718,
8.377580409573),.UNSPECIFIED.) CURVE() GEOMETRIC_REPRESENTATION_ITEM() 
RATIONAL_B_SPLINE_CURVE((1.,0.5,1.,0.5,1.,0.5,1.)) REPRESENTATION_ITEM(
  '') );
#833 = CARTESIAN_POINT('',(22.216294004649,5.952838037358));
#834 = CARTESIAN_POINT('',(32.526911934581,-32.52691193458));
#835 = CARTESIAN_POINT('',(-5.952838037358,-22.21629400464));
#836 = CARTESIAN_POINT('',(-44.43258800929,-11.90567607471));
#837 = CARTESIAN_POINT('',(-16.26345596729,16.263455967291));
#838 = CARTESIAN_POINT('',(11.905676074716,44.432588009297));
#839 = CARTESIAN_POINT('',(22.216294004649,5.952838037358));
#840 = ( GEOMETRIC_REPRESENTATION_CONTEXT(2) 
PARAMETRIC_REPRESENTATION_CONTEXT() REPRESENTATION_CONTEXT('2D SPACE',''
  ) );
#841 = ORIENTED_EDGE('',*,*,#842,.F.);
#842 = EDGE_CURVE('',#843,#815,#845,.T.);
#843 = VERTEX_POINT('',#844);
#844 = CARTESIAN_POINT('',(22.216294004649,-5.952838037358,0.));
#845 = SURFACE_CURVE('',#846,(#850,#856),.PCURVE_S1.);
#846 = LINE('',#847,#848);
#847 = CARTESIAN_POINT('',(22.216294004649,-5.952838037358,-0.2));
#848 = VECTOR('',#849,1.);
#849 = DIRECTION('',(0.,0.,1.));
#850 = PCURVE('',#730,#851);
#851 = DEFINITIONAL_REPRESENTATION('',(#852),#855);
#852 = B_SPLINE_CURVE_WITH_KNOTS('',1,(#853,#854),.UNSPECIFIED.,.F.,.F.,
  (2,2),(0.2,389.6),.PIECEWISE_BEZIER_KNOTS.);
#853 = CARTESIAN_POINT('',(6.02138591938,0.2));
#854 = CARTESIAN_POINT('',(6.02138591938,389.6));
#855 = ( GEOMETRIC_REPRESENTATION_CONTEXT(2) 
PARAMETRIC_REPRESENTATION_CONTEXT() REPRESENTATION_CONTEXT('2D SPACE',''
  ) );
#856 = PCURVE('',#356,#857);
#857 = DEFINITIONAL_REPRESENTATION('',(#858),#861);
#858 = B_SPLINE_CURVE_WITH_KNOTS('',1,(#859,#860),.UNSPECIFIED.,.F.,.F.,
  (2,2),(0.1999994,389.6000006),.PIECEWISE_BEZIER_KNOTS.);
#859 = CARTESIAN_POINT('',(23.,-0.1999994));
#860 = CARTESIAN_POINT('',(23.,-389.6000006));
#861 = ( GEOMETRIC_REPRESENTATION_CONTEXT(2) 
PARAMETRIC_REPRESENTATION_CONTEXT() REPRESENTATION_CONTEXT('2D SPACE',''
  ) );
#862 = ORIENTED_EDGE('',*,*,#863,.T.);
#863 = EDGE_CURVE('',#843,#864,#866,.T.);
#864 = VERTEX_POINT('',#865);
#865 = CARTESIAN_POINT('',(22.216294004649,5.952838037358,0.));
#866 = SURFACE_CURVE('',#867,(#872,#879),.PCURVE_S1.);
#867 = CIRCLE('',#868,23.);
#868 = AXIS2_PLACEMENT_3D('',#869,#870,#871);
#869 = CARTESIAN_POINT('',(0.,0.,0.));
#870 = DIRECTION('',(0.,0.,1.));
#871 = DIRECTION('',(0.965925826289,-0.258819045103,0.));
#872 = PCURVE('',#730,#873);
#873 = DEFINITIONAL_REPRESENTATION('',(#874),#878);
#874 = LINE('',#875,#876);
#875 = CARTESIAN_POINT('',(6.02138591938,0.2));
#876 = VECTOR('',#877,1.);
#877 = DIRECTION('',(1.,0.));
#878 = ( GEOMETRIC_REPRESENTATION_CONTEXT(2) 
PARAMETRIC_REPRESENTATION_CONTEXT() REPRESENTATION_CONTEXT('2D SPACE',''
  ) );
#879 = PCURVE('',#272,#880);
#880 = DEFINITIONAL_REPRESENTATION('',(#881),#885);
#881 = CIRCLE('',#882,23.);
#882 = AXIS2_PLACEMENT_2D('',#883,#884);
#883 = CARTESIAN_POINT('',(0.,0.));
#884 = DIRECTION('',(0.965925826289,-0.258819045103));
#885 = ( GEOMETRIC_REPRESENTATION_CONTEXT(2) 
PARAMETRIC_REPRESENTATION_CONTEXT() REPRESENTATION_CONTEXT('2D SPACE',''
  ) );
#886 = ORIENTED_EDGE('',*,*,#887,.T.);
#887 = EDGE_CURVE('',#864,#813,#888,.T.);
#888 = SURFACE_CURVE('',#889,(#893,#899),.PCURVE_S1.);
#889 = LINE('',#890,#891);
#890 = CARTESIAN_POINT('',(22.216294004649,5.952838037358,-0.2));
#891 = VECTOR('',#892,1.);
#892 = DIRECTION('',(0.,0.,1.));
#893 = PCURVE('',#730,#894);
#894 = DEFINITIONAL_REPRESENTATION('',(#895),#898);
#895 = B_SPLINE_CURVE_WITH_KNOTS('',1,(#896,#897),.UNSPECIFIED.,.F.,.F.,
  (2,2),(0.2,389.6),.PIECEWISE_BEZIER_KNOTS.);
#896 = CARTESIAN_POINT('',(6.544984694979,0.2));
#897 = CARTESIAN_POINT('',(6.544984694979,389.6));
#898 = ( GEOMETRIC_REPRESENTATION_CONTEXT(2) 
PARAMETRIC_REPRESENTATION_CONTEXT() REPRESENTATION_CONTEXT('2D SPACE',''
  ) );
#899 = PCURVE('',#299,#900);
#900 = DEFINITIONAL_REPRESENTATION('',(#901),#904);
#901 = B_SPLINE_CURVE_WITH_KNOTS('',1,(#902,#903),.UNSPECIFIED.,.F.,.F.,
  (2,2),(0.1999994,389.6000006),.PIECEWISE_BEZIER_KNOTS.);
#902 = CARTESIAN_POINT('',(37.5,-0.1999994));
#903 = CARTESIAN_POINT('',(37.5,-389.6000006));
#904 = ( GEOMETRIC_REPRESENTATION_CONTEXT(2) 
PARAMETRIC_REPRESENTATION_CONTEXT() REPRESENTATION_CONTEXT('2D SPACE',''
  ) );
#905 = FACE_BOUND('',#906,.F.);
#906 = EDGE_LOOP('',(#907));
#907 = ORIENTED_EDGE('',*,*,#908,.T.);
#908 = EDGE_CURVE('',#909,#909,#911,.T.);
#909 = VERTEX_POINT('',#910);
#910 = CARTESIAN_POINT('',(23.,-2.504402704256E-15,14.3));
#911 = SURFACE_CURVE('',#912,(#963,#1036),.PCURVE_S1.);
#912 = B_SPLINE_CURVE_WITH_KNOTS('',7,(#913,#914,#915,#916,#917,#918,
    #919,#920,#921,#922,#923,#924,#925,#926,#927,#928,#929,#930,#931,
    #932,#933,#934,#935,#936,#937,#938,#939,#940,#941,#942,#943,#944,
    #945,#946,#947,#948,#949,#950,#951,#952,#953,#954,#955,#956,#957,
    #958,#959,#960,#961,#962),.UNSPECIFIED.,.T.,.F.,(8,6,6,6,6,6,6,6,8),
  (0.,0.24875694507,0.499975906612,0.751194225564,1.,1.248753341944,
    1.499968664698,1.751183344873,1.999985515476),.UNSPECIFIED.);
#913 = CARTESIAN_POINT('',(23.,1.4447124189E-15,14.3));
#914 = CARTESIAN_POINT('',(23.,0.347158651016,14.3));
#915 = CARTESIAN_POINT('',(22.993886647045,0.683889225706,
    14.244861262172));
#916 = CARTESIAN_POINT('',(22.982321516116,1.000251191976,
    14.140541041122));
#917 = CARTESIAN_POINT('',(22.966973999326,1.288221091919,
    13.994714847169));
#918 = CARTESIAN_POINT('',(22.950042106134,1.541881220238,
    13.816722701555));
#919 = CARTESIAN_POINT('',(22.933417237858,1.757972453465,
    13.617434523612));
#920 = CARTESIAN_POINT('',(22.903101568892,2.11675938528,13.198656631926
    ));
#921 = CARTESIAN_POINT('',(22.88900364859,2.263888545086,12.97293852996)
  );
#922 = CARTESIAN_POINT('',(22.877004350492,2.379461317375,
    12.737035326653));
#923 = CARTESIAN_POINT('',(22.867687457867,2.464993012683,
    12.494458449413));
#924 = CARTESIAN_POINT('',(22.861368533695,2.521634862473,
    12.247767437107));
#925 = CARTESIAN_POINT('',(22.85820421643,2.55,11.998996754192));
#926 = CARTESIAN_POINT('',(22.85820421643,2.55,11.501003882713));
#927 = CARTESIAN_POINT('',(22.861368521592,2.521634979658,
    11.252237160423));
#928 = CARTESIAN_POINT('',(22.867687249106,2.464994866933,
    11.005547966863));
#929 = CARTESIAN_POINT('',(22.877004069565,2.37946386835,10.762967920713
    ));
#930 = CARTESIAN_POINT('',(22.889003728843,2.263888477586,
    10.527058940887));
#931 = CARTESIAN_POINT('',(22.903101912636,2.116755317062,10.30133861963
    ));
#932 = CARTESIAN_POINT('',(22.933419896736,1.75794098555,9.882528746881)
  );
#933 = CARTESIAN_POINT('',(22.950044330777,1.541848045945,9.683257282998
    ));
#934 = CARTESIAN_POINT('',(22.966973382181,1.288217139573,9.505296871211
    ));
#935 = CARTESIAN_POINT('',(22.982318163849,1.000293759442,9.359489273561
    ));
#936 = CARTESIAN_POINT('',(22.993884067236,0.683968804382,9.255161974416
    ));
#937 = CARTESIAN_POINT('',(23.,0.347231825484,9.2));
#938 = CARTESIAN_POINT('',(23.,-0.347158651016,9.2));
#939 = CARTESIAN_POINT('',(22.993886647045,-0.683889225706,
    9.255138737828));
#940 = CARTESIAN_POINT('',(22.982321516117,-1.000251191976,
    9.359458958878));
#941 = CARTESIAN_POINT('',(22.966973999326,-1.288221091919,
    9.505285152832));
#942 = CARTESIAN_POINT('',(22.950042106134,-1.541881220238,
    9.683277298444));
#943 = CARTESIAN_POINT('',(22.933417237858,-1.757972453465,
    9.882565476389));
#944 = CARTESIAN_POINT('',(22.903101568892,-2.11675938528,
    10.301343368074));
#945 = CARTESIAN_POINT('',(22.88900364859,-2.263888545086,
    10.527061470041));
#946 = CARTESIAN_POINT('',(22.877004350492,-2.379461317375,
    10.762964673346));
#947 = CARTESIAN_POINT('',(22.867687457867,-2.464993012683,
    11.005541550588));
#948 = CARTESIAN_POINT('',(22.861368533695,-2.521634862473,
    11.252232562893));
#949 = CARTESIAN_POINT('',(22.85820421643,-2.55,11.501003245808));
#950 = CARTESIAN_POINT('',(22.85820421643,-2.55,11.998996117287));
#951 = CARTESIAN_POINT('',(22.861368521592,-2.521634979658,
    12.247762839576));
#952 = CARTESIAN_POINT('',(22.867687249106,-2.464994866932,
    12.49445203314));
#953 = CARTESIAN_POINT('',(22.877004069564,-2.379463868351,
    12.737032079285));
#954 = CARTESIAN_POINT('',(22.889003728843,-2.263888477586,
    12.972941059114));
#955 = CARTESIAN_POINT('',(22.903101912636,-2.116755317062,
    13.19866138037));
#956 = CARTESIAN_POINT('',(22.933419896736,-1.75794098555,
    13.617471253119));
#957 = CARTESIAN_POINT('',(22.950044330777,-1.541848045944,
    13.816742717002));
#958 = CARTESIAN_POINT('',(22.966973382181,-1.288217139572,
    13.994703128789));
#959 = CARTESIAN_POINT('',(22.982318163849,-1.000293759443,
    14.14051072644));
#960 = CARTESIAN_POINT('',(22.993884067236,-0.683968804382,
    14.244838025584));
#961 = CARTESIAN_POINT('',(23.,-0.347231825484,14.3));
#962 = CARTESIAN_POINT('',(23.,-1.33226762955E-15,14.3));
#963 = PCURVE('',#730,#964);
#964 = DEFINITIONAL_REPRESENTATION('',(#965),#1035);
#965 = B_SPLINE_CURVE_WITH_KNOTS('',3,(#966,#967,#968,#969,#970,#971,
    #972,#973,#974,#975,#976,#977,#978,#979,#980,#981,#982,#983,#984,
    #985,#986,#987,#988,#989,#990,#991,#992,#993,#994,#995,#996,#997,
    #998,#999,#1000,#1001,#1002,#1003,#1004,#1005,#1006,#1007,#1008,
    #1009,#1010,#1011,#1012,#1013,#1014,#1015,#1016,#1017,#1018,#1019,
    #1020,#1021,#1022,#1023,#1024,#1025,#1026,#1027,#1028,#1029,#1030,
    #1031,#1032,#1033,#1034),.UNSPECIFIED.,.T.,.F.,(4,1,1,1,1,1,1,1,1,1,
    1,1,1,1,1,1,1,1,1,1,1,1,1,1,1,1,1,1,1,1,1,1,1,1,1,1,1,1,1,1,1,1,1,1,
    1,1,1,1,1,1,1,1,1,1,1,1,1,1,1,1,1,1,1,1,1,1,4),(0.,
    3.030281084054E-02,6.060562168108E-02,9.090843252162E-02,
    0.121211243362,0.151514054203,0.181816865043,0.212119675884,
    0.242422486724,0.272725297565,0.303028108405,0.333330919246,
    0.363633730086,0.393936540927,0.424239351768,0.454542162608,
    0.484844973449,0.515147784289,0.54545059513,0.57575340597,
    0.606056216811,0.636359027651,0.666661838492,0.696964649332,
    0.727267460173,0.757570271014,0.787873081854,0.818175892695,
    0.848478703535,0.878781514376,0.909084325216,0.939387136057,
    0.969689946897,0.999992757738,1.030295568578,1.060598379419,
    1.090901190259,1.1212040011,1.151506811941,1.181809622781,
    1.212112433622,1.242415244462,1.272718055303,1.303020866143,
    1.333323676984,1.363626487824,1.393929298665,1.424232109505,
    1.454534920346,1.484837731186,1.515140542027,1.545443352868,
    1.575746163708,1.606048974549,1.636351785389,1.66665459623,
    1.69695740707,1.727260217911,1.757563028751,1.787865839592,
    1.818168650432,1.848471461273,1.878774272114,1.909077082954,
    1.939379893795,1.969682704635,1.999985515476),
  .QUASI_UNIFORM_KNOTS.);
#966 = CARTESIAN_POINT('',(6.28318530718,14.5));
#967 = CARTESIAN_POINT('',(6.287476891517,14.500026033229));
#968 = CARTESIAN_POINT('',(6.29596089286,14.488523966783));
#969 = CARTESIAN_POINT('',(6.308252370623,14.439371564355));
#970 = CARTESIAN_POINT('',(6.319965954404,14.360961356972));
#971 = CARTESIAN_POINT('',(6.330980490632,14.256360435947));
#972 = CARTESIAN_POINT('',(6.341190914432,14.128902041804));
#973 = CARTESIAN_POINT('',(6.350510611716,13.982236059511));
#974 = CARTESIAN_POINT('',(6.358876056242,13.820239917766));
#975 = CARTESIAN_POINT('',(6.36623515037,13.647271964516));
#976 = CARTESIAN_POINT('',(6.372599483802,13.467189071226));
#977 = CARTESIAN_POINT('',(6.378127417908,13.278607410708));
#978 = CARTESIAN_POINT('',(6.382810893395,13.083806213643));
#979 = CARTESIAN_POINT('',(6.386679540918,12.883923433516));
#980 = CARTESIAN_POINT('',(6.389749968812,12.680164316812));
#981 = CARTESIAN_POINT('',(6.392038610525,12.473519625843));
#982 = CARTESIAN_POINT('',(6.393557551253,12.264875562016));
#983 = CARTESIAN_POINT('',(6.394315099445,12.055032451301));
#984 = CARTESIAN_POINT('',(6.394314586258,11.844683472615));
#985 = CARTESIAN_POINT('',(6.393556019488,11.634842902096));
#986 = CARTESIAN_POINT('',(6.392036059475,11.42620181798));
#987 = CARTESIAN_POINT('',(6.389746375961,11.219560022269));
#988 = CARTESIAN_POINT('',(6.386674859329,11.015803634641));
#989 = CARTESIAN_POINT('',(6.382805067764,10.815924243558));
#990 = CARTESIAN_POINT('',(6.378120383997,10.621127939824));
#991 = CARTESIAN_POINT('',(6.372591281667,10.432556055034));
#992 = CARTESIAN_POINT('',(6.366225662335,10.25248355363));
#993 = CARTESIAN_POINT('',(6.358866090648,10.079548943695));
#994 = CARTESIAN_POINT('',(6.350501439847,9.917606524356));
#995 = CARTESIAN_POINT('',(6.341183622428,9.770997347194));
#996 = CARTESIAN_POINT('',(6.330975385329,9.643589675045));
#997 = CARTESIAN_POINT('',(6.319964883961,9.539024133097));
#998 = CARTESIAN_POINT('',(6.308249439669,9.460637185157));
#999 = CARTESIAN_POINT('',(6.295976820668,9.411472191778));
#1000 = CARTESIAN_POINT('',(6.283188570038,9.394267899467));
#1001 = CARTESIAN_POINT('',(6.270399198938,9.411456216243));
#1002 = CARTESIAN_POINT('',(6.258124339358,9.460618043465));
#1003 = CARTESIAN_POINT('',(6.246405925131,9.539019649475));
#1004 = CARTESIAN_POINT('',(6.235392300747,9.643618573856));
#1005 = CARTESIAN_POINT('',(6.225181255731,9.771074864458));
#1006 = CARTESIAN_POINT('',(6.215861362391,9.917740316884));
#1007 = CARTESIAN_POINT('',(6.207495632204,10.079736845789));
#1008 = CARTESIAN_POINT('',(6.200136300947,10.252706295118));
#1009 = CARTESIAN_POINT('',(6.193771772379,10.432790823587));
#1010 = CARTESIAN_POINT('',(6.188243672686,10.62137449035));
#1011 = CARTESIAN_POINT('',(6.183560057438,10.81617802341));
#1012 = CARTESIAN_POINT('',(6.179691295555,11.016063380916));
#1013 = CARTESIAN_POINT('',(6.176620777502,11.219825257985));
#1014 = CARTESIAN_POINT('',(6.174332069001,11.426472839983));
#1015 = CARTESIAN_POINT('',(6.172813084143,11.635119882832));
#1016 = CARTESIAN_POINT('',(6.172055513997,11.844966023524));
#1017 = CARTESIAN_POINT('',(6.17205602719,12.055318051834));
#1018 = CARTESIAN_POINT('',(6.172814615926,12.265161652271));
#1019 = CARTESIAN_POINT('',(6.17433462008,12.473805715367));
#1020 = CARTESIAN_POINT('',(6.176624370401,12.680450402079));
#1021 = CARTESIAN_POINT('',(6.179695977191,12.88420955006));
#1022 = CARTESIAN_POINT('',(6.183565883198,13.084091518338));
#1023 = CARTESIAN_POINT('',(6.188250706506,13.278890158064));
#1024 = CARTESIAN_POINT('',(6.193779975322,13.467464047514));
#1025 = CARTESIAN_POINT('',(6.200145786481,13.64753818703));
#1026 = CARTESIAN_POINT('',(6.207505607599,13.820474276658));
#1027 = CARTESIAN_POINT('',(6.215870497225,13.982417123222));
#1028 = CARTESIAN_POINT('',(6.225188684705,14.129025613279));
#1029 = CARTESIAN_POINT('',(6.235396892851,14.256431767705));
#1030 = CARTESIAN_POINT('',(6.246408908282,14.360993133912));
#1031 = CARTESIAN_POINT('',(6.258120129222,14.439379626102));
#1032 = CARTESIAN_POINT('',(6.270409919604,14.488523660331));
#1033 = CARTESIAN_POINT('',(6.278893597161,14.500025605454));
#1034 = CARTESIAN_POINT('',(6.28318530718,14.5));
#1035 = ( GEOMETRIC_REPRESENTATION_CONTEXT(2) 
PARAMETRIC_REPRESENTATION_CONTEXT() REPRESENTATION_CONTEXT('2D SPACE',''
  ) );
#1036 = PCURVE('',#173,#1037);
#1037 = DEFINITIONAL_REPRESENTATION('',(#1038),#1108);
#1038 = B_SPLINE_CURVE_WITH_KNOTS('',3,(#1039,#1040,#1041,#1042,#1043,
    #1044,#1045,#1046,#1047,#1048,#1049,#1050,#1051,#1052,#1053,#1054,
    #1055,#1056,#1057,#1058,#1059,#1060,#1061,#1062,#1063,#1064,#1065,
    #1066,#1067,#1068,#1069,#1070,#1071,#1072,#1073,#1074,#1075,#1076,
    #1077,#1078,#1079,#1080,#1081,#1082,#1083,#1084,#1085,#1086,#1087,
    #1088,#1089,#1090,#1091,#1092,#1093,#1094,#1095,#1096,#1097,#1098,
    #1099,#1100,#1101,#1102,#1103,#1104,#1105,#1106,#1107),
  .UNSPECIFIED.,.F.,.F.,(4,1,1,1,1,1,1,1,1,1,1,1,1,1,1,1,1,1,1,1,1,1,1,1
    ,1,1,1,1,1,1,1,1,1,1,1,1,1,1,1,1,1,1,1,1,1,1,1,1,1,1,1,1,1,1,1,1,1,1
    ,1,1,1,1,1,1,1,1,4),(0.,3.030281084054E-02,6.060562168108E-02,
    9.090843252162E-02,0.121211243362,0.151514054203,0.181816865043,
    0.212119675884,0.242422486724,0.272725297565,0.303028108405,
    0.333330919246,0.363633730086,0.393936540927,0.424239351768,
    0.454542162608,0.484844973449,0.515147784289,0.54545059513,
    0.57575340597,0.606056216811,0.636359027651,0.666661838492,
    0.696964649332,0.727267460173,0.757570271014,0.787873081854,
    0.818175892695,0.848478703535,0.878781514376,0.909084325216,
    0.939387136057,0.969689946897,0.999992757738,1.030295568578,
    1.060598379419,1.090901190259,1.1212040011,1.151506811941,
    1.181809622781,1.212112433622,1.242415244462,1.272718055303,
    1.303020866143,1.333323676984,1.363626487824,1.393929298665,
    1.424232109505,1.454534920346,1.484837731186,1.515140542027,
    1.545443352868,1.575746163708,1.606048974549,1.636351785389,
    1.66665459623,1.69695740707,1.727260217911,1.757563028751,
    1.787865839592,1.818168650432,1.848471461273,1.878774272114,
    1.909077082954,1.939379893795,1.969682704635,1.999985515476),
  .QUASI_UNIFORM_KNOTS.);
#1039 = CARTESIAN_POINT('',(6.28318530718,0.3));
#1040 = CARTESIAN_POINT('',(6.244494027357,0.30001194872));
#1041 = CARTESIAN_POINT('',(6.167940964765,0.298719423039));
#1042 = CARTESIAN_POINT('',(6.055617514969,0.29332967297));
#1043 = CARTESIAN_POINT('',(5.945792833039,0.284939990528));
#1044 = CARTESIAN_POINT('',(5.838547144799,0.274166880157));
#1045 = CARTESIAN_POINT('',(5.734019332079,0.261682671108));
#1046 = CARTESIAN_POINT('',(5.632433435061,0.248192802038));
#1047 = CARTESIAN_POINT('',(5.534065709246,0.234382963151));
#1048 = CARTESIAN_POINT('',(5.439413747888,0.220905191293));
#1049 = CARTESIAN_POINT('',(5.348635168345,0.208253738721));
#1050 = CARTESIAN_POINT('',(5.259649330988,0.196515974479));
#1051 = CARTESIAN_POINT('',(5.172535142043,0.186023010099));
#1052 = CARTESIAN_POINT('',(5.086885505152,0.17697821072));
#1053 = CARTESIAN_POINT('',(5.00244231263,0.169556144592));
#1054 = CARTESIAN_POINT('',(4.918919698696,0.163883932568));
#1055 = CARTESIAN_POINT('',(4.836044145984,0.16005334747));
#1056 = CARTESIAN_POINT('',(4.75354323639,0.158123229732));
#1057 = CARTESIAN_POINT('',(4.671123353309,0.158124541715));
#1058 = CARTESIAN_POINT('',(4.588622684368,0.160057236994));
#1059 = CARTESIAN_POINT('',(4.505746783487,0.163890321602));
#1060 = CARTESIAN_POINT('',(4.422222978202,0.169564955479));
#1061 = CARTESIAN_POINT('',(4.337777615807,0.176989363683));
#1062 = CARTESIAN_POINT('',(4.252125039589,0.186036375706));
#1063 = CARTESIAN_POINT('',(4.165007294587,0.196531355358));
#1064 = CARTESIAN_POINT('',(4.076018787522,0.208270642909));
#1065 = CARTESIAN_POINT('',(3.985236078988,0.220923345562));
#1066 = CARTESIAN_POINT('',(3.890590437519,0.234400296444));
#1067 = CARTESIAN_POINT('',(3.792241606754,0.248206866021));
#1068 = CARTESIAN_POINT('',(3.690682222622,0.261692349695));
#1069 = CARTESIAN_POINT('',(3.586180865086,0.274171878984));
#1070 = CARTESIAN_POINT('',(3.47897415028,0.284941855725));
#1071 = CARTESIAN_POINT('',(3.369136662157,0.293327598595));
#1072 = CARTESIAN_POINT('',(3.256972106959,0.298724055645));
#1073 = CARTESIAN_POINT('',(3.141622014496,0.300637529511));
#1074 = CARTESIAN_POINT('',(3.026262228626,0.298725825659));
#1075 = CARTESIAN_POINT('',(2.914078074715,0.293329667528));
#1076 = CARTESIAN_POINT('',(2.804213383929,0.284942295087));
#1077 = CARTESIAN_POINT('',(2.696975801482,0.274168908186));
#1078 = CARTESIAN_POINT('',(2.592443264465,0.261684887625));
#1079 = CARTESIAN_POINT('',(2.490856129922,0.248194888265));
#1080 = CARTESIAN_POINT('',(2.392486304373,0.234384857237));
#1081 = CARTESIAN_POINT('',(2.297832451611,0.220906796547));
#1082 = CARTESIAN_POINT('',(2.207052268179,0.208255065696));
#1083 = CARTESIAN_POINT('',(2.11806495307,0.196517018582));
#1084 = CARTESIAN_POINT('',(2.030949359429,0.186023783978));
#1085 = CARTESIAN_POINT('',(1.945298386274,0.176978741151));
#1086 = CARTESIAN_POINT('',(1.860853910053,0.169556468981));
#1087 = CARTESIAN_POINT('',(1.77733005326,0.163884096179));
#1088 = CARTESIAN_POINT('',(1.694453286313,0.160053401028));
#1089 = CARTESIAN_POINT('',(1.611951179392,0.158123227402));
#1090 = CARTESIAN_POINT('',(1.529530103414,0.158124539401));
#1091 = CARTESIAN_POINT('',(1.447028237145,0.160057290598));
#1092 = CARTESIAN_POINT('',(1.364151122017,0.163890485286));
#1093 = CARTESIAN_POINT('',(1.28062607378,0.169565279964));
#1094 = CARTESIAN_POINT('',(1.196179427746,0.176989894241));
#1095 = CARTESIAN_POINT('',(1.110525514645,0.186037149699));
#1096 = CARTESIAN_POINT('',(1.023406366865,0.19653239968));
#1097 = CARTESIAN_POINT('',(0.934416374687,0.20827196968));
#1098 = CARTESIAN_POINT('',(0.843632089966,0.220924951997));
#1099 = CARTESIAN_POINT('',(0.748984455028,0.23440218607));
#1100 = CARTESIAN_POINT('',(0.650633916407,0.248208966884));
#1101 = CARTESIAN_POINT('',(0.549071838912,0.261694508353));
#1102 = CARTESIAN_POINT('',(0.444571195741,0.274174119056));
#1103 = CARTESIAN_POINT('',(0.337352291977,0.284943365284));
#1104 = CARTESIAN_POINT('',(0.227550535503,0.293330557566));
#1105 = CARTESIAN_POINT('',(0.115242604281,0.298719393973));
#1106 = CARTESIAN_POINT('',(3.869237237799E-02,0.300011891683));
#1107 = CARTESIAN_POINT('',(0.,0.3));
#1108 = ( GEOMETRIC_REPRESENTATION_CONTEXT(2) 
PARAMETRIC_REPRESENTATION_CONTEXT() REPRESENTATION_CONTEXT('2D SPACE',''
  ) );
#1109 = FACE_BOUND('',#1110,.F.);
#1110 = EDGE_LOOP('',(#1111));
#1111 = ORIENTED_EDGE('',*,*,#603,.T.);
#1112 = ADVANCED_FACE('',(#1113),#356,.F.);
#1113 = FACE_BOUND('',#1114,.F.);
#1114 = EDGE_LOOP('',(#1115,#1116,#1135,#1136));
#1115 = ORIENTED_EDGE('',*,*,#343,.F.);
#1116 = ORIENTED_EDGE('',*,*,#1117,.T.);
#1117 = EDGE_CURVE('',#254,#843,#1118,.T.);
#1118 = SURFACE_CURVE('',#1119,(#1123,#1129),.PCURVE_S1.);
#1119 = LINE('',#1120,#1121);
#1120 = CARTESIAN_POINT('',(0.,0.,0.));
#1121 = VECTOR('',#1122,1.);
#1122 = DIRECTION('',(-0.965925826289,0.258819045103,0.));
#1123 = PCURVE('',#356,#1124);
#1124 = DEFINITIONAL_REPRESENTATION('',(#1125),#1128);
#1125 = B_SPLINE_CURVE_WITH_KNOTS('',1,(#1126,#1127),.UNSPECIFIED.,.F.,
  .F.,(2,2),(-25.05368356592,-0.),.PIECEWISE_BEZIER_KNOTS.);
#1126 = CARTESIAN_POINT('',(25.053683565924,-0.2));
#1127 = CARTESIAN_POINT('',(0.,-0.2));
#1128 = ( GEOMETRIC_REPRESENTATION_CONTEXT(2) 
PARAMETRIC_REPRESENTATION_CONTEXT() REPRESENTATION_CONTEXT('2D SPACE',''
  ) );
#1129 = PCURVE('',#272,#1130);
#1130 = DEFINITIONAL_REPRESENTATION('',(#1131),#1134);
#1131 = B_SPLINE_CURVE_WITH_KNOTS('',1,(#1132,#1133),.UNSPECIFIED.,.F.,
  .F.,(2,2),(-25.05368356592,-0.),.PIECEWISE_BEZIER_KNOTS.);
#1132 = CARTESIAN_POINT('',(24.2,-6.484370456833));
#1133 = CARTESIAN_POINT('',(0.,0.));
#1134 = ( GEOMETRIC_REPRESENTATION_CONTEXT(2) 
PARAMETRIC_REPRESENTATION_CONTEXT() REPRESENTATION_CONTEXT('2D SPACE',''
  ) );
#1135 = ORIENTED_EDGE('',*,*,#842,.T.);
#1136 = ORIENTED_EDGE('',*,*,#1137,.F.);
#1137 = EDGE_CURVE('',#311,#815,#1138,.T.);
#1138 = SURFACE_CURVE('',#1139,(#1143,#1149),.PCURVE_S1.);
#1139 = LINE('',#1140,#1141);
#1140 = CARTESIAN_POINT('',(0.,0.,389.4));
#1141 = VECTOR('',#1142,1.);
#1142 = DIRECTION('',(-0.965925826289,0.258819045103,0.));
#1143 = PCURVE('',#356,#1144);
#1144 = DEFINITIONAL_REPRESENTATION('',(#1145),#1148);
#1145 = B_SPLINE_CURVE_WITH_KNOTS('',1,(#1146,#1147),.UNSPECIFIED.,.F.,
  .F.,(2,2),(-25.05368356592,-0.),.PIECEWISE_BEZIER_KNOTS.);
#1146 = CARTESIAN_POINT('',(25.053683565924,-389.6));
#1147 = CARTESIAN_POINT('',(0.,-389.6));
#1148 = ( GEOMETRIC_REPRESENTATION_CONTEXT(2) 
PARAMETRIC_REPRESENTATION_CONTEXT() REPRESENTATION_CONTEXT('2D SPACE',''
  ) );
#1149 = PCURVE('',#327,#1150);
#1150 = DEFINITIONAL_REPRESENTATION('',(#1151),#1154);
#1151 = B_SPLINE_CURVE_WITH_KNOTS('',1,(#1152,#1153),.UNSPECIFIED.,.F.,
  .F.,(2,2),(-25.05368356592,-0.),.PIECEWISE_BEZIER_KNOTS.);
#1152 = CARTESIAN_POINT('',(24.2,-6.484370456833));
#1153 = CARTESIAN_POINT('',(0.,0.));
#1154 = ( GEOMETRIC_REPRESENTATION_CONTEXT(2) 
PARAMETRIC_REPRESENTATION_CONTEXT() REPRESENTATION_CONTEXT('2D SPACE',''
  ) );
#1155 = ADVANCED_FACE('',(#1156),#327,.T.);
#1156 = FACE_BOUND('',#1157,.T.);
#1157 = EDGE_LOOP('',(#1158,#1159,#1160,#1179));
#1158 = ORIENTED_EDGE('',*,*,#1137,.F.);
#1159 = ORIENTED_EDGE('',*,*,#310,.F.);
#1160 = ORIENTED_EDGE('',*,*,#1161,.F.);
#1161 = EDGE_CURVE('',#813,#285,#1162,.T.);
#1162 = SURFACE_CURVE('',#1163,(#1167,#1173),.PCURVE_S1.);
#1163 = LINE('',#1164,#1165);
#1164 = CARTESIAN_POINT('',(29.219256245244,7.829276114351,389.4));
#1165 = VECTOR('',#1166,1.);
#1166 = DIRECTION('',(0.965925826289,0.258819045103,-0.));
#1167 = PCURVE('',#327,#1168);
#1168 = DEFINITIONAL_REPRESENTATION('',(#1169),#1172);
#1169 = B_SPLINE_CURVE_WITH_KNOTS('',1,(#1170,#1171),.UNSPECIFIED.,.F.,
  .F.,(2,2),(-30.25,-5.196316434076),.PIECEWISE_BEZIER_KNOTS.);
#1170 = CARTESIAN_POINT('',(-7.105427357601E-15,-2.6645352591E-15));
#1171 = CARTESIAN_POINT('',(24.2,6.484370456833));
#1172 = ( GEOMETRIC_REPRESENTATION_CONTEXT(2) 
PARAMETRIC_REPRESENTATION_CONTEXT() REPRESENTATION_CONTEXT('2D SPACE',''
  ) );
#1173 = PCURVE('',#299,#1174);
#1174 = DEFINITIONAL_REPRESENTATION('',(#1175),#1178);
#1175 = B_SPLINE_CURVE_WITH_KNOTS('',1,(#1176,#1177),.UNSPECIFIED.,.F.,
  .F.,(2,2),(-30.25,-5.196316434076),.PIECEWISE_BEZIER_KNOTS.);
#1176 = CARTESIAN_POINT('',(60.5,-389.6));
#1177 = CARTESIAN_POINT('',(35.446316434076,-389.6));
#1178 = ( GEOMETRIC_REPRESENTATION_CONTEXT(2) 
PARAMETRIC_REPRESENTATION_CONTEXT() REPRESENTATION_CONTEXT('2D SPACE',''
  ) );
#1179 = ORIENTED_EDGE('',*,*,#812,.T.);
#1180 = ADVANCED_FACE('',(#1181),#299,.F.);
#1181 = FACE_BOUND('',#1182,.F.);
#1182 = EDGE_LOOP('',(#1183,#1202,#1203,#1204));
#1183 = ORIENTED_EDGE('',*,*,#1184,.T.);
#1184 = EDGE_CURVE('',#864,#256,#1185,.T.);
#1185 = SURFACE_CURVE('',#1186,(#1190,#1196),.PCURVE_S1.);
#1186 = LINE('',#1187,#1188);
#1187 = CARTESIAN_POINT('',(29.219256245244,7.829276114351,0.));
#1188 = VECTOR('',#1189,1.);
#1189 = DIRECTION('',(0.965925826289,0.258819045103,-0.));
#1190 = PCURVE('',#299,#1191);
#1191 = DEFINITIONAL_REPRESENTATION('',(#1192),#1195);
#1192 = B_SPLINE_CURVE_WITH_KNOTS('',1,(#1193,#1194),.UNSPECIFIED.,.F.,
  .F.,(2,2),(-30.25,-5.196316434076),.PIECEWISE_BEZIER_KNOTS.);
#1193 = CARTESIAN_POINT('',(60.5,-0.2));
#1194 = CARTESIAN_POINT('',(35.446316434076,-0.2));
#1195 = ( GEOMETRIC_REPRESENTATION_CONTEXT(2) 
PARAMETRIC_REPRESENTATION_CONTEXT() REPRESENTATION_CONTEXT('2D SPACE',''
  ) );
#1196 = PCURVE('',#272,#1197);
#1197 = DEFINITIONAL_REPRESENTATION('',(#1198),#1201);
#1198 = B_SPLINE_CURVE_WITH_KNOTS('',1,(#1199,#1200),.UNSPECIFIED.,.F.,
  .F.,(2,2),(-30.25,-5.196316434076),.PIECEWISE_BEZIER_KNOTS.);
#1199 = CARTESIAN_POINT('',(-7.105427357601E-15,-2.6645352591E-15));
#1200 = CARTESIAN_POINT('',(24.2,6.484370456833));
#1201 = ( GEOMETRIC_REPRESENTATION_CONTEXT(2) 
PARAMETRIC_REPRESENTATION_CONTEXT() REPRESENTATION_CONTEXT('2D SPACE',''
  ) );
#1202 = ORIENTED_EDGE('',*,*,#284,.T.);
#1203 = ORIENTED_EDGE('',*,*,#1161,.F.);
#1204 = ORIENTED_EDGE('',*,*,#887,.F.);
#1205 = ADVANCED_FACE('',(#1206),#272,.F.);
#1206 = FACE_BOUND('',#1207,.F.);
#1207 = EDGE_LOOP('',(#1208,#1209,#1210,#1211));
#1208 = ORIENTED_EDGE('',*,*,#253,.T.);
#1209 = ORIENTED_EDGE('',*,*,#1184,.F.);
#1210 = ORIENTED_EDGE('',*,*,#863,.F.);
#1211 = ORIENTED_EDGE('',*,*,#1117,.F.);
#1212 = ADVANCED_FACE('',(#1213),#173,.F.);
#1213 = FACE_BOUND('',#1214,.F.);
#1214 = EDGE_LOOP('',(#1215,#1216,#1237,#1238));
#1215 = ORIENTED_EDGE('',*,*,#39,.T.);
#1216 = ORIENTED_EDGE('',*,*,#1217,.F.);
#1217 = EDGE_CURVE('',#909,#40,#1218,.T.);
#1218 = SEAM_CURVE('',#1219,(#1223,#1230),.PCURVE_S1.);
#1219 = LINE('',#1220,#1221);
#1220 = CARTESIAN_POINT('',(22.7,6.245698675652E-16,14.3));
#1221 = VECTOR('',#1222,1.);
#1222 = DIRECTION('',(1.,0.,0.));
#1223 = PCURVE('',#173,#1224);
#1224 = DEFINITIONAL_REPRESENTATION('',(#1225),#1229);
#1225 = LINE('',#1226,#1227);
#1226 = CARTESIAN_POINT('',(0.,-0.));
#1227 = VECTOR('',#1228,1.);
#1228 = DIRECTION('',(0.,1.));
#1229 = ( GEOMETRIC_REPRESENTATION_CONTEXT(2) 
PARAMETRIC_REPRESENTATION_CONTEXT() REPRESENTATION_CONTEXT('2D SPACE',''
  ) );
#1230 = PCURVE('',#173,#1231);
#1231 = DEFINITIONAL_REPRESENTATION('',(#1232),#1236);
#1232 = LINE('',#1233,#1234);
#1233 = CARTESIAN_POINT('',(6.28318530718,-0.));
#1234 = VECTOR('',#1235,1.);
#1235 = DIRECTION('',(0.,1.));
#1236 = ( GEOMETRIC_REPRESENTATION_CONTEXT(2) 
PARAMETRIC_REPRESENTATION_CONTEXT() REPRESENTATION_CONTEXT('2D SPACE',''
  ) );
#1237 = ORIENTED_EDGE('',*,*,#908,.F.);
#1238 = ORIENTED_EDGE('',*,*,#1217,.T.);
#1239 = ( GEOMETRIC_REPRESENTATION_CONTEXT(3) 
GLOBAL_UNCERTAINTY_ASSIGNED_CONTEXT((#1243)) 
GLOBAL_UNIT_ASSIGNED_CONTEXT((#1240,#1241,#1242)) REPRESENTATION_CONTEXT
('Context #1','3D Context with UNIT and UNCERTAINTY') );
#1240 = ( LENGTH_UNIT() NAMED_UNIT(*) SI_UNIT(.MILLI.,.METRE.) );
#1241 = ( NAMED_UNIT(*) PLANE_ANGLE_UNIT() SI_UNIT($,.RADIAN.) );
#1242 = ( NAMED_UNIT(*) SI_UNIT($,.STERADIAN.) SOLID_ANGLE_UNIT() );
#1243 = UNCERTAINTY_MEASURE_WITH_UNIT(LENGTH_MEASURE(1.E-07),#1240,
  'distance_accuracy_value','confusion accuracy');
#1244 = CONTEXT_DEPENDENT_SHAPE_REPRESENTATION(#1245,#1247);
#1245 = ( REPRESENTATION_RELATIONSHIP('','',#32,#10) 
REPRESENTATION_RELATIONSHIP_WITH_TRANSFORMATION(#1246) 
SHAPE_REPRESENTATION_RELATIONSHIP() );
#1246 = ITEM_DEFINED_TRANSFORMATION('','',#11,#15);
#1247 = PRODUCT_DEFINITION_SHAPE('Placement','Placement of an item',
  #1248);
#1248 = NEXT_ASSEMBLY_USAGE_OCCURRENCE('45',
'SHORTENED_PRIMARY_LONGERON_3_WITH_BACKUP-GUIDE_BORES_TI_STOWED_LOCAL_
DEFINITION','',#5,#27,$);
#1249 = PRODUCT_RELATED_PRODUCT_CATEGORY('part',$,(#29));
#1250 = MECHANICAL_DESIGN_GEOMETRIC_PRESENTATION_REPRESENTATION('',(
    #1251),#1239);
#1251 = STYLED_ITEM('color',(#1252),#33);
#1252 = PRESENTATION_STYLE_ASSIGNMENT((#1253));
#1253 = SURFACE_STYLE_USAGE(.BOTH.,#1254);
#1254 = SURFACE_SIDE_STYLE('',(#1255));
#1255 = SURFACE_STYLE_FILL_AREA(#1256);
#1256 = FILL_AREA_STYLE('',(#1257));
#1257 = FILL_AREA_STYLE_COLOUR('',#1258);
#1258 = COLOUR_RGB('',0.530000000233,0.590000005974,0.640000008347);
ENDSEC;
END-ISO-10303-21;
