ISO-10303-21;
HEADER;
FILE_DESCRIPTION(('Open CASCADE Model'),'2;1');
FILE_NAME('Open CASCADE Shape Model','2026-08-26T03:21:56',('Author'),(
    'Open CASCADE'),'Open CASCADE STEP processor 7.9','Open CASCADE 7.9'
  ,'Unknown');
FILE_SCHEMA((
'AP242_MANAGED_MODEL_BASED_3D_ENGINEERING_MIM_LF {1 0 10303 442 1 1 4 }'
    ));
ENDSEC;
DATA;
#1 = APPLICATION_PROTOCOL_DEFINITION('international standard',
  'ap242_managed_model_based_3d_engineering',2013,#2);
#2 = APPLICATION_CONTEXT('Managed model based 3d engineering');
#3 = SHAPE_DEFINITION_REPRESENTATION(#4,#10);
#4 = PRODUCT_DEFINITION_SHAPE('','',#5);
#5 = PRODUCT_DEFINITION('design','',#6,#9);
#6 = PRODUCT_DEFINITION_FORMATION('','',#7);
#7 = PRODUCT('AMSTEEL_EYE-SPLICE_THIMBLE_SS_STOWED_PART',
  'AMSTEEL_EYE-SPLICE_THIMBLE_SS_STOWED_PART','',(#8));
#8 = PRODUCT_CONTEXT('',#2,'mechanical');
#9 = PRODUCT_DEFINITION_CONTEXT('part definition',#2,'design');
#10 = SHAPE_REPRESENTATION('',(#11,#15),#19);
#11 = AXIS2_PLACEMENT_3D('',#12,#13,#14);
#12 = CARTESIAN_POINT('',(0.,0.,0.));
#13 = DIRECTION('',(0.,0.,1.));
#14 = DIRECTION('',(1.,0.,-0.));
#15 = AXIS2_PLACEMENT_3D('',#16,#17,#18);
#16 = CARTESIAN_POINT('',(0.,0.,0.));
#17 = DIRECTION('',(0.,0.,1.));
#18 = DIRECTION('',(1.,0.,-0.));
#19 = ( GEOMETRIC_REPRESENTATION_CONTEXT(3) 
GLOBAL_UNCERTAINTY_ASSIGNED_CONTEXT((#23)) GLOBAL_UNIT_ASSIGNED_CONTEXT(
(#20,#21,#22)) REPRESENTATION_CONTEXT('Context #1',
  '3D Context with UNIT and UNCERTAINTY') );
#20 = ( LENGTH_UNIT() NAMED_UNIT(*) SI_UNIT(.MILLI.,.METRE.) );
#21 = ( NAMED_UNIT(*) PLANE_ANGLE_UNIT() SI_UNIT($,.RADIAN.) );
#22 = ( NAMED_UNIT(*) SI_UNIT($,.STERADIAN.) SOLID_ANGLE_UNIT() );
#23 = UNCERTAINTY_MEASURE_WITH_UNIT(LENGTH_MEASURE(2.E-07),#20,
  'distance_accuracy_value','confusion accuracy');
#24 = PRODUCT_RELATED_PRODUCT_CATEGORY('part',$,(#7));
#25 = SHAPE_DEFINITION_REPRESENTATION(#26,#32);
#26 = PRODUCT_DEFINITION_SHAPE('','',#27);
#27 = PRODUCT_DEFINITION('design','',#28,#31);
#28 = PRODUCT_DEFINITION_FORMATION('','',#29);
#29 = PRODUCT('AMSTEEL_EYE-SPLICE_THIMBLE_SS_STOWED_LOCAL_DEFINITION',
  'AMSTEEL_EYE-SPLICE_THIMBLE_SS_STOWED_LOCAL_DEFINITION','',(#30));
#30 = PRODUCT_CONTEXT('',#2,'mechanical');
#31 = PRODUCT_DEFINITION_CONTEXT('part definition',#2,'design');
#32 = ADVANCED_BREP_SHAPE_REPRESENTATION('',(#11,#33),#1180);
#33 = MANIFOLD_SOLID_BREP('',#34);
#34 = CLOSED_SHELL('',(#35,#155,#439,#538,#643,#691,#746,#997,#1044,
    #1119,#1146,#1173));
#35 = ADVANCED_FACE('',(#36),#51,.T.);
#36 = FACE_BOUND('',#37,.T.);
#37 = EDGE_LOOP('',(#38,#74,#102,#131));
#38 = ORIENTED_EDGE('',*,*,#39,.T.);
#39 = EDGE_CURVE('',#40,#42,#44,.T.);
#40 = VERTEX_POINT('',#41);
#41 = CARTESIAN_POINT('',(7.631513611336,1.184271928233,-2.4));
#42 = VERTEX_POINT('',#43);
#43 = CARTESIAN_POINT('',(-1.959434878636E-15,1.184271928233,8.));
#44 = SURFACE_CURVE('',#45,(#50,#62),.PCURVE_S1.);
#45 = CIRCLE('',#46,8.);
#46 = AXIS2_PLACEMENT_3D('',#47,#48,#49);
#47 = CARTESIAN_POINT('',(0.,1.184271928233,0.));
#48 = DIRECTION('',(0.,1.,0.));
#49 = DIRECTION('',(0.,-0.,1.));
#50 = PCURVE('',#51,#56);
#51 = CYLINDRICAL_SURFACE('',#52,8.);
#52 = AXIS2_PLACEMENT_3D('',#53,#54,#55);
#53 = CARTESIAN_POINT('',(0.,-2.,0.));
#54 = DIRECTION('',(0.,1.,0.));
#55 = DIRECTION('',(0.,-0.,1.));
#56 = DEFINITIONAL_REPRESENTATION('',(#57),#61);
#57 = LINE('',#58,#59);
#58 = CARTESIAN_POINT('',(0.,3.184271928233));
#59 = VECTOR('',#60,1.);
#60 = DIRECTION('',(1.,0.));
#61 = ( GEOMETRIC_REPRESENTATION_CONTEXT(2) 
PARAMETRIC_REPRESENTATION_CONTEXT() REPRESENTATION_CONTEXT('2D SPACE',''
  ) );
#62 = PCURVE('',#63,#68);
#63 = TOROIDAL_SURFACE('',#64,7.,1.55);
#64 = AXIS2_PLACEMENT_3D('',#65,#66,#67);
#65 = CARTESIAN_POINT('',(0.,0.,0.));
#66 = DIRECTION('',(0.,1.,0.));
#67 = DIRECTION('',(0.,-0.,1.));
#68 = DEFINITIONAL_REPRESENTATION('',(#69),#73);
#69 = LINE('',#70,#71);
#70 = CARTESIAN_POINT('',(0.,0.869561962212));
#71 = VECTOR('',#72,1.);
#72 = DIRECTION('',(1.,0.));
#73 = ( GEOMETRIC_REPRESENTATION_CONTEXT(2) 
PARAMETRIC_REPRESENTATION_CONTEXT() REPRESENTATION_CONTEXT('2D SPACE',''
  ) );
#74 = ORIENTED_EDGE('',*,*,#75,.T.);
#75 = EDGE_CURVE('',#42,#76,#78,.T.);
#76 = VERTEX_POINT('',#77);
#77 = CARTESIAN_POINT('',(-1.959434878636E-15,2.,8.));
#78 = SURFACE_CURVE('',#79,(#83,#90),.PCURVE_S1.);
#79 = LINE('',#80,#81);
#80 = CARTESIAN_POINT('',(-1.959434878636E-15,-2.,8.));
#81 = VECTOR('',#82,1.);
#82 = DIRECTION('',(0.,1.,0.));
#83 = PCURVE('',#51,#84);
#84 = DEFINITIONAL_REPRESENTATION('',(#85),#89);
#85 = LINE('',#86,#87);
#86 = CARTESIAN_POINT('',(6.28318530718,-0.));
#87 = VECTOR('',#88,1.);
#88 = DIRECTION('',(0.,1.));
#89 = ( GEOMETRIC_REPRESENTATION_CONTEXT(2) 
PARAMETRIC_REPRESENTATION_CONTEXT() REPRESENTATION_CONTEXT('2D SPACE',''
  ) );
#90 = PCURVE('',#91,#96);
#91 = CYLINDRICAL_SURFACE('',#92,8.);
#92 = AXIS2_PLACEMENT_3D('',#93,#94,#95);
#93 = CARTESIAN_POINT('',(0.,-2.,0.));
#94 = DIRECTION('',(0.,1.,0.));
#95 = DIRECTION('',(0.,-0.,1.));
#96 = DEFINITIONAL_REPRESENTATION('',(#97),#101);
#97 = LINE('',#98,#99);
#98 = CARTESIAN_POINT('',(0.,-0.));
#99 = VECTOR('',#100,1.);
#100 = DIRECTION('',(0.,1.));
#101 = ( GEOMETRIC_REPRESENTATION_CONTEXT(2) 
PARAMETRIC_REPRESENTATION_CONTEXT() REPRESENTATION_CONTEXT('2D SPACE',''
  ) );
#102 = ORIENTED_EDGE('',*,*,#103,.F.);
#103 = EDGE_CURVE('',#104,#76,#106,.T.);
#104 = VERTEX_POINT('',#105);
#105 = CARTESIAN_POINT('',(7.631513611336,2.,-2.4));
#106 = SURFACE_CURVE('',#107,(#112,#119),.PCURVE_S1.);
#107 = CIRCLE('',#108,8.);
#108 = AXIS2_PLACEMENT_3D('',#109,#110,#111);
#109 = CARTESIAN_POINT('',(0.,2.,0.));
#110 = DIRECTION('',(0.,1.,0.));
#111 = DIRECTION('',(0.,-0.,1.));
#112 = PCURVE('',#51,#113);
#113 = DEFINITIONAL_REPRESENTATION('',(#114),#118);
#114 = LINE('',#115,#116);
#115 = CARTESIAN_POINT('',(0.,4.));
#116 = VECTOR('',#117,1.);
#117 = DIRECTION('',(1.,0.));
#118 = ( GEOMETRIC_REPRESENTATION_CONTEXT(2) 
PARAMETRIC_REPRESENTATION_CONTEXT() REPRESENTATION_CONTEXT('2D SPACE',''
  ) );
#119 = PCURVE('',#120,#125);
#120 = PLANE('',#121);
#121 = AXIS2_PLACEMENT_3D('',#122,#123,#124);
#122 = CARTESIAN_POINT('',(0.,2.,0.));
#123 = DIRECTION('',(0.,1.,0.));
#124 = DIRECTION('',(0.,-0.,1.));
#125 = DEFINITIONAL_REPRESENTATION('',(#126),#130);
#126 = CIRCLE('',#127,8.);
#127 = AXIS2_PLACEMENT_2D('',#128,#129);
#128 = CARTESIAN_POINT('',(0.,0.));
#129 = DIRECTION('',(1.,0.));
#130 = ( GEOMETRIC_REPRESENTATION_CONTEXT(2) 
PARAMETRIC_REPRESENTATION_CONTEXT() REPRESENTATION_CONTEXT('2D SPACE',''
  ) );
#131 = ORIENTED_EDGE('',*,*,#132,.F.);
#132 = EDGE_CURVE('',#40,#104,#133,.T.);
#133 = SURFACE_CURVE('',#134,(#138,#144),.PCURVE_S1.);
#134 = LINE('',#135,#136);
#135 = CARTESIAN_POINT('',(7.631513611336,-2.,-2.4));
#136 = VECTOR('',#137,1.);
#137 = DIRECTION('',(0.,1.,0.));
#138 = PCURVE('',#51,#139);
#139 = DEFINITIONAL_REPRESENTATION('',(#140),#143);
#140 = B_SPLINE_CURVE_WITH_KNOTS('',1,(#141,#142),.UNSPECIFIED.,.F.,.F.,
  (2,2),(3.184271328233,4.0000006),.PIECEWISE_BEZIER_KNOTS.);
#141 = CARTESIAN_POINT('',(1.87548898081,3.184271328233));
#142 = CARTESIAN_POINT('',(1.87548898081,4.0000006));
#143 = ( GEOMETRIC_REPRESENTATION_CONTEXT(2) 
PARAMETRIC_REPRESENTATION_CONTEXT() REPRESENTATION_CONTEXT('2D SPACE',''
  ) );
#144 = PCURVE('',#145,#150);
#145 = PLANE('',#146);
#146 = AXIS2_PLACEMENT_3D('',#147,#148,#149);
#147 = CARTESIAN_POINT('',(4.5,-2.2,-2.4));
#148 = DIRECTION('',(0.,0.,1.));
#149 = DIRECTION('',(1.,0.,0.));
#150 = DEFINITIONAL_REPRESENTATION('',(#151),#154);
#151 = B_SPLINE_CURVE_WITH_KNOTS('',1,(#152,#153),.UNSPECIFIED.,.F.,.F.,
  (2,2),(3.184271328233,4.0000006),.PIECEWISE_BEZIER_KNOTS.);
#152 = CARTESIAN_POINT('',(3.131513611336,3.384271328233));
#153 = CARTESIAN_POINT('',(3.131513611336,4.2000006));
#154 = ( GEOMETRIC_REPRESENTATION_CONTEXT(2) 
PARAMETRIC_REPRESENTATION_CONTEXT() REPRESENTATION_CONTEXT('2D SPACE',''
  ) );
#155 = ADVANCED_FACE('',(#156),#63,.F.);
#156 = FACE_BOUND('',#157,.F.);
#157 = EDGE_LOOP('',(#158,#159,#188,#217));
#158 = ORIENTED_EDGE('',*,*,#39,.T.);
#159 = ORIENTED_EDGE('',*,*,#160,.T.);
#160 = EDGE_CURVE('',#42,#161,#163,.T.);
#161 = VERTEX_POINT('',#162);
#162 = CARTESIAN_POINT('',(-1.959434878636E-15,-1.184271928233,8.));
#163 = SURFACE_CURVE('',#164,(#169,#176),.PCURVE_S1.);
#164 = CIRCLE('',#165,1.55);
#165 = AXIS2_PLACEMENT_3D('',#166,#167,#168);
#166 = CARTESIAN_POINT('',(-1.714505518806E-15,0.,7.));
#167 = DIRECTION('',(-1.,0.,-2.449293598295E-16));
#168 = DIRECTION('',(-2.449293598295E-16,0.,1.));
#169 = PCURVE('',#63,#170);
#170 = DEFINITIONAL_REPRESENTATION('',(#171),#175);
#171 = LINE('',#172,#173);
#172 = CARTESIAN_POINT('',(6.28318530718,-0.));
#173 = VECTOR('',#174,1.);
#174 = DIRECTION('',(0.,1.));
#175 = ( GEOMETRIC_REPRESENTATION_CONTEXT(2) 
PARAMETRIC_REPRESENTATION_CONTEXT() REPRESENTATION_CONTEXT('2D SPACE',''
  ) );
#176 = PCURVE('',#177,#182);
#177 = TOROIDAL_SURFACE('',#178,7.,1.55);
#178 = AXIS2_PLACEMENT_3D('',#179,#180,#181);
#179 = CARTESIAN_POINT('',(0.,0.,0.));
#180 = DIRECTION('',(0.,1.,0.));
#181 = DIRECTION('',(0.,-0.,1.));
#182 = DEFINITIONAL_REPRESENTATION('',(#183),#187);
#183 = LINE('',#184,#185);
#184 = CARTESIAN_POINT('',(0.,-0.));
#185 = VECTOR('',#186,1.);
#186 = DIRECTION('',(0.,1.));
#187 = ( GEOMETRIC_REPRESENTATION_CONTEXT(2) 
PARAMETRIC_REPRESENTATION_CONTEXT() REPRESENTATION_CONTEXT('2D SPACE',''
  ) );
#188 = ORIENTED_EDGE('',*,*,#189,.F.);
#189 = EDGE_CURVE('',#190,#161,#192,.T.);
#190 = VERTEX_POINT('',#191);
#191 = CARTESIAN_POINT('',(7.631513611336,-1.184271928233,-2.4));
#192 = SURFACE_CURVE('',#193,(#198,#205),.PCURVE_S1.);
#193 = CIRCLE('',#194,8.);
#194 = AXIS2_PLACEMENT_3D('',#195,#196,#197);
#195 = CARTESIAN_POINT('',(0.,-1.184271928233,0.));
#196 = DIRECTION('',(0.,1.,0.));
#197 = DIRECTION('',(0.,-0.,1.));
#198 = PCURVE('',#63,#199);
#199 = DEFINITIONAL_REPRESENTATION('',(#200),#204);
#200 = LINE('',#201,#202);
#201 = CARTESIAN_POINT('',(0.,5.413623344968));
#202 = VECTOR('',#203,1.);
#203 = DIRECTION('',(1.,0.));
#204 = ( GEOMETRIC_REPRESENTATION_CONTEXT(2) 
PARAMETRIC_REPRESENTATION_CONTEXT() REPRESENTATION_CONTEXT('2D SPACE',''
  ) );
#205 = PCURVE('',#206,#211);
#206 = CYLINDRICAL_SURFACE('',#207,8.);
#207 = AXIS2_PLACEMENT_3D('',#208,#209,#210);
#208 = CARTESIAN_POINT('',(0.,-2.,0.));
#209 = DIRECTION('',(0.,1.,0.));
#210 = DIRECTION('',(0.,-0.,1.));
#211 = DEFINITIONAL_REPRESENTATION('',(#212),#216);
#212 = LINE('',#213,#214);
#213 = CARTESIAN_POINT('',(0.,0.815728071767));
#214 = VECTOR('',#215,1.);
#215 = DIRECTION('',(1.,0.));
#216 = ( GEOMETRIC_REPRESENTATION_CONTEXT(2) 
PARAMETRIC_REPRESENTATION_CONTEXT() REPRESENTATION_CONTEXT('2D SPACE',''
  ) );
#217 = ORIENTED_EDGE('',*,*,#218,.F.);
#218 = EDGE_CURVE('',#40,#190,#219,.T.);
#219 = SURFACE_CURVE('',#220,(#291,#365),.PCURVE_S1.);
#220 = B_SPLINE_CURVE_WITH_KNOTS('',5,(#221,#222,#223,#224,#225,#226,
    #227,#228,#229,#230,#231,#232,#233,#234,#235,#236,#237,#238,#239,
    #240,#241,#242,#243,#244,#245,#246,#247,#248,#249,#250,#251,#252,
    #253,#254,#255,#256,#257,#258,#259,#260,#261,#262,#263,#264,#265,
    #266,#267,#268,#269,#270,#271,#272,#273,#274,#275,#276,#277,#278,
    #279,#280,#281,#282,#283,#284,#285,#286,#287,#288,#289,#290),
  .UNSPECIFIED.,.F.,.F.,(6,4,4,4,4,4,4,4,4,4,4,4,4,4,4,4,4,6),(0.,
    7.973038556013E-02,0.124067782848,0.213438952666,0.296710967209,
    0.329951447767,0.377836072404,0.421193395959,0.50000397741,
    0.554031835321,0.579437198749,0.622799721057,0.670690170005,
    0.702923284154,0.787208796345,0.875563761247,0.919903510507,1.),
  .UNSPECIFIED.);
#221 = CARTESIAN_POINT('',(7.631513611336,1.184271928233,-2.4));
#222 = CARTESIAN_POINT('',(7.540579710807,1.257519811919,-2.4));
#223 = CARTESIAN_POINT('',(7.442825228564,1.322557662595,-2.4));
#224 = CARTESIAN_POINT('',(7.339349273757,1.378666951612,-2.4));
#225 = CARTESIAN_POINT('',(7.231324662566,1.425384333305,-2.4));
#226 = CARTESIAN_POINT('',(7.058004241421,1.483059798958,-2.4));
#227 = CARTESIAN_POINT('',(6.99502601458,1.500686243293,-2.4));
#228 = CARTESIAN_POINT('',(6.931211576026,1.515284359162,-2.4));
#229 = CARTESIAN_POINT('',(6.866762897643,1.526828763347,-2.4));
#230 = CARTESIAN_POINT('',(6.671096464166,1.552412646326,-2.4));
#231 = CARTESIAN_POINT('',(6.538550903739,1.557075464403,-2.4));
#232 = CARTESIAN_POINT('',(6.405878400423,1.549239283959,-2.4));
#233 = CARTESIAN_POINT('',(6.274661540341,1.52910854503,-2.4));
#234 = CARTESIAN_POINT('',(6.026952526311,1.467206885522,-2.4));
#235 = CARTESIAN_POINT('',(5.910069814467,1.427007729315,-2.4));
#236 = CARTESIAN_POINT('',(5.797013461935,1.376773659459,-2.4));
#237 = CARTESIAN_POINT('',(5.689010306745,1.316950820717,-2.4));
#238 = CARTESIAN_POINT('',(5.546676827889,1.220650662274,-2.4));
#239 = CARTESIAN_POINT('',(5.507070479755,1.191742573044,-2.4));
#240 = CARTESIAN_POINT('',(5.468543368505,1.161438065669,-2.4));
#241 = CARTESIAN_POINT('',(5.431174277782,1.129779724225,-2.4));
#242 = CARTESIAN_POINT('',(5.342992272569,1.049327712654,-2.4));
#243 = CARTESIAN_POINT('',(5.293509503596,0.99912965125,-2.4));
#244 = CARTESIAN_POINT('',(5.246829819888,0.946363641762,-2.4));
#245 = CARTESIAN_POINT('',(5.203191028836,0.891197283815,-2.4));
#246 = CARTESIAN_POINT('',(5.126266276474,0.781890060316,-2.4));
#247 = CARTESIAN_POINT('',(5.09239148121,0.728145231713,-2.4));
#248 = CARTESIAN_POINT('',(5.061364786777,0.672747801322,-2.4));
#249 = CARTESIAN_POINT('',(5.03334696231,0.615870338241,-2.4));
#250 = CARTESIAN_POINT('',(4.963270289523,0.45199944712,-2.4));
#251 = CARTESIAN_POINT('',(4.92845511189,0.342034837119,-2.4));
#252 = CARTESIAN_POINT('',(4.904888839038,0.229064654506,-2.4));
#253 = CARTESIAN_POINT('',(4.893107094019,0.114521847241,-2.4));
#254 = CARTESIAN_POINT('',(4.893107604959,-7.851559108529E-02,-2.4));
#255 = CARTESIAN_POINT('',(4.89864470894,-0.157030700908,-2.4));
#256 = CARTESIAN_POINT('',(4.909719180627,-0.235045661468,-2.4));
#257 = CARTESIAN_POINT('',(4.926214907026,-0.312081909723,-2.4));
#258 = CARTESIAN_POINT('',(4.958133077209,-0.423247624331,-2.4));
#259 = CARTESIAN_POINT('',(4.969494710707,-0.458487806143,-2.4));
#260 = CARTESIAN_POINT('',(4.981988037535,-0.493368182718,-2.4));
#261 = CARTESIAN_POINT('',(4.995588209602,-0.52784597771,-2.4));
#262 = CARTESIAN_POINT('',(5.035321100272,-0.619973289033,-2.4));
#263 = CARTESIAN_POINT('',(5.063517775524,-0.676776265197,-2.4));
#264 = CARTESIAN_POINT('',(5.094717508062,-0.732090938885,-2.4));
#265 = CARTESIAN_POINT('',(5.128759050746,-0.785745395278,-2.4));
#266 = CARTESIAN_POINT('',(5.20602093733,-0.894847817239,-2.4));
#267 = CARTESIAN_POINT('',(5.249828674247,-0.94989819091,-2.4));
#268 = CARTESIAN_POINT('',(5.296668895052,-1.002540492442,-2.4));
#269 = CARTESIAN_POINT('',(5.346303621105,-1.052607817285,-2.4));
#270 = CARTESIAN_POINT('',(5.433626107838,-1.131827432668,-2.4));
#271 = CARTESIAN_POINT('',(5.46991433326,-1.162465919634,-2.4));
#272 = CARTESIAN_POINT('',(5.507289499743,-1.191830303808,-2.4));
#273 = CARTESIAN_POINT('',(5.545679768037,-1.219881792961,-2.4));
#274 = CARTESIAN_POINT('',(5.687866432441,-1.316413865999,-2.4));
#275 = CARTESIAN_POINT('',(5.79716694637,-1.377026115378,-2.4));
#276 = CARTESIAN_POINT('',(5.911646174986,-1.427812682061,-2.4));
#277 = CARTESIAN_POINT('',(6.030031716611,-1.468313573206,-2.4));
#278 = CARTESIAN_POINT('',(6.277907269137,-1.529552717406,-2.4));
#279 = CARTESIAN_POINT('',(6.407653495815,-1.549241382643,-2.4));
#280 = CARTESIAN_POINT('',(6.538806509438,-1.556911700774,-2.4));
#281 = CARTESIAN_POINT('',(6.669836836809,-1.552367190473,-2.4));
#282 = CARTESIAN_POINT('',(6.864066871605,-1.527283459976,-2.4));
#283 = CARTESIAN_POINT('',(6.928539733001,-1.515840265833,-2.4));
#284 = CARTESIAN_POINT('',(6.992383312172,-1.501342440183,-2.4));
#285 = CARTESIAN_POINT('',(7.055395620059,-1.483815067797,-2.4));
#286 = CARTESIAN_POINT('',(7.229330943854,-1.426245106418,-2.4));
#287 = CARTESIAN_POINT('',(7.337916980775,-1.379442839667,-2.4));
#288 = CARTESIAN_POINT('',(7.441923226798,-1.323157506065,-2.4));
#289 = CARTESIAN_POINT('',(7.540160258599,-1.257857683563,-2.4));
#290 = CARTESIAN_POINT('',(7.631513611336,-1.184271928233,-2.4));
#291 = PCURVE('',#63,#292);
#292 = DEFINITIONAL_REPRESENTATION('',(#293),#364);
#293 = B_SPLINE_CURVE_WITH_KNOTS('',5,(#294,#295,#296,#297,#298,#299,
    #300,#301,#302,#303,#304,#305,#306,#307,#308,#309,#310,#311,#312,
    #313,#314,#315,#316,#317,#318,#319,#320,#321,#322,#323,#324,#325,
    #326,#327,#328,#329,#330,#331,#332,#333,#334,#335,#336,#337,#338,
    #339,#340,#341,#342,#343,#344,#345,#346,#347,#348,#349,#350,#351,
    #352,#353,#354,#355,#356,#357,#358,#359,#360,#361,#362,#363),
  .UNSPECIFIED.,.F.,.F.,(6,4,4,4,4,4,4,4,4,4,4,4,4,4,4,4,4,6),(0.,
    7.973038556013E-02,0.124067782848,0.213438952666,0.296710967209,
    0.329951447767,0.377836072404,0.421193395959,0.50000397741,
    0.554031835321,0.579437198749,0.622799721057,0.670690170005,
    0.702923284154,0.787208796345,0.875563761247,0.919903510507,1.),
  .UNSPECIFIED.);
#294 = CARTESIAN_POINT('',(1.87548898081,0.869561962212));
#295 = CARTESIAN_POINT('',(1.87889900208,0.942809845898));
#296 = CARTESIAN_POINT('',(1.882657239992,1.01579020718));
#297 = CARTESIAN_POINT('',(1.886755018552,1.088486557833));
#298 = CARTESIAN_POINT('',(1.891181148649,1.160913119667));
#299 = CARTESIAN_POINT('',(1.898549485133,1.273218315717));
#300 = CARTESIAN_POINT('',(1.901278268869,1.313274207422));
#301 = CARTESIAN_POINT('',(1.904099474623,1.353256103378));
#302 = CARTESIAN_POINT('',(1.907009070313,1.393169545125));
#303 = CARTESIAN_POINT('',(1.916035388956,1.513351741314));
#304 = CARTESIAN_POINT('',(1.922407763869,1.593431473573));
#305 = CARTESIAN_POINT('',(1.929078960154,1.673322312601));
#306 = CARTESIAN_POINT('',(1.935992209398,1.753108997954));
#307 = CARTESIAN_POINT('',(1.949646790848,1.907238962038));
#308 = CARTESIAN_POINT('',(1.956367243835,1.981580673534));
#309 = CARTESIAN_POINT('',(1.963153439204,2.056011224934));
#310 = CARTESIAN_POINT('',(1.96990941326,2.130622687048));
#311 = CARTESIAN_POINT('',(1.979147412521,2.235402990273));
#312 = CARTESIAN_POINT('',(1.981758451124,2.26533981143));
#313 = CARTESIAN_POINT('',(1.984337036752,2.29532576913));
#314 = CARTESIAN_POINT('',(1.986874543967,2.32536592309));
#315 = CARTESIAN_POINT('',(1.992944465717,2.398823629831));
#316 = CARTESIAN_POINT('',(1.996422696822,2.442304172966));
#317 = CARTESIAN_POINT('',(1.999768632624,2.485919374291));
#318 = CARTESIAN_POINT('',(2.002951624764,2.529678050077));
#319 = CARTESIAN_POINT('',(2.008647168293,2.613335293333));
#320 = CARTESIAN_POINT('',(2.011194664476,2.653207768485));
#321 = CARTESIAN_POINT('',(2.013560207201,2.693200125611));
#322 = CARTESIAN_POINT('',(2.015720705789,2.733308959641));
#323 = CARTESIAN_POINT('',(2.021173287682,2.846621346192));
#324 = CARTESIAN_POINT('',(2.023946909612,2.920083430968));
#325 = CARTESIAN_POINT('',(2.025851919771,2.99380934866));
#326 = CARTESIAN_POINT('',(2.02680372195,3.067707590853));
#327 = CARTESIAN_POINT('',(2.026803680665,3.192247873645));
#328 = CARTESIAN_POINT('',(2.026356298063,3.242902763824));
#329 = CARTESIAN_POINT('',(2.025461365485,3.293505892794));
#330 = CARTESIAN_POINT('',(2.024136946024,3.344018675626));
#331 = CARTESIAN_POINT('',(2.021603921907,3.418093045276));
#332 = CARTESIAN_POINT('',(2.020705639493,3.441756292195));
#333 = CARTESIAN_POINT('',(2.019722450954,3.465387912563));
#334 = CARTESIAN_POINT('',(2.018658045807,3.48898513609));
#335 = CARTESIAN_POINT('',(2.015568273849,3.552759930811));
#336 = CARTESIAN_POINT('',(2.013395408135,3.592867843696));
#337 = CARTESIAN_POINT('',(2.011018401948,3.632858985907));
#338 = CARTESIAN_POINT('',(2.008460389241,3.672730112086));
#339 = CARTESIAN_POINT('',(2.00274471564,3.756384643379));
#340 = CARTESIAN_POINT('',(1.99955231934,3.800141953344));
#341 = CARTESIAN_POINT('',(1.996198151477,3.843756016024));
#342 = CARTESIAN_POINT('',(1.992712821278,3.887235790795));
#343 = CARTESIAN_POINT('',(1.98670848495,3.959777318778));
#344 = CARTESIAN_POINT('',(1.984246095284,3.98890531419));
#345 = CARTESIAN_POINT('',(1.981745289623,4.017982480591));
#346 = CARTESIAN_POINT('',(1.979213928563,4.04701343727));
#347 = CARTESIAN_POINT('',(1.969979123455,4.151808226951));
#348 = CARTESIAN_POINT('',(1.963139773162,4.227329314105));
#349 = CARTESIAN_POINT('',(1.956270190696,4.302665926501));
#350 = CARTESIAN_POINT('',(1.94946853383,4.377911508572));
#351 = CARTESIAN_POINT('',(1.93582256583,4.532042306796));
#352 = CARTESIAN_POINT('',(1.928992314346,4.610925637025));
#353 = CARTESIAN_POINT('',(1.922399097917,4.689911551363));
#354 = CARTESIAN_POINT('',(1.916097779522,4.769081870219));
#355 = CARTESIAN_POINT('',(1.907131358798,4.888349116632));
#356 = CARTESIAN_POINT('',(1.904218637293,4.928263276992));
#357 = CARTESIAN_POINT('',(1.901394211654,4.968245748435));
#358 = CARTESIAN_POINT('',(1.898662128963,5.008302101198));
#359 = CARTESIAN_POINT('',(1.891262856142,5.120935898657));
#360 = CARTESIAN_POINT('',(1.886811746286,5.193692769582));
#361 = CARTESIAN_POINT('',(1.882691919976,5.26672181253));
#362 = CARTESIAN_POINT('',(1.878914731538,5.340037589637));
#363 = CARTESIAN_POINT('',(1.87548898081,5.413623344968));
#364 = ( GEOMETRIC_REPRESENTATION_CONTEXT(2) 
PARAMETRIC_REPRESENTATION_CONTEXT() REPRESENTATION_CONTEXT('2D SPACE',''
  ) );
#365 = PCURVE('',#145,#366);
#366 = DEFINITIONAL_REPRESENTATION('',(#367),#438);
#367 = B_SPLINE_CURVE_WITH_KNOTS('',5,(#368,#369,#370,#371,#372,#373,
    #374,#375,#376,#377,#378,#379,#380,#381,#382,#383,#384,#385,#386,
    #387,#388,#389,#390,#391,#392,#393,#394,#395,#396,#397,#398,#399,
    #400,#401,#402,#403,#404,#405,#406,#407,#408,#409,#410,#411,#412,
    #413,#414,#415,#416,#417,#418,#419,#420,#421,#422,#423,#424,#425,
    #426,#427,#428,#429,#430,#431,#432,#433,#434,#435,#436,#437),
  .UNSPECIFIED.,.F.,.F.,(6,4,4,4,4,4,4,4,4,4,4,4,4,4,4,4,4,6),(0.,
    7.973038556013E-02,0.124067782848,0.213438952666,0.296710967209,
    0.329951447767,0.377836072404,0.421193395959,0.50000397741,
    0.554031835321,0.579437198749,0.622799721057,0.670690170005,
    0.702923284154,0.787208796345,0.875563761247,0.919903510507,1.),
  .UNSPECIFIED.);
#368 = CARTESIAN_POINT('',(3.131513611336,3.384271928233));
#369 = CARTESIAN_POINT('',(3.040579710807,3.457519811919));
#370 = CARTESIAN_POINT('',(2.942825228564,3.522557662595));
#371 = CARTESIAN_POINT('',(2.839349273757,3.578666951612));
#372 = CARTESIAN_POINT('',(2.731324662566,3.625384333305));
#373 = CARTESIAN_POINT('',(2.558004241421,3.683059798958));
#374 = CARTESIAN_POINT('',(2.49502601458,3.700686243293));
#375 = CARTESIAN_POINT('',(2.431211576026,3.715284359162));
#376 = CARTESIAN_POINT('',(2.366762897643,3.726828763347));
#377 = CARTESIAN_POINT('',(2.171096464166,3.752412646326));
#378 = CARTESIAN_POINT('',(2.038550903739,3.757075464403));
#379 = CARTESIAN_POINT('',(1.905878400423,3.749239283959));
#380 = CARTESIAN_POINT('',(1.774661540341,3.72910854503));
#381 = CARTESIAN_POINT('',(1.526952526311,3.667206885522));
#382 = CARTESIAN_POINT('',(1.410069814467,3.627007729315));
#383 = CARTESIAN_POINT('',(1.297013461935,3.576773659459));
#384 = CARTESIAN_POINT('',(1.189010306745,3.516950820717));
#385 = CARTESIAN_POINT('',(1.046676827889,3.420650662274));
#386 = CARTESIAN_POINT('',(1.007070479755,3.391742573044));
#387 = CARTESIAN_POINT('',(0.968543368505,3.361438065669));
#388 = CARTESIAN_POINT('',(0.931174277782,3.329779724225));
#389 = CARTESIAN_POINT('',(0.842992272569,3.249327712654));
#390 = CARTESIAN_POINT('',(0.793509503596,3.19912965125));
#391 = CARTESIAN_POINT('',(0.746829819888,3.146363641762));
#392 = CARTESIAN_POINT('',(0.703191028836,3.091197283815));
#393 = CARTESIAN_POINT('',(0.626266276474,2.981890060316));
#394 = CARTESIAN_POINT('',(0.59239148121,2.928145231713));
#395 = CARTESIAN_POINT('',(0.561364786777,2.872747801322));
#396 = CARTESIAN_POINT('',(0.53334696231,2.815870338241));
#397 = CARTESIAN_POINT('',(0.463270289523,2.65199944712));
#398 = CARTESIAN_POINT('',(0.42845511189,2.542034837119));
#399 = CARTESIAN_POINT('',(0.404888839038,2.429064654506));
#400 = CARTESIAN_POINT('',(0.393107094019,2.314521847241));
#401 = CARTESIAN_POINT('',(0.393107604959,2.121484408915));
#402 = CARTESIAN_POINT('',(0.39864470894,2.042969299092));
#403 = CARTESIAN_POINT('',(0.409719180627,1.964954338532));
#404 = CARTESIAN_POINT('',(0.426214907026,1.887918090277));
#405 = CARTESIAN_POINT('',(0.458133077209,1.776752375669));
#406 = CARTESIAN_POINT('',(0.469494710707,1.741512193857));
#407 = CARTESIAN_POINT('',(0.481988037535,1.706631817282));
#408 = CARTESIAN_POINT('',(0.495588209602,1.67215402229));
#409 = CARTESIAN_POINT('',(0.535321100272,1.580026710967));
#410 = CARTESIAN_POINT('',(0.563517775524,1.523223734803));
#411 = CARTESIAN_POINT('',(0.594717508062,1.467909061115));
#412 = CARTESIAN_POINT('',(0.628759050746,1.414254604722));
#413 = CARTESIAN_POINT('',(0.70602093733,1.305152182761));
#414 = CARTESIAN_POINT('',(0.749828674247,1.25010180909));
#415 = CARTESIAN_POINT('',(0.796668895052,1.197459507558));
#416 = CARTESIAN_POINT('',(0.846303621105,1.147392182715));
#417 = CARTESIAN_POINT('',(0.933626107838,1.068172567332));
#418 = CARTESIAN_POINT('',(0.96991433326,1.037534080366));
#419 = CARTESIAN_POINT('',(1.007289499743,1.008169696192));
#420 = CARTESIAN_POINT('',(1.045679768037,0.980118207039));
#421 = CARTESIAN_POINT('',(1.187866432441,0.883586134001));
#422 = CARTESIAN_POINT('',(1.29716694637,0.822973884622));
#423 = CARTESIAN_POINT('',(1.411646174986,0.772187317939));
#424 = CARTESIAN_POINT('',(1.530031716611,0.731686426794));
#425 = CARTESIAN_POINT('',(1.777907269137,0.670447282594));
#426 = CARTESIAN_POINT('',(1.907653495815,0.650758617357));
#427 = CARTESIAN_POINT('',(2.038806509438,0.643088299226));
#428 = CARTESIAN_POINT('',(2.169836836809,0.647632809527));
#429 = CARTESIAN_POINT('',(2.364066871605,0.672716540024));
#430 = CARTESIAN_POINT('',(2.428539733001,0.684159734167));
#431 = CARTESIAN_POINT('',(2.492383312172,0.698657559817));
#432 = CARTESIAN_POINT('',(2.555395620059,0.716184932203));
#433 = CARTESIAN_POINT('',(2.729330943854,0.773754893582));
#434 = CARTESIAN_POINT('',(2.837916980775,0.820557160333));
#435 = CARTESIAN_POINT('',(2.941923226798,0.876842493935));
#436 = CARTESIAN_POINT('',(3.040160258599,0.942142316437));
#437 = CARTESIAN_POINT('',(3.131513611336,1.015728071767));
#438 = ( GEOMETRIC_REPRESENTATION_CONTEXT(2) 
PARAMETRIC_REPRESENTATION_CONTEXT() REPRESENTATION_CONTEXT('2D SPACE',''
  ) );
#439 = ADVANCED_FACE('',(#440),#145,.T.);
#440 = FACE_BOUND('',#441,.T.);
#441 = EDGE_LOOP('',(#442,#472,#498,#517,#518,#519));
#442 = ORIENTED_EDGE('',*,*,#443,.F.);
#443 = EDGE_CURVE('',#444,#446,#448,.T.);
#444 = VERTEX_POINT('',#445);
#445 = CARTESIAN_POINT('',(4.5,-2.,-2.4));
#446 = VERTEX_POINT('',#447);
#447 = CARTESIAN_POINT('',(4.5,2.,-2.4));
#448 = SURFACE_CURVE('',#449,(#453,#460),.PCURVE_S1.);
#449 = LINE('',#450,#451);
#450 = CARTESIAN_POINT('',(4.5,-2.2,-2.4));
#451 = VECTOR('',#452,1.);
#452 = DIRECTION('',(0.,1.,0.));
#453 = PCURVE('',#145,#454);
#454 = DEFINITIONAL_REPRESENTATION('',(#455),#459);
#455 = LINE('',#456,#457);
#456 = CARTESIAN_POINT('',(0.,0.));
#457 = VECTOR('',#458,1.);
#458 = DIRECTION('',(0.,1.));
#459 = ( GEOMETRIC_REPRESENTATION_CONTEXT(2) 
PARAMETRIC_REPRESENTATION_CONTEXT() REPRESENTATION_CONTEXT('2D SPACE',''
  ) );
#460 = PCURVE('',#461,#466);
#461 = PLANE('',#462);
#462 = AXIS2_PLACEMENT_3D('',#463,#464,#465);
#463 = CARTESIAN_POINT('',(4.5,-2.2,-2.4));
#464 = DIRECTION('',(1.,0.,0.));
#465 = DIRECTION('',(0.,0.,1.));
#466 = DEFINITIONAL_REPRESENTATION('',(#467),#471);
#467 = LINE('',#468,#469);
#468 = CARTESIAN_POINT('',(0.,0.));
#469 = VECTOR('',#470,1.);
#470 = DIRECTION('',(0.,-1.));
#471 = ( GEOMETRIC_REPRESENTATION_CONTEXT(2) 
PARAMETRIC_REPRESENTATION_CONTEXT() REPRESENTATION_CONTEXT('2D SPACE',''
  ) );
#472 = ORIENTED_EDGE('',*,*,#473,.T.);
#473 = EDGE_CURVE('',#444,#474,#476,.T.);
#474 = VERTEX_POINT('',#475);
#475 = CARTESIAN_POINT('',(7.631513611336,-2.,-2.4));
#476 = SURFACE_CURVE('',#477,(#481,#487),.PCURVE_S1.);
#477 = LINE('',#478,#479);
#478 = CARTESIAN_POINT('',(2.25,-2.,-2.4));
#479 = VECTOR('',#480,1.);
#480 = DIRECTION('',(1.,0.,0.));
#481 = PCURVE('',#145,#482);
#482 = DEFINITIONAL_REPRESENTATION('',(#483),#486);
#483 = B_SPLINE_CURVE_WITH_KNOTS('',1,(#484,#485),.UNSPECIFIED.,.F.,.F.,
  (2,2),(2.25,5.75),.PIECEWISE_BEZIER_KNOTS.);
#484 = CARTESIAN_POINT('',(0.,0.2));
#485 = CARTESIAN_POINT('',(3.5,0.2));
#486 = ( GEOMETRIC_REPRESENTATION_CONTEXT(2) 
PARAMETRIC_REPRESENTATION_CONTEXT() REPRESENTATION_CONTEXT('2D SPACE',''
  ) );
#487 = PCURVE('',#488,#493);
#488 = PLANE('',#489);
#489 = AXIS2_PLACEMENT_3D('',#490,#491,#492);
#490 = CARTESIAN_POINT('',(0.,-2.,0.));
#491 = DIRECTION('',(0.,1.,0.));
#492 = DIRECTION('',(0.,-0.,1.));
#493 = DEFINITIONAL_REPRESENTATION('',(#494),#497);
#494 = B_SPLINE_CURVE_WITH_KNOTS('',1,(#495,#496),.UNSPECIFIED.,.F.,.F.,
  (2,2),(2.25,5.75),.PIECEWISE_BEZIER_KNOTS.);
#495 = CARTESIAN_POINT('',(-2.4,4.5));
#496 = CARTESIAN_POINT('',(-2.4,8.));
#497 = ( GEOMETRIC_REPRESENTATION_CONTEXT(2) 
PARAMETRIC_REPRESENTATION_CONTEXT() REPRESENTATION_CONTEXT('2D SPACE',''
  ) );
#498 = ORIENTED_EDGE('',*,*,#499,.T.);
#499 = EDGE_CURVE('',#474,#190,#500,.T.);
#500 = SURFACE_CURVE('',#501,(#505,#511),.PCURVE_S1.);
#501 = LINE('',#502,#503);
#502 = CARTESIAN_POINT('',(7.631513611336,-2.,-2.4));
#503 = VECTOR('',#504,1.);
#504 = DIRECTION('',(0.,1.,0.));
#505 = PCURVE('',#145,#506);
#506 = DEFINITIONAL_REPRESENTATION('',(#507),#510);
#507 = B_SPLINE_CURVE_WITH_KNOTS('',1,(#508,#509),.UNSPECIFIED.,.F.,.F.,
  (2,2),(-5.999999999062E-07,0.815728671767),.PIECEWISE_BEZIER_KNOTS.);
#508 = CARTESIAN_POINT('',(3.131513611336,0.1999994));
#509 = CARTESIAN_POINT('',(3.131513611336,1.015728671767));
#510 = ( GEOMETRIC_REPRESENTATION_CONTEXT(2) 
PARAMETRIC_REPRESENTATION_CONTEXT() REPRESENTATION_CONTEXT('2D SPACE',''
  ) );
#511 = PCURVE('',#206,#512);
#512 = DEFINITIONAL_REPRESENTATION('',(#513),#516);
#513 = B_SPLINE_CURVE_WITH_KNOTS('',1,(#514,#515),.UNSPECIFIED.,.F.,.F.,
  (2,2),(-5.999999999062E-07,0.815728671767),.PIECEWISE_BEZIER_KNOTS.);
#514 = CARTESIAN_POINT('',(1.87548898081,-5.999999999062E-07));
#515 = CARTESIAN_POINT('',(1.87548898081,0.815728671767));
#516 = ( GEOMETRIC_REPRESENTATION_CONTEXT(2) 
PARAMETRIC_REPRESENTATION_CONTEXT() REPRESENTATION_CONTEXT('2D SPACE',''
  ) );
#517 = ORIENTED_EDGE('',*,*,#218,.F.);
#518 = ORIENTED_EDGE('',*,*,#132,.T.);
#519 = ORIENTED_EDGE('',*,*,#520,.F.);
#520 = EDGE_CURVE('',#446,#104,#521,.T.);
#521 = SURFACE_CURVE('',#522,(#526,#532),.PCURVE_S1.);
#522 = LINE('',#523,#524);
#523 = CARTESIAN_POINT('',(2.25,2.,-2.4));
#524 = VECTOR('',#525,1.);
#525 = DIRECTION('',(1.,0.,0.));
#526 = PCURVE('',#145,#527);
#527 = DEFINITIONAL_REPRESENTATION('',(#528),#531);
#528 = B_SPLINE_CURVE_WITH_KNOTS('',1,(#529,#530),.UNSPECIFIED.,.F.,.F.,
  (2,2),(2.25,5.75),.PIECEWISE_BEZIER_KNOTS.);
#529 = CARTESIAN_POINT('',(0.,4.2));
#530 = CARTESIAN_POINT('',(3.5,4.2));
#531 = ( GEOMETRIC_REPRESENTATION_CONTEXT(2) 
PARAMETRIC_REPRESENTATION_CONTEXT() REPRESENTATION_CONTEXT('2D SPACE',''
  ) );
#532 = PCURVE('',#120,#533);
#533 = DEFINITIONAL_REPRESENTATION('',(#534),#537);
#534 = B_SPLINE_CURVE_WITH_KNOTS('',1,(#535,#536),.UNSPECIFIED.,.F.,.F.,
  (2,2),(2.25,5.75),.PIECEWISE_BEZIER_KNOTS.);
#535 = CARTESIAN_POINT('',(-2.4,4.5));
#536 = CARTESIAN_POINT('',(-2.4,8.));
#537 = ( GEOMETRIC_REPRESENTATION_CONTEXT(2) 
PARAMETRIC_REPRESENTATION_CONTEXT() REPRESENTATION_CONTEXT('2D SPACE',''
  ) );
#538 = ADVANCED_FACE('',(#539,#612),#120,.T.);
#539 = FACE_BOUND('',#540,.T.);
#540 = EDGE_LOOP('',(#541,#542,#566,#592,#611));
#541 = ORIENTED_EDGE('',*,*,#103,.T.);
#542 = ORIENTED_EDGE('',*,*,#543,.T.);
#543 = EDGE_CURVE('',#76,#544,#546,.T.);
#544 = VERTEX_POINT('',#545);
#545 = CARTESIAN_POINT('',(7.631513611336,2.,2.4));
#546 = SURFACE_CURVE('',#547,(#552,#559),.PCURVE_S1.);
#547 = CIRCLE('',#548,8.);
#548 = AXIS2_PLACEMENT_3D('',#549,#550,#551);
#549 = CARTESIAN_POINT('',(0.,2.,0.));
#550 = DIRECTION('',(0.,1.,0.));
#551 = DIRECTION('',(0.,-0.,1.));
#552 = PCURVE('',#120,#553);
#553 = DEFINITIONAL_REPRESENTATION('',(#554),#558);
#554 = CIRCLE('',#555,8.);
#555 = AXIS2_PLACEMENT_2D('',#556,#557);
#556 = CARTESIAN_POINT('',(0.,0.));
#557 = DIRECTION('',(1.,0.));
#558 = ( GEOMETRIC_REPRESENTATION_CONTEXT(2) 
PARAMETRIC_REPRESENTATION_CONTEXT() REPRESENTATION_CONTEXT('2D SPACE',''
  ) );
#559 = PCURVE('',#91,#560);
#560 = DEFINITIONAL_REPRESENTATION('',(#561),#565);
#561 = LINE('',#562,#563);
#562 = CARTESIAN_POINT('',(0.,4.));
#563 = VECTOR('',#564,1.);
#564 = DIRECTION('',(1.,0.));
#565 = ( GEOMETRIC_REPRESENTATION_CONTEXT(2) 
PARAMETRIC_REPRESENTATION_CONTEXT() REPRESENTATION_CONTEXT('2D SPACE',''
  ) );
#566 = ORIENTED_EDGE('',*,*,#567,.F.);
#567 = EDGE_CURVE('',#568,#544,#570,.T.);
#568 = VERTEX_POINT('',#569);
#569 = CARTESIAN_POINT('',(4.5,2.,2.4));
#570 = SURFACE_CURVE('',#571,(#575,#581),.PCURVE_S1.);
#571 = LINE('',#572,#573);
#572 = CARTESIAN_POINT('',(2.25,2.,2.4));
#573 = VECTOR('',#574,1.);
#574 = DIRECTION('',(1.,0.,0.));
#575 = PCURVE('',#120,#576);
#576 = DEFINITIONAL_REPRESENTATION('',(#577),#580);
#577 = B_SPLINE_CURVE_WITH_KNOTS('',1,(#578,#579),.UNSPECIFIED.,.F.,.F.,
  (2,2),(2.25,5.75),.PIECEWISE_BEZIER_KNOTS.);
#578 = CARTESIAN_POINT('',(2.4,4.5));
#579 = CARTESIAN_POINT('',(2.4,8.));
#580 = ( GEOMETRIC_REPRESENTATION_CONTEXT(2) 
PARAMETRIC_REPRESENTATION_CONTEXT() REPRESENTATION_CONTEXT('2D SPACE',''
  ) );
#581 = PCURVE('',#582,#587);
#582 = PLANE('',#583);
#583 = AXIS2_PLACEMENT_3D('',#584,#585,#586);
#584 = CARTESIAN_POINT('',(4.5,-2.2,2.4));
#585 = DIRECTION('',(0.,0.,1.));
#586 = DIRECTION('',(1.,0.,0.));
#587 = DEFINITIONAL_REPRESENTATION('',(#588),#591);
#588 = B_SPLINE_CURVE_WITH_KNOTS('',1,(#589,#590),.UNSPECIFIED.,.F.,.F.,
  (2,2),(2.25,5.75),.PIECEWISE_BEZIER_KNOTS.);
#589 = CARTESIAN_POINT('',(0.,4.2));
#590 = CARTESIAN_POINT('',(3.5,4.2));
#591 = ( GEOMETRIC_REPRESENTATION_CONTEXT(2) 
PARAMETRIC_REPRESENTATION_CONTEXT() REPRESENTATION_CONTEXT('2D SPACE',''
  ) );
#592 = ORIENTED_EDGE('',*,*,#593,.T.);
#593 = EDGE_CURVE('',#568,#446,#594,.T.);
#594 = SURFACE_CURVE('',#595,(#599,#605),.PCURVE_S1.);
#595 = LINE('',#596,#597);
#596 = CARTESIAN_POINT('',(4.5,2.,-1.2));
#597 = VECTOR('',#598,1.);
#598 = DIRECTION('',(0.,0.,-1.));
#599 = PCURVE('',#120,#600);
#600 = DEFINITIONAL_REPRESENTATION('',(#601),#604);
#601 = B_SPLINE_CURVE_WITH_KNOTS('',1,(#602,#603),.UNSPECIFIED.,.F.,.F.,
  (2,2),(-3.6,1.2),.PIECEWISE_BEZIER_KNOTS.);
#602 = CARTESIAN_POINT('',(2.4,4.5));
#603 = CARTESIAN_POINT('',(-2.4,4.5));
#604 = ( GEOMETRIC_REPRESENTATION_CONTEXT(2) 
PARAMETRIC_REPRESENTATION_CONTEXT() REPRESENTATION_CONTEXT('2D SPACE',''
  ) );
#605 = PCURVE('',#461,#606);
#606 = DEFINITIONAL_REPRESENTATION('',(#607),#610);
#607 = B_SPLINE_CURVE_WITH_KNOTS('',1,(#608,#609),.UNSPECIFIED.,.F.,.F.,
  (2,2),(-3.6,1.2),.PIECEWISE_BEZIER_KNOTS.);
#608 = CARTESIAN_POINT('',(4.8,-4.2));
#609 = CARTESIAN_POINT('',(0.,-4.2));
#610 = ( GEOMETRIC_REPRESENTATION_CONTEXT(2) 
PARAMETRIC_REPRESENTATION_CONTEXT() REPRESENTATION_CONTEXT('2D SPACE',''
  ) );
#611 = ORIENTED_EDGE('',*,*,#520,.T.);
#612 = FACE_BOUND('',#613,.T.);
#613 = EDGE_LOOP('',(#614));
#614 = ORIENTED_EDGE('',*,*,#615,.F.);
#615 = EDGE_CURVE('',#616,#616,#618,.T.);
#616 = VERTEX_POINT('',#617);
#617 = CARTESIAN_POINT('',(-7.715274834628E-16,2.,3.15));
#618 = SURFACE_CURVE('',#619,(#624,#631),.PCURVE_S1.);
#619 = CIRCLE('',#620,3.15);
#620 = AXIS2_PLACEMENT_3D('',#621,#622,#623);
#621 = CARTESIAN_POINT('',(0.,2.,0.));
#622 = DIRECTION('',(0.,1.,0.));
#623 = DIRECTION('',(0.,-0.,1.));
#624 = PCURVE('',#120,#625);
#625 = DEFINITIONAL_REPRESENTATION('',(#626),#630);
#626 = CIRCLE('',#627,3.15);
#627 = AXIS2_PLACEMENT_2D('',#628,#629);
#628 = CARTESIAN_POINT('',(0.,0.));
#629 = DIRECTION('',(1.,0.));
#630 = ( GEOMETRIC_REPRESENTATION_CONTEXT(2) 
PARAMETRIC_REPRESENTATION_CONTEXT() REPRESENTATION_CONTEXT('2D SPACE',''
  ) );
#631 = PCURVE('',#632,#637);
#632 = CYLINDRICAL_SURFACE('',#633,3.15);
#633 = AXIS2_PLACEMENT_3D('',#634,#635,#636);
#634 = CARTESIAN_POINT('',(0.,-2.3,0.));
#635 = DIRECTION('',(0.,1.,0.));
#636 = DIRECTION('',(0.,-0.,1.));
#637 = DEFINITIONAL_REPRESENTATION('',(#638),#642);
#638 = LINE('',#639,#640);
#639 = CARTESIAN_POINT('',(0.,4.3));
#640 = VECTOR('',#641,1.);
#641 = DIRECTION('',(1.,0.));
#642 = ( GEOMETRIC_REPRESENTATION_CONTEXT(2) 
PARAMETRIC_REPRESENTATION_CONTEXT() REPRESENTATION_CONTEXT('2D SPACE',''
  ) );
#643 = ADVANCED_FACE('',(#644),#91,.T.);
#644 = FACE_BOUND('',#645,.T.);
#645 = EDGE_LOOP('',(#646,#647,#671,#690));
#646 = ORIENTED_EDGE('',*,*,#75,.F.);
#647 = ORIENTED_EDGE('',*,*,#648,.T.);
#648 = EDGE_CURVE('',#42,#649,#651,.T.);
#649 = VERTEX_POINT('',#650);
#650 = CARTESIAN_POINT('',(7.631513611336,1.184271928233,2.4));
#651 = SURFACE_CURVE('',#652,(#657,#664),.PCURVE_S1.);
#652 = CIRCLE('',#653,8.);
#653 = AXIS2_PLACEMENT_3D('',#654,#655,#656);
#654 = CARTESIAN_POINT('',(0.,1.184271928233,0.));
#655 = DIRECTION('',(0.,1.,0.));
#656 = DIRECTION('',(0.,-0.,1.));
#657 = PCURVE('',#91,#658);
#658 = DEFINITIONAL_REPRESENTATION('',(#659),#663);
#659 = LINE('',#660,#661);
#660 = CARTESIAN_POINT('',(0.,3.184271928233));
#661 = VECTOR('',#662,1.);
#662 = DIRECTION('',(1.,0.));
#663 = ( GEOMETRIC_REPRESENTATION_CONTEXT(2) 
PARAMETRIC_REPRESENTATION_CONTEXT() REPRESENTATION_CONTEXT('2D SPACE',''
  ) );
#664 = PCURVE('',#177,#665);
#665 = DEFINITIONAL_REPRESENTATION('',(#666),#670);
#666 = LINE('',#667,#668);
#667 = CARTESIAN_POINT('',(0.,0.869561962212));
#668 = VECTOR('',#669,1.);
#669 = DIRECTION('',(1.,0.));
#670 = ( GEOMETRIC_REPRESENTATION_CONTEXT(2) 
PARAMETRIC_REPRESENTATION_CONTEXT() REPRESENTATION_CONTEXT('2D SPACE',''
  ) );
#671 = ORIENTED_EDGE('',*,*,#672,.T.);
#672 = EDGE_CURVE('',#649,#544,#673,.T.);
#673 = SURFACE_CURVE('',#674,(#678,#684),.PCURVE_S1.);
#674 = LINE('',#675,#676);
#675 = CARTESIAN_POINT('',(7.631513611336,-2.,2.4));
#676 = VECTOR('',#677,1.);
#677 = DIRECTION('',(0.,1.,0.));
#678 = PCURVE('',#91,#679);
#679 = DEFINITIONAL_REPRESENTATION('',(#680),#683);
#680 = B_SPLINE_CURVE_WITH_KNOTS('',1,(#681,#682),.UNSPECIFIED.,.F.,.F.,
  (2,2),(3.184271328233,4.0000006),.PIECEWISE_BEZIER_KNOTS.);
#681 = CARTESIAN_POINT('',(1.266103672779,3.184271328233));
#682 = CARTESIAN_POINT('',(1.266103672779,4.0000006));
#683 = ( GEOMETRIC_REPRESENTATION_CONTEXT(2) 
PARAMETRIC_REPRESENTATION_CONTEXT() REPRESENTATION_CONTEXT('2D SPACE',''
  ) );
#684 = PCURVE('',#582,#685);
#685 = DEFINITIONAL_REPRESENTATION('',(#686),#689);
#686 = B_SPLINE_CURVE_WITH_KNOTS('',1,(#687,#688),.UNSPECIFIED.,.F.,.F.,
  (2,2),(3.184271328233,4.0000006),.PIECEWISE_BEZIER_KNOTS.);
#687 = CARTESIAN_POINT('',(3.131513611336,3.384271328233));
#688 = CARTESIAN_POINT('',(3.131513611336,4.2000006));
#689 = ( GEOMETRIC_REPRESENTATION_CONTEXT(2) 
PARAMETRIC_REPRESENTATION_CONTEXT() REPRESENTATION_CONTEXT('2D SPACE',''
  ) );
#690 = ORIENTED_EDGE('',*,*,#543,.F.);
#691 = ADVANCED_FACE('',(#692),#206,.T.);
#692 = FACE_BOUND('',#693,.T.);
#693 = EDGE_LOOP('',(#694,#722,#723,#724));
#694 = ORIENTED_EDGE('',*,*,#695,.T.);
#695 = EDGE_CURVE('',#696,#161,#698,.T.);
#696 = VERTEX_POINT('',#697);
#697 = CARTESIAN_POINT('',(-1.959434878636E-15,-2.,8.));
#698 = SURFACE_CURVE('',#699,(#703,#710),.PCURVE_S1.);
#699 = LINE('',#700,#701);
#700 = CARTESIAN_POINT('',(-1.959434878636E-15,-2.,8.));
#701 = VECTOR('',#702,1.);
#702 = DIRECTION('',(0.,1.,0.));
#703 = PCURVE('',#206,#704);
#704 = DEFINITIONAL_REPRESENTATION('',(#705),#709);
#705 = LINE('',#706,#707);
#706 = CARTESIAN_POINT('',(6.28318530718,-0.));
#707 = VECTOR('',#708,1.);
#708 = DIRECTION('',(0.,1.));
#709 = ( GEOMETRIC_REPRESENTATION_CONTEXT(2) 
PARAMETRIC_REPRESENTATION_CONTEXT() REPRESENTATION_CONTEXT('2D SPACE',''
  ) );
#710 = PCURVE('',#711,#716);
#711 = CYLINDRICAL_SURFACE('',#712,8.);
#712 = AXIS2_PLACEMENT_3D('',#713,#714,#715);
#713 = CARTESIAN_POINT('',(0.,-2.,0.));
#714 = DIRECTION('',(0.,1.,0.));
#715 = DIRECTION('',(0.,-0.,1.));
#716 = DEFINITIONAL_REPRESENTATION('',(#717),#721);
#717 = LINE('',#718,#719);
#718 = CARTESIAN_POINT('',(0.,-0.));
#719 = VECTOR('',#720,1.);
#720 = DIRECTION('',(0.,1.));
#721 = ( GEOMETRIC_REPRESENTATION_CONTEXT(2) 
PARAMETRIC_REPRESENTATION_CONTEXT() REPRESENTATION_CONTEXT('2D SPACE',''
  ) );
#722 = ORIENTED_EDGE('',*,*,#189,.F.);
#723 = ORIENTED_EDGE('',*,*,#499,.F.);
#724 = ORIENTED_EDGE('',*,*,#725,.T.);
#725 = EDGE_CURVE('',#474,#696,#726,.T.);
#726 = SURFACE_CURVE('',#727,(#732,#739),.PCURVE_S1.);
#727 = CIRCLE('',#728,8.);
#728 = AXIS2_PLACEMENT_3D('',#729,#730,#731);
#729 = CARTESIAN_POINT('',(0.,-2.,0.));
#730 = DIRECTION('',(0.,1.,0.));
#731 = DIRECTION('',(0.,-0.,1.));
#732 = PCURVE('',#206,#733);
#733 = DEFINITIONAL_REPRESENTATION('',(#734),#738);
#734 = LINE('',#735,#736);
#735 = CARTESIAN_POINT('',(0.,0.));
#736 = VECTOR('',#737,1.);
#737 = DIRECTION('',(1.,0.));
#738 = ( GEOMETRIC_REPRESENTATION_CONTEXT(2) 
PARAMETRIC_REPRESENTATION_CONTEXT() REPRESENTATION_CONTEXT('2D SPACE',''
  ) );
#739 = PCURVE('',#488,#740);
#740 = DEFINITIONAL_REPRESENTATION('',(#741),#745);
#741 = CIRCLE('',#742,8.);
#742 = AXIS2_PLACEMENT_2D('',#743,#744);
#743 = CARTESIAN_POINT('',(0.,0.));
#744 = DIRECTION('',(1.,0.));
#745 = ( GEOMETRIC_REPRESENTATION_CONTEXT(2) 
PARAMETRIC_REPRESENTATION_CONTEXT() REPRESENTATION_CONTEXT('2D SPACE',''
  ) );
#746 = ADVANCED_FACE('',(#747),#177,.F.);
#747 = FACE_BOUND('',#748,.F.);
#748 = EDGE_LOOP('',(#749,#750,#751,#975));
#749 = ORIENTED_EDGE('',*,*,#160,.F.);
#750 = ORIENTED_EDGE('',*,*,#648,.T.);
#751 = ORIENTED_EDGE('',*,*,#752,.T.);
#752 = EDGE_CURVE('',#649,#753,#755,.T.);
#753 = VERTEX_POINT('',#754);
#754 = CARTESIAN_POINT('',(7.631513611336,-1.184271928233,2.4));
#755 = SURFACE_CURVE('',#756,(#827,#901),.PCURVE_S1.);
#756 = B_SPLINE_CURVE_WITH_KNOTS('',5,(#757,#758,#759,#760,#761,#762,
    #763,#764,#765,#766,#767,#768,#769,#770,#771,#772,#773,#774,#775,
    #776,#777,#778,#779,#780,#781,#782,#783,#784,#785,#786,#787,#788,
    #789,#790,#791,#792,#793,#794,#795,#796,#797,#798,#799,#800,#801,
    #802,#803,#804,#805,#806,#807,#808,#809,#810,#811,#812,#813,#814,
    #815,#816,#817,#818,#819,#820,#821,#822,#823,#824,#825,#826),
  .UNSPECIFIED.,.F.,.F.,(6,4,4,4,4,4,4,4,4,4,4,4,4,4,4,4,4,6),(0.,
    7.973038556015E-02,0.124067782848,0.213438952666,0.296710967209,
    0.329951447767,0.377836072404,0.421193395959,0.50000397741,
    0.554031835321,0.579437198749,0.622799721057,0.670690170005,
    0.702923284154,0.787208796345,0.875563761247,0.919903510507,1.),
  .UNSPECIFIED.);
#757 = CARTESIAN_POINT('',(7.631513611336,1.184271928233,2.4));
#758 = CARTESIAN_POINT('',(7.540579710807,1.257519811919,2.4));
#759 = CARTESIAN_POINT('',(7.442825228564,1.322557662595,2.4));
#760 = CARTESIAN_POINT('',(7.339349273757,1.378666951612,2.4));
#761 = CARTESIAN_POINT('',(7.231324662566,1.425384333305,2.4));
#762 = CARTESIAN_POINT('',(7.058004241421,1.483059798958,2.4));
#763 = CARTESIAN_POINT('',(6.99502601458,1.500686243293,2.4));
#764 = CARTESIAN_POINT('',(6.931211576026,1.515284359162,2.4));
#765 = CARTESIAN_POINT('',(6.866762897643,1.526828763347,2.4));
#766 = CARTESIAN_POINT('',(6.671096464166,1.552412646326,2.4));
#767 = CARTESIAN_POINT('',(6.538550903739,1.557075464403,2.4));
#768 = CARTESIAN_POINT('',(6.405878400423,1.549239283959,2.4));
#769 = CARTESIAN_POINT('',(6.274661540342,1.52910854503,2.4));
#770 = CARTESIAN_POINT('',(6.026952526311,1.467206885522,2.4));
#771 = CARTESIAN_POINT('',(5.910069814467,1.427007729315,2.4));
#772 = CARTESIAN_POINT('',(5.797013461935,1.376773659459,2.4));
#773 = CARTESIAN_POINT('',(5.689010306745,1.316950820717,2.4));
#774 = CARTESIAN_POINT('',(5.546676827889,1.220650662274,2.4));
#775 = CARTESIAN_POINT('',(5.507070479755,1.191742573044,2.4));
#776 = CARTESIAN_POINT('',(5.468543368505,1.161438065669,2.4));
#777 = CARTESIAN_POINT('',(5.431174277782,1.129779724225,2.4));
#778 = CARTESIAN_POINT('',(5.342992272569,1.049327712654,2.4));
#779 = CARTESIAN_POINT('',(5.293509503595,0.99912965125,2.4));
#780 = CARTESIAN_POINT('',(5.246829819888,0.946363641762,2.4));
#781 = CARTESIAN_POINT('',(5.203191028836,0.891197283815,2.4));
#782 = CARTESIAN_POINT('',(5.126266276474,0.781890060316,2.4));
#783 = CARTESIAN_POINT('',(5.09239148121,0.728145231713,2.4));
#784 = CARTESIAN_POINT('',(5.061364786777,0.672747801322,2.4));
#785 = CARTESIAN_POINT('',(5.03334696231,0.615870338241,2.4));
#786 = CARTESIAN_POINT('',(4.963270289523,0.45199944712,2.4));
#787 = CARTESIAN_POINT('',(4.92845511189,0.342034837119,2.4));
#788 = CARTESIAN_POINT('',(4.904888839038,0.229064654506,2.4));
#789 = CARTESIAN_POINT('',(4.893107094019,0.114521847241,2.4));
#790 = CARTESIAN_POINT('',(4.893107604959,-7.851559108527E-02,2.4));
#791 = CARTESIAN_POINT('',(4.89864470894,-0.157030700908,2.4));
#792 = CARTESIAN_POINT('',(4.909719180627,-0.235045661468,2.4));
#793 = CARTESIAN_POINT('',(4.926214907026,-0.312081909723,2.4));
#794 = CARTESIAN_POINT('',(4.958133077209,-0.423247624331,2.4));
#795 = CARTESIAN_POINT('',(4.969494710707,-0.458487806143,2.4));
#796 = CARTESIAN_POINT('',(4.981988037535,-0.493368182718,2.4));
#797 = CARTESIAN_POINT('',(4.995588209602,-0.52784597771,2.4));
#798 = CARTESIAN_POINT('',(5.035321100272,-0.619973289033,2.4));
#799 = CARTESIAN_POINT('',(5.063517775524,-0.676776265197,2.4));
#800 = CARTESIAN_POINT('',(5.094717508062,-0.732090938885,2.4));
#801 = CARTESIAN_POINT('',(5.128759050746,-0.785745395278,2.4));
#802 = CARTESIAN_POINT('',(5.20602093733,-0.894847817239,2.4));
#803 = CARTESIAN_POINT('',(5.249828674247,-0.94989819091,2.4));
#804 = CARTESIAN_POINT('',(5.296668895052,-1.002540492442,2.4));
#805 = CARTESIAN_POINT('',(5.346303621105,-1.052607817285,2.4));
#806 = CARTESIAN_POINT('',(5.433626107838,-1.131827432668,2.4));
#807 = CARTESIAN_POINT('',(5.46991433326,-1.162465919634,2.4));
#808 = CARTESIAN_POINT('',(5.507289499743,-1.191830303808,2.4));
#809 = CARTESIAN_POINT('',(5.545679768037,-1.219881792961,2.4));
#810 = CARTESIAN_POINT('',(5.687866432441,-1.316413865999,2.4));
#811 = CARTESIAN_POINT('',(5.79716694637,-1.377026115378,2.4));
#812 = CARTESIAN_POINT('',(5.911646174986,-1.427812682061,2.4));
#813 = CARTESIAN_POINT('',(6.030031716611,-1.468313573206,2.4));
#814 = CARTESIAN_POINT('',(6.277907269137,-1.529552717406,2.4));
#815 = CARTESIAN_POINT('',(6.407653495815,-1.549241382643,2.4));
#816 = CARTESIAN_POINT('',(6.538806509438,-1.556911700774,2.4));
#817 = CARTESIAN_POINT('',(6.669836836809,-1.552367190473,2.4));
#818 = CARTESIAN_POINT('',(6.864066871605,-1.527283459976,2.4));
#819 = CARTESIAN_POINT('',(6.928539733001,-1.515840265833,2.4));
#820 = CARTESIAN_POINT('',(6.992383312172,-1.501342440183,2.4));
#821 = CARTESIAN_POINT('',(7.055395620059,-1.483815067797,2.4));
#822 = CARTESIAN_POINT('',(7.229330943854,-1.426245106418,2.4));
#823 = CARTESIAN_POINT('',(7.337916980775,-1.379442839667,2.4));
#824 = CARTESIAN_POINT('',(7.441923226798,-1.323157506065,2.4));
#825 = CARTESIAN_POINT('',(7.540160258599,-1.257857683563,2.4));
#826 = CARTESIAN_POINT('',(7.631513611336,-1.184271928233,2.4));
#827 = PCURVE('',#177,#828);
#828 = DEFINITIONAL_REPRESENTATION('',(#829),#900);
#829 = B_SPLINE_CURVE_WITH_KNOTS('',5,(#830,#831,#832,#833,#834,#835,
    #836,#837,#838,#839,#840,#841,#842,#843,#844,#845,#846,#847,#848,
    #849,#850,#851,#852,#853,#854,#855,#856,#857,#858,#859,#860,#861,
    #862,#863,#864,#865,#866,#867,#868,#869,#870,#871,#872,#873,#874,
    #875,#876,#877,#878,#879,#880,#881,#882,#883,#884,#885,#886,#887,
    #888,#889,#890,#891,#892,#893,#894,#895,#896,#897,#898,#899),
  .UNSPECIFIED.,.F.,.F.,(6,4,4,4,4,4,4,4,4,4,4,4,4,4,4,4,4,6),(0.,
    7.973038556015E-02,0.124067782848,0.213438952666,0.296710967209,
    0.329951447767,0.377836072404,0.421193395959,0.50000397741,
    0.554031835321,0.579437198749,0.622799721057,0.670690170005,
    0.702923284154,0.787208796345,0.875563761247,0.919903510507,1.),
  .UNSPECIFIED.);
#830 = CARTESIAN_POINT('',(1.266103672779,0.869561962212));
#831 = CARTESIAN_POINT('',(1.26269365151,0.942809845898));
#832 = CARTESIAN_POINT('',(1.258935413598,1.01579020718));
#833 = CARTESIAN_POINT('',(1.254837635037,1.088486557833));
#834 = CARTESIAN_POINT('',(1.250411504941,1.160913119667));
#835 = CARTESIAN_POINT('',(1.243043168457,1.273218315717));
#836 = CARTESIAN_POINT('',(1.240314384721,1.313274207422));
#837 = CARTESIAN_POINT('',(1.237493178967,1.353256103378));
#838 = CARTESIAN_POINT('',(1.234583583277,1.393169545125));
#839 = CARTESIAN_POINT('',(1.225557264633,1.513351741314));
#840 = CARTESIAN_POINT('',(1.219184889721,1.593431473573));
#841 = CARTESIAN_POINT('',(1.212513693436,1.673322312601));
#842 = CARTESIAN_POINT('',(1.205600444191,1.753108997954));
#843 = CARTESIAN_POINT('',(1.191945862742,1.907238962038));
#844 = CARTESIAN_POINT('',(1.185225409754,1.981580673534));
#845 = CARTESIAN_POINT('',(1.178439214386,2.056011224934));
#846 = CARTESIAN_POINT('',(1.171683240329,2.130622687048));
#847 = CARTESIAN_POINT('',(1.162445241069,2.235402990273));
#848 = CARTESIAN_POINT('',(1.159834202465,2.26533981143));
#849 = CARTESIAN_POINT('',(1.157255616838,2.29532576913));
#850 = CARTESIAN_POINT('',(1.154718109622,2.32536592309));
#851 = CARTESIAN_POINT('',(1.148648187872,2.398823629831));
#852 = CARTESIAN_POINT('',(1.145169956768,2.442304172966));
#853 = CARTESIAN_POINT('',(1.141824020966,2.485919374291));
#854 = CARTESIAN_POINT('',(1.138641028826,2.529678050077));
#855 = CARTESIAN_POINT('',(1.132945485297,2.613335293333));
#856 = CARTESIAN_POINT('',(1.130397989113,2.653207768485));
#857 = CARTESIAN_POINT('',(1.128032446388,2.693200125611));
#858 = CARTESIAN_POINT('',(1.125871947801,2.733308959641));
#859 = CARTESIAN_POINT('',(1.120419365908,2.846621346192));
#860 = CARTESIAN_POINT('',(1.117645743978,2.920083430968));
#861 = CARTESIAN_POINT('',(1.115740733819,2.99380934866));
#862 = CARTESIAN_POINT('',(1.11478893164,3.067707590853));
#863 = CARTESIAN_POINT('',(1.114788972925,3.192247873645));
#864 = CARTESIAN_POINT('',(1.115236355526,3.242902763825));
#865 = CARTESIAN_POINT('',(1.116131288105,3.293505892794));
#866 = CARTESIAN_POINT('',(1.117455707565,3.344018675626));
#867 = CARTESIAN_POINT('',(1.119988731683,3.418093045276));
#868 = CARTESIAN_POINT('',(1.120887014097,3.441756292195));
#869 = CARTESIAN_POINT('',(1.121870202635,3.465387912563));
#870 = CARTESIAN_POINT('',(1.122934607783,3.48898513609));
#871 = CARTESIAN_POINT('',(1.12602437974,3.552759930811));
#872 = CARTESIAN_POINT('',(1.128197245455,3.592867843696));
#873 = CARTESIAN_POINT('',(1.130574251641,3.632858985907));
#874 = CARTESIAN_POINT('',(1.133132264349,3.672730112086));
#875 = CARTESIAN_POINT('',(1.138847937949,3.756384643379));
#876 = CARTESIAN_POINT('',(1.14204033425,3.800141953344));
#877 = CARTESIAN_POINT('',(1.145394502113,3.843756016024));
#878 = CARTESIAN_POINT('',(1.148879832312,3.887235790795));
#879 = CARTESIAN_POINT('',(1.15488416864,3.959777318778));
#880 = CARTESIAN_POINT('',(1.157346558305,3.98890531419));
#881 = CARTESIAN_POINT('',(1.159847363967,4.017982480591));
#882 = CARTESIAN_POINT('',(1.162378725027,4.04701343727));
#883 = CARTESIAN_POINT('',(1.171613530135,4.151808226951));
#884 = CARTESIAN_POINT('',(1.178452880428,4.227329314105));
#885 = CARTESIAN_POINT('',(1.185322462894,4.3026659265));
#886 = CARTESIAN_POINT('',(1.19212411976,4.377911508572));
#887 = CARTESIAN_POINT('',(1.205770087759,4.532042306796));
#888 = CARTESIAN_POINT('',(1.212600339244,4.610925637025));
#889 = CARTESIAN_POINT('',(1.219193555673,4.689911551363));
#890 = CARTESIAN_POINT('',(1.225494874068,4.769081870219));
#891 = CARTESIAN_POINT('',(1.234461294792,4.888349116632));
#892 = CARTESIAN_POINT('',(1.237374016297,4.928263276992));
#893 = CARTESIAN_POINT('',(1.240198441936,4.968245748435));
#894 = CARTESIAN_POINT('',(1.242930524627,5.008302101198));
#895 = CARTESIAN_POINT('',(1.250329797448,5.120935898657));
#896 = CARTESIAN_POINT('',(1.254780907303,5.193692769582));
#897 = CARTESIAN_POINT('',(1.258900733614,5.26672181253));
#898 = CARTESIAN_POINT('',(1.262677922052,5.340037589637));
#899 = CARTESIAN_POINT('',(1.266103672779,5.413623344968));
#900 = ( GEOMETRIC_REPRESENTATION_CONTEXT(2) 
PARAMETRIC_REPRESENTATION_CONTEXT() REPRESENTATION_CONTEXT('2D SPACE',''
  ) );
#901 = PCURVE('',#582,#902);
#902 = DEFINITIONAL_REPRESENTATION('',(#903),#974);
#903 = B_SPLINE_CURVE_WITH_KNOTS('',5,(#904,#905,#906,#907,#908,#909,
    #910,#911,#912,#913,#914,#915,#916,#917,#918,#919,#920,#921,#922,
    #923,#924,#925,#926,#927,#928,#929,#930,#931,#932,#933,#934,#935,
    #936,#937,#938,#939,#940,#941,#942,#943,#944,#945,#946,#947,#948,
    #949,#950,#951,#952,#953,#954,#955,#956,#957,#958,#959,#960,#961,
    #962,#963,#964,#965,#966,#967,#968,#969,#970,#971,#972,#973),
  .UNSPECIFIED.,.F.,.F.,(6,4,4,4,4,4,4,4,4,4,4,4,4,4,4,4,4,6),(0.,
    7.973038556015E-02,0.124067782848,0.213438952666,0.296710967209,
    0.329951447767,0.377836072404,0.421193395959,0.50000397741,
    0.554031835321,0.579437198749,0.622799721057,0.670690170005,
    0.702923284154,0.787208796345,0.875563761247,0.919903510507,1.),
  .UNSPECIFIED.);
#904 = CARTESIAN_POINT('',(3.131513611336,3.384271928233));
#905 = CARTESIAN_POINT('',(3.040579710807,3.457519811919));
#906 = CARTESIAN_POINT('',(2.942825228564,3.522557662595));
#907 = CARTESIAN_POINT('',(2.839349273757,3.578666951612));
#908 = CARTESIAN_POINT('',(2.731324662566,3.625384333305));
#909 = CARTESIAN_POINT('',(2.558004241421,3.683059798958));
#910 = CARTESIAN_POINT('',(2.49502601458,3.700686243293));
#911 = CARTESIAN_POINT('',(2.431211576026,3.715284359162));
#912 = CARTESIAN_POINT('',(2.366762897643,3.726828763347));
#913 = CARTESIAN_POINT('',(2.171096464166,3.752412646326));
#914 = CARTESIAN_POINT('',(2.038550903739,3.757075464403));
#915 = CARTESIAN_POINT('',(1.905878400423,3.749239283959));
#916 = CARTESIAN_POINT('',(1.774661540342,3.72910854503));
#917 = CARTESIAN_POINT('',(1.526952526311,3.667206885522));
#918 = CARTESIAN_POINT('',(1.410069814467,3.627007729315));
#919 = CARTESIAN_POINT('',(1.297013461935,3.576773659459));
#920 = CARTESIAN_POINT('',(1.189010306745,3.516950820717));
#921 = CARTESIAN_POINT('',(1.046676827889,3.420650662274));
#922 = CARTESIAN_POINT('',(1.007070479755,3.391742573044));
#923 = CARTESIAN_POINT('',(0.968543368505,3.361438065669));
#924 = CARTESIAN_POINT('',(0.931174277782,3.329779724225));
#925 = CARTESIAN_POINT('',(0.842992272569,3.249327712654));
#926 = CARTESIAN_POINT('',(0.793509503595,3.19912965125));
#927 = CARTESIAN_POINT('',(0.746829819888,3.146363641762));
#928 = CARTESIAN_POINT('',(0.703191028836,3.091197283815));
#929 = CARTESIAN_POINT('',(0.626266276474,2.981890060316));
#930 = CARTESIAN_POINT('',(0.59239148121,2.928145231713));
#931 = CARTESIAN_POINT('',(0.561364786777,2.872747801322));
#932 = CARTESIAN_POINT('',(0.53334696231,2.815870338241));
#933 = CARTESIAN_POINT('',(0.463270289523,2.65199944712));
#934 = CARTESIAN_POINT('',(0.42845511189,2.542034837119));
#935 = CARTESIAN_POINT('',(0.404888839038,2.429064654506));
#936 = CARTESIAN_POINT('',(0.393107094019,2.314521847241));
#937 = CARTESIAN_POINT('',(0.393107604959,2.121484408915));
#938 = CARTESIAN_POINT('',(0.39864470894,2.042969299092));
#939 = CARTESIAN_POINT('',(0.409719180627,1.964954338532));
#940 = CARTESIAN_POINT('',(0.426214907026,1.887918090277));
#941 = CARTESIAN_POINT('',(0.458133077209,1.776752375669));
#942 = CARTESIAN_POINT('',(0.469494710707,1.741512193857));
#943 = CARTESIAN_POINT('',(0.481988037535,1.706631817282));
#944 = CARTESIAN_POINT('',(0.495588209602,1.67215402229));
#945 = CARTESIAN_POINT('',(0.535321100272,1.580026710967));
#946 = CARTESIAN_POINT('',(0.563517775524,1.523223734803));
#947 = CARTESIAN_POINT('',(0.594717508062,1.467909061115));
#948 = CARTESIAN_POINT('',(0.628759050746,1.414254604722));
#949 = CARTESIAN_POINT('',(0.70602093733,1.305152182761));
#950 = CARTESIAN_POINT('',(0.749828674247,1.25010180909));
#951 = CARTESIAN_POINT('',(0.796668895052,1.197459507558));
#952 = CARTESIAN_POINT('',(0.846303621105,1.147392182715));
#953 = CARTESIAN_POINT('',(0.933626107838,1.068172567332));
#954 = CARTESIAN_POINT('',(0.96991433326,1.037534080366));
#955 = CARTESIAN_POINT('',(1.007289499743,1.008169696192));
#956 = CARTESIAN_POINT('',(1.045679768037,0.980118207039));
#957 = CARTESIAN_POINT('',(1.187866432441,0.883586134001));
#958 = CARTESIAN_POINT('',(1.29716694637,0.822973884622));
#959 = CARTESIAN_POINT('',(1.411646174986,0.772187317939));
#960 = CARTESIAN_POINT('',(1.530031716611,0.731686426794));
#961 = CARTESIAN_POINT('',(1.777907269137,0.670447282594));
#962 = CARTESIAN_POINT('',(1.907653495815,0.650758617357));
#963 = CARTESIAN_POINT('',(2.038806509438,0.643088299226));
#964 = CARTESIAN_POINT('',(2.169836836809,0.647632809527));
#965 = CARTESIAN_POINT('',(2.364066871605,0.672716540024));
#966 = CARTESIAN_POINT('',(2.428539733001,0.684159734167));
#967 = CARTESIAN_POINT('',(2.492383312172,0.698657559817));
#968 = CARTESIAN_POINT('',(2.555395620059,0.716184932203));
#969 = CARTESIAN_POINT('',(2.729330943854,0.773754893582));
#970 = CARTESIAN_POINT('',(2.837916980775,0.820557160333));
#971 = CARTESIAN_POINT('',(2.941923226798,0.876842493935));
#972 = CARTESIAN_POINT('',(3.040160258599,0.942142316437));
#973 = CARTESIAN_POINT('',(3.131513611336,1.015728071767));
#974 = ( GEOMETRIC_REPRESENTATION_CONTEXT(2) 
PARAMETRIC_REPRESENTATION_CONTEXT() REPRESENTATION_CONTEXT('2D SPACE',''
  ) );
#975 = ORIENTED_EDGE('',*,*,#976,.F.);
#976 = EDGE_CURVE('',#161,#753,#977,.T.);
#977 = SURFACE_CURVE('',#978,(#983,#990),.PCURVE_S1.);
#978 = CIRCLE('',#979,8.);
#979 = AXIS2_PLACEMENT_3D('',#980,#981,#982);
#980 = CARTESIAN_POINT('',(0.,-1.184271928233,0.));
#981 = DIRECTION('',(0.,1.,0.));
#982 = DIRECTION('',(0.,-0.,1.));
#983 = PCURVE('',#177,#984);
#984 = DEFINITIONAL_REPRESENTATION('',(#985),#989);
#985 = LINE('',#986,#987);
#986 = CARTESIAN_POINT('',(0.,5.413623344968));
#987 = VECTOR('',#988,1.);
#988 = DIRECTION('',(1.,0.));
#989 = ( GEOMETRIC_REPRESENTATION_CONTEXT(2) 
PARAMETRIC_REPRESENTATION_CONTEXT() REPRESENTATION_CONTEXT('2D SPACE',''
  ) );
#990 = PCURVE('',#711,#991);
#991 = DEFINITIONAL_REPRESENTATION('',(#992),#996);
#992 = LINE('',#993,#994);
#993 = CARTESIAN_POINT('',(0.,0.815728071767));
#994 = VECTOR('',#995,1.);
#995 = DIRECTION('',(1.,0.));
#996 = ( GEOMETRIC_REPRESENTATION_CONTEXT(2) 
PARAMETRIC_REPRESENTATION_CONTEXT() REPRESENTATION_CONTEXT('2D SPACE',''
  ) );
#997 = ADVANCED_FACE('',(#998),#461,.T.);
#998 = FACE_BOUND('',#999,.T.);
#999 = EDGE_LOOP('',(#1000,#1023,#1042,#1043));
#1000 = ORIENTED_EDGE('',*,*,#1001,.F.);
#1001 = EDGE_CURVE('',#1002,#568,#1004,.T.);
#1002 = VERTEX_POINT('',#1003);
#1003 = CARTESIAN_POINT('',(4.5,-2.,2.4));
#1004 = SURFACE_CURVE('',#1005,(#1009,#1016),.PCURVE_S1.);
#1005 = LINE('',#1006,#1007);
#1006 = CARTESIAN_POINT('',(4.5,-2.2,2.4));
#1007 = VECTOR('',#1008,1.);
#1008 = DIRECTION('',(0.,1.,0.));
#1009 = PCURVE('',#461,#1010);
#1010 = DEFINITIONAL_REPRESENTATION('',(#1011),#1015);
#1011 = LINE('',#1012,#1013);
#1012 = CARTESIAN_POINT('',(4.8,0.));
#1013 = VECTOR('',#1014,1.);
#1014 = DIRECTION('',(0.,-1.));
#1015 = ( GEOMETRIC_REPRESENTATION_CONTEXT(2) 
PARAMETRIC_REPRESENTATION_CONTEXT() REPRESENTATION_CONTEXT('2D SPACE',''
  ) );
#1016 = PCURVE('',#582,#1017);
#1017 = DEFINITIONAL_REPRESENTATION('',(#1018),#1022);
#1018 = LINE('',#1019,#1020);
#1019 = CARTESIAN_POINT('',(0.,0.));
#1020 = VECTOR('',#1021,1.);
#1021 = DIRECTION('',(0.,1.));
#1022 = ( GEOMETRIC_REPRESENTATION_CONTEXT(2) 
PARAMETRIC_REPRESENTATION_CONTEXT() REPRESENTATION_CONTEXT('2D SPACE',''
  ) );
#1023 = ORIENTED_EDGE('',*,*,#1024,.T.);
#1024 = EDGE_CURVE('',#1002,#444,#1025,.T.);
#1025 = SURFACE_CURVE('',#1026,(#1030,#1036),.PCURVE_S1.);
#1026 = LINE('',#1027,#1028);
#1027 = CARTESIAN_POINT('',(4.5,-2.,-1.2));
#1028 = VECTOR('',#1029,1.);
#1029 = DIRECTION('',(0.,0.,-1.));
#1030 = PCURVE('',#461,#1031);
#1031 = DEFINITIONAL_REPRESENTATION('',(#1032),#1035);
#1032 = B_SPLINE_CURVE_WITH_KNOTS('',1,(#1033,#1034),.UNSPECIFIED.,.F.,
  .F.,(2,2),(-3.6,1.2),.PIECEWISE_BEZIER_KNOTS.);
#1033 = CARTESIAN_POINT('',(4.8,-0.2));
#1034 = CARTESIAN_POINT('',(0.,-0.2));
#1035 = ( GEOMETRIC_REPRESENTATION_CONTEXT(2) 
PARAMETRIC_REPRESENTATION_CONTEXT() REPRESENTATION_CONTEXT('2D SPACE',''
  ) );
#1036 = PCURVE('',#488,#1037);
#1037 = DEFINITIONAL_REPRESENTATION('',(#1038),#1041);
#1038 = B_SPLINE_CURVE_WITH_KNOTS('',1,(#1039,#1040),.UNSPECIFIED.,.F.,
  .F.,(2,2),(-3.6,1.2),.PIECEWISE_BEZIER_KNOTS.);
#1039 = CARTESIAN_POINT('',(2.4,4.5));
#1040 = CARTESIAN_POINT('',(-2.4,4.5));
#1041 = ( GEOMETRIC_REPRESENTATION_CONTEXT(2) 
PARAMETRIC_REPRESENTATION_CONTEXT() REPRESENTATION_CONTEXT('2D SPACE',''
  ) );
#1042 = ORIENTED_EDGE('',*,*,#443,.T.);
#1043 = ORIENTED_EDGE('',*,*,#593,.F.);
#1044 = ADVANCED_FACE('',(#1045,#1093),#488,.F.);
#1045 = FACE_BOUND('',#1046,.F.);
#1046 = EDGE_LOOP('',(#1047,#1048,#1072,#1091,#1092));
#1047 = ORIENTED_EDGE('',*,*,#725,.T.);
#1048 = ORIENTED_EDGE('',*,*,#1049,.T.);
#1049 = EDGE_CURVE('',#696,#1050,#1052,.T.);
#1050 = VERTEX_POINT('',#1051);
#1051 = CARTESIAN_POINT('',(7.631513611336,-2.,2.4));
#1052 = SURFACE_CURVE('',#1053,(#1058,#1065),.PCURVE_S1.);
#1053 = CIRCLE('',#1054,8.);
#1054 = AXIS2_PLACEMENT_3D('',#1055,#1056,#1057);
#1055 = CARTESIAN_POINT('',(0.,-2.,0.));
#1056 = DIRECTION('',(0.,1.,0.));
#1057 = DIRECTION('',(0.,-0.,1.));
#1058 = PCURVE('',#488,#1059);
#1059 = DEFINITIONAL_REPRESENTATION('',(#1060),#1064);
#1060 = CIRCLE('',#1061,8.);
#1061 = AXIS2_PLACEMENT_2D('',#1062,#1063);
#1062 = CARTESIAN_POINT('',(0.,0.));
#1063 = DIRECTION('',(1.,0.));
#1064 = ( GEOMETRIC_REPRESENTATION_CONTEXT(2) 
PARAMETRIC_REPRESENTATION_CONTEXT() REPRESENTATION_CONTEXT('2D SPACE',''
  ) );
#1065 = PCURVE('',#711,#1066);
#1066 = DEFINITIONAL_REPRESENTATION('',(#1067),#1071);
#1067 = LINE('',#1068,#1069);
#1068 = CARTESIAN_POINT('',(0.,0.));
#1069 = VECTOR('',#1070,1.);
#1070 = DIRECTION('',(1.,0.));
#1071 = ( GEOMETRIC_REPRESENTATION_CONTEXT(2) 
PARAMETRIC_REPRESENTATION_CONTEXT() REPRESENTATION_CONTEXT('2D SPACE',''
  ) );
#1072 = ORIENTED_EDGE('',*,*,#1073,.F.);
#1073 = EDGE_CURVE('',#1002,#1050,#1074,.T.);
#1074 = SURFACE_CURVE('',#1075,(#1079,#1085),.PCURVE_S1.);
#1075 = LINE('',#1076,#1077);
#1076 = CARTESIAN_POINT('',(2.25,-2.,2.4));
#1077 = VECTOR('',#1078,1.);
#1078 = DIRECTION('',(1.,0.,0.));
#1079 = PCURVE('',#488,#1080);
#1080 = DEFINITIONAL_REPRESENTATION('',(#1081),#1084);
#1081 = B_SPLINE_CURVE_WITH_KNOTS('',1,(#1082,#1083),.UNSPECIFIED.,.F.,
  .F.,(2,2),(2.25,5.75),.PIECEWISE_BEZIER_KNOTS.);
#1082 = CARTESIAN_POINT('',(2.4,4.5));
#1083 = CARTESIAN_POINT('',(2.4,8.));
#1084 = ( GEOMETRIC_REPRESENTATION_CONTEXT(2) 
PARAMETRIC_REPRESENTATION_CONTEXT() REPRESENTATION_CONTEXT('2D SPACE',''
  ) );
#1085 = PCURVE('',#582,#1086);
#1086 = DEFINITIONAL_REPRESENTATION('',(#1087),#1090);
#1087 = B_SPLINE_CURVE_WITH_KNOTS('',1,(#1088,#1089),.UNSPECIFIED.,.F.,
  .F.,(2,2),(2.25,5.75),.PIECEWISE_BEZIER_KNOTS.);
#1088 = CARTESIAN_POINT('',(0.,0.2));
#1089 = CARTESIAN_POINT('',(3.5,0.2));
#1090 = ( GEOMETRIC_REPRESENTATION_CONTEXT(2) 
PARAMETRIC_REPRESENTATION_CONTEXT() REPRESENTATION_CONTEXT('2D SPACE',''
  ) );
#1091 = ORIENTED_EDGE('',*,*,#1024,.T.);
#1092 = ORIENTED_EDGE('',*,*,#473,.T.);
#1093 = FACE_BOUND('',#1094,.F.);
#1094 = EDGE_LOOP('',(#1095));
#1095 = ORIENTED_EDGE('',*,*,#1096,.F.);
#1096 = EDGE_CURVE('',#1097,#1097,#1099,.T.);
#1097 = VERTEX_POINT('',#1098);
#1098 = CARTESIAN_POINT('',(-7.715274834628E-16,-2.,3.15));
#1099 = SURFACE_CURVE('',#1100,(#1105,#1112),.PCURVE_S1.);
#1100 = CIRCLE('',#1101,3.15);
#1101 = AXIS2_PLACEMENT_3D('',#1102,#1103,#1104);
#1102 = CARTESIAN_POINT('',(0.,-2.,0.));
#1103 = DIRECTION('',(0.,1.,0.));
#1104 = DIRECTION('',(0.,-0.,1.));
#1105 = PCURVE('',#488,#1106);
#1106 = DEFINITIONAL_REPRESENTATION('',(#1107),#1111);
#1107 = CIRCLE('',#1108,3.15);
#1108 = AXIS2_PLACEMENT_2D('',#1109,#1110);
#1109 = CARTESIAN_POINT('',(0.,0.));
#1110 = DIRECTION('',(1.,0.));
#1111 = ( GEOMETRIC_REPRESENTATION_CONTEXT(2) 
PARAMETRIC_REPRESENTATION_CONTEXT() REPRESENTATION_CONTEXT('2D SPACE',''
  ) );
#1112 = PCURVE('',#632,#1113);
#1113 = DEFINITIONAL_REPRESENTATION('',(#1114),#1118);
#1114 = LINE('',#1115,#1116);
#1115 = CARTESIAN_POINT('',(0.,0.3));
#1116 = VECTOR('',#1117,1.);
#1117 = DIRECTION('',(1.,0.));
#1118 = ( GEOMETRIC_REPRESENTATION_CONTEXT(2) 
PARAMETRIC_REPRESENTATION_CONTEXT() REPRESENTATION_CONTEXT('2D SPACE',''
  ) );
#1119 = ADVANCED_FACE('',(#1120),#582,.F.);
#1120 = FACE_BOUND('',#1121,.F.);
#1121 = EDGE_LOOP('',(#1122,#1123,#1124,#1143,#1144,#1145));
#1122 = ORIENTED_EDGE('',*,*,#1001,.F.);
#1123 = ORIENTED_EDGE('',*,*,#1073,.T.);
#1124 = ORIENTED_EDGE('',*,*,#1125,.T.);
#1125 = EDGE_CURVE('',#1050,#753,#1126,.T.);
#1126 = SURFACE_CURVE('',#1127,(#1131,#1137),.PCURVE_S1.);
#1127 = LINE('',#1128,#1129);
#1128 = CARTESIAN_POINT('',(7.631513611336,-2.,2.4));
#1129 = VECTOR('',#1130,1.);
#1130 = DIRECTION('',(0.,1.,0.));
#1131 = PCURVE('',#582,#1132);
#1132 = DEFINITIONAL_REPRESENTATION('',(#1133),#1136);
#1133 = B_SPLINE_CURVE_WITH_KNOTS('',1,(#1134,#1135),.UNSPECIFIED.,.F.,
  .F.,(2,2),(-5.999999999062E-07,0.815728671767),
  .PIECEWISE_BEZIER_KNOTS.);
#1134 = CARTESIAN_POINT('',(3.131513611336,0.1999994));
#1135 = CARTESIAN_POINT('',(3.131513611336,1.015728671767));
#1136 = ( GEOMETRIC_REPRESENTATION_CONTEXT(2) 
PARAMETRIC_REPRESENTATION_CONTEXT() REPRESENTATION_CONTEXT('2D SPACE',''
  ) );
#1137 = PCURVE('',#711,#1138);
#1138 = DEFINITIONAL_REPRESENTATION('',(#1139),#1142);
#1139 = B_SPLINE_CURVE_WITH_KNOTS('',1,(#1140,#1141),.UNSPECIFIED.,.F.,
  .F.,(2,2),(-5.999999999062E-07,0.815728671767),
  .PIECEWISE_BEZIER_KNOTS.);
#1140 = CARTESIAN_POINT('',(1.266103672779,-5.999999999062E-07));
#1141 = CARTESIAN_POINT('',(1.266103672779,0.815728671767));
#1142 = ( GEOMETRIC_REPRESENTATION_CONTEXT(2) 
PARAMETRIC_REPRESENTATION_CONTEXT() REPRESENTATION_CONTEXT('2D SPACE',''
  ) );
#1143 = ORIENTED_EDGE('',*,*,#752,.F.);
#1144 = ORIENTED_EDGE('',*,*,#672,.T.);
#1145 = ORIENTED_EDGE('',*,*,#567,.F.);
#1146 = ADVANCED_FACE('',(#1147),#632,.F.);
#1147 = FACE_BOUND('',#1148,.F.);
#1148 = EDGE_LOOP('',(#1149,#1150,#1171,#1172));
#1149 = ORIENTED_EDGE('',*,*,#615,.F.);
#1150 = ORIENTED_EDGE('',*,*,#1151,.F.);
#1151 = EDGE_CURVE('',#1097,#616,#1152,.T.);
#1152 = SEAM_CURVE('',#1153,(#1157,#1164),.PCURVE_S1.);
#1153 = LINE('',#1154,#1155);
#1154 = CARTESIAN_POINT('',(-7.715274834628E-16,-2.3,3.15));
#1155 = VECTOR('',#1156,1.);
#1156 = DIRECTION('',(0.,1.,0.));
#1157 = PCURVE('',#632,#1158);
#1158 = DEFINITIONAL_REPRESENTATION('',(#1159),#1163);
#1159 = LINE('',#1160,#1161);
#1160 = CARTESIAN_POINT('',(6.28318530718,-0.));
#1161 = VECTOR('',#1162,1.);
#1162 = DIRECTION('',(0.,1.));
#1163 = ( GEOMETRIC_REPRESENTATION_CONTEXT(2) 
PARAMETRIC_REPRESENTATION_CONTEXT() REPRESENTATION_CONTEXT('2D SPACE',''
  ) );
#1164 = PCURVE('',#632,#1165);
#1165 = DEFINITIONAL_REPRESENTATION('',(#1166),#1170);
#1166 = LINE('',#1167,#1168);
#1167 = CARTESIAN_POINT('',(0.,-0.));
#1168 = VECTOR('',#1169,1.);
#1169 = DIRECTION('',(0.,1.));
#1170 = ( GEOMETRIC_REPRESENTATION_CONTEXT(2) 
PARAMETRIC_REPRESENTATION_CONTEXT() REPRESENTATION_CONTEXT('2D SPACE',''
  ) );
#1171 = ORIENTED_EDGE('',*,*,#1096,.T.);
#1172 = ORIENTED_EDGE('',*,*,#1151,.T.);
#1173 = ADVANCED_FACE('',(#1174),#711,.T.);
#1174 = FACE_BOUND('',#1175,.T.);
#1175 = EDGE_LOOP('',(#1176,#1177,#1178,#1179));
#1176 = ORIENTED_EDGE('',*,*,#976,.F.);
#1177 = ORIENTED_EDGE('',*,*,#695,.F.);
#1178 = ORIENTED_EDGE('',*,*,#1049,.T.);
#1179 = ORIENTED_EDGE('',*,*,#1125,.T.);
#1180 = ( GEOMETRIC_REPRESENTATION_CONTEXT(3) 
GLOBAL_UNCERTAINTY_ASSIGNED_CONTEXT((#1184)) 
GLOBAL_UNIT_ASSIGNED_CONTEXT((#1181,#1182,#1183)) REPRESENTATION_CONTEXT
('Context #1','3D Context with UNIT and UNCERTAINTY') );
#1181 = ( LENGTH_UNIT() NAMED_UNIT(*) SI_UNIT(.MILLI.,.METRE.) );
#1182 = ( NAMED_UNIT(*) PLANE_ANGLE_UNIT() SI_UNIT($,.RADIAN.) );
#1183 = ( NAMED_UNIT(*) SI_UNIT($,.STERADIAN.) SOLID_ANGLE_UNIT() );
#1184 = UNCERTAINTY_MEASURE_WITH_UNIT(LENGTH_MEASURE(2.E-07),#1181,
  'distance_accuracy_value','confusion accuracy');
#1185 = CONTEXT_DEPENDENT_SHAPE_REPRESENTATION(#1186,#1188);
#1186 = ( REPRESENTATION_RELATIONSHIP('','',#32,#10) 
REPRESENTATION_RELATIONSHIP_WITH_TRANSFORMATION(#1187) 
SHAPE_REPRESENTATION_RELATIONSHIP() );
#1187 = ITEM_DEFINED_TRANSFORMATION('','',#11,#15);
#1188 = PRODUCT_DEFINITION_SHAPE('Placement','Placement of an item',
  #1189);
#1189 = NEXT_ASSEMBLY_USAGE_OCCURRENCE('34',
  'AMSTEEL_EYE-SPLICE_THIMBLE_SS_STOWED_LOCAL_DEFINITION','',#5,#27,$);
#1190 = PRODUCT_RELATED_PRODUCT_CATEGORY('part',$,(#29));
#1191 = MECHANICAL_DESIGN_GEOMETRIC_PRESENTATION_REPRESENTATION('',(
    #1192),#1180);
#1192 = STYLED_ITEM('color',(#1193),#33);
#1193 = PRESENTATION_STYLE_ASSIGNMENT((#1194));
#1194 = SURFACE_STYLE_USAGE(.BOTH.,#1195);
#1195 = SURFACE_SIDE_STYLE('',(#1196));
#1196 = SURFACE_STYLE_FILL_AREA(#1197);
#1197 = FILL_AREA_STYLE('',(#1198));
#1198 = FILL_AREA_STYLE_COLOUR('',#1199);
#1199 = COLOUR_RGB('',0.720000003324,0.750000000934,0.78000000177);
ENDSEC;
END-ISO-10303-21;
