ISO-10303-21;
HEADER;
FILE_DESCRIPTION(('Open CASCADE Model'),'2;1');
FILE_NAME('Open CASCADE Shape Model','2026-08-26T03:21:59',('Author'),(
    'Open CASCADE'),'Open CASCADE STEP processor 7.9','Open CASCADE 7.9'
  ,'Unknown');
FILE_SCHEMA((
'AP242_MANAGED_MODEL_BASED_3D_ENGINEERING_MIM_LF {1 0 10303 442 1 1 4 }'
    ));
ENDSEC;
DATA;
#1 = APPLICATION_PROTOCOL_DEFINITION('international standard',
  'ap242_managed_model_based_3d_engineering',2013,#2);
#2 = APPLICATION_CONTEXT('Managed model based 3d engineering');
#3 = SHAPE_DEFINITION_REPRESENTATION(#4,#10);
#4 = PRODUCT_DEFINITION_SHAPE('','',#5);
#5 = PRODUCT_DEFINITION('design','',#6,#9);
#6 = PRODUCT_DEFINITION_FORMATION('','',#7);
#7 = PRODUCT(
  'SHORTENED_AFT_GRADE-9_TITANIUM_SHELL_CLOSURE_SEGMENT_TI_STOWED_PART',
  'SHORTENED_AFT_GRADE-9_TITANIUM_SHELL_CLOSURE_SEGMENT_TI_STOWED_PART',
  '',(#8));
#8 = PRODUCT_CONTEXT('',#2,'mechanical');
#9 = PRODUCT_DEFINITION_CONTEXT('part definition',#2,'design');
#10 = SHAPE_REPRESENTATION('',(#11,#15),#19);
#11 = AXIS2_PLACEMENT_3D('',#12,#13,#14);
#12 = CARTESIAN_POINT('',(0.,0.,0.));
#13 = DIRECTION('',(0.,0.,1.));
#14 = DIRECTION('',(1.,0.,-0.));
#15 = AXIS2_PLACEMENT_3D('',#16,#17,#18);
#16 = CARTESIAN_POINT('',(0.,0.,0.));
#17 = DIRECTION('',(0.,0.,1.));
#18 = DIRECTION('',(1.,0.,-0.));
#19 = ( GEOMETRIC_REPRESENTATION_CONTEXT(3) 
GLOBAL_UNCERTAINTY_ASSIGNED_CONTEXT((#23)) GLOBAL_UNIT_ASSIGNED_CONTEXT(
(#20,#21,#22)) REPRESENTATION_CONTEXT('Context #1',
  '3D Context with UNIT and UNCERTAINTY') );
#20 = ( LENGTH_UNIT() NAMED_UNIT(*) SI_UNIT(.MILLI.,.METRE.) );
#21 = ( NAMED_UNIT(*) PLANE_ANGLE_UNIT() SI_UNIT($,.RADIAN.) );
#22 = ( NAMED_UNIT(*) SI_UNIT($,.STERADIAN.) SOLID_ANGLE_UNIT() );
#23 = UNCERTAINTY_MEASURE_WITH_UNIT(LENGTH_MEASURE(2.E-07),#20,
  'distance_accuracy_value','confusion accuracy');
#24 = PRODUCT_RELATED_PRODUCT_CATEGORY('part',$,(#7));
#25 = SHAPE_DEFINITION_REPRESENTATION(#26,#32);
#26 = PRODUCT_DEFINITION_SHAPE('','',#27);
#27 = PRODUCT_DEFINITION('design','',#28,#31);
#28 = PRODUCT_DEFINITION_FORMATION('','',#29);
#29 = PRODUCT(
'SHORTENED_AFT_GRADE-9_TITANIUM_SHELL_CLOSURE_SEGMENT_TI_STOWED_LOCAL_
DEFINITION',
'SHORTENED_AFT_GRADE-9_TITANIUM_SHELL_CLOSURE_SEGMENT_TI_STOWED_LOCAL_
DEFINITION','',(#30));
#30 = PRODUCT_CONTEXT('',#2,'mechanical');
#31 = PRODUCT_DEFINITION_CONTEXT('part definition',#2,'design');
#32 = ADVANCED_BREP_SHAPE_REPRESENTATION('',(#11,#33),#975);
#33 = MANIFOLD_SOLID_BREP('',#34);
#34 = CLOSED_SHELL('',(#35,#468,#888,#916,#946));
#35 = ADVANCED_FACE('',(#36),#50,.T.);
#36 = FACE_BOUND('',#37,.T.);
#37 = EDGE_LOOP('',(#38,#68,#95,#96,#271,#300));
#38 = ORIENTED_EDGE('',*,*,#39,.T.);
#39 = EDGE_CURVE('',#40,#42,#44,.T.);
#40 = VERTEX_POINT('',#41);
#41 = CARTESIAN_POINT('',(26.5,-2.143131898508E-15,14.));
#42 = VERTEX_POINT('',#43);
#43 = CARTESIAN_POINT('',(26.5,-6.490628035481E-15,46.4));
#44 = SEAM_CURVE('',#45,(#49,#61),.PCURVE_S1.);
#45 = LINE('',#46,#47);
#46 = CARTESIAN_POINT('',(26.5,-6.490628035481E-15,0.));
#47 = VECTOR('',#48,1.);
#48 = DIRECTION('',(0.,0.,1.));
#49 = PCURVE('',#50,#55);
#50 = CYLINDRICAL_SURFACE('',#51,26.5);
#51 = AXIS2_PLACEMENT_3D('',#52,#53,#54);
#52 = CARTESIAN_POINT('',(0.,0.,0.));
#53 = DIRECTION('',(0.,0.,1.));
#54 = DIRECTION('',(1.,0.,-0.));
#55 = DEFINITIONAL_REPRESENTATION('',(#56),#60);
#56 = LINE('',#57,#58);
#57 = CARTESIAN_POINT('',(6.28318530718,-0.));
#58 = VECTOR('',#59,1.);
#59 = DIRECTION('',(0.,1.));
#60 = ( GEOMETRIC_REPRESENTATION_CONTEXT(2) 
PARAMETRIC_REPRESENTATION_CONTEXT() REPRESENTATION_CONTEXT('2D SPACE',''
  ) );
#61 = PCURVE('',#50,#62);
#62 = DEFINITIONAL_REPRESENTATION('',(#63),#67);
#63 = LINE('',#64,#65);
#64 = CARTESIAN_POINT('',(0.,-0.));
#65 = VECTOR('',#66,1.);
#66 = DIRECTION('',(0.,1.));
#67 = ( GEOMETRIC_REPRESENTATION_CONTEXT(2) 
PARAMETRIC_REPRESENTATION_CONTEXT() REPRESENTATION_CONTEXT('2D SPACE',''
  ) );
#68 = ORIENTED_EDGE('',*,*,#69,.F.);
#69 = EDGE_CURVE('',#42,#42,#70,.T.);
#70 = SURFACE_CURVE('',#71,(#76,#83),.PCURVE_S1.);
#71 = CIRCLE('',#72,26.5);
#72 = AXIS2_PLACEMENT_3D('',#73,#74,#75);
#73 = CARTESIAN_POINT('',(0.,0.,46.4));
#74 = DIRECTION('',(0.,0.,1.));
#75 = DIRECTION('',(1.,0.,-0.));
#76 = PCURVE('',#50,#77);
#77 = DEFINITIONAL_REPRESENTATION('',(#78),#82);
#78 = LINE('',#79,#80);
#79 = CARTESIAN_POINT('',(0.,46.4));
#80 = VECTOR('',#81,1.);
#81 = DIRECTION('',(1.,0.));
#82 = ( GEOMETRIC_REPRESENTATION_CONTEXT(2) 
PARAMETRIC_REPRESENTATION_CONTEXT() REPRESENTATION_CONTEXT('2D SPACE',''
  ) );
#83 = PCURVE('',#84,#89);
#84 = PLANE('',#85);
#85 = AXIS2_PLACEMENT_3D('',#86,#87,#88);
#86 = CARTESIAN_POINT('',(0.,0.,46.4));
#87 = DIRECTION('',(0.,0.,1.));
#88 = DIRECTION('',(1.,0.,-0.));
#89 = DEFINITIONAL_REPRESENTATION('',(#90),#94);
#90 = CIRCLE('',#91,26.5);
#91 = AXIS2_PLACEMENT_2D('',#92,#93);
#92 = CARTESIAN_POINT('',(0.,0.));
#93 = DIRECTION('',(1.,0.));
#94 = ( GEOMETRIC_REPRESENTATION_CONTEXT(2) 
PARAMETRIC_REPRESENTATION_CONTEXT() REPRESENTATION_CONTEXT('2D SPACE',''
  ) );
#95 = ORIENTED_EDGE('',*,*,#39,.F.);
#96 = ORIENTED_EDGE('',*,*,#97,.F.);
#97 = EDGE_CURVE('',#98,#40,#100,.T.);
#98 = VERTEX_POINT('',#99);
#99 = CARTESIAN_POINT('',(25.421447637772,7.483314773548,0.));
#100 = SURFACE_CURVE('',#101,(#154,#210),.PCURVE_S1.);
#101 = B_SPLINE_CURVE_WITH_KNOTS('',6,(#102,#103,#104,#105,#106,#107,
    #108,#109,#110,#111,#112,#113,#114,#115,#116,#117,#118,#119,#120,
    #121,#122,#123,#124,#125,#126,#127,#128,#129,#130,#131,#132,#133,
    #134,#135,#136,#137,#138,#139,#140,#141,#142,#143,#144,#145,#146,
    #147,#148,#149,#150,#151,#152,#153),.UNSPECIFIED.,.F.,.F.,(7,5,5,5,5
    ,5,5,5,5,5,7),(0.,6.39122327995E-02,0.117861368722,0.295888897055,
    0.506478582792,0.56451275374,0.634517363335,0.715667073181,
    0.811299509305,0.883228917031,1.),.UNSPECIFIED.);
#102 = CARTESIAN_POINT('',(25.421447755783,7.483314372656,
    -5.999999981768E-07));
#103 = CARTESIAN_POINT('',(25.388866729165,7.593994857901,0.165650753324
    ));
#104 = CARTESIAN_POINT('',(25.357158950595,7.699574560429,0.333193593546
    ));
#105 = CARTESIAN_POINT('',(25.326411837654,7.800112094727,0.502489881213
    ));
#106 = CARTESIAN_POINT('',(25.296705540459,7.895661793787,0.673412543687
    ));
#107 = CARTESIAN_POINT('',(25.268112941669,7.986273709109,0.84584547515)
  );
#108 = CARTESIAN_POINT('',(25.217559750651,8.144350879718,1.166422475216
    ));
#109 = CARTESIAN_POINT('',(25.195260706307,8.213220982264,1.314159372863
    ));
#110 = CARTESIAN_POINT('',(25.173842587709,8.278629854686,1.462827815951
    ));
#111 = CARTESIAN_POINT('',(25.153342372697,8.340600705132,1.612363591886
    ));
#112 = CARTESIAN_POINT('',(25.1337939527,8.399154013558,1.762704689071)
  );
#113 = CARTESIAN_POINT('',(25.053962516808,8.636309418312,2.412364163684
    ));
#114 = CARTESIAN_POINT('',(25.003382842371,8.781333047361,2.919171009385
    ));
#115 = CARTESIAN_POINT('',(24.964624753328,8.889930862805,3.431901777719
    ));
#116 = CARTESIAN_POINT('',(24.938434565412,8.962482123715,3.948520309415
    ));
#117 = CARTESIAN_POINT('',(24.925185040517,8.999175042457,4.467136671667
    ));
#118 = CARTESIAN_POINT('',(24.924543529449,9.000951666149,5.599503052448
    ));
#119 = CARTESIAN_POINT('',(24.942324170717,8.951709197565,6.212954638786
    ));
#120 = CARTESIAN_POINT('',(24.978216301347,8.852335143652,6.823200342427
    ));
#121 = CARTESIAN_POINT('',(25.031509169845,8.702451849628,7.427172655714
    ));
#122 = CARTESIAN_POINT('',(25.100778907014,8.501298307909,8.021461853715
    ));
#123 = CARTESIAN_POINT('',(25.206694642005,8.177894014468,8.761984338393
    ));
#124 = CARTESIAN_POINT('',(25.230624771245,8.104038877026,8.920942256524
    ));
#125 = CARTESIAN_POINT('',(25.255557938301,8.026169922298,9.078795513572
    ));
#126 = CARTESIAN_POINT('',(25.281445031817,7.944255434724,9.235461665511
    ));
#127 = CARTESIAN_POINT('',(25.308232619779,7.858259736767,9.39085407078)
  );
#128 = CARTESIAN_POINT('',(25.369192458916,7.659438719665,9.730680312056
    ));
#129 = CARTESIAN_POINT('',(25.403746830556,7.544741767693,9.91448643035)
  );
#130 = CARTESIAN_POINT('',(25.439426391494,7.42397812452,10.096148459696
    ));
#131 = CARTESIAN_POINT('',(25.476119723349,7.297068130767,
    10.275494335332));
#132 = CARTESIAN_POINT('',(25.5137036623,7.163926676161,10.4523317132));
#133 = CARTESIAN_POINT('',(25.596486806724,6.862796407459,
    10.828284446089));
#134 = CARTESIAN_POINT('',(25.641945368904,6.692634992137,
    11.026463658524));
#135 = CARTESIAN_POINT('',(25.688211558424,6.513824695219,
    11.220669070215));
#136 = CARTESIAN_POINT('',(25.735051792859,6.326210716226,
    11.410529522016));
#137 = CARTESIAN_POINT('',(25.782204657859,6.129637534503,
    11.595619270143));
#138 = CARTESIAN_POINT('',(25.884973012705,5.681550805421,
    11.987392461113));
#139 = CARTESIAN_POINT('',(25.940609810363,5.426436857619,12.19208389305
    ));
#140 = CARTESIAN_POINT('',(25.99579584983,5.158417492902,12.388667607186
    ));
#141 = CARTESIAN_POINT('',(26.049972322697,4.877354402041,
    12.576166907902));
#142 = CARTESIAN_POINT('',(26.102521270415,4.583162026038,
    12.753491404981));
#143 = CARTESIAN_POINT('',(26.190566877795,4.044635508648,13.04424908665
    ));
#144 = CARTESIAN_POINT('',(26.227066245177,3.805989765087,
    13.162638833603));
#145 = CARTESIAN_POINT('',(26.261949123635,3.560066008034,
    13.273973893832));
#146 = CARTESIAN_POINT('',(26.294889436192,3.307097260601,
    13.377635378386));
#147 = CARTESIAN_POINT('',(26.325563170059,3.047355723802,
    13.473014122053));
#148 = CARTESIAN_POINT('',(26.399262429236,2.34899609945,13.699924919059
    ));
#149 = CARTESIAN_POINT('',(26.438166236985,1.898871249244,
    13.817232533938));
#150 = CARTESIAN_POINT('',(26.468690266707,1.434604876872,
    13.907810950015));
#151 = CARTESIAN_POINT('',(26.489535952781,0.960406947577,
    13.969188998429));
#152 = CARTESIAN_POINT('',(26.5,0.480709726442,14.));
#153 = CARTESIAN_POINT('',(26.5,1.102182119233E-15,14.));
#154 = PCURVE('',#50,#155);
#155 = DEFINITIONAL_REPRESENTATION('',(#156),#209);
#156 = B_SPLINE_CURVE_WITH_KNOTS('',6,(#157,#158,#159,#160,#161,#162,
    #163,#164,#165,#166,#167,#168,#169,#170,#171,#172,#173,#174,#175,
    #176,#177,#178,#179,#180,#181,#182,#183,#184,#185,#186,#187,#188,
    #189,#190,#191,#192,#193,#194,#195,#196,#197,#198,#199,#200,#201,
    #202,#203,#204,#205,#206,#207,#208),.UNSPECIFIED.,.F.,.F.,(7,5,5,5,5
    ,5,5,5,5,5,7),(0.,6.39122327995E-02,0.117861368722,0.295888897055,
    0.506478582792,0.56451275374,0.634517363335,0.715667073181,
    0.811299509305,0.883228917031,1.),.UNSPECIFIED.);
#157 = CARTESIAN_POINT('',(0.286283788238,-6.E-07));
#158 = CARTESIAN_POINT('',(0.29063761129,0.165650753324));
#159 = CARTESIAN_POINT('',(0.294797483983,0.333193593546));
#160 = CARTESIAN_POINT('',(0.298764734642,0.502489881213));
#161 = CARTESIAN_POINT('',(0.302540565989,0.673412543687));
#162 = CARTESIAN_POINT('',(0.306126055141,0.84584547515));
#163 = CARTESIAN_POINT('',(0.312388843921,1.166422475216));
#164 = CARTESIAN_POINT('',(0.315120532168,1.314159372863));
#165 = CARTESIAN_POINT('',(0.317717729195,1.462827815951));
#166 = CARTESIAN_POINT('',(0.320180868903,1.612363591886));
#167 = CARTESIAN_POINT('',(0.322510308248,1.762704689071));
#168 = CARTESIAN_POINT('',(0.33195300188,2.412364163684));
#169 = CARTESIAN_POINT('',(0.337748567706,2.919171009385));
#170 = CARTESIAN_POINT('',(0.342099668937,3.431901777719));
#171 = CARTESIAN_POINT('',(0.345010448019,3.948520309415));
#172 = CARTESIAN_POINT('',(0.346482565285,4.467136671667));
#173 = CARTESIAN_POINT('',(0.34655384438,5.599503052448));
#174 = CARTESIAN_POINT('',(0.344578209827,6.212954638786));
#175 = CARTESIAN_POINT('',(0.340591148842,6.823200342427));
#176 = CARTESIAN_POINT('',(0.334588349219,7.427172655714));
#177 = CARTESIAN_POINT('',(0.326561102398,8.021461853715));
#178 = CARTESIAN_POINT('',(0.313719349566,8.761984338393));
#179 = CARTESIAN_POINT('',(0.310789730172,8.920942256524));
#180 = CARTESIAN_POINT('',(0.307704353476,9.078795513572));
#181 = CARTESIAN_POINT('',(0.304462595695,9.235461665511));
#182 = CARTESIAN_POINT('',(0.301063711624,9.39085407078));
#183 = CARTESIAN_POINT('',(0.29321629717,9.730680312056));
#184 = CARTESIAN_POINT('',(0.288696006576,9.91448643035));
#185 = CARTESIAN_POINT('',(0.283944264904,10.096148459696));
#186 = CARTESIAN_POINT('',(0.278959200803,10.275494335332));
#187 = CARTESIAN_POINT('',(0.273738769525,10.4523317132));
#188 = CARTESIAN_POINT('',(0.261953791502,10.828284446089));
#189 = CARTESIAN_POINT('',(0.255307592197,11.026463658524));
#190 = CARTESIAN_POINT('',(0.248338158495,11.220669070215));
#191 = CARTESIAN_POINT('',(0.241041513465,11.410529522016));
#192 = CARTESIAN_POINT('',(0.233413610564,11.595619270143));
#193 = CARTESIAN_POINT('',(0.216065662513,11.987392461113));
#194 = CARTESIAN_POINT('',(0.206213011555,12.19208389305));
#195 = CARTESIAN_POINT('',(0.195888000879,12.388667607186));
#196 = CARTESIAN_POINT('',(0.185088032287,12.576166907902));
#197 = CARTESIAN_POINT('',(0.173811940322,12.753491404981));
#198 = CARTESIAN_POINT('',(0.153220374414,13.04424908665));
#199 = CARTESIAN_POINT('',(0.144110637816,13.162638833603));
#200 = CARTESIAN_POINT('',(0.134738460245,13.273973893832));
#201 = CARTESIAN_POINT('',(0.125112873836,13.377635378386));
#202 = CARTESIAN_POINT('',(0.115243957073,13.473014122053));
#203 = CARTESIAN_POINT('',(8.874442234084E-02,13.699924919059));
#204 = CARTESIAN_POINT('',(7.16983057803E-02,13.817232533938));
#205 = CARTESIAN_POINT('',(5.414676335822E-02,13.907810950015));
#206 = CARTESIAN_POINT('',(3.624177516176E-02,13.969188998429));
#207 = CARTESIAN_POINT('',(1.813998967704E-02,14.));
#208 = CARTESIAN_POINT('',(0.,14.));
#209 = ( GEOMETRIC_REPRESENTATION_CONTEXT(2) 
PARAMETRIC_REPRESENTATION_CONTEXT() REPRESENTATION_CONTEXT('2D SPACE',''
  ) );
#210 = PCURVE('',#211,#216);
#211 = CYLINDRICAL_SURFACE('',#212,9.);
#212 = AXIS2_PLACEMENT_3D('',#213,#214,#215);
#213 = CARTESIAN_POINT('',(15.,0.,5.));
#214 = DIRECTION('',(1.,0.,0.));
#215 = DIRECTION('',(-0.,0.,1.));
#216 = DEFINITIONAL_REPRESENTATION('',(#217),#270);
#217 = B_SPLINE_CURVE_WITH_KNOTS('',6,(#218,#219,#220,#221,#222,#223,
    #224,#225,#226,#227,#228,#229,#230,#231,#232,#233,#234,#235,#236,
    #237,#238,#239,#240,#241,#242,#243,#244,#245,#246,#247,#248,#249,
    #250,#251,#252,#253,#254,#255,#256,#257,#258,#259,#260,#261,#262,
    #263,#264,#265,#266,#267,#268,#269),.UNSPECIFIED.,.F.,.F.,(7,5,5,5,5
    ,5,5,5,5,5,7),(3.858237796324E-08,6.39122327995E-02,0.117861368722,
    0.295888897055,0.506478582792,0.56451275374,0.634517363335,
    0.715667073181,0.811299509305,0.883228917031,1.),.UNSPECIFIED.);
#218 = CARTESIAN_POINT('',(4.123358010168,10.421447637772));
#219 = CARTESIAN_POINT('',(4.145494090775,10.388866633458));
#220 = CARTESIAN_POINT('',(4.167490110198,10.35715887635));
#221 = CARTESIAN_POINT('',(4.189356295436,10.326411783855));
#222 = CARTESIAN_POINT('',(4.211102662854,10.296705505937));
#223 = CARTESIAN_POINT('',(4.232739018177,10.26811292512));
#224 = CARTESIAN_POINT('',(4.272453729385,10.217559750651));
#225 = CARTESIAN_POINT('',(4.290560611697,10.195260706307));
#226 = CARTESIAN_POINT('',(4.308601021555,10.173842587709));
#227 = CARTESIAN_POINT('',(4.32658012315,10.153342372697));
#228 = CARTESIAN_POINT('',(4.34450282674,10.1337939527));
#229 = CARTESIAN_POINT('',(4.421346432461,10.053962516808));
#230 = CARTESIAN_POINT('',(4.479769656466,10.003382842371));
#231 = CARTESIAN_POINT('',(4.537792118714,9.964624753328));
#232 = CARTESIAN_POINT('',(4.595551568894,9.938434565412));
#233 = CARTESIAN_POINT('',(4.653181872319,9.925185040517));
#234 = CARTESIAN_POINT('',(4.779000513929,9.924543529449));
#235 = CARTESIAN_POINT('',(4.847153194757,9.942324170717));
#236 = CARTESIAN_POINT('',(4.915511086161,9.978216301347));
#237 = CARTESIAN_POINT('',(4.98430274347,10.031509169845));
#238 = CARTESIAN_POINT('',(5.053760958569,10.100778907014));
#239 = CARTESIAN_POINT('',(5.143545604025,10.206694642005));
#240 = CARTESIAN_POINT('',(5.163015675595,10.230624771245));
#241 = CARTESIAN_POINT('',(5.182564837316,10.255557938301));
#242 = CARTESIAN_POINT('',(5.202199787148,10.281445031817));
#243 = CARTESIAN_POINT('',(5.22192760271,10.308232619779));
#244 = CARTESIAN_POINT('',(5.265673737791,10.369192458916));
#245 = CARTESIAN_POINT('',(5.28973700144,10.403746830556));
#246 = CARTESIAN_POINT('',(5.313959474257,10.439426391494));
#247 = CARTESIAN_POINT('',(5.338355435661,10.476119723349));
#248 = CARTESIAN_POINT('',(5.362939502446,10.5137036623));
#249 = CARTESIAN_POINT('',(5.416459995359,10.596486806724));
#250 = CARTESIAN_POINT('',(5.445466246469,10.641945368904));
#251 = CARTESIAN_POINT('',(5.474771380406,10.688211558424));
#252 = CARTESIAN_POINT('',(5.504400662159,10.735051792859));
#253 = CARTESIAN_POINT('',(5.534380119307,10.782204657859));
#254 = CARTESIAN_POINT('',(5.600513910929,10.884973012705));
#255 = CARTESIAN_POINT('',(5.636823701061,10.940609810363));
#256 = CARTESIAN_POINT('',(5.673702567184,10.99579584983));
#257 = CARTESIAN_POINT('',(5.711185140096,11.049972322697));
#258 = CARTESIAN_POINT('',(5.749309157117,11.102521270415));
#259 = CARTESIAN_POINT('',(5.817309777973,11.190566877795));
#260 = CARTESIAN_POINT('',(5.846891890107,11.227066245177));
#261 = CARTESIAN_POINT('',(5.876857969588,11.261949123635));
#262 = CARTESIAN_POINT('',(5.907203291971,11.294889436192));
#263 = CARTESIAN_POINT('',(5.937925801676,11.325563170059));
#264 = CARTESIAN_POINT('',(6.019514553225,11.399262429236));
#265 = CARTESIAN_POINT('',(6.071108349191,11.438166236985));
#266 = CARTESIAN_POINT('',(6.12351045974,11.468690266707));
#267 = CARTESIAN_POINT('',(6.176473429833,11.489535952781));
#268 = CARTESIAN_POINT('',(6.229773115353,11.5));
#269 = CARTESIAN_POINT('',(6.28318530718,11.5));
#270 = ( GEOMETRIC_REPRESENTATION_CONTEXT(2) 
PARAMETRIC_REPRESENTATION_CONTEXT() REPRESENTATION_CONTEXT('2D SPACE',''
  ) );
#271 = ORIENTED_EDGE('',*,*,#272,.T.);
#272 = EDGE_CURVE('',#98,#273,#275,.T.);
#273 = VERTEX_POINT('',#274);
#274 = CARTESIAN_POINT('',(25.421447637772,-7.483314773548,0.));
#275 = SURFACE_CURVE('',#276,(#281,#288),.PCURVE_S1.);
#276 = CIRCLE('',#277,26.5);
#277 = AXIS2_PLACEMENT_3D('',#278,#279,#280);
#278 = CARTESIAN_POINT('',(0.,0.,0.));
#279 = DIRECTION('',(0.,0.,1.));
#280 = DIRECTION('',(1.,0.,-0.));
#281 = PCURVE('',#50,#282);
#282 = DEFINITIONAL_REPRESENTATION('',(#283),#287);
#283 = LINE('',#284,#285);
#284 = CARTESIAN_POINT('',(0.,0.));
#285 = VECTOR('',#286,1.);
#286 = DIRECTION('',(1.,0.));
#287 = ( GEOMETRIC_REPRESENTATION_CONTEXT(2) 
PARAMETRIC_REPRESENTATION_CONTEXT() REPRESENTATION_CONTEXT('2D SPACE',''
  ) );
#288 = PCURVE('',#289,#294);
#289 = PLANE('',#290);
#290 = AXIS2_PLACEMENT_3D('',#291,#292,#293);
#291 = CARTESIAN_POINT('',(0.,0.,0.));
#292 = DIRECTION('',(0.,0.,1.));
#293 = DIRECTION('',(1.,0.,-0.));
#294 = DEFINITIONAL_REPRESENTATION('',(#295),#299);
#295 = CIRCLE('',#296,26.5);
#296 = AXIS2_PLACEMENT_2D('',#297,#298);
#297 = CARTESIAN_POINT('',(0.,0.));
#298 = DIRECTION('',(1.,0.));
#299 = ( GEOMETRIC_REPRESENTATION_CONTEXT(2) 
PARAMETRIC_REPRESENTATION_CONTEXT() REPRESENTATION_CONTEXT('2D SPACE',''
  ) );
#300 = ORIENTED_EDGE('',*,*,#301,.F.);
#301 = EDGE_CURVE('',#40,#273,#302,.T.);
#302 = SURFACE_CURVE('',#303,(#356,#412),.PCURVE_S1.);
#303 = B_SPLINE_CURVE_WITH_KNOTS('',6,(#304,#305,#306,#307,#308,#309,
    #310,#311,#312,#313,#314,#315,#316,#317,#318,#319,#320,#321,#322,
    #323,#324,#325,#326,#327,#328,#329,#330,#331,#332,#333,#334,#335,
    #336,#337,#338,#339,#340,#341,#342,#343,#344,#345,#346,#347,#348,
    #349,#350,#351,#352,#353,#354,#355),.UNSPECIFIED.,.F.,.F.,(7,5,5,5,5
    ,5,5,5,5,5,7),(0.,0.115369308489,0.187723231075,0.282633940233,
    0.362422914462,0.430856074549,0.491449122021,0.704309864046,
    0.881643027012,0.935381618925,1.),.UNSPECIFIED.);
#304 = CARTESIAN_POINT('',(26.5,-1.7763568394E-15,14.));
#305 = CARTESIAN_POINT('',(26.5,-0.474885558213,14.));
#306 = CARTESIAN_POINT('',(26.489787974472,-0.948812405521,
    13.969931077618));
#307 = CARTESIAN_POINT('',(26.469441012963,-1.41743550695,
    13.910021425905));
#308 = CARTESIAN_POINT('',(26.439630298434,-1.876462131498,
    13.821576799918));
#309 = CARTESIAN_POINT('',(26.401597154306,-2.321810578635,
    13.706962454763));
#310 = CARTESIAN_POINT('',(26.328949209097,-3.018153588865,
    13.483525147597));
#311 = CARTESIAN_POINT('',(26.298310695676,-3.280051202406,
    13.38836408972));
#312 = CARTESIAN_POINT('',(26.265353504692,-3.53512751539,
    13.284772680974));
#313 = CARTESIAN_POINT('',(26.230407925447,-3.783094942183,
    13.173372368166));
#314 = CARTESIAN_POINT('',(26.193807226577,-4.023706395269,
    13.054796667731));
#315 = CARTESIAN_POINT('',(26.106127748942,-4.562458058379,
    12.765588276009));
#316 = CARTESIAN_POINT('',(26.054083344328,-4.85520465568,
    12.590221067738));
#317 = CARTESIAN_POINT('',(26.000404450219,-5.13501898778,
    12.404775101426));
#318 = CARTESIAN_POINT('',(25.945697936701,-5.401979059112,
    12.210322385992));
#319 = CARTESIAN_POINT('',(25.890513521725,-5.656215112371,
    12.00782525344));
#320 = CARTESIAN_POINT('',(25.788953064214,-6.101092978112,
    11.621859462714));
#321 = CARTESIAN_POINT('',(25.742565395848,-6.295453156168,
    11.440464640795));
#322 = CARTESIAN_POINT('',(25.696453282793,-6.481136626761,
    11.254414083362));
#323 = CARTESIAN_POINT('',(25.650867449967,-6.65829109132,
    11.064116814637));
#324 = CARTESIAN_POINT('',(25.606032401274,-6.827064026416,
    10.869930351911));
#325 = CARTESIAN_POINT('',(25.524509226779,-7.125293261157,
    10.502538176643));
#326 = CARTESIAN_POINT('',(25.487570015493,-7.25692632002,
    10.330280120323));
#327 = CARTESIAN_POINT('',(25.451457859142,-7.382587528035,
    10.155587681481));
#328 = CARTESIAN_POINT('',(25.41628945728,-7.502357532633,9.978643085312
    ));
#329 = CARTESIAN_POINT('',(25.382170642815,-7.616312111392,
    9.799609598739));
#330 = CARTESIAN_POINT('',(25.319999849982,-7.820335040144,
    9.458387393337));
#331 = CARTESIAN_POINT('',(25.291701654028,-7.911641588529,
    9.296623547935));
#332 = CARTESIAN_POINT('',(25.264368764539,-7.9984880648,9.133444825805)
  );
#333 = CARTESIAN_POINT('',(25.238062983531,-8.080915981772,
    8.968950891669));
#334 = CARTESIAN_POINT('',(25.212840944647,-8.158962117476,
    8.803236243366));
#335 = CARTESIAN_POINT('',(25.104138121076,-8.491550756892,
    8.050267355317));
#336 = CARTESIAN_POINT('',(25.033496059998,-8.696874924271,
    7.449935992485));
#337 = CARTESIAN_POINT('',(24.979136979185,-8.849792674258,
    6.839616479809));
#338 = CARTESIAN_POINT('',(24.94254435925,-8.951099283969,6.22283360828)
  );
#339 = CARTESIAN_POINT('',(24.924457820626,-9.001189032124,
    5.602751430551));
#340 = CARTESIAN_POINT('',(24.92525610415,-8.998978235538,4.465771818907
    ));
#341 = CARTESIAN_POINT('',(24.938474083033,-8.962372579974,
    3.949176791731));
#342 = CARTESIAN_POINT('',(24.964531320493,-8.890185708134,
    3.434564987445));
#343 = CARTESIAN_POINT('',(25.003059531384,-8.782231815277,
    2.923804984739));
#344 = CARTESIAN_POINT('',(25.053322642177,-8.63813707893,2.418909028374
    ));
#345 = CARTESIAN_POINT('',(25.132649901228,-8.402574038846,
    1.771624056878));
#346 = CARTESIAN_POINT('',(25.152074548065,-8.34441815904,1.621827461635
    ));
#347 = CARTESIAN_POINT('',(25.172444941845,-8.282872017008,
    1.472827468188));
#348 = CARTESIAN_POINT('',(25.193727679937,-8.217915453432,
    1.324685307336));
#349 = CARTESIAN_POINT('',(25.215886322641,-8.149525627886,
    1.177464362154));
#350 = CARTESIAN_POINT('',(25.266531991738,-7.991282109055,
    0.855389742174));
#351 = CARTESIAN_POINT('',(25.295391145301,-7.899888310809,0.68098084207
    ));
#352 = CARTESIAN_POINT('',(25.325391266883,-7.803448489549,
    0.508111834713));
#353 = CARTESIAN_POINT('',(25.356457181889,-7.701911032758,
    0.336902524506));
#354 = CARTESIAN_POINT('',(25.388506128121,-7.595219849947,
    0.167484153221));
#355 = CARTESIAN_POINT('',(25.421447755783,-7.483314372656,
    -5.999999986208E-07));
#356 = PCURVE('',#50,#357);
#357 = DEFINITIONAL_REPRESENTATION('',(#358),#411);
#358 = B_SPLINE_CURVE_WITH_KNOTS('',6,(#359,#360,#361,#362,#363,#364,
    #365,#366,#367,#368,#369,#370,#371,#372,#373,#374,#375,#376,#377,
    #378,#379,#380,#381,#382,#383,#384,#385,#386,#387,#388,#389,#390,
    #391,#392,#393,#394,#395,#396,#397,#398,#399,#400,#401,#402,#403,
    #404,#405,#406,#407,#408,#409,#410),.UNSPECIFIED.,.F.,.F.,(7,5,5,5,5
    ,5,5,5,5,5,7),(0.,0.115369308489,0.187723231075,0.282633940233,
    0.362422914462,0.430856074549,0.491449122021,0.704309864046,
    0.881643027012,0.935381618925,1.),.UNSPECIFIED.);
#359 = CARTESIAN_POINT('',(6.28318530718,14.));
#360 = CARTESIAN_POINT('',(6.265265097436,14.));
#361 = CARTESIAN_POINT('',(6.24738106216,13.969931077618));
#362 = CARTESIAN_POINT('',(6.229686829389,13.910021425905));
#363 = CARTESIAN_POINT('',(6.212334157094,13.821576799918));
#364 = CARTESIAN_POINT('',(6.195470346396,13.706962454763));
#365 = CARTESIAN_POINT('',(6.16905063489,13.483525147597));
#366 = CARTESIAN_POINT('',(6.159101086723,13.38836408972));
#367 = CARTESIAN_POINT('',(6.149396573083,13.284772680974));
#368 = CARTESIAN_POINT('',(6.139947725462,13.173372368166));
#369 = CARTESIAN_POINT('',(6.13076409423,13.054796667731));
#370 = CARTESIAN_POINT('',(6.110166367378,12.765588276009));
#371 = CARTESIAN_POINT('',(6.098947306768,12.590221067738));
#372 = CARTESIAN_POINT('',(6.088197139001,12.404775101426));
#373 = CARTESIAN_POINT('',(6.077914912787,12.210322385992));
#374 = CARTESIAN_POINT('',(6.068098256804,12.00782525344));
#375 = CARTESIAN_POINT('',(6.050878514272,11.621859462714));
#376 = CARTESIAN_POINT('',(6.043338533602,11.440464640795));
#377 = CARTESIAN_POINT('',(6.036119204217,11.254414083362));
#378 = CARTESIAN_POINT('',(6.02921667888,11.064116814637));
#379 = CARTESIAN_POINT('',(6.022627162475,10.869930351911));
#380 = CARTESIAN_POINT('',(6.010960332457,10.502538176643));
#381 = CARTESIAN_POINT('',(6.005801280129,10.330280120323));
#382 = CARTESIAN_POINT('',(6.000867565761,10.155587681481));
#383 = CARTESIAN_POINT('',(5.996157239136,9.978643085312));
#384 = CARTESIAN_POINT('',(5.991668506293,9.799609598739));
#385 = CARTESIAN_POINT('',(5.983620009383,9.458387393337));
#386 = CARTESIAN_POINT('',(5.980012833428,9.296623547935));
#387 = CARTESIAN_POINT('',(5.976577178849,9.133444825805));
#388 = CARTESIAN_POINT('',(5.973312168979,8.968950891669));
#389 = CARTESIAN_POINT('',(5.97021707329,8.803236243366));
#390 = CARTESIAN_POINT('',(5.957013218986,8.050267355317));
#391 = CARTESIAN_POINT('',(5.948820363667,7.449935992485));
#392 = CARTESIAN_POINT('',(5.942696197011,6.839616479809));
#393 = CARTESIAN_POINT('',(5.938631566972,6.22283360828));
#394 = CARTESIAN_POINT('',(5.936621939553,5.602751430551));
#395 = CARTESIAN_POINT('',(5.93671063789,4.465771818907));
#396 = CARTESIAN_POINT('',(5.938179254237,3.949176791731));
#397 = CARTESIAN_POINT('',(5.941075394536,3.434564987445));
#398 = CARTESIAN_POINT('',(5.945400696658,2.923804984739));
#399 = CARTESIAN_POINT('',(5.95115923752,2.418909028374));
#400 = CARTESIAN_POINT('',(5.960538912257,1.771624056878));
#401 = CARTESIAN_POINT('',(5.962852647197,1.621827461635));
#402 = CARTESIAN_POINT('',(5.965299032872,1.472827468188));
#403 = CARTESIAN_POINT('',(5.967878419815,1.324685307336));
#404 = CARTESIAN_POINT('',(5.970591234043,1.177464362154));
#405 = CARTESIAN_POINT('',(5.976861064958,0.855389742174));
#406 = CARTESIAN_POINT('',(5.980477718045,0.68098084207));
#407 = CARTESIAN_POINT('',(5.984288914685,0.508111834713));
#408 = CARTESIAN_POINT('',(5.988295764537,0.336902524506));
#409 = CARTESIAN_POINT('',(5.992499508546,0.167484153221));
#410 = CARTESIAN_POINT('',(5.996901518941,-6.E-07));
#411 = ( GEOMETRIC_REPRESENTATION_CONTEXT(2) 
PARAMETRIC_REPRESENTATION_CONTEXT() REPRESENTATION_CONTEXT('2D SPACE',''
  ) );
#412 = PCURVE('',#211,#413);
#413 = DEFINITIONAL_REPRESENTATION('',(#414),#467);
#414 = B_SPLINE_CURVE_WITH_KNOTS('',6,(#415,#416,#417,#418,#419,#420,
    #421,#422,#423,#424,#425,#426,#427,#428,#429,#430,#431,#432,#433,
    #434,#435,#436,#437,#438,#439,#440,#441,#442,#443,#444,#445,#446,
    #447,#448,#449,#450,#451,#452,#453,#454,#455,#456,#457,#458,#459,
    #460,#461,#462,#463,#464,#465,#466),.UNSPECIFIED.,.F.,.F.,(7,5,5,5,5
    ,5,5,5,5,5,7),(0.,0.115369308489,0.187723231075,0.282633940233,
    0.362422914462,0.430856074549,0.491449122021,0.704309864046,
    0.881643027012,0.935381618925,0.999999961418),.UNSPECIFIED.);
#415 = CARTESIAN_POINT('',(6.28318530718,11.5));
#416 = CARTESIAN_POINT('',(6.335950369203,11.5));
#417 = CARTESIAN_POINT('',(6.38860890248,11.489787974472));
#418 = CARTESIAN_POINT('',(6.440942595935,11.469441012963));
#419 = CARTESIAN_POINT('',(6.49273341169,11.439630298434));
#420 = CARTESIAN_POINT('',(6.543741308095,11.401597154306));
#421 = CARTESIAN_POINT('',(6.6249982408,11.328949209097));
#422 = CARTESIAN_POINT('',(6.655937009083,11.298310695676));
#423 = CARTESIAN_POINT('',(6.686495560262,11.265353504692));
#424 = CARTESIAN_POINT('',(6.716671014073,11.230407925447));
#425 = CARTESIAN_POINT('',(6.746457709562,11.193807226577));
#426 = CARTESIAN_POINT('',(6.814398755933,11.106127748942));
#427 = CARTESIAN_POINT('',(6.852273917442,11.054083344328));
#428 = CARTESIAN_POINT('',(6.889515736563,11.000404450219));
#429 = CARTESIAN_POINT('',(6.926160843456,10.945697936701));
#430 = CARTESIAN_POINT('',(6.9622428059,10.890513521725));
#431 = CARTESIAN_POINT('',(7.027683940228,10.788953064214));
#432 = CARTESIAN_POINT('',(7.057204159544,10.742565395848));
#433 = CARTESIAN_POINT('',(7.086383200181,10.696453282793));
#434 = CARTESIAN_POINT('',(7.115245883165,10.650867449967));
#435 = CARTESIAN_POINT('',(7.143816309561,10.606032401274));
#436 = CARTESIAN_POINT('',(7.196394022403,10.524509226779));
#437 = CARTESIAN_POINT('',(7.22047207525,10.487570015493));
#438 = CARTESIAN_POINT('',(7.244367504276,10.451457859142));
#439 = CARTESIAN_POINT('',(7.268094096358,10.41628945728));
#440 = CARTESIAN_POINT('',(7.291665326381,10.382170642815));
#441 = CARTESIAN_POINT('',(7.335839218022,10.319999849982));
#442 = CARTESIAN_POINT('',(7.356472090064,10.291701654028));
#443 = CARTESIAN_POINT('',(7.377001572785,10.264368764539));
#444 = CARTESIAN_POINT('',(7.397435810602,10.238062983531));
#445 = CARTESIAN_POINT('',(7.41778249293,10.212840944647));
#446 = CARTESIAN_POINT('',(7.509243700347,10.104138121076));
#447 = CARTESIAN_POINT('',(7.579477849331,10.033496059998));
#448 = CARTESIAN_POINT('',(7.649023691209,9.979136979185));
#449 = CARTESIAN_POINT('',(7.718121988759,9.94254435925));
#450 = CARTESIAN_POINT('',(7.787009123745,9.924457820626));
#451 = CARTESIAN_POINT('',(7.913340430526,9.92525610415));
#452 = CARTESIAN_POINT('',(7.970747617149,9.938474083033));
#453 = CARTESIAN_POINT('',(8.028283005466,9.964531320493));
#454 = CARTESIAN_POINT('',(8.086078894818,10.003059531384));
#455 = CARTESIAN_POINT('',(8.144271401861,10.053322642176));
#456 = CARTESIAN_POINT('',(8.220806537033,10.132649901228));
#457 = CARTESIAN_POINT('',(8.238656898299,10.152074548065));
#458 = CARTESIAN_POINT('',(8.256563025532,10.172444941845));
#459 = CARTESIAN_POINT('',(8.274529764272,10.193727679937));
#460 = CARTESIAN_POINT('',(8.292562209482,10.215886322641));
#461 = CARTESIAN_POINT('',(8.332434379939,10.266531975229));
#462 = CARTESIAN_POINT('',(8.354305282604,10.295391110839));
#463 = CARTESIAN_POINT('',(8.376288320214,10.325391213147));
#464 = CARTESIAN_POINT('',(8.398393619092,10.356457107695));
#465 = CARTESIAN_POINT('',(8.420631525209,10.388506032444));
#466 = CARTESIAN_POINT('',(8.443012604191,10.421447637772));
#467 = ( GEOMETRIC_REPRESENTATION_CONTEXT(2) 
PARAMETRIC_REPRESENTATION_CONTEXT() REPRESENTATION_CONTEXT('2D SPACE',''
  ) );
#468 = ADVANCED_FACE('',(#469),#211,.F.);
#469 = FACE_BOUND('',#470,.F.);
#470 = EDGE_LOOP('',(#471,#472,#473,#494,#684,#869));
#471 = ORIENTED_EDGE('',*,*,#301,.F.);
#472 = ORIENTED_EDGE('',*,*,#97,.F.);
#473 = ORIENTED_EDGE('',*,*,#474,.F.);
#474 = EDGE_CURVE('',#475,#98,#477,.T.);
#475 = VERTEX_POINT('',#476);
#476 = CARTESIAN_POINT('',(24.220291080001,7.483314773548,0.));
#477 = SURFACE_CURVE('',#478,(#482,#488),.PCURVE_S1.);
#478 = LINE('',#479,#480);
#479 = CARTESIAN_POINT('',(15.,7.483314773548,0.));
#480 = VECTOR('',#481,1.);
#481 = DIRECTION('',(1.,0.,0.));
#482 = PCURVE('',#211,#483);
#483 = DEFINITIONAL_REPRESENTATION('',(#484),#487);
#484 = B_SPLINE_CURVE_WITH_KNOTS('',1,(#485,#486),.UNSPECIFIED.,.F.,.F.,
  (2,2),(9.220291080001,10.421447637772),.PIECEWISE_BEZIER_KNOTS.);
#485 = CARTESIAN_POINT('',(4.123358010168,9.220291080001));
#486 = CARTESIAN_POINT('',(4.123358010168,10.421447637772));
#487 = ( GEOMETRIC_REPRESENTATION_CONTEXT(2) 
PARAMETRIC_REPRESENTATION_CONTEXT() REPRESENTATION_CONTEXT('2D SPACE',''
  ) );
#488 = PCURVE('',#289,#489);
#489 = DEFINITIONAL_REPRESENTATION('',(#490),#493);
#490 = B_SPLINE_CURVE_WITH_KNOTS('',1,(#491,#492),.UNSPECIFIED.,.F.,.F.,
  (2,2),(-5.999999999062E-07,16.8),.PIECEWISE_BEZIER_KNOTS.);
#491 = CARTESIAN_POINT('',(14.9999994,7.483314773548));
#492 = CARTESIAN_POINT('',(31.8,7.483314773548));
#493 = ( GEOMETRIC_REPRESENTATION_CONTEXT(2) 
PARAMETRIC_REPRESENTATION_CONTEXT() REPRESENTATION_CONTEXT('2D SPACE',''
  ) );
#494 = ORIENTED_EDGE('',*,*,#495,.T.);
#495 = EDGE_CURVE('',#475,#496,#498,.T.);
#496 = VERTEX_POINT('',#497);
#497 = CARTESIAN_POINT('',(25.35,-2.002297516606E-15,14.));
#498 = SURFACE_CURVE('',#499,(#557,#618),.PCURVE_S1.);
#499 = B_SPLINE_CURVE_WITH_KNOTS('',6,(#500,#501,#502,#503,#504,#505,
    #506,#507,#508,#509,#510,#511,#512,#513,#514,#515,#516,#517,#518,
    #519,#520,#521,#522,#523,#524,#525,#526,#527,#528,#529,#530,#531,
    #532,#533,#534,#535,#536,#537,#538,#539,#540,#541,#542,#543,#544,
    #545,#546,#547,#548,#549,#550,#551,#552,#553,#554,#555,#556),
  .UNSPECIFIED.,.F.,.F.,(7,5,5,5,5,5,5,5,5,5,5,7),(0.,6.071813752545E-02
    ,0.111638169695,0.295835937098,0.470728193251,0.519027610466,
    0.577579267632,0.643801671297,0.72088379369,0.814648664211,
    0.888129147035,1.),.UNSPECIFIED.);
#500 = CARTESIAN_POINT('',(24.220291203865,7.483314372656,
    -5.999999981715E-07));
#501 = CARTESIAN_POINT('',(24.187828375323,7.588382678145,0.157251213245
    ));
#502 = CARTESIAN_POINT('',(24.15618486831,7.688860275796,0.316216064839)
  );
#503 = CARTESIAN_POINT('',(24.125438975845,7.784798858791,0.476780956734
    ));
#504 = CARTESIAN_POINT('',(24.095663385372,7.87624502813,0.638839189715)
  );
#505 = CARTESIAN_POINT('',(24.066925178758,7.963240292631,0.802290363404
    ));
#506 = CARTESIAN_POINT('',(24.016106656049,8.115075758832,1.105204626611
    ));
#507 = CARTESIAN_POINT('',(23.993700401385,8.181225716956,1.244281815512
    ));
#508 = CARTESIAN_POINT('',(23.972103432938,8.244292361888,1.38421605544)
  );
#509 = CARTESIAN_POINT('',(23.95134957513,8.304294888691,1.52495313751)
  );
#510 = CARTESIAN_POINT('',(23.931470112167,8.361250268905,1.666440531474
    ));
#511 = CARTESIAN_POINT('',(23.843848966188,8.610233866336,2.322973115463
    ));
#512 = CARTESIAN_POINT('',(23.787001567564,8.765674005908,2.84662677869)
  );
#513 = CARTESIAN_POINT('',(23.743353450758,8.882072744974,3.376972060096
    ));
#514 = CARTESIAN_POINT('',(23.713831096899,8.959830845282,3.911710962376
    ));
#515 = CARTESIAN_POINT('',(23.698900176008,8.999146140626,4.448715515765
    ));
#516 = CARTESIAN_POINT('',(23.69827621998,9.000789128416,5.495906402009)
  );
#517 = CARTESIAN_POINT('',(23.711144309021,8.966905495712,6.005869613149
    ));
#518 = CARTESIAN_POINT('',(23.737179330159,8.898365146263,6.513956953605
    ));
#519 = CARTESIAN_POINT('',(23.776011549794,8.795014414478,7.01834159407)
  );
#520 = CARTESIAN_POINT('',(23.826896535692,8.656536345601,7.517069191391
    ));
#521 = CARTESIAN_POINT('',(23.905774620346,8.434396366597,8.143508598859
    ));
#522 = CARTESIAN_POINT('',(23.923678319711,8.383606992388,8.278482048238
    ));
#523 = CARTESIAN_POINT('',(23.942393076045,8.330088563057,8.412822540697
    ));
#524 = CARTESIAN_POINT('',(23.961893682331,8.273827848061,8.546486065019
    ));
#525 = CARTESIAN_POINT('',(23.982152888201,8.214809894304,8.679427442845
    ));
#526 = CARTESIAN_POINT('',(24.028585022547,8.078109952929,8.97182879401)
  );
#527 = CARTESIAN_POINT('',(24.055100335503,7.999125372195,9.130927323696
    ));
#528 = CARTESIAN_POINT('',(24.08263527742,7.916034534622,9.288813871424)
  );
#529 = CARTESIAN_POINT('',(24.111133094146,7.828803368737,9.445401700086
    ));
#530 = CARTESIAN_POINT('',(24.140532338768,7.737393480902,9.600599381769
    ));
#531 = CARTESIAN_POINT('',(24.204962375806,7.533602343058,9.928159667795
    ));
#532 = CARTESIAN_POINT('',(24.24022509809,7.420045823405,10.100101636116
    ));
#533 = CARTESIAN_POINT('',(24.276460833931,7.301026668677,
    10.270003848402));
#534 = CARTESIAN_POINT('',(24.313565373548,7.176474674368,
    10.437716078932));
#535 = CARTESIAN_POINT('',(24.351424501904,7.046315359148,
    10.603070730578));
#536 = CARTESIAN_POINT('',(24.434715333909,6.75234747566,10.955394266744
    ));
#537 = CARTESIAN_POINT('',(24.480370501548,6.586521226734,
    11.141460759994));
#538 = CARTESIAN_POINT('',(24.526685977802,6.412855996255,
    11.323802336378));
#539 = CARTESIAN_POINT('',(24.573445642771,6.231216683362,
    11.502092703092));
#540 = CARTESIAN_POINT('',(24.62040948865,6.041468174366,11.675959305631
    ));
#541 = CARTESIAN_POINT('',(24.724366266135,5.602630974388,12.050589039)
  );
#542 = CARTESIAN_POINT('',(24.781343335361,5.349530665785,12.24907794737
    ));
#543 = CARTESIAN_POINT('',(24.837747664952,5.083998516307,12.43961916986
    ));
#544 = CARTESIAN_POINT('',(24.89302098645,4.805907753823,12.621276863049
    ));
#545 = CARTESIAN_POINT('',(24.946548558966,4.51518217084,12.793008537356
    ));
#546 = CARTESIAN_POINT('',(25.037723462898,3.974045136521,
    13.079563250863));
#547 = CARTESIAN_POINT('',(25.076307736954,3.728479167239,
    13.198680896898));
#548 = CARTESIAN_POINT('',(25.113056396068,3.475324115764,
    13.310329586674));
#549 = CARTESIAN_POINT('',(25.14760319603,3.214847552277,13.413839297799
    ));
#550 = CARTESIAN_POINT('',(25.179586314689,2.947360331125,
    13.508554154654));
#551 = CARTESIAN_POINT('',(25.252917114457,2.255844727083,
    13.723658599461));
#552 = CARTESIAN_POINT('',(25.290507809109,1.82228408966,13.831845122871
    ));
#553 = CARTESIAN_POINT('',(25.319905502327,1.376031588167,
    13.915234325062));
#554 = CARTESIAN_POINT('',(25.33994528427,0.920898065178,13.971679083937
    ));
#555 = CARTESIAN_POINT('',(25.35,0.460875633012,14.));
#556 = CARTESIAN_POINT('',(25.35,1.102182119233E-15,14.));
#557 = PCURVE('',#211,#558);
#558 = DEFINITIONAL_REPRESENTATION('',(#559),#617);
#559 = B_SPLINE_CURVE_WITH_KNOTS('',6,(#560,#561,#562,#563,#564,#565,
    #566,#567,#568,#569,#570,#571,#572,#573,#574,#575,#576,#577,#578,
    #579,#580,#581,#582,#583,#584,#585,#586,#587,#588,#589,#590,#591,
    #592,#593,#594,#595,#596,#597,#598,#599,#600,#601,#602,#603,#604,
    #605,#606,#607,#608,#609,#610,#611,#612,#613,#614,#615,#616),
  .UNSPECIFIED.,.F.,.F.,(7,5,5,5,5,5,5,5,5,5,5,7),(3.861204222943E-08,
    6.071813752545E-02,0.111638169695,0.295835937098,0.470728193251,
    0.519027610466,0.577579267632,0.643801671297,0.72088379369,
    0.814648664211,0.888129147035,1.),.UNSPECIFIED.);
#560 = CARTESIAN_POINT('',(4.123358010168,9.220291080001));
#561 = CARTESIAN_POINT('',(4.144371654984,9.187828274709));
#562 = CARTESIAN_POINT('',(4.165260225815,9.156184790102));
#563 = CARTESIAN_POINT('',(4.18603305115,9.12543891904));
#564 = CARTESIAN_POINT('',(4.206698949185,9.095663348821));
#565 = CARTESIAN_POINT('',(4.227266227828,9.066925161181));
#566 = CARTESIAN_POINT('',(4.264914860062,9.016106656049));
#567 = CARTESIAN_POINT('',(4.282023148009,8.993700401385));
#568 = CARTESIAN_POINT('',(4.29907213947,8.972103432938));
#569 = CARTESIAN_POINT('',(4.316066209185,8.95134957513));
#570 = CARTESIAN_POINT('',(4.3330095157,8.931470112167));
#571 = CARTESIAN_POINT('',(4.411027230183,8.843848966188));
#572 = CARTESIAN_POINT('',(4.471554538262,8.787001567564));
#573 = CARTESIAN_POINT('',(4.531649408046,8.743353450758));
#574 = CARTESIAN_POINT('',(4.591461192066,8.713831096899));
#575 = CARTESIAN_POINT('',(4.651135074699,8.698900176008));
#576 = CARTESIAN_POINT('',(4.767489760824,8.69827621998));
#577 = CARTESIAN_POINT('',(4.824146309448,8.711144309021));
#578 = CARTESIAN_POINT('',(4.880916139131,8.737179330159));
#579 = CARTESIAN_POINT('',(4.937922786719,8.776011549794));
#580 = CARTESIAN_POINT('',(4.99529291757,8.826896535692));
#581 = CARTESIAN_POINT('',(5.069143994068,8.905774620346));
#582 = CARTESIAN_POINT('',(5.085164739748,8.923678319711));
#583 = CARTESIAN_POINT('',(5.101227873762,8.942393076045));
#584 = CARTESIAN_POINT('',(5.117336823147,8.961893682331));
#585 = CARTESIAN_POINT('',(5.133495181808,8.982152888201));
#586 = CARTESIAN_POINT('',(5.169359367344,9.028585022547));
#587 = CARTESIAN_POINT('',(5.189090150502,9.055100335503));
#588 = CARTESIAN_POINT('',(5.20890576937,9.08263527742));
#589 = CARTESIAN_POINT('',(5.228813360684,9.111133094146));
#590 = CARTESIAN_POINT('',(5.248820488543,9.140532338768));
#591 = CARTESIAN_POINT('',(5.291684984895,9.204962375806));
#592 = CARTESIAN_POINT('',(5.314571763333,9.24022509809));
#593 = CARTESIAN_POINT('',(5.337607772717,9.276460833931));
#594 = CARTESIAN_POINT('',(5.360805580744,9.313565373548));
#595 = CARTESIAN_POINT('',(5.384178029808,9.351424501904));
#596 = CARTESIAN_POINT('',(5.435162049413,9.434715333909));
#597 = CARTESIAN_POINT('',(5.462840335586,9.480370501548));
#598 = CARTESIAN_POINT('',(5.490795984679,9.526685977802));
#599 = CARTESIAN_POINT('',(5.519051301894,9.573445642771));
#600 = CARTESIAN_POINT('',(5.547629215042,9.62040948865));
#601 = CARTESIAN_POINT('',(5.611739991587,9.724366266135));
#602 = CARTESIAN_POINT('',(5.647447772193,9.781343335361));
#603 = CARTESIAN_POINT('',(5.683711263955,9.837747664952));
#604 = CARTESIAN_POINT('',(5.720563501588,9.89302098645));
#605 = CARTESIAN_POINT('',(5.7580404704,9.946548558966));
#606 = CARTESIAN_POINT('',(5.826076671162,10.037723462898));
#607 = CARTESIAN_POINT('',(5.856383436682,10.076307736954));
#608 = CARTESIAN_POINT('',(5.887095132731,10.113056396068));
#609 = CARTESIAN_POINT('',(5.918205337309,10.14760319603));
#610 = CARTESIAN_POINT('',(5.949710690457,10.179586314689));
#611 = CARTESIAN_POINT('',(6.030177212352,10.252917114457));
#612 = CARTESIAN_POINT('',(6.079746989945,10.290507809109));
#613 = CARTESIAN_POINT('',(6.130051177102,10.319905502327));
#614 = CARTESIAN_POINT('',(6.180863304491,10.33994528427));
#615 = CARTESIAN_POINT('',(6.231976903512,10.35));
#616 = CARTESIAN_POINT('',(6.28318530718,10.35));
#617 = ( GEOMETRIC_REPRESENTATION_CONTEXT(2) 
PARAMETRIC_REPRESENTATION_CONTEXT() REPRESENTATION_CONTEXT('2D SPACE',''
  ) );
#618 = PCURVE('',#619,#624);
#619 = CYLINDRICAL_SURFACE('',#620,25.35);
#620 = AXIS2_PLACEMENT_3D('',#621,#622,#623);
#621 = CARTESIAN_POINT('',(0.,0.,-0.2));
#622 = DIRECTION('',(0.,0.,1.));
#623 = DIRECTION('',(1.,0.,-0.));
#624 = DEFINITIONAL_REPRESENTATION('',(#625),#683);
#625 = B_SPLINE_CURVE_WITH_KNOTS('',6,(#626,#627,#628,#629,#630,#631,
    #632,#633,#634,#635,#636,#637,#638,#639,#640,#641,#642,#643,#644,
    #645,#646,#647,#648,#649,#650,#651,#652,#653,#654,#655,#656,#657,
    #658,#659,#660,#661,#662,#663,#664,#665,#666,#667,#668,#669,#670,
    #671,#672,#673,#674,#675,#676,#677,#678,#679,#680,#681,#682),
  .UNSPECIFIED.,.F.,.F.,(7,5,5,5,5,5,5,5,5,5,5,7),(0.,6.071813752545E-02
    ,0.111638169695,0.295835937098,0.470728193251,0.519027610466,
    0.577579267632,0.643801671297,0.72088379369,0.814648664211,
    0.888129147035,1.),.UNSPECIFIED.);
#626 = CARTESIAN_POINT('',(0.299664608192,0.1999994));
#627 = CARTESIAN_POINT('',(0.304002636361,0.357251213245));
#628 = CARTESIAN_POINT('',(0.308158103923,0.516216064839));
#629 = CARTESIAN_POINT('',(0.312132185095,0.676780956734));
#630 = CARTESIAN_POINT('',(0.315925881612,0.838839189715));
#631 = CARTESIAN_POINT('',(0.31954002273,1.002290363404));
#632 = CARTESIAN_POINT('',(0.32585616154,1.305204626611));
#633 = CARTESIAN_POINT('',(0.32861123948,1.444281815512));
#634 = CARTESIAN_POINT('',(0.331240885151,1.58421605544));
#635 = CARTESIAN_POINT('',(0.333745419398,1.72495313751));
#636 = CARTESIAN_POINT('',(0.336125097804,1.866440531474));
#637 = CARTESIAN_POINT('',(0.346537378499,2.522973115463));
#638 = CARTESIAN_POINT('',(0.353065886101,3.04662677869));
#639 = CARTESIAN_POINT('',(0.357969623084,3.576972060096));
#640 = CARTESIAN_POINT('',(0.361250746052,4.111710962376));
#641 = CARTESIAN_POINT('',(0.362909684572,4.648715515765));
#642 = CARTESIAN_POINT('',(0.362979013105,5.695906402009));
#643 = CARTESIAN_POINT('',(0.361549266347,6.205869613149));
#644 = CARTESIAN_POINT('',(0.358656940475,6.713956953605));
#645 = CARTESIAN_POINT('',(0.354301803727,7.21834159407));
#646 = CARTESIAN_POINT('',(0.348482356054,7.717069191391));
#647 = CARTESIAN_POINT('',(0.339183401687,8.343508598859));
#648 = CARTESIAN_POINT('',(0.337059043507,8.478482048238));
#649 = CARTESIAN_POINT('',(0.33482251689,8.612822540697));
#650 = CARTESIAN_POINT('',(0.3324736387,8.746486065019));
#651 = CARTESIAN_POINT('',(0.330012177431,8.879427442845));
#652 = CARTESIAN_POINT('',(0.324317091979,9.17182879401));
#653 = CARTESIAN_POINT('',(0.321030466693,9.330927323696));
#654 = CARTESIAN_POINT('',(0.317577478748,9.488813871424));
#655 = CARTESIAN_POINT('',(0.313957487589,9.645401700086));
#656 = CARTESIAN_POINT('',(0.310169710717,9.800599381769));
#657 = CARTESIAN_POINT('',(0.301738404465,10.128159667795));
#658 = CARTESIAN_POINT('',(0.297047903818,10.300101636116));
#659 = CARTESIAN_POINT('',(0.29214021825,10.470003848402));
#660 = CARTESIAN_POINT('',(0.287013696747,10.637716078932));
#661 = CARTESIAN_POINT('',(0.281666540772,10.803070730578));
#662 = CARTESIAN_POINT('',(0.269613694522,11.155394266744));
#663 = CARTESIAN_POINT('',(0.262829017177,11.341460759994));
#664 = CARTESIAN_POINT('',(0.255739228437,11.523802336378));
#665 = CARTESIAN_POINT('',(0.248340810405,11.702092703092));
#666 = CARTESIAN_POINT('',(0.240630190078,11.875959305631));
#667 = CARTESIAN_POINT('',(0.222839958449,12.250589039));
#668 = CARTESIAN_POINT('',(0.212606503803,12.44907794737));
#669 = CARTESIAN_POINT('',(0.201899379237,12.63961916986));
#670 = CARTESIAN_POINT('',(0.190716317742,12.821276863049));
#671 = CARTESIAN_POINT('',(0.179056426706,12.993008537356));
#672 = CARTESIAN_POINT('',(0.157408923538,13.279563250863));
#673 = CARTESIAN_POINT('',(0.1476036557,13.398680896898));
#674 = CARTESIAN_POINT('',(0.137513663126,13.510329586674));
#675 = CARTESIAN_POINT('',(0.127149716074,13.613839297799));
#676 = CARTESIAN_POINT('',(0.116523740998,13.708554154654));
#677 = CARTESIAN_POINT('',(8.909206979054E-02,13.923658599461));
#678 = CARTESIAN_POINT('',(7.192807115736E-02,14.031845122871));
#679 = CARTESIAN_POINT('',(5.429212913843E-02,14.115234325062));
#680 = CARTESIAN_POINT('',(3.632734295504E-02,14.171679083937));
#681 = CARTESIAN_POINT('',(1.818049834367E-02,14.2));
#682 = CARTESIAN_POINT('',(0.,14.2));
#683 = ( GEOMETRIC_REPRESENTATION_CONTEXT(2) 
PARAMETRIC_REPRESENTATION_CONTEXT() REPRESENTATION_CONTEXT('2D SPACE',''
  ) );
#684 = ORIENTED_EDGE('',*,*,#685,.T.);
#685 = EDGE_CURVE('',#496,#686,#688,.T.);
#686 = VERTEX_POINT('',#687);
#687 = CARTESIAN_POINT('',(24.220291080001,-7.483314773548,0.));
#688 = SURFACE_CURVE('',#689,(#747,#808),.PCURVE_S1.);
#689 = B_SPLINE_CURVE_WITH_KNOTS('',6,(#690,#691,#692,#693,#694,#695,
    #696,#697,#698,#699,#700,#701,#702,#703,#704,#705,#706,#707,#708,
    #709,#710,#711,#712,#713,#714,#715,#716,#717,#718,#719,#720,#721,
    #722,#723,#724,#725,#726,#727,#728,#729,#730,#731,#732,#733,#734,
    #735,#736,#737,#738,#739,#740,#741,#742,#743,#744,#745,#746),
  .UNSPECIFIED.,.F.,.F.,(7,5,5,5,5,5,5,5,5,5,5,7),(0.,0.115299178253,
    0.184193312552,0.277317306506,0.355400314853,0.422123566268,
    0.478829191947,0.52734533227,0.70435903578,0.888887819144,
    0.939629943198,1.),.UNSPECIFIED.);
#690 = CARTESIAN_POINT('',(25.35,-1.7763568394E-15,14.));
#691 = CARTESIAN_POINT('',(25.35,-0.475042999792,14.));
#692 = CARTESIAN_POINT('',(25.339317621936,-0.949094624094,
    13.969911134301));
#693 = CARTESIAN_POINT('',(25.31803627017,-1.417787495833,
    13.909969444445));
#694 = CARTESIAN_POINT('',(25.286860876818,-1.876806563762,
    13.821497463735));
#695 = CARTESIAN_POINT('',(25.2470932893,-2.322046508052,13.706886751507
    ));
#696 = CARTESIAN_POINT('',(25.172535832953,-3.005334272543,
    13.48763851339));
#697 = CARTESIAN_POINT('',(25.142147268265,-3.254988961603,
    13.397443264555));
#698 = CARTESIAN_POINT('',(25.109545585343,-3.498442998224,
    13.299591082355));
#699 = CARTESIAN_POINT('',(25.075028919924,-3.735445852969,
    13.194622927607));
#700 = CARTESIAN_POINT('',(25.038898393747,-3.965780344872,
    13.083090052312));
#701 = CARTESIAN_POINT('',(24.950834788817,-4.491342536247,12.8066852424
    ));
#702 = CARTESIAN_POINT('',(24.89780614674,-4.780943577723,
    12.636828709481));
#703 = CARTESIAN_POINT('',(24.843019556656,-5.058082149966,
    12.457118842456));
#704 = CARTESIAN_POINT('',(24.787080301032,-5.322826663446,
    12.268583451412));
#705 = CARTESIAN_POINT('',(24.730539006153,-5.575295833813,
    12.072147314106));
#706 = CARTESIAN_POINT('',(24.626382654987,-6.017196349635,
    11.697991124219));
#707 = CARTESIAN_POINT('',(24.578791474152,-6.210263100371,
    11.522338551685));
#708 = CARTESIAN_POINT('',(24.531389655757,-6.394997606986,
    11.342115238362));
#709 = CARTESIAN_POINT('',(24.484428158148,-6.5715401461,11.157711337261
    ));
#710 = CARTESIAN_POINT('',(24.438132682063,-6.740031214275,
    10.96946805762));
#711 = CARTESIAN_POINT('',(24.353886327536,-7.037830391071,
    10.613789424251));
#712 = CARTESIAN_POINT('',(24.315701468778,-7.169272760611,
    10.447311095566));
#713 = CARTESIAN_POINT('',(24.27827789829,-7.29501952274,10.278432486203
    ));
#714 = CARTESIAN_POINT('',(24.241732730552,-7.415147032896,
    10.107325489963));
#715 = CARTESIAN_POINT('',(24.206172747068,-7.529727260752,
    9.934144029977));
#716 = CARTESIAN_POINT('',(24.142392520223,-7.731548298502,
    9.610196066529));
#717 = CARTESIAN_POINT('',(24.113872810333,-7.820308559508,
    9.459972164791));
#718 = CARTESIAN_POINT('',(24.086195423632,-7.905147443823,
    9.308439796988));
#719 = CARTESIAN_POINT('',(24.059416379173,-7.986100011663,
    9.155682229012));
#720 = CARTESIAN_POINT('',(24.033587558126,-8.063197512878,9.00177854916
    ));
#721 = CARTESIAN_POINT('',(23.987511947203,-8.199155549703,
    8.714210420381));
#722 = CARTESIAN_POINT('',(23.966997773939,-8.259041834044,
    8.580833407262));
#723 = CARTESIAN_POINT('',(23.947244152161,-8.316143395225,
    8.446719806104));
#724 = CARTESIAN_POINT('',(23.928278968145,-8.370475621319,
    8.311915575043));
#725 = CARTESIAN_POINT('',(23.910128026268,-8.42205213321,8.176465453024
    ));
#726 = CARTESIAN_POINT('',(23.829647735962,-8.649053295457,
    7.544018243783));
#727 = CARTESIAN_POINT('',(23.777619996164,-8.790740024761,
    7.039483890934));
#728 = CARTESIAN_POINT('',(23.737915435224,-8.896431056034,
    6.529093267419));
#729 = CARTESIAN_POINT('',(23.711313653009,-8.966459547254,
    6.014873746335));
#730 = CARTESIAN_POINT('',(23.69820117238,-9.000986742921,5.498717119652
    ));
#731 = CARTESIAN_POINT('',(23.698979747061,-8.998936615023,
    4.444367010963));
#732 = CARTESIAN_POINT('',(23.714040715684,-8.959278803836,
    3.906404343155));
#733 = CARTESIAN_POINT('',(23.74374415739,-8.88103909321,3.370728836907)
  );
#734 = CARTESIAN_POINT('',(23.787619670202,-8.764017454467,
    2.839479547405));
#735 = CARTESIAN_POINT('',(23.844732762547,-8.607809225925,
    2.314967552636));
#736 = CARTESIAN_POINT('',(23.932626573445,-8.357939271245,
    1.658170944155));
#737 = CARTESIAN_POINT('',(23.952478765323,-8.301036605915,
    1.517212823008));
#738 = CARTESIAN_POINT('',(23.97319810394,-8.241107396023,1.377001746915
    ));
#739 = CARTESIAN_POINT('',(23.994753562696,-8.178134788406,
    1.237589739033));
#740 = CARTESIAN_POINT('',(24.017111609314,-8.112099733966,
    1.099030486493));
#741 = CARTESIAN_POINT('',(24.067748518948,-7.960747484071,
    0.797609934542));
#742 = CARTESIAN_POINT('',(24.096345741053,-7.874149094916,
    0.635126695695));
#743 = CARTESIAN_POINT('',(24.125967359238,-7.783149930074,
    0.474022186508));
#744 = CARTESIAN_POINT('',(24.156547376772,-7.687709132253,0.31439515207
    ));
#745 = CARTESIAN_POINT('',(24.188014313105,-7.587780876992,0.15635051991
    ));
#746 = CARTESIAN_POINT('',(24.220291203865,-7.483314372656,
    -5.999999986156E-07));
#747 = PCURVE('',#211,#748);
#748 = DEFINITIONAL_REPRESENTATION('',(#749),#807);
#749 = B_SPLINE_CURVE_WITH_KNOTS('',6,(#750,#751,#752,#753,#754,#755,
    #756,#757,#758,#759,#760,#761,#762,#763,#764,#765,#766,#767,#768,
    #769,#770,#771,#772,#773,#774,#775,#776,#777,#778,#779,#780,#781,
    #782,#783,#784,#785,#786,#787,#788,#789,#790,#791,#792,#793,#794,
    #795,#796,#797,#798,#799,#800,#801,#802,#803,#804,#805,#806),
  .UNSPECIFIED.,.F.,.F.,(7,5,5,5,5,5,5,5,5,5,5,7),(0.,0.115299178253,
    0.184193312552,0.277317306506,0.355400314853,0.422123566268,
    0.478829191947,0.52734533227,0.70435903578,0.888887819144,
    0.939629943198,0.999999961388),.UNSPECIFIED.);
#750 = CARTESIAN_POINT('',(6.28318530718,10.35));
#751 = CARTESIAN_POINT('',(6.335967862712,10.35));
#752 = CARTESIAN_POINT('',(6.388640259837,10.339317621936));
#753 = CARTESIAN_POINT('',(6.440981970044,10.31803627017));
#754 = CARTESIAN_POINT('',(6.492772545492,10.286860876818));
#755 = CARTESIAN_POINT('',(6.543768838924,10.2470932893));
#756 = CARTESIAN_POINT('',(6.623502342503,10.172535832953));
#757 = CARTESIAN_POINT('',(6.652977253802,10.142147268265));
#758 = CARTESIAN_POINT('',(6.682103809929,10.109545585343));
#759 = CARTESIAN_POINT('',(6.710879358212,10.075028919924));
#760 = CARTESIAN_POINT('',(6.739298894324,10.038898393747));
#761 = CARTESIAN_POINT('',(6.805278243502,9.950834788817));
#762 = CARTESIAN_POINT('',(6.842542549697,9.89780614674));
#763 = CARTESIAN_POINT('',(6.879188977365,9.843019556656));
#764 = CARTESIAN_POINT('',(6.915252481037,9.787080301032));
#765 = CARTESIAN_POINT('',(6.950765091198,9.730539006153));
#766 = CARTESIAN_POINT('',(7.015101103455,9.626382654987));
#767 = CARTESIAN_POINT('',(7.044084318269,9.578791474152));
#768 = CARTESIAN_POINT('',(7.0727345969,9.531389655757));
#769 = CARTESIAN_POINT('',(7.101075795456,9.484428158148));
#770 = CARTESIAN_POINT('',(7.129131108399,9.438132682063));
#771 = CARTESIAN_POINT('',(7.180674167222,9.353886327536));
#772 = CARTESIAN_POINT('',(7.204232696469,9.315701468778));
#773 = CARTESIAN_POINT('',(7.227613387674,9.27827789829));
#774 = CARTESIAN_POINT('',(7.250829396286,9.241732730552));
#775 = CARTESIAN_POINT('',(7.27389359521,9.206172747068));
#776 = CARTESIAN_POINT('',(7.316301667802,9.142392520223));
#777 = CARTESIAN_POINT('',(7.335683753434,9.113872810333));
#778 = CARTESIAN_POINT('',(7.354972098189,9.086195423632));
#779 = CARTESIAN_POINT('',(7.374173591368,9.059416379173));
#780 = CARTESIAN_POINT('',(7.39329474509,9.033587558126));
#781 = CARTESIAN_POINT('',(7.428637863313,8.987511947203));
#782 = CARTESIAN_POINT('',(7.444879706155,8.966997773939));
#783 = CARTESIAN_POINT('',(7.461071059353,8.947244152161));
#784 = CARTESIAN_POINT('',(7.477215588132,8.928278968145));
#785 = CARTESIAN_POINT('',(7.493316786408,8.910128026268));
#786 = CARTESIAN_POINT('',(7.567978079216,8.829647735962));
#787 = CARTESIAN_POINT('',(7.626060106209,8.777619996164));
#788 = CARTESIAN_POINT('',(7.683765357226,8.737915435224));
#789 = CARTESIAN_POINT('',(7.741225403482,8.711313653009));
#790 = CARTESIAN_POINT('',(7.798568513475,8.69820117238));
#791 = CARTESIAN_POINT('',(7.915718747016,8.698979747061));
#792 = CARTESIAN_POINT('',(7.975500760365,8.714040715684));
#793 = CARTESIAN_POINT('',(8.035421998836,8.74374415739));
#794 = CARTESIAN_POINT('',(8.095628516793,8.787619670202));
#795 = CARTESIAN_POINT('',(8.156270587019,8.844732762547));
#796 = CARTESIAN_POINT('',(8.234350696179,8.932626573445));
#797 = CARTESIAN_POINT('',(8.251237304099,8.952478765323));
#798 = CARTESIAN_POINT('',(8.268174476127,8.97319810394));
#799 = CARTESIAN_POINT('',(8.285166333139,8.994753562696));
#800 = CARTESIAN_POINT('',(8.302217209559,9.017111609314));
#801 = CARTESIAN_POINT('',(8.339693419894,9.067748501352));
#802 = CARTESIAN_POINT('',(8.360145146351,9.096345704473));
#803 = CARTESIAN_POINT('',(8.380694507752,9.125967302401));
#804 = CARTESIAN_POINT('',(8.401349675941,9.156547298538));
#805 = CARTESIAN_POINT('',(8.422119319589,9.188014212476));
#806 = CARTESIAN_POINT('',(8.443012604191,9.220291080001));
#807 = ( GEOMETRIC_REPRESENTATION_CONTEXT(2) 
PARAMETRIC_REPRESENTATION_CONTEXT() REPRESENTATION_CONTEXT('2D SPACE',''
  ) );
#808 = PCURVE('',#619,#809);
#809 = DEFINITIONAL_REPRESENTATION('',(#810),#868);
#810 = B_SPLINE_CURVE_WITH_KNOTS('',6,(#811,#812,#813,#814,#815,#816,
    #817,#818,#819,#820,#821,#822,#823,#824,#825,#826,#827,#828,#829,
    #830,#831,#832,#833,#834,#835,#836,#837,#838,#839,#840,#841,#842,
    #843,#844,#845,#846,#847,#848,#849,#850,#851,#852,#853,#854,#855,
    #856,#857,#858,#859,#860,#861,#862,#863,#864,#865,#866,#867),
  .UNSPECIFIED.,.F.,.F.,(7,5,5,5,5,5,5,5,5,5,5,7),(0.,0.115299178253,
    0.184193312552,0.277317306506,0.355400314853,0.422123566268,
    0.478829191947,0.52734533227,0.70435903578,0.888887819144,
    0.939629943198,1.),.UNSPECIFIED.);
#811 = CARTESIAN_POINT('',(6.28318530718,14.2));
#812 = CARTESIAN_POINT('',(6.264445938352,14.2));
#813 = CARTESIAN_POINT('',(6.245745673294,14.169911134301));
#814 = CARTESIAN_POINT('',(6.227244976206,14.109969444445));
#815 = CARTESIAN_POINT('',(6.209102374952,14.021497463735));
#816 = CARTESIAN_POINT('',(6.191472135468,13.906886751507));
#817 = CARTESIAN_POINT('',(6.164357996429,13.68763851339));
#818 = CARTESIAN_POINT('',(6.154437764115,13.597443264555));
#819 = CARTESIAN_POINT('',(6.144749339584,13.499591082355));
#820 = CARTESIAN_POINT('',(6.135302363309,13.394622927607));
#821 = CARTESIAN_POINT('',(6.126105583875,13.283090052312));
#822 = CARTESIAN_POINT('',(6.105084316765,13.0066852424));
#823 = CARTESIAN_POINT('',(6.093471593074,12.836828709481));
#824 = CARTESIAN_POINT('',(6.0823290922,12.657118842456));
#825 = CARTESIAN_POINT('',(6.071656155387,12.468583451412));
#826 = CARTESIAN_POINT('',(6.061450754839,12.272147314106));
#827 = CARTESIAN_POINT('',(6.043541110508,11.897991124219));
#828 = CARTESIAN_POINT('',(6.03569749898,11.722338551685));
#829 = CARTESIAN_POINT('',(6.028174543834,11.542115238362));
#830 = CARTESIAN_POINT('',(6.020968534019,11.357711337261));
#831 = CARTESIAN_POINT('',(6.014075809742,11.16946805762));
#832 = CARTESIAN_POINT('',(6.001867275409,10.813789424251));
#833 = CARTESIAN_POINT('',(5.996467934649,10.647311095566));
#834 = CARTESIAN_POINT('',(5.991292655356,10.478432486203));
#835 = CARTESIAN_POINT('',(5.986339591423,10.307325489963));
#836 = CARTESIAN_POINT('',(5.981607048215,10.134144029977));
#837 = CARTESIAN_POINT('',(5.973257569918,9.810196066529));
#838 = CARTESIAN_POINT('',(5.969579914129,9.659972164791));
#839 = CARTESIAN_POINT('',(5.966059672761,9.508439796988));
#840 = CARTESIAN_POINT('',(5.962696128858,9.355682229012));
#841 = CARTESIAN_POINT('',(5.95948869094,9.20177854916));
#842 = CARTESIAN_POINT('',(5.953825838902,8.914210420381));
#843 = CARTESIAN_POINT('',(5.951328714102,8.780833407262));
#844 = CARTESIAN_POINT('',(5.948945227197,8.646719806104));
#845 = CARTESIAN_POINT('',(5.946675136785,8.511915575043));
#846 = CARTESIAN_POINT('',(5.944518251474,8.376465453024));
#847 = CARTESIAN_POINT('',(5.935017438707,7.744018243783));
#848 = CARTESIAN_POINT('',(5.929063658732,7.239483890934));
#849 = CARTESIAN_POINT('',(5.924610004694,6.729093267419));
#850 = CARTESIAN_POINT('',(5.921654855813,6.214873746335));
#851 = CARTESIAN_POINT('',(5.920197955415,5.698717119652));
#852 = CARTESIAN_POINT('',(5.920284463876,4.644367010963));
#853 = CARTESIAN_POINT('',(5.921957854585,4.106404343155));
#854 = CARTESIAN_POINT('',(5.92525927563,3.570728836907));
#855 = CARTESIAN_POINT('',(5.930189167479,3.039479547405));
#856 = CARTESIAN_POINT('',(5.936749724754,2.514967552636));
#857 = CARTESIAN_POINT('',(5.947198558169,1.858170944155));
#858 = CARTESIAN_POINT('',(5.949575918758,1.717212823008));
#859 = CARTESIAN_POINT('',(5.952077274671,1.577001746915));
#860 = CARTESIAN_POINT('',(5.954702880494,1.437589739033));
#861 = CARTESIAN_POINT('',(5.957453055359,1.299030486493));
#862 = CARTESIAN_POINT('',(5.963748844161,0.997609934542));
#863 = CARTESIAN_POINT('',(5.96734637537,0.835126695695));
#864 = CARTESIAN_POINT('',(5.971121425342,0.674022186508));
#865 = CARTESIAN_POINT('',(5.975074811075,0.51439515207));
#866 = CARTESIAN_POINT('',(5.979207517802,0.35635051991));
#867 = CARTESIAN_POINT('',(5.983520698987,0.1999994));
#868 = ( GEOMETRIC_REPRESENTATION_CONTEXT(2) 
PARAMETRIC_REPRESENTATION_CONTEXT() REPRESENTATION_CONTEXT('2D SPACE',''
  ) );
#869 = ORIENTED_EDGE('',*,*,#870,.T.);
#870 = EDGE_CURVE('',#686,#273,#871,.T.);
#871 = SURFACE_CURVE('',#872,(#876,#882),.PCURVE_S1.);
#872 = LINE('',#873,#874);
#873 = CARTESIAN_POINT('',(15.,-7.483314773548,0.));
#874 = VECTOR('',#875,1.);
#875 = DIRECTION('',(1.,0.,0.));
#876 = PCURVE('',#211,#877);
#877 = DEFINITIONAL_REPRESENTATION('',(#878),#881);
#878 = B_SPLINE_CURVE_WITH_KNOTS('',1,(#879,#880),.UNSPECIFIED.,.F.,.F.,
  (2,2),(9.220291080001,10.421447637772),.PIECEWISE_BEZIER_KNOTS.);
#879 = CARTESIAN_POINT('',(8.443012604191,9.220291080001));
#880 = CARTESIAN_POINT('',(8.443012604191,10.421447637772));
#881 = ( GEOMETRIC_REPRESENTATION_CONTEXT(2) 
PARAMETRIC_REPRESENTATION_CONTEXT() REPRESENTATION_CONTEXT('2D SPACE',''
  ) );
#882 = PCURVE('',#289,#883);
#883 = DEFINITIONAL_REPRESENTATION('',(#884),#887);
#884 = B_SPLINE_CURVE_WITH_KNOTS('',1,(#885,#886),.UNSPECIFIED.,.F.,.F.,
  (2,2),(-5.999999999062E-07,16.8),.PIECEWISE_BEZIER_KNOTS.);
#885 = CARTESIAN_POINT('',(14.9999994,-7.483314773548));
#886 = CARTESIAN_POINT('',(31.8,-7.483314773548));
#887 = ( GEOMETRIC_REPRESENTATION_CONTEXT(2) 
PARAMETRIC_REPRESENTATION_CONTEXT() REPRESENTATION_CONTEXT('2D SPACE',''
  ) );
#888 = ADVANCED_FACE('',(#889),#289,.F.);
#889 = FACE_BOUND('',#890,.F.);
#890 = EDGE_LOOP('',(#891,#892,#893,#894));
#891 = ORIENTED_EDGE('',*,*,#474,.T.);
#892 = ORIENTED_EDGE('',*,*,#272,.T.);
#893 = ORIENTED_EDGE('',*,*,#870,.F.);
#894 = ORIENTED_EDGE('',*,*,#895,.F.);
#895 = EDGE_CURVE('',#475,#686,#896,.T.);
#896 = SURFACE_CURVE('',#897,(#902,#909),.PCURVE_S1.);
#897 = CIRCLE('',#898,25.35);
#898 = AXIS2_PLACEMENT_3D('',#899,#900,#901);
#899 = CARTESIAN_POINT('',(0.,0.,0.));
#900 = DIRECTION('',(0.,0.,1.));
#901 = DIRECTION('',(1.,0.,-0.));
#902 = PCURVE('',#289,#903);
#903 = DEFINITIONAL_REPRESENTATION('',(#904),#908);
#904 = CIRCLE('',#905,25.35);
#905 = AXIS2_PLACEMENT_2D('',#906,#907);
#906 = CARTESIAN_POINT('',(0.,0.));
#907 = DIRECTION('',(1.,0.));
#908 = ( GEOMETRIC_REPRESENTATION_CONTEXT(2) 
PARAMETRIC_REPRESENTATION_CONTEXT() REPRESENTATION_CONTEXT('2D SPACE',''
  ) );
#909 = PCURVE('',#619,#910);
#910 = DEFINITIONAL_REPRESENTATION('',(#911),#915);
#911 = LINE('',#912,#913);
#912 = CARTESIAN_POINT('',(0.,0.2));
#913 = VECTOR('',#914,1.);
#914 = DIRECTION('',(1.,0.));
#915 = ( GEOMETRIC_REPRESENTATION_CONTEXT(2) 
PARAMETRIC_REPRESENTATION_CONTEXT() REPRESENTATION_CONTEXT('2D SPACE',''
  ) );
#916 = ADVANCED_FACE('',(#917,#920),#84,.T.);
#917 = FACE_BOUND('',#918,.T.);
#918 = EDGE_LOOP('',(#919));
#919 = ORIENTED_EDGE('',*,*,#69,.T.);
#920 = FACE_BOUND('',#921,.T.);
#921 = EDGE_LOOP('',(#922));
#922 = ORIENTED_EDGE('',*,*,#923,.F.);
#923 = EDGE_CURVE('',#924,#924,#926,.T.);
#924 = VERTEX_POINT('',#925);
#925 = CARTESIAN_POINT('',(25.35,-6.208959271677E-15,46.4));
#926 = SURFACE_CURVE('',#927,(#932,#939),.PCURVE_S1.);
#927 = CIRCLE('',#928,25.35);
#928 = AXIS2_PLACEMENT_3D('',#929,#930,#931);
#929 = CARTESIAN_POINT('',(0.,0.,46.4));
#930 = DIRECTION('',(0.,0.,1.));
#931 = DIRECTION('',(1.,0.,-0.));
#932 = PCURVE('',#84,#933);
#933 = DEFINITIONAL_REPRESENTATION('',(#934),#938);
#934 = CIRCLE('',#935,25.35);
#935 = AXIS2_PLACEMENT_2D('',#936,#937);
#936 = CARTESIAN_POINT('',(0.,0.));
#937 = DIRECTION('',(1.,0.));
#938 = ( GEOMETRIC_REPRESENTATION_CONTEXT(2) 
PARAMETRIC_REPRESENTATION_CONTEXT() REPRESENTATION_CONTEXT('2D SPACE',''
  ) );
#939 = PCURVE('',#619,#940);
#940 = DEFINITIONAL_REPRESENTATION('',(#941),#945);
#941 = LINE('',#942,#943);
#942 = CARTESIAN_POINT('',(0.,46.6));
#943 = VECTOR('',#944,1.);
#944 = DIRECTION('',(1.,0.));
#945 = ( GEOMETRIC_REPRESENTATION_CONTEXT(2) 
PARAMETRIC_REPRESENTATION_CONTEXT() REPRESENTATION_CONTEXT('2D SPACE',''
  ) );
#946 = ADVANCED_FACE('',(#947),#619,.F.);
#947 = FACE_BOUND('',#948,.F.);
#948 = EDGE_LOOP('',(#949,#970,#971,#972,#973,#974));
#949 = ORIENTED_EDGE('',*,*,#950,.T.);
#950 = EDGE_CURVE('',#496,#924,#951,.T.);
#951 = SEAM_CURVE('',#952,(#956,#963),.PCURVE_S1.);
#952 = LINE('',#953,#954);
#953 = CARTESIAN_POINT('',(25.35,-6.208959271677E-15,-0.2));
#954 = VECTOR('',#955,1.);
#955 = DIRECTION('',(0.,0.,1.));
#956 = PCURVE('',#619,#957);
#957 = DEFINITIONAL_REPRESENTATION('',(#958),#962);
#958 = LINE('',#959,#960);
#959 = CARTESIAN_POINT('',(6.28318530718,-0.));
#960 = VECTOR('',#961,1.);
#961 = DIRECTION('',(0.,1.));
#962 = ( GEOMETRIC_REPRESENTATION_CONTEXT(2) 
PARAMETRIC_REPRESENTATION_CONTEXT() REPRESENTATION_CONTEXT('2D SPACE',''
  ) );
#963 = PCURVE('',#619,#964);
#964 = DEFINITIONAL_REPRESENTATION('',(#965),#969);
#965 = LINE('',#966,#967);
#966 = CARTESIAN_POINT('',(0.,-0.));
#967 = VECTOR('',#968,1.);
#968 = DIRECTION('',(0.,1.));
#969 = ( GEOMETRIC_REPRESENTATION_CONTEXT(2) 
PARAMETRIC_REPRESENTATION_CONTEXT() REPRESENTATION_CONTEXT('2D SPACE',''
  ) );
#970 = ORIENTED_EDGE('',*,*,#923,.F.);
#971 = ORIENTED_EDGE('',*,*,#950,.F.);
#972 = ORIENTED_EDGE('',*,*,#495,.F.);
#973 = ORIENTED_EDGE('',*,*,#895,.T.);
#974 = ORIENTED_EDGE('',*,*,#685,.F.);
#975 = ( GEOMETRIC_REPRESENTATION_CONTEXT(3) 
GLOBAL_UNCERTAINTY_ASSIGNED_CONTEXT((#979)) GLOBAL_UNIT_ASSIGNED_CONTEXT
((#976,#977,#978)) REPRESENTATION_CONTEXT('Context #1',
  '3D Context with UNIT and UNCERTAINTY') );
#976 = ( LENGTH_UNIT() NAMED_UNIT(*) SI_UNIT(.MILLI.,.METRE.) );
#977 = ( NAMED_UNIT(*) PLANE_ANGLE_UNIT() SI_UNIT($,.RADIAN.) );
#978 = ( NAMED_UNIT(*) SI_UNIT($,.STERADIAN.) SOLID_ANGLE_UNIT() );
#979 = UNCERTAINTY_MEASURE_WITH_UNIT(LENGTH_MEASURE(2.E-07),#976,
  'distance_accuracy_value','confusion accuracy');
#980 = CONTEXT_DEPENDENT_SHAPE_REPRESENTATION(#981,#983);
#981 = ( REPRESENTATION_RELATIONSHIP('','',#32,#10) 
REPRESENTATION_RELATIONSHIP_WITH_TRANSFORMATION(#982) 
SHAPE_REPRESENTATION_RELATIONSHIP() );
#982 = ITEM_DEFINED_TRANSFORMATION('','',#11,#15);
#983 = PRODUCT_DEFINITION_SHAPE('Placement','Placement of an item',#984
  );
#984 = NEXT_ASSEMBLY_USAGE_OCCURRENCE('39',
'SHORTENED_AFT_GRADE-9_TITANIUM_SHELL_CLOSURE_SEGMENT_TI_STOWED_LOCAL_
DEFINITION','',#5,#27,$);
#985 = PRODUCT_RELATED_PRODUCT_CATEGORY('part',$,(#29));
#986 = MECHANICAL_DESIGN_GEOMETRIC_PRESENTATION_REPRESENTATION('',(#987)
  ,#975);
#987 = STYLED_ITEM('color',(#988),#33);
#988 = PRESENTATION_STYLE_ASSIGNMENT((#989));
#989 = SURFACE_STYLE_USAGE(.BOTH.,#990);
#990 = SURFACE_SIDE_STYLE('',(#991));
#991 = SURFACE_STYLE_FILL_AREA(#992);
#992 = FILL_AREA_STYLE('',(#993));
#993 = FILL_AREA_STYLE_COLOUR('',#994);
#994 = COLOUR_RGB('',0.530000000233,0.590000005974,0.640000008347);
ENDSEC;
END-ISO-10303-21;
