ISO-10303-21;
HEADER;
FILE_DESCRIPTION(('Open CASCADE Model'),'2;1');
FILE_NAME('Open CASCADE Shape Model','2026-08-26T03:20:21',('Author'),(
    'Open CASCADE'),'Open CASCADE STEP processor 7.9','Open CASCADE 7.9'
  ,'Unknown');
FILE_SCHEMA((
'AP242_MANAGED_MODEL_BASED_3D_ENGINEERING_MIM_LF {1 0 10303 442 1 1 4 }'
    ));
ENDSEC;
DATA;
#1 = APPLICATION_PROTOCOL_DEFINITION('international standard',
  'ap242_managed_model_based_3d_engineering',2013,#2);
#2 = APPLICATION_CONTEXT('Managed model based 3d engineering');
#3 = SHAPE_DEFINITION_REPRESENTATION(#4,#10);
#4 = PRODUCT_DEFINITION_SHAPE('','',#5);
#5 = PRODUCT_DEFINITION('design','',#6,#9);
#6 = PRODUCT_DEFINITION_FORMATION('','',#7);
#7 = PRODUCT(
  'PRESS-FIT_LOCK_GUIDE_OUTER_RETAINER_BUSHING_PEEK_STOWED_PART',
  'PRESS-FIT_LOCK_GUIDE_OUTER_RETAINER_BUSHING_PEEK_STOWED_PART','',(#8)
  );
#8 = PRODUCT_CONTEXT('',#2,'mechanical');
#9 = PRODUCT_DEFINITION_CONTEXT('part definition',#2,'design');
#10 = SHAPE_REPRESENTATION('',(#11,#15),#19);
#11 = AXIS2_PLACEMENT_3D('',#12,#13,#14);
#12 = CARTESIAN_POINT('',(0.,0.,0.));
#13 = DIRECTION('',(0.,0.,1.));
#14 = DIRECTION('',(1.,0.,-0.));
#15 = AXIS2_PLACEMENT_3D('',#16,#17,#18);
#16 = CARTESIAN_POINT('',(0.,0.,0.));
#17 = DIRECTION('',(0.,0.,1.));
#18 = DIRECTION('',(1.,0.,-0.));
#19 = ( GEOMETRIC_REPRESENTATION_CONTEXT(3) 
GLOBAL_UNCERTAINTY_ASSIGNED_CONTEXT((#23)) GLOBAL_UNIT_ASSIGNED_CONTEXT(
(#20,#21,#22)) REPRESENTATION_CONTEXT('Context #1',
  '3D Context with UNIT and UNCERTAINTY') );
#20 = ( LENGTH_UNIT() NAMED_UNIT(*) SI_UNIT(.MILLI.,.METRE.) );
#21 = ( NAMED_UNIT(*) PLANE_ANGLE_UNIT() SI_UNIT($,.RADIAN.) );
#22 = ( NAMED_UNIT(*) SI_UNIT($,.STERADIAN.) SOLID_ANGLE_UNIT() );
#23 = UNCERTAINTY_MEASURE_WITH_UNIT(LENGTH_MEASURE(1.E-07),#20,
  'distance_accuracy_value','confusion accuracy');
#24 = PRODUCT_RELATED_PRODUCT_CATEGORY('part',$,(#7));
#25 = SHAPE_DEFINITION_REPRESENTATION(#26,#32);
#26 = PRODUCT_DEFINITION_SHAPE('','',#27);
#27 = PRODUCT_DEFINITION('design','',#28,#31);
#28 = PRODUCT_DEFINITION_FORMATION('','',#29);
#29 = PRODUCT(
'PRESS-FIT_LOCK_GUIDE_OUTER_RETAINER_BUSHING_PEEK_STOWED_LOCAL_
DEFINITION',
'PRESS-FIT_LOCK_GUIDE_OUTER_RETAINER_BUSHING_PEEK_STOWED_LOCAL_
DEFINITION','',(#30));
#30 = PRODUCT_CONTEXT('',#2,'mechanical');
#31 = PRODUCT_DEFINITION_CONTEXT('part definition',#2,'design');
#32 = ADVANCED_BREP_SHAPE_REPRESENTATION('',(#11,#33),#639);
#33 = MANIFOLD_SOLID_BREP('',#34);
#34 = CLOSED_SHELL('',(#35,#184,#289,#392,#472,#545,#605,#632));
#35 = ADVANCED_FACE('',(#36),#50,.T.);
#36 = FACE_BOUND('',#37,.T.);
#37 = EDGE_LOOP('',(#38,#73,#102,#157));
#38 = ORIENTED_EDGE('',*,*,#39,.T.);
#39 = EDGE_CURVE('',#40,#42,#44,.T.);
#40 = VERTEX_POINT('',#41);
#41 = CARTESIAN_POINT('',(-2.449293598295E-16,-0.15,1.));
#42 = VERTEX_POINT('',#43);
#43 = CARTESIAN_POINT('',(-2.449293598295E-16,0.15,1.));
#44 = SURFACE_CURVE('',#45,(#49,#61),.PCURVE_S1.);
#45 = LINE('',#46,#47);
#46 = CARTESIAN_POINT('',(-2.449293598295E-16,-0.15,1.));
#47 = VECTOR('',#48,1.);
#48 = DIRECTION('',(0.,1.,0.));
#49 = PCURVE('',#50,#55);
#50 = CYLINDRICAL_SURFACE('',#51,1.);
#51 = AXIS2_PLACEMENT_3D('',#52,#53,#54);
#52 = CARTESIAN_POINT('',(0.,-0.15,0.));
#53 = DIRECTION('',(0.,1.,0.));
#54 = DIRECTION('',(0.,-0.,1.));
#55 = DEFINITIONAL_REPRESENTATION('',(#56),#60);
#56 = LINE('',#57,#58);
#57 = CARTESIAN_POINT('',(6.28318530718,-0.));
#58 = VECTOR('',#59,1.);
#59 = DIRECTION('',(0.,1.));
#60 = ( GEOMETRIC_REPRESENTATION_CONTEXT(2) 
PARAMETRIC_REPRESENTATION_CONTEXT() REPRESENTATION_CONTEXT('2D SPACE',''
  ) );
#61 = PCURVE('',#62,#67);
#62 = CYLINDRICAL_SURFACE('',#63,1.);
#63 = AXIS2_PLACEMENT_3D('',#64,#65,#66);
#64 = CARTESIAN_POINT('',(0.,-0.15,0.));
#65 = DIRECTION('',(0.,1.,0.));
#66 = DIRECTION('',(0.,-0.,1.));
#67 = DEFINITIONAL_REPRESENTATION('',(#68),#72);
#68 = LINE('',#69,#70);
#69 = CARTESIAN_POINT('',(0.,-0.));
#70 = VECTOR('',#71,1.);
#71 = DIRECTION('',(0.,1.));
#72 = ( GEOMETRIC_REPRESENTATION_CONTEXT(2) 
PARAMETRIC_REPRESENTATION_CONTEXT() REPRESENTATION_CONTEXT('2D SPACE',''
  ) );
#73 = ORIENTED_EDGE('',*,*,#74,.F.);
#74 = EDGE_CURVE('',#75,#42,#77,.T.);
#75 = VERTEX_POINT('',#76);
#76 = CARTESIAN_POINT('',(0.56438424114,0.15,-0.825512221807));
#77 = SURFACE_CURVE('',#78,(#83,#90),.PCURVE_S1.);
#78 = CIRCLE('',#79,1.);
#79 = AXIS2_PLACEMENT_3D('',#80,#81,#82);
#80 = CARTESIAN_POINT('',(0.,0.15,0.));
#81 = DIRECTION('',(0.,1.,0.));
#82 = DIRECTION('',(0.,-0.,1.));
#83 = PCURVE('',#50,#84);
#84 = DEFINITIONAL_REPRESENTATION('',(#85),#89);
#85 = LINE('',#86,#87);
#86 = CARTESIAN_POINT('',(0.,0.3));
#87 = VECTOR('',#88,1.);
#88 = DIRECTION('',(1.,0.));
#89 = ( GEOMETRIC_REPRESENTATION_CONTEXT(2) 
PARAMETRIC_REPRESENTATION_CONTEXT() REPRESENTATION_CONTEXT('2D SPACE',''
  ) );
#90 = PCURVE('',#91,#96);
#91 = PLANE('',#92);
#92 = AXIS2_PLACEMENT_3D('',#93,#94,#95);
#93 = CARTESIAN_POINT('',(0.,0.15,0.));
#94 = DIRECTION('',(0.,1.,0.));
#95 = DIRECTION('',(0.,-0.,1.));
#96 = DEFINITIONAL_REPRESENTATION('',(#97),#101);
#97 = CIRCLE('',#98,1.);
#98 = AXIS2_PLACEMENT_2D('',#99,#100);
#99 = CARTESIAN_POINT('',(0.,0.));
#100 = DIRECTION('',(1.,0.));
#101 = ( GEOMETRIC_REPRESENTATION_CONTEXT(2) 
PARAMETRIC_REPRESENTATION_CONTEXT() REPRESENTATION_CONTEXT('2D SPACE',''
  ) );
#102 = ORIENTED_EDGE('',*,*,#103,.F.);
#103 = EDGE_CURVE('',#104,#75,#106,.T.);
#104 = VERTEX_POINT('',#105);
#105 = CARTESIAN_POINT('',(0.773864417907,-0.15,-0.633351294857));
#106 = SURFACE_CURVE('',#107,(#120,#136),.PCURVE_S1.);
#107 = B_SPLINE_CURVE_WITH_KNOTS('',6,(#108,#109,#110,#111,#112,#113,
    #114,#115,#116,#117,#118,#119),.UNSPECIFIED.,.F.,.F.,(7,5,7),(0.,
    0.116651479117,1.),.UNSPECIFIED.);
#108 = CARTESIAN_POINT('',(0.773864998926,-0.1500006,-0.633350584935));
#109 = CARTESIAN_POINT('',(0.769593270882,-0.145589323244,
    -0.638570033525));
#110 = CARTESIAN_POINT('',(0.765306310677,-0.141105758195,
    -0.643721902284));
#111 = CARTESIAN_POINT('',(0.761006291054,-0.136549982974,
    -0.648805585003));
#112 = CARTESIAN_POINT('',(0.756695401084,-0.131922147415,
    -0.653820548019));
#113 = CARTESIAN_POINT('',(0.752375846168,-0.127222473066,
    -0.658766330207));
#114 = CARTESIAN_POINT('',(0.715291034451,-8.632097818593E-02,
    -0.700567881451));
#115 = CARTESIAN_POINT('',(0.682225456372,-4.615741580651E-02,
    -0.733433148944));
#116 = CARTESIAN_POINT('',(0.649758218034,-2.050685469608E-03,
    -0.76216624121));
#117 = CARTESIAN_POINT('',(0.618793928145,4.572475499749E-02,
    -0.786898832738));
#118 = CARTESIAN_POINT('',(0.590136310928,9.666142248163E-02,
    -0.807906120972));
#119 = CARTESIAN_POINT('',(0.564383951457,0.1500006,-0.825512419857));
#120 = PCURVE('',#50,#121);
#121 = DEFINITIONAL_REPRESENTATION('',(#122),#135);
#122 = B_SPLINE_CURVE_WITH_KNOTS('',6,(#123,#124,#125,#126,#127,#128,
    #129,#130,#131,#132,#133,#134),.UNSPECIFIED.,.F.,.F.,(7,5,7),(0.,
    0.116651479117,1.),.UNSPECIFIED.);
#123 = CARTESIAN_POINT('',(2.256671583989,-6.E-07));
#124 = CARTESIAN_POINT('',(2.263416234022,4.410676756372E-03));
#125 = CARTESIAN_POINT('',(2.270118233296,8.894241804851E-03));
#126 = CARTESIAN_POINT('',(2.276776290043,1.345001702575E-02));
#127 = CARTESIAN_POINT('',(2.283389121302,1.807785258497E-02));
#128 = CARTESIAN_POINT('',(2.289955452923,2.277752693398E-02));
#129 = CARTESIAN_POINT('',(2.345836155732,6.367902181407E-02));
#130 = CARTESIAN_POINT('',(2.392364685685,0.103842584193));
#131 = CARTESIAN_POINT('',(2.435621855918,0.14794931453));
#132 = CARTESIAN_POINT('',(2.475196916995,0.195724754997));
#133 = CARTESIAN_POINT('',(2.510710247421,0.246661422482));
#134 = CARTESIAN_POINT('',(2.54190585254,0.3000006));
#135 = ( GEOMETRIC_REPRESENTATION_CONTEXT(2) 
PARAMETRIC_REPRESENTATION_CONTEXT() REPRESENTATION_CONTEXT('2D SPACE',''
  ) );
#136 = PCURVE('',#137,#142);
#137 = CYLINDRICAL_SURFACE('',#138,1.15);
#138 = AXIS2_PLACEMENT_3D('',#139,#140,#141);
#139 = CARTESIAN_POINT('',(1.6,0.65,-2.05));
#140 = DIRECTION('',(0.,0.,1.));
#141 = DIRECTION('',(1.,0.,-0.));
#142 = DEFINITIONAL_REPRESENTATION('',(#143),#156);
#143 = B_SPLINE_CURVE_WITH_KNOTS('',6,(#144,#145,#146,#147,#148,#149,
    #150,#151,#152,#153,#154,#155),.UNSPECIFIED.,.F.,.F.,(7,5,7),(0.,
    0.116651479117,1.),.UNSPECIFIED.);
#144 = CARTESIAN_POINT('',(3.910920723386,1.416649415065));
#145 = CARTESIAN_POINT('',(3.905581067337,1.411429966475));
#146 = CARTESIAN_POINT('',(3.900187040392,1.406278097716));
#147 = CARTESIAN_POINT('',(3.894739731392,1.401194414997));
#148 = CARTESIAN_POINT('',(3.889240256288,1.396179451981));
#149 = CARTESIAN_POINT('',(3.88368975815,1.391233669793));
#150 = CARTESIAN_POINT('',(3.835680499879,1.349432118549));
#151 = CARTESIAN_POINT('',(3.790494187904,1.316566851056));
#152 = CARTESIAN_POINT('',(3.742979881023,1.28783375879));
#153 = CARTESIAN_POINT('',(3.693615558376,1.263101167262));
#154 = CARTESIAN_POINT('',(3.642893715396,1.242093879028));
#155 = CARTESIAN_POINT('',(3.591388934649,1.224487580143));
#156 = ( GEOMETRIC_REPRESENTATION_CONTEXT(2) 
PARAMETRIC_REPRESENTATION_CONTEXT() REPRESENTATION_CONTEXT('2D SPACE',''
  ) );
#157 = ORIENTED_EDGE('',*,*,#158,.T.);
#158 = EDGE_CURVE('',#104,#40,#159,.T.);
#159 = SURFACE_CURVE('',#160,(#165,#172),.PCURVE_S1.);
#160 = CIRCLE('',#161,1.);
#161 = AXIS2_PLACEMENT_3D('',#162,#163,#164);
#162 = CARTESIAN_POINT('',(0.,-0.15,0.));
#163 = DIRECTION('',(0.,1.,0.));
#164 = DIRECTION('',(0.,-0.,1.));
#165 = PCURVE('',#50,#166);
#166 = DEFINITIONAL_REPRESENTATION('',(#167),#171);
#167 = LINE('',#168,#169);
#168 = CARTESIAN_POINT('',(0.,0.));
#169 = VECTOR('',#170,1.);
#170 = DIRECTION('',(1.,0.));
#171 = ( GEOMETRIC_REPRESENTATION_CONTEXT(2) 
PARAMETRIC_REPRESENTATION_CONTEXT() REPRESENTATION_CONTEXT('2D SPACE',''
  ) );
#172 = PCURVE('',#173,#178);
#173 = PLANE('',#174);
#174 = AXIS2_PLACEMENT_3D('',#175,#176,#177);
#175 = CARTESIAN_POINT('',(0.,-0.15,0.));
#176 = DIRECTION('',(0.,1.,0.));
#177 = DIRECTION('',(0.,-0.,1.));
#178 = DEFINITIONAL_REPRESENTATION('',(#179),#183);
#179 = CIRCLE('',#180,1.);
#180 = AXIS2_PLACEMENT_2D('',#181,#182);
#181 = CARTESIAN_POINT('',(0.,0.));
#182 = DIRECTION('',(1.,0.));
#183 = ( GEOMETRIC_REPRESENTATION_CONTEXT(2) 
PARAMETRIC_REPRESENTATION_CONTEXT() REPRESENTATION_CONTEXT('2D SPACE',''
  ) );
#184 = ADVANCED_FACE('',(#185),#62,.T.);
#185 = FACE_BOUND('',#186,.T.);
#186 = EDGE_LOOP('',(#187,#211,#212,#236));
#187 = ORIENTED_EDGE('',*,*,#188,.F.);
#188 = EDGE_CURVE('',#42,#189,#191,.T.);
#189 = VERTEX_POINT('',#190);
#190 = CARTESIAN_POINT('',(0.56438424114,0.15,0.825512221807));
#191 = SURFACE_CURVE('',#192,(#197,#204),.PCURVE_S1.);
#192 = CIRCLE('',#193,1.);
#193 = AXIS2_PLACEMENT_3D('',#194,#195,#196);
#194 = CARTESIAN_POINT('',(0.,0.15,0.));
#195 = DIRECTION('',(0.,1.,0.));
#196 = DIRECTION('',(0.,-0.,1.));
#197 = PCURVE('',#62,#198);
#198 = DEFINITIONAL_REPRESENTATION('',(#199),#203);
#199 = LINE('',#200,#201);
#200 = CARTESIAN_POINT('',(0.,0.3));
#201 = VECTOR('',#202,1.);
#202 = DIRECTION('',(1.,0.));
#203 = ( GEOMETRIC_REPRESENTATION_CONTEXT(2) 
PARAMETRIC_REPRESENTATION_CONTEXT() REPRESENTATION_CONTEXT('2D SPACE',''
  ) );
#204 = PCURVE('',#91,#205);
#205 = DEFINITIONAL_REPRESENTATION('',(#206),#210);
#206 = CIRCLE('',#207,1.);
#207 = AXIS2_PLACEMENT_2D('',#208,#209);
#208 = CARTESIAN_POINT('',(0.,0.));
#209 = DIRECTION('',(1.,0.));
#210 = ( GEOMETRIC_REPRESENTATION_CONTEXT(2) 
PARAMETRIC_REPRESENTATION_CONTEXT() REPRESENTATION_CONTEXT('2D SPACE',''
  ) );
#211 = ORIENTED_EDGE('',*,*,#39,.F.);
#212 = ORIENTED_EDGE('',*,*,#213,.T.);
#213 = EDGE_CURVE('',#40,#214,#216,.T.);
#214 = VERTEX_POINT('',#215);
#215 = CARTESIAN_POINT('',(0.773864417907,-0.15,0.633351294857));
#216 = SURFACE_CURVE('',#217,(#222,#229),.PCURVE_S1.);
#217 = CIRCLE('',#218,1.);
#218 = AXIS2_PLACEMENT_3D('',#219,#220,#221);
#219 = CARTESIAN_POINT('',(0.,-0.15,0.));
#220 = DIRECTION('',(0.,1.,0.));
#221 = DIRECTION('',(0.,-0.,1.));
#222 = PCURVE('',#62,#223);
#223 = DEFINITIONAL_REPRESENTATION('',(#224),#228);
#224 = LINE('',#225,#226);
#225 = CARTESIAN_POINT('',(0.,0.));
#226 = VECTOR('',#227,1.);
#227 = DIRECTION('',(1.,0.));
#228 = ( GEOMETRIC_REPRESENTATION_CONTEXT(2) 
PARAMETRIC_REPRESENTATION_CONTEXT() REPRESENTATION_CONTEXT('2D SPACE',''
  ) );
#229 = PCURVE('',#173,#230);
#230 = DEFINITIONAL_REPRESENTATION('',(#231),#235);
#231 = CIRCLE('',#232,1.);
#232 = AXIS2_PLACEMENT_2D('',#233,#234);
#233 = CARTESIAN_POINT('',(0.,0.));
#234 = DIRECTION('',(1.,0.));
#235 = ( GEOMETRIC_REPRESENTATION_CONTEXT(2) 
PARAMETRIC_REPRESENTATION_CONTEXT() REPRESENTATION_CONTEXT('2D SPACE',''
  ) );
#236 = ORIENTED_EDGE('',*,*,#237,.F.);
#237 = EDGE_CURVE('',#189,#214,#238,.T.);
#238 = SURFACE_CURVE('',#239,(#252,#268),.PCURVE_S1.);
#239 = B_SPLINE_CURVE_WITH_KNOTS('',6,(#240,#241,#242,#243,#244,#245,
    #246,#247,#248,#249,#250,#251),.UNSPECIFIED.,.F.,.F.,(7,5,7),(0.,
    0.883522446248,1.),.UNSPECIFIED.);
#240 = CARTESIAN_POINT('',(0.564383951457,0.1500006,0.825512419857));
#241 = CARTESIAN_POINT('',(0.590141892368,9.664986200938E-02,
    0.807902305069));
#242 = CARTESIAN_POINT('',(0.618805804876,4.570380367628E-02,
    0.786890100937));
#243 = CARTESIAN_POINT('',(0.649776770199,-2.079139742894E-03,
    0.762151350581));
#244 = CARTESIAN_POINT('',(0.682250798212,-4.619179341751E-02,
    0.733410659204));
#245 = CARTESIAN_POINT('',(0.715323088121,-8.635994351404E-02,
    0.700536059515));
#246 = CARTESIAN_POINT('',(0.752407843021,-0.127257284278,0.658729692865
    ));
#247 = CARTESIAN_POINT('',(0.756720947207,-0.131949570952,0.653790828525
    ));
#248 = CARTESIAN_POINT('',(0.761025402387,-0.136570230614,0.648782990158
    ));
#249 = CARTESIAN_POINT('',(0.765319013008,-0.141119042935,0.643706637034
    ));
#250 = CARTESIAN_POINT('',(0.76959959963,-0.145595858739,0.638562300689)
  );
#251 = CARTESIAN_POINT('',(0.773864998926,-0.1500006,0.633350584935));
#252 = PCURVE('',#62,#253);
#253 = DEFINITIONAL_REPRESENTATION('',(#254),#267);
#254 = B_SPLINE_CURVE_WITH_KNOTS('',6,(#255,#256,#257,#258,#259,#260,
    #261,#262,#263,#264,#265,#266),.UNSPECIFIED.,.F.,.F.,(7,5,7),(0.,
    0.883522446248,1.),.UNSPECIFIED.);
#255 = CARTESIAN_POINT('',(0.59968680105,0.3000006));
#256 = CARTESIAN_POINT('',(0.630889167351,0.246649862009));
#257 = CARTESIAN_POINT('',(0.666410470146,0.195703803676));
#258 = CARTESIAN_POINT('',(0.705994550293,0.147920860257));
#259 = CARTESIAN_POINT('',(0.749261779082,0.103808206582));
#260 = CARTESIAN_POINT('',(0.795801574348,6.364005648596E-02));
#261 = CARTESIAN_POINT('',(0.851685841708,2.274271572235E-02));
#262 = CARTESIAN_POINT('',(0.858242720415,1.805042904765E-02));
#263 = CARTESIAN_POINT('',(0.864845955532,1.342976938559E-02));
#264 = CARTESIAN_POINT('',(0.871494278563,8.880957064574E-03));
#265 = CARTESIAN_POINT('',(0.878186412055,4.404141261146E-03));
#266 = CARTESIAN_POINT('',(0.8849210696,-6.E-07));
#267 = ( GEOMETRIC_REPRESENTATION_CONTEXT(2) 
PARAMETRIC_REPRESENTATION_CONTEXT() REPRESENTATION_CONTEXT('2D SPACE',''
  ) );
#268 = PCURVE('',#269,#274);
#269 = CYLINDRICAL_SURFACE('',#270,1.15);
#270 = AXIS2_PLACEMENT_3D('',#271,#272,#273);
#271 = CARTESIAN_POINT('',(1.6,0.65,-2.05));
#272 = DIRECTION('',(0.,0.,1.));
#273 = DIRECTION('',(1.,0.,-0.));
#274 = DEFINITIONAL_REPRESENTATION('',(#275),#288);
#275 = B_SPLINE_CURVE_WITH_KNOTS('',6,(#276,#277,#278,#279,#280,#281,
    #282,#283,#284,#285,#286,#287),.UNSPECIFIED.,.F.,.F.,(7,5,7),(0.,
    0.883522446248,1.),.UNSPECIFIED.);
#276 = CARTESIAN_POINT('',(3.591388934649,2.875512419857));
#277 = CARTESIAN_POINT('',(3.64290487829,2.857902305069));
#278 = CARTESIAN_POINT('',(3.693636454796,2.836890100937));
#279 = CARTESIAN_POINT('',(3.743009337497,2.812151350581));
#280 = CARTESIAN_POINT('',(3.79053124312,2.783410659204));
#281 = CARTESIAN_POINT('',(3.835724323202,2.750536059515));
#282 = CARTESIAN_POINT('',(3.883730872279,2.708729692865));
#283 = CARTESIAN_POINT('',(3.889272845408,2.703790828525));
#284 = CARTESIAN_POINT('',(3.894763941577,2.698782990158));
#285 = CARTESIAN_POINT('',(3.900203022895,2.693706637034));
#286 = CARTESIAN_POINT('',(3.905588978265,2.688562300689));
#287 = CARTESIAN_POINT('',(3.910920723386,2.683350584935));
#288 = ( GEOMETRIC_REPRESENTATION_CONTEXT(2) 
PARAMETRIC_REPRESENTATION_CONTEXT() REPRESENTATION_CONTEXT('2D SPACE',''
  ) );
#289 = ADVANCED_FACE('',(#290),#173,.F.);
#290 = FACE_BOUND('',#291,.F.);
#291 = EDGE_LOOP('',(#292,#293,#294,#315,#344,#373));
#292 = ORIENTED_EDGE('',*,*,#158,.T.);
#293 = ORIENTED_EDGE('',*,*,#213,.T.);
#294 = ORIENTED_EDGE('',*,*,#295,.F.);
#295 = EDGE_CURVE('',#296,#214,#298,.T.);
#296 = VERTEX_POINT('',#297);
#297 = CARTESIAN_POINT('',(0.773864417907,-0.15,0.271171279263));
#298 = SURFACE_CURVE('',#299,(#303,#309),.PCURVE_S1.);
#299 = LINE('',#300,#301);
#300 = CARTESIAN_POINT('',(0.773864417907,-0.15,-2.05));
#301 = VECTOR('',#302,1.);
#302 = DIRECTION('',(0.,0.,1.));
#303 = PCURVE('',#173,#304);
#304 = DEFINITIONAL_REPRESENTATION('',(#305),#308);
#305 = B_SPLINE_CURVE_WITH_KNOTS('',1,(#306,#307),.UNSPECIFIED.,.F.,.F.,
  (2,2),(0.85,3.25),.PIECEWISE_BEZIER_KNOTS.);
#306 = CARTESIAN_POINT('',(-1.2,0.773864417907));
#307 = CARTESIAN_POINT('',(1.2,0.773864417907));
#308 = ( GEOMETRIC_REPRESENTATION_CONTEXT(2) 
PARAMETRIC_REPRESENTATION_CONTEXT() REPRESENTATION_CONTEXT('2D SPACE',''
  ) );
#309 = PCURVE('',#269,#310);
#310 = DEFINITIONAL_REPRESENTATION('',(#311),#314);
#311 = B_SPLINE_CURVE_WITH_KNOTS('',1,(#312,#313),.UNSPECIFIED.,.F.,.F.,
  (2,2),(0.85,3.25),.PIECEWISE_BEZIER_KNOTS.);
#312 = CARTESIAN_POINT('',(3.910919997113,0.85));
#313 = CARTESIAN_POINT('',(3.910919997113,3.25));
#314 = ( GEOMETRIC_REPRESENTATION_CONTEXT(2) 
PARAMETRIC_REPRESENTATION_CONTEXT() REPRESENTATION_CONTEXT('2D SPACE',''
  ) );
#315 = ORIENTED_EDGE('',*,*,#316,.F.);
#316 = EDGE_CURVE('',#317,#296,#319,.T.);
#317 = VERTEX_POINT('',#318);
#318 = CARTESIAN_POINT('',(-2.008420750602E-16,-0.15,0.82));
#319 = SURFACE_CURVE('',#320,(#325,#332),.PCURVE_S1.);
#320 = CIRCLE('',#321,0.82);
#321 = AXIS2_PLACEMENT_3D('',#322,#323,#324);
#322 = CARTESIAN_POINT('',(0.,-0.15,0.));
#323 = DIRECTION('',(0.,1.,0.));
#324 = DIRECTION('',(0.,-0.,1.));
#325 = PCURVE('',#173,#326);
#326 = DEFINITIONAL_REPRESENTATION('',(#327),#331);
#327 = CIRCLE('',#328,0.82);
#328 = AXIS2_PLACEMENT_2D('',#329,#330);
#329 = CARTESIAN_POINT('',(0.,0.));
#330 = DIRECTION('',(1.,0.));
#331 = ( GEOMETRIC_REPRESENTATION_CONTEXT(2) 
PARAMETRIC_REPRESENTATION_CONTEXT() REPRESENTATION_CONTEXT('2D SPACE',''
  ) );
#332 = PCURVE('',#333,#338);
#333 = CYLINDRICAL_SURFACE('',#334,0.82);
#334 = AXIS2_PLACEMENT_3D('',#335,#336,#337);
#335 = CARTESIAN_POINT('',(0.,-0.45,0.));
#336 = DIRECTION('',(0.,1.,0.));
#337 = DIRECTION('',(0.,-0.,1.));
#338 = DEFINITIONAL_REPRESENTATION('',(#339),#343);
#339 = LINE('',#340,#341);
#340 = CARTESIAN_POINT('',(0.,0.3));
#341 = VECTOR('',#342,1.);
#342 = DIRECTION('',(1.,0.));
#343 = ( GEOMETRIC_REPRESENTATION_CONTEXT(2) 
PARAMETRIC_REPRESENTATION_CONTEXT() REPRESENTATION_CONTEXT('2D SPACE',''
  ) );
#344 = ORIENTED_EDGE('',*,*,#345,.F.);
#345 = EDGE_CURVE('',#346,#317,#348,.T.);
#346 = VERTEX_POINT('',#347);
#347 = CARTESIAN_POINT('',(0.773864417907,-0.15,-0.271171279263));
#348 = SURFACE_CURVE('',#349,(#354,#361),.PCURVE_S1.);
#349 = CIRCLE('',#350,0.82);
#350 = AXIS2_PLACEMENT_3D('',#351,#352,#353);
#351 = CARTESIAN_POINT('',(0.,-0.15,0.));
#352 = DIRECTION('',(0.,1.,0.));
#353 = DIRECTION('',(0.,-0.,1.));
#354 = PCURVE('',#173,#355);
#355 = DEFINITIONAL_REPRESENTATION('',(#356),#360);
#356 = CIRCLE('',#357,0.82);
#357 = AXIS2_PLACEMENT_2D('',#358,#359);
#358 = CARTESIAN_POINT('',(0.,0.));
#359 = DIRECTION('',(1.,0.));
#360 = ( GEOMETRIC_REPRESENTATION_CONTEXT(2) 
PARAMETRIC_REPRESENTATION_CONTEXT() REPRESENTATION_CONTEXT('2D SPACE',''
  ) );
#361 = PCURVE('',#362,#367);
#362 = CYLINDRICAL_SURFACE('',#363,0.82);
#363 = AXIS2_PLACEMENT_3D('',#364,#365,#366);
#364 = CARTESIAN_POINT('',(0.,-0.45,0.));
#365 = DIRECTION('',(0.,1.,0.));
#366 = DIRECTION('',(0.,-0.,1.));
#367 = DEFINITIONAL_REPRESENTATION('',(#368),#372);
#368 = LINE('',#369,#370);
#369 = CARTESIAN_POINT('',(0.,0.3));
#370 = VECTOR('',#371,1.);
#371 = DIRECTION('',(1.,0.));
#372 = ( GEOMETRIC_REPRESENTATION_CONTEXT(2) 
PARAMETRIC_REPRESENTATION_CONTEXT() REPRESENTATION_CONTEXT('2D SPACE',''
  ) );
#373 = ORIENTED_EDGE('',*,*,#374,.F.);
#374 = EDGE_CURVE('',#104,#346,#375,.T.);
#375 = SURFACE_CURVE('',#376,(#380,#386),.PCURVE_S1.);
#376 = LINE('',#377,#378);
#377 = CARTESIAN_POINT('',(0.773864417907,-0.15,-2.05));
#378 = VECTOR('',#379,1.);
#379 = DIRECTION('',(0.,0.,1.));
#380 = PCURVE('',#173,#381);
#381 = DEFINITIONAL_REPRESENTATION('',(#382),#385);
#382 = B_SPLINE_CURVE_WITH_KNOTS('',1,(#383,#384),.UNSPECIFIED.,.F.,.F.,
  (2,2),(0.85,3.25),.PIECEWISE_BEZIER_KNOTS.);
#383 = CARTESIAN_POINT('',(-1.2,0.773864417907));
#384 = CARTESIAN_POINT('',(1.2,0.773864417907));
#385 = ( GEOMETRIC_REPRESENTATION_CONTEXT(2) 
PARAMETRIC_REPRESENTATION_CONTEXT() REPRESENTATION_CONTEXT('2D SPACE',''
  ) );
#386 = PCURVE('',#137,#387);
#387 = DEFINITIONAL_REPRESENTATION('',(#388),#391);
#388 = B_SPLINE_CURVE_WITH_KNOTS('',1,(#389,#390),.UNSPECIFIED.,.F.,.F.,
  (2,2),(0.85,3.25),.PIECEWISE_BEZIER_KNOTS.);
#389 = CARTESIAN_POINT('',(3.910919997113,0.85));
#390 = CARTESIAN_POINT('',(3.910919997113,3.25));
#391 = ( GEOMETRIC_REPRESENTATION_CONTEXT(2) 
PARAMETRIC_REPRESENTATION_CONTEXT() REPRESENTATION_CONTEXT('2D SPACE',''
  ) );
#392 = ADVANCED_FACE('',(#393),#137,.F.);
#393 = FACE_BOUND('',#394,.F.);
#394 = EDGE_LOOP('',(#395,#396,#397,#453));
#395 = ORIENTED_EDGE('',*,*,#103,.F.);
#396 = ORIENTED_EDGE('',*,*,#374,.T.);
#397 = ORIENTED_EDGE('',*,*,#398,.T.);
#398 = EDGE_CURVE('',#346,#399,#401,.T.);
#399 = VERTEX_POINT('',#400);
#400 = CARTESIAN_POINT('',(0.56438424114,0.15,-0.594870093679));
#401 = SURFACE_CURVE('',#402,(#417,#435),.PCURVE_S1.);
#402 = B_SPLINE_CURVE_WITH_KNOTS('',5,(#403,#404,#405,#406,#407,#408,
    #409,#410,#411,#412,#413,#414,#415,#416),.UNSPECIFIED.,.F.,.F.,(6,4,
    4,6),(0.,0.498040644583,0.83776683285,1.),.UNSPECIFIED.);
#403 = CARTESIAN_POINT('',(0.773864998926,-0.1500006,-0.271169621155));
#404 = CARTESIAN_POINT('',(0.758796792623,-0.134440145882,
    -0.314171331321));
#405 = CARTESIAN_POINT('',(0.74101281639,-0.115341948936,-0.355353209078
    ));
#406 = CARTESIAN_POINT('',(0.720978142078,-9.258765896358E-02,
    -0.394073858498));
#407 = CARTESIAN_POINT('',(0.699393057936,-6.611114423119E-02,
    -0.429910653754));
#408 = CARTESIAN_POINT('',(0.661741069862,-1.545122420518E-02,
    -0.485006234036));
#409 = CARTESIAN_POINT('',(0.646113457383,6.769139764606E-03,
    -0.505895463155));
#410 = CARTESIAN_POINT('',(0.630374734389,3.062411690407E-02,
    -0.525260098374));
#411 = CARTESIAN_POINT('',(0.614784139741,5.603002000668E-02,
    -0.543081308958));
#412 = CARTESIAN_POINT('',(0.592317221488,9.566056942118E-02,
    -0.567162774426));
#413 = CARTESIAN_POINT('',(0.58514287247,0.108793555403,-0.574599434711)
  );
#414 = CARTESIAN_POINT('',(0.57808066441,0.122237642973,-0.581692666029)
  );
#415 = CARTESIAN_POINT('',(0.571153890628,0.135978467867,-0.588447380882
    ));
#416 = CARTESIAN_POINT('',(0.564383951457,0.1500006,-0.594870368515));
#417 = PCURVE('',#137,#418);
#418 = DEFINITIONAL_REPRESENTATION('',(#419),#434);
#419 = B_SPLINE_CURVE_WITH_KNOTS('',5,(#420,#421,#422,#423,#424,#425,
    #426,#427,#428,#429,#430,#431,#432,#433),.UNSPECIFIED.,.F.,.F.,(6,4,
    4,6),(0.,0.498040644583,0.83776683285,1.),.UNSPECIFIED.);
#420 = CARTESIAN_POINT('',(3.910920723386,1.778830378845));
#421 = CARTESIAN_POINT('',(3.892085479633,1.735828668679));
#422 = CARTESIAN_POINT('',(3.869397238302,1.694646790922));
#423 = CARTESIAN_POINT('',(3.843050913638,1.655926141502));
#424 = CARTESIAN_POINT('',(3.813376448373,1.620089346246));
#425 = CARTESIAN_POINT('',(3.758489730852,1.564993765964));
#426 = CARTESIAN_POINT('',(3.734875578408,1.544104536845));
#427 = CARTESIAN_POINT('',(3.7100403032,1.524739901626));
#428 = CARTESIAN_POINT('',(3.68413579637,1.506918691042));
#429 = CARTESIAN_POINT('',(3.644521943199,1.482837225574));
#430 = CARTESIAN_POINT('',(3.631510659149,1.475400565289));
#431 = CARTESIAN_POINT('',(3.618307721997,1.468307333971));
#432 = CARTESIAN_POINT('',(3.604928829239,1.461552619118));
#433 = CARTESIAN_POINT('',(3.591388934649,1.455129631485));
#434 = ( GEOMETRIC_REPRESENTATION_CONTEXT(2) 
PARAMETRIC_REPRESENTATION_CONTEXT() REPRESENTATION_CONTEXT('2D SPACE',''
  ) );
#435 = PCURVE('',#362,#436);
#436 = DEFINITIONAL_REPRESENTATION('',(#437),#452);
#437 = B_SPLINE_CURVE_WITH_KNOTS('',5,(#438,#439,#440,#441,#442,#443,
    #444,#445,#446,#447,#448,#449,#450,#451),.UNSPECIFIED.,.F.,.F.,(6,4,
    4,6),(0.,0.498040644583,0.83776683285,1.),.UNSPECIFIED.);
#438 = CARTESIAN_POINT('',(1.907835880144,0.2999994));
#439 = CARTESIAN_POINT('',(1.963403337292,0.315559854118));
#440 = CARTESIAN_POINT('',(2.017970760767,0.334658051064));
#441 = CARTESIAN_POINT('',(2.070974994126,0.357412341036));
#442 = CARTESIAN_POINT('',(2.121910403093,0.383888855769));
#443 = CARTESIAN_POINT('',(2.203291213891,0.434548775795));
#444 = CARTESIAN_POINT('',(2.235076576266,0.456769139765));
#445 = CARTESIAN_POINT('',(2.265478743124,0.480624116904));
#446 = CARTESIAN_POINT('',(2.294340039148,0.506030020007));
#447 = CARTESIAN_POINT('',(2.334504028448,0.545660569421));
#448 = CARTESIAN_POINT('',(2.347103754823,0.558793555403));
#449 = CARTESIAN_POINT('',(2.359308471584,0.572237642973));
#450 = CARTESIAN_POINT('',(2.371106200875,0.585978467867));
#451 = CARTESIAN_POINT('',(2.382486729356,0.6000006));
#452 = ( GEOMETRIC_REPRESENTATION_CONTEXT(2) 
PARAMETRIC_REPRESENTATION_CONTEXT() REPRESENTATION_CONTEXT('2D SPACE',''
  ) );
#453 = ORIENTED_EDGE('',*,*,#454,.F.);
#454 = EDGE_CURVE('',#75,#399,#455,.T.);
#455 = SURFACE_CURVE('',#456,(#460,#466),.PCURVE_S1.);
#456 = LINE('',#457,#458);
#457 = CARTESIAN_POINT('',(0.56438424114,0.15,-2.05));
#458 = VECTOR('',#459,1.);
#459 = DIRECTION('',(0.,0.,1.));
#460 = PCURVE('',#137,#461);
#461 = DEFINITIONAL_REPRESENTATION('',(#462),#465);
#462 = B_SPLINE_CURVE_WITH_KNOTS('',1,(#463,#464),.UNSPECIFIED.,.F.,.F.,
  (2,2),(0.85,3.25),.PIECEWISE_BEZIER_KNOTS.);
#463 = CARTESIAN_POINT('',(3.591389514014,0.85));
#464 = CARTESIAN_POINT('',(3.591389514014,3.25));
#465 = ( GEOMETRIC_REPRESENTATION_CONTEXT(2) 
PARAMETRIC_REPRESENTATION_CONTEXT() REPRESENTATION_CONTEXT('2D SPACE',''
  ) );
#466 = PCURVE('',#91,#467);
#467 = DEFINITIONAL_REPRESENTATION('',(#468),#471);
#468 = B_SPLINE_CURVE_WITH_KNOTS('',1,(#469,#470),.UNSPECIFIED.,.F.,.F.,
  (2,2),(0.85,3.25),.PIECEWISE_BEZIER_KNOTS.);
#469 = CARTESIAN_POINT('',(-1.2,0.56438424114));
#470 = CARTESIAN_POINT('',(1.2,0.56438424114));
#471 = ( GEOMETRIC_REPRESENTATION_CONTEXT(2) 
PARAMETRIC_REPRESENTATION_CONTEXT() REPRESENTATION_CONTEXT('2D SPACE',''
  ) );
#472 = ADVANCED_FACE('',(#473),#91,.T.);
#473 = FACE_BOUND('',#474,.T.);
#474 = EDGE_LOOP('',(#475,#476,#477,#498,#522,#544));
#475 = ORIENTED_EDGE('',*,*,#74,.T.);
#476 = ORIENTED_EDGE('',*,*,#188,.T.);
#477 = ORIENTED_EDGE('',*,*,#478,.F.);
#478 = EDGE_CURVE('',#479,#189,#481,.T.);
#479 = VERTEX_POINT('',#480);
#480 = CARTESIAN_POINT('',(0.56438424114,0.15,0.594870093679));
#481 = SURFACE_CURVE('',#482,(#486,#492),.PCURVE_S1.);
#482 = LINE('',#483,#484);
#483 = CARTESIAN_POINT('',(0.56438424114,0.15,-2.05));
#484 = VECTOR('',#485,1.);
#485 = DIRECTION('',(0.,0.,1.));
#486 = PCURVE('',#91,#487);
#487 = DEFINITIONAL_REPRESENTATION('',(#488),#491);
#488 = B_SPLINE_CURVE_WITH_KNOTS('',1,(#489,#490),.UNSPECIFIED.,.F.,.F.,
  (2,2),(0.85,3.25),.PIECEWISE_BEZIER_KNOTS.);
#489 = CARTESIAN_POINT('',(-1.2,0.56438424114));
#490 = CARTESIAN_POINT('',(1.2,0.56438424114));
#491 = ( GEOMETRIC_REPRESENTATION_CONTEXT(2) 
PARAMETRIC_REPRESENTATION_CONTEXT() REPRESENTATION_CONTEXT('2D SPACE',''
  ) );
#492 = PCURVE('',#269,#493);
#493 = DEFINITIONAL_REPRESENTATION('',(#494),#497);
#494 = B_SPLINE_CURVE_WITH_KNOTS('',1,(#495,#496),.UNSPECIFIED.,.F.,.F.,
  (2,2),(0.85,3.25),.PIECEWISE_BEZIER_KNOTS.);
#495 = CARTESIAN_POINT('',(3.591389514014,0.85));
#496 = CARTESIAN_POINT('',(3.591389514014,3.25));
#497 = ( GEOMETRIC_REPRESENTATION_CONTEXT(2) 
PARAMETRIC_REPRESENTATION_CONTEXT() REPRESENTATION_CONTEXT('2D SPACE',''
  ) );
#498 = ORIENTED_EDGE('',*,*,#499,.F.);
#499 = EDGE_CURVE('',#500,#479,#502,.T.);
#500 = VERTEX_POINT('',#501);
#501 = CARTESIAN_POINT('',(-2.008420750602E-16,0.15,0.82));
#502 = SURFACE_CURVE('',#503,(#508,#515),.PCURVE_S1.);
#503 = CIRCLE('',#504,0.82);
#504 = AXIS2_PLACEMENT_3D('',#505,#506,#507);
#505 = CARTESIAN_POINT('',(0.,0.15,0.));
#506 = DIRECTION('',(0.,1.,0.));
#507 = DIRECTION('',(0.,-0.,1.));
#508 = PCURVE('',#91,#509);
#509 = DEFINITIONAL_REPRESENTATION('',(#510),#514);
#510 = CIRCLE('',#511,0.82);
#511 = AXIS2_PLACEMENT_2D('',#512,#513);
#512 = CARTESIAN_POINT('',(0.,0.));
#513 = DIRECTION('',(1.,0.));
#514 = ( GEOMETRIC_REPRESENTATION_CONTEXT(2) 
PARAMETRIC_REPRESENTATION_CONTEXT() REPRESENTATION_CONTEXT('2D SPACE',''
  ) );
#515 = PCURVE('',#333,#516);
#516 = DEFINITIONAL_REPRESENTATION('',(#517),#521);
#517 = LINE('',#518,#519);
#518 = CARTESIAN_POINT('',(0.,0.6));
#519 = VECTOR('',#520,1.);
#520 = DIRECTION('',(1.,0.));
#521 = ( GEOMETRIC_REPRESENTATION_CONTEXT(2) 
PARAMETRIC_REPRESENTATION_CONTEXT() REPRESENTATION_CONTEXT('2D SPACE',''
  ) );
#522 = ORIENTED_EDGE('',*,*,#523,.F.);
#523 = EDGE_CURVE('',#399,#500,#524,.T.);
#524 = SURFACE_CURVE('',#525,(#530,#537),.PCURVE_S1.);
#525 = CIRCLE('',#526,0.82);
#526 = AXIS2_PLACEMENT_3D('',#527,#528,#529);
#527 = CARTESIAN_POINT('',(0.,0.15,0.));
#528 = DIRECTION('',(0.,1.,0.));
#529 = DIRECTION('',(0.,-0.,1.));
#530 = PCURVE('',#91,#531);
#531 = DEFINITIONAL_REPRESENTATION('',(#532),#536);
#532 = CIRCLE('',#533,0.82);
#533 = AXIS2_PLACEMENT_2D('',#534,#535);
#534 = CARTESIAN_POINT('',(0.,0.));
#535 = DIRECTION('',(1.,0.));
#536 = ( GEOMETRIC_REPRESENTATION_CONTEXT(2) 
PARAMETRIC_REPRESENTATION_CONTEXT() REPRESENTATION_CONTEXT('2D SPACE',''
  ) );
#537 = PCURVE('',#362,#538);
#538 = DEFINITIONAL_REPRESENTATION('',(#539),#543);
#539 = LINE('',#540,#541);
#540 = CARTESIAN_POINT('',(0.,0.6));
#541 = VECTOR('',#542,1.);
#542 = DIRECTION('',(1.,0.));
#543 = ( GEOMETRIC_REPRESENTATION_CONTEXT(2) 
PARAMETRIC_REPRESENTATION_CONTEXT() REPRESENTATION_CONTEXT('2D SPACE',''
  ) );
#544 = ORIENTED_EDGE('',*,*,#454,.F.);
#545 = ADVANCED_FACE('',(#546),#269,.F.);
#546 = FACE_BOUND('',#547,.F.);
#547 = EDGE_LOOP('',(#548,#549,#550,#604));
#548 = ORIENTED_EDGE('',*,*,#237,.F.);
#549 = ORIENTED_EDGE('',*,*,#478,.F.);
#550 = ORIENTED_EDGE('',*,*,#551,.T.);
#551 = EDGE_CURVE('',#479,#296,#552,.T.);
#552 = SURFACE_CURVE('',#553,(#568,#586),.PCURVE_S1.);
#553 = B_SPLINE_CURVE_WITH_KNOTS('',5,(#554,#555,#556,#557,#558,#559,
    #560,#561,#562,#563,#564,#565,#566,#567),.UNSPECIFIED.,.F.,.F.,(6,4,
    4,6),(0.,0.163864503847,0.501808838091,1.),.UNSPECIFIED.);
#554 = CARTESIAN_POINT('',(0.564383951457,0.1500006,0.594870368515));
#555 = CARTESIAN_POINT('',(0.571221983032,0.135837432525,0.588382778135)
  );
#556 = CARTESIAN_POINT('',(0.5782200208,0.121961258591,0.581556755243));
#557 = CARTESIAN_POINT('',(0.585356009942,0.108387981235,0.574385300155)
  );
#558 = CARTESIAN_POINT('',(0.592605928128,9.513239081752E-02,
    0.566863371014));
#559 = CARTESIAN_POINT('',(0.615076942908,5.555401615192E-02,
    0.54274595083));
#560 = CARTESIAN_POINT('',(0.630587712736,3.030295176762E-02,
    0.524996755464));
#561 = CARTESIAN_POINT('',(0.646242723493,6.587303677763E-03,
    0.505720438226));
#562 = CARTESIAN_POINT('',(0.661786828085,-1.551069184232E-02,
    0.48493579892));
#563 = CARTESIAN_POINT('',(0.699367060928,-6.607925444642E-02,
    0.429953812162));
#564 = CARTESIAN_POINT('',(0.720960037663,-9.256709566409E-02,
    0.394108842988));
#565 = CARTESIAN_POINT('',(0.741002097761,-0.115330438063,0.355378026835
    ));
#566 = CARTESIAN_POINT('',(0.758792249878,-0.134435454735,0.314184295425
    ));
#567 = CARTESIAN_POINT('',(0.773864998926,-0.1500006,0.271169621155));
#568 = PCURVE('',#269,#569);
#569 = DEFINITIONAL_REPRESENTATION('',(#570),#585);
#570 = B_SPLINE_CURVE_WITH_KNOTS('',5,(#571,#572,#573,#574,#575,#576,
    #577,#578,#579,#580,#581,#582,#583,#584),.UNSPECIFIED.,.F.,.F.,(6,4,
    4,6),(0.,0.163864503847,0.501808838091,1.),.UNSPECIFIED.);
#571 = CARTESIAN_POINT('',(3.591388934649,2.644870368515));
#572 = CARTESIAN_POINT('',(3.605065014211,2.638382778135));
#573 = CARTESIAN_POINT('',(3.618576837626,2.631556755243));
#574 = CARTESIAN_POINT('',(3.631908993379,2.624385300155));
#575 = CARTESIAN_POINT('',(3.64504529831,2.616863371014));
#576 = CARTESIAN_POINT('',(3.684621448222,2.59274595083));
#577 = CARTESIAN_POINT('',(3.710375171514,2.574996755464));
#578 = CARTESIAN_POINT('',(3.735069507517,2.555720438226));
#579 = CARTESIAN_POINT('',(3.758554969355,2.53493579892));
#580 = CARTESIAN_POINT('',(3.813340707184,2.479953812162));
#581 = CARTESIAN_POINT('',(3.843027105232,2.444108842988));
#582 = CARTESIAN_POINT('',(3.8693835636,2.405378026835));
#583 = CARTESIAN_POINT('',(3.892079801207,2.364184295425));
#584 = CARTESIAN_POINT('',(3.910920723386,2.321169621155));
#585 = ( GEOMETRIC_REPRESENTATION_CONTEXT(2) 
PARAMETRIC_REPRESENTATION_CONTEXT() REPRESENTATION_CONTEXT('2D SPACE',''
  ) );
#586 = PCURVE('',#333,#587);
#587 = DEFINITIONAL_REPRESENTATION('',(#588),#603);
#588 = B_SPLINE_CURVE_WITH_KNOTS('',5,(#589,#590,#591,#592,#593,#594,
    #595,#596,#597,#598,#599,#600,#601,#602),.UNSPECIFIED.,.F.,.F.,(6,4,
    4,6),(0.,0.163864503847,0.501808838091,1.),.UNSPECIFIED.);
#589 = CARTESIAN_POINT('',(0.759105924234,0.6000006));
#590 = CARTESIAN_POINT('',(0.770600918668,0.585837432525));
#591 = CARTESIAN_POINT('',(0.782521548503,0.571961258591));
#592 = CARTESIAN_POINT('',(0.79485728922,0.558387981235));
#593 = CARTESIAN_POINT('',(0.807595779549,0.545132390818));
#594 = CARTESIAN_POINT('',(0.847795246178,0.505554016152));
#595 = CARTESIAN_POINT('',(0.876526520743,0.480302951768));
#596 = CARTESIAN_POINT('',(0.906781146156,0.456587303678));
#597 = CARTESIAN_POINT('',(0.938403842844,0.434489308158));
#598 = CARTESIAN_POINT('',(1.019620908364,0.383920745554));
#599 = CARTESIAN_POINT('',(1.070569766846,0.357432904336));
#600 = CARTESIAN_POINT('',(1.123589008231,0.334669561937));
#601 = CARTESIAN_POINT('',(1.178172563888,0.315564545265));
#602 = CARTESIAN_POINT('',(1.233756773446,0.2999994));
#603 = ( GEOMETRIC_REPRESENTATION_CONTEXT(2) 
PARAMETRIC_REPRESENTATION_CONTEXT() REPRESENTATION_CONTEXT('2D SPACE',''
  ) );
#604 = ORIENTED_EDGE('',*,*,#295,.T.);
#605 = ADVANCED_FACE('',(#606),#362,.F.);
#606 = FACE_BOUND('',#607,.F.);
#607 = EDGE_LOOP('',(#608,#629,#630,#631));
#608 = ORIENTED_EDGE('',*,*,#609,.T.);
#609 = EDGE_CURVE('',#317,#500,#610,.T.);
#610 = SURFACE_CURVE('',#611,(#615,#622),.PCURVE_S1.);
#611 = LINE('',#612,#613);
#612 = CARTESIAN_POINT('',(-2.008420750602E-16,-0.45,0.82));
#613 = VECTOR('',#614,1.);
#614 = DIRECTION('',(0.,1.,0.));
#615 = PCURVE('',#362,#616);
#616 = DEFINITIONAL_REPRESENTATION('',(#617),#621);
#617 = LINE('',#618,#619);
#618 = CARTESIAN_POINT('',(6.28318530718,-0.));
#619 = VECTOR('',#620,1.);
#620 = DIRECTION('',(0.,1.));
#621 = ( GEOMETRIC_REPRESENTATION_CONTEXT(2) 
PARAMETRIC_REPRESENTATION_CONTEXT() REPRESENTATION_CONTEXT('2D SPACE',''
  ) );
#622 = PCURVE('',#333,#623);
#623 = DEFINITIONAL_REPRESENTATION('',(#624),#628);
#624 = LINE('',#625,#626);
#625 = CARTESIAN_POINT('',(0.,-0.));
#626 = VECTOR('',#627,1.);
#627 = DIRECTION('',(0.,1.));
#628 = ( GEOMETRIC_REPRESENTATION_CONTEXT(2) 
PARAMETRIC_REPRESENTATION_CONTEXT() REPRESENTATION_CONTEXT('2D SPACE',''
  ) );
#629 = ORIENTED_EDGE('',*,*,#523,.F.);
#630 = ORIENTED_EDGE('',*,*,#398,.F.);
#631 = ORIENTED_EDGE('',*,*,#345,.T.);
#632 = ADVANCED_FACE('',(#633),#333,.F.);
#633 = FACE_BOUND('',#634,.F.);
#634 = EDGE_LOOP('',(#635,#636,#637,#638));
#635 = ORIENTED_EDGE('',*,*,#499,.F.);
#636 = ORIENTED_EDGE('',*,*,#609,.F.);
#637 = ORIENTED_EDGE('',*,*,#316,.T.);
#638 = ORIENTED_EDGE('',*,*,#551,.F.);
#639 = ( GEOMETRIC_REPRESENTATION_CONTEXT(3) 
GLOBAL_UNCERTAINTY_ASSIGNED_CONTEXT((#643)) GLOBAL_UNIT_ASSIGNED_CONTEXT
((#640,#641,#642)) REPRESENTATION_CONTEXT('Context #1',
  '3D Context with UNIT and UNCERTAINTY') );
#640 = ( LENGTH_UNIT() NAMED_UNIT(*) SI_UNIT(.MILLI.,.METRE.) );
#641 = ( NAMED_UNIT(*) PLANE_ANGLE_UNIT() SI_UNIT($,.RADIAN.) );
#642 = ( NAMED_UNIT(*) SI_UNIT($,.STERADIAN.) SOLID_ANGLE_UNIT() );
#643 = UNCERTAINTY_MEASURE_WITH_UNIT(LENGTH_MEASURE(1.E-07),#640,
  'distance_accuracy_value','confusion accuracy');
#644 = CONTEXT_DEPENDENT_SHAPE_REPRESENTATION(#645,#647);
#645 = ( REPRESENTATION_RELATIONSHIP('','',#32,#10) 
REPRESENTATION_RELATIONSHIP_WITH_TRANSFORMATION(#646) 
SHAPE_REPRESENTATION_RELATIONSHIP() );
#646 = ITEM_DEFINED_TRANSFORMATION('','',#11,#15);
#647 = PRODUCT_DEFINITION_SHAPE('Placement','Placement of an item',#648
  );
#648 = NEXT_ASSEMBLY_USAGE_OCCURRENCE('8',
'PRESS-FIT_LOCK_GUIDE_OUTER_RETAINER_BUSHING_PEEK_STOWED_LOCAL_
DEFINITION','',#5,#27,$);
#649 = PRODUCT_RELATED_PRODUCT_CATEGORY('part',$,(#29));
#650 = MECHANICAL_DESIGN_GEOMETRIC_PRESENTATION_REPRESENTATION('',(#651)
  ,#639);
#651 = STYLED_ITEM('color',(#652),#33);
#652 = PRESENTATION_STYLE_ASSIGNMENT((#653));
#653 = SURFACE_STYLE_USAGE(.BOTH.,#654);
#654 = SURFACE_SIDE_STYLE('',(#655));
#655 = SURFACE_STYLE_FILL_AREA(#656);
#656 = FILL_AREA_STYLE('',(#657));
#657 = FILL_AREA_STYLE_COLOUR('',#658);
#658 = COLOUR_RGB('',0.750000000934,0.580000000354,0.210000004305);
ENDSEC;
END-ISO-10303-21;
