ISO-10303-21;
HEADER;
FILE_DESCRIPTION(('Open CASCADE Model'),'2;1');
FILE_NAME('Open CASCADE Shape Model','2026-08-26T03:22:16',('Author'),(
    'Open CASCADE'),'Open CASCADE STEP processor 7.9','Open CASCADE 7.9'
  ,'Unknown');
FILE_SCHEMA((
'AP242_MANAGED_MODEL_BASED_3D_ENGINEERING_MIM_LF {1 0 10303 442 1 1 4 }'
    ));
ENDSEC;
DATA;
#1 = APPLICATION_PROTOCOL_DEFINITION('international standard',
  'ap242_managed_model_based_3d_engineering',2013,#2);
#2 = APPLICATION_CONTEXT('Managed model based 3d engineering');
#3 = SHAPE_DEFINITION_REPRESENTATION(#4,#10);
#4 = PRODUCT_DEFINITION_SHAPE('','',#5);
#5 = PRODUCT_DEFINITION('design','',#6,#9);
#6 = PRODUCT_DEFINITION_FORMATION('','',#7);
#7 = PRODUCT(
'MANUAL_INFLATOR_PULL_LANYARD_WITH_MODELED_SLACK_AND_FIRED_TRAVEL_HMPE_
STOWED_PART',
'MANUAL_INFLATOR_PULL_LANYARD_WITH_MODELED_SLACK_AND_FIRED_TRAVEL_HMPE_
STOWED_PART','',(#8));
#8 = PRODUCT_CONTEXT('',#2,'mechanical');
#9 = PRODUCT_DEFINITION_CONTEXT('part definition',#2,'design');
#10 = SHAPE_REPRESENTATION('',(#11,#15),#19);
#11 = AXIS2_PLACEMENT_3D('',#12,#13,#14);
#12 = CARTESIAN_POINT('',(0.,0.,0.));
#13 = DIRECTION('',(0.,0.,1.));
#14 = DIRECTION('',(1.,0.,-0.));
#15 = AXIS2_PLACEMENT_3D('',#16,#17,#18);
#16 = CARTESIAN_POINT('',(0.,0.,0.));
#17 = DIRECTION('',(0.,0.,1.));
#18 = DIRECTION('',(1.,0.,-0.));
#19 = ( GEOMETRIC_REPRESENTATION_CONTEXT(3) 
GLOBAL_UNCERTAINTY_ASSIGNED_CONTEXT((#23)) GLOBAL_UNIT_ASSIGNED_CONTEXT(
(#20,#21,#22)) REPRESENTATION_CONTEXT('Context #1',
  '3D Context with UNIT and UNCERTAINTY') );
#20 = ( LENGTH_UNIT() NAMED_UNIT(*) SI_UNIT(.MILLI.,.METRE.) );
#21 = ( NAMED_UNIT(*) PLANE_ANGLE_UNIT() SI_UNIT($,.RADIAN.) );
#22 = ( NAMED_UNIT(*) SI_UNIT($,.STERADIAN.) SOLID_ANGLE_UNIT() );
#23 = UNCERTAINTY_MEASURE_WITH_UNIT(LENGTH_MEASURE(2.E-06),#20,
  'distance_accuracy_value','confusion accuracy');
#24 = PRODUCT_RELATED_PRODUCT_CATEGORY('part',$,(#7));
#25 = SHAPE_DEFINITION_REPRESENTATION(#26,#32);
#26 = PRODUCT_DEFINITION_SHAPE('','',#27);
#27 = PRODUCT_DEFINITION('design','',#28,#31);
#28 = PRODUCT_DEFINITION_FORMATION('','',#29);
#29 = PRODUCT(
'MANUAL_INFLATOR_PULL_LANYARD_WITH_MODELED_SLACK_AND_FIRED_TRAVEL_HMPE_
STOWED_LOCAL_DEFINITION',
'MANUAL_INFLATOR_PULL_LANYARD_WITH_MODELED_SLACK_AND_FIRED_TRAVEL_HMPE_
STOWED_LOCAL_DEFINITION','',(#30));
#30 = PRODUCT_CONTEXT('',#2,'mechanical');
#31 = PRODUCT_DEFINITION_CONTEXT('part definition',#2,'design');
#32 = ADVANCED_BREP_SHAPE_REPRESENTATION('',(#11,#33),#863);
#33 = MANIFOLD_SOLID_BREP('',#34);
#34 = CLOSED_SHELL('',(#35,#270,#352,#401,#592,#596,#620,#626,#753,#802,
    #829,#853,#857));
#35 = ADVANCED_FACE('',(#36),#51,.T.);
#36 = FACE_BOUND('',#37,.T.);
#37 = EDGE_LOOP('',(#38,#91,#132,#162,#185,#212,#213,#243));
#38 = ORIENTED_EDGE('',*,*,#39,.F.);
#39 = EDGE_CURVE('',#40,#42,#44,.T.);
#40 = VERTEX_POINT('',#41);
#41 = CARTESIAN_POINT('',(7.082270128681,0.568118491769,32.524417069325)
  );
#42 = VERTEX_POINT('',#43);
#43 = CARTESIAN_POINT('',(8.,-1.2,32.));
#44 = SURFACE_CURVE('',#45,(#50,#62),.PCURVE_S1.);
#45 = CIRCLE('',#46,1.2);
#46 = AXIS2_PLACEMENT_3D('',#47,#48,#49);
#47 = CARTESIAN_POINT('',(8.,0.,32.));
#48 = DIRECTION('',(0.496138938357,0.,0.868243142124));
#49 = DIRECTION('',(0.868243142124,0.,-0.496138938357));
#50 = PCURVE('',#51,#56);
#51 = CYLINDRICAL_SURFACE('',#52,1.2);
#52 = AXIS2_PLACEMENT_3D('',#53,#54,#55);
#53 = CARTESIAN_POINT('',(0.,0.,18.));
#54 = DIRECTION('',(0.496138938357,0.,0.868243142124));
#55 = DIRECTION('',(0.868243142124,0.,-0.496138938357));
#56 = DEFINITIONAL_REPRESENTATION('',(#57),#61);
#57 = LINE('',#58,#59);
#58 = CARTESIAN_POINT('',(0.,16.124515496597));
#59 = VECTOR('',#60,1.);
#60 = DIRECTION('',(1.,0.));
#61 = ( GEOMETRIC_REPRESENTATION_CONTEXT(2) 
PARAMETRIC_REPRESENTATION_CONTEXT() REPRESENTATION_CONTEXT('2D SPACE',''
  ) );
#62 = PCURVE('',#63,#68);
#63 = SPHERICAL_SURFACE('',#64,1.2);
#64 = AXIS2_PLACEMENT_3D('',#65,#66,#67);
#65 = CARTESIAN_POINT('',(8.,0.,32.));
#66 = DIRECTION('',(0.,0.,1.));
#67 = DIRECTION('',(1.,0.,-0.));
#68 = DEFINITIONAL_REPRESENTATION('',(#69),#90);
#69 = B_SPLINE_CURVE_WITH_KNOTS('',7,(#70,#71,#72,#73,#74,#75,#76,#77,
    #78,#79,#80,#81,#82,#83,#84,#85,#86,#87,#88,#89),.UNSPECIFIED.,.F.,
  .F.,(8,6,6,8),(2.648409526863,3.164404390244,3.938396685314,
    4.712388980385),.UNSPECIFIED.);
#70 = CARTESIAN_POINT('',(2.587285157388,0.452276445925));
#71 = CARTESIAN_POINT('',(2.666394943602,0.471526372891));
#72 = CARTESIAN_POINT('',(2.747231012291,0.487906069714));
#73 = CARTESIAN_POINT('',(2.829648829217,0.501144949568));
#74 = CARTESIAN_POINT('',(2.913372767095,0.511000359664));
#75 = CARTESIAN_POINT('',(2.997985741943,0.51729849167));
#76 = CARTESIAN_POINT('',(3.082979364785,0.519958160053));
#77 = CARTESIAN_POINT('',(3.29519247463,0.517556380777));
#78 = CARTESIAN_POINT('',(3.422274428664,0.507969204697));
#79 = CARTESIAN_POINT('',(3.547464598755,0.490291227968));
#80 = CARTESIAN_POINT('',(3.669115769666,0.465066487413));
#81 = CARTESIAN_POINT('',(3.786481808849,0.433289941454));
#82 = CARTESIAN_POINT('',(3.899547115208,0.395982482867));
#83 = CARTESIAN_POINT('',(4.117800174155,0.31232986589));
#84 = CARTESIAN_POINT('',(4.222988329554,0.265983577604));
#85 = CARTESIAN_POINT('',(4.32460945728,0.216131286733));
#86 = CARTESIAN_POINT('',(4.42343680945,0.163747033215));
#87 = CARTESIAN_POINT('',(4.520385954869,0.109717194538));
#88 = CARTESIAN_POINT('',(4.616387051492,5.485824508181E-02));
#89 = CARTESIAN_POINT('',(4.712388980385,0.));
#90 = ( GEOMETRIC_REPRESENTATION_CONTEXT(2) 
PARAMETRIC_REPRESENTATION_CONTEXT() REPRESENTATION_CONTEXT('2D SPACE',''
  ) );
#91 = ORIENTED_EDGE('',*,*,#92,.F.);
#92 = EDGE_CURVE('',#93,#40,#95,.T.);
#93 = VERTEX_POINT('',#94);
#94 = CARTESIAN_POINT('',(8.973156825672,5.113724255827E-02,
    31.286544258561));
#95 = SURFACE_CURVE('',#96,(#101,#114),.PCURVE_S1.);
#96 = ELLIPSE('',#97,1.229480551227,1.2);
#97 = AXIS2_PLACEMENT_3D('',#98,#99,#100);
#98 = CARTESIAN_POINT('',(8.,0.,32.));
#99 = DIRECTION('',(0.573717529951,0.191732224117,0.796295767955));
#100 = DIRECTION('',(-0.293202249688,-0.859709731945,0.418248272653));
#101 = PCURVE('',#51,#102);
#102 = DEFINITIONAL_REPRESENTATION('',(#103),#113);
#103 = B_SPLINE_CURVE_WITH_KNOTS('',8,(#104,#105,#106,#107,#108,#109,
    #110,#111,#112),.UNSPECIFIED.,.F.,.F.,(9,9),(2.10660673071,
    4.712388980385),.PIECEWISE_BEZIER_KNOTS.);
#104 = CARTESIAN_POINT('',(4.262727718836E-02,15.987883436227));
#105 = CARTESIAN_POINT('',(0.368350058398,15.912928894315));
#106 = CARTESIAN_POINT('',(0.694072839606,15.854541516755));
#107 = CARTESIAN_POINT('',(1.019795620813,15.824836952081));
#108 = CARTESIAN_POINT('',(1.345518402024,15.83219025725));
#109 = CARTESIAN_POINT('',(1.671241183232,15.877098568693));
#110 = CARTESIAN_POINT('',(1.996963964443,15.950172712797));
#111 = CARTESIAN_POINT('',(2.322686745654,16.037344372252));
#112 = CARTESIAN_POINT('',(2.648409526863,16.124515496597));
#113 = ( GEOMETRIC_REPRESENTATION_CONTEXT(2) 
PARAMETRIC_REPRESENTATION_CONTEXT() REPRESENTATION_CONTEXT('2D SPACE',''
  ) );
#114 = PCURVE('',#115,#120);
#115 = CYLINDRICAL_SURFACE('',#116,1.2);
#116 = AXIS2_PLACEMENT_3D('',#117,#118,#119);
#117 = CARTESIAN_POINT('',(8.,0.,32.));
#118 = DIRECTION('',(0.623782861552,0.374269716931,0.686161147707));
#119 = DIRECTION('',(0.739940073396,2.775557561563E-17,-0.672672793996)
  );
#120 = DEFINITIONAL_REPRESENTATION('',(#121),#131);
#121 = B_SPLINE_CURVE_WITH_KNOTS('',8,(#122,#123,#124,#125,#126,#127,
    #128,#129,#130),.UNSPECIFIED.,.F.,.F.,(9,9),(2.10660673071,
    4.712388980385),.PIECEWISE_BEZIER_KNOTS.);
#122 = CARTESIAN_POINT('',(-8.881784197001E-15,0.13663206037));
#123 = CARTESIAN_POINT('',(0.325722781209,0.211586602282));
#124 = CARTESIAN_POINT('',(0.651445562418,0.26997397984));
#125 = CARTESIAN_POINT('',(0.977168343623,0.299678544458));
#126 = CARTESIAN_POINT('',(1.302891124842,0.292325239345));
#127 = CARTESIAN_POINT('',(1.628613906043,0.247416927853));
#128 = CARTESIAN_POINT('',(1.954336687256,0.174342783791));
#129 = CARTESIAN_POINT('',(2.280059468465,8.717112434509E-02));
#130 = CARTESIAN_POINT('',(2.605782249675,3.552713678801E-15));
#131 = ( GEOMETRIC_REPRESENTATION_CONTEXT(2) 
PARAMETRIC_REPRESENTATION_CONTEXT() REPRESENTATION_CONTEXT('2D SPACE',''
  ) );
#132 = ORIENTED_EDGE('',*,*,#133,.F.);
#133 = EDGE_CURVE('',#134,#93,#136,.T.);
#134 = VERTEX_POINT('',#135);
#135 = CARTESIAN_POINT('',(8.979030159724,-2.939152317954E-16,
    31.294625455028));
#136 = SURFACE_CURVE('',#137,(#142,#152),.PCURVE_S1.);
#137 = ELLIPSE('',#138,1.229480551227,1.2);
#138 = AXIS2_PLACEMENT_3D('',#139,#140,#141);
#139 = CARTESIAN_POINT('',(8.,0.,32.));
#140 = DIRECTION('',(0.573717529951,0.191732224117,0.796295767955));
#141 = DIRECTION('',(-0.293202249688,-0.859709731945,0.418248272653));
#142 = PCURVE('',#51,#143);
#143 = DEFINITIONAL_REPRESENTATION('',(#144),#151);
#144 = B_SPLINE_CURVE_WITH_KNOTS('',5,(#145,#146,#147,#148,#149,#150),
  .UNSPECIFIED.,.F.,.F.,(6,6),(2.063979453522,2.10660673071),
  .PIECEWISE_BEZIER_KNOTS.);
#145 = CARTESIAN_POINT('',(-3.19744231092E-14,15.99781386936));
#146 = CARTESIAN_POINT('',(8.525455437645E-03,15.995804154879));
#147 = CARTESIAN_POINT('',(1.705091087532E-02,15.993805951777));
#148 = CARTESIAN_POINT('',(2.5576366313E-02,15.991819564373));
#149 = CARTESIAN_POINT('',(3.410182175068E-02,15.989845293499));
#150 = CARTESIAN_POINT('',(4.262727718836E-02,15.987883436227));
#151 = ( GEOMETRIC_REPRESENTATION_CONTEXT(2) 
PARAMETRIC_REPRESENTATION_CONTEXT() REPRESENTATION_CONTEXT('2D SPACE',''
  ) );
#152 = PCURVE('',#115,#153);
#153 = DEFINITIONAL_REPRESENTATION('',(#154),#161);
#154 = B_SPLINE_CURVE_WITH_KNOTS('',5,(#155,#156,#157,#158,#159,#160),
  .UNSPECIFIED.,.F.,.F.,(6,6),(2.063979453522,2.10660673071),
  .PIECEWISE_BEZIER_KNOTS.);
#155 = CARTESIAN_POINT('',(6.240558029991,0.126701627237));
#156 = CARTESIAN_POINT('',(6.249083485429,0.128711341719));
#157 = CARTESIAN_POINT('',(6.257608940867,0.130709544821));
#158 = CARTESIAN_POINT('',(6.266134396304,0.132695932224));
#159 = CARTESIAN_POINT('',(6.274659851742,0.134670203098));
#160 = CARTESIAN_POINT('',(6.28318530718,0.13663206037));
#161 = ( GEOMETRIC_REPRESENTATION_CONTEXT(2) 
PARAMETRIC_REPRESENTATION_CONTEXT() REPRESENTATION_CONTEXT('2D SPACE',''
  ) );
#162 = ORIENTED_EDGE('',*,*,#163,.F.);
#163 = EDGE_CURVE('',#164,#134,#166,.T.);
#164 = VERTEX_POINT('',#165);
#165 = CARTESIAN_POINT('',(1.041891770549,-2.939152317954E-16,
    17.404633273972));
#166 = SEAM_CURVE('',#167,(#171,#178),.PCURVE_S1.);
#167 = LINE('',#168,#169);
#168 = CARTESIAN_POINT('',(1.041891770549,-2.939152317954E-16,
    17.404633273972));
#169 = VECTOR('',#170,1.);
#170 = DIRECTION('',(0.496138938357,0.,0.868243142124));
#171 = PCURVE('',#51,#172);
#172 = DEFINITIONAL_REPRESENTATION('',(#173),#177);
#173 = LINE('',#174,#175);
#174 = CARTESIAN_POINT('',(6.28318530718,-0.));
#175 = VECTOR('',#176,1.);
#176 = DIRECTION('',(0.,1.));
#177 = ( GEOMETRIC_REPRESENTATION_CONTEXT(2) 
PARAMETRIC_REPRESENTATION_CONTEXT() REPRESENTATION_CONTEXT('2D SPACE',''
  ) );
#178 = PCURVE('',#51,#179);
#179 = DEFINITIONAL_REPRESENTATION('',(#180),#184);
#180 = LINE('',#181,#182);
#181 = CARTESIAN_POINT('',(0.,-0.));
#182 = VECTOR('',#183,1.);
#183 = DIRECTION('',(0.,1.));
#184 = ( GEOMETRIC_REPRESENTATION_CONTEXT(2) 
PARAMETRIC_REPRESENTATION_CONTEXT() REPRESENTATION_CONTEXT('2D SPACE',''
  ) );
#185 = ORIENTED_EDGE('',*,*,#186,.T.);
#186 = EDGE_CURVE('',#164,#164,#187,.T.);
#187 = SURFACE_CURVE('',#188,(#193,#200),.PCURVE_S1.);
#188 = CIRCLE('',#189,1.2);
#189 = AXIS2_PLACEMENT_3D('',#190,#191,#192);
#190 = CARTESIAN_POINT('',(0.,0.,18.));
#191 = DIRECTION('',(0.496138938357,0.,0.868243142124));
#192 = DIRECTION('',(0.868243142124,0.,-0.496138938357));
#193 = PCURVE('',#51,#194);
#194 = DEFINITIONAL_REPRESENTATION('',(#195),#199);
#195 = LINE('',#196,#197);
#196 = CARTESIAN_POINT('',(0.,0.));
#197 = VECTOR('',#198,1.);
#198 = DIRECTION('',(1.,0.));
#199 = ( GEOMETRIC_REPRESENTATION_CONTEXT(2) 
PARAMETRIC_REPRESENTATION_CONTEXT() REPRESENTATION_CONTEXT('2D SPACE',''
  ) );
#200 = PCURVE('',#201,#206);
#201 = PLANE('',#202);
#202 = AXIS2_PLACEMENT_3D('',#203,#204,#205);
#203 = CARTESIAN_POINT('',(0.,0.,18.));
#204 = DIRECTION('',(0.496138938357,0.,0.868243142124));
#205 = DIRECTION('',(0.868243142124,0.,-0.496138938357));
#206 = DEFINITIONAL_REPRESENTATION('',(#207),#211);
#207 = CIRCLE('',#208,1.2);
#208 = AXIS2_PLACEMENT_2D('',#209,#210);
#209 = CARTESIAN_POINT('',(0.,0.));
#210 = DIRECTION('',(1.,0.));
#211 = ( GEOMETRIC_REPRESENTATION_CONTEXT(2) 
PARAMETRIC_REPRESENTATION_CONTEXT() REPRESENTATION_CONTEXT('2D SPACE',''
  ) );
#212 = ORIENTED_EDGE('',*,*,#163,.T.);
#213 = ORIENTED_EDGE('',*,*,#214,.F.);
#214 = EDGE_CURVE('',#215,#134,#217,.T.);
#215 = VERTEX_POINT('',#216);
#216 = CARTESIAN_POINT('',(8.917729871319,-0.568118491769,
    31.475582930675));
#217 = SURFACE_CURVE('',#218,(#223,#233),.PCURVE_S1.);
#218 = ELLIPSE('',#219,1.229480551227,1.2);
#219 = AXIS2_PLACEMENT_3D('',#220,#221,#222);
#220 = CARTESIAN_POINT('',(8.,0.,32.));
#221 = DIRECTION('',(0.573717529951,0.191732224117,0.796295767955));
#222 = DIRECTION('',(-0.293202249688,-0.859709731945,0.418248272653));
#223 = PCURVE('',#51,#224);
#224 = DEFINITIONAL_REPRESENTATION('',(#225),#232);
#225 = B_SPLINE_CURVE_WITH_KNOTS('',5,(#226,#227,#228,#229,#230,#231),
  .UNSPECIFIED.,.F.,.F.,(6,6),(1.570796326795,2.063979453522),
  .PIECEWISE_BEZIER_KNOTS.);
#226 = CARTESIAN_POINT('',(5.790002180453,16.124515496597));
#227 = CARTESIAN_POINT('',(5.888638805798,16.09811800146));
#228 = CARTESIAN_POINT('',(5.987275431144,16.071720480978));
#229 = CARTESIAN_POINT('',(6.085912056489,16.045858145687));
#230 = CARTESIAN_POINT('',(6.184548681834,16.021065583694));
#231 = CARTESIAN_POINT('',(6.28318530718,15.99781386936));
#232 = ( GEOMETRIC_REPRESENTATION_CONTEXT(2) 
PARAMETRIC_REPRESENTATION_CONTEXT() REPRESENTATION_CONTEXT('2D SPACE',''
  ) );
#233 = PCURVE('',#115,#234);
#234 = DEFINITIONAL_REPRESENTATION('',(#235),#242);
#235 = B_SPLINE_CURVE_WITH_KNOTS('',5,(#236,#237,#238,#239,#240,#241),
  .UNSPECIFIED.,.F.,.F.,(6,6),(1.570796326795,2.063979453522),
  .PIECEWISE_BEZIER_KNOTS.);
#236 = CARTESIAN_POINT('',(5.747374903265,0.));
#237 = CARTESIAN_POINT('',(5.84601152861,2.639749513692E-02));
#238 = CARTESIAN_POINT('',(5.944648153955,5.279501561931E-02));
#239 = CARTESIAN_POINT('',(6.043284779301,7.865735091058E-02));
#240 = CARTESIAN_POINT('',(6.141921404646,0.103449912903));
#241 = CARTESIAN_POINT('',(6.240558029991,0.126701627237));
#242 = ( GEOMETRIC_REPRESENTATION_CONTEXT(2) 
PARAMETRIC_REPRESENTATION_CONTEXT() REPRESENTATION_CONTEXT('2D SPACE',''
  ) );
#243 = ORIENTED_EDGE('',*,*,#244,.F.);
#244 = EDGE_CURVE('',#42,#215,#245,.T.);
#245 = SURFACE_CURVE('',#246,(#251,#258),.PCURVE_S1.);
#246 = CIRCLE('',#247,1.2);
#247 = AXIS2_PLACEMENT_3D('',#248,#249,#250);
#248 = CARTESIAN_POINT('',(8.,0.,32.));
#249 = DIRECTION('',(0.496138938357,0.,0.868243142124));
#250 = DIRECTION('',(0.868243142124,0.,-0.496138938357));
#251 = PCURVE('',#51,#252);
#252 = DEFINITIONAL_REPRESENTATION('',(#253),#257);
#253 = LINE('',#254,#255);
#254 = CARTESIAN_POINT('',(0.,16.124515496597));
#255 = VECTOR('',#256,1.);
#256 = DIRECTION('',(1.,0.));
#257 = ( GEOMETRIC_REPRESENTATION_CONTEXT(2) 
PARAMETRIC_REPRESENTATION_CONTEXT() REPRESENTATION_CONTEXT('2D SPACE',''
  ) );
#258 = PCURVE('',#259,#264);
#259 = PLANE('',#260);
#260 = AXIS2_PLACEMENT_3D('',#261,#262,#263);
#261 = CARTESIAN_POINT('',(8.,0.,32.));
#262 = DIRECTION('',(0.496138938357,0.,0.868243142124));
#263 = DIRECTION('',(0.868243142124,0.,-0.496138938357));
#264 = DEFINITIONAL_REPRESENTATION('',(#265),#269);
#265 = CIRCLE('',#266,1.2);
#266 = AXIS2_PLACEMENT_2D('',#267,#268);
#267 = CARTESIAN_POINT('',(0.,0.));
#268 = DIRECTION('',(1.,0.));
#269 = ( GEOMETRIC_REPRESENTATION_CONTEXT(2) 
PARAMETRIC_REPRESENTATION_CONTEXT() REPRESENTATION_CONTEXT('2D SPACE',''
  ) );
#270 = ADVANCED_FACE('',(#271),#63,.T.);
#271 = FACE_BOUND('',#272,.T.);
#272 = EDGE_LOOP('',(#273,#274,#303));
#273 = ORIENTED_EDGE('',*,*,#39,.T.);
#274 = ORIENTED_EDGE('',*,*,#275,.T.);
#275 = EDGE_CURVE('',#42,#276,#278,.T.);
#276 = VERTEX_POINT('',#277);
#277 = CARTESIAN_POINT('',(8.617394906513,-1.028991510855,32.));
#278 = SURFACE_CURVE('',#279,(#284,#291),.PCURVE_S1.);
#279 = CIRCLE('',#280,1.2);
#280 = AXIS2_PLACEMENT_3D('',#281,#282,#283);
#281 = CARTESIAN_POINT('',(8.,0.,32.));
#282 = DIRECTION('',(0.,0.,1.));
#283 = DIRECTION('',(1.,0.,-0.));
#284 = PCURVE('',#63,#285);
#285 = DEFINITIONAL_REPRESENTATION('',(#286),#290);
#286 = LINE('',#287,#288);
#287 = CARTESIAN_POINT('',(0.,0.));
#288 = VECTOR('',#289,1.);
#289 = DIRECTION('',(1.,0.));
#290 = ( GEOMETRIC_REPRESENTATION_CONTEXT(2) 
PARAMETRIC_REPRESENTATION_CONTEXT() REPRESENTATION_CONTEXT('2D SPACE',''
  ) );
#291 = PCURVE('',#292,#297);
#292 = PLANE('',#293);
#293 = AXIS2_PLACEMENT_3D('',#294,#295,#296);
#294 = CARTESIAN_POINT('',(8.,0.,32.));
#295 = DIRECTION('',(0.,0.,1.));
#296 = DIRECTION('',(1.,0.,-0.));
#297 = DEFINITIONAL_REPRESENTATION('',(#298),#302);
#298 = CIRCLE('',#299,1.2);
#299 = AXIS2_PLACEMENT_2D('',#300,#301);
#300 = CARTESIAN_POINT('',(0.,0.));
#301 = DIRECTION('',(1.,0.));
#302 = ( GEOMETRIC_REPRESENTATION_CONTEXT(2) 
PARAMETRIC_REPRESENTATION_CONTEXT() REPRESENTATION_CONTEXT('2D SPACE',''
  ) );
#303 = ORIENTED_EDGE('',*,*,#304,.F.);
#304 = EDGE_CURVE('',#40,#276,#305,.T.);
#305 = SURFACE_CURVE('',#306,(#311,#345),.PCURVE_S1.);
#306 = CIRCLE('',#307,1.2);
#307 = AXIS2_PLACEMENT_3D('',#308,#309,#310);
#308 = CARTESIAN_POINT('',(8.,0.,32.));
#309 = DIRECTION('',(0.623782861552,0.374269716931,0.686161147707));
#310 = DIRECTION('',(0.739940073396,2.775557561563E-17,-0.672672793996)
  );
#311 = PCURVE('',#63,#312);
#312 = DEFINITIONAL_REPRESENTATION('',(#313),#344);
#313 = B_SPLINE_CURVE_WITH_KNOTS('',8,(#314,#315,#316,#317,#318,#319,
    #320,#321,#322,#323,#324,#325,#326,#327,#328,#329,#330,#331,#332,
    #333,#334,#335,#336,#337,#338,#339,#340,#341,#342,#343),
  .UNSPECIFIED.,.F.,.F.,(9,7,7,7,9),(2.605782249675,3.230071153737,
    3.698287831783,4.400612848852,5.102937865922),.UNSPECIFIED.);
#314 = CARTESIAN_POINT('',(2.587285157388,0.452276445925));
#315 = CARTESIAN_POINT('',(2.653470719755,0.502731434843));
#316 = CARTESIAN_POINT('',(2.723365129227,0.551218488428));
#317 = CARTESIAN_POINT('',(2.797674212479,0.597272857253));
#318 = CARTESIAN_POINT('',(2.87714390914,0.640336039253));
#319 = CARTESIAN_POINT('',(2.962453139762,0.679744605148));
#320 = CARTESIAN_POINT('',(3.054208409788,0.714686673468));
#321 = CARTESIAN_POINT('',(3.152290392554,0.744269489537));
#322 = CARTESIAN_POINT('',(3.333308339595,0.785346685336));
#323 = CARTESIAN_POINT('',(3.413901567292,0.799513995053));
#324 = CARTESIAN_POINT('',(3.497095396786,0.8099281308));
#325 = CARTESIAN_POINT('',(3.582232061076,0.816311795892));
#326 = CARTESIAN_POINT('',(3.66832129833,0.818484711991));
#327 = CARTESIAN_POINT('',(3.754232287707,0.816412801531));
#328 = CARTESIAN_POINT('',(3.838953173264,0.810216840018));
#329 = CARTESIAN_POINT('',(4.045834226775,0.784947763694));
#330 = CARTESIAN_POINT('',(4.165532315877,0.760986020583));
#331 = CARTESIAN_POINT('',(4.278168533714,0.728942667635));
#332 = CARTESIAN_POINT('',(4.382212601224,0.69005328487));
#333 = CARTESIAN_POINT('',(4.478179548807,0.645668319014));
#334 = CARTESIAN_POINT('',(4.566898868323,0.596830445134));
#335 = CARTESIAN_POINT('',(4.649406068131,0.544436899948));
#336 = CARTESIAN_POINT('',(4.804028840796,0.433982005694));
#337 = CARTESIAN_POINT('',(4.876144214036,0.375920932652));
#338 = CARTESIAN_POINT('',(4.944085088812,0.315752188123));
#339 = CARTESIAN_POINT('',(5.008857995069,0.254040219865));
#340 = CARTESIAN_POINT('',(5.071345346905,0.19123690026));
#341 = CARTESIAN_POINT('',(5.132331116036,0.12772643108));
#342 = CARTESIAN_POINT('',(5.192569963183,6.38632541083E-02));
#343 = CARTESIAN_POINT('',(5.252808480655,-2.960594732334E-14));
#344 = ( GEOMETRIC_REPRESENTATION_CONTEXT(2) 
PARAMETRIC_REPRESENTATION_CONTEXT() REPRESENTATION_CONTEXT('2D SPACE',''
  ) );
#345 = PCURVE('',#115,#346);
#346 = DEFINITIONAL_REPRESENTATION('',(#347),#351);
#347 = LINE('',#348,#349);
#348 = CARTESIAN_POINT('',(0.,0.));
#349 = VECTOR('',#350,1.);
#350 = DIRECTION('',(1.,0.));
#351 = ( GEOMETRIC_REPRESENTATION_CONTEXT(2) 
PARAMETRIC_REPRESENTATION_CONTEXT() REPRESENTATION_CONTEXT('2D SPACE',''
  ) );
#352 = ADVANCED_FACE('',(#353),#259,.T.);
#353 = FACE_BOUND('',#354,.T.);
#354 = EDGE_LOOP('',(#355,#356,#382));
#355 = ORIENTED_EDGE('',*,*,#244,.T.);
#356 = ORIENTED_EDGE('',*,*,#357,.T.);
#357 = EDGE_CURVE('',#215,#358,#360,.T.);
#358 = VERTEX_POINT('',#359);
#359 = CARTESIAN_POINT('',(8.,0.,32.));
#360 = SURFACE_CURVE('',#361,(#365,#371),.PCURVE_S1.);
#361 = LINE('',#362,#363);
#362 = CARTESIAN_POINT('',(8.,0.,32.));
#363 = VECTOR('',#364,1.);
#364 = DIRECTION('',(-0.764774892766,0.473432076474,0.437014224438));
#365 = PCURVE('',#259,#366);
#366 = DEFINITIONAL_REPRESENTATION('',(#367),#370);
#367 = B_SPLINE_CURVE_WITH_KNOTS('',1,(#368,#369),.UNSPECIFIED.,.F.,.F.,
  (2,2),(-1.362350909274,1.362350909274),.PIECEWISE_BEZIER_KNOTS.);
#368 = CARTESIAN_POINT('',(1.2,-0.644980619864));
#369 = CARTESIAN_POINT('',(-1.2,0.644980619864));
#370 = ( GEOMETRIC_REPRESENTATION_CONTEXT(2) 
PARAMETRIC_REPRESENTATION_CONTEXT() REPRESENTATION_CONTEXT('2D SPACE',''
  ) );
#371 = PCURVE('',#372,#377);
#372 = PLANE('',#373);
#373 = AXIS2_PLACEMENT_3D('',#374,#375,#376);
#374 = CARTESIAN_POINT('',(8.,0.,32.));
#375 = DIRECTION('',(0.623782861552,0.374269716931,0.686161147707));
#376 = DIRECTION('',(0.739940073396,2.775557561563E-17,-0.672672793996)
  );
#377 = DEFINITIONAL_REPRESENTATION('',(#378),#381);
#378 = B_SPLINE_CURVE_WITH_KNOTS('',1,(#379,#380),.UNSPECIFIED.,.F.,.F.,
  (2,2),(-1.362350909274,1.362350909274),.PIECEWISE_BEZIER_KNOTS.);
#379 = CARTESIAN_POINT('',(1.171424472221,-0.695531958922));
#380 = CARTESIAN_POINT('',(-1.171424472221,0.695531958922));
#381 = ( GEOMETRIC_REPRESENTATION_CONTEXT(2) 
PARAMETRIC_REPRESENTATION_CONTEXT() REPRESENTATION_CONTEXT('2D SPACE',''
  ) );
#382 = ORIENTED_EDGE('',*,*,#383,.T.);
#383 = EDGE_CURVE('',#358,#42,#384,.T.);
#384 = SURFACE_CURVE('',#385,(#389,#395),.PCURVE_S1.);
#385 = LINE('',#386,#387);
#386 = CARTESIAN_POINT('',(8.,0.,32.));
#387 = VECTOR('',#388,1.);
#388 = DIRECTION('',(0.,-1.,0.));
#389 = PCURVE('',#259,#390);
#390 = DEFINITIONAL_REPRESENTATION('',(#391),#394);
#391 = B_SPLINE_CURVE_WITH_KNOTS('',1,(#392,#393),.UNSPECIFIED.,.F.,.F.,
  (2,2),(-0.568118491769,1.2),.PIECEWISE_BEZIER_KNOTS.);
#392 = CARTESIAN_POINT('',(0.,0.568118491769));
#393 = CARTESIAN_POINT('',(0.,-1.2));
#394 = ( GEOMETRIC_REPRESENTATION_CONTEXT(2) 
PARAMETRIC_REPRESENTATION_CONTEXT() REPRESENTATION_CONTEXT('2D SPACE',''
  ) );
#395 = PCURVE('',#292,#396);
#396 = DEFINITIONAL_REPRESENTATION('',(#397),#400);
#397 = B_SPLINE_CURVE_WITH_KNOTS('',1,(#398,#399),.UNSPECIFIED.,.F.,.F.,
  (2,2),(-0.568118491769,1.2),.PIECEWISE_BEZIER_KNOTS.);
#398 = CARTESIAN_POINT('',(0.,0.568118491769));
#399 = CARTESIAN_POINT('',(0.,-1.2));
#400 = ( GEOMETRIC_REPRESENTATION_CONTEXT(2) 
PARAMETRIC_REPRESENTATION_CONTEXT() REPRESENTATION_CONTEXT('2D SPACE',''
  ) );
#401 = ADVANCED_FACE('',(#402),#115,.T.);
#402 = FACE_BOUND('',#403,.T.);
#403 = EDGE_LOOP('',(#404,#426,#427,#428,#451,#492,#532,#561,#589,#590,
    #591));
#404 = ORIENTED_EDGE('',*,*,#405,.T.);
#405 = EDGE_CURVE('',#276,#215,#406,.T.);
#406 = SURFACE_CURVE('',#407,(#412,#419),.PCURVE_S1.);
#407 = CIRCLE('',#408,1.2);
#408 = AXIS2_PLACEMENT_3D('',#409,#410,#411);
#409 = CARTESIAN_POINT('',(8.,0.,32.));
#410 = DIRECTION('',(0.623782861552,0.374269716931,0.686161147707));
#411 = DIRECTION('',(0.739940073396,2.775557561563E-17,-0.672672793996)
  );
#412 = PCURVE('',#115,#413);
#413 = DEFINITIONAL_REPRESENTATION('',(#414),#418);
#414 = LINE('',#415,#416);
#415 = CARTESIAN_POINT('',(0.,0.));
#416 = VECTOR('',#417,1.);
#417 = DIRECTION('',(1.,0.));
#418 = ( GEOMETRIC_REPRESENTATION_CONTEXT(2) 
PARAMETRIC_REPRESENTATION_CONTEXT() REPRESENTATION_CONTEXT('2D SPACE',''
  ) );
#419 = PCURVE('',#372,#420);
#420 = DEFINITIONAL_REPRESENTATION('',(#421),#425);
#421 = CIRCLE('',#422,1.2);
#422 = AXIS2_PLACEMENT_2D('',#423,#424);
#423 = CARTESIAN_POINT('',(0.,0.));
#424 = DIRECTION('',(1.,0.));
#425 = ( GEOMETRIC_REPRESENTATION_CONTEXT(2) 
PARAMETRIC_REPRESENTATION_CONTEXT() REPRESENTATION_CONTEXT('2D SPACE',''
  ) );
#426 = ORIENTED_EDGE('',*,*,#214,.T.);
#427 = ORIENTED_EDGE('',*,*,#133,.T.);
#428 = ORIENTED_EDGE('',*,*,#429,.T.);
#429 = EDGE_CURVE('',#93,#430,#432,.T.);
#430 = VERTEX_POINT('',#431);
#431 = CARTESIAN_POINT('',(18.886260421918,5.99903215827,42.190958215956
    ));
#432 = SEAM_CURVE('',#433,(#437,#444),.PCURVE_S1.);
#433 = LINE('',#434,#435);
#434 = CARTESIAN_POINT('',(8.887928088075,-2.392467497739E-16,
    31.192792647204));
#435 = VECTOR('',#436,1.);
#436 = DIRECTION('',(0.623782861552,0.374269716931,0.686161147707));
#437 = PCURVE('',#115,#438);
#438 = DEFINITIONAL_REPRESENTATION('',(#439),#443);
#439 = LINE('',#440,#441);
#440 = CARTESIAN_POINT('',(0.,-0.));
#441 = VECTOR('',#442,1.);
#442 = DIRECTION('',(0.,1.));
#443 = ( GEOMETRIC_REPRESENTATION_CONTEXT(2) 
PARAMETRIC_REPRESENTATION_CONTEXT() REPRESENTATION_CONTEXT('2D SPACE',''
  ) );
#444 = PCURVE('',#115,#445);
#445 = DEFINITIONAL_REPRESENTATION('',(#446),#450);
#446 = LINE('',#447,#448);
#447 = CARTESIAN_POINT('',(6.28318530718,-0.));
#448 = VECTOR('',#449,1.);
#449 = DIRECTION('',(0.,1.));
#450 = ( GEOMETRIC_REPRESENTATION_CONTEXT(2) 
PARAMETRIC_REPRESENTATION_CONTEXT() REPRESENTATION_CONTEXT('2D SPACE',''
  ) );
#451 = ORIENTED_EDGE('',*,*,#452,.F.);
#452 = EDGE_CURVE('',#453,#430,#455,.T.);
#453 = VERTEX_POINT('',#454);
#454 = CARTESIAN_POINT('',(17.113830095768,5.993578478955,43.80911165169
    ));
#455 = SURFACE_CURVE('',#456,(#461,#474),.PCURVE_S1.);
#456 = ELLIPSE('',#457,1.286292045712,1.2);
#457 = AXIS2_PLACEMENT_3D('',#458,#459,#460);
#458 = CARTESIAN_POINT('',(18.,6.,43.));
#459 = DIRECTION('',(0.674130826473,1.5240130887E-02,0.738454715747));
#460 = DIRECTION('',(-1.422747497669E-02,0.999869542664,
    -7.64700003269E-03));
#461 = PCURVE('',#115,#462);
#462 = DEFINITIONAL_REPRESENTATION('',(#463),#473);
#463 = B_SPLINE_CURVE_WITH_KNOTS('',8,(#464,#465,#466,#467,#468,#469,
    #470,#471,#472),.UNSPECIFIED.,.F.,.F.,(9,9),(1.570796350079,
    4.706618267068),.PIECEWISE_BEZIER_KNOTS.);
#464 = CARTESIAN_POINT('',(3.147363390189,16.031219531096));
#465 = CARTESIAN_POINT('',(3.539341129812,15.849658409521));
#466 = CARTESIAN_POINT('',(3.931318869431,15.668095825842));
#467 = CARTESIAN_POINT('',(4.323296609082,15.529057399406));
#468 = CARTESIAN_POINT('',(4.715274348633,15.474951926008));
#469 = CARTESIAN_POINT('',(5.107252088328,15.527800424199));
#470 = CARTESIAN_POINT('',(5.499229827922,15.665898381394));
#471 = CARTESIAN_POINT('',(5.891207567554,15.846988507507));
#472 = CARTESIAN_POINT('',(6.283185307178,16.028546605995));
#473 = ( GEOMETRIC_REPRESENTATION_CONTEXT(2) 
PARAMETRIC_REPRESENTATION_CONTEXT() REPRESENTATION_CONTEXT('2D SPACE',''
  ) );
#474 = PCURVE('',#475,#480);
#475 = CYLINDRICAL_SURFACE('',#476,1.2);
#476 = AXIS2_PLACEMENT_3D('',#477,#478,#479);
#477 = CARTESIAN_POINT('',(18.,6.,43.));
#478 = DIRECTION('',(0.634029459475,-0.345834250623,0.691668501245));
#479 = DIRECTION('',(0.737154140201,-2.775557561563E-17,-0.675724628517)
  );
#480 = DEFINITIONAL_REPRESENTATION('',(#481),#491);
#481 = B_SPLINE_CURVE_WITH_KNOTS('',8,(#482,#483,#484,#485,#486,#487,
    #488,#489,#490),.UNSPECIFIED.,.F.,.F.,(9,9),(1.570796350079,
    4.706618267068),.PIECEWISE_BEZIER_KNOTS.);
#482 = CARTESIAN_POINT('',(3.147295886429,1.078495870388E-08));
#483 = CARTESIAN_POINT('',(3.539273626053,0.18156113236));
#484 = CARTESIAN_POINT('',(3.931251365678,0.363123716029));
#485 = CARTESIAN_POINT('',(4.323229105277,0.502162142494));
#486 = CARTESIAN_POINT('',(4.71520684494,0.556267615798));
#487 = CARTESIAN_POINT('',(5.107184584522,0.503419117691));
#488 = CARTESIAN_POINT('',(5.499162324169,0.365321160471));
#489 = CARTESIAN_POINT('',(5.891140063795,0.184231034375));
#490 = CARTESIAN_POINT('',(6.283117803418,2.672935886501E-03));
#491 = ( GEOMETRIC_REPRESENTATION_CONTEXT(2) 
PARAMETRIC_REPRESENTATION_CONTEXT() REPRESENTATION_CONTEXT('2D SPACE',''
  ) );
#492 = ORIENTED_EDGE('',*,*,#493,.F.);
#493 = EDGE_CURVE('',#494,#453,#496,.T.);
#494 = VERTEX_POINT('',#495);
#495 = CARTESIAN_POINT('',(17.382605093487,7.028991510855,43.));
#496 = SURFACE_CURVE('',#497,(#502,#509),.PCURVE_S1.);
#497 = CIRCLE('',#498,1.2);
#498 = AXIS2_PLACEMENT_3D('',#499,#500,#501);
#499 = CARTESIAN_POINT('',(18.,6.,43.));
#500 = DIRECTION('',(0.623782861552,0.374269716931,0.686161147707));
#501 = DIRECTION('',(0.739940073396,2.775557561563E-17,-0.672672793996)
  );
#502 = PCURVE('',#115,#503);
#503 = DEFINITIONAL_REPRESENTATION('',(#504),#508);
#504 = LINE('',#505,#506);
#505 = CARTESIAN_POINT('',(0.,16.031219541881));
#506 = VECTOR('',#507,1.);
#507 = DIRECTION('',(1.,0.));
#508 = ( GEOMETRIC_REPRESENTATION_CONTEXT(2) 
PARAMETRIC_REPRESENTATION_CONTEXT() REPRESENTATION_CONTEXT('2D SPACE',''
  ) );
#509 = PCURVE('',#510,#515);
#510 = SPHERICAL_SURFACE('',#511,1.2);
#511 = AXIS2_PLACEMENT_3D('',#512,#513,#514);
#512 = CARTESIAN_POINT('',(18.,6.,43.));
#513 = DIRECTION('',(0.,0.,1.));
#514 = DIRECTION('',(1.,0.,-0.));
#515 = DEFINITIONAL_REPRESENTATION('',(#516),#531);
#516 = B_SPLINE_CURVE_WITH_KNOTS('',7,(#517,#518,#519,#520,#521,#522,
    #523,#524,#525,#526,#527,#528,#529,#530),.UNSPECIFIED.,.F.,.F.,(8,6,
    8),(1.961345212332,2.554354289618,3.147363366905),.UNSPECIFIED.);
#517 = CARTESIAN_POINT('',(2.111215827065,1.7763568394E-14));
#518 = CARTESIAN_POINT('',(2.169344368361,6.16263141844E-02));
#519 = CARTESIAN_POINT('',(2.227472321975,0.123252579869));
#520 = CARTESIAN_POINT('',(2.286324095109,0.184539004495));
#521 = CARTESIAN_POINT('',(2.346613689335,0.245144539356));
#522 = CARTESIAN_POINT('',(2.409118633287,0.30469329383));
#523 = CARTESIAN_POINT('',(2.474711589599,0.362730149681));
#524 = CARTESIAN_POINT('',(2.6139876826,0.474601001137));
#525 = CARTESIAN_POINT('',(2.687668993497,0.528434876043));
#526 = CARTESIAN_POINT('',(2.766353699109,0.579578687592));
#527 = CARTESIAN_POINT('',(2.851032341512,0.627304753797));
#528 = CARTESIAN_POINT('',(2.942780204613,0.67071682192));
#529 = CARTESIAN_POINT('',(3.042254141659,0.708639084738));
#530 = CARTESIAN_POINT('',(3.14883890357,0.739961810974));
#531 = ( GEOMETRIC_REPRESENTATION_CONTEXT(2) 
PARAMETRIC_REPRESENTATION_CONTEXT() REPRESENTATION_CONTEXT('2D SPACE',''
  ) );
#532 = ORIENTED_EDGE('',*,*,#533,.F.);
#533 = EDGE_CURVE('',#534,#494,#536,.T.);
#534 = VERTEX_POINT('',#535);
#535 = CARTESIAN_POINT('',(18.886169904232,6.006421521045,42.19088834831
    ));
#536 = SURFACE_CURVE('',#537,(#542,#549),.PCURVE_S1.);
#537 = CIRCLE('',#538,1.2);
#538 = AXIS2_PLACEMENT_3D('',#539,#540,#541);
#539 = CARTESIAN_POINT('',(18.,6.,43.));
#540 = DIRECTION('',(0.623782861552,0.374269716931,0.686161147707));
#541 = DIRECTION('',(0.739940073396,2.775557561563E-17,-0.672672793996)
  );
#542 = PCURVE('',#115,#543);
#543 = DEFINITIONAL_REPRESENTATION('',(#544),#548);
#544 = LINE('',#545,#546);
#545 = CARTESIAN_POINT('',(0.,16.031219541881));
#546 = VECTOR('',#547,1.);
#547 = DIRECTION('',(1.,0.));
#548 = ( GEOMETRIC_REPRESENTATION_CONTEXT(2) 
PARAMETRIC_REPRESENTATION_CONTEXT() REPRESENTATION_CONTEXT('2D SPACE',''
  ) );
#549 = PCURVE('',#550,#555);
#550 = PLANE('',#551);
#551 = AXIS2_PLACEMENT_3D('',#552,#553,#554);
#552 = CARTESIAN_POINT('',(18.,6.,43.));
#553 = DIRECTION('',(0.623782861552,0.374269716931,0.686161147707));
#554 = DIRECTION('',(0.739940073396,2.775557561563E-17,-0.672672793996)
  );
#555 = DEFINITIONAL_REPRESENTATION('',(#556),#560);
#556 = CIRCLE('',#557,1.2);
#557 = AXIS2_PLACEMENT_2D('',#558,#559);
#558 = CARTESIAN_POINT('',(0.,0.));
#559 = DIRECTION('',(1.,0.));
#560 = ( GEOMETRIC_REPRESENTATION_CONTEXT(2) 
PARAMETRIC_REPRESENTATION_CONTEXT() REPRESENTATION_CONTEXT('2D SPACE',''
  ) );
#561 = ORIENTED_EDGE('',*,*,#562,.F.);
#562 = EDGE_CURVE('',#430,#534,#563,.T.);
#563 = SURFACE_CURVE('',#564,(#569,#579),.PCURVE_S1.);
#564 = ELLIPSE('',#565,1.286292045712,1.2);
#565 = AXIS2_PLACEMENT_3D('',#566,#567,#568);
#566 = CARTESIAN_POINT('',(18.,6.,43.));
#567 = DIRECTION('',(0.674130826473,1.5240130887E-02,0.738454715747));
#568 = DIRECTION('',(-1.422747497669E-02,0.999869542664,
    -7.64700003269E-03));
#569 = PCURVE('',#115,#570);
#570 = DEFINITIONAL_REPRESENTATION('',(#571),#578);
#571 = B_SPLINE_CURVE_WITH_KNOTS('',5,(#572,#573,#574,#575,#576,#577),
  .UNSPECIFIED.,.F.,.F.,(6,6),(4.706685770828,4.712388985657),
  .PIECEWISE_BEZIER_KNOTS.);
#572 = CARTESIAN_POINT('',(6.750375787772E-05,16.028577872711));
#573 = CARTESIAN_POINT('',(1.208146723718E-03,16.029106201305));
#574 = CARTESIAN_POINT('',(2.34878968956E-03,16.029634534195));
#575 = CARTESIAN_POINT('',(3.489432655399E-03,16.03016286995));
#576 = CARTESIAN_POINT('',(4.630075621238E-03,16.030691207137));
#577 = CARTESIAN_POINT('',(5.770718587078E-03,16.031219544323));
#578 = ( GEOMETRIC_REPRESENTATION_CONTEXT(2) 
PARAMETRIC_REPRESENTATION_CONTEXT() REPRESENTATION_CONTEXT('2D SPACE',''
  ) );
#579 = PCURVE('',#475,#580);
#580 = DEFINITIONAL_REPRESENTATION('',(#581),#588);
#581 = B_SPLINE_CURVE_WITH_KNOTS('',5,(#582,#583,#584,#585,#586,#587),
  .UNSPECIFIED.,.F.,.F.,(6,6),(4.706685770828,4.712388985657),
  .PIECEWISE_BEZIER_KNOTS.);
#582 = CARTESIAN_POINT('',(-1.714184350021E-12,2.641669170586E-03));
#583 = CARTESIAN_POINT('',(1.140642964126E-03,2.113340576386E-03));
#584 = CARTESIAN_POINT('',(2.281285929963E-03,1.585007685957E-03));
#585 = CARTESIAN_POINT('',(3.421928895813E-03,1.05667193135E-03));
#586 = CARTESIAN_POINT('',(4.562571861646E-03,5.283347446611E-04));
#587 = CARTESIAN_POINT('',(5.703214827486E-03,-2.44202169597E-09));
#588 = ( GEOMETRIC_REPRESENTATION_CONTEXT(2) 
PARAMETRIC_REPRESENTATION_CONTEXT() REPRESENTATION_CONTEXT('2D SPACE',''
  ) );
#589 = ORIENTED_EDGE('',*,*,#429,.F.);
#590 = ORIENTED_EDGE('',*,*,#92,.T.);
#591 = ORIENTED_EDGE('',*,*,#304,.T.);
#592 = ADVANCED_FACE('',(#593),#201,.F.);
#593 = FACE_BOUND('',#594,.T.);
#594 = EDGE_LOOP('',(#595));
#595 = ORIENTED_EDGE('',*,*,#186,.F.);
#596 = ADVANCED_FACE('',(#597),#292,.F.);
#597 = FACE_BOUND('',#598,.F.);
#598 = EDGE_LOOP('',(#599,#600,#601));
#599 = ORIENTED_EDGE('',*,*,#383,.T.);
#600 = ORIENTED_EDGE('',*,*,#275,.T.);
#601 = ORIENTED_EDGE('',*,*,#602,.F.);
#602 = EDGE_CURVE('',#358,#276,#603,.T.);
#603 = SURFACE_CURVE('',#604,(#608,#614),.PCURVE_S1.);
#604 = LINE('',#605,#606);
#605 = CARTESIAN_POINT('',(8.,0.,32.));
#606 = VECTOR('',#607,1.);
#607 = DIRECTION('',(0.514495755428,-0.857492925713,0.));
#608 = PCURVE('',#292,#609);
#609 = DEFINITIONAL_REPRESENTATION('',(#610),#613);
#610 = B_SPLINE_CURVE_WITH_KNOTS('',1,(#611,#612),.UNSPECIFIED.,.F.,.F.,
  (2,2),(-0.662534319215,1.297717841185),.PIECEWISE_BEZIER_KNOTS.);
#611 = CARTESIAN_POINT('',(-0.340871095061,0.568118491769));
#612 = CARTESIAN_POINT('',(0.667670321032,-1.112783868387));
#613 = ( GEOMETRIC_REPRESENTATION_CONTEXT(2) 
PARAMETRIC_REPRESENTATION_CONTEXT() REPRESENTATION_CONTEXT('2D SPACE',''
  ) );
#614 = PCURVE('',#372,#615);
#615 = DEFINITIONAL_REPRESENTATION('',(#616),#619);
#616 = B_SPLINE_CURVE_WITH_KNOTS('',1,(#617,#618),.UNSPECIFIED.,.F.,.F.,
  (2,2),(-0.662534319215,1.297717841185),.PIECEWISE_BEZIER_KNOTS.);
#617 = CARTESIAN_POINT('',(-0.252224183098,0.612645644397));
#618 = CARTESIAN_POINT('',(0.494036026349,-1.2));
#619 = ( GEOMETRIC_REPRESENTATION_CONTEXT(2) 
PARAMETRIC_REPRESENTATION_CONTEXT() REPRESENTATION_CONTEXT('2D SPACE',''
  ) );
#620 = ADVANCED_FACE('',(#621),#372,.F.);
#621 = FACE_BOUND('',#622,.F.);
#622 = EDGE_LOOP('',(#623,#624,#625));
#623 = ORIENTED_EDGE('',*,*,#405,.T.);
#624 = ORIENTED_EDGE('',*,*,#357,.T.);
#625 = ORIENTED_EDGE('',*,*,#602,.T.);
#626 = ADVANCED_FACE('',(#627),#475,.T.);
#627 = FACE_BOUND('',#628,.T.);
#628 = EDGE_LOOP('',(#629,#630,#653,#680,#681,#682,#711));
#629 = ORIENTED_EDGE('',*,*,#452,.T.);
#630 = ORIENTED_EDGE('',*,*,#631,.T.);
#631 = EDGE_CURVE('',#430,#632,#634,.T.);
#632 = VERTEX_POINT('',#633);
#633 = CARTESIAN_POINT('',(29.884584968241,-1.121782308258E-15,
    54.189130445779));
#634 = SEAM_CURVE('',#635,(#639,#646),.PCURVE_S1.);
#635 = LINE('',#636,#637);
#636 = CARTESIAN_POINT('',(18.884584968241,6.,42.189130445779));
#637 = VECTOR('',#638,1.);
#638 = DIRECTION('',(0.634029459475,-0.345834250623,0.691668501245));
#639 = PCURVE('',#475,#640);
#640 = DEFINITIONAL_REPRESENTATION('',(#641),#645);
#641 = LINE('',#642,#643);
#642 = CARTESIAN_POINT('',(0.,-0.));
#643 = VECTOR('',#644,1.);
#644 = DIRECTION('',(0.,1.));
#645 = ( GEOMETRIC_REPRESENTATION_CONTEXT(2) 
PARAMETRIC_REPRESENTATION_CONTEXT() REPRESENTATION_CONTEXT('2D SPACE',''
  ) );
#646 = PCURVE('',#475,#647);
#647 = DEFINITIONAL_REPRESENTATION('',(#648),#652);
#648 = LINE('',#649,#650);
#649 = CARTESIAN_POINT('',(6.28318530718,-0.));
#650 = VECTOR('',#651,1.);
#651 = DIRECTION('',(0.,1.));
#652 = ( GEOMETRIC_REPRESENTATION_CONTEXT(2) 
PARAMETRIC_REPRESENTATION_CONTEXT() REPRESENTATION_CONTEXT('2D SPACE',''
  ) );
#653 = ORIENTED_EDGE('',*,*,#654,.F.);
#654 = EDGE_CURVE('',#632,#632,#655,.T.);
#655 = SURFACE_CURVE('',#656,(#661,#668),.PCURVE_S1.);
#656 = CIRCLE('',#657,1.2);
#657 = AXIS2_PLACEMENT_3D('',#658,#659,#660);
#658 = CARTESIAN_POINT('',(29.,0.,55.));
#659 = DIRECTION('',(0.634029459475,-0.345834250623,0.691668501245));
#660 = DIRECTION('',(0.737154140201,-5.551115123126E-17,-0.675724628517)
  );
#661 = PCURVE('',#475,#662);
#662 = DEFINITIONAL_REPRESENTATION('',(#663),#667);
#663 = LINE('',#664,#665);
#664 = CARTESIAN_POINT('',(0.,17.349351572897));
#665 = VECTOR('',#666,1.);
#666 = DIRECTION('',(1.,0.));
#667 = ( GEOMETRIC_REPRESENTATION_CONTEXT(2) 
PARAMETRIC_REPRESENTATION_CONTEXT() REPRESENTATION_CONTEXT('2D SPACE',''
  ) );
#668 = PCURVE('',#669,#674);
#669 = PLANE('',#670);
#670 = AXIS2_PLACEMENT_3D('',#671,#672,#673);
#671 = CARTESIAN_POINT('',(29.,0.,55.));
#672 = DIRECTION('',(0.634029459475,-0.345834250623,0.691668501245));
#673 = DIRECTION('',(0.737154140201,-2.775557561563E-17,-0.675724628517)
  );
#674 = DEFINITIONAL_REPRESENTATION('',(#675),#679);
#675 = CIRCLE('',#676,1.2);
#676 = AXIS2_PLACEMENT_2D('',#677,#678);
#677 = CARTESIAN_POINT('',(0.,0.));
#678 = DIRECTION('',(1.,0.));
#679 = ( GEOMETRIC_REPRESENTATION_CONTEXT(2) 
PARAMETRIC_REPRESENTATION_CONTEXT() REPRESENTATION_CONTEXT('2D SPACE',''
  ) );
#680 = ORIENTED_EDGE('',*,*,#631,.F.);
#681 = ORIENTED_EDGE('',*,*,#562,.T.);
#682 = ORIENTED_EDGE('',*,*,#683,.T.);
#683 = EDGE_CURVE('',#534,#684,#686,.T.);
#684 = VERTEX_POINT('',#685);
#685 = CARTESIAN_POINT('',(18.574622556817,7.053474687497,43.));
#686 = SURFACE_CURVE('',#687,(#692,#699),.PCURVE_S1.);
#687 = CIRCLE('',#688,1.2);
#688 = AXIS2_PLACEMENT_3D('',#689,#690,#691);
#689 = CARTESIAN_POINT('',(18.,6.,43.));
#690 = DIRECTION('',(0.634029459475,-0.345834250623,0.691668501245));
#691 = DIRECTION('',(0.737154140201,-5.551115123126E-17,-0.675724628517)
  );
#692 = PCURVE('',#475,#693);
#693 = DEFINITIONAL_REPRESENTATION('',(#694),#698);
#694 = LINE('',#695,#696);
#695 = CARTESIAN_POINT('',(0.,0.));
#696 = VECTOR('',#697,1.);
#697 = DIRECTION('',(1.,0.));
#698 = ( GEOMETRIC_REPRESENTATION_CONTEXT(2) 
PARAMETRIC_REPRESENTATION_CONTEXT() REPRESENTATION_CONTEXT('2D SPACE',''
  ) );
#699 = PCURVE('',#700,#705);
#700 = PLANE('',#701);
#701 = AXIS2_PLACEMENT_3D('',#702,#703,#704);
#702 = CARTESIAN_POINT('',(18.,6.,43.));
#703 = DIRECTION('',(0.634029459475,-0.345834250623,0.691668501245));
#704 = DIRECTION('',(0.737154140201,-2.775557561563E-17,-0.675724628517)
  );
#705 = DEFINITIONAL_REPRESENTATION('',(#706),#710);
#706 = CIRCLE('',#707,1.2);
#707 = AXIS2_PLACEMENT_2D('',#708,#709);
#708 = CARTESIAN_POINT('',(0.,0.));
#709 = DIRECTION('',(1.,0.));
#710 = ( GEOMETRIC_REPRESENTATION_CONTEXT(2) 
PARAMETRIC_REPRESENTATION_CONTEXT() REPRESENTATION_CONTEXT('2D SPACE',''
  ) );
#711 = ORIENTED_EDGE('',*,*,#712,.T.);
#712 = EDGE_CURVE('',#684,#453,#713,.T.);
#713 = SURFACE_CURVE('',#714,(#719,#726),.PCURVE_S1.);
#714 = CIRCLE('',#715,1.2);
#715 = AXIS2_PLACEMENT_3D('',#716,#717,#718);
#716 = CARTESIAN_POINT('',(18.,6.,43.));
#717 = DIRECTION('',(0.634029459475,-0.345834250623,0.691668501245));
#718 = DIRECTION('',(0.737154140201,-5.551115123126E-17,-0.675724628517)
  );
#719 = PCURVE('',#475,#720);
#720 = DEFINITIONAL_REPRESENTATION('',(#721),#725);
#721 = LINE('',#722,#723);
#722 = CARTESIAN_POINT('',(0.,0.));
#723 = VECTOR('',#724,1.);
#724 = DIRECTION('',(1.,0.));
#725 = ( GEOMETRIC_REPRESENTATION_CONTEXT(2) 
PARAMETRIC_REPRESENTATION_CONTEXT() REPRESENTATION_CONTEXT('2D SPACE',''
  ) );
#726 = PCURVE('',#510,#727);
#727 = DEFINITIONAL_REPRESENTATION('',(#728),#752);
#728 = B_SPLINE_CURVE_WITH_KNOTS('',8,(#729,#730,#731,#732,#733,#734,
    #735,#736,#737,#738,#739,#740,#741,#742,#743,#744,#745,#746,#747,
    #748,#749,#750,#751),.UNSPECIFIED.,.F.,.F.,(9,7,7,9),(1.210033742842
    ,2.178664802994,2.662980333069,3.147295863145),.UNSPECIFIED.);
#729 = CARTESIAN_POINT('',(1.071449605115,-5.921189464668E-15));
#730 = CARTESIAN_POINT('',(1.155196054319,8.744500007264E-02));
#731 = CARTESIAN_POINT('',(1.238942329125,0.174890440768));
#732 = CARTESIAN_POINT('',(1.324642012853,0.261397912083));
#733 = CARTESIAN_POINT('',(1.414236125908,0.346048704503));
#734 = CARTESIAN_POINT('',(1.509921561247,0.427705294713));
#735 = CARTESIAN_POINT('',(1.614157736839,0.505027188601));
#736 = CARTESIAN_POINT('',(1.73031318292,0.575858777256));
#737 = CARTESIAN_POINT('',(1.924844889147,0.668315286225));
#738 = CARTESIAN_POINT('',(1.99307192157,0.696835944383));
#739 = CARTESIAN_POINT('',(2.064884904704,0.722719913672));
#740 = CARTESIAN_POINT('',(2.140376040624,0.745600382792));
#741 = CARTESIAN_POINT('',(2.219463653376,0.765081319214));
#742 = CARTESIAN_POINT('',(2.301753669141,0.780783363953));
#743 = CARTESIAN_POINT('',(2.386484146617,0.792407081967));
#744 = CARTESIAN_POINT('',(2.558938189205,0.807161134781));
#745 = CARTESIAN_POINT('',(2.646660608318,0.810291098311));
#746 = CARTESIAN_POINT('',(2.734939559059,0.809005832475));
#747 = CARTESIAN_POINT('',(2.822623738505,0.803257702919));
#748 = CARTESIAN_POINT('',(2.908567311524,0.793176856739));
#749 = CARTESIAN_POINT('',(2.991880756794,0.779035424125));
#750 = CARTESIAN_POINT('',(3.072059965458,0.761176009704));
#751 = CARTESIAN_POINT('',(3.14883890357,0.739961810974));
#752 = ( GEOMETRIC_REPRESENTATION_CONTEXT(2) 
PARAMETRIC_REPRESENTATION_CONTEXT() REPRESENTATION_CONTEXT('2D SPACE',''
  ) );
#753 = ADVANCED_FACE('',(#754),#550,.T.);
#754 = FACE_BOUND('',#755,.T.);
#755 = EDGE_LOOP('',(#756,#782,#801));
#756 = ORIENTED_EDGE('',*,*,#757,.T.);
#757 = EDGE_CURVE('',#494,#758,#760,.T.);
#758 = VERTEX_POINT('',#759);
#759 = CARTESIAN_POINT('',(18.,6.,43.));
#760 = SURFACE_CURVE('',#761,(#765,#771),.PCURVE_S1.);
#761 = LINE('',#762,#763);
#762 = CARTESIAN_POINT('',(18.,6.,43.));
#763 = VECTOR('',#764,1.);
#764 = DIRECTION('',(0.514495755428,-0.857492925713,0.));
#765 = PCURVE('',#550,#766);
#766 = DEFINITIONAL_REPRESENTATION('',(#767),#770);
#767 = B_SPLINE_CURVE_WITH_KNOTS('',1,(#768,#769),.UNSPECIFIED.,.F.,.F.,
  (2,2),(-1.297717841185,7.48871606127E-03),.PIECEWISE_BEZIER_KNOTS.);
#768 = CARTESIAN_POINT('',(-0.494036026349,1.2));
#769 = CARTESIAN_POINT('',(2.850924452103E-03,-6.924817543786E-03));
#770 = ( GEOMETRIC_REPRESENTATION_CONTEXT(2) 
PARAMETRIC_REPRESENTATION_CONTEXT() REPRESENTATION_CONTEXT('2D SPACE',''
  ) );
#771 = PCURVE('',#772,#777);
#772 = PLANE('',#773);
#773 = AXIS2_PLACEMENT_3D('',#774,#775,#776);
#774 = CARTESIAN_POINT('',(18.,6.,43.));
#775 = DIRECTION('',(0.,0.,1.));
#776 = DIRECTION('',(1.,0.,-0.));
#777 = DEFINITIONAL_REPRESENTATION('',(#778),#781);
#778 = B_SPLINE_CURVE_WITH_KNOTS('',1,(#779,#780),.UNSPECIFIED.,.F.,.F.,
  (2,2),(-1.297717841185,7.48871606127E-03),.PIECEWISE_BEZIER_KNOTS.);
#779 = CARTESIAN_POINT('',(-0.667670321032,1.112783868387));
#780 = CARTESIAN_POINT('',(3.852912627125E-03,-6.421521045209E-03));
#781 = ( GEOMETRIC_REPRESENTATION_CONTEXT(2) 
PARAMETRIC_REPRESENTATION_CONTEXT() REPRESENTATION_CONTEXT('2D SPACE',''
  ) );
#782 = ORIENTED_EDGE('',*,*,#783,.T.);
#783 = EDGE_CURVE('',#758,#534,#784,.T.);
#784 = SURFACE_CURVE('',#785,(#789,#795),.PCURVE_S1.);
#785 = LINE('',#786,#787);
#786 = CARTESIAN_POINT('',(18.,6.,43.));
#787 = VECTOR('',#788,1.);
#788 = DIRECTION('',(0.738474920193,5.351267537633E-03,-0.674259709742)
  );
#789 = PCURVE('',#550,#790);
#790 = DEFINITIONAL_REPRESENTATION('',(#791),#794);
#791 = B_SPLINE_CURVE_WITH_KNOTS('',1,(#792,#793),.UNSPECIFIED.,.F.,.F.,
  (2,2),(-1.200019516224,1.200019516224),.PIECEWISE_BEZIER_KNOTS.);
#792 = CARTESIAN_POINT('',(-1.199999535275,-6.924930165643E-03));
#793 = CARTESIAN_POINT('',(1.199999535275,6.924930165641E-03));
#794 = ( GEOMETRIC_REPRESENTATION_CONTEXT(2) 
PARAMETRIC_REPRESENTATION_CONTEXT() REPRESENTATION_CONTEXT('2D SPACE',''
  ) );
#795 = PCURVE('',#700,#796);
#796 = DEFINITIONAL_REPRESENTATION('',(#797),#800);
#797 = B_SPLINE_CURVE_WITH_KNOTS('',1,(#798,#799),.UNSPECIFIED.,.F.,.F.,
  (2,2),(-1.200019516224,1.200019516224),.PIECEWISE_BEZIER_KNOTS.);
#798 = CARTESIAN_POINT('',(-1.2,-6.843925669782E-03));
#799 = CARTESIAN_POINT('',(1.2,6.843925669782E-03));
#800 = ( GEOMETRIC_REPRESENTATION_CONTEXT(2) 
PARAMETRIC_REPRESENTATION_CONTEXT() REPRESENTATION_CONTEXT('2D SPACE',''
  ) );
#801 = ORIENTED_EDGE('',*,*,#533,.T.);
#802 = ADVANCED_FACE('',(#803),#510,.T.);
#803 = FACE_BOUND('',#804,.T.);
#804 = EDGE_LOOP('',(#805,#806,#828));
#805 = ORIENTED_EDGE('',*,*,#712,.F.);
#806 = ORIENTED_EDGE('',*,*,#807,.T.);
#807 = EDGE_CURVE('',#684,#494,#808,.T.);
#808 = SURFACE_CURVE('',#809,(#814,#821),.PCURVE_S1.);
#809 = CIRCLE('',#810,1.2);
#810 = AXIS2_PLACEMENT_3D('',#811,#812,#813);
#811 = CARTESIAN_POINT('',(18.,6.,43.));
#812 = DIRECTION('',(0.,0.,1.));
#813 = DIRECTION('',(1.,0.,-0.));
#814 = PCURVE('',#510,#815);
#815 = DEFINITIONAL_REPRESENTATION('',(#816),#820);
#816 = LINE('',#817,#818);
#817 = CARTESIAN_POINT('',(0.,0.));
#818 = VECTOR('',#819,1.);
#819 = DIRECTION('',(1.,0.));
#820 = ( GEOMETRIC_REPRESENTATION_CONTEXT(2) 
PARAMETRIC_REPRESENTATION_CONTEXT() REPRESENTATION_CONTEXT('2D SPACE',''
  ) );
#821 = PCURVE('',#772,#822);
#822 = DEFINITIONAL_REPRESENTATION('',(#823),#827);
#823 = CIRCLE('',#824,1.2);
#824 = AXIS2_PLACEMENT_2D('',#825,#826);
#825 = CARTESIAN_POINT('',(0.,0.));
#826 = DIRECTION('',(1.,0.));
#827 = ( GEOMETRIC_REPRESENTATION_CONTEXT(2) 
PARAMETRIC_REPRESENTATION_CONTEXT() REPRESENTATION_CONTEXT('2D SPACE',''
  ) );
#828 = ORIENTED_EDGE('',*,*,#493,.T.);
#829 = ADVANCED_FACE('',(#830),#700,.F.);
#830 = FACE_BOUND('',#831,.F.);
#831 = EDGE_LOOP('',(#832,#851,#852));
#832 = ORIENTED_EDGE('',*,*,#833,.T.);
#833 = EDGE_CURVE('',#684,#758,#834,.T.);
#834 = SURFACE_CURVE('',#835,(#839,#845),.PCURVE_S1.);
#835 = LINE('',#836,#837);
#836 = CARTESIAN_POINT('',(18.,6.,43.));
#837 = VECTOR('',#838,1.);
#838 = DIRECTION('',(-0.478852130681,-0.877895572914,0.));
#839 = PCURVE('',#700,#840);
#840 = DEFINITIONAL_REPRESENTATION('',(#841),#844);
#841 = B_SPLINE_CURVE_WITH_KNOTS('',1,(#842,#843),.UNSPECIFIED.,.F.,.F.,
  (2,2),(-1.282561137239,7.314675279534E-03),.PIECEWISE_BEZIER_KNOTS.);
#842 = CARTESIAN_POINT('',(0.452728473542,1.2));
#843 = CARTESIAN_POINT('',(-2.581991359016E-03,-6.843814365323E-03));
#844 = ( GEOMETRIC_REPRESENTATION_CONTEXT(2) 
PARAMETRIC_REPRESENTATION_CONTEXT() REPRESENTATION_CONTEXT('2D SPACE',''
  ) );
#845 = PCURVE('',#772,#846);
#846 = DEFINITIONAL_REPRESENTATION('',(#847),#850);
#847 = B_SPLINE_CURVE_WITH_KNOTS('',1,(#848,#849),.UNSPECIFIED.,.F.,.F.,
  (2,2),(-1.282561137239,7.314675279534E-03),.PIECEWISE_BEZIER_KNOTS.);
#848 = CARTESIAN_POINT('',(0.614157133295,1.125954744374));
#849 = CARTESIAN_POINT('',(-3.502647842841E-03,-6.421521045209E-03));
#850 = ( GEOMETRIC_REPRESENTATION_CONTEXT(2) 
PARAMETRIC_REPRESENTATION_CONTEXT() REPRESENTATION_CONTEXT('2D SPACE',''
  ) );
#851 = ORIENTED_EDGE('',*,*,#783,.T.);
#852 = ORIENTED_EDGE('',*,*,#683,.T.);
#853 = ADVANCED_FACE('',(#854),#669,.T.);
#854 = FACE_BOUND('',#855,.T.);
#855 = EDGE_LOOP('',(#856));
#856 = ORIENTED_EDGE('',*,*,#654,.T.);
#857 = ADVANCED_FACE('',(#858),#772,.F.);
#858 = FACE_BOUND('',#859,.F.);
#859 = EDGE_LOOP('',(#860,#861,#862));
#860 = ORIENTED_EDGE('',*,*,#833,.F.);
#861 = ORIENTED_EDGE('',*,*,#807,.T.);
#862 = ORIENTED_EDGE('',*,*,#757,.T.);
#863 = ( GEOMETRIC_REPRESENTATION_CONTEXT(3) 
GLOBAL_UNCERTAINTY_ASSIGNED_CONTEXT((#867)) GLOBAL_UNIT_ASSIGNED_CONTEXT
((#864,#865,#866)) REPRESENTATION_CONTEXT('Context #1',
  '3D Context with UNIT and UNCERTAINTY') );
#864 = ( LENGTH_UNIT() NAMED_UNIT(*) SI_UNIT(.MILLI.,.METRE.) );
#865 = ( NAMED_UNIT(*) PLANE_ANGLE_UNIT() SI_UNIT($,.RADIAN.) );
#866 = ( NAMED_UNIT(*) SI_UNIT($,.STERADIAN.) SOLID_ANGLE_UNIT() );
#867 = UNCERTAINTY_MEASURE_WITH_UNIT(LENGTH_MEASURE(2.E-06),#864,
  'distance_accuracy_value','confusion accuracy');
#868 = CONTEXT_DEPENDENT_SHAPE_REPRESENTATION(#869,#871);
#869 = ( REPRESENTATION_RELATIONSHIP('','',#32,#10) 
REPRESENTATION_RELATIONSHIP_WITH_TRANSFORMATION(#870) 
SHAPE_REPRESENTATION_RELATIONSHIP() );
#870 = ITEM_DEFINED_TRANSFORMATION('','',#11,#15);
#871 = PRODUCT_DEFINITION_SHAPE('Placement','Placement of an item',#872
  );
#872 = NEXT_ASSEMBLY_USAGE_OCCURRENCE('81',
'MANUAL_INFLATOR_PULL_LANYARD_WITH_MODELED_SLACK_AND_FIRED_TRAVEL_HMPE_
STOWED_LOCAL_DEFINITION','',#5,#27,$);
#873 = PRODUCT_RELATED_PRODUCT_CATEGORY('part',$,(#29));
#874 = MECHANICAL_DESIGN_GEOMETRIC_PRESENTATION_REPRESENTATION('',(#875)
  ,#863);
#875 = STYLED_ITEM('color',(#876),#33);
#876 = PRESENTATION_STYLE_ASSIGNMENT((#877));
#877 = SURFACE_STYLE_USAGE(.BOTH.,#878);
#878 = SURFACE_SIDE_STYLE('',(#879));
#879 = SURFACE_STYLE_FILL_AREA(#880);
#880 = FILL_AREA_STYLE('',(#881));
#881 = FILL_AREA_STYLE_COLOUR('',#882);
#882 = COLOUR_RGB('',0.1599999992,0.250000000672,0.339999993741);
ENDSEC;
END-ISO-10303-21;
