ISO-10303-21;
HEADER;
FILE_DESCRIPTION(('STEP AP214'),'1');
FILE_NAME('cctmp_9659FAE5-9CE8-4C63-9181-40E4F7D201B2_2026_08_13_20_36_27_0269_75092..stp','2026-08-13T18:36:27',('ACE Stoﬂd‰mpfer GmbH'),('CADClick - www.CADClick.com'),'Spatial InterOp 3D',' ','unknown authorization');
FILE_SCHEMA(('AUTOMOTIVE_DESIGN'));
ENDSEC;
DATA;
#1=MECHANICAL_DESIGN_GEOMETRIC_PRESENTATION_REPRESENTATION(' ',(#10,#11,#12,#13,#14,#15,#16,#17,#18,#19,#20,#21,#22,#23,#24,#25,#26,#27,#28,#29,#30,#31,#32,#33,#34,#35,#36),#6);
#2=PRODUCT_DEFINITION_CONTEXT('',#37,'design');
#3=APPLICATION_PROTOCOL_DEFINITION('INTERNATIONAL STANDARD','automotive_design',1994,#37);
#4=PRODUCT_CATEGORY_RELATIONSHIP('NONE','NONE',#38,#39);
#5=SHAPE_DEFINITION_REPRESENTATION(#40,#41);
#6= (GEOMETRIC_REPRESENTATION_CONTEXT(3)GLOBAL_UNCERTAINTY_ASSIGNED_CONTEXT((#44))GLOBAL_UNIT_ASSIGNED_CONTEXT((#46,#47,#48))REPRESENTATION_CONTEXT('NONE','WORKSPACE'));
#10=STYLED_ITEM('',(#50),#51);
#11=STYLED_ITEM('',(#52),#53);
#12=STYLED_ITEM('',(#54),#55);
#13=STYLED_ITEM('',(#56),#57);
#14=STYLED_ITEM('',(#58),#59);
#15=STYLED_ITEM('',(#60),#61);
#16=STYLED_ITEM('',(#62),#63);
#17=STYLED_ITEM('',(#64),#65);
#18=STYLED_ITEM('',(#66),#67);
#19=STYLED_ITEM('',(#68),#69);
#20=STYLED_ITEM('',(#70),#71);
#21=STYLED_ITEM('',(#72),#73);
#22=STYLED_ITEM('',(#74),#75);
#23=STYLED_ITEM('',(#76),#77);
#24=STYLED_ITEM('',(#78),#79);
#25=STYLED_ITEM('',(#80),#81);
#26=STYLED_ITEM('',(#82),#83);
#27=STYLED_ITEM('',(#84),#85);
#28=STYLED_ITEM('',(#86),#87);
#29=STYLED_ITEM('',(#88),#89);
#30=STYLED_ITEM('',(#90),#91);
#31=STYLED_ITEM('',(#92),#93);
#32=STYLED_ITEM('',(#94),#95);
#33=STYLED_ITEM('',(#96),#97);
#34=STYLED_ITEM('',(#98),#99);
#35=STYLED_ITEM('',(#100),#101);
#36=STYLED_ITEM('',(#102),#103);
#37=APPLICATION_CONTEXT(' ');
#38=PRODUCT_CATEGORY('part','NONE');
#39=PRODUCT_RELATED_PRODUCT_CATEGORY('detail',' ',(#104));
#40=PRODUCT_DEFINITION_SHAPE('NONE','NONE',#105);
#41=ADVANCED_BREP_SHAPE_REPRESENTATION('GS-19-50-V4A_0_B8_B8_1',(#103,#106),#6);
#44=UNCERTAINTY_MEASURE_WITH_UNIT(LENGTH_MEASURE(1.0E-06),#46,'','');
#46= (CONVERSION_BASED_UNIT('MILLIMETRE',#109)LENGTH_UNIT()NAMED_UNIT(#112));
#47= (NAMED_UNIT(#114)PLANE_ANGLE_UNIT()SI_UNIT($,.RADIAN.));
#48= (NAMED_UNIT(#114)SOLID_ANGLE_UNIT()SI_UNIT($,.STERADIAN.));
#50=PRESENTATION_STYLE_ASSIGNMENT((#120));
#51=ADVANCED_FACE('',(#121),#122,.F.);
#52=PRESENTATION_STYLE_ASSIGNMENT((#123));
#53=ADVANCED_FACE('',(#124),#125,.F.);
#54=PRESENTATION_STYLE_ASSIGNMENT((#126));
#55=ADVANCED_FACE('',(#127),#128,.F.);
#56=PRESENTATION_STYLE_ASSIGNMENT((#129));
#57=ADVANCED_FACE('',(#130),#131,.F.);
#58=PRESENTATION_STYLE_ASSIGNMENT((#132));
#59=ADVANCED_FACE('',(#133),#134,.T.);
#60=PRESENTATION_STYLE_ASSIGNMENT((#135));
#61=ADVANCED_FACE('',(#136),#137,.T.);
#62=PRESENTATION_STYLE_ASSIGNMENT((#138));
#63=ADVANCED_FACE('',(#139),#140,.F.);
#64=PRESENTATION_STYLE_ASSIGNMENT((#141));
#65=ADVANCED_FACE('',(#142),#143,.T.);
#66=PRESENTATION_STYLE_ASSIGNMENT((#144));
#67=ADVANCED_FACE('',(#145),#146,.F.);
#68=PRESENTATION_STYLE_ASSIGNMENT((#147));
#69=ADVANCED_FACE('',(#148),#149,.T.);
#70=PRESENTATION_STYLE_ASSIGNMENT((#150));
#71=ADVANCED_FACE('',(#151),#152,.T.);
#72=PRESENTATION_STYLE_ASSIGNMENT((#153));
#73=ADVANCED_FACE('',(#154),#155,.T.);
#74=PRESENTATION_STYLE_ASSIGNMENT((#156));
#75=ADVANCED_FACE('',(#157),#158,.T.);
#76=PRESENTATION_STYLE_ASSIGNMENT((#159));
#77=ADVANCED_FACE('',(#160),#161,.T.);
#78=PRESENTATION_STYLE_ASSIGNMENT((#162));
#79=ADVANCED_FACE('',(#163),#164,.T.);
#80=PRESENTATION_STYLE_ASSIGNMENT((#165));
#81=ADVANCED_FACE('',(#166),#167,.T.);
#82=PRESENTATION_STYLE_ASSIGNMENT((#168));
#83=ADVANCED_FACE('',(#169),#170,.T.);
#84=PRESENTATION_STYLE_ASSIGNMENT((#171));
#85=ADVANCED_FACE('',(#172),#173,.T.);
#86=PRESENTATION_STYLE_ASSIGNMENT((#174));
#87=ADVANCED_FACE('',(#175),#176,.T.);
#88=PRESENTATION_STYLE_ASSIGNMENT((#177));
#89=ADVANCED_FACE('',(#178,#179),#180,.T.);
#90=PRESENTATION_STYLE_ASSIGNMENT((#181));
#91=ADVANCED_FACE('',(#182),#183,.F.);
#92=PRESENTATION_STYLE_ASSIGNMENT((#184));
#93=ADVANCED_FACE('',(#185),#186,.T.);
#94=PRESENTATION_STYLE_ASSIGNMENT((#187));
#95=ADVANCED_FACE('',(#188),#189,.F.);
#96=PRESENTATION_STYLE_ASSIGNMENT((#190));
#97=ADVANCED_FACE('',(#191),#192,.T.);
#98=PRESENTATION_STYLE_ASSIGNMENT((#193));
#99=ADVANCED_FACE('',(#194,#195),#196,.T.);
#100=PRESENTATION_STYLE_ASSIGNMENT((#197));
#101=ADVANCED_FACE('',(#198),#199,.T.);
#102=PRESENTATION_STYLE_ASSIGNMENT((#200));
#103=MANIFOLD_SOLID_BREP('GS-19-50-V4A_0_B8_B8_1',#201);
#104=PRODUCT('GS-19-50-V4A_0_B8_B8_1','GS-19-50-V4A_0_B8_B8_1','PART-GS-19-50-V4A_0_B8_B8_1-DESC',(#202));
#105=PRODUCT_DEFINITION('','NONE',#203,#2);
#106=AXIS2_PLACEMENT_3D('',#204,#205,#206);
#109=LENGTH_MEASURE_WITH_UNIT(LENGTH_MEASURE(1.0),#207);
#112=DIMENSIONAL_EXPONENTS(1.0,0.0,0.0,0.0,0.0,0.0,0.0);
#114=DIMENSIONAL_EXPONENTS(0.0,0.0,0.0,0.0,0.0,0.0,0.0);
#120=SURFACE_STYLE_USAGE(.BOTH.,#208);
#121=FACE_OUTER_BOUND('',#209,.T.);
#122=TOROIDAL_SURFACE('',#210,9.5,0.5);
#123=SURFACE_STYLE_USAGE(.BOTH.,#211);
#124=FACE_OUTER_BOUND('',#212,.T.);
#125=TOROIDAL_SURFACE('',#213,9.5,0.5);
#126=SURFACE_STYLE_USAGE(.BOTH.,#214);
#127=FACE_OUTER_BOUND('',#215,.T.);
#128=TOROIDAL_SURFACE('',#216,9.5,0.5);
#129=SURFACE_STYLE_USAGE(.BOTH.,#217);
#130=FACE_OUTER_BOUND('',#218,.T.);
#131=TOROIDAL_SURFACE('',#219,9.5,0.5);
#132=SURFACE_STYLE_USAGE(.BOTH.,#220);
#133=FACE_OUTER_BOUND('',#221,.T.);
#134=CYLINDRICAL_SURFACE('',#222,9.5);
#135=SURFACE_STYLE_USAGE(.BOTH.,#223);
#136=FACE_OUTER_BOUND('',#224,.T.);
#137=CYLINDRICAL_SURFACE('',#225,9.5);
#138=SURFACE_STYLE_USAGE(.BOTH.,#226);
#139=FACE_OUTER_BOUND('',#227,.T.);
#140=TOROIDAL_SURFACE('',#228,9.5,0.5);
#141=SURFACE_STYLE_USAGE(.BOTH.,#229);
#142=FACE_OUTER_BOUND('',#230,.T.);
#143=CYLINDRICAL_SURFACE('',#231,9.5);
#144=SURFACE_STYLE_USAGE(.BOTH.,#232);
#145=FACE_OUTER_BOUND('',#233,.T.);
#146=TOROIDAL_SURFACE('',#234,9.5,0.5);
#147=SURFACE_STYLE_USAGE(.BOTH.,#235);
#148=FACE_OUTER_BOUND('',#236,.T.);
#149=CYLINDRICAL_SURFACE('',#237,4.0);
#150=SURFACE_STYLE_USAGE(.BOTH.,#238);
#151=FACE_OUTER_BOUND('',#239,.T.);
#152=CONICAL_SURFACE('',#240,3.6,0.785398163397448);
#153=SURFACE_STYLE_USAGE(.BOTH.,#241);
#154=FACE_OUTER_BOUND('',#242,.T.);
#155=CYLINDRICAL_SURFACE('',#243,4.0);
#156=SURFACE_STYLE_USAGE(.BOTH.,#244);
#157=FACE_OUTER_BOUND('',#245,.T.);
#158=CONICAL_SURFACE('',#246,3.6,0.785398163397448);
#159=SURFACE_STYLE_USAGE(.BOTH.,#247);
#160=FACE_OUTER_BOUND('',#248,.T.);
#161=PLANE('',#249);
#162=SURFACE_STYLE_USAGE(.BOTH.,#250);
#163=FACE_OUTER_BOUND('',#251,.T.);
#164=CONICAL_SURFACE('',#252,3.6,0.785398163397448);
#165=SURFACE_STYLE_USAGE(.BOTH.,#253);
#166=FACE_OUTER_BOUND('',#254,.T.);
#167=CYLINDRICAL_SURFACE('',#255,4.0);
#168=SURFACE_STYLE_USAGE(.BOTH.,#256);
#169=FACE_OUTER_BOUND('',#257,.T.);
#170=PLANE('',#258);
#171=SURFACE_STYLE_USAGE(.BOTH.,#259);
#172=FACE_OUTER_BOUND('',#260,.T.);
#173=CONICAL_SURFACE('',#261,3.6,0.785398163397448);
#174=SURFACE_STYLE_USAGE(.BOTH.,#262);
#175=FACE_OUTER_BOUND('',#263,.T.);
#176=CYLINDRICAL_SURFACE('',#264,4.0);
#177=SURFACE_STYLE_USAGE(.BOTH.,#265);
#178=FACE_OUTER_BOUND('',#266,.T.);
#179=FACE_BOUND('',#267,.T.);
#180=PLANE('',#268);
#181=SURFACE_STYLE_USAGE(.BOTH.,#269);
#182=FACE_OUTER_BOUND('',#270,.T.);
#183=TOROIDAL_SURFACE('',#271,9.5,0.5);
#184=SURFACE_STYLE_USAGE(.BOTH.,#272);
#185=FACE_OUTER_BOUND('',#273,.T.);
#186=CYLINDRICAL_SURFACE('',#274,9.5);
#187=SURFACE_STYLE_USAGE(.BOTH.,#275);
#188=FACE_OUTER_BOUND('',#276,.T.);
#189=TOROIDAL_SURFACE('',#277,9.5,0.5);
#190=SURFACE_STYLE_USAGE(.BOTH.,#278);
#191=FACE_OUTER_BOUND('',#279,.T.);
#192=CYLINDRICAL_SURFACE('',#280,9.5);
#193=SURFACE_STYLE_USAGE(.BOTH.,#281);
#194=FACE_BOUND('',#282,.T.);
#195=FACE_OUTER_BOUND('',#283,.T.);
#196=PLANE('',#284);
#197=SURFACE_STYLE_USAGE(.BOTH.,#285);
#198=FACE_OUTER_BOUND('',#286,.T.);
#199=CYLINDRICAL_SURFACE('',#287,9.5);
#200=SURFACE_STYLE_USAGE(.BOTH.,#288);
#201=CLOSED_SHELL('',(#51,#53,#55,#57,#59,#61,#63,#65,#67,#69,#71,#73,#75,#77,#79,#81,#83,#85,#87,#89,#91,#93,#95,#97,#99,#101));
#202=PRODUCT_CONTEXT('',#37,'mechanical');
#203=PRODUCT_DEFINITION_FORMATION_WITH_SPECIFIED_SOURCE(' ','NONE',#104,.NOT_KNOWN.);
#204=CARTESIAN_POINT('',(0.0,0.0,0.0));
#205=DIRECTION('',(0.0,0.0,1.0));
#206=DIRECTION('',(1.0,0.0,0.0));
#207= (NAMED_UNIT(#112)LENGTH_UNIT()SI_UNIT(.MILLI.,.METRE.));
#208=SURFACE_SIDE_STYLE('',(#290));
#209=EDGE_LOOP('',(#291,#292,#293,#294));
#210=AXIS2_PLACEMENT_3D('',#295,#296,#297);
#211=SURFACE_SIDE_STYLE('',(#298));
#212=EDGE_LOOP('',(#299,#300,#301,#302));
#213=AXIS2_PLACEMENT_3D('',#303,#304,#305);
#214=SURFACE_SIDE_STYLE('',(#306));
#215=EDGE_LOOP('',(#307,#308,#309,#310));
#216=AXIS2_PLACEMENT_3D('',#311,#312,#313);
#217=SURFACE_SIDE_STYLE('',(#314));
#218=EDGE_LOOP('',(#315,#316,#317,#318));
#219=AXIS2_PLACEMENT_3D('',#319,#320,#321);
#220=SURFACE_SIDE_STYLE('',(#322));
#221=EDGE_LOOP('',(#323,#324,#325,#326));
#222=AXIS2_PLACEMENT_3D('',#327,#328,#329);
#223=SURFACE_SIDE_STYLE('',(#330));
#224=EDGE_LOOP('',(#331,#332,#333,#334));
#225=AXIS2_PLACEMENT_3D('',#335,#336,#337);
#226=SURFACE_SIDE_STYLE('',(#338));
#227=EDGE_LOOP('',(#339,#340,#341,#342));
#228=AXIS2_PLACEMENT_3D('',#343,#344,#345);
#229=SURFACE_SIDE_STYLE('',(#346));
#230=EDGE_LOOP('',(#347,#348,#349,#350));
#231=AXIS2_PLACEMENT_3D('',#351,#352,#353);
#232=SURFACE_SIDE_STYLE('',(#354));
#233=EDGE_LOOP('',(#355,#356,#357,#358));
#234=AXIS2_PLACEMENT_3D('',#359,#360,#361);
#235=SURFACE_SIDE_STYLE('',(#362));
#236=EDGE_LOOP('',(#363,#364,#365,#366,#367));
#237=AXIS2_PLACEMENT_3D('',#368,#369,#370);
#238=SURFACE_SIDE_STYLE('',(#371));
#239=EDGE_LOOP('',(#372,#373,#374,#375,#376));
#240=AXIS2_PLACEMENT_3D('',#377,#378,#379);
#241=SURFACE_SIDE_STYLE('',(#380));
#242=EDGE_LOOP('',(#381,#382,#383,#384));
#243=AXIS2_PLACEMENT_3D('',#385,#386,#387);
#244=SURFACE_SIDE_STYLE('',(#388));
#245=EDGE_LOOP('',(#389,#390,#391,#392));
#246=AXIS2_PLACEMENT_3D('',#393,#394,#395);
#247=SURFACE_SIDE_STYLE('',(#396));
#248=EDGE_LOOP('',(#397,#398));
#249=AXIS2_PLACEMENT_3D('',#399,#400,#401);
#250=SURFACE_SIDE_STYLE('',(#402));
#251=EDGE_LOOP('',(#403,#404,#405,#406));
#252=AXIS2_PLACEMENT_3D('',#407,#408,#409);
#253=SURFACE_SIDE_STYLE('',(#410));
#254=EDGE_LOOP('',(#411,#412,#413,#414));
#255=AXIS2_PLACEMENT_3D('',#415,#416,#417);
#256=SURFACE_SIDE_STYLE('',(#418));
#257=EDGE_LOOP('',(#419,#420));
#258=AXIS2_PLACEMENT_3D('',#421,#422,#423);
#259=SURFACE_SIDE_STYLE('',(#424));
#260=EDGE_LOOP('',(#425,#426,#427,#428,#429));
#261=AXIS2_PLACEMENT_3D('',#430,#431,#432);
#262=SURFACE_SIDE_STYLE('',(#433));
#263=EDGE_LOOP('',(#434,#435,#436,#437,#438));
#264=AXIS2_PLACEMENT_3D('',#439,#440,#441);
#265=SURFACE_SIDE_STYLE('',(#442));
#266=EDGE_LOOP('',(#443,#444));
#267=EDGE_LOOP('',(#445,#446));
#268=AXIS2_PLACEMENT_3D('',#447,#448,#449);
#269=SURFACE_SIDE_STYLE('',(#450));
#270=EDGE_LOOP('',(#451,#452,#453,#454));
#271=AXIS2_PLACEMENT_3D('',#455,#456,#457);
#272=SURFACE_SIDE_STYLE('',(#458));
#273=EDGE_LOOP('',(#459,#460,#461,#462));
#274=AXIS2_PLACEMENT_3D('',#463,#464,#465);
#275=SURFACE_SIDE_STYLE('',(#466));
#276=EDGE_LOOP('',(#467,#468,#469,#470));
#277=AXIS2_PLACEMENT_3D('',#471,#472,#473);
#278=SURFACE_SIDE_STYLE('',(#474));
#279=EDGE_LOOP('',(#475,#476,#477,#478));
#280=AXIS2_PLACEMENT_3D('',#479,#480,#481);
#281=SURFACE_SIDE_STYLE('',(#482));
#282=EDGE_LOOP('',(#483,#484));
#283=EDGE_LOOP('',(#485,#486));
#284=AXIS2_PLACEMENT_3D('',#487,#488,#489);
#285=SURFACE_SIDE_STYLE('',(#490));
#286=EDGE_LOOP('',(#491,#492,#493,#494));
#287=AXIS2_PLACEMENT_3D('',#495,#496,#497);
#288=SURFACE_SIDE_STYLE('',(#498));
#290=SURFACE_STYLE_FILL_AREA(#499);
#291=ORIENTED_EDGE('',*,*,#500,.F.);
#292=ORIENTED_EDGE('',*,*,#501,.T.);
#293=ORIENTED_EDGE('',*,*,#502,.F.);
#294=ORIENTED_EDGE('',*,*,#503,.T.);
#295=CARTESIAN_POINT('',(3.5,0.0,0.0));
#296=DIRECTION('',(-1.0,0.0,0.0));
#297=DIRECTION('',(0.0,-1.0,0.0));
#298=SURFACE_STYLE_FILL_AREA(#504);
#299=ORIENTED_EDGE('',*,*,#505,.F.);
#300=ORIENTED_EDGE('',*,*,#506,.T.);
#301=ORIENTED_EDGE('',*,*,#507,.F.);
#302=ORIENTED_EDGE('',*,*,#508,.T.);
#303=CARTESIAN_POINT('',(110.5,0.0,0.0));
#304=DIRECTION('',(-1.0,0.0,0.0));
#305=DIRECTION('',(0.0,-1.0,0.0));
#306=SURFACE_STYLE_FILL_AREA(#509);
#307=ORIENTED_EDGE('',*,*,#510,.F.);
#308=ORIENTED_EDGE('',*,*,#508,.F.);
#309=ORIENTED_EDGE('',*,*,#511,.F.);
#310=ORIENTED_EDGE('',*,*,#506,.F.);
#311=CARTESIAN_POINT('',(110.5,0.0,0.0));
#312=DIRECTION('',(-1.0,0.0,0.0));
#313=DIRECTION('',(0.0,-1.0,0.0));
#314=SURFACE_STYLE_FILL_AREA(#512);
#315=ORIENTED_EDGE('',*,*,#513,.F.);
#316=ORIENTED_EDGE('',*,*,#503,.F.);
#317=ORIENTED_EDGE('',*,*,#514,.F.);
#318=ORIENTED_EDGE('',*,*,#501,.F.);
#319=CARTESIAN_POINT('',(3.5,0.0,0.0));
#320=DIRECTION('',(-1.0,0.0,0.0));
#321=DIRECTION('',(0.0,-1.0,0.0));
#322=SURFACE_STYLE_FILL_AREA(#515);
#323=ORIENTED_EDGE('',*,*,#516,.F.);
#324=ORIENTED_EDGE('',*,*,#517,.T.);
#325=ORIENTED_EDGE('',*,*,#518,.F.);
#326=ORIENTED_EDGE('',*,*,#519,.F.);
#327=CARTESIAN_POINT('',(57.0,0.0,0.0));
#328=DIRECTION('',(-1.0,0.0,0.0));
#329=DIRECTION('',(0.0,1.0,0.0));
#330=SURFACE_STYLE_FILL_AREA(#520);
#331=ORIENTED_EDGE('',*,*,#521,.F.);
#332=ORIENTED_EDGE('',*,*,#522,.T.);
#333=ORIENTED_EDGE('',*,*,#523,.F.);
#334=ORIENTED_EDGE('',*,*,#502,.T.);
#335=CARTESIAN_POINT('',(57.0,0.0,0.0));
#336=DIRECTION('',(-1.0,0.0,0.0));
#337=DIRECTION('',(0.0,1.0,0.0));
#338=SURFACE_STYLE_FILL_AREA(#524);
#339=ORIENTED_EDGE('',*,*,#513,.T.);
#340=ORIENTED_EDGE('',*,*,#525,.F.);
#341=ORIENTED_EDGE('',*,*,#526,.F.);
#342=ORIENTED_EDGE('',*,*,#527,.F.);
#343=CARTESIAN_POINT('',(3.5,0.0,0.0));
#344=DIRECTION('',(-1.0,0.0,0.0));
#345=DIRECTION('',(0.0,-1.0,0.0));
#346=SURFACE_STYLE_FILL_AREA(#528);
#347=ORIENTED_EDGE('',*,*,#529,.F.);
#348=ORIENTED_EDGE('',*,*,#530,.T.);
#349=ORIENTED_EDGE('',*,*,#531,.F.);
#350=ORIENTED_EDGE('',*,*,#507,.T.);
#351=CARTESIAN_POINT('',(57.0,0.0,0.0));
#352=DIRECTION('',(-1.0,0.0,0.0));
#353=DIRECTION('',(0.0,1.0,0.0));
#354=SURFACE_STYLE_FILL_AREA(#532);
#355=ORIENTED_EDGE('',*,*,#510,.T.);
#356=ORIENTED_EDGE('',*,*,#533,.F.);
#357=ORIENTED_EDGE('',*,*,#534,.F.);
#358=ORIENTED_EDGE('',*,*,#535,.F.);
#359=CARTESIAN_POINT('',(110.5,0.0,0.0));
#360=DIRECTION('',(-1.0,0.0,0.0));
#361=DIRECTION('',(0.0,-1.0,0.0));
#362=SURFACE_STYLE_FILL_AREA(#536);
#363=ORIENTED_EDGE('',*,*,#537,.F.);
#364=ORIENTED_EDGE('',*,*,#538,.F.);
#365=ORIENTED_EDGE('',*,*,#539,.F.);
#366=ORIENTED_EDGE('',*,*,#540,.T.);
#367=ORIENTED_EDGE('',*,*,#541,.T.);
#368=CARTESIAN_POINT('',(-25.0,0.0,0.0));
#369=DIRECTION('',(-1.0,0.0,0.0));
#370=DIRECTION('',(0.0,-1.0,0.0));
#371=SURFACE_STYLE_FILL_AREA(#542);
#372=ORIENTED_EDGE('',*,*,#543,.F.);
#373=ORIENTED_EDGE('',*,*,#544,.T.);
#374=ORIENTED_EDGE('',*,*,#545,.F.);
#375=ORIENTED_EDGE('',*,*,#546,.F.);
#376=ORIENTED_EDGE('',*,*,#541,.F.);
#377=CARTESIAN_POINT('',(-59.6,0.0,0.0));
#378=DIRECTION('',(1.0,-0.0,-0.0));
#379=DIRECTION('',(0.0,0.0,1.0));
#380=SURFACE_STYLE_FILL_AREA(#547);
#381=ORIENTED_EDGE('',*,*,#548,.F.);
#382=ORIENTED_EDGE('',*,*,#549,.T.);
#383=ORIENTED_EDGE('',*,*,#550,.F.);
#384=ORIENTED_EDGE('',*,*,#551,.F.);
#385=CARTESIAN_POINT('',(118.6,0.0,0.0));
#386=DIRECTION('',(-1.0,0.0,0.0));
#387=DIRECTION('',(0.0,0.0,-1.0));
#388=SURFACE_STYLE_FILL_AREA(#552);
#389=ORIENTED_EDGE('',*,*,#553,.F.);
#390=ORIENTED_EDGE('',*,*,#554,.T.);
#391=ORIENTED_EDGE('',*,*,#555,.F.);
#392=ORIENTED_EDGE('',*,*,#549,.F.);
#393=CARTESIAN_POINT('',(123.6,0.0,0.0));
#394=DIRECTION('',(-1.0,0.0,-0.0));
#395=DIRECTION('',(0.0,0.0,-1.0));
#396=SURFACE_STYLE_FILL_AREA(#556);
#397=ORIENTED_EDGE('',*,*,#554,.F.);
#398=ORIENTED_EDGE('',*,*,#557,.F.);
#399=CARTESIAN_POINT('',(124.0,0.0,-1.6));
#400=DIRECTION('',(1.0,0.0,-0.0));
#401=DIRECTION('',(0.0,0.0,1.0));
#402=SURFACE_STYLE_FILL_AREA(#558);
#403=ORIENTED_EDGE('',*,*,#553,.T.);
#404=ORIENTED_EDGE('',*,*,#559,.F.);
#405=ORIENTED_EDGE('',*,*,#555,.T.);
#406=ORIENTED_EDGE('',*,*,#557,.T.);
#407=CARTESIAN_POINT('',(123.6,0.0,0.0));
#408=DIRECTION('',(-1.0,0.0,-0.0));
#409=DIRECTION('',(0.0,0.0,-1.0));
#410=SURFACE_STYLE_FILL_AREA(#560);
#411=ORIENTED_EDGE('',*,*,#548,.T.);
#412=ORIENTED_EDGE('',*,*,#561,.F.);
#413=ORIENTED_EDGE('',*,*,#550,.T.);
#414=ORIENTED_EDGE('',*,*,#559,.T.);
#415=CARTESIAN_POINT('',(118.6,0.0,0.0));
#416=DIRECTION('',(-1.0,0.0,0.0));
#417=DIRECTION('',(0.0,0.0,-1.0));
#418=SURFACE_STYLE_FILL_AREA(#562);
#419=ORIENTED_EDGE('',*,*,#544,.F.);
#420=ORIENTED_EDGE('',*,*,#563,.F.);
#421=CARTESIAN_POINT('',(-60.0,0.0,1.6));
#422=DIRECTION('',(-1.0,0.0,0.0));
#423=DIRECTION('',(0.0,0.0,-1.0));
#424=SURFACE_STYLE_FILL_AREA(#564);
#425=ORIENTED_EDGE('',*,*,#543,.T.);
#426=ORIENTED_EDGE('',*,*,#540,.F.);
#427=ORIENTED_EDGE('',*,*,#565,.F.);
#428=ORIENTED_EDGE('',*,*,#545,.T.);
#429=ORIENTED_EDGE('',*,*,#563,.T.);
#430=CARTESIAN_POINT('',(-59.6,0.0,0.0));
#431=DIRECTION('',(1.0,-0.0,-0.0));
#432=DIRECTION('',(0.0,0.0,1.0));
#433=SURFACE_STYLE_FILL_AREA(#566);
#434=ORIENTED_EDGE('',*,*,#537,.T.);
#435=ORIENTED_EDGE('',*,*,#546,.T.);
#436=ORIENTED_EDGE('',*,*,#565,.T.);
#437=ORIENTED_EDGE('',*,*,#539,.T.);
#438=ORIENTED_EDGE('',*,*,#567,.F.);
#439=CARTESIAN_POINT('',(-25.0,0.0,0.0));
#440=DIRECTION('',(-1.0,0.0,0.0));
#441=DIRECTION('',(0.0,-1.0,0.0));
#442=SURFACE_STYLE_FILL_AREA(#568);
#443=ORIENTED_EDGE('',*,*,#519,.T.);
#444=ORIENTED_EDGE('',*,*,#569,.T.);
#445=ORIENTED_EDGE('',*,*,#567,.T.);
#446=ORIENTED_EDGE('',*,*,#538,.T.);
#447=CARTESIAN_POINT('',(0.0,4.75,0.0));
#448=DIRECTION('',(-1.0,0.0,0.0));
#449=DIRECTION('',(0.0,1.0,0.0));
#450=SURFACE_STYLE_FILL_AREA(#570);
#451=ORIENTED_EDGE('',*,*,#505,.T.);
#452=ORIENTED_EDGE('',*,*,#535,.T.);
#453=ORIENTED_EDGE('',*,*,#522,.F.);
#454=ORIENTED_EDGE('',*,*,#533,.T.);
#455=CARTESIAN_POINT('',(110.5,0.0,0.0));
#456=DIRECTION('',(-1.0,0.0,0.0));
#457=DIRECTION('',(0.0,-1.0,0.0));
#458=SURFACE_STYLE_FILL_AREA(#571);
#459=ORIENTED_EDGE('',*,*,#529,.T.);
#460=ORIENTED_EDGE('',*,*,#511,.T.);
#461=ORIENTED_EDGE('',*,*,#531,.T.);
#462=ORIENTED_EDGE('',*,*,#572,.T.);
#463=CARTESIAN_POINT('',(57.0,0.0,0.0));
#464=DIRECTION('',(-1.0,0.0,0.0));
#465=DIRECTION('',(0.0,1.0,0.0));
#466=SURFACE_STYLE_FILL_AREA(#573);
#467=ORIENTED_EDGE('',*,*,#500,.T.);
#468=ORIENTED_EDGE('',*,*,#527,.T.);
#469=ORIENTED_EDGE('',*,*,#517,.F.);
#470=ORIENTED_EDGE('',*,*,#525,.T.);
#471=CARTESIAN_POINT('',(3.5,0.0,0.0));
#472=DIRECTION('',(-1.0,0.0,0.0));
#473=DIRECTION('',(0.0,-1.0,0.0));
#474=SURFACE_STYLE_FILL_AREA(#574);
#475=ORIENTED_EDGE('',*,*,#521,.T.);
#476=ORIENTED_EDGE('',*,*,#514,.T.);
#477=ORIENTED_EDGE('',*,*,#523,.T.);
#478=ORIENTED_EDGE('',*,*,#534,.T.);
#479=CARTESIAN_POINT('',(57.0,0.0,0.0));
#480=DIRECTION('',(-1.0,0.0,0.0));
#481=DIRECTION('',(0.0,1.0,0.0));
#482=SURFACE_STYLE_FILL_AREA(#575);
#483=ORIENTED_EDGE('',*,*,#551,.T.);
#484=ORIENTED_EDGE('',*,*,#561,.T.);
#485=ORIENTED_EDGE('',*,*,#530,.F.);
#486=ORIENTED_EDGE('',*,*,#572,.F.);
#487=CARTESIAN_POINT('',(114.0,4.75,0.0));
#488=DIRECTION('',(1.0,0.0,0.0));
#489=DIRECTION('',(0.0,-1.0,0.0));
#490=SURFACE_STYLE_FILL_AREA(#576);
#491=ORIENTED_EDGE('',*,*,#516,.T.);
#492=ORIENTED_EDGE('',*,*,#569,.F.);
#493=ORIENTED_EDGE('',*,*,#518,.T.);
#494=ORIENTED_EDGE('',*,*,#526,.T.);
#495=CARTESIAN_POINT('',(57.0,0.0,0.0));
#496=DIRECTION('',(-1.0,0.0,0.0));
#497=DIRECTION('',(0.0,1.0,0.0));
#498=SURFACE_STYLE_FILL_AREA(#577);
#499=FILL_AREA_STYLE('',(#578));
#500=EDGE_CURVE('',#579,#580,#581,.T.);
#501=EDGE_CURVE('',#579,#582,#583,.T.);
#502=EDGE_CURVE('',#584,#582,#585,.T.);
#503=EDGE_CURVE('',#584,#580,#586,.T.);
#504=FILL_AREA_STYLE('',(#587));
#505=EDGE_CURVE('',#588,#589,#590,.T.);
#506=EDGE_CURVE('',#588,#591,#592,.T.);
#507=EDGE_CURVE('',#593,#591,#594,.T.);
#508=EDGE_CURVE('',#593,#589,#595,.T.);
#509=FILL_AREA_STYLE('',(#596));
#510=EDGE_CURVE('',#589,#588,#597,.T.);
#511=EDGE_CURVE('',#591,#593,#598,.T.);
#512=FILL_AREA_STYLE('',(#599));
#513=EDGE_CURVE('',#580,#579,#600,.T.);
#514=EDGE_CURVE('',#582,#584,#601,.T.);
#515=FILL_AREA_STYLE('',(#602));
#516=EDGE_CURVE('',#603,#604,#605,.T.);
#517=EDGE_CURVE('',#603,#606,#607,.T.);
#518=EDGE_CURVE('',#608,#606,#609,.T.);
#519=EDGE_CURVE('',#604,#608,#610,.T.);
#520=FILL_AREA_STYLE('',(#611));
#521=EDGE_CURVE('',#612,#582,#613,.T.);
#522=EDGE_CURVE('',#612,#614,#615,.T.);
#523=EDGE_CURVE('',#584,#614,#616,.T.);
#524=FILL_AREA_STYLE('',(#617));
#525=EDGE_CURVE('',#603,#579,#618,.T.);
#526=EDGE_CURVE('',#606,#603,#619,.T.);
#527=EDGE_CURVE('',#580,#606,#620,.T.);
#528=FILL_AREA_STYLE('',(#621));
#529=EDGE_CURVE('',#622,#591,#623,.T.);
#530=EDGE_CURVE('',#622,#624,#625,.T.);
#531=EDGE_CURVE('',#593,#624,#626,.T.);
#532=FILL_AREA_STYLE('',(#627));
#533=EDGE_CURVE('',#612,#588,#628,.T.);
#534=EDGE_CURVE('',#614,#612,#629,.T.);
#535=EDGE_CURVE('',#589,#614,#630,.T.);
#536=FILL_AREA_STYLE('',(#631));
#537=EDGE_CURVE('',#632,#633,#634,.T.);
#538=EDGE_CURVE('',#635,#632,#636,.T.);
#539=EDGE_CURVE('',#637,#635,#638,.T.);
#540=EDGE_CURVE('',#637,#639,#640,.T.);
#541=EDGE_CURVE('',#639,#633,#641,.T.);
#542=FILL_AREA_STYLE('',(#642));
#543=EDGE_CURVE('',#643,#639,#644,.T.);
#544=EDGE_CURVE('',#643,#645,#646,.T.);
#545=EDGE_CURVE('',#647,#645,#648,.T.);
#546=EDGE_CURVE('',#633,#647,#649,.T.);
#547=FILL_AREA_STYLE('',(#650));
#548=EDGE_CURVE('',#651,#652,#653,.T.);
#549=EDGE_CURVE('',#651,#654,#655,.T.);
#550=EDGE_CURVE('',#656,#654,#657,.T.);
#551=EDGE_CURVE('',#652,#656,#658,.T.);
#552=FILL_AREA_STYLE('',(#659));
#553=EDGE_CURVE('',#660,#651,#661,.T.);
#554=EDGE_CURVE('',#660,#662,#663,.T.);
#555=EDGE_CURVE('',#654,#662,#664,.T.);
#556=FILL_AREA_STYLE('',(#665));
#557=EDGE_CURVE('',#662,#660,#666,.T.);
#558=FILL_AREA_STYLE('',(#667));
#559=EDGE_CURVE('',#654,#651,#668,.T.);
#560=FILL_AREA_STYLE('',(#669));
#561=EDGE_CURVE('',#656,#652,#670,.T.);
#562=FILL_AREA_STYLE('',(#671));
#563=EDGE_CURVE('',#645,#643,#672,.T.);
#564=FILL_AREA_STYLE('',(#673));
#565=EDGE_CURVE('',#647,#637,#674,.T.);
#566=FILL_AREA_STYLE('',(#675));
#567=EDGE_CURVE('',#632,#635,#676,.T.);
#568=FILL_AREA_STYLE('',(#677));
#569=EDGE_CURVE('',#608,#604,#678,.T.);
#570=FILL_AREA_STYLE('',(#679));
#571=FILL_AREA_STYLE('',(#680));
#572=EDGE_CURVE('',#624,#622,#681,.T.);
#573=FILL_AREA_STYLE('',(#682));
#574=FILL_AREA_STYLE('',(#683));
#575=FILL_AREA_STYLE('',(#684));
#576=FILL_AREA_STYLE('',(#685));
#577=FILL_AREA_STYLE('',(#686));
#578=FILL_AREA_STYLE_COLOUR('',#687);
#579=VERTEX_POINT('',#688);
#580=VERTEX_POINT('',#689);
#581=CIRCLE('',#690,9.0);
#582=VERTEX_POINT('',#691);
#583=CIRCLE('',#692,0.5);
#584=VERTEX_POINT('',#693);
#585=CIRCLE('',#694,9.5);
#586=CIRCLE('',#695,0.5);
#587=FILL_AREA_STYLE_COLOUR('',#696);
#588=VERTEX_POINT('',#697);
#589=VERTEX_POINT('',#698);
#590=CIRCLE('',#699,9.0);
#591=VERTEX_POINT('',#700);
#592=CIRCLE('',#701,0.5);
#593=VERTEX_POINT('',#702);
#594=CIRCLE('',#703,9.5);
#595=CIRCLE('',#704,0.5);
#596=FILL_AREA_STYLE_COLOUR('',#705);
#597=CIRCLE('',#706,9.0);
#598=CIRCLE('',#707,9.5);
#599=FILL_AREA_STYLE_COLOUR('',#708);
#600=CIRCLE('',#709,9.0);
#601=CIRCLE('',#710,9.5);
#602=FILL_AREA_STYLE_COLOUR('',#711);
#603=VERTEX_POINT('',#712);
#604=VERTEX_POINT('',#713);
#605=LINE('',#714,#715);
#606=VERTEX_POINT('',#716);
#607=CIRCLE('',#717,9.5);
#608=VERTEX_POINT('',#718);
#609=LINE('',#719,#720);
#610=CIRCLE('',#721,9.5);
#611=FILL_AREA_STYLE_COLOUR('',#722);
#612=VERTEX_POINT('',#723);
#613=LINE('',#724,#725);
#614=VERTEX_POINT('',#726);
#615=CIRCLE('',#727,9.5);
#616=LINE('',#728,#729);
#617=FILL_AREA_STYLE_COLOUR('',#730);
#618=CIRCLE('',#731,0.5);
#619=CIRCLE('',#732,9.5);
#620=CIRCLE('',#733,0.5);
#621=FILL_AREA_STYLE_COLOUR('',#734);
#622=VERTEX_POINT('',#735);
#623=LINE('',#736,#737);
#624=VERTEX_POINT('',#738);
#625=CIRCLE('',#739,9.5);
#626=LINE('',#740,#741);
#627=FILL_AREA_STYLE_COLOUR('',#742);
#628=CIRCLE('',#743,0.5);
#629=CIRCLE('',#744,9.5);
#630=CIRCLE('',#745,0.5);
#631=FILL_AREA_STYLE_COLOUR('',#746);
#632=VERTEX_POINT('',#747);
#633=VERTEX_POINT('',#748);
#634=LINE('',#749,#750);
#635=VERTEX_POINT('',#751);
#636=CIRCLE('',#752,4.0);
#637=VERTEX_POINT('',#753);
#638=LINE('',#754,#755);
#639=VERTEX_POINT('',#756);
#640=CIRCLE('',#757,4.0);
#641=CIRCLE('',#758,4.0);
#642=FILL_AREA_STYLE_COLOUR('',#759);
#643=VERTEX_POINT('',#760);
#644=LINE('',#761,#762);
#645=VERTEX_POINT('',#763);
#646=CIRCLE('',#764,3.2);
#647=VERTEX_POINT('',#765);
#648=LINE('',#766,#767);
#649=CIRCLE('',#768,4.0);
#650=FILL_AREA_STYLE_COLOUR('',#769);
#651=VERTEX_POINT('',#770);
#652=VERTEX_POINT('',#771);
#653=LINE('',#772,#773);
#654=VERTEX_POINT('',#774);
#655=CIRCLE('',#775,4.0);
#656=VERTEX_POINT('',#776);
#657=LINE('',#777,#778);
#658=CIRCLE('',#779,4.0);
#659=FILL_AREA_STYLE_COLOUR('',#780);
#660=VERTEX_POINT('',#781);
#661=LINE('',#782,#783);
#662=VERTEX_POINT('',#784);
#663=CIRCLE('',#785,3.2);
#664=LINE('',#786,#787);
#665=FILL_AREA_STYLE_COLOUR('',#788);
#666=CIRCLE('',#789,3.2);
#667=FILL_AREA_STYLE_COLOUR('',#790);
#668=CIRCLE('',#791,4.0);
#669=FILL_AREA_STYLE_COLOUR('',#792);
#670=CIRCLE('',#793,4.0);
#671=FILL_AREA_STYLE_COLOUR('',#794);
#672=CIRCLE('',#795,3.2);
#673=FILL_AREA_STYLE_COLOUR('',#796);
#674=CIRCLE('',#797,4.0);
#675=FILL_AREA_STYLE_COLOUR('',#798);
#676=CIRCLE('',#799,4.0);
#677=FILL_AREA_STYLE_COLOUR('',#800);
#678=CIRCLE('',#801,9.5);
#679=FILL_AREA_STYLE_COLOUR('',#802);
#680=FILL_AREA_STYLE_COLOUR('',#803);
#681=CIRCLE('',#804,9.5);
#682=FILL_AREA_STYLE_COLOUR('',#805);
#683=FILL_AREA_STYLE_COLOUR('',#806);
#684=FILL_AREA_STYLE_COLOUR('',#807);
#685=FILL_AREA_STYLE_COLOUR('',#808);
#686=FILL_AREA_STYLE_COLOUR('',#809);
#687=COLOUR_RGB('',0.752941191196442,0.752941191196442,0.752941191196442);
#688=CARTESIAN_POINT('',(3.5,9.0,9.64564099487688E-16));
#689=CARTESIAN_POINT('',(3.5,-9.0,-9.64564099487688E-16));
#690=AXIS2_PLACEMENT_3D('',#810,#811,#812);
#691=CARTESIAN_POINT('',(4.0,9.5,1.16341445918999E-15));
#692=AXIS2_PLACEMENT_3D('',#813,#814,#815);
#693=CARTESIAN_POINT('',(4.0,-9.5,-1.16341445918999E-15));
#694=AXIS2_PLACEMENT_3D('',#816,#817,#818);
#695=AXIS2_PLACEMENT_3D('',#819,#820,#821);
#696=COLOUR_RGB('',0.752941191196442,0.752941191196442,0.752941191196442);
#697=CARTESIAN_POINT('',(110.5,9.0,9.64564099487688E-16));
#698=CARTESIAN_POINT('',(110.5,-9.0,-9.64564099487688E-16));
#699=AXIS2_PLACEMENT_3D('',#822,#823,#824);
#700=CARTESIAN_POINT('',(111.0,9.5,1.16341445918999E-15));
#701=AXIS2_PLACEMENT_3D('',#825,#826,#827);
#702=CARTESIAN_POINT('',(111.0,-9.5,-1.16341445918999E-15));
#703=AXIS2_PLACEMENT_3D('',#828,#829,#830);
#704=AXIS2_PLACEMENT_3D('',#831,#832,#833);
#705=COLOUR_RGB('',0.752941191196442,0.752941191196442,0.752941191196442);
#706=AXIS2_PLACEMENT_3D('',#834,#835,#836);
#707=AXIS2_PLACEMENT_3D('',#837,#838,#839);
#708=COLOUR_RGB('',0.752941191196442,0.752941191196442,0.752941191196442);
#709=AXIS2_PLACEMENT_3D('',#840,#841,#842);
#710=AXIS2_PLACEMENT_3D('',#843,#844,#845);
#711=COLOUR_RGB('',0.752941191196442,0.752941191196442,0.752941191196442);
#712=CARTESIAN_POINT('',(3.0,9.5,1.16341445918999E-15));
#713=CARTESIAN_POINT('',(0.0,9.5,0.0));
#714=CARTESIAN_POINT('',(1.5,9.5,1.16341445918999E-15));
#715=VECTOR('',#846,1.0);
#716=CARTESIAN_POINT('',(3.0,-9.5,1.16341445918999E-15));
#717=AXIS2_PLACEMENT_3D('',#847,#848,#849);
#718=CARTESIAN_POINT('',(0.0,-9.5,-1.16341445918999E-15));
#719=CARTESIAN_POINT('',(1.5,-9.5,-1.16341445918999E-15));
#720=VECTOR('',#850,1.0);
#721=AXIS2_PLACEMENT_3D('',#851,#852,#853);
#722=COLOUR_RGB('',0.752941191196442,0.752941191196442,0.752941191196442);
#723=CARTESIAN_POINT('',(110.0,9.5,1.16341445918999E-15));
#724=CARTESIAN_POINT('',(57.0,9.5,1.16341445918999E-15));
#725=VECTOR('',#854,1.0);
#726=CARTESIAN_POINT('',(110.0,-9.5,1.16341445918999E-15));
#727=AXIS2_PLACEMENT_3D('',#855,#856,#857);
#728=CARTESIAN_POINT('',(57.0,-9.5,-1.16341445918999E-15));
#729=VECTOR('',#858,1.0);
#730=COLOUR_RGB('',0.752941191196442,0.752941191196442,0.752941191196442);
#731=AXIS2_PLACEMENT_3D('',#859,#860,#861);
#732=AXIS2_PLACEMENT_3D('',#862,#863,#864);
#733=AXIS2_PLACEMENT_3D('',#865,#866,#867);
#734=COLOUR_RGB('',0.752941191196442,0.752941191196442,0.752941191196442);
#735=CARTESIAN_POINT('',(114.0,9.5,0.0));
#736=CARTESIAN_POINT('',(112.5,9.5,1.16341445918999E-15));
#737=VECTOR('',#868,1.0);
#738=CARTESIAN_POINT('',(114.0,-9.5,-1.16341445918999E-15));
#739=AXIS2_PLACEMENT_3D('',#869,#870,#871);
#740=CARTESIAN_POINT('',(112.5,-9.5,-1.16341445918999E-15));
#741=VECTOR('',#872,1.0);
#742=COLOUR_RGB('',0.752941191196442,0.752941191196442,0.752941191196442);
#743=AXIS2_PLACEMENT_3D('',#873,#874,#875);
#744=AXIS2_PLACEMENT_3D('',#876,#877,#878);
#745=AXIS2_PLACEMENT_3D('',#879,#880,#881);
#746=COLOUR_RGB('',0.752941191196442,0.752941191196442,0.752941191196442);
#747=CARTESIAN_POINT('',(0.0,-4.0,0.0));
#748=CARTESIAN_POINT('',(-59.2,-4.0,-4.89858719658941E-16));
#749=CARTESIAN_POINT('',(-25.0,-4.0,-4.89858719658941E-16));
#750=VECTOR('',#882,1.0);
#751=CARTESIAN_POINT('',(0.0,4.0,4.89858719658941E-16));
#752=AXIS2_PLACEMENT_3D('',#883,#884,#885);
#753=CARTESIAN_POINT('',(-59.2,4.0,4.89858719658941E-16));
#754=CARTESIAN_POINT('',(-25.0,4.0,4.89858719658941E-16));
#755=VECTOR('',#886,1.0);
#756=CARTESIAN_POINT('',(-59.2,0.0,4.0));
#757=AXIS2_PLACEMENT_3D('',#887,#888,#889);
#758=AXIS2_PLACEMENT_3D('',#890,#891,#892);
#759=COLOUR_RGB('',0.380392163991928,0.411764711141586,0.411764711141586);
#760=CARTESIAN_POINT('',(-60.0,0.0,3.2));
#761=CARTESIAN_POINT('',(-59.6,4.40872847693047E-16,3.6));
#762=VECTOR('',#893,1.0);
#763=CARTESIAN_POINT('',(-60.0,-3.91886975727153E-16,-3.2));
#764=AXIS2_PLACEMENT_3D('',#894,#895,#896);
#765=CARTESIAN_POINT('',(-59.2,-4.89858719658941E-16,-4.0));
#766=CARTESIAN_POINT('',(-59.6,-4.40872847693047E-16,-3.6));
#767=VECTOR('',#897,1.0);
#768=AXIS2_PLACEMENT_3D('',#898,#899,#900);
#769=COLOUR_RGB('',0.380392163991928,0.411764711141586,0.411764711141586);
#770=CARTESIAN_POINT('',(123.2,0.0,-4.0));
#771=CARTESIAN_POINT('',(114.0,0.0,-4.0));
#772=CARTESIAN_POINT('',(118.6,4.89858719658941E-16,-4.0));
#773=VECTOR('',#901,1.0);
#774=CARTESIAN_POINT('',(123.2,-4.89858719658941E-16,4.0));
#775=AXIS2_PLACEMENT_3D('',#902,#903,#904);
#776=CARTESIAN_POINT('',(114.0,-4.89858719658941E-16,4.0));
#777=CARTESIAN_POINT('',(118.6,-4.89858719658941E-16,4.0));
#778=VECTOR('',#905,1.0);
#779=AXIS2_PLACEMENT_3D('',#906,#907,#908);
#780=COLOUR_RGB('',0.380392163991928,0.411764711141586,0.411764711141586);
#781=CARTESIAN_POINT('',(124.0,0.0,-3.2));
#782=CARTESIAN_POINT('',(123.6,4.40872847693047E-16,-3.6));
#783=VECTOR('',#909,1.0);
#784=CARTESIAN_POINT('',(124.0,-3.91886975727153E-16,3.2));
#785=AXIS2_PLACEMENT_3D('',#910,#911,#912);
#786=CARTESIAN_POINT('',(123.6,-4.40872847693047E-16,3.6));
#787=VECTOR('',#913,1.0);
#788=COLOUR_RGB('',0.380392163991928,0.411764711141586,0.411764711141586);
#789=AXIS2_PLACEMENT_3D('',#914,#915,#916);
#790=COLOUR_RGB('',0.380392163991928,0.411764711141586,0.411764711141586);
#791=AXIS2_PLACEMENT_3D('',#917,#918,#919);
#792=COLOUR_RGB('',0.380392163991928,0.411764711141586,0.411764711141586);
#793=AXIS2_PLACEMENT_3D('',#920,#921,#922);
#794=COLOUR_RGB('',0.380392163991928,0.411764711141586,0.411764711141586);
#795=AXIS2_PLACEMENT_3D('',#923,#924,#925);
#796=COLOUR_RGB('',0.380392163991928,0.411764711141586,0.411764711141586);
#797=AXIS2_PLACEMENT_3D('',#926,#927,#928);
#798=COLOUR_RGB('',0.752941191196442,0.752941191196442,0.752941191196442);
#799=AXIS2_PLACEMENT_3D('',#929,#930,#931);
#800=COLOUR_RGB('',0.752941191196442,0.752941191196442,0.752941191196442);
#801=AXIS2_PLACEMENT_3D('',#932,#933,#934);
#802=COLOUR_RGB('',0.752941191196442,0.752941191196442,0.752941191196442);
#803=COLOUR_RGB('',0.752941191196442,0.752941191196442,0.752941191196442);
#804=AXIS2_PLACEMENT_3D('',#935,#936,#937);
#805=COLOUR_RGB('',0.752941191196442,0.752941191196442,0.752941191196442);
#806=COLOUR_RGB('',0.752941191196442,0.752941191196442,0.752941191196442);
#807=COLOUR_RGB('',0.752941191196442,0.752941191196442,0.752941191196442);
#808=COLOUR_RGB('',0.752941191196442,0.752941191196442,0.752941191196442);
#809=COLOUR_RGB('',0.752941191196442,0.752941191196442,0.752941191196442);
#810=CARTESIAN_POINT('',(3.5,0.0,0.0));
#811=DIRECTION('',(-1.0,0.0,0.0));
#812=DIRECTION('',(0.0,-0.0,1.0));
#813=CARTESIAN_POINT('',(3.5,9.5,1.16341445918999E-15));
#814=DIRECTION('',(0.0,-1.22464679914735E-16,1.0));
#815=DIRECTION('',(0.0,1.0,1.22464679914735E-16));
#816=CARTESIAN_POINT('',(4.0,0.0,0.0));
#817=DIRECTION('',(1.0,0.0,-0.0));
#818=DIRECTION('',(0.0,1.0,0.0));
#819=CARTESIAN_POINT('',(3.5,-9.5,-1.16341445918999E-15));
#820=DIRECTION('',(0.0,-1.22464679914735E-16,1.0));
#821=DIRECTION('',(-0.0,-1.0,-1.22464679914735E-16));
#822=CARTESIAN_POINT('',(110.5,0.0,0.0));
#823=DIRECTION('',(-1.0,0.0,0.0));
#824=DIRECTION('',(0.0,-0.0,1.0));
#825=CARTESIAN_POINT('',(110.5,9.5,1.16341445918999E-15));
#826=DIRECTION('',(0.0,-1.22464679914735E-16,1.0));
#827=DIRECTION('',(0.0,1.0,1.22464679914735E-16));
#828=CARTESIAN_POINT('',(111.0,0.0,0.0));
#829=DIRECTION('',(1.0,0.0,-0.0));
#830=DIRECTION('',(0.0,1.0,0.0));
#831=CARTESIAN_POINT('',(110.5,-9.5,-1.16341445918999E-15));
#832=DIRECTION('',(0.0,-1.22464679914735E-16,1.0));
#833=DIRECTION('',(-0.0,-1.0,-1.22464679914735E-16));
#834=CARTESIAN_POINT('',(110.5,0.0,0.0));
#835=DIRECTION('',(-1.0,0.0,0.0));
#836=DIRECTION('',(0.0,-0.0,1.0));
#837=CARTESIAN_POINT('',(111.0,0.0,0.0));
#838=DIRECTION('',(1.0,0.0,-0.0));
#839=DIRECTION('',(0.0,1.0,0.0));
#840=CARTESIAN_POINT('',(3.5,0.0,0.0));
#841=DIRECTION('',(-1.0,0.0,0.0));
#842=DIRECTION('',(0.0,-0.0,1.0));
#843=CARTESIAN_POINT('',(4.0,0.0,0.0));
#844=DIRECTION('',(1.0,0.0,-0.0));
#845=DIRECTION('',(0.0,1.0,0.0));
#846=DIRECTION('',(-1.0,0.0,0.0));
#847=CARTESIAN_POINT('',(3.0,0.0,0.0));
#848=DIRECTION('',(-1.0,0.0,0.0));
#849=DIRECTION('',(0.0,1.0,0.0));
#850=DIRECTION('',(1.0,-0.0,-0.0));
#851=CARTESIAN_POINT('',(0.0,0.0,0.0));
#852=DIRECTION('',(-1.0,0.0,0.0));
#853=DIRECTION('',(0.0,1.0,0.0));
#854=DIRECTION('',(-1.0,0.0,0.0));
#855=CARTESIAN_POINT('',(110.0,0.0,0.0));
#856=DIRECTION('',(-1.0,0.0,0.0));
#857=DIRECTION('',(0.0,1.0,0.0));
#858=DIRECTION('',(1.0,-0.0,-0.0));
#859=CARTESIAN_POINT('',(3.5,9.5,1.16341445918999E-15));
#860=DIRECTION('',(0.0,-1.22464679914735E-16,1.0));
#861=DIRECTION('',(0.0,1.0,1.22464679914735E-16));
#862=CARTESIAN_POINT('',(3.0,0.0,0.0));
#863=DIRECTION('',(-1.0,0.0,0.0));
#864=DIRECTION('',(0.0,1.0,0.0));
#865=CARTESIAN_POINT('',(3.5,-9.5,-1.16341445918999E-15));
#866=DIRECTION('',(0.0,-1.22464679914735E-16,1.0));
#867=DIRECTION('',(-0.0,-1.0,-1.22464679914735E-16));
#868=DIRECTION('',(-1.0,0.0,0.0));
#869=CARTESIAN_POINT('',(114.0,0.0,0.0));
#870=DIRECTION('',(-1.0,0.0,0.0));
#871=DIRECTION('',(0.0,1.0,0.0));
#872=DIRECTION('',(1.0,-0.0,-0.0));
#873=CARTESIAN_POINT('',(110.5,9.5,1.16341445918999E-15));
#874=DIRECTION('',(0.0,-1.22464679914735E-16,1.0));
#875=DIRECTION('',(0.0,1.0,1.22464679914735E-16));
#876=CARTESIAN_POINT('',(110.0,0.0,0.0));
#877=DIRECTION('',(-1.0,0.0,0.0));
#878=DIRECTION('',(0.0,1.0,0.0));
#879=CARTESIAN_POINT('',(110.5,-9.5,-1.16341445918999E-15));
#880=DIRECTION('',(0.0,-1.22464679914735E-16,1.0));
#881=DIRECTION('',(-0.0,-1.0,-1.22464679914735E-16));
#882=DIRECTION('',(-1.0,0.0,0.0));
#883=CARTESIAN_POINT('',(0.0,0.0,0.0));
#884=DIRECTION('',(1.0,0.0,-0.0));
#885=DIRECTION('',(0.0,-1.0,0.0));
#886=DIRECTION('',(1.0,-0.0,-0.0));
#887=CARTESIAN_POINT('',(-59.2,0.0,0.0));
#888=DIRECTION('',(1.0,0.0,-0.0));
#889=DIRECTION('',(0.0,0.0,1.0));
#890=CARTESIAN_POINT('',(-59.2,0.0,0.0));
#891=DIRECTION('',(1.0,0.0,-0.0));
#892=DIRECTION('',(0.0,0.0,1.0));
#893=DIRECTION('',(0.707106781186548,8.65956056235493E-17,0.707106781186547));
#894=CARTESIAN_POINT('',(-60.0,0.0,0.0));
#895=DIRECTION('',(1.0,0.0,-0.0));
#896=DIRECTION('',(0.0,0.0,1.0));
#897=DIRECTION('',(-0.707106781186548,8.65956056235492E-17,0.707106781186547));
#898=CARTESIAN_POINT('',(-59.2,0.0,0.0));
#899=DIRECTION('',(1.0,0.0,-0.0));
#900=DIRECTION('',(0.0,0.0,1.0));
#901=DIRECTION('',(-1.0,0.0,0.0));
#902=CARTESIAN_POINT('',(123.2,0.0,0.0));
#903=DIRECTION('',(-1.0,0.0,0.0));
#904=DIRECTION('',(0.0,0.0,-1.0));
#905=DIRECTION('',(1.0,-0.0,-0.0));
#906=CARTESIAN_POINT('',(114.0,0.0,0.0));
#907=DIRECTION('',(-1.0,-0.0,-0.0));
#908=DIRECTION('',(0.0,0.0,-1.0));
#909=DIRECTION('',(-0.707106781186548,8.65956056235493E-17,-0.707106781186547));
#910=CARTESIAN_POINT('',(124.0,0.0,0.0));
#911=DIRECTION('',(-1.0,0.0,0.0));
#912=DIRECTION('',(0.0,0.0,-1.0));
#913=DIRECTION('',(0.707106781186548,8.65956056235492E-17,-0.707106781186547));
#914=CARTESIAN_POINT('',(124.0,0.0,0.0));
#915=DIRECTION('',(-1.0,0.0,0.0));
#916=DIRECTION('',(0.0,0.0,-1.0));
#917=CARTESIAN_POINT('',(123.2,0.0,0.0));
#918=DIRECTION('',(-1.0,0.0,0.0));
#919=DIRECTION('',(0.0,0.0,-1.0));
#920=CARTESIAN_POINT('',(114.0,0.0,0.0));
#921=DIRECTION('',(-1.0,-0.0,-0.0));
#922=DIRECTION('',(0.0,0.0,-1.0));
#923=CARTESIAN_POINT('',(-60.0,0.0,0.0));
#924=DIRECTION('',(1.0,0.0,-0.0));
#925=DIRECTION('',(0.0,0.0,1.0));
#926=CARTESIAN_POINT('',(-59.2,0.0,0.0));
#927=DIRECTION('',(1.0,0.0,-0.0));
#928=DIRECTION('',(0.0,0.0,1.0));
#929=CARTESIAN_POINT('',(0.0,0.0,0.0));
#930=DIRECTION('',(1.0,0.0,-0.0));
#931=DIRECTION('',(0.0,-1.0,0.0));
#932=CARTESIAN_POINT('',(0.0,0.0,0.0));
#933=DIRECTION('',(-1.0,0.0,0.0));
#934=DIRECTION('',(0.0,1.0,0.0));
#935=CARTESIAN_POINT('',(114.0,0.0,0.0));
#936=DIRECTION('',(-1.0,0.0,0.0));
#937=DIRECTION('',(0.0,1.0,0.0));
ENDSEC;
END-ISO-10303-21;
