DBRep_DrawableShape

CASCADE Topology V3, (c) Open Cascade
Locations 0
Curve2ds 57
1 0 14.422205101855956 1 0 
2 0 0 1 0 -0 1 2
7 0 0  8 30 5  1.7196862744043619 0.098573122316734638  1.7974884665977211 0.14937060290249637  1.8761838161933753 0.19949051502417284  1.956389468223108 0.24845562028321844  2.0387109519471096 0.29576576776221941  2.1237419843795635 0.34088121670896676  2.2120236570962817 0.38319785778733229  2.303949763677168 0.42204775084931512  2.4713464712306208 0.48279138193260751  2.5451858458214796 0.50649610536222678  2.621159060796586 0.5275886796893321  2.6992096601401272 0.5457852013882416  2.7791512396322418 0.56081265067208719  2.8606447223122622 0.57243913359689547  2.9432169039097271 0.58050479742256211  3.1510413502533701 0.59157967853085003  3.2769898041701708 0.59004389281170688  3.4024330684333108 0.58007666544972381  3.5253304856232717 0.56183913981476508  3.6439425601183757 0.53605170225182519  3.7576954035239396 0.50368776573839114  3.8665243960944218 0.46572758026954564  4.0750385130505844 0.38050594469861887  4.1747232428411341 0.33324412015066002  4.2701790529564789 0.2822760743479753  4.3621417398276208 0.22849886892198867  4.4514672111943128 0.17269844254451527  4.5390296348890651 0.1155728397400044  4.6257092378108995 0.057786495049183664  4.7123889803846746 0 
 1.7491581049474767 9 2.4899658238067714 7 3.0455716129512469 7 3.8789802966679598 7 4.712388980384671 9
7 0 0  5 6 2  4.8907507043006779 14.422205401857809  4.9205252748427144 14.257511661675439  4.9502998453849756 14.092817921038431  4.9800744159266372 13.928428358043391  5.0098489864688638 13.76464714781018  5.0396235570109003 13.601775102111787 
 1.5707962725583269 6 1.7196691252685108 6
7 0 0  5 6 2  6.1343124545438688 -3.0000205697433557e-07  6.1640870250859052 0.1646934401803139  6.1938615956280643 0.32938718081796914  6.2236361661699027 0.49377674381248582  6.2534107367120431 0.6575579540455726  6.2831853072540795 0.8204299997439648 
 1.5707962725583269 6 1.7196691252685108 6
7 0 0  7 8 2  5.0396235570109003 13.601775102111787  5.2172752356064214 12.629989723251155  5.3949269142015055 11.688413472894808  5.5725785927979814 10.827133876239714  5.7502302713928657 10.093932655745448  5.9278819499891142 9.5277162460688487  6.1055336285840474 9.1529409097428172  6.2831853071795685 8.978600704831706 
 1.7196691252685108 8 2.9632308754371595 8
7 0 0  7 8 2  7.4493300417088903e-11 0.8204299997439648  0.17765167867001455 1.7922153786045965  0.35530335726531348 2.7337916289643545  0.53295503586116411 3.5950712256053521  0.71060671445650314 4.3282724461187172  0.88825839305212639 4.8944888557839477  1.0659100716476013 5.2692641921129351  1.2435617502431227 5.4436043970240462 
 1.7196691252685108 8 2.9632308754371595 8
1 6.2831853071795862 -0 0 1 
1 0 -0 0 1 
1 0 0 1 0 
2 0 0 1 0 -0 1 2
7 0 0  8 9 2  -1.7763568394002505e-14 8.978600704831706  0.21864476335066041 8.7640315369710002  0.43728952670073795 8.8468736627892213  0.6559342900500269 9.2427529010019498  0.87457905340306752 9.9369882633691304  1.0932238167506512 10.882103846488462  1.3118685801034644 12.003400577214052  1.53051334345473 13.212803156303426  1.7491581068054083 14.422205112132588 
 2.9632308754371595 9 4.7123889822425848 9
7 0 0  8 9 2  1.2435617502431227 5.4436043970240462  1.4622065135938007 5.658173564884752  1.6808512769434856 5.5753314390458399  1.8994960402887955 5.1794522008822241  2.1181408036391076 4.4852168384386459  2.3367855669966957 3.5401012553829787  2.5554303303465531 2.4188045246196452  2.7740750936978844 1.2094019455523253  2.9927198570485625 -1.0276835382683203e-08 
 2.9632308754371595 9 4.7123889822425848 9
1 6.2831853071795862 -6.2831853071795862 0 1 
1 0 -6.2831853071795862 0 1 
1 0 0 1 0 
2 0 0 1 0 -0 1 2
7 0 0  5 6 2  6.2831853071796209 0.098045277293863128  6.1405806936766352 0.081837619597357233  5.9985436463801642 0.063153469321397648  5.8570347316161495 0.042693379336903869  5.7157971949785722 0.021346745811646525  5.5745590350518741 0 
 4.7012289074508953 6 5.4154400347834697 6
1 0 0 1 0 
2 0 0 1 0 -0 1 2
7 0 0  8 9 2  1.7196862744043768 0.098573122316734804  1.5064556965387919 0.12270829240982889  1.2920610467731422 0.14175452849261205  1.0764057345641049 0.15400649086211615  0.85980615609105371 0.15821599437049372  0.64321483727098894 0.15384710344085306  0.42757908056091765 0.14144849064155096  0.21320837751953231 0.12227737130526124  3.4283189398096637e-14 0.098045277293863128 
 2.9927198551906766 9 4.7012289074508953 9
1 0 1.5707963267948966 1 0 
8 -1.9682713252205042 2
1 0 0 0 -1 
8 -1.9682713252205042 2
1 0 0 0 -1 
8 -2.0223696396066964 2.0223696396066964
1 0 0 -0.1774175796776985 0.98413566261024588 
8 -2.0223696396066964 2.0223696396066964
1 0 0 -0.98893889664450929 0.14832349343088158 
1 6.2831853071795862 -0 0 1 
1 0 -0 0 1 
7 0 0  6 7 2  2.2595258997171186e-12 40.821178916189638  0.11615657306193412 39.910507841783485  0.232313146121637 39.337765294464134  0.34846971918126712 39.125067216255047  0.46462629224097896 39.280856313951972  0.58078286530064627 39.798082650354679  0.6969394383603208 40.655913256083522 
 2.7822685829371525 7 3.4792080212952001 7
7 0 0  6 7 2  5.5862458688217762 20.871608344558808  5.7024024418814507 21.782279418964965  5.8185590149410231 22.355021966284085  5.9347155880008771 22.567720044494308  6.0508721610604219 22.411930946796019  6.1670287341201391 21.894704610393767  6.2831853071798136 21.036874004664924 
 2.7822685829371525 7 3.4792080212952001 7
7 0 0  8 9 2  0.6969394383603208 40.655913256083522  0.85108705992846023 41.794312436588989  1.0052346814936755 43.503988835254859  1.1593823030652857 45.743722177954623  1.3135299246259819 48.443339435383677  1.4676775462003206 51.506824881420471  1.6218251677680655 54.819185344567813  1.7759727893372921 58.255986523694169  1.9301204109054315 61.692787560748684 
 3.4792080212952001 9 4.7123889938403156 9
7 0 0  8 9 2  2.2737367544323206e-13 21.036874004664924  0.15414762156836678 19.898474824159454  0.3082952431366266 18.18879842550632  0.46244286470255247 15.949065082560992  0.61659048627416269 13.249447825801326  0.77073810783849694 10.185962378993281  0.92488572940953873 6.8736019162079174  1.0790333509771841 3.436800737054047  1.2331809725453236 -3.0000046535860747e-07 
 3.4792080212952001 9 4.7123889938403156 9
1 0 61.692787260748723 1 0 
2 0 0 1 0 -0 1 2
7 0 0  7 14 3  2.4329663814619225 0  2.2615290295719905 0.025911053891635952  2.0900915778282183 0.051822232832854809  1.9182787849376837 0.076488666278400785  1.7457120949479759 0.098670400525094237  1.5721929778775916 0.11723546298030385  1.3978554833306585 0.13132874124810098  1.0481245992741948 0.14962409786394862  0.87273157935919699 0.15382589957128801  0.69710109899335748 0.15260834539135715  0.52169390498215762 0.14586799923598903  0.346973795568573 0.13398609493466296  0.17309597717022565 0.11771841603533068  -1.7763568394002505e-14 0.098045277293862768 
 2.2738473811938378 8 3.487538144322393 6 4.7012289074509477 8
7 0 0  5 6 2  6.2831853071795685 0.098045277293862768  6.2092117353833753 0.089637847121657621  6.1353910755364467 0.080564064295027604  6.0617172108348285 0.070921621748188612  5.9881695268560691 0.060822065725604738  5.9147184820989454 0.050383306494866734 
 4.7012289074509477 6 5.0717130510391222 6
7 0 0  8 9 2  5.0717130375839972 61.692787560748684  5.2231470712837318 58.316487370255402  5.3745811049833137 54.940187056898139  5.526015138684464 51.681870475207688  5.6774491723833975 48.6595158544078  5.8288832060821036 45.982461343024625  5.9803172397829698 43.742683377698995  6.1317512734821111 42.008426357624977  6.2831853071818458 40.821178916189638 
 1.5707963133392757 9 2.7822685829371525 9
7 0 0  8 9 2  4.3747735992238663 -3.0000023798493203e-07  4.526207632923601 3.3762998904930455  4.6776416666098157 6.7526002037993749  4.82907570034331 10.010916785548034  4.9805097339740314 13.033271406064159  5.131943767744815 15.710325917774753  5.2833778014082782 17.950103882994881  5.4348118351220416 19.684360903123473  5.5862458688217762 20.871608344558808 
 1.5707963133392757 9 2.7822685829371525 9
8 -0.38885496400468045 2.6216680514330424
1 0 0 0.64654826024973189 -0.7628730871960584 
8 -0.38885496400468045 2.6216680514330424
1 0 0 0.75925660236529668 -0.6507913734559686 
1 0 0 1 0 
2 0 0 1 0 -0 1 2
7 0 0  5 6 2  5.7640391929330796 0  5.7941494693096676 0.010114867042523325  5.8242597457157075 0.020229734027867152  5.8543828577964305 0.03032549624724179  5.8845316419235951 0.040383047590831077  5.9147184820989125 0.050383306494866852 
 4.2159545899872839 6 4.3747736126799746 6
1 6.2831853071795862 -0 0 1 
1 0 -0 0 1 
1 0 25.317977802344327 1 0 
2 0 0 1 0 -0 1 2
8 -2.4542344934355329 1.0877503640230408
1 0 0 0.64654826024973189 -0.7628730871960584 
8 -2.4542344934355329 1.0877503640230408
1 0 0 0.75925660236529668 -0.6507913734559686 
8 -2.1196607226626383 2.1196607226626383
1 0 0 -0.3516415527225546 0.93613472235510575 
8 -2.1196607226626383 2.1196607226626383
1 0 0 0.33123802286803078 0.94354722839213412 
1 0 0 1 0 
2 0 0 1 0 -0 1 2
1 6.2831853071795862 -6.2831853071795862 0 1 
1 0 -6.2831853071795862 0 1 
8 -2.1461658059681672 1.3908991231244145
1 0 0 0.47629338082256056 0.87928642397378998 
8 -2.1461658059681672 1.3908991231244145
1 0 0 -0.86824314212445919 0.49613893835683387 
Curves 25
2 38 0 1625 0.55470019622522915 0 0.83205029433784372 0.83205029433784372 0 -0.55470019622522915 -0 1 0 2
3 38 0 1625 0.95867363492571356 0.16684605664690325 -0.23045011408046198 0.24321409117039289 -0.060327364935581662 0.96809478611140609 0.1476203493915369 -0.98413566261024588 -0.098413566261024571 5.881827587435561 2
3 38 0 1625 0.95867363492571356 0.16684605664690325 -0.23045011408046198 0.24321409117039289 -0.060327364935581662 0.96809478611140609 0.1476203493915369 -0.98413566261024588 -0.098413566261024571 5.881827587435561 2
1 31.664100588675687 -4.8985871965894059e-16 1611.8905996075496 0.55470019622522915 0 0.83205029433784372 
2 30 0 1613 0.55470019622522915 0 0.83205029433784372 0.83205029433784372 0 -0.55470019622522915 -0 1 0 2
3 38 0 1625 0.95867363492571356 0.16684605664690325 -0.23045011408046198 0.24321409117039289 -0.060327364935581662 0.96809478611140609 0.1476203493915369 -0.98413566261024588 -0.098413566261024571 5.881827587435561 2
2 38 0 1625 -2.4492935982947064e-16 -1 0 1 -2.4492935982947064e-16 0 0 0 1 2
2 38 0 1625 0.097256101829871877 0.11346545213485051 -0.98877036860369738 1.7347234759768067e-18 -0.9934800715262958 -0.11400590984727983 -0.99525938863034979 0.011087770377314239 -0.096621999002309819 2
2 38 0 1625 0 0 1 1 0 -0 -0 1 0 2
1 38 0 1625 0 -1 0 
1 38 0 1625 -0.14762034939153687 0.98413566261024588 0.098413566261024585 
1 38 -1.9869601430525921 1624.7719881803055 0.097256101829871877 0.11346545213485051 -0.98877036860369738 
3 44 7.0000000000000009 1564 -0.33988552225222612 -0.91229078030755018 -0.22848055481631882 0.12813575418127821 0.19575730579892736 -0.97224498236130807 0.93169687144678481 -0.35972852179412546 0.050361993051177563 22.385042170462626 2
3 44 7.0000000000000009 1564 -0.33988552225222612 -0.91229078030755018 -0.22848055481631882 0.12813575418127821 0.19575730579892736 -0.97224498236130807 0.93169687144678481 -0.35972852179412546 0.050361993051177563 22.385042170462626 2
2 44 7 1564 0.097256101829871877 0.11346545213485051 -0.98877036860369738 1.7347234759768067e-18 -0.9934800715262958 -0.11400590984727983 -0.99525938863034979 0.011087770377314239 -0.096621999002309819 2
3 44 7.0000000000000009 1564 -0.33988552225222612 -0.91229078030755018 -0.22848055481631882 0.12813575418127821 0.19575730579892736 -0.97224498236130807 0.93169687144678481 -0.35972852179412546 0.050361993051177563 22.385042170462626 2
1 38 0 1625 0.75925660236529668 -0.6507913734559686 0 
2 44 7 1564 -0.15799050110667287 -0.27648337693667752 0.94794300664003717 -6.9388939039072284e-18 0.96000000000000019 0.28000000000000003 -0.9874406319167055 0.044237340309868402 -0.15167088106240598 2
1 44 8.9199999999999999 1564.5599999999999 -0.15799050110667287 -0.27648337693667752 0.94794300664003717 
2 40 -8.8817841970012523e-16 1588 -0.15799050110667287 -0.27648337693667752 0.94794300664003717 -6.9388939039072284e-18 0.96000000000000019 0.28000000000000003 -0.9874406319167055 0.044237340309868402 -0.15167088106240598 2
1 44 7 1564 0.75925660236529668 -0.6507913734559686 0 
1 44 7 1564 -0.93169687144678481 0.35972852179412551 -0.05036199305117757 
2 44 7 1564 0 0 1 1 0 -0 -0 1 0 2
2 44 7 1564 -2.4492935982947064e-16 -1 0 1 -2.4492935982947064e-16 0 0 0 1 2
1 44 7 1564 -0.86824314212445919 0.49613893835683387 0 
Polygon3D 0
PolygonOnTriangulations 0
Surfaces 13
2 30 0 1613 0.55470019622522915 0 0.83205029433784372 0.83205029433784372 0 -0.55470019622522915 -0 1 0 2
1 38 0 1625 0.55470019622522915 0 0.83205029433784372 0.83205029433784372 0 -0.55470019622522915 -0 1 0 
4 38 0 1625 0 0 1 1 0 -0 -0 1 0 2
2 38 0 1625 0.097256101829871877 0.11346545213485051 -0.98877036860369738 0 -0.99348007152629592 -0.11400590984727985 -0.99525938863034991 0.011087770377314241 -0.096621999002309833 2
1 30 0 1613 0.55470019622522915 0 0.83205029433784372 0.83205029433784372 0 -0.55470019622522915 -0 1 0 
1 38 0 1625 0.097256101829871877 0.11346545213485051 -0.98877036860369738 0 -0.99348007152629592 -0.11400590984727985 -0.99525938863034991 0.011087770377314241 -0.096621999002309833 
1 38 0 1625 0 0 1 1 0 -0 -0 1 0 
2 44 7 1564 -0.15799050110667287 -0.27648337693667752 0.94794300664003717 0 0.96000000000000008 0.28000000000000003 -0.9874406319167055 0.044237340309868409 -0.15167088106240598 2
1 44 7 1564 0.097256101829871877 0.11346545213485051 -0.98877036860369738 0 -0.99348007152629592 -0.11400590984727985 -0.99525938863034991 0.011087770377314241 -0.096621999002309833 
4 44 7 1564 0 0 1 1 0 -0 -0 1 0 2
1 44 7 1564 -0.15799050110667287 -0.27648337693667752 0.94794300664003717 0 0.96000000000000008 0.28000000000000003 -0.9874406319167055 0.044237340309868409 -0.15167088106240598 
1 40 -8.8817841970012523e-16 1588 -0.15799050110667287 -0.27648337693667752 0.94794300664003717 0 0.96000000000000008 0.28000000000000003 -0.9874406319167055 0.044237340309868409 -0.15167088106240598 
1 44 7 1564 0 0 1 1 0 -0 -0 1 0 
Triangulations 0

TShapes 83
Ve
1.50000051010852e-07
37.704759301217 1.9682713252205 1625.19682713252
0 0

0101101
*
Ve
1.50000056843419e-07
37.9999999999999 -2 1625
0 0

0101101
*
Ed
 1.00000046142691e-07 1 1 0
1  1 0 1.74915810494748 4.71238898038467
2  1 1 0 1.74915810494748 4.71238898038467
2  2 2 0 1.74915810494748 4.71238898038467
2  3 3 0 1.74915810494748 4.71238898038467
0

0101000
+83 0 -82 0 *
Ve
4.19010205585203e-07
38.295240698783 -1.9682713252205 1624.80317286748
0 0

0101101
*
Ed
 1e-07 1 1 0
1  1 0 4.71238898038467 4.89075075853728
2  1 1 0 4.71238898038467 4.89075075853728
2  2 2 0 4.71238898038467 4.89075075853728
0

0101000
+82 0 -80 0 *
Ve
1.00161954940373e-07
38.0797918236056 -1.89386968217943 1623.96077130698
0 0

0101101
*
Ed
 1e-07 1 1 0
1  2 0 1.57079627255833 1.71966912526851
2  4 1 0 1.57079627255833 1.71966912526851
2  5 4 0 1.57079627255833 1.71966912526851
0

0101000
+80 0 -78 0 *
Ve
1.0000056529679e-07
36.6445321614742 -4.89858719658941e-16 1619.36124696675
0 0

0101101
*
Ed
 1e-07 1 1 0
1  3 0 1.71966912526851 2.96323087543716
2  6 1 0 1.71966912526851 2.96323087543716
2  7 4 0 1.71966912526851 2.96323087543716
0

0101000
+78 0 -76 0 *
Ve
1e-07
31.6641005886757 -4.89858719658941e-16 1611.89059960755
0 0

0101101
*
Ed
 1e-07 1 1 0
1  4 0 0 8.9786007048324
3  8 9CN 1 0 0 8.9786007048324
0

0101000
+74 0 -76 0 *
Ed
 1e-07 1 1 0
1  5 0 0 6.28318530717959
2  10 1 0 0 6.28318530717959
2  11 5 0 0 6.28318530717959
0

0101000
+74 0 -74 0 *
Ed
 1e-07 1 1 0
1  6 0 2.96323087543716 4.71238898224258
2  12 1 0 2.96323087543716 4.71238898224258
2  13 4 0 2.96323087543716 4.71238898224258
0

0101000
+76 0 -83 0 *
Wi

0101100
-81 0 -79 0 -77 0 -75 0 +73 0 +72 0 -73 0 -71 0 *
Fa
0  1e-07 1 0

0101000
+70 0 *
Ve
1.26828141393353e-07
39.9903948217493 5.77012152033038e-14 1625.19577653984
0 0

0101101
*
Ve
1e-07
38 0 1627
0 0

0101101
*
Ed
 1e-07 1 1 0
1  7 0 6.38123058447345 7.85398163397448
3  14 15CN 3 0 6.38123058447345 7.85398163397448
0

0101000
+68 0 -67 0 *
Ve
1.50000086728531e-07
39.5185132047305 -1.301582746912 1625
0 0

0101101
*
Ed
 1.26828141393353e-07 1 1 0
1  8 0 4.7012289074509 5.41544003478347
2  16 4 0 4.7012289074509 5.41544003478347
2  17 6 0 4.7012289074509 5.41544003478347
2  18 3 0 4.7012289074509 5.41544003478347
0

0101000
+68 0 -65 0 *
Ed
 1e-07 1 1 0
1  9 0 4.71238898038466 5.57455903505187
2  19 3 0 4.71238898038466 5.57455903505187
2  20 7 0 4.71238898038466 5.57455903505187
0

0101000
+82 0 -65 0 *
Ed
 1.00000015888219e-07 1 1 0
1  8 0 2.99271985519068 4.7012289074509
2  16 4 0 2.99271985519068 4.7012289074509
2  17 6 0 2.99271985519068 4.7012289074509
2  21 3 0 2.99271985519068 4.7012289074509
0

0101000
+83 0 -68 0 *
Ed
 1e-07 1 1 1
2  22 3 0 0 6.28318530717959
0

0101000
+67 0 -67 0 *
Wi

0101100
+66 0 -64 0 +63 0 +81 0 -62 0 -66 0 -61 0 *
Fa
0  1e-07 3 0

0101000
+60 0 *
Ve
1.5e-07
38 0 1625
0 0

0101101
*
Ed
 1.5e-07 1 1 0
1  10 0 0 2
2  23 2 0 0 2
2  24 7 0 0 2
0

0101000
+58 0 -82 0 *
Ed
 1.5e-07 1 1 0
1  11 0 -2 0
2  25 2 0 -2 0
2  26 6 0 -2 0
0

0101000
+80 0 -58 0 *
Wi

0101100
+79 0 +57 0 +56 0 *
Fa
0  1e-07 2 0

0101000
+55 0 *
Ve
1.00127493373155e-07
41.970108733476 2.64483337933603 1584.40921605663
0 0

0101101
*
Ed
 1e-07 1 1 0
1  12 0 0.820429999807554 40.8211789160623
3  27 28CN 4 0 0.820429999807554 40.8211789160623
0

0101000
+78 0 -53 0 *
Ve
1.00013753777333e-07
40.6763737342872 3.10365403500261 1584.50175759428
0 0

0101101
*
Ed
 1e-07 1 1 0
1  13 0 2.78226858293715 3.4792080212952
2  29 4 0 2.78226858293715 3.4792080212952
2  30 8 0 2.78226858293715 3.4792080212952
0

0101000
+53 0 -51 0 *
Ve
1.50000020791724e-07
42.1366062571064 7.71945704358823 1563.8992760139
0 0

0101101
*
Ed
 1e-07 1 1 0
1  14 0 3.4792080212952 4.71238898038469
2  31 4 0 3.4792080212952 4.71238898038469
2  32 8 0 3.4792080212952 4.71238898038469
0

0101000
+51 0 -49 0 *
Ve
1.50000423116118e-07
42.4814867952697 8.30158274691226 1564
0 0

0101101
*
Ed
 1e-07 1 1 0
1  15 0 1.9301203974498 2.27384738119384
2  33 4 0 1.9301203974498 2.27384738119384
2  34 9 0 1.9301203974498 2.27384738119384
0

0101000
+49 0 -47 0 *
Ve
3.83966243518434e-06
45.9903948217493 6.99999999999995 1564.19577653984
0 0

0101101
*
Ed
 1.00000016758117e-07 1 1 0
1  15 0 2.27384738119384 4.70122890745095
2  33 4 0 2.27384738119384 4.70122890745095
2  34 9 0 2.27384738119384 4.70122890745095
2  35 10 0 2.27384738119384 4.70122890745095
0

0101000
+47 0 -45 0 *
Ve
4.01204737519097e-07
45.8633937428939 6.28054295641261 1564.1007239861
0 0

0101101
*
Ed
 1.00000007944109e-07 1 1 0
1  15 0 4.70122890745095 5.07171305103912
2  33 4 0 4.70122890745095 5.07171305103912
2  34 9 0 4.70122890745095 5.07171305103912
2  36 10 0 4.70122890745095 5.07171305103912
0

0101000
+45 0 -43 0 *
Ed
 1e-07 1 1 0
1  16 0 1.57079631333928 2.78226858293715
2  37 4 0 1.57079631333928 2.78226858293715
2  38 8 0 1.57079631333928 2.78226858293715
0

0101000
+43 0 -53 0 *
Ed
 1e-07 1 1 0
1  8 0 5.41544003478347 6.13431250878046
2  16 4 0 5.41544003478347 6.13431250878046
2  17 6 0 5.41544003478347 6.13431250878046
0

0101000
+65 0 -80 0 *
Wi

0101100
+64 0 +62 0 +71 0 +75 0 -52 0 -50 0 -48 0 -46 0 -44 0 -42 0 
-41 0 +52 0 +77 0 +40 0 *
Fa
0  1e-07 4 0

0101000
+39 0 *
Wi

0101100
-72 0 *
Fa
0  1e-07 5 0

0101000
-37 0 *
Ed
 1.5e-07 1 1 0
1  17 0 0 2
2  39 6 0 0 2
2  40 7 0 0 2
0

0101000
+58 0 -65 0 *
Wi

0101100
+57 0 -35 0 +63 0 *
Fa
0  1e-07 7 0

0101000
+34 0 *
Wi

0101100
+40 0 +35 0 +56 0 *
Fa
0  1e-07 6 0

0101000
+32 0 *
Ve
1.50000042195486e-07
45.7364862842489 6.00772212328637 1564
0 0

0101101
*
Ed
 1.00000007324107e-07 1 1 0
1  18 0 4.21595458998728 4.37477361267997
2  41 8 0 4.21595458998728 4.37477361267997
2  42 11 0 4.21595458998728 4.37477361267997
2  43 10 0 4.21595458998728 4.37477361267997
0

0101000
+30 0 -43 0 *
Ed
 1e-07 1 1 0
1  18 0 1.23318095908973 4.21595458998728
2  41 8 0 1.23318095908973 4.21595458998728
2  42 11 0 1.23318095908973 4.21595458998728
0

0101000
+49 0 -30 0 *
Ve
1e-07
40 1.92 1588.56
0 0

0101101
*
Ed
 1e-07 1 1 0
1  19 0 21.0368740046514 25.3179778023443
3  44 45CN 8 0 21.0368740046514 25.3179778023443
0

0101000
+51 0 -27 0 *
Ed
 1e-07 1 1 0
1  20 0 0 6.28318530717959
2  46 8 0 0 6.28318530717959
2  47 12 0 0 6.28318530717959
0

0101000
+27 0 -27 0 *
Wi

0101100
+50 0 +41 0 +29 0 +28 0 +48 0 -26 0 -25 0 +26 0 *
Fa
0  1e-07 8 0

0101000
+24 0 *
Ve
1.5e-07
44 7 1564
0 0

0101101
*
Ed
 1.5e-07 1 1 0
1  21 0 -2 0
2  48 9 0 -2 0
2  49 13 0 -2 0
0

0101000
+47 0 -22 0 *
Ed
 1.5e-07 1 1 0
1  22 0 0 2
2  50 9 0 0 2
2  51 11 0 0 2
0

0101000
+22 0 -49 0 *
Wi

0101100
+21 0 +46 0 +20 0 *
Fa
0  1e-07 9 0

0101000
+19 0 *
Ve
1e-07
46 7 1564
0 0

0101101
*
Ed
 1e-07 1 1 0
1  23 0 0 2.43296638146191
2  52 10 0 0 2.43296638146191
2  53 13 0 0 2.43296638146191
0

0101000
+17 0 -47 0 *
Ed
 1e-07 1 1 0
1  24 0 6.28318530717959 6.38123058447345
3  54 55CN 10 0 6.28318530717959 6.38123058447345
0

0101000
+17 0 -45 0 *
Wi

0101100
+44 0 +16 0 -15 0 *
Fa
0  1e-07 10 0

0101000
+14 0 *
Ed
 1e-07 1 1 0
1  23 0 5.76403919293308 6.28318530717959
2  52 10 0 5.76403919293308 6.28318530717959
2  53 13 0 5.76403919293308 6.28318530717959
0

0101000
+30 0 -17 0 *
Wi

0101100
+15 0 +12 0 -29 0 +42 0 *
Fa
0  1e-07 10 0

0101000
+11 0 *
Ed
 1.5e-07 1 1 0
1  25 0 -2 0
2  56 11 0 -2 0
2  57 13 0 -2 0
0

0101000
+30 0 -22 0 *
Wi

0101100
+9 0 +28 0 +20 0 *
Fa
0  1e-07 11 0

0101000
+8 0 *
Wi

0101100
+25 0 *
Fa
0  1e-07 12 0

0101000
+6 0 *
Wi

0101100
+12 0 -9 0 +21 0 +16 0 *
Fa
0  1e-07 13 0

0101000
+4 0 *
Sh

0101100
+69 0 +59 0 +54 0 +38 0 -36 0 -33 0 -31 0 +23 0 +18 0 +13 0 
+10 0 -7 0 +5 0 -3 0 *
So

0100000
+2 0 *

+1 0 