DBRep_DrawableShape

CASCADE Topology V3, (c) Open Cascade
Locations 0
Curve2ds 39
1 6.2831853071795862 -0 0 1 
1 0 -0 0 1 
1 0 0 1 0 
2 0 0 1 0 -0 1 2
1 0 17 1 0 
2 0 0 1 0 -0 1 2
7 0 0  8 9 2  1.5707958424129682 17.000000300000011  1.9634950452071842 16.756783652511896  2.3561942480009748 16.513565012837716  2.7488934507782687 16.327520784005173  3.1415926535973995 16.255670889775502  3.5342918563765124 16.327520784019725  3.9269910591788175 16.513565012839535  4.3196902619724025 16.756783652511896  4.712389464766618 17.000000300000011 
 1.5707958424129274 9 4.7123894647666553 9
7 0 0  8 9 2  1.5707958424129256 -3.0000001061125658e-07  1.9634950452071416 0.24321634748810345  2.3561942479996105 0.48643498714864108  2.7488934507982776 0.67247921599187066  3.1415926535883045 0.74432911016583603  3.5342918563837884 0.67247921599255278  3.92699105917427 0.4864349871485274  4.3196902619724442 0.24321634748810345  4.7123894647666607 -3.0000001061125658e-07 
 1.5707958424129274 9 4.7123894647666553 9
8 -2 2
1 0 0 0 -1 
8 -2 2
1 0 0 0 -1 
1 0 0 0 -1 
1 0 54.332310828824497 1 0 
2 0 0 1 0 -0 1 2
7 0 0  7 8 2  0 0.11065722117392507  0.22578040813808259 0.11065722117392507  0.45155974901615537 0.10412985495556271  0.67688833450006314 0.091074107879641986  0.90127244762356895 0.072327607057545151  1.1247414304824588 0.049561814365926438  1.3477693382682334 0.024780776502960209  1.5707963267948752 0 
 0 8 1.5707963267948755 8
7 0 0  7 8 2  1.5707960338246263 54.33231123444466  1.7951955509339355 54.02162798614679  2.0195950680430315 53.71094597559204  2.2439945851540415 53.425807846586395  2.4683941022608451 53.191803961286496  2.6927936193712867 53.029139517151634  2.9171931364804835 52.947801395381475  3.1415926535897927 52.947801395381475 
 1.5707960338246287 8 3.1415926535897927 8
7 0 0  7 8 2  4.712388687414391 -4.0562014191891649e-07  4.9367882045237002 0.31068284267772955  5.1611877216325865 0.6213648532469449  5.3855872387443924 0.90650298221567027  5.6099867558500591 1.1405068675597931  5.8343862729614102 1.3031713116699279  6.0587857900702762 1.3845094334429289  6.2831853071795853 1.3845094334429291 
 1.5707960338246287 8 3.1415926535897927 8
7 0 0  7 8 2  3.1415926535897927 52.947801395381475  3.3659921489028077 52.947801395381475  3.5903916442158561 53.029139501362806  3.8147911395299161 53.191803913847252  4.0391906348418161 53.42580775571696  4.2635901301546255 53.71094583708873  4.4879896254678853 54.021627805083803  4.7123891207808999 54.332311023204511 
 3.1415926535897927 8 4.7123891207808972 8
7 0 0  7 8 2  -8.8817841970012523e-16 1.3845094334429291  0.22439949531301404 1.3845094334429293  0.44879899062618733 1.3031713274713468  0.6731984859388831 1.1405069149572  0.89759798125271573 0.90650307313603662  1.1219974765646157 0.62136499172390813  1.3463969718781912 0.31068302374082746  1.5707964671912062 -1.9437987930359668e-07 
 3.1415926535897927 8 4.7123891207808972 8
7 0 0  7 8 2  4.712388980384711 0  4.9354159689113528 0.024780776502960206  5.1584438766976746 0.049561814365926438  5.3819128595546317 0.072327607057559362  5.6062969726817755 0.09107410787963488  5.8316255581628411 0.10412985495556271  6.0574048990415035 0.11065722117392507  6.2831853071795862 0.11065722117392507 
 4.712388980384711 8 6.2831853071795862 8
1 6.2831853071795862 -0 0 1 
1 0 -0 0 1 
1 0 0 1 0 
2 0 0 1 0 -0 1 2
7 0 0  7 8 2  4.712388980384647 0  4.9354159689112977 0.024780776502961215  5.1584438766969924 0.04956181436592999  5.3819128595564507 0.072327607057495413  5.606296972680866 0.091074107879698829  5.8316255581637506 0.1041298549555485  6.0574048990414946 0.11065722117392507  6.2831853071795862 0.11065722117392507 
 4.712388980384647 8 6.2831853071795862 8
7 0 0  7 8 2  0 0.11065722117392507  0.22578040813808312 0.11065722117392507  0.45155974901618379 0.10412985495554494  0.67688833450017682 0.091074107879698829  0.90127244762356895 0.07232760705751673  1.124741430482544 0.049561814365940648  1.3477693382682363 0.024780776502960268  1.5707963267948788 0 
 0 8 1.570796326794879 8
1 0 0 1 0 
2 0 0 1 0 -0 1 2
1 0 0 1 0 
2 0 0 1 0 -0 1 2
7 0 0  8 37 6  1.3044865694831068e-15 1.3216749236155463  0.04977374918621659 1.3216749236155463  0.099547314712724475 1.3209984373183117  0.14896874850261321 1.3196452787744883  0.19768283250384477 1.3176260503565558  0.2453712789011348 1.3149612296657003  0.29177703663171367 1.3116793864523018  0.33671270420496868 1.3078145295500396  0.46131619499033727 1.2951301855865684  0.53697079660298641 1.2849345970651029  0.60618783679956323 1.2730536745248173  0.66891562533373872 1.2597570426651146  0.72569078117339814 1.2452825346854297  0.77709315679351221 1.2298222093129425  0.8237390847614412 1.2135338247752125  0.9404732338868349 1.1668137209097986  1.0019046856929208 1.1349367006873763  1.0535004139223929 1.101597543266962  1.0978047449825681 1.0671977717074697  1.1363339796466789 1.0319881316313513  1.1703234012593384 0.99614885287610377  1.2006189250979986 0.95980572935772179  1.2687908852557261 0.86792576977439173  1.3028824388454723 0.81187779227332157  1.3323928499730755 0.75522878617698552  1.3584992805472211 0.69813426503424125  1.3820266572765831 0.64070631998447425  1.4035390597528021 0.58301799413368371  1.4234680883365634 0.52512617644610482  1.4608261641158273 0.40902185612351388  1.4782557187680971 0.35080943870332759  1.4947678412324144 0.29247984255323417  1.510606840998074 0.23406447559168395  1.5259657122834274 0.17558798538515483  1.5410121891230986 0.11707174222419013  1.5559044292532507 0.058535895016910269  1.5707963267948966 0 
 3.1415926535897931 9 3.2397674240144743 7 3.4238451185607515 7 3.7459810840167362 7 4.2291850322007143 7 4.7123889803846897 9
1 6.2831853071795862 -6.2831853071795862 0 1 
1 0 -6.2831853071795862 0 1 
7 0 0  8 37 6  4.7123889803846897 0  4.7365942233730154 0.095144057932247755  4.7608004221369811 0.19028795447661651  4.7856670670207677 0.28534814010481568  4.8118953086523106 0.38023409258585161  4.8402180632692762 0.47485534708380328  4.871913459370262 0.56904218159792208  4.9084840543892874 0.66260758552657117  4.9769385589545134 0.80117419625185449  5.0020231792791492 0.84706607345924567  5.0299023693678464 0.89259005935855384  5.0612637528211053 0.93764983210076025  5.0970901762084395 0.98211404287758342  5.1387140887018177 1.0257825178913436  5.18827231847105 1.0683578485705925  5.2798051058044395 1.1296755099872915  5.3131821113879907 1.1496904496601885  5.34986362285224 1.1692059882498995  5.3903812913090405 1.188126489681224  5.4353494335425694 1.2063329474037801  5.4855034259906414 1.223669407586832  5.5416418414769026 1.239931063654709  5.6356697614098881 1.2623340916097556  5.6686491958998246 1.2694700359460169  5.7033348446071699 1.2762434274979377  5.7397828801277377 1.2826196889776968  5.7780232558930518 1.2885617755297567  5.8180467341153497 1.2940314633153875  5.8597919137326206 1.2989906380971896  5.946472602974616 1.3078145295500394  5.9914082705478791 1.3116793864522789  6.0378140282783734 1.3149612296657078  6.0855024746756161 1.3176260503565862  6.134216558676906 1.3196452787744954  6.1836379924668794 1.3209984373182886  6.23341155799337 1.3216749236155463  6.2831853071795853 1.3216749236155463 
 1.5707963267948966 9 2.3561944901923475 7 2.7488935718910743 7 2.9452431127404317 7 3.0434178831651093 7 3.1415926535897931 9
1 6.2831853071795862 -0 0 1 
1 0 -0 0 1 
1 0 33.019325871374193 1 0 
2 0 0 1 0 -0 1 2
1 6.2831853071795862 -6.2831853071795862 0 1 
1 0 -6.2831853071795862 0 1 
Curves 16
1 31.764705882352942 -4.8985871965894059e-16 1612.0588235294117 0.47058823529411764 0 0.88235294117647056 
2 30 0 1613 0.47058823529411764 0 0.88235294117647056 0.88235294117647056 0 -0.47058823529411764 -0 1 0 2
2 38 0 1628 0.47058823529411764 0 0.88235294117647056 0.88235294117647056 0 -0.47058823529411764 -0 1 0 2
3 38 0 1628 0.18851523353150942 0 0.98207026567683053 0.98207026567683053 0 -0.18851523353150942 -0 1 0 2.0937023101989451 2
1 38 0 1628 0 -1 0 
2 32 0 1682 -0.11043152607484655 0 0.9938837346736189 0.9938837346736189 0 0.11043152607484655 0 1 -0 2
3 32 0 1682 -0.65649746415203092 0 0.75432823065423782 0.75432823065423782 0 0.65649746415203092 0 1 -0 2.4324609701478388 2
3 32 0 1682 -0.65649746415203092 0 0.75432823065423782 0.75432823065423782 0 0.65649746415203092 0 1 -0 2.4324609701478388 2
1 39.98776746934724 -4.8985871965894059e-16 1628.2208630521498 -0.11043152607484655 -3.0814879110195774e-33 0.9938837346736189 
2 38 0 1628 -0.11043152607484655 0 0.9938837346736189 0.9938837346736189 0 0.11043152607484655 0 1 -0 2
2 38 0 1628 0 0 1 1 0 -0 -0 1 0 2
2 32 0 1682 -0.96912941604728864 0 0.24655258050128284 -0.24655258050128284 0 -0.96912941604728864 -0 -1 0 2
2 32 0 1682 -2.4492935982947064e-16 -1 0 1 -2.4492935982947064e-16 0 0 0 1 2
1 31.506894838997436 4.8985871965894059e-16 1680.0617411679054 -0.96912941604728864 0 0.24655258050128284 
2 0 0 1690.1410000000001 -0.96912941604728864 0 0.24655258050128284 -0.24655258050128284 0 -0.96912941604728864 -0 -1 0 2
2 38 0 1628 -2.4492935982947064e-16 -1 0 1 -2.4492935982947064e-16 0 0 0 1 2
Polygon3D 0
PolygonOnTriangulations 0
Surfaces 12
2 30 0 1613 0.47058823529411764 0 0.88235294117647056 0.88235294117647056 0 -0.47058823529411764 -0 1 0 2
1 30 0 1613 0.47058823529411764 0 0.88235294117647056 0.88235294117647056 0 -0.47058823529411764 -0 1 0 
1 38 0 1628 0.47058823529411764 0 0.88235294117647056 0.88235294117647056 0 -0.47058823529411764 -0 1 0 
2 38 0 1628 -0.11043152607484655 0 0.9938837346736189 0.9938837346736189 0 0.11043152607484655 0 1 -0 2
1 38 0 1628 -0.11043152607484655 0 0.9938837346736189 0.9938837346736189 0 0.11043152607484655 0 1 -0 
1 38 0 1628 0 0 1 1 0 -0 -0 1 0 
1 32 0 1682 -0.11043152607484655 0 0.9938837346736189 0.9938837346736189 0 0.11043152607484655 0 1 -0 
4 32 0 1682 0 0 1 1 0 -0 -0 1 0 2
2 32 0 1682 -0.96912941604728864 0 0.24655258050128284 -0.24655258050128284 0 -0.96912941604728864 -0 -1 0 2
4 38 0 1628 0 0 1 1 0 -0 -0 1 0 2
1 32 0 1682 -0.96912941604728864 0 0.24655258050128284 -0.24655258050128284 0 -0.96912941604728864 -0 -1 0 
1 0 0 1690.1410000000001 -0.96912941604728864 0 0.24655258050128284 -0.24655258050128284 0 -0.96912941604728864 -0 -1 0 
Triangulations 0

TShapes 57
Ve
1e-07
39.7647058823529 -4.89858719658966e-16 1627.05882352941
0 0

0101101
*
Ve
1e-07
31.7647058823529 -4.89858719658941e-16 1612.05882352941
0 0

0101101
*
Ed
 1e-07 1 1 0
1  1 0 0 17
3  1 2CN 1 0 0 17
0

0101000
-57 0 +56 0 *
Ed
 1e-07 1 1 0
1  2 0 0 6.28318530717959
2  3 1 0 0 6.28318530717959
2  4 2 0 0 6.28318530717959
0

0101000
+56 0 -56 0 *
Ve
1.50000035527137e-07
38 2 1628
0 0

0101101
*
Ed
 1e-07 1 1 0
1  3 0 0 1.57079632679488
2  5 1 0 0 1.57079632679488
2  6 3 0 0 1.57079632679488
0

0101000
+57 0 -53 0 *
Ve
1.50000085265128e-07
37.9999999999999 -2 1628
0 0

0101101
*
Ed
 1e-07 1 1 0
1  4 0 1.5707963267949 4.71238898038469
2  7 1 0 1.5707963267949 4.71238898038469
2  8 4 0 1.5707963267949 4.71238898038469
0

0101000
+53 0 -51 0 *
Ed
 1e-07 1 1 0
1  3 0 4.71238898038466 6.28318530717959
2  5 1 0 4.71238898038466 6.28318530717959
2  6 3 0 4.71238898038466 6.28318530717959
0

0101000
+51 0 -57 0 *
Wi

0101100
+55 0 +54 0 -55 0 -52 0 -50 0 -49 0 *
Fa
0  1e-07 1 0

0101000
+48 0 *
Wi

0101100
-54 0 *
Fa
0  1e-07 2 0

0101000
-46 0 *
Ed
 1.5e-07 1 1 0
1  5 0 -2 2
2  9 3 0 -2 2
2  10 5 0 -2 2
2  11 6 0 -2 2
0

0101000
+53 0 -51 0 *
Wi

0101100
+49 0 +44 0 +52 0 *
Fa
0  1e-07 3 0

0101000
+43 0 *
Ve
1.39237167547186e-07
33.9877674693472 -4.89858719658941e-16 1682.22086305215
0 0

0101101
*
Ve
8.1263865290621e-07
32 2 1682
0 0

0101101
*
Ed
 1.39236713358388e-07 1 1 0
1  6 0 0 1.57079632679488
2  12 4 0 0 1.57079632679488
2  13 7 0 0 1.57079632679488
2  14 8 0 0 1.57079632679488
0

0101000
+41 0 -40 0 *
Ve
1.00000486722199e-07
30.1651260202534 4.89858719658941e-16 1680.40309554145
0 0

0101101
*
Ed
 1e-07 1 1 0
1  7 0 1.57079603382463 3.14159265358979
2  15 4 0 1.57079603382463 3.14159265358979
2  16 9 0 1.57079603382463 3.14159265358979
0

0101000
+40 0 -38 0 *
Ve
4.41508253088789e-07
32 -2 1682
0 0

0101101
*
Ed
 1e-07 1 1 0
1  8 0 3.14159265358979 4.7123891207809
2  17 4 0 3.14159265358979 4.7123891207809
2  18 9 0 3.14159265358979 4.7123891207809
0

0101000
+38 0 -36 0 *
Ed
 1.39237167547186e-07 1 1 0
1  6 0 4.71238898038471 6.28318530717959
2  12 4 0 4.71238898038471 6.28318530717959
2  13 7 0 4.71238898038471 6.28318530717959
2  19 8 0 4.71238898038471 6.28318530717959
0

0101000
+36 0 -41 0 *
Ve
1.39237779461139e-07
39.9877674693472 -4.89858719658941e-16 1628.22086305215
0 0

0101101
*
Ed
 1e-07 1 1 0
1  9 0 0 54.3323108288245
3  20 21CN 4 0 0 54.3323108288245
0

0101000
-41 0 +33 0 *
Ed
 1.39237779461139e-07 1 1 0
1  10 0 4.71238898038465 6.28318530717959
2  22 4 0 4.71238898038465 6.28318530717959
2  23 5 0 4.71238898038465 6.28318530717959
2  24 10 0 4.71238898038465 6.28318530717959
0

0101000
+51 0 -33 0 *
Ed
 1.39236620651371e-07 1 1 0
1  10 0 0 1.57079632679488
2  22 4 0 0 1.57079632679488
2  23 5 0 0 1.57079632679488
2  25 10 0 0 1.57079632679488
0

0101000
+33 0 -53 0 *
Wi

0101100
-39 0 -37 0 -35 0 -34 0 +32 0 +31 0 +50 0 +30 0 -32 0 *
Fa
0  1e-07 4 0

0101000
+29 0 *
Ve
1e-07
40 -4.89858719658942e-16 1628
0 0

0101101
*
Ed
 1e-07 1 1 0
1  11 0 4.71238898038465 6.28318530717959
2  26 10 0 4.71238898038465 6.28318530717959
2  27 6 0 4.71238898038465 6.28318530717959
0

0101000
+51 0 -27 0 *
Ed
 1e-07 1 1 0
1  11 0 0 1.57079632679488
2  26 10 0 0 1.57079632679488
2  27 6 0 0 1.57079632679488
0

0101000
+27 0 -53 0 *
Wi

0101100
+26 0 +44 0 +25 0 *
Fa
0  1e-07 6 0

0101000
+24 0 *
Ve
8.4746002523851e-07
32.4931051610026 8.06413835470902e-14 1683.93825883209
0 0

0101101
*
Ed
 1.00000033972825e-07 1 1 0
1  12 0 3.14159265358979 4.71238898038469
2  28 9 0 3.14159265358979 4.71238898038469
2  29 11 0 3.14159265358979 4.71238898038469
2  30 8 0 3.14159265358979 4.71238898038469
0

0101000
+22 0 -40 0 *
Ed
 1e-07 1 1 0
1  13 0 6.39384252835351 7.60486023079513
3  31 32CN 8 0 6.39384252835351 7.60486023079513
0

0101000
+41 0 -22 0 *
Wi

0101100
-21 0 +39 0 -20 0 *
Fa
0  1e-07 8 0

0101000
+19 0 *
Ed
 1.28630998378822e-07 1 1 0
1  12 0 1.5707963267949 3.14159265358979
2  28 9 0 1.5707963267949 3.14159265358979
2  29 11 0 1.5707963267949 3.14159265358979
2  33 8 0 1.5707963267949 3.14159265358979
0

0101000
+36 0 -22 0 *
Ve
1e-07
-0.493105161002566 4.89858719658991e-16 1688.20274116791
0 0

0101101
*
Ed
 1e-07 1 1 0
1  14 0 1.38450943344249 33.0193258713742
3  34 35CN 9 0 1.38450943344249 33.0193258713742
0

0101000
+38 0 -16 0 *
Ed
 1e-07 1 1 0
1  15 0 0 6.28318530717959
2  36 9 0 0 6.28318530717959
2  37 12 0 0 6.28318530717959
0

0101000
+16 0 -16 0 *
Wi

0101100
+37 0 +21 0 +17 0 +35 0 -15 0 -14 0 +15 0 *
Fa
0  1e-07 9 0

0101000
+13 0 *
Wi

0101100
+20 0 +34 0 -17 0 *
Fa
0  1e-07 8 0

0101000
+11 0 *
Ed
 1e-07 1 1 0
1  16 0 6.28318530717959 6.39384252835351
3  38 39CN 10 0 6.28318530717959 6.39384252835351
0

0101000
+27 0 -33 0 *
Wi

0101100
+9 0 +26 0 -31 0 *
Fa
0  1e-07 10 0

0101000
+8 0 *
Wi

0101100
-30 0 +25 0 -9 0 *
Fa
0  1e-07 10 0

0101000
+6 0 *
Wi

0101100
+14 0 *
Fa
0  1e-07 12 0

0101000
+4 0 *
Sh

0101100
+47 0 -45 0 +42 0 +28 0 -23 0 +18 0 +12 0 +10 0 +7 0 +5 0 
+3 0 *
So

0100000
+2 0 *

+1 0 