DBRep_DrawableShape

CASCADE Topology V3, (c) Open Cascade
Locations 1
1
              1              -0               0              -0 
              0               1               0               0 
             -0               0               1              -0 
Curve2ds 28
1 6.2831853071795862 -0 0 1 
1 0 -0 0 1 
1 0 0 1 0 
2 0 0 1 0 -0 1 4.9000000000000004
8 -6.000000000172534e-07 0.55000060000000006
1 2.0364193565805051 0 0 1 
8 -6.000000000172534e-07 0.55000060000000006
1 2.9783558557979273 0.099999999999999978 0 1 
1 0 0.55000000000000004 1 0 
2 0 0 1 0 -0 1 4.9000000000000004
8 -6.000000000172534e-07 0.55000060000000006
1 1.105173297009288 0 0 1 
8 -6.000000000172534e-07 0.55000060000000006
1 2.9783558557979273 0.099999999999999978 0 1 
8 0.70000000000000018 4.2000000000000002
1 -2.2000000000000002 0.70000000000000018 0 1 
8 0.70000000000000018 4.2000000000000002
1 -0.70000000000000018 0.099999999999999978 1 0 
2 0 0 1 0 -0 1 3.9500000000000002
1 0 0.29999999999999993 1 0 
8 0.70000000000000018 4.2000000000000002
1 2.2000000000000002 0.70000000000000018 0 1 
8 0.70000000000000018 4.2000000000000002
1 -0.70000000000000018 0.099999999999999978 1 0 
8 0.29999939999999992 0.8500006
1 2.1615197816301932 0 0 1 
8 0.29999939999999992 0.8500006
1 1.8806249404648496 -0.19999999999999996 0 1 
8 0.70000000000000018 4.2000000000000002
1 -2.2000000000000002 0.70000000000000018 0 1 
8 0.70000000000000018 4.2000000000000002
1 -0.70000000000000018 0.65000000000000002 1 0 
2 0 0 1 0 -0 1 3.9500000000000002
1 0 0.84999999999999998 1 0 
8 0.70000000000000018 4.2000000000000002
1 2.2000000000000002 0.70000000000000018 0 1 
8 0.70000000000000018 4.2000000000000002
1 -0.70000000000000018 0.65000000000000002 1 0 
8 0.29999939999999992 0.8500006
1 0.98007287195960013 0 0 1 
8 0.29999939999999992 0.8500006
1 1.8806249404648496 -0.19999999999999996 0 1 
1 6.2831853071795862 -0 0 1 
1 0 -0 0 1 
Curves 14
1 -1.2001538631644061e-15 -0.27500000000000002 4.9000000000000004 0 1 0 
2 0 -0.27500000000000002 0 0 1 0 0 -0 1 1 0 -0 4.9000000000000004
1 4.3783558557979276 -0.27500000000000002 -2.2000000000000002 0 1 0 
2 0 0.27500000000000002 0 0 1 0 0 -0 1 1 0 -0 4.9000000000000004
1 4.3783558557979276 -0.27500000000000002 2.2000000000000002 0 1 0 
1 0.70000000000000018 -0.27500000000000002 -2.2000000000000002 1 0 0 
2 0 -0.27500000000000002 0 0 1 0 0 -0 1 1 0 -0 3.9500000000000002
1 0.70000000000000018 -0.27500000000000002 2.2000000000000002 1 0 0 
1 3.28062494046485 -0.57499999999999996 -2.2000000000000002 0 1 0 
1 0.70000000000000018 0.27500000000000002 -2.2000000000000002 1 0 0 
2 0 0.27500000000000002 0 0 1 0 0 -0 1 1 0 -0 3.9500000000000002
1 0.70000000000000018 0.27500000000000002 2.2000000000000002 1 0 0 
1 3.28062494046485 -0.57499999999999996 2.2000000000000002 0 1 0 
1 -9.6747097132640901e-16 -0.57499999999999996 3.9500000000000002 0 1 0 
Polygon3D 0
PolygonOnTriangulations 0
Surfaces 6
2 0 -0.27500000000000002 0 0 1 0 0 -0 1 1 0 -0 4.9000000000000004
1 0 -0.27500000000000002 0 0 1 0 0 -0 1 1 0 -0 
1 1.4000000000000004 -0.375 -2.2000000000000002 0 0 1 1 0 0 0 1 0 
1 0 0.27500000000000002 0 0 1 0 0 -0 1 1 0 -0 
1 1.4000000000000004 -0.375 2.2000000000000002 0 0 1 1 0 0 0 1 0 
2 0 -0.57499999999999996 0 0 1 0 0 -0 1 1 0 -0 3.9500000000000002
Triangulations 0

TShapes 49
Ve
1e-07
-1.20015386316441e-15 0.275 4.9
0 0

0101101
*
Ve
1e-07
-1.20015386316441e-15 -0.275 4.9
0 0

0101101
*
Ed
 1e-07 1 1 0
1  1 0 0 0.55
3  1 2CN 1 0 0 0.55
0

0101000
-49 0 +48 0 *
Ve
1.50000000888178e-07
4.37835585579793 -0.275 -2.2
0 0

0101101
*
Ed
 1e-07 1 1 0
1  2 0 2.03641935658051 6.28318530717959
2  3 1 0 2.03641935658051 6.28318530717959
2  4 2 0 2.03641935658051 6.28318530717959
0

0101000
+46 0 -48 0 *
Ve
1.50000000888178e-07
4.37835585579793 0.275 -2.2
0 0

0101101
*
Ed
 1e-07 1 1 0
1  3 0 0 0.55
2  5 1 0 0 0.55
2  6 3 1 0 0.55
0

0101000
+46 0 -44 0 *
Ed
 1e-07 1 1 0
1  4 0 2.03641935658051 6.28318530717959
2  7 1 0 2.03641935658051 6.28318530717959
2  8 4 0 2.03641935658051 6.28318530717959
0

0101000
+44 0 -49 0 *
Wi

0101100
+47 0 +45 0 -43 0 -42 0 *
Fa
0  1e-07 1 0

0101000
+41 0 *
Ve
1.50000000444089e-07
4.37835585579793 0.275 2.2
0 0

0101101
*
Ed
 1e-07 1 1 0
1  4 0 0 1.10517329700929
2  7 1 0 0 1.10517329700929
2  8 4 0 0 1.10517329700929
0

0101000
+49 0 -39 0 *
Ve
1.50000000444089e-07
4.37835585579793 -0.275 2.2
0 0

0101101
*
Ed
 1e-07 1 1 0
1  5 0 0 0.55
2  9 1 0 0 0.55
2  10 5 1 0 0.55
0

0101000
+37 0 -39 0 *
Ed
 1e-07 1 1 0
1  2 0 0 1.10517329700929
2  3 1 0 0 1.10517329700929
2  4 2 0 0 1.10517329700929
0

0101000
+48 0 -37 0 *
Wi

0101100
-38 0 +36 0 +35 0 -47 0 *
Fa
0  1e-07 1 0

0101000
+34 0 *
Ve
1.50000000444089e-07
3.28062494046485 -0.275 -2.2
0 0

0101101
*
Ed
 1.5e-07 1 1 0
1  6 0 2.58062494046485 3.67835585579793
2  11 2 0 2.58062494046485 3.67835585579793
2  12 3 1 2.58062494046485 3.67835585579793
0

0101000
+32 0 -46 0 *
Ve
1.00000000967471e-07
-9.67470971326409e-16 -0.275 3.95
0 0

0101101
*
Ed
 1e-07 1 1 0
1  7 0 2.16151978163019 6.28318530717959
2  13 2 0 2.16151978163019 6.28318530717959
2  14 6 0 2.16151978163019 6.28318530717959
0

0101000
+32 0 -30 0 *
Ve
1.5e-07
3.28062494046485 -0.275 2.2
0 0

0101101
*
Ed
 1e-07 1 1 0
1  7 0 0 0.9800728719596
2  13 2 0 0 0.9800728719596
2  14 6 0 0 0.9800728719596
0

0101000
+30 0 -28 0 *
Ed
 1.5e-07 1 1 0
1  8 0 2.58062494046485 3.67835585579793
2  15 2 0 2.58062494046485 3.67835585579793
2  16 5 1 2.58062494046485 3.67835585579793
0

0101000
+28 0 -37 0 *
Wi

0101100
+45 0 +31 0 -29 0 -27 0 -26 0 +35 0 *
Fa
0  1e-07 2 0

0101000
+25 0 *
Ve
1.50000000444089e-07
3.28062494046485 0.275 -2.2
0 0

0101101
*
Ed
 1e-07 1 1 0
1  9 0 0.3 0.85
2  17 6 0 0.3 0.85
2  18 3 1 0.3 0.85
0

0101000
+32 0 -23 0 *
Ed
 1.5e-07 1 1 0
1  10 0 2.58062494046485 3.67835585579793
2  19 4 0 2.58062494046485 3.67835585579793
2  20 3 1 2.58062494046485 3.67835585579793
0

0101000
+23 0 -44 0 *
Wi

0101100
+31 0 -22 0 -21 0 +43 0 *
Fa
0  1e-07 3 1

0101000
+20 0 *
Ve
1.00000000967471e-07
-9.67470971326409e-16 0.275 3.95
0 0

0101101
*
Ed
 1e-07 1 1 0
1  11 0 2.16151978163019 6.28318530717959
2  21 4 0 2.16151978163019 6.28318530717959
2  22 6 0 2.16151978163019 6.28318530717959
0

0101000
+23 0 -18 0 *
Ve
1.5e-07
3.28062494046485 0.275 2.2
0 0

0101101
*
Ed
 1e-07 1 1 0
1  11 0 0 0.9800728719596
2  21 4 0 0 0.9800728719596
2  22 6 0 0 0.9800728719596
0

0101000
+18 0 -16 0 *
Ed
 1.5e-07 1 1 0
1  12 0 2.58062494046485 3.67835585579793
2  23 4 0 2.58062494046485 3.67835585579793
2  24 5 1 2.58062494046485 3.67835585579793
0

0101000
+16 0 -39 0 *
Wi

0101100
+42 0 +21 0 -17 0 -15 0 -14 0 +38 0 *
Fa
0  1e-07 4 0

0101000
+13 0 *
Ed
 1e-07 1 1 0
1  13 0 0.3 0.85
2  25 6 0 0.3 0.85
2  26 5 1 0.3 0.85
0

0101000
+28 0 -16 0 *
Wi

0101100
+26 0 -11 0 -14 0 +36 0 *
Fa
0  1e-07 5 1

0101000
+10 0 *
Ed
 1e-07 1 1 0
1  14 0 0.3 0.85
3  27 28CN 6 0 0.3 0.85
0

0101000
+30 0 -18 0 *
Wi

0101100
+8 0 +29 0 -22 0 -17 0 *
Fa
0  1e-07 6 0

0101000
+7 0 *
Wi

0101100
-15 0 +11 0 +27 0 -8 0 *
Fa
0  1e-07 6 0

0101000
+5 0 *
Sh

0101100
+40 0 +33 0 -24 0 +19 0 +12 0 -9 0 -6 0 -4 0 *
So

0100000
+3 0 *
Co

0100000
+2 0 *

+1 0 