DBRep_DrawableShape

CASCADE Topology V3, (c) Open Cascade
Locations 0
Curve2ds 49
1 0 18.439088914585774 1 0 
2 0 0 1 0 -0 1 1.2
7 0 0  8 23 4  2.8632929945847008 0.68930203954739033  2.9343896331765897 0.69927169620949048  3.006821540270872 0.70640605929629185  3.08021097165215 0.71056660127727866  3.1540814903773935 0.7116588938287407  3.2278825882105622 0.70965437807254617  3.3010704619158648 0.7045964293432363  3.3731863533050079 0.69659176558718139  3.5499051248769509 0.66958297286307755  3.6527224922724599 0.64708047747302544  3.7511256398611295 0.61878040889928343  3.8444326310891483 0.58540138699800082  3.9327010099841573 0.54773068458393936  4.016297502812904 0.50646506343446163  4.0957418162892747 0.46222726839146755  4.2474880224097173 0.36889162737855252  4.3197897945207666 0.31979380009636499  4.3891016774144873 0.26880917331783571  4.4560638043615199 0.21640219562215179  4.521292772244351 0.16297104701790133  4.5853735492578007 0.10887024964453731  4.6488813088334666 0.054435147043905042  4.7123889803846479 3.5527136788005009e-14 
 2.927972062303815 9 3.3740762918240144 7 4.0432326361043192 7 4.7123889803846346 9
7 0 0  5 6 2  6.0695645193409682 18.439088956054  6.1122886769086762 18.430075109721013  6.1550128344763948 18.421061263235742  6.1977369920440992 18.412081694989268  6.240461149611801 18.403170681959036  6.283185307179509 18.39436172253513 
 1.5707961302422722 6 1.7844169180808132 6
7 0 0  5 6 2  6.056386262573076 -4.1468229738939044e-08  6.099110420140784 0.0090138048647556857  6.1418345777084795 0.018027651350033341  6.1845587352762408 0.027007219596520832  6.2272828928439079 0.035918232626742708  6.2700070504116159 0.044727192050647346 
 1.5707961302422722 6 1.7844169180808132 6
1 6.2831853071795862 -0 0 1 
1 0 -0 0 1 
1 0 0 1 0 
2 0 0 1 0 -0 1 1.2
7 0 0  5 6 2  -7.7271522513910895e-14 18.39436172253513  0.0026356513535256369 18.393818298225533  0.0052713027071298185 18.393275262296612  0.0079069540607308031 18.392732622612755  0.01054260541433466 18.392190387027501  0.013178256767937569 18.391648563382084 
 1.7844169180808132 6 1.7975951748488277 6
7 0 0  5 6 2  6.2700070504116159 0.044727192050647346  6.2726427017652187 0.045270616360246735  6.2752783531188268 0.045813652289195039  6.2779140044724242 0.046356291972979802  6.2805496558260279 0.046898527558276955  6.2831853071796306 0.047440351203693609 
 1.7844169180808132 6 1.7975951748488277 6
7 0 0  8 9 2  0.013178256767937569 18.391648563382084  0.37752748245992029 18.316747524062411  0.74187670815172169 18.249043941110358  1.1062259338405056 18.203689596106415  1.4705751595383845 18.19379027056857  1.8349243852262589 18.224034813800245  2.1992736109193629 18.285349075227714  2.5636228366118177 18.362219337304463  2.9279720623038004 18.439088914585774 
 1.7975951748488277 9 4.7123889803846897 9
7 0 0  8 9 2  4.4408920985006224e-14 0.047440351203693609  0.3643492256920271 0.12234139052336869  0.72869845138234268 0.19004497347293636  1.0930476770754467 0.23539931847631124  1.4573969027596831 0.24529864402256862  1.8217461284602905 0.21505410078384557  2.1860953541504387 0.15373983934875923  2.5504445798439255 0.07686957728131022  2.9147938055359082 0 
 1.7975951748488277 9 4.7123889803846897 9
1 0 0 1 0 
2 0 0 1 0 -0 1 1.2
7 0 0  8 30 5  2.8632929945847008 0.68930203954739677  2.9374367720622341 0.72265891215453526  3.0162391114463389 0.75293233620368483  3.0999654515562725 0.77961663181940821  3.1886431827060733 0.80215411251992919  3.2819781630914804 0.81996149930500906  3.3789250270915545 0.832502353804216  3.4778740312841463 0.83948769046522642  3.6516505542176092 0.84191188376217974  3.7263232983715295 0.83980140555551697  3.8004986226265864 0.83452013358010202  3.8734496322718894 0.82613279644121962  3.944555855708884 0.81477966730345486  4.0133773754260389 0.80065830577508434  4.0796642834920229 0.78399760130052343  4.2387572286803508 0.7365638932012879  4.3282528139507521 0.7029011650027579  4.411393942060343 0.66481056976344988  4.4885414652903819 0.62309273739847981  4.5603852432292342 0.57842457282986715  4.6276740091835098 0.53134998724117566  4.6910968645630362 0.48232398173337321  4.8115272204569193 0.38112199010360082  4.868533204053235 0.32894619115758106  4.9229857813322706 0.27557292335936734  4.9754800537279849 0.22130544283278766  5.0265525135878839 0.16639685621578637  5.0766926987031953 0.11107027125939342  5.1263644238563133 0.055535169356435925  5.1760365893855029 -8.8817841970012539e-15 
 2.9147938055359242 9 3.4446302378472864 7 3.8420075620808007 7 4.4380735484310696 7 5.0341395347813442 9
1 0 0 1 0 
2 0 0 1 0 -0 1 1.2
8 -0.25439949120152688 1.2
1 0 0 0 -1 
8 -0.25439949120152688 1.2
1 0 0 0 -1 
8 -1.227910707617762 1.227910707617762
1 0 0 -0.97726975793548476 0.21199957600127184 
8 -1.227910707617762 1.227910707617762
1 0 0 -0.97439119569461996 0.22485950669875829 
1 6.2831853071795862 -0 0 1 
1 0 -0 0 1 
7 0 0  5 6 2  1.717144944753574e-13 23.980720202906216  0.0092242697740931717 23.984573447313785  0.018448539548010096 23.988428742300187  0.02767280932193647 23.992285404820393  0.036897079095856038 23.996142751102319  0.046121348869777493 24.000000097373924 
 4.6662678643703499 6 4.7123892132399572 6
7 0 0  5 6 2  3.1414371345422638 0.01927979709378036  3.1506614043161854 0.015426552686209509  3.1598856740901127 0.011571257699853385  3.1691099438640435 0.0077145951796291495  3.1783342136379473 0.0038572488976714578  3.1875584834118689 -9.7373934693223418e-08 
 4.6662678643703499 6 4.7123892132399572 6
1 0 24 1 0 
2 0 0 1 0 -0 1 1.2
7 0 0  8 16 3  2.0344439357957285 2.9605947323337522e-14  2.0884092228129272 0.06033502509790091  2.1423746833516386 0.12067002068740501  2.1969378918484352 0.18073742584564023  2.2527006402973484 0.2402689934473301  2.3102908876695665 0.29897514596241415  2.3704094698347182 0.35652062737068346  2.4338572178332694 0.41249378860484198  2.5691390468658821 0.52023989926190695  2.6409734739504529 0.57201275012562292  2.717858783520569 0.62115913601564898  2.8007356828111369 0.6670320571083721  2.8904639582106029 0.70885076756530907  2.9879060301013851 0.74562537074859847  3.0928786692128343 0.7762435029374789  3.204011463585803 0.79980733774951274 
 1.8925468811915793 9 2.5401303253979624 7 3.1877137696043429 9
7 0 0  8 9 2  3.1877137696043047 23.999999999999996  3.5746477118012363 23.838194433177687  3.9615816539972215 23.676387479466939  4.3485155962000803 23.551509281227482  4.7354495383872504 23.50038653757656  5.1223834805935198 23.542600022818078  5.5093174227854647 23.66075120979076  5.8962513649828265 23.819086698530093  6.2831853071797577 23.980720202906216 
 1.5707963267948966 9 4.6662678643703499 9
7 0 0  8 9 2  0.045965596966812405 -7.1054273576010019e-15  0.43289953916374418 0.16180556682230096  0.8198334813589554 0.32361252050424127  1.206767423553174 0.44849071870589796  1.593701365754896 0.49961346236227655  1.980635307943885 0.45739997709233648  2.3675692501465164 0.3392487901886625  2.7545031923453323 0.180913301469903  3.1414371345422638 0.01927979709378036 
 1.5707963267948966 9 4.6662678643703499 9
8 -0.28442727788398692 1.2649110640673518
1 0 0 0.31622776601683794 -0.94868329805051388 
8 -0.28442727788398692 1.2649110640673518
1 0 0 0.44721359549995798 -0.89442719099991597 
1 0 24.677925358506133 1 0 
2 0 0 1 0 -0 1 1.2
1 6.2831853071795862 -0 0 1 
1 0 -0 0 1 
1 0 0 1 0 
2 0 0 1 0 -0 1 1.2
7 0 0  8 23 4  1.1309537439791904 3.5527136788004978e-14  1.2066056455343854 0.088835636583218566  1.2822566927077332 0.17767168604410699  1.3597341018157749 0.26572983245205251  1.4408246154389417 0.35224963723248948  1.5276721693608124 0.43627828020066772  1.6226053776645131 0.51667925508218104  1.7292402870242705 0.59160118292800656  1.9106296373289802 0.69185103229202172  1.974664880700135 0.72324578955955188  2.0425988922057812 0.75229200897257442  2.1146779549726489 0.7786216301678337  2.1910379358603507 0.8018167538400931  2.2715145720615544 0.82143936437750842  2.3554990577761892 0.83709145810022123  2.5285887153663333 0.85990414754763778  2.6176934200207604 0.86706410412690693  2.7084178031772552 0.86970383141920848  2.799475215650773 0.86765440230817603  2.8893771413416403 0.8609505638320627  2.9768366865796336 0.84981877502952119  3.0610647505671733 0.83460489870502175  3.1415926535897931 0.81569192331622287 
 4.4162533273714271 9 5.3497193172755022 7 5.8164523122275442 7 6.2831853071795862 9
7 0 0  5 6 2  3.1415926535897931 0.81569192331622298  3.1542817522391946 0.81271173133984975  3.1668704023449408 0.8096310907318891  3.1793561491098785 0.80645206149421789  3.1917370153095708 0.80317676198016785  3.2040114635858004 0.79980733774948765 
 0 6 0.045965596966848522 6
8 -1.2649110640673518 0.058318429389257895
1 0 0 0.31622776601683794 -0.94868329805051388 
8 -1.2649110640673518 0.058318429389257895
1 0 0 0.44721359549995798 -0.89442719099991597 
8 -1.2012688186415383 1.2012688186415383
1 0 0 0.99893660984868549 0.046104766608400884 
8 -1.2012688186415383 1.2012688186415383
1 0 -0 -0.99894376793782669 -0.045949412381201454 
1 0 0 1 0 
2 0 0 1 0 -0 1 1.2
8 -1.2546115524106829 0.05764866359998503
1 0 -0 0.2918262576414451 0.95647134580759341 
8 -1.2546115524106829 0.05764866359998503
1 0 0 -0.42579703632987959 -0.90481870220099414 
Curves 22
2 12 0 32 0.65079137345596849 0 0.75925660236529657 0.75925660236529657 0 -0.65079137345596849 -0 1 0 1.2
3 12 0 32 0.66883247103873078 0.16922296591104907 0.72389689424150283 -0.045840243579375883 -0.9625070220957086 0.2673553898559643 0.74199851600445199 -0.21199957600127198 -0.63599872800381607 1.2184053545595535 1.2
1 0.91110792283835584 -2.9391523179536451e-16 17.219050351852839 0.65079137345596849 0 0.75925660236529657 
2 0 0 18 0.65079137345596849 0 0.75925660236529657 0.75925660236529657 0 -0.65079137345596849 -0 1 0 1.2
3 12 0 32 0.66883247103873078 0.16922296591104907 0.72389689424150283 -0.045840243579375883 -0.9625070220957086 0.2673553898559643 0.74199851600445199 -0.21199957600127198 -0.63599872800381607 1.2184053545595535 1.2
3 12 0 32 0.66883247103873078 0.16922296591104907 0.72389689424150283 -0.045840243579375883 -0.9625070220957086 0.2673553898559643 0.74199851600445199 -0.21199957600127198 -0.63599872800381607 1.2184053545595535 1.2
2 12 0 32 0.66666666666666663 0.33333333333333331 0.66666666666666663 0.70710678118654746 0 -0.70710678118654746 -0.23570226039551584 0.94280904158206336 -0.23570226039551584 1.2
2 12 0 32 0 0 1 1 0 -0 -0 1 0 1.2
1 12 0 32 0 -1 0 
1 12 0 32 -0.74199851600445188 0.21199957600127178 0.63599872800381596 
1 12.848528137423857 -2.7710593799535793e-16 31.151471862576145 0.66666666666666663 0.33333333333333331 0.66666666666666663 
3 28 8 48 0.71774508377678525 0.0048485224305203946 0.6962890825975202 -0.033743753669454361 0.99904305493029155 0.027826848255698321 -0.69548785309489825 -0.043467990818431168 0.71722184850411386 1.2707750294254099 1.2
2 28 8 48 0.66666666666666663 0.33333333333333331 0.66666666666666663 0.70710678118654746 0 -0.70710678118654746 -0.23570226039551584 0.94280904158206336 -0.23570226039551584 1.2
3 28 8 48 0.71774508377678525 0.0048485224305203946 0.6962890825975202 -0.033743753669454361 0.99904305493029155 0.027826848255698321 -0.69548785309489825 -0.043467990818431168 0.71722184850411386 1.2707750294254099 1.2
1 12 0 32 0.44721359549995793 -0.89442719099991586 0 
2 45 0 64 0.68887476370214162 -0.32417635938924311 0.64835271877848621 -0.68536469900499097 2.775557561562892e-17 0.728199992692803 -0.23606522253842635 -0.94599666384884062 -0.22217903297734234 1.2
1 27.17756236119401 8 48.873839991231371 0.68887476370214162 -0.32417635938924311 0.64835271877848621 
2 28 8 48 0.68887476370214162 -0.32417635938924311 0.64835271877848621 -0.68536469900499097 2.775557561562892e-17 0.728199992692803 -0.23606522253842635 -0.94599666384884062 -0.22217903297734234 1.2
1 28 8 48 0.44721359549995793 -0.89442719099991586 0 
1 28 8 48 0.69548785309489825 0.043467990818431161 -0.71722184850411386 
2 28 8 48 0 0 1 1 0 -0 -0 1 0 1.2
1 28 8 48 -0.42579703632987953 -0.90481870220099403 0 
Polygon3D 0
PolygonOnTriangulations 0
Surfaces 13
2 0 0 18 0.65079137345596849 0 0.75925660236529657 0.75925660236529657 0 -0.65079137345596849 -0 1 0 1.2
1 12 0 32 0.65079137345596849 0 0.75925660236529657 0.75925660236529657 0 -0.65079137345596849 -0 1 0 
4 12 0 32 0 0 1 1 0 -0 -0 1 0 1.2
2 12 0 32 0.66666666666666663 0.33333333333333331 0.66666666666666663 0.70710678118654746 0 -0.70710678118654746 -0.23570226039551584 0.94280904158206336 -0.23570226039551584 1.2
1 0 0 18 0.65079137345596849 0 0.75925660236529657 0.75925660236529657 0 -0.65079137345596849 -0 1 0 
1 12 0 32 0.66666666666666663 0.33333333333333331 0.66666666666666663 0.70710678118654746 0 -0.70710678118654746 -0.23570226039551584 0.94280904158206336 -0.23570226039551584 
1 12 0 32 0 0 1 1 0 -0 -0 1 0 
2 28 8 48 0.68887476370214162 -0.32417635938924311 0.64835271877848621 -0.68536469900499097 0 0.728199992692803 -0.23606522253842632 -0.94599666384884062 -0.22217903297734237 1.2
1 28 8 48 0.66666666666666663 0.33333333333333331 0.66666666666666663 0.70710678118654746 0 -0.70710678118654746 -0.23570226039551584 0.94280904158206336 -0.23570226039551584 
4 28 8 48 0 0 1 1 0 -0 -0 1 0 1.2
1 45 0 64 0.68887476370214162 -0.32417635938924311 0.64835271877848621 -0.68536469900499097 0 0.728199992692803 -0.23606522253842632 -0.94599666384884062 -0.22217903297734237 
1 28 8 48 0.68887476370214162 -0.32417635938924311 0.64835271877848621 -0.68536469900499097 0 0.728199992692803 -0.23606522253842632 -0.94599666384884062 -0.22217903297734237 
1 28 8 48 0 0 1 1 0 -0 -0 1 0 
Triangulations 0

TShapes 71
Ve
1.50000019316924e-07
11.1096017807947 0.254399491201509 32.7631984736046
0 0

0101101
*
Ve
1.50000074182839e-07
11.9999999999999 -1.2 32
0 0

0101101
*
Ed
 1.00000001986027e-07 1 1 0
1  1 0 2.92797206230382 4.71238898038463
2  1 1 0 2.92797206230382 4.71238898038463
2  2 2 0 2.92797206230382 4.71238898038463
2  3 3 0 2.92797206230382 4.71238898038463
0

0101000
+71 0 -70 0 *
Ve
1.50000027308383e-07
12.8903982192053 -0.254399491201552 31.2368015263954
0 0

0101101
*
Ed
 1e-07 1 1 0
1  1 0 4.71238898038463 6.06956471589357
2  1 1 0 4.71238898038463 6.06956471589357
2  2 2 0 4.71238898038463 6.06956471589357
0

0101000
+70 0 -68 0 *
Ve
1.00000545766147e-07
12.8819998520932 -2.93915231795365e-16 31.1850909359835
0 0

0101101
*
Ed
 1e-07 1 1 0
1  2 0 1.5707963267949 1.78441691808081
2  4 1 0 1.5707963267949 1.78441691808081
2  5 4 0 1.5707963267949 1.78441691808081
0

0101000
+68 0 -66 0 *
Ve
1e-07
0.911107922838356 -2.93915231795365e-16 17.2190503518528
0 0

0101101
*
Ed
 1e-07 1 1 0
1  3 0 0 18.3943617225357
3  6 7CN 1 0 0 18.3943617225357
0

0101000
+64 0 -66 0 *
Ed
 1e-07 1 1 0
1  4 0 0 6.28318530717959
2  8 1 0 0 6.28318530717959
2  9 5 0 0 6.28318530717959
0

0101000
+64 0 -64 0 *
Ve
1.00000325016966e-07
12.8801550382265 0.015813450401337 31.1830987633788
0 0

0101101
*
Ed
 1e-07 1 1 0
1  5 0 1.78441691808081 1.79759517484883
2  10 1 0 1.78441691808081 1.79759517484883
2  11 4 0 1.78441691808081 1.79759517484883
0

0101000
+66 0 -61 0 *
Ed
 1e-07 1 1 0
1  6 0 1.79759517484883 4.71238898038469
2  12 1 0 1.79759517484883 4.71238898038469
2  13 4 0 1.79759517484883 4.71238898038469
0

0101000
+61 0 -71 0 *
Wi

0101100
-69 0 -67 0 -65 0 +63 0 +62 0 -63 0 -60 0 -59 0 *
Fa
0  1e-07 1 0

0101000
+58 0 *
Ve
1.50000015702495e-07
12.5366563146 -1.07331262919989 32
0 0

0101101
*
Ed
 1.0244936220433e-07 1 1 0
1  7 0 2.91479380553592 5.03413953478134
2  14 4 0 2.91479380553592 5.03413953478134
2  15 6 0 2.91479380553592 5.03413953478134
2  16 3 0 2.91479380553592 5.03413953478134
0

0101000
+71 0 -56 0 *
Ed
 1e-07 1 1 0
1  8 0 4.71238898038463 5.17603658938551
2  17 3 0 4.71238898038463 5.17603658938551
2  18 7 0 4.71238898038463 5.17603658938551
0

0101000
+70 0 -56 0 *
Wi

0101100
+69 0 -55 0 +54 0 *
Fa
0  1e-07 3 0

0101000
+53 0 *
Ve
1.5e-07
12 0 32
0 0

0101101
*
Ed
 1.5e-07 1 1 0
1  9 0 0 1.2
2  19 2 0 0 1.2
2  20 7 0 0 1.2
0

0101000
+51 0 -70 0 *
Ed
 1.5e-07 1 1 0
1  10 0 -1.2 0
2  21 2 0 -1.2 0
2  22 6 0 -1.2 0
0

0101000
+68 0 -51 0 *
Wi

0101100
+67 0 +50 0 +49 0 *
Fa
0  1e-07 2 0

0101000
+48 0 *
Ed
 1e-07 1 1 0
1  7 0 5.03413953478134 6.05638645912568
2  14 4 0 5.03413953478134 6.05638645912568
2  15 6 0 5.03413953478134 6.05638645912568
0

0101000
+56 0 -68 0 *
Ve
1.00000625539969e-07
28.8356749393617 7.99357340096894 47.138618664514
0 0

0101101
*
Ed
 1e-07 1 1 0
1  11 0 0.0474403512040116 23.9807202029068
3  23 24CN 4 0 0.0474403512040116 23.9807202029068
0

0101000
+61 0 -45 0 *
Ve
3.95906613505659e-07
28.8345854237139 8.05216158898216 47.1393337817951
0 0

0101101
*
Ed
 1e-07 1 1 0
1  12 0 4.66626786437035 4.71238921323996
2  25 4 0 4.66626786437035 4.71238921323996
2  26 8 0 4.66626786437035 4.71238921323996
0

0101000
+45 0 -43 0 *
Ve
1.50000057395846e-07
27.4633436854 9.07331262919988 48
0 0

0101101
*
Ed
 1e-07 1 1 0
1  13 0 0.0461211160145465 1.89254688119158
2  27 4 0 0.0461211160145465 1.89254688119158
2  28 9 0 0.0461211160145465 1.89254688119158
0

0101000
+43 0 -41 0 *
Ve
1.50000048849813e-07
27.1654145762861 7.94783841101783 48.8606662182049
0 0

0101101
*
Ed
 1.00000001776357e-07 1 1 0
1  13 0 1.89254688119158 3.18771376960434
2  27 4 0 1.89254688119158 3.18771376960434
2  28 9 0 1.89254688119158 3.18771376960434
2  29 10 0 1.89254688119158 3.18771376960434
0

0101000
+41 0 -39 0 *
Ed
 1e-07 1 1 0
1  14 0 1.5707963267949 4.66626786437035
2  30 4 0 1.5707963267949 4.66626786437035
2  31 8 0 1.5707963267949 4.66626786437035
0

0101000
+39 0 -45 0 *
Wi

0101100
+46 0 +55 0 +59 0 -44 0 -42 0 -40 0 -38 0 -37 0 +44 0 +60 0 
+65 0 *
Fa
0  1e-07 4 0

0101000
+36 0 *
Wi

0101100
-62 0 *
Fa
0  1e-07 5 0

0101000
-34 0 *
Ed
 1.5e-07 1 1 0
1  15 0 0 1.2
2  32 6 0 0 1.2
2  33 7 0 0 1.2
0

0101000
+51 0 -56 0 *
Wi

0101100
+50 0 -32 0 +54 0 *
Fa
0  1e-07 7 0

0101000
+31 0 *
Wi

0101100
+46 0 +32 0 +49 0 *
Fa
0  1e-07 6 0

0101000
+29 0 *
Ve
1e-07
44.177562361194 3.77743326076835e-16 64.8738399912314
0 0

0101101
*
Ed
 1e-07 1 1 0
1  16 0 0 6.28318530717959
2  34 8 0 0 6.28318530717959
2  35 11 0 0 6.28318530717959
0

0101000
+27 0 -27 0 *
Ve
1.00000007944109e-07
27.177562361194 8 48.8738399912314
0 0

0101101
*
Ed
 1e-07 1 1 0
1  17 0 0 24.6779253585061
3  36 37CN 8 0 0 24.6779253585061
0

0101000
-27 0 +25 0 *
Ve
1.50000066298816e-07
28.5109564435958 9.08578244264122 48
0 0

0101101
*
Ed
 1e-07 1 1 0
1  18 0 4.41625332737143 6.28318530717959
2  38 8 0 4.41625332737143 6.28318530717959
2  39 12 0 4.41625332737143 6.28318530717959
2  40 10 0 4.41625332737143 6.28318530717959
0

0101000
+23 0 -25 0 *
Ed
 1e-07 1 1 0
1  18 0 3.18755825055664 4.41625332737143
2  38 8 0 3.18755825055664 4.41625332737143
2  39 12 0 3.18755825055664 4.41625332737143
0

0101000
+43 0 -23 0 *
Ed
 1.00000003552714e-07 1 1 0
1  18 0 0 0.0459655969668485
2  38 8 0 0 0.0459655969668485
2  39 12 0 0 0.0459655969668485
2  41 10 0 0 0.0459655969668485
0

0101000
+25 0 -39 0 *
Wi

0101100
-26 0 +24 0 +22 0 +21 0 +42 0 +37 0 +20 0 -24 0 *
Fa
0  1e-07 8 0

0101000
+19 0 *
Ve
1.50000003972055e-07
28 8 48
0 0

0101101
*
Ed
 1.5e-07 1 1 0
1  19 0 -1.2 1.58882185807825e-15
2  42 9 0 -1.2 1.58882185807825e-15
2  43 13 0 -1.2 1.58882185807825e-15
0

0101000
+41 0 -17 0 *
Ed
 1.5e-07 1 1 0
1  20 0 2.47086920912984e-15 1.2
2  44 9 0 2.47086920912984e-15 1.2
2  45 12 0 2.47086920912984e-15 1.2
0

0101000
+17 0 -43 0 *
Wi

0101100
+16 0 +40 0 +15 0 *
Fa
0  1e-07 9 0

0101000
+14 0 *
Ed
 1e-07 1 1 0
1  21 0 1.13095374397921 2.03444393579575
2  46 10 0 1.13095374397921 2.03444393579575
2  47 13 0 1.13095374397921 2.03444393579575
0

0101000
+23 0 -41 0 *
Wi

0101100
-22 0 -20 0 +38 0 +12 0 *
Fa
0  1e-07 10 0

0101000
+11 0 *
Wi

0101100
+26 0 *
Fa
0  1e-07 11 0

0101000
+9 0 *
Ed
 1.5e-07 1 1 0
1  22 0 -1.2 -1.51273495536188e-15
2  48 12 0 -1.2 -1.51273495536188e-15
2  49 13 0 -1.2 -1.51273495536188e-15
0

0101000
+23 0 -17 0 *
Wi

0101100
+15 0 +7 0 +21 0 *
Fa
0  1e-07 12 0

0101000
+6 0 *
Wi

0101100
-7 0 +16 0 +12 0 *
Fa
0  1e-07 13 0

0101000
+4 0 *
Sh

0101100
+57 0 +52 0 +47 0 +35 0 -33 0 -30 0 -28 0 +18 0 +13 0 +10 0 
+8 0 -5 0 -3 0 *
So

0100000
+2 0 *

+1 0 