DBRep_DrawableShape

CASCADE Topology V3, (c) Open Cascade
Locations 0
Curve2ds 49
7 0 0  7 26 5  6.2831853071795862 4.1500000000000004  6.2575911475723913 4.1500000000000004  6.2326319652812003 4.1165359487661579  6.2089836579509363 4.0525946671257369  6.1872184190910984 3.9623009330339216  6.1678059580712841 3.850898254713996  6.1510587432647759 3.7247311795258602  6.1227842968131219 3.455032521193083  6.1110138691979508 3.30787835549385  6.1016881032373345 3.1530702043150622  6.0947453945686352 2.9930747957198762  6.0901349948361263 2.8298293156055916  6.0878273994801528 2.6649644606768783  6.0878273994801528 2.3350291727720829  6.0901351699960786 2.170165605761782  6.0947455498901961 2.0069238039992339  6.1016880853749944 1.8469309709573765  6.1110137457923663 1.6921229108111633  6.1227842841763795 1.5449675993437564  6.1510534045094118 1.2753197447304701  6.167800518356211 1.1491279885891168  6.1872179993877081 1.0376821884291472  6.2089907667775091 0.94736471196704719  6.232644762856105 0.88343352074688819  6.2576028365352609 0.84999999999999987  6.2831853071795862 0.85000000000000009 
 0 8 0.24764058088087104 6 0.50003767065521554 6 0.75244450130918827 6 1 8
7 0 0  7 26 5  0 6.5  0.1318487010067638 6.5  0.26042607011555163 6.4935037302086629  0.38585444986434103 6.4810932353187614  0.50797953886174474 6.4643598914622666  0.62639695341531043 6.4455426340851192  0.74031339068075763 6.4267387990441289  0.95821943012025024 6.3917439898468817  1.0646714383726237 6.3751775852815395  1.1684765409816167 6.3609054695839085  1.270330436469453 6.34972993719503  1.3708998792830673 6.3421226939839874  1.4708178657786071 6.3383151775403643  1.6707786463269678 6.3383151775403643  1.7706958420174019 6.3421229805913368  1.8712632675233443 6.3497302002159417  1.9731154920444407 6.3609053882339861  2.0769202295166274 6.3751774295977812  2.183373126080459 6.3917439742065971  2.4012381180880831 6.4267321913559607  2.5151653730939834 6.4455373604937787  2.6336168030785432 6.4643617275479155  2.7557796935230119 6.4811010909760975  2.8812325135383174 6.4935096745458338  3.0098041684523618 6.5  3.141592653589794 6.5 
 0 8 0.24764058088087104 6 0.50003767065521554 6 0.75244450130918827 6 1 8
8 -5.999999999062311e-07 5.0000005999999999
1 6.1746668385459147 0 0 1 
8 -5.999999999062311e-07 5.0000005999999999
1 -2.5 0.92059763197610434 1 0 
7 0 0  6 7 2  6.174666186797328 0.17567432144280914  6.1912483969017478 0.12017667536914209  6.208686577960596 0.073420391617664699  6.2268032760352359 0.037109219541441939  6.2453991687503301 0.01241549275737875  6.264264414113538 -1.2882031710560656e-16  6.2831853071795862 0 
 0 7 1 7
7 0 0  6 7 2  2.7644760147592708 -5.9999999999999997e-07  2.8247600217405981 0.015265034677856087  2.8865592649610332 0.028530433848942976  2.9494558144786289 0.039085332087410579  3.0131198219550943 0.0463484346305039  3.0772616171652287 0.050000000000000711  3.141592653589794 0.050000000000000711 
 0 7 1 7
1 0 0 1 0 
2 0 0 1 0 -0 1 8.5
7 0 0  6 7 2  0 0  0.018921697918680435 1.2447768484393972e-16  0.037787218385959248 0.012416551777233931  0.056382975920495654 0.037111073783916773  0.07449930511341106 0.073422059845573651  0.091937095644151007 0.12017729575652777  0.10851912038225908 0.17567432144281092 
 0 7 1 7
7 0 0  6 7 2  3.141592653589794 0.050000000000000711  3.2059264265133076 0.05000000000000069  3.2700691549389229 0.046348126428814841  3.3337327646728276 0.039084780819774262  3.3966280993246181 0.028529966385425463  3.4584259593313091 0.01526486402904787  3.5187092924203176 -5.9999999999999997e-07 
 0 7 1 7
8 -5.999999999062311e-07 5.0000005999999999
1 0.10851846863367155 0 0 1 
8 -5.999999999062311e-07 5.0000005999999999
1 -2.5 -0.92059763197610434 1 0 
7 0 0  7 26 5  0 0.85000000000000009  0.025594159607182729 0.85000000000000031  0.050553341898419916 0.88346405123395522  0.074201649228603395 0.94740533287395112  0.095966888088532737 1.0376990669664758  0.11537934910827492 1.1491017452857313  0.1321265639148208 1.2752688204742366  0.16040102337427356 1.5449676028832173  0.17217156041285933 1.6921229029200986  0.18149722288727732 1.8469309744349878  0.18843975671621138 2.0069238112690115  0.19305013730334153 2.1701655958029433  0.1953579076994334 2.3350291768281397  0.1953579076994334 2.6649708231715508  0.19305013730332132 2.8298344041982619  0.18843975671627305 2.9930761887288471  0.18149722288719267 3.1530690255670408  0.17217156041292048 3.3078770970788982  0.16040102337425199 3.4550323971169936  0.13213166074411531 3.7246825629056382  0.11538406891468996 3.8508777180282943  0.095966304850949258 3.9623223133398535  0.074193860925830316 4.0526359016624589  0.050540611001510215 4.1165649235970507  0.025583077990892714 4.1500000000000004  0 4.1500000000000004 
 0 8 0.24764413129591079 6 0.50004506972767249 6 0.75244600815896157 6 1 8
7 0 0  7 26 5  3.141592653589794 6.5  3.2734413545964931 6.5  3.4020187237054813 6.4935037302086611  3.5274471034539623 6.4810932353187729  3.6495721924517364 6.4643598914622435  3.7679896070049339 6.4455426340851432  3.8819060442706288 6.4267387990441192  4.0998121839588739 6.391743973747336  4.2062650710559613 6.3751774308188827  4.3100698193083709 6.3609053868917673  4.4119220428665482 6.3497302008939043  4.5124894594327696 6.3421229804664234  4.6124066633108356 6.3383151775403643  4.8123712974583572 6.3383151775403643  4.9122885013373274 6.3421229804664474  5.0128559179015415 6.349730200893827  5.114708141462283 6.3609053868918757  5.218512889712736 6.3751774308188045  5.3249657768106751 6.3917439737473627  5.5428326361582112 6.426732490783797  5.6567630423866371 6.4455381899622477  5.77521504073282 6.4643626176655342  5.8973755822551244 6.4811012564479968  6.0228248347780831 6.493509352611067  6.1513936932871083 6.5  6.2831853071795862 6.5 
 0 8 0.24764413129591079 6 0.50004506972767249 6 0.75244600815896157 6 1 8
7 0 0  6 7 2  0.10851912038225908 4.8243256785571891  0.091936910277836945 4.8798233246308653  0.074498729218993434 4.9265796083823297  0.05638203114434797 4.9628907804585518  0.037786138429262178 4.9875845072426257  0.018920893066044244 5  0 5 
 0 7 1 7
7 0 0  6 7 2  5.9060686683490617 -5.9999999999999997e-07  5.9663526753303984 0.015265034677858502  6.028151918550817 0.028530433848938993  6.0910484680684274 0.039085332087414326  6.154712475544871 0.046348434630502727  6.2188542707550356 0.050000000000000704  6.2831853071795862 0.050000000000000711 
 0 7 1 7
1 0 5 1 0 
2 0 0 1 0 -0 1 8.5
7 0 0  6 7 2  6.2831853071795862 5  6.2642636092609045 5  6.2453980887936336 4.9875834482227654  6.2268023312590843 4.9628889262160856  6.2086860020661785 4.9265779401544281  6.1912482115354353 4.8798227042434688  6.174666186797328 4.82432567855719 
 0 7 1 7
7 0 0  6 7 2  0 0.050000000000000711  0.064333772923517885 0.05000000000000069  0.12847650134911279 0.046348126428816187  0.19214011108305074 0.039084780819771639  0.25503544573481496 0.028529966385426795  0.3168333057415198 0.015264864029046652  0.3771166388305236 -5.9999999999999997e-07 
 0 7 1 7
1 0 6.4499999999999993 1 0 
2 0 0 1 0 -0 1 1.6499999999999999
1 6.2831853071795862 -0 0 1 
1 0 -0 0 1 
7 0 0  6 52 11  0 1.0500000000000003  0.0379761719123708 1.0500000000000003  0.075719166526172429 1.0621249047832635  0.11273755904641952 1.0860953001289397  0.14855203427920449 1.1210487101845454  0.18268057743430785 1.1655462882174987  0.22860796891380142 1.2400857179412204  0.24218076087043572 1.2641790568882829  0.25538741697536377 1.2896541923061704  0.26822082090901866 1.3164140785544431  0.28067426292287251 1.3443657170649017  0.30783599584188598 1.4097636908579141  0.32232866368179014 1.4478385493806609  0.33621628363920925 1.4874943074022962  0.34949499417730173 1.5285972651846158  0.3621604475914455 1.5710299150257283  0.38840798480079264 1.6661511436568315  0.40175176127152729 1.7193255351697845  0.41422994197507151 1.7740440175563446  0.42583078326263485 1.8301577197624086  0.43654073292244044 1.8875374139281773  0.46603995067671444 2.0636593618840209  0.48211665592471509 2.1861292841661664  0.49434871374063927 2.3121381429941055  0.50257386291517792 2.4404998823034605  0.50669952025526221 2.5701365128098668  0.50669952025526221 2.7679439886117159  0.50557017982842789 2.8358762086081764  0.50331210798218151 2.9036255957177075  0.49993332363949899 2.9710170329782142  0.49544920046381158 3.0378711114169223  0.48475425475915618 3.1649257765060441  0.4787076036317563 3.2252321562217383  0.47175719628842833 3.2848154950182535  0.46391952504117634 3.3435603566815213  0.45521255503697899 3.4013429583364725  0.42733158121466103 3.5667182409279548  0.40588762008768248 3.6713506851766695  0.38141812436689326 3.7712564897036622  0.35398610814970749 3.8655555641425434  0.3236353246263316 3.9530647463316151  0.27849918311639149 4.0605170028077957  0.26622762121929328 4.0877751286703132  0.253590821370685 4.113876584242675  0.24059532272021569 4.1387328142541699  0.22724805105347798 4.1622516508985292  0.18169137966899337 4.2357375524223038  0.14772298540209139 4.2797580502133652  0.11209323012864018 4.3143222919629931  0.075278418751609441 4.3380176685977032  0.037752234755854701 4.3499999999999996  0 4.3499999999999996 
 0 7 0.1278909115791107 5 0.18357602293105874 5 0.25323125692791704 5 0.33533086826210246 5 0.50025493633840512 5 0.58654246215209438 5 0.66603101300538203 5 0.81843449637965637 5 0.87300271192174772 5 1 7
7 0 0  6 52 11  3.1415926535897931 1.3999999999999999  3.2198465835910421 1.3999999999999999  3.2976197821852846 1.3941157731241334  3.3745607581636854 1.3824834803696184  3.4502945525945279 1.3657676823688114  3.5243542150838718 1.3451290933546078  3.6272656113469317 1.3118635688948217  3.6581363011457699 1.3012588495940711  3.6886750778104909 1.2902241895032687  3.7188944820759677 1.2788417135646821  3.7488055259886992 1.2671915052274476  3.8154588761918542 1.2405413474754914  3.8520385816343512 1.2254315826613233  3.8881987341106092 1.210164560102607  3.9239778571913373 1.1948738503842888  3.9594133002011271 1.1796841673595619  4.0359498712781052 1.1470631869215617  4.0769385362359278 1.1297135353716399  4.1175685014328236 1.1128533660121649  4.157894454726323 1.0966596334997287  4.1979703398261252 1.0812945589408351  4.3179703349020988 1.0379990597137974  4.3974578882723279 1.0129759532502247  4.4764432619904273 0.99317194409870391  4.5551162840173145 0.97960068278624868  4.6336838366330939 0.97279329923894986  4.7535671553008818 0.97279329923894975  4.7947382136564984 0.97465664585572365  4.8359240855732857 0.97838264654238127  4.8771442563448266 0.98392902320936759  4.9184160361932978 0.99121424397121816  4.9978363578579108 1.0083237534288809  5.0359726229506681 1.017902352660252  5.0741981550730113 1.0287681306982486  5.1125448148945196 1.040812802169307  5.1510429750214231 1.0539097280494301  5.263883380988279 1.0947711897331631  5.3386909003603327 1.1249627492154812  5.414531763482918 1.157546239773376  5.4917829071495872 1.1914182081310494  5.5708244936605391 1.225284149792685  5.6811973713825337 1.2692259256525773  5.7105870422672993 1.2806193235788723  5.7402751337464748 1.2917466646426832  5.7702717240921508 1.3025319660445993  5.8005883431360283 1.3128974407799159  5.9025692361173538 1.3457248947199822  5.9762363615832239 1.3661534362878185  6.0515565448328212 1.382686118223361  6.1280663751242717 1.3941849681048357  6.2053928234402491 1.3999999999999999  6.2831853071795862 1.3999999999999999 
 0 7 0.1278909115791107 5 0.18357602293105874 5 0.25323125692791704 5 0.33533086826210246 5 0.50025493633840512 5 0.58654246215209438 5 0.66603101300538203 5 0.81843449637965637 5 0.87300271192174772 5 1 7
7 0 0  6 52 11  6.2831853071795862 4.3499999999999996  6.2452091352672356 4.3499999999999996  6.2074661406533886 4.337875095216722  6.1704477481331788 4.313904699871097  6.1346332729003601 4.2789512898154047  6.1005047297452943 4.2344537117825274  6.0545773371349023 4.1599142802233731  6.0410045464981339 4.1358209438146707  6.0277978912138783 4.1103458096980043  6.0149644865866252 4.0835859217445156  6.0025110432846747 4.0556342805946999  5.9753493113376939 3.9902363091420678  5.9608566434977694 3.9521614506192617  5.9469690235403734 3.9125056925976929  5.9336903130023053 3.8714027348154425  5.921024859588143 3.8289700849742805  5.8947773223787978 3.733848856343188  5.8814335459080622 3.6806744648302243  5.8689553652045161 3.625955982443664  5.8573545239169507 3.5698422802375958  5.8466445742571436 3.5124625860718095  5.817145356502853 3.3363406381158685  5.8010686512549405 3.2138707158345068  5.7888365934388757 3.0878618570048988  5.7806114442644363 2.9595001176971878  5.776485786924324 2.8298634871899746  5.7764857869243249 2.6320560113883125  5.777615127351158 2.5641237913918151  5.7798731991974037 2.4963744042822777  5.7832519835400893 2.4289829670217773  5.7877361067157773 2.362128888583054  5.7984310524204288 2.2350742234939696  5.8044777035478319 2.1747678437782416  5.8114281108911605 2.1151845049817166  5.8192657821384133 2.0564396433184591  5.8279727521426103 1.9986570416635161  5.8558537259614161 1.8332817590928605  5.8772976870966858 1.7286493147858819  5.9017671828167844 1.6287435103069468  5.9291991990178969 1.5344444358803857  5.9595499825603264 1.4469352536515505  6.0046861218912904 1.339483002362698  6.0169576866907519 1.3122248706327635  6.0295944880964685 1.2861234112889981  6.0425899848931257 1.2612671841938536  6.0559372535833234 1.237748353203149  6.1014939275105657 1.1642624475777403  6.1354623217775366 1.1202419497865699  6.171092077050889 1.0856777080370676  6.2079068884280266 1.0619823314022683  6.2454330724237188 1.0500000000000003  6.2831853071795862 1.0500000000000003 
 0 7 0.12789090137202017 5 0.18357601279990354 5 0.25323125250266604 5 0.33533087056212157 5 0.50025495214857896 5 0.58654248503078987 5 0.66603104239566058 5 0.81843453822545797 5 0.87300274827958835 5 1 7
7 0 0  6 52 11  0 1.3999999999999999  0.078253930001206867 1.3999999999999999  0.15602712859554799 1.3941157731241365  0.23296810457386236 1.3824834803696167  0.30870189900478268 1.3657676823687996  0.38276156149404383 1.3451290933546189  0.48567296029115542 1.3118635680757151  0.51654364702574429 1.3012588498615019  0.54708242186033218 1.2902241903554923  0.57730182783698913 1.2788417137244144  0.60721287478423169 1.2671915042737172  0.67386622260207896 1.2405413474754838  0.71044592804462814 1.2254315826612947  0.746606080520826 1.2101645601026028  0.78238520360149222 1.1948738503843097  0.81782064661132736 1.1796841673595644  0.8943572176882969 1.1470631869215675  0.93534588264612217 1.1297135353716434  0.9759758478430246 1.1128533660121664  1.0163018011365335 1.0966596334997281  1.0563776862363414 1.0812945589408314  1.1763776813123816 1.0379990597137694  1.255865234682114 1.0129759532503313  1.3348506084012399 0.99317194409858656  1.4135236304271301 0.97960068278629508  1.4920911830433972 0.97279329923894942  1.6119745017110716 0.97279329923894942  1.6531455600667113 0.97465664585572276  1.6943314319835017 0.97838264654238005  1.7355516027550391 0.98392902320936815  1.7768233826035191 0.9912142439712216  1.856243704268109 1.0083237534288791  1.8943799693608858 1.0179023526602549  1.9326055014832368 1.0287681306982528  1.9709521613047407 1.0408128021693106  2.0094503214316384 1.0539097280494334  2.1222907273842835 1.0947711897280201  2.1970982467938622 1.1249627492238852  2.2729391098939797 1.1575462397745033  2.3501902535331238 1.1914182081200488  2.4292318400880375 1.2252841497995697  2.5396047124817112 1.2692259235381449  2.5689943901810195 1.2806193239485144  2.5986824854842343 1.2917466665504487  2.6286790717009771 1.3025319666399546  2.6589956838540871 1.3128974389476236  2.7609765825274999 1.345724894719962  2.8346437079934974 1.3661534362878411  2.9099638912429455 1.382686118223345  2.9864737215345625 1.3941849681048426  3.0638001698504302 1.3999999999999999  3.1415926535897931 1.3999999999999999 
 0 7 0.12789090137202017 5 0.18357601279990354 5 0.25323125250266604 5 0.33533087056212157 5 0.50025495214857896 5 0.58654248503078987 5 0.66603104239566058 5 0.81843453822545797 5 0.87300274827958835 5 1 7
1 0 0 1 0 
2 0 0 1 0 -0 1 2.5
2 0 0 1 0 -0 1 1.25
1 0 0.19999999999999929 1 0 
1 6.2831853071795862 -0 0 1 
1 0 -0 0 1 
1 0 2.75 1 0 
2 0 0 1 0 -0 1 2.5
2 0 0 1 0 -0 1 3.3999999999999999
1 0 0.20000000000000018 1 0 
8 -5.999999999062311e-07 1.75
1 8.4499999999999993 0 1 0 
8 -5.999999999062311e-07 1.75
1 3.1415926535897931 0 0 1 
2 0 0 1 0 -0 1 3.3999999999999999
1 0 5.2000000000000002 1 0 
1 8.4499999999999993 6.1232339957367663e-16 1 0 
1 6.2831853071795862 -0 0 1 
1 0 -0 0 1 
2 0 0 1 0 -0 1 1.25
1 0 2.9499999999999993 1 0 
1 6.2831853071795862 -0 0 1 
1 0 -0 0 1 
Curves 24
7 0 0  7 26 5  8.5 -8.8817841970012523e-16 1.6499999999999999  8.5 -0.21755035666116118 1.6499999999999999  8.493503730208662 -0.42970315531425252 1.6165359487661579  8.4810932353187614 -0.63048238304435067 1.5525946671257365  8.4643598914622675 -0.81483659555577881 1.4623009330339216  8.4455426340851201 -0.97881093552623977 1.350898254713996  8.4267387990441289 -1.1199284654758883 1.2247311795258602  8.3917439898468817 -1.3576998169974712 0.95503252119308302  8.3751775852815395 -1.4563880301435268 0.80787835549385001  8.3609054695839085 -1.5343696392922919 0.65307020431506224  8.3497299371950291 -1.5923156070603213 0.49307479571987622  8.3421226939839883 -1.6307585366037078 0.32982931560559159  8.3383151775403643 -1.6500000000000008 0.16496446067687809  8.3383151775403643 -1.6500000000000008 -0.16497082722791712  8.3421229805913359 -1.6307570756810954 -0.32983439423821981  8.3497302002159408 -1.5923143128387185 -0.4930761960007628  8.3609053882339861 -1.5343697789612498 -0.65306902904262643  8.3751774295977803 -1.4563890678912605 -0.8078770891888355  8.391743974206598 -1.3576999232649909 -0.95503240065624362  8.4267321913559599 -1.1199733612470715 -1.2246802552695297  8.4455373604937787 -0.97885688193403941 -1.3508720114108841  8.4643617275479155 -0.81484047519539082 -1.4623178115708508  8.4811010909760984 -0.63042227617965674 -1.5526352880329546  8.4935096745458338 -0.42959438527721239 -1.6165664792531111  8.5 -0.21745100047676358 -1.6500000000000001  8.5 -4.4408920985006262e-16 -1.6499999999999999 
 0 8 0.24764058088087104 6 0.50003767065521554 6 0.75244450130918827 6 1 8
1 8.4499999999999993 -0.92059763197610434 -2.5 0 0 1 
7 0 0  6 7 2  8.4499993999999994 -0.92060313925146697 -2.3243256785571909  8.4652650346778557 -0.7804834738184474 -2.3798233246308578  8.4785304338489418 -0.63282713710615457 -2.4265796083823354  8.4890853320874111 -0.47914384068867333 -2.462890780458558  8.4963484346305034 -0.32118212555610215 -2.4875845072426213  8.5 -0.16082759106141287 -2.5  8.5 -1.1102230246251565e-16 -2.5 
 0 7 1 7
2 0 0 -2.5 0 0 1 1 0 -0 -0 1 0 8.5
7 0 0  6 7 2  8.5 9.5714217473173741e-16 -2.5  8.5 0.16083443230878464 -2.5  8.4963481264288134 0.32119130241497196 -2.4875834482227659  8.4890847808197769 0.47915186267063609 -2.4628889262160834  8.4785299663854214 0.63283200912945059 -2.4265779401544263  8.4652648640290469 0.78048504016367237 -2.3798227042434723  8.4499993999999994 0.92060313925147086 -2.3243256785571891 
 0 7 1 7
1 8.4499999999999993 0.92059763197610434 -2.5 0 0 1 
7 0 0  7 26 5  8.5 6.317138353229466e-16 -1.6499999999999999  8.5 0.21755035666105382 -1.6499999999999997  8.4935037302086656 0.4297031553144961 -1.6165359487660447  8.4810932353187578 0.63048238304404891 -1.5525946671260489  8.4643598914622604 0.81483659555607635 -1.4623009330335242  8.4455426340851361 0.97881093552602894 -1.3508982547142687  8.4267387990441183 1.1199284654759722 -1.2247311795257634  8.3917439737473352 1.3576999263854426 -0.95503239711678278  8.3751774308188818 1.4563890597000257 -0.8078770970799013  8.3609053868917709 1.534369788065354 -0.65306902556501223  8.3497302008938998 1.5923143080136846 -0.49307618873098846  8.3421229804664243 1.6307570766926296 -0.32983440419705667  8.3383151775403643 1.6499999999999997 -0.16497082317186029  8.3383151775403643 1.6499999999999997 0.16497082317155054  8.3421229804664474 1.630757076692491 0.32983440419826193  8.349730200893827 1.5923143080141389 0.49307618872884706  8.3609053868918757 1.5343697880646971 0.65306902556704083  8.3751774308188036 1.4563890597005222 0.80787709707889821  8.3917439737473618 1.3576999263852594 0.95503239711699361  8.426732490783797 1.1199713267921736 1.2246825629056382  8.4455381899622477 0.97885082587544825 1.3508777180282259  8.4643626176655342 0.81483196976933481 1.4623223133400187  8.481101256447996 0.63041650714857622 1.5526359016623021  8.493509352611067 0.42959493896359169 1.6165649235971076  8.5 0.21745616292258826 1.6499999999999999  8.5 2.0206672185931328e-16 1.6499999999999999 
 0 8 0.24764413129591079 6 0.50004506972767249 6 0.75244600815896157 6 1 8
7 0 0  6 7 2  8.4499993999999994 0.9206031392514713 2.3243256785571891  8.4652650346778575 0.78048347381843031 2.3798233246308649  8.4785304338489365 0.63282713710618432 2.4265796083823297  8.4890853320874164 0.47914384068864246 2.4628907804585518  8.4963484346305016 0.32118212555615566 2.4875845072426261  8.5 0.1608275910613764 2.5  8.5 3.0616169978683831e-16 2.5 
 0 7 1 7
2 0 0 2.5 0 0 1 1 0 -0 -0 1 0 8.5
7 0 0  6 7 2  8.5 -7.7715611723760958e-16 2.5  8.5 -0.16083443230879546 2.5  8.4963481264288152 -0.32119130241493021 2.4875834482227659  8.4890847808197716 -0.47915186267067356 2.4628889262160851  8.478529966385425 -0.63283200912943072 2.4265779401544285  8.4652648640290469 -0.78048504016368025 2.3798227042434688  8.4499993999999994 -0.92060313925146808 2.32432567855719 
 0 7 1 7
2 8.4499999999999993 0 0 1 0 0 -0 0 1 0 -1 0 1.6499999999999999
1 2 4.0413344371862655e-16 1.6499999999999999 1 0 0 
7 0 0  6 52 11  3.3999999999999999 -1.0103336092965664e-16 -1.6499999999999999  3.3999999999999999 0.12911898450206061 -1.6499999999999999  3.3941157731241334 0.25744494304267262 -1.6378750952167367  3.3824834803696184 0.38297339625967164 -1.6139046998710604  3.3657676823688116 0.5037546056549842 -1.5789512898154547  3.3451290933546076 0.6180176532079279 -1.5344537117825015  3.3118635688948217 0.77058634335428311 -1.45991428205878  3.3012588495940705 0.81550571395691673 -1.4358209431117175  3.2902241895032689 0.85904048004298106 -1.4103458076938298  3.2788417135646815 0.9011710422125252 -1.383585921445557  3.2671915052274478 0.9418826879715908 -1.3556342829350985  3.2405413474754918 1.0303036788634015 -1.2902363091420856  3.2254315826613236 1.0772141402032644 -1.252161450619339  3.2101645601026072 1.1219066652437826 -1.2125056925977042  3.1948738503842882 1.1643945431275993 -1.1714027348153848  3.1796841673595622 1.204693513749397 -1.1289700849742721  3.1470631869215615 1.2877593884376928 -1.0338488563431689  3.1297135353716397 1.3296878646133106 -0.98067446483021603  3.1128533660121644 1.3686279486025625 -0.92595598244365529  3.0966596334997285 1.4045986570262545 -0.86984228023759147  3.0812945589408351 1.4376143501049372 -0.81246258607182276  3.0379990597137976 1.5280856506973366 -0.63634063811597907  3.0129759532502245 1.5767084030228933 -0.51387071583383404  2.9931719440987044 1.6132841697087064 -0.38786185700589471  2.9796006827862485 1.6377351207139468 -0.25950011769653991  2.9727932992389499 1.6499999999999997 -0.12986348719013341  2.9727932992389499 1.6499999999999997 0.067943988611716244  2.9746566458557235 1.6466426264681548 0.13587620860817581  2.9783826465423808 1.6399300663862224 0.20362559571770766  2.9839290232093671 1.6298696260657746 0.27101703297821417  2.9912142439712182 1.6164762853475798 0.337871111416922  3.0083237534288809 1.5843901663920377 0.46492577650604444  3.017902352660252 1.5661989891341097 0.52523215622173802  3.0287681306982486 1.5452128253681385 0.58481549501825247  3.0408128021693073 1.5214399798472105 0.64356035668152101  3.0539097280494301 1.4948883720099186 0.7013429583364722  3.0947711897331631 1.4093518772496434 0.86671824092795458  3.1249627492154799 1.342973128420953 0.97135068517666934  3.1575462397733784 1.2663785186663898 1.0712564897036621  3.191418208131048 1.1793908820713246 1.1655555641425432  3.2252841497926847 1.0818094437142516 1.2530647463316149  3.2692259256525773 0.93477211437178587 1.3605170028077944  3.2806193235788732 0.8946304594653719 1.3877751286703131  3.2917466646426834 0.85312382154874922 1.4138765842426746  3.3025319660445991 0.81026699638053146 1.4387328142541695  3.3128974407799165 0.76607938577376011 1.4622516508985284  3.3457248947199822 0.61470534102347629 1.535737552422304  3.3661534362878189 0.50095861903967875 1.5797580502133552  3.3826861182233605 0.38078853988616029 1.6143222919630147  3.3941849681048359 0.2559464103795841 1.6380176685976893  3.3999999999999999 0.12835759816990616 1.6499999999999999  3.3999999999999999 2.020667218593133e-16 1.6499999999999999 
 0 7 0.1278909115791107 5 0.18357602293105874 5 0.25323125692791704 5 0.33533086826210246 5 0.50025493633840512 5 0.58654246215209438 5 0.66603101300538203 5 0.81843449637965637 5 0.87300271192174772 5 1 7
7 0 0  6 52 11  3.3999999999999999 -2.2204460492503131e-16 1.6499999999999999  3.3999999999999999 -0.12911898450199155 1.6499999999999999  3.3941157731241365 -0.25744494304277676 1.6378750952167223  3.3824834803696167 -0.38297339625960203 1.6139046998710973  3.3657676823687996 -0.5037546056550708 1.5789512898154046  3.3451290933546192 -0.61801765320787561 1.5344537117825272  3.3118635680757151 -0.77058634711102503 1.4599142802233747  3.3012588498615023 -0.81550571336273503 1.4358209438146712  3.2902241903554916 -0.85904047671993855 1.410345809698005  3.2788417137244146 -0.90117104114441071 1.3835859217445152  3.267191504273717 -0.94188269113591616 1.355634280594699  3.2405413474754834 -1.0303036788634261 1.2902363091420679  3.2254315826612943 -1.0772141402033515 1.252161450619262  3.2101645601026028 -1.1219066652437948 1.2125056925976929  3.1948738503843095 -1.1643945431275355 1.1714027348154425  3.1796841673595644 -1.2046935137493902 1.1289700849742805  3.1470631869215677 -1.2877593884376777 1.0338488563431874  3.1297135353716432 -1.3296878646133028 0.98067446483022458  3.1128533660121662 -1.368627948602559 0.92595598244366417  3.0966596334997281 -1.4045986570262547 0.86984228023759513  3.0812945589408316 -1.4376143501049443 0.81246258607180943  3.0379990597137696 -1.528085650697395 0.63634063811586827  3.0129759532503315 -1.5767084030226659 0.51387071583450661  2.9931719440985867 -1.6132841697089553 0.38786185700489861  2.9796006827862951 -1.6377351207138475 0.25950011769718762  2.9727932992389494 -1.6500000000000001 0.12986348718997442  2.9727932992389494 -1.6500000000000001 -0.067943988611688114  2.9746566458557235 -1.6466426264681566 -0.13587620860818528  2.9783826465423799 -1.6399300663862231 -0.20362559571772243  2.9839290232093685 -1.629869626065771 -0.27101703297822305  2.9912142439712217 -1.6164762853475738 -0.33787111141694615  3.0083237534288791 -1.5843901663920408 -0.46492577650603084  3.0179023526602555 -1.5661989891341044 -0.52523215622175889  3.028768130698253 -1.5452128253681294 -0.58481549501828345  3.0408128021693099 -1.5214399798472018 -0.64356035668154121  3.0539097280494332 -1.494888372009912 -0.7013429583364843  3.0947711897280201 -1.4093518772604092 -0.86671824090713967  3.1249627492238852 -1.3429731284068289 -0.97135068521411805  3.1575462397745033 -1.2663785186519227 -1.0712564896930541  3.1914182081200488 -1.1793908821106491 -1.1655555641196143  3.2252841497995695 -1.0818094436912156 -1.2530647463484497  3.2692259235381456 -0.93477212144706978 -1.3605169976373022  3.2806193239485144 -0.89463045699733013 -1.3877751293672367  3.2917466665504489 -0.85312381401365045 -1.4138765887110019  3.3025319666399544 -0.81026699501151744 -1.4387328158061468  3.312897438947624 -0.76607939422283033 -1.4622516467968512  3.3457248947199618 -0.61470534102356766 -1.5357375524222598  3.3661534362878411 -0.50095861903952521 -1.5797580502134303  3.382686118223345 -0.3807885398863784 -1.6143222919629325  3.3941849681048426 -0.25594641037940358 -1.6380176685977319  3.3999999999999999 -0.12835759816994963 -1.6499999999999999  3.3999999999999999 -4.4408920985006262e-16 -1.6499999999999999 
 0 7 0.12789090137202017 5 0.18357601279990354 5 0.25323125250266604 5 0.33533087056212157 5 0.50025495214857896 5 0.58654248503078987 5 0.66603104239566058 5 0.81843453822545797 5 0.87300274827958835 5 1 7
2 8.4499999999999993 0 0 1 0 0 -0 0 1 0 -1 0 2.5
2 8.4499999999999993 0 0 1 0 0 -0 0 1 0 -1 0 1.25
1 8.4499999999999993 6.1232339957367663e-16 2.5 1 0 0 
2 11.199999999999999 0 0 1 0 0 -0 0 1 0 -1 0 2.5
2 0 0 -2.5 0 0 1 1 0 -0 -0 1 0 3.3999999999999999
1 8.4499999999999993 0 -2.5 1 0 0 
2 0 0 2.5 0 0 1 1 0 -0 -0 1 0 3.3999999999999999
1 3.3999999999999999 -8.3275982342020011e-16 -2.7000000000000002 0 0 1 
2 11.199999999999999 0 0 1 0 0 -0 0 1 0 -1 0 1.25
1 8.25 3.0616169978683831e-16 1.25 1 0 0 
Polygon3D 0
PolygonOnTriangulations 0
Surfaces 9
2 0 0 -2.5 0 0 1 1 0 -0 -0 1 0 8.5
2 2 0 0 1 0 0 -0 0 1 0 -1 0 1.6499999999999999
1 8.4499999999999993 0 0 1 0 0 -0 0 1 0 -1 0 
2 8.4499999999999993 0 0 1 0 0 -0 0 1 0 -1 0 2.5
1 0 0 -2.5 0 0 1 1 0 -0 -0 1 0 
1 0 0 2.5 0 0 1 1 0 -0 -0 1 0 
2 0 0 -2.7000000000000002 0 0 1 1 0 -0 -0 1 0 3.3999999999999999
2 8.25 0 0 1 0 0 -0 0 1 0 -1 0 1.25
1 11.199999999999999 0 0 1 0 0 -0 0 1 0 -1 0 
Triangulations 0

TShapes 78
Ve
1.72431074138457e-07
8.45 -0.920597704407178 1.36930632956669
0 0

0101101
*
Ve
1.77421793309718e-07
8.45 -0.920597709397898 -1.36930632544487
0 0

0101101
*
Ed
 1e-07 1 1 0
1  1 0 0.167439930341055 0.832620575345142
2  1 1 0 0.167439930341055 0.832620575345142
2  2 2 0 0.167439930341055 0.832620575345142
0

0101000
+78 0 -77 0 *
Ve
1.00000000457757e-07
8.45 -0.920597631976104 -2.32432785983389
0 0

0101101
*
Ed
 1e-07 1 1 0
1  2 0 0.17567214016611 1.13069367455513
2  3 1 0 0.17567214016611 1.13069367455513
2  4 3 0 0.17567214016611 1.13069367455513
0

0101000
+75 0 -77 0 *
Ve
1.00000003039042e-07
8.5 -2.0818995585505e-15 -2.5
0 0

0101101
*
Ed
 1e-07 1 1 0
1  3 0 6.55067520845424e-06 1
2  5 1 0 6.55067520845424e-06 1
2  6 4 0 6.55067520845424e-06 1
0

0101000
+75 0 -73 0 *
Ed
 1e-07 1 1 0
1  4 0 0 6.28318530717959
2  7 1 0 0 6.28318530717959
2  8 5 0 0 6.28318530717959
0

0101000
+73 0 -73 0 *
Ve
1.00000001989128e-07
8.45 0.920597631976104 -2.32432785983389
0 0

0101101
*
Ed
 1e-07 1 1 0
1  5 0 0 0.999993449251557
2  9 1 0 0 0.999993449251557
2  10 4 0 0 0.999993449251557
0

0101000
+73 0 -70 0 *
Ve
1.72431077358104e-07
8.45 0.920597704407182 -1.36930632956669
0 0

0101101
*
Ed
 1e-07 1 1 0
1  6 0 0.17567214016611 1.13069367043331
2  11 1 0 0.17567214016611 1.13069367043331
2  12 3 0 0.17567214016611 1.13069367043331
0

0101000
+70 0 -68 0 *
Ve
1.73714614079456e-07
8.45 0.920597705690718 1.36930632800703
0 0

0101101
*
Ed
 1e-07 1 1 0
1  7 0 0.16744233092195 0.832620480287451
2  13 1 0 0.16744233092195 0.832620480287451
2  14 2 0 0.16744233092195 0.832620480287451
0

0101000
+68 0 -66 0 *
Ve
1.00000002013762e-07
8.45 0.920597631976105 2.32432785983389
0 0

0101101
*
Ed
 1e-07 1 1 0
1  6 0 3.86930632800703 4.82432785983389
2  11 1 0 3.86930632800703 4.82432785983389
2  12 3 0 3.86930632800703 4.82432785983389
0

0101000
+66 0 -64 0 *
Ve
1.00000002694223e-07
8.5 -2.0818995585505e-15 2.5
0 0

0101101
*
Ed
 1e-07 1 1 0
1  8 0 6.55067521308693e-06 1
2  15 1 0 6.55067521308693e-06 1
2  16 4 0 6.55067521308693e-06 1
0

0101000
+64 0 -62 0 *
Ed
 1e-07 1 1 0
1  9 0 0 6.28318530717959
2  17 1 0 0 6.28318530717959
2  18 6 0 0 6.28318530717959
0

0101000
+62 0 -62 0 *
Ve
1.00000001834389e-07
8.45 -0.920597631976104 2.32432785983389
0 0

0101101
*
Ed
 1e-07 1 1 0
1  10 0 0 0.999993449251561
2  19 1 0 0 0.999993449251561
2  20 4 0 0 0.999993449251561
0

0101000
+62 0 -59 0 *
Ed
 1e-07 1 1 0
1  2 0 3.86930632956669 4.82432785983389
2  3 1 0 3.86930632956669 4.82432785983389
2  4 3 0 3.86930632956669 4.82432785983389
0

0101000
+78 0 -59 0 *
Wi

0101100
-76 0 +74 0 -72 0 +71 0 -69 0 -67 0 -65 0 -63 0 -61 0 -60 0 
-58 0 +57 0 *
Fa
0  1e-07 1 0

0101000
+56 0 *
Ed
 1e-07 1 1 0
1  11 0 2.54969361126937 3.73349169200632
2  21 2 0 2.54969361126937 3.73349169200632
2  22 3 0 2.54969361126937 3.73349169200632
0

0101000
+77 0 -68 0 *
Ve
1.00000000404133e-07
8.45 4.04133443718627e-16 1.65
0 0

0101101
*
Ed
 1e-07 1 1 0
1  11 0 5.6912862675901 6.28318530717959
2  21 2 0 5.6912862675901 6.28318530717959
2  22 3 0 5.6912862675901 6.28318530717959
0

0101000
+66 0 -53 0 *
Ve
1.000000006571e-07
3.4 -2.14313189850787e-16 1.65
0 0

0101101
*
Ed
 1e-07 1 1 0
1  12 0 1.4 6.45
3  23 24CN 2 0 1.4 6.45
0

0101000
+51 0 -53 0 *
Ve
1.00000000764675e-07
3.4 -8.327598234202e-16 -1.65
0 0

0101101
*
Ed
 1e-07 1 1 0
1  13 0 0 1
2  25 7 0 0 1
2  26 2 0 0 1
0

0101000
+49 0 -51 0 *
Ed
 1e-07 1 1 0
1  14 0 0 1
2  27 7 0 0 1
2  28 2 0 0 1
0

0101000
+51 0 -49 0 *
Ed
 1e-07 1 1 0
1  11 0 0 0.591899038416526
2  21 2 0 0 0.591899038416526
2  22 3 0 0 0.591899038416526
0

0101000
+53 0 -78 0 *
Wi

0101100
-76 0 -54 0 -65 0 -52 0 +50 0 +48 0 +47 0 -50 0 -46 0 *
Fa
0  1e-07 2 0

0101000
+45 0 *
Ed
 1e-07 1 1 0
1  15 0 3.51870692301364 5.90607103775574
2  29 4 0 3.51870692301364 5.90607103775574
2  30 3 0 3.51870692301364 5.90607103775574
0

0101000
+70 0 -64 0 *
Ed
 1e-07 1 1 0
1  15 0 0.377114269423848 2.76447838416595
2  29 4 0 0.377114269423848 2.76447838416595
2  30 3 0 0.377114269423848 2.76447838416595
0

0101000
+59 0 -75 0 *
Wi

0101100
+57 0 +46 0 +52 0 -63 0 +43 0 -67 0 +54 0 +74 0 +42 0 *
Ve
1.00000000306162e-07
8.45 3.06161699786838e-16 1.25
0 0

0101101
*
Ed
 1e-07 1 1 0
1  16 0 0 6.28318530717959
2  31 3 0 0 6.28318530717959
2  32 8 0 0 6.28318530717959
0

0101100
+40 0 -40 0 *
Wi

0101100
-39 0 *
Fa
0  1e-07 3 0

0101000
+41 0 +38 0 *
Ve
1e-07
11.2 6.12323399573677e-16 2.5
0 0

0101101
*
Ed
 1e-07 1 1 0
1  17 0 0.0500000000000007 2.75
3  33 34CN 4 0 0.0500000000000007 2.75
0

0101000
+62 0 -36 0 *
Ed
 1e-07 1 1 0
1  18 0 0 6.28318530717959
2  35 4 0 0 6.28318530717959
2  36 9 0 0 6.28318530717959
0

0101000
+36 0 -36 0 *
Wi

0101100
+35 0 +61 0 +43 0 +69 0 +72 0 +42 0 +58 0 -35 0 -34 0 *
Fa
0  1e-07 4 0

0101000
+33 0 *
Wi

0101100
+71 0 *
Ve
1.0000000083276e-07
3.4 -8.327598234202e-16 -2.5
0 0

0101101
*
Ed
 1e-07 1 1 0
1  19 0 0 6.28318530717959
2  37 5 0 0 6.28318530717959
2  38 7 0 0 6.28318530717959
0

0101100
+30 0 -30 0 *
Wi

0101100
-29 0 *
Ve
1.00000000306162e-07
8.45 -3.06161699786838e-16 -2.5
0 0

0101101
*
Ed
 1e-07 1 1 0
1  20 0 0 0.0500000000000007
2  39 5 0 0 0.0500000000000007
2  40 4 0 0 0.0500000000000007
0

0101000
+27 0 -73 0 *
Wi

0101000
i26 0 *
Fa
0  1e-07 5 0

0101000
+31 0 +28 0 +25 0 *
Wi

0101100
+60 0 *
Ve
1.0000000083276e-07
3.4 -8.327598234202e-16 2.5
0 0

0101101
*
Ed
 1e-07 1 1 0
1  21 0 0 6.28318530717959
2  41 6 0 0 6.28318530717959
2  42 7 0 0 6.28318530717959
0

0101100
+22 0 -22 0 *
Wi

0101100
-21 0 *
Ve
1.00000000612323e-07
8.45 6.12323399573677e-16 2.5
0 0

0101101
*
Ed
 1e-07 1 1 0
1  17 0 0 0.0500000000000007
3  33 34CN 4 0 0 0.0500000000000007
2  43 6 0 0 0.0500000000000007
0

0101000
+19 0 -62 0 *
Wi

0101000
i18 0 *
Fa
0  1e-07 6 0

0101000
+23 0 +20 0 +17 0 *
Ed
 1e-07 1 1 0
1  22 0 4.35 5.2
3  44 45CN 7 0 4.35 5.2
0

0101000
+51 0 -22 0 *
Ed
 1e-07 1 1 0
1  22 0 0.2 1.05
3  44 45CN 7 0 0.2 1.05
0

0101000
+30 0 -49 0 *
Wi

0101100
+15 0 -47 0 +14 0 +29 0 -14 0 -48 0 -15 0 -21 0 *
Fa
0  1e-07 7 0

0101000
+13 0 *
Ve
1.00000000306162e-07
11.2 3.06161699786838e-16 1.25
0 0

0101101
*
Ed
 1e-07 1 1 0
1  23 0 0 6.28318530717959
2  46 9 0 0 6.28318530717959
2  47 8 0 0 6.28318530717959
0

0101100
+11 0 -11 0 *
Ed
 1e-07 1 1 0
1  24 0 0.199999999999999 2.95
3  48 49CN 8 0 0.199999999999999 2.95
0

0101000
+40 0 -11 0 *
Wi

0101100
-10 0 +9 0 +39 0 -9 0 *
Fa
0  1e-07 8 0

0101000
+8 0 *
Wi

0101100
+34 0 *
Wi

0101100
-10 0 *
Fa
0  1e-07 9 0

0101000
+6 0 +5 0 *
Sh

0101100
+55 0 -44 0 -37 0 +32 0 -24 0 +16 0 -12 0 -7 0 +4 0 *
So

0100000
+3 0 *
Co

0100000
+2 0 *

+1 0 