DBRep_DrawableShape

CASCADE Topology V3, (c) Open Cascade
Locations 1
1
              1              -0               0              -0 
              0               1               0               0 
             -0               0               1              -0 
Curve2ds 28
1 6.2831853071795862 -0 0 1 
1 0 -0 0 1 
1 0 0 1 0 
2 0 0 1 0 -0 1 2.8999999999999999
8 -5.9999999998949782e-07 0.45000060000000003
1 1.959847153298955 0 0 1 
8 -5.9999999998949782e-07 0.45000060000000003
1 1.9832815729997475 0.10000000000000001 0 1 
1 0 0.45000000000000001 1 0 
2 0 0 1 0 -0 1 2.8999999999999999
8 -5.9999999998949782e-07 0.45000060000000003
1 1.1817455002908381 0 0 1 
8 -5.9999999998949782e-07 0.45000060000000003
1 1.9832815729997475 0.10000000000000001 0 1 
8 0.35000000000000009 2.5499999999999998
1 -1.1000000000000001 0.35000000000000009 0 1 
8 0.35000000000000009 2.5499999999999998
1 -0.35000000000000009 0.10000000000000001 1 0 
2 0 0 1 0 -0 1 1.95
1 0 0.30000000000000004 1 0 
8 0.35000000000000009 2.5499999999999998
1 1.1000000000000001 0.35000000000000009 0 1 
8 0.35000000000000009 2.5499999999999998
1 -0.35000000000000009 0.10000000000000001 1 0 
8 0.29999940000000003 0.75000060000000002
1 2.1701423036807106 0 0 1 
8 0.29999940000000003 0.75000060000000002
1 0.91012421881046146 -0.20000000000000001 0 1 
8 0.35000000000000009 2.5499999999999998
1 -1.1000000000000001 0.35000000000000009 0 1 
8 0.35000000000000009 2.5499999999999998
1 -0.35000000000000009 0.55000000000000004 1 0 
2 0 0 1 0 -0 1 1.95
1 0 0.75 1 0 
8 0.35000000000000009 2.5499999999999998
1 1.1000000000000001 0.35000000000000009 0 1 
8 0.35000000000000009 2.5499999999999998
1 -0.35000000000000009 0.55000000000000004 1 0 
8 0.29999940000000003 0.75000060000000002
1 0.97145034990908263 0 0 1 
8 0.29999940000000003 0.75000060000000002
1 0.91012421881046146 -0.20000000000000001 0 1 
1 6.2831853071795862 -0 0 1 
1 0 -0 0 1 
Curves 14
1 -7.1029514350546487e-16 -0.22500000000000001 2.8999999999999999 0 1 0 
2 0 -0.22500000000000001 0 0 1 0 0 -0 1 1 0 -0 2.8999999999999999
1 2.6832815729997477 -0.22500000000000001 -1.1000000000000001 0 1 0 
2 0 0.22500000000000001 0 0 1 0 0 -0 1 1 0 -0 2.8999999999999999
1 2.6832815729997477 -0.22500000000000001 1.1000000000000001 0 1 0 
1 0.35000000000000009 -0.22500000000000001 -1.1000000000000001 1 0 0 
2 0 -0.22499999999999998 0 0 1 0 0 -0 1 1 0 -0 1.95
1 0.35000000000000009 -0.22500000000000001 1.1000000000000001 1 0 0 
1 1.6101242188104616 -0.52500000000000002 -1.1000000000000001 0 1 0 
1 0.35000000000000009 0.22500000000000003 -1.1000000000000001 1 0 0 
2 0 0.22499999999999998 0 0 1 0 0 -0 1 1 0 -0 1.95
1 0.35000000000000009 0.22500000000000003 1.1000000000000001 1 0 0 
1 1.6101242188104616 -0.52500000000000002 1.1000000000000001 0 1 0 
1 -4.7761225166746773e-16 -0.52500000000000002 1.95 0 1 0 
Polygon3D 0
PolygonOnTriangulations 0
Surfaces 6
2 0 -0.22500000000000001 0 0 1 0 0 -0 1 1 0 -0 2.8999999999999999
1 0 -0.22500000000000001 0 0 1 0 0 -0 1 1 0 -0 
1 0.70000000000000018 -0.32500000000000001 -1.1000000000000001 0 0 1 1 0 0 0 1 0 
1 0 0.22500000000000001 0 0 1 0 0 -0 1 1 0 -0 
1 0.70000000000000018 -0.32500000000000001 1.1000000000000001 0 0 1 1 0 0 0 1 0 
2 0 -0.52500000000000002 0 0 1 0 0 -0 1 1 0 -0 1.95
Triangulations 0

TShapes 49
Ve
1e-07
-7.10295143505465e-16 0.225 2.9
0 0

0101101
*
Ve
1e-07
-7.10295143505465e-16 -0.225 2.9
0 0

0101101
*
Ed
 1e-07 1 1 0
1  1 0 0 0.45
3  1 2CN 1 0 0 0.45
0

0101000
-49 0 +48 0 *
Ve
1.50000000222045e-07
2.68328157299975 -0.225 -1.1
0 0

0101101
*
Ed
 1e-07 1 1 0
1  2 0 1.95984715329896 6.28318530717959
2  3 1 0 1.95984715329896 6.28318530717959
2  4 2 0 1.95984715329896 6.28318530717959
0

0101000
+46 0 -48 0 *
Ve
1.50000000223773e-07
2.68328157299975 0.225 -1.1
0 0

0101101
*
Ed
 1e-07 1 1 0
1  3 0 0 0.45
2  5 1 0 0 0.45
2  6 3 1 0 0.45
0

0101000
+46 0 -44 0 *
Ed
 1e-07 1 1 0
1  4 0 1.95984715329896 6.28318530717959
2  7 1 0 1.95984715329896 6.28318530717959
2  8 4 0 1.95984715329896 6.28318530717959
0

0101000
+44 0 -49 0 *
Wi

0101100
+47 0 +45 0 -43 0 -42 0 *
Fa
0  1e-07 1 0

0101000
+41 0 *
Ve
1.50000000027756e-07
2.68328157299975 0.225 1.1
0 0

0101101
*
Ed
 1e-07 1 1 0
1  4 0 0 1.18174550029084
2  7 1 0 0 1.18174550029084
2  8 4 0 0 1.18174550029084
0

0101000
+49 0 -39 0 *
Ve
1.5e-07
2.68328157299975 -0.225 1.1
0 0

0101101
*
Ed
 1e-07 1 1 0
1  5 0 0 0.45
2  9 1 0 0 0.45
2  10 5 1 0 0.45
0

0101000
+37 0 -39 0 *
Ed
 1e-07 1 1 0
1  2 0 0 1.18174550029084
2  3 1 0 0 1.18174550029084
2  4 2 0 0 1.18174550029084
0

0101000
+48 0 -37 0 *
Wi

0101100
-38 0 +36 0 +35 0 -47 0 *
Fa
0  1e-07 1 0

0101000
+34 0 *
Ve
1.50000000223773e-07
1.61012421881046 -0.225 -1.1
0 0

0101101
*
Ed
 1.5e-07 1 1 0
1  6 0 1.26012421881046 2.33328157299975
2  11 2 0 1.26012421881046 2.33328157299975
2  12 3 1 1.26012421881046 2.33328157299975
0

0101000
+32 0 -46 0 *
Ve
1.00000000477612e-07
-4.77612251667468e-16 -0.225 1.95
0 0

0101101
*
Ed
 1e-07 1 1 0
1  7 0 2.17014230368071 6.28318530717959
2  13 2 0 2.17014230368071 6.28318530717959
2  14 6 0 2.17014230368071 6.28318530717959
0

0101000
+32 0 -30 0 *
Ve
1.50000000027756e-07
1.61012421881046 -0.225 1.1
0 0

0101101
*
Ed
 1e-07 1 1 0
1  7 0 0 0.971450349909082
2  13 2 0 0 0.971450349909082
2  14 6 0 0 0.971450349909082
0

0101000
+30 0 -28 0 *
Ed
 1.5e-07 1 1 0
1  8 0 1.26012421881046 2.33328157299975
2  15 2 0 1.26012421881046 2.33328157299975
2  16 5 1 1.26012421881046 2.33328157299975
0

0101000
+28 0 -37 0 *
Wi

0101100
+45 0 +31 0 -29 0 -27 0 -26 0 +35 0 *
Fa
0  1e-07 2 0

0101000
+25 0 *
Ve
1.50000000228878e-07
1.61012421881046 0.225 -1.1
0 0

0101101
*
Ed
 1e-07 1 1 0
1  9 0 0.3 0.75
2  17 6 0 0.3 0.75
2  18 3 1 0.3 0.75
0

0101000
+32 0 -23 0 *
Ed
 1.5e-07 1 1 0
1  10 0 1.26012421881046 2.33328157299975
2  19 4 0 1.26012421881046 2.33328157299975
2  20 3 1 1.26012421881046 2.33328157299975
0

0101000
+23 0 -44 0 *
Wi

0101100
+31 0 -22 0 -21 0 +43 0 *
Fa
0  1e-07 3 1

0101000
+20 0 *
Ve
1.00000000477612e-07
-4.77612251667468e-16 0.225 1.95
0 0

0101101
*
Ed
 1e-07 1 1 0
1  11 0 2.17014230368071 6.28318530717959
2  21 4 0 2.17014230368071 6.28318530717959
2  22 6 0 2.17014230368071 6.28318530717959
0

0101000
+23 0 -18 0 *
Ve
1.50000000055511e-07
1.61012421881046 0.225 1.1
0 0

0101101
*
Ed
 1e-07 1 1 0
1  11 0 0 0.971450349909082
2  21 4 0 0 0.971450349909082
2  22 6 0 0 0.971450349909082
0

0101000
+18 0 -16 0 *
Ed
 1.5e-07 1 1 0
1  12 0 1.26012421881046 2.33328157299975
2  23 4 0 1.26012421881046 2.33328157299975
2  24 5 1 1.26012421881046 2.33328157299975
0

0101000
+16 0 -39 0 *
Wi

0101100
+42 0 +21 0 -17 0 -15 0 -14 0 +38 0 *
Fa
0  1e-07 4 0

0101000
+13 0 *
Ed
 1e-07 1 1 0
1  13 0 0.3 0.75
2  25 6 0 0.3 0.75
2  26 5 1 0.3 0.75
0

0101000
+28 0 -16 0 *
Wi

0101100
+26 0 -11 0 -14 0 +36 0 *
Fa
0  1e-07 5 1

0101000
+10 0 *
Ed
 1e-07 1 1 0
1  14 0 0.3 0.75
3  27 28CN 6 0 0.3 0.75
0

0101000
+30 0 -18 0 *
Wi

0101100
+8 0 +29 0 -22 0 -17 0 *
Fa
0  1e-07 6 0

0101000
+7 0 *
Wi

0101100
-15 0 +11 0 +27 0 -8 0 *
Fa
0  1e-07 6 0

0101000
+5 0 *
Sh

0101100
+40 0 +33 0 -24 0 +19 0 +12 0 -9 0 -6 0 -4 0 *
So

0100000
+3 0 *
Co

0100000
+2 0 *

+1 0 