DBRep_DrawableShape

CASCADE Topology V3, (c) Open Cascade
Locations 4
1
              1              -0               0              -0 
              0               1               0               0 
             -0               0               1              -0 
1
              1              -0               0              -0 
              0               1               0               0 
             -0               0               1              -0 
2  2 -1 0
2  1 -1 0
Curve2ds 268
1 6.1941348527411053 0 1 0 
2 0 0 0.99603762778286553 -0.088932806324110811 0.088932806324110811 0.99603762778286553 25.300000000000001
8 -5.999999999062311e-07 8.0000005999999999
1 0.08905045443848103 0 0 1 
8 -5.999999999062311e-07 8.0000005999999999
1 -4 3.1997519829064984 1 0 
1 1 7.8997519829064977 1 0 
8 0 8
1 6.3722357616180672 0 0 1 
1 -4 3.1997519829064984 1 0 
1 6.3722357616180672 8 -1 -0 
2 0 0 0.99603762778286553 0.088932806324110672 0.088932806324110672 -0.99603762778286553 25.300000000000001
8 -5.999999999062311e-07 8.0000005999999999
1 6.1941348527411053 0 0 1 
8 -5.999999999062311e-07 8.0000005999999999
1 -4 3.1997519829064984 1 0 
1 1 7.8997519829064977 1 0 
8 0 8
1 6.1941348527411053 0 0 1 
1 -4 3.1997519829064984 1 0 
2 0 0 1 0 -0 1 3.1499999999999999
1 0 2.2999999999999998 1 0 
2 5 4.6999999999999993 1 0 -0 1 3.1499999999999999
1 0 3.75 1 0 
2 0 0 1 0 -0 1 3.1499999999999999
8 0.19999940000000027 8.2000005999999992
1 6.1644857126703059 0 0 1 
8 0.19999940000000027 8.2000005999999992
1 -4.2000000000000002 -3.1336940552740948 1 0 
1 0.79999999999999982 1.5663059447259045 1 0 
8 0.20000000000000018 3.8799038145497668
1 6.1644857126703059 0 0 1 
1 -4.2000000000000002 -3.1336940552740948 1 0 
8 -14.300000000000001 -5.7000000000000002
1 11 -2.25 -1 0 
8 -14.300000000000001 -5.7000000000000002
1 -4 -11 0 -1 
1 1 -6.3000000000000007 0 -1 
1 -4 -11 0 -1 
8 -14.300000000000001 -5.7000000000000002
1 11 -2.25 -1 0 
8 -14.300000000000001 -5.7000000000000002
1 4 -11 0 -1 
1 9 -6.3000000000000007 0 -1 
1 4 -11 0 -1 
1 0.79999999999999982 1.5663059447259045 1 0 
8 4.5200961854502326 8.1999999999999993
1 6.1644857126703059 0 0 1 
1 -4.2000000000000002 -3.1336940552740948 1 0 
1 5.9451143635577033 2 1 0 
2 0 0 0.94339622641510268 -0.33166784587256004 0.33166784587256004 0.94339622641510268 5.2999999999999998
1 10 0 0 1 
1 0 2 1 0 
1 5 -4.6999999999999993 0 1 
1 0 8 1 0 
1 0 -2 1 0 
1 -5 3.3000000000000007 1 0 
1 0 2 1 0 
2 0 0 1 0 -0 1 5.2999999999999998
2 0 0 1 0 -0 1 5.2999999999999998
1 -5 3.3000000000000007 1 0 
1 0 0 0 1 
1 0 2 1 0 
1 -5 -4.6999999999999993 0 1 
2 0 0 1 0 -0 1 5.2999999999999998
1 -5 -4.6999999999999993 0 1 
1 0 0 1 0 
1 0 -2 1 0 
1 -5 -4.6999999999999993 1 0 
2 0 0 1 0 -0 1 5.2999999999999998
1 -5 -4.6999999999999993 1 0 
1 5 -4.6999999999999993 0 1 
8 -6.0000001678162107e-07 2.0000005999999999
1 5.9451143635576775 0 0 1 
8 -6.0000001678162107e-07 2.0000005999999999
1 2.9421604168753035 0 0 1 
8 0 2
1 5.9451143635576775 0 0 1 
1 10 0 0 1 
1 0 0 1 0 
1 5 -4.6999999999999993 0 1 
1 10 0 0 -1 
1 0 0 0 1 
1 18.518571759182723 -4.2500000000000062 1 5.5321783158209332e-16 
1 3.9999999999999991 -3.4814282408172765 1.3830445789552333e-16 1 
1 6.057592476725068 0.20000000000000018 0 1 
1 -4 -3.4814282408172765 1 0 
1 24.940479145357251 -4.2500000000000027 -1 -5.5321783158209332e-16 
1 -4 2.9404791453572514 0 -1 
8 -5.999999999062311e-07 8.0000005999999999
1 6.1144008643683536 0 0 1 
8 -5.999999999062311e-07 8.0000005999999999
1 -4 2.9404791453572514 1 0 
1 1 7.6404791453572507 1 0 
1 -4 2.9404791453572514 1 0 
2 0 0 1 0 -0 1 3.1499999999999999
1 0 0.29999999999999982 1 0 
2 5 4.6999999999999993 1 0 -0 1 3.1499999999999999
1 0 1.75 1 0 
2 0 0 1 0 -0 1 3.1499999999999999
1 1 7.6404791453572507 1 0 
1 -4 2.9404791453572514 1 0 
1 0 0 0 1 
1 0 0 1 0 
1 -5 -4.6999999999999993 0 1 
1 0 0 1 0 
1 0 0 1 0 
1 -5 -4.6999999999999993 1 0 
1 0 0 1 0 
2 0 0 1 0 -0 1 5.2999999999999998
2 0 0 1 0 -0 1 5.2999999999999998
1 -5 -4.6999999999999993 1 0 
1 5.9451143635576456 0 1 0 
2 0 0 0.94339622641508358 -0.3316678458726145 0.3316678458726145 0.94339622641508358 5.2999999999999998
1 5 -4.6999999999999993 0 1 
1 0 8 1 0 
1 0 0 1 0 
1 -5 3.3000000000000007 1 0 
2 0 0 1 0 -0 1 5.2999999999999998
1 -5 3.3000000000000007 1 0 
1 -5 -4.6999999999999993 0 1 
2 0 0 1 0 -0 1 5.2999999999999998
1 0 8 1 0 
2 0 0 1 0 -0 1 25.300000000000001
7 0 0  6 7 2  6.0437499043344403 5.8097421990030309  6.0557991241590834 5.7067469405840514  6.0676371691605038 5.6011575428887639  6.0794136729324917 5.4916547391065036  6.0912144203081162 5.3768415485586694  6.1029768304639083 5.2560207332202857  6.1144008643683536 5.1296381702647427 
 0 7 1 7
7 0 0  6 7 2  0.95877711628580009 -5.9999999999999997e-07  0.99872497527766024 0.29614804394524857  1.0383346664760011 0.58815189132233292  1.0782762489500886 0.87954135178505799  1.1190917066514348 1.1723843241942169  1.1610319689892381 1.4650791206503304  1.2040122306092158 1.7499999999999973 
 0 7 1 7
8 0.2200000000000002 7.7799999999999994
1 6.0437499287462737 0 0 1 
8 0.2200000000000002 7.7799999999999994
1 -4 2.5782424107176567 1 0 
7 0 0  6 7 2  6.1144008643683536 2.8703618297352591  6.1029772892052216 2.7439843417736585  6.0912147470202314 2.6231613287495539  6.0794135126019002 2.5083434345125974  6.0676366704269444 2.398837885704876  6.0557987112506222 2.2932495299248856  6.0437499043344403 2.1902578009969664 
 0 7 1 7
7 0 0  6 7 2  1.9375804229805773 1.7499999999999973  1.980558958693418 1.4650905618784806  2.022499899803246 1.1723924183815988  2.0633169854141666 0.87953731250504263  2.1032596673551782 0.58813956150591296  2.142869047264583 0.29613789538106061  2.1828155373039948 -5.9999999999999997e-07 
 0 7 1 7
1 0 0 1 0 
2 0 0 1 0 -0 1 25.300000000000001
8 -5.999999999062311e-07 8.0000005999999999
1 0.16878444281123278 0 0 1 
8 -5.999999999062311e-07 8.0000005999999999
1 -4 2.9404791453572514 1 0 
1 1 7.6404791453572507 1 0 
1 -4 2.9404791453572514 1 0 
7 0 0  6 7 2  0.16878444281123278 2.8703618297352591  0.18020801797438207 2.7439843417734684  0.19197056015938721 2.6231613287492439  0.20377179457764899 2.5083434345129567  0.21554863675264851 2.3988378857048098  0.22738659592894594 2.2932495299250393  0.23943540284514686 2.1902578009969615 
 0 7 1 7
7 0 0  6 7 2  1.9375804229805773 10.25  1.9805589586934829 10.534909438121947  2.0224998998033601 10.827607581619224  2.0633169854140339 11.120462687493992  2.1032596673552062 11.411860438494298  2.1428690472645231 11.703862104618484  2.1828155373039966 12.0000006 
 0 7 1 7
8 0.2200000000000002 7.7799999999999994
1 0.23943537843331236 0 0 1 
8 0.2200000000000002 7.7799999999999994
1 -4 2.5782424107176567 1 0 
7 0 0  6 7 2  0.23943540284514775 5.8097421990030469  0.2273861830204946 5.7067469405839848  0.21554813801909736 5.6011575428888847  0.20377163424711933 5.4916547391067256  0.19197088687147817 5.376841548558815  0.18020847671563678 5.2560207332198319  0.16878444281123278 5.1296381702647427 
 0 7 1 7
7 0 0  6 7 2  0.95877711628579387 12.0000006  0.99872497527768622 11.70385195605451  1.038334666475949 11.411848108678194  1.0782762489500151 11.120458648215358  1.1190917066513866 10.827615675806078  1.1610319689893926 10.534920879348642  1.2040122306092158 10.25 
 0 7 1 7
1 1 7.6404791453572507 1 0 
1 -4 2.9404791453572514 1 0 
1 0 12 1 0 
2 0 0 1 0 -0 1 3.1499999999999999
1 24.940479145357251 4.2500000000000009 -1 -1.383044578955234e-16 
1 4 2.9404791453572514 -1.383044578955234e-16 -1 
1 0.22559283045451817 8.1999999999999993 -0 -1 
1 3.9999999999999991 -3.481428240817273 -1 0 
1 18.518571759182727 4.25 1 1.383044578955234e-16 
1 -4 -3.481428240817273 0 1 
2 0 0 1 0 -0 1 3.1499999999999999
1 0 2.2999999999999998 1 0 
2 5 4.6999999999999993 1 0 -0 1 3.1499999999999999
1 0 10.25 1 0 
2 0 0 1 0 -0 1 3.1499999999999999
1 0 0 0 1 
1 0 2 1 0 
1 -5 -4.6999999999999993 0 1 
1 0 0 1 0 
1 0 -2 1 0 
1 -5 -4.6999999999999993 1 0 
1 0 2 1 0 
2 0 0 1 0 -0 1 5.2999999999999998
2 0 0 1 0 -0 1 5.2999999999999998
1 -5 -4.6999999999999993 1 0 
1 10 0 0 1 
1 0 2 1 0 
1 5 -4.6999999999999993 0 1 
1 5.9451143635576456 2 1 0 
2 0 0 0.94339622641508358 -0.3316678458726145 0.3316678458726145 0.94339622641508358 5.2999999999999998
1 5 -4.6999999999999993 0 1 
1 0 8 1 0 
1 0 -2 1 0 
1 -5 3.3000000000000007 1 0 
2 0 0 1 0 -0 1 5.2999999999999998
1 -5 3.3000000000000007 1 0 
1 -5 -4.6999999999999993 0 1 
2 0 0 1 0 -0 1 5.2999999999999998
8 -5.999999999062311e-07 2.0000006000000186
1 3.4796635972117014 0 0 1 
8 -5.999999999062311e-07 2.0000006000000186
1 2.9421604168753035 0 0 1 
1 0 0 1 0 
2 0 0 1 0 -0 1 5.2999999999999998
2 0 0 1 0 -0 1 5.2999999999999998
8 -5.999999999062311e-07 2.0000006000000186
1 2.8035217099678849 0 0 1 
8 -5.999999999062311e-07 2.0000006000000186
1 6.4578395831246951 0 0 1 
1 0 0 0 -1 
1 8 0 0 1 
1 0 0 0 1 
1 0 0 1 0 
1 -5 -4.6999999999999993 0 1 
1 0 8 1 0 
1 0 0 1 0 
1 -5 3.3000000000000007 1 0 
8 -5.999999999062311e-07 2.0000006000000186
1 2.469478765765956 0 0 1 
8 -5.999999999062311e-07 2.0000006000000186
1 0.85271172933445616 0 0 -1 
2 0 0 1 0 -0 1 5.2999999999999998
8 -5.999999999062311e-07 2.0000006000000186
1 0.6721138878238373 0 0 1 
8 -5.999999999062311e-07 2.0000006000000186
1 9.1472882706655447 0 0 -1 
1 -5 3.3000000000000007 1 0 
1 10 0 0 -1 
1 8 0 0 1 
1 10 0 0 1 
1 0 0 1 0 
1 5 -4.6999999999999993 0 1 
8 -5.999999999062311e-07 2.0000006000000186
1 0.33807094362190859 0 0 1 
8 -5.999999999062311e-07 2.0000006000000186
1 6.4578395831246951 0 0 1 
8 0 2
1 6.6212562508014949 0 0 1 
1 6.6212562508015287 0 -1 -0 
2 0 0 0.94339622641508292 0.33166784587261644 0.33166784587261644 -0.94339622641508292 5.2999999999999998
8 -5.999999999062311e-07 2.0000006000000186
1 5.9451143635576775 0 0 1 
8 -5.999999999062311e-07 2.0000006000000186
1 2.9421604168753035 0 0 1 
8 0 2
1 5.9451143635576775 0 0 1 
1 5 -4.6999999999999993 0 1 
1 10 0 0 -1 
1 0 0 0 1 
1 0 0 1 0 
1 0 0 1 0 
1 -5 -4.6999999999999993 1 0 
8 -5.999999999062311e-07 2.0000006000000186
1 5.192827252135257 0 0 1 
8 -5.999999999062311e-07 2.0000006000000186
1 7.4494897427831797 0 0 -1 
2 0 0 1 0 -0 1 5.2999999999999998
8 -5.999999999062311e-07 2.0000006000000186
1 4.2319507086341215 0 0 1 
8 -5.999999999062311e-07 2.0000006000000186
1 2.5505102572168203 0 0 -1 
1 -5 -4.6999999999999993 1 0 
1 0 0 0 -1 
1 0 0 0 1 
1 -5 -4.6999999999999993 0 1 
1 0 0 1 0 
2 0 0 1 0 -0 1 3.1499999999999999
2 0 0 1 0 -0 1 19
1 0 0.20000000000000018 1 0 
2 0 0 1 0 -0 1 19
1 0 8.1999999999999993 1 0 
8 -6.0000001678162107e-07 2.0000005999999999
1 5.192827252135257 0 0 1 
8 -6.0000001678162107e-07 2.0000005999999999
1 7.4494897427831797 0 0 -1 
8 -6.0000001678162107e-07 2.0000005999999999
1 4.2319507086341215 0 0 1 
8 -6.0000001678162107e-07 2.0000005999999999
1 2.5505102572168203 0 0 -1 
1 0 0 0 -1 
1 0 0 0 1 
8 -6.0000001678162107e-07 2.0000005999999999
1 3.4796635972117014 0 0 1 
8 -6.0000001678162107e-07 2.0000005999999999
1 2.9421604168753035 0 0 1 
8 -6.0000001678162107e-07 2.0000005999999999
1 2.8035217099678849 0 0 1 
8 -6.0000001678162107e-07 2.0000005999999999
1 6.4578395831246951 0 0 1 
1 0 0 0 -1 
1 8 0 0 1 
8 -6.0000001678162107e-07 2.0000005999999999
1 2.469478765765956 0 0 1 
8 -6.0000001678162107e-07 2.0000005999999999
1 0.85271172933445616 0 0 -1 
8 -6.0000001678162107e-07 2.0000005999999999
1 0.6721138878238373 0 0 1 
8 -6.0000001678162107e-07 2.0000005999999999
1 9.1472882706655447 0 0 -1 
1 10 0 0 -1 
1 8 0 0 1 
8 -6.0000001678162107e-07 2.0000005999999999
1 0.33807094362190859 0 0 1 
8 -6.0000001678162107e-07 2.0000005999999999
1 6.4578395831246951 0 0 1 
8 0 2
1 6.6212562508014949 0 0 1 
7 0 0  3 69 67  6.1644857126703059 4.5200961854502184  6.1653006316532588 4.5380246814071734  6.1670170659417298 4.5724622666979178  6.1698067815361464 4.6201908040682618  6.1727616070357954 4.6643107524489542  6.1758498912609028 4.7051803104627332  6.1790491886628995 4.7431414153457094  6.182335587407807 4.7784096063104053  6.1856937522866788 4.8112254744020237  6.1891096467948614 4.8417826341576502  6.1925937332249301 4.8704248652758073  6.1961455912036305 4.8973222335249842  6.1997511976713797 4.9225193820820117  6.2034017835770543 4.9460928435011233  6.2070886787703028 4.9681084956025403  6.2108045977266082 4.9886325984681248  6.214543205787403 5.0077285017257784  6.2182991519043433 5.0254572162430851  6.2220679815894782 5.0418769726017665  6.2258460866027088 5.0570430707810186  6.2296306488651405 5.0710076690008403  6.2334195894170312 5.0838196035279974  6.2372115189509394 5.095524212317704  6.2410056902634219 5.1061631672311716  6.2448019519973537 5.1157743110303562  6.2486007031115243 5.1243914976392695  6.2524028482218617 5.1320444335481996  6.2562097510580426 5.1387585184009721  6.2600231941711666 5.1445546827634212  6.2638453123592344 5.1494492210752183  6.2676786190606135 5.153453617813347  6.2715256785018845 5.1565743647867368  6.2753900904608386 5.1588127678909617  6.2792725646752681 5.160164740122636  6.2831853071799335 5.1606205833611076  6.287098049684583 5.1601647401224762  6.2909805238989893 5.1588127678906561  6.2948449358579186 5.156574364786298  6.2986919952991656 5.1534536178127839  6.302525302000519 5.1494492210745371  6.3063474201885628 5.1445546827626352  6.310160863301669 5.1387585184000804  6.3139677661378357 5.1320444335472075  6.3177699112481536 5.1243914976381806  6.3215686623623117 5.1157743110291731  6.3253649240962275 5.1061631672298979  6.3291590954086914 5.0955242123163478  6.3329510249425862 5.0838196035265639  6.3367399654944538 5.0710076689993375  6.3405245277568678 5.0570430707794571  6.3443026327700807 5.0418769726001491  6.3480714624551924 5.0254572162414224  6.3518274085721123 5.0077285017240767  6.3555660166328884 4.9886325984663893  6.3592819355891743 4.9681084956007755  6.3629688307824068 4.9460928434993274  6.366619416688061 4.9225193820801945  6.3702250231557933 4.8973222335231528  6.3737768811344733 4.8704248652739839  6.3772609675645171 4.8417826341558747  6.3806768620726722 4.811225474400354  6.3840350269515174 4.778409606308843  6.3873214256963973 4.7431414153442661  6.3905207230983709 4.7051803104614347  6.3936090073234535 4.6643107524478715  6.3965638328230696 4.620190804067537  6.399353548417464 4.5724622666974879  6.4010699827059208 4.5380246814070215  6.4018849016888666 4.5200961854502379 
 0 4 0.030303030303111343 1 0.060606060606222686 1 0.090909090909334023 1 0.12121212121244537 1 0.15151515151555672 1 0.18181818181866805 1 0.2121212121217794 1 0.24242424242489075 1 0.27272727272800207 1 0.30303030303111345 1 0.33333333333422477 1 0.36363636363733609 1 0.39393939394044747 1 0.42424242424355879 1 0.45454545454667017 1 0.48484848484978149 1 0.51515151515289281 1 0.54545454545600414 1 0.57575757575911557 1 0.60606060606222689 1 0.63636363636533821 1 0.66666666666844954 1 0.69696969697156086 1 0.72727272727467218 1 0.75757575757778362 1 0.78787878788089494 1 0.81818181818400626 1 0.84848484848711758 1 0.8787878787902289 1 0.90909090909334034 1 0.93939393939645166 1 0.96969696969956298 1 1.0000000000026743 1 1.0303030303057856 1 1.060606060608897 1 1.0909090909120083 1 1.1212121212151196 1 1.1515151515182311 1 1.1818181818213425 1 1.2121212121244538 1 1.2424242424275651 1 1.2727272727306764 1 1.3030303030337878 1 1.3333333333368991 1 1.3636363636400104 1 1.3939393939431217 1 1.424242424246233 1 1.4545454545493444 1 1.4848484848524559 1 1.5151515151555672 1 1.5454545454586786 1 1.5757575757617899 1 1.6060606060649012 1 1.6363636363680125 1 1.6666666666711238 1 1.6969696969742352 1 1.7272727272773465 1 1.7575757575804578 1 1.7878787878835694 1 1.8181818181866807 1 1.848484848489792 1 1.8787878787929033 1 1.9090909090960146 1 1.939393939399126 1 1.9696969697022373 1 2.0000000000053486 4
7 0 0  3 69 67  4.8141825221553773 3.7499999999999898  4.8199036836888345 3.7653744278371017  4.8309032524497697 3.7977618248149874  4.8461768320982141 3.8504173132890362  4.8603236508849141 3.9062076307602966  4.8734548902192723 3.9645373790906162  4.8856767956128282 4.0249844146745817  4.8970551644903342 4.0870982258829711  4.9076641079663741 4.1505898173563791  4.9175628643020328 4.2151942881213724  4.9268598041521487 4.2811098987992331  4.9356075576043654 4.3483291883679618  4.9438181438562374 4.4165870181188778  4.951514051347317 4.4857173463706541  4.9587144493059636 4.5555557564081335  4.965438782103698 4.6259638247611452  4.9717057076649409 4.6968209570522417  4.9775332855016208 4.7680250447788186  4.9829388321648844 4.8394908517352428  4.9879388681471308 4.9111490912834386  4.9925490426074068 4.9829453903287773  4.9967840662797887 5.054839344761918  5.000657644272918 5.1268036008634548  5.0041824107620529 5.1988229693197265  5.0073698647588989 5.2708935601558844  5.0102303068457132 5.3430219281097981  5.0127727765224162 5.4152242314427923  5.0150049898321045 5.4875253520761147  5.0169332768822033 5.5599581318977167  5.0185625188464247 5.632562107368706  5.0198960840090514 5.7053840084636915  5.0209357623477269 5.7784715250751857  5.021681698248238 5.851892011723633  5.0221323204374029 5.9256578934728417  5.0222842699707835 6.0000000000066258  5.0221323204373505 6.0743421065400804  5.0216816982481332 6.1481079882888618  5.0209357623475812 6.2215284749367985  5.0198960840088649 6.2946159915477944  5.0185625188461982 6.3674378926423243  5.0169332768819421 6.440041868112905  5.0150049898318096 6.5124746479341562  5.0127727765220849 6.5847757685671624  5.0102303068453535 6.6569780718998572  5.0073698647585063 6.7291064398534806  5.0041824107616302 6.8011770306893355  5.0006576442724695 6.8731963991452929  4.9967840662793144 6.9451606552464895  4.9925490426069095 7.0170546096792723  4.9879388681466175 7.0888509087242388  4.9829388321643515 7.1605091482720509  4.9775332855010719 7.2319749552280905  4.9717057076643814 7.3031790429542918  4.9654387821031296 7.3740361752450223  4.9587144493053854 7.4444442435976823  4.9515140513467317 7.5142826536348162  4.9438181438556432 7.5834129818862452  4.9356075576037686 7.651670811636798  4.9268598041515572 7.7188901012051279  4.9175628643014573 7.7848057118825231  4.9076641079658323 7.8494101826469818  4.8970551644898306 7.9129017741199004  4.8856767956123628 7.9750155853278235  4.8734548902188575 8.0354626209113142  4.8603236508845651 8.0937923692411395  4.8461768320979832 8.1495826867117991  4.8309032524496329 8.2022381751854194  4.8199036836887865 8.2346255721630293  4.8141825221553844 8.25 
 0 4 0.030303030303111343 1 0.060606060606222686 1 0.090909090909334023 1 0.12121212121244537 1 0.15151515151555672 1 0.18181818181866805 1 0.2121212121217794 1 0.24242424242489075 1 0.27272727272800207 1 0.30303030303111345 1 0.33333333333422477 1 0.36363636363733609 1 0.39393939394044747 1 0.42424242424355879 1 0.45454545454667017 1 0.48484848484978149 1 0.51515151515289281 1 0.54545454545600414 1 0.57575757575911557 1 0.60606060606222689 1 0.63636363636533821 1 0.66666666666844954 1 0.69696969697156086 1 0.72727272727467218 1 0.75757575757778362 1 0.78787878788089494 1 0.81818181818400626 1 0.84848484848711758 1 0.8787878787902289 1 0.90909090909334034 1 0.93939393939645166 1 0.96969696969956298 1 1.0000000000026743 1 1.0303030303057856 1 1.060606060608897 1 1.0909090909120083 1 1.1212121212151196 1 1.1515151515182311 1 1.1818181818213425 1 1.2121212121244538 1 1.2424242424275651 1 1.2727272727306764 1 1.3030303030337878 1 1.3333333333368991 1 1.3636363636400104 1 1.3939393939431217 1 1.424242424246233 1 1.4545454545493444 1 1.4848484848524559 1 1.5151515151555672 1 1.5454545454586786 1 1.5757575757617899 1 1.6060606060649012 1 1.6363636363680125 1 1.6666666666711238 1 1.6969696969742352 1 1.7272727272773465 1 1.7575757575804578 1 1.7878787878835694 1 1.8181818181866807 1 1.848484848489792 1 1.8787878787929033 1 1.9090909090960146 1 1.939393939399126 1 1.9696969697022373 1 2.0000000000053486 4
8 0.19999940000000027 8.2000005999999992
1 0.11869959450928008 0 0 1 
8 0.19999940000000027 8.2000005999999992
1 -4.2000000000000002 -3.1336940552740948 1 0 
1 0.79999999999999982 1.5663059447259045 1 0 
8 4.5200961854502326 8.1999999999999993
1 6.4018849016888666 0 0 1 
1 -4.2000000000000002 -3.1336940552740948 1 0 
1 6.4018849016888666 8.1999999999999993 -1 -0 
2 0 0 0.99296347077504765 0.11842105263157894 0.11842105263157894 -0.99296347077504765 19
1 6.1644857126703059 0.20000000000000018 1 0 
2 0 0 0.99296347077504754 -0.11842105263157948 0.11842105263157948 0.99296347077504754 19
1 0.79999999999999982 1.5663059447259045 1 0 
8 0.20000000000000018 3.8799038145497668
1 6.4018849016888666 0 0 1 
1 -4.2000000000000002 -3.1336940552740948 1 0 
7 0 0  3 47 45  6.1644857126703059 3.8799038145497806  6.1657020426489808 3.8532038994751714  6.1683214867107514 3.8028984770828687  6.1726837071608989 3.735745832528703  6.1773315205460069 3.675942771697235  6.1821880375771343 3.622456988039831  6.1872280575816463 3.5741648538827682  6.1924662997226934 3.5300932445797666  6.197846215427278 3.4901174892029276  6.2033338099309354 3.4539519988401373  6.2088976494193222 3.4213625757930912  6.214513410492156 3.3921132113529948  6.2201619506057213 3.3659835046172932  6.2258291925697957 3.3427667422579219  6.2315055828731749 3.3222728410685041  6.2371857096828718 3.3043297562845084  6.2428679027861778 3.2887851483685453  6.2485538735203319 3.2755078972750402  6.2542482808953341 3.264389634503623  6.2599585695250148 3.2553462980294641  6.2656937671441488 3.2483197510696042  6.2714671095104615 3.2432794836634127  6.2772843064351687 3.2402244243798188  6.2831853071783499 3.2391848343879142  6.2890863079216723 3.2402244243789902  6.2949035048465412 3.2432794836618872  6.3006768472130021 3.2483197510674726  6.3064120448322587 3.2553462980267831  6.3121223334620469 3.2643896345004428  6.3178167408371477 3.2755078972714  6.323502711571396 3.2887851483644961  6.329184904674813 3.3043297562801097  6.3348650314846164 3.3222728410638247  6.3405414217881111 3.3427667422530325  6.3462086637522965 3.3659835046122573  6.3518572038659773 3.3921132113478674  6.357472964938915 3.4213625757879282  6.3630368044274137 3.4539519988350058  6.3685243989311804 3.4901174891979174  6.3739043146358814 3.5300932445750135  6.3791425567770474 3.5741648538784414  6.3841825767816722 3.6224569880360744  6.3890390938129054 3.6759427716940518  6.3936869071981057 3.7357458325262911  6.3980491276483455 3.8028984770814986  6.4006685717101695 3.8532038994746705  6.4018849016888666 3.8799038145497611 
 0 4 0.045454545454122586 1 0.090909090908245171 1 0.13636363636236776 1 0.18181818181649034 1 0.22727272727061293 1 0.27272727272473551 1 0.3181818181788581 1 0.36363636363298069 1 0.40909090908710327 1 0.45454545454122586 1 0.49999999999534844 1 0.54545454544947103 1 0.59090909090359367 1 0.6363636363577162 1 0.68181818181183873 1 0.72727272726596137 1 0.77272727272008401 1 0.81818181817420654 1 0.86363636362832907 1 0.90909090908245171 1 0.95454545453657436 1 0.99999999999069689 1 1.0454545454448194 1 1.0909090908989421 1 1.1363636363530647 1 1.1818181818071873 1 1.2272727272613098 1 1.2727272727154324 1 1.318181818169555 1 1.3636363636236775 1 1.4090909090778001 1 1.4545454545319227 1 1.4999999999860454 1 1.545454545440168 1 1.5909090908942904 1 1.6363636363484131 1 1.6818181818025357 1 1.7272727272566581 1 1.7727272727107808 1 1.8181818181649034 1 1.8636363636190261 1 1.9090909090731487 1 1.9545454545272711 1 1.9999999999813938 4
7 0 0  3 47 45  4.6105954386140011 3.7499999999999898  4.6020753098074847 3.7729472755700177  4.5859996582385376 3.8223771288504138  4.5644781637694507 3.9047325498911314  4.545253737893467 3.9925243421583909  4.5280072429709177 4.0843047518330007  4.5123878534606261 4.1796008656258881  4.4980902962157749 4.2786940357480256  4.4850828577001742 4.3805166513701863  4.4732814278371613 4.4844256320072846  4.4626177784312864 4.5898250228104898  4.4530222939647288 4.6962523291088774  4.4444295493293833 4.8033423737743908  4.4367777034413143 4.9108253861631299  4.4300095002851538 5.0185169867951753  4.4240728016665427 5.1263111385095215  4.418921219099107 5.2341727065144603  4.4145147031880825 5.3421307298346825  4.4108201380188357 5.4502702480393603  4.4078119363901473 5.5587292549129064  4.4054726448714758 5.6676758516279797  4.4037935620544069 5.7773580940014373  4.4027753774998031 5.8878809928224003  4.4024288222147643 5.9999999999765068  4.4027753774995286 6.1121190071333507  4.4037935620538953 6.2226419059572953  4.405472644870768 6.3323241483336314  4.4078119363892529 6.4412707450510522  4.4108201380177805 6.5497297519265967  4.4145147031868719 6.6578692701331326  4.4189212190977631 6.7658272934552413  4.4240728016650879 6.87368886146219  4.430009500283604 6.9814830131786483  4.4367777034397031 7.0891746138128617  4.4444295493277259 7.1966576262037583  4.4530222939630448 7.303747670871382  4.4626177784295962 7.410174977171839  4.4732814278354862 7.5155743679771154  4.4850828576985418 7.6194833486163338  4.4980902962142313 7.7213059642406821  4.5123878534592237 7.8203991343650605  4.5280072429697036 7.915695248160131  4.5452537378924447 8.0074756578366255  4.5644781637686753 8.0952674501057054  4.5859996582381006 8.1776228711481718  4.6020753098073257 8.2270527244295515  4.6105954386139949 8.25 
 0 4 0.045454545454122586 1 0.090909090908245171 1 0.13636363636236776 1 0.18181818181649034 1 0.22727272727061293 1 0.27272727272473551 1 0.3181818181788581 1 0.36363636363298069 1 0.40909090908710327 1 0.45454545454122586 1 0.49999999999534844 1 0.54545454544947103 1 0.59090909090359367 1 0.6363636363577162 1 0.68181818181183873 1 0.72727272726596137 1 0.77272727272008401 1 0.81818181817420654 1 0.86363636362832907 1 0.90909090908245171 1 0.95454545453657436 1 0.99999999999069689 1 1.0454545454448194 1 1.0909090908989421 1 1.1363636363530647 1 1.1818181818071873 1 1.2272727272613098 1 1.2727272727154324 1 1.318181818169555 1 1.3636363636236775 1 1.4090909090778001 1 1.4545454545319227 1 1.4999999999860454 1 1.545454545440168 1 1.5909090908942904 1 1.6363636363484131 1 1.6818181818025357 1 1.7272727272566581 1 1.7727272727107808 1 1.8181818181649034 1 1.8636363636190261 1 1.9090909090731487 1 1.9545454545272711 1 1.9999999999813938 4
1 6.2831853071795862 -0 0 1 
1 0 -0 0 1 
2 0 0 1 0 -0 1 3.1499999999999999
1 0 0.30000000000000004 1 0 
2 5 4.6999999999999993 1 0 -0 1 3.1499999999999999
1 0 8.25 1 0 
2 0 0 1 0 -0 1 3.1499999999999999
8 -14.300000000000001 -5.7000000000000002
1 11 2.25 -1 0 
8 -14.300000000000001 -5.7000000000000002
1 4 -11 0 -1 
1 9 -6.3000000000000007 0 -1 
1 4 -11 0 -1 
8 -14.300000000000001 -5.7000000000000002
1 11 2.25 -1 0 
8 -14.300000000000001 -5.7000000000000002
1 -4 -11 0 -1 
1 1 -6.3000000000000007 0 -1 
1 -4 -11 0 -1 
Curves 87
8 0 0.1781009088769622
2 0 0 -4 0 0 1 0.99603762778286553 -0.088932806324110811 0 0.088932806324110811 0.99603762778286553 -0 25.300000000000001
1 25.199751982906498 2.25 -4 0 0 1 
8 0 0.1781009088769622
2 0 0 4 0 0 -1 0.99603762778286553 0.088932806324110672 0 0.088932806324110672 -0.99603762778286553 0 25.300000000000001
1 25.199751982906498 -2.25 -4 0 0 1 
2 22 -2.25 0 0 1 0 0 -0 1 1 0 -0 3.1499999999999999
1 18.866305944725905 -2.25 -4.2000000000000002 0 0 1 
1 11 -2.25 -4 -1 0 0 
1 11 -2.25 4 -1 0 0 
8 0 0.67614188724382596
2 22 -2.25 0 0 1 -0 -0.33166784587256004 0 0.94339622641510268 0.94339622641510268 0 0.33166784587256004 5.2999999999999998
1 17.300000000000001 -2.25 5 1 0 0 
1 25.300000000000001 -2.25 -5 0 0 1 
2 22 -2.25 0 0 1 0 0 -0 1 1 0 -0 5.2999999999999998
1 17.300000000000001 -2.25 -5 1 0 0 
1 17.300000000000001 -2.25 -5 0 0 1 
1 20.242160416875304 -4.25 5 0 1 0 
1 17.300000000000001 -4.25 5 1 0 0 
1 17.300000000000001 -4.25 5 0 1 0 
8 0 6.4219073861745279
1 18.518571759182723 -4.2500000000000062 3.9999999999999991 1 5.5321783158209332e-16 1.3830445789552333e-16 
8 0 7.9999999999999991
1 18.518571759182723 -4.2500000000000062 -4 0 0 1 
8 0 6.4219073861745279
1 24.940479145357251 -4.2500000000000027 -4 -1 -5.5321783158209332e-16 0 
1 24.940479145357251 -4.25 -4 0 0 1 
2 22 -4.25 0 0 1 0 0 -0 1 1 0 -0 3.1499999999999999
1 17.300000000000001 -4.25 -5 1 0 0 
1 17.300000000000001 -4.25 -5 0 0 1 
2 22 -4.25 0 0 1 0 0 -0 1 1 0 -0 5.2999999999999998
8 0 0.67614188724389257
2 22 -4.25 0 0 1 -0 -0.3316678458726145 0 0.94339622641508358 0.94339622641508358 0 0.3316678458726145 5.2999999999999998
1 25.300000000000001 -4.25 -5 0 0 1 
2 0 0 4 0 0 1 1 0 -0 -0 1 0 25.300000000000001
7 0 0  6 7 2  24.578242264246647 -6.0000005999999839 1.8097421990030309  24.65053759042404 -5.7038519560547352 1.7067469405840516  24.717283795049212 -5.4118481086777628 1.6011575428887626  24.779641208678299 -5.1204586482148216 1.4916547391065049  24.838031219471986 -4.8276156758058377 1.3768415485586689  24.891927001263358 -4.53492087934967 1.2560207332202862  24.940479145357251 -4.2500000000000027 1.1296381702647427 
 0 7 1 7
1 24.578242410717657 -6 -4 0 0 1 
7 0 0  6 7 2  24.940479145357251 -4.2500000000000027 -1.1296381702647409  24.89192895091394 -4.5349094381215194 -1.2560156582263413  24.838032927984557 -4.8276075816184267 -1.3768386712504463  24.779640702499833 -5.1204626874948964 -1.4916565654874023  24.717281091082693 -5.4118604384941458 -1.6011621142951242  24.650535112973024 -5.7038621046189233 -1.7067504700751142  24.578242264246647 -6.0000005999999839 -1.8097421990030336 
 0 7 1 7
2 0 0 -4 0 0 1 1 0 -0 -0 1 0 25.300000000000001
1 24.940479145357251 4.25 -4 0 0 1 
7 0 0  6 7 2  24.940479145357251 4.25 -1.1296381702647409  24.891928950913869 4.5349094381219457 -1.2560156582265316  24.838032927984386 4.8276075816192421 -1.3768386712507563  24.779640702500021 5.1204626874939487 -1.4916565654870428  24.717281091082654 5.4118604384943367 -1.6011621142951904  24.650535112973131 5.7038621046184748 -1.7067504700749605  24.57824226424664 6.0000005999999919 -1.8097421990030385 
 0 7 1 7
1 24.578242410717657 6 -4 0 0 1 
7 0 0  6 7 2  24.578242264246636 6.0000006000000026 1.8097421990030469  24.650537590424086 5.703851956054514 1.706746940583985  24.71728379504912 5.4118481086781776 1.6011575428888882  24.779641208678161 5.1204586482153793 1.4916547391067185  24.838031219471983 4.8276156758060678 1.3768415485588192  24.891927001263536 4.5349208793486424 1.2560207332198317  24.940479145357251 4.25 1.1296381702647427 
 0 7 1 7
2 22 6 0 0 1 0 0 -0 1 1 0 -0 3.1499999999999999
8 0 6.4219073861745244
1 24.940479145357251 4.2500000000000009 4 -1 -1.383044578955234e-16 -1.383044578955234e-16 
8 0 7.9999999999999991
1 18.518571759182727 4.25 3.9999999999999991 0 0 -1 
8 0 6.4219073861745244
1 18.518571759182727 4.25 -4 1 1.383044578955234e-16 0 
2 22 4.25 0 0 1 0 0 -0 1 1 0 -0 3.1499999999999999
1 17.300000000000001 4.25 -5 1 0 0 
1 17.300000000000001 4.25 -5 0 0 1 
2 22 4.25 0 0 1 0 0 -0 1 1 0 -0 5.2999999999999998
1 17.300000000000001 4.25 5 1 0 0 
8 0 0.67614188724389257
2 22 4.25 0 0 1 -0 -0.3316678458726145 0 0.94339622641508358 0.94339622641508358 0 0.3316678458726145 5.2999999999999998
1 25.300000000000001 4.25 -5 0 0 1 
1 20.242160416875304 2.25 -5 0 1 0 
2 22 2.25 0 0 1 0 0 -0 1 1 0 -0 5.2999999999999998
1 23.757839583124696 2.25 -5 0 1 0 
1 25.300000000000001 2.25 -5 0 1 0 
1 17.300000000000001 2.25 -5 1 0 0 
1 25.300000000000001 2.25 -5 0 0 1 
1 25.300000000000001 2.25 -4.1472882706655438 0 1 0 
1 25.300000000000001 2.25 4.1472882706655438 0 1 0 
1 25.300000000000001 2.25 5 0 1 0 
1 17.300000000000001 2.25 5 1 0 0 
1 23.757839583124696 2.25 5 0 1 0 
8 0 0.67614188724382596
2 22 2.25 0 0 -1 0 0.33166784587261644 0 0.94339622641508292 -0.94339622641508292 0 0.33166784587261644 5.2999999999999998
1 20.242160416875304 2.25 5 0 1 0 
1 17.300000000000001 2.25 5 0 1 0 
1 17.300000000000001 2.25 -5 0 0 1 
1 17.300000000000001 2.25 2.4494897427831797 0 1 0 
1 17.300000000000001 2.25 -2.4494897427831797 0 1 0 
1 17.300000000000001 2.25 -5 0 1 0 
2 22 -6 0 0 1 0 0 -0 1 1 0 -0 3.1499999999999999
2 0 0 -4 0 0 1 1 0 -0 -0 1 0 19
2 0 0 3.9999999999999991 0 0 1 1 0 -0 -0 1 0 19
1 17.300000000000001 -4.25 2.4494897427831797 0 1 0 
1 17.300000000000001 -4.25 -2.4494897427831797 0 1 0 
1 17.300000000000001 -4.25 -5 0 1 0 
1 20.242160416875304 -4.25 -5 0 1 0 
1 23.757839583124696 -4.25 -5 0 1 0 
1 25.300000000000001 -4.25 -5 0 1 0 
1 25.300000000000001 -4.25 -4.1472882706655438 0 1 0 
1 25.300000000000001 -4.25 4.1472882706655438 0 1 0 
1 25.300000000000001 -4.25 5 0 1 0 
1 23.757839583124696 -4.25 5 0 1 0 
7 0 0  7 38 7  18.866305944725898 -2.2500000000000102 0.32009618545021828  18.869219407281793 -2.2255705440276037 0.34861855062246594  18.872296880321375 -2.1994523475852348 0.37575051930548525  18.87549317284606 -2.1719450575424872 0.4015637924768452  18.878771838868154 -2.14329338957383 0.42613517808722273  18.882104589432796 -2.1136872096814905 0.4495464669774844  18.885470704639879 -2.0832616157183295 0.47188430879576754  18.892740701849529 -2.0163437593070226 0.51774028342765399  18.896651230478074 -1.9796135076684176 0.54095079997754625  18.900559128726297 -1.9420999737538425 0.56295714815018794  18.90444305867257 -1.9039498186112229 0.58384400710264595  18.908288246242503 -1.8652626750648331 0.60369520925070808  18.912085480152516 -1.8260911682026653 0.62259372495648413  18.937835325629994 -1.5534374841909415 0.74656221465227801  18.958570674740418 -1.2981202792902267 0.82506372822480478  18.975155434204837 -1.0387259947626593 0.88153391831869765  18.987375607096482 -0.78103797747876991 0.92104051935454634  18.99564481356412 -0.525162664370173 0.94686347733017562  19 -0.2663281310720742 0.96046863561492346  19 0.26632813107330072 0.96046863561492368  18.995644813564109 0.52516266436700798 0.94686347733009679  18.987375607096549 0.7810379774816727 0.92104051935490583  18.975155434204719 1.0387259947617786 0.88153391831811523  18.958570674740518 1.2981202792897135 0.82506372822528096  18.937835325629962 1.5534374841912559 0.74656221465211681  18.912085480152523 1.8260911682025913 0.62259372495651422  18.908288246242513 1.8652626750647165 0.60369520925076725  18.90444305867258 1.9039498186111159 0.58384400710270501  18.900559128726304 1.942099973753783 0.56295714815022302  18.896651230478074 1.9796135076683832 0.54095079997756679  18.89274070184954 2.0163437593069653 0.51774028342768508  18.885470704639879 2.083261615718353 0.47188430879574506  18.882104589432803 2.1136872096814536 0.44954646697751527  18.878771838868168 2.1432933895737465 0.42613517808729051  18.875493172846067 2.171945057542418 0.40156379247689655  18.872296880321375 2.1994523475852237 0.37575051930548525  18.869219407281793 2.2255705440276374 0.34861855062243247  18.866305944725905 2.25 0.32009618545023777 
 0 8 0.11249909786327304 6 0.24156251799721706 6 1 6 1.7584374820062882 6 1.8875009021411304 6 2.0000000000053486 8
1 18.866305944725905 2.25 -4.2000000000000002 0 0 1 
8 0 0.23739918901856069
2 0 0 3.9999999999999991 0 0 -1 0.99296347077504765 0.11842105263157894 0 0.11842105263157894 -0.99296347077504765 0 19
8 0 0.23739918901856069
2 0 0 -4 0 0 1 0.99296347077504754 -0.11842105263157948 0 0.11842105263157948 0.99296347077504754 -0 19
7 0 0  8 30 5  18.866305944725898 -2.2500000000000102 -0.32009618545021951  18.870816457820876 -2.2121792355477869 -0.36425343790882181  18.875719576041245 -2.1703303197117503 -0.40521934035045504  18.880858061823314 -2.1254940851501987 -0.44319603248359851  18.886114430744659 -2.0784617442869973 -0.47842241256841944  18.891407573069973 -2.029790442411544 -0.51116142776874118  18.896687762032126 -1.9798185357466029 -0.54168765232076144  18.901930048848239 -1.9286805944840082 -0.57027515351851954  18.927841503831026 -1.6675787627055803 -0.70447272653095505  18.948198363502389 -1.4356532222287282 -0.78705039307150015  18.965549135092218 -1.1968676656728565 -0.84903749633025138  18.979205148216032 -0.95831979739378381 -0.89469662144590834  18.989378193793094 -0.72227043135257984 -0.92727885476382332  18.996316680547672 -0.48675009521151336 -0.9489668846408752  19 -0.24743050127042698 -0.9604686356149218  19 0.24743050126583269 -0.96046863561492202  18.996316680547725 0.48675009522299484 -0.94896688464107348  18.989378193792835 0.72227043134041957 -0.92727885476285732  18.979205148216476 0.95831979739948681 -0.89469662144764139  18.965549135091859 1.1968676656725865 -0.84903749632880243  18.948198363502481 1.4356532222284981 -0.78705039307190516  18.927841503831029 1.6675787627055461 -0.70447272653098403  18.901930048848222 1.9286805944841536 -0.57027515351843094  18.896687762032105 1.9798185357467033 -0.54168765232069971  18.891407573069966 2.0297904424115973 -0.51116142776870588  18.886114430744659 2.0784617442870164 -0.47842241256840184  18.880858061823318 2.1254940851502022 -0.44319603248358769  18.875719576041245 2.1703303197117618 -0.40521934035043622  18.870816457820876 2.212179235547818 -0.364253437908791  18.866305944725905 2.25 -0.32009618545023905 
 0 9 0.2005289022261395 7 1 7 1.7994710977590305 7 1.9999999999813938 9
1 22 -6 3.1499999999999999 0 1 0 
2 22 2.25 0 0 1 0 0 -0 1 1 0 -0 3.1499999999999999
1 11 2.25 4 -1 0 0 
1 11 2.25 -4 -1 0 0 
Polygon3D 0
PolygonOnTriangulations 0
Surfaces 36
10 3.1415926535897931 9.4247779607693793 -2e+100 2e+100
2 0 0 -4 0 0 1 1 0 -0 -0 1 0 25.300000000000001
1 0 0 -4 0 0 1 1 0 -0 -0 1 0 
2 0 0 -4 0 0 1 1 0 -0 -0 1 0 25.300000000000001
1 22 2.25 0 0 1 0 0 -0 1 1 0 -0 
1 17.300000000000001 2.25 -5 0 1 0 0 0 1 1 0 0 
1 22 2.25 0 0 1 0 0 -0 1 1 0 -0 
1 0 0 4 0 0 1 1 0 -0 -0 1 0 
1 22 -2.25 0 0 1 0 0 -0 1 1 0 -0 
1 17.300000000000001 -2.25 -5 0 1 0 0 0 1 1 0 0 
1 22 -2.25 0 0 1 0 0 -0 1 1 0 -0 
2 22 -4.5499999999999998 0 0 1 0 0 -0 1 1 0 -0 3.1499999999999999
2 22 -6 0 0 1 0 0 -0 1 1 0 -0 3.1499999999999999
2 0 0 -4.2000000000000002 0 0 1 1 0 -0 -0 1 0 19
10 3.1415926535897931 9.4247779607693793 -2e+100 2e+100
2 0 0 -4.2000000000000002 0 0 1 1 0 -0 -0 1 0 19
10 3.1415926535897931 9.4247779607693793 -2e+100 2e+100
2 0 0 -4.2000000000000002 0 0 1 1 0 -0 -0 1 0 19
10 3.1415926535897984 9.4247779607693847 -2e+100 2e+100
2 22 -4.25 0 0 1 0 0 -0 1 1 0 -0 5.2999999999999998
1 17.300000000000001 -4.25 5 0 0 1 1 0 0 0 1 0 
1 25.300000000000001 -4.25 -5 1 0 0 0 0 1 0 -1 0 
2 22 -4.25 0 0 1 0 0 -0 1 1 0 -0 5.2999999999999998
1 17.300000000000001 -4.25 -5 0 0 1 1 0 0 0 1 0 
1 17.300000000000001 -4.25 -5 1 0 0 0 0 1 0 -1 0 
1 17.300000000000001 -4.25 -5 0 1 0 0 0 1 1 0 0 
1 22 -4.25 0 0 1 0 0 -0 1 1 0 -0 
1 22 -4.25 0 0 1 0 0 -0 1 1 0 -0 
1 22 -6 0 0 1 0 0 -0 1 1 0 -0 
1 22 4.25 0 0 1 0 0 -0 1 1 0 -0 
1 17.300000000000001 4.25 -5 0 1 0 0 0 1 1 0 0 
1 22 4.25 0 0 1 0 0 -0 1 1 0 -0 
1 22 6 0 0 1 0 0 -0 1 1 0 -0 
2 22 1.95 0 0 1 0 0 -0 1 1 0 -0 3.1499999999999999
1 17.300000000000001 2.25 -5 0 0 1 1 0 0 0 1 0 
1 17.300000000000001 2.25 -5 1 0 0 0 0 1 0 -1 0 
2 22 2.25 0 0 1 0 0 -0 1 1 0 -0 5.2999999999999998
1 17.300000000000001 2.25 5 0 0 1 1 0 0 0 1 0 
10 3.1415926535897984 9.4247779607693847 -2e+100 2e+100
2 22 2.25 0 0 1 0 0 -0 1 1 0 -0 5.2999999999999998
1 25.300000000000001 2.25 -5 1 0 0 0 0 1 0 -1 0 
Triangulations 0

TShapes 282
Ve
1.50000003552714e-07
25.1997519829065 -2.25 -4
0 0

0101101
*
Ve
1.5e-07
25.1997519829065 2.25 -4
0 0

0101101
*
Ed
 1e-07 1 1 0
1  1 0 0 0.178100908876962
2  1 1 0 0 0.178100908876962
2  2 2 0 0 0.178100908876962
0

0101000
+282 0 -281 0 *
Ve
1.5e-07
25.1997519829065 2.25 4
0 0

0101101
*
Ed
 1e-07 1 1 0
1  2 0 0 8
2  3 3 0 0 8
2  4 4 0 0 8
2  5 5 1 0 8
2  6 1 0 0 8
2  7 6 0 0 8
0

0101000
+281 0 -279 0 *
Ve
1.50000003552714e-07
25.1997519829065 -2.25 4
0 0

0101101
*
Ed
 1e-07 1 1 0
1  3 0 0 0.178100908876962
2  8 1 0 0 0.178100908876962
2  9 7 0 0 0.178100908876962
0

0101000
+279 0 -277 0 *
Ed
 1e-07 1 1 0
1  4 0 0 8
2  10 3 0 0 8
2  11 8 0 0 8
2  12 9 2 0 8
2  13 1 0 0 8
2  14 10 0 0 8
0

0101000
+282 0 -277 0 *
Wi

0101100
+280 0 +278 0 +276 0 -275 0 *
Fa
0  0 1 0

0101000
+274 0 *
Ve
1.00000018638856e-07
18.8663059447259 -2.25 -0.320096185450233
0 0

0101101
*
Ve
1.00000018680224e-07
18.8663059447259 -2.25 0.320096185450232
0 0

0101101
*
Ed
 1e-07 1 1 0
1  5 0 4.610595438614 4.81418252215538
2  15 8 0 4.610595438614 4.81418252215538
2  16 11 0 4.610595438614 4.81418252215538
2  17 9 2 4.610595438614 4.81418252215538
2  18 12 0 4.610595438614 4.81418252215538
2  19 10 0 4.610595438614 4.81418252215538
0

0101000
+272 0 -271 0 *
Ve
1.50000009769963e-07
18.8663059447259 -2.25000000000001 -4
0 0

0101101
*
Ed
 1e-07 1 1 0
1  6 0 0.2 3.87990381454977
2  20 13 0 0.2 3.87990381454977
2  21 8 0 0.2 3.87990381454977
2  22 9 2 0.2 3.87990381454977
2  23 14 0 0.2 3.87990381454977
2  24 10 0 0.2 3.87990381454977
0

0101000
+269 0 -272 0 *
Ed
 1.5e-07 1 1 0
1  7 0 -14.1997519829065 -7.8663059447259
2  25 2 0 -14.1997519829065 -7.8663059447259
2  26 8 0 -14.1997519829065 -7.8663059447259
2  27 9 2 -14.1997519829065 -7.8663059447259
2  28 10 0 -14.1997519829065 -7.8663059447259
0

0101000
+282 0 -269 0 *
Ve
1.50000009810251e-07
18.8663059447259 -2.25000000000001 4
0 0

0101101
*
Ed
 1.5e-07 1 1 0
1  8 0 -14.1997519829065 -7.8663059447259
2  29 7 0 -14.1997519829065 -7.8663059447259
2  30 8 0 -14.1997519829065 -7.8663059447259
2  31 9 2 -14.1997519829065 -7.8663059447259
2  32 10 0 -14.1997519829065 -7.8663059447259
0

0101000
+277 0 -266 0 *
Ed
 1e-07 1 1 0
1  6 0 4.52009618545023 8.2
2  20 13 0 4.52009618545023 8.2
2  21 8 0 4.52009618545023 8.2
2  33 9 2 4.52009618545023 8.2
2  34 15 0 4.52009618545023 8.2
2  35 10 0 4.52009618545023 8.2
0

0101000
+271 0 -266 0 *
Wi

0101100
-270 0 -268 0 -267 0 +275 0 +265 0 -264 0 *
Ve
1.00000136963909e-07
20.2421604168754 -2.25 5.00000000000002
0 0

0101101
*
Ve
1.00000183988041e-07
23.7578395831249 -2.25 4.99999999999997
0 0

0101101
*
Ed
 1e-07 1 1 0
1  9 0 0 0.676141887243826
2  36 16 0 0 0.676141887243826
2  37 10 0 0 0.676141887243826
0

0101000
+262 0 -261 0 *
Ve
1e-07
25.3 -2.25 5
0 0

0101101
*
Ed
 1e-07 1 1 0
1  10 0 6.45783958312488 8
2  38 9 0 6.45783958312488 8
2  39 17 0 6.45783958312488 8
2  40 10 3 6.45783958312488 8
0

0101000
+261 3 -259 3 *
Ve
1.0000002148217e-07
25.3 -2.25 4.14728827066556
0 0

0101101
*
Ed
 1e-07 1 1 0
1  11 0 9.14728827066556 10
2  41 9 0 9.14728827066556 10
2  42 18 0 9.14728827066556 10
2  43 10 3 9.14728827066556 10
0

0101000
+257 3 -259 3 *
Ve
1.00000102817922e-07
25.2999999999999 -2.25 -4.14728827066563
0 0

0101101
*
Ed
 1e-07 1 1 0
1  12 0 0.672113887823833 2.46947876576597
2  44 19 0 0.672113887823833 2.46947876576597
2  45 8 0 0.672113887823833 2.46947876576597
2  46 10 0 0.672113887823833 2.46947876576597
0

0101000
+257 0 -255 0 *
Ve
1e-07
25.3 -2.25 -5
0 0

0101101
*
Ed
 1e-07 1 1 0
1  11 0 0 0.852711729334368
2  41 9 0 0 0.852711729334368
2  42 18 0 0 0.852711729334368
2  47 10 3 0 0.852711729334368
0

0101000
+253 3 -255 3 *
Ve
1.00000252317717e-07
23.7578395831244 -2.25 -5.00000000000004
0 0

0101101
*
Ed
 1e-07 1 1 0
1  13 0 6.45783958312445 8
2  48 9 0 6.45783958312445 8
2  49 20 0 6.45783958312445 8
2  50 10 3 6.45783958312445 8
0

0101000
+251 3 -253 3 *
Ve
1.00000248816808e-07
20.2421604168755 -2.25 -5.00000000000004
0 0

0101101
*
Ed
 1e-07 1 1 0
1  12 0 2.80352170996793 3.47966359721166
2  44 19 0 2.80352170996793 3.47966359721166
2  45 8 0 2.80352170996793 3.47966359721166
2  51 10 0 2.80352170996793 3.47966359721166
0

0101000
+251 0 -249 0 *
Ve
1e-07
17.3 -2.25 -5
0 0

0101101
*
Ed
 1e-07 1 1 0
1  13 0 0 2.94216041687555
2  48 9 0 0 2.94216041687555
2  49 20 0 0 2.94216041687555
2  52 10 3 0 2.94216041687555
0

0101000
+247 3 -249 3 *
Ve
1.00000065942388e-07
17.3 -2.25 -2.44948974278312
0 0

0101101
*
Ed
 1e-07 1 1 0
1  14 0 0 2.55051025721688
2  53 9 0 0 2.55051025721688
2  54 21 0 0 2.55051025721688
2  55 10 3 0 2.55051025721688
0

0101000
+247 3 -245 3 *
Ve
1.00000351576203e-07
17.2999999999999 -2.25 2.44948974278284
0 0

0101101
*
Ed
 1e-07 1 1 0
1  12 0 4.23195070863413 5.19282725213519
2  44 19 0 4.23195070863413 5.19282725213519
2  45 8 0 4.23195070863413 5.19282725213519
2  56 10 0 4.23195070863413 5.19282725213519
0

0101000
+245 0 -243 0 *
Ve
1e-07
17.3 -2.25 5
0 0

0101101
*
Ed
 1e-07 1 1 0
1  14 0 7.44948974278284 10
2  53 9 0 7.44948974278284 10
2  54 21 0 7.44948974278284 10
2  57 10 3 7.44948974278284 10
0

0101000
+243 3 -241 3 *
Ed
 1e-07 1 1 0
1  10 0 0 2.94216041687544
2  38 9 0 0 2.94216041687544
2  39 17 0 0 2.94216041687544
2  58 10 3 0 2.94216041687544
0

0101000
+241 3 -262 3 *
Wi

0101100
+260 0 +258 2 -256 2 +254 0 -252 2 -250 2 +248 0 -246 2 +244 2 +242 0 
+240 2 +239 2 *
Fa
0  0 10 0

0101000
+263 0 +238 0 *
Ve
1.00000173183405e-07
20.2421604168751 -4.25 4.99999999999997
0 0

0101101
*
Ed
 1e-07 1 1 0
1  15 0 0 2
2  59 19 0 0 2
2  60 17 2 0 2
2  61 16 0 0 2
0

0101000
+236 0 -262 0 *
Ve
1e-07
17.3 -4.25 5
0 0

0101101
*
Ed
 1e-07 1 1 0
1  16 0 0 2.94216041687513
2  62 22 0 0 2.94216041687513
2  63 17 0 0 2.94216041687513
2  64 23 3 0 2.94216041687513
0

0101000
+234 3 -236 3 *
Ed
 1e-07 1 1 0
1  17 0 0 2
2  65 21 0 0 2
2  66 17 0 0 2
0

0101000
-241 3 +234 3 *
Wi

0101100
-239 2 +235 0 +233 2 -232 2 *
Fa
0  1e-07 17 2

0101000
+231 0 *
Ve
1.5000000628037e-07
18.5185717591827 -4.25000000000001 4
0 0

0101101
*
Ve
1.50000002664535e-07
24.9404791453573 -4.25 4
0 0

0101101
*
Ed
 1e-07 1 1 0
1  18 0 0 6.42190738617453
2  67 7 0 0 6.42190738617453
2  68 23 0 0 6.42190738617453
0

0101000
+229 0 -228 0 *
Ve
1.50000006217249e-07
18.5185717591827 -4.25000000000001 -4
0 0

0101101
*
Ed
 1e-07 1 1 0
1  19 0 0 8
2  69 13 0 0 8
2  70 23 0 0 8
0

0101000
+226 0 -229 0 *
Ve
1.50000002664535e-07
24.9404791453573 -4.25 -4
0 0

0101101
*
Ed
 1e-07 1 1 0
1  20 0 0 6.42190738617453
2  71 2 0 0 6.42190738617453
2  72 23 0 0 6.42190738617453
0

0101000
+224 0 -226 0 *
Ve
1.00000005564422e-07
24.9404791453573 -4.25 -1.12963817026475
0 0

0101101
*
Ed
 1e-07 1 1 0
1  21 0 0 2.87036182973525
2  73 3 0 0 2.87036182973525
2  74 24 0 0 2.87036182973525
2  75 22 2 0 2.87036182973525
2  76 23 0 0 2.87036182973525
0

0101000
+224 0 -222 0 *
Ve
1.00000003768222e-07
24.9404791453573 -4.25 1.12963817026475
0 0

0101101
*
Ed
 1.00000000666134e-07 1 1 0
1  22 0 1.20401223060921 1.93758042298058
2  77 24 0 1.20401223060921 1.93758042298058
2  78 11 0 1.20401223060921 1.93758042298058
2  79 22 2 1.20401223060921 1.93758042298058
2  80 12 0 1.20401223060921 1.93758042298058
2  81 23 0 1.20401223060921 1.93758042298058
0

0101000
+220 0 -222 0 *
Ed
 1e-07 1 1 0
1  21 0 5.12963817026475 8
2  73 3 0 5.12963817026475 8
2  74 24 0 5.12963817026475 8
2  82 22 2 5.12963817026475 8
2  83 23 0 5.12963817026475 8
0

0101000
+220 0 -228 0 *
Wi

0101100
-227 0 -225 0 -223 0 +221 0 -219 0 +218 0 *
Ve
1e-07
17.3 -4.25 -5
0 0

0101101
*
Ve
1.00000183988041e-07
20.2421604168751 -4.25 -4.99999999999997
0 0

0101101
*
Ed
 1e-07 1 1 0
1  23 0 0 2.94216041687512
2  84 22 0 0 2.94216041687512
2  85 20 0 0 2.94216041687512
2  86 23 3 0 2.94216041687512
0

0101000
+216 3 -215 3 *
Ve
1.00000156395711e-07
17.3 -4.25 -2.44948974278303
0 0

0101101
*
Ed
 1e-07 1 1 0
1  24 0 0 2.55051025721697
2  87 22 0 0 2.55051025721697
2  88 21 0 0 2.55051025721697
2  89 23 3 0 2.55051025721697
0

0101000
+216 3 -213 3 *
Ve
1.00000157686067e-07
17.3 -4.25 2.44948974278303
0 0

0101101
*
Ed
 1e-07 1 1 0
1  25 0 4.23195070863415 5.19282725213523
2  90 19 0 4.23195070863415 5.19282725213523
2  91 24 0 4.23195070863415 5.19282725213523
2  92 23 0 4.23195070863415 5.19282725213523
0

0101000
+213 0 -211 0 *
Ed
 1e-07 1 1 0
1  24 0 7.44948974278303 10
2  87 22 0 7.44948974278303 10
2  88 21 0 7.44948974278303 10
2  93 23 3 7.44948974278303 10
0

0101000
+211 3 -234 3 *
Ve
1.0000023101519e-07
23.7578395831249 -4.25 4.99999999999996
0 0

0101101
*
Ed
 1e-07 1 1 0
1  26 0 0 0.676141887243893
2  94 16 0 0 0.676141887243893
2  95 23 0 0 0.676141887243893
0

0101000
+236 0 -208 0 *
Ve
1e-07
25.3 -4.25 5
0 0

0101101
*
Ed
 1e-07 1 1 0
1  16 0 6.45783958312492 8
2  62 22 0 6.45783958312492 8
2  63 17 0 6.45783958312492 8
2  96 23 3 6.45783958312492 8
0

0101000
+208 3 -206 3 *
Ve
1.0000002148217e-07
25.3 -4.25 4.14728827066556
0 0

0101101
*
Ed
 1e-07 1 1 0
1  27 0 9.14728827066556 10
2  97 22 0 9.14728827066556 10
2  98 18 0 9.14728827066556 10
2  99 23 3 9.14728827066556 10
0

0101000
+204 3 -206 3 *
Ve
1.00000142731681e-07
25.3000000000001 -4.25 -4.14728827066542
0 0

0101101
*
Ed
 1e-07 1 1 0
1  25 0 0.672113887823833 2.46947876576593
2  90 19 0 0.672113887823833 2.46947876576593
2  91 24 0 0.672113887823833 2.46947876576593
2  100 23 0 0.672113887823833 2.46947876576593
0

0101000
+204 0 -202 0 *
Ve
1e-07
25.3 -4.25 -5
0 0

0101101
*
Ed
 1e-07 1 1 0
1  27 0 0 0.852711729334578
2  97 22 0 0 0.852711729334578
2  98 18 0 0 0.852711729334578
2  101 23 3 0 0.852711729334578
0

0101000
+200 3 -202 3 *
Ve
1.00000252317717e-07
23.7578395831244 -4.25 -5.00000000000004
0 0

0101101
*
Ed
 1e-07 1 1 0
1  23 0 6.45783958312445 8
2  84 22 0 6.45783958312445 8
2  85 20 0 6.45783958312445 8
2  102 23 3 6.45783958312445 8
0

0101000
+198 3 -200 3 *
Ed
 1e-07 1 1 0
1  25 0 2.80352170996793 3.47966359721174
2  90 19 0 2.80352170996793 3.47966359721174
2  91 24 0 2.80352170996793 3.47966359721174
2  103 23 0 2.80352170996793 3.47966359721174
0

0101000
+198 0 -215 0 *
Wi

0101100
-214 2 +212 2 +210 0 +209 2 +233 2 +207 0 +205 2 -203 2 +201 0 -199 2 
-197 2 +196 0 *
Fa
0  0 23 0

0101000
+217 0 +195 0 *
Ve
1.50000000888178e-07
24.9404791453573 4.25 4
0 0

0101101
*
Ed
 1e-07 1 1 0
1  28 0 0.168784442811233 6.11440086436835
2  104 3 0 0.168784442811233 6.11440086436835
2  105 7 0 0.168784442811233 6.11440086436835
0

0101000
+193 0 -228 0 *
Ve
1.00000005841082e-07
24.5782424107177 -6 1.80974199033365
0 0

0101101
*
Ed
 1e-07 1 1 0
1  29 0 3.37668262336382e-07 1
2  106 3 0 3.37668262336382e-07 1
2  107 12 0 3.37668262336382e-07 1
0

0101000
+191 0 -220 0 *
Ve
1.00000007806376e-07
24.5782424107177 -6 -1.80974199033365
0 0

0101101
*
Ed
 1e-07 1 1 0
1  30 0 2.19025800966635 5.80974199033365
2  108 3 0 2.19025800966635 5.80974199033365
2  109 25 0 2.19025800966635 5.80974199033365
0

0101000
+189 0 -191 0 *
Ed
 1e-07 1 1 0
1  31 0 0 0.999999662320165
2  110 3 0 0 0.999999662320165
2  111 12 0 0 0.999999662320165
0

0101000
+222 0 -189 0 *
Ve
1.50000000888178e-07
24.9404791453573 4.25 -4
0 0

0101101
*
Ed
 1e-07 1 1 0
1  32 0 0.168784442811233 6.11440086436835
2  112 3 0 0.168784442811233 6.11440086436835
2  113 2 0 0.168784442811233 6.11440086436835
0

0101000
+186 0 -224 0 *
Ve
1.00000004884981e-07
24.9404791453573 4.25 -1.12963817026475
0 0

0101101
*
Ed
 1e-07 1 1 0
1  33 0 0 2.87036182973525
2  114 3 0 0 2.87036182973525
2  115 26 0 0 2.87036182973525
2  116 27 1 0 2.87036182973525
2  117 28 0 0 2.87036182973525
0

0101000
+186 0 -184 0 *
Ve
1.00000004351168e-07
24.5782424107177 6 -1.80974199033365
0 0

0101101
*
Ed
 1e-07 1 1 0
1  34 0 0 0.99999966232016
2  118 3 0 0 0.99999966232016
2  119 12 0 0 0.99999966232016
0

0101000
+184 0 -182 0 *
Ve
1.00000004662937e-07
24.5782424107177 6 1.80974199033365
0 0

0101101
*
Ed
 1e-07 1 1 0
1  35 0 2.19025800966635 5.80974199033365
2  120 3 0 2.19025800966635 5.80974199033365
2  121 29 0 2.19025800966635 5.80974199033365
0

0101000
+182 0 -180 0 *
Ve
1.00000002664535e-07
24.9404791453573 4.25 1.12963817026475
0 0

0101101
*
Ed
 1e-07 1 1 0
1  36 0 3.37668275153639e-07 1
2  122 3 0 3.37668275153639e-07 1
2  123 12 0 3.37668275153639e-07 1
0

0101000
+180 0 -178 0 *
Ed
 1e-07 1 1 0
1  33 0 5.12963817026475 8
2  114 3 0 5.12963817026475 8
2  115 26 0 5.12963817026475 8
2  124 27 1 5.12963817026475 8
2  125 28 0 5.12963817026475 8
0

0101000
+178 0 -193 0 *
Wi

0101100
-192 0 +218 0 +190 0 +188 0 +187 0 +221 0 +185 0 -183 0 -181 0 -179 0 
-177 0 -176 0 *
Fa
0  1e-07 3 0

0101000
+175 0 *
Ve
1e-07
22 6 3.15
0 0

0101101
*
Ed
 1e-07 1 1 0
1  37 0 2.18281545636925 6.28318530717959
2  126 12 0 2.18281545636925 6.28318530717959
2  127 29 0 2.18281545636925 6.28318530717959
0

0101000
+182 0 -173 0 *
Ed
 1e-07 1 1 0
1  37 0 0 0.958777197220542
2  126 12 0 0 0.958777197220542
2  127 29 0 0 0.958777197220542
0

0101000
+173 0 -180 0 *
Wi

0101100
+172 0 -179 0 +171 0 *
Fa
0  1e-07 29 0

0101000
+170 0 *
Ve
1.50000000888178e-07
18.5185717591827 4.25 4
0 0

0101101
*
Ed
 1e-07 1 1 0
1  38 0 0 6.42190738617452
2  128 7 0 0 6.42190738617452
2  129 28 0 0 6.42190738617452
0

0101000
+193 0 -168 0 *
Ve
1.5e-07
18.5185717591827 4.25 -4
0 0

0101101
*
Ed
 1e-07 1 1 0
1  39 0 0 8
2  130 13 0 0 8
2  131 28 0 0 8
0

0101000
+168 0 -166 0 *
Ed
 1e-07 1 1 0
1  40 0 0 6.42190738617452
2  132 2 0 0 6.42190738617452
2  133 28 0 0 6.42190738617452
0

0101000
+166 0 -186 0 *
Ed
 1.00000000666134e-07 1 1 0
1  41 0 1.20401223060921 1.93758042298058
2  134 26 0 1.20401223060921 1.93758042298058
2  135 30 0 1.20401223060921 1.93758042298058
2  136 27 1 1.20401223060921 1.93758042298058
2  137 12 0 1.20401223060921 1.93758042298058
2  138 28 0 1.20401223060921 1.93758042298058
0

0101000
+178 0 -184 0 *
Wi

0101100
+167 0 +165 0 +164 0 +183 0 -163 0 +176 0 *
Ve
1e-07
17.3 4.25 -5
0 0

0101101
*
Ve
1.00000183988041e-07
20.2421604168751 4.25 -4.99999999999997
0 0

0101101
*
Ed
 1e-07 1 1 0
1  42 0 0 2.94216041687512
2  139 27 0 0 2.94216041687512
2  140 31 0 0 2.94216041687512
2  141 28 4 0 2.94216041687512
0

0101000
+161 4 -160 4 *
Ve
1.00000156395711e-07
17.3 4.25 -2.44948974278303
0 0

0101101
*
Ed
 1e-07 1 1 0
1  43 0 0 2.55051025721697
2  142 27 0 0 2.55051025721697
2  143 32 0 0 2.55051025721697
2  144 28 4 0 2.55051025721697
0

0101000
+161 4 -158 4 *
Ve
1.00000157686067e-07
17.3 4.25 2.44948974278303
0 0

0101101
*
Ed
 1e-07 1 1 0
1  44 0 4.23195070863415 5.19282725213523
2  145 33 0 4.23195070863415 5.19282725213523
2  146 26 0 4.23195070863415 5.19282725213523
2  147 28 0 4.23195070863415 5.19282725213523
0

0101000
+158 0 -156 0 *
Ve
1e-07
17.3 4.25 5
0 0

0101101
*
Ed
 1e-07 1 1 0
1  43 0 7.44948974278303 10
2  142 27 0 7.44948974278303 10
2  143 32 0 7.44948974278303 10
2  148 28 4 7.44948974278303 10
0

0101000
+156 4 -154 4 *
Ve
1.00000173183405e-07
20.2421604168751 4.25 4.99999999999997
0 0

0101101
*
Ed
 1e-07 1 1 0
1  45 0 0 2.94216041687513
2  149 27 0 0 2.94216041687513
2  150 34 0 0 2.94216041687513
2  151 28 4 0 2.94216041687513
0

0101000
+154 4 -152 4 *
Ve
1.0000023101519e-07
23.7578395831249 4.25 4.99999999999996
0 0

0101101
*
Ed
 1e-07 1 1 0
1  46 0 0 0.676141887243893
2  152 35 0 0 0.676141887243893
2  153 28 0 0 0.676141887243893
0

0101000
+152 0 -150 0 *
Ve
1e-07
25.3 4.25 5
0 0

0101101
*
Ed
 1e-07 1 1 0
1  45 0 6.45783958312492 8
2  149 27 0 6.45783958312492 8
2  150 34 0 6.45783958312492 8
2  154 28 4 6.45783958312492 8
0

0101000
+150 4 -148 4 *
Ve
1.0000002148217e-07
25.3 4.25 4.14728827066556
0 0

0101101
*
Ed
 1e-07 1 1 0
1  47 0 9.14728827066556 10
2  155 27 0 9.14728827066556 10
2  156 36 0 9.14728827066556 10
2  157 28 4 9.14728827066556 10
0

0101000
+146 4 -148 4 *
Ve
1.00000142731681e-07
25.3000000000001 4.25 -4.14728827066542
0 0

0101101
*
Ed
 1e-07 1 1 0
1  44 0 0.672113887823833 2.46947876576593
2  145 33 0 0.672113887823833 2.46947876576593
2  146 26 0 0.672113887823833 2.46947876576593
2  158 28 0 0.672113887823833 2.46947876576593
0

0101000
+146 0 -144 0 *
Ve
1e-07
25.3 4.25 -5
0 0

0101101
*
Ed
 1e-07 1 1 0
1  47 0 0 0.852711729334578
2  155 27 0 0 0.852711729334578
2  156 36 0 0 0.852711729334578
2  159 28 4 0 0.852711729334578
0

0101000
+142 4 -144 4 *
Ve
1.00000252317717e-07
23.7578395831244 4.25 -5.00000000000004
0 0

0101101
*
Ed
 1e-07 1 1 0
1  42 0 6.45783958312445 8
2  139 27 0 6.45783958312445 8
2  140 31 0 6.45783958312445 8
2  160 28 4 6.45783958312445 8
0

0101000
+140 4 -142 4 *
Ed
 1e-07 1 1 0
1  44 0 2.80352170996793 3.47966359721174
2  145 33 0 2.80352170996793 3.47966359721174
2  146 26 0 2.80352170996793 3.47966359721174
2  161 28 0 2.80352170996793 3.47966359721174
0

0101000
+140 0 -160 0 *
Wi

0101100
-159 1 +157 1 +155 0 +153 1 +151 1 +149 0 +147 1 -145 1 +143 0 -141 1 
-139 1 +138 0 *
Fa
0  0 28 0

0101000
+162 0 +137 0 *
Ve
1.00000248816808e-07
20.2421604168755 2.25 -5.00000000000004
0 0

0101101
*
Ed
 1e-07 1 1 0
1  48 0 0 2
2  162 33 0 0 2
2  163 31 1 0 2
0

0101000
+135 0 -160 0 *
Ve
1.00000252317717e-07
23.7578395831244 2.25 -5.00000000000004
0 0

0101101
*
Ed
 1e-07 1 1 0
1  49 0 2.80352170996793 3.47966359721166
2  164 33 0 2.80352170996793 3.47966359721166
2  165 4 0 2.80352170996793 3.47966359721166
2  166 6 0 2.80352170996793 3.47966359721166
0

0101000
+133 0 -135 0 *
Ed
 1e-07 1 1 0
1  50 0 0 2
2  167 33 0 0 2
2  168 31 1 0 2
0

0101000
+133 0 -140 0 *
Wi

0101100
-138 0 +134 0 +132 0 -131 0 *
Fa
0  1e-07 33 0

0101000
+130 0 *
Ve
1e-07
25.3 2.25 -5
0 0

0101101
*
Ed
 1e-07 1 1 0
1  51 0 0 2
2  169 36 0 0 2
2  170 31 0 0 2
0

0101000
-142 4 +128 4 *
Ed
 1e-07 1 1 0
1  52 0 6.45783958312445 8
2  171 5 0 6.45783958312445 8
2  172 31 0 6.45783958312445 8
2  173 6 4 6.45783958312445 8
0

0101000
+133 4 -128 4 *
Wi

0101100
-139 1 +127 1 +126 1 -131 0 *
Fa
0  1e-07 31 1

0101000
+125 0 *
Ve
1.00000102817922e-07
25.2999999999999 2.25 -4.14728827066563
0 0

0101101
*
Ed
 1e-07 1 1 0
1  53 0 0 0.852711729334368
2  174 5 0 0 0.852711729334368
2  175 36 0 0 0.852711729334368
2  176 6 4 0 0.852711729334368
0

0101000
+128 4 -123 4 *
Ed
 1e-07 1 1 0
1  54 0 0 2
2  177 33 0 0 2
2  178 36 1 0 2
0

0101000
+123 0 -144 0 *
Wi

0101100
-122 1 -121 0 +141 1 +127 1 *
Fa
0  1e-07 36 1

0101000
+120 0 *
Ve
1.0000002148217e-07
25.3 2.25 4.14728827066556
0 0

0101101
*
Ed
 1e-07 1 1 0
1  49 0 0.672113887823833 2.46947876576597
2  164 33 0 0.672113887823833 2.46947876576597
2  165 4 0 0.672113887823833 2.46947876576597
2  179 6 0 0.672113887823833 2.46947876576597
0

0101000
+118 0 -123 0 *
Ed
 1e-07 1 1 0
1  55 0 0 2
2  180 33 0 0 2
2  181 36 1 0 2
0

0101000
+118 0 -146 0 *
Wi

0101100
-143 0 +121 0 +117 0 -116 0 *
Fa
0  1e-07 33 0

0101000
+115 0 *
Ve
1e-07
25.3 2.25 5
0 0

0101101
*
Ed
 1e-07 1 1 0
1  53 0 9.14728827066556 10
2  174 5 0 9.14728827066556 10
2  175 36 0 9.14728827066556 10
2  182 6 4 9.14728827066556 10
0

0101000
+118 4 -113 4 *
Ed
 1e-07 1 1 0
1  56 0 0 2
2  183 36 0 0 2
2  184 34 0 0 2
0

0101000
-148 4 +113 4 *
Wi

0101100
-112 1 -111 1 +145 1 +116 0 *
Fa
0  1e-07 36 1

0101000
+110 0 *
Ve
1.00000183988041e-07
23.7578395831249 2.25 4.99999999999997
0 0

0101101
*
Ed
 1e-07 1 1 0
1  57 0 6.45783958312488 8
2  185 5 0 6.45783958312488 8
2  186 34 0 6.45783958312488 8
2  187 6 4 6.45783958312488 8
0

0101000
+108 4 -113 4 *
Ed
 1e-07 1 1 0
1  58 0 0 2
2  188 33 0 0 2
2  189 34 1 0 2
2  190 35 0 0 2
0

0101000
+108 0 -150 0 *
Wi

0101100
-147 1 +111 1 +107 1 -106 0 *
Fa
0  1e-07 34 1

0101000
+105 0 *
Ve
1.00000136963909e-07
20.2421604168754 2.25 5.00000000000002
0 0

0101101
*
Ed
 1e-07 1 1 0
1  59 0 0 0.676141887243826
2  191 35 0 0 0.676141887243826
2  192 6 0 0 0.676141887243826
0

0101000
+108 0 -103 0 *
Ed
 1e-07 1 1 0
1  60 0 0 2
2  193 33 0 0 2
2  194 34 1 0 2
2  195 35 0 0 2
0

0101000
+103 0 -152 0 *
Wi

0101100
-102 0 +106 0 -149 0 -101 0 *
Fa
0  0 35 0

0101000
+100 0 *
Ve
1e-07
17.3 2.25 5
0 0

0101101
*
Ed
 1e-07 1 1 0
1  57 0 0 2.94216041687544
2  185 5 0 0 2.94216041687544
2  186 34 0 0 2.94216041687544
2  196 6 4 0 2.94216041687544
0

0101000
+98 4 -103 4 *
Ed
 1e-07 1 1 0
1  61 0 0 2
2  197 32 0 0 2
2  198 34 0 0 2
0

0101000
-154 4 +98 4 *
Wi

0101100
-151 1 +101 0 +97 1 -96 1 *
Fa
0  1e-07 34 1

0101000
+95 0 *
Ve
1.00000351576203e-07
17.2999999999999 2.25 2.44948974278284
0 0

0101101
*
Ed
 1e-07 1 1 0
1  62 0 7.44948974278284 10
2  199 5 0 7.44948974278284 10
2  200 32 0 7.44948974278284 10
2  201 6 4 7.44948974278284 10
0

0101000
+93 4 -98 4 *
Ed
 1e-07 1 1 0
1  63 0 0 2
2  202 33 0 0 2
2  203 32 1 0 2
0

0101000
+93 0 -156 0 *
Wi

0101100
-92 1 -96 1 +153 1 +91 0 *
Fa
0  1e-07 32 1

0101000
+90 0 *
Ve
1.00000065942388e-07
17.3 2.25 -2.44948974278312
0 0

0101101
*
Ed
 1e-07 1 1 0
1  49 0 4.23195070863413 5.19282725213519
2  164 33 0 4.23195070863413 5.19282725213519
2  165 4 0 4.23195070863413 5.19282725213519
2  204 6 0 4.23195070863413 5.19282725213519
0

0101000
+88 0 -93 0 *
Ed
 1e-07 1 1 0
1  64 0 0 2
2  205 33 0 0 2
2  206 32 1 0 2
0

0101000
+88 0 -158 0 *
Wi

0101100
+87 0 -86 0 -155 0 +91 0 *
Fa
0  1e-07 33 0

0101000
+85 0 *
Ve
1e-07
17.3 2.25 -5
0 0

0101101
*
Ed
 1e-07 1 1 0
1  62 0 0 2.55051025721688
2  199 5 0 0 2.55051025721688
2  200 32 0 0 2.55051025721688
2  207 6 4 0 2.55051025721688
0

0101000
+83 4 -88 4 *
Ed
 1e-07 1 1 0
1  65 0 0 2
2  208 32 0 0 2
2  209 31 0 0 2
0

0101000
-161 4 +83 4 *
Wi

0101100
-82 1 -86 0 +157 1 +81 1 *
Fa
0  1e-07 32 1

0101000
+80 0 *
Ed
 1e-07 1 1 0
1  52 0 0 2.94216041687555
2  171 5 0 0 2.94216041687555
2  172 31 0 0 2.94216041687555
2  210 6 4 0 2.94216041687555
0

0101000
+83 4 -135 4 *
Wi

0101100
-159 1 +134 0 +78 1 -81 1 *
Fa
0  1e-07 31 1

0101000
+77 0 *
Ve
1e-07
22 -6 3.15
0 0

0101101
*
Ed
 1e-07 1 1 0
1  66 0 2.18281545636925 6.28318530717959
2  211 12 0 2.18281545636925 6.28318530717959
2  212 25 0 2.18281545636925 6.28318530717959
0

0101000
+189 0 -75 0 *
Ed
 1e-07 1 1 0
1  66 0 0 0.958777197220542
2  211 12 0 0 0.958777197220542
2  212 25 0 0 0.958777197220542
0

0101000
+75 0 -191 0 *
Wi

0101100
+74 0 -188 0 +73 0 *
Fa
0  1e-07 25 0

0101000
+72 0 *
Ed
 1e-07 1 1 0
1  67 0 0.225592830454518 6.05759247672507
2  213 2 0 0.225592830454518 6.05759247672507
2  214 13 0 0.225592830454518 6.05759247672507
0

0101000
+166 0 -226 0 *
Wi

0101100
+164 0 +185 0 +223 0 -70 0 *
Fa
0  1e-07 2 0

0101000
+69 0 *
Ed
 1e-07 1 1 0
1  68 0 0.225592830454518 6.05759247672507
2  215 7 0 0.225592830454518 6.05759247672507
2  216 13 0 0.225592830454518 6.05759247672507
0

0101000
+168 0 -229 0 *
Wi

0101100
-67 0 +165 0 +70 0 +225 0 *
Fa
0  1e-07 13 0

0101000
+66 0 *
Wi

0101100
-167 0 +192 0 -227 0 -67 0 *
Fa
0  1e-07 7 0

0101000
+64 0 *
Ed
 1e-07 1 1 0
1  69 0 0 2
2  217 19 0 0 2
2  218 21 2 0 2
0

0101000
+211 0 -243 0 *
Wi

0101100
-209 2 -232 2 +240 2 +62 0 *
Fa
0  1e-07 21 2

0101000
+61 0 *
Ed
 1e-07 1 1 0
1  70 0 0 2
2  219 19 0 0 2
2  220 21 2 0 2
0

0101000
+213 0 -245 0 *
Wi

0101100
+62 0 +210 0 -59 0 -242 0 *
Fa
0  1e-07 19 0

0101000
+58 0 *
Ed
 1e-07 1 1 0
1  71 0 0 2
2  221 21 0 0 2
2  222 20 0 0 2
0

0101000
-247 3 +216 3 *
Wi

0101100
-212 2 -59 0 +244 2 +56 2 *
Fa
0  1e-07 21 2

0101000
+55 0 *
Ed
 1e-07 1 1 0
1  72 0 0 2
2  223 19 0 0 2
2  224 20 2 0 2
0

0101000
+215 0 -249 0 *
Wi

0101100
-246 2 +53 0 +214 2 -56 2 *
Fa
0  1e-07 20 2

0101000
+52 0 *
Ed
 1e-07 1 1 0
1  73 0 0 2
2  225 19 0 0 2
2  226 20 2 0 2
0

0101000
+198 0 -251 0 *
Wi

0101100
-248 0 +53 0 +196 0 -50 0 *
Fa
0  1e-07 19 0

0101000
+49 0 *
Ed
 1e-07 1 1 0
1  74 0 0 2
2  227 18 0 0 2
2  228 20 0 0 2
0

0101000
-253 3 +200 3 *
Wi

0101100
-250 2 +47 2 +197 2 -50 0 *
Fa
0  1e-07 20 2

0101000
+46 0 *
Ed
 1e-07 1 1 0
1  75 0 0 2
2  229 19 0 0 2
2  230 18 2 0 2
0

0101000
+202 0 -255 0 *
Wi

0101100
-199 2 -44 0 +252 2 +47 2 *
Fa
0  1e-07 18 2

0101000
+43 0 *
Ed
 1e-07 1 1 0
1  76 0 0 2
2  231 19 0 0 2
2  232 18 2 0 2
0

0101000
+204 0 -257 0 *
Wi

0101100
-254 0 +44 0 +201 0 -41 0 *
Fa
0  1e-07 19 0

0101000
+40 0 *
Ed
 1e-07 1 1 0
1  77 0 0 2
2  233 18 0 0 2
2  234 17 0 0 2
0

0101000
-259 3 +206 3 *
Wi

0101100
-203 2 -38 2 +256 2 +41 0 *
Fa
0  1e-07 18 2

0101000
+37 0 *
Ed
 1e-07 1 1 0
1  78 0 0 2
2  235 19 0 0 2
2  236 17 2 0 2
2  237 16 0 0 2
0

0101000
+208 0 -261 0 *
Wi

0101100
-258 2 +38 2 +205 2 -35 0 *
Fa
0  1e-07 17 2

0101000
+34 0 *
Wi

0101100
+207 0 +35 0 -260 0 -235 0 *
Fa
0  0 16 0

0101000
+32 0 *
Ve
1.00000005551115e-07
18.8663059447259 2.25 0.320096185450232
0 0

0101101
*
Ed
 1e-07 1 1 0
1  79 0 0 2.00000000000535
2  238 15 0 0 2.00000000000535
2  239 12 0 0 2.00000000000535
0

0101000
+271 0 -30 0 *
Ve
1.50000000888178e-07
18.8663059447259 2.25 4
0 0

0101101
*
Ed
 1e-07 1 1 0
1  80 0 4.52009618545023 8.2
2  240 13 0 4.52009618545023 8.2
2  241 4 0 4.52009618545023 8.2
2  242 5 1 4.52009618545023 8.2
2  243 15 0 4.52009618545023 8.2
2  244 6 0 4.52009618545023 8.2
0

0101000
+30 0 -28 0 *
Ed
 1e-07 1 1 0
1  81 0 0 0.237399189018561
2  245 15 0 0 0.237399189018561
2  246 7 0 0 0.237399189018561
0

0101000
+28 0 -266 0 *
Wi

0101100
-264 0 +29 0 +27 0 +26 0 *
Fa
0  0 15 0

0101000
+25 0 *
Ve
1.5e-07
18.8663059447259 2.25 -4
0 0

0101101
*
Ed
 1e-07 1 1 0
1  82 0 0 0.237399189018561
2  247 14 0 0 0.237399189018561
2  248 2 0 0 0.237399189018561
0

0101000
+269 0 -23 0 *
Ve
1.00000005662137e-07
18.8663059447259 2.25 -0.320096185450233
0 0

0101101
*
Ed
 1e-07 1 1 0
1  80 0 0.2 3.87990381454977
2  240 13 0 0.2 3.87990381454977
2  241 4 0 0.2 3.87990381454977
2  249 5 1 0.2 3.87990381454977
2  250 14 0 0.2 3.87990381454977
2  251 6 0 0.2 3.87990381454977
0

0101000
+23 0 -21 0 *
Ed
 1e-07 1 1 0
1  83 0 0 1.99999999998139
2  252 14 0 0 1.99999999998139
2  253 12 0 0 1.99999999998139
0

0101000
+272 0 -21 0 *
Wi

0101100
-268 0 +22 0 +20 0 -19 0 *
Fa
0  0 14 0

0101000
+18 0 *
Ed
 1e-07 1 1 0
1  84 0 0 12
3  254 255CN 12 0 0 12
0

0101000
-173 0 +75 0 *
Wi

0101100
+16 0 -172 0 -181 0 -163 0 -177 0 -171 0 -16 0 +73 0 +190 0 +219 0 
+187 0 +74 0 *
Ed
 1e-07 1 1 0
1  85 0 4.610595438614 4.81418252215538
2  256 4 0 4.610595438614 4.81418252215538
2  257 30 0 4.610595438614 4.81418252215538
2  258 5 1 4.610595438614 4.81418252215538
2  259 12 0 4.610595438614 4.81418252215538
2  260 6 0 4.610595438614 4.81418252215538
0

0101000
+21 0 -30 0 *
Wi

0101100
-270 0 +19 0 +14 0 -29 0 *
Fa
0  1e-07 12 0

0101000
+15 0 +13 0 *
Ed
 1.5e-07 1 1 0
1  86 0 -14.1997519829065 -7.86630594472591
2  261 7 0 -14.1997519829065 -7.86630594472591
2  262 4 0 -14.1997519829065 -7.86630594472591
2  263 5 1 -14.1997519829065 -7.86630594472591
2  264 6 0 -14.1997519829065 -7.86630594472591
0

0101000
+279 0 -28 0 *
Wi

0101100
-265 0 -276 0 +11 0 +26 0 *
Fa
0  1e-07 7 0

0101000
+10 0 *
Ed
 1.5e-07 1 1 0
1  87 0 -14.1997519829065 -7.86630594472591
2  265 2 0 -14.1997519829065 -7.86630594472591
2  266 4 0 -14.1997519829065 -7.86630594472591
2  267 5 1 -14.1997519829065 -7.86630594472591
2  268 6 0 -14.1997519829065 -7.86630594472591
0

0101000
+281 0 -23 0 *
Wi

0101100
-14 0 -20 0 -8 0 +278 0 +11 0 -27 0 *
Wi

0101100
-102 0 +107 1 -112 1 +117 0 -122 1 -126 1 +132 0 -78 1 +82 1 +87 0 
+92 1 +97 1 *
Fa
0  0 6 0

0101000
+7 0 +6 0 *
Wi

0101100
-267 0 +280 0 +8 0 -22 0 *
Fa
0  1e-07 2 0

0101000
+4 0 *
Sh

0101100
+273 0 +237 0 +230 0 -194 0 +174 0 -169 0 +136 0 +129 0 -124 0 +119 0 
+114 0 +109 0 +104 0 +99 0 +94 0 -89 0 +84 0 -79 0 -76 0 +71 0 
-68 0 -65 0 +63 0 -60 0 +57 0 -54 0 -51 0 +48 0 -45 0 +42 0 
+39 0 +36 0 +33 0 +31 0 -24 0 -17 0 -12 0 +9 0 -5 0 -3 0 
*
So

0100000
+2 0 *

+1 0 