DBRep_DrawableShape

CASCADE Topology V3, (c) Open Cascade
Locations 0
Curve2ds 79
1 6.2831853071795862 -0 0 1 
1 0 -0 0 1 
1 0 180.27636328886842 1 0 
2 0 0 1 0 -0 1 2.5
7 0 0  6 22 5  6.2831853071795862 2.3999999999999999  6.2347158247612899 2.3999999999999999  6.1866030013134612 2.3893213875560946  6.1393249389469062 2.3682590187277928  6.093352923573077 2.3375877305586981  6.0491939395566607 2.2985600001203381  5.989769464407563 2.2338098209704231  5.9725247168756797 2.2134080075035647  5.9556478515038362 2.1918703641851938  5.9391433322884213 2.1692723691073321  5.9230159821523003 2.1456856198947789  5.8699562121804236 2.0630957460810104  5.8347835570449869 1.9998328647471932  5.8017351295735864 1.9321519413071513  5.770816971715516 1.8605962448797211  5.7420743786735118 1.7855326220065919  5.6930698542769278 1.6404879645102526  5.6721672831612002 1.5713619837131587  5.6529919141648293 1.5000327048433624  5.6356572587638647 1.4266759818510895  5.620295392709699 1.3514307248454998  5.6070544140973544 1.2744021929782203 
 0 7 0.30591645187917554 5 0.43473661039035594 5 0.74003320782638982 5 1 7
7 0 0  6 22 5  0 0.55000000000000004  0.073438609724691184 0.55000000000000004  0.14633658402025024 0.54295188043174347  0.2183734840471484 0.52905174220353224  0.28920279702290896 0.50899938589224947  0.35839398358263064 0.48398284779757911  0.45350160415832058 0.44352609587272623  0.48136468244128344 0.43089063495233076  0.50892133804130946 0.41768673176216092  0.53618311314436584 0.4039918073947299  0.5631605203910256 0.38988173762399886  0.6531465332244264 0.34118306136774601  0.71489545904392726 0.30501570517419052  0.77538609352840204 0.26783535477969689  0.83487943240267093 0.23044232579483456  0.8936347044331322 0.19358491215488319  1.0015565518013927 0.1277238781733244  1.0508849450039321 0.098346661073885233  1.1000159488180994 0.070382061741984345  1.1490585028958258 0.044337135019236529  1.1981306281654545 0.020714242801025542  1.2473674557287531 -6.0000000000000008e-07 
 0 7 0.30591645187917554 5 0.43473661039035594 5 0.74003320782638982 5 1 7
8 -6.0000000082016387e-07 2.73
1 5.6070547976189244 0 0 1 
8 -6.0000000082016387e-07 2.73
1 -0.75 1.5644487847162016 1 0 
7 0 0  4 5 2  5.6070544140973535 0.22559780702178367  5.6170491419613606 0.16745412774269344  5.6283930666137625 0.11040161820675465  5.6409908834460936 0.054538431071260704  5.6547528513943055 -6.0000000082016387e-07 
 0 5 1 5
7 0 0  4 5 2  1.8942251978610378 -5.9999999999999997e-07  1.9313907810697757 0.015635647335141226  1.9684762966537872 0.033123248770202243  2.0055494542611383 0.052149188742358299  2.0426585723228716 0.072375064126424915 
 0 5 1 5
1 0 0 1 0 
2 0 0 1 0 -0 1 2.5
7 0 0  4 5 2  0.62843245578528073 -6.0000000082016387e-07  0.64219438553327357 0.054538279682814855  0.65479226335816043 0.11040167996870276  0.66613620100443838 0.16745433592665951  0.67613089308223273 0.22559780702178667 
 0 5 1 5
7 0 0  4 5 2  4.2405267348567142 0.072375064126425803  4.277635749911636 0.052149244884974466  4.3147090561386392 0.033123215808506995  4.3517946591815155 0.015635591349417867  4.3889601093185506 -5.9999999999999997e-07 
 0 5 1 5
8 -6.0000000082016387e-07 2.73
1 0.67613050956066145 0 0 1 
8 -6.0000000082016387e-07 2.73
1 -0.75 -1.5644487847162016 1 0 
7 0 0  7 68 12  0.9272952180016123 1.3499999999999999  0.91361248959586361 1.3499999999999999  0.89999100356824546 1.3491810029857294  0.88645127491057529 1.3474932324828026  0.87301432490306374 1.3448895123191296  0.85970168111431577 1.3413252666249169  0.84653537740133022 1.3367585198326672  0.80994286947392813 1.3209681912796261  0.78686821970144716 1.3073374477101851  0.76454900795459058 1.2900450834751518  0.74320239928063891 1.2689827013708048  0.72303340317040887 1.2441548654652244  0.70423491182093123 1.2156858730338935  0.67487600825388938 1.1614678129041549  0.66354697318568101 1.1374704292218563  0.65304993414494117 1.1119226932983586  0.64343565652132917 1.0849432211129248  0.63474897528337837 1.0566771051210921  0.62702704461526237 1.0272940966478579  0.61298175250601727 0.96403862222302628  0.60683729255051477 0.92999079305993759  0.60189030086130502 0.89504423568478331  0.59816134438512869 0.8594135571471343  0.59566453708104805 0.82332406879803344  0.59440661316027898 0.78700881843508541  0.59436538554964458 0.71439900600933781  0.59558229774176585 0.67807427774121176  0.59803843880186813 0.64196912453259869  0.60172723156674957 0.60631657805860684  0.60663473602496587 0.57134204753134477  0.61274056553127232 0.53726035245124726  0.62675618156957558 0.47373652604026706  0.63449990887166108 0.44413000010878773  0.64322194904655772 0.41565058236649921  0.65288448845226554 0.38847218453821214  0.66344174431031722 0.36274333818031895  0.67484177333054518 0.33858530759010003  0.69846692510367192 0.29497557868298629  0.71059089422671062 0.27534000219772431  0.72334833267530418 0.2572631268116416  0.73668259537702829 0.24079932197552628  0.75053300775497023 0.22597782930577173  0.76483562626600465 0.21280291885158945  0.79776034509453209 0.18691554379057096  0.81657312216465916 0.17509779180759175  0.83587224078811262 0.16572270962356914  0.85557001997505133 0.15868687478864368  0.87558005432612596 0.15386314994392691  0.89581608125147905 0.15110231057261456  0.95822817547686756 0.1484445577927197  1.0008278819928407 0.15471510055334789  1.0436866603474115 0.16752050279969535  1.0866516339179224 0.18551699638967251  1.129659106108877 0.20748642053545249  1.1727085192498814 0.2322719426104832  1.2457428221504727 0.27670847746146121  1.2755815418651628 0.29553736429586952  1.3056038274637718 0.3146861428862941  1.3359578684507725 0.3337653053593671  1.366694949965739 0.35218106872133148  1.3978285292212143 0.36908069200456295  1.4490360040310584 0.39245750547421743  1.468971936656543 0.4005296881817188  1.4891118610019254 0.4073998473074551  1.5093739201744245 0.41278373262218515  1.5297318140409379 0.41647161792430526  1.5501959684198734 0.418337539608932  1.570796567068901 0.41833752096435101 
 0 8 0.057556724388478316 6 0.16204326148059089 6 0.23536015226666715 6 0.3150655838151496 6 0.39477852512933059 6 0.46856785415326196 6 0.53782887554302439 6 0.62381988280150136 6 0.80123698537880583 6 0.92402370555816649 6 1 8
7 0 0  7 68 12  0 1.5  0.034206821014371579 1.5273654568114974  0.068988936697564812 1.5542809319449695  0.10433747405852352 1.5807019748622504  0.14024667530128554 1.6065869671073638  0.1767138978249829 1.6318971223065293  0.21373961422384161 1.6565964861681555  0.31956303372470468 1.7243213900224326  0.38975674599023813 1.7659360077681785  0.46166608941367521 1.8051078912442367  0.53508471164924631 1.8415536209930365  0.60983105232567347 1.8750775769918839  0.68573209208901942 1.9055541399401599  0.81654093148399187 1.9521031761692835  0.87088568726587778 1.9697350655003825  0.92557742936982135 1.9857890440444821  0.9805561937497258 2.0002609572721863  1.0357580934978121 2.0131556257371694  1.0911123560149707 2.0244845773226987  1.2067939647724277 2.0448951022357522  1.26714742103946 2.0536970104417125  1.3275771285499354 2.0607044635470713  1.388063272910768 2.0659456838891668  1.4485845550708625 2.0694411148974523  1.5091149206239192 2.0712023792893004  1.6301313583535997 2.0712600979612938  1.6906674747990109 2.0695562497168716  1.7511948565521396 2.0661181955494583  1.8116876962910216 2.0609345303250053  1.872124900614047 2.0539849709276101  1.9324868293869568 2.0452413864286201  2.048538824775298 2.0248819359295802  2.1042568094726355 2.0135254249496932  2.1598228184136969 2.0005829005097113  2.2151638844675148 1.9860425725471631  2.2702141698030194 1.9698996178353168  2.324911891551769 1.9521585420750225  2.4301492780262137 1.9146983568387259  2.4807044494679853 1.8951795512969909  2.5307973947065987 1.8743012750358581  2.5803642662708874 1.8520984304898369  2.6293407017404173 1.8286204702410522  2.6776607891779909 1.803933194406856  2.7843478974696128 1.7460728620760315  2.8422638191713006 1.7123223992312855  2.8990038430426375 1.6769659488215836  2.9545505156346095 1.6401192934031579  3.008870300602831 1.601918874608373  3.0619149946365987 1.5625234589940082  3.2203076703353775 1.4387465154123187  3.3212310939016638 1.351123821468982  3.4170400470263447 1.2599387239645281  3.5080853062707149 1.1657594507424127  3.5945165591986847 1.0690088063549934  3.6762281661970491 0.96998153888981697  3.8053361764052114 0.79877590757854788  3.855396935538598 0.72792402791469224  3.9028523601455429 0.65584338190764102  3.9474558411741985 0.58225242603057537  3.9885200473198497 0.50710245135454279  4.0249244940985118 0.43045578348207786  4.0741313425794718 0.30371357812795691  4.0908043423869644 0.25421325997026167  4.1047701402361723 0.20407059720622872  4.115595609662841 0.15352022878540711  4.1229717306762037 0.10266131556260723  4.1267034742164794 0.051500896622567092  4.126703436927321 -6.0000000000000008e-07 
 0 8 0.057556724388478316 6 0.16204326148059089 6 0.23536015226666715 6 0.3150655838151496 6 0.39477852512933059 6 0.46856785415326196 6 0.53782887554302439 6 0.62381988280150136 6 0.80123698537880583 6 0.92402370555816649 6 1 8
8 0.030000000000000027 1.47
1 1.5707963267948966 0 0 1 
8 0.030000000000000027 1.47
1 -0.75 -0.5 1 0 
7 0 0  8 23 4  1.5707965675305231 1.0816624790356493  1.5291910545716836 1.0816624413443519  1.4893771734341064 1.0891184909332781  1.4504432028940879 1.1029062656732087  1.4118567702318905 1.1215089294433056  1.3735177170256367 1.1432666102934663  1.335598698482237 1.166576695762723  1.2983593900464763 1.190106365346747  1.2561625686517086 1.2165474318206466  1.2502280837224551 1.2202608046746357  1.2443000047137551 1.2239611825565349  1.2383778113829822 1.2276452587866069  1.2324610140067369 1.2313098047390778  1.2265491533808501 1.2349516698421379  1.2206418008203823 1.2385677815779415  1.1785286057376141 1.2641597086986416  1.1424081871634 1.2851211963846354  1.1063333671624558 1.3043094667104254  1.0702904614406556 1.3210660701517434  1.0342940935922389 1.3347388559628879  0.99839171455703213 1.3446360780150086  0.96267458462692646 1.3499999999999999  0.9272952180016123 1.3499999999999999 
 0 9 0.4610234058125452 7 0.53657477677135657 7 1 9
7 0 0  8 23 4  5.2980745238420592 -5.9999999999999997e-07  5.298074448459503 0.10401318239709545  5.3129860836540983 0.2035478970133274  5.3405643621627243 0.30060838179098537  5.3785873754125966 0.39635077418645437  5.4248034743488001 0.49080601560193149  5.4771693203951202 0.58333972609077245  5.5338884968100457 0.67317844092510748  5.6031369126665203 0.77368406181099003  5.6129938467028886 0.78778834913427853  5.6229548816592629 0.8018461004547317  5.6330178003443114 0.81585791281007292  5.6431806125782611 0.8298243045457967  5.653441555192888 0.84374571531516751  5.6637990920315255 0.85762250607922008  5.7383685708545533 0.95630196519989663  5.8061842481656516 1.0396335695215362  5.8773297610791744 1.1213933968208578  5.9516815834380159 1.2014553676799382  6.0292669781188817 1.2796286049346237  6.1102126455867838 1.355660975378417  6.1947368906162996 1.4292412667493717  6.2831853071795862 1.5 
 0 9 0.4610234058125452 7 0.53657477677135657 7 1 9
7 0 0  6 22 5  0.67613089308223273 1.2744021929782152  0.66285383415987642 1.3516406197022823  0.64744438260725723 1.4270856389046702  0.63005185473733183 1.5006313762993322  0.61080932080896833 1.5721379373744153  0.58983102554382094 1.6414280625039945  0.5407565809000151 1.786464791645388  0.51203580726038656 1.8613790114131181  0.48114647209189698 1.9327932859580705  0.44813341780596078 2.0003415370996711  0.41300256162695342 2.0634821146917339  0.36012544257158141 2.1457396684604282  0.34413928018057471 2.1691184788733491  0.32778258415297673 2.1915257882011585  0.3110599655119774 2.2128920096603331  0.29397568733929669 2.2331437601539399  0.23462415777748399 2.2980012668695888  0.1903611402279401 2.3372331824618877  0.1442742231435018 2.3680714640891845  0.096870046381729039 2.3892552191173761  0.048619430000934966 2.3999999999999999  0 2.3999999999999999 
 0 7 0.26067005146548489 5 0.56549734115288008 5 0.69318748217756221 5 1 7
7 0 0  6 22 5  5.0358178514508305 -6.0000000000000008e-07  5.0851888443243016 0.020770688625159447  5.1343939793102829 0.044465792808418392  5.1835696367937594 0.070594699508684911  5.2328348997818273 0.09865098511782093  5.2822997239828879 0.12812356312764775  5.3902780517542332 0.19404046592169924  5.4489510645244534 0.23084770156991238  5.5083619366112631 0.26818316124299607  5.5687687429878201 0.30530173220328199  5.6304312763748294 0.34140638304133814  5.7200956967890439 0.38991550676887327  5.746836817925554 0.40390107071991643  5.7738572423472396 0.41747877753253931  5.8011673529621568 0.43057481266716802  5.8287785170783479 0.44311384160852257  5.9237999456845483 0.48362462200409428  5.9931675803091915 0.50876775032068766  6.0641810197835371 0.5289279743841262  6.1364127601076319 0.54290819763968801  6.2095195041478668 0.55000000000000004  6.2831853071795862 0.55000000000000004 
 0 7 0.26067005146548489 5 0.56549734115288008 5 0.69318748217756221 5 1 7
1 0 0 1 0 
2 0 0 1 0 -0 1 3.3500000000000001
1 0 0 1 0 
2 0 0 1 0 -0 1 1.6499999999999999
1 6.2831853071795862 -0 0 1 
1 0 -0 0 1 
2 0 -2 1 0 -0 1 0.59999999999999998
1 0 1.95 1 0 
8 -1.6499999999999999 1.6499999999999999
1 1.95 0 0 1 
8 -1.6499999999999999 1.6499999999999999
1 -0.75 0 0 -1 
8 -5.999999999062311e-07 0.82041663222571182
1 1.95 -1.4696938456699067 1 0 
8 -5.999999999062311e-07 0.82041663222571182
1 2.0426581640745387 0 0 1 
8 -5.999999999062311e-07 0.82041663222571182
1 1.95 1.4696938456699067 1 0 
8 -5.999999999062311e-07 0.82041663222571182
1 4.240527143105048 0 0 1 
1 0 9 1 0 
2 0 0 1 0 -0 1 0.59999999999999998
8 -5.999999999062311e-07 0.55000060000000062
1 4.8608492513813486 0 0 1 
8 -5.999999999062311e-07 0.55000060000000062
1 5.3764432576274368 8.4499999999999993 0 1 
2 0 -2 1 0 -0 1 0.59999999999999998
1 0 8.4499999999999993 1 0 
1 6.2831853071795862 -0 0 1 
1 0 -0 0 1 
1 0 0 1 0 
2 0 0 1 0 -0 1 0.59999999999999998
8 -5.999999999062311e-07 0.55000060000000062
1 4.5639287093880307 0 0 1 
8 -5.999999999062311e-07 0.55000060000000062
1 4.0483347031419417 8.4499999999999993 0 1 
1 6.2831853071795862 -0 0 1 
1 0 -0 0 1 
7 0 0  6 52 11  6.2831853071795862 4.1500000000000004  6.2446957833707586 4.1500000000000004  6.2064441175610945 4.1379087058656907  6.1689246917375709 4.1140065519778286  6.1326198397280676 4.0791552252942314  6.0980160807443538 4.0347911676148858  6.0513567214413237 3.9603561132119247  6.0375129651539643 3.9361930755690349  6.0240426591849037 3.910637873344958  6.0109529744012953 3.8837886741456646  5.9982507070664655 3.8557394232597466  5.9706016986513282 3.7902368711110035  5.9558702814800597 3.7521631723643742  5.9417511253828268 3.7125087210375223  5.9282481453253171 3.6714065454338431  5.9153658486405547 3.6289732591146966  5.8893487110581022 3.5362892485579422  5.8763749006194104 3.4857114638064179  5.8641962385551851 3.4337215394952287  5.8528233915873997 3.3804474112367511  5.8422687039238381 3.3260004811208508  5.811585277012961 3.1507789807783748  5.7944438121346087 3.0258088032568926  5.7813837080106696 2.8970213302572225  5.7725936612549473 2.765694577724461  5.7681824754901569 2.6329817541342515  5.7681824754901569 2.4306360919046353  5.7693826490788895 2.3612861043729381  5.7717822404504346 2.2921332819841003  5.7753718809394856 2.2233655640376107  5.7801336429844037 2.1551758243074617  5.7915138374869075 2.0253091257699687  5.7979695578434383 1.9635257260816725  5.8053909377278927 1.9025264551123657  5.8137587637796599 1.8424349027587816  5.8230522669559726 1.7833842249237337  5.8518374497242434 1.6200354386520861  5.8734248351295442 1.5185073615092557  5.8979193714891371 1.4215550245120654  5.9252597992929719 1.3299946962582703  5.9554044160540691 1.2449223976151846  6.000395148237252 1.139533212185236  6.0128423247862202 1.1123211316476049  6.0256579362592682 1.0862608444055899  6.0388354945326244 1.0614403003412265  6.0523681634789908 1.0379511638098216  6.0986181902871905 0.96443959957979708  6.1331244892738974 0.92036105602134566  6.1693171758312069 0.88574267728121125  6.206712936800745 0.86200548109832931  6.2448326094087534 0.85000000000000009  6.2831853071795862 0.85000000000000009 
 0 7 0.1277154542814416 5 0.18364180889912893 5 0.25334548770167192 5 0.33160044020300639 5 0.50030072710542761 5 0.5882955898032729 5 0.66981523256204523 5 0.81841354153084456 5 0.87291141645453241 5 1 7
7 0 0  6 52 11  0 1.4000000000000001  0.078145396823983193 1.4000000000000001  0.15580762319385347 1.394044496358527  0.2326352636589688 1.3822722317740865  0.30825317790400031 1.3653534306068598  0.38219398319099673 1.344458226432909  0.48510677430204185 1.310710313169331  0.5160975833545921 1.2999046443608957  0.54675262219200982 1.288657140786019  0.57708486091599676 1.2770519346767861  0.607105713805562 1.2651710603196535  0.67386564984561481 1.2380428046172061  0.71044424296265885 1.2226842949364947  0.74660331456193874 1.2071630173357504  0.78238195004323818 1.1916143369771042  0.81781809263019134 1.1761647662888743  0.89239362601808558 1.1438301312577563  0.93145935456919526 1.1269991706846731  0.97019976977532407 1.1106068552610935  1.0086631358728562 1.0948095454308622  1.0468971172774519 1.0797516614862801  1.1669888822861954 1.0349825959422687  1.248374941507346 1.0083822182749351  1.32923456885332 0.98725774167434766  1.4097694405737244 0.97275446717683878  1.49020132428929 0.96547594742264953  1.6128350589739056 0.96547594742264942  1.6548653748196178 0.96745615457170997  1.6969098469106789 0.97141570211977901  1.738988224130483 0.97730689248554359  1.7811175899388261 0.98503802063178636  1.8624024808051141 1.0032198533562195  1.9015464678923859 1.0134281502304345  1.9407827194984784 1.0250017042433708  1.9801463371334294 1.0378180551614196  2.0196706338866637 1.0517345572210386  2.1317882728525088 1.0936728705067555  2.2048178796838602 1.1238737711274682  2.2788419009036578 1.1562853434999691  2.3542161353084521 1.1898586248090515  2.4312994068424216 1.2233737442210919  2.5395531379239951 1.2671739584890866  2.5688905901494405 1.2787312927039836  2.598526099384447 1.2900180971572779  2.6284700089299844 1.3009578233403933  2.6587341034697953 1.3114720946869864  2.7606847334307516 1.3448207048687326  2.8343905786931733 1.3655881958258616  2.909761191195817 1.3823957333239059  2.9863308067019174 1.3940867663241436  3.0637250550853747 1.4000000000000001  3.1415926535897931 1.4000000000000001 
 0 7 0.1277154542814416 5 0.18364180889912893 5 0.25334548770167192 5 0.33160044020300639 5 0.50030072710542761 5 0.5882955898032729 5 0.66981523256204523 5 0.81841354153084456 5 0.87291141645453241 5 1 7
7 0 0  6 52 11  0 0.85000000000000009  0.038489523845242304 0.85000000000000009  0.076741189609811203 0.86209129415686214  0.11426061540671062 0.88599344799570823  0.15056546744125646 0.92084477466723724  0.1851692264687908 0.96520883243865008  0.23182858284451455 1.0396438821717193  0.24567234250318651 1.0638069261887633  0.25914265056639846 1.0893621316720121  0.27223233357350818 1.116211326573358  0.28493459761643863 1.1442605708254285  0.31258360852824935 1.2097631288889759  0.32731502569952192 1.24783682763561  0.34143418179676027 1.2874912789624766  0.35493716185427338 1.3285934545661693  0.36781945853903547 1.3710267408853201  0.39383659612146227 1.4637107514419843  0.4068104065601808 1.5142885361935836  0.41898906862441648 1.5662784605048321  0.43036191559219611 1.619552588763306  0.44091660325575283 1.6739995188791685  0.47160003016665669 1.8492210192218042  0.48874149504492842 1.9741911967426466  0.50180159916894929 2.1029786697433503  0.51059164592463446 2.234305422275245  0.51500283168942929 2.3670182458658271  0.51500283168942929 2.5693639080953727  0.51380265810069614 2.6387138956270944  0.5114030667291507 2.7078667180159073  0.50781342624010073 2.7766344359623667  0.50305166419518199 2.8448241756925285  0.49167146969267933 2.9746908742300122  0.48521574933615241 3.0364742739182842  0.47779436945169618 3.0974735448876189  0.46942654339992135 3.1575650972412546  0.46013304022360391 3.21661577507632  0.43134785745533749 3.3799645613479443  0.40976047205005695 3.4814926384906952  0.38526593569040246 3.5784449754881016  0.35792550788663613 3.6700053037416396  0.32778089112553654 3.7550776023847696  0.28279015891345255 3.8604667878824164  0.27034298240309146 3.887678868343253  0.25752737095069761 3.913739155536021  0.24434981265259081 3.9385596996387426  0.23081714366659475 3.9620488362442212  0.18456711681681437 4.0355604005403354  0.15006081792791531 4.0796389438936753  0.11386813142722686 4.1142573226593502  0.076472370398686748 4.1379945189514995  0.038352697690337577 4.1500000000000004  0 4.1500000000000004 
 0 7 0.12771549786880593 5 0.18364186024195159 5 0.25334553457150999 5 0.33160048205106885 5 0.50030075812796992 5 0.58829561517922946 5 0.66981525270692399 5 0.8184135521404764 5 0.87291142369750463 5 1 7
7 0 0  6 52 11  3.1415926535897931 1.4000000000000001  3.2197380504877091 1.4000000000000001  3.2974002767659591 1.3940444963470247  3.3742279171791179 1.3822722317886471  3.4498458314663436 1.3653534306230635  3.5237866368548065 1.3444582264086367  3.6266994215093309 1.3107103152623285  3.6576902382644398 1.2999046436814059  3.6883452816976292 1.2886571386179846  3.7186775161091563 1.2770519342826254  3.7486983613669893 1.265171062769312  3.8154583034353866 1.2380428046172149  3.852036896552439 1.2226842949365011  3.8881959681517322 1.2071630173357499  3.9239746036330416 1.1916143369770995  3.9594107462199974 1.1761647662888695  4.0339862796078192 1.1438301312577828  4.0730520081589949 1.1269991706846711  4.1117924233651637 1.1106068552610737  4.1502557894626859 1.0948095454308471  4.1884897708672577 1.0797516614862752  4.3085815358761108 1.0349825959422234  4.3899675950968318 1.0083822182750264  4.4708272224434795 0.98725774167426361  4.5513620941633368 0.97275446717686664  4.6317939778791306 0.96547594742264997  4.7544277125637047 0.96547594742265008  4.7964580284094263 0.96745615457171275  4.8385025005004767 0.97141570211977968  4.8805808777202673 0.97730689248554181  4.9227102435286136 0.98503802063178625  5.0039951343948941 1.0032198533562182  5.0431391214821488 1.0134281502304257  5.0823753730882615 1.0250017042433666  5.121738990723248 1.0378180551614273  5.1612632874764932 1.0517345572210524  5.2733809264423233 1.0936728705067638  5.3464105332735832 1.1238737711274565  5.4204345544936441 1.1562853435000184  5.4958087888981471 1.1898586248090268  5.572892060432169 1.223373744221073  5.6811457915832788 1.2671739585172033  5.7104832437195148 1.2787312926990639  5.7401187529046034 1.2900180971319484  5.7700626625044249 1.3009578233325934  5.8003267571345383 1.3114720947115031  5.9022773871871514 1.3448207049232308  5.9759832322231734 1.3655881957900935  6.0513538446300448 1.3823957332913492  6.1279234602512487 1.3940867663495145  6.2053177088385976 1.4000000000000001  6.2831853071795862 1.4000000000000001 
 0 7 0.12771549786880593 5 0.18364186024195159 5 0.25334553457150999 5 0.33160048205106885 5 0.50030075812796992 5 0.58829561517922946 5 0.66981525270692399 5 0.8184135521404764 5 0.87291142369750463 5 1 7
1 0 5 1 0 
2 0 0 1 0 -0 1 3.3500000000000001
1 0 0.55000000000000071 1 0 
2 0 2 1 0 -0 1 2.5
1 6.2831853071795862 -0 0 1 
1 0 -0 0 1 
1 0 0 1 0 
2 0 0 1 0 -0 1 2.5
1 0 2.75 1 0 
2 0 0 1 0 -0 1 2.5
2 0 0 1 0 -0 1 1.25
1 0 0.19999999999999929 1 0 
1 6.2831853071795862 -0 0 1 
1 0 -0 0 1 
1 0 0 1 0 
2 0 0 1 0 -0 1 1.6499999999999999
1 0 185.27636328886842 1 0 
2 0 0 1 0 -0 1 2.5
2 0 0 1 0 -0 1 2.5
2 0 0 1 0 -0 1 1.25
1 0 2.9499999999999993 1 0 
1 6.2831853071795862 -0 0 1 
1 0 -0 0 1 
Curves 39
1 2.5 -6.1232339957367663e-16 0 0 0 1 
2 0 0 180.27636328886842 0 0 1 1 0 -0 -0 1 0 2.5
7 0 0  6 22 5  2.5 0 2.3999999999999999  2.5 -0.12117370604574051 2.3999999999999999  2.4929518804317459 -0.24145551606227711 2.3893213875560946  2.4790517422035276 -0.35913934615217191 2.3682590187277928  2.4589993858922514 -0.47256730708817174 2.3375877305586981  2.4339828477975791 -0.58022071866463709 2.2985600001203381  2.3935260958727262 -0.72316713437993785 2.2338098209704231  2.3808906349523311 -0.76439620353806914 2.2134080075035647  2.3676867317621606 -0.80448320890770386 2.1918703641851938  2.3539918073947299 -0.84341802864563864 2.1692723691073321  2.3398817376239989 -0.88119399690645217 2.1456856198947789  2.2911830613677457 -1.0045808230471147 2.0630957460810104  2.2550157051741908 -1.0848383247180129 1.9998328647471932  2.2178353547796963 -1.15873732448594 1.9321519413071513  2.180442325794834 -1.2264655392565054 1.8605962448797211  2.1435849121548833 -1.2881855123356376 1.7855326220065919  2.0777238781733245 -1.3914877171704159 1.6404879645102526  2.0483466610738863 -1.4347317317579915 1.5713619837131587  2.0203820617419841 -1.4736938876599925 1.5000327048433624  1.9943371350192354 -1.5083451801410845 1.4266759818510895  1.9707142428010263 -1.5386296322336648 1.3514307248454998  1.9499994000000009 -1.5644495325831491 1.2744021929782203 
 0 7 0.30591645187917554 5 0.43473661039035594 5 0.74003320782638982 5 1 7
1 1.95 -1.5644487847162016 0 0 0 1 
7 0 0  4 5 2  1.9499994 -1.5644495325831507 0.22559780702178367  1.9656356473351413 -1.5449598192451741 0.16745412774269347  1.9831232487702022 -1.5226313056641083 0.1104016182067543  2.0021491887423584 -1.4975254002953051 0.054538431071260995  2.0223750641264249 -1.4696935394835342 -6.0000000052973099e-07 
 0 5 1 5
2 0 0 0 0 0 1 1 0 -0 -0 1 0 2.5
7 0 0  4 5 2  2.0223750641264258 1.4696935394835335 -6.0000000102933135e-07  2.0021492448849743 1.497525323040134 0.054538279682814647  1.9831232158085059 1.522631351675833 0.110401679968703  1.9656355913494183 1.544959889028267 0.16745433592665954  1.9499994000000005 1.5644495325831507 0.22559780702178667 
 0 5 1 5
1 1.95 1.5644487847162016 0 0 0 1 
7 0 0  7 68 12  1.5 2 1.3499999999999999  1.5273654568114974 1.9794759073913772 1.3499999999999999  1.5542809319449693 1.9586067083863157 1.3491810029857294  1.5807019748622497 1.9374367943837216 1.3474932324828026  1.6065869671073636 1.9160147925346409 1.3448895123191296  1.6318971223065293 1.8943935657422635 1.3413252666249169  1.6565964861681555 1.8726302126619212 1.3367585198326672  1.7243213900224326 1.8111309433529692 1.3209681912796261  1.7659360077681754 1.7711483715908471 1.3073374477101851  1.8051078912442375 1.731364832498663 1.2900450834751518  1.8415536209930388 1.6923399664623509 1.2689827013708048  1.8750775769918826 1.6546501382431689 1.2441548654652244  1.9055541399401599 1.6188649706029576 1.2156858730338935  1.9521031761692835 1.5621168883203149 1.1614678129041549  1.9697350655003842 1.5399477541167765 1.1374704292218563  1.9857890440444825 1.5191840614715169 1.1119226932983586  2.000260957272185 1.4999902157375711 1.0849432211129248  2.0131556257371677 1.4825144439937519 1.0566771051210921  2.0244845773226987 1.4668828280182058 1.0272940966478579  2.0448951022357522 1.438310999008038 0.96403862222302628  2.0536970104417165 1.4257207730726991 0.9299907930599377  2.0607044635470735 1.4155294736174162 0.89504423568478353  2.0659456838891641 1.4078199047935553 0.8594135571471343  2.0694411148974483 1.402648524620796 0.82332406879803344  2.0712023792893004 1.4000431088655438 0.78700881843508541  2.0712600979612938 1.3999577169505599 0.71439900600933781  2.0695562497168742 1.4024781881733837 0.67807427774121176  2.0661181955494596 1.4075656386432289 0.64196912453259869  2.060934530325004 1.4151929150602967 0.60631657805860684  2.0539849709276075 1.4253042075720628 0.57134204753134477  2.0452413864286201 1.4378173565757655 0.53726035245124726  2.0248819359295802 1.4663344936377025 0.47373652604026706  2.0135254249496923 1.4820134284802293 0.44413000010878773  2.0005829005097109 1.4995637630206338 0.41565058236649921  1.986042572547164 1.5188571841171494 0.38847218453821214  1.9698996178353181 1.5397424553872538 0.36274333818031895  1.9521585420750225 1.5620516060808332 0.33858530759010003  1.9146983568387259 1.6077151391127595 0.29497557868298629  1.8951795512969898 1.6309067207341952 0.27534000219772431  1.8743012750358574 1.6550237701844879 0.2572631268116416  1.8520984304898367 1.6798991920128097 0.24079932197552628  1.8286204702410522 1.7053605392297553 0.22597782930577173  1.803933194406856 1.7312346625864206 0.21280291885158945  1.7460728620760315 1.7897787816734514 0.18691554379057096  1.7123223992312866 1.8225483277959427 0.17509779180759175  1.6769659488215838 1.8554056152040801 0.16572270962356914  1.6401192934031568 1.8881115893308282 0.15868687478864368  1.6019188746083721 1.920445641617561 0.15386314994392691  1.5625234589940082 1.9522077270726281 0.15110231057261456  1.4387465154123187 2.0472061620469351 0.1484445577927197  1.3511238214690044 2.1079591737145256 0.15471510055334789  1.259938723964467 2.1646358594357862 0.16752050279969535  1.1657594507424773 2.2167919267693437 0.18551699638967251  1.0690088063549665 2.2641851073940917 0.20748642053545249  0.96998153888981697 2.3066815015246056 0.2322719426104832  0.79877590757854788 2.3701337714477986 0.27670847746146121  0.72792402791466548 2.3936173005303685 0.29553736429586941  0.65584338190771918 2.4147916463159107 0.31468614288629415  0.5822524260304891 2.433657698874875 0.33376530535936705  0.50710245135457899 2.4500786920005275 0.35218106872133154  0.43045578348207786 2.4639322461867028 0.36908069200456295  0.30371357812795691 2.4819654824320105 0.39245750547421743  0.25421326034241931 2.4878798310567705 0.40052968818171958  0.20407059666899374 2.4926814850972505 0.40739984730745393  0.1535202285824466 2.4963162270202082 0.41278373262218487  0.10266131639403023 2.498762213602967 0.41647161792430704  0.051500896280061867 2.5000000123673436 0.41833753960893066  -6.0034250523398133e-07 2.4999999999999285 0.41833752096435101 
 0 8 0.057556724388478316 6 0.16204326148059089 6 0.23536015226666715 6 0.3150655838151496 6 0.39477852512933059 6 0.46856785415326196 6 0.53782887554302439 6 0.62381988280150136 6 0.80123698537880583 6 0.92402370555816649 6 1 8
1 0 2.5 0 0 0 1 
7 0 0  8 23 4  -6.0091953310391152e-07 2.4999999999999276 1.0816624790356493  0.10401318147756235 2.5000000250014929 1.0816624413443712  0.20354790354925348 2.4950543774956837 1.0891184909332168  0.30060836983066913 2.485907743059852 1.1029062656733035  0.39635078566249765 2.4726745536916495 1.1215089294432212  0.49080600943895675 2.4553227252429783 1.1432666102935098  0.58333972762851738 2.4340726573422566 1.1665766957627124  0.67317844092510748 2.4093663306342079 1.190106365346747  0.77368406181099003 2.3773164707401291 1.2165474318206466  0.78778834913427853 2.3727129491547125 1.2202608046746357  0.80184610045473137 2.3680188330464436 1.2239611825565349  0.81585791281007281 2.3632343181983795 1.2276452587866069  0.82982430454579659 2.3583595874878331 1.2313098047390778  0.84374571531516751 2.3533948108863774 1.2349516698421379  0.85762250607922008 2.3483401454598418 1.2385677815779415  0.95630196519989663 2.3116403927611318 1.2641597086986416  1.0396335695215115 2.2766520938924297 1.2851211963846354  1.1213933968208623 2.2382849005484435 1.3043094667104254  1.2014553676799649 2.1966068717857117 1.3210660701517434  1.2796286049346273 2.1517186495550269 1.3347388559628879  1.3556609753783913 2.1037835342153945 1.3446360780150086  1.4292412667493717 2.0530690499379713 1.3499999999999999  1.5 2 1.3499999999999999 
 0 9 0.4610234058125452 7 0.53657477677135657 7 1 9
7 0 0  6 22 5  1.9499994000000005 1.5644495325831504 1.2744021929782152  1.9707706886251601 1.5385592756507904 1.3516406197022823  1.994465792808418 1.5081802412814833 1.4270856389046702  2.0205946995086848 1.4734109425332604 1.5006313762993322  2.0486509851178218 1.4343076394767076 1.5721379373744153  2.0781235631276478 1.3908992425627213 1.6414280625039945  2.1440404659216994 1.2874253622455045 1.786464791645388  2.1808477015699128 1.225739016175829 1.8613790114131181  2.2181831612429961 1.1580615217181338 1.9327932859580705  2.2553017322032818 1.0842308245678021 2.0003415370996711  2.291406383041338 1.0040601148650565 2.0634821146917339  2.3399155067688735 0.88108938394642866 2.1457396684604282  2.3539010707199162 0.84364387952738917 2.1691184788733491  2.3674787775325394 0.80505991378940067 2.1915257882011585  2.380574812667168 0.76534376498430801 2.2128920096603331  2.3931138416085225 0.72450503245059883 2.2331437601539399  2.4336246220040945 0.58176347558983799 2.2980012668695888  2.4587677503206811 0.47387164521535097 2.3372331824618877  2.4789279743841379 0.36016921551671033 2.3680714640891845  2.4929081976396814 0.24217485993086285 2.3892552191173761  2.5 0.12154857500233762 2.3999999999999999  2.5 2.0206672185931328e-16 2.3999999999999999 
 0 7 0.26067005146548489 5 0.56549734115288008 5 0.69318748217756221 5 1 7
2 0 0 180.27636328886842 0 0 1 1 0 -0 -0 1 0 3.3500000000000001
2 1.95 0 0.75 1 0 0 -0 0 1 0 -1 0 1.6499999999999999
1 1.95 4.0413344371862655e-16 2.3999999999999999 1 0 0 
2 1.95 2 0.75 1 0 0 -0 0 1 0 -1 0 0.59999999999999998
1 1.95 0 0 0 1 0 
1 1.95 -1.4696938456699067 0 1 0 0 
1 1.95 1.4696938456699067 0 1 0 0 
2 9 2 0.75 1 0 0 -0 0 1 0 -1 0 0.59999999999999998
1 8.4499999999999993 2.4725000000000001 1.1197887910686295 1 0 0 
2 8.4499999999999993 2 0.75 1 0 0 -0 0 1 0 -1 0 0.59999999999999998
1 0 2.0000000000000004 1.3500000000000001 1 0 0 
2 0 2 0.75 1 0 0 -0 0 1 0 -1 0 0.59999999999999998
1 8.4499999999999993 2.4725000000000001 0.3802112089313705 1 0 0 
1 3.3500000000000001 -8.2051335542872666e-16 180.27636328886842 0 0 1 
7 0 0  6 52 11  3.3500000000000001 -2.2204460492503131e-16 184.42636328886843  3.3500000000000001 -0.12893990475957251 184.42636328886843  3.344044496358527 -0.25708275921446511 184.41427199473415  3.3322722317740863 -0.38243012180188174 184.3903698408462  3.3153534306068595 -0.50303807155974511 184.35551851416267  3.294458226432909 -0.61714025554137297 184.31115445648331  3.2607103131693305 -0.76976245603811089 184.23671940208035  3.2499046443608957 -0.8148698306576998 184.21255636443743  3.2386571407860196 -0.85858070167379674 184.18700116221339  3.2270519346767865 -0.90087573954632993 184.16015196301407  3.2151710603196531 -0.94174053354158638 184.13210271212816  3.188042804617206 -1.0303029190562452 184.06660015997943  3.1726842949364946 -1.0772119553738564 184.02852646123279  3.1571630173357499 -1.1219032375765539 183.98887200990592  3.1416143369771041 -1.164390745067081 183.94776983430225  3.1261647662888747 -1.2046907418891672 183.90533654798313  3.0938301312577559 -1.2856282835642616 183.8126525374264  3.0769991706846724 -1.3257065316734662 183.76207475267486  3.0606068552610934 -1.363074680893928 183.71008482836365  3.0448095454308621 -1.3977493922598239 183.65681070010513  3.0297516614862801 -1.4297432616762016 183.6023637699893  2.9849825959422689 -1.5222711385572711 183.42714226964682  2.9583822182749353 -1.5731933543173819 183.30217209212529  2.9372577416743475 -1.6115128577726141 183.17338461912567  2.9227544671768388 -1.6371390959383709 183.04205786659287  2.9154759474226495 -1.6500000000000008 182.90934504300267  2.9154759474226495 -1.6500000000000006 182.70699938077306  2.9174561545717097 -1.6465008289817726 182.63764939324139  2.9214157021197789 -1.6395051441532829 182.56849657085252  2.9273068924855434 -1.6290215309211729 182.49972885290606  2.9350380206317865 -1.6150676332619411 182.43153911317589  2.9532198533562197 -1.5815589214270742 182.30167241463838  2.9634281502304347 -1.5624927691216588 182.23988901495008  2.9750017042433705 -1.5404880859408756 182.17888974398079  2.9878180551614193 -1.5155546742066708 182.11879819162718  3.0017345572210385 -1.4877017829483321 182.05974751379219  3.0436728705067555 -1.4008686519038556 181.89639872752051  3.073873771127468 -1.3351442930707298 181.79487065037765  3.1062853434999691 -1.2597153345222667 181.69791831338054  3.1398586248090514 -1.1744152962750705 181.60635798512666  3.1733737442210916 -1.0790550578305189 181.52128568648362  3.2171739584890866 -0.93484082841009553 181.41589650105368  3.2287312927039835 -0.89477224579956138 181.38868442051603  3.2400180971572783 -0.85334249514582916 181.36262413327401  3.2509578233403942 -0.81056575045903145 181.33780358920967  3.2614720946869862 -0.76646071334579202 181.31431445267825  3.2948207048687324 -0.61515464296428291 181.2408028884482  3.3155881958258613 -0.50136157073709309 181.19672434488984  3.3323957333239056 -0.38111893114278361 181.16210596614957  3.3440867663241436 -0.25618222211020769 181.13836876996677  3.3500000000000001 -0.12848153753229052 181.12636328886842  3.3500000000000001 -4.4408920985006262e-16 181.12636328886842 
 0 7 0.1277154542814416 5 0.18364180889912893 5 0.25334548770167192 5 0.33160044020300639 5 0.50030072710542761 5 0.5882955898032729 5 0.66981523256204523 5 0.81841354153084456 5 0.87291141645453241 5 1 7
7 0 0  6 52 11  3.3500000000000001 -1.0103336092965664e-16 181.12636328886842  3.3500000000000001 0.1289399048815616 181.12636328886842  3.3440444963470233 0.25708275918528406 181.13845458302526  3.3322722317886493 0.38243012168297807 181.16235673686415  3.3153534306230616 0.50303807152819136 181.19720806353567  3.2944582264086368 0.61714025565114172 181.24157212130706  3.2607103152623291 0.76976244657269932 181.31600717104016  3.2499046436814059 0.81486983213248465 181.34017021505716  3.2386571386179845 0.85858071000571112 181.36572542054043  3.2270519342826254 0.90087574219575617 181.39257461544182  3.2151710627693117 0.94174052554447718 181.42062385969385  3.1880428046172149 1.030302919056217 181.48612641775739  3.1726842949365004 1.0772119553738404 181.52420011650403  3.1571630173357499 1.1219032375765561 181.56385456783087  3.1416143369770992 1.1643907450670943 181.6049567434346  3.1261647662888694 1.2046907418891812 181.64739002975375  3.0938301312577825 1.2856282835641963 181.74007404031042  3.0769991706846711 1.3257065316734791 181.79065182506201  3.0606068552610739 1.3630746808939758 181.84264174937326  3.0448095454308475 1.3977493922598523 181.89591587763172  3.0297516614862752 1.4297432616762122 181.95036280774761  2.9849825959422236 1.5222711385573646 182.12558430809023  2.9583822182750259 1.5731933543172052 182.25055448561105  2.937257741674264 1.6115128577727678 182.37934195861177  2.9227544671768659 1.6371390959383247 182.51066871114367  2.9154759474226499 1.6500000000000004 182.64338153473426  2.9154759474226499 1.6500000000000004 182.84572719696379  2.9174561545717128 1.64650082898177 182.91507718449554  2.9214157021197793 1.6395051441532817 182.98423000688433  2.9273068924855412 1.6290215309211746 183.05299772483079  2.9350380206317865 1.6150676332619422 183.12118746456096  2.9532198533562184 1.5815589214270773 183.25105416309847  2.9634281502304254 1.5624927691216739 183.31283756278671  2.9750017042433661 1.5404880859408854 183.37383683375606  2.9878180551614277 1.5155546742066583 183.43392838610973  3.0017345572210523 1.4877017829483037 183.49297906394474  3.0436728705067635 1.4008686519038394 183.65632785021637  3.0738737711274546 1.3351442930707662 183.75785592735917  3.1062853435000206 1.2597153345221328 183.85480826435645  3.1398586248090252 1.1744152962751302 183.9463685926101  3.173373744221073 1.0790550578305791 184.0314408912532  3.2171739585172028 0.93484082831752113 184.13683007675081  3.2287312926990634 0.89477224583193082 184.1640421572117  3.2400180971319479 0.85334249524433237 184.19010244440446  3.2509578233325942 0.81056575047647461 184.21492298850717  3.2614720947115035 0.76646071323455756 184.23841212511263  3.294820704923231 0.61515464271702036 184.31192368940876  3.3155881957900935 0.50136157080527299 184.35600223276202  3.3323957332913494 0.3811189314083373 184.39062061152782  3.3440867663495144 0.25618222217689607 184.41435780781993  3.3500000000000001 0.12848153726263106 184.42636328886843  3.3500000000000001 2.020667218593133e-16 184.42636328886843 
 0 7 0.12771549786880593 5 0.18364186024195159 5 0.25334553457150999 5 0.33160048205106885 5 0.50030075812796992 5 0.58829561517922946 5 0.66981525270692399 5 0.8184135521404764 5 0.87291142369750463 5 1 7
2 0 0 185.27636328886842 0 0 1 1 0 -0 -0 1 0 3.3500000000000001
2 9 0 0.75 1 0 0 -0 0 1 0 -1 0 2.5
1 8.4499999999999993 6.1232339957367653e-16 3.25 1 0 0 
2 8.4499999999999993 0 0.75 1 0 0 -0 0 1 0 -1 0 2.5
2 11.199999999999999 0 0.75 1 0 0 -0 0 1 0 -1 0 2.5
2 8.4499999999999993 0 0.75 1 0 0 -0 0 1 0 -1 0 1.25
1 1.95 4.0413344371862473e-16 184.42636328886843 1 0 0 
2 1.95 0 182.77636328886842 1 0 0 -0 0 1 0 -1 0 1.6499999999999999
2 0 0 185.27636328886842 0 0 1 1 0 -0 -0 1 0 2.5
2 11.199999999999999 0 0.75 1 0 0 -0 0 1 0 -1 0 1.25
1 8.25 3.0616169978683831e-16 2 1 0 0 
Polygon3D 0
PolygonOnTriangulations 0
Surfaces 17
2 0 0 0 0 0 1 1 0 -0 -0 1 0 2.5
1 0 0 180.27636328886842 0 0 1 1 0 -0 -0 1 0 
2 1.95 0 0.75 1 0 0 -0 0 1 0 -1 0 1.6499999999999999
1 1.95 0 0.75 1 0 0 -0 0 1 0 -1 0 
1 0 0 0 0 0 1 1 0 -0 -0 1 0 
2 0 2 0.75 1 0 0 -0 0 1 0 -1 0 0.59999999999999998
1 0 2 0.75 1 0 0 -0 0 1 0 -1 0 
2 0 0 180.27636328886842 0 0 1 1 0 -0 -0 1 0 3.3500000000000001
1 9 2 0.75 1 0 0 -0 0 1 0 -1 0 
2 8.4499999999999993 0 0.75 1 0 0 -0 0 1 0 -1 0 2.5
1 8.4499999999999993 0 0.75 1 0 0 -0 0 1 0 -1 0 
2 1.95 0 182.77636328886842 1 0 0 -0 0 1 0 -1 0 1.6499999999999999
1 0 0 185.27636328886842 0 0 1 1 0 -0 -0 1 0 
1 11.199999999999999 0 0.75 1 0 0 -0 0 1 0 -1 0 
2 8.25 0 0.75 1 0 0 -0 0 1 0 -1 0 1.25
1 1.95 0 182.77636328886842 1 0 0 -0 0 1 0 -1 0 
1 0 0 185.27636328886842 0 0 1 1 0 -0 -0 1 0 
Triangulations 0

TShapes 125
Ve
1.00000000508228e-07
2.5 -1.04094977927525e-16 2.4
0 0

0101101
*
Ve
1.00000000612323e-07
2.5 -6.12323399573677e-16 180.276363288868
0 0

0101101
*
Ed
 1e-07 1 1 0
1  1 0 2.4 180.276363288868
3  1 2CN 1 0 2.4 180.276363288868
0

0101000
+125 0 -124 0 *
Ed
 1e-07 1 1 0
1  2 0 0 6.28318530717959
2  3 1 0 0 6.28318530717959
2  4 2 0 0 6.28318530717959
0

0101100
+124 0 -124 0 *
Ve
1.00000000628037e-07
1.95 -1.5644487847162 1.27440442408508
0 0

0101101
*
Ed
 1e-07 1 1 0
1  3 0 0 0.99999874502378
2  5 1 0 0 0.99999874502378
2  6 3 0 0 0.99999874502378
0

0101000
+125 0 -121 0 *
Ve
1.00000000582867e-07
1.95 -1.5644487847162 0.225595575914925
0 0

0101101
*
Ed
 1e-07 1 1 0
1  4 0 0.225595575914925 1.27440442408508
2  7 1 0 0.225595575914925 1.27440442408508
2  8 4 0 0.225595575914925 1.27440442408508
0

0101000
+119 0 -121 0 *
Ve
1.0000000116873e-07
2.02237484161567 -1.46969384566991 0
0 0

0101101
*
Ed
 1e-07 1 1 0
1  5 0 9.59307825630525e-06 0.999997249676382
2  9 1 0 9.59307825630525e-06 0.999997249676382
2  10 3 0 9.59307825630525e-06 0.999997249676382
0

0101000
+119 0 -117 0 *
Ve
1.00000000896767e-07
2.02237484161567 1.46969384566991 0
0 0

0101101
*
Ed
 1e-07 1 1 0
1  6 0 0.62843260718469 5.6547526999949
2  11 1 0 0.62843260718469 5.6547526999949
2  12 5 0 0.62843260718469 5.6547526999949
0

0101000
+115 0 -117 0 *
Ve
1.00000000984052e-07
1.95 1.5644487847162 0.225595575914924
0 0

0101101
*
Ed
 1e-07 1 1 0
1  7 0 2.75033125366638e-06 0.999990406887383
2  13 1 0 2.75033125366638e-06 0.999990406887383
2  14 3 0 2.75033125366638e-06 0.999990406887383
0

0101000
+115 0 -113 0 *
Ve
1.04329874585563e-07
1.95 1.5644487847162 0.337331684200487
0 0

0101101
*
Ed
 1e-07 1 1 0
1  8 0 0.225595575914924 0.337331684200487
2  15 1 0 0.225595575914924 0.337331684200487
2  16 4 0 0.225595575914924 0.337331684200487
0

0101000
+113 0 -111 0 *
Ve
1.00000001351229e-07
0 2.5 0.41833752096446
0 0

0101101
*
Ed
 1e-07 1 1 0
1  9 0 0.458891819573418 0.999999873479958
2  17 1 0 0.458891819573418 0.999999873479958
2  18 6 0 0.458891819573418 0.999999873479958
0

0101000
+111 0 -109 0 *
Ve
1.00000000019802e-07
0 2.5 1.08166247903554
0 0

0101101
*
Ed
 1e-07 1 1 0
1  10 0 0.41833752096446 1.08166247903554
2  19 1 0 0.41833752096446 1.08166247903554
2  20 7 0 0.41833752096446 1.08166247903554
0

0101000
+109 0 -107 0 *
Ve
1.00000000830815e-07
1.5 2 1.35
0 0

0101101
*
Ed
 1e-07 1 1 0
1  11 0 3.32934243832657e-07 1
2  21 1 0 3.32934243832657e-07 1
2  22 6 0 3.32934243832657e-07 1
0

0101000
+107 0 -105 0 *
Ve
1.04930343888796e-07
1.95 1.5644487847162 1.16266831579951
0 0

0101101
*
Ed
 1e-07 1 1 0
1  9 0 0 0.171679354949554
2  17 1 0 0 0.171679354949554
2  18 6 0 0 0.171679354949554
0

0101000
+105 0 -103 0 *
Ve
1.00000000496507e-07
1.95 1.5644487847162 1.27440442408508
0 0

0101101
*
Ed
 1e-07 1 1 0
1  8 0 1.16266831579951 1.27440442408508
2  15 1 0 1.16266831579951 1.27440442408508
2  16 4 0 1.16266831579951 1.27440442408508
0

0101000
+103 0 -101 0 *
Ed
 1e-07 1 1 0
1  12 0 1.25495155560666e-06 1
2  23 1 0 1.25495155560666e-06 1
2  24 3 0 1.25495155560666e-06 1
0

0101000
+101 0 -125 0 *
Wi

0101100
-123 0 -122 0 +123 0 -120 0 +118 0 -116 0 +114 0 -112 0 -110 0 -108 0 
-106 0 -104 0 -102 0 -100 0 -99 0 *
Fa
0  1e-07 1 0

0101000
+98 0 *
Ve
1e-07
3.35 -8.20513355428727e-16 180.276363288868
0 0

0101101
*
Ed
 1e-07 1 1 0
1  13 0 0 6.28318530717959
2  25 8 0 0 6.28318530717959
2  26 2 0 0 6.28318530717959
0

0101000
+96 0 -96 0 *
Wi

0101100
+95 0 *
Wi

0101100
-122 0 *
Fa
0  1e-07 2 0

0101000
+94 0 +93 0 *
Ve
1e-07
1.95 4.04133443718627e-16 2.4
0 0

0101101
*
Ed
 1e-07 1 1 0
1  14 0 0 1.24736602959941
2  27 3 0 0 1.24736602959941
2  28 4 0 0 1.24736602959941
0

0101000
+91 0 -121 0 *
Ed
 1e-07 1 1 0
1  15 0 0 0.55
3  29 30CN 3 0 0 0.55
0

0101000
+91 0 -125 0 *
Wi

0101100
-120 0 +90 0 -89 0 *
Fa
0  1e-07 3 0

0101000
+88 0 *
Ed
 1e-07 1 1 0
1  16 0 0.812369188892887 2.32922346469691
2  31 4 0 0.812369188892887 2.32922346469691
2  32 6 0 0.812369188892887 2.32922346469691
0

0101000
+103 0 -111 0 *
Ve
1.50000000111022e-07
1.95 1.46969384566991 1.11022302462516e-16
0 0

0101101
*
Ed
 1e-07 1 1 0
1  14 0 4.24052714310505 4.3889586831892
2  27 3 0 4.24052714310505 4.3889586831892
2  28 4 0 4.24052714310505 4.3889586831892
0

0101000
+85 0 -113 0 *
Ve
1.50000000333067e-07
1.95 -1.46969384566991 -3.33066907387547e-16
0 0

0101101
*
Ed
 1.5e-07 1 1 0
1  17 0 -1.46969384566991 1.46969384566991
2  33 5 0 -1.46969384566991 1.46969384566991
2  34 4 0 -1.46969384566991 1.46969384566991
0

0101000
+83 0 -85 0 *
Ed
 1e-07 1 1 0
1  14 0 1.89422662399039 2.04265816407454
2  27 3 0 1.89422662399039 2.04265816407454
2  28 4 0 1.89422662399039 2.04265816407454
0

0101000
+119 0 -83 0 *
Ed
 1e-07 1 1 0
1  14 0 5.03581927758018 6.28318530717959
2  27 3 0 5.03581927758018 6.28318530717959
2  28 4 0 5.03581927758018 6.28318530717959
0

0101000
+101 0 -91 0 *
Wi

0101100
+100 0 -86 0 +110 0 +84 0 +82 0 +81 0 -118 0 +90 0 +80 0 *
Fa
0  1e-07 4 0

0101000
+79 0 *
Ed
 1e-07 1 1 0
1  18 0 0 0.072374841615668
2  35 5 0 0 0.072374841615668
2  36 3 0 0 0.072374841615668
0

0101000
+83 0 -117 0 *
Wi

0101100
-116 0 +77 0 +81 0 *
Fa
0  1e-07 3 0

0101000
+76 0 *
Ed
 1e-07 1 1 0
1  19 0 0 0.0723748416156684
2  37 5 0 0 0.0723748416156684
2  38 3 0 0 0.0723748416156684
0

0101000
+85 0 -115 0 *
Wi

0101100
+74 0 +82 0 -77 0 +114 0 *
Fa
0  1e-07 5 0

0101000
+73 0 *
Wi

0101100
+84 0 -74 0 -112 0 *
Fa
0  1e-07 3 0

0101000
+71 0 *
Ve
1.00000001831868e-07
9 2.4725 0.380211208931369
0 0

0101101
*
Ve
1.0000000226442e-07
9 2.4725 1.11978879106863
0 0

0101101
*
Ed
 1e-07 1 1 0
1  20 0 4.04833470314194 5.37644325762744
2  39 6 0 4.04833470314194 5.37644325762744
2  40 9 0 4.04833470314194 5.37644325762744
0

0101000
+69 0 -68 0 *
Ve
1.00000001256074e-07
8.45 2.4725 1.11978879106863
0 0

0101101
*
Ed
 1e-07 1 1 0
1  21 0 0 0.550000000000001
2  41 10 0 0 0.550000000000001
2  42 6 0 0 0.550000000000001
0

0101000
+66 0 -68 0 *
Ve
1.00000000444089e-07
8.45 2 1.35
0 0

0101101
*
Ed
 1e-07 1 1 0
1  22 0 5.37644325762744 6.28318530717959
2  43 11 0 5.37644325762744 6.28318530717959
2  44 6 0 5.37644325762744 6.28318530717959
0

0101000
+66 0 -64 0 *
Ed
 1e-07 1 1 0
1  23 0 1.5 8.45
3  45 46CN 6 0 1.5 8.45
0

0101000
+105 0 -64 0 *
Ed
 1e-07 1 1 0
1  24 0 4.12670343692754 5.29807452384184
2  47 6 0 4.12670343692754 5.29807452384184
2  48 7 0 4.12670343692754 5.29807452384184
0

0101000
+109 0 -107 0 *
Ve
1.00000000800593e-07
8.45 2.4725 0.38021120893137
0 0

0101101
*
Ed
 1e-07 1 1 0
1  22 0 0 4.04833470314194
2  43 11 0 0 4.04833470314194
2  44 6 0 0 4.04833470314194
0

0101000
+64 0 -60 0 *
Ed
 1e-07 1 1 0
1  25 0 0 0.550000000000001
2  49 10 0 0 0.550000000000001
2  50 6 0 0 0.550000000000001
0

0101000
+60 0 -69 0 *
Wi

0101100
-67 0 +65 0 -63 0 +62 0 +104 0 +61 0 +108 0 +86 0 +102 0 -62 0 
-59 0 -58 0 *
Fa
0  1e-07 6 0

0101000
+57 0 *
Wi

0101100
-106 0 +61 0 *
Fa
0  1e-07 7 0

0101000
+55 0 *
Wi

0101100
+89 0 +80 0 -99 0 *
Fa
0  1e-07 3 0

0101000
+53 0 *
Ve
1.00000000612323e-07
3.35 -2.08189955855051e-16 184.426363288868
0 0

0101101
*
Ve
1e-07
3.35 -8.20513355428727e-16 185.276363288868
0 0

0101101
*
Ed
 1e-07 1 1 0
1  26 0 4.15000000000001 5
3  51 52CN 8 0 4.15000000000001 5
0

0101000
+51 0 -50 0 *
Ve
1.00001051603495e-07
3.35 -8.20513355428727e-16 181.126363288867
0 0

0101101
*
Ed
 1e-07 1 1 0
1  27 0 0 1
2  53 8 0 0 1
2  54 12 0 0 1
0

0101000
+51 0 -48 0 *
Ed
 1e-07 1 1 0
1  26 0 0 0.849999999998943
3  51 52CN 8 0 0 0.849999999998943
0

0101000
+96 0 -48 0 *
Ed
 1e-07 1 1 0
1  28 0 0 1
2  55 8 0 0 1
2  56 12 0 0 1
0

0101000
+48 0 -51 0 *
Ed
 1e-07 1 1 0
1  29 0 0 6.28318530717959
2  57 8 0 0 6.28318530717959
2  58 13 0 0 6.28318530717959
0

0101000
+50 0 -50 0 *
Wi

0101100
+49 0 -47 0 +46 0 +95 0 -46 0 -45 0 -49 0 -44 0 *
Fa
0  1e-07 8 0

0101000
+43 0 *
Ed
 1e-07 1 1 0
1  30 0 4.56392870938803 4.86084925138135
2  59 10 0 4.56392870938803 4.86084925138135
2  60 9 0 4.56392870938803 4.86084925138135
0

0101000
+69 0 -68 0 *
Wi

0101100
-41 0 +67 0 *
Fa
0  1e-07 9 0

0101000
+40 0 *
Ve
1e-07
11.2 6.12323399573677e-16 3.25
0 0

0101101
*
Ve
1e-07
8.45 6.12323399573677e-16 3.25
0 0

0101101
*
Ed
 1e-07 1 1 0
1  31 0 0 2.75
3  61 62CN 10 0 0 2.75
0

0101000
-38 0 +37 0 *
Ed
 1e-07 1 1 0
1  32 0 4.86084925138135 6.28318530717959
2  63 10 0 4.86084925138135 6.28318530717959
2  64 11 0 4.86084925138135 6.28318530717959
0

0101000
+66 0 -37 0 *
Ed
 1e-07 1 1 0
1  32 0 0 4.56392870938803
2  63 10 0 0 4.56392870938803
2  64 11 0 0 4.56392870938803
0

0101000
+37 0 -60 0 *
Ed
 1e-07 1 1 0
1  33 0 0 6.28318530717959
2  65 10 0 0 6.28318530717959
2  66 14 0 0 6.28318530717959
0

0101000
+38 0 -38 0 *
Wi

0101100
+36 0 +35 0 -65 0 +41 0 +58 0 +34 0 -36 0 -33 0 *
Fa
0  1e-07 10 0

0101000
+32 0 *
Wi

0101100
+35 0 -63 0 -59 0 +34 0 *
Ve
1.00000000306162e-07
8.45 3.06161699786838e-16 2
0 0

0101101
*
Ed
 1e-07 1 1 0
1  34 0 0 6.28318530717959
2  67 11 0 0 6.28318530717959
2  68 15 0 0 6.28318530717959
0

0101100
+29 0 -29 0 *
Wi

0101100
-28 0 *
Fa
0  1e-07 11 0

0101000
+30 0 +27 0 *
Ve
1e-07
1.95 4.04133443718625e-16 184.426363288868
0 0

0101101
*
Ed
 1e-07 1 1 0
1  35 0 0 1.4
3  69 70CN 12 0 0 1.4
0

0101000
+25 0 -51 0 *
Ed
 1e-07 1 1 0
1  36 0 0 6.28318530717959
2  71 12 0 0 6.28318530717959
2  72 16 0 0 6.28318530717959
0

0101000
+25 0 -25 0 *
Wi

0101100
-47 0 -45 0 +24 0 +23 0 -24 0 *
Fa
0  1e-07 12 0

0101000
+22 0 *
Wi

0101100
+44 0 *
Ve
1e-07
2.5 -6.12323399573677e-16 185.276363288868
0 0

0101101
*
Ed
 1e-07 1 1 0
1  37 0 0 6.28318530717959
2  73 1 0 0 6.28318530717959
2  74 17 0 0 6.28318530717959
2  75 13 0 0 6.28318530717959
0

0101000
+19 0 -19 0 *
Wi

0101100
-18 0 *
Fa
0  1e-07 13 0

0101000
+20 0 +17 0 *
Wi

0101100
+33 0 *
Ve
1.00000000306162e-07
11.2 3.06161699786838e-16 2
0 0

0101101
*
Ed
 1e-07 1 1 0
1  38 0 0 6.28318530717959
2  76 14 0 0 6.28318530717959
2  77 15 0 0 6.28318530717959
0

0101100
+14 0 -14 0 *
Wi

0101100
-13 0 *
Fa
0  1e-07 14 0

0101000
+15 0 +12 0 *
Ed
 1e-07 1 1 0
1  39 0 0.199999999999999 2.95
3  78 79CN 15 0 0.199999999999999 2.95
0

0101000
+29 0 -14 0 *
Wi

0101100
-13 0 +10 0 +28 0 -10 0 *
Fa
0  1e-07 15 0

0101000
+9 0 *
Wi

0101100
-23 0 *
Fa
0  1e-07 16 0

0101000
-7 0 *
Wi

0101100
+18 0 *
Fa
0  1e-07 17 0

0101000
+5 0 *
Sh

0101100
+97 0 -92 0 -87 0 +78 0 -75 0 -72 0 -70 0 +56 0 -54 0 -52 0 
+42 0 +39 0 +31 0 -26 0 -21 0 +16 0 +11 0 -8 0 +6 0 +4 0 
*
So

0100000
+3 0 *
Co

0100000
+2 0 *

+1 0 