DBRep_DrawableShape

CASCADE Topology V3, (c) Open Cascade
Locations 90
1
              1              -0               0              -0 
              0               1               0               0 
             -0               0               1              -0 
2  1 -1 0
1
              1               0               0            -0.4 
              0               1               0               0 
              0               0               1              -4 
1
              1               0               0               4 
              0               1               0               0 
              0               0               1            -8.5 
1
0.17364817766693               0 0.984807753012208               0 
              0               1               0               0 
-0.984807753012208               0 0.17364817766693               0 
1
              1               0               0              18 
              0               1               0               0 
              0               0               1             480 
1
              1               0               0               0 
              0               1               0               0 
              0               0               1               0 
1
              1               0               0              18 
              0               1               0               0 
              0               0               1             480 
2  3 1 4 1 5 1 6 1 7 1 8 -1 0
1
              1               0               0               0 
              0               1               0               0 
              0               0               1             340 
1
              1               0               0               0 
              0               1               0               0 
              0               0               1            -125 
1
              1               0               0               0 
              0               1               0               0 
              0               0               1               0 
1
              1               0               0              18 
              0               1               0               0 
              0               0               1             480 
2  10 1 11 -1 12 -1 13 -1 1 -1 0
1
              1               0               0               0 
              0               1               0               0 
              0               0               1             340 
1
              1               0               0               0 
              0               1               0               0 
              0               0               1            -125 
1
              1               0               0               0 
              0               1               0               0 
              0               0               1               0 
1
              1               0               0              18 
              0               1               0               0 
              0               0               1             480 
2  15 1 16 -1 17 -1 18 -1 1 -1 0
1
              1               0               0               0 
              0               1               0               0 
              0               0               1            -125 
1
           -0.5 -0.866025403784439               0               0 
0.866025403784439            -0.5               0               0 
              0               0               1               0 
1
              1               0               0              18 
              0               1               0               0 
              0               0               1             480 
2  10 1 20 -1 21 -1 22 -1 1 -1 0
1
              1               0               0               0 
              0               1               0               0 
              0               0               1            -125 
1
           -0.5 -0.866025403784439               0               0 
0.866025403784439            -0.5               0               0 
              0               0               1               0 
1
              1               0               0              18 
              0               1               0               0 
              0               0               1             480 
2  15 1 24 -1 25 -1 26 -1 1 -1 0
1
              1               0               0               0 
              0               1               0               0 
              0               0               1            -125 
1
           -0.5 0.866025403784438               0               0 
-0.866025403784438            -0.5               0               0 
              0               0               1               0 
1
              1               0               0              18 
              0               1               0               0 
              0               0               1             480 
2  10 1 28 -1 29 -1 30 -1 1 -1 0
1
              1               0               0               0 
              0               1               0               0 
              0               0               1            -125 
1
           -0.5 0.866025403784438               0               0 
-0.866025403784438            -0.5               0               0 
              0               0               1               0 
1
              1               0               0              18 
              0               1               0               0 
              0               0               1             480 
2  15 1 32 -1 33 -1 34 -1 1 -1 0
2  8 1 7 -1 6 -1 5 -1 4 -1 3 -1 0
2  10 1 11 -1 12 -1 13 -1 0
2  15 1 16 -1 17 -1 18 -1 0
2  10 1 20 -1 21 -1 22 -1 0
2  15 1 24 -1 25 -1 26 -1 0
2  10 1 28 -1 29 -1 30 -1 0
2  15 1 32 -1 33 -1 34 -1 0
1
              1               0               0               7 
              0               1               0              -8 
              0               0               1            3.05 
1
              1               0               0            -0.4 
              0               1               0               0 
              0               0               1              -4 
1
              1               0               0               4 
              0               1               0               0 
              0               0               1            -8.5 
1
0.17364817766693               0 0.984807753012208               0 
              0               1               0               0 
-0.984807753012208               0 0.17364817766693               0 
1
              1               0               0              18 
              0               1               0               0 
              0               0               1             480 
1
              1               0               0               0 
              0               1               0               0 
              0               0               1               0 
1
              1               0               0               0 
              0               1               0               0 
              0               0               1            -125 
2  43 1 44 1 45 1 46 1 47 1 48 1 49 1 11 -1 12 -1 13 -1 0
1
              1               0               0               7 
              0               1               0              -8 
              0               0               1            3.05 
1
              1               0               0            -0.4 
              0               1               0               0 
              0               0               1              -4 
1
              1               0               0               4 
              0               1               0               0 
              0               0               1            -8.5 
1
0.17364817766693               0 0.984807753012208               0 
              0               1               0               0 
-0.984807753012208               0 0.17364817766693               0 
1
              1               0               0              18 
              0               1               0               0 
              0               0               1             480 
1
              1               0               0               0 
              0               1               0               0 
              0               0               1               0 
1
              1               0               0               0 
              0               1               0               0 
              0               0               1            -125 
2  51 1 52 1 53 1 54 1 55 1 56 1 57 1 16 -1 17 -1 18 -1 0
1
              1               0               0               7 
              0               1               0              -8 
              0               0               1            3.05 
1
              1               0               0            -0.4 
              0               1               0               0 
              0               0               1              -4 
1
              1               0               0               4 
              0               1               0               0 
              0               0               1            -8.5 
1
0.17364817766693               0 0.984807753012208               0 
              0               1               0               0 
-0.984807753012208               0 0.17364817766693               0 
1
              1               0               0              18 
              0               1               0               0 
              0               0               1             480 
1
           -0.5 -0.866025403784439               0               0 
0.866025403784439            -0.5               0               0 
              0               0               1               0 
1
              1               0               0               0 
              0               1               0               0 
              0               0               1            -125 
2  59 1 60 1 61 1 62 1 63 1 64 1 65 1 20 -1 21 -1 22 -1 0
1
              1               0               0               7 
              0               1               0              -8 
              0               0               1            3.05 
1
              1               0               0            -0.4 
              0               1               0               0 
              0               0               1              -4 
1
              1               0               0               4 
              0               1               0               0 
              0               0               1            -8.5 
1
0.17364817766693               0 0.984807753012208               0 
              0               1               0               0 
-0.984807753012208               0 0.17364817766693               0 
1
              1               0               0              18 
              0               1               0               0 
              0               0               1             480 
1
           -0.5 -0.866025403784439               0               0 
0.866025403784439            -0.5               0               0 
              0               0               1               0 
1
              1               0               0               0 
              0               1               0               0 
              0               0               1            -125 
2  67 1 68 1 69 1 70 1 71 1 72 1 73 1 24 -1 25 -1 26 -1 0
1
              1               0               0               7 
              0               1               0              -8 
              0               0               1            3.05 
1
              1               0               0            -0.4 
              0               1               0               0 
              0               0               1              -4 
1
              1               0               0               4 
              0               1               0               0 
              0               0               1            -8.5 
1
0.17364817766693               0 0.984807753012208               0 
              0               1               0               0 
-0.984807753012208               0 0.17364817766693               0 
1
              1               0               0              18 
              0               1               0               0 
              0               0               1             480 
1
           -0.5 0.866025403784438               0               0 
-0.866025403784438            -0.5               0               0 
              0               0               1               0 
1
              1               0               0               0 
              0               1               0               0 
              0               0               1            -125 
2  75 1 76 1 77 1 78 1 79 1 80 1 81 1 28 -1 29 -1 30 -1 0
1
              1               0               0               7 
              0               1               0              -8 
              0               0               1            3.05 
1
              1               0               0            -0.4 
              0               1               0               0 
              0               0               1              -4 
1
              1               0               0               4 
              0               1               0               0 
              0               0               1            -8.5 
1
0.17364817766693               0 0.984807753012208               0 
              0               1               0               0 
-0.984807753012208               0 0.17364817766693               0 
1
              1               0               0              18 
              0               1               0               0 
              0               0               1             480 
1
           -0.5 0.866025403784438               0               0 
-0.866025403784438            -0.5               0               0 
              0               0               1               0 
1
              1               0               0               0 
              0               1               0               0 
              0               0               1            -125 
2  83 1 84 1 85 1 86 1 87 1 88 1 89 1 32 -1 33 -1 34 -1 0
Curve2ds 308
1 0 12 1 0 
1 0 0 1 0 
1 -11 6 1 0 
2 17.55625825365091 14.603224843710311 1 0 -0 1 3.2999999999999998
1 0 1 1 0 
2 6.5562582536509115 8.6032248437103114 1 0 -0 1 3.2999999999999989
2 17.705406680406696 14.487492047145448 1 0 -0 1 3.2999999999999998
1 0 1 1 0 
2 6.7054066804066963 8.487492047145448 1 0 -0 1 3.3000000000000007
2 17.852512575330898 14.369173878282844 1 0 -0 1 3.2999999999999998
1 0 1 1 0 
2 6.8525125753308975 8.3691738782828438 1 0 -0 1 3.2999999999999998
2 17.997531128542875 14.248306377982907 1 0 -0 1 3.2999999999999998
1 0 1 1 0 
2 6.9975311285428745 8.2483063779829067 1 0 -0 1 3.3000000000000007
2 18.140418165986489 14.124926363657096 1 0 -0 1 3.2999999999999998
1 0 1 1 0 
2 7.1404181659864907 8.1249263636570959 1 0 -0 1 3.2999999999999989
2 18.281130162885962 13.999071418052988 1 0 -0 1 3.2999999999999998
1 0 1 1 0 
2 7.2811301628859617 7.9990714180529885 1 0 -0 1 3.3000000000000007
2 18.419624257003925 13.870779877806196 1 0 -0 1 3.2999999999999998
1 0 1 1 0 
2 7.4196242570039264 7.8707798778061964 1 0 -0 1 3.2999999999999989
2 18.555858261697693 13.740090821762667 1 0 -0 1 3.2999999999999998
1 0 1 1 0 
2 7.5558582616976953 7.740090821762668 1 0 -0 1 3.2999999999999989
2 18.689790678769707 13.607044059074887 1 0 -0 1 3.2999999999999998
1 0 1 1 0 
2 7.6897906787697066 7.6070440590748873 1 0 -0 1 3.2999999999999998
2 18.82138071110829 13.471680117075621 1 0 -0 1 3.2999999999999998
1 0 1 1 0 
2 7.82138071110829 7.4716801170756213 1 0 -0 1 3.3000000000000007
2 18.950588275114853 13.334040228932905 1 0 -0 1 3.2999999999999998
1 0 1 1 0 
2 7.9505882751148551 7.3340402289329045 1 0 -0 1 3.2999999999999989
2 19.077374012913744 13.194166321090012 1 0 -0 1 3.2999999999999998
1 0 1 1 0 
2 8.0773740129137419 7.1941663210900115 1 0 -0 1 3.2999999999999989
2 19.201699304341012 13.052101000494259 1 0 -0 1 3.2999999999999998
1 0 1 1 0 
2 8.2016993043410125 7.0521010004942593 1 0 -0 1 3.3000000000000007
2 19.323526278708538 12.907887541618521 1 0 -0 1 3.2999999999999998
1 0 1 1 0 
2 8.3235262787085382 6.9078875416185204 1 0 -0 1 3.3000000000000007
2 19.442817826339763 12.761569873279397 1 0 -0 1 3.2999999999999998
1 0 1 1 0 
2 8.4428178263397609 6.761569873279397 1 0 -0 1 3.2999999999999989
2 19.559537609873665 12.613192565256073 1 0 -0 1 3.2999999999999998
1 0 1 1 0 
2 8.5595376098736651 6.6131925652560728 1 0 -0 1 3.3000000000000007
2 19.673650075333502 12.462800814713937 1 0 -0 1 3.2999999999999998
1 0 1 1 0 
2 8.6736500753335015 6.4628008147139377 1 0 -0 1 3.3000000000000007
2 19.785120462956854 12.310440432437083 1 0 -0 1 3.2999999999999998
1 0 1 1 0 
2 8.785120462956856 6.3104404324370833 1 0 -0 1 3.2999999999999989
2 19.893914817783823 12.1561578288739 1 0 -0 1 3.2999999999999998
1 0 1 1 0 
2 8.8939148177838216 6.1561578288738996 1 0 -0 1 3.2999999999999989
2 20 12 1 0 -0 1 3.2999999999999998
1 0 1 1 0 
2 9 6 1 0 -0 1 3.3000000000000007
1 19 0 0 1 
1 0 0 1 0 
1 8 -6 0 1 
1 0 0 1 0 
1 0 0 1 0 
1 -11 -6 1 0 
1 0 0 1 0 
2 0 0 1 0 -0 1 6.5
2 0 0 1 0 -0 1 6.5
1 -11 -6 1 0 
8 0.057745989347162657 8.4000006000000038
1 -11.013618556163223 -7.8568686980144529 0.17364817766693044 0.98480775301220813 
8 0.057745989347162657 8.4000006000000038
1 3.8713203098167592 -4.163336342344337e-16 0 1 
8 3.8000000000000007 5.6492840048576136
1 -5.436541313048366 -0.31067434963052831 -0.98480775301220813 0.17364817766693044 
8 3.8000000000000007 5.6492840048576136
1 -5.3000000000000007 -1 1 0 
1 0 0 0 1 
1 -11 -6 0 1 
1 0 0 1 0 
1 12 -9 1 0 
1 12 -9 1 0 
1 1.7942286340599498 14.892304845413262 -0.49999999999999983 0.86602540378443882 
1 1.7942286340599498 14.892304845413262 -0.49999999999999983 0.86602540378443882 
1 -13.794228634059952 -5.8923048454132569 -0.50000000000000044 -0.86602540378443849 
1 -13.794228634059952 -5.8923048454132569 -0.50000000000000044 -0.86602540378443849 
1 -11 6 1 0 
2 0 0 1 0 -0 1 6.5
8 1.5500000000000003 4.0500000000000007
1 -3.6517498234188741 -4.5855450305454655 -0.98480775301220813 0.17364817766693044 
8 1.5500000000000003 4.0500000000000007
1 -2.8000000000000003 -1.2000000000000002 1 0 
8 -5.9999999959233805e-07 3.4000006000000007
1 -6.0645288182987844 -4.1601069952614855 0.17364817766693044 0.98480775301220813 
8 -5.9999999959233805e-07 3.4000006000000007
1 4.4285948711763625 -1.457167719820518e-16 0 1 
8 -6.0000000046702313e-07 3.4000006000000003
1 -6.753894245407329 -4.0385532708946341 0.17364817766693044 0.98480775301220813 
8 -6.0000000046702313e-07 3.4000006000000003
1 4.9961830895930168 1.457167719820518e-16 0 1 
8 1.5423056402402086e-16 3.399999999999999
1 4.9961830895930168 1.457167719820518e-16 0 1 
8 1.5500000000000003 4.0500000000000007
1 -3.0613460193513111 -1.237198670303959 -0.98480775301220813 0.17364817766693044 
8 1.5500000000000003 4.0500000000000007
1 -2.8000000000000003 -1.2000000000000002 1 0 
2 0 0 1 0 -0 1 4.1500000000000004
1 0 0.30000000000000071 1 0 
2 11 6 1 0 -0 1 4.1500000000000004
8 0 6.2831853071795862
1 0 0 1 0 
2 0 0 1 0 -0 1 4.1500000000000004
2 0 0 1 0 -0 1 4.1500000000000004
1 0 2.3000000000000007 1 0 
2 11 6 1 0 -0 1 4.1500000000000004
1 0 2 1 0 
2 0 0 1 0 -0 1 4.1500000000000004
1 6.2831853071795862 -0 0 1 
1 0 -0 0 1 
1 0 12 1 0 
1 0 -2 1 0 
1 -11 6 1 0 
2 17.55625825365091 14.603224843710311 1 0 -0 1 3.2999999999999998
1 0 3 1 0 
2 6.5562582536509115 8.6032248437103114 1 0 -0 1 3.2999999999999989
2 17.705406680406696 14.487492047145448 1 0 -0 1 3.2999999999999998
1 0 3 1 0 
2 6.7054066804066963 8.487492047145448 1 0 -0 1 3.3000000000000007
2 17.852512575330898 14.369173878282844 1 0 -0 1 3.2999999999999998
1 0 3 1 0 
2 6.8525125753308975 8.3691738782828438 1 0 -0 1 3.2999999999999998
2 17.997531128542875 14.248306377982907 1 0 -0 1 3.2999999999999998
1 0 3 1 0 
2 6.9975311285428745 8.2483063779829067 1 0 -0 1 3.3000000000000007
2 18.140418165986489 14.124926363657096 1 0 -0 1 3.2999999999999998
1 0 3 1 0 
2 7.1404181659864907 8.1249263636570959 1 0 -0 1 3.2999999999999989
2 18.281130162885962 13.999071418052988 1 0 -0 1 3.2999999999999998
1 0 3 1 0 
2 7.2811301628859617 7.9990714180529885 1 0 -0 1 3.3000000000000007
2 18.419624257003925 13.870779877806196 1 0 -0 1 3.2999999999999998
1 0 3 1 0 
2 7.4196242570039264 7.8707798778061964 1 0 -0 1 3.2999999999999989
2 18.555858261697693 13.740090821762667 1 0 -0 1 3.2999999999999998
1 0 3 1 0 
2 7.5558582616976953 7.740090821762668 1 0 -0 1 3.2999999999999989
2 18.689790678769707 13.607044059074887 1 0 -0 1 3.2999999999999998
1 0 3 1 0 
2 7.6897906787697066 7.6070440590748873 1 0 -0 1 3.2999999999999998
2 18.82138071110829 13.471680117075621 1 0 -0 1 3.2999999999999998
1 0 3 1 0 
2 7.82138071110829 7.4716801170756213 1 0 -0 1 3.3000000000000007
2 18.950588275114853 13.334040228932905 1 0 -0 1 3.2999999999999998
1 0 3 1 0 
2 7.9505882751148551 7.3340402289329045 1 0 -0 1 3.2999999999999989
2 19.077374012913744 13.194166321090012 1 0 -0 1 3.2999999999999998
1 0 3 1 0 
2 8.0773740129137419 7.1941663210900115 1 0 -0 1 3.2999999999999989
2 19.201699304341012 13.052101000494259 1 0 -0 1 3.2999999999999998
1 0 3 1 0 
2 8.2016993043410125 7.0521010004942593 1 0 -0 1 3.3000000000000007
2 19.323526278708538 12.907887541618521 1 0 -0 1 3.2999999999999998
1 0 3 1 0 
2 8.3235262787085382 6.9078875416185204 1 0 -0 1 3.3000000000000007
2 19.442817826339763 12.761569873279397 1 0 -0 1 3.2999999999999998
1 0 3 1 0 
2 8.4428178263397609 6.761569873279397 1 0 -0 1 3.2999999999999989
2 19.559537609873665 12.613192565256073 1 0 -0 1 3.2999999999999998
1 0 3 1 0 
2 8.5595376098736651 6.6131925652560728 1 0 -0 1 3.3000000000000007
2 19.673650075333502 12.462800814713937 1 0 -0 1 3.2999999999999998
1 0 3 1 0 
2 8.6736500753335015 6.4628008147139377 1 0 -0 1 3.3000000000000007
2 19.785120462956854 12.310440432437083 1 0 -0 1 3.2999999999999998
1 0 3 1 0 
2 8.785120462956856 6.3104404324370833 1 0 -0 1 3.2999999999999989
2 19.893914817783823 12.1561578288739 1 0 -0 1 3.2999999999999998
1 0 3 1 0 
2 8.8939148177838216 6.1561578288738996 1 0 -0 1 3.2999999999999989
2 20 12 1 0 -0 1 3.2999999999999998
1 0 3 1 0 
2 9 6 1 0 -0 1 3.3000000000000007
1 19 0 0 1 
1 0 2 1 0 
1 8 -6 0 1 
1 0 0 1 0 
1 0 -2 1 0 
1 -11 -6 1 0 
1 0 2 1 0 
2 0 0 1 0 -0 1 6.5
2 0 0 1 0 -0 1 6.5
1 -11 -6 1 0 
8 1.2379113281700569 5.2000006000000001
1 -6.4378204672533128 -9.0191046735235112 0.17364817766693044 0.98480775301220813 
8 1.2379113281700569 5.2000006000000001
1 2.3722653100666471 6.3837823915946501e-16 0 1 
8 3.065679229564398 4.8499999999999996
1 2.3722653100666471 6.3837823915946501e-16 0 1 
8 1.5500000000000003 4.0500000000000007
1 -3.6517498234188741 -4.5855450305454655 -0.98480775301220813 0.17364817766693044 
8 1.5500000000000003 4.0500000000000007
1 -2.8000000000000003 0.79999999999999982 1 0 
8 -5.9999999959233805e-07 3.4000006000000011
1 -5.4633345729744187 -4.2661137613588354 0.17364817766693044 0.98480775301220813 
8 -5.9999999959233805e-07 3.4000006000000011
1 2.4470943879632374 -3.3306690738754696e-16 0 1 
8 1.5500000000000003 4.0500000000000007
1 -3.0613460193513111 -1.237198670303959 -0.98480775301220813 0.17364817766693044 
8 1.5500000000000003 4.0500000000000007
1 -2.8000000000000003 0.79999999999999982 1 0 
8 -6.0000000002968054e-07 3.4000006000000007
1 -7.3550884907316947 -3.9325465047972847 0.17364817766693044 0.98480775301220813 
8 -6.0000000002968054e-07 3.4000006000000007
1 0.6944982656265557 -8.3266726846886741e-17 0 1 
8 0 3.399999999999999
1 6.9776835728061419 -8.3266726846886741e-17 0 1 
8 0.94657134247750796 5.200000600000001
1 -8.0649899198220254 -8.7321907968510253 0.17364817766693044 0.98480775301220813 
8 0.94657134247750796 5.200000600000001
1 0.76932734352314647 -4.7184478546569153e-16 0 1 
8 2.7743392438718502 4.8500000000000005
1 7.0525126507027327 -4.7184478546569153e-16 0 1 
8 0.057745989347166973 8.4000006000000038
1 -11.013618556163223 -7.8568686980144529 0.17364817766693044 0.98480775301220813 
8 0.057745989347166973 8.4000006000000038
1 2.411864997362827 -4.163336342344337e-16 0 1 
8 3.8000000000000007 5.6492840048576136
1 -5.436541313048366 -0.31067434963052831 -0.98480775301220813 0.17364817766693044 
8 3.8000000000000007 5.6492840048576136
1 -5.3000000000000007 1 1 0 
1 0 0 0 1 
1 -11 -6 0 1 
1 0 2 1 0 
1 12 -7 1 0 
1 12 -7 1 0 
1 0.062177826491073063 13.892304845413262 -0.49999999999999983 0.86602540378443882 
1 0.062177826491073063 13.892304845413262 -0.49999999999999983 0.86602540378443882 
1 -12.062177826491073 -6.8923048454132587 -0.50000000000000044 -0.86602540378443849 
1 -12.062177826491073 -6.8923048454132587 -0.50000000000000044 -0.86602540378443849 
1 -11 6 1 0 
2 0 0 1 0 -0 1 6.5
3 4.2556490891890375 -1.2000000000000002 1 0 -0 1 1.1677406036686067 1.1499999999999999
7 0 0  8 16 3  2.0872714676417647 3.0201437129516302  2.3495160826128787 3.0663845141165407  2.6117606975847352 3.1047550740850056  2.8740053125432254 3.1304094062725198  3.1362499275467357 3.139657190960861  3.3984945424920383 3.1310248806112213  3.6607391574700827 3.1059193554319791  3.9229837724395589 3.067979663651673  4.4474730023817868 2.9760645244304662  4.7097176173529753 2.922089954945005  4.9719622323239037 2.8649088684210824  5.2342068472950913 2.8105284553817  5.4964514622663216 2.7650411032944504  5.7586960772373113 2.7331719415934677  6.0209406922084723 2.7172332089033904  6.2831853071795862 2.7172332089033904 
 5.228864121231557 9 7.3268210410004695 7 9.4247779607693793 9
8 5.5138579636564398 9.4247779607693793
7 0 0  8 16 3  2.0872714676417647 3.0201437129516302  2.3495160826128787 3.0663845141165407  2.6117606975847352 3.1047550740850056  2.8740053125432254 3.1304094062725198  3.1362499275467357 3.139657190960861  3.3984945424920383 3.1310248806112213  3.6607391574700827 3.1059193554319791  3.9229837724395589 3.067979663651673  4.4474730023817868 2.9760645244304662  4.7097176173529753 2.922089954945005  4.9719622323239037 2.8649088684210824  5.2342068472950913 2.8105284553817  5.4964514622663216 2.7650411032944504  5.7586960772373113 2.7331719415934677  6.0209406922084723 2.7172332089033904  6.2831853071795862 2.7172332089033904 
 5.228864121231557 9 7.3268210410004695 7 9.4247779607693793 9
8 5.5138579636564398 9.4247779607693793
7 0 0  8 16 3  2.0872714676417647 3.0201437129516302  2.3495160826128787 3.0663845141165407  2.6117606975847352 3.1047550740850056  2.8740053125432254 3.1304094062725198  3.1362499275467357 3.139657190960861  3.3984945424920383 3.1310248806112213  3.6607391574700827 3.1059193554319791  3.9229837724395589 3.067979663651673  4.4474730023817868 2.9760645244304662  4.7097176173529753 2.922089954945005  4.9719622323239037 2.8649088684210824  5.2342068472950913 2.8105284553817  5.4964514622663216 2.7650411032944504  5.7586960772373113 2.7331719415934677  6.0209406922084723 2.7172332089033904  6.2831853071795862 2.7172332089033904 
 5.228864121231557 9 7.3268210410004695 7 9.4247779607693793 9
3 4.2556490891890375 -1.2000000000000002 1 0 -0 1 1.1677406036686067 1.1499999999999999
7 0 0  6 7 2  0 2.7172332089033899  0.17572019765800459 2.7172332089033899  0.35144039531601123 2.7247465365131234  0.52716059297399909 2.7397742746158542  0.70288079063201536 2.7616168115909829  0.87860098829002364 2.788890548582089  1.0543211859480282 2.8198747604846197 
 3.1415926535897931 7 4.1959138395378206 7
8 3.1415926535897931 3.9109199971129369
7 0 0  6 7 2  6.2831853071795862 2.7172332089033899  6.458905504837591 2.7172332089033899  6.6346257024955975 2.7247465365131234  6.8103459001535853 2.7397742746158542  6.9860660978116016 2.7616168115909829  7.1617862954696099 2.788890548582089  7.3375064931276146 2.8198747604846197 
 3.1415926535897931 7 4.1959138395378206 7
8 3.1415926535897931 3.9109199971129369
7 0 0  6 7 2  6.2831853071795862 2.7172332089033899  6.458905504837591 2.7172332089033899  6.6346257024955975 2.7247465365131234  6.8103459001535853 2.7397742746158542  6.9860660978116016 2.7616168115909829  7.1617862954696099 2.788890548582089  7.3375064931276146 2.8198747604846197 
 3.1415926535897931 7 4.1959138395378206 7
1 7.0525126507027318 4.8500000000000005 -1 -0 
2 -2.3092638912203256e-14 0 0.71837876703731751 0.69565217391304379 0.69565217391304379 -0.71837876703731751 1.1499999999999997
1 4.9961830895930159 3.3999999999999999 1 0 
2 -2.2204460492503131e-14 0 0.27999999999999897 -0.96000000000000041 0.96000000000000041 0.27999999999999897 1.2499999999999998
1 0 3.3999999999999999 1 0 
2 0 0 1 0 -0 1 1.25
1 4.9961830895930159 0 1 0 
2 -2.3092638912203256e-14 0 0.27999999999999897 -0.96000000000000041 0.96000000000000041 0.27999999999999897 1.2499999999999998
1 0 0 1 0 
2 0 0 1 0 -0 1 1.25
8 -5.999999999062311e-07 2.0000005999999999
1 1.9655874464946581 0 0 1 
8 -5.999999999062311e-07 2.0000005999999999
1 8.5 0 0 -1 
8 -5.999999999062311e-07 2.0000005999999999
1 1.176005207095135 0 0 1 
8 -5.999999999062311e-07 2.0000005999999999
1 13.5 0 0 -1 
1 0 0 0 -1 
1 12 0 0 1 
1 24 -9 0 1 
1 24 -9 0 1 
1 -4.2057713659400466 25.284609690826528 -0.86602540378443882 -0.49999999999999983 
1 -4.2057713659400466 25.284609690826528 -0.86602540378443882 -0.49999999999999983 
1 -19.794228634059955 -16.284609690826521 0.86602540378443849 -0.50000000000000044 
1 -19.794228634059955 -16.284609690826521 0.86602540378443849 -0.50000000000000044 
8 -0.5 1.5
1 6.6703135229359347 0.5 0 1 
8 -0.5 1.5
1 0.34928400485761357 -0.5 0 1 
1 18.670313522935935 -8.5 0 1 
1 18.670313522935935 -8.5 0 1 
1 -1.9739408293002345 20.418965807482657 -0.86602540378443882 -0.49999999999999983 
1 -1.9739408293002345 20.418965807482657 -0.86602540378443882 -0.49999999999999983 
1 -16.696372693635702 -11.918965807482651 0.86602540378443849 -0.50000000000000044 
1 -16.696372693635702 -11.918965807482651 0.86602540378443849 -0.50000000000000044 
1 0 8.4000000000000004 1 0 
2 0 0 1 0 -0 1 1.5
3 -0.82148397023968656 -1 1 0 -0 1 1.5231399178286174 1.5
7 0 0  6 7 2  2.214297435588195 1.84706861581342  2.5233958415887305 1.9124714822196678  2.8324942475893522 1.959678146876783  3.1415926535895551 1.9774600972115763  3.4506910595904117 1.9596781468767688  3.7597894655908703 1.9124714822196649  4.0688878715914054 1.8470686158134164 
 5.3558900891779881 7 7.2104805251812003 7
7 0 0  6 7 2  2.4118649973628088 1.2355138907415011  2.6551075494384651 1.2784041155288233  2.8983501015141542 1.3072970884371529  3.1415926535896688 1.3176278371885246  3.3848352056654107 1.3072970884371671  3.6280777577411207 1.2784041155288233  3.871320309816777 1.2355138907415011 
 5.5534576509526179 7 7.0129129634065546 7
7 0 0  6 7 2  2.4118649973628088 1.2355138907415011  2.6551075494384651 1.2784041155288233  2.8983501015141542 1.3072970884371529  3.1415926535896688 1.3176278371885246  3.3848352056654107 1.3072970884371671  3.6280777577411207 1.2784041155288233  3.871320309816777 1.2355138907415011 
 5.5534576509526179 7 7.0129129634065546 7
7 0 0  6 7 2  2.4118649973628088 1.2355138907415011  2.6551075494384651 1.2784041155288233  2.8983501015141542 1.3072970884371529  3.1415926535897256 1.3176278371885246  3.3848352056654392 1.3072970884371671  3.6280777577411212 1.2784041155288233  3.8713203098167774 1.2355138907415011 
 5.5534576509526179 7 7.0129129634065546 7
7 0 0  6 7 2  2.4118649973628088 1.2355138907415011  2.6551075494384651 1.2784041155288233  2.8983501015141542 1.3072970884371529  3.1415926535897256 1.3176278371885246  3.3848352056654392 1.3072970884371671  3.6280777577411212 1.2784041155288233  3.8713203098167774 1.2355138907415011 
 5.5534576509526179 7 7.0129129634065546 7
7 0 0  6 7 2  2.4118649973628083 1.2355138907415011  2.6551075494384646 1.2784041155288233  2.8983501015141826 1.3072970884371813  3.1415926535896119 1.317627837188553  3.3848352056654392 1.3072970884371813  3.6280777577411207 1.2784041155288233  3.871320309816777 1.2355138907415011 
 5.5534576509526179 7 7.0129129634065546 7
7 0 0  6 7 2  2.4118649973628083 1.2355138907415011  2.6551075494384646 1.2784041155288233  2.8983501015141826 1.3072970884371813  3.1415926535896119 1.317627837188553  3.3848352056654392 1.3072970884371813  3.6280777577411207 1.2784041155288233  3.871320309816777 1.2355138907415011 
 5.5534576509526179 7 7.0129129634065546 7
8 -5.999999999062311e-07 2.0000005999999999
1 4.3175978606849279 0 0 1 
8 -5.999999999062311e-07 2.0000005999999999
1 8.5 0 0 -1 
8 -5.999999999062311e-07 2.0000005999999999
1 5.1071801000844514 0 0 1 
8 -5.999999999062311e-07 2.0000005999999999
1 13.5 0 0 -1 
1 19 0 0 -1 
1 0 0 0 1 
8 0.80000000000000071 3.2000000000000002
1 8.8551629612967222 -1 0 1 
8 0.80000000000000071 3.2000000000000002
1 4.4045181119866363 0 0 1 
8 0.99999940000000009 3.0000005999999999
1 3.7097143913625672 0 0 1 
8 0.99999940000000009 3.0000005999999999
1 3.76692941543208 0 0 1 
8 0.99999940000000009 3.0000005999999999
1 3.7271676838825258 0 0 1 
8 0.99999940000000009 3.0000005999999999
1 3.7843827079520391 0 0 1 
8 0.99999940000000009 3.0000005999999999
1 3.7446209764024654 0 0 1 
8 0.99999940000000009 3.0000005999999999
1 3.8018360004719787 0 0 1 
8 0.99999940000000009 3.0000005999999999
1 3.7620742689224107 0 0 1 
8 0.99999940000000009 3.0000005999999999
1 3.819289292991924 0 0 1 
8 0.99999940000000009 3.0000005999999999
1 3.7795275614423409 0 0 1 
8 0.99999940000000009 3.0000005999999999
1 3.8367425855118538 0 0 1 
8 0.99999940000000009 3.0000005999999999
1 3.7969808539623005 0 0 1 
8 0.99999940000000009 3.0000005999999999
1 3.8541958780318133 0 0 1 
8 0.99999940000000009 3.0000005999999999
1 3.8144341464822333 0 0 1 
8 0.99999940000000009 3.0000005999999999
1 3.8716491705517466 0 0 1 
8 0.99999940000000009 3.0000005999999999
1 3.8318874390021649 0 0 1 
8 0.99999940000000009 3.0000005999999999
1 3.8891024630716777 0 0 1 
8 0.99999940000000009 3.0000005999999999
1 3.8493407315221266 0 0 1 
8 0.99999940000000009 3.0000005999999999
1 3.9065557555916399 0 0 1 
8 0.99999940000000009 3.0000005999999999
1 3.866794024042072 0 0 1 
8 0.99999940000000009 3.0000005999999999
1 3.9240090481115852 0 0 1 
8 0.99999940000000009 3.0000005999999999
1 3.8842473165620053 0 0 1 
8 0.99999940000000009 3.0000005999999999
1 3.9414623406315186 0 0 1 
8 0.99999940000000009 3.0000005999999999
1 3.9017006090819502 0 0 1 
8 0.99999940000000009 3.0000005999999999
1 3.958915633151463 0 0 1 
8 0.99999940000000009 3.0000005999999999
1 3.9191539016019004 0 0 1 
8 0.99999940000000009 3.0000005999999999
1 3.9763689256714136 0 0 1 
8 0.99999940000000009 3.0000005999999999
1 3.9366071941218364 0 0 1 
8 0.99999940000000009 3.0000005999999999
1 3.9938222181913492 0 0 1 
8 0.99999940000000009 3.0000005999999999
1 3.9540604866417821 0 0 1 
8 0.99999940000000009 3.0000005999999999
1 4.011275510711295 0 0 1 
8 0.99999940000000009 3.0000005999999999
1 3.9715137791617217 0 0 1 
8 0.99999940000000009 3.0000005999999999
1 4.0287288032312354 0 0 1 
8 0.99999940000000009 3.0000005999999999
1 3.988967071681675 0 0 1 
8 0.99999940000000009 3.0000005999999999
1 4.0461820957511883 0 0 1 
8 0.99999940000000009 3.0000005999999999
1 4.0064203642016132 0 0 1 
8 0.99999940000000009 3.0000005999999999
1 4.0636353882711269 0 0 1 
8 0.99999940000000009 3.0000005999999999
1 4.0238736567215465 0 0 1 
8 0.99999940000000009 3.0000005999999999
1 4.0810886807910602 0 0 1 
8 0.80000000000000071 3.2000000000000002
1 15.528150659589535 1 0 -1 
8 0.80000000000000071 3.2000000000000002
1 4.0505380027233215 0 0 1 
Curves 104
1 6 -9 -11 0 0 1 
2 8.6032248437103114 -9 6.5562582536509115 0 1 0 0 -0 1 1 0 -0 3.2999999999999998
2 8.487492047145448 -9 6.7054066804066963 0 1 0 0 -0 1 1 0 -0 3.2999999999999998
2 8.3691738782828438 -9 6.8525125753308975 0 1 0 0 -0 1 1 0 -0 3.2999999999999998
2 8.2483063779829067 -9 6.9975311285428745 0 1 0 0 -0 1 1 0 -0 3.2999999999999998
2 8.1249263636570959 -9 7.1404181659864907 0 1 0 0 -0 1 1 0 -0 3.2999999999999998
2 7.9990714180529885 -9 7.2811301628859617 0 1 0 0 -0 1 1 0 -0 3.2999999999999998
2 7.8707798778061964 -9 7.4196242570039264 0 1 0 0 -0 1 1 0 -0 3.2999999999999998
2 7.740090821762668 -9 7.5558582616976953 0 1 0 0 -0 1 1 0 -0 3.2999999999999998
2 7.6070440590748873 -9 7.6897906787697066 0 1 0 0 -0 1 1 0 -0 3.2999999999999998
2 7.4716801170756213 -9 7.82138071110829 0 1 0 0 -0 1 1 0 -0 3.2999999999999998
2 7.3340402289329045 -9 7.9505882751148551 0 1 0 0 -0 1 1 0 -0 3.2999999999999998
2 7.1941663210900115 -9 8.0773740129137419 0 1 0 0 -0 1 1 0 -0 3.2999999999999998
2 7.0521010004942593 -9 8.2016993043410125 0 1 0 0 -0 1 1 0 -0 3.2999999999999998
2 6.9078875416185204 -9 8.3235262787085382 0 1 0 0 -0 1 1 0 -0 3.2999999999999998
2 6.761569873279397 -9 8.4428178263397609 0 1 0 0 -0 1 1 0 -0 3.2999999999999998
2 6.6131925652560728 -9 8.5595376098736651 0 1 0 0 -0 1 1 0 -0 3.2999999999999998
2 6.4628008147139377 -9 8.6736500753335015 0 1 0 0 -0 1 1 0 -0 3.2999999999999998
2 6.3104404324370833 -9 8.785120462956856 0 1 0 0 -0 1 1 0 -0 3.2999999999999998
2 6.1561578288738996 -9 8.8939148177838216 0 1 0 0 -0 1 1 0 -0 3.2999999999999998
2 6 -9 9 0 1 0 0 -0 1 1 0 -0 3.2999999999999998
1 -6 -9 8 1 0 0 
1 -6 -9 -11 0 0 1 
2 0 -9 0 0 1 0 0 -0 1 1 0 -0 6.5
1 -7.8568686980144529 -9 -11.013618556163223 0.98480775301220813 0 0.17364817766693044 
1 -0.31067434963052831 -9 -5.436541313048366 0.17364817766693044 0 -0.98480775301220813 
1 -6 -9 -11 1 0 0 
1 -4.5855450305454655 -9 -3.6517498234188741 0.17364817766693044 0 -0.98480775301220813 
1 -4.1601069952614855 -9 -6.0645288182987844 0.98480775301220813 0 0.17364817766693044 
1 -4.0385532708946341 -9 -6.753894245407329 0.98480775301220813 0 0.17364817766693044 
1 -1.237198670303959 -9 -3.0613460193513111 0.17364817766693044 0 -0.98480775301220813 
2 0 -9 0 0 1 0 0 -0 1 1 0 -0 4.1500000000000004
2 0 -7 0 0 1 0 0 -0 1 1 0 -0 4.1500000000000004
1 -1.0164568432923032e-15 -9 4.1500000000000004 0 1 0 
1 6 -7 -11 0 0 1 
2 8.6032248437103114 -7 6.5562582536509115 0 1 0 0 -0 1 1 0 -0 3.2999999999999998
2 8.487492047145448 -7 6.7054066804066963 0 1 0 0 -0 1 1 0 -0 3.2999999999999998
2 8.3691738782828438 -7 6.8525125753308975 0 1 0 0 -0 1 1 0 -0 3.2999999999999998
2 8.2483063779829067 -7 6.9975311285428745 0 1 0 0 -0 1 1 0 -0 3.2999999999999998
2 8.1249263636570959 -7 7.1404181659864907 0 1 0 0 -0 1 1 0 -0 3.2999999999999998
2 7.9990714180529885 -7 7.2811301628859617 0 1 0 0 -0 1 1 0 -0 3.2999999999999998
2 7.8707798778061964 -7 7.4196242570039264 0 1 0 0 -0 1 1 0 -0 3.2999999999999998
2 7.740090821762668 -7 7.5558582616976953 0 1 0 0 -0 1 1 0 -0 3.2999999999999998
2 7.6070440590748873 -7 7.6897906787697066 0 1 0 0 -0 1 1 0 -0 3.2999999999999998
2 7.4716801170756213 -7 7.82138071110829 0 1 0 0 -0 1 1 0 -0 3.2999999999999998
2 7.3340402289329045 -7 7.9505882751148551 0 1 0 0 -0 1 1 0 -0 3.2999999999999998
2 7.1941663210900115 -7 8.0773740129137419 0 1 0 0 -0 1 1 0 -0 3.2999999999999998
2 7.0521010004942593 -7 8.2016993043410125 0 1 0 0 -0 1 1 0 -0 3.2999999999999998
2 6.9078875416185204 -7 8.3235262787085382 0 1 0 0 -0 1 1 0 -0 3.2999999999999998
2 6.761569873279397 -7 8.4428178263397609 0 1 0 0 -0 1 1 0 -0 3.2999999999999998
2 6.6131925652560728 -7 8.5595376098736651 0 1 0 0 -0 1 1 0 -0 3.2999999999999998
2 6.4628008147139377 -7 8.6736500753335015 0 1 0 0 -0 1 1 0 -0 3.2999999999999998
2 6.3104404324370833 -7 8.785120462956856 0 1 0 0 -0 1 1 0 -0 3.2999999999999998
2 6.1561578288738996 -7 8.8939148177838216 0 1 0 0 -0 1 1 0 -0 3.2999999999999998
2 6 -7 9 0 1 0 0 -0 1 1 0 -0 3.2999999999999998
1 -6 -7 8 1 0 0 
1 -6 -7 -11 0 0 1 
2 0 -7 0 0 1 0 0 -0 1 1 0 -0 6.5
1 -9.0191046735235112 -7 -6.4378204672533128 0.98480775301220813 0 0.17364817766693044 
1 -4.5855450305454655 -7 -3.6517498234188741 0.17364817766693044 0 -0.98480775301220813 
1 -4.2661137613588354 -7 -5.4633345729744187 0.98480775301220813 0 0.17364817766693044 
1 -1.237198670303959 -7 -3.0613460193513111 0.17364817766693044 0 -0.98480775301220813 
1 -3.9325465047972847 -7 -7.3550884907316947 0.98480775301220813 0 0.17364817766693044 
1 -8.7321907968510253 -7 -8.0649899198220254 0.98480775301220813 0 0.17364817766693044 
1 -7.8568686980144529 -7 -11.013618556163223 0.98480775301220813 0 0.17364817766693044 
1 -0.31067434963052831 -7 -5.436541313048366 0.17364817766693044 0 -0.98480775301220813 
1 -6 -7 -11 1 0 0 
3 -6 -7.7999999999999998 -6.7443509108109625 1 0 0 -0 0 1 0 -1 0 1.1677406036686067 1.1499999999999999
3 -6 -7.7999999999999998 -6.7443509108109625 1 0 0 -0 0 1 0 -1 0 1.1677406036686067 1.1499999999999999
8 0 4.6802473406360861
2 -4.0993301330780589 -7.7999999999999998 -6.4092115318530567 -0.98480775301220813 -4.5883435939586528e-16 -0.1736481776669303 0.12474516377064612 0.69565217391304368 -0.70746497937770114 0.12079873229003883 -0.71837876703731751 -0.68508365426936224 1.1499999999999999
8 0 1.9815004832131258
2 -0.7509837728365536 -7.7999999999999998 -5.8188077277854937 0.98480775301220802 -1.445602896647339e-17 0.17364817766693072 0.048621489746740403 -0.9600000000000003 -0.27574617084341718 0.16670225056025353 0.27999999999999897 -0.94541544289171997 1.25
2 2 -7.7999999999999998 10.75 0 0 1 1 0 -0 -0 1 0 1.25
8 0 1.9815004832131258
2 -4.0993301330780598 -7.7999999999999998 -6.4092115318530567 0.98480775301220813 3.7585675312830809e-16 0.17364817766693005 0.04862148974674059 -0.96000000000000041 -0.27574617084341718 0.16670225056025281 0.27999999999999897 -0.94541544289172019 1.25
2 2 -7.7999999999999998 7.3499999999999996 0 0 1 1 0 -0 -0 1 0 1.25
1 6 -9 -2.5 0 1 0 
1 6 -9 2.5 0 1 0 
1 6 -9 -11 0 1 0 
1 0.67031352293593482 -8.5 -11 0 1 0 
2 7 -8 11.25 0 0 1 1 0 -0 -0 1 0 1.5
3 -6 -8 -11.821483970239687 1 0 0 -0 0 1 0 -1 0 1.5231399178286174 1.5
1 -6 -9 -2.5 0 1 0 
1 -6 -9 2.5 0 1 0 
1 -6 -9 8 0 1 0 
1 2.8551629612967226 -10 8 0 1 0 
1 4.224435702940502 -10 6.2183869019923694 0 1 0 
1 4.3323181165192404 -10 6.143713242691903 0 1 0 
1 4.4388808640316295 -10 6.0671681488221889 0 1 0 
1 4.544091485432415 -10 5.988774936760378 0 1 0 
1 4.6479179325471769 -10 5.9085574858382337 0 1 0 
1 4.7503285788342149 -10 5.8265402310684822 0 1 0 
1 4.8512922290187417 -10 5.742748155701328 0 1 0 
1 4.9507781285947905 -10 5.6572067836146953 0 1 0 
1 5.0487559731935283 -10 5.5699421715392461 0 1 0 
1 5.145195917814477 -10 5.4809809011210673 0 1 0 
1 5.2400685859162532 -10 5.3903500708249261 0 1 0 
1 5.3333450783650509 -10 5.2980772876797442 0 1 0 
1 5.4249969822376896 -10 5.2041906588691216 0 1 0 
1 5.5149963794764467 -10 5.1087187831696443 0 1 0 
1 5.6033158553930233 -10 5.0116907422395691 0 1 0 
1 5.6899285070195207 -10 4.9131360917600544 0 1 0 
1 5.7748079513031767 -10 4.8130848524324037 0 1 0 
1 5.8579283331430752 -10 4.711567500833266 0 1 0 
1 5.9392643332656831 -10 4.6086149601313835 0 1 0 
1 6 -10 4.5281506595895351 0 1 0 
Polygon3D 0
PolygonOnTriangulations 0
Surfaces 50
1 0 -9 0 0 1 0 0 -0 1 1 0 -0 
1 -6 -9 -11 0 1 0 0 0 1 1 0 0 
1 6 -9 -11 1 0 0 0 0 1 0 -1 0 
2 8.6032248437103114 -10 6.5562582536509115 0 1 0 0 -0 1 1 0 -0 3.2999999999999998
2 8.487492047145448 -10 6.7054066804066963 0 1 0 0 -0 1 1 0 -0 3.2999999999999998
2 8.3691738782828438 -10 6.8525125753308975 0 1 0 0 -0 1 1 0 -0 3.2999999999999998
2 8.2483063779829067 -10 6.9975311285428745 0 1 0 0 -0 1 1 0 -0 3.2999999999999998
2 8.1249263636570959 -10 7.1404181659864907 0 1 0 0 -0 1 1 0 -0 3.2999999999999998
2 7.9990714180529885 -10 7.2811301628859617 0 1 0 0 -0 1 1 0 -0 3.2999999999999998
2 7.8707798778061964 -10 7.4196242570039264 0 1 0 0 -0 1 1 0 -0 3.2999999999999998
2 7.740090821762668 -10 7.5558582616976953 0 1 0 0 -0 1 1 0 -0 3.2999999999999998
2 7.6070440590748873 -10 7.6897906787697066 0 1 0 0 -0 1 1 0 -0 3.2999999999999998
2 7.4716801170756213 -10 7.82138071110829 0 1 0 0 -0 1 1 0 -0 3.2999999999999998
2 7.3340402289329045 -10 7.9505882751148551 0 1 0 0 -0 1 1 0 -0 3.2999999999999998
2 7.1941663210900115 -10 8.0773740129137419 0 1 0 0 -0 1 1 0 -0 3.2999999999999998
2 7.0521010004942593 -10 8.2016993043410125 0 1 0 0 -0 1 1 0 -0 3.2999999999999998
2 6.9078875416185204 -10 8.3235262787085382 0 1 0 0 -0 1 1 0 -0 3.2999999999999998
2 6.761569873279397 -10 8.4428178263397609 0 1 0 0 -0 1 1 0 -0 3.2999999999999998
2 6.6131925652560728 -10 8.5595376098736651 0 1 0 0 -0 1 1 0 -0 3.2999999999999998
2 6.4628008147139377 -10 8.6736500753335015 0 1 0 0 -0 1 1 0 -0 3.2999999999999998
2 6.3104404324370833 -10 8.785120462956856 0 1 0 0 -0 1 1 0 -0 3.2999999999999998
2 6.1561578288738996 -10 8.8939148177838216 0 1 0 0 -0 1 1 0 -0 3.2999999999999998
2 6 -10 9 0 1 0 0 -0 1 1 0 -0 3.2999999999999998
1 -6 -9 8 0 0 1 1 0 0 0 1 0 
1 -6 -9 -11 1 0 0 0 0 1 0 -1 0 
2 0 -9 0 0 1 0 0 -0 1 1 0 -0 6.5
1 0 -9 0 0 1 0 0 -0 1 1 0 -0 
2 7 -8 2.8500000000000001 0 0 1 1 0 -0 -0 1 0 1.5
1 7 -8 11.25 0 0 1 1 0 -0 -0 1 0 
1 -6 -9 -11 0 0 1 1 0 0 0 1 0 
1 0 0 4 0 0 1 1 0 -0 -0 1 0 
1 0 0 4 0 0 1 1 0 -0 -0 1 0 
1 0 0 4 0 0 1 1 0 -0 -0 1 0 
1 0 0 4 0 0 1 1 0 -0 -0 1 0 
1 0 0 4 0 0 1 1 0 -0 -0 1 0 
1 0 0 4 0 0 1 1 0 -0 -0 1 0 
1 2 -7.7999999999999998 7.3499999999999996 0 0 1 1 0 -0 -0 1 0 
2 2 -7.7999999999999998 7.3499999999999996 0 0 1 1 0 -0 -0 1 0 1.25
10 2.8453406776097858 9.1285259847893716 -2e+100 2e+100
2 -4.0993301330780598 -7.7999999999999998 -6.4092115318530567 0.98480775301220813 0 0.17364817766693044 0.17364817766693044 0 -0.98480775301220813 0 1 0 1.25
1 2 -7.7999999999999998 10.75 0 0 1 1 0 -0 -0 1 0 
2 0 -9.3000000000000007 0 0 1 0 0 -0 1 1 0 -0 4.1500000000000004
2 0 -9 0 0 1 0 0 -0 1 1 0 -0 4.1500000000000004
1 0 -7 0 0 1 0 0 -0 1 1 0 -0 
1 -6 -7 -11 0 1 0 0 0 1 1 0 0 
1 0 -7 0 0 1 0 0 -0 1 1 0 -0 
2 2 -7.7999999999999998 2.5 0 0 1 1 0 -0 -0 1 0 1.1499999999999999
10 1.5707963267947069 7.8539816339742927 -2e+100 2e+100
2 -8.8756477351872682 -7.7999999999999998 -7.2514051935376695 0.98480775301220813 0 0.17364817766693044 0.17364817766693044 0 -0.98480775301220813 0 1 0 1.1499999999999999
10 1.5707963267947069 7.8539816339742927 -2e+100 2e+100
2 -8.8756477351872682 -7.7999999999999998 -7.2514051935376695 0.98480775301220813 0 0.17364817766693044 0.17364817766693044 0 -0.98480775301220813 0 1 0 1.1499999999999999
2 0 0 0.45000000000000001 0 0 1 1 0 -0 -0 1 0 1.5
2 0 0 0.45000000000000001 0 0 1 1 0 -0 -0 1 0 1.5
Triangulations 0

TShapes 268
Ve
1.00000207378249e-07
6.00000000000004 -9 2.4999999999998
0 0

0101101
*
Ve
1.00000010658141e-07
6 -9 4.52815065958955
0 0

0101101
*
Ed
 1e-07 1 1 0
1  1 0 13.4999999999998 15.5281506595895
2  1 2 0 13.4999999999998 15.5281506595895
2  2 3 0 13.4999999999998 15.5281506595895
2  3 1 2 13.4999999999998 15.5281506595895
0

0101000
+268 2 -267 2 *
Ve
1.00000025940284e-07
5.9392643332657 -9 4.60861496013136
0 0

0101101
*
Ed
 1e-07 1 1 0
1  2 0 4.05053800272333 4.08108868079105
2  4 2 1 4.05053800272333 4.08108868079105
2  5 4 0 4.05053800272333 4.08108868079105
2  6 1 0 4.05053800272333 4.08108868079105
0

0101000
+267 0 -265 0 *
Ve
1.00000025152862e-07
5.85792833314309 -9 4.71156750083325
0 0

0101101
*
Ed
 1e-07 1 1 0
1  3 0 4.02387365672154 4.06363538827112
2  7 2 1 4.02387365672154 4.06363538827112
2  8 5 0 4.02387365672154 4.06363538827112
2  9 1 0 4.02387365672154 4.06363538827112
0

0101000
+265 0 -263 0 *
Ve
1.00000025152862e-07
5.77480795130319 -9 4.81308485243239
0 0

0101101
*
Ed
 1e-07 1 1 0
1  4 0 4.00642036420161 4.04618209575118
2  10 2 1 4.00642036420161 4.04618209575118
2  11 6 0 4.00642036420161 4.04618209575118
2  12 1 0 4.00642036420161 4.04618209575118
0

0101000
+263 0 -261 0 *
Ve
1.00000051560268e-07
5.68992850701949 -9 4.91313609176009
0 0

0101101
*
Ed
 1e-07 1 1 0
1  5 0 3.98896707168167 4.02872880323125
2  13 2 1 3.98896707168167 4.02872880323125
2  14 7 0 3.98896707168167 4.02872880323125
2  15 1 0 3.98896707168167 4.02872880323125
0

0101000
+261 0 -259 0 *
Ve
1.00000049618896e-07
5.60331585539299 -9 5.0116907422396
0 0

0101101
*
Ed
 1e-07 1 1 0
1  6 0 3.97151377916174 4.01127551071131
2  16 2 1 3.97151377916174 4.01127551071131
2  17 8 0 3.97151377916174 4.01127551071131
2  18 1 0 3.97151377916174 4.01127551071131
0

0101000
+259 0 -257 0 *
Ve
1.00000049618896e-07
5.51499637947641 -9 5.10871878316968
0 0

0101101
*
Ed
 1e-07 1 1 0
1  7 0 3.9540604866418 3.99382221819136
2  19 2 1 3.9540604866418 3.99382221819136
2  20 9 0 3.9540604866418 3.99382221819136
2  21 1 0 3.9540604866418 3.99382221819136
0

0101000
+257 0 -255 0 *
Ve
1.00000025757174e-07
5.42499698223771 -9 5.2041906588691
0 0

0101101
*
Ed
 1e-07 1 1 0
1  8 0 3.93660719412185 3.97636892567141
2  22 2 1 3.93660719412185 3.97636892567141
2  23 10 0 3.93660719412185 3.97636892567141
2  24 1 0 3.93660719412185 3.97636892567141
0

0101000
+255 0 -253 0 *
Ve
1.00000027633627e-07
5.33334507836507 -9 5.29807728767972
0 0

0101101
*
Ed
 1e-07 1 1 0
1  9 0 3.91915390160189 3.95891563315145
2  25 2 1 3.91915390160189 3.95891563315145
2  26 11 0 3.91915390160189 3.95891563315145
2  27 1 0 3.91915390160189 3.95891563315145
0

0101000
+253 0 -251 0 *
Ve
1.00000049650683e-07
5.24006858591622 -9 5.39035007082496
0 0

0101101
*
Ed
 1e-07 1 1 0
1  10 0 3.90170060908194 3.94146234063153
2  28 2 1 3.90170060908194 3.94146234063153
2  29 12 0 3.90170060908194 3.94146234063153
2  30 1 0 3.90170060908194 3.94146234063153
0

0101000
+251 0 -249 0 *
Ve
1.00000025152862e-07
5.1451959178145 -9 5.48098090112105
0 0

0101101
*
Ed
 1e-07 1 1 0
1  11 0 3.88424731656202 3.92400904811158
2  31 2 1 3.88424731656202 3.92400904811158
2  32 13 0 3.88424731656202 3.92400904811158
2  33 1 0 3.88424731656202 3.92400904811158
0

0101000
+249 0 -247 0 *
Ve
1.00000024565801e-07
5.04875597319355 -9 5.56994217153923
0 0

0101101
*
Ed
 1e-07 1 1 0
1  12 0 3.86679402404207 3.90655575559163
2  34 2 1 3.86679402404207 3.90655575559163
2  35 14 0 3.86679402404207 3.90655575559163
2  36 1 0 3.86679402404207 3.90655575559163
0

0101000
+247 0 -245 0 *
Ve
1.00000049243867e-07
4.95077812859475 -9 5.65720678361473
0 0

0101101
*
Ed
 1e-07 1 1 0
1  13 0 3.84934073152212 3.88910246307169
2  37 2 1 3.84934073152212 3.88910246307169
2  38 15 0 3.84934073152212 3.88910246307169
2  39 1 0 3.84934073152212 3.88910246307169
0

0101000
+245 0 -243 0 *
Ve
1.00000025940284e-07
4.85129222901876 -9 5.74274815570131
0 0

0101101
*
Ed
 1e-07 1 1 0
1  14 0 3.83188743900218 3.87164917055174
2  40 2 1 3.83188743900218 3.87164917055174
2  41 16 0 3.83188743900218 3.87164917055174
2  42 1 0 3.83188743900218 3.87164917055174
0

0101000
+243 0 -241 0 *
Ve
1.00000049563221e-07
4.75032857883417 -9 5.82654023106851
0 0

0101101
*
Ed
 1e-07 1 1 0
1  15 0 3.81443414648223 3.85419587803183
2  43 2 1 3.81443414648223 3.85419587803183
2  44 17 0 3.81443414648223 3.85419587803183
2  45 1 0 3.81443414648223 3.85419587803183
0

0101000
+241 0 -239 0 *
Ve
1.00000049563221e-07
4.64791793254714 -9 5.90855748583826
0 0

0101101
*
Ed
 1e-07 1 1 0
1  16 0 3.79698085396232 3.83674258551187
2  46 2 1 3.79698085396232 3.83674258551187
2  47 18 0 3.79698085396232 3.83674258551187
2  48 1 0 3.79698085396232 3.83674258551187
0

0101000
+239 0 -237 0 *
Ve
1.00000024884851e-07
4.54409148543244 -9 5.98877493676036
0 0

0101101
*
Ed
 1e-07 1 1 0
1  17 0 3.77952756144236 3.81928929299192
2  49 2 1 3.77952756144236 3.81928929299192
2  50 19 0 3.77952756144236 3.81928929299192
2  51 1 0 3.77952756144236 3.81928929299192
0

0101000
+237 0 -235 0 *
Ve
1.00000025618983e-07
4.43888086403165 -9 6.06716814882217
0 0

0101101
*
Ed
 1e-07 1 1 0
1  18 0 3.7620742689224 3.80183600047197
2  52 2 1 3.7620742689224 3.80183600047197
2  53 20 0 3.7620742689224 3.80183600047197
2  54 1 0 3.7620742689224 3.80183600047197
0

0101000
+235 0 -233 0 *
Ve
1.0000005000689e-07
4.3323181165192 -9 6.14371324269193
0 0

0101101
*
Ed
 1e-07 1 1 0
1  19 0 3.74462097640246 3.78438270795206
2  55 2 1 3.74462097640246 3.78438270795206
2  56 21 0 3.74462097640246 3.78438270795206
2  57 1 0 3.74462097640246 3.78438270795206
0

0101000
+233 0 -231 0 *
Ve
1.00000049523414e-07
4.22443570294046 -9 6.2183869019924
0 0

0101101
*
Ed
 1e-07 1 1 0
1  20 0 3.72716768388254 3.7669294154321
2  58 2 1 3.72716768388254 3.7669294154321
2  59 22 0 3.72716768388254 3.7669294154321
2  60 1 0 3.72716768388254 3.7669294154321
0

0101000
+231 0 -229 0 *
Ve
1.00000001601186e-07
2.85516296129672 -9 8
0 0

0101101
*
Ed
 1e-07 1 1 0
1  21 0 3.70971439136258 4.40451811198664
2  61 2 1 3.70971439136258 4.40451811198664
2  62 23 0 3.70971439136258 4.40451811198664
2  63 1 0 3.70971439136258 4.40451811198664
0

0101000
+229 0 -227 0 *
Ve
1e-07
-6 -9 8
0 0

0101101
*
Ed
 1e-07 1 1 0
1  22 0 0 8.85516296129672
2  64 2 0 0 8.85516296129672
2  65 24 0 0 8.85516296129672
2  66 1 2 0 8.85516296129672
0

0101000
+225 2 -227 2 *
Ve
1.00000206943666e-07
-6.00000000000004 -9 2.4999999999998
0 0

0101101
*
Ed
 1e-07 1 1 0
1  23 0 13.4999999999998 19
2  67 2 0 13.4999999999998 19
2  68 25 0 13.4999999999998 19
2  69 1 2 13.4999999999998 19
0

0101000
+223 2 -225 2 *
Ve
1.00000014022253e-07
-6 -9 -2.49999999999999
0 0

0101101
*
Ed
 1e-07 1 1 0
1  24 0 4.31759786068493 5.10718010008442
2  70 26 0 4.31759786068493 5.10718010008442
2  71 27 0 4.31759786068493 5.10718010008442
2  72 1 0 4.31759786068493 5.10718010008442
0

0101000
+221 0 -223 0 *
Ve
1.00000078903043e-07
-6 -9 -10.6862025050703
0 0

0101101
*
Ed
 1e-07 1 1 0
1  23 0 0.31379749492972 8.50000000000001
2  67 2 0 0.31379749492972 8.50000000000001
2  68 25 0 0.31379749492972 8.50000000000001
2  73 1 2 0.31379749492972 8.50000000000001
0

0101000
+219 2 -221 2 *
Ve
1.50000001779823e-07
0.415516427288094 -9 -9.55497386376101
0 0

0101101
*
Ed
 1e-07 1 1 0
1  25 0 1.88551389074151 8.4
2  74 1 0 1.88551389074151 8.4
2  75 28 9 1.88551389074151 8.4
0

0101000
+219 0 -217 0 *
Ve
1.50000000222045e-07
0.670313522935935 -9 -11
0 0

0101101
*
Ed
 1.5e-07 1 1 0
1  26 0 4.1819660112501 5.64928400485761
2  76 1 0 4.1819660112501 5.64928400485761
2  77 29 9 4.1819660112501 5.64928400485761
0

0101000
+217 0 -215 0 *
Ve
1e-07
6 -9 -11
0 0

0101101
*
Ed
 1e-07 1 1 0
1  27 0 6.67031352293593 12
2  78 2 0 6.67031352293593 12
2  79 1 2 6.67031352293593 12
2  80 30 0 6.67031352293593 12
2  81 31 14 6.67031352293593 12
2  82 32 19 6.67031352293593 12
2  83 33 23 6.67031352293593 12
2  84 34 27 6.67031352293593 12
2  85 35 31 6.67031352293593 12
2  86 36 35 6.67031352293593 12
0

0101000
+215 2 -213 2 *
Ve
1.00000016377201e-07
6 -9 -2.49999999999998
0 0

0101101
*
Ed
 1e-07 1 1 0
1  1 0 0 8.50000000000002
2  1 2 0 0 8.50000000000002
2  2 3 0 0 8.50000000000002
2  87 1 2 0 8.50000000000002
0

0101000
+213 2 -211 2 *
Ed
 1e-07 1 1 0
1  24 0 1.17600520709517 1.96558744649466
2  70 26 0 1.17600520709517 1.96558744649466
2  71 27 0 1.17600520709517 1.96558744649466
2  88 1 0 1.17600520709517 1.96558744649466
0

0101000
+268 0 -211 0 *
Wi

0101100
-266 1 -264 0 -262 0 -260 0 -258 0 -256 0 -254 0 -252 0 -250 0 -248 0 
-246 0 -244 0 -242 0 -240 0 -238 0 -236 0 -234 0 -232 0 -230 0 -228 0 
-226 0 +224 1 +222 1 +220 0 +218 1 -216 0 -214 0 -212 1 -210 1 +209 0 
*
Ve
1.5e-07
-4.16010699526149 -9 -6.06452881829878
0 0

0101101
*
Ve
1.50000001256074e-07
-4.03855327089463 -9 -6.75389424540733
0 0

0101101
*
Ed
 1.5e-07 1 1 0
1  28 0 2.45 3.15
2  89 1 0 2.45 3.15
2  90 37 9 2.45 3.15
0

0101000
+207 0 -206 0 *
Ve
1.50000000111022e-07
-0.811760635019979 -9 -5.47412501423122
0 0

0101101
*
Ed
 1e-07 1 1 0
1  29 0 0 3.4
2  91 1 0 0 3.4
2  92 38 9 0 3.4
0

0101000
+207 0 -204 0 *
Ve
1.50000000915513e-07
-0.690206910653128 -9 -6.16349044133977
0 0

0101101
*
Ed
 1e-07 1 1 0
1  30 0 1.54230564024021e-16 3.4
2  93 1 0 1.54230564024021e-16 3.4
2  94 38 9 1.54230564024021e-16 3.4
2  95 39 0 1.54230564024021e-16 3.4
0

0101000
+206 0 -202 0 *
Ed
 1.5e-07 1 1 0
1  31 0 2.45 3.15
2  96 1 0 2.45 3.15
2  97 40 9 2.45 3.15
0

0101000
+204 0 -202 0 *
Wi

0101100
+205 0 -203 0 +201 0 -200 0 *
Ve
1.0000000184297e-07
-1.0164568432923e-15 -9 4.15
0 0

0101101
*
Ed
 1.0000000184297e-07 1 1 0
1  32 0 0 6.28318530717959
2  98 27 0 0 6.28318530717959
2  99 41 0 0 6.28318530717959
2  100 2 1 0 6.28318530717959
2  101 42 0 0 6.28318530717959
2  102 1 0 0 6.28318530717959
0

0101000
+198 0 -198 0 *
Wi

0101100
-197 0 *
Fa
0  1e-07 1 0

0101000
+208 0 +199 0 +196 0 *
Ve
1.00000001016457e-07
-1.0164568432923e-15 -7 4.15
0 0

0101101
*
Ed
 1.00000000444089e-07 1 1 0
1  33 0 0 6.28318530717959
2  103 43 0 0 6.28318530717959
2  104 41 0 0 6.28318530717959
2  105 44 1 0 6.28318530717959
2  106 42 0 0 6.28318530717959
2  107 45 0 0 6.28318530717959
0

0101100
+194 0 -194 0 *
Ed
 1e-07 1 1 0
1  34 0 0 2
3  108 109CN 42 0 0 2
0

0101000
+198 0 -194 0 *
Wi

0101100
-193 0 +192 0 +197 0 -192 0 *
Fa
0  1e-07 42 0

0101000
+191 0 *
Ve
1.00000207378249e-07
6.00000000000004 -7 2.4999999999998
0 0

0101101
*
Ve
1.00000010658141e-07
6 -7 4.52815065958955
0 0

0101101
*
Ed
 1e-07 1 1 0
1  35 0 13.4999999999998 15.5281506595895
2  110 44 0 13.4999999999998 15.5281506595895
2  111 3 0 13.4999999999998 15.5281506595895
2  112 45 2 13.4999999999998 15.5281506595895
0

0101000
+189 2 -188 2 *
Ve
1.00000025940284e-07
5.9392643332657 -7 4.60861496013136
0 0

0101101
*
Ed
 1e-07 1 1 0
1  36 0 4.05053800272333 4.08108868079105
2  113 44 1 4.05053800272333 4.08108868079105
2  114 4 0 4.05053800272333 4.08108868079105
2  115 45 0 4.05053800272333 4.08108868079105
0

0101000
+188 0 -186 0 *
Ve
1.00000025152862e-07
5.85792833314309 -7 4.71156750083325
0 0

0101101
*
Ed
 1e-07 1 1 0
1  37 0 4.02387365672154 4.06363538827112
2  116 44 1 4.02387365672154 4.06363538827112
2  117 5 0 4.02387365672154 4.06363538827112
2  118 45 0 4.02387365672154 4.06363538827112
0

0101000
+186 0 -184 0 *
Ve
1.00000025152862e-07
5.77480795130319 -7 4.81308485243239
0 0

0101101
*
Ed
 1e-07 1 1 0
1  38 0 4.00642036420161 4.04618209575118
2  119 44 1 4.00642036420161 4.04618209575118
2  120 6 0 4.00642036420161 4.04618209575118
2  121 45 0 4.00642036420161 4.04618209575118
0

0101000
+184 0 -182 0 *
Ve
1.00000051560268e-07
5.68992850701949 -7 4.91313609176009
0 0

0101101
*
Ed
 1e-07 1 1 0
1  39 0 3.98896707168167 4.02872880323125
2  122 44 1 3.98896707168167 4.02872880323125
2  123 7 0 3.98896707168167 4.02872880323125
2  124 45 0 3.98896707168167 4.02872880323125
0

0101000
+182 0 -180 0 *
Ve
1.00000049618896e-07
5.60331585539299 -7 5.0116907422396
0 0

0101101
*
Ed
 1e-07 1 1 0
1  40 0 3.97151377916174 4.01127551071131
2  125 44 1 3.97151377916174 4.01127551071131
2  126 8 0 3.97151377916174 4.01127551071131
2  127 45 0 3.97151377916174 4.01127551071131
0

0101000
+180 0 -178 0 *
Ve
1.00000049618896e-07
5.51499637947641 -7 5.10871878316968
0 0

0101101
*
Ed
 1e-07 1 1 0
1  41 0 3.9540604866418 3.99382221819136
2  128 44 1 3.9540604866418 3.99382221819136
2  129 9 0 3.9540604866418 3.99382221819136
2  130 45 0 3.9540604866418 3.99382221819136
0

0101000
+178 0 -176 0 *
Ve
1.00000025757174e-07
5.42499698223771 -7 5.2041906588691
0 0

0101101
*
Ed
 1e-07 1 1 0
1  42 0 3.93660719412185 3.97636892567141
2  131 44 1 3.93660719412185 3.97636892567141
2  132 10 0 3.93660719412185 3.97636892567141
2  133 45 0 3.93660719412185 3.97636892567141
0

0101000
+176 0 -174 0 *
Ve
1.00000027633627e-07
5.33334507836507 -7 5.29807728767972
0 0

0101101
*
Ed
 1e-07 1 1 0
1  43 0 3.91915390160189 3.95891563315145
2  134 44 1 3.91915390160189 3.95891563315145
2  135 11 0 3.91915390160189 3.95891563315145
2  136 45 0 3.91915390160189 3.95891563315145
0

0101000
+174 0 -172 0 *
Ve
1.00000049650683e-07
5.24006858591622 -7 5.39035007082496
0 0

0101101
*
Ed
 1e-07 1 1 0
1  44 0 3.90170060908194 3.94146234063153
2  137 44 1 3.90170060908194 3.94146234063153
2  138 12 0 3.90170060908194 3.94146234063153
2  139 45 0 3.90170060908194 3.94146234063153
0

0101000
+172 0 -170 0 *
Ve
1.00000025152862e-07
5.1451959178145 -7 5.48098090112105
0 0

0101101
*
Ed
 1e-07 1 1 0
1  45 0 3.88424731656202 3.92400904811158
2  140 44 1 3.88424731656202 3.92400904811158
2  141 13 0 3.88424731656202 3.92400904811158
2  142 45 0 3.88424731656202 3.92400904811158
0

0101000
+170 0 -168 0 *
Ve
1.00000024565801e-07
5.04875597319355 -7 5.56994217153923
0 0

0101101
*
Ed
 1e-07 1 1 0
1  46 0 3.86679402404207 3.90655575559163
2  143 44 1 3.86679402404207 3.90655575559163
2  144 14 0 3.86679402404207 3.90655575559163
2  145 45 0 3.86679402404207 3.90655575559163
0

0101000
+168 0 -166 0 *
Ve
1.00000049243867e-07
4.95077812859475 -7 5.65720678361473
0 0

0101101
*
Ed
 1e-07 1 1 0
1  47 0 3.84934073152212 3.88910246307169
2  146 44 1 3.84934073152212 3.88910246307169
2  147 15 0 3.84934073152212 3.88910246307169
2  148 45 0 3.84934073152212 3.88910246307169
0

0101000
+166 0 -164 0 *
Ve
1.00000025940284e-07
4.85129222901876 -7 5.74274815570131
0 0

0101101
*
Ed
 1e-07 1 1 0
1  48 0 3.83188743900218 3.87164917055174
2  149 44 1 3.83188743900218 3.87164917055174
2  150 16 0 3.83188743900218 3.87164917055174
2  151 45 0 3.83188743900218 3.87164917055174
0

0101000
+164 0 -162 0 *
Ve
1.00000049563221e-07
4.75032857883417 -7 5.82654023106851
0 0

0101101
*
Ed
 1e-07 1 1 0
1  49 0 3.81443414648223 3.85419587803183
2  152 44 1 3.81443414648223 3.85419587803183
2  153 17 0 3.81443414648223 3.85419587803183
2  154 45 0 3.81443414648223 3.85419587803183
0

0101000
+162 0 -160 0 *
Ve
1.00000049563221e-07
4.64791793254714 -7 5.90855748583826
0 0

0101101
*
Ed
 1e-07 1 1 0
1  50 0 3.79698085396232 3.83674258551187
2  155 44 1 3.79698085396232 3.83674258551187
2  156 18 0 3.79698085396232 3.83674258551187
2  157 45 0 3.79698085396232 3.83674258551187
0

0101000
+160 0 -158 0 *
Ve
1.00000024884851e-07
4.54409148543244 -7 5.98877493676036
0 0

0101101
*
Ed
 1e-07 1 1 0
1  51 0 3.77952756144236 3.81928929299192
2  158 44 1 3.77952756144236 3.81928929299192
2  159 19 0 3.77952756144236 3.81928929299192
2  160 45 0 3.77952756144236 3.81928929299192
0

0101000
+158 0 -156 0 *
Ve
1.00000025618983e-07
4.43888086403165 -7 6.06716814882217
0 0

0101101
*
Ed
 1e-07 1 1 0
1  52 0 3.7620742689224 3.80183600047197
2  161 44 1 3.7620742689224 3.80183600047197
2  162 20 0 3.7620742689224 3.80183600047197
2  163 45 0 3.7620742689224 3.80183600047197
0

0101000
+156 0 -154 0 *
Ve
1.0000005000689e-07
4.3323181165192 -7 6.14371324269193
0 0

0101101
*
Ed
 1e-07 1 1 0
1  53 0 3.74462097640246 3.78438270795206
2  164 44 1 3.74462097640246 3.78438270795206
2  165 21 0 3.74462097640246 3.78438270795206
2  166 45 0 3.74462097640246 3.78438270795206
0

0101000
+154 0 -152 0 *
Ve
1.00000049523414e-07
4.22443570294046 -7 6.2183869019924
0 0

0101101
*
Ed
 1e-07 1 1 0
1  54 0 3.72716768388254 3.7669294154321
2  167 44 1 3.72716768388254 3.7669294154321
2  168 22 0 3.72716768388254 3.7669294154321
2  169 45 0 3.72716768388254 3.7669294154321
0

0101000
+152 0 -150 0 *
Ve
1.00000001601186e-07
2.85516296129672 -7 8
0 0

0101101
*
Ed
 1e-07 1 1 0
1  55 0 3.70971439136258 4.40451811198664
2  170 44 1 3.70971439136258 4.40451811198664
2  171 23 0 3.70971439136258 4.40451811198664
2  172 45 0 3.70971439136258 4.40451811198664
0

0101000
+150 0 -148 0 *
Ve
1e-07
-6 -7 8
0 0

0101101
*
Ed
 1e-07 1 1 0
1  56 0 0 8.85516296129672
2  173 44 0 0 8.85516296129672
2  174 24 0 0 8.85516296129672
2  175 45 2 0 8.85516296129672
0

0101000
+146 2 -148 2 *
Ve
1.00000206943666e-07
-6.00000000000004 -7 2.4999999999998
0 0

0101101
*
Ed
 1e-07 1 1 0
1  57 0 13.4999999999998 19
2  176 44 0 13.4999999999998 19
2  177 25 0 13.4999999999998 19
2  178 45 2 13.4999999999998 19
0

0101000
+144 2 -146 2 *
Ve
1.00000014022253e-07
-6 -7 -2.49999999999999
0 0

0101101
*
Ed
 1e-07 1 1 0
1  58 0 4.31759786068493 5.10718010008442
2  179 26 0 4.31759786068493 5.10718010008442
2  180 43 0 4.31759786068493 5.10718010008442
2  181 45 0 4.31759786068493 5.10718010008442
0

0101000
+142 0 -144 0 *
Ve
1.00000000888178e-07
-6 -7 -5.9054708557281
0 0

0101101
*
Ed
 1e-07 1 1 0
1  57 0 5.0945291442719 8.50000000000001
2  176 44 0 5.0945291442719 8.50000000000001
2  177 25 0 5.0945291442719 8.50000000000001
2  182 45 2 5.0945291442719 8.50000000000001
0

0101000
+140 2 -142 2 *
Ve
1.50000000888178e-07
-4.2427870714143 -7 -5.5956268055687
0 0

0101101
*
Ed
 1e-07 1 1 0
1  59 0 3.0656792295644 4.85
2  183 45 0 3.0656792295644 4.85
2  184 46 9 3.0656792295644 4.85
2  185 47 0 3.0656792295644 4.85
0

0101000
+140 0 -138 0 *
Ve
1.50000000888178e-07
-4.26611376135884 -7 -5.46333457297442
0 0

0101101
*
Ed
 1.5e-07 1 1 0
1  60 0 1.83953136438507 1.97386441790709
2  186 45 0 1.83953136438507 1.97386441790709
2  187 37 9 1.83953136438507 1.97386441790709
0

0101000
+136 0 -138 0 *
Ve
1.5000000089509e-07
-0.917767401117329 -7 -4.87293076890686
0 0

0101101
*
Ed
 1e-07 1 1 0
1  61 0 0 3.4
2  188 45 0 0 3.4
2  189 38 9 0 3.4
0

0101000
+136 0 -134 0 *
Ve
1.5000000089509e-07
-0.584200144555778 -7 -6.76468468666413
0 0

0101101
*
Ed
 1.5e-07 1 1 0
1  62 0 1.83953136438507 3.76046863561493
2  190 45 0 1.83953136438507 3.76046863561493
2  191 40 9 1.83953136438507 3.76046863561493
0

0101000
+134 0 -132 0 *
Ve
1.50000000993014e-07
-3.93254650479728 -7 -7.35508849073169
0 0

0101101
*
Ed
 1e-07 1 1 0
1  63 0 0 3.4
2  192 45 0 0 3.4
2  193 38 9 0 3.4
2  194 39 0 0 3.4
0

0101000
+130 0 -132 0 *
Ve
1.50000001256074e-07
-3.95587319474182 -7 -7.22279625813741
0 0

0101101
*
Ed
 1.5e-07 1 1 0
1  60 0 3.62613558209292 3.76046863561493
2  186 45 0 3.62613558209292 3.76046863561493
2  187 37 9 3.62613558209292 3.76046863561493
0

0101000
+128 0 -130 0 *
Ve
1.00000003552714e-07
-6 -7 -7.58323096589383
0 0

0101101
*
Ed
 1e-07 1 1 0
1  64 0 2.77433924387185 4.85
2  195 45 0 2.77433924387185 4.85
2  196 46 9 2.77433924387185 4.85
2  197 47 0 2.77433924387185 4.85
0

0101000
+126 0 -128 0 *
Ve
1.00000078982986e-07
-6 -7 -10.6862025050703
0 0

0101101
*
Ed
 1e-07 1 1 0
1  57 0 0.31379749492972 3.41676903410617
2  176 44 0 0.31379749492972 3.41676903410617
2  177 25 0 0.31379749492972 3.41676903410617
2  182 45 2 0.31379749492972 3.41676903410617
0

0101000
+124 2 -126 2 *
Ve
1.50000001784146e-07
0.415516427288095 -7 -9.55497386376101
0 0

0101101
*
Ed
 1e-07 1 1 0
1  65 0 1.88551389074151 8.4
2  198 45 0 1.88551389074151 8.4
2  199 28 9 1.88551389074151 8.4
0

0101000
+124 0 -122 0 *
Ve
1.50000000222045e-07
0.670313522935935 -7 -11
0 0

0101101
*
Ed
 1.5e-07 1 1 0
1  66 0 4.1819660112501 5.64928400485761
2  200 45 0 4.1819660112501 5.64928400485761
2  201 29 9 4.1819660112501 5.64928400485761
0

0101000
+122 0 -120 0 *
Ve
1e-07
6 -7 -11
0 0

0101101
*
Ed
 1e-07 1 1 0
1  67 0 6.67031352293593 12
2  202 44 0 6.67031352293593 12
2  203 45 2 6.67031352293593 12
2  204 30 0 6.67031352293593 12
2  205 31 14 6.67031352293593 12
2  206 32 19 6.67031352293593 12
2  207 33 23 6.67031352293593 12
2  208 34 27 6.67031352293593 12
2  209 35 31 6.67031352293593 12
2  210 36 35 6.67031352293593 12
0

0101000
+120 2 -118 2 *
Ve
1.00000016377201e-07
6 -7 -2.49999999999998
0 0

0101101
*
Ed
 1e-07 1 1 0
1  35 0 0 8.50000000000002
2  110 44 0 0 8.50000000000002
2  111 3 0 0 8.50000000000002
2  211 45 2 0 8.50000000000002
0

0101000
+118 2 -116 2 *
Ed
 1e-07 1 1 0
1  58 0 1.17600520709517 1.96558744649466
2  179 26 0 1.17600520709517 1.96558744649466
2  180 43 0 1.17600520709517 1.96558744649466
2  212 45 0 1.17600520709517 1.96558744649466
0

0101000
+189 0 -116 0 *
Wi

0101100
-187 1 -185 0 -183 0 -181 0 -179 0 -177 0 -175 0 -173 0 -171 0 -169 0 
-167 0 -165 0 -163 0 -161 0 -159 0 -157 0 -155 0 -153 0 -151 0 -149 0 
-147 0 +145 1 +143 1 +141 0 +139 1 -137 0 +135 0 -133 0 -131 0 +129 0 
+127 0 +125 0 +123 1 -121 0 -119 0 -117 1 -115 1 +114 0 *
Wi

0101100
-193 0 *
Fa
0  1e-07 45 0

0101000
+113 0 +112 0 *
Ve
1.00000000888178e-07
-6 -7.8 -7.91209151447957
0 0

0101101
*
Ed
 1e-07 1 1 0
1  68 0 5.51385796365644 9.42477796076938
2  213 25 1 5.51385796365644 9.42477796076938
2  214 46 9 5.51385796365644 9.42477796076938
2  215 47 0 5.51385796365644 9.42477796076938
2  216 48 0 5.51385796365644 9.42477796076938
0

0101000
+140 0 -110 0 *
Ed
 1e-07 1 1 0
1  69 0 3.14159265358979 3.91091999711294
2  217 25 1 3.14159265358979 3.91091999711294
2  218 46 9 3.14159265358979 3.91091999711294
2  219 47 0 3.14159265358979 3.91091999711294
2  220 48 0 3.14159265358979 3.91091999711294
0

0101000
+110 0 -126 0 *
Ed
 1e-07 1 1 0
1  70 0 0 4.68024734063609
2  221 47 0 0 4.68024734063609
2  222 37 9 0 4.68024734063609
0

0101000
+128 0 -138 0 *
Wi

0101100
+109 0 +108 0 +125 0 +107 0 -137 0 *
Fa
0  0 47 0

0101000
+106 0 *
Ed
 1e-07 1 1 0
1  71 0 0 1.98150048321313
2  223 39 0 0 1.98150048321313
2  224 40 9 0 1.98150048321313
0

0101000
+202 0 -132 0 *
Ed
 1e-07 1 1 0
1  72 0 2.44709438796324 4.42859487117636
2  225 38 0 2.44709438796324 4.42859487117636
2  226 40 0 2.44709438796324 4.42859487117636
0

0101000
+134 36 -204 36 *
Wi

0101100
+104 0 -131 0 +103 9 +200 0 *
Fa
0  1e-07 40 9

0101000
+102 0 *
Ed
 1e-07 1 1 0
1  73 0 0 1.98150048321313
2  227 39 0 0 1.98150048321313
2  228 37 9 0 1.98150048321313
0

0101000
+206 0 -130 0 *
Wi

0101100
+100 0 +129 0 -104 0 -201 0 *
Fa
0  0 39 0

0101000
+99 0 *
Ed
 1e-07 1 1 0
1  74 0 2.44709438796324 4.42859487117636
2  229 38 0 2.44709438796324 4.42859487117636
2  230 37 0 2.44709438796324 4.42859487117636
0

0101000
+136 36 -207 36 *
Wi

0101100
-103 9 +203 0 +97 9 -133 0 *
Fa
0  1e-07 38 9

0101000
+96 0 *
Wi

0101100
+100 0 -127 0 +107 0 -135 0 +97 9 +205 0 *
Fa
0  1e-07 37 9

0101000
+94 0 *
Ed
 1e-07 1 1 0
1  75 0 0 2
2  231 26 0 0 2
2  232 3 1 0 2
0

0101000
+211 0 -116 0 *
Ed
 1e-07 1 1 0
1  76 0 0 2
2  233 26 0 0 2
2  234 3 1 0 2
0

0101000
+268 0 -189 0 *
Wi

0101100
-114 0 +92 0 +209 0 -91 0 *
Fa
0  1e-07 26 0

0101000
+90 0 *
Ed
 1e-07 1 1 0
1  77 0 0 2
2  235 3 0 0 2
2  236 30 0 0 2
2  237 31 14 0 2
2  238 32 19 0 2
2  239 33 23 0 2
2  240 34 27 0 2
2  241 35 31 0 2
2  242 36 35 0 2
0

0101000
-118 2 +213 2 *
Wi

0101100
-210 1 -92 0 +115 1 +88 1 *
Fa
0  1e-07 3 1

0101000
+87 0 *
Ed
 1.5e-07 1 1 0
1  78 0 -0.5 1.5
2  243 30 1 -0.5 1.5
2  244 29 9 -0.5 1.5
2  245 31 37 -0.5 1.5
2  246 32 38 -0.5 1.5
2  247 33 39 -0.5 1.5
2  248 34 40 -0.5 1.5
2  249 35 41 -0.5 1.5
2  250 36 42 -0.5 1.5
0

0101000
+215 0 -120 0 *
Wi

0101100
-117 1 +88 1 +212 1 -85 0 *
Fa
0  1e-07 30 1

0101000
+84 0 *
Ed
 1e-07 1 1 0
1  79 0 2.41186499736283 3.87132030981676
2  251 28 0 2.41186499736283 3.87132030981676
2  252 29 0 2.41186499736283 3.87132030981676
0

0101000
+122 36 -217 36 *
Wi

0101100
-119 0 +85 0 +214 0 +82 9 *
Fa
0  1e-07 29 9

0101000
+81 0 *
Ed
 1.00000065062574e-07 1 1 0
1  80 0 5.55345765095262 7.01291296340655
2  253 25 1 5.55345765095262 7.01291296340655
2  254 28 9 5.55345765095262 7.01291296340655
2  255 49 50 5.55345765095262 7.01291296340655
2  256 50 58 5.55345765095262 7.01291296340655
2  257 49 66 5.55345765095262 7.01291296340655
2  258 50 74 5.55345765095262 7.01291296340655
2  259 49 82 5.55345765095262 7.01291296340655
2  260 50 90 5.55345765095262 7.01291296340655
0

0101000
+124 0 -219 0 *
Wi

0101100
-82 9 +216 0 +79 0 -121 0 *
Fa
0  1e-07 28 9

0101000
+78 0 *
Ed
 1e-07 1 1 0
1  81 0 0 2
2  261 26 0 0 2
2  262 25 1 0 2
0

0101000
+221 0 -142 0 *
Wi

0101100
-218 1 -76 0 +139 1 -109 0 -108 0 +123 1 -79 0 *
Fa
0  1e-07 25 1

0101000
+75 0 *
Ed
 1e-07 1 1 0
1  82 0 0 2
2  263 26 0 0 2
2  264 25 1 0 2
0

0101000
+223 0 -144 0 *
Wi

0101100
+73 0 +220 0 -76 0 -141 0 *
Fa
0  1e-07 26 0

0101000
+72 0 *
Ed
 1e-07 1 1 0
1  83 0 0 2
2  265 25 0 0 2
2  266 24 0 0 2
0

0101000
-146 2 +225 2 *
Wi

0101100
-222 1 -70 1 +143 1 +73 0 *
Fa
0  1e-07 25 1

0101000
+69 0 *
Ed
 1e-07 1 1 0
1  84 0 1 3
2  267 24 1 1 3
2  268 23 0 1 3
0

0101000
+227 0 -148 0 *
Wi

0101100
-145 1 +67 0 +224 1 -70 1 *
Fa
0  1e-07 24 1

0101000
+66 0 *
Ed
 1e-07 1 1 0
1  85 0 1 3
2  269 23 0 1 3
2  270 22 0 1 3
0

0101000
+229 0 -150 0 *
Wi

0101100
-64 0 -147 0 +67 0 +226 0 *
Fa
0  1e-07 23 0

0101000
+63 0 *
Ed
 1e-07 1 1 0
1  86 0 1 3
2  271 22 0 1 3
2  272 21 0 1 3
0

0101000
+231 0 -152 0 *
Wi

0101100
-61 0 -149 0 +64 0 +228 0 *
Fa
0  1e-07 22 0

0101000
+60 0 *
Ed
 1e-07 1 1 0
1  87 0 1 3
2  273 21 0 1 3
2  274 20 0 1 3
0

0101000
+233 0 -154 0 *
Wi

0101100
-58 0 -151 0 +61 0 +230 0 *
Fa
0  1e-07 21 0

0101000
+57 0 *
Ed
 1e-07 1 1 0
1  88 0 1 3
2  275 20 0 1 3
2  276 19 0 1 3
0

0101000
+235 0 -156 0 *
Wi

0101100
-55 0 -153 0 +58 0 +232 0 *
Fa
0  1e-07 20 0

0101000
+54 0 *
Ed
 1e-07 1 1 0
1  89 0 1 3
2  277 19 0 1 3
2  278 18 0 1 3
0

0101000
+237 0 -158 0 *
Wi

0101100
-52 0 -155 0 +55 0 +234 0 *
Fa
0  1e-07 19 0

0101000
+51 0 *
Ed
 1e-07 1 1 0
1  90 0 1 3
2  279 18 0 1 3
2  280 17 0 1 3
0

0101000
+239 0 -160 0 *
Wi

0101100
-49 0 -157 0 +52 0 +236 0 *
Fa
0  1e-07 18 0

0101000
+48 0 *
Ed
 1e-07 1 1 0
1  91 0 1 3
2  281 17 0 1 3
2  282 16 0 1 3
0

0101000
+241 0 -162 0 *
Wi

0101100
-46 0 -159 0 +49 0 +238 0 *
Fa
0  1e-07 17 0

0101000
+45 0 *
Ed
 1e-07 1 1 0
1  92 0 1 3
2  283 16 0 1 3
2  284 15 0 1 3
0

0101000
+243 0 -164 0 *
Wi

0101100
-43 0 -161 0 +46 0 +240 0 *
Fa
0  1e-07 16 0

0101000
+42 0 *
Ed
 1e-07 1 1 0
1  93 0 1 3
2  285 15 0 1 3
2  286 14 0 1 3
0

0101000
+245 0 -166 0 *
Wi

0101100
-40 0 -163 0 +43 0 +242 0 *
Fa
0  1e-07 15 0

0101000
+39 0 *
Ed
 1e-07 1 1 0
1  94 0 1 3
2  287 14 0 1 3
2  288 13 0 1 3
0

0101000
+247 0 -168 0 *
Wi

0101100
-37 0 -165 0 +40 0 +244 0 *
Fa
0  1e-07 14 0

0101000
+36 0 *
Ed
 1e-07 1 1 0
1  95 0 1 3
2  289 13 0 1 3
2  290 12 0 1 3
0

0101000
+249 0 -170 0 *
Wi

0101100
-34 0 -167 0 +37 0 +246 0 *
Fa
0  1e-07 13 0

0101000
+33 0 *
Ed
 1e-07 1 1 0
1  96 0 1 3
2  291 12 0 1 3
2  292 11 0 1 3
0

0101000
+251 0 -172 0 *
Wi

0101100
-31 0 -169 0 +34 0 +248 0 *
Fa
0  1e-07 12 0

0101000
+30 0 *
Ed
 1e-07 1 1 0
1  97 0 1 3
2  293 11 0 1 3
2  294 10 0 1 3
0

0101000
+253 0 -174 0 *
Wi

0101100
-28 0 -171 0 +31 0 +250 0 *
Fa
0  1e-07 11 0

0101000
+27 0 *
Ed
 1e-07 1 1 0
1  98 0 1 3
2  295 10 0 1 3
2  296 9 0 1 3
0

0101000
+255 0 -176 0 *
Wi

0101100
-25 0 -173 0 +28 0 +252 0 *
Fa
0  1e-07 10 0

0101000
+24 0 *
Ed
 1e-07 1 1 0
1  99 0 1 3
2  297 9 0 1 3
2  298 8 0 1 3
0

0101000
+257 0 -178 0 *
Wi

0101100
-22 0 -175 0 +25 0 +254 0 *
Fa
0  1e-07 9 0

0101000
+21 0 *
Ed
 1e-07 1 1 0
1  100 0 1 3
2  299 8 0 1 3
2  300 7 0 1 3
0

0101000
+259 0 -180 0 *
Wi

0101100
-19 0 -177 0 +22 0 +256 0 *
Fa
0  1e-07 8 0

0101000
+18 0 *
Ed
 1e-07 1 1 0
1  101 0 1 3
2  301 7 0 1 3
2  302 6 0 1 3
0

0101000
+261 0 -182 0 *
Wi

0101100
-16 0 -179 0 +19 0 +258 0 *
Fa
0  1e-07 7 0

0101000
+15 0 *
Ed
 1e-07 1 1 0
1  102 0 1 3
2  303 6 0 1 3
2  304 5 0 1 3
0

0101000
+263 0 -184 0 *
Wi

0101100
-13 0 -181 0 +16 0 +260 0 *
Fa
0  1e-07 6 0

0101000
+12 0 *
Ed
 1e-07 1 1 0
1  103 0 1 3
2  305 5 0 1 3
2  306 4 0 1 3
0

0101000
+265 0 -186 0 *
Wi

0101100
-10 0 -183 0 +13 0 +262 0 *
Fa
0  1e-07 5 0

0101000
+9 0 *
Ed
 1e-07 1 1 0
1  104 0 1 3
2  307 3 1 1 3
2  308 4 0 1 3
0

0101000
+267 0 -188 0 *
Wi

0101100
-7 0 -185 0 +10 0 +264 0 *
Fa
0  1e-07 4 0

0101000
+6 0 *
Wi

0101100
-266 1 -7 0 +187 1 +91 0 *
Fa
0  1e-07 3 1

0101000
+4 0 *
Sh

0101100
-195 0 -190 0 +111 0 -105 0 -101 0 -98 0 -95 0 +93 0 +89 0 +86 0 
-83 0 -80 0 -77 0 -74 0 +71 0 -68 0 +65 0 -62 0 -59 0 -56 0 
-53 0 -50 0 -47 0 -44 0 -41 0 -38 0 -35 0 -32 0 -29 0 -26 0 
-23 0 -20 0 -17 0 -14 0 -11 0 -8 0 -5 0 +3 0 *
So

0100000
+2 0 *

+1 0 