DBRep_DrawableShape

CASCADE Topology V3, (c) Open Cascade
Locations 0
Curve2ds 12
1 0 4 1 0 
2 0 0 1 0 -0 1 26.5
1 6.2831853071795862 -0 0 1 
1 0 -0 0 1 
1 0 0 1 0 
2 0 0 1 0 -0 1 26.5
2 22 0 1 0 -0 1 3.2000000000000002
1 0 4.2000000000000002 1 0 
2 22 0 1 0 -0 1 3.2000000000000002
1 0 0.20000000000000001 1 0 
1 6.2831853071795862 -0 0 1 
1 0 -0 0 1 
Curves 6
2 0 0 4 0 0 1 1 0 -0 -0 1 0 26.5
1 26.5 -6.4906280354809723e-15 0 0 0 1 
2 0 0 0 0 0 1 1 0 -0 -0 1 0 26.5
2 22 0 4 0 0 1 1 0 -0 -0 1 0 3.2000000000000002
2 22 0 0 0 0 1 1 0 -0 -0 1 0 3.2000000000000002
1 25.199999999999999 -7.8377395145430589e-16 -0.20000000000000001 0 0 1 
Polygon3D 0
PolygonOnTriangulations 0
Surfaces 4
2 0 0 0 0 0 1 1 0 -0 -0 1 0 26.5
1 0 0 4 0 0 1 1 0 -0 -0 1 0 
1 0 0 0 0 0 1 1 0 -0 -0 1 0 
2 22 0 -0.20000000000000001 0 0 1 1 0 -0 -0 1 0 3.2000000000000002
Triangulations 0

TShapes 22
Ve
1e-07
26.5 -6.49062803548097e-15 4
0 0

0101101
*
Ed
 1e-07 1 1 0
1  1 0 0 6.28318530717959
2  1 1 0 0 6.28318530717959
2  2 2 0 0 6.28318530717959
0

0101000
+22 0 -22 0 *
Ve
1e-07
26.5 -6.49062803548097e-15 0
0 0

0101101
*
Ed
 1e-07 1 1 0
1  2 0 0 4
3  3 4CN 1 0 0 4
0

0101000
-22 0 +20 0 *
Ed
 1e-07 1 1 0
1  3 0 0 6.28318530717959
2  5 1 0 0 6.28318530717959
2  6 3 0 0 6.28318530717959
0

0101000
+20 0 -20 0 *
Wi

0101100
-21 0 +19 0 +18 0 -19 0 *
Fa
0  1e-07 1 0

0101000
+17 0 *
Wi

0101100
+21 0 *
Ve
1.00000000783774e-07
25.2 -7.83773951454306e-16 4
0 0

0101101
*
Ed
 1e-07 1 1 0
1  4 0 0 6.28318530717959
2  7 2 0 0 6.28318530717959
2  8 4 0 0 6.28318530717959
0

0101100
+14 0 -14 0 *
Wi

0101100
-13 0 *
Fa
0  1e-07 2 0

0101000
+15 0 +12 0 *
Wi

0101100
+18 0 *
Ve
1.00000000783774e-07
25.2 -7.83773951454306e-16 0
0 0

0101101
*
Ed
 1e-07 1 1 0
1  5 0 0 6.28318530717959
2  9 3 0 0 6.28318530717959
2  10 4 0 0 6.28318530717959
0

0101100
+9 0 -9 0 *
Wi

0101100
-8 0 *
Fa
0  1e-07 3 0

0101000
+10 0 +7 0 *
Ed
 1e-07 1 1 0
1  6 0 0.2 4.2
3  11 12CN 4 0 0.2 4.2
0

0101000
+9 0 -14 0 *
Wi

0101100
-13 0 +5 0 +8 0 -5 0 *
Fa
0  1e-07 4 0

0101000
+4 0 *
Sh

0101100
+16 0 +11 0 -6 0 -3 0 *
So

0100000
+2 0 *

+1 0 