DBRep_DrawableShape

CASCADE Topology V3, (c) Open Cascade
Locations 0
Curve2ds 23
1 0 0.59999999999999998 1 0 
2 0 0 1 0 -0 1 0.80000000000000004
1 6.2831853071795862 -0 0 1 
1 0 -0 0 1 
1 0 0 1 0 
2 0 0 1 0 -0 1 0.80000000000000004
1 0 0 1 0 
2 0 0 1 0 -0 1 0.59999999999999998
2 0 0 1 0 -0 1 0.59999999999999998
1 0 5.2000000000000002 1 0 
2 0 0 1 0 -0 1 0.59999999999999998
1 6.2831853071795862 -0 0 1 
1 0 -0 0 1 
2 0 0 1 0 -0 1 0.34999999999999998
1 0 0.099999999999999645 1 0 
2 0 0 1 0 -0 1 0.34999999999999998
1 0 0.54999999999999982 1 0 
1 6.2831853071795862 -0 0 1 
1 0 -0 0 1 
1 0 5.6500000000000004 1 0 
2 0 0 1 0 -0 1 0.59999999999999998
1 0 6 1 0 
2 0 0 1 0 -0 1 0.59999999999999998
Curves 11
2 0 0 0 0 1 0 0 -0 1 1 0 -0 0.80000000000000004
1 -1.9594348786357652e-16 -0.59999999999999998 0.80000000000000004 0 1 0 
2 0 -0.59999999999999998 0 0 1 0 0 -0 1 1 0 -0 0.80000000000000004
2 0 0 0 0 1 0 0 -0 1 1 0 -0 0.59999999999999998
2 0 5.2000000000000002 0 0 1 0 0 -0 1 1 0 -0 0.59999999999999998
1 -1.4695761589768238e-16 0 0.59999999999999998 0 1 0 
2 0 5.2000000000000002 0 0 1 0 0 -0 1 1 0 -0 0.34999999999999998
2 0 5.6500000000000004 0 0 1 0 0 -0 1 1 0 -0 0.34999999999999998
1 -8.572527594031472e-17 5.1000000000000005 0.34999999999999998 0 1 0 
2 0 5.6500000000000004 0 0 1 0 0 -0 1 1 0 -0 0.59999999999999998
2 0 6 0 0 1 0 0 -0 1 1 0 -0 0.59999999999999998
Polygon3D 0
PolygonOnTriangulations 0
Surfaces 9
2 0 -0.59999999999999998 0 0 1 0 0 -0 1 1 0 -0 0.80000000000000004
1 0 0 0 0 1 0 0 -0 1 1 0 -0 
1 0 -0.59999999999999998 0 0 1 0 0 -0 1 1 0 -0 
2 0 0 0 0 1 0 0 -0 1 1 0 -0 0.59999999999999998
1 0 0 0 0 1 0 0 -0 1 1 0 -0 
1 0 5.2000000000000002 0 0 1 0 0 -0 1 1 0 -0 
2 0 5.1000000000000005 0 0 1 0 0 -0 1 1 0 -0 0.34999999999999998
1 0 5.6500000000000004 0 0 1 0 0 -0 1 1 0 -0 
1 0 6 0 0 1 0 0 -0 1 1 0 -0 
Triangulations 0

TShapes 43
Ve
1e-07
-1.95943487863577e-16 0 0.8
0 0

0101101
*
Ed
 1e-07 1 1 0
1  1 0 0 6.28318530717959
2  1 1 0 0 6.28318530717959
2  2 2 0 0 6.28318530717959
0

0101000
+43 0 -43 0 *
Ve
1e-07
-1.95943487863577e-16 -0.6 0.8
0 0

0101101
*
Ed
 1e-07 1 1 0
1  2 0 0 0.6
3  3 4CN 1 0 0 0.6
0

0101000
-43 0 +41 0 *
Ed
 1e-07 1 1 0
1  3 0 0 6.28318530717959
2  5 1 0 0 6.28318530717959
2  6 3 0 0 6.28318530717959
0

0101000
+41 0 -41 0 *
Wi

0101100
-42 0 +40 0 +39 0 -40 0 *
Fa
0  1e-07 1 0

0101000
+38 0 *
Wi

0101100
+42 0 *
Ve
1e-07
-1.46957615897682e-16 0 0.6
0 0

0101101
*
Ed
 1e-07 1 1 0
1  4 0 0 6.28318530717959
2  7 4 0 0 6.28318530717959
2  8 5 0 0 6.28318530717959
2  9 2 0 0 6.28318530717959
0

0101000
+35 0 -35 0 *
Wi

0101100
-34 0 *
Fa
0  1e-07 2 0

0101000
+36 0 +33 0 *
Wi

0101100
-39 0 *
Fa
0  1e-07 3 0

0101000
-31 0 *
Ve
1.00000000146958e-07
-1.46957615897682e-16 5.2 0.6
0 0

0101101
*
Ed
 1e-07 1 1 0
1  5 0 0 6.28318530717959
2  10 4 0 0 6.28318530717959
2  11 6 0 0 6.28318530717959
0

0101100
+29 0 -29 0 *
Ed
 1e-07 1 1 0
1  6 0 0 5.2
3  12 13CN 4 0 0 5.2
0

0101000
+35 0 -29 0 *
Wi

0101100
-28 0 +27 0 +34 0 -27 0 *
Fa
0  1e-07 4 0

0101000
+26 0 *
Wi

0101100
+28 0 *
Ve
1.00000000085725e-07
-8.57252759403147e-17 5.2 0.35
0 0

0101101
*
Ed
 1e-07 1 1 0
1  7 0 0 6.28318530717959
2  14 6 0 0 6.28318530717959
2  15 7 0 0 6.28318530717959
0

0101100
+23 0 -23 0 *
Wi

0101100
-22 0 *
Fa
0  1e-07 6 0

0101000
+24 0 +21 0 *
Ve
1.00000000085725e-07
-8.57252759403147e-17 5.65 0.35
0 0

0101101
*
Ed
 1e-07 1 1 0
1  8 0 0 6.28318530717959
2  16 8 0 0 6.28318530717959
2  17 7 0 0 6.28318530717959
0

0101100
+19 0 -19 0 *
Ed
 1e-07 1 1 0
1  9 0 0.0999999999999996 0.55
3  18 19CN 7 0 0.0999999999999996 0.55
0

0101000
+23 0 -19 0 *
Wi

0101100
-18 0 +17 0 +22 0 -17 0 *
Fa
0  1e-07 7 0

0101000
+16 0 *
Ve
1.00000000146958e-07
-1.46957615897682e-16 5.65 0.6
0 0

0101101
*
Ed
 1e-07 1 1 0
1  10 0 0 6.28318530717959
2  20 4 0 0 6.28318530717959
2  21 8 0 0 6.28318530717959
0

0101100
+14 0 -14 0 *
Wi

0101100
+13 0 *
Wi

0101100
-18 0 *
Fa
0  1e-07 8 0

0101000
+12 0 +11 0 *
Ve
1e-07
-1.46957615897682e-16 6 0.6
0 0

0101101
*
Ed
 1e-07 1 1 0
1  6 0 5.65 6
3  12 13CN 4 0 5.65 6
0

0101000
+14 0 -9 0 *
Ed
 1e-07 1 1 0
1  11 0 0 6.28318530717959
2  22 4 0 0 6.28318530717959
2  23 9 0 0 6.28318530717959
0

0101000
+9 0 -9 0 *
Wi

0101100
+8 0 +13 0 -8 0 -7 0 *
Fa
0  1e-07 4 0

0101000
+6 0 *
Wi

0101100
+7 0 *
Fa
0  1e-07 9 0

0101000
+4 0 *
Sh

0101100
+37 0 +32 0 -30 0 +25 0 +20 0 +15 0 -10 0 +5 0 +3 0 *
So

0100000
+2 0 *

+1 0 