DBRep_DrawableShape

CASCADE Topology V3, (c) Open Cascade
Locations 2
1
              1              -0               0              -0 
              0               1               0               0 
             -0               0               1              -0 
2  1 -1 0
Curve2ds 36
1 6.2831853071795862 -0 0 1 
1 0 -0 0 1 
1 0 0 1 0 
2 0 0 1 0 -0 1 0.80000000000000004
8 -5.9999999998949782e-07 0.3500006
1 1.8886200307227774 0 0 1 
8 -5.9999999998949782e-07 0.3500006
1 0.55993420767853319 0.10000000000000003 0 1 
1 0 0.34999999999999998 1 0 
2 0 0 1 0 -0 1 0.80000000000000004
8 -5.9999999998949782e-07 0.3500006
1 1.2529726228670159 0 0 1 
8 -5.9999999998949782e-07 0.3500006
1 0.55993420767853319 0.10000000000000003 0 1 
8 0.10000000000000003 0.69999999999999996
1 -0.25 0.10000000000000003 0 1 
8 0.10000000000000003 0.69999999999999996
1 -0.10000000000000003 0.10000000000000003 1 0 
8 -0.375 0.125
1 -0.125 0.20000000000000007 -1 0 
8 -0.375 0.125
1 0.125 -0.10000000000000003 -1 0 
2 0 0 1 0 -0 1 0.32000000000000001
1 0 0.29999999999999999 1 0 
8 0.10000000000000003 0.69999999999999996
1 0.25 0.10000000000000003 0 1 
8 0.10000000000000003 0.69999999999999996
1 -0.10000000000000003 0.10000000000000003 1 0 
1 0 0 0 -1 
1 0 0 0 1 
8 0.10000000000000003 0.69999999999999996
1 -0.25 0.10000000000000003 0 1 
8 0.10000000000000003 0.69999999999999996
1 -0.10000000000000003 0.45000000000000001 1 0 
8 -0.375 0.125
1 -0.125 0.20000000000000007 -1 0 
8 -0.375 0.125
1 0.125 -0.45000000000000001 -1 0 
2 0 0 1 0 -0 1 0.32000000000000001
1 0 0.64999999999999991 1 0 
8 0.10000000000000003 0.69999999999999996
1 0.25 0.10000000000000003 0 1 
8 0.10000000000000003 0.69999999999999996
1 -0.10000000000000003 0.45000000000000001 1 0 
1 0.5 0 0 -1 
1 0 0 0 1 
8 0.29999939999999997 0.65000059999999993
1 2.4664611206527614 0 0 1 
8 0.29999939999999997 0.65000059999999993
1 0.0002000800640641065 0.19999999999999996 0 -1 
1 6.2831853071795862 -0 0 1 
1 0 -0 0 1 
8 0.29999939999999997 0.65000059999999993
1 0.67513153293703188 0 0 1 
8 0.29999939999999997 0.65000059999999993
1 0.49979991993593587 0.19999999999999996 0 -1 
Curves 18
1 -1.9594348786357652e-16 -0.17499999999999999 0.80000000000000004 0 1 0 
2 0 -0.17499999999999999 0 0 1 0 0 -0 1 1 0 -0 0.80000000000000004
1 0.75993420767853326 -0.17499999999999999 -0.25 0 1 0 
2 0 0.17499999999999999 0 0 1 0 0 -0 1 1 0 -0 0.80000000000000004
1 0.75993420767853326 -0.17499999999999999 0.25 0 1 0 
1 0.10000000000000003 -0.17499999999999999 -0.25 1 0 0 
1 0.20000000000000007 -0.17499999999999999 -0.125 0 0 -1 
2 0 -0.17499999999999999 0 0 1 0 0 -0 1 1 0 -0 0.32000000000000001
1 0.10000000000000003 -0.17499999999999999 0.25 1 0 0 
1 0.20000000000000007 -0.27500000000000002 -0.25 0 1 0 
1 0.10000000000000003 0.17499999999999999 -0.25 1 0 0 
1 0.20000000000000007 0.17499999999999999 -0.125 0 0 -1 
2 0 0.17499999999999993 0 0 1 0 0 -0 1 1 0 -0 0.32000000000000001
1 0.10000000000000003 0.17499999999999999 0.25 1 0 0 
1 0.20000000000000007 -0.27500000000000002 0.25 0 1 0 
1 0.20000000000000007 -0.47499999999999998 -0.24979991993593589 0 1 0 
1 -7.8377395145430604e-17 -0.47499999999999998 0.32000000000000001 0 1 0 
1 0.20000000000000007 -0.47499999999999998 0.24979991993593589 0 1 0 
Polygon3D 0
PolygonOnTriangulations 0
Surfaces 7
2 0 -0.17499999999999999 0 0 1 0 0 -0 1 1 0 -0 0.80000000000000004
1 0 -0.17499999999999999 0 0 1 0 0 -0 1 1 0 -0 
1 0.20000000000000007 -0.27500000000000002 -0.25 0 0 1 1 0 0 0 1 0 
1 0 0.17499999999999999 0 0 1 0 0 -0 1 1 0 -0 
1 0.20000000000000007 -0.27500000000000002 0.25 0 0 1 1 0 0 0 1 0 
1 0.20000000000000007 -0.27500000000000002 -0.25 1 0 0 0 0 1 0 -1 0 
2 0 -0.47499999999999998 0 0 1 0 0 -0 1 1 0 -0 0.32000000000000001
Triangulations 0

TShapes 63
Ve
1e-07
-1.95943487863577e-16 0.175 0.8
0 0

0101101
*
Ve
1e-07
-1.95943487863577e-16 -0.175 0.8
0 0

0101101
*
Ed
 1e-07 1 1 0
1  1 0 0 0.35
3  1 2CN 1 0 0 0.35
0

0101000
-63 0 +62 0 *
Ve
1.50000000111022e-07
0.759934207678533 -0.175 -0.25
0 0

0101101
*
Ed
 1e-07 1 1 0
1  2 0 1.88862003072278 6.28318530717959
2  3 1 0 1.88862003072278 6.28318530717959
2  4 2 0 1.88862003072278 6.28318530717959
0

0101000
+60 0 -62 0 *
Ve
1.50000000111022e-07
0.759934207678533 0.175 -0.25
0 0

0101101
*
Ed
 1e-07 1 1 0
1  3 0 0 0.35
2  5 1 0 0 0.35
2  6 3 1 0 0.35
0

0101000
+60 0 -58 0 *
Ed
 1e-07 1 1 0
1  4 0 1.88862003072278 6.28318530717959
2  7 1 0 1.88862003072278 6.28318530717959
2  8 4 0 1.88862003072278 6.28318530717959
0

0101000
+58 0 -63 0 *
Wi

0101100
+61 0 +59 0 -57 0 -56 0 *
Fa
0  1e-07 1 0

0101000
+55 0 *
Ve
1.50000000114439e-07
0.759934207678533 0.175 0.25
0 0

0101101
*
Ed
 1e-07 1 1 0
1  4 0 0 1.25297262286702
2  7 1 0 0 1.25297262286702
2  8 4 0 0 1.25297262286702
0

0101000
+63 0 -53 0 *
Ve
1.50000000114439e-07
0.759934207678533 -0.175 0.25
0 0

0101101
*
Ed
 1e-07 1 1 0
1  5 0 0 0.35
2  9 1 0 0 0.35
2  10 5 1 0 0.35
0

0101000
+51 0 -53 0 *
Ed
 1e-07 1 1 0
1  2 0 0 1.25297262286702
2  3 1 0 0 1.25297262286702
2  4 2 0 0 1.25297262286702
0

0101000
+62 0 -51 0 *
Wi

0101100
-52 0 +50 0 +49 0 -61 0 *
Fa
0  1e-07 1 0

0101000
+48 0 *
Ve
1.5e-07
0.2 -0.175 -0.25
0 0

0101101
*
Ed
 1.5e-07 1 1 0
1  6 0 0.1 0.659934207678533
2  11 2 0 0.1 0.659934207678533
2  12 3 1 0.1 0.659934207678533
0

0101000
+46 0 -60 0 *
Ve
1.5e-07
0.2 -0.175 -0.249799919935936
0 0

0101101
*
Ed
 1.5e-07 1 1 0
1  7 0 0.124799919935936 0.125
2  13 2 0 0.124799919935936 0.125
2  14 6 1 0.124799919935936 0.125
0

0101000
+44 0 -46 0 *
Ve
1.00000000078377e-07
-7.83773951454306e-17 -0.175 0.32
0 0

0101101
*
Ed
 1e-07 1 1 0
1  8 0 2.46646112065276 6.28318530717959
2  15 2 0 2.46646112065276 6.28318530717959
2  16 7 0 2.46646112065276 6.28318530717959
0

0101000
+44 0 -42 0 *
Ve
1.5e-07
0.2 -0.175 0.249799919935936
0 0

0101101
*
Ed
 1e-07 1 1 0
1  8 0 0 0.675131532937032
2  15 2 0 0 0.675131532937032
2  16 7 0 0 0.675131532937032
0

0101000
+42 0 -40 0 *
Ve
1.5e-07
0.2 -0.175 0.25
0 0

0101101
*
Ed
 1.5e-07 1 1 0
1  7 0 -0.375 -0.374799919935936
2  13 2 0 -0.375 -0.374799919935936
2  14 6 1 -0.375 -0.374799919935936
0

0101000
+38 0 -40 0 *
Ed
 1.5e-07 1 1 0
1  9 0 0.1 0.659934207678533
2  17 2 0 0.1 0.659934207678533
2  18 5 1 0.1 0.659934207678533
0

0101000
+38 0 -51 0 *
Wi

0101100
+59 0 +45 0 +43 0 -41 0 -39 0 +37 0 -36 0 +49 0 *
Fa
0  1e-07 2 0

0101000
+35 0 *
Ve
1.5e-07
0.2 0.175 -0.25
0 0

0101101
*
Ed
 1e-07 1 1 0
1  10 0 0.1 0.45
2  19 6 0 0.1 0.45
2  20 3 0 0.1 0.45
0

0101000
+46 2 -33 2 *
Ed
 1.5e-07 1 1 0
1  11 0 0.1 0.659934207678533
2  21 4 0 0.1 0.659934207678533
2  22 3 1 0.1 0.659934207678533
0

0101000
+33 0 -58 0 *
Wi

0101100
-32 1 -31 0 +57 0 +45 0 *
Fa
0  1e-07 3 1

0101000
+30 0 *
Ve
1.50000000055511e-07
0.2 0.175 -0.249799919935936
0 0

0101101
*
Ed
 1.5e-07 1 1 0
1  12 0 0.124799919935936 0.125
2  23 4 0 0.124799919935936 0.125
2  24 6 1 0.124799919935936 0.125
0

0101000
+28 0 -33 0 *
Ve
1.00000000078377e-07
-7.83773951454306e-17 0.175 0.32
0 0

0101101
*
Ed
 1e-07 1 1 0
1  13 0 2.46646112065276 6.28318530717959
2  25 4 0 2.46646112065276 6.28318530717959
2  26 7 0 2.46646112065276 6.28318530717959
0

0101000
+28 0 -26 0 *
Ve
1.50000000055511e-07
0.2 0.175 0.249799919935936
0 0

0101101
*
Ed
 1e-07 1 1 0
1  13 0 0 0.675131532937032
2  25 4 0 0 0.675131532937032
2  26 7 0 0 0.675131532937032
0

0101000
+26 0 -24 0 *
Ve
1.5e-07
0.2 0.175 0.25
0 0

0101101
*
Ed
 1.5e-07 1 1 0
1  12 0 -0.375 -0.374799919935936
2  23 4 0 -0.375 -0.374799919935936
2  24 6 1 -0.375 -0.374799919935936
0

0101000
+22 0 -24 0 *
Ed
 1.5e-07 1 1 0
1  14 0 0.1 0.659934207678533
2  27 4 0 0.1 0.659934207678533
2  28 5 1 0.1 0.659934207678533
0

0101000
+22 0 -53 0 *
Wi

0101100
+56 0 +31 0 +27 0 -25 0 -23 0 +21 0 -20 0 +52 0 *
Fa
0  1e-07 4 0

0101000
+19 0 *
Ed
 1e-07 1 1 0
1  15 0 0.1 0.45
2  29 6 0 0.1 0.45
2  30 5 0 0.1 0.45
0

0101000
+38 2 -22 2 *
Wi

0101100
-17 1 -20 0 +50 0 +36 0 *
Fa
0  1e-07 5 1

0101000
+16 0 *
Ed
 1e-07 1 1 0
1  16 0 0.3 0.65
2  31 7 0 0.3 0.65
2  32 6 1 0.3 0.65
0

0101000
+44 0 -28 0 *
Wi

0101100
+43 0 -14 0 -27 0 +32 1 *
Fa
0  1e-07 6 1

0101000
+13 0 *
Ed
 1e-07 1 1 0
1  17 0 0.3 0.65
3  33 34CN 7 0 0.3 0.65
0

0101000
+42 0 -26 0 *
Wi

0101100
+11 0 +41 0 -14 0 -25 0 *
Fa
0  1e-07 7 0

0101000
+10 0 *
Ed
 1e-07 1 1 0
1  18 0 0.3 0.65
2  35 7 0 0.3 0.65
2  36 6 1 0.3 0.65
0

0101000
+40 0 -24 0 *
Wi

0101100
-23 0 +8 0 +39 0 -11 0 *
Fa
0  1e-07 7 0

0101000
+7 0 *
Wi

0101100
-17 1 -21 0 +8 0 +37 0 *
Fa
0  1e-07 6 1

0101000
+5 0 *
Sh

0101100
+54 0 +47 0 -34 0 +29 0 +18 0 -15 0 +12 0 -9 0 -6 0 +4 0 
*
So

0100000
+3 0 *
Co

0100000
+2 0 *

+1 0 