DBRep_DrawableShape

CASCADE Topology V3, (c) Open Cascade
Locations 0
Curve2ds 29
1 0 1 1 0 
2 0 0 1 0 -0 1 3
1 6.2831853071795862 -0 0 1 
1 0 -0 0 1 
1 0 0 1 0 
2 0 0 1 0 -0 1 3
1 0 0 1 0 
2 0 0 1 0 -0 1 2
2 0 0 1 0 -0 1 2
1 0 11.779999999999999 1 0 
2 0 0 1 0 -0 1 2
1 6.2831853071795862 -0 0 1 
1 0 -0 0 1 
2 0 0 1 0 -0 1 1.55
1 0 0.099999999999999645 1 0 
2 0 0 1 0 -0 1 1.55
1 0 0.53999999999999915 1 0 
1 6.2831853071795862 -0 0 1 
1 0 -0 0 1 
1 0 0.31999999999999851 1 0 
2 0 0 1 0 -0 1 1.75
1 6.2831853071795862 -0 0 1 
1 0 -0 0 1 
2 0 0 1 0 -0 1 1.75
1 0 0.54999999999999893 1 0 
1 0 12.449999999999999 1 0 
2 0 0 1 0 -0 1 2
1 0 12.800000000000001 1 0 
2 0 0 1 0 -0 1 2
Curves 14
2 0 0 0 0 1 0 0 -0 1 1 0 -0 3
1 -7.3478807948841188e-16 -1 3 0 1 0 
2 0 -1 0 0 1 0 0 -0 1 1 0 -0 3
2 0 0 0 0 1 0 0 -0 1 1 0 -0 2
2 0 11.779999999999999 0 0 1 0 0 -0 1 1 0 -0 2
1 -4.8985871965894128e-16 0 2 0 1 0 
2 0 11.779999999999999 0 0 1 0 0 -0 1 1 0 -0 1.55
2 0 12.219999999999999 0 0 1 0 0 -0 1 1 0 -0 1.55
1 -3.7964050773567949e-16 11.68 1.55 0 1 0 
2 0 12.219999999999999 0 0 1 0 0 -0 1 1 0 -0 1.75
1 -4.2862637970157361e-16 11.9 1.75 0 1 0 
2 0 12.449999999999999 0 0 1 0 0 -0 1 1 0 -0 1.75
2 0 12.449999999999999 0 0 1 0 0 -0 1 1 0 -0 2
2 0 12.800000000000001 0 0 1 0 0 -0 1 1 0 -0 2
Polygon3D 0
PolygonOnTriangulations 0
Surfaces 11
2 0 -1 0 0 1 0 0 -0 1 1 0 -0 3
1 0 0 0 0 1 0 0 -0 1 1 0 -0 
1 0 -1 0 0 1 0 0 -0 1 1 0 -0 
2 0 0 0 0 1 0 0 -0 1 1 0 -0 2
1 0 0 0 0 1 0 0 -0 1 1 0 -0 
1 0 11.779999999999999 0 0 1 0 0 -0 1 1 0 -0 
2 0 11.68 0 0 1 0 0 -0 1 1 0 -0 1.55
1 0 12.219999999999999 0 0 1 0 0 -0 1 1 0 -0 
2 0 11.9 0 0 1 0 0 -0 1 1 0 -0 1.75
1 0 12.449999999999999 0 0 1 0 0 -0 1 1 0 -0 
1 0 12.800000000000001 0 0 1 0 0 -0 1 1 0 -0 
Triangulations 0

TShapes 54
Ve
1e-07
-7.34788079488412e-16 0 3
0 0

0101101
*
Ed
 1e-07 1 1 0
1  1 0 0 6.28318530717959
2  1 1 0 0 6.28318530717959
2  2 2 0 0 6.28318530717959
0

0101000
+54 0 -54 0 *
Ve
1e-07
-7.34788079488412e-16 -1 3
0 0

0101101
*
Ed
 1e-07 1 1 0
1  2 0 0 1
3  3 4CN 1 0 0 1
0

0101000
-54 0 +52 0 *
Ed
 1e-07 1 1 0
1  3 0 0 6.28318530717959
2  5 1 0 0 6.28318530717959
2  6 3 0 0 6.28318530717959
0

0101000
+52 0 -52 0 *
Wi

0101100
-53 0 +51 0 +50 0 -51 0 *
Fa
0  1e-07 1 0

0101000
+49 0 *
Wi

0101100
+53 0 *
Ve
1e-07
-4.89858719658941e-16 0 2
0 0

0101101
*
Ed
 1e-07 1 1 0
1  4 0 0 6.28318530717959
2  7 4 0 0 6.28318530717959
2  8 5 0 0 6.28318530717959
2  9 2 0 0 6.28318530717959
0

0101000
+46 0 -46 0 *
Wi

0101100
-45 0 *
Fa
0  1e-07 2 0

0101000
+47 0 +44 0 *
Wi

0101100
-50 0 *
Fa
0  1e-07 3 0

0101000
-42 0 *
Ve
1.00000000489859e-07
-4.89858719658941e-16 11.78 2
0 0

0101101
*
Ed
 1e-07 1 1 0
1  5 0 0 6.28318530717959
2  10 4 0 0 6.28318530717959
2  11 6 0 0 6.28318530717959
0

0101100
+40 0 -40 0 *
Ed
 1e-07 1 1 0
1  6 0 0 11.78
3  12 13CN 4 0 0 11.78
0

0101000
+46 0 -40 0 *
Wi

0101100
-39 0 +38 0 +45 0 -38 0 *
Fa
0  1e-07 4 0

0101000
+37 0 *
Wi

0101100
+39 0 *
Ve
1.00000000379641e-07
-3.79640507735679e-16 11.78 1.55
0 0

0101101
*
Ed
 1e-07 1 1 0
1  7 0 0 6.28318530717959
2  14 6 0 0 6.28318530717959
2  15 7 0 0 6.28318530717959
0

0101100
+34 0 -34 0 *
Wi

0101100
-33 0 *
Fa
0  1e-07 6 0

0101000
+35 0 +32 0 *
Ve
1.00000000379641e-07
-3.79640507735679e-16 12.22 1.55
0 0

0101101
*
Ed
 1e-07 1 1 0
1  8 0 0 6.28318530717959
2  16 8 0 0 6.28318530717959
2  17 7 0 0 6.28318530717959
0

0101100
+30 0 -30 0 *
Ed
 1e-07 1 1 0
1  9 0 0.0999999999999996 0.539999999999999
3  18 19CN 7 0 0.0999999999999996 0.539999999999999
0

0101000
+34 0 -30 0 *
Wi

0101100
-29 0 +28 0 +33 0 -28 0 *
Fa
0  1e-07 7 0

0101000
+27 0 *
Ve
1.00000000428626e-07
-4.28626379701574e-16 12.22 1.75
0 0

0101101
*
Ed
 1e-07 1 1 0
1  10 0 0 6.28318530717959
2  20 9 0 0 6.28318530717959
2  21 8 0 0 6.28318530717959
0

0101100
+25 0 -25 0 *
Wi

0101100
+24 0 *
Wi

0101100
-29 0 *
Fa
0  1e-07 8 0

0101000
+23 0 +22 0 *
Ve
1.00000000428626e-07
-4.28626379701574e-16 12.45 1.75
0 0

0101101
*
Ed
 1e-07 1 1 0
1  11 0 0.319999999999999 0.549999999999999
3  22 23CN 9 0 0.319999999999999 0.549999999999999
0

0101000
+25 0 -20 0 *
Ed
 1e-07 1 1 0
1  12 0 0 6.28318530717959
2  24 10 0 0 6.28318530717959
2  25 9 0 0 6.28318530717959
0

0101100
+20 0 -20 0 *
Wi

0101100
+19 0 +24 0 -19 0 -18 0 *
Fa
0  1e-07 9 0

0101000
+17 0 *
Ve
1.00000000489859e-07
-4.89858719658941e-16 12.45 2
0 0

0101101
*
Ed
 1e-07 1 1 0
1  13 0 0 6.28318530717959
2  26 4 0 0 6.28318530717959
2  27 10 0 0 6.28318530717959
0

0101100
+15 0 -15 0 *
Wi

0101100
+14 0 *
Wi

0101100
-18 0 *
Fa
0  1e-07 10 0

0101000
+13 0 +12 0 *
Ve
1e-07
-4.89858719658941e-16 12.8 2
0 0

0101101
*
Ed
 1e-07 1 1 0
1  6 0 12.45 12.8
3  12 13CN 4 0 12.45 12.8
0

0101000
+15 0 -10 0 *
Ed
 1e-07 1 1 0
1  14 0 0 6.28318530717959
2  28 4 0 0 6.28318530717959
2  29 11 0 0 6.28318530717959
0

0101000
+10 0 -10 0 *
Wi

0101100
+9 0 +14 0 -9 0 -8 0 *
Fa
0  1e-07 4 0

0101000
+7 0 *
Wi

0101100
+8 0 *
Fa
0  1e-07 11 0

0101000
+5 0 *
Sh

0101100
+48 0 +43 0 -41 0 +36 0 +31 0 +26 0 -21 0 +16 0 -11 0 +6 0 
+4 0 *
So

0100000
+3 0 *
Co

0100000
+2 0 *

+1 0 