DBRep_DrawableShape

CASCADE Topology V3, (c) Open Cascade
Locations 4
1
              1              -0               0              -0 
              0               1               0               0 
             -0               0               1              -0 
2  1 -1 0
1
              1              -0               0              -0 
              0               1               0               0 
             -0               0               1              -0 
2  3 -1 0
Curve2ds 56
1 238 0 0 -1 
1 0 0 0 1 
1 0 0 0 1 
8 0 238
1 0 -40 1 0 
8 0 238
1 0 0.89999999999999858 1 0 
1 0 0 0 -1 
1 0 0 0 1 
1 0 0 0 1 
1 0 0 1 0 
1 0 0 1 0 
1 0 0 1 0 
1 238 0 0 1 
1 0 0 1 0 
1 238 0 0 -1 
1 1.2000000000000028 0 0 1 
1 1.2000000000000028 0 0 1 
1 0 0 1 0 
1 238 0 0 1 
1 -0.89999999999999858 40 1 0 
1 3 0 0 1 
1 238 0 0 -1 
1 2.1000000000000014 40 0 1 
1 0 4 1 0 
1 238 0 0 1 
1 -0.89999999999999858 44 1 0 
1 0 0 0 1 
1 -0.89999999999999858 40 0 1 
1 -0.89999999999999858 40 1 0 
1 0 0 1 0 
1 0 0 0 1 
1 -0.89999999999999858 40 1 0 
1 0 0 1 0 
1 0 0 1 0 
1 0 0 1 0 
1 0 0 0 1 
1 0 0 0 -1 
1 1.2000000000000028 0 0 1 
1 1.2000000000000028 0 0 1 
1 -0.89999999999999858 40 1 0 
1 3 0 0 1 
1 2.1000000000000014 40 0 1 
1 0 0 0 -1 
1 0 4 1 0 
1 -0.89999999999999858 44 1 0 
1 0 0 0 1 
1 0 0 0 1 
1 -0.89999999999999858 40 0 1 
1 0 0 1 0 
1 0 1.2000000000000028 1 0 
8 0 238
1 0 -40 1 0 
8 0 238
1 0 2.1000000000000014 1 0 
1 0 0 1 0 
1 0 3 1 0 
1 0 0 1 0 
1 0 3 1 0 
1 0 -4 1 0 
Curves 22
1 -48.600000000000001 -21 238 0 1 0 
1 -48.600000000000001 19 0 0 0 1 
1 -48.600000000000001 -21 0 0 1 0 
1 -48.600000000000001 -21 0 0 0 1 
1 -48.600000000000001 -21 238 1 0 0 
1 -47.399999999999999 -21 238 0 1 0 
1 -49.5 19 238 1 0 0 
1 -46.5 19 238 0 1 0 
1 -49.5 23 238 1 0 0 
1 -49.5 19 238 0 1 0 
1 -49.5 19 0 1 0 0 
1 -49.5 19 0 0 0 1 
1 -48.600000000000001 -21 0 1 0 0 
1 -47.399999999999999 -21 0 0 1 0 
1 -46.5 19 0 0 1 0 
1 -49.5 23 0 1 0 0 
1 -49.5 19 0 0 1 0 
1 -47.399999999999999 -21 0 0 0 1 
1 -47.399999999999999 19 0 0 0 1 
1 -49.5 23 0 0 0 1 
1 -46.5 19 0 0 0 1 
1 -46.5 23 0 0 0 1 
Polygon3D 0
PolygonOnTriangulations 0
Surfaces 13
1 -48.600000000000001 -21 0 1 0 0 0 0 1 0 -1 0 
1 -48.600000000000001 -21 238 0 0 1 1 0 0 0 1 0 
1 -48.600000000000001 -21 238 0 0 1 1 0 0 0 1 0 
1 -49.5 19 0 0 1 0 0 0 1 1 0 0 
1 -48.600000000000001 -21 0 0 0 1 1 0 0 0 1 0 
1 -48.600000000000001 -21 0 0 0 1 1 0 0 0 1 0 
1 -48.600000000000001 -21 0 0 1 0 0 0 1 1 0 0 
1 -47.399999999999999 -21 0 1 0 0 0 0 1 0 -1 0 
1 -49.5 19 238 0 0 1 1 0 0 0 1 0 
1 -46.5 19 0 1 0 0 0 0 1 0 -1 0 
1 -49.5 23 0 0 1 0 0 0 1 1 0 0 
1 -49.5 19 0 0 0 1 1 0 0 0 1 0 
1 -49.5 19 0 1 0 0 0 0 1 0 -1 0 
Triangulations 0

TShapes 62
Ve
1e-07
-48.6 -21 238
0 0

0101101
*
Ve
1.5e-07
-48.6 19 238
0 0

0101101
*
Ed
 1e-07 1 1 0
1  1 0 0 40
2  1 1 0 0 40
2  2 2 0 0 40
2  3 3 2 0 40
0

0101000
+62 2 -61 2 *
Ve
1.5e-07
-48.6 19 0
0 0

0101101
*
Ed
 1.5e-07 1 1 0
1  2 0 0 238
2  4 1 1 0 238
2  5 4 3 0 238
0

0101000
+59 0 -61 0 *
Ve
1e-07
-48.6 -21 0
0 0

0101101
*
Ed
 1e-07 1 1 0
1  3 0 0 40
2  6 1 0 0 40
2  7 5 0 0 40
2  8 6 2 0 40
0

0101000
+57 2 -59 2 *
Ed
 1e-07 1 1 0
1  4 0 0 238
2  9 1 0 0 238
2  10 7 0 0 238
0

0101000
-62 2 +57 2 *
Wi

0101100
-60 1 +58 0 +56 1 -55 1 *
Fa
0  1e-07 1 1

0101000
+54 0 *
Ve
1e-07
-47.4 -21 238
0 0

0101101
*
Ed
 1e-07 1 1 0
1  5 0 0 1.2
2  11 2 0 0 1.2
2  12 7 0 0 1.2
2  13 3 2 0 1.2
0

0101000
-52 2 +62 2 *
Ve
1.5e-07
-47.4 19 238
0 0

0101101
*
Ed
 1e-07 1 1 0
1  6 0 0 40
2  14 8 0 0 40
2  15 2 0 0 40
2  16 3 2 0 40
0

0101000
+52 2 -50 2 *
Ve
1e-07
-46.5 19 238
0 0

0101101
*
Ed
 1e-07 1 1 0
1  7 0 2.1 3
2  17 9 0 2.1 3
2  18 4 0 2.1 3
2  19 3 4 2.1 3
0

0101000
+50 4 -48 4 *
Ve
1e-07
-46.5 23 238
0 0

0101101
*
Ed
 1e-07 1 1 0
1  8 0 0 4
2  20 9 0 0 4
2  21 10 0 0 4
2  22 3 4 0 4
0

0101000
-46 4 +48 4 *
Ve
1e-07
-49.5 23 238
0 0

0101101
*
Ed
 1e-07 1 1 0
1  9 0 0 3
2  23 9 0 0 3
2  24 11 0 0 3
2  25 3 4 0 3
0

0101000
-46 4 +44 4 *
Ve
1e-07
-49.5 19 238
0 0

0101101
*
Ed
 1e-07 1 1 0
1  10 0 0 4
2  26 9 0 0 4
2  27 3 4 0 4
0

0101000
-44 4 +42 4 *
Ed
 1e-07 1 1 0
1  7 0 0 0.899999999999999
2  17 9 0 0 0.899999999999999
2  18 4 0 0 0.899999999999999
2  28 3 4 0 0.899999999999999
0

0101000
+42 4 -61 4 *
Wi

0101100
-60 1 +51 1 +49 1 +47 3 +45 3 -43 3 -41 3 +40 3 *
Fa
0  0 3 0

0101000
+39 0 *
Ve
1e-07
-49.5 19 0
0 0

0101101
*
Ed
 1e-07 1 1 0
1  11 0 0 0.899999999999999
2  29 12 0 0 0.899999999999999
2  30 4 0 0 0.899999999999999
2  31 6 4 0 0.899999999999999
0

0101000
+37 4 -59 4 *
Ed
 1e-07 1 1 0
1  12 0 0 238
2  32 4 0 0 238
0

0101000
-42 4 +37 4 *
Wi

0101100
-36 3 -58 0 +40 3 +35 3 *
Fa
0  1e-07 4 3

0101000
+34 0 *
Ve
1e-07
-47.4 -21 0
0 0

0101101
*
Ed
 1e-07 1 1 0
1  13 0 0 1.2
2  33 5 0 0 1.2
2  34 6 2 0 1.2
2  35 7 0 0 1.2
0

0101000
-32 2 +57 2 *
Ve
1.5e-07
-47.4 19 0
0 0

0101101
*
Ed
 1e-07 1 1 0
1  14 0 0 40
2  36 8 0 0 40
2  37 5 0 0 40
2  38 6 2 0 40
0

0101000
+32 2 -30 2 *
Ve
1e-07
-46.5 19 0
0 0

0101101
*
Ed
 1e-07 1 1 0
1  11 0 2.1 3
2  29 12 0 2.1 3
2  30 4 0 2.1 3
2  39 6 4 2.1 3
0

0101000
+30 4 -28 4 *
Ve
1e-07
-46.5 23 0
0 0

0101101
*
Ed
 1e-07 1 1 0
1  15 0 0 4
2  40 12 0 0 4
2  41 6 4 0 4
2  42 10 0 0 4
0

0101000
-26 4 +28 4 *
Ve
1e-07
-49.5 23 0
0 0

0101101
*
Ed
 1e-07 1 1 0
1  16 0 0 3
2  43 12 0 0 3
2  44 6 4 0 3
2  45 11 0 0 3
0

0101000
-26 4 +24 4 *
Ed
 1e-07 1 1 0
1  17 0 0 4
2  46 12 0 0 4
2  47 6 4 0 4
0

0101000
-24 4 +37 4 *
Wi

0101100
-56 1 +31 1 +29 1 +27 3 +25 3 -23 3 -22 3 +36 3 *
Fa
0  0 6 0

0101000
+21 0 *
Ed
 1e-07 1 1 0
1  18 0 0 238
2  48 8 0 0 238
2  49 7 0 0 238
0

0101000
-52 2 +32 2 *
Wi

0101100
-31 0 -19 0 +51 0 +55 0 *
Fa
0  1e-07 7 0

0101000
+18 0 *
Ed
 1.5e-07 1 1 0
1  19 0 0 238
2  50 8 1 0 238
2  51 4 3 0 238
0

0101000
+30 0 -50 0 *
Wi

0101100
-49 1 +16 0 +29 1 -19 1 *
Fa
0  1e-07 8 1

0101000
+15 0 *
Ed
 1e-07 1 1 0
1  20 0 0 238
2  52 11 0 0 238
0

0101000
-44 4 +24 4 *
Wi

0101100
-35 0 -41 0 +13 0 +22 0 *
Fa
0  1e-07 13 0

0101000
+12 0 *
Ed
 1e-07 1 1 0
1  21 0 0 238
2  53 4 0 0 238
2  54 10 0 0 238
0

0101000
-48 4 +28 4 *
Wi

0101100
-27 3 -10 3 +47 3 +16 0 *
Fa
0  1e-07 4 3

0101000
+9 0 *
Ed
 1e-07 1 1 0
1  22 0 0 238
2  55 11 0 0 238
2  56 10 0 0 238
0

0101000
-46 4 +26 4 *
Wi

0101100
-23 0 -7 0 +43 0 +13 0 *
Fa
0  1e-07 11 0

0101000
+6 0 *
Wi

0101100
-10 0 -45 0 +7 0 +25 0 *
Fa
0  1e-07 10 0

0101000
+4 0 *
Sh

0101100
-53 0 +38 0 -33 0 -20 0 -17 1 +14 0 -11 3 -8 0 +5 3 +3 3 
*
So

0100000
+2 0 *

+1 0 