DBRep_DrawableShape

CASCADE Topology V3, (c) Open Cascade
Locations 13
1
              1               0               0               0 
              0               1               0               0 
              0               0               1             340 
1
              1               0               0               0 
              0               1               0               0 
              0               0               1            -125 
1
            0.5 -0.866025403784439               0               0 
0.866025403784439             0.5               0               0 
              0               0               1               0 
1
              1               0               0               0 
              0               1               0               0 
              0               0               1             469 
2  1 1 2 -1 3 -1 4 -1 0
1
              1               0               0               0 
              0               1               0               0 
              0               0               1            -125 
1
             -1 -1.22464679914735e-16               0               0 
1.22464679914735e-16              -1               0               0 
              0               0               1               0 
1
              1               0               0               0 
              0               1               0               0 
              0               0               1             469 
2  1 1 6 -1 7 -1 8 -1 0
1
              1               0               0               0 
              0               1               0               0 
              0               0               1            1218 
1
              1               0               0               0 
              0               1               0               0 
              0               0               1          -480.6 
2  10 1 11 1 2 -1 3 -1 4 -1 0
2  10 1 11 1 6 -1 7 -1 8 -1 0
Curve2ds 196
1 5.8912262425104984 0 1 0 
2 0 0 0.9241624717725021 -0.38199964105655826 0.38199964105655826 0.9241624717725021 28.5
8 -5.9999999999999997e-07 1.4000006
1 0.39195906466909097 0 0 1 
8 -5.9999999999999997e-07 1.4000006
1 6.2117365759417753 0.20000000000000001 0 1 
8 0 1.4000000000000001
1 6.6751443718486776 0 0 1 
1 0 1.4000000000000001 1 0 
2 -23.745264020360228 -11.072598457606325 1 0 -0 1 28.5
8 0.39195906466909147 0.48070556132807329
1 6.2831853071795862 1.4000000000000001 1 0 
8 -5.9999999999999997e-07 1.4000006
1 0.48070556132807385 0 0 1 
8 -5.9999999999999997e-07 1.4000006
1 0.94411335723497614 0.20000000000000001 0 1 
8 0 1.4000000000000001
1 6.7638908685076604 0 0 1 
1 0 0 1 0 
2 0 0 1 0 -0 1 28.5
8 0.48070556132807657 0.50614548307835572
1 6.2831853071795862 0 1 0 
8 -5.9999999999999997e-07 389.4000006
1 0.50614548307835572 0 0 1 
8 -5.9999999999999997e-07 389.4000006
1 42.749999999999993 -0.20000000000000001 0 -1 
8 0 389.39999999999998
1 6.7893307902579423 0 0 1 
1 0 389.39999999999998 1 0 
2 0 0 1 0 -0 1 28.5
8 0.48070556132807657 0.50614548307835572
1 6.2831853071795862 389.39999999999998 1 0 
8 387.99999939999998 389.4000006
1 0.48070556132807385 0 0 1 
8 387.99999939999998 389.4000006
1 0.94411335723497614 -388 0 1 
8 388 389.39999999999998
1 6.7638908685076604 0 0 1 
1 0 388 1 0 
2 -23.745264020360228 -11.072598457606325 1 0 -0 1 28.5
8 0.39195906466909147 0.48070556132807329
1 6.2831853071795862 388 1 0 
8 387.99999939999998 389.4000006
1 0.39195906466909097 0 0 1 
8 387.99999939999998 389.4000006
1 6.2117365759417753 -388 0 1 
8 388 389.39999999999998
1 6.6751443718486776 0 0 1 
1 6.675144371848674 389.39999999999998 -1 -0 
2 0 0 0.9241624717725021 0.38199964105655831 0.38199964105655831 -0.9241624717725021 28.500000000000004
8 387.99999939999998 389.4000006
1 5.8912262425104949 0 0 1 
8 387.99999939999998 389.4000006
1 0.071448731237811355 -388 0 1 
8 388 389.39999999999998
1 5.8912262425104949 0 0 1 
1 0 388 1 0 
2 -23.745264020360228 11.072598457606325 1 0 -0 1 28.5
8 5.8024797458515129 5.8912262425104949
1 0 388 1 0 
8 387.99999939999998 389.4000006
1 5.802479745851512 0 0 1 
8 387.99999939999998 389.4000006
1 5.3390719499446098 -388 0 1 
8 388 389.39999999999998
1 5.802479745851512 0 0 1 
8 5.7770398241012302 5.8024797458515094
1 0 389.39999999999998 1 0 
8 -5.9999999999999997e-07 389.4000006
1 5.7770398241012302 0 0 1 
8 -5.9999999999999997e-07 389.4000006
1 28.500000000000004 -0.20000000000000001 0 -1 
8 0 389.39999999999998
1 5.7770398241012302 0 0 1 
8 5.7770398241012302 5.8024797458515094
1 0 0 1 0 
8 -5.9999999999999997e-07 1.4000006
1 5.802479745851512 0 0 1 
8 -5.9999999999999997e-07 1.4000006
1 5.3390719499446098 0.20000000000000001 0 1 
8 0 1.4000000000000001
1 5.802479745851512 0 0 1 
1 0 1.4000000000000001 1 0 
2 -23.745264020360228 11.072598457606325 1 0 -0 1 28.5
8 5.8024797458515129 5.8912262425104949
1 0 1.4000000000000001 1 0 
8 -5.9999999999999997e-07 1.4000006
1 5.8912262425104949 0 0 1 
8 -5.9999999999999997e-07 1.4000006
1 0.071448731237811355 0.20000000000000001 0 1 
8 0 1.4000000000000001
1 5.8912262425104949 0 0 1 
1 0 1.6000000000000001 1 0 
2 0 0 1 0 -0 1 2.6000000000000001
8 0.19999940000000002 1.6000006
1 5.9128425210656559 0 0 1 
8 0.19999940000000002 1.6000006
1 2.0444402211279069 0 0 1 
8 0.20000000000000001 1.6000000000000001
1 5.9128425210656559 0 0 1 
2 23.745264020360228 -11.072598457606325 1 0 -0 1 2.6000000000000001
1 0 0.20000000000000001 1 0 
1 5.912842521065655 0.20000000000000001 1 0 
2 0 0 0.93220333408448897 -0.36193499958108893 0.36193499958108893 0.93220333408448897 24.199999999999999
2 0 0 0.77954657119817772 0.62634426901917495 -0.62634426901917495 0.77954657119817772 24.200000000000003
2 0 0 -0.93220333408448897 0.36193499958108905 -0.36193499958108905 -0.93220333408448897 24.200000000000003
8 0.19999940000000002 1.6000006
1 0.37034278611393057 0 0 1 
8 0.19999940000000002 1.6000006
1 4.2387450860516793 0 0 1 
8 0.20000000000000001 1.6000000000000001
1 6.6535280932935166 0 0 1 
1 0 1.6000000000000001 1 0 
2 -23.745264020360228 -11.072598457606325 1 0 -0 1 24.199999999999999
8 0.37034278611393029 0.50232183988323464
1 6.2831853071795862 1.6000000000000001 1 0 
8 0.19999940000000002 1.6000006
1 0.5023218398832342 0 0 1 
8 0.19999940000000002 1.6000006
1 2.9171048471250729 0 0 1 
8 0.20000000000000001 1.6000000000000001
1 6.7855071470628205 0 0 1 
2 0 0 1 0 -0 1 24.199999999999999
1 0 0.20000000000000001 1 0 
8 0.5023218398832342 0.50614548307835572
1 6.2831853071795862 0.20000000000000001 1 0 
2 0 0 0.50000000000000011 0.8660254037844386 -0.8660254037844386 0.50000000000000011 24.200000000000003
2 0 0 -1 1.2246467991473532e-16 -1.2246467991473532e-16 -1 24.199999999999999
8 0.19999940000000002 389.60000059999999
1 0.50614548307835572 0 0 1 
8 0.19999940000000002 389.60000059999999
1 47.049999999999997 0 0 -1 
8 0.20000000000000001 389.59999999999997
1 6.7893307902579423 0 0 1 
2 0 0 1 0 -0 1 24.199999999999999
1 0 389.59999999999997 1 0 
8 0.5023218398832342 0.50614548307835572
1 6.2831853071795862 389.59999999999997 1 0 
2 0 0 0.50000000000000011 0.8660254037844386 -0.8660254037844386 0.50000000000000011 24.200000000000003
2 0 0 -1 1.2246467991473532e-16 -1.2246467991473532e-16 -1 24.199999999999999
8 388.19999939999997 389.60000059999999
1 0.5023218398832342 0 0 1 
8 388.19999939999997 389.60000059999999
1 2.9171048471250729 -388.19999999999999 0 1 
8 388.19999999999999 389.59999999999997
1 6.7855071470628205 0 0 1 
1 0 388.19999999999999 1 0 
2 -23.745264020360228 -11.072598457606325 1 0 -0 1 24.199999999999999
8 0.37034278611393029 0.50232183988323464
1 6.2831853071795862 388.19999999999999 1 0 
8 388.19999939999997 389.60000059999999
1 0.37034278611393057 0 0 1 
8 388.19999939999997 389.60000059999999
1 4.2387450860516793 -388.19999999999999 0 1 
8 388.19999999999999 389.59999999999997
1 6.6535280932935166 0 0 1 
1 6.6535280932935166 389.59999999999997 -1 -0 
2 0 0 0.93220333408448897 0.36193499958108882 0.36193499958108882 -0.93220333408448897 24.199999999999999
2 0 0 0.15265676288631153 0.98827926860026394 0.98827926860026394 -0.15265676288631153 24.200000000000003
2 0 0 -0.93220333408448897 -0.36193499958108871 -0.36193499958108871 0.93220333408448897 24.199999999999999
8 388.19999939999997 389.60000059999999
1 5.9128425210656559 0 0 1 
8 388.19999939999997 389.60000059999999
1 2.0444402211279069 -388.19999999999999 0 1 
8 388.19999999999999 389.59999999999997
1 5.9128425210656559 0 0 1 
1 0 388.19999999999999 1 0 
2 -23.745264020360228 11.072598457606325 1 0 -0 1 24.199999999999999
8 5.7808634672963519 5.9128425210656559
1 0 388.19999999999999 1 0 
8 388.19999939999997 389.60000059999999
1 5.7808634672963519 0 0 1 
8 388.19999939999997 389.60000059999999
1 3.3660804600545133 -388.19999999999999 0 1 
8 388.19999999999999 389.59999999999997
1 5.7808634672963519 0 0 1 
8 5.7770398241012311 5.780863467296351
1 0 389.59999999999997 1 0 
2 0 0 0.50000000000000011 0.8660254037844386 -0.8660254037844386 0.50000000000000011 24.200000000000003
2 0 0 -1 1.2246467991473532e-16 -1.2246467991473532e-16 -1 24.199999999999999
8 0.19999940000000002 389.60000059999999
1 5.7770398241012302 0 0 1 
8 0.19999940000000002 389.60000059999999
1 24.200000000000003 0 0 -1 
8 0.20000000000000001 389.59999999999997
1 5.7770398241012302 0 0 1 
8 5.7770398241012311 5.780863467296351
1 0 0.20000000000000001 1 0 
2 0 0 0.50000000000000011 0.8660254037844386 -0.8660254037844386 0.50000000000000011 24.200000000000003
2 0 0 -1 1.2246467991473532e-16 -1.2246467991473532e-16 -1 24.199999999999999
8 0.19999940000000002 1.6000006
1 5.7808634672963519 0 0 1 
8 0.19999940000000002 1.6000006
1 3.3660804600545133 0 0 1 
8 0.20000000000000001 1.6000000000000001
1 5.7808634672963519 0 0 1 
1 0 1.6000000000000001 1 0 
2 -23.745264020360228 11.072598457606325 1 0 -0 1 24.199999999999999
8 5.7808634672963519 5.9128425210656559
1 0 1.6000000000000001 1 0 
8 -5.9999999998949782e-07 1.6000006
1 24.28690621860482 0 0 -1 
8 -5.9999999998949782e-07 1.6000006
1 3.4149566543626539 0 0 1 
2 21.461783560371586 15.027702632397407 0.50000000000000011 0.8660254037844386 -0.8660254037844386 0.50000000000000011 2.5999999999999992
2 -23.745264020360228 11.072598457606329 -1 1.2246467991473532e-16 -1.2246467991473532e-16 -1 2.6000000000000014
8 -32.585590934389622 -0
1 0 0 -0.87461970713939585 0.48480962024633711 
8 -32.585590934389622 -0
1 0 -0.20000000000000004 -1 -0 
1 0 0 -0.85716730070211233 -0.51503807491005404 
1 0 0 0.87461970713939574 -0.48480962024633723 
8 -32.585590934389622 -0
1 0 0 -0.87461970713939585 0.48480962024633711 
8 -32.585590934389622 -0
1 0 -389.60000000000002 -1 -0 
1 0 0 -0.85716730070211233 -0.51503807491005404 
1 0 0 0.87461970713939574 -0.48480962024633723 
2 23.745264020360228 -11.072598457606325 1 0 -0 1 2.6000000000000001
1 0 1.3999999999999773 1 0 
2 21.461783560371586 15.027702632397407 0.50000000000000011 0.8660254037844386 -0.8660254037844386 0.50000000000000011 2.5999999999999992
2 -23.745264020360228 11.072598457606329 -1 1.2246467991473532e-16 -1.2246467991473532e-16 -1 2.6000000000000014
8 -6.0000002122251317e-07 1.6000005999999871
1 24.28690621860482 -388.19999999999999 0 -1 
8 -6.0000002122251317e-07 1.6000005999999871
1 3.4149566543626539 0 0 1 
1 0 0 1 0 
2 0 0 1 0 -0 1 2.6000000000000001
8 -6.0000002122251317e-07 1.6000005999999871
1 46.963093781395173 -388.19999999999999 0 -1 
8 -6.0000002122251317e-07 1.6000005999999871
1 2.8682286528169301 0 0 1 
2 23.745264020360228 11.072598457606325 1 0 -0 1 2.6000000000000001
1 0 1.3999999999999773 1 0 
2 2.2834804599886454 26.100301090003732 0.50000000000000011 0.8660254037844386 -0.8660254037844386 0.50000000000000011 2.5999999999999988
2 -23.745264020360228 -11.072598457606322 -1 1.2246467991473532e-16 -1.2246467991473532e-16 -1 2.6000000000000014
1 0 0 1 0 
2 0 0 1 0 -0 1 2.6000000000000001
8 -35.625 -3.0394090656103763
1 31.158327066840972 17.271342721275758 0.87461970713939585 0.48480962024633711 
8 -35.625 -3.0394090656103763
1 35.625 -389.60000000000002 -1 0 
1 0.62174197932822572 35.619574139946437 0.017452406437283574 0.99984769515639138 
1 -31.158327066840975 -17.271342721275754 -0.87461970713939596 -0.484809620246337 
8 -35.625 -3.0394090656103763
1 31.158327066840972 17.271342721275758 0.87461970713939585 0.48480962024633711 
8 -35.625 -3.0394090656103763
1 35.625 -0.20000000000000004 -1 0 
1 0.62174197932822572 35.619574139946437 0.017452406437283574 0.99984769515639138 
1 -31.158327066840975 -17.271342721275754 -0.87461970713939596 -0.484809620246337 
2 23.745264020360228 11.072598457606325 1 0 -0 1 2.6000000000000001
1 0 0.20000000000000001 1 0 
2 2.2834804599886454 26.100301090003732 0.50000000000000011 0.8660254037844386 -0.8660254037844386 0.50000000000000011 2.5999999999999988
2 -23.745264020360228 -11.072598457606322 -1 1.2246467991473532e-16 -1.2246467991473532e-16 -1 2.6000000000000014
1 0 1.6000000000000001 1 0 
2 0 0 1 0 -0 1 2.6000000000000001
8 -5.9999999998949782e-07 1.6000006
1 46.963093781395173 0 0 -1 
8 -5.9999999998949782e-07 1.6000006
1 2.8682286528169301 0 0 1 
8 11.131910941596306 15.133905882742745
1 13.068089058403697 -1.6000000000000003 1 0 
8 11.131910941596306 15.133905882742745
1 -12.315655795227645 4.7370631638563161 0.87461970713939585 -0.48480962024633711 
1 0 1.6000000000000001 1 0 
2 0 0 1 0 -0 1 1.3500000000000001
1 6.2831853071795862 -0 0 1 
1 0 -0 0 1 
1 0 388.19999999999999 1 0 
2 0 0 1 0 -0 1 1.3500000000000001
8 -5.9999999998949782e-07 1.6000006
1 27.985450015009974 0 0 -1 
8 -5.9999999998949782e-07 1.6000006
1 4.9975303402500142 0 0 1 
8 -6.0000002122251317e-07 1.6000005999999871
1 27.985450015009974 -388.19999999999999 0 -1 
8 -6.0000002122251317e-07 1.6000005999999871
1 4.9975303402500142 0 0 1 
8 11.131910941596306 15.133905882742745
1 13.068089058403697 -388.20000000000005 1 0 
8 11.131910941596306 15.133905882742745
1 -12.315655795227645 4.7370631638563161 0.87461970713939585 -0.48480962024633711 
8 20.491094117257262 24.493089058403694
1 22.556910941596303 -388.20000000000005 1 0 
8 20.491094117257262 24.493089058403694
1 18.842671271613323 12.534279557419445 -0.87461970713939585 -0.48480962024633711 
1 0 388.19999999999999 1 0 
2 0 0 1 0 -0 1 1.3500000000000001
1 0 1.6000000000000001 1 0 
2 0 0 1 0 -0 1 1.3500000000000001
1 6.2831853071795862 -0 0 1 
1 0 -0 0 1 
8 -6.0000002122251317e-07 1.6000005999999871
1 43.264549984990033 -388.19999999999999 0 -1 
8 -6.0000002122251317e-07 1.6000005999999871
1 1.2856549669295738 0 0 1 
8 -5.9999999998949782e-07 1.6000006
1 43.264549984990033 0 0 -1 
8 -5.9999999998949782e-07 1.6000006
1 1.2856549669295738 0 0 1 
8 20.491094117257262 24.493089058403694
1 22.556910941596303 -1.6000000000000003 1 0 
8 20.491094117257262 24.493089058403694
1 18.842671271613323 12.534279557419445 -0.87461970713939585 -0.48480962024633711 
Curves 66
8 0 0.78391812933817617
2 0 0 0 0 0 1 0.9241624717725021 -0.38199964105655826 0 0.38199964105655826 0.9241624717725021 -0 28.5
1 26.338630445516277 10.886989770111986 0 0 0 1 
2 0 0 1.4000000000000001 0 0 1 1 0 -0 -0 1 0 28.5
1 25.270063322177965 13.178539361139988 0 0 0 1 
2 0 0 0 0 0 1 1 0 -0 -0 1 0 28.5
1 24.926661653472781 13.817074177020611 0 0 0 1 
2 0 0 389.39999999999998 0 0 1 1 0 -0 -0 1 0 28.5
1 25.270063322177965 13.178539361139988 0 0 0 1 
2 0 0 388 0 0 1 1 0 -0 -0 1 0 28.5
1 26.338630445516277 10.886989770111986 0 0 0 1 
8 0 0.78391812933817617
2 0 0 389.39999999999998 0 0 -1 0.9241624717725021 0.38199964105655831 0 0.38199964105655831 -0.9241624717725021 0 28.5
1 26.338630445516277 -10.886989770111986 0 0 0 1 
2 0 0 388 0 0 1 1 0 -0 -0 1 0 28.5
1 25.270063322177965 -13.178539361139988 0 0 0 1 
1 24.926661653472781 -13.817074177020608 0 0 0 1 
1 25.270063322177965 -13.178539361139988 0 0 0 1 
2 0 0 1.4000000000000001 0 0 1 1 0 -0 -0 1 0 28.5
1 26.338630445516277 -10.886989770111986 0 0 0 1 
2 23.745264020360228 -11.072598457606325 1.4000000000000001 0 0 1 1 0 -0 -0 1 0 2.6000000000000001
1 22.559320684844632 -8.7588269898623512 -0.20000000000000001 0 0 1 
2 23.745264020360228 -11.072598457606325 0 0 0 1 1 0 -0 -0 1 0 2.6000000000000001
8 0 0.74068557222786136
2 0 0 0 0 0 1 0.93220333408448897 -0.36193499958108893 0 0.36193499958108893 0.93220333408448897 -0 24.199999999999999
1 22.559320684844632 8.7588269898623512 -0.20000000000000001 0 0 1 
2 0 0 1.4000000000000001 0 0 1 1 0 -0 -0 1 0 24.199999999999999
1 21.210502562987962 11.65137678669268 -0.20000000000000001 0 0 1 
2 0 0 0 0 0 1 1 0 -0 -0 1 0 24.199999999999999
1 21.165796912773381 11.732392809961361 -0.20000000000000001 0 0 1 
2 0 0 389.39999999999998 0 0 1 1 0 -0 -0 1 0 24.199999999999999
1 21.210502562987962 11.65137678669268 -0.20000000000000001 0 0 1 
2 0 0 388 0 0 1 1 0 -0 -0 1 0 24.199999999999999
1 22.559320684844632 8.7588269898623512 -0.20000000000000001 0 0 1 
8 0 0.74068557222786136
2 0 0 389.39999999999998 0 0 -1 0.93220333408448897 0.36193499958108882 0 0.36193499958108882 -0.93220333408448897 0 24.199999999999999
1 22.559320684844632 -8.7588269898623512 -0.20000000000000001 0 0 1 
2 0 0 388 0 0 1 1 0 -0 -0 1 0 24.199999999999999
1 21.210502562987962 -11.65137678669268 -0.20000000000000001 0 0 1 
1 21.165796912773381 -11.732392809961357 -0.20000000000000001 0 0 1 
1 21.210502562987962 -11.65137678669268 -0.20000000000000001 0 0 1 
2 0 0 1.4000000000000001 0 0 1 1 0 -0 -0 1 0 24.199999999999999
1 21.241806804238113 -11.774525780800206 -0.20000000000000001 0 0 1 
1 0 0 2.7755575615628914e-17 -0.87461970713939585 0.48480962024633711 0 
1 0 0 389.40000000000003 -0.87461970713939585 0.48480962024633711 0 
2 23.745264020360228 -11.072598457606325 389.39999999999998 0 0 1 1 0 -0 -0 1 0 2.6000000000000001
1 21.241806804238113 -11.774525780800206 388 0 0 1 
2 23.745264020360228 -11.072598457606325 388 0 0 1 1 0 -0 -0 1 0 2.6000000000000001
1 21.241806804238117 11.774525780800211 388 0 0 1 
2 23.745264020360228 11.072598457606325 389.39999999999998 0 0 1 1 0 -0 -0 1 0 2.6000000000000001
2 23.745264020360228 11.072598457606325 388 0 0 1 1 0 -0 -0 1 0 2.6000000000000001
1 31.158327066840972 17.271342721275758 389.40000000000003 0.87461970713939585 0.48480962024633711 -0 
1 31.158327066840972 17.271342721275758 2.7755575615628914e-17 0.87461970713939585 0.48480962024633711 -0 
2 23.745264020360228 11.072598457606325 0 0 0 1 1 0 -0 -0 1 0 2.6000000000000001
2 23.745264020360228 11.072598457606325 1.4000000000000001 0 0 1 1 0 -0 -0 1 0 2.6000000000000001
1 21.241806804238117 11.774525780800211 -0.20000000000000001 0 0 1 
1 11.429608225132583 -6.3355352937500093 1.4000000000000004 0.87461970713939585 -0.48480962024633711 0 
2 23.745264020360228 -11.072598457606325 1.4000000000000001 0 0 1 1 0 -0 -0 1 0 1.3500000000000001
1 25.095264020360229 -11.072598457606325 -0.20000000000000001 0 0 1 
2 23.745264020360228 -11.072598457606325 388 0 0 1 1 0 -0 -0 1 0 1.3500000000000001
1 24.476626096292218 -13.567615394199832 -0.20000000000000001 0 0 1 
1 24.476626096292218 -13.567615394199832 388 0 0 1 
1 11.429608225132583 -6.3355352937500093 388.00000000000006 0.87461970713939585 -0.48480962024633711 0 
1 42.587935291973551 23.606878015025771 388.00000000000006 -0.87461970713939585 -0.48480962024633711 0 
2 23.745264020360228 11.072598457606325 388 0 0 1 1 0 -0 -0 1 0 1.3500000000000001
2 23.745264020360228 11.072598457606325 1.4000000000000001 0 0 1 1 0 -0 -0 1 0 1.3500000000000001
1 25.095264020360229 11.072598457606325 -0.20000000000000001 0 0 1 
1 24.476626096292215 13.567615394199834 388 0 0 1 
1 24.476626096292215 13.567615394199834 -0.20000000000000001 0 0 1 
1 42.587935291973551 23.606878015025771 1.4000000000000004 -0.87461970713939585 -0.48480962024633711 0 
Polygon3D 0
PolygonOnTriangulations 0
Surfaces 21
10 3.1415926535897931 9.4247779607693793 -2e+100 2e+100
2 0 0 0 0 0 1 1 0 -0 -0 1 0 28.5
1 0 0 0 0 0 1 1 0 -0 -0 1 0 
2 0 0 0 0 0 1 1 0 -0 -0 1 0 28.5
2 23.745264020360228 11.072598457606325 -0.20000000000000001 0 0 1 1 0 -0 -0 1 0 2.6000000000000001
1 23.745264020360228 11.072598457606325 1.4000000000000001 0 0 1 1 0 -0 -0 1 0 
1 62.316654133681944 34.542685442551516 -0.20000000000000001 0.48480962024633711 -0.87461970713939585 0 -0.87461970713939585 -0.48480962024633711 0 0 -0 -1 
1 0 0 389.39999999999998 0 0 1 1 0 -0 -0 1 0 
2 23.745264020360228 11.072598457606325 388 0 0 1 1 0 -0 -0 1 0 2.6000000000000001
1 23.745264020360228 11.072598457606325 388 0 0 1 1 0 -0 -0 1 0 
2 23.745264020360228 -11.072598457606325 388 0 0 1 1 0 -0 -0 1 0 2.6000000000000001
1 23.745264020360228 -11.072598457606325 388 0 0 1 1 0 -0 -0 1 0 
1 0 0 -0.20000000000000001 0.48480962024633711 0.87461970713939585 -0 0.87461970713939585 -0.48480962024633711 0 0 -0 -1 
2 23.745264020360228 -11.072598457606325 -0.20000000000000001 0 0 1 1 0 -0 -0 1 0 2.6000000000000001
1 23.745264020360228 -11.072598457606325 1.4000000000000001 0 0 1 1 0 -0 -0 1 0 
2 0 0 -0.20000000000000001 0 0 1 1 0 -0 -0 1 0 24.199999999999999
10 3.1415926535897931 9.4247779607693793 -2e+100 2e+100
2 0 0 -0.20000000000000001 0 0 1 1 0 -0 -0 1 0 24.199999999999999
1 0 0 4 0 0 1 1 0 -0 -0 1 0 
1 0 0 4 0 0 1 1 0 -0 -0 1 0 
1 0 0 -4 0 0 1 1 0 -0 -0 1 0 
2 23.745264020360228 -11.072598457606325 -0.20000000000000001 0 0 1 1 0 -0 -0 1 0 1.3500000000000001
2 23.745264020360228 11.072598457606325 -0.20000000000000001 0 0 1 1 0 -0 -0 1 0 1.3500000000000001
Triangulations 0

TShapes 220
Ve
1.0000008280567e-07
26.3386304455163 -10.8869897701119 0
0 0

0101101
*
Ve
1.00000081169984e-07
26.3386304455163 10.8869897701119 0
0 0

0101101
*
Ed
 1e-07 1 1 0
1  1 0 0 0.783918129338176
2  1 1 0 0 0.783918129338176
2  2 2 0 0 0.783918129338176
0

0101000
+220 0 -219 0 *
Ve
1.00000014321447e-07
26.3386304455163 10.886989770112 1.4
0 0

0101101
*
Ed
 1e-07 1 1 0
1  2 0 0 1.4
2  3 3 0 0 1.4
2  4 4 0 0 1.4
2  5 1 0 0 1.4
0

0101000
+219 0 -217 0 *
Ve
1.00000015888219e-07
25.270063322178 13.17853936114 1.4
0 0

0101101
*
Ed
 1e-07 1 1 0
1  3 0 0.391959064669091 0.480705561328073
2  6 3 0 0.391959064669091 0.480705561328073
2  7 5 0 0.391959064669091 0.480705561328073
2  8 1 0 0.391959064669091 0.480705561328073
0

0101000
+217 0 -215 0 *
Ve
1.00000076279998e-07
25.2700633221779 13.1785393611401 0
0 0

0101101
*
Ed
 1e-07 1 1 0
1  4 0 0 1.4
2  9 3 0 0 1.4
2  10 4 0 0 1.4
2  11 1 0 0 1.4
0

0101000
+213 0 -215 0 *
Ve
1.50000003552822e-07
24.9266616534728 13.8170741770206 0
0 0

0101101
*
Ed
 1e-07 1 1 0
1  5 0 0.480705561328077 0.506145483078356
2  12 3 0 0.480705561328077 0.506145483078356
2  13 2 0 0.480705561328077 0.506145483078356
2  14 1 0 0.480705561328077 0.506145483078356
0

0101000
+213 0 -211 0 *
Ve
1.50000056954333e-07
24.9266616534728 13.8170741770206 389.4
0 0

0101101
*
Ed
 1e-07 1 1 0
1  6 0 0 389.4
2  15 3 0 0 389.4
2  16 6 0 0 389.4
2  17 1 0 0 389.4
0

0101000
+211 0 -209 0 *
Ve
1.00000076279998e-07
25.2700633221779 13.1785393611401 389.4
0 0

0101101
*
Ed
 1e-07 1 1 0
1  7 0 0.480705561328077 0.506145483078356
2  18 3 0 0.480705561328077 0.506145483078356
2  19 7 0 0.480705561328077 0.506145483078356
2  20 1 0 0.480705561328077 0.506145483078356
0

0101000
+207 0 -209 0 *
Ve
1.00000015888219e-07
25.270063322178 13.17853936114 388
0 0

0101101
*
Ed
 1e-07 1 1 0
1  8 0 388 389.4
2  21 3 0 388 389.4
2  22 8 0 388 389.4
2  23 1 0 388 389.4
0

0101000
+205 0 -207 0 *
Ve
1.00000014321447e-07
26.3386304455163 10.886989770112 388
0 0

0101101
*
Ed
 1e-07 1 1 0
1  9 0 0.391959064669091 0.480705561328073
2  24 3 0 0.391959064669091 0.480705561328073
2  25 9 0 0.391959064669091 0.480705561328073
2  26 1 0 0.391959064669091 0.480705561328073
0

0101000
+203 0 -205 0 *
Ve
1.00000081169984e-07
26.3386304455163 10.8869897701119 389.4
0 0

0101101
*
Ed
 1e-07 1 1 0
1  10 0 388 389.4
2  27 3 0 388 389.4
2  28 8 0 388 389.4
2  29 1 0 388 389.4
0

0101000
+203 0 -201 0 *
Ve
1.0000008280567e-07
26.3386304455163 -10.8869897701119 389.4
0 0

0101101
*
Ed
 1e-07 1 1 0
1  11 0 0 0.783918129338176
2  30 1 0 0 0.783918129338176
2  31 7 0 0 0.783918129338176
0

0101000
+201 0 -199 0 *
Ve
1.00000015888219e-07
26.3386304455163 -10.886989770112 388
0 0

0101101
*
Ed
 1e-07 1 1 0
1  12 0 388 389.4
2  32 3 0 388 389.4
2  33 10 0 388 389.4
2  34 1 0 388 389.4
0

0101000
+197 0 -199 0 *
Ve
1.00000014321447e-07
25.270063322178 -13.17853936114 388
0 0

0101101
*
Ed
 1e-07 1 1 0
1  13 0 5.80247974585151 5.89122624251049
2  35 3 0 5.80247974585151 5.89122624251049
2  36 11 0 5.80247974585151 5.89122624251049
2  37 1 0 5.80247974585151 5.89122624251049
0

0101000
+195 0 -197 0 *
Ve
1.00000092165363e-07
25.2700633221779 -13.1785393611401 389.4
0 0

0101101
*
Ed
 1e-07 1 1 0
1  14 0 388 389.4
2  38 3 0 388 389.4
2  39 10 0 388 389.4
2  40 1 0 388 389.4
0

0101000
+195 0 -193 0 *
Ve
1.5000006029155e-07
24.9266616534728 -13.8170741770206 389.4
0 0

0101101
*
Ed
 1e-07 1 1 0
1  7 0 5.77703982410123 5.80247974585151
2  18 3 0 5.77703982410123 5.80247974585151
2  19 7 0 5.77703982410123 5.80247974585151
2  41 1 0 5.77703982410123 5.80247974585151
0

0101000
+191 0 -193 0 *
Ve
1.50000020097203e-07
24.9266616534728 -13.8170741770206 0
0 0

0101101
*
Ed
 1e-07 1 1 0
1  15 0 0 389.4
2  42 3 0 0 389.4
2  43 12 0 0 389.4
2  44 1 0 0 389.4
0

0101000
+189 0 -191 0 *
Ve
1.00000092165363e-07
25.2700633221779 -13.1785393611401 0
0 0

0101101
*
Ed
 1e-07 1 1 0
1  5 0 5.77703982410123 5.80247974585151
2  12 3 0 5.77703982410123 5.80247974585151
2  13 2 0 5.77703982410123 5.80247974585151
2  45 1 0 5.77703982410123 5.80247974585151
0

0101000
+189 0 -187 0 *
Ve
1.00000014321447e-07
25.270063322178 -13.17853936114 1.4
0 0

0101101
*
Ed
 1e-07 1 1 0
1  16 0 0 1.4
2  46 3 0 0 1.4
2  47 13 0 0 1.4
2  48 1 0 0 1.4
0

0101000
+187 0 -185 0 *
Ve
1.00000015888219e-07
26.3386304455163 -10.886989770112 1.4
0 0

0101101
*
Ed
 1e-07 1 1 0
1  17 0 5.80247974585151 5.89122624251049
2  49 3 0 5.80247974585151 5.89122624251049
2  50 14 0 5.80247974585151 5.89122624251049
2  51 1 0 5.80247974585151 5.89122624251049
0

0101000
+185 0 -183 0 *
Ed
 1e-07 1 1 0
1  18 0 0 1.4
2  52 3 0 0 1.4
2  53 13 0 0 1.4
2  54 1 0 0 1.4
0

0101000
+220 0 -183 0 *
Wi

0101100
+218 0 +216 0 +214 0 -212 0 +210 0 +208 0 -206 0 -204 0 -202 0 +200 0 
+198 0 -196 0 -194 0 +192 0 -190 0 -188 0 +186 0 +184 0 +182 0 -181 0 
*
Fa
0  0 1 0

0101000
+180 0 *
Ve
1.00000009565974e-07
22.5593206848446 -8.75882698986234 1.4
0 0

0101101
*
Ed
 1e-07 1 1 0
1  19 0 0.0714487312378061 2.04444022112791
2  55 13 0 0.0714487312378061 2.04444022112791
2  56 14 0 0.0714487312378061 2.04444022112791
0

0101000
+183 0 -178 0 *
Ve
1.00000020791724e-07
22.5593206848446 -8.75882698986235 0
0 0

0101101
*
Ed
 1e-07 1 1 0
1  20 0 0.2 1.6
2  57 15 0 0.2 1.6
2  58 13 0 0.2 1.6
2  59 16 0 0.2 1.6
0

0101000
+176 0 -178 0 *
Ed
 1e-07 1 1 0
1  21 0 0.0714487312378398 2.04444022112791
2  60 2 0 0.0714487312378398 2.04444022112791
2  61 13 0 0.0714487312378398 2.04444022112791
0

0101000
+220 0 -176 0 *
Wi

0101100
-177 0 +175 0 +174 0 -181 0 *
Fa
0  1e-07 13 0

0101000
+173 0 *
Ve
1.00000005024296e-07
22.5593206848446 8.75882698986235 0
0 0

0101101
*
Ed
 1e-07 1 1 0
1  22 0 0 0.740685572227861
2  62 16 0 0 0.740685572227861
2  63 2 0 0 0.740685572227861
2  64 17 5 0 0.740685572227861
2  65 18 9 0 0.740685572227861
0

0101000
+176 0 -171 0 *
Ve
1.00000008881784e-07
22.5593206848446 8.75882698986234 1.4
0 0

0101101
*
Ed
 1e-07 1 1 0
1  23 0 0.2 1.6
2  66 15 0 0.2 1.6
2  67 4 0 0.2 1.6
2  68 16 0 0.2 1.6
0

0101000
+171 0 -169 0 *
Ve
1.00000011234667e-07
21.210502562988 11.6513767866927 1.4
0 0

0101101
*
Ed
 1e-07 1 1 0
1  24 0 0.37034278611393 0.502321839883235
2  69 15 0 0.37034278611393 0.502321839883235
2  70 5 0 0.37034278611393 0.502321839883235
2  71 16 0 0.37034278611393 0.502321839883235
0

0101000
+169 0 -167 0 *
Ve
1.00000007324107e-07
21.210502562988 11.6513767866927 0
0 0

0101101
*
Ed
 1e-07 1 1 0
1  25 0 0.2 1.6
2  72 15 0 0.2 1.6
2  73 4 0 0.2 1.6
2  74 16 0 0.2 1.6
0

0101000
+165 0 -167 0 *
Ve
1.50000001776574e-07
21.1657969127734 11.7323928099614 0
0 0

0101101
*
Ed
 1e-07 1 1 0
1  26 0 0.502321839883234 0.506145483078356
2  75 2 0 0.502321839883234 0.506145483078356
2  76 15 0 0.502321839883234 0.506145483078356
2  77 16 0 0.502321839883234 0.506145483078356
2  78 17 5 0.502321839883234 0.506145483078356
2  79 18 9 0.502321839883234 0.506145483078356
0

0101000
+165 0 -163 0 *
Ve
1.50000056871168e-07
21.1657969127734 11.7323928099614 389.4
0 0

0101101
*
Ed
 1e-07 1 1 0
1  27 0 0.2 389.6
2  80 15 0 0.2 389.6
2  81 6 0 0.2 389.6
2  82 16 0 0.2 389.6
0

0101000
+163 0 -161 0 *
Ve
1.00000007324107e-07
21.210502562988 11.6513767866927 389.4
0 0

0101101
*
Ed
 1e-07 1 1 0
1  28 0 0.502321839883234 0.506145483078356
2  83 7 0 0.502321839883234 0.506145483078356
2  84 15 0 0.502321839883234 0.506145483078356
2  85 16 0 0.502321839883234 0.506145483078356
2  86 19 12 0.502321839883234 0.506145483078356
2  87 19 13 0.502321839883234 0.506145483078356
0

0101000
+159 0 -161 0 *
Ve
1.00000011234667e-07
21.210502562988 11.6513767866927 388
0 0

0101101
*
Ed
 1e-07 1 1 0
1  29 0 388.2 389.6
2  88 15 0 388.2 389.6
2  89 8 0 388.2 389.6
2  90 16 0 388.2 389.6
0

0101000
+157 0 -159 0 *
Ve
1.00000008881784e-07
22.5593206848446 8.75882698986234 388
0 0

0101101
*
Ed
 1e-07 1 1 0
1  30 0 0.37034278611393 0.502321839883235
2  91 15 0 0.37034278611393 0.502321839883235
2  92 9 0 0.37034278611393 0.502321839883235
2  93 16 0 0.37034278611393 0.502321839883235
0

0101000
+155 0 -157 0 *
Ve
1.00000005024296e-07
22.5593206848446 8.75882698986235 389.4
0 0

0101101
*
Ed
 1e-07 1 1 0
1  31 0 388.2 389.6
2  94 15 0 388.2 389.6
2  95 8 0 388.2 389.6
2  96 16 0 388.2 389.6
0

0101000
+155 0 -153 0 *
Ve
1.00000020791724e-07
22.5593206848446 -8.75882698986235 389.4
0 0

0101101
*
Ed
 1e-07 1 1 0
1  32 0 0 0.740685572227861
2  97 16 0 0 0.740685572227861
2  98 7 0 0 0.740685572227861
2  99 19 12 0 0.740685572227861
2  100 19 13 0 0.740685572227861
0

0101000
+153 0 -151 0 *
Ve
1.00000009565974e-07
22.5593206848446 -8.75882698986234 388
0 0

0101101
*
Ed
 1e-07 1 1 0
1  33 0 388.2 389.6
2  101 15 0 388.2 389.6
2  102 10 0 388.2 389.6
2  103 16 0 388.2 389.6
0

0101000
+149 0 -151 0 *
Ve
1.00000009565974e-07
21.210502562988 -11.6513767866927 388
0 0

0101101
*
Ed
 1e-07 1 1 0
1  34 0 5.78086346729635 5.91284252106566
2  104 15 0 5.78086346729635 5.91284252106566
2  105 11 0 5.78086346729635 5.91284252106566
2  106 16 0 5.78086346729635 5.91284252106566
0

0101000
+147 0 -149 0 *
Ve
1.00000022257687e-07
21.210502562988 -11.6513767866927 389.4
0 0

0101101
*
Ed
 1e-07 1 1 0
1  35 0 388.2 389.6
2  107 15 0 388.2 389.6
2  108 10 0 388.2 389.6
2  109 16 0 388.2 389.6
0

0101000
+147 0 -145 0 *
Ve
1.50000057285787e-07
21.1657969127734 -11.7323928099614 389.4
0 0

0101101
*
Ed
 1e-07 1 1 0
1  28 0 5.77703982410123 5.78086346729635
2  83 7 0 5.77703982410123 5.78086346729635
2  84 15 0 5.77703982410123 5.78086346729635
2  110 16 0 5.77703982410123 5.78086346729635
2  111 19 12 5.77703982410123 5.78086346729635
2  112 19 13 5.77703982410123 5.78086346729635
0

0101000
+143 0 -145 0 *
Ve
1.50000007105482e-07
21.1657969127734 -11.7323928099614 0
0 0

0101101
*
Ed
 1e-07 1 1 0
1  36 0 0.2 389.6
2  113 15 0 0.2 389.6
2  114 12 0 0.2 389.6
2  115 16 0 0.2 389.6
0

0101000
+141 0 -143 0 *
Ve
1.00000022257687e-07
21.210502562988 -11.6513767866927 0
0 0

0101101
*
Ed
 1e-07 1 1 0
1  26 0 5.77703982410123 5.78086346729635
2  75 2 0 5.77703982410123 5.78086346729635
2  76 15 0 5.77703982410123 5.78086346729635
2  116 16 0 5.77703982410123 5.78086346729635
2  117 17 5 5.77703982410123 5.78086346729635
2  118 18 9 5.77703982410123 5.78086346729635
0

0101000
+141 0 -139 0 *
Ve
1.00000009565974e-07
21.210502562988 -11.6513767866927 1.4
0 0

0101101
*
Ed
 1e-07 1 1 0
1  37 0 0.2 1.6
2  119 15 0 0.2 1.6
2  120 13 0 0.2 1.6
2  121 16 0 0.2 1.6
0

0101000
+139 0 -137 0 *
Ed
 1e-07 1 1 0
1  38 0 5.78086346729635 5.91284252106566
2  122 15 0 5.78086346729635 5.91284252106566
2  123 14 0 5.78086346729635 5.91284252106566
2  124 16 0 5.78086346729635 5.91284252106566
0

0101000
+137 0 -178 0 *
Wi

0101100
-175 0 +170 0 +168 0 +166 0 -164 0 +162 0 +160 0 -158 0 -156 0 -154 0 
+152 0 +150 0 -148 0 -146 0 +144 0 -142 0 -140 0 +138 0 +136 0 +135 0 
*
Fa
0  0 16 0

0101000
+134 0 *
Ve
1.50000003559646e-07
21.2418068042381 -11.7745257808002 1.4
0 0

0101101
*
Ed
 1e-07 1 1 0
1  19 0 3.36608046005452 3.41495665436265
2  55 13 0 3.36608046005452 3.41495665436265
2  56 14 0 3.36608046005452 3.41495665436265
0

0101000
+137 0 -132 0 *
Ve
1.50000007944109e-07
21.2418068042381 -11.7745257808002 2.77555756156289e-17
0 0

0101101
*
Ed
 1e-07 1 1 0
1  39 0 0.2 1.6
2  125 12 0 0.2 1.6
2  126 13 0 0.2 1.6
0

0101000
+130 0 -132 0 *
Ed
 1e-07 1 1 0
1  21 0 3.36608046005452 3.41495665436265
2  60 2 0 3.36608046005452 3.41495665436265
2  61 13 0 3.36608046005452 3.41495665436265
2  127 17 5 3.36608046005452 3.41495665436265
2  128 18 9 3.36608046005452 3.41495665436265
0

0101000
+139 0 -130 0 *
Wi

0101100
-131 0 +129 0 +128 0 -136 0 *
Fa
0  1e-07 13 0

0101000
+127 0 *
Ed
 1.5e-07 1 1 0
1  40 0 -24.2869062186048 -24.2
2  129 2 0 -24.2869062186048 -24.2
2  130 12 0 -24.2869062186048 -24.2
2  131 17 5 -24.2869062186048 -24.2
2  132 18 9 -24.2869062186048 -24.2
0

0101000
+130 0 -141 0 *
Wi

0101100
-125 0 -138 0 -128 0 *
Fa
0  1e-07 2 0

0101000
+124 0 *
Ve
1.50000007944109e-07
21.2418068042381 -11.7745257808002 389.4
0 0

0101101
*
Ed
 1.5e-07 1 1 0
1  41 0 -24.2869062186048 -24.2
2  133 7 0 -24.2869062186048 -24.2
2  134 12 0 -24.2869062186048 -24.2
2  135 19 12 -24.2869062186048 -24.2
2  136 19 13 -24.2869062186048 -24.2
0

0101000
+122 0 -143 0 *
Ed
 1e-07 1 1 0
1  42 0 3.36608046005452 3.41495665436265
2  137 7 0 3.36608046005452 3.41495665436265
2  138 10 0 3.36608046005452 3.41495665436265
2  139 19 12 3.36608046005452 3.41495665436265
2  140 19 13 3.36608046005452 3.41495665436265
0

0101000
+145 0 -122 0 *
Wi

0101100
-121 0 -142 0 -120 0 *
Fa
0  1e-07 7 0

0101000
+119 0 *
Ve
1.50000056954333e-07
21.2418068042381 -11.7745257808002 388
0 0

0101101
*
Ed
 1e-07 1 1 0
1  43 0 0 1.40000000000003
2  141 12 0 0 1.40000000000003
2  142 10 0 0 1.40000000000003
0

0101000
+117 0 -122 0 *
Ed
 1e-07 1 1 0
1  44 0 3.36608046005452 3.41495665436265
2  143 10 0 3.36608046005452 3.41495665436265
2  144 11 0 3.36608046005452 3.41495665436265
0

0101000
+147 0 -117 0 *
Wi

0101100
-144 0 -120 0 +116 0 +115 0 *
Fa
0  1e-07 10 0

0101000
+114 0 *
Ve
1.50000057065031e-07
21.2418068042381 11.7745257808002 388
0 0

0101101
*
Ve
1.50000003972055e-07
21.2418068042382 11.7745257808002 389.4
0 0

0101101
*
Ed
 1e-07 1 1 0
1  45 0 0 1.40000000000003
2  145 6 0 0 1.40000000000003
2  146 8 0 0 1.40000000000003
0

0101000
+112 0 -111 0 *
Ed
 1e-07 1 1 0
1  46 0 2.86822865281692 2.91710484712507
2  147 7 0 2.86822865281692 2.91710484712507
2  148 8 0 2.86822865281692 2.91710484712507
2  149 19 12 2.86822865281692 2.91710484712507
2  150 19 13 2.86822865281692 2.91710484712507
0

0101000
+111 0 -159 0 *
Ed
 1e-07 1 1 0
1  47 0 2.86822865281693 2.91710484712507
2  151 8 0 2.86822865281693 2.91710484712507
2  152 9 0 2.86822865281693 2.91710484712507
0

0101000
+112 0 -157 0 *
Wi

0101100
-110 0 -109 0 +156 0 +108 0 *
Fa
0  1e-07 8 0

0101000
+107 0 *
Ed
 1.5e-07 1 1 0
1  48 0 -11.425 -11.3380937813951
2  153 7 0 -11.425 -11.3380937813951
2  154 6 0 -11.425 -11.3380937813951
2  155 19 12 -11.425 -11.3380937813951
2  156 19 13 -11.425 -11.3380937813951
0

0101000
+161 0 -111 0 *
Wi

0101100
-158 0 -105 0 -109 0 *
Fa
0  1e-07 7 0

0101000
+104 0 *
Ve
1.50000003972055e-07
21.2418068042382 11.7745257808002 2.77555756156289e-17
0 0

0101101
*
Ed
 1.5e-07 1 1 0
1  49 0 -11.425 -11.3380937813951
2  157 2 0 -11.425 -11.3380937813951
2  158 6 0 -11.425 -11.3380937813951
2  159 17 5 -11.425 -11.3380937813951
2  160 18 9 -11.425 -11.3380937813951
0

0101000
+163 0 -102 0 *
Ed
 1e-07 1 1 0
1  50 0 2.86822865281692 2.91710484712507
2  161 2 0 2.86822865281692 2.91710484712507
2  162 4 0 2.86822865281692 2.91710484712507
2  163 17 5 2.86822865281692 2.91710484712507
2  164 18 9 2.86822865281692 2.91710484712507
0

0101000
+102 0 -165 0 *
Wi

0101100
-162 0 -101 0 -100 0 *
Fa
0  1e-07 2 0

0101000
+99 0 *
Ve
1.500000050292e-07
21.2418068042381 11.7745257808002 1.4
0 0

0101101
*
Ed
 1e-07 1 1 0
1  51 0 2.86822865281693 2.91710484712507
2  165 4 0 2.86822865281693 2.91710484712507
2  166 5 0 2.86822865281693 2.91710484712507
0

0101000
+97 0 -167 0 *
Ed
 1e-07 1 1 0
1  52 0 0.2 1.6
2  167 6 0 0.2 1.6
2  168 4 0 0.2 1.6
0

0101000
+102 0 -97 0 *
Wi

0101100
-96 0 +164 0 +100 0 -95 0 *
Fa
0  1e-07 4 0

0101000
+94 0 *
Ve
1.50000003559646e-07
24.4766260962922 -13.5676153941998 1.4
0 0

0101101
*
Ed
 1e-07 1 1 0
1  19 0 4.99753034025001 5.33907194994462
2  55 13 0 4.99753034025001 5.33907194994462
2  56 14 0 4.99753034025001 5.33907194994462
0

0101000
+92 0 -185 0 *
Ed
 1.5e-07 1 1 0
1  53 0 11.2188171602011 14.9173609566063
2  169 12 0 11.2188171602011 14.9173609566063
2  170 14 0 11.2188171602011 14.9173609566063
0

0101000
+132 0 -92 0 *
Wi

0101100
+182 0 +91 0 +90 0 +131 0 -135 0 +177 0 *
Ve
1e-07
25.0952640203602 -11.0725984576063 1.4
0 0

0101101
*
Ed
 1e-07 1 1 0
1  54 0 0 6.28318530717959
2  171 20 0 0 6.28318530717959
2  172 14 0 0 6.28318530717959
0

0101100
+88 0 -88 0 *
Wi

0101100
-87 0 *
Fa
0  1e-07 14 0

0101000
+89 0 +86 0 *
Ve
1e-07
25.0952640203602 -11.0725984576063 388
0 0

0101101
*
Ed
 1e-07 1 1 0
1  55 0 1.6 388.2
3  173 174CN 20 0 1.6 388.2
0

0101000
+88 0 -84 0 *
Ed
 1e-07 1 1 0
1  56 0 0 6.28318530717959
2  175 20 0 0 6.28318530717959
2  176 11 0 0 6.28318530717959
0

0101100
+84 0 -84 0 *
Wi

0101100
+87 0 -83 0 -82 0 +83 0 *
Fa
0  1e-07 20 0

0101000
+81 0 *
Ve
1.50000003972055e-07
24.4766260962922 -13.5676153941998 2.77555756156289e-17
0 0

0101101
*
Ed
 1e-07 1 1 0
1  21 0 4.99753034025001 5.33907194994458
2  60 2 0 4.99753034025001 5.33907194994458
2  61 13 0 4.99753034025001 5.33907194994458
0

0101000
+79 0 -187 0 *
Ed
 1e-07 1 1 0
1  57 0 0.2 1.6
2  177 12 0 0.2 1.6
2  178 13 0 0.2 1.6
0

0101000
+79 0 -92 0 *
Wi

0101100
+184 0 +78 0 -77 0 -91 0 *
Fa
0  1e-07 13 0

0101000
+76 0 *
Ed
 1.5e-07 1 1 0
1  40 0 -28.5 -27.98545001501
2  129 2 0 -28.5 -27.98545001501
2  130 12 0 -28.5 -27.98545001501
0

0101000
+189 0 -79 0 *
Wi

0101100
-74 0 -78 0 +186 0 *
Fa
0  1e-07 2 0

0101000
+73 0 *
Ve
1.50000003972055e-07
24.4766260962922 -13.5676153941998 389.4
0 0

0101101
*
Ed
 1.5e-07 1 1 0
1  41 0 -28.5 -27.98545001501
2  133 7 0 -28.5 -27.98545001501
2  134 12 0 -28.5 -27.98545001501
0

0101000
+191 0 -71 0 *
Ve
1.50000056954333e-07
24.4766260962922 -13.5676153941998 388
0 0

0101101
*
Ed
 1e-07 1 1 0
1  58 0 0 1.40000000000003
2  179 12 0 0 1.40000000000003
2  180 10 0 0 1.40000000000003
0

0101000
+69 0 -71 0 *
Ed
 1.5e-07 1 1 0
1  59 0 11.2188171602011 14.9173609566063
2  181 12 0 11.2188171602011 14.9173609566063
2  182 11 0 11.2188171602011 14.9173609566063
0

0101000
+117 0 -69 0 *
Wi

0101100
-188 0 -70 0 +68 0 +67 0 -116 0 -121 0 +140 0 +125 0 -129 0 -90 0 
+77 0 +74 0 *
Fa
0  1e-07 12 0

0101000
+66 0 *
Ed
 1e-07 1 1 0
1  42 0 4.99753034025001 5.33907194994458
2  137 7 0 4.99753034025001 5.33907194994458
2  138 10 0 4.99753034025001 5.33907194994458
0

0101000
+71 0 -193 0 *
Wi

0101100
-70 0 -64 0 +190 0 *
Fa
0  1e-07 7 0

0101000
+63 0 *
Ed
 1e-07 1 1 0
1  44 0 4.99753034025001 5.33907194994462
2  143 10 0 4.99753034025001 5.33907194994462
2  144 11 0 4.99753034025001 5.33907194994462
0

0101000
+69 0 -195 0 *
Wi

0101100
+61 0 -68 0 -64 0 +192 0 *
Fa
0  1e-07 10 0

0101000
+60 0 *
Ed
 1e-07 1 1 0
1  44 0 0.0714487312378061 2.04444022112791
2  143 10 0 0.0714487312378061 2.04444022112791
2  144 11 0 0.0714487312378061 2.04444022112791
0

0101000
+197 0 -149 0 *
Wi

0101100
+194 0 +61 0 +67 0 +115 0 -146 0 +58 0 *
Wi

0101100
-82 0 *
Fa
0  1e-07 11 0

0101000
+57 0 +56 0 *
Ed
 1e-07 1 1 0
1  42 0 0.0714487312378398 2.04444022112791
2  137 7 0 0.0714487312378398 2.04444022112791
2  138 10 0 0.0714487312378398 2.04444022112791
0

0101000
+199 0 -151 0 *
Wi

0101100
-196 0 -54 0 +148 0 +58 0 *
Fa
0  1e-07 10 0

0101000
+53 0 *
Ed
 1e-07 1 1 0
1  46 0 4.23874508605168 6.21173657594175
2  147 7 0 4.23874508605168 6.21173657594175
2  148 8 0 4.23874508605168 6.21173657594175
0

0101000
+153 0 -201 0 *
Wi

0101100
-54 0 -198 0 -51 0 +150 0 *
Fa
0  1e-07 7 0

0101000
+50 0 *
Ed
 1e-07 1 1 0
1  47 0 4.23874508605168 6.21173657594178
2  151 8 0 4.23874508605168 6.21173657594178
2  152 9 0 4.23874508605168 6.21173657594178
0

0101000
+155 0 -203 0 *
Wi

0101100
+48 0 -152 0 -51 0 +200 0 *
Fa
0  1e-07 8 0

0101000
+47 0 *
Ve
1.50000056954333e-07
24.4766260962922 13.5676153941998 388
0 0

0101101
*
Ed
 1.5e-07 1 1 0
1  60 0 20.7076390433937 24.4061828397989
2  183 6 0 20.7076390433937 24.4061828397989
2  184 9 0 20.7076390433937 24.4061828397989
0

0101000
+45 0 -112 0 *
Ed
 1e-07 1 1 0
1  47 0 0.944113357234971 1.28565496692958
2  151 8 0 0.944113357234971 1.28565496692958
2  152 9 0 0.944113357234971 1.28565496692958
0

0101000
+205 0 -45 0 *
Wi

0101100
+202 0 +48 0 -154 0 +108 0 +44 0 +43 0 *
Ve
1e-07
25.0952640203602 11.0725984576063 388
0 0

0101101
*
Ed
 1e-07 1 1 0
1  61 0 0 6.28318530717959
2  185 21 0 0 6.28318530717959
2  186 9 0 0 6.28318530717959
0

0101100
+41 0 -41 0 *
Wi

0101100
-40 0 *
Fa
0  1e-07 9 0

0101000
+42 0 +39 0 *
Ve
1e-07
25.0952640203602 11.0725984576063 1.4
0 0

0101101
*
Ed
 1e-07 1 1 0
1  62 0 0 6.28318530717959
2  187 21 0 0 6.28318530717959
2  188 5 0 0 6.28318530717959
0

0101100
+37 0 -37 0 *
Ed
 1e-07 1 1 0
1  63 0 1.6 388.2
3  189 190CN 21 0 1.6 388.2
0

0101000
+37 0 -41 0 *
Wi

0101100
+36 0 -35 0 -40 0 +35 0 *
Fa
0  1e-07 21 0

0101000
+34 0 *
Ve
1.5e-07
24.4766260962922 13.5676153941998 389.4
0 0

0101101
*
Ed
 1e-07 1 1 0
1  46 0 0.944113357235002 1.28565496692958
2  147 7 0 0.944113357235002 1.28565496692958
2  148 8 0 0.944113357235002 1.28565496692958
0

0101000
+207 0 -32 0 *
Ed
 1e-07 1 1 0
1  64 0 0 1.40000000000003
2  191 6 0 0 1.40000000000003
2  192 8 0 0 1.40000000000003
0

0101000
+45 0 -32 0 *
Wi

0101100
-204 0 -31 0 +30 0 +43 0 *
Fa
0  1e-07 8 0

0101000
+29 0 *
Ed
 1.5e-07 1 1 0
1  48 0 -7.63954998499007 -7.125
2  153 7 0 -7.63954998499007 -7.125
2  154 6 0 -7.63954998499007 -7.125
0

0101000
+32 0 -209 0 *
Wi

0101100
-31 0 -27 0 +206 0 *
Fa
0  1e-07 7 0

0101000
+26 0 *
Ve
1.5e-07
24.4766260962922 13.5676153941998 2.77555756156289e-17
0 0

0101101
*
Ed
 1.5e-07 1 1 0
1  49 0 -7.63954998499007 -7.125
2  157 2 0 -7.63954998499007 -7.125
2  158 6 0 -7.63954998499007 -7.125
0

0101000
+24 0 -211 0 *
Ve
1.50000003559646e-07
24.4766260962922 13.5676153941998 1.4
0 0

0101101
*
Ed
 1e-07 1 1 0
1  65 0 0.2 1.6
2  193 6 0 0.2 1.6
2  194 4 0 0.2 1.6
0

0101000
+24 0 -22 0 *
Ed
 1.5e-07 1 1 0
1  66 0 20.7076390433937 24.4061828397989
2  195 6 0 20.7076390433937 24.4061828397989
2  196 5 0 20.7076390433937 24.4061828397989
0

0101000
+22 0 -97 0 *
Wi

0101100
-160 0 -105 0 +110 0 +44 0 -30 0 -27 0 +208 0 +23 0 -21 0 -20 0 
+95 0 +101 0 *
Fa
0  1e-07 6 0

0101000
+19 0 *
Ed
 1e-07 1 1 0
1  50 0 0.944113357235002 1.28565496692958
2  161 2 0 0.944113357235002 1.28565496692958
2  162 4 0 0.944113357235002 1.28565496692958
0

0101000
+213 0 -24 0 *
Wi

0101100
-17 0 -23 0 +210 0 *
Fa
0  1e-07 2 0

0101000
+16 0 *
Ed
 1e-07 1 1 0
1  51 0 0.944113357234971 1.28565496692958
2  165 4 0 0.944113357234971 1.28565496692958
2  166 5 0 0.944113357234971 1.28565496692958
0

0101000
+215 0 -22 0 *
Wi

0101100
-14 0 +21 0 +17 0 -212 0 *
Fa
0  1e-07 4 0

0101000
+13 0 *
Ed
 1e-07 1 1 0
1  51 0 4.23874508605168 6.21173657594178
2  165 4 0 4.23874508605168 6.21173657594178
2  166 5 0 4.23874508605168 6.21173657594178
0

0101000
+169 0 -217 0 *
Wi

0101100
+214 0 +11 0 -166 0 +96 0 +20 0 +14 0 *
Wi

0101100
-36 0 *
Fa
0  1e-07 5 0

0101000
+10 0 +9 0 *
Ed
 1e-07 1 1 0
1  50 0 4.23874508605168 6.21173657594175
2  161 2 0 4.23874508605168 6.21173657594175
2  162 4 0 4.23874508605168 6.21173657594175
0

0101000
+171 0 -219 0 *
Wi

0101100
+216 0 +7 0 -168 0 -11 0 *
Fa
0  1e-07 4 0

0101000
+6 0 *
Wi

0101100
-174 0 +218 0 -7 0 -170 0 *
Fa
0  1e-07 2 0

0101000
+4 0 *
Sh

0101100
+179 0 -172 0 -133 0 -126 0 -123 0 +118 0 -113 0 -106 0 +103 0 -98 0 
-93 0 -85 0 -80 0 -75 0 -72 0 -65 0 +62 0 -59 0 +55 0 -52 0 
+49 0 -46 0 +38 0 -33 0 -28 0 +25 0 -18 0 -15 0 -12 0 -8 0 
-5 0 -3 0 *
So

0100000
+2 0 *

+1 0 