DBRep_DrawableShape

CASCADE Topology V3, (c) Open Cascade
Locations 8
1
              1               0               0               0 
              0               1               0               0 
              0               0               1             340 
1
              1               0               0               0 
              0               1               0               0 
              0               0               1            -125 
1
            0.5 0.866025403784439               0               0 
-0.866025403784439             0.5               0               0 
              0               0               1               0 
1
              1               0               0               0 
              0               1               0               0 
              0               0               1             469 
2  1 1 2 -1 3 -1 4 -1 0
1
              1               0               0               0 
              0               1               0               0 
              0               0               1            1218 
1
              1               0               0               0 
              0               1               0               0 
              0               0               1          -480.6 
2  6 1 7 1 2 -1 3 -1 4 -1 0
Curve2ds 48
7 0 0  3 69 67  6.2831853071795862 14.300000000000001  6.2872637179594397 14.300026208796394  6.2953265433341841 14.288525902673188  6.307008250074678 14.239376975275704  6.3181408254881282 14.16096694465028  6.3286088699044836 14.056361358608548  6.3383123527594067 13.928893135186986  6.3471688662563439 13.782213023579367  6.3551180284362214 13.620199968435346  6.3621103752265835 13.447214813529127  6.3681570584589684 13.267115533195897  6.3734085453691334 13.078523864317299  6.3778573918669368 12.883719209284633  6.3815319164317001 12.683839936396472  6.384448057867588 12.480090975928135  6.3866215635649626 12.273462346482004  6.388064023048396 12.064839067376589  6.3887834057636823 11.855019898074811  6.3887829187698468 11.644696259919151  6.3880625695252879 11.434879642252849  6.3866191429424433 11.226259358365905  6.3844446488436413 11.019633639635664  6.3815274744697392 10.81588742099829  6.3778518644147049 10.616011545409563  6.3734018713658704 10.421211787597437  6.3681492756968128 10.232629889014916  6.3621013721166815 10.052540999392642  6.3551085710450792 9.8795891369270521  6.3471601605980466 9.7176297256837714  6.3383054293342767 9.5710063369514788  6.328604020654172 9.4435887699743226  6.3181398030986804 9.3390185132041115  6.307005466962643 9.2606317562406844  6.2953416381373231 9.2114701463959889  6.2831883981484893 9.1942689086734077  6.2710340956293003 9.2114542247602902  6.2593681407333275 9.2606126987852573  6.248230986902783 9.3390141140025698  6.237763806893402 9.4436177198906393  6.2280597353099489 9.5710838429182346  6.219203036071189 9.717763426790281  6.2112536032225591 9.8797768676406292  6.2042610317809173 10.052763514189699  6.1982141636858596 10.232864425027591  6.1929625199249836 10.421458094537426  6.1885135410618339 10.616265078659165  6.1848389082058848 10.816146921059387  6.1819226814069834 11.019898633202828  6.1797491124809909 11.226530144347912  6.1783066112229941 11.435156392672733  6.1775872077269991 11.644978581856307  6.1775876947265527 11.855305259422101  6.1783080647634918 12.065124896912039  6.1797515331313955 12.273748149976855  6.1819260904762299 12.480376750378086  6.1848433502122706 12.684125720679006  6.1885190686359861 12.884004165596959  6.1929691938418188 13.078806252497033  6.1982219472139892 13.267390150123548  6.2042700325190916 13.447480673207199  6.2112630699048035 13.620434010878155  6.2192117066267896 13.782393848187484  6.2280667885634351 13.929016550881546  6.2377681697053937 14.05643260725704  6.2482338222694471 14.160998689906725  6.2593641551078347 14.239385032512697  6.2710442597975469 14.288525598110008  6.279106777358348 14.300025781510429  6.2831853071795862 14.300000000000001 
 0 4 0.030302811548624662 1 0.060605623097249324 1 0.090908434645873989 1 0.12121124619449865 1 0.15151405774312332 1 0.18181686929174798 1 0.21211968084037264 1 0.2424224923889973 1 0.27272530393762195 1 0.30302811548624664 1 0.33333092703487127 1 0.36363373858349596 1 0.39393655013212059 1 0.42423936168074527 1 0.45454217322936991 1 0.48484498477799459 1 0.51514779632661922 1 0.54545060787524391 1 0.5757534194238686 1 0.60605623097249328 1 0.63635904252111786 1 0.66666185406974254 1 0.69696466561836723 1 0.72726747716699192 1 0.7575702887156166 1 0.78787310026424118 1 0.81817591181286586 1 0.84847872336149055 1 0.87878153491011524 1 0.90908434645873981 1 0.9393871580073645 1 0.96968996955598918 1 0.99999278110461387 1 1.0302955926532384 1 1.0605984042018632 1 1.0909012157504878 1 1.1212040272991124 1 1.1515068388477372 1 1.1818096503963618 1 1.2121124619449866 1 1.2424152734936111 1 1.2727180850422357 1 1.3030208965908605 1 1.3333237081394851 1 1.3636265196881099 1 1.3939293312367345 1 1.424232142785359 1 1.4545349543339838 1 1.4848377658826084 1 1.5151405774312332 1 1.5454433889798578 1 1.5757462005284824 1 1.6060490120771072 1 1.6363518236257317 1 1.6666546351743563 1 1.6969574467229811 1 1.7272602582716057 1 1.7575630698202305 1 1.787865881368855 1 1.8181686929174796 1 1.8484715044661044 1 1.878774316014729 1 1.9090771275633538 1 1.9393799391119784 1 1.9696827506606029 1 1.9999855622092277 4
7 0 0  3 69 67  6.2831853071795862 1.5  6.2444975283662219 1.5000113857078039  6.1679490279774711 1.498783118475314  6.0556266625210293 1.4936610503173202  5.9457989687213013 1.4856877134247244  5.8385474771978059 1.4754491815834996  5.7340122072518271 1.4635847015484622  5.6324181878118065 1.4507650284835838  5.5340424822884442 1.4376420649306443  5.4393836160475555 1.4248356092103296  5.3485992697159963 1.412815258277107  5.2596109997087366 1.4016641929410503  5.1724971337172478 1.3916966777632338  5.0868504121151235 1.3831055891619617  5.002412385294873 1.3760563958526606  4.9188968211044184 1.3706695040576782  4.836029772042953 1.3670317856170062  4.7535383261466766 1.3651989072962016  4.6711283553133649 1.365200152315613  4.5886371553696863 1.3670354764719264  4.5057697660053062 1.3706755664643022  4.4222530194655381 1.3760647559989865  4.3378128320439977 1.383116171401312  4.2521631800334232 1.3917093595017136  4.1650457668271637 1.4016787871677134  4.0760548333138678 1.4128312985882878  3.9852663687817591 1.4248528361310475  3.8906138085515907 1.437658514787048  3.7922569650480562 1.4507783779978245  3.6906894118978668 1.4635938911769177  3.5861805569372938 1.4754539301913203  3.4789679638559865 1.4856894896532304  3.3691275381116039 1.4936590792737579  3.2569636292822111 1.4987875380200859  3.1416219188342316 1.500605811698557  3.0262705367040779 1.4987892145692612  2.9140870594421751 1.4936610368632064  2.8042194756155254 1.4856898987819984  2.6969760669770064 1.4754511021527523  2.5924360872796046 1.4635868013591551  2.4908408344339952 1.4507670045658878  2.39246303569375 1.4376438589446996  2.2978022839001224 1.4248371295196263  2.2070163385207007 1.4128165149197405  2.1180265951672981 1.4016651816001124  2.0309113287914715 1.391697410477958  1.9452632751020524 1.3831060913345798  1.8608239686812362 1.3760567029373518  1.7773071656726405 1.3706696589317962  1.694438906383767 1.3670318363134308  1.6119462671512212 1.3651989050906534  1.5295351074158405 1.3652001501250515  1.4470427141362254 1.3670355272113193  1.3641741145312061 1.3706757214077414  1.2806561290801624 1.3760650631752973  1.1962146621178658 1.3831166736942311  1.1105636774038818 1.3917100923245429  1.0234448657252155 1.4016797760340021  0.93445245152632439 1.4128325550354834  0.84366241556626154 1.4248543575656603  0.7490078680133242 1.4376603045539393  0.65064932201716597 1.4507803680316531  0.54907908389647686 1.4635959358603958  0.44457094187534285 1.4754560528197687  0.33734619652383968 1.4856909174681738  0.22754139884283417 1.4936618905788697  0.11523453638165516 1.4987830910656328  0.038688867535196084 1.5000113315611558  0 1.5 
 0 4 0.030302811548624662 1 0.060605623097249324 1 0.090908434645873989 1 0.12121124619449865 1 0.15151405774312332 1 0.18181686929174798 1 0.21211968084037264 1 0.2424224923889973 1 0.27272530393762195 1 0.30302811548624664 1 0.33333092703487127 1 0.36363373858349596 1 0.39393655013212059 1 0.42423936168074527 1 0.45454217322936991 1 0.48484498477799459 1 0.51514779632661922 1 0.54545060787524391 1 0.5757534194238686 1 0.60605623097249328 1 0.63635904252111786 1 0.66666185406974254 1 0.69696466561836723 1 0.72726747716699192 1 0.7575702887156166 1 0.78787310026424118 1 0.81817591181286586 1 0.84847872336149055 1 0.87878153491011524 1 0.90908434645873981 1 0.9393871580073645 1 0.96968996955598918 1 0.99999278110461387 1 1.0302955926532384 1 1.0605984042018632 1 1.0909012157504878 1 1.1212040272991124 1 1.1515068388477372 1 1.1818096503963618 1 1.2121124619449866 1 1.2424152734936111 1 1.2727180850422357 1 1.3030208965908605 1 1.3333237081394851 1 1.3636265196881099 1 1.3939293312367345 1 1.424232142785359 1 1.4545349543339838 1 1.4848377658826084 1 1.5151405774312332 1 1.5454433889798578 1 1.5757462005284824 1 1.6060490120771072 1 1.6363518236257317 1 1.6666546351743563 1 1.6969574467229811 1 1.7272602582716057 1 1.7575630698202305 1 1.787865881368855 1 1.8181686929174796 1 1.8484715044661044 1 1.878774316014729 1 1.9090771275633538 1 1.9393799391119784 1 1.9696827506606029 1 1.9999855622092277 4
1 6.0213859193804371 0 1 0 
2 0 0 0.96592582628906842 -0.25881904510252068 0.25881904510252068 0.96592582628906842 24.200000000000003
2 0 0 0.25881904510252102 -0.96592582628906831 0.96592582628906831 0.25881904510252102 24.199999999999999
8 -5.9999999999999997e-07 389.4000006
1 0.26179938779914935 0 0 1 
8 -5.9999999999999997e-07 389.4000006
1 36.300000000000004 -0.20000000000000001 0 -1 
8 0 389.39999999999998
1 6.5449846949787354 0 0 1 
1 6.5449846949787354 389.39999999999998 -1 -0 
2 0 0 0.96592582628906842 0.25881904510252068 0.25881904510252068 -0.96592582628906842 24.200000000000003
2 0 0 0.70710678118654757 -0.70710678118654746 -0.70710678118654746 -0.70710678118654757 24.199999999999999
8 -5.9999999999999997e-07 389.4000006
1 6.0213859193804371 0 0 1 
8 -5.9999999999999997e-07 389.4000006
1 24.199999999999999 -0.20000000000000001 0 -1 
8 0 389.39999999999998
1 6.0213859193804371 0 0 1 
7 0 0  3 69 67  6.2831853071795862 196.32636328886844  6.2872637179594335 196.32638949766485  6.2953265433341681 196.31488919154165  6.3070082500746372 196.26574026414428  6.3181408254880775 196.18733023351916  6.328608869904417 196.08272464747768  6.3383123527593295 195.95525642405647  6.3471688662562631 195.8085763124493  6.3551180284361379 195.64656325730564  6.3621103752264965 195.47357810240007  6.3681570584588938 195.29347882206667  6.3734085453690721 195.10488715318809  6.3778573918668862 194.9100824981555  6.3815319164316611 194.71020322526726  6.3844480578675569 194.50645426479898  6.3866215635649448 194.29982563535282  6.3880640230483818 194.09120235624735  6.3887834057636788 193.88138318694544  6.3887829187698486 193.67105954878977  6.3880625695252995 193.46124293112339  6.3866191429424601 193.25262264723651  6.384444648843667 193.04599692850621  6.3815274744697739 192.84225070986892  6.3778518644147475 192.64237483428022  6.3734018713659211 192.44757507646776  6.3681492756968741 192.2589931778852  6.362101372116749 192.078904288263  6.3551085710451503 191.9059524257971  6.3471601605981247 191.74399301455372  6.3383054293343557 191.59736962582099  6.3286040206542582 191.46995205884389  6.3181398030987612 191.36538180207327  6.3070054669627273 191.28699504510962  6.2953416381374012 191.23783343526475  6.2831883981485639 191.22063219754168  6.2710340956293669 191.23781751362858  6.2593681407333834 191.28697598765345  6.248230986902831 191.36537740287051  6.2377638068934393 191.46998100875862  6.2280597353099827 191.5974471317862  6.2192030360712103 191.74412671565841  6.2112536032225769 191.90614015650851  6.2042610317809288 192.07912680305782  6.1982141636858685 192.25922771389585  6.1929625199249863 192.44782138340571  6.1885135410618348 192.64262836752752  6.1848389082058866 192.84251020992781  6.1819226814069799 193.04626192207149  6.17974911248099 193.25289343321646  6.1783066112229932 193.4615196815416  6.1775872077269955 193.671341870725  6.1775876947265536 193.88166854829106  6.1783080647634945 194.09148818578086  6.1797515331313999 194.30011143884593  6.1819260904762361 194.50674003924709  6.1848433502122786 194.7104890095479  6.1885190686359959 194.91036745446598  6.1929691938418348 195.10516954136605  6.1982219472140043 195.2937534389925  6.2042700325191156 195.47384396207624  6.211263069904823 195.64679729974699  6.2192117066268056 195.80875713705618  6.2280667885634546 195.95537983975035  6.2377681697054088 196.0827958961255  6.2482338222694587 196.18736197877539  6.2593641551078409 196.2657483213811  6.2710442597975549 196.31488888697854  6.2791067773583515 196.32638907037892  6.2831853071795862 196.32636328886844 
 0 4 0.03030281154861909 1 0.06060562309723818 1 0.090908434645857267 1 0.12121124619447636 1 0.15151405774309545 1 0.18181686929171453 1 0.21211968084033364 1 0.24242249238895272 1 0.27272530393757183 1 0.30302811548619091 1 0.33333092703480999 1 0.36363373858342907 1 0.39393655013204815 1 0.42423936168066728 1 0.45454217322928636 1 0.48484498477790544 1 0.51514779632652452 1 0.54545060787514366 1 0.57575341942376268 1 0.60605623097238182 1 0.63635904252100084 1 0.66666185406961997 1 0.69696466561823911 1 0.72726747716685813 1 0.75757028871547727 1 0.78787310026409629 1 0.81817591181271543 1 0.84847872336133456 1 0.87878153490995359 1 0.90908434645857272 1 0.93938715800719175 1 0.96968996955581088 1 0.99999278110443002 1 1.030295592653049 1 1.0605984042016681 1 1.0909012157502873 1 1.1212040272989063 1 1.1515068388475254 1 1.1818096503961446 1 1.2121124619447636 1 1.2424152734933827 1 1.2727180850420017 1 1.3030208965906209 1 1.3333237081392399 1 1.363626519687859 1 1.3939293312364782 1 1.4242321427850972 1 1.4545349543337163 1 1.4848377658823355 1 1.5151405774309545 1 1.5454433889795736 1 1.5757462005281926 1 1.6060490120768118 1 1.6363518236254309 1 1.6666546351740499 1 1.6969574467226691 1 1.7272602582712882 1 1.7575630698199072 1 1.7878658813685264 1 1.8181686929171454 1 1.8484715044657645 1 1.8787743160143835 1 1.9090771275630027 1 1.9393799391116218 1 1.9696827506602408 1 1.99998556220886 4
7 0 0  3 69 67  6.2831853071795862 1.5  6.244497528366284 1.5000113857078039  6.1679490279776568 1.49878311847532  6.0556266625213837 1.4936610503173422  5.9457989687218271 1.4856877134247777  5.8385474771984995 1.4754491815835626  5.7340122072526611 1.4635847015485624  5.6324181878127764 1.4507650284837172  5.5340424822895216 1.4376420649307784  5.4393836160488407 1.4248356092104919  5.3485992697171651 1.412815258277262  5.2596109997098148 1.4016641929411844  5.1724971337183323 1.3916966777633522  5.0868504121161262 1.3831055891620558  5.0024123852958464 1.3760563958527208  4.9188968211053767 1.3706695040577264  4.8360297720438723 1.3670317856170318  4.7535383261475426 1.3651989072962007  4.6711283553142273 1.3652001523155921  4.5886371553705185 1.3670354764719044  4.5057697660061784 1.3706755664642414  4.4222530194664209 1.3760647559989314  4.3378128320449303 1.3831161714012523  4.2521631800343718 1.3917093595016439  4.1650457668280705 1.4016787871675824  4.0760548333147861 1.4128312985881568  3.9852663687827699 1.4248528361309141  3.8906138085525304 1.4376585147869019  3.7922569650490088 1.4507783779977101  3.6906894118987572 1.4635938911767974  3.5861805569381948 1.4754539301912541  3.478967963856828 1.4856894896531476  3.3691275381124122 1.4936590792737059  3.2569636292829505 1.4987875380200999  3.1416219188349443 1.5006058116985319  3.0262705367047134 1.4987892145692838  2.9140870594427137 1.4936610368632464  2.804219475616009 1.4856898987820295  2.6969760669774181 1.4754511021527998  2.5924360872799643 1.4635868013591899  2.4908408344342332 1.4507670045659369  2.3924630356940075 1.4376438589447231  2.2978022839002792 1.4248371295196325  2.2070163385208081 1.4128165149197551  2.1180265951673571 1.4016651816001118  2.0309113287915044 1.3916974104779685  1.9452632751020615 1.3831060913345807  1.8608239686811348 1.3760567029373811  1.7773071656725832 1.3706696589317635  1.6944389063836094 1.3670318363134482  1.6119462671511082 1.3651989050906401  1.5295351074156147 1.3652001501250444  1.4470427141360613 1.3670355272113379  1.3641741145309756 1.3706757214077578  1.2806561290799301 1.3760650631753213  1.1962146621176744 1.383116673694246  1.1105636774036403 1.391710092324564  1.023444865724932 1.4016797760340298  0.93445245152607714 1.4128325550355219  0.84366241556594912 1.4248543575656909  0.74900786801308239 1.4376603045539722  0.65064932201695169 1.4507803680316813  0.54907908389624704 1.4635959358604176  0.44457094187521462 1.47545605281976  0.33734619652371578 1.4856909174682302  0.22754139884277003 1.493661890578845  0.11523453638158158 1.4987830910656323  0.038688867535158052 1.5000113315611594  0 1.5 
 0 4 0.03030281154861909 1 0.06060562309723818 1 0.090908434645857267 1 0.12121124619447636 1 0.15151405774309545 1 0.18181686929171453 1 0.21211968084033364 1 0.24242249238895272 1 0.27272530393757183 1 0.30302811548619091 1 0.33333092703480999 1 0.36363373858342907 1 0.39393655013204815 1 0.42423936168066728 1 0.45454217322928636 1 0.48484498477790544 1 0.51514779632652452 1 0.54545060787514366 1 0.57575341942376268 1 0.60605623097238182 1 0.63635904252100084 1 0.66666185406961997 1 0.69696466561823911 1 0.72726747716685813 1 0.75757028871547727 1 0.78787310026409629 1 0.81817591181271543 1 0.84847872336133456 1 0.87878153490995359 1 0.90908434645857272 1 0.93938715800719175 1 0.96968996955581088 1 0.99999278110443002 1 1.030295592653049 1 1.0605984042016681 1 1.0909012157502873 1 1.1212040272989063 1 1.1515068388475254 1 1.1818096503961446 1 1.2121124619447636 1 1.2424152734933827 1 1.2727180850420017 1 1.3030208965906209 1 1.3333237081392399 1 1.363626519687859 1 1.3939293312364782 1 1.4242321427850972 1 1.4545349543337163 1 1.4848377658823355 1 1.5151405774309545 1 1.5454433889795736 1 1.5757462005281926 1 1.6060490120768118 1 1.6363518236254309 1 1.6666546351740499 1 1.6969574467226691 1 1.7272602582712882 1 1.7575630698199072 1 1.7878658813685264 1 1.8181686929171454 1 1.8484715044657645 1 1.8787743160143835 1 1.9090771275630027 1 1.9393799391116218 1 1.9696827506602408 1 1.99998556220886 4
1 6.2831853071795862 -0 0 1 
1 0 -0 0 1 
7 0 0  3 69 67  6.2831853071795862 0.30000000000000071  6.2444940273568461 0.30001194872044284  6.1679409647649948 0.2987194230386801  6.0556175149691454 0.29332967296987683  5.9457928330385137 0.28493999052836227  5.8385471447984649 0.27416688015674934  5.7340193320787289 0.26168267110798304  5.6324334350606335 0.24819280203827748  5.5340657092458363 0.23438296315089877  5.4394137478870208 0.22090519129277997  5.3486351683446598 0.20825373872082498  5.2596493309875898 0.19651597447857494  5.1725351420424479 0.18602301009892053  5.0868855051516766 0.17697821071985995  5.0024423126295856 0.16955614459180038  4.9189196986955563 0.163883932567541  4.8360441459831831 0.16005334746951796  4.7535432363898487 0.15812322973170115  4.6711233533084515 0.15812454171499632  4.5886226843673477 0.16005723699387434  4.5057467834866758 0.16389032160207276  4.4222229782019955 0.16956495547866934  4.3377776158064689 0.17698936368293927  4.2521250395887735 0.18603637570602249  4.1650072945860623 0.19653135535760216  4.0760187875210487 0.20827064290878466  3.9852360789876466 0.22092334556163429  3.8905904375182701 0.23440029644451102  3.7922416067538482 0.24820686602127148  3.690682222621279 0.26169234969513577  3.5861808650855411 0.27417187898394579  3.4789741502797065 0.28494185572476383  3.3691366621573104 0.29332759859517321  3.2569721069584956 0.29872405564480725  3.1416220144960683 0.30063752951091399  3.0262622286256526 0.29872582565866601  2.9140780747155963 0.29332966752805717  2.8042133839289693 0.2849422950870209  2.6969758014826404 0.27416890818590417  2.5924432644648427 0.26168488762496805  2.4908561299221468 0.24819488826485744  2.3924863043734161 0.23438485723717789  2.2978324516111033 0.22090679654724385  2.2070522681793361 0.20825506569623062  2.1180649530702533 0.19651701858232093  2.0309493594297563 0.18602378397764616  1.945298386274124 0.17697874115071047  1.8608539100531793 0.16955646898081564  1.777330053260427 0.16388409617853469  1.6944532863135029 0.1600534010282148  1.6119511793924188 0.15812322740166668  1.529530103414561 0.15812453940078947  1.447028237145894 0.1600572905979632  1.3641511220172724 0.16389048528638758  1.2806260737802462 0.16956527996447823  1.1961794277457169 0.17698989424087719  1.1105255146450732 0.18603714969913626  1.0234063668644757 0.1965323996797777  0.93441637468659766 0.20827196967960701  0.84363208996505346 0.2209249519974246  0.74898445502750866 0.23440218607054164  0.65063391640701684 0.24820896688400748  0.54907183891203393 0.26169450835314267  0.44457119574101273 0.2741741190560435  0.33735229197693506 0.28494336528413788  0.22755053550254828 0.29333055756597681  0.11524260428056832 0.29871939397255115  0.03869237237796299 0.30001189168259401  0 0.30000000000000071 
 0 4 0.030302810840540002 1 0.060605621681080003 1 0.090908432521620008 1 0.12121124336216001 1 0.1515140542027 1 0.18181686504324002 1 0.21211967588378 1 0.24242248672432001 1 0.27272529756486003 1 0.30302810840540001 1 0.33333091924593999 1 0.36363373008648003 1 0.39393654092702002 1 0.42423935176756 1 0.45454216260810004 1 0.48484497344864003 1 0.51514778428918007 1 0.54545059512972005 1 0.57575340597026003 1 0.60605621681080002 1 0.63635902765134 1 0.66666183849187999 1 0.69696464933242008 1 0.72726746017296007 1 0.75757027101350005 1 0.78787308185404004 1 0.81817589269458002 1 0.84847870353512 1 0.8787815143756601 1 0.90908432521620008 1 0.93938713605674007 1 0.96968994689728005 1 0.99999275773782004 1 1.0302955685783601 1 1.0605983794189 1 1.0909011902594401 1 1.12120400109998 1 1.1515068119405201 1 1.1818096227810602 1 1.2121124336216 1 1.2424152444621401 1 1.27271805530268 1 1.3030208661432201 1 1.33332367698376 1 1.3636264878243001 1 1.3939292986648402 1 1.42423210950538 1 1.4545349203459201 1 1.48483773118646 1 1.5151405420270001 1 1.54544335286754 1 1.5757461637080801 1 1.6060489745486202 1 1.63635178538916 1 1.6666545962297001 1 1.69695740707024 1 1.7272602179107801 1 1.7575630287513202 1 1.7878658395918601 1 1.8181686504324002 1 1.84847146127294 1 1.8787742721134801 1 1.90907708295402 1 1.9393798937945601 1 1.9696827046351002 1 1.9999855154756401 4
7 0 0  3 69 67  6.2831853071795862 196.52636328886842  6.2874768915169854 196.52638932209732  6.2959608928598838 196.51488725565176  6.3082523706225571 196.46573485322367  6.3199659544035249 196.3873246458401  6.3309804906319078 196.28272372481473  6.3411909144322198 196.1552653306716  6.3505106117156034 196.00859934837905  6.3588760562416029 195.84660320663372  6.3662351503702244 195.67363525338311  6.3725994838023468 195.49355236009322  6.3781274179079919 195.30497069957505  6.3828108933945327 195.11016950251076  6.3866795409178811 194.9102867223834  6.3897499688123718 194.70652760567879  6.3920386105249403 194.49988291471072  6.3935575512527683 194.29123885088302  6.3943150994446745 194.0813957401682  6.3943145862576323 193.87104676148195  6.3935560194875993 193.66120619096287  6.3920360594753447 193.45256510684672  6.3897463759611925 193.24592331113669  6.3866748593291147 193.04216692350829  6.382805067763516 192.84228753242553  6.3781203839971496 192.64749122869128  6.3725912816667645 192.45891934390076  6.3662256623346662 192.27884684249719  6.3588660906481724 192.10591223256282  6.3505014398470889 191.94396981322362  6.3411836224278746 191.79736063606191  6.3309753853288964 191.66995296391278  6.3199648839611768 191.56538742196508  6.3082494396688116 191.48700047402542  6.2959768206683027 191.4378354806467  6.2831885700380816 191.42063118833531  6.2703991989384367 191.43781950511132  6.2581243393576473 191.48698133233336  6.2464059251313477 191.56538293834296  6.2353923007465779 191.66998186272437  6.2251812557313526 191.79743815332591  6.2158613623912968 191.94410360575142  6.2074956322042256 192.10610013465677  6.2001363009472268 192.27906958398572  6.1937717723786117 192.45915411245423  6.188243672686407 192.64773777921698  6.1835600574380694 192.84254131227752  6.1796912955555197 193.04242666978274  6.1766207775022908 193.24618854685224  6.1743320690012027 193.45283612885007  6.1728130841428461 193.66148317169913  6.1720555139969822 193.871329312391  6.1720560271900684 194.08168134070075  6.1728146159263968 194.29152494113868  6.1743346200802707 194.50016900423492  6.1766243704013553 194.70681369094675  6.1796959771912743 194.91057283892852  6.1835658831978568 195.11045480720617  6.1882507065062473 195.30525344693297  6.1937799753224612 195.49382733638288  6.2001457864807721 195.67390147589975  6.2075056075994954 195.84683756552707  6.2158704972253345 196.00878041209148  6.2251886847048157 196.15538890214825  6.2353968928508028 196.28279505657403  6.2464089082819472 196.38735642278002  6.2581201292224211 196.46574291497021  6.2704099196041287 196.51488694919942  6.2788935971608204 196.52638889432211  6.2831853071795862 196.52636328886842 
 0 4 0.030302810840540002 1 0.060605621681080003 1 0.090908432521620008 1 0.12121124336216001 1 0.1515140542027 1 0.18181686504324002 1 0.21211967588378 1 0.24242248672432001 1 0.27272529756486003 1 0.30302810840540001 1 0.33333091924593999 1 0.36363373008648003 1 0.39393654092702002 1 0.42423935176756 1 0.45454216260810004 1 0.48484497344864003 1 0.51514778428918007 1 0.54545059512972005 1 0.57575340597026003 1 0.60605621681080002 1 0.63635902765134 1 0.66666183849187999 1 0.69696464933242008 1 0.72726746017296007 1 0.75757027101350005 1 0.78787308185404004 1 0.81817589269458002 1 0.84847870353512 1 0.8787815143756601 1 0.90908432521620008 1 0.93938713605674007 1 0.96968994689728005 1 0.99999275773782004 1 1.0302955685783601 1 1.0605983794189 1 1.0909011902594401 1 1.12120400109998 1 1.1515068119405201 1 1.1818096227810602 1 1.2121124336216 1 1.2424152444621401 1 1.27271805530268 1 1.3030208661432201 1 1.33332367698376 1 1.3636264878243001 1 1.3939292986648402 1 1.42423210950538 1 1.4545349203459201 1 1.48483773118646 1 1.5151405420270001 1 1.54544335286754 1 1.5757461637080801 1 1.6060489745486202 1 1.63635178538916 1 1.6666545962297001 1 1.69695740707024 1 1.7272602179107801 1 1.7575630287513202 1 1.7878658395918601 1 1.8181686504324002 1 1.84847146127294 1 1.8787742721134801 1 1.90907708295402 1 1.9393798937945601 1 1.9696827046351002 1 1.9999855154756401 4
1 6.5449846949787354 389.59999999999997 -1 -0 
2 0 0 0.96592582628906831 0.25881904510252068 0.25881904510252068 -0.96592582628906831 23
2 0 0 0.70710678118654757 -0.70710678118654746 -0.70710678118654746 -0.70710678118654757 23
8 0.19999940000000002 389.60000059999999
1 6.0213859193804371 0 0 1 
8 0.19999940000000002 389.60000059999999
1 23 0 0 -1 
8 0.20000000000000001 389.59999999999997
1 6.0213859193804371 0 0 1 
1 6.0213859193804371 0.20000000000000001 1 0 
2 0 0 0.96592582628906831 -0.25881904510252068 0.25881904510252068 0.96592582628906831 23
2 0 0 0.25881904510252096 -0.9659258262890682 0.9659258262890682 0.25881904510252096 22.999999999999996
8 0.19999940000000002 389.60000059999999
1 0.26179938779914935 0 0 1 
8 0.19999940000000002 389.60000059999999
1 37.5 0 0 -1 
8 0.20000000000000001 389.59999999999997
1 6.5449846949787354 0 0 1 
7 0 0  3 69 67  6.2831853071795862 0.30000000000000071  6.2444940273568621 0.30001194872045051  6.1679409647650685 0.29871942303869281  6.055617514969331 0.29332967296988499  5.9457928330387686 0.28493999052838037  5.8385471447987589 0.27416688015679697  5.7340193320790993 0.26168267110800869  5.6324334350610634 0.24819280203834046  5.5340657092463417 0.23438296315096235  5.4394137478876274 0.22090519129286781  5.3486351683451643 0.20825373872090031  5.2596493309880925 0.1965159744786335  5.1725351420429346 0.18602301009899438  5.0868855051521216 0.17697821071988956  5.0024423126301194 0.16955614459186386  4.9189196986959782 0.16388393256755573  4.8360441459836041 0.16005334746954469  4.7535432363902919 0.15812322973170745  4.6711233533088725 0.15812454171498699  4.5886226843677855 0.16005723699386265  4.5057467834871794 0.16389032160204353  4.4222229782024716 0.16956495547862743  4.3377776158069423 0.17698936368288037  4.2521250395893002 0.18603637570595891  4.1650072945866192 0.1965313553575315  4.076018787521674 0.20827064290870492  3.9852360789882959 0.2209233455615337  3.8905904375188212 0.23440029644441765  3.7922416067543487 0.24820686602121272  3.6906822226216884 0.26169234969508048  3.586180865085872 0.27417187898392709  3.4789741502799085 0.2849418557247238  3.3691366621574481 0.29332759859516022  3.2569721069585369 0.29872405564481397  3.1416220144959732 0.30063752951090017  3.0262622286255096 0.29872582565867156  2.9140780747154098 0.29332966752802775  2.8042133839287189 0.28494229508700508  2.6969758014823442 0.27416890818586914  2.5924432644645217 0.26168488762491088  2.4908561299217604 0.24819488826482278  2.3924863043729618 0.23438485723709646  2.2978324516106601 0.22090679654719933  2.2070522681789004 0.20825506569614882  2.1180649530697546 0.19651701858226636  2.0309493594292443 0.18602378397758365  1.9452983862735314 0.17697874115065276  1.8608539100526722 0.16955646898076793  1.7773300532597689 0.16388409617852739  1.6944532863128396 0.16005340102816373  1.6119511793917296 0.15812322740168638  1.529530103413868 0.15812453940078292  1.4470282371454533 0.16005729059799126  1.3641511220169322 0.1638904852864097  1.2806260737800073 0.16956527996448975  1.1961794277456346 0.17698989424087347  1.1105255146451645 0.18603714969913929  1.0234063668646873 0.19653239967974848  0.93441637468695382 0.20827196967957107  0.84363208996560346 0.22092495199734205  0.74898445502794397 0.23440218607048197  0.65063391640742985 0.2482089668839445  0.54907183891236699 0.26169450835311392  0.44457119574129367 0.27417411905598649  0.33735229197713995 0.28494336528416081  0.22755053550268128 0.29333055756596266  0.11524260428064802 0.29871939397256358  0.038692372377994368 0.30001189168260328  0 0.30000000000000071 
 0 4 0.030302810840540633 1 0.060605621681081266 1 0.090908432521621896 1 0.12121124336216253 1 0.15151405420270317 1 0.18181686504324379 1 0.21211967588378444 1 0.24242248672432506 1 0.27272529756486569 1 0.30302810840540634 1 0.33333091924594699 1 0.36363373008648758 1 0.39393654092702823 1 0.42423935176756888 1 0.45454216260810948 1 0.48484497344865013 1 0.51514778428919072 1 0.54545059512973137 1 0.57575340597027203 1 0.60605621681081268 1 0.63635902765135333 1 0.66666183849189398 1 0.69696464933243452 1 0.72726746017297517 1 0.75757027101351582 1 0.78787308185405647 1 0.81817589269459712 1 0.84847870353513777 1 0.87878151437567831 1 0.90908432521621896 1 0.93938713605675961 1 0.96968994689730026 1 0.99999275773784091 1 1.0302955685783814 1 1.0605983794189222 1 1.0909011902594627 1 1.1212040011000035 1 1.1515068119405441 1 1.1818096227810846 1 1.2121124336216254 1 1.2424152444621659 1 1.2727180553027067 1 1.3030208661432472 1 1.333323676983788 1 1.3636264878243285 1 1.393929298664869 1 1.4242321095054098 1 1.4545349203459503 1 1.4848377311864911 1 1.5151405420270316 1 1.5454433528675724 1 1.5757461637081129 1 1.6060489745486535 1 1.6363517853891942 1 1.6666545962297348 1 1.6969574070702755 1 1.7272602179108161 1 1.7575630287513566 1 1.7878658395918974 1 1.8181686504324379 1 1.8484714612729787 1 1.8787742721135192 1 1.90907708295406 1 1.9393798937946005 1 1.9696827046351411 1 1.9999855154756818 4
7 0 0  3 69 67  6.2831853071795862 14.5  6.2874768915169836 14.50002603322889  6.2959608928598767 14.488523966783408  6.308252370622534 14.439371564355318  6.3199659544035027 14.360961356972014  6.3309804906318741 14.256360435946585  6.3411909144321887 14.128902041803698  6.3505106117155661 13.982236059511287  6.358876056241562 13.8202399177662  6.3662351503701808 13.647271964515861  6.3725994838023157 13.46718907122589  6.3781274179079599 13.278607410707728  6.3828108933945096 13.08380621364341  6.3866795409178616 12.883923433516063  6.3897499688123558 12.680164316811704  6.3920386105249314 12.473519625843336  6.3935575512527629 12.264875562015725  6.3943150994446718 12.055032451300871  6.3943145862576314 11.844683472614568  6.3935560194876064 11.634842902095597  6.3920360594753554 11.426201817979553  6.3897463759612094 11.219560022269468  6.3866748593291343 11.015803634640941  6.3828050677635408 10.815924243558362  6.3781203839971834 10.621127939824104  6.3725912816668071 10.432556055033588  6.3662256623347142 10.252483553630091  6.3588660906482186 10.079548943695379  6.3505014398471316 9.9176065243559872  6.3411836224279137 9.7709973471940383  6.3309753853289292 9.6435896750448009  6.3199648839612008 9.539024133096655  6.3082494396688267 9.4606371851572  6.2959768206683071 9.4114721917782767  6.2831885700380683 9.3942678994669215  6.2703991989384242 9.4114562162429465  6.2581243393576234 9.4606180434650025  6.2464059251313264 9.5390196494747457  6.235392300746545 9.6436185738562177  6.2251812557313215 9.7710748644578747  6.2158613623912675 9.9177403168836733  6.2074956322041857 10.079736845789085  6.2001363009471957 10.252706295118182  6.1937717723785779 10.432790823586606  6.1882436726863812 10.6213744903497  6.1835600574380409 10.816178023410169  6.1796912955554975 11.016063380915746  6.1766207775022757 11.219825257985068  6.174332069001184 11.426472839983211  6.1728130841428408 11.63511988283244  6.1720555139969759 11.844966023524282  6.1720560271900737 12.055318051834155  6.1728146159264012 12.265161652271351  6.1743346200802822 12.473805715367346  6.1766243704013633 12.680450402078995  6.1796959771912734 12.884209550060204  6.1835658831978586 13.084091518337566  6.188250706506234 13.278890158063968  6.1937799753224336 13.467464047513849  6.2001457864807357 13.647538187030307  6.2075056075994519 13.820474276657933  6.2158704972253052 13.982417123222415  6.225188684704781 14.12902561327931  6.2353968928507779 14.256431767705383  6.2464089082819214 14.360993133911505  6.258120129222406 14.439379626101776  6.2704099196041199 14.488523660331083  6.2788935971608177 14.500025605453693  6.2831853071795862 14.5 
 0 4 0.030302810840540633 1 0.060605621681081266 1 0.090908432521621896 1 0.12121124336216253 1 0.15151405420270317 1 0.18181686504324379 1 0.21211967588378444 1 0.24242248672432506 1 0.27272529756486569 1 0.30302810840540634 1 0.33333091924594699 1 0.36363373008648758 1 0.39393654092702823 1 0.42423935176756888 1 0.45454216260810948 1 0.48484497344865013 1 0.51514778428919072 1 0.54545059512973137 1 0.57575340597027203 1 0.60605621681081268 1 0.63635902765135333 1 0.66666183849189398 1 0.69696464933243452 1 0.72726746017297517 1 0.75757027101351582 1 0.78787308185405647 1 0.81817589269459712 1 0.84847870353513777 1 0.87878151437567831 1 0.90908432521621896 1 0.93938713605675961 1 0.96968994689730026 1 0.99999275773784091 1 1.0302955685783814 1 1.0605983794189222 1 1.0909011902594627 1 1.1212040011000035 1 1.1515068119405441 1 1.1818096227810846 1 1.2121124336216254 1 1.2424152444621659 1 1.2727180553027067 1 1.3030208661432472 1 1.333323676983788 1 1.3636264878243285 1 1.393929298664869 1 1.4242321095054098 1 1.4545349203459503 1 1.4848377311864911 1 1.5151405420270316 1 1.5454433528675724 1 1.5757461637081129 1 1.6060489745486535 1 1.6363517853891942 1 1.6666545962297348 1 1.6969574070702755 1 1.7272602179108161 1 1.7575630287513566 1 1.7878658395918974 1 1.8181686504324379 1 1.8484714612729787 1 1.8787742721135192 1 1.90907708295406 1 1.9393798937946005 1 1.9696827046351411 1 1.9999855154756818 4
8 -25.053683565924011 -0
1 0 0 -0.96592582628906831 0.25881904510252074 
8 -25.053683565924011 -0
1 0 -389.59999999999997 -1 -0 
1 0 0 -0.25881904510252091 0.9659258262890682 
8 -25.053683565924011 -0
1 0 0 -0.96592582628906831 0.25881904510252074 
8 -25.053683565924011 -0
1 0 -0.20000000000000001 -1 -0 
1 0 0 -0.25881904510252091 0.9659258262890682 
8 -30.250000000000007 -5.1963164340759924
1 29.219256245244317 7.8292761143512513 0.96592582628906831 0.25881904510252074 
8 -30.250000000000007 -5.1963164340759924
1 30.25 -389.59999999999997 -1 0 
1 21.389980130893065 -21.389980130893061 0.70710678118654768 -0.70710678118654746 
8 -30.250000000000007 -5.1963164340759924
1 29.219256245244317 7.8292761143512513 0.96592582628906831 0.25881904510252074 
8 -30.250000000000007 -5.1963164340759924
1 30.25 -0.20000000000000001 -1 0 
1 21.389980130893065 -21.389980130893061 0.70710678118654768 -0.70710678118654746 
1 6.2831853071795862 -0 0 1 
1 0 -0 0 1 
Curves 18
7 0 0  7 50 9  24.199999999999999 1.4447124189002347e-15 14.300000000000001  24.199999999999999 0.34711263416082139 14.300000000000001  24.194191335623913 0.68382922707342775 14.244875870752765  24.183200713002641 1.0001992415990142 14.140565826515077  24.168614898367611 1.2881859193988869 13.994739915611833  24.152524801555234 1.5418623854595463 13.816740647265512  24.136727830883732 1.7579656613775274 13.617442451370255  24.107923070493051 2.1167811173437001 13.198631266153248  24.094529089318584 2.2639160714050934 12.972893385564875  24.083130890984592 2.3794839204807148 12.73698097481717  24.074282011410254 2.4650060639409634 12.494407000795228  24.068280945040794 2.5216392905866223 12.247729108869681  24.065275813919108 2.549999999999998 11.998977322151429  24.065275813919108 2.549999999999998 11.501023290332945  24.068280934155975 2.5216394022056399 11.252275470466991  24.074281813539599 2.4650079137885537 11.005599409019133  24.083130624193384 2.3794864708027927 10.76302227351476  24.094529165286069 2.2639160054466334 10.527104090396262  24.107923396578052 2.1167770553644853 10.301363992684404  24.136730351961351 1.7579342567901177 9.8825208930390893  24.152526911236748 1.541829276793909 9.6832393766801754  24.168614314608892 1.2881819663089182 9.5052717721517848  24.183197533545204 1.0002417125063405 9.359464423383324  24.194188888559193 0.68390864541878549 9.2551473213923661  24.199999999999999 0.3471856782603186 9.1999999999999993  24.199999999999999 -0.34711263416075333 9.1999999999999993  24.19419133562393 -0.68382922707333482 9.2551241292469157  24.183200713002591 -1.0001992415995158 9.3594341734858251  24.168614898367665 -1.2881859193982481 9.5052600843871602  24.152524801555209 -1.5418623854598577 9.6832593527349573  24.136727830883739 -1.7579656613774679 9.88255754862967  24.107923070493051 -2.1167811173437041 10.301368733846749  24.094529089318556 -2.2639160714052817 10.527106614435262  24.083130890984659 -2.3794839204802076 10.763019025182306  24.07428201141019 -2.4650060639414813 11.005592999205481  24.068280945040819 -2.5216392905864207 11.252270891129935  24.065275813919108 -2.5500000000000007 11.501022677848617  24.065275813919108 -2.5500000000000007 11.99897670966681  24.06828093415599 -2.5216394022055093 12.247724529533782  24.074281813539553 -2.4650079137890355 12.494400590979577  24.083130624193451 -2.3794864708020187 12.736977726486643  24.094529165286019 -2.2639160054472773 12.972895909602803  24.107923396578069 -2.1167770553642358 13.198636007315898  24.136730351961322 -1.7579342567904834 13.617479106960491  24.152526911236826 -1.541829276792801 13.816760623321267  24.168614314608799 -1.2881819663104448 13.994728227846126  24.183197533545258 -1.0002417125050922 14.140535576618262  24.194188888559179 -0.68390864541937946 14.244852678607106  24.199999999999999 -0.34718567826017521 14.300000000000001  24.199999999999999 -1.3322676295501878e-15 14.300000000000001 
 0 8 0.24874664720745554 6 0.49997593276175484 6 0.75120460029184843 6 1 6 1.2487430558556094 6 1.4999687142141709 6 1.7511937545572485 6 1.9999855622092277 8
8 0 0.52359877559829882
2 0 0 0 0 0 1 0.96592582628906842 -0.25881904510252068 0 0.25881904510252068 0.96592582628906842 -0 24.199999999999999
1 23.375404996195453 6.2634208914810001 0 0 0 1 
8 0 0.52359877559829882
2 0 0 389.39999999999998 0 0 -1 0.96592582628906842 0.25881904510252068 0 0.25881904510252068 -0.96592582628906842 0 24.199999999999999
1 23.375404996195453 -6.2634208914810019 0 0 0 1 
7 0 0  7 50 9  24.199999999999999 1.4447124189002347e-15 196.32636328886844  24.199999999999999 0.34711263416082461 196.32636328886844  24.194191335623916 0.68382922707336125 196.27123915962113  24.183200713002616 1.0001992415993857 196.1669291153834  24.168614898367654 1.2881859193982061 196.02110320448065  24.152524801555202 1.5418623854600588 195.8431039361335  24.136727830883746 1.7579656613773553 195.64380574023889  24.107923070493065 2.1167811173435256 195.22499455502188  24.094529089318545 2.2639160714057049 194.99925667443264  24.083130890984641 2.3794839204797573 194.76334426368669  24.074282011410215 2.4650060639417735 194.52077028966249  24.068280945040808 2.5216392905863207 194.27409239773871  24.065275813919108 2.549999999999998 194.02534061101983  24.065275813919108 2.549999999999998 193.52738657920131  24.068280934155975 2.5216394022057238 193.27863875933565  24.074281813539606 2.4650079137883085 193.03196269788708  24.08313062419337 2.3794864708031311 192.78938556238376  24.094529165286083 2.2639160054463887 192.55346737926433  24.107923396578041 2.1167770553645839 192.32772728155294  24.136730351961351 1.7579342567901148 191.90888418190752  24.152526911236741 1.5418292767937924 191.70960266554854  24.168614314608906 1.2881819663092491 191.53163506102035  24.183197533545194 1.0002417125058853 191.3858277122516  24.194188888559196 0.68390864541916596 191.28151061026085  24.199999999999999 0.34718567826015934 191.22636328886841  24.199999999999999 -0.34711263416059523 191.22636328886841  24.194191335623927 -0.68382922707367921 191.2814874181154  24.183200713002595 -1.0001992415992724 191.38579746235419  24.168614898367661 -1.2881859193982881 191.53162337325563  24.152524801555209 -1.5418623854598958 191.70962264160337  24.136727830883739 -1.7579656613774435 191.90892083749807  24.107923070493047 -2.1167811173437334 192.32773202271522  24.094529089318556 -2.2639160714052733 192.55346990330375  24.083130890984666 -2.379483920480161 192.7893823140505  24.074282011410187 -2.4650060639415234 193.03195628807407  24.068280945040822 -2.521639290586406 193.27863417999833  24.065275813919108 -2.5500000000000007 193.52738596671702  24.065275813919108 -2.5500000000000007 194.02533999853534  24.068280934155979 -2.5216394022056554 194.27408781840157  24.074281813539596 -2.465007913788535 194.5207638798496  24.083130624193391 -2.3794864708027159 194.76334101535329  24.094529165286055 -2.2639160054468297 194.99925919847212  24.107923396578059 -2.116777055364361 195.22499929618417  24.13673035196134 -1.7579342567902743 195.64384239582915  24.152526911236773 -1.5418292767935293 195.84312391218882  24.168614314608874 -1.2881819663093546 196.02109151671593  24.183197533545204 -1.0002417125058496 196.16689886548554  24.194188888559196 -0.68390864541936036 196.27121596747591  24.199999999999999 -0.34718567826000246 196.32636328886844  24.199999999999999 -1.3322676295501878e-15 196.32636328886844 
 0 8 0.24874664720781148 6 0.49997593276197849 6 0.75120460029202929 6 1 6 1.2487430558554293 6 1.4999687142138276 6 1.7511937545568315 6 1.99998556220886 8
1 22.699999999999999 6.2456986756515304e-16 196.32636328886844 1 0 0 
7 0 0  7 50 9  23 1.4447124189002347e-15 196.32636328886844  23 0.34715865101604348 196.32636328886844  22.993886647045382 0.68388922570717792 196.27122455104032  22.982321516116453 1.0002511919752954 196.16690432999042  22.966973999326147 1.2882210919192614 196.02107813603678  22.950042106134248 1.5418812202374632 195.84308599042413  22.933417237857622 1.7579724534654897 195.64379781247982  22.903101568892435 2.1167593852800195 195.22501992079452  22.889003648590322 2.2638885450858028 194.99930181882777  22.877004350492339 2.3794613173750023 194.7633986155225  22.867687457866776 2.4649930126834452 194.5208217382808  22.861368533694659 2.5216348624728733 194.27413072597557  22.858204216429602 2.5499999999999998 194.02536004306052  22.858204216429602 2.5499999999999998 193.5273671715818  22.861368521592439 2.5216349796577813 193.27860044929076  22.867687249106247 2.4649948669325279 193.03191125573133  22.877004069564599 2.3794638683498861 192.78933120958118  22.889003728842805 2.2638884775865691 192.55342222975617  22.903101912636146 2.1167553170620135 192.32770190849803  22.933419896736289 1.7579409855496799 191.90889203574915  22.95004433077672 1.5418480459446844 191.70962057186682  22.966973382180669 1.2882171395722268 191.53166016007921  22.982318163849026 1.0002937594427823 191.38585256242905  22.99388406723557 0.68396880438201035 191.28152526328438  23 0.34723182548401033 191.22636328886841  23 -0.34715865101620924 191.22636328886841  22.993886647045365 -0.68388922570691801 191.2815020266967  22.982321516116521 -1.0002511919751393 191.38582224774584  22.966973999326072 -1.2882210919196799 191.53164844170075  22.950042106134276 -1.5418812202373391 191.70964058731249  22.933417237857626 -1.7579724534654317 191.90892876525695  22.903101568892431 -2.1167593852800781 192.32770665694241  22.889003648590307 -2.263888545085929 192.55342475890933  22.877004350492367 -2.3794613173746781 192.78932796221366  22.867687457866754 -2.4649930126836832 193.03190483945662  22.861368533694669 -2.5216348624728049 193.27859585176105  22.858204216429598 -2.5500000000000025 193.52736653467633  22.858204216429598 -2.5500000000000025 194.02535940615491  22.861368521592436 -2.5216349796578128 194.27412612844606  22.867687249106272 -2.4649948669324155 194.52081532200589  22.87700406956457 -2.3794638683500935 194.76339536815522  22.889003728842827 -2.2638884775863302 194.99930434798108  22.903101912636135 -2.1167553170621161 195.22502466923868  22.933419896736282 -1.7579409855497516 195.64383454198762  22.950044330776748 -1.5418480459442954 195.84310600587017  22.966973382180626 -1.2882171395731472 196.02106641765755  22.982318163849055 -1.0002937594417327 196.1668740153078  22.993884067235562 -0.68396880438257202 196.2712013144525  23 -0.34723182548389042 196.32636328886844  23 -1.3322676295501878e-15 196.32636328886844 
 0 8 0.24875694506992008 6 0.4999759066114442 6 0.75119422556334514 6 1 6 1.2487533419440262 6 1.4999686646985189 6 1.7511833448725524 6 1.9999855154756401 8
8 0 0.5235987755982987
2 0 0 389.39999999999998 0 0 -1 0.96592582628906831 0.25881904510252068 0 0.25881904510252068 -0.96592582628906831 0 23
1 22.216294004648571 -5.952838037357977 -0.20000000000000001 0 0 1 
8 0 0.5235987755982987
2 0 0 0 0 0 1 0.96592582628906831 -0.25881904510252068 0 0.25881904510252068 0.96592582628906831 -0 23
1 22.216294004648571 5.9528380373579752 -0.20000000000000001 0 0 1 
7 0 0  7 50 9  23 1.4447124189002347e-15 14.300000000000001  23 0.34715865101634907 14.300000000000001  22.993886647045386 0.68388922570637922 14.244861262172032  22.982321516116453 1.0002511919760946 14.140541041121725  22.966973999326161 1.2882210919187387 13.99471484716878  22.950042106134216 1.5418812202379126 13.816722701555197  22.933417237857643 1.7579724534652372 13.617434523611692  22.903101568892428 2.1167593852801185 13.198656631925973  22.889003648590336 2.2638885450856772 12.972938529959681  22.877004350492324 2.3794613173750547 12.737035326653482  22.867687457866786 2.4649930126834407 12.494458449412996  22.861368533694655 2.5216348624728724 12.247767437106837  22.858204216429602 2.5499999999999998 11.998996754192115  22.858204216429602 2.5499999999999998 11.501003882713263  22.861368521592439 2.521634979657601 11.252237160422629  22.867687249106247 2.4649948669329453 11.005547966862688  22.877004069564592 2.3794638683496272 10.762967920712951  22.889003728842827 2.2638884775864354 10.527058940887397  22.903101912636128 2.1167553170621827 10.301338619629814  22.933419896736286 1.757940985549715 9.8825287468807641  22.950044330776731 1.5418480459445212 9.6832572829982944  22.966973382180651 1.2882171395725608 9.5052968712108967  22.98231816384904 1.000293759442489 9.3594892735605733  22.993884067235566 0.68396880438207264 9.2551619744159499  23 0.3472318254840433 9.1999999999999993  23 -0.34715865101638244 9.1999999999999993  22.993886647045368 -0.68388922570642463 9.2551387378281635  22.982321516116503 -1.0002511919758508 9.3594589588777044  22.966973999326086 -1.2882210919191239 9.5052851528319877  22.950042106134269 -1.5418812202375127 9.6832772984441995  22.933417237857626 -1.7579724534654433 9.8825654763885424  22.903101568892431 -2.1167593852800879 10.301343368073983  22.889003648590322 -2.2638885450857735 10.527061470040596  22.877004350492342 -2.3794613173749504 10.76296467334593  22.867687457866776 -2.4649930126834612 11.005541550587512  22.861368533694662 -2.5216348624728799 11.252232562892932  22.858204216429598 -2.5500000000000025 11.501003245807896  22.858204216429598 -2.5500000000000025 11.99899611728701  22.861368521592425 -2.5216349796579727 12.247762839575955  22.867687249106314 -2.4649948669318724 12.494452033139956  22.877004069564499 -2.3794638683509501 12.737032079284592  22.889003728842891 -2.2638884775855419 12.972941059113923  22.903101912636107 -2.1167553170624638 13.19866138036987  22.933419896736275 -1.7579409855498276 13.617471253119112  22.950044330776752 -1.5418480459444843 13.816742717001883  22.966973382180633 -1.2882171395724025 13.994703128788958  22.982318163849047 -1.0002937594426651 14.140510726439528  22.993884067235562 -0.68396880438195362 14.244838025584018  23 -0.34723182548408893 14.300000000000001  23 -1.3322676295501878e-15 14.300000000000001 
 0 8 0.24875694507010748 6 0.49997590661160546 6 0.75119422556357152 6 1 6 1.2487533419439003 6 1.4999686646982957 6 1.7511833448727536 6 1.9999855154756818 8
1 0 0 389.39999999999998 -0.96592582628906831 0.25881904510252074 0 
1 0 0 0 -0.96592582628906831 0.25881904510252074 0 
1 29.219256245244317 7.8292761143512513 389.39999999999998 0.96592582628906831 0.25881904510252074 -0 
1 29.219256245244317 7.8292761143512513 0 0.96592582628906831 0.25881904510252074 -0 
1 22.699999999999999 6.2456986756515028e-16 14.300000000000001 1 0 0 
Polygon3D 0
PolygonOnTriangulations 0
Surfaces 12
10 3.1415926535897931 9.4247779607693793 -2e+100 2e+100
2 0 0 0 0 0 1 1 0 -0 -0 1 0 24.199999999999999
2 22.699999999999999 0 11.75 1 0 0 -0 0 1 0 -1 0 2.5499999999999998
1 0 0 0 0 0 1 1 0 -0 -0 1 0 
1 0 0 4 0 0 1 1 0 -0 -0 1 0 
2 0 0 0 0 0 1 1 0 -0 -0 1 0 24.199999999999999
1 58.438512490488634 15.658552228702504 -0.20000000000000001 0.25881904510252074 -0.96592582628906831 0 -0.96592582628906831 -0.25881904510252074 0 0 -0 -1 
1 0 0 389.39999999999998 0 0 1 1 0 -0 -0 1 0 
1 0 0 -4 0 0 1 1 0 -0 -0 1 0 
1 0 0 -0.20000000000000001 0.25881904510252074 0.96592582628906831 -0 0.96592582628906831 -0.25881904510252074 0 0 -0 -1 
2 22.699999999999999 0 193.77636328886842 1 0 0 -0 0 1 0 -1 0 2.5499999999999998
10 3.1415926535897931 9.4247779607693793 -2e+100 2e+100
2 0 0 -0.20000000000000001 0 0 1 1 0 -0 -0 1 0 23
2 0 0 -0.20000000000000001 0 0 1 1 0 -0 -0 1 0 23
Triangulations 0

TShapes 52
Ve
1.00000004096073e-07
24.2 -2.65136032015402e-15 14.3
0 0

0101101
*
Ed
 1e-07 1 1 0
1  1 0 0 1.99998556220923
2  1 1 0 0 1.99998556220923
2  2 2 0 0 1.99998556220923
0

0101100
+52 0 -52 0 *
Wi

0101100
+51 0 *
Ve
1.50000001776357e-07
23.3754049961955 -6.263420891481 0
0 0

0101101
*
Ve
1.5e-07
23.3754049961955 6.263420891481 0
0 0

0101101
*
Ed
 1e-07 1 1 0
1  2 0 0 0.523598775598299
2  3 1 0 0 0.523598775598299
2  4 3 0 0 0.523598775598299
2  5 4 5 0 0.523598775598299
0

0101000
+49 0 -48 0 *
Ve
1.5e-07
23.3754049961955 6.263420891481 389.4
0 0

0101101
*
Ed
 1e-07 1 1 0
1  3 0 0 389.4
2  6 5 0 0 389.4
2  7 6 0 0 389.4
2  8 1 0 0 389.4
0

0101000
+48 0 -46 0 *
Ve
1.50000001776357e-07
23.3754049961955 -6.263420891481 389.4
0 0

0101101
*
Ed
 1e-07 1 1 0
1  4 0 0 0.523598775598299
2  9 1 0 0 0.523598775598299
2  10 7 0 0 0.523598775598299
2  11 8 8 0 0.523598775598299
0

0101000
+46 0 -44 0 *
Ed
 1e-07 1 1 0
1  5 0 0 389.4
2  12 5 0 0 389.4
2  13 9 0 0 389.4
2  14 1 0 0 389.4
0

0101000
+49 0 -44 0 *
Wi

0101100
+47 0 +45 0 +43 0 -42 0 *
Ve
1.00000004096073e-07
24.2 -2.65136032015402e-15 196.326363288868
0 0

0101101
*
Ed
 1e-07 1 1 0
1  6 0 0 1.99998556220886
2  15 1 0 0 1.99998556220886
2  16 10 0 0 1.99998556220886
0

0101100
+40 0 -40 0 *
Wi

0101100
+39 0 *
Fa
0  0 1 0

0101000
+50 0 +41 0 +38 0 *
Ve
1.00000003949115e-07
23 -2.50440270425634e-15 196.326363288868
0 0

0101101
*
Ed
 1e-07 1 1 0
1  7 0 0.300000000000001 1.5
3  17 18CN 10 0 0.300000000000001 1.5
0

0101000
+36 0 -40 0 *
Ed
 1e-07 1 1 0
1  8 0 0 1.99998551547564
2  19 10 0 0 1.99998551547564
2  20 11 0 0 1.99998551547564
0

0101100
+36 0 -36 0 *
Wi

0101100
+39 0 -35 0 -34 0 +35 0 *
Fa
0  1e-07 10 0

0101000
+33 0 *
Ve
1.50000000888178e-07
22.2162940046486 5.95283803735798 389.4
0 0

0101101
*
Ve
1.50000000888178e-07
22.2162940046486 -5.95283803735798 389.4
0 0

0101101
*
Ed
 1e-07 1 1 0
1  9 0 0 0.523598775598299
2  21 11 0 0 0.523598775598299
2  22 7 0 0 0.523598775598299
2  23 8 8 0 0.523598775598299
0

0101000
+31 0 -30 0 *
Ve
1.50000000888178e-07
22.2162940046486 -5.95283803735798 0
0 0

0101101
*
Ed
 1e-07 1 1 0
1  10 0 0.2 389.6
2  24 12 0 0.2 389.6
2  25 9 0 0.2 389.6
2  26 11 0 0.2 389.6
0

0101000
+28 0 -30 0 *
Ve
1.50000000888178e-07
22.2162940046486 5.95283803735798 0
0 0

0101101
*
Ed
 1e-07 1 1 0
1  11 0 0 0.523598775598299
2  27 11 0 0 0.523598775598299
2  28 3 0 0 0.523598775598299
2  29 4 5 0 0.523598775598299
0

0101000
+28 0 -26 0 *
Ed
 1e-07 1 1 0
1  12 0 0.2 389.6
2  30 12 0 0.2 389.6
2  31 6 0 0.2 389.6
2  32 11 0 0.2 389.6
0

0101000
+26 0 -31 0 *
Wi

0101100
+29 0 -27 0 +25 0 +24 0 *
Ve
1.00000003949115e-07
23 -2.50440270425634e-15 14.3
0 0

0101101
*
Ed
 1e-07 1 1 0
1  13 0 0 1.99998551547568
2  33 2 0 0 1.99998551547568
2  34 11 0 0 1.99998551547568
0

0101100
+22 0 -22 0 *
Wi

0101100
+21 0 *
Wi

0101100
+34 0 *
Fa
0  0 11 0

0101000
+23 0 +20 0 +19 0 *
Ed
 1.5e-07 1 1 0
1  14 0 -24.2 -23
2  35 7 0 -24.2 -23
2  36 9 0 -24.2 -23
2  37 8 8 -24.2 -23
0

0101000
+44 0 -30 0 *
Ed
 1.5e-07 1 1 0
1  15 0 -24.2 -23
2  38 3 0 -24.2 -23
2  39 9 0 -24.2 -23
2  40 4 5 -24.2 -23
0

0101000
+49 0 -28 0 *
Wi

0101100
-42 0 -17 0 +27 0 +16 0 *
Fa
0  1e-07 9 0

0101000
+15 0 *
Ed
 1.5e-07 1 1 0
1  16 0 -7.25 -6.05
2  41 7 0 -7.25 -6.05
2  42 6 0 -7.25 -6.05
2  43 8 8 -7.25 -6.05
0

0101000
+31 0 -46 0 *
Wi

0101100
-17 0 -43 0 -13 0 +29 0 *
Fa
0  1e-07 7 0

0101000
+12 0 *
Ed
 1.5e-07 1 1 0
1  17 0 -7.25 -6.05
2  44 3 0 -7.25 -6.05
2  45 6 0 -7.25 -6.05
2  46 4 5 -7.25 -6.05
0

0101000
+26 0 -48 0 *
Wi

0101100
+10 0 -24 0 -13 0 +45 0 *
Fa
0  1e-07 6 0

0101000
+9 0 *
Wi

0101100
+47 0 -10 0 -25 0 -16 0 *
Fa
0  1e-07 3 0

0101000
+7 0 *
Ed
 1e-07 1 1 0
1  18 0 0.300000000000001 1.5
3  47 48CN 2 0 0.300000000000001 1.5
0

0101000
+22 0 -52 0 *
Wi

0101100
+51 0 -5 0 -21 0 +5 0 *
Fa
0  1e-07 2 0

0101000
+4 0 *
Sh

0101100
+37 0 -32 0 -18 0 -14 0 +11 0 -8 0 -6 0 -3 0 *
So

0100000
+2 0 *

+1 0 