DBRep_DrawableShape

CASCADE Topology V3, (c) Open Cascade
Locations 10
1
              1              -0               0              -0 
              0               1               0               0 
             -0               0               1              -0 
2  1 -1 0
1
              1              -0               0              -0 
              0               1               0               0 
             -0               0               1              -0 
2  1 1 3 -1 0
2  3 -1 0
1
              1              -0               0              -0 
              0               1               0               0 
             -0               0               1              -0 
2  3 1 1 -1 0
2  3 1 6 -1 0
2  6 -1 0
2  6 1 3 -1 0
Curve2ds 148
2 0 0 1 0 -0 1 2.1200000000000001
1 0 1.8 1 0 
1 0 1.8999999999999999 1 0 
8 0.29999940000000003 1.8000006
1 1.6345947510009935 0.30000000000000004 0 -1 
8 0.29999940000000003 1.8000006
1 0.58831884735682272 0 0 1 
1 0.58831884735682272 0.099999999999999867 0 1 
2 0 0 1 0 -0 1 2.1200000000000001
1 0 0.30000000000000004 1 0 
1 0 0.39999999999999991 1 0 
1 6.2831853071795862 -0 0 1 
1 0 -0 0 1 
8 0.30000000000000004 1.8
1 6.2831853071795862 0.099999999999999867 0 1 
8 0.30000000000000004 1.8
1 0 0.099999999999999867 0 1 
1 0 1.5 1 0 
2 0 0 1 0 -0 1 3.2000000000000002
1 0 -1.5 1 0 
1 -1.1102230246251565e-16 2.7000000000000006 1 0 
1 -1.292797646815621 0.38881132235056276 0.28800838692634279 0.95762788653008957 
1 0 1.8999999999999999 1 0 
1 0 0 1 0 
1 0 -1.5 1 0 
1 1.292797646815621 -0.38881132235056276 0.28800838692634279 0.95762788653008957 
2 -5.5511151231257827e-17 1.3500000000000003 0.28800838692634279 -0.95762788653008957 0.95762788653008957 0.28800838692634279 2.1200000000000001
1 0 1.8999999999999999 1 0 
8 0.29999940000000003 1.8000006
1 1.6345947510009937 0.30000000000000004 0 -1 
8 0.29999940000000003 1.8000006
1 1.9689809071510864 0 0 1 
1 1.9689809071510864 0.099999999999999867 0 1 
2 -5.5511151231257827e-17 1.3500000000000003 0.28800838692634279 -0.95762788653008957 0.95762788653008957 0.28800838692634279 2.1200000000000001
1 0 0.39999999999999991 1 0 
1 0 0 1 0 
2 0 0 1 0 -0 1 3.2000000000000002
1 0 0 1 0 
1 -1.1102230246251565e-16 2.7000000000000006 1 0 
1 -1.292797646815621 0.38881132235056276 0.28800838692634279 0.95762788653008957 
1 0 0.39999999999999991 1 0 
1 0 0 1 0 
1 0 0 1 0 
1 1.292797646815621 -0.38881132235056276 0.28800838692634279 0.95762788653008957 
1 6.2831853071795862 -0 0 1 
1 0 -0 0 1 
8 -6.000000000172534e-07 1.5000005999999999
1 2.9012928152808022 0 0 -1 
8 -6.000000000172534e-07 1.5000005999999999
1 1.7141622483183885 0 0 1 
2 -5.5511151231257827e-17 1.3500000000000003 0.28800838692634279 -0.95762788653008957 0.95762788653008957 0.28800838692634279 3.2000000000000002
8 -6.000000000172534e-07 1.5000005999999999
1 2.9012928152808022 0 0 -1 
8 -6.000000000172534e-07 1.5000005999999999
1 0.84313750618952077 0 0 1 
2 -5.5511151231257827e-17 1.3500000000000003 0.28800838692634279 -0.95762788653008957 0.95762788653008957 0.28800838692634279 3.2000000000000002
8 0 1.5
1 5.0095681664458347 0 0 -1 
8 0 1.5
1 0.19861349801250316 0 0 -1 
1 -2.9976021664879229e-16 2.7000000000000002 1 0 
1 0 -1.5 1 0 
1 4.8193703421077725 2.6427976468156213 0.95762788653008957 0.28800838692634267 
1 0 0 0 1 
1 0 1.5 1 0 
1 5.5969929868088979 0.057202353184379495 -0.28800838692634267 0.95762788653008957 
1 5.208181664458337 0 0 1 
1 0 1.5 1 0 
1 0 0 0 1 
1 5.208181664458337 0 0 -1 
1 -2.9976021664879229e-16 2.7000000000000002 1 0 
1 0 0 1 0 
1 4.8193703421077725 2.6427976468156213 0.95762788653008957 0.28800838692634267 
1 0 0 0 1 
1 0 0 1 0 
1 5.5969929868088979 0.057202353184379495 -0.28800838692634267 0.95762788653008957 
1 5.208181664458337 0 0 1 
1 0 0 1 0 
8 0 1.5
1 9.7763865019874956 0 0 -1 
8 0 1.5
1 0.19861349801249997 0 0 -1 
1 -4.598688677649438 4.1427976468156205 0.95762788653008957 -0.28800838692634267 
1 -0.38881132235056182 0.057202353184378343 0.28800838692634267 0.95762788653008957 
8 0 1.5
1 1.3499999999999979 0 0 1 
8 0 1.5
1 1.3499999999999972 0 0 1 
1 -4.598688677649438 4.1427976468156205 0.95762788653008957 -0.28800838692634267 
1 -0.38881132235056182 0.057202353184378343 0.28800838692634267 0.95762788653008957 
1 0 0 1 0 
1 -4.4408920985006262e-16 2.7000000000000002 1 0 
1 9.5861886776494352 2.6427976468156222 0.95762788653008957 0.28800838692634267 
1 0 0 0 1 
1 0 0 1 0 
1 10.363811322350561 0.057202353184380425 -0.28800838692634267 0.95762788653008957 
1 9.9749999999999979 -2.2482016248659444e-16 0 1 
1 0 0 1 0 
1 0 0 1 0 
1 0 0 1 0 
8 -6.000000000172534e-07 1.5000005999999999
1 2.3068888491775348 0 0 -1 
8 -6.000000000172534e-07 1.5000005999999999
1 4.5690230588611982 0 0 1 
1 0 -1.5 1 0 
1 -4.4408920985006262e-16 2.7000000000000002 1 0 
1 9.5861886776494352 2.6427976468156222 0.95762788653008957 0.28800838692634267 
1 0 0 0 1 
1 0 1.5 1 0 
1 10.363811322350561 0.057202353184380425 -0.28800838692634267 0.95762788653008957 
1 9.9749999999999979 -2.2482016248659444e-16 0 1 
1 0 1.5 1 0 
1 0 0 1 0 
1 0 -1.5 1 0 
1 0 0 0 1 
1 0 0 0 -1 
1 -9.1635268457870804 5.5156813064058872 0.95762788653008957 -0.28800838692634267 
1 -0.38881132235056309 0.057202353184377636 0.28800838692634267 0.95762788653008957 
8 0 1.5
1 1.3500000000000045 0 0 1 
8 0 1.5
1 1.350000000000003 0 0 1 
1 0 0 0 1 
1 9.9749999999999979 0 0 -1 
1 0 0 1 0 
2 0 0 1 0 -0 1 3.2000000000000002
2 5.2081816644583361 1.3500000000000005 -0.28800838692634256 -0.95762788653008957 0.95762788653008957 -0.28800838692634256 3.2000000000000002
1 0 0 1 0 
1 0 0 1 0 
1 0 1.5 1 0 
2 0 0 1 0 -0 1 3.2000000000000002
1 6.2831853071795862 -0 0 1 
1 0 -0 0 1 
1 -0.38881132235056309 0.057202353184377636 0.28800838692634267 0.95762788653008957 
1 -9.1635268457870804 5.5156813064058872 0.95762788653008957 -0.28800838692634267 
2 5.2081816644583361 1.3500000000000005 -0.28800838692634256 -0.95762788653008957 0.95762788653008957 -0.28800838692634256 3.2000000000000002
1 0 0 1 0 
1 0 -1.5 1 0 
1 0 0 0 1 
1 0 0 0 -1 
1 0.20720235318437896 -5.3763113223505634 -0.28800838692634256 0.95762788653008957 
2 0 0 1 0 -0 1 2.1200000000000001
1 0 0.30000000000000004 1 0 
2 5.2081816644583361 1.3500000000000005 -0.28800838692634256 -0.95762788653008957 0.95762788653008957 -0.28800838692634256 2.1200000000000001
1 0 0.39999999999999991 1 0 
1 2.7927976468156208 -4.598688677649438 -0.28800838692634256 0.95762788653008957 
8 -6.000000000172534e-07 1.5000005999999999
1 2.3068888491775348 0 0 -1 
8 -6.000000000172534e-07 1.5000005999999999
1 5.4400478009900652 0 0 1 
1 2.7927976468156208 -4.598688677649438 -0.28800838692634256 0.95762788653008957 
2 0 0 1 0 -0 1 2.1200000000000001
1 0 1.8 1 0 
1 0 1.8999999999999999 1 0 
1 0 1.8999999999999999 1 0 
1 0.20720235318437896 -5.3763113223505634 -0.28800838692634256 0.95762788653008957 
1 0 0.39999999999999991 1 0 
1 0 0.39999999999999991 1 0 
2 5.2081816644583361 1.3500000000000005 -0.28800838692634256 -0.95762788653008957 0.95762788653008957 -0.28800838692634256 2.1200000000000001
1 0 1.8999999999999999 1 0 
8 0.29999940000000003 1.8000006
1 3.5735869134573424 0.30000000000000004 0 -1 
8 0.29999940000000003 1.8000006
1 5.6948664598227632 0 0 1 
1 5.6948664598227632 0.099999999999999867 0 1 
8 0.29999940000000003 1.8000006
1 3.5735869134573424 0.30000000000000004 0 -1 
8 0.29999940000000003 1.8000006
1 4.3142044000285003 0 0 1 
1 4.3142044000285003 0.099999999999999867 0 1 
1 6.2831853071795862 -0 0 1 
1 0 -0 0 1 
8 0.30000000000000004 1.8
1 6.2831853071795862 0.099999999999999867 0 1 
8 0.30000000000000004 1.8
1 0 0.099999999999999867 0 1 
Curves 48
2 0 0.75 0 0 1 0 0 -0 1 1 0 -0 2.1200000000000001
1 1.1765221943836965 -1.05 1.7635746443296845 0 1 0 
2 0 -0.75 0 0 1 0 0 -0 1 1 0 -0 2.1200000000000001
1 -5.1925024283847779e-16 -1.05 2.1200000000000001 0 1 0 
2 0 0.75 0 0 1 0 0 -0 1 1 0 -0 3.2000000000000002
1 0.38881132235056276 0.75 -1.292797646815621 0.95762788653008957 0 0.28800838692634279 
1 -0.38881132235056276 0.75 1.292797646815621 0.95762788653008957 0 0.28800838692634279 
1 1.9541448390848224 -1.05 -0.82202064930155816 0 1 0 
2 0 -0.75 0 0 1 0 0 -0 1 1 0 -0 3.2000000000000002
1 0.38881132235056276 -0.75 -1.292797646815621 0.95762788653008957 0 0.28800838692634279 
1 -0.38881132235056276 -0.75 1.292797646815621 0.95762788653008957 0 0.28800838692634279 
1 -7.8377395145430609e-16 -0.75 3.2000000000000002 0 1 0 
1 3.1671702292528505 -0.75 -0.45720098308560975 0 1 0 
1 2.3895475845517251 -0.75 2.1283943105456329 0 1 0 
1 5.186113498012503 -0.75 0.15000000000000002 0 1 0 
1 4.9874999999999998 0.75 0.14999999999999991 1 0 1.1102230246251565e-16 
1 4.9874999999999998 0.75 2.8500000000000001 1.1102230246251565e-16 0 -1 
1 4.598688677649438 0.75 2.7927976468156217 0.28800838692634279 0 -0.95762788653008957 
1 4.598688677649438 -0.75 2.7927976468156217 0 1 0 
1 4.9874999999999998 -0.75 0.14999999999999991 1 0 1.1102230246251565e-16 
1 4.9874999999999998 -0.75 2.8500000000000001 1.1102230246251565e-16 0 -1 
1 4.598688677649438 -0.75 2.7927976468156217 0.28800838692634279 0 -0.95762788653008957 
1 14.763886501987495 -0.75 0.15000000000000097 0 1 0 
1 4.9874999999999998 -0.75 1.5000000000000029 0 1 0 
1 14.573688677649436 -0.75 0.20720235318437896 0.95762788653008957 0 -0.28800838692634256 
1 15.351311322350561 -0.75 2.7927976468156208 -0.28800838692634256 0 -0.95762788653008957 
1 14.962499999999999 -0.75 2.8500000000000014 1.1102230246251565e-16 0 -1 
1 4.9874999999999998 -0.75 2.8500000000000001 1 0 1.1102230246251565e-16 
1 16.782829770747149 -0.75 -0.45720098308560964 0 1 0 
1 14.573688677649436 0.75 0.20720235318437896 0.95762788653008957 0 -0.28800838692634256 
1 15.351311322350561 0.75 2.7927976468156208 -0.28800838692634256 0 -0.95762788653008957 
1 14.962499999999999 0.75 2.8500000000000014 1.1102230246251565e-16 0 -1 
1 4.9874999999999998 0.75 2.8500000000000001 1 0 1.1102230246251565e-16 
1 4.9874999999999998 -0.75 2.8500000000000001 0 1 0 
1 14.962499999999999 -0.75 1.4999999999999969 -0 1 0 
1 14.962499999999999 -0.75 2.8500000000000014 0 1 0 
2 19.949999999999999 -0.75 0 0 1 0 0 -0 1 1 0 -0 3.2000000000000002
1 15.351311322350561 -0.75 2.7927976468156208 0.95762788653008957 0 -0.28800838692634256 
2 19.949999999999999 0.75 0 0 1 0 0 -0 1 1 0 -0 3.2000000000000002
1 19.949999999999999 -0.75 3.2000000000000002 0 1 0 
1 15.351311322350561 0.75 2.7927976468156208 0.95762788653008957 0 -0.28800838692634256 
1 15.351311322350561 -0.75 2.7927976468156208 0 1 0 
2 19.949999999999999 -0.75 0 0 1 0 0 -0 1 1 0 -0 2.1200000000000001
1 17.560452415448275 -0.75 2.1283943105456324 0 1 0 
2 19.949999999999999 0.75 0 0 1 0 0 -0 1 1 0 -0 2.1200000000000001
1 18.773477805616302 -1.05 1.763574644329684 0 1 0 
1 17.995855160915177 -1.05 -0.82202064930155783 0 1 0 
1 19.949999999999999 -1.05 2.1200000000000001 0 1 0 
Polygon3D 0
PolygonOnTriangulations 0
Surfaces 26
2 0 -1.05 0 0 1 0 0 -0 1 1 0 -0 2.1200000000000001
1 0 0.75 0 0 1 0 0 -0 1 1 0 -0 
2 0 -1.1499999999999999 0 0 1 0 0 -0 1 1 0 -0 2.1200000000000001
1 -0.38881132235056276 -0.75 1.292797646815621 0.28800838692634279 0 -0.95762788653008957 0.95762788653008957 0 0.28800838692634279 0 -1 0 
1 0 -0.75 0 0 1 0 0 -0 1 1 0 -0 
2 0 -0.75 0 0 1 0 0 -0 1 1 0 -0 3.2000000000000002
1 0.38881132235056276 -0.75 -1.292797646815621 0.28800838692634279 0 -0.95762788653008957 0.95762788653008957 0 0.28800838692634279 0 -1 0 
1 -0.38881132235056276 0.75 1.292797646815621 0 1 0 0.95762788653008957 0 0.28800838692634279 0.28800838692634279 0 -0.95762788653008957 
1 -0.38881132235056276 -0.75 1.292797646815621 0 1 0 0.95762788653008957 0 0.28800838692634279 0.28800838692634279 0 -0.95762788653008957 
1 4.9874999999999998 -0.75 0.14999999999999991 1.1102230246251565e-16 0 -1 1 0 1.1102230246251565e-16 0 -1 0 
1 4.9874999999999998 0.75 2.8500000000000001 0 1 0 1 0 1.1102230246251565e-16 1.1102230246251565e-16 0 -1 
1 4.9874999999999998 -0.75 2.8500000000000001 1 0 1.1102230246251565e-16 1.1102230246251565e-16 0 -1 0 1 0 
1 4.598688677649438 -0.75 2.7927976468156217 0.95762788653008957 0 0.28800838692634279 0.28800838692634279 0 -0.95762788653008957 0 1 0 
1 4.9874999999999998 -0.75 2.8500000000000001 0 1 0 1 0 1.1102230246251565e-16 1.1102230246251565e-16 0 -1 
1 14.573688677649436 -0.75 0.20720235318437896 -0.28800838692634256 0 -0.95762788653008957 0.95762788653008957 0 -0.28800838692634256 0 -1 0 
1 15.351311322350561 -0.75 2.7927976468156208 0 1 0 0.95762788653008957 0 -0.28800838692634256 -0.28800838692634256 0 -0.95762788653008957 
1 15.351311322350561 -0.75 2.7927976468156208 0.95762788653008957 0 -0.28800838692634256 -0.28800838692634256 0 -0.95762788653008957 0 1 0 
1 14.962499999999999 -0.75 2.8500000000000014 1 0 1.1102230246251565e-16 1.1102230246251565e-16 0 -1 0 1 0 
1 4.9874999999999998 -0.75 2.8500000000000001 1.1102230246251565e-16 0 -1 1 0 1.1102230246251565e-16 0 -1 0 
2 19.949999999999999 -0.75 0 0 1 0 0 -0 1 1 0 -0 3.2000000000000002
1 15.351311322350561 0.75 2.7927976468156208 0 1 0 0.95762788653008957 0 -0.28800838692634256 -0.28800838692634256 0 -0.95762788653008957 
1 19.949999999999999 -0.75 0 0 1 0 0 -0 1 1 0 -0 
1 15.351311322350561 -0.75 2.7927976468156208 -0.28800838692634256 0 -0.95762788653008957 0.95762788653008957 0 -0.28800838692634256 0 -1 0 
1 19.949999999999999 0.75 0 0 1 0 0 -0 1 1 0 -0 
2 19.949999999999999 -1.05 0 0 1 0 0 -0 1 1 0 -0 2.1200000000000001
2 19.949999999999999 -1.1499999999999999 0 0 1 0 0 -0 1 1 0 -0 2.1200000000000001
Triangulations 0

TShapes 215
Ve
1.0000000051925e-07
-5.19250242838478e-16 0.75 2.12
0 0

0101101
*
Ve
1.00000056546439e-07
1.17652219438364 0.75 1.7635746443297
0 0

0101101
*
Ed
 1.00000000111022e-07 1 1 0
1  1 0 0 0.588318847356798
2  1 2 0 0 0.588318847356798
2  2 1 0 0 0.588318847356798
2  3 3 0 0 0.588318847356798
0

0101000
+215 0 -214 0 *
Ve
1.00000056546439e-07
1.17652219438364 -0.75 1.7635746443297
0 0

0101101
*
Ed
 1.00000000314018e-07 1 1 0
1  2 0 0.3 1.8
2  4 4 1 0.3 1.8
2  5 1 0 0.3 1.8
2  6 3 0 0.3 1.8
0

0101000
+212 0 -214 0 *
Ve
1.0000000051925e-07
-5.19250242838478e-16 -0.75 2.12
0 0

0101101
*
Ed
 1.00000000111022e-07 1 1 0
1  3 0 0 0.588318847356798
2  7 5 0 0 0.588318847356798
2  8 1 0 0 0.588318847356798
2  9 3 0 0 0.588318847356798
0

0101000
+210 0 -212 0 *
Ed
 1e-07 1 1 0
1  4 0 0.3 1.8
3  10 11CN 1 0 0.3 1.8
3  12 13C0 3 0 0.3 1.8
0

0101000
+210 0 -215 0 *
Wi

0101100
-213 0 +211 0 +209 0 -208 0 *
Fa
0  1e-07 1 0

0101000
+207 0 *
Ve
1.00000063355517e-07
3.16717022925282 0.75 -0.457200983085667
0 0

0101101
*
Ve
1e-07
-7.83773951454306e-16 0.75 3.2
0 0

0101101
*
Ed
 1e-07 1 1 0
1  5 0 1.71416224831841 6.28318530717959
2  14 6 0 1.71416224831841 6.28318530717959
2  15 2 0 1.71416224831841 6.28318530717959
0

0101000
+205 0 -204 0 *
Ve
1.00000011030947e-07
1.95414483908483 0.75 -0.82202064930155
0 0

0101101
*
Ed
 1e-07 1 1 0
1  6 0 1.634594751001 2.90129281528076
2  16 7 0 1.634594751001 2.90129281528076
2  17 8 0 1.634594751001 2.90129281528076
2  18 2 2 1.634594751001 2.90129281528076
0

0101000
+202 2 -205 2 *
Ed
 1e-07 1 1 0
1  1 0 1.96898090715108 6.28318530717959
2  1 2 0 1.96898090715108 6.28318530717959
2  2 1 0 1.96898090715108 6.28318530717959
2  19 3 0 1.96898090715108 6.28318530717959
0

0101000
+202 0 -215 0 *
Ve
1.00000043350477e-07
2.38954758455169 0.75 2.12839431054565
0 0

0101101
*
Ed
 1e-07 1 1 0
1  7 0 1.63459475100095 2.90129281528077
2  20 8 0 1.63459475100095 2.90129281528077
2  21 4 0 1.63459475100095 2.90129281528077
2  22 2 2 1.63459475100095 2.90129281528077
0

0101000
+214 2 -199 2 *
Ed
 1e-07 1 1 0
1  5 0 0 0.843137506189508
2  14 6 0 0 0.843137506189508
2  15 2 0 0 0.843137506189508
0

0101000
+204 0 -199 0 *
Wi

0101100
+203 0 +201 1 -200 0 -213 0 -198 1 +197 0 *
Fa
0  1e-07 2 0

0101000
+196 0 *
Ed
 1e-07 1 1 0
1  1 0 0.588318847356798 1.96898090715108
2  1 2 0 0.588318847356798 1.96898090715108
2  2 1 0 0.588318847356798 1.96898090715108
2  23 8 1 0.588318847356798 1.96898090715108
2  24 3 0 0.588318847356798 1.96898090715108
0

0101000
+214 0 -202 0 *
Ve
1.00000011030947e-07
1.95414483908483 -0.75 -0.82202064930155
0 0

0101101
*
Ed
 1.00000000222045e-07 1 1 0
1  8 0 0.3 1.8
2  25 7 1 0.3 1.8
2  26 1 0 0.3 1.8
2  27 3 0 0.3 1.8
0

0101000
+193 0 -202 0 *
Ed
 1e-07 1 1 0
1  3 0 0.588318847356798 1.96898090715108
2  7 5 0 0.588318847356798 1.96898090715108
2  8 1 0 0.588318847356798 1.96898090715108
2  28 9 1 0.588318847356798 1.96898090715108
2  29 3 0 0.588318847356798 1.96898090715108
0

0101000
+212 0 -193 0 *
Wi

0101100
-194 0 +192 0 +191 0 -211 0 *
Fa
0  1e-07 3 0

0101000
+190 0 *
Ve
1.00000063355517e-07
3.16717022925282 -0.75 -0.457200983085667
0 0

0101101
*
Ve
1e-07
-7.83773951454306e-16 -0.75 3.2
0 0

0101101
*
Ed
 1e-07 1 1 0
1  9 0 1.71416224831841 6.28318530717959
2  30 6 0 1.71416224831841 6.28318530717959
2  31 5 0 1.71416224831841 6.28318530717959
0

0101000
+188 0 -187 0 *
Ed
 1e-07 1 1 0
1  10 0 1.634594751001 2.90129281528076
2  32 7 0 1.634594751001 2.90129281528076
2  33 9 0 1.634594751001 2.90129281528076
2  34 5 2 1.634594751001 2.90129281528076
0

0101000
+193 2 -188 2 *
Ed
 1e-07 1 1 0
1  3 0 1.96898090715108 6.28318530717959
2  7 5 0 1.96898090715108 6.28318530717959
2  8 1 0 1.96898090715108 6.28318530717959
2  35 3 0 1.96898090715108 6.28318530717959
0

0101000
+193 0 -210 0 *
Ve
1.00000043350477e-07
2.38954758455169 -0.75 2.12839431054565
0 0

0101101
*
Ed
 1e-07 1 1 0
1  11 0 1.63459475100095 2.90129281528077
2  36 9 0 1.63459475100095 2.90129281528077
2  37 4 0 1.63459475100095 2.90129281528077
2  38 5 2 1.63459475100095 2.90129281528077
0

0101000
+212 2 -183 2 *
Ed
 1e-07 1 1 0
1  9 0 0 0.843137506189508
2  30 6 0 0 0.843137506189508
2  31 5 0 0 0.843137506189508
0

0101000
+187 0 -183 0 *
Wi

0101100
+186 0 +185 1 -184 0 -209 0 -182 1 +181 0 *
Fa
0  1e-07 5 0

0101000
+180 0 *
Wi

0101100
+208 0 +184 0 -192 0 -200 0 *
Fa
0  1e-07 1 0

0101000
+178 0 *
Ed
 1e-07 1 1 0
1  12 0 0 1.5
3  39 40CN 6 0 0 1.5
0

0101000
-204 0 +187 0 *
Ed
 1e-07 1 1 0
1  13 0 0 1.5
2  41 7 1 0 1.5
2  42 6 0 0 1.5
0

0101000
+188 0 -205 0 *
Wi

0101100
+176 0 +186 0 -175 0 -203 0 *
Fa
0  1e-07 6 0

0101000
+174 0 *
Ed
 1e-07 1 1 0
1  5 0 0.843137506189508 1.71416224831841
2  14 6 0 0.843137506189508 1.71416224831841
2  15 2 0 0.843137506189508 1.71416224831841
2  43 8 1 0.843137506189508 1.71416224831841
0

0101000
+199 0 -205 0 *
Wi

0101100
-201 1 +172 0 +198 1 -194 0 *
Fa
0  1e-07 8 1

0101000
+171 0 *
Ed
 1e-07 1 1 0
1  14 0 0 1.5
2  44 4 1 0 1.5
2  45 6 0 0 1.5
0

0101000
+183 0 -199 0 *
Wi

0101100
-197 0 +169 0 +181 0 -176 0 *
Fa
0  1e-07 6 0

0101000
+168 0 *
Ed
 1e-07 1 1 0
1  9 0 0.843137506189508 1.71416224831841
2  30 6 0 0.843137506189508 1.71416224831841
2  31 5 0 0.843137506189508 1.71416224831841
2  46 9 1 0.843137506189508 1.71416224831841
0

0101000
+183 0 -188 0 *
Wi

0101100
-185 1 +166 0 +182 1 -191 0 *
Fa
0  1e-07 9 1

0101000
+165 0 *
Ve
1.50000010787461e-07
5.18611349801251 -0.75 0.150000000000002
0 0

0101101
*
Ed
 1e-07 1 1 0
1  10 0 2.90129281528076 5.00956816644585
2  32 7 0 2.90129281528076 5.00956816644585
2  33 9 0 2.90129281528076 5.00956816644585
0

0101000
+188 2 -163 2 *
Ve
1.50000010787461e-07
5.18611349801251 0.75 0.150000000000002
0 0

0101101
*
Ed
 1.5e-07 1 1 0
1  15 0 0 1.5
2  47 7 1 0 1.5
2  48 10 3 0 1.5
0

0101000
+163 0 -161 0 *
Ed
 1e-07 1 1 0
1  6 0 2.90129281528076 5.00956816644585
2  16 7 0 2.90129281528076 5.00956816644585
2  17 8 0 2.90129281528076 5.00956816644585
0

0101000
+205 2 -161 2 *
Wi

0101100
-162 1 -160 0 +159 1 +175 0 *
Fa
0  1e-07 7 1

0101000
+158 0 *
Ve
1e-07
4.9875 0.75 0.15
0 0

0101101
*
Ed
 1e-07 1 1 0
1  16 0 0 0.198613498012514
2  49 11 0 0 0.198613498012514
2  50 10 0 0 0.198613498012514
2  51 8 4 0 0.198613498012514
0

0101000
+156 5 -161 5 *
Ve
1.50000000666134e-07
4.9875 0.75 1.5
0 0

0101101
*
Ed
 1e-07 1 1 0
1  17 0 1.35 2.7
2  52 11 0 1.35 2.7
2  53 12 0 1.35 2.7
2  54 8 4 1.35 2.7
0

0101000
+154 5 -156 5 *
Ve
1e-07
4.59868867764944 0.75 2.79279764681562
0 0

0101101
*
Ed
 1e-07 1 1 0
1  18 0 0 1.35
2  55 8 0 0 1.35
2  56 13 0 0 1.35
0

0101000
+152 2 -154 2 *
Ed
 1e-07 1 1 0
1  7 0 2.90129281528077 5.20818166445834
2  20 8 0 2.90129281528077 5.20818166445834
2  21 4 0 2.90129281528077 5.20818166445834
0

0101000
+199 2 -152 2 *
Wi

0101100
-159 1 +155 3 +153 3 +151 1 +150 1 -172 0 *
Fa
0  1e-07 8 1

0101000
+149 0 *
Ve
1e-07
4.59868867764944 -0.75 2.79279764681562
0 0

0101101
*
Ed
 1e-07 1 1 0
1  11 0 2.90129281528077 5.20818166445834
2  36 9 0 2.90129281528077 5.20818166445834
2  37 4 0 2.90129281528077 5.20818166445834
0

0101000
+183 2 -147 2 *
Ed
 1e-07 1 1 0
1  19 0 0 1.5
2  57 13 0 0 1.5
2  58 4 0 0 1.5
0

0101000
-152 2 +147 2 *
Wi

0101100
-146 1 -145 1 +150 1 +169 0 *
Fa
0  1e-07 4 1

0101000
+144 0 *
Ve
1e-07
4.9875 -0.75 0.15
0 0

0101101
*
Ed
 1e-07 1 1 0
1  20 0 0 0.198613498012514
2  59 14 0 0 0.198613498012514
2  60 10 0 0 0.198613498012514
2  61 9 4 0 0.198613498012514
0

0101000
+142 5 -163 5 *
Ve
1.50000000666134e-07
4.9875 -0.75 1.5
0 0

0101101
*
Ed
 1e-07 1 1 0
1  21 0 1.35 2.7
2  62 14 0 1.35 2.7
2  63 12 0 1.35 2.7
2  64 9 4 1.35 2.7
0

0101000
+140 5 -142 5 *
Ed
 1e-07 1 1 0
1  22 0 0 1.35
2  65 9 0 0 1.35
2  66 13 0 0 1.35
0

0101000
+147 2 -140 2 *
Wi

0101100
-162 1 +141 3 +139 3 +138 1 +146 1 -166 0 *
Fa
0  1e-07 9 1

0101000
+137 0 *
Ve
1.50000001777224e-07
14.7638865019875 -0.75 0.150000000000001
0 0

0101101
*
Ed
 1e-07 1 1 0
1  20 0 0.198613498012514 9.77638650198749
2  59 14 0 0.198613498012514 9.77638650198749
2  60 10 0 0.198613498012514 9.77638650198749
0

0101000
+163 5 -135 5 *
Ve
1.50000001777224e-07
14.7638865019875 0.75 0.150000000000001
0 0

0101101
*
Ed
 1.5e-07 1 1 0
1  23 0 0 1.5
2  67 10 3 0 1.5
2  68 15 6 0 1.5
0

0101000
+135 0 -133 0 *
Ed
 1e-07 1 1 0
1  16 0 0.198613498012514 9.77638650198749
2  49 11 0 0.198613498012514 9.77638650198749
2  50 10 0 0.198613498012514 9.77638650198749
0

0101000
+161 5 -133 5 *
Wi

0101100
-134 3 -132 0 +131 3 +160 0 *
Fa
0  1e-07 10 3

0101000
+130 0 *
Ve
1e-07
5.37631132235056 0.75 0.207202353184379
0 0

0101101
*
Ed
 1e-07 1 1 0
1  6 0 5.00956816644585 5.20818166445834
2  16 7 0 5.00956816644585 5.20818166445834
2  17 8 0 5.00956816644585 5.20818166445834
2  69 11 7 5.00956816644585 5.20818166445834
0

0101000
+161 2 -128 2 *
Ed
 1e-07 1 1 0
1  18 0 1.35 2.7
2  55 8 0 1.35 2.7
2  56 13 0 1.35 2.7
2  70 11 7 1.35 2.7
0

0101000
+154 2 -128 2 *
Wi

0101100
-127 1 +126 1 -153 3 -155 3 *
Fa
0  1e-07 8 1

0101000
+125 0 *
Ed
 1.5e-07 1 1 0
1  24 0 0 1.5
2  71 13 1 0 1.5
2  72 12 3 0 1.5
0

0101000
+140 0 -154 0 *
Wi

0101100
-151 1 +123 0 +138 1 -145 1 *
Fa
0  1e-07 13 1

0101000
+122 0 *
Ve
1e-07
5.37631132235056 -0.75 0.207202353184379
0 0

0101101
*
Ed
 1e-07 1 1 0
1  10 0 5.00956816644585 5.20818166445834
2  32 7 0 5.00956816644585 5.20818166445834
2  33 9 0 5.00956816644585 5.20818166445834
2  73 14 7 5.00956816644585 5.20818166445834
0

0101000
+163 2 -120 2 *
Ed
 1e-07 1 1 0
1  22 0 1.35 2.7
2  65 9 0 1.35 2.7
2  66 13 0 1.35 2.7
2  74 14 7 1.35 2.7
0

0101000
+140 2 -120 2 *
Wi

0101100
-119 1 +118 1 -139 3 -141 3 *
Fa
0  1e-07 9 1

0101000
+117 0 *
Ve
1e-07
4.9875 -0.75 2.85
0 0

0101101
*
Ed
 1e-07 1 1 0
1  21 0 0 1.35
2  62 14 0 0 1.35
2  63 12 0 0 1.35
0

0101000
+115 5 -140 5 *
Ve
1e-07
14.5736886776494 -0.75 0.207202353184379
0 0

0101101
*
Ed
 1e-07 1 1 0
1  25 0 0 0.198613498012498
2  75 15 0 0 0.198613498012498
2  76 16 0 0 0.198613498012498
2  77 14 8 0 0.198613498012498
0

0101000
+113 9 -135 9 *
Ve
1.50000002664535e-07
14.9625 -0.75 1.5
0 0

0101101
*
Ed
 1e-07 1 1 0
1  26 0 1.35 2.7
2  78 16 0 1.35 2.7
2  79 17 0 1.35 2.7
2  80 14 8 1.35 2.7
0

0101000
+111 9 -113 9 *
Ve
1e-07
14.9625 -0.75 2.85
0 0

0101101
*
Ed
 1e-07 1 1 0
1  27 0 0 1.35
2  81 14 0 0 1.35
2  82 18 0 0 1.35
0

0101000
+109 5 -111 5 *
Ed
 1e-07 1 1 0
1  28 0 0 9.975
2  83 14 0 0 9.975
2  84 19 0 0 9.975
0

0101000
-109 5 +115 5 *
Wi

0101100
-114 3 -118 1 +119 1 -134 3 +112 6 +110 6 +108 3 +107 3 *
Fa
0  1e-07 14 3

0101000
+106 0 *
Ve
1.00000064647496e-07
16.7828297707472 -0.75 -0.457200983085668
0 0

0101101
*
Ed
 1e-07 1 1 0
1  25 0 0.198613498012498 2.30688884917758
2  75 15 0 0.198613498012498 2.30688884917758
2  76 16 0 0.198613498012498 2.30688884917758
0

0101000
+135 9 -104 9 *
Ve
1.00000064647496e-07
16.7828297707472 0.75 -0.457200983085668
0 0

0101101
*
Ed
 1e-07 1 1 0
1  29 0 0 1.5
2  85 15 6 0 1.5
2  86 20 0 0 1.5
0

0101000
+104 0 -102 0 *
Ed
 1e-07 1 1 0
1  30 0 0.198613498012498 2.30688884917758
2  87 15 0 0.198613498012498 2.30688884917758
2  88 21 0 0.198613498012498 2.30688884917758
0

0101000
+133 9 -102 9 *
Wi

0101100
-103 6 -101 0 +100 6 +132 0 *
Fa
0  1e-07 15 6

0101000
+99 0 *
Ve
1e-07
4.9875 0.75 2.85
0 0

0101101
*
Ed
 1e-07 1 1 0
1  17 0 0 1.35
2  52 11 0 0 1.35
2  53 12 0 0 1.35
0

0101000
+97 5 -154 5 *
Ve
1e-07
14.5736886776494 0.75 0.207202353184379
0 0

0101101
*
Ed
 1e-07 1 1 0
1  30 0 0 0.198613498012498
2  87 15 0 0 0.198613498012498
2  88 21 0 0 0.198613498012498
2  89 11 8 0 0.198613498012498
0

0101000
+95 9 -133 9 *
Ve
1.50000002664535e-07
14.9625 0.75 1.5
0 0

0101101
*
Ed
 1e-07 1 1 0
1  31 0 1.35 2.7
2  90 21 0 1.35 2.7
2  91 17 0 1.35 2.7
2  92 11 8 1.35 2.7
0

0101000
+93 9 -95 9 *
Ve
1e-07
14.9625 0.75 2.85
0 0

0101101
*
Ed
 1e-07 1 1 0
1  32 0 0 1.35
2  93 11 0 0 1.35
2  94 18 0 0 1.35
0

0101000
+91 5 -93 5 *
Ed
 1e-07 1 1 0
1  33 0 0 9.975
2  95 11 0 0 9.975
2  96 19 0 0 9.975
0

0101000
-91 5 +97 5 *
Wi

0101100
-96 3 -126 1 +127 1 -131 3 +94 6 +92 6 +90 3 +89 3 *
Fa
0  1e-07 11 3

0101000
+88 0 *
Ed
 1e-07 1 1 0
1  34 0 0 1.5
2  97 12 0 0 1.5
2  98 19 0 0 1.5
0

0101000
-97 5 +115 5 *
Wi

0101100
-96 3 +123 0 +114 3 -86 3 *
Fa
0  1e-07 12 3

0101000
+85 0 *
Ve
1e-07
14.9625 -0.75 0.150000000000001
0 0

0101101
*
Ed
 1e-07 1 1 0
1  20 0 9.77638650198749 9.975
2  59 14 0 9.77638650198749 9.975
2  60 10 0 9.77638650198749 9.975
2  99 16 10 9.77638650198749 9.975
0

0101000
+135 5 -83 5 *
Ed
 1e-07 1 1 0
1  27 0 1.35 2.7
2  81 14 0 1.35 2.7
2  82 18 0 1.35 2.7
2  100 16 10 1.35 2.7
0

0101000
+111 5 -83 5 *
Wi

0101100
-110 6 -112 6 -82 3 +81 3 *
Fa
0  1e-07 14 3

0101000
+80 0 *
Ed
 1.5e-07 1 1 0
1  35 0 0 1.5
2  101 18 3 0 1.5
2  102 17 6 0 1.5
0

0101000
+111 0 -93 0 *
Ed
 1e-07 1 1 0
1  36 0 0 1.5
2  103 18 0 0 1.5
2  104 19 0 0 1.5
0

0101000
-91 5 +109 5 *
Wi

0101100
-90 3 +78 0 +108 3 -77 3 *
Fa
0  1e-07 18 3

0101000
+76 0 *
Wi

0101100
-107 0 -77 0 +89 0 +86 0 *
Fa
0  1e-07 19 0

0101000
+74 0 *
Ve
1e-07
15.3513113223506 -0.75 2.79279764681562
0 0

0101101
*
Ed
 1e-07 1 1 0
1  26 0 0 1.35
2  78 16 0 0 1.35
2  79 17 0 0 1.35
0

0101000
+72 9 -111 9 *
Ve
1.00000041661628e-07
17.5604524154483 -0.75 2.12839431054565
0 0

0101101
*
Ed
 1e-07 1 1 0
1  37 0 4.56902305886118 5.44004780099008
2  105 20 0 4.56902305886118 5.44004780099008
2  106 22 0 4.56902305886118 5.44004780099008
2  107 16 6 4.56902305886118 5.44004780099008
0

0101000
+104 0 -70 0 *
Ed
 1e-07 1 1 0
1  38 0 0 2.30688884917756
2  108 16 0 0 2.30688884917756
2  109 23 0 0 2.30688884917756
0

0101000
+72 9 -70 9 *
Wi

0101100
-71 6 -81 3 +82 3 -103 6 -69 0 +68 6 *
Fa
0  1e-07 16 6

0101000
+67 0 *
Ve
1e-07
19.95 0.75 3.2
0 0

0101101
*
Ed
 1e-07 1 1 0
1  39 0 0 4.56902305886118
2  110 20 0 0 4.56902305886118
2  111 24 0 0 4.56902305886118
0

0101000
+65 0 -102 0 *
Ve
1e-07
19.95 -0.75 3.2
0 0

0101101
*
Ed
 1e-07 1 1 0
1  37 0 0 4.56902305886118
2  105 20 0 0 4.56902305886118
2  106 22 0 0 4.56902305886118
0

0101000
+63 0 -104 0 *
Ed
 1e-07 1 1 0
1  40 0 0 1.5
3  112 113CN 20 0 0 1.5
0

0101000
-65 0 +63 0 *
Wi

0101100
-64 0 +101 0 +62 0 -61 0 *
Fa
0  1e-07 20 0

0101000
+60 0 *
Ve
1e-07
15.3513113223506 0.75 2.79279764681562
0 0

0101101
*
Ed
 1e-07 1 1 0
1  31 0 0 1.35
2  90 21 0 0 1.35
2  91 17 0 0 1.35
0

0101000
+58 9 -93 9 *
Ve
1e-07
14.9625 0.75 0.150000000000001
0 0

0101101
*
Ed
 1e-07 1 1 0
1  32 0 1.35 2.7
2  93 11 0 1.35 2.7
2  94 18 0 1.35 2.7
2  114 21 10 1.35 2.7
0

0101000
+93 5 -56 5 *
Ed
 1e-07 1 1 0
1  16 0 9.77638650198749 9.975
2  49 11 0 9.77638650198749 9.975
2  50 10 0 9.77638650198749 9.975
2  115 21 10 9.77638650198749 9.975
0

0101000
+133 5 -56 5 *
Ve
1.00000041661628e-07
17.5604524154483 0.75 2.12839431054565
0 0

0101101
*
Ed
 1e-07 1 1 0
1  39 0 4.56902305886118 5.44004780099008
2  110 20 0 4.56902305886118 5.44004780099008
2  111 24 0 4.56902305886118 5.44004780099008
2  116 21 6 4.56902305886118 5.44004780099008
0

0101000
+102 0 -53 0 *
Ed
 1e-07 1 1 0
1  41 0 0 2.30688884917756
2  117 21 0 0 2.30688884917756
2  118 23 0 0 2.30688884917756
0

0101000
+58 9 -53 9 *
Wi

0101100
-57 6 -55 3 +54 3 -100 6 -52 0 +51 6 *
Fa
0  1e-07 21 6

0101000
+50 0 *
Wi

0101100
-92 6 -94 6 -54 3 +55 3 *
Fa
0  1e-07 11 3

0101000
+48 0 *
Ed
 1e-07 1 1 0
1  42 0 0 1.5
2  119 17 0 0 1.5
2  120 23 0 0 1.5
0

0101000
-58 9 +72 9 *
Wi

0101100
-57 6 +78 0 +71 6 -46 6 *
Fa
0  1e-07 17 6

0101000
+45 0 *
Ve
1.00000009441466e-07
17.9958551609152 -0.75 -0.822020649301552
0 0

0101101
*
Ed
 1e-07 1 1 0
1  25 0 2.30688884917758 3.57358691345733
2  75 15 0 2.30688884917758 3.57358691345733
2  76 16 0 2.30688884917758 3.57358691345733
2  121 22 9 2.30688884917758 3.57358691345733
0

0101000
+104 9 -43 9 *
Ve
1.00000025530302e-07
18.7734778056163 -0.75 1.76357464432968
0 0

0101101
*
Ed
 1.00000001332268e-07 1 1 0
1  43 0 4.3142044000285 5.69486645982275
2  122 22 0 4.3142044000285 5.69486645982275
2  123 25 0 4.3142044000285 5.69486645982275
2  124 16 6 4.3142044000285 5.69486645982275
2  125 26 0 4.3142044000285 5.69486645982275
0

0101000
+43 0 -41 0 *
Ed
 1e-07 1 1 0
1  38 0 2.30688884917756 3.57358691345732
2  108 16 0 2.30688884917756 3.57358691345732
2  109 23 0 2.30688884917756 3.57358691345732
2  126 22 9 2.30688884917756 3.57358691345732
0

0101000
+70 9 -41 9 *
Wi

0101100
+69 0 -42 6 -40 0 +39 6 *
Fa
0  1e-07 16 6

0101000
+38 0 *
Ed
 1e-07 1 1 0
1  44 0 0 1.5
2  127 23 6 0 1.5
2  128 20 0 0 1.5
0

0101000
+70 0 -53 0 *
Wi

0101100
-68 6 -36 0 +51 6 +46 6 *
Fa
0  1e-07 23 6

0101000
+35 0 *
Ed
 1e-07 1 1 0
1  39 0 5.44004780099008 6.28318530717959
2  110 20 0 5.44004780099008 6.28318530717959
2  111 24 0 5.44004780099008 6.28318530717959
0

0101000
+53 0 -65 0 *
Ve
1.00000025530302e-07
18.7734778056163 0.75 1.76357464432968
0 0

0101101
*
Ed
 1e-07 1 1 0
1  41 0 2.30688884917756 3.57358691345732
2  117 21 0 2.30688884917756 3.57358691345732
2  118 23 0 2.30688884917756 3.57358691345732
2  129 24 9 2.30688884917756 3.57358691345732
0

0101000
+53 9 -32 9 *
Ve
1.00000001110223e-07
19.95 0.75 2.12
0 0

0101101
*
Ed
 1.00000000888178e-07 1 1 0
1  45 0 5.69486645982275 6.28318530717959
2  130 24 0 5.69486645982275 6.28318530717959
2  131 25 0 5.69486645982275 6.28318530717959
2  132 26 0 5.69486645982275 6.28318530717959
0

0101000
+32 0 -30 0 *
Ve
1.00000009441466e-07
17.9958551609152 0.75 -0.822020649301552
0 0

0101101
*
Ed
 1.00000001110223e-07 1 1 0
1  45 0 0 4.3142044000285
2  130 24 0 0 4.3142044000285
2  131 25 0 0 4.3142044000285
2  133 26 0 0 4.3142044000285
0

0101000
+30 0 -28 0 *
Ed
 1e-07 1 1 0
1  30 0 2.30688884917758 3.57358691345733
2  87 15 0 2.30688884917758 3.57358691345733
2  88 21 0 2.30688884917758 3.57358691345733
2  134 24 9 2.30688884917758 3.57358691345733
0

0101000
+102 9 -28 9 *
Wi

0101100
+33 0 -31 6 -29 0 -27 0 +26 6 +64 0 *
Fa
0  1e-07 24 0

0101000
+25 0 *
Ed
 1e-07 1 1 0
1  37 0 5.44004780099008 6.28318530717959
2  105 20 0 5.44004780099008 6.28318530717959
2  106 22 0 5.44004780099008 6.28318530717959
0

0101000
+70 0 -63 0 *
Ve
1.00000001110223e-07
19.95 -0.75 2.12
0 0

0101101
*
Ed
 1.00000000888178e-07 1 1 0
1  43 0 5.69486645982275 6.28318530717959
2  122 22 0 5.69486645982275 6.28318530717959
2  123 25 0 5.69486645982275 6.28318530717959
2  135 26 0 5.69486645982275 6.28318530717959
0

0101000
+41 0 -22 0 *
Ed
 1.00000001110223e-07 1 1 0
1  43 0 0 4.3142044000285
2  122 22 0 0 4.3142044000285
2  123 25 0 0 4.3142044000285
2  136 26 0 0 4.3142044000285
0

0101000
+22 0 -43 0 *
Wi

0101100
+23 0 -39 6 -21 0 -20 0 +42 6 +62 0 *
Fa
0  1e-07 22 0

0101000
+19 0 *
Wi

0101100
+61 0 +23 0 -36 0 -33 0 *
Fa
0  1e-07 20 0

0101000
+17 0 *
Ed
 1.00000001332268e-07 1 1 0
1  45 0 4.3142044000285 5.69486645982275
2  130 24 0 4.3142044000285 5.69486645982275
2  131 25 0 4.3142044000285 5.69486645982275
2  137 21 6 4.3142044000285 5.69486645982275
2  138 26 0 4.3142044000285 5.69486645982275
0

0101000
+28 0 -32 0 *
Wi

0101100
+52 0 -26 6 -15 0 +31 6 *
Fa
0  1e-07 21 6

0101000
+14 0 *
Ed
 1.00000000444089e-07 1 1 0
1  46 0 0.3 1.8
2  139 23 6 0.3 1.8
2  140 25 0 0.3 1.8
2  141 26 0 0.3 1.8
0

0101000
+41 0 -32 0 *
Ed
 1e-07 1 1 0
1  47 0 0.3 1.8
2  142 15 6 0.3 1.8
2  143 25 0 0.3 1.8
2  144 26 0 0.3 1.8
0

0101000
+43 0 -28 0 *
Wi

0101100
+12 0 +40 0 -11 0 -15 0 *
Fa
0  1e-07 26 0

0101000
+10 0 *
Ed
 1e-07 1 1 0
1  48 0 0.3 1.8
3  145 146CN 25 0 0.3 1.8
3  147 148C0 26 0 0.3 1.8
0

0101000
+22 0 -30 0 *
Wi

0101100
+8 0 +21 0 -12 0 -29 0 *
Fa
0  1e-07 25 0

0101000
+7 0 *
Wi

0101100
-27 0 +11 0 +20 0 -8 0 *
Fa
0  1e-07 25 0

0101000
+5 0 *
Sh

0101100
-206 0 +195 0 -189 0 -179 0 -177 0 +173 0 +170 0 +167 0 -164 0 +157 0 
+148 0 -143 0 -136 0 +129 0 +124 0 +121 0 -116 0 -105 0 +98 0 +87 0 
-84 0 -79 0 +75 0 -73 3 -66 0 +59 0 +49 0 +47 0 -44 0 -37 0 
-34 0 +24 0 -18 0 +16 0 +13 0 -9 0 -6 0 -4 0 *
So

0100000
+3 0 *
Co

0100000
+2 0 *

+1 0 