DBRep_DrawableShape

CASCADE Topology V3, (c) Open Cascade
Locations 0
Curve2ds 24
1 6.2831853071795862 -0 0 1 
1 0 -0 0 1 
1 0 0 1 0 
2 0 0 1 0 -0 1 1
7 0 0  6 12 3  2.2566715839894438 -6.0000000000000008e-07  2.2634162340224271 0.0044106767563718485  2.2701182332959422 0.008894241804851084  2.2767762900425783 0.013450017025752476  2.2833891213024486 0.018077852584969835  2.2899554529231838 0.02277752693397601  2.3458361557322314 0.063679021814070369  2.3923646856848508 0.10384258419348999  2.4356218559177845 0.14794931453039381  2.4751969169948285 0.19572475499749017  2.5107102474211458 0.24666142248163017  2.541905852540141 0.30000060000000001 
 0 7 0.11665147911669367 5 1 7
7 0 0  6 12 3  3.9109207233862335 1.4166494150651177  3.9055810673365117 1.4114299664745873  3.9001870403922854 1.4062780977159026  3.8947397313916565 1.4011944149965121  3.8892402562879869 1.3961794519813484  3.8836897581499019 1.3912336697928254  3.8356804998788334 1.3494321185488136  3.7904941879040166 1.3165668510564308  3.742979881023178 1.2878337587903415  3.6936155583756651 1.2631011672618164  3.6428937153958612 1.2420938790284404  3.591388934648772 1.2244875801432871 
 0 7 0.11665147911669367 5 1 7
1 0 0.29999999999999999 1 0 
2 0 0 1 0 -0 1 1
7 0 0  6 12 3  0.59968680104965166 0.30000060000000001  0.63088916735140488 0.24664986200937808  0.66641047014617705 0.19570380367628681  0.70599455029284686 0.14792086025710241  0.7492617790824303 0.1038082065824929  0.79580157434810217 0.063640056485961244  0.85168584170840456 0.022742715722351231  0.85824272041494021 0.018050429047650279  0.86484595553190358 0.013429769385591239  0.87149427856270012 0.0088809570645742315  0.87818641205492254 0.0044041412611460244  0.88492106960035033 -6.0000000000000008e-07 
 0 7 0.8835224462484369 5 1 7
7 0 0  6 12 3  3.591388934648772 2.875512419856713  3.642904878289936 2.8579023050685182  3.6936364547959841 2.8368901009365808  3.7430093374967575 2.8121513505807072  3.7905312431201752 2.7834106592041183  3.8357243232021068 2.7505360595149657  3.8837308722788073 2.7087296928654703  3.889272845407572 2.7037908285248484  3.8947639415770809 2.6987829901583811  3.9002030228952411 2.6937066370335363  3.9055889782653774 2.6885623006890405  3.910920723386234 2.6833505849348813 
 0 7 0.8835224462484369 5 1 7
8 0.84999999999999987 3.25
1 -2.0499999999999998 0.77386441790708504 1 0 
8 0.84999999999999987 3.25
1 3.9109199971129396 0 0 1 
2 0 0 1 0 -0 1 0.81999999999999995
1 0 0.29999999999999993 1 0 
8 0.84999999999999987 3.25
1 -2.0499999999999998 0.56438424113960117 1 0 
8 0.84999999999999987 3.25
1 3.5913895140141507 0 0 1 
7 0 0  5 14 4  1.907835880143822 0.29999939999999992  1.9634033372918807 0.31555985411795007  2.0179707607666266 0.33465805106361818  2.0709749941256015 0.35741234103641767  2.1219104030925284 0.38388885576881271  2.2032912138907981 0.43454877579482376  2.2350765762660578 0.45676913976460565  2.2654787431237788 0.48062411690407403  2.2943400391484512 0.50603002000668296  2.3345040284475198 0.54566056942118302  2.3471037548230997 0.55879355540302234  2.3593084715843458 0.57223764297284474  2.3711062008754298 0.58597846786665519  2.3824867293561693 0.6000006 
 0 6 0.49804064458320041 4 0.8377668328496326 4 1 6
7 0 0  5 14 4  3.9109207233862349 1.778830378844982  3.8920854796334341 1.7358286686787823  3.8693972383018163 1.6946467909223788  3.8430509136379496 1.6559261415022832  3.8133764483732131 1.6200893462460102  3.7584897308515548 1.5649937659635227  3.7348755784077912 1.5441045368447863  3.7100403031998805 1.5247399016260779  3.6841357963702421 1.5069186910416699  3.6445219431986842 1.4828372255737146  3.631510659148609 1.4754005652893443  3.6183077219966009 1.4683073339713697  3.6049288292391237 1.4615526191181989  3.5913889346487751 1.4551296314845692 
 0 6 0.49804064458320041 4 0.8377668328496326 4 1 6
2 0 0 1 0 -0 1 0.81999999999999995
1 0 0.59999999999999998 1 0 
7 0 0  5 14 4  0.75910592423362044 0.6000006  0.77060091866796465 0.58583743252467291  0.78252154850278366 0.57196125859125391  0.79485728921986154 0.55838798123506916  0.80759577954948303 0.54513239081751996  0.84779524617769575 0.50555401615192164  0.87652652074335602 0.48030295176762228  0.90678114615627681 0.45658730367776301  0.93840384284427314 0.43448930815767833  1.019620908363873 0.38392074555358358  1.0705697668464491 0.35743290433591179  1.123589008230955 0.33466956193678127  1.178172563887864 0.31556454526491456  1.2337567734459713 0.29999939999999992 
 0 6 0.16386450384657822 4 0.50180883809140064 4 1 6
7 0 0  5 14 4  3.5913889346487706 2.6448703685154324  3.6050650142105489 2.6383827781345994  3.6185768376259397 2.6315567552431096  3.6319089933790414 2.6243853001553936  3.6450452983096326 2.6168633710144467  3.6846214482222091 2.5927459508299711  3.7103751715140962 2.5749967554639261  3.7350695075170073 2.5557204382256731  3.758554969355143 2.5349357989199737  3.8133407071840826 2.4799538121623135  3.8430271052324825 2.4441088429883444  3.8693835636001004 2.4053780268346645  3.8920798012068358 2.3641842954250012  3.9109207233862353 2.3211696211550175 
 0 6 0.16386450384657822 4 0.50180883809140064 4 1 6
1 6.2831853071795862 -0 0 1 
1 0 -0 0 1 
Curves 12
1 -2.4492935982947064e-16 -0.14999999999999999 1 0 1 0 
2 0 -0.14999999999999999 0 0 1 0 0 -0 1 1 0 -0 1
7 0 0  6 12 3  0.77386499892593807 -0.15000059999999968 -0.63335058493488205  0.76959327088236718 -0.14558932324362781 -0.63857003352541231  0.76530631067674737 -0.14110575819514889 -0.64372190228409754  0.76100629105363859 -0.13654998297424772 -0.64880558500348773  0.75669540108447653 -0.13192214741503036 -0.6538205480186513  0.75237584616757214 -0.12722247306602399 -0.65876633020717434  0.71529103445135456 -0.086320978185929639 -0.7005678814511862  0.68222545637174115 -0.046157415806508617 -0.73343314894356892  0.64975821803413336 -0.0020506854696080989 -0.76216624120965837  0.6187939281453978 0.045724754997490485 -0.7868988327381834  0.59013631092776198 0.096661422481630427 -0.80790612097155934  0.56438395145708575 0.15000060000000029 -0.82551241985671275 
 0 7 0.11665147911669367 5 1 7
2 0 0.14999999999999999 0 0 1 0 0 -0 1 1 0 -0 1
7 0 0  6 12 3  0.56438395145708542 0.15000060000000034 0.8255124198567132  0.59014189236810133 0.09664986200937839 0.80790230506851834  0.61880580487613213 0.045703803676283905 0.78689010093658063  0.64977677019857949 -0.0020791397428936154 0.76215135058070793  0.68225079821206958 -0.046191793417508883 0.73341065920411797  0.71532308812101486 -0.086359943514038751 0.70053605951496611  0.75240784302064589 -0.12725728427764876 0.65872969286547045  0.75672094720742533 -0.13194957095234972 0.65379082852484804  0.7610254023867169 -0.13657023061440876 0.64878299015838181  0.76531901300757765 -0.14111904293542576 0.64370663703353681  0.76959959963020586 -0.14559585873885403 0.63856230068904063  0.77386499892593885 -0.15000060000000007 0.6333505849348815 
 0 7 0.8835224462484369 5 1 7
1 0.77386441790708504 -0.15000000000000002 -2.0499999999999998 0 0 1 
2 0 -0.15000000000000002 0 0 1 0 0 -0 1 1 0 -0 0.81999999999999995
1 0.56438424113960117 0.15000000000000002 -2.0499999999999998 0 0 1 
7 0 0  5 14 4  0.77386499892593918 -0.15000060000000032 -0.27116962115501786  0.7587967926225524 -0.13444014588205017 -0.31417133132121744  0.74101281638957883 -0.11534194893638136 -0.35535320907762125  0.72097814207821442 -0.09258765896358262 -0.39407385849771626  0.69939305793615114 -0.06611114423118733 -0.42991065375398962  0.66174106986170889 -0.015451224205176251 -0.48500623403647708  0.64611345738256654 0.0067691397646056084 -0.50589546315521339  0.63037473438888758 0.030624116904073961 -0.52526009837392207  0.61478413974094415 0.056030020006682918 -0.54308130895832996  0.59231722148761878 0.095660569421182923 -0.56716277442628527  0.58514287247034213 0.10879355540302312 -0.57459943471065544  0.57808066440968575 0.12223764297284508 -0.58169266602863012  0.57115389062832489 0.1359784678666541 -0.58844738088180093  0.56438395145708697 0.15000059999999893 -0.59487036851543063 
 0 6 0.49804064458320041 4 0.8377668328496326 4 1 6
2 0 0.15000000000000002 0 0 1 0 0 -0 1 1 0 -0 0.81999999999999995
7 0 0  5 14 4  0.56438395145708498 0.15000060000000076 0.59487036851543262  0.57122198303232619 0.1358374325246737 0.58838277813460016  0.57822002079958068 0.12196125859125355 0.58155675524310957  0.58535600994183046 0.10838798123506851 0.57438530015539402  0.59260592812772028 0.095132390817519924 0.56686337101444673  0.61507694290778492 0.055554016151921681 0.54274595082997124  0.63058771273562231 0.030302951767622155 0.52499675546392699  0.64624272349282252 0.0065873036777630567 0.50572043822567248  0.66178682808496425 -0.01551069184232165 0.48493579891997418  0.69936706092775447 -0.066079254446416422 0.42995381216231354  0.72096003766288774 -0.092567095664088467 0.39410884298834481  0.74100209776097692 -0.11533043806321813 0.35537802683466457  0.75879224987786631 -0.13443545473508584 0.31418429542500165  0.77386499892593941 -0.15000060000000048 0.27116962115501769 
 0 6 0.16386450384657822 4 0.50180883809140064 4 1 6
1 -2.0084207506016592e-16 -0.44999999999999996 0.81999999999999995 0 1 0 
Polygon3D 0
PolygonOnTriangulations 0
Surfaces 5
2 0 -0.14999999999999999 0 0 1 0 0 -0 1 1 0 -0 1
1 0 -0.14999999999999999 0 0 1 0 0 -0 1 1 0 -0 
2 1.6000000000000001 0.65000000000000002 -2.0499999999999998 0 0 1 1 0 -0 -0 1 0 1.1499999999999999
1 0 0.14999999999999999 0 0 1 0 0 -0 1 1 0 -0 
2 0 -0.44999999999999996 0 0 1 0 0 -0 1 1 0 -0 0.81999999999999995
Triangulations 0

TShapes 49
Ve
1e-07
-2.44929359829471e-16 0.15 1
0 0

0101101
*
Ve
1e-07
-2.44929359829471e-16 -0.15 1
0 0

0101101
*
Ed
 1e-07 1 1 0
1  1 0 0 0.3
3  1 2CN 1 0 0 0.3
0

0101000
-49 0 +48 0 *
Ve
1.00000000271948e-07
0.773864417907085 -0.15 -0.633351294857229
0 0

0101101
*
Ed
 1e-07 1 1 0
1  2 0 2.25667250136213 6.28318530717959
2  3 1 0 2.25667250136213 6.28318530717959
2  4 2 0 2.25667250136213 6.28318530717959
0

0101000
+46 0 -48 0 *
Ve
1.000000002498e-07
0.564384241139601 0.15 -0.825512221807331
0 0

0101101
*
Ed
 1e-07 1 1 0
1  3 0 2.64439021129768e-06 0.999998343902646
2  5 1 0 2.64439021129768e-06 0.999998343902646
2  6 3 0 2.64439021129768e-06 0.999998343902646
0

0101000
+46 0 -44 0 *
Ed
 1e-07 1 1 0
1  4 0 2.54190550162773 6.28318530717959
2  7 1 0 2.54190550162773 6.28318530717959
2  8 4 0 2.54190550162773 6.28318530717959
0

0101000
+44 0 -49 0 *
Wi

0101100
+47 0 +45 0 -43 0 -42 0 *
Fa
0  1e-07 1 0

0101000
+41 0 *
Ve
1.00000000509525e-07
0.564384241139601 0.15 0.825512221807331
0 0

0101101
*
Ed
 1e-07 1 1 0
1  4 0 0 0.599687151962059
2  7 1 0 0 0.599687151962059
2  8 4 0 0 0.599687151962059
0

0101000
+49 0 -39 0 *
Ve
1.00000000324871e-07
0.773864417907085 -0.15 0.633351294857229
0 0

0101101
*
Ed
 1e-07 1 1 0
1  5 0 1.65606450241595e-06 0.999997355634786
2  9 1 0 1.65606450241595e-06 0.999997355634786
2  10 3 0 1.65606450241595e-06 0.999997355634786
0

0101000
+39 0 -37 0 *
Ed
 1e-07 1 1 0
1  2 0 0 0.884920152227663
2  3 1 0 0 0.884920152227663
2  4 2 0 0 0.884920152227663
0

0101000
+48 0 -37 0 *
Wi

0101100
-38 0 -36 0 +35 0 -47 0 *
Fa
0  1e-07 1 0

0101000
+34 0 *
Ve
1.0000000048473e-07
0.773864417907085 -0.15 -0.271171279263362
0 0

0101101
*
Ed
 1e-07 1 1 0
1  6 0 1.41664870514277 1.77882872073664
2  11 2 0 1.41664870514277 1.77882872073664
2  12 3 0 1.41664870514277 1.77882872073664
0

0101000
+46 0 -32 0 *
Ve
1.00000000200842e-07
-2.00842075060166e-16 -0.15 0.82
0 0

0101101
*
Ed
 1e-07 1 1 0
1  7 0 1.90783802277719 6.28318530717959
2  13 2 0 1.90783802277719 6.28318530717959
2  14 5 0 1.90783802277719 6.28318530717959
0

0101000
+32 0 -30 0 *
Ve
1.00000000407922e-07
0.773864417907085 -0.15 0.271171279263362
0 0

0101101
*
Ed
 1e-07 1 1 0
1  7 0 0 1.23375463081261
2  13 2 0 0 1.23375463081261
2  14 5 0 0 1.23375463081261
0

0101000
+30 0 -28 0 *
Ed
 1e-07 1 1 0
1  6 0 2.32117127926336 2.68335129485723
2  11 2 0 2.32117127926336 2.68335129485723
2  12 3 0 2.32117127926336 2.68335129485723
0

0101000
+28 0 -37 0 *
Wi

0101100
+45 0 -31 0 -29 0 -27 0 -26 0 +35 0 *
Fa
0  1e-07 2 0

0101000
+25 0 *
Ve
1.00000000999201e-07
0.564384241139601 0.15 -0.594870093678676
0 0

0101101
*
Ed
 1e-07 1 1 0
1  8 0 1.22448777819267 1.45512990632132
2  15 4 0 1.22448777819267 1.45512990632132
2  16 3 0 1.22448777819267 1.45512990632132
0

0101000
+44 0 -23 0 *
Ed
 1e-07 1 1 0
1  9 0 3.84080486319475e-06 0.999998611624359
2  17 5 0 3.84080486319475e-06 0.999998611624359
2  18 3 0 3.84080486319475e-06 0.999998611624359
0

0101000
+32 0 -23 0 *
Wi

0101100
-43 0 -22 0 +21 0 +31 0 *
Fa
0  1e-07 3 0

0101000
+20 0 *
Ve
1.00000000200842e-07
-2.00842075060166e-16 0.15 0.82
0 0

0101101
*
Ed
 1e-07 1 1 0
1  10 0 2.38248624238859 6.28318530717959
2  19 4 0 2.38248624238859 6.28318530717959
2  20 5 0 2.38248624238859 6.28318530717959
0

0101000
+23 0 -18 0 *
Ve
1.00000000576889e-07
0.564384241139601 0.15 0.594870093678676
0 0

0101101
*
Ed
 1e-07 1 1 0
1  10 0 0 0.759106411201199
2  19 4 0 0 0.759106411201199
2  20 5 0 0 0.759106411201199
0

0101000
+18 0 -16 0 *
Ed
 1e-07 1 1 0
1  8 0 2.64487009367868 2.87551222180733
2  15 4 0 2.64487009367868 2.87551222180733
2  16 3 0 2.64487009367868 2.87551222180733
0

0101000
+16 0 -39 0 *
Wi

0101100
+42 0 -22 0 -17 0 -15 0 -14 0 +38 0 *
Fa
0  1e-07 4 0

0101000
+13 0 *
Ed
 1e-07 1 1 0
1  11 0 1.38837214773686e-06 0.999996159192294
2  21 5 0 1.38837214773686e-06 0.999996159192294
2  22 3 0 1.38837214773686e-06 0.999996159192294
0

0101000
+16 0 -28 0 *
Wi

0101100
-36 0 +26 0 +11 0 -14 0 *
Fa
0  1e-07 3 0

0101000
+10 0 *
Ed
 1e-07 1 1 0
1  12 0 0.3 0.6
3  23 24CN 5 0 0.3 0.6
0

0101000
+30 0 -18 0 *
Wi

0101100
+8 0 +29 0 -21 0 -17 0 *
Fa
0  1e-07 5 0

0101000
+7 0 *
Wi

0101100
-15 0 -11 0 +27 0 -8 0 *
Fa
0  1e-07 5 0

0101000
+5 0 *
Sh

0101100
+40 0 +33 0 -24 0 -19 0 +12 0 -9 0 -6 0 -4 0 *
So

0100000
+3 0 *
Co

0100000
+2 0 *

+1 0 