DBRep_DrawableShape

CASCADE Topology V3, (c) Open Cascade
Locations 3
1
              1               0               0               0 
              0               1               0               0 
              0               0               1          1671.4 
1
              1               0               0               0 
              0               1               0               0 
              0               0               1          1667.4 
2  1 1 2 -1 0
Curve2ds 13
1 0 8 1 0 
2 0 0 1 0 -0 1 25.300000000000001
2 0 0 1 0 -0 1 25.300000000000001
1 6.2831853071795862 -0 0 1 
1 0 -0 0 1 
1 0 0 1 0 
2 0 0 1 0 -0 1 25.300000000000001
2 0 0 1 0 -0 1 19
1 0 8.1999999999999993 1 0 
2 0 0 1 0 -0 1 19
1 0 0.20000000000000018 1 0 
1 6.2831853071795862 -0 0 1 
1 0 -0 0 1 
Curves 6
2 0 0 4 0 0 1 1 0 -0 -0 1 0 25.300000000000001
1 25.300000000000001 -6.196712803685607e-15 -4 0 0 1 
2 0 0 -4 0 0 1 1 0 -0 -0 1 0 25.300000000000001
2 0 0 3.9999999999999991 0 0 1 1 0 -0 -0 1 0 19
2 0 0 -4 0 0 1 1 0 -0 -0 1 0 19
1 19 -4.6536578367599419e-15 -4.2000000000000002 0 0 1 
Polygon3D 0
PolygonOnTriangulations 0
Surfaces 5
2 0 0 -4 0 0 1 1 0 -0 -0 1 0 25.300000000000001
1 0 0 4 0 0 1 1 0 -0 -0 1 0 
1 0 0 0 0 0 1 1 0 -0 -0 1 0 
1 0 0 -4 0 0 1 1 0 -0 -0 1 0 
2 0 0 -4.2000000000000002 0 0 1 1 0 -0 -0 1 0 19
Triangulations 0

TShapes 23
Ve
1e-07
25.3 -6.19671280368561e-15 4
0 0

0101101
*
Ed
 1e-07 1 1 0
1  1 0 0 6.28318530717959
2  1 1 0 0 6.28318530717959
2  2 2 0 0 6.28318530717959
2  3 3 3 0 6.28318530717959
0

0101000
+23 0 -23 0 *
Ve
1e-07
25.3 -6.19671280368561e-15 -4
0 0

0101101
*
Ed
 1e-07 1 1 0
1  2 0 0 8
3  4 5CN 1 0 0 8
0

0101000
-23 0 +21 0 *
Ed
 1e-07 1 1 0
1  3 0 0 6.28318530717959
2  6 1 0 0 6.28318530717959
2  7 4 0 0 6.28318530717959
0

0101000
+21 0 -21 0 *
Wi

0101100
-22 0 +20 0 +19 0 -20 0 *
Fa
0  1e-07 1 0

0101000
+18 0 *
Wi

0101100
+22 0 *
Ve
1.00000004653658e-07
19 -4.65365783675994e-15 4
0 0

0101101
*
Ed
 1e-07 1 1 0
1  4 0 0 6.28318530717959
2  8 2 0 0 6.28318530717959
2  9 5 0 0 6.28318530717959
0

0101100
+15 0 -15 0 *
Wi

0101100
-14 0 *
Fa
0  1e-07 2 0

0101000
+16 0 +13 0 *
Wi

0101100
+19 0 *
Ve
1.00000004653658e-07
19 -4.65365783675994e-15 -4
0 0

0101101
*
Ed
 1e-07 1 1 0
1  5 0 0 6.28318530717959
2  10 4 0 0 6.28318530717959
2  11 5 0 0 6.28318530717959
0

0101100
+10 0 -10 0 *
Wi

0101100
-9 0 *
Fa
0  1e-07 4 0

0101000
+11 0 +8 0 *
Ed
 1e-07 1 1 0
1  6 0 0.2 8.2
3  12 13CN 5 0 0.2 8.2
0

0101000
+10 0 -15 0 *
Wi

0101100
-14 0 +6 0 +9 0 -6 0 *
Fa
0  1e-07 5 0

0101000
+5 0 *
Sh

0101100
+17 0 +12 0 -7 0 -4 0 *
So

0100000
+3 0 *
Co

0100000
+2 0 *

+1 0 