DBRep_DrawableShape

CASCADE Topology V3, (c) Open Cascade
Locations 0
Curve2ds 26
1 5.9079395180008056 0 1 0 
8 -5.9999999999999997e-07 200.00000059999999
1 0.37524578917878088 0 0 1 
8 -5.9999999999999997e-07 200.00000059999999
1 66.300000000000011 -0.20000000000000001 0 -1 
8 0 200
1 6.6584310963583668 0 0 1 
1 6.6584310963583668 200 -1 -0 
2 0 0 0.93041756798202457 0.3665012267242973 0.3665012267242973 -0.93041756798202457 44.200000000000003
8 -5.9999999999999997e-07 200.00000059999999
1 5.9079395180008056 0 0 1 
8 -5.9999999999999997e-07 200.00000059999999
1 44.20000000000001 -0.20000000000000001 0 -1 
8 0 200
1 5.9079395180008056 0 0 1 
8 -47.505551830738796 -0
1 0 0 -0.93041756798202457 0.3665012267242973 
8 -47.505551830738796 -0
1 0 -200.19999999999999 -1 -0 
8 0.19999940000000002 200.20000059999998
1 5.9079395180008056 0 0 1 
8 0.19999940000000002 200.20000059999998
1 42.20000000000001 0 0 -1 
8 0.20000000000000001 200.19999999999999
1 5.9079395180008056 0 0 1 
8 -47.505551830738796 -0
1 0 0 -0.93041756798202457 0.3665012267242973 
8 -47.505551830738796 -0
1 0 -0.20000000000000001 -1 -0 
1 5.9079395180008056 0.20000000000000001 1 0 
8 0.19999940000000002 200.20000059999998
1 0.37524578917878088 0 0 1 
8 0.19999940000000002 200.20000059999998
1 68.300000000000011 0 0 -1 
8 0.20000000000000001 200.19999999999999
1 6.6584310963583668 0 0 1 
1 6.6584310963583668 200.19999999999999 -1 -0 
2 0 0 0.93041756798202457 0.36650122672429725 0.36650122672429725 -0.93041756798202457 42.200000000000003
8 -55.250000000000007 -7.7444481692612106
1 51.40557063100686 20.249192776517425 0.93041756798202457 0.3665012267242973 
8 -55.250000000000007 -7.7444481692612106
1 55.250000000000007 -200.19999999999999 -1 0 
8 -55.250000000000007 -7.7444481692612106
1 51.40557063100686 20.249192776517425 0.93041756798202457 0.3665012267242973 
8 -55.250000000000007 -7.7444481692612106
1 55.250000000000007 -0.20000000000000001 -1 0 
Curves 12
8 0 0.75049157835756186
2 0 0 0 0 0 1 0.93041756798202457 -0.3665012267242973 0 0.3665012267242973 0.93041756798202457 -0 44.200000000000003
1 41.124456504805487 16.199354221213941 0 0 0 1 
8 0 0.75049157835756186
2 0 0 200 0 0 -1 0.93041756798202457 0.3665012267242973 0 0.3665012267242973 -0.93041756798202457 0 44.200000000000003
1 41.124456504805487 -16.199354221213941 0 0 0 1 
1 0 0 200 -0.93041756798202457 0.3665012267242973 0 
1 39.263621368841441 -15.466351767765348 -0.20000000000000001 0 0 1 
1 0 0 0 -0.93041756798202457 0.3665012267242973 0 
8 0 0.75049157835756164
2 0 0 0 0 0 1 0.93041756798202457 -0.36650122672429725 0 0.36650122672429725 0.93041756798202457 -0 42.200000000000003
1 39.263621368841441 15.466351767765348 -0.20000000000000001 0 0 1 
8 0 0.75049157835756164
2 0 0 200 0 0 -1 0.93041756798202457 0.36650122672429725 0 0.36650122672429725 -0.93041756798202457 0 42.200000000000003
1 51.40557063100686 20.249192776517425 200 0.93041756798202457 0.3665012267242973 -0 
1 51.40557063100686 20.249192776517425 0 0.93041756798202457 0.3665012267242973 -0 
Polygon3D 0
PolygonOnTriangulations 0
Surfaces 8
10 3.1415926535897931 9.4247779607693793 -2e+100 2e+100
2 0 0 0 0 0 1 1 0 -0 -0 1 0 44.200000000000003
2 0 0 0 0 0 1 1 0 -0 -0 1 0 44.200000000000003
1 102.81114126201372 40.498385553034851 -0.20000000000000001 0.3665012267242973 -0.93041756798202457 0 -0.93041756798202457 -0.3665012267242973 0 0 -0 -1 
1 0 0 200 0 0 1 1 0 -0 -0 1 0 
1 0 0 -0.20000000000000001 0.3665012267242973 0.93041756798202457 -0 0.93041756798202457 -0.3665012267242973 0 0 -0 -1 
2 0 0 -0.20000000000000001 0 0 1 1 0 -0 -0 1 0 42.200000000000003
10 3.1415926535897931 9.4247779607693793 -2e+100 2e+100
2 0 0 -0.20000000000000001 0 0 1 1 0 -0 -0 1 0 42.200000000000003
1 0 0 0 0 0 1 1 0 -0 -0 1 0 
Triangulations 0

TShapes 34
Ve
1.50000007944109e-07
41.1244565048055 -16.1993542212139 0
0 0

0101101
*
Ve
1.50000003552714e-07
41.1244565048055 16.1993542212139 0
0 0

0101101
*
Ed
 1e-07 1 1 0
1  1 0 0 0.750491578357562
2  1 1 0 0 0.750491578357562
0

0101000
+34 0 -33 0 *
Ve
1.50000003552714e-07
41.1244565048055 16.1993542212139 200
0 0

0101101
*
Ed
 1e-07 1 1 0
1  2 0 0 200
2  2 2 0 0 200
2  3 3 0 0 200
2  4 1 0 0 200
0

0101000
+33 0 -31 0 *
Ve
1.50000007944109e-07
41.1244565048055 -16.1993542212139 200
0 0

0101101
*
Ed
 1e-07 1 1 0
1  3 0 0 0.750491578357562
2  5 1 0 0 0.750491578357562
2  6 4 0 0 0.750491578357562
0

0101000
+31 0 -29 0 *
Ed
 1e-07 1 1 0
1  4 0 0 200
2  7 2 0 0 200
2  8 5 0 0 200
2  9 1 0 0 200
0

0101000
+34 0 -29 0 *
Wi

0101100
+32 0 +30 0 +28 0 -27 0 *
Fa
0  0 1 0

0101000
+26 0 *
Ve
1.50000008881784e-07
39.2636213688414 -15.4663517677653 200
0 0

0101101
*
Ed
 1.5e-07 1 1 0
1  5 0 -44.2 -42.2
2  10 4 0 -44.2 -42.2
2  11 5 0 -44.2 -42.2
0

0101000
+29 0 -24 0 *
Ve
1.50000008881784e-07
39.2636213688414 -15.4663517677653 0
0 0

0101101
*
Ed
 1e-07 1 1 0
1  6 0 0.2 200.2
2  12 6 0 0.2 200.2
2  13 5 0 0.2 200.2
2  14 7 0 0.2 200.2
0

0101000
+22 0 -24 0 *
Ed
 1.5e-07 1 1 0
1  7 0 -44.2 -42.2
2  15 8 0 -44.2 -42.2
2  16 5 0 -44.2 -42.2
0

0101000
+34 0 -22 0 *
Wi

0101100
-27 0 -23 0 +21 0 +20 0 *
Fa
0  1e-07 5 0

0101000
+19 0 *
Ve
1.50000001776357e-07
39.2636213688414 15.4663517677653 0
0 0

0101101
*
Ed
 1e-07 1 1 0
1  8 0 0 0.750491578357562
2  17 7 0 0 0.750491578357562
0

0101000
+22 0 -17 0 *
Ve
1.50000001776357e-07
39.2636213688414 15.4663517677653 200
0 0

0101101
*
Ed
 1e-07 1 1 0
1  9 0 0.2 200.2
2  18 6 0 0.2 200.2
2  19 3 0 0.2 200.2
2  20 7 0 0.2 200.2
0

0101000
+17 0 -15 0 *
Ed
 1e-07 1 1 0
1  10 0 0 0.750491578357562
2  21 7 0 0 0.750491578357562
2  22 4 0 0 0.750491578357562
0

0101000
+15 0 -24 0 *
Wi

0101100
+16 0 +14 0 +13 0 -21 0 *
Fa
0  0 7 0

0101000
+12 0 *
Ed
 1.5e-07 1 1 0
1  11 0 -13.05 -11.05
2  23 4 0 -13.05 -11.05
2  24 3 0 -13.05 -11.05
0

0101000
+15 0 -31 0 *
Wi

0101100
-23 0 -28 0 -10 0 +13 0 *
Fa
0  1e-07 4 0

0101000
+9 0 *
Ed
 1.5e-07 1 1 0
1  12 0 -13.05 -11.05
2  25 8 0 -13.05 -11.05
2  26 3 0 -13.05 -11.05
0

0101000
+17 0 -33 0 *
Wi

0101100
+7 0 -14 0 -10 0 +30 0 *
Fa
0  1e-07 3 0

0101000
+6 0 *
Wi

0101100
+32 0 -7 0 -16 0 -20 0 *
Fa
0  1e-07 8 0

0101000
+4 0 *
Sh

0101100
+25 0 -18 0 -11 0 +8 0 -5 0 -3 0 *
So

0100000
+2 0 *

+1 0 