DBRep_DrawableShape

CASCADE Topology V3, (c) Open Cascade
Locations 5
1
              1              -0               0              -0 
              0               1               0               0 
             -0               0               1              -0 
2  1 -1 0
1
              1               0               0               0 
              0               1               0               0 
              0               0               1            1613 
1
              1               0               0              22 
              0               1               0               0 
              0               0               1            1613 
2  3 1 4 -1 0
Curve2ds 48
1 0 3.1842719282327012 1 0 
1 0 0.86956196221182802 1 0 
8 3.1842713282327013 4.0000005999999999
1 1.8754889808102941 0 0 1 
8 3.1842713282327013 4.0000005999999999
1 3.1315136113355653 0.20000000000000018 0 1 
1 0 4 1 0 
2 0 0 1 0 -0 1 8
1 6.2831853071795862 -0 0 1 
1 0 -0 0 1 
7 0 0  5 70 18  1.8754889808102941 0.86956196221182802  1.8788990020801088 0.94280984589782779  1.8826572399919195 1.015790207179651  1.8867550185524435 1.0884865578334233  1.8911811486488199 1.1609131196673586  1.8985494851328437 1.2732183157174297  1.9012782688691623 1.3132742074224186  1.9040994746229081 1.3532561033779866  1.9070090703129901 1.3931695451249331  1.9160353889564017 1.5133517413137803  1.9224077638692258 1.5934314735733186  1.9290789601537517 1.6733223126011074  1.9359922093984427 1.7531089979540977  1.9496467908475235 1.9072389620384862  1.9563672438354405 1.9815806735336483  1.9631534392040071 2.0560112249336568  1.9699094132603847 2.1306226870484357  1.9791474125212023 2.2354029902732417  1.9817584511244219 2.2653398114303123  1.984337036751826 2.2953257691299527  1.9868745439674043 2.3253659230904362  1.9929444657173201 2.398823629830928  1.9964226968217922 2.4423041729659563  1.9997686326236181 2.4859193742909085  2.0029516247640782 2.5296780500774059  2.0086471682930358 2.6133352933327632  2.0111946644763403 2.653207768484533  2.0135602072012939 2.693200125610574  2.0157207057888291 2.7333089596410804  2.0211732876818256 2.8466213461923608  2.0239469096117948 2.9200834309684764  2.0258519197705143 2.9938093486604407  2.0268037219497095 3.0677075908533809  2.0268036806651408 3.1922478736449591  2.0263562980634249 3.2429027638244943  2.0254613654849654 3.2935058927938461  2.0241369460243637 3.3440186756257417  2.0216039219067605 3.4180930452762182  2.0207056394930718 3.441756292194591  2.0197224509543901 3.4653879125626474  2.0186580458066787 3.4889851360897963  2.0155682738493397 3.5527599308109852  2.0133954081348691 3.5928678436957115  2.0110184019484039 3.6328589859071845  2.0084603892408177 3.672730112086342  2.002744715640322 3.7563846433785684  1.999552319339553 3.8001419533441894  1.9961981514769807 3.8437560160237911  1.9927128212775469 3.8872357907948101  1.9867084849500158 3.9597773187775402  1.9842460952844974 3.9889053141904243  1.981745289623186 4.0179824805911082  1.9792139285632337 4.0470134372701034  1.9699791234549373 4.1518082269508261  1.9631397731615325 4.2273293141053081  1.9562701906957864 4.3026659265005076  1.9494685338297026 4.3779115085718647  1.9358225658303125 4.5320423067957085  1.9289923143461405 4.610925637024593  1.922399097917211 4.6899115513629033  1.9160977795215397 4.7690818702191313  1.9071313587976426 4.888349116631761  1.9042186372926531 4.9282632769920447  1.9013942116541453 4.9682457484347653  1.8986621289625707 5.0083021011975379  1.891262856141571 5.1209358986572902  1.8868117462863137 5.1936927695817001  1.8826919199760841 5.2667218125296991  1.8789147315379029 5.3400375896370473  1.8754889808102941 5.4136233449677587 
 0 6 0.079730385560134523 4 0.12406778284778752 4 0.21343895266616619 4 0.29671096720909101 4 0.32995144776720808 4 0.37783607240386619 4 0.42119339595865751 4 0.500003977410303 4 0.55403183532117783 4 0.57943719874873423 4 0.62279972105715364 4 0.67069017000479392 4 0.70292328415376226 4 0.78720879634524465 4 0.87556376124723523 4 0.91990351050721575 4 1 6
7 0 0  5 70 18  3.1315136113355653 3.3842719282327014  3.0405797108071719 3.4575198119187016  2.9428252285635641 3.5225576625952471  2.8393492737573029 3.578666951611801  2.7313246625664509 3.6253843333048401  2.5580042414206523 3.6830597989575105  2.495026014579941 3.7006862432929291  2.4312115760258264 3.7152843591620508  2.3667628976433255 3.7268287633472807  2.1710964641663466 3.7524126463262073  2.0385509037389888 3.7570754644025488  1.9058784004226892 3.7492392839592368  1.7746615403414852 3.7291085450296917  1.5269525263105805 3.6672068855220834  1.4100698144672119 3.6270077293145748  1.2970134619345135 3.5767736594587083  1.1890103067445186 3.5169508207166893  1.0466768278894452 3.4206506622740571  1.0070704797545589 3.3917425730437989  0.96854336850530065 3.361438065669168  0.93117427778150097 3.3297797242246112  0.8429922725693666 3.2493277126539173  0.79350950359550865 3.1991296512498106  0.74682981988799491 3.1463636417619565  0.70319102883583007 3.0911972838145534  0.62626627647362243 2.9818900603159575  0.59239148121023677 2.928145231713378  0.56136478677664825 2.8727478013216761  0.53334696230994838 2.8158703382413393  0.46327028952294802 2.6519994471199322  0.42845511188966212 2.5420348371186408  0.40488883903836731 2.4290646545059449  0.3931070940194199 2.3145218472411155  0.39310760495896568 2.1214844089147151  0.39864470894037707 2.0429692990922952  0.4097191806273992 1.9649543385323949  0.42621490702641979 1.8879180902767023  0.45813307720893948 1.7767523756685386  0.46949471070688331 1.7415121938569844  0.48198803753539943 1.7066318172820161  0.49558820960226113 1.6721540222896227  0.53532110027195468 1.5800267109667225  0.56351777552354043 1.5232237348029374  0.59471750806226009 1.467909061115269  0.62875905074587468 1.41425460472195  0.70602093733019677 1.3051521827606685  0.74982867424660238 1.2501018090895313  0.79666889505199823 1.1974595075576251  0.84630362110516244 1.1473921827145706  0.93362610783790212 1.0681725673323879  0.96991433326042176 1.0375340803661692  1.0072894997433832 1.0081696961917268  1.0456797680368535 0.98011820703918906  1.1878664324413437 0.88358613400132047  1.2971669463697244 0.82297388462151044  1.4116461749864766 0.77218731793883777  1.5300317166110613 0.73168642679399731  1.7779072691369757 0.67044728259438457  1.9076534958150515 0.65075861735661877  2.03880650943819 0.64308829922571753  2.1698368368086429 0.64763280952726143  2.3640668716052118 0.67271654002375714  2.4285397330009446 0.68415973416732379  2.4923833121724628 0.69865755981718192  2.5553956200591244 0.71618493220268242  2.7293309438541331 0.77375489358156324  2.8379169807751685 0.82055716033260762  2.9419232267982967 0.87684249393470248  3.0401602585993337 0.94214231643658786  3.1315136113355653 1.0157280717672992 
 0 6 0.079730385560134523 4 0.12406778284778752 4 0.21343895266616619 4 0.29671096720909101 4 0.32995144776720808 4 0.37783607240386619 4 0.42119339595865751 4 0.500003977410303 4 0.55403183532117783 4 0.57943719874873423 4 0.62279972105715364 4 0.67069017000479392 4 0.70292328415376226 4 0.78720879634524465 4 0.87556376124723523 4 0.91990351050721575 4 1 6
1 0 0.81572807176729878 1 0 
1 0 5.4136233449677587 1 0 
1 6.2831853071795862 -0 0 1 
1 0 -0 0 1 
1 0 0 0 -1 
1 0 0 0 1 
8 2.25 5.75
1 -2.3999999999999999 2.25 0 1 
8 2.25 5.75
1 -2.25 4.2000000000000002 1 0 
8 -5.999999999062311e-07 0.81572867176729869
1 1.8754889808102941 0 0 1 
8 -5.999999999062311e-07 0.81572867176729869
1 3.1315136113355653 0.20000000000000018 0 1 
8 2.25 5.75
1 -2.3999999999999999 2.25 0 1 
8 2.25 5.75
1 -2.25 0.20000000000000018 1 0 
8 -3.5999999999999996 1.2
1 -1.2 4.5 -1 0 
8 -3.5999999999999996 1.2
1 1.2 -4.2000000000000002 -1 0 
8 2.25 5.75
1 2.3999999999999999 2.25 0 1 
8 2.25 5.75
1 -2.25 4.2000000000000002 1 0 
2 0 0 1 0 -0 1 3.1499999999999999
1 0 4.2999999999999998 1 0 
8 3.1842713282327013 4.0000005999999999
1 1.2661036727794992 0 0 1 
8 3.1842713282327013 4.0000005999999999
1 3.1315136113355653 0.20000000000000018 0 1 
1 0 0 1 0 
2 0 0 1 0 -0 1 8
7 0 0  5 70 18  1.2661036727794992 0.86956196221182802  1.2626936515096849 0.94280984589781913  1.2589354135978721 1.0157902071796738  1.2548376350373511 1.0884865578334002  1.250411504940973 1.1609131196673679  1.2430431684569498 1.2732183157174282  1.2403143847206306 1.3132742074224208  1.2374931789668848 1.3532561033779884  1.2345835832768037 1.3931695451249309  1.2255572646333901 1.5133517413138025  1.2191848897205708 1.593431473573264  1.2125136934360377 1.6733223126011634  1.2056004441913526 1.7531089979540746  1.1919458627422699 1.9072389620384822  1.1852254097543526 1.9815806735336488  1.1784392143857856 2.0560112249336582  1.1716832403294088 2.1306226870484322  1.1624452410685913 2.2354029902732404  1.1598342024653712 2.26533981143031  1.1572556168379671 2.2953257691299522  1.1547181096223889 2.3253659230904367  1.1486481878724744 2.398823629830912  1.1451699567679983 2.4423041729659953  1.1418240209661776 2.4859193742908694  1.1386410288257141 2.5296780500774183  1.1329454852967575 2.6133352933327645  1.130397989113453 2.6532077684845259  1.1280324463884994 2.6932001256105806  1.125871947800964 2.7333089596410751  1.1204193659079671 2.8466213461923715  1.1176457439779997 2.9200834309684418  1.115740733819278 2.9938093486604709  1.1147889316400836 3.0677075908533675  1.1147889729246527 3.1922478736449467  1.1152363555263691 3.2429027638245214  1.1161312881048262 3.2935058927938212  1.1174557075654301 3.3440186756257484  1.1199887316830328 3.4180930452762168  1.1208870140967215 3.4417562921945914  1.1218702026354035 3.4653879125626474  1.1229346077831142 3.488985136089795  1.1260243797404539 3.5527599308109949  1.1281972454549236 3.5928678436956853  1.1305742516413901 3.6328589859072036  1.133132264348975 3.6727301120863363  1.1388479379494709 3.7563846433785679  1.1420403342502401 3.800141953344188  1.1453945021128129 3.8437560160237991  1.1488798323122458 3.8872357907948021  1.1548841686397771 3.9597773187775331  1.1573465583052962 3.9889053141904256  1.1598473639666074 4.01798248059111  1.1623787250265589 4.0470134372700972  1.1716135301348556 4.1518082269508216  1.1784528804282612 4.2273293141053223  1.1853224628940051 4.3026659265004854  1.1921241197600918 4.3779115085718798  1.2057700877594821 4.5320423067957254  1.2126003392436477 4.6109256370245291  1.2191935556725886 4.6899115513629841  1.2254948740682508 4.7690818702190949  1.2344612947921503 4.8883491166317601  1.2373740162971401 4.9282632769920465  1.240198441935648 4.9682457484347662  1.2429305246272224 5.0083021011975362  1.250329797448221 5.1209358986572688  1.2547809073034821 5.1936927695817516  1.2589007336137072 5.2667218125296493  1.2626779220518913 5.3400375896370704  1.266103672779499 5.4136233449677587 
 0 6 0.079730385560154646 4 0.12406778284782247 4 0.21343895266624996 4 0.29671096720919171 4 0.32995144776731389 4 0.37783607240396483 4 0.4211933959587652 4 0.50000397741043356 4 0.55403183532130429 4 0.57943719874886068 4 0.62279972105728942 4 0.67069017000493358 4 0.70292328415389416 4 0.78720879634534024 4 0.87556376124732727 4 0.91990351050728458 4 1 6
7 0 0  5 70 18  3.1315136113355653 3.3842719282327014  3.0405797108071826 3.4575198119186927  2.9428252285635348 3.5225576625952657  2.8393492737573331 3.5786669516117824  2.7313246625664367 3.6253843333048463  2.5580042414206554 3.6830597989575105  2.4950260145799366 3.7006862432929282  2.4312115760258224 3.7152843591620504  2.366762897643329 3.7268287633472794  2.1710964641663102 3.7524126463262117  2.038550903739087 3.7570754644025532  1.9058784004225882 3.7492392839592252  1.7746615403415227 3.7291085450297006  1.5269525263105872 3.6672068855220852  1.4100698144672088 3.6270077293145726  1.2970134619345099 3.576773659458707  1.1890103067445243 3.5169508207166928  1.0466768278894474 3.4206506622740576  1.0070704797545611 3.3917425730438011  0.96854336850530187 3.3614380656691702  0.93117427778150041 3.3297797242246112  0.8429922725693858 3.2493277126539351  0.79350950359547412 3.1991296512497627  0.7468298198880261 3.1463636417620071  0.7031910288358193 3.0911972838145365  0.62626627647362221 2.9818900603159557  0.59239148121023844 2.9281452317133931  0.56136478677664814 2.8727478013216654  0.53334696230995138 2.8158703382413472  0.46327028952294103 2.6519994471199162  0.42845511188967556 2.5420348371186909  0.40488883903836004 2.4290646545059  0.39310709401942101 2.3145218472411369  0.39310760495896646 2.1214844089147342  0.39864470894037835 2.0429692990922579  0.40971918062739349 1.9649543385324306  0.42621490702642278 1.8879180902766928  0.45813307720893864 1.7767523756685424  0.46949471070688376 1.7415121938569835  0.48198803753539954 1.7066318172820147  0.49558820960225952 1.6721540222896247  0.53532110027196 1.5800267109667088  0.56351777552352678 1.5232237348029656  0.59471750806227286 1.4679090611152472  0.62875905074586891 1.4142546047219573  0.70602093733019577 1.3051521827606689  0.7498286742465935 1.2501018090895397  0.79666889505201144 1.1974595075576149  0.84630362110515234 1.1473921827145794  0.9336261078378939 1.0681725673323952  0.96991433326042353 1.0375340803661688  1.007289499743385 1.0081696961917255  1.0456797680368457 0.98011820703919417  1.1878664324413379 0.88358613400132391  1.2971669463697468 0.82297388462150167  1.4116461749864357 0.77218731793885098  1.5300317166110848 0.7316864267939911  1.777907269137003 0.6704472825943778  1.9076534958149565 0.65075861735662532  2.038806509438313 0.64308829922572208  2.1698368368085816 0.64763280952725366  2.3640668716052073 0.6727165400237568  2.4285397330009486 0.6841597341673249  2.4923833121724668 0.69865755981718258  2.5553956200591212 0.71618493220268131  2.7293309438540994 0.77375489358155214  2.8379169807752507 0.8205571603326437  2.9419232267982234 0.8768424939346593  3.0401602585993626 0.94214231643661095  3.1315136113355653 1.0157280717672992 
 0 6 0.079730385560154646 4 0.12406778284782247 4 0.21343895266624996 4 0.29671096720919171 4 0.32995144776731389 4 0.37783607240396483 4 0.4211933959587652 4 0.50000397741043356 4 0.55403183532130429 4 0.57943719874886068 4 0.62279972105728942 4 0.67069017000493358 4 0.70292328415389416 4 0.78720879634534024 4 0.87556376124732727 4 0.91990351050728458 4 1 6
1 4.7999999999999998 0 0 -1 
1 0 0 0 1 
8 -3.5999999999999996 1.2
1 -1.2 4.5 -1 0 
8 -3.5999999999999996 1.2
1 1.2 -0.20000000000000018 -1 0 
8 2.25 5.75
1 2.3999999999999999 2.25 0 1 
8 2.25 5.75
1 -2.25 0.20000000000000018 1 0 
2 0 0 1 0 -0 1 3.1499999999999999
1 0 0.29999999999999982 1 0 
8 -5.999999999062311e-07 0.81572867176729869
1 1.2661036727794992 0 0 1 
8 -5.999999999062311e-07 0.81572867176729869
1 3.1315136113355653 0.20000000000000018 0 1 
1 6.2831853071795862 -0 0 1 
1 0 -0 0 1 
8 0.29999999999999982 4.2999999999999998
1 6.2831853071795862 3.7000000000000002 0 1 
8 0.29999999999999982 4.2999999999999998
1 0 3.7000000000000002 0 1 
Curves 23
2 0 1.1842719282327012 0 0 1 0 0 -0 1 1 0 -0 8
1 7.6315136113355653 -2 -2.3999999999999999 0 1 0 
2 0 2 0 0 1 0 0 -0 1 1 0 -0 8
1 -1.9594348786357651e-15 -2 8 0 1 0 
7 0 0  5 70 18  7.6315136113355653 1.1842719282327012 -2.3999999999999999  7.5405797108071724 1.2575198119187014 -2.3999999999999999  7.4428252285635637 1.3225576625952469 -2.3999999999999999  7.3393492737573034 1.3786669516118009 -2.3999999999999999  7.2313246625664505 1.4253843333048399 -2.3999999999999999  7.0580042414206527 1.4830597989575103 -2.3999999999999999  6.995026014579941 1.5006862432929289 -2.3999999999999999  6.9312115760258264 1.5152843591620506 -2.3999999999999999  6.8667628976433255 1.5268287633472806 -2.3999999999999999  6.6710964641663466 1.5524126463262071 -2.3999999999999999  6.5385509037389884 1.5570754644025486 -2.3999999999999999  6.4058784004226892 1.5492392839592366 -2.3999999999999999  6.2746615403414854 1.5291085450296915 -2.3999999999999999  6.0269525263105805 1.4672068855220832 -2.3999999999999999  5.9100698144672119 1.4270077293145746 -2.3999999999999999  5.7970134619345135 1.3767736594587081 -2.3999999999999999  5.6890103067445184 1.3169508207166891 -2.3999999999999999  5.5466768278894456 1.2206506622740569 -2.3999999999999999  5.5070704797545584 1.1917425730437987 -2.3999999999999999  5.4685433685053004 1.1614380656691679 -2.3999999999999999  5.4311742777815013 1.129779724224611 -2.3999999999999999  5.3429922725693668 1.0493277126539171 -2.3999999999999999  5.2935095035955086 0.99912965124981046 -2.3999999999999999  5.2468298198879948 0.94636364176195631 -2.3999999999999999  5.2031910288358301 0.89119728381455321 -2.3999999999999999  5.126266276473622 0.78189006031595731 -2.3999999999999999  5.0923914812102371 0.72814523171337786 -2.3999999999999999  5.0613647867766485 0.67274780132167589 -2.3999999999999999  5.033346962309948 0.61587033824133908 -2.3999999999999999  4.9632702895229484 0.45199944711993201 -2.3999999999999999  4.9284551118896625 0.34203483711864058 -2.3999999999999999  4.9048888390383674 0.22906465450594471 -2.3999999999999999  4.8931070940194203 0.11452184724111536 -2.3999999999999999  4.8931076049589652 -0.078515591085285052 -2.3999999999999999  4.8986447089403775 -0.15703070090770499 -2.3999999999999999  4.9097191806273992 -0.2350456614676053 -2.3999999999999999  4.9262149070264201 -0.31208190972329786 -2.3999999999999999  4.9581330772089398 -0.42324762433146157 -2.3999999999999999  4.9694947107068836 -0.45848780614301576 -2.3999999999999999  4.9819880375353991 -0.49336818271798411 -2.3999999999999999  4.9955882096022615 -0.52784597771037745 -2.3999999999999999  5.0353211002719549 -0.61997328903327764 -2.3999999999999999  5.0635177755235405 -0.6767762651970628 -2.3999999999999999  5.09471750806226 -0.7320909388847312 -2.3999999999999999  5.1287590507458747 -0.78574539527805021 -2.3999999999999999  5.2060209373301971 -0.89484781723933171 -2.3999999999999999  5.2498286742466025 -0.9498981909104689 -2.3999999999999999  5.2966688950519982 -1.0025404924423751 -2.3999999999999999  5.3463036211051627 -1.0526078172854296 -2.3999999999999999  5.4336261078379025 -1.1318274326676123 -2.3999999999999999  5.4699143332604221 -1.1624659196338309 -2.3999999999999999  5.5072894997433828 -1.1918303038082734 -2.3999999999999999  5.5456797680368535 -1.2198817929608112 -2.3999999999999999  5.6878664324413437 -1.3164138659986797 -2.3999999999999999  5.7971669463697246 -1.3770261153784897 -2.3999999999999999  5.9116461749864762 -1.4278126820611625 -2.3999999999999999  6.0300317166110613 -1.4683135732060029 -2.3999999999999999  6.2779072691369757 -1.5295527174056156 -2.3999999999999999  6.4076534958150511 -1.5492413826433813 -2.3999999999999999  6.5388065094381904 -1.5569117007742825 -2.3999999999999999  6.6698368368086429 -1.5523671904727387 -2.3999999999999999  6.8640668716052122 -1.527283459976243 -2.3999999999999999  6.9285397330009442 -1.5158402658326764 -2.3999999999999999  6.9923833121724623 -1.5013424401828184 -2.3999999999999999  7.0553956200591248 -1.4838150677973179 -2.3999999999999999  7.2293309438541336 -1.4262451064184369 -2.3999999999999999  7.3379169807751685 -1.3794428396673926 -2.3999999999999999  7.4419232267982967 -1.3231575060652978 -2.3999999999999999  7.5401602585993341 -1.2578576835634123 -2.3999999999999999  7.6315136113355653 -1.184271928232701 -2.3999999999999999 
 0 6 0.079730385560134523 4 0.12406778284778752 4 0.21343895266616619 4 0.29671096720909101 4 0.32995144776720808 4 0.37783607240386619 4 0.42119339595865751 4 0.500003977410303 4 0.55403183532117783 4 0.57943719874873423 4 0.62279972105715364 4 0.67069017000479392 4 0.70292328415376226 4 0.78720879634524465 4 0.87556376124723523 4 0.91990351050721575 4 1 6
2 0 -1.1842719282327012 0 0 1 0 0 -0 1 1 0 -0 8
2 -1.7145055188062944e-15 0 7 -1 0 -2.4492935982947064e-16 -2.4492935982947064e-16 0 1 0 1 0 1.55
1 4.5 -2.2000000000000002 -2.3999999999999999 0 1 0 
1 2.25 2 -2.3999999999999999 1 0 0 
1 7.6315136113355653 -2 -2.3999999999999999 0 1 0 
1 2.25 -2 -2.3999999999999999 1 0 0 
1 4.5 2 -1.2 0 0 -1 
1 2.25 2 2.3999999999999999 1 0 0 
2 0 2 0 0 1 0 0 -0 1 1 0 -0 3.1499999999999999
1 7.6315136113355653 -2 2.3999999999999999 0 1 0 
2 0 -2 0 0 1 0 0 -0 1 1 0 -0 8
7 0 0  5 70 18  7.6315136113355653 1.1842719282327012 2.3999999999999999  7.540579710807183 1.2575198119186926 2.3999999999999999  7.4428252285635352 1.3225576625952655 2.3999999999999999  7.3393492737573336 1.3786669516117822 2.3999999999999999  7.2313246625664362 1.4253843333048462 2.3999999999999999  7.0580042414206554 1.4830597989575103 2.3999999999999999  6.9950260145799366 1.500686243292928 2.3999999999999999  6.9312115760258219 1.5152843591620502 2.3999999999999999  6.866762897643329 1.5268287633472792 2.3999999999999999  6.6710964641663102 1.5524126463262116 2.3999999999999999  6.538550903739087 1.5570754644025531 2.3999999999999999  6.4058784004225879 1.5492392839592251 2.3999999999999999  6.2746615403415227 1.5291085450297004 2.3999999999999999  6.0269525263105876 1.467206885522085 2.3999999999999999  5.9100698144672084 1.4270077293145724 2.3999999999999999  5.7970134619345099 1.3767736594587068 2.3999999999999999  5.6890103067445246 1.3169508207166927 2.3999999999999999  5.5466768278894474 1.2206506622740574 2.3999999999999999  5.5070704797545611 1.1917425730438009 2.3999999999999999  5.4685433685053022 1.1614380656691701 2.3999999999999999  5.4311742777815004 1.129779724224611 2.3999999999999999  5.3429922725693855 1.0493277126539349 2.3999999999999999  5.293509503595474 0.9991296512497625 2.3999999999999999  5.2468298198880259 0.94636364176200694 2.3999999999999999  5.2031910288358194 0.89119728381453633 2.3999999999999999  5.126266276473622 0.78189006031595554 2.3999999999999999  5.0923914812102389 0.72814523171339296 2.3999999999999999  5.0613647867766485 0.67274780132166523 2.3999999999999999  5.0333469623099516 0.61587033824134707 2.3999999999999999  4.9632702895229412 0.45199944711991602 2.3999999999999999  4.9284551118896758 0.34203483711869076 2.3999999999999999  4.9048888390383603 0.22906465450589986 2.3999999999999999  4.8931070940194212 0.11452184724113668 2.3999999999999999  4.8931076049589661 -0.078515591085265957 2.3999999999999999  4.8986447089403784 -0.15703070090774229 2.3999999999999999  4.9097191806273939 -0.23504566146756956 2.3999999999999999  4.9262149070264227 -0.3120819097233074 2.3999999999999999  4.9581330772089389 -0.42324762433145779 2.3999999999999999  4.9694947107068836 -0.45848780614301665 2.3999999999999999  4.9819880375354 -0.49336818271798544 2.3999999999999999  4.9955882096022597 -0.52784597771037545 2.3999999999999999  5.0353211002719602 -0.61997328903329141 2.3999999999999999  5.0635177755235272 -0.6767762651970346 2.3999999999999999  5.0947175080622724 -0.73209093888475296 2.3999999999999999  5.1287590507458685 -0.78574539527804288 2.3999999999999999  5.2060209373301962 -0.89484781723933127 2.3999999999999999  5.2498286742465936 -0.94989819091046046 2.3999999999999999  5.2966688950520115 -1.0025404924423853 2.3999999999999999  5.346303621105152 -1.0526078172854207 2.3999999999999999  5.4336261078378936 -1.131827432667605 2.3999999999999999  5.4699143332604239 -1.1624659196338314 2.3999999999999999  5.5072894997433846 -1.1918303038082747 2.3999999999999999  5.5456797680368455 -1.2198817929608059 2.3999999999999999  5.6878664324413375 -1.3164138659986762 2.3999999999999999  5.7971669463697468 -1.3770261153784986 2.3999999999999999  5.9116461749864353 -1.4278126820611492 2.3999999999999999  6.0300317166110844 -1.4683135732060091 2.3999999999999999  6.2779072691370033 -1.5295527174056223 2.3999999999999999  6.4076534958149569 -1.5492413826433749 2.3999999999999999  6.538806509438313 -1.5569117007742781 2.3999999999999999  6.6698368368085816 -1.5523671904727465 2.3999999999999999  6.8640668716052069 -1.5272834599762435 2.3999999999999999  6.9285397330009486 -1.5158402658326753 2.3999999999999999  6.9923833121724668 -1.5013424401828175 2.3999999999999999  7.0553956200591212 -1.4838150677973188 2.3999999999999999  7.2293309438540998 -1.426245106418448 2.3999999999999999  7.3379169807752511 -1.3794428396673566 2.3999999999999999  7.4419232267982238 -1.3231575060653409 2.3999999999999999  7.5401602585993626 -1.2578576835633892 2.3999999999999999  7.6315136113355653 -1.184271928232701 2.3999999999999999 
 0 6 0.079730385560154646 4 0.12406778284782247 4 0.21343895266624996 4 0.29671096720919171 4 0.32995144776731389 4 0.37783607240396483 4 0.4211933959587652 4 0.50000397741043356 4 0.55403183532130429 4 0.57943719874886068 4 0.62279972105728942 4 0.67069017000493358 4 0.70292328415389416 4 0.78720879634534024 4 0.87556376124732727 4 0.91990351050728458 4 1 6
1 4.5 -2.2000000000000002 2.3999999999999999 0 1 0 
1 4.5 -2 -1.2 0 0 -1 
1 2.25 -2 2.3999999999999999 1 0 0 
2 0 -2 0 0 1 0 0 -0 1 1 0 -0 3.1499999999999999
1 7.6315136113355653 -2 2.3999999999999999 0 1 0 
1 -7.7152748346283254e-16 -2.2999999999999998 3.1499999999999999 0 1 0 
Polygon3D 0
PolygonOnTriangulations 0
Surfaces 9
2 0 -2 0 0 1 0 0 -0 1 1 0 -0 8
5 0 0 0 0 1 0 0 -0 1 1 0 -0 7 1.55
1 4.5 -2.2000000000000002 -2.3999999999999999 0 0 1 1 0 0 0 1 0 
1 0 2 0 0 1 0 0 -0 1 1 0 -0 
1 4.5 -2.2000000000000002 -2.3999999999999999 1 0 0 0 0 1 0 -1 0 
1 0 -2 0 0 1 0 0 -0 1 1 0 -0 
1 4.5 -2.2000000000000002 2.3999999999999999 0 0 1 1 0 0 0 1 0 
2 0 -2.2999999999999998 0 0 1 0 0 -0 1 1 0 -0 3.1499999999999999
2 22 -6 0 0 1 0 0 -0 1 1 0 -0 3.1499999999999999
Triangulations 0

TShapes 75
Ve
1e-06
7.63151361133557 1.1842719282327 -2.4
0 0

0101101
*
Ve
1.00000028709837e-07
-1.95943487863576e-15 1.18427192823273 7.99999999999999
0 0

0101101
*
Ed
 1e-07 1 1 0
1  1 0 1.87548898081029 6.28318530717959
2  1 1 0 1.87548898081029 6.28318530717959
2  2 2 0 1.87548898081029 6.28318530717959
0

0101000
+75 0 -74 0 *
Ve
1.5e-07
7.63151361133557 2 -2.4
0 0

0101101
*
Ed
 1e-07 1 1 0
1  2 0 3.1842719282327 4
2  3 1 0 3.1842719282327 4
2  4 3 1 3.1842719282327 4
0

0101000
+75 0 -72 0 *
Ve
1e-07
-1.95943487863577e-15 2 8
0 0

0101101
*
Ed
 1e-07 1 1 0
1  3 0 1.87548898081029 6.28318530717959
2  5 1 0 1.87548898081029 6.28318530717959
2  6 4 0 1.87548898081029 6.28318530717959
0

0101000
+72 0 -70 0 *
Ed
 1e-07 1 1 0
1  4 0 3.18427192823273 4
3  7 8CN 1 0 3.18427192823273 4
0

0101000
+74 0 -70 0 *
Wi

0101100
+73 0 -71 0 -69 0 +68 0 *
Fa
0  1e-07 1 0

0101000
+67 0 *
Ve
1.00000000022204e-06
7.63151361133557 -1.1842719282327 -2.4
0 0

0101101
*
Ed
 1e-06 1 1 0
1  5 0 0 1
2  9 2 0 0 1
2  10 3 1 0 1
0

0101000
+75 0 -65 0 *
Ve
1.0000003094546e-07
-1.95943487863576e-15 -1.18427192823273 7.99999999999998
0 0

0101101
*
Ed
 1e-07 1 1 0
1  6 0 1.87548898081029 6.28318530717959
2  11 1 0 1.87548898081029 6.28318530717959
2  12 2 0 1.87548898081029 6.28318530717959
0

0101000
+65 0 -63 0 *
Ed
 1e-07 1 1 0
1  7 0 0.869561962211845 5.41362334496774
3  13 14CN 2 0 0.869561962211845 5.41362334496774
0

0101000
+74 0 -63 0 *
Wi

0101100
+73 0 -64 0 -62 0 +61 0 *
Fa
0  1e-07 2 0

0101000
+60 0 *
Ve
1.5e-07
4.5 -2 -2.4
0 0

0101101
*
Ve
1.5e-07
4.5 2 -2.4
0 0

0101101
*
Ed
 1e-07 1 1 0
1  8 0 0.2 4.2
2  15 5 0 0.2 4.2
2  16 3 0 0.2 4.2
0

0101000
+58 2 -57 2 *
Ed
 1.5e-07 1 1 0
1  9 0 2.25 5.38151361133557
2  17 4 0 2.25 5.38151361133557
2  18 3 1 2.25 5.38151361133557
0

0101000
+57 0 -72 0 *
Ve
1.5e-07
7.63151361133557 -2 -2.4
0 0

0101101
*
Ed
 1e-07 1 1 0
1  10 0 0 0.815728671767299
2  19 1 0 0 0.815728671767299
2  20 3 1 0 0.815728671767299
0

0101000
+54 0 -65 0 *
Ed
 1.5e-07 1 1 0
1  11 0 2.25 5.38151361133557
2  21 6 0 2.25 5.38151361133557
2  22 3 1 2.25 5.38151361133557
0

0101000
+58 0 -54 0 *
Wi

0101100
-56 1 -55 0 +71 0 -64 0 +53 0 +52 0 *
Fa
0  1e-07 3 1

0101000
+51 0 *
Ve
1.50000000444089e-07
4.5 2 2.4
0 0

0101101
*
Ed
 1.5e-07 1 1 0
1  12 0 -3.6 1.2
2  23 4 0 -3.6 1.2
2  24 5 1 -3.6 1.2
0

0101000
+49 0 -57 0 *
Ve
1.50000000444089e-07
7.63151361133557 2 2.4
0 0

0101101
*
Ed
 1.5e-07 1 1 0
1  13 0 2.25 5.38151361133557
2  25 4 0 2.25 5.38151361133557
2  26 7 1 2.25 5.38151361133557
0

0101000
+49 0 -47 0 *
Ed
 1e-07 1 1 0
1  3 0 0 1.2661036727795
2  5 1 0 0 1.2661036727795
2  6 4 0 0 1.2661036727795
0

0101000
+70 0 -47 0 *
Wi

0101100
+69 0 +55 0 +48 0 -46 0 +45 0 *
Ve
1.00000046185278e-07
-7.71527483462833e-16 2 3.15
0 0

0101101
*
Ed
 1e-07 1 1 0
1  14 0 0 6.28318530717959
2  27 4 0 0 6.28318530717959
2  28 8 0 0 6.28318530717959
0

0101100
+43 0 -43 0 *
Wi

0101100
-42 0 *
Fa
0  1e-07 4 0

0101000
+44 0 +41 0 *
Ve
1.00000000044409e-06
7.63151361133557 1.1842719282327 2.4
0 0

0101101
*
Ed
 1e-07 1 1 0
1  15 0 3.1842719282327 4
2  29 1 0 3.1842719282327 4
2  30 7 1 3.1842719282327 4
0

0101000
+39 0 -47 0 *
Ed
 1e-07 1 1 0
1  1 0 0 1.2661036727795
2  1 1 0 0 1.2661036727795
2  2 2 0 0 1.2661036727795
0

0101000
+74 0 -39 0 *
Wi

0101100
-68 0 -45 0 +38 0 +37 0 *
Fa
0  1e-07 1 0

0101000
+36 0 *
Ve
1e-07
-1.95943487863577e-15 -2 8
0 0

0101101
*
Ed
 1e-07 1 1 0
1  4 0 0 0.815728071767272
3  7 8CN 1 0 0 0.815728071767272
0

0101000
+34 0 -63 0 *
Ed
 1e-07 1 1 0
1  16 0 1.87548898081029 6.28318530717959
2  31 1 0 1.87548898081029 6.28318530717959
2  32 6 0 1.87548898081029 6.28318530717959
0

0101000
+54 0 -34 0 *
Wi

0101100
+33 0 +32 0 -53 0 -62 0 *
Fa
0  1e-07 1 0

0101000
+31 0 *
Ve
1.00000000049651e-06
7.63151361133557 -1.1842719282327 2.4
0 0

0101101
*
Ed
 1e-07 1 1 0
1  6 0 0 1.2661036727795
2  11 1 0 0 1.2661036727795
2  12 2 0 0 1.2661036727795
0

0101000
+63 0 -29 0 *
Ed
 1e-06 1 1 0
1  17 0 0 1
2  33 2 0 0 1
2  34 7 1 0 1
0

0101000
+39 0 -29 0 *
Wi

0101100
-61 0 -28 0 +27 0 +37 0 *
Fa
0  1e-07 2 0

0101000
+26 0 *
Ve
1.50000000444089e-07
4.5 -2 2.4
0 0

0101101
*
Ed
 1e-07 1 1 0
1  18 0 0.2 4.2
2  35 5 0 0.2 4.2
2  36 7 0 0.2 4.2
0

0101000
+24 2 -49 2 *
Ed
 1.5e-07 1 1 0
1  19 0 -3.6 1.2
2  37 6 0 -3.6 1.2
2  38 5 1 -3.6 1.2
0

0101000
+24 0 -58 0 *
Wi

0101100
-23 1 -48 0 +56 1 +22 0 *
Fa
0  1e-07 5 1

0101000
+21 0 *
Ve
1.50000000444089e-07
7.63151361133557 -2 2.4
0 0

0101101
*
Ed
 1.5e-07 1 1 0
1  20 0 2.25 5.38151361133557
2  39 6 0 2.25 5.38151361133557
2  40 7 1 2.25 5.38151361133557
0

0101000
+24 0 -19 0 *
Ed
 1e-07 1 1 0
1  16 0 0 1.2661036727795
2  31 1 0 0 1.2661036727795
2  32 6 0 0 1.2661036727795
0

0101000
+34 0 -19 0 *
Wi

0101100
+32 0 +52 0 +22 0 -18 0 +17 0 *
Ve
1.00000042632564e-07
-7.71527483462833e-16 -2 3.15
0 0

0101101
*
Ed
 1e-07 1 1 0
1  21 0 0 6.28318530717959
2  41 6 0 0 6.28318530717959
2  42 8 0 0 6.28318530717959
0

0101100
+15 0 -15 0 *
Wi

0101100
-14 0 *
Fa
0  1e-07 6 0

0101000
+16 0 +13 0 *
Ed
 1e-07 1 1 0
1  22 0 0 0.815728671767299
2  43 1 0 0 0.815728671767299
2  44 7 1 0 0.815728671767299
0

0101000
+19 0 -29 0 *
Wi

0101100
-23 1 -46 0 +38 0 -27 0 +11 0 +18 0 *
Fa
0  1e-07 7 1

0101000
+10 0 *
Ed
 1.00000000444089e-07 1 1 0
1  23 0 0.3 4.3
3  45 46CN 8 0 0.3 4.3
3  47 48C0 9 5 0.3 4.3
0

0101000
+15 0 -43 0 *
Wi

0101100
-42 0 +8 0 +14 0 -8 0 *
Fa
0  1e-07 8 0

0101000
+7 0 *
Wi

0101100
-28 0 +11 0 +17 0 -33 0 *
Fa
0  1e-07 1 0

0101000
+5 0 *
Sh

0101100
+66 0 -59 0 +50 0 +40 0 +35 0 +30 0 -25 0 +20 0 -12 0 -9 0 
-6 0 +4 0 *
So

0100000
+3 0 *
Co

0100000
+2 0 *

+1 0 