DBRep_DrawableShape

CASCADE Topology V3, (c) Open Cascade
Locations 22
1
              1              -0               0              -0 
              0               1               0               0 
             -0               0               1              -0 
2  1 -1 0
1
              1              -0               0              -0 
              0               1               0               0 
             -0               0               1              -0 
1
              1              -0               0              -0 
              0               1               0               0 
             -0               0               1              -0 
2  4 -1 0
1
              1              -0               0              -0 
              0               1               0               0 
             -0               0               1              -0 
2  6 -1 0
1
              1              -0               0              -0 
              0               1               0               0 
             -0               0               1              -0 
2  8 -1 0
1
              1              -0               0              -0 
              0               1               0               0 
             -0               0               1              -0 
2  10 -1 0
1
              1              -0               0              -0 
              0               1               0               0 
             -0               0               1              -0 
2  12 -1 0
1
              1              -0               0              -0 
              0               1               0               0 
             -0               0               1              -0 
2  14 -1 0
2  3 -1 0
2  3 1 4 -1 0
2  3 1 8 -1 0
2  3 1 10 -1 0
2  3 1 6 -1 0
2  3 1 12 -1 0
2  3 1 14 -1 0
Curve2ds 360
1 0 0 1 0 
1 0 0 1 0 
1 0 0 0 -1 
1 0 0 0 -1 
1 0 -30 1 0 
1 0 -30 1 0 
1 52 0 0 -1 
1 52 0 0 -1 
8 -25.5 -1.5
1 5 -1.5 0 1 
8 -25.5 -1.5
1 0.19999999999999996 -1.5 0 -1 
1 5 -1.5 0 1 
1 0 -1.1999999999999993 1 0 
1 0 0 1 0 
1 5 -23.600000000000001 1 0 
1 0 0 0 -1 
1 0 0 0 1 
1 11.4 -3 0 -1 
8 2.5 44.5
1 2.5 -27 1 0 
8 2.5 44.5
1 -2.5 0.19999999999999996 1 0 
1 2.5 -27 1 0 
1 5 -1.5 0 1 
1 0 -1.2 1 0 
1 0 0 1 0 
1 5 -15.6 1 0 
1 11.4 -3 0 -1 
1 0 0 1 0 
1 0 0 1 0 
1 5 -22.399999999999999 1 0 
1 5 -1.5 0 1 
1 0 -1.1999999999999993 1 0 
1 0 0 1 0 
1 5 -7.5999999999999996 1 0 
1 11.4 -3 0 -1 
1 0 0 1 0 
1 0 0 1 0 
1 5 -14.4 1 0 
1 5 -1.5 0 1 
8 2.5 44.5
1 2.5 -3 1 0 
8 2.5 44.5
1 -2.5 0.19999999999999996 1 0 
1 2.5 -3 1 0 
1 11.4 -3 0 -1 
1 0 0 1 0 
1 0 0 1 0 
1 5 -6.4000000000000004 1 0 
1 2.5 -27 1 0 
1 1.1999999999999993 0 0 -1 
1 0 0 0 1 
1 12.6 -3 0 -1 
1 5 -23.600000000000001 1 0 
1 0 0 0 -1 
1 0 0 0 1 
1 25.399999999999999 -3 0 -1 
1 2.5 -27 1 0 
1 1.2 0 0 -1 
1 0 0 0 1 
1 26.600000000000001 -3 0 -1 
1 5 -23.600000000000001 1 0 
1 0 0 0 -1 
1 0 0 0 1 
1 39.399999999999999 -3 0 -1 
1 2.5 -27 1 0 
1 1.1999999999999993 0 0 -1 
1 0 0 0 1 
1 40.600000000000001 -3 0 -1 
1 5 -23.600000000000001 1 0 
8 -25.5 -1.5
1 47 -1.5 0 1 
8 -25.5 -1.5
1 0.19999999999999996 -1.5 0 -1 
1 47 -1.5 0 1 
1 47 -1.5 0 1 
1 5 -22.399999999999999 1 0 
1 40.600000000000001 -3 0 -1 
1 5 -15.6 1 0 
1 47 -1.5 0 1 
1 5 -14.4 1 0 
1 40.600000000000001 -3 0 -1 
1 5 -7.5999999999999996 1 0 
1 47 -1.5 0 1 
1 5 -6.4000000000000004 1 0 
1 40.600000000000001 -3 0 -1 
1 2.5 -3 1 0 
1 2.5 -3 1 0 
1 25.399999999999999 -3 0 -1 
1 5 -6.4000000000000004 1 0 
1 12.6 -3 0 -1 
1 2.5 -3 1 0 
1 39.399999999999999 -3 0 -1 
1 5 -6.4000000000000004 1 0 
1 26.600000000000001 -3 0 -1 
1 12.6 -3 0 -1 
1 5 -15.6 1 0 
1 25.399999999999999 -3 0 -1 
1 5 -22.399999999999999 1 0 
1 12.6 -3 0 -1 
1 5 -7.5999999999999996 1 0 
1 25.399999999999999 -3 0 -1 
1 5 -14.4 1 0 
1 26.600000000000001 -3 0 -1 
1 5 -15.6 1 0 
1 39.399999999999999 -3 0 -1 
1 5 -22.399999999999999 1 0 
1 39.399999999999999 -3 0 -1 
1 5 -14.4 1 0 
1 26.600000000000001 -3 0 -1 
1 5 -7.5999999999999996 1 0 
1 0 0 1 0 
1 0 0 1 0 
1 52 0 0 -1 
1 52 0 0 -1 
1 0 0 0 -1 
1 0 0 0 -1 
1 0 -30 1 0 
1 0 -30 1 0 
1 0 0 0 1 
1 0 24 1 0 
8 -25.5 -1.5
1 5 -1.5 0 1 
8 -25.5 -1.5
1 1.2 -1.5 0 -1 
1 5 -1.5 0 1 
1 0 0 0 1 
1 0 1.1999999999999993 1 0 
1 0.19999999999999996 20.600000000000001 1 0 
1 0 0 0 1 
1 0 0 1 0 
1 0.19999999999999996 19.399999999999999 1 0 
1 5 -1.5 0 1 
1 0 0 0 1 
1 0 1.2 1 0 
1 0.19999999999999996 12.6 1 0 
1 0 0 0 1 
1 0 0 1 0 
1 0.19999999999999996 11.4 1 0 
1 5 -1.5 0 1 
1 0 0 0 1 
1 0 1.1999999999999993 1 0 
1 0.19999999999999996 4.5999999999999996 1 0 
1 0 0 0 1 
1 0 0 1 0 
1 0.19999999999999996 3.4000000000000004 1 0 
1 5 -1.5 0 1 
1 0 0 0 1 
1 0 0 1 0 
8 2.5 44.5
1 2.5 -27 1 0 
8 2.5 44.5
1 -2.5 1.2 1 0 
1 2.5 -27 1 0 
1 0 0 0 1 
1 0 24 1 0 
1 6.4000000000000004 0.19999999999999996 0 1 
1 2.5 -27 1 0 
1 0 0 0 1 
1 0 24 1 0 
1 20.399999999999999 0.19999999999999996 0 1 
1 1.1999999999999993 0 0 1 
1 0 24 1 0 
1 7.5999999999999996 0.19999999999999996 0 1 
1 2.5 -27 1 0 
1 0 0 0 1 
1 0 24 1 0 
1 34.399999999999999 0.19999999999999996 0 1 
1 1.2 0 0 1 
1 0 24 1 0 
1 21.600000000000001 0.19999999999999996 0 1 
1 2.5 -27 1 0 
1 42 0 0 1 
1 0 24 1 0 
1 1.1999999999999993 0 0 1 
1 0 24 1 0 
1 35.600000000000001 0.19999999999999996 0 1 
8 -25.5 -1.5
1 47 -1.5 0 1 
8 -25.5 -1.5
1 1.2 -1.5 0 -1 
1 47 -1.5 0 1 
1 42 0 0 1 
1 0 1.1999999999999993 1 0 
1 0.19999999999999996 20.600000000000001 1 0 
1 42 0 0 1 
1 0 0 1 0 
1 0.19999999999999996 19.399999999999999 1 0 
1 47 -1.5 0 1 
1 42 0 0 1 
1 0 1.2 1 0 
1 0.19999999999999996 12.6 1 0 
1 42 0 0 1 
1 0 0 1 0 
1 0.19999999999999996 11.4 1 0 
1 47 -1.5 0 1 
1 42 0 0 1 
1 0 1.1999999999999993 1 0 
1 0.19999999999999996 4.5999999999999996 1 0 
1 42 0 0 1 
1 0 0 1 0 
1 0.19999999999999996 3.4000000000000004 1 0 
1 47 -1.5 0 1 
1 42 0 0 1 
1 0 0 1 0 
8 2.5 44.5
1 2.5 -3 1 0 
8 2.5 44.5
1 -2.5 1.2 1 0 
1 2.5 -3 1 0 
1 0 0 1 0 
1 0 0 0 1 
1 6.4000000000000004 0.19999999999999996 0 1 
1 2.5 -3 1 0 
1 0 0 1 0 
1 0 0 0 1 
1 20.399999999999999 0.19999999999999996 0 1 
1 0 0 1 0 
1 1.1999999999999993 0 0 1 
1 7.5999999999999996 0.19999999999999996 0 1 
1 2.5 -3 1 0 
1 0 0 1 0 
1 0 0 0 1 
1 34.399999999999999 0.19999999999999996 0 1 
1 0 0 1 0 
1 1.2 0 0 1 
1 21.600000000000001 0.19999999999999996 0 1 
1 2.5 -3 1 0 
1 0 0 1 0 
1 1.1999999999999993 0 0 1 
1 35.600000000000001 0.19999999999999996 0 1 
1 0 1 1 0 
1 0 -1.1999999999999993 1 0 
1 5 -23.600000000000001 1 0 
1 1 0 0 1 
1 0 0 0 -1 
1 11.4 -3 0 -1 
1 0 1 1 0 
1 0 -1.2 1 0 
1 5 -15.6 1 0 
1 11.4 -3 0 -1 
1 0 1 1 0 
1 0 0 1 0 
1 5 -22.399999999999999 1 0 
1 0 1 1 0 
1 0 -1.1999999999999993 1 0 
1 5 -7.5999999999999996 1 0 
1 11.4 -3 0 -1 
1 0 1 1 0 
1 0 0 1 0 
1 5 -14.4 1 0 
1 11.4 -3 0 -1 
1 0 1 1 0 
1 0 0 1 0 
1 5 -6.4000000000000004 1 0 
1 1 0 0 1 
1 1.1999999999999993 0 0 -1 
1 12.6 -3 0 -1 
1 5 -23.600000000000001 1 0 
1 1 0 0 1 
1 0 0 0 -1 
1 25.399999999999999 -3 0 -1 
1 1 0 0 1 
1 1.2 0 0 -1 
1 26.600000000000001 -3 0 -1 
1 5 -23.600000000000001 1 0 
1 1 0 0 1 
1 0 0 0 -1 
1 39.399999999999999 -3 0 -1 
1 1 0 0 1 
1 1.1999999999999993 0 0 -1 
1 40.600000000000001 -3 0 -1 
1 5 -23.600000000000001 1 0 
1 5 -22.399999999999999 1 0 
1 40.600000000000001 -3 0 -1 
1 5 -15.6 1 0 
1 5 -14.4 1 0 
1 40.600000000000001 -3 0 -1 
1 5 -7.5999999999999996 1 0 
1 5 -6.4000000000000004 1 0 
1 40.600000000000001 -3 0 -1 
1 25.399999999999999 -3 0 -1 
1 5 -6.4000000000000004 1 0 
1 12.6 -3 0 -1 
1 39.399999999999999 -3 0 -1 
1 5 -6.4000000000000004 1 0 
1 26.600000000000001 -3 0 -1 
1 12.6 -3 0 -1 
1 5 -15.6 1 0 
1 25.399999999999999 -3 0 -1 
1 5 -22.399999999999999 1 0 
1 12.6 -3 0 -1 
1 5 -7.5999999999999996 1 0 
1 25.399999999999999 -3 0 -1 
1 5 -14.4 1 0 
1 26.600000000000001 -3 0 -1 
1 5 -15.6 1 0 
1 39.399999999999999 -3 0 -1 
1 5 -22.399999999999999 1 0 
1 39.399999999999999 -3 0 -1 
1 5 -14.4 1 0 
1 26.600000000000001 -3 0 -1 
1 5 -7.5999999999999996 1 0 
8 0 1
1 6.4000000000000004 0 0 1 
8 0 1
1 0 20.600000000000001 1 0 
8 0 1
1 6.4000000000000004 0 0 1 
8 0 1
1 0 19.399999999999999 1 0 
8 0 1
1 6.4000000000000004 0 0 1 
8 0 1
1 0 12.6 1 0 
8 0 1
1 6.4000000000000004 0 0 1 
8 0 1
1 0 11.4 1 0 
8 0 1
1 6.4000000000000004 0 0 1 
8 0 1
1 0 4.5999999999999996 1 0 
8 0 1
1 6.4000000000000004 0 0 1 
8 0 1
1 0 3.4000000000000004 1 0 
8 0 1
1 7.5999999999999996 0 0 1 
8 0 1
1 0 20.600000000000001 1 0 
8 0 1
1 20.399999999999999 0 0 1 
8 0 1
1 0 20.600000000000001 1 0 
8 0 1
1 21.600000000000001 0 0 1 
8 0 1
1 0 20.600000000000001 1 0 
8 0 1
1 34.399999999999999 0 0 1 
8 0 1
1 0 20.600000000000001 1 0 
8 0 1
1 35.600000000000001 0 0 1 
8 0 1
1 0 20.600000000000001 1 0 
8 0 1
1 35.600000000000001 0 0 1 
8 0 1
1 0 19.399999999999999 1 0 
8 0 1
1 35.600000000000001 0 0 1 
8 0 1
1 0 12.6 1 0 
8 0 1
1 35.600000000000001 0 0 1 
8 0 1
1 0 11.4 1 0 
8 0 1
1 35.600000000000001 0 0 1 
8 0 1
1 0 4.5999999999999996 1 0 
8 0 1
1 35.600000000000001 0 0 1 
8 0 1
1 0 3.4000000000000004 1 0 
8 0 1
1 7.5999999999999996 0 0 1 
8 0 1
1 0 3.4000000000000004 1 0 
8 0 1
1 20.399999999999999 0 0 1 
8 0 1
1 0 3.4000000000000004 1 0 
8 0 1
1 21.600000000000001 0 0 1 
8 0 1
1 0 3.4000000000000004 1 0 
8 0 1
1 34.399999999999999 0 0 1 
8 0 1
1 0 3.4000000000000004 1 0 
8 0 1
1 7.5999999999999996 0 0 1 
8 0 1
1 0 19.399999999999999 1 0 
8 0 1
1 7.5999999999999996 0 0 1 
8 0 1
1 0 12.6 1 0 
8 0 1
1 20.399999999999999 0 0 1 
8 0 1
1 0 19.399999999999999 1 0 
8 0 1
1 7.5999999999999996 0 0 1 
8 0 1
1 0 11.4 1 0 
8 0 1
1 7.5999999999999996 0 0 1 
8 0 1
1 0 4.5999999999999996 1 0 
8 0 1
1 20.399999999999999 0 0 1 
8 0 1
1 0 11.4 1 0 
8 0 1
1 20.399999999999999 0 0 1 
8 0 1
1 0 12.6 1 0 
8 0 1
1 20.399999999999999 0 0 1 
8 0 1
1 0 4.5999999999999996 1 0 
8 0 1
1 21.600000000000001 0 0 1 
8 0 1
1 0 19.399999999999999 1 0 
8 0 1
1 21.600000000000001 0 0 1 
8 0 1
1 0 12.6 1 0 
8 0 1
1 34.399999999999999 0 0 1 
8 0 1
1 0 19.399999999999999 1 0 
8 0 1
1 34.399999999999999 0 0 1 
8 0 1
1 0 12.6 1 0 
8 0 1
1 34.399999999999999 0 0 1 
8 0 1
1 0 11.4 1 0 
8 0 1
1 34.399999999999999 0 0 1 
8 0 1
1 0 4.5999999999999996 1 0 
8 0 1
1 21.600000000000001 0 0 1 
8 0 1
1 0 11.4 1 0 
8 0 1
1 21.600000000000001 0 0 1 
8 0 1
1 0 4.5999999999999996 1 0 
Curves 108
1 -0.5 -15 -26 0 0 1 
1 -0.5 -15 -26 0 1 0 
1 -0.5 15 -26 0 0 1 
1 -0.5 -15 26 0 1 0 
1 -0.5 -13.5 -21 0 -1 0 
1 -0.5 8.5999999999999996 -21 0 0 1 
1 -0.5 -12 -14.6 0 1 0 
1 -0.5 12 -23.5 0 0 1 
1 -0.5 0.59999999999999998 -21 0 0 1 
1 -0.5 7.4000000000000004 -21 0 0 1 
1 -0.5 -7.4000000000000004 -21 0 0 1 
1 -0.5 -0.59999999999999998 -21 0 0 1 
1 -0.5 -12 -23.5 0 0 1 
1 -0.5 -8.5999999999999996 -21 0 0 1 
1 -0.5 -12 -13.4 0 1 0 
1 -0.5 -12 -0.59999999999999998 0 1 0 
1 -0.5 -12 0.59999999999999998 0 1 0 
1 -0.5 -12 13.4 0 1 0 
1 -0.5 -12 14.6 0 1 0 
1 -0.5 -13.5 21 0 -1 0 
1 -0.5 -15 -26 1 0 0 
1 0.5 -15 -26 0 0 1 
1 -0.5 -15 26 1 0 0 
1 -0.5 15 26 1 0 0 
1 0.5 -15 26 0 1 0 
1 -0.5 15 -26 1 0 0 
1 0.5 -15 -26 0 1 0 
1 0.5 15 -26 0 0 1 
1 -0.69999999999999996 12 -21 1 0 0 
1 0.5 -13.5 -21 0 -1 0 
1 -0.5 8.5999999999999996 -21 1 0 0 
1 -0.5 7.4000000000000004 -21 1 0 0 
1 -0.5 0.59999999999999998 -21 1 0 0 
1 -0.5 -0.59999999999999998 -21 1 0 0 
1 -0.5 -7.4000000000000004 -21 1 0 0 
1 -0.5 -8.5999999999999996 -21 1 0 0 
1 -0.69999999999999996 -12 -21 1 0 0 
1 0.5 12 -23.5 0 0 1 
1 -0.5 12 -14.6 1 0 0 
1 -0.5 12 -0.59999999999999998 1 0 0 
1 -0.5 12 -13.4 1 0 0 
1 -0.5 12 13.4 1 0 0 
1 -0.5 12 0.59999999999999998 1 0 0 
1 -0.69999999999999996 12 21 1 0 0 
1 -0.5 12 14.6 1 0 0 
1 0.5 -13.5 21 0 -1 0 
1 -0.5 8.5999999999999996 21 1 0 0 
1 -0.5 7.4000000000000004 21 1 0 0 
1 -0.5 0.59999999999999998 21 1 0 0 
1 -0.5 -0.59999999999999998 21 1 0 0 
1 -0.5 -7.4000000000000004 21 1 0 0 
1 -0.5 -8.5999999999999996 21 1 0 0 
1 -0.69999999999999996 -12 21 1 0 0 
1 0.5 -12 -23.5 0 0 1 
1 -0.5 -12 -14.6 1 0 0 
1 -0.5 -12 -0.59999999999999998 1 0 0 
1 -0.5 -12 -13.4 1 0 0 
1 -0.5 -12 13.4 1 0 0 
1 -0.5 -12 0.59999999999999998 1 0 0 
1 -0.5 -12 14.6 1 0 0 
1 0.5 8.5999999999999996 -21 0 0 1 
1 0.5 -12 -14.6 0 1 0 
1 0.5 0.59999999999999998 -21 0 0 1 
1 0.5 7.4000000000000004 -21 0 0 1 
1 0.5 -7.4000000000000004 -21 0 0 1 
1 0.5 -0.59999999999999998 -21 0 0 1 
1 0.5 -8.5999999999999996 -21 0 0 1 
1 0.5 -12 -13.4 0 1 0 
1 0.5 -12 -0.59999999999999998 0 1 0 
1 0.5 -12 0.59999999999999998 0 1 0 
1 0.5 -12 13.4 0 1 0 
1 0.5 -12 14.6 0 1 0 
1 -0.5 8.6000000000000014 -14.6 1 0 0 
1 -0.5 7.3999999999999995 -14.6 1 0 0 
1 -0.5 0.59999999999999987 -14.6 1 0 0 
1 -0.5 -0.59999999999999987 -14.6 1 0 0 
1 -0.5 -7.4000000000000004 -14.6 1 0 0 
1 -0.5 -8.5999999999999996 -14.6 1 0 0 
1 -0.5 8.6000000000000014 -13.4 1 0 0 
1 -0.5 8.6000000000000014 -0.60000000000000075 1 0 0 
1 -0.5 8.6000000000000014 0.60000000000000075 1 0 0 
1 -0.5 8.6000000000000014 13.399999999999999 1 0 0 
1 -0.5 8.6000000000000014 14.600000000000001 1 0 0 
1 -0.5 7.3999999999999995 14.600000000000001 1 0 0 
1 -0.5 0.59999999999999987 14.600000000000001 1 0 0 
1 -0.5 -0.59999999999999987 14.600000000000001 1 0 0 
1 -0.5 -7.4000000000000004 14.600000000000001 1 0 0 
1 -0.5 -8.5999999999999996 14.600000000000001 1 0 0 
1 -0.5 -8.5999999999999996 -13.4 1 0 0 
1 -0.5 -8.5999999999999996 -0.60000000000000075 1 0 0 
1 -0.5 -8.5999999999999996 0.60000000000000075 1 0 0 
1 -0.5 -8.5999999999999996 13.399999999999999 1 0 0 
1 -0.5 7.3999999999999995 -13.4 1 0 0 
1 -0.5 0.59999999999999987 -13.4 1 0 0 
1 -0.5 7.3999999999999995 -0.60000000000000075 1 0 0 
1 -0.5 -0.59999999999999987 -13.4 1 0 0 
1 -0.5 -7.4000000000000004 -13.4 1 0 0 
1 -0.5 -0.59999999999999987 -0.60000000000000075 1 0 0 
1 -0.5 0.59999999999999987 -0.60000000000000075 1 0 0 
1 -0.5 -7.4000000000000004 -0.60000000000000075 1 0 0 
1 -0.5 7.3999999999999995 0.60000000000000075 1 0 0 
1 -0.5 0.59999999999999987 0.60000000000000075 1 0 0 
1 -0.5 7.3999999999999995 13.399999999999999 1 0 0 
1 -0.5 0.59999999999999987 13.399999999999999 1 0 0 
1 -0.5 -0.59999999999999987 13.399999999999999 1 0 0 
1 -0.5 -7.4000000000000004 13.399999999999999 1 0 0 
1 -0.5 -0.59999999999999987 0.60000000000000075 1 0 0 
1 -0.5 -7.4000000000000004 0.60000000000000075 1 0 0 
Polygon3D 0
PolygonOnTriangulations 0
Surfaces 48
1 -0.5 -15 -26 1 0 0 0 0 1 0 -1 0 
1 -0.5 -15 -26 1 0 0 0 0 1 0 -1 0 
1 -0.69999999999999996 -12 -21 0 0 1 1 0 0 0 1 0 
1 -0.5 7.4000000000000004 -21 1 0 0 0 0 1 0 -1 0 
1 -0.5 8.5999999999999996 -21 0 1 0 0 0 1 1 0 0 
1 -0.5 -12 -14.6 1 0 0 0 0 1 0 -1 0 
1 -0.5 -12 -14.6 0 0 1 1 0 0 0 1 0 
1 -0.69999999999999996 12 -21 0 1 0 0 0 1 1 0 0 
1 -0.5 -0.59999999999999998 -21 1 0 0 0 0 1 0 -1 0 
1 -0.5 0.59999999999999998 -21 0 1 0 0 0 1 1 0 0 
1 -0.5 7.4000000000000004 -21 0 1 0 0 0 1 1 0 0 
1 -0.5 -8.5999999999999996 -21 1 0 0 0 0 1 0 -1 0 
1 -0.5 -7.4000000000000004 -21 0 1 0 0 0 1 1 0 0 
1 -0.5 -0.59999999999999998 -21 0 1 0 0 0 1 1 0 0 
1 -0.69999999999999996 -12 -21 0 1 0 0 0 1 1 0 0 
1 -0.5 -8.5999999999999996 -21 0 1 0 0 0 1 1 0 0 
1 -0.5 -12 -13.4 0 0 1 1 0 0 0 1 0 
1 -0.5 -12 -0.59999999999999998 1 0 0 0 0 1 0 -1 0 
1 -0.5 -12 -0.59999999999999998 0 0 1 1 0 0 0 1 0 
1 -0.5 -12 0.59999999999999998 0 0 1 1 0 0 0 1 0 
1 -0.5 -12 13.4 1 0 0 0 0 1 0 -1 0 
1 -0.5 -12 13.4 0 0 1 1 0 0 0 1 0 
1 -0.5 -12 14.6 0 0 1 1 0 0 0 1 0 
1 -0.69999999999999996 -12 21 0 0 1 1 0 0 0 1 0 
1 -0.5 -15 -26 0 1 0 0 0 1 1 0 0 
1 0.5 -15 -26 1 0 0 0 0 1 0 -1 0 
1 0.5 -15 -26 1 0 0 0 0 1 0 -1 0 
1 -0.5 -15 26 0 0 1 1 0 0 0 1 0 
1 -0.5 -15 -26 0 0 1 1 0 0 0 1 0 
1 -0.5 15 -26 0 1 0 0 0 1 1 0 0 
1 -0.5 7.4000000000000004 -21 0 0 1 1 0 0 0 1 0 
1 -0.5 -0.59999999999999998 -21 0 0 1 1 0 0 0 1 0 
1 -0.5 -8.5999999999999996 -21 0 0 1 1 0 0 0 1 0 
1 -0.5 12 -14.6 0 1 0 0 0 1 1 0 0 
1 -0.5 12 -0.59999999999999998 0 1 0 0 0 1 1 0 0 
1 -0.5 12 13.4 0 1 0 0 0 1 1 0 0 
1 -0.5 7.4000000000000004 21 0 0 1 1 0 0 0 1 0 
1 -0.5 -0.59999999999999998 21 0 0 1 1 0 0 0 1 0 
1 -0.5 -8.5999999999999996 21 0 0 1 1 0 0 0 1 0 
1 -0.5 -12 -14.6 0 1 0 0 0 1 1 0 0 
1 -0.5 -12 -0.59999999999999998 0 1 0 0 0 1 1 0 0 
1 -0.5 -12 13.4 0 1 0 0 0 1 1 0 0 
1 0.5 7.4000000000000004 -21 1 0 0 0 0 1 0 -1 0 
1 0.5 -12 -14.6 1 0 0 0 0 1 0 -1 0 
1 0.5 -0.59999999999999998 -21 1 0 0 0 0 1 0 -1 0 
1 0.5 -8.5999999999999996 -21 1 0 0 0 0 1 0 -1 0 
1 0.5 -12 -0.59999999999999998 1 0 0 0 0 1 0 -1 0 
1 0.5 -12 13.4 1 0 0 0 0 1 0 -1 0 
Triangulations 0

TShapes 514
Ve
1e-07
-0.5 -15 26
0 0

0101101
*
Ve
1e-07
-0.5 -15 -26
0 0

0101101
*
Ed
 1e-07 1 1 0
1  1 0 0 52
2  1 2 0 0 52
2  2 1 2 0 52
0

0101000
-514 2 +513 2 *
Ve
1e-07
-0.5 15 -26
0 0

0101101
*
Ed
 1e-07 1 1 0
1  2 0 0 30
2  3 2 0 0 30
2  4 1 2 0 30
0

0101000
-511 2 +513 2 *
Ve
1e-07
-0.5 15 26
0 0

0101101
*
Ed
 1e-07 1 1 0
1  3 0 0 52
2  5 2 0 0 52
2  6 1 2 0 52
0

0101000
-509 2 +511 2 *
Ed
 1e-07 1 1 0
1  4 0 0 30
2  7 2 0 0 30
2  8 1 2 0 30
0

0101000
-509 2 +514 2 *
Wi

0101100
-512 1 +510 1 +508 1 -507 1 *
Ve
1.5e-07
-0.5 12 -21
0 0

0101101
*
Ve
1.50000001776357e-07
-0.5 8.6 -21
0 0

0101101
*
Ed
 1.5e-07 1 1 0
1  5 0 -25.5 -22.1
2  9 2 1 -25.5 -22.1
2  10 3 3 -25.5 -22.1
2  11 1 0 -25.5 -22.1
0

0101000
+505 0 -504 0 *
Ve
1.5e-07
-0.5 8.6 -14.6
0 0

0101101
*
Ed
 1e-07 1 1 0
1  6 0 0 6.4
2  12 4 0 0 6.4
2  13 5 0 0 6.4
2  14 1 5 0 6.4
0

0101000
+504 5 -502 5 *
Ve
1.5e-07
-0.5 12 -14.6
0 0

0101101
*
Ed
 1e-07 1 1 0
1  7 0 20.6 24
2  15 6 0 20.6 24
2  16 7 0 20.6 24
2  17 1 7 20.6 24
0

0101000
+502 7 -500 7 *
Ed
 1.5e-07 1 1 0
1  8 0 2.5 8.9
2  18 2 1 2.5 8.9
2  19 8 3 2.5 8.9
2  20 1 0 2.5 8.9
0

0101000
+505 0 -500 0 *
Wi

0101100
+503 0 +501 4 +499 6 -498 0 *
Ve
1.50000001776357e-07
-0.5 7.4 -21
0 0

0101101
*
Ve
1.50000000777156e-07
-0.5 0.6 -21
0 0

0101101
*
Ed
 1.5e-07 1 1 0
1  5 0 -20.9 -14.1
2  9 2 1 -20.9 -14.1
2  10 3 3 -20.9 -14.1
2  21 1 0 -20.9 -14.1
0

0101000
+496 0 -495 0 *
Ve
1.5e-07
-0.5 0.6 -14.6
0 0

0101101
*
Ed
 1e-07 1 1 0
1  9 0 0 6.4
2  22 9 0 0 6.4
2  23 10 0 0 6.4
2  24 1 9 0 6.4
0

0101000
+495 9 -493 9 *
Ve
1.5e-07
-0.5 7.4 -14.6
0 0

0101101
*
Ed
 1e-07 1 1 0
1  7 0 12.6 19.4
2  15 6 0 12.6 19.4
2  16 7 0 12.6 19.4
2  25 1 7 12.6 19.4
0

0101000
+493 7 -491 7 *
Ed
 1e-07 1 1 0
1  10 0 0 6.4
2  26 4 0 0 6.4
2  27 11 0 0 6.4
2  28 1 5 0 6.4
0

0101000
+496 5 -491 5 *
Wi

0101100
+494 0 +492 8 +490 6 -489 4 *
Ve
1.50000000777156e-07
-0.5 -0.6 -21
0 0

0101101
*
Ve
1.5e-07
-0.5 -7.4 -21
0 0

0101101
*
Ed
 1.5e-07 1 1 0
1  5 0 -12.9 -6.1
2  9 2 1 -12.9 -6.1
2  10 3 3 -12.9 -6.1
2  29 1 0 -12.9 -6.1
0

0101000
+487 0 -486 0 *
Ve
1.5e-07
-0.5 -7.4 -14.6
0 0

0101101
*
Ed
 1e-07 1 1 0
1  11 0 0 6.4
2  30 12 0 0 6.4
2  31 13 0 0 6.4
2  32 1 11 0 6.4
0

0101000
+486 11 -484 11 *
Ve
1.5e-07
-0.5 -0.6 -14.6
0 0

0101101
*
Ed
 1e-07 1 1 0
1  7 0 4.6 11.4
2  15 6 0 4.6 11.4
2  16 7 0 4.6 11.4
2  33 1 7 4.6 11.4
0

0101000
+484 7 -482 7 *
Ed
 1e-07 1 1 0
1  12 0 0 6.4
2  34 9 0 0 6.4
2  35 14 0 0 6.4
2  36 1 9 0 6.4
0

0101000
+487 9 -482 9 *
Wi

0101100
+485 0 +483 10 +481 6 -480 8 *
Ve
1.5e-07
-0.5 -8.6 -21
0 0

0101101
*
Ve
1.5e-07
-0.5 -12 -21
0 0

0101101
*
Ed
 1.5e-07 1 1 0
1  5 0 -4.9 -1.5
2  9 2 1 -4.9 -1.5
2  10 3 3 -4.9 -1.5
2  37 1 0 -4.9 -1.5
0

0101000
+478 0 -477 0 *
Ve
1.5e-07
-0.5 -12 -14.6
0 0

0101101
*
Ed
 1.5e-07 1 1 0
1  13 0 2.5 8.9
2  38 2 1 2.5 8.9
2  39 15 3 2.5 8.9
2  40 1 0 2.5 8.9
0

0101000
+477 0 -475 0 *
Ve
1.5e-07
-0.5 -8.6 -14.6
0 0

0101101
*
Ed
 1e-07 1 1 0
1  7 0 0 3.4
2  15 6 0 0 3.4
2  16 7 0 0 3.4
2  41 1 7 0 3.4
0

0101000
+475 7 -473 7 *
Ed
 1e-07 1 1 0
1  14 0 0 6.4
2  42 12 0 0 6.4
2  43 16 0 0 6.4
2  44 1 11 0 6.4
0

0101000
+478 11 -473 11 *
Wi

0101100
+476 0 +474 0 +472 6 -471 10 *
Ve
1.5e-07
-0.5 12 -13.4
0 0

0101101
*
Ve
1.5000000144329e-07
-0.5 12 -0.6
0 0

0101101
*
Ed
 1.5e-07 1 1 0
1  8 0 10.1 22.9
2  18 2 1 10.1 22.9
2  19 8 3 10.1 22.9
2  45 1 0 10.1 22.9
0

0101000
+469 0 -468 0 *
Ve
1.5e-07
-0.5 8.6 -13.4
0 0

0101101
*
Ed
 1e-07 1 1 0
1  15 0 20.6 24
2  46 6 0 20.6 24
2  47 17 0 20.6 24
2  48 1 7 20.6 24
0

0101000
+466 7 -469 7 *
Ve
1.5e-07
-0.5 8.6 -0.600000000000001
0 0

0101101
*
Ed
 1e-07 1 1 0
1  6 0 7.6 20.4
2  12 4 0 7.6 20.4
2  13 5 0 7.6 20.4
2  49 1 5 7.6 20.4
0

0101000
+466 5 -464 5 *
Ed
 1e-07 1 1 0
1  16 0 20.6 24
2  50 18 0 20.6 24
2  51 19 0 20.6 24
2  52 1 13 20.6 24
0

0101000
+464 13 -468 13 *
Wi

0101100
-467 0 -465 6 +463 4 +462 12 *
Ve
1.5000000144329e-07
-0.5 12 0.6
0 0

0101101
*
Ve
1.50000003552714e-07
-0.5 12 13.4
0 0

0101101
*
Ed
 1.5e-07 1 1 0
1  8 0 24.1 36.9
2  18 2 1 24.1 36.9
2  19 8 3 24.1 36.9
2  53 1 0 24.1 36.9
0

0101000
+460 0 -459 0 *
Ve
1.5e-07
-0.5 8.6 0.600000000000001
0 0

0101101
*
Ed
 1e-07 1 1 0
1  17 0 20.6 24
2  54 18 0 20.6 24
2  55 20 0 20.6 24
2  56 1 13 20.6 24
0

0101000
+457 13 -460 13 *
Ve
1.5e-07
-0.5 8.6 13.4
0 0

0101101
*
Ed
 1e-07 1 1 0
1  6 0 21.6 34.4
2  12 4 0 21.6 34.4
2  13 5 0 21.6 34.4
2  57 1 5 21.6 34.4
0

0101000
+457 5 -455 5 *
Ed
 1e-07 1 1 0
1  18 0 20.6 24
2  58 21 0 20.6 24
2  59 22 0 20.6 24
2  60 1 15 20.6 24
0

0101000
+455 15 -459 15 *
Wi

0101100
-458 0 -456 12 +454 4 +453 14 *
Ve
1.50000003552714e-07
-0.5 12 14.6
0 0

0101101
*
Ve
1.5e-07
-0.5 12 21
0 0

0101101
*
Ed
 1.5e-07 1 1 0
1  8 0 38.1 44.5
2  18 2 1 38.1 44.5
2  19 8 3 38.1 44.5
2  61 1 0 38.1 44.5
0

0101000
+451 0 -450 0 *
Ve
1.5e-07
-0.5 8.6 14.6
0 0

0101101
*
Ed
 1e-07 1 1 0
1  19 0 20.6 24
2  62 21 0 20.6 24
2  63 23 0 20.6 24
2  64 1 15 20.6 24
0

0101000
+448 15 -451 15 *
Ve
1.50000001776357e-07
-0.5 8.6 21
0 0

0101101
*
Ed
 1e-07 1 1 0
1  6 0 35.6 42
2  12 4 0 35.6 42
2  13 5 0 35.6 42
2  65 1 5 35.6 42
0

0101000
+448 5 -446 5 *
Ed
 1.5e-07 1 1 0
1  20 0 -25.5 -22.1
2  66 2 1 -25.5 -22.1
2  67 24 3 -25.5 -22.1
2  68 1 0 -25.5 -22.1
0

0101000
+450 0 -446 0 *
Wi

0101100
-449 0 -447 14 +445 4 -444 0 *
Ve
1.50000001776357e-07
-0.5 7.4 21
0 0

0101101
*
Ve
1.50000000777156e-07
-0.5 0.6 21
0 0

0101101
*
Ed
 1.5e-07 1 1 0
1  20 0 -20.9 -14.1
2  66 2 1 -20.9 -14.1
2  67 24 3 -20.9 -14.1
2  69 1 0 -20.9 -14.1
0

0101000
+442 0 -441 0 *
Ve
1.5e-07
-0.5 7.4 14.6
0 0

0101101
*
Ed
 1e-07 1 1 0
1  10 0 35.6 42
2  26 4 0 35.6 42
2  27 11 0 35.6 42
2  70 1 5 35.6 42
0

0101000
+439 5 -442 5 *
Ve
1.5e-07
-0.5 0.6 14.6
0 0

0101101
*
Ed
 1e-07 1 1 0
1  19 0 12.6 19.4
2  62 21 0 12.6 19.4
2  63 23 0 12.6 19.4
2  71 1 15 12.6 19.4
0

0101000
+437 15 -439 15 *
Ed
 1e-07 1 1 0
1  9 0 35.6 42
2  22 9 0 35.6 42
2  23 10 0 35.6 42
2  72 1 9 35.6 42
0

0101000
+437 9 -441 9 *
Wi

0101100
-440 0 -438 4 -436 14 +435 8 *
Ve
1.50000000777156e-07
-0.5 -0.6 21
0 0

0101101
*
Ve
1.5e-07
-0.5 -7.4 21
0 0

0101101
*
Ed
 1.5e-07 1 1 0
1  20 0 -12.9 -6.1
2  66 2 1 -12.9 -6.1
2  67 24 3 -12.9 -6.1
2  73 1 0 -12.9 -6.1
0

0101000
+433 0 -432 0 *
Ve
1.5e-07
-0.5 -0.6 14.6
0 0

0101101
*
Ed
 1e-07 1 1 0
1  12 0 35.6 42
2  34 9 0 35.6 42
2  35 14 0 35.6 42
2  74 1 9 35.6 42
0

0101000
+430 9 -433 9 *
Ve
1.5e-07
-0.5 -7.4 14.6
0 0

0101101
*
Ed
 1e-07 1 1 0
1  19 0 4.6 11.4
2  62 21 0 4.6 11.4
2  63 23 0 4.6 11.4
2  75 1 15 4.6 11.4
0

0101000
+428 15 -430 15 *
Ed
 1e-07 1 1 0
1  11 0 35.6 42
2  30 12 0 35.6 42
2  31 13 0 35.6 42
2  76 1 11 35.6 42
0

0101000
+428 11 -432 11 *
Wi

0101100
-431 0 -429 8 -427 14 +426 10 *
Ve
1.5e-07
-0.5 -8.6 21
0 0

0101101
*
Ve
1.5e-07
-0.5 -12 21
0 0

0101101
*
Ed
 1.5e-07 1 1 0
1  20 0 -4.9 -1.5
2  66 2 1 -4.9 -1.5
2  67 24 3 -4.9 -1.5
2  77 1 0 -4.9 -1.5
0

0101000
+424 0 -423 0 *
Ve
1.5e-07
-0.5 -8.6 14.6
0 0

0101101
*
Ed
 1e-07 1 1 0
1  14 0 35.6 42
2  42 12 0 35.6 42
2  43 16 0 35.6 42
2  78 1 11 35.6 42
0

0101000
+421 11 -424 11 *
Ve
1.50000003552714e-07
-0.5 -12 14.6
0 0

0101101
*
Ed
 1e-07 1 1 0
1  19 0 0 3.4
2  62 21 0 0 3.4
2  63 23 0 0 3.4
2  79 1 15 0 3.4
0

0101000
+419 15 -421 15 *
Ed
 1.5e-07 1 1 0
1  13 0 38.1 44.5
2  38 2 1 38.1 44.5
2  39 15 3 38.1 44.5
2  80 1 0 38.1 44.5
0

0101000
+419 0 -423 0 *
Wi

0101100
-422 0 -420 10 -418 14 +417 0 *
Ve
1.5e-07
-0.5 -12 -13.4
0 0

0101101
*
Ve
1.5000000144329e-07
-0.5 -12 -0.6
0 0

0101101
*
Ed
 1.5e-07 1 1 0
1  13 0 10.1 22.9
2  38 2 1 10.1 22.9
2  39 15 3 10.1 22.9
2  81 1 0 10.1 22.9
0

0101000
+415 0 -414 0 *
Ve
1.5e-07
-0.5 -8.6 -0.600000000000001
0 0

0101101
*
Ed
 1e-07 1 1 0
1  16 0 0 3.4
2  50 18 0 0 3.4
2  51 19 0 0 3.4
2  82 1 13 0 3.4
0

0101000
+414 13 -412 13 *
Ve
1.5e-07
-0.5 -8.6 -13.4
0 0

0101101
*
Ed
 1e-07 1 1 0
1  14 0 7.6 20.4
2  42 12 0 7.6 20.4
2  43 16 0 7.6 20.4
2  83 1 11 7.6 20.4
0

0101000
+410 11 -412 11 *
Ed
 1e-07 1 1 0
1  15 0 0 3.4
2  46 6 0 0 3.4
2  47 17 0 0 3.4
2  84 1 7 0 3.4
0

0101000
+415 7 -410 7 *
Wi

0101100
+413 0 +411 12 -409 10 -408 6 *
Ve
1.5000000144329e-07
-0.5 -12 0.6
0 0

0101101
*
Ve
1.50000003552714e-07
-0.5 -12 13.4
0 0

0101101
*
Ed
 1.5e-07 1 1 0
1  13 0 24.1 36.9
2  38 2 1 24.1 36.9
2  39 15 3 24.1 36.9
2  85 1 0 24.1 36.9
0

0101000
+406 0 -405 0 *
Ve
1.5e-07
-0.5 -8.6 13.4
0 0

0101101
*
Ed
 1e-07 1 1 0
1  18 0 0 3.4
2  58 21 0 0 3.4
2  59 22 0 0 3.4
2  86 1 15 0 3.4
0

0101000
+405 15 -403 15 *
Ve
1.5e-07
-0.5 -8.6 0.600000000000001
0 0

0101101
*
Ed
 1e-07 1 1 0
1  14 0 21.6 34.4
2  42 12 0 21.6 34.4
2  43 16 0 21.6 34.4
2  87 1 11 21.6 34.4
0

0101000
+401 11 -403 11 *
Ed
 1e-07 1 1 0
1  17 0 0 3.4
2  54 18 0 0 3.4
2  55 20 0 0 3.4
2  88 1 13 0 3.4
0

0101000
+406 13 -401 13 *
Wi

0101100
+404 0 +402 14 -400 10 -399 12 *
Ve
1.5e-07
-0.5 0.6 -13.4
0 0

0101101
*
Ve
1.5e-07
-0.5 7.4 -13.4
0 0

0101101
*
Ed
 1e-07 1 1 0
1  15 0 12.6 19.4
2  46 6 0 12.6 19.4
2  47 17 0 12.6 19.4
2  89 1 7 12.6 19.4
0

0101000
+397 7 -396 7 *
Ve
1.5e-07
-0.5 0.6 -0.600000000000001
0 0

0101101
*
Ed
 1e-07 1 1 0
1  9 0 7.6 20.4
2  22 9 0 7.6 20.4
2  23 10 0 7.6 20.4
2  90 1 9 7.6 20.4
0

0101000
+397 9 -394 9 *
Ve
1.5e-07
-0.5 7.4 -0.600000000000001
0 0

0101101
*
Ed
 1e-07 1 1 0
1  16 0 12.6 19.4
2  50 18 0 12.6 19.4
2  51 19 0 12.6 19.4
2  91 1 13 12.6 19.4
0

0101000
+394 13 -392 13 *
Ed
 1e-07 1 1 0
1  10 0 7.6 20.4
2  26 4 0 7.6 20.4
2  27 11 0 7.6 20.4
2  92 1 5 7.6 20.4
0

0101000
+396 5 -392 5 *
Wi

0101100
-395 6 +393 8 +391 12 -390 4 *
Ve
1.5e-07
-0.5 -7.4 -13.4
0 0

0101101
*
Ve
1.5e-07
-0.5 -0.6 -13.4
0 0

0101101
*
Ed
 1e-07 1 1 0
1  15 0 4.6 11.4
2  46 6 0 4.6 11.4
2  47 17 0 4.6 11.4
2  93 1 7 4.6 11.4
0

0101000
+388 7 -387 7 *
Ve
1.5e-07
-0.5 -7.4 -0.600000000000001
0 0

0101101
*
Ed
 1e-07 1 1 0
1  11 0 7.6 20.4
2  30 12 0 7.6 20.4
2  31 13 0 7.6 20.4
2  94 1 11 7.6 20.4
0

0101000
+388 11 -385 11 *
Ve
1.5e-07
-0.5 -0.6 -0.600000000000001
0 0

0101101
*
Ed
 1e-07 1 1 0
1  16 0 4.6 11.4
2  50 18 0 4.6 11.4
2  51 19 0 4.6 11.4
2  95 1 13 4.6 11.4
0

0101000
+385 13 -383 13 *
Ed
 1e-07 1 1 0
1  12 0 7.6 20.4
2  34 9 0 7.6 20.4
2  35 14 0 7.6 20.4
2  96 1 9 7.6 20.4
0

0101000
+387 9 -383 9 *
Wi

0101100
-386 6 +384 10 +382 12 -381 8 *
Ve
1.5e-07
-0.5 0.6 0.600000000000001
0 0

0101101
*
Ve
1.5e-07
-0.5 7.4 0.600000000000001
0 0

0101101
*
Ed
 1e-07 1 1 0
1  17 0 12.6 19.4
2  54 18 0 12.6 19.4
2  55 20 0 12.6 19.4
2  97 1 13 12.6 19.4
0

0101000
+379 13 -378 13 *
Ve
1.5e-07
-0.5 0.6 13.4
0 0

0101101
*
Ed
 1e-07 1 1 0
1  9 0 21.6 34.4
2  22 9 0 21.6 34.4
2  23 10 0 21.6 34.4
2  98 1 9 21.6 34.4
0

0101000
+379 9 -376 9 *
Ve
1.5e-07
-0.5 7.4 13.4
0 0

0101101
*
Ed
 1e-07 1 1 0
1  18 0 12.6 19.4
2  58 21 0 12.6 19.4
2  59 22 0 12.6 19.4
2  99 1 15 12.6 19.4
0

0101000
+376 15 -374 15 *
Ed
 1e-07 1 1 0
1  10 0 21.6 34.4
2  26 4 0 21.6 34.4
2  27 11 0 21.6 34.4
2  100 1 5 21.6 34.4
0

0101000
+378 5 -374 5 *
Wi

0101100
-377 12 +375 8 +373 14 -372 4 *
Ve
1.5e-07
-0.5 -7.4 13.4
0 0

0101101
*
Ve
1.5e-07
-0.5 -0.6 13.4
0 0

0101101
*
Ed
 1e-07 1 1 0
1  18 0 4.6 11.4
2  58 21 0 4.6 11.4
2  59 22 0 4.6 11.4
2  101 1 15 4.6 11.4
0

0101000
+370 15 -369 15 *
Ve
1.5e-07
-0.5 -0.6 0.600000000000001
0 0

0101101
*
Ed
 1e-07 1 1 0
1  12 0 21.6 34.4
2  34 9 0 21.6 34.4
2  35 14 0 21.6 34.4
2  102 1 9 21.6 34.4
0

0101000
+367 9 -369 9 *
Ve
1.5e-07
-0.5 -7.4 0.600000000000001
0 0

0101101
*
Ed
 1e-07 1 1 0
1  17 0 4.6 11.4
2  54 18 0 4.6 11.4
2  55 20 0 4.6 11.4
2  103 1 13 4.6 11.4
0

0101000
+365 13 -367 13 *
Ed
 1e-07 1 1 0
1  11 0 21.6 34.4
2  30 12 0 21.6 34.4
2  31 13 0 21.6 34.4
2  104 1 11 21.6 34.4
0

0101000
+365 11 -370 11 *
Wi

0101100
+368 14 -366 8 -364 12 +363 10 *
Fa
0  0 1 0

0101000
+506 0 +497 0 +488 0 +479 0 +470 0 +461 0 +452 0 +443 0 +434 0 +425 0 
+416 0 +407 0 +398 0 +389 0 +380 0 +371 0 +362 0 *
Ve
1e-07
0.5 -15 -26
0 0

0101101
*
Ed
 1e-07 1 1 0
1  21 0 0 1
0

0101000
-360 2 +513 2 *
Ve
1e-07
0.5 -15 26
0 0

0101101
*
Ed
 1e-07 1 1 0
1  22 0 0 52
2  105 26 0 0 52
2  106 27 2 0 52
0

0101000
-358 2 +360 2 *
Ed
 1e-07 1 1 0
1  23 0 0 1
0

0101000
-358 2 +514 2 *
Wi

0101100
-359 0 -357 0 +356 0 +512 0 *
Fa
0  1e-07 25 0

0101000
+355 0 *
Ve
1e-07
0.5 15 26
0 0

0101101
*
Ed
 1e-07 1 1 0
1  24 0 0 1
0

0101000
-353 2 +509 2 *
Ed
 1e-07 1 1 0
1  25 0 0 30
2  107 26 0 0 30
2  108 27 2 0 30
0

0101000
-353 2 +358 2 *
Wi

0101100
-507 0 -352 0 +351 0 +356 0 *
Fa
0  1e-07 28 0

0101000
+350 0 *
Ve
1e-07
0.5 15 -26
0 0

0101101
*
Ed
 1e-07 1 1 0
1  26 0 0 1
0

0101000
-348 2 +511 2 *
Ed
 1e-07 1 1 0
1  27 0 0 30
2  109 26 0 0 30
2  110 27 2 0 30
0

0101000
-348 2 +360 2 *
Wi

0101100
-510 0 -347 0 +346 0 +359 0 *
Fa
0  1e-07 29 0

0101000
+345 0 *
Ed
 1e-07 1 1 0
1  28 0 0 52
2  111 26 0 0 52
2  112 27 2 0 52
0

0101000
-353 2 +348 2 *
Wi

0101100
-347 0 -343 0 +352 0 +508 0 *
Fa
0  1e-07 30 0

0101000
+342 0 *
Ve
1.5e-07
0.5 12 -21
0 0

0101101
*
Ed
 1e-07 1 1 0
1  29 0 0.2 1.2
2  113 8 0 0.2 1.2
2  114 3 0 0.2 1.2
0

0101000
+505 16 -340 16 *
Ve
1.50000001776357e-07
0.5 8.6 -21
0 0

0101101
*
Ed
 1.5e-07 1 1 0
1  30 0 -25.5 -22.1
2  115 26 1 -25.5 -22.1
2  116 3 3 -25.5 -22.1
2  117 27 0 -25.5 -22.1
0

0101000
+340 0 -338 0 *
Ed
 1e-07 1 1 0
1  31 0 0 1
2  118 5 0 0 1
2  119 31 0 0 1
2  120 3 17 0 1
0

0101000
-338 5 +504 5 *
Wi

0101100
-339 3 -337 0 +336 4 +503 0 *
Fa
0  1e-07 3 3

0101000
+335 0 *
Ve
1.50000001776357e-07
0.5 7.4 -21
0 0

0101101
*
Ed
 1e-07 1 1 0
1  32 0 0 1
2  121 11 0 0 1
2  122 31 0 0 1
2  123 3 17 0 1
0

0101000
-333 5 +496 5 *
Ve
1.50000000777156e-07
0.5 0.6 -21
0 0

0101101
*
Ed
 1.5e-07 1 1 0
1  30 0 -20.9 -14.1
2  115 26 1 -20.9 -14.1
2  116 3 3 -20.9 -14.1
2  124 27 0 -20.9 -14.1
0

0101000
+333 0 -331 0 *
Ed
 1e-07 1 1 0
1  33 0 0 1
2  125 10 0 0 1
2  126 32 0 0 1
2  127 3 18 0 1
0

0101000
-331 9 +495 9 *
Wi

0101100
-332 4 -330 0 +329 8 +494 0 *
Fa
0  1e-07 3 3

0101000
+328 0 *
Ve
1.50000000777156e-07
0.5 -0.6 -21
0 0

0101101
*
Ed
 1e-07 1 1 0
1  34 0 0 1
2  128 14 0 0 1
2  129 32 0 0 1
2  130 3 18 0 1
0

0101000
-326 9 +487 9 *
Ve
1.5e-07
0.5 -7.4 -21
0 0

0101101
*
Ed
 1.5e-07 1 1 0
1  30 0 -12.9 -6.1
2  115 26 1 -12.9 -6.1
2  116 3 3 -12.9 -6.1
2  131 27 0 -12.9 -6.1
0

0101000
+326 0 -324 0 *
Ed
 1e-07 1 1 0
1  35 0 0 1
2  132 13 0 0 1
2  133 33 0 0 1
2  134 3 19 0 1
0

0101000
-324 11 +486 11 *
Wi

0101100
-325 8 -323 0 +322 10 +485 0 *
Fa
0  1e-07 3 3

0101000
+321 0 *
Ve
1.5e-07
0.5 -8.6 -21
0 0

0101101
*
Ed
 1e-07 1 1 0
1  36 0 0 1
2  135 16 0 0 1
2  136 33 0 0 1
2  137 3 19 0 1
0

0101000
-319 11 +478 11 *
Ve
1.5e-07
0.5 -12 -21
0 0

0101101
*
Ed
 1.5e-07 1 1 0
1  30 0 -4.9 -1.5
2  115 26 1 -4.9 -1.5
2  116 3 3 -4.9 -1.5
2  138 27 0 -4.9 -1.5
0

0101000
+319 0 -317 0 *
Ed
 1e-07 1 1 0
1  37 0 0.2 1.2
2  139 15 0 0.2 1.2
2  140 3 0 0.2 1.2
0

0101000
+477 16 -317 16 *
Wi

0101100
-318 10 -316 0 +315 3 +476 0 *
Fa
0  1e-07 3 3

0101000
+314 0 *
Ve
1.5e-07
0.5 12 -14.6
0 0

0101101
*
Ed
 1.5e-07 1 1 0
1  38 0 2.5 8.9
2  141 26 1 2.5 8.9
2  142 8 3 2.5 8.9
2  143 27 0 2.5 8.9
0

0101000
+340 0 -312 0 *
Ed
 1e-07 1 1 0
1  39 0 0 1
2  144 34 0 0 1
2  145 7 0 0 1
2  146 8 20 0 1
0

0101000
-312 7 +500 7 *
Wi

0101100
-339 3 -311 0 +310 6 +498 0 *
Fa
0  1e-07 8 3

0101000
+309 0 *
Ve
1.5e-07
0.5 12 -13.4
0 0

0101101
*
Ve
1.5000000144329e-07
0.5 12 -0.6
0 0

0101101
*
Ed
 1.5e-07 1 1 0
1  38 0 10.1 22.9
2  141 26 1 10.1 22.9
2  142 8 3 10.1 22.9
2  147 27 0 10.1 22.9
0

0101000
+307 0 -306 0 *
Ed
 1e-07 1 1 0
1  40 0 0 1
2  148 35 0 0 1
2  149 19 0 0 1
2  150 8 21 0 1
0

0101000
-306 13 +468 13 *
Ed
 1e-07 1 1 0
1  41 0 0 1
2  151 34 0 0 1
2  152 17 0 0 1
2  153 8 20 0 1
0

0101000
-307 7 +469 7 *
Wi

0101100
-305 0 +304 12 +467 0 -303 6 *
Fa
0  1e-07 8 3

0101000
+302 0 *
Ve
1.5000000144329e-07
0.5 12 0.6
0 0

0101101
*
Ve
1.50000003552714e-07
0.5 12 13.4
0 0

0101101
*
Ed
 1.5e-07 1 1 0
1  38 0 24.1 36.9
2  141 26 1 24.1 36.9
2  142 8 3 24.1 36.9
2  154 27 0 24.1 36.9
0

0101000
+300 0 -299 0 *
Ed
 1e-07 1 1 0
1  42 0 0 1
2  155 36 0 0 1
2  156 22 0 0 1
2  157 8 22 0 1
0

0101000
-299 15 +459 15 *
Ed
 1e-07 1 1 0
1  43 0 0 1
2  158 35 0 0 1
2  159 20 0 0 1
2  160 8 21 0 1
0

0101000
-300 13 +460 13 *
Wi

0101100
-298 0 +297 14 +458 0 -296 12 *
Fa
0  1e-07 8 3

0101000
+295 0 *
Ve
1.50000003552714e-07
0.5 12 14.6
0 0

0101101
*
Ve
1.5e-07
0.5 12 21
0 0

0101101
*
Ed
 1.5e-07 1 1 0
1  38 0 38.1 44.5
2  141 26 1 38.1 44.5
2  142 8 3 38.1 44.5
2  161 27 0 38.1 44.5
0

0101000
+293 0 -292 0 *
Ed
 1e-07 1 1 0
1  44 0 0.2 1.2
2  162 8 0 0.2 1.2
2  163 24 0 0.2 1.2
0

0101000
+450 16 -292 16 *
Ed
 1e-07 1 1 0
1  45 0 0 1
2  164 36 0 0 1
2  165 23 0 0 1
2  166 8 22 0 1
0

0101000
-293 15 +451 15 *
Wi

0101100
-291 0 +290 3 +449 0 -289 14 *
Fa
0  1e-07 8 3

0101000
+288 0 *
Ve
1.50000001776357e-07
0.5 8.6 21
0 0

0101101
*
Ed
 1.5e-07 1 1 0
1  46 0 -25.5 -22.1
2  167 26 1 -25.5 -22.1
2  168 24 3 -25.5 -22.1
2  169 27 0 -25.5 -22.1
0

0101000
+292 0 -286 0 *
Ed
 1e-07 1 1 0
1  47 0 0 1
2  170 5 0 0 1
2  171 37 0 0 1
2  172 24 17 0 1
0

0101000
-286 5 +446 5 *
Wi

0101100
-290 3 -285 0 +284 4 +444 0 *
Fa
0  1e-07 24 3

0101000
+283 0 *
Ve
1.50000001776357e-07
0.5 7.4 21
0 0

0101101
*
Ed
 1e-07 1 1 0
1  48 0 0 1
2  173 11 0 0 1
2  174 37 0 0 1
2  175 24 17 0 1
0

0101000
-281 5 +442 5 *
Ve
1.50000000777156e-07
0.5 0.6 21
0 0

0101101
*
Ed
 1.5e-07 1 1 0
1  46 0 -20.9 -14.1
2  167 26 1 -20.9 -14.1
2  168 24 3 -20.9 -14.1
2  176 27 0 -20.9 -14.1
0

0101000
+281 0 -279 0 *
Ed
 1e-07 1 1 0
1  49 0 0 1
2  177 10 0 0 1
2  178 38 0 0 1
2  179 24 18 0 1
0

0101000
-279 9 +441 9 *
Wi

0101100
-280 4 -278 0 +277 8 +440 0 *
Fa
0  1e-07 24 3

0101000
+276 0 *
Ve
1.50000000777156e-07
0.5 -0.6 21
0 0

0101101
*
Ed
 1e-07 1 1 0
1  50 0 0 1
2  180 14 0 0 1
2  181 38 0 0 1
2  182 24 18 0 1
0

0101000
-274 9 +433 9 *
Ve
1.5e-07
0.5 -7.4 21
0 0

0101101
*
Ed
 1.5e-07 1 1 0
1  46 0 -12.9 -6.1
2  167 26 1 -12.9 -6.1
2  168 24 3 -12.9 -6.1
2  183 27 0 -12.9 -6.1
0

0101000
+274 0 -272 0 *
Ed
 1e-07 1 1 0
1  51 0 0 1
2  184 13 0 0 1
2  185 39 0 0 1
2  186 24 19 0 1
0

0101000
-272 11 +432 11 *
Wi

0101100
-273 8 -271 0 +270 10 +431 0 *
Fa
0  1e-07 24 3

0101000
+269 0 *
Ve
1.5e-07
0.5 -8.6 21
0 0

0101101
*
Ed
 1e-07 1 1 0
1  52 0 0 1
2  187 16 0 0 1
2  188 39 0 0 1
2  189 24 19 0 1
0

0101000
-267 11 +424 11 *
Ve
1.5e-07
0.5 -12 21
0 0

0101101
*
Ed
 1.5e-07 1 1 0
1  46 0 -4.9 -1.5
2  167 26 1 -4.9 -1.5
2  168 24 3 -4.9 -1.5
2  190 27 0 -4.9 -1.5
0

0101000
+267 0 -265 0 *
Ed
 1e-07 1 1 0
1  53 0 0.2 1.2
2  191 15 0 0.2 1.2
2  192 24 0 0.2 1.2
0

0101000
+423 16 -265 16 *
Wi

0101100
-266 10 -264 0 +263 3 +422 0 *
Fa
0  1e-07 24 3

0101000
+262 0 *
Ve
1.5e-07
0.5 -12 -14.6
0 0

0101101
*
Ed
 1.5e-07 1 1 0
1  54 0 2.5 8.9
2  193 26 1 2.5 8.9
2  194 15 3 2.5 8.9
2  195 27 0 2.5 8.9
0

0101000
+317 0 -260 0 *
Ed
 1e-07 1 1 0
1  55 0 0 1
2  196 7 0 0 1
2  197 40 0 0 1
2  198 15 20 0 1
0

0101000
-260 7 +475 7 *
Wi

0101100
-315 3 -259 0 +258 6 +474 0 *
Fa
0  1e-07 15 3

0101000
+257 0 *
Ve
1.5e-07
0.5 -12 -13.4
0 0

0101101
*
Ve
1.5000000144329e-07
0.5 -12 -0.6
0 0

0101101
*
Ed
 1.5e-07 1 1 0
1  54 0 10.1 22.9
2  193 26 1 10.1 22.9
2  194 15 3 10.1 22.9
2  199 27 0 10.1 22.9
0

0101000
+255 0 -254 0 *
Ed
 1e-07 1 1 0
1  56 0 0 1
2  200 19 0 0 1
2  201 41 0 0 1
2  202 15 21 0 1
0

0101000
-254 13 +414 13 *
Ed
 1e-07 1 1 0
1  57 0 0 1
2  203 17 0 0 1
2  204 40 0 0 1
2  205 15 20 0 1
0

0101000
-255 7 +415 7 *
Wi

0101100
-253 0 +252 12 +413 0 -251 6 *
Fa
0  1e-07 15 3

0101000
+250 0 *
Ve
1.5000000144329e-07
0.5 -12 0.6
0 0

0101101
*
Ve
1.50000003552714e-07
0.5 -12 13.4
0 0

0101101
*
Ed
 1.5e-07 1 1 0
1  54 0 24.1 36.9
2  193 26 1 24.1 36.9
2  194 15 3 24.1 36.9
2  206 27 0 24.1 36.9
0

0101000
+248 0 -247 0 *
Ed
 1e-07 1 1 0
1  58 0 0 1
2  207 22 0 0 1
2  208 42 0 0 1
2  209 15 22 0 1
0

0101000
-247 15 +405 15 *
Ed
 1e-07 1 1 0
1  59 0 0 1
2  210 20 0 0 1
2  211 41 0 0 1
2  212 15 21 0 1
0

0101000
-248 13 +406 13 *
Wi

0101100
-246 0 +245 14 +404 0 -244 12 *
Fa
0  1e-07 15 3

0101000
+243 0 *
Ve
1.50000003552714e-07
0.5 -12 14.6
0 0

0101101
*
Ed
 1.5e-07 1 1 0
1  54 0 38.1 44.5
2  193 26 1 38.1 44.5
2  194 15 3 38.1 44.5
2  213 27 0 38.1 44.5
0

0101000
+241 0 -265 0 *
Ed
 1e-07 1 1 0
1  60 0 0 1
2  214 23 0 0 1
2  215 42 0 0 1
2  216 15 22 0 1
0

0101000
-241 15 +419 15 *
Wi

0101100
-240 0 +263 3 +417 0 -239 14 *
Fa
0  1e-07 15 3

0101000
+238 0 *
Wi

0101100
-357 1 +346 1 +343 1 -351 1 *
Ve
1.5e-07
0.5 8.6 -14.6
0 0

0101101
*
Ed
 1e-07 1 1 0
1  61 0 0 6.4
2  217 5 0 0 6.4
2  218 43 0 0 6.4
2  219 27 5 0 6.4
0

0101000
+338 5 -235 5 *
Ed
 1e-07 1 1 0
1  62 0 20.6 24
2  220 7 0 20.6 24
2  221 44 0 20.6 24
2  222 27 7 20.6 24
0

0101000
+235 7 -312 7 *
Wi

0101100
+337 0 +234 4 +233 6 -311 0 *
Ve
1.5e-07
0.5 0.6 -14.6
0 0

0101101
*
Ed
 1e-07 1 1 0
1  63 0 0 6.4
2  223 10 0 0 6.4
2  224 45 0 0 6.4
2  225 27 9 0 6.4
0

0101000
+331 9 -231 9 *
Ve
1.5e-07
0.5 7.4 -14.6
0 0

0101101
*
Ed
 1e-07 1 1 0
1  62 0 12.6 19.4
2  220 7 0 12.6 19.4
2  221 44 0 12.6 19.4
2  226 27 7 12.6 19.4
0

0101000
+231 7 -229 7 *
Ed
 1e-07 1 1 0
1  64 0 0 6.4
2  227 11 0 0 6.4
2  228 43 0 0 6.4
2  229 27 5 0 6.4
0

0101000
+333 5 -229 5 *
Wi

0101100
+330 0 +230 8 +228 6 -227 4 *
Ve
1.5e-07
0.5 -7.4 -14.6
0 0

0101101
*
Ed
 1e-07 1 1 0
1  65 0 0 6.4
2  230 13 0 0 6.4
2  231 46 0 0 6.4
2  232 27 11 0 6.4
0

0101000
+324 11 -225 11 *
Ve
1.5e-07
0.5 -0.6 -14.6
0 0

0101101
*
Ed
 1e-07 1 1 0
1  62 0 4.6 11.4
2  220 7 0 4.6 11.4
2  221 44 0 4.6 11.4
2  233 27 7 4.6 11.4
0

0101000
+225 7 -223 7 *
Ed
 1e-07 1 1 0
1  66 0 0 6.4
2  234 14 0 0 6.4
2  235 45 0 0 6.4
2  236 27 9 0 6.4
0

0101000
+326 9 -223 9 *
Wi

0101100
+323 0 +224 10 +222 6 -221 8 *
Ve
1.5e-07
0.5 -8.6 -14.6
0 0

0101101
*
Ed
 1e-07 1 1 0
1  62 0 0 3.4
2  220 7 0 0 3.4
2  221 44 0 0 3.4
2  237 27 7 0 3.4
0

0101000
+260 7 -219 7 *
Ed
 1e-07 1 1 0
1  67 0 0 6.4
2  238 16 0 0 6.4
2  239 46 0 0 6.4
2  240 27 11 0 6.4
0

0101000
+319 11 -219 11 *
Wi

0101100
+316 0 +259 0 +218 6 -217 10 *
Ve
1.5e-07
0.5 8.6 -13.4
0 0

0101101
*
Ed
 1e-07 1 1 0
1  68 0 20.6 24
2  241 17 0 20.6 24
2  242 44 0 20.6 24
2  243 27 7 20.6 24
0

0101000
+215 7 -307 7 *
Ve
1.5e-07
0.5 8.6 -0.600000000000001
0 0

0101101
*
Ed
 1e-07 1 1 0
1  61 0 7.6 20.4
2  217 5 0 7.6 20.4
2  218 43 0 7.6 20.4
2  244 27 5 7.6 20.4
0

0101000
+215 5 -213 5 *
Ed
 1e-07 1 1 0
1  69 0 20.6 24
2  245 19 0 20.6 24
2  246 47 0 20.6 24
2  247 27 13 20.6 24
0

0101000
+213 13 -306 13 *
Wi

0101100
-305 0 -214 6 +212 4 +211 12 *
Ve
1.5e-07
0.5 8.6 0.600000000000001
0 0

0101101
*
Ed
 1e-07 1 1 0
1  70 0 20.6 24
2  248 20 0 20.6 24
2  249 47 0 20.6 24
2  250 27 13 20.6 24
0

0101000
+209 13 -300 13 *
Ve
1.5e-07
0.5 8.6 13.4
0 0

0101101
*
Ed
 1e-07 1 1 0
1  61 0 21.6 34.4
2  217 5 0 21.6 34.4
2  218 43 0 21.6 34.4
2  251 27 5 21.6 34.4
0

0101000
+209 5 -207 5 *
Ed
 1e-07 1 1 0
1  71 0 20.6 24
2  252 22 0 20.6 24
2  253 48 0 20.6 24
2  254 27 15 20.6 24
0

0101000
+207 15 -299 15 *
Wi

0101100
-298 0 -208 12 +206 4 +205 14 *
Ve
1.5e-07
0.5 8.6 14.6
0 0

0101101
*
Ed
 1e-07 1 1 0
1  72 0 20.6 24
2  255 23 0 20.6 24
2  256 48 0 20.6 24
2  257 27 15 20.6 24
0

0101000
+203 15 -293 15 *
Ed
 1e-07 1 1 0
1  61 0 35.6 42
2  217 5 0 35.6 42
2  218 43 0 35.6 42
2  258 27 5 35.6 42
0

0101000
+203 5 -286 5 *
Wi

0101100
-291 0 -202 14 +201 4 -285 0 *
Ve
1.5e-07
0.5 7.4 14.6
0 0

0101101
*
Ed
 1e-07 1 1 0
1  64 0 35.6 42
2  227 11 0 35.6 42
2  228 43 0 35.6 42
2  259 27 5 35.6 42
0

0101000
+199 5 -281 5 *
Ve
1.5e-07
0.5 0.6 14.6
0 0

0101101
*
Ed
 1e-07 1 1 0
1  72 0 12.6 19.4
2  255 23 0 12.6 19.4
2  256 48 0 12.6 19.4
2  260 27 15 12.6 19.4
0

0101000
+197 15 -199 15 *
Ed
 1e-07 1 1 0
1  63 0 35.6 42
2  223 10 0 35.6 42
2  224 45 0 35.6 42
2  261 27 9 35.6 42
0

0101000
+197 9 -279 9 *
Wi

0101100
-278 0 -198 4 -196 14 +195 8 *
Ve
1.5e-07
0.5 -0.6 14.6
0 0

0101101
*
Ed
 1e-07 1 1 0
1  66 0 35.6 42
2  234 14 0 35.6 42
2  235 45 0 35.6 42
2  262 27 9 35.6 42
0

0101000
+193 9 -274 9 *
Ve
1.5e-07
0.5 -7.4 14.6
0 0

0101101
*
Ed
 1e-07 1 1 0
1  72 0 4.6 11.4
2  255 23 0 4.6 11.4
2  256 48 0 4.6 11.4
2  263 27 15 4.6 11.4
0

0101000
+191 15 -193 15 *
Ed
 1e-07 1 1 0
1  65 0 35.6 42
2  230 13 0 35.6 42
2  231 46 0 35.6 42
2  264 27 11 35.6 42
0

0101000
+191 11 -272 11 *
Wi

0101100
-271 0 -192 8 -190 14 +189 10 *
Ve
1.5e-07
0.5 -8.6 14.6
0 0

0101101
*
Ed
 1e-07 1 1 0
1  67 0 35.6 42
2  238 16 0 35.6 42
2  239 46 0 35.6 42
2  265 27 11 35.6 42
0

0101000
+187 11 -267 11 *
Ed
 1e-07 1 1 0
1  72 0 0 3.4
2  255 23 0 0 3.4
2  256 48 0 0 3.4
2  266 27 15 0 3.4
0

0101000
+241 15 -187 15 *
Wi

0101100
-264 0 -186 10 -185 14 +240 0 *
Ve
1.5e-07
0.5 -8.6 -0.600000000000001
0 0

0101101
*
Ed
 1e-07 1 1 0
1  69 0 0 3.4
2  245 19 0 0 3.4
2  246 47 0 0 3.4
2  267 27 13 0 3.4
0

0101000
+254 13 -183 13 *
Ve
1.5e-07
0.5 -8.6 -13.4
0 0

0101101
*
Ed
 1e-07 1 1 0
1  67 0 7.6 20.4
2  238 16 0 7.6 20.4
2  239 46 0 7.6 20.4
2  268 27 11 7.6 20.4
0

0101000
+181 11 -183 11 *
Ed
 1e-07 1 1 0
1  68 0 0 3.4
2  241 17 0 0 3.4
2  242 44 0 0 3.4
2  269 27 7 0 3.4
0

0101000
+255 7 -181 7 *
Wi

0101100
+253 0 +182 12 -180 10 -179 6 *
Ve
1.5e-07
0.5 -8.6 13.4
0 0

0101101
*
Ed
 1e-07 1 1 0
1  71 0 0 3.4
2  252 22 0 0 3.4
2  253 48 0 0 3.4
2  270 27 15 0 3.4
0

0101000
+247 15 -177 15 *
Ve
1.5e-07
0.5 -8.6 0.600000000000001
0 0

0101101
*
Ed
 1e-07 1 1 0
1  67 0 21.6 34.4
2  238 16 0 21.6 34.4
2  239 46 0 21.6 34.4
2  271 27 11 21.6 34.4
0

0101000
+175 11 -177 11 *
Ed
 1e-07 1 1 0
1  70 0 0 3.4
2  248 20 0 0 3.4
2  249 47 0 0 3.4
2  272 27 13 0 3.4
0

0101000
+248 13 -175 13 *
Wi

0101100
+246 0 +176 14 -174 10 -173 12 *
Ve
1.5e-07
0.5 0.6 -13.4
0 0

0101101
*
Ve
1.5e-07
0.5 7.4 -13.4
0 0

0101101
*
Ed
 1e-07 1 1 0
1  68 0 12.6 19.4
2  241 17 0 12.6 19.4
2  242 44 0 12.6 19.4
2  273 27 7 12.6 19.4
0

0101000
+171 7 -170 7 *
Ve
1.5e-07
0.5 0.6 -0.600000000000001
0 0

0101101
*
Ed
 1e-07 1 1 0
1  63 0 7.6 20.4
2  223 10 0 7.6 20.4
2  224 45 0 7.6 20.4
2  274 27 9 7.6 20.4
0

0101000
+171 9 -168 9 *
Ve
1.5e-07
0.5 7.4 -0.600000000000001
0 0

0101101
*
Ed
 1e-07 1 1 0
1  69 0 12.6 19.4
2  245 19 0 12.6 19.4
2  246 47 0 12.6 19.4
2  275 27 13 12.6 19.4
0

0101000
+168 13 -166 13 *
Ed
 1e-07 1 1 0
1  64 0 7.6 20.4
2  227 11 0 7.6 20.4
2  228 43 0 7.6 20.4
2  276 27 5 7.6 20.4
0

0101000
+170 5 -166 5 *
Wi

0101100
-169 6 +167 8 +165 12 -164 4 *
Ve
1.5e-07
0.5 -7.4 -13.4
0 0

0101101
*
Ve
1.5e-07
0.5 -0.6 -13.4
0 0

0101101
*
Ed
 1e-07 1 1 0
1  68 0 4.6 11.4
2  241 17 0 4.6 11.4
2  242 44 0 4.6 11.4
2  277 27 7 4.6 11.4
0

0101000
+162 7 -161 7 *
Ve
1.5e-07
0.5 -7.4 -0.600000000000001
0 0

0101101
*
Ed
 1e-07 1 1 0
1  65 0 7.6 20.4
2  230 13 0 7.6 20.4
2  231 46 0 7.6 20.4
2  278 27 11 7.6 20.4
0

0101000
+162 11 -159 11 *
Ve
1.5e-07
0.5 -0.6 -0.600000000000001
0 0

0101101
*
Ed
 1e-07 1 1 0
1  69 0 4.6 11.4
2  245 19 0 4.6 11.4
2  246 47 0 4.6 11.4
2  279 27 13 4.6 11.4
0

0101000
+159 13 -157 13 *
Ed
 1e-07 1 1 0
1  66 0 7.6 20.4
2  234 14 0 7.6 20.4
2  235 45 0 7.6 20.4
2  280 27 9 7.6 20.4
0

0101000
+161 9 -157 9 *
Wi

0101100
-160 6 +158 10 +156 12 -155 8 *
Ve
1.5e-07
0.5 0.6 0.600000000000001
0 0

0101101
*
Ve
1.5e-07
0.5 7.4 0.600000000000001
0 0

0101101
*
Ed
 1e-07 1 1 0
1  70 0 12.6 19.4
2  248 20 0 12.6 19.4
2  249 47 0 12.6 19.4
2  281 27 13 12.6 19.4
0

0101000
+153 13 -152 13 *
Ve
1.5e-07
0.5 0.6 13.4
0 0

0101101
*
Ed
 1e-07 1 1 0
1  63 0 21.6 34.4
2  223 10 0 21.6 34.4
2  224 45 0 21.6 34.4
2  282 27 9 21.6 34.4
0

0101000
+153 9 -150 9 *
Ve
1.5e-07
0.5 7.4 13.4
0 0

0101101
*
Ed
 1e-07 1 1 0
1  71 0 12.6 19.4
2  252 22 0 12.6 19.4
2  253 48 0 12.6 19.4
2  283 27 15 12.6 19.4
0

0101000
+150 15 -148 15 *
Ed
 1e-07 1 1 0
1  64 0 21.6 34.4
2  227 11 0 21.6 34.4
2  228 43 0 21.6 34.4
2  284 27 5 21.6 34.4
0

0101000
+152 5 -148 5 *
Wi

0101100
-151 12 +149 8 +147 14 -146 4 *
Ve
1.5e-07
0.5 -7.4 13.4
0 0

0101101
*
Ve
1.5e-07
0.5 -0.6 13.4
0 0

0101101
*
Ed
 1e-07 1 1 0
1  71 0 4.6 11.4
2  252 22 0 4.6 11.4
2  253 48 0 4.6 11.4
2  285 27 15 4.6 11.4
0

0101000
+144 15 -143 15 *
Ve
1.5e-07
0.5 -0.6 0.600000000000001
0 0

0101101
*
Ed
 1e-07 1 1 0
1  66 0 21.6 34.4
2  234 14 0 21.6 34.4
2  235 45 0 21.6 34.4
2  286 27 9 21.6 34.4
0

0101000
+141 9 -143 9 *
Ve
1.5e-07
0.5 -7.4 0.600000000000001
0 0

0101101
*
Ed
 1e-07 1 1 0
1  70 0 4.6 11.4
2  248 20 0 4.6 11.4
2  249 47 0 4.6 11.4
2  287 27 13 4.6 11.4
0

0101000
+139 13 -141 13 *
Ed
 1e-07 1 1 0
1  65 0 21.6 34.4
2  230 13 0 21.6 34.4
2  231 46 0 21.6 34.4
2  288 27 11 21.6 34.4
0

0101000
+139 11 -144 11 *
Wi

0101100
+142 14 -140 8 -138 12 +137 10 *
Fa
0  0 27 0

0101000
+236 0 +232 0 +226 0 +220 0 +216 0 +210 0 +204 0 +200 0 +194 0 +188 0 
+184 0 +178 0 +172 0 +163 0 +154 0 +145 0 +136 0 *
Ed
 1.5e-07 1 1 0
1  73 0 0 1
2  289 5 4 0 1
2  290 7 6 0 1
0

0101000
+502 0 -235 0 *
Wi

0101100
-234 4 +134 0 +501 4 -336 4 *
Fa
0  1e-07 5 4

0101000
+133 0 *
Ed
 1.5e-07 1 1 0
1  74 0 0 1
2  291 11 4 0 1
2  292 7 6 0 1
0

0101000
+491 0 -229 0 *
Wi

0101100
-227 4 +131 0 +489 4 -332 4 *
Fa
0  1e-07 11 4

0101000
+130 0 *
Ed
 1.5e-07 1 1 0
1  75 0 0 1
2  293 10 8 0 1
2  294 7 6 0 1
0

0101000
+493 0 -231 0 *
Wi

0101100
-230 8 +128 0 +492 8 -329 8 *
Fa
0  1e-07 10 8

0101000
+127 0 *
Ed
 1.5e-07 1 1 0
1  76 0 0 1
2  295 14 8 0 1
2  296 7 6 0 1
0

0101000
+482 0 -223 0 *
Wi

0101100
-221 8 +125 0 +480 8 -325 8 *
Fa
0  1e-07 14 8

0101000
+124 0 *
Ed
 1.5e-07 1 1 0
1  77 0 0 1
2  297 13 10 0 1
2  298 7 6 0 1
0

0101000
+484 0 -225 0 *
Wi

0101100
-224 10 +122 0 +483 10 -322 10 *
Fa
0  1e-07 13 10

0101000
+121 0 *
Ed
 1.5e-07 1 1 0
1  78 0 0 1
2  299 16 10 0 1
2  300 7 6 0 1
0

0101000
+473 0 -219 0 *
Wi

0101100
-217 10 +119 0 +471 10 -318 10 *
Fa
0  1e-07 16 10

0101000
+118 0 *
Wi

0101100
-499 6 -310 6 +233 6 +134 0 *
Fa
0  1e-07 7 6

0101000
+116 0 *
Ed
 1.5e-07 1 1 0
1  79 0 0 1
2  301 5 4 0 1
2  302 17 6 0 1
0

0101000
+466 0 -215 0 *
Wi

0101100
-465 6 -303 6 +214 6 +114 0 *
Fa
0  1e-07 17 6

0101000
+113 0 *
Ed
 1.5e-07 1 1 0
1  80 0 0 1
2  303 5 4 0 1
2  304 19 12 0 1
0

0101000
+464 0 -213 0 *
Wi

0101100
-462 12 -304 12 +211 12 +111 0 *
Fa
0  1e-07 19 12

0101000
+110 0 *
Ed
 1.5e-07 1 1 0
1  81 0 0 1
2  305 5 4 0 1
2  306 20 12 0 1
0

0101000
+457 0 -209 0 *
Wi

0101100
-456 12 -296 12 +208 12 +108 0 *
Fa
0  1e-07 20 12

0101000
+107 0 *
Ed
 1.5e-07 1 1 0
1  82 0 0 1
2  307 5 4 0 1
2  308 22 14 0 1
0

0101000
+455 0 -207 0 *
Wi

0101100
-453 14 -297 14 +205 14 +105 0 *
Fa
0  1e-07 22 14

0101000
+104 0 *
Ed
 1.5e-07 1 1 0
1  83 0 0 1
2  309 5 4 0 1
2  310 23 14 0 1
0

0101000
+448 0 -203 0 *
Wi

0101100
-447 14 -289 14 +202 14 +102 0 *
Fa
0  1e-07 23 14

0101000
+101 0 *
Wi

0101100
-201 4 +284 4 +445 4 -102 0 *
Fa
0  1e-07 5 4

0101000
+99 0 *
Ed
 1.5e-07 1 1 0
1  84 0 0 1
2  311 11 4 0 1
2  312 23 14 0 1
0

0101000
+439 0 -199 0 *
Wi

0101100
-198 4 +280 4 +438 4 -97 0 *
Fa
0  1e-07 11 4

0101000
+96 0 *
Ed
 1.5e-07 1 1 0
1  85 0 0 1
2  313 10 8 0 1
2  314 23 14 0 1
0

0101000
+437 0 -197 0 *
Wi

0101100
-195 8 +277 8 +435 8 -94 0 *
Fa
0  1e-07 10 8

0101000
+93 0 *
Ed
 1.5e-07 1 1 0
1  86 0 0 1
2  315 14 8 0 1
2  316 23 14 0 1
0

0101000
+430 0 -193 0 *
Wi

0101100
-192 8 +273 8 +429 8 -91 0 *
Fa
0  1e-07 14 8

0101000
+90 0 *
Ed
 1.5e-07 1 1 0
1  87 0 0 1
2  317 13 10 0 1
2  318 23 14 0 1
0

0101000
+428 0 -191 0 *
Wi

0101100
-189 10 +270 10 +426 10 -88 0 *
Fa
0  1e-07 13 10

0101000
+87 0 *
Ed
 1.5e-07 1 1 0
1  88 0 0 1
2  319 16 10 0 1
2  320 23 14 0 1
0

0101000
+421 0 -187 0 *
Wi

0101100
-186 10 +266 10 +420 10 -85 0 *
Fa
0  1e-07 16 10

0101000
+84 0 *
Wi

0101100
-472 6 -119 0 +218 6 +258 6 *
Fa
0  1e-07 7 6

0101000
+82 0 *
Ed
 1.5e-07 1 1 0
1  89 0 0 1
2  321 16 10 0 1
2  322 17 6 0 1
0

0101000
+410 0 -181 0 *
Wi

0101100
-408 6 -80 0 +179 6 +251 6 *
Fa
0  1e-07 17 6

0101000
+79 0 *
Ed
 1.5e-07 1 1 0
1  90 0 0 1
2  323 16 10 0 1
2  324 19 12 0 1
0

0101000
+412 0 -183 0 *
Wi

0101100
-411 12 -77 0 +182 12 +252 12 *
Fa
0  1e-07 19 12

0101000
+76 0 *
Ed
 1.5e-07 1 1 0
1  91 0 0 1
2  325 16 10 0 1
2  326 20 12 0 1
0

0101000
+401 0 -175 0 *
Wi

0101100
-399 12 -74 0 +173 12 +244 12 *
Fa
0  1e-07 20 12

0101000
+73 0 *
Ed
 1.5e-07 1 1 0
1  92 0 0 1
2  327 16 10 0 1
2  328 22 14 0 1
0

0101000
+403 0 -177 0 *
Wi

0101100
-402 14 -71 0 +176 14 +245 14 *
Fa
0  1e-07 22 14

0101000
+70 0 *
Wi

0101100
-418 14 -85 0 +185 14 +239 14 *
Fa
0  1e-07 23 14

0101000
+68 0 *
Wi

0101100
-490 6 -131 0 +228 6 +128 0 *
Fa
0  1e-07 7 6

0101000
+66 0 *
Wi

0101100
-481 6 -125 0 +222 6 +122 0 *
Fa
0  1e-07 7 6

0101000
+64 0 *
Wi

0101100
-212 4 +111 0 +463 4 -114 0 *
Fa
0  1e-07 5 4

0101000
+62 0 *
Wi

0101100
-206 4 +105 0 +454 4 -108 0 *
Fa
0  1e-07 5 4

0101000
+60 0 *
Wi

0101100
-436 14 -97 0 +196 14 +94 0 *
Fa
0  1e-07 23 14

0101000
+58 0 *
Wi

0101100
-427 14 -91 0 +190 14 +88 0 *
Fa
0  1e-07 23 14

0101000
+56 0 *
Wi

0101100
-180 10 +77 0 +409 10 -80 0 *
Fa
0  1e-07 16 10

0101000
+54 0 *
Wi

0101100
-174 10 +71 0 +400 10 -74 0 *
Fa
0  1e-07 16 10

0101000
+52 0 *
Ed
 1.5e-07 1 1 0
1  93 0 0 1
2  329 11 4 0 1
2  330 17 6 0 1
0

0101000
+396 0 -170 0 *
Ed
 1.5e-07 1 1 0
1  94 0 0 1
2  331 10 8 0 1
2  332 17 6 0 1
0

0101000
+397 0 -171 0 *
Wi

0101100
-395 6 -50 0 +169 6 +49 0 *
Fa
0  1e-07 17 6

0101000
+48 0 *
Ed
 1.5e-07 1 1 0
1  95 0 0 1
2  333 11 4 0 1
2  334 19 12 0 1
0

0101000
+392 0 -166 0 *
Wi

0101100
-164 4 +46 0 +390 4 -50 0 *
Fa
0  1e-07 11 4

0101000
+45 0 *
Ed
 1.5e-07 1 1 0
1  96 0 0 1
2  335 14 8 0 1
2  336 17 6 0 1
0

0101000
+387 0 -161 0 *
Ed
 1.5e-07 1 1 0
1  97 0 0 1
2  337 13 10 0 1
2  338 17 6 0 1
0

0101000
+388 0 -162 0 *
Wi

0101100
-386 6 -43 0 +160 6 +42 0 *
Fa
0  1e-07 17 6

0101000
+41 0 *
Ed
 1.5e-07 1 1 0
1  98 0 0 1
2  339 14 8 0 1
2  340 19 12 0 1
0

0101000
+383 0 -157 0 *
Wi

0101100
-155 8 +39 0 +381 8 -43 0 *
Fa
0  1e-07 14 8

0101000
+38 0 *
Ed
 1.5e-07 1 1 0
1  99 0 0 1
2  341 10 8 0 1
2  342 19 12 0 1
0

0101000
+394 0 -168 0 *
Wi

0101100
-167 8 +36 0 +393 8 -49 0 *
Fa
0  1e-07 10 8

0101000
+35 0 *
Ed
 1.5e-07 1 1 0
1  100 0 0 1
2  343 13 10 0 1
2  344 19 12 0 1
0

0101000
+385 0 -159 0 *
Wi

0101100
-158 10 +33 0 +384 10 -42 0 *
Fa
0  1e-07 13 10

0101000
+32 0 *
Ed
 1.5e-07 1 1 0
1  101 0 0 1
2  345 11 4 0 1
2  346 20 12 0 1
0

0101000
+378 0 -152 0 *
Ed
 1.5e-07 1 1 0
1  102 0 0 1
2  347 10 8 0 1
2  348 20 12 0 1
0

0101000
+379 0 -153 0 *
Wi

0101100
-377 12 -30 0 +151 12 +29 0 *
Fa
0  1e-07 20 12

0101000
+28 0 *
Wi

0101100
-391 12 -46 0 +165 12 +36 0 *
Fa
0  1e-07 19 12

0101000
+26 0 *
Ed
 1.5e-07 1 1 0
1  103 0 0 1
2  349 11 4 0 1
2  350 22 14 0 1
0

0101000
+374 0 -148 0 *
Wi

0101100
-146 4 +24 0 +372 4 -30 0 *
Fa
0  1e-07 11 4

0101000
+23 0 *
Ed
 1.5e-07 1 1 0
1  104 0 0 1
2  351 10 8 0 1
2  352 22 14 0 1
0

0101000
+376 0 -150 0 *
Wi

0101100
-373 14 -24 0 +147 14 +21 0 *
Fa
0  1e-07 22 14

0101000
+20 0 *
Ed
 1.5e-07 1 1 0
1  105 0 0 1
2  353 14 8 0 1
2  354 22 14 0 1
0

0101000
+369 0 -143 0 *
Ed
 1.5e-07 1 1 0
1  106 0 0 1
2  355 13 10 0 1
2  356 22 14 0 1
0

0101000
+370 0 -144 0 *
Wi

0101100
-368 14 -18 0 +142 14 +17 0 *
Fa
0  1e-07 22 14

0101000
+16 0 *
Ed
 1.5e-07 1 1 0
1  107 0 0 1
2  357 14 8 0 1
2  358 20 12 0 1
0

0101000
+367 0 -141 0 *
Wi

0101100
-140 8 +18 0 +366 8 -14 0 *
Fa
0  1e-07 14 8

0101000
+13 0 *
Wi

0101100
-149 8 +21 0 +375 8 -29 0 *
Fa
0  1e-07 10 8

0101000
+11 0 *
Ed
 1.5e-07 1 1 0
1  108 0 0 1
2  359 13 10 0 1
2  360 20 12 0 1
0

0101000
+365 0 -139 0 *
Wi

0101100
-137 10 +17 0 +363 10 -9 0 *
Fa
0  1e-07 13 10

0101000
+8 0 *
Wi

0101100
-364 12 -14 0 +138 12 +9 0 *
Fa
0  1e-07 20 12

0101000
+6 0 *
Wi

0101100
-382 12 -39 0 +156 12 +33 0 *
Fa
0  1e-07 19 12

0101000
+4 0 *
Sh

0101100
-361 0 -354 1 +349 1 -344 1 +341 1 +334 0 +327 0 +320 0 +313 0 -308 0 
-301 0 -294 0 -287 0 -282 0 -275 0 -268 0 -261 0 +256 0 +249 0 +242 0 
+237 0 +135 0 +132 0 -129 0 +126 0 -123 0 +120 0 -117 0 -115 0 +112 0 
-109 0 +106 0 -103 0 +100 0 +98 0 -95 0 +92 0 -89 0 +86 0 -83 0 
-81 0 +78 0 -75 0 +72 0 -69 0 +67 0 -65 0 -63 0 +61 0 +59 0 
+57 0 +55 0 -53 0 -51 0 +47 0 -44 0 +40 0 -37 0 +34 0 +31 0 
+27 0 -25 0 -22 0 -19 0 -15 0 -12 0 +10 0 +7 0 +5 0 -3 0 
*
So

0100000
+2 0 *

+1 0 