DBRep_DrawableShape

CASCADE Topology V3, (c) Open Cascade
Locations 9
1
              1               0               0               0 
              0               1               0               0 
              0               0               1             340 
1
              1               0               0               0 
              0               1               0               0 
              0               0               1            -340 
1
              1               0               0               0 
              0               1               0               0 
              0               0               1             340 
1
              1               0               0               0 
              0               1               0               0 
              0               0               1             170 
2  1 1 2 1 3 1 4 -1 0
2  4 -1 0
1
1.11022302462516e-16               0               1               0 
              0               1               0               0 
             -1               0 1.11022302462516e-16               0 
1
              1               0               0             -15 
              0               1               0               0 
              0               0               1             170 
2  7 1 8 1 4 -1 0
Curve2ds 70
1 0 166 1 0 
2 0 0 1 0 -0 1 24.800000000000001
2 0 0 1 0 -0 1 24.800000000000001
1 6.2831853071795862 -0 0 1 
1 0 -0 0 1 
1 0 0 1 0 
2 0 0 1 0 -0 1 24.800000000000001
2 0 0 1 0 -0 1 24.800000000000001
2 0 0 1 0 -0 1 8
1 0 166.19999999999999 1 0 
2 0 0 1 0 -0 1 8
1 0 0.20000000000000001 1 0 
2 0 0 1 0 -0 1 8
7 0 0  5 6 2  14.999999999730001 1.7999999999973  9.2114455325522542 1.7421144553255226  2.9872387932869344 1.6798723879328696  -3.0997774643930462 1.6190022253560694  -8.9627486861493306 1.5603725131385067  -15 1.5 
 0 6 1 6
7 0 0  5 6 2  4.7123889803846897 30.001499962501875  4.7123889803846897 24.212656074836104  4.7123889803846897 17.988138132057756  4.7123889803846897 11.900817532248782  4.7123889803846897 6.0375531688701756  4.7123889803846897 0 
 0 6 1 6
7 0 0  5 6 2  1.5707963267948966 7.1562387837929755  1.5707963267948966 5.7279043038894795  1.5707963267948948 4.3011710028646135  1.5707963267949019 2.8737704238664179  1.5707963267948966 1.4418552635187203  1.5707963267948966 0 
 0.76118549631115895 6 1 6
8 -5.999999999062311e-07 0.2000005999999992
1 -15.199999999999999 1.5 1 0 
8 -5.999999999062311e-07 0.2000005999999992
1 4.7123889803846897 0 0 1 
8 -1.5 1.5
1 -15.199999999999999 0 0 1 
8 -1.5 1.5
1 0 0 0 -1 
8 -5.999999999062311e-07 0.2000005999999992
1 -15.199999999999999 -1.5 1 0 
8 -5.999999999062311e-07 0.2000005999999992
1 1.5707963267948966 0 0 1 
7 0 0  5 6 2  -14.999999999999414 -1.5000000000000058  -9.3736455428342182 -1.5562635445716577  -3.1052235807569524 -1.6189477641924299  3.0391677227179983 -1.6803916772271807  8.9159760372102177 -1.7391597603721021  14.999999999450978 -1.7999999999945098 
 0 6 1 6
7 0 0  5 6 2  1.5707963267948966 0  1.5707963267948966 5.6266357678554622  1.5707963267948966 11.895371143993875  1.5707963267948966 18.040069657156604  1.5707963267948966 23.917171806667653  1.5707963267948966 30.001499962501875 
 0 6 1 6
7 0 0  5 6 2  4.7123889803846897 5.8622617802320815e-13  4.7123889803846897 1.3747187526753444  4.712388980384695 2.7877669487835135  4.712388980384695 4.2279707779251652  4.7123889803846897 5.6863748981748197  4.7123889803846897 7.1562387837929764 
 0 6 0.24432339490116292 6
2 0 0 1 0 -0 1 8
7 0 0  5 6 2  4.7123889803846897 22.812262828585158  4.7123889803846897 24.246294324858525  4.712388980384695 25.678798249061856  4.712388980384695 27.112210024558294  4.7123889803846897 28.550965948693904  4.7123889803846897 30.001499961952824 
 0.76159503956603425 6 1 6
8 -5.999999999062311e-07 0.2000005999999992
1 15 -1.8 1 0 
8 -5.999999999062311e-07 0.2000005999999992
1 1.5707963267948966 0 0 1 
8 -1.8 1.8
1 15.199999999999999 0 0 1 
8 -1.8 1.8
1 0 0 0 -1 
8 -5.999999999062311e-07 0.2000005999999992
1 15 1.8 1 0 
8 -5.999999999062311e-07 0.2000005999999992
1 4.7123889803846897 0 0 1 
7 0 0  5 6 2  1.5707963267948966 30.001499962231861  1.5707963267948966 28.600130985533074  1.5707963267948948 27.173230115621152  1.5707963267949019 25.728924518316376  1.5707963267948966 24.273672229749181  1.5707963267948966 22.812262828585155 
 0 6 0.24208097573414741 6
1 6.2831853071795862 -0 0 1 
1 0 -0 0 1 
7 0 0  8 30 5  6.2831853068488837 1.9299999999797259  6.2732984861821999 1.9299999999189852  6.2634088463425819 1.9258582279076215  6.2535775313957478 1.9175709467925617  6.2438587496119951 1.9052246859820514  6.2343002189900076 1.8889729671880706  6.2249435560907838 1.8690180965070133  6.2158246081816397 1.8455980228386237  6.2014813832396127 1.8024595744212171  6.1960907038325992 1.7847039906503148  6.1908077786267093 1.7657700398475196  6.1856376061576723 1.7457171108846692  6.1805842018612216 1.7246044264532121  6.1756507045948057 1.7024900165290078  6.170839483159309 1.6794296918371296  6.1600416763745933 1.6242485766019559  6.1541421818532118 1.591504774075478  6.1484571008138529 1.557359954409153  6.142988548974408 1.5219233191264361  6.1377375873292843 1.4852970835562209  6.1327043932652616 1.4475756337867376  6.1278884316773485 1.4088446836194533  6.1086098366575383 1.2426048203209936  6.0961581219168286 1.1067483869174246  6.0858530319303998 0.96387068026541678  6.0776629962325259 0.81579893506874224  6.071551492395499 0.66413468887636307  6.0674902952209058 0.51022573723649833  6.0654551698558867 0.35520974824921803  6.0654551767396674 0.19999940000000002 
 0 9 0.19955684839646695 7 0.32339032161410108 7 0.48482703313398012 7 1 9
7 0 0  8 30 5  0 23.001149971251436  0.045719401926849035 23.00114997118531  0.091451787434817619 23.000256246516315  0.13705442794723099 22.998467777373115  0.18241626127397279 22.99581503867747  0.22744762374242813 22.992353816389375  0.2720727666348649 22.988159035181816  0.31622515693225384 22.983318597545299  0.38691387072499994 22.974581665183848  0.41378497664905473 22.971022981154544  0.44045077249193471 22.967272950981311  0.4669058398693548 22.963353760067378  0.49314720959026015 22.959287637390904  0.51917412158958343 22.955096482423755  0.54498778486100274 22.950801492050402  0.60396919688135942 22.940714446703691  0.63698785272811942 22.934864164069932  0.66965599742307902 22.928916550553339  0.7019841314209081 22.922913747983817  0.73398447410626189 22.916895209668301  0.76567107476219365 22.910897481005829  0.79705992353856692 22.904953980102547  0.9274438012549715 22.880397034218291  1.0236956117720419 22.862591253236246  1.1177464963361075 22.846613230831437  1.2100761400929829 22.833178593326007  1.3011215316573073 22.822798731492227  1.3912788732009096 22.815779856730028  1.4809816515687841 22.812262816688644  1.5707966739947712 22.81226282858518 
 0 9 0.19955684839646695 7 0.32339032161410108 7 0.48482703313398012 7 1 9
7 0 0  8 44 7  3.1415926535897936 23.00114997125144  3.1702307277230948 23.001149971234675  3.1988738696579899 23.000799307630658  3.2274870999231293 23.000097730630447  3.256040120502107 22.999049837737502  3.2845065649896048 22.997664478673936  3.312863248747536 22.995954160286729  3.3410894190611926 22.993934451453999  3.3814495117728458 22.990612297726265  3.3937043955910675 22.989545440366882  3.405929072471042 22.988424326254965  3.4181220281185678 22.987250556113903  3.4302818117243663 22.986025811536869  3.4424070294642006 22.984751845475223  3.4544963379989917 22.983430472726823  3.4891461254298393 22.97950059985736  3.5116144774256099 22.976777353476791  3.5339313911099453 22.973907811407116  3.5561333743753494 22.970899522813852  3.5781725984834338 22.967770352537627  3.6000766665197261 22.964529408294766  3.6218319995024566 22.961190626040491  3.6812582275454817 22.951772508760733  3.718627581537 22.945515949265793  3.7555488206986922 22.939061408788461  3.7920277451473794 22.9324723717491  3.8280831063243568 22.9258064651209  3.8637352677031407 22.919116887569729  3.8989984856862856 22.912454043201279  3.9469855146737669 22.903390045218188  3.9600217073652857 22.900928015649697  3.9730065666335577 22.898478569331928  3.9859515617390571 22.896041989108198  3.9988285428589734 22.893626082455739  4.0116695298770537 22.891227054009505  4.0244598721274674 22.888849954128965  4.1264278063259026 22.870016357628092  4.2134475226778765 22.854664716210941  4.298794992221616 22.841084500459715  4.3828307674282314 22.829770370186452  4.4658742738824344 22.821071769139053  4.5482417358345941 22.815203144183101  4.6302683062722885 22.812262828585073  4.7123889803847057 22.812262828585151 
 0 9 0.12499996888256404 7 0.17968745526868674 7 0.28222649224267859 7 0.46166980694715742 7 0.52896104996133719 7 0.99999975106058958 9
7 0 0  7 26 5  3.3393234506563809 0.19999940000000002  3.3393234583509508 0.35777394278722296  3.3369630280139346 0.51535384306860854  3.3322517077505656 0.6714311580226584  3.3251523992265128 0.82437038181594002  3.3156190386870348 0.97213297371284246  3.3036192602985368 1.1123556637515815  3.2843133229573036 1.2843558578876826  3.2792917046526542 1.3255423823637877  3.2739993138974057 1.3654639971276359  3.2684359396363214 1.4039894443367131  3.2626028101093354 1.4409726703274015  3.256503023500859 1.47625489119908  3.2452404326454731 1.5354123203538879  3.2401839985649779 1.5600461112889579  3.2349754167466531 1.5834897959228613  3.2296186386069894 1.6056594958179737  3.2241190791202134 1.6264681416632645  3.2184838693585927 1.6458279255579471  3.2033014490130904 1.6927969093383972  3.1935375394397809 1.7178531876680181  3.1834771978226635 1.7384145108007785  3.1731778397903945 1.7541270335841226  3.1627081187628181 1.7647109345854244  3.1521486263731111 1.7699999999888048  3.1415926536396706 1.7699999999994938 
 0 8 0.50264233314942719 6 0.66676287461324557 6 0.79322706177593849 6 1 8
7 0 0  7 26 5  1.5707967085814363 7.1562387837929542  1.4704030473422796 7.1562387958860274  1.3701338727694137 7.1525287439565135  1.2691544874368279 7.1451258879139594  1.1668749490112234 7.1342393280837646  1.0626697706185142 7.1203605003995882  0.95592412007740613 7.1042986955197733  0.80947644239074068 7.0816032351406966  0.77306026779033743 7.0759085237638217  0.73624719266110472 7.0701466094056418  0.69901313722038194 7.0643643149853856  0.66133786827318397 7.0586136395579322  0.6232047934874213 7.052951239237891  0.55485415466265375 7.0431895737487773  0.52482934329894992 7.0390299492670447  0.49452194673965683 7.0349868201441641  0.46393095976691684 7.0310897658582245  0.43305936889239222 7.0273693176305221  0.40191477446629331 7.0238561161564288  0.31916223605635574 7.0152236293671892  0.26709216268492153 7.010498325401004  0.21439647492393824 7.0065397555526898  0.16118673303097206 7.0034714899723598  0.10759464681805635 7.001390007117072  0.053788396093961591 7.0003499912619258  0 7.0003499912504372 
 0 8 0.50264233314942719 6 0.66676287461324557 6 0.79322706177593849 6 1 8
7 0 0  10 38 5  4.7123889803846888 7.1562387837929808  4.6424828674691039 7.1562387837927677  4.5726341549148364 7.154525577779796  4.5026034579878598 7.1511041186743807  4.4321909104160273 7.1460106690474472  4.3612139109212746 7.1393201431424327  4.2894950090059352 7.1311516753344097  4.2168530280110339 7.1216726393724059  4.1430905234644024 7.1111013427509064  4.0679706747365163 7.0997086205565152  3.9719782163432171 7.0848460362805481  3.952676183497664 7.0818426115652926  3.9332786050499777 7.0788153852170961  3.9137700697819433 7.0757680300771124  3.8941498968524684 7.072706828741099  3.8744209420883031 7.0696388886490853  3.8545777414783706 7.066570251420389  3.8346128096606704 7.0635068822284479  3.8145300609066894 7.060456788508044  3.7640160832005662 7.0528817692020125  3.7334331692945852 7.04838221429236  3.7025613425066695 7.0439518393832259  3.6714246639749035 7.0396196875954047  3.6399329620180652 7.035404312540777  3.6082606418058276 7.0313511219574139  3.5761745627387427 7.027466306113638  3.5438964871427743 7.0238001078396337  3.5113127941568041 7.020369061573926  3.4456298602923212 7.0140392716220887  3.4125288370701021 7.0111403548829063  3.3791910601141217 7.0085357767638001  3.3456405549725496 7.0062520470212704  3.3119034546842423 7.004313075338132  3.2780088842774733 7.0027394218766563  3.243989845268664 7.0015475478317342  3.2098841001611169 7.0007490659840128  3.1757350569437417 7.0003499912530414  3.1415926535897931 7.0003499912504363 
 2.7307085083721531e-07 11 0.50000013653544284 9 0.62500010240158432 9 0.8125000512007956 9 1 11
7 0 0  7 26 5  3.1415926535799281 1.7699999999999803  3.1310234900613838 1.7699999999978637  3.1204507916672264 1.7646977071089129  3.1099682125862991 1.7540873216004496  3.0996566318978758 1.7383359174854127  3.0895849239538928 1.7177246620997919  3.079810665937472 1.6926089741297023  3.064577073766098 1.6454192223361592  3.0589019331502603 1.6258835000124996  3.053364647143455 1.6048785289140057  3.0479724775759363 1.5824941211701054  3.0427309232952253 1.5588192934306984  3.037643981746335 1.5339397350540895  3.0263880629008559 1.4745625466790802  3.0203212902772512 1.4393392495631929  3.0145193483592867 1.4024326279817809  3.0089852453081702 1.3639993704009135  3.0037201618073106 1.3241836066792843  2.9987238711014164 1.2831149040292904  2.9794777989627006 1.1113238245051014  2.9675078195457498 0.97122656753791625  2.9579981287584287 0.82362013270072054  2.9509162925442225 0.67085731889846567  2.9462165067232142 0.51496787017791135  2.9438618488380524 0.35758086591955396  2.9438618565232058 0.19999940000000002 
 0 8 0.20703187870509043 6 0.33445156138702758 6 0.4979751577541664 6 1 8
7 0 0  7 26 5  6.2831853071795862 7.0003499912504372  6.2293296968940073 7.0003499912527101  6.1754561558609922 7.0013926077611268  6.1217976359241195 7.0034793004725397  6.068522877001584 7.0065551027847528  6.0157639599210428 7.0105230682516995  5.9636327236103108 7.0152590705033813  5.8805873323175595 7.0239306717457017  5.8492128897461964 7.0274748261200211  5.818115777497388 7.0312288200901119  5.7873036790414032 7.0351613102236046  5.7567795433334892 7.03924107864764  5.7265422253961527 7.0434379023773603  5.6581443578387489 7.0532232298297561  5.6201687559391322 7.0588687862940089  5.5826471085160545 7.0646000805531832  5.5455628656292228 7.0703611988459665  5.5088959294474309 7.0761008258389992  5.4726224436113728 7.0817727453321409  5.3264758240204753 7.1044168313720659  5.2198763743414718 7.120445593544285  5.1158087260772724 7.1342926800665074  5.0136595438471403 7.1451530730127404  4.9128058440561659 7.1525378189915472  4.8126594029219678 7.1562387958712295  4.7123885985981504 7.1562387837929551 
 0 8 0.20703187870509043 6 0.33445156138702758 6 0.4979751577541664 6 1 8
7 0 0  9 42 6  3.1415926535897931 7.0003499912504372  3.1163020523835199 7.0003499912508174  3.0910076522779786 7.0005717011572415  3.0657307680463117 7.001015257074461  3.0404904269488791 7.0016787089782477  3.0153036528683383 7.0025582168196321  2.990185750444736 7.0036482466291554  2.9651505892105736 7.0049417666210907  2.9402108877259003 7.0064304432976918  2.8936501564524373 7.009569932527203  2.8720046388370974 7.0111771472402324  2.8504440153265023 7.0129207566787954  2.8289971168269403 7.0147915982524864  2.8076263898692559 7.0167866280535236  2.7863906270868029 7.0188927515264368  2.7652677798723744 7.0211041930633655  2.7442580009262421 7.0234133037383097  2.6868090947087189 7.0300082348965898  2.6506141123319811 7.0344779176107357  2.6147937813759352 7.0391768443091651  2.5793538655345358 7.0440608049755191  2.5442939155345536 7.0490866564950903  2.5096075052231939 7.0542133982701269  2.4752834414727665 7.0594027108889028  2.4413079479023776 7.0646189578485457  2.3950527753595359 7.0717822850127563  2.382484874262297 7.0737350001774626  2.3699633767618034 7.075685036760853  2.3574875039649563 7.0776306866113261  2.3450564388889985 7.0795702938436351  2.3326693249017985 7.0815022561919569  2.3203252641621344 7.0834250263629821  2.3080233160599808 7.0853371133889897  2.209936752834444 7.1005368781243847  2.1262369215955803 7.113225401758017  2.0442076862074328 7.1248289572250059  1.9635175923669597 7.1349666393067155  1.8838939043592404 7.1433458591109984  1.8050839283247602 7.1497586603165644  1.7268305106865931 7.1540762021900814  1.6488494207884894 7.1562387837927401  1.5707963267948786 7.1562387837929782 
 0 10 0.12499996586631248 8 0.23437493599933934 8 0.42578113373212989 8 0.49755845788191988 8 0.99999972693044459 10
7 0 0  8 30 5  0.2177301304399194 0.19999940000000002  0.21773013732244506 0.35518144717693101  0.21569575398588792 0.51016965238660206  0.21163601617225097 0.6640514228690263  0.20552671492689728 0.81568961702057918  0.1973396562798061 0.96373716891498806  0.18703833841955275 1.106593608943446  0.17459122642602024 1.2424329713128925  0.15532684338149411 1.4085974948419302  0.1505204148317516 1.4472674094557234  0.14549750467883568 1.4849317147903942  0.14025757875526768 1.5215051737127752  0.13480080916345474 1.5568939410487912  0.12912824360510392 1.5909963967252663  0.12324197471063603 1.6237039789117278  0.11247366725979828 1.6788078838985767  0.10767870072469819 1.7018262951492986  0.10276209145598419 1.723905161224325  0.097726175886530001 1.7449891794286692  0.092574050121839141 1.765020842289533  0.087309674872486184 1.7839414457834348  0.081937980386558099 1.801692097563333  0.067589070878871838 1.8450104418945741  0.058442603303796449 1.8685889464219649  0.049056100461615793 1.8886816544886069  0.039465679476613058 1.9050476269906036  0.029713324668202857 1.9174818303360663  0.019847225583844014 1.9258285560934338  0.0099221711892698676 1.9299999999515272  2.1603619527875996e-10 1.9299999999913486 
 0 9 0.51508035347758585 7 0.67623924265909663 7 0.79972915241629949 7 1 9
7 0 0  8 30 5  4.7123886331848155 22.812262828585183  4.8021872787295523 22.812262816690819  4.89187397913651 22.815778574373216  4.9820149934900542 22.822794927287848  5.073043542564557 22.833171113428541  5.1653555620464697 22.846601125475921  5.2593878419394455 22.862573951720638  5.3556197365477649 22.880374507983461  5.4859274511230005 22.904916573474427  5.51726061115889 22.91084946563797  5.5488904129811445 22.916836562964662  5.5808327671229465 22.922844633404409  5.6131016608143973 22.928837340060753  5.6457092688854971 22.934775457630799  5.678666064669124 22.940617088845137  5.7375088421834981 22.950686180422291  5.7632458452077291 22.954971591032521  5.7891948786545955 22.959154170984924  5.8153571737159311 22.963212913792734  5.841732018662614 22.967126114486998  5.8683165234096641 22.970871735867675  5.895105384081325 22.974427774754648  5.9658542360588429 22.983197173804022  6.0101545015297475 22.988068832209201  6.0549319680302576 22.992291777751511  6.100119679523444 22.995776994996938  6.1456412855230553 22.998448544449673  6.1914062860086778 23.000249844722489  6.2373024356270594 23.001149971208083  6.2831853071795862 23.001149971251436 
 0 9 0.51508035347758585 7 0.67623924265909663 7 0.79972915241629949 7 1 9
7 0 0  10 56 7  1.5707963267948966 22.812262828585165  1.6405319493667831 22.812262828585091  1.7102016716064317 22.814324252634357  1.7800485165083635 22.818440342195366  1.8502725301485641 22.824567959245893  1.9210561752888347 22.832618418028911  1.9925773070238191 22.842450656006921  2.0650179689040362 22.853866370404365  2.1385772479682812 22.866606746722205  2.2134964271187236 22.880350405608503  2.3092567348103965 22.898302641683763  2.3285128183415509 22.901931421540212  2.3478970969299553 22.905596138676628  2.3673301695089322 22.909274276345968  2.3869558575679548 22.912985769100487  2.4066257434315048 22.916694060433656  2.4264567600184819 22.920413352549076  2.4463926823300426 22.924124122277135  2.4664567186472701 22.927821905132781  2.5017899106061012 22.934253522396006  2.5170039073228772 22.936997258055715  2.5322903543117987 22.939724664310894  2.5476503153056766 22.942431947107586  2.5630846676614287 22.945115188204959  2.5785941023605314 22.947770357376669  2.5941791240094778 22.950393324612168  2.6098400508402277 22.952979872318103  2.6255770147106667 22.95552570751962  2.6532496709008351 22.959902048968331  2.6651521323917042 22.961752273447594  2.6770973183468008 22.963575309165712  2.6890851327725991 22.965369298195196  2.7011154070406116 22.9671323678735  2.7131878960150964 22.968862635661743  2.72530227418076 22.97055821400334  2.7374581317704645 22.972217215182667  2.7496549708929385 22.973837756183698  2.7802480478117921 22.977788274596186  2.7986933823861317 22.980067663500968  2.8172328892418728 22.982250643111826  2.8358614544087417 22.984330562318394  2.8545728318579604 22.986300850518766  2.8733624183012849 22.988155450020301  2.8922265050629634 22.989888765814129  2.9111603750686448 22.991495462164529  2.9301576129952851 22.992970435453611  2.9682683802568897 22.995648149991045  2.9873818287635654 22.996850876546041  3.0065475555797017 22.997912997786141  3.0257594237776706 22.998830518407594  3.0450108701363474 22.999599979101038  3.0642948292088392 23.00021851324853  3.0836036573902108 23.000683903620558  3.1029290569852042 23.000994639072974  3.12226200027597 23.001149971244047  3.1415926535897931 23.00114997125144 
 2.489400499576497e-07 11 0.50000012447002151 9 0.62500009335251583 9 0.71875007001438218 9 0.78906255251078927 9 0.89453127625539486 9 1 11
1 6.2831853071795862 -0 0 1 
1 0 -0 0 1 
1 3.1415926535897931 0 0 1 
1 0 0.20000000000000001 1 0 
2 0 0 1 0 -0 1 1.5
8 0 6.2831853071795862
1 0 0 1 0 
8 4.7123889803846897 6.2831853071795862
1 -3.1415926535897931 0 1 0 
1 6.2831853071795862 -0 0 1 
1 0 -0 0 1 
1 0 0 1 0 
2 0 0 1 0 -0 1 1.5
8 0 1.5707963267948966
1 3.1415926535897931 0 1 0 
1 0 30.001499962501875 1 0 
2 0 0 1 0 -0 1 1.8
8 0 6.2831853071795862
1 0 0 1 0 
8 0 1.5707963267948966
1 3.1415926535897931 30.001499962501875 1 0 
1 3.1415926535897931 0 0 1 
1 0 0.20000000000000001 1 0 
2 0 0 1 0 -0 1 1.8
1 6.2831853071795862 -0 0 1 
1 0 -0 0 1 
8 4.7123889803846897 6.2831853071795862
1 -3.1415926535897931 30.001499962501875 1 0 
Curves 25
2 0 0 166 0 0 1 1 0 -0 -0 1 0 24.800000000000001
1 24.800000000000001 -6.0742481237708719e-15 0 0 0 1 
2 0 0 0 0 0 1 1 0 -0 -0 1 0 24.800000000000001
2 0 0 166 0 0 1 1 0 -0 -0 1 0 8
2 0 0 0 0 0 1 1 0 -0 -0 1 0 8
7 0 0  5 6 2  14.999999999730001 1.7999999999973 0  9.2114455325522542 1.7421144553255226 0  2.9872387932869344 1.6798723879328696 0  -3.0997774643930462 1.6190022253560694 0  -8.9627486861493306 1.5603725131385067 0  -15 1.5 0 
 0 6 1 6
1 -15.199999999999999 1.5 0 1 0 0 
1 -15.199999999999999 0 0 0 1 0 
1 -15.199999999999999 -1.5 0 1 0 0 
7 0 0  5 6 2  -14.999999999999414 -1.5000000000000058 0  -9.3736455428342182 -1.5562635445716577 0  -3.1052235807569524 -1.6189477641924299 0  3.0391677227179983 -1.6803916772271807 0  8.9159760372102177 -1.7391597603721021 0  14.999999999450978 -1.7999999999945098 0 
 0 6 1 6
1 15 -1.8 0 1 0 0 
1 15.199999999999999 0 0 0 1 0 
1 15 1.8 0 1 0 0 
1 8 -1.9594348786357651e-15 -0.20000000000000001 0 0 1 
7 0 0  8 30 5  8 -8.8817841970012523e-16 1.7300000000000002  7.999999999973844 -0.079094565333449718 1.7299999999392595  7.9991063199106316 -0.15821169044267461 1.7258582278742691  7.9973179402030903 -0.23685042895878775 1.7175709467816123  7.9946653341783005 -0.3145652998944185 1.7052246860053362  7.9912042849286564 -0.3909642888582377 1.688972967200117  7.9870097134083879 -0.46570673325435463 1.6690180964894163  7.9821695177956862 -0.53850109146658598 1.6455980228386236  7.9734330222480923 -0.6529138187164385 1.6024595744212164  7.9698745161396447 -0.69589307734747907 1.5847039906503153  7.966124673453856 -0.73799114636240926 1.5657700398475192  7.9622056784847803 -0.77916791769128624 1.5457171108846692  7.9581397590991898 -0.81939150265017391 1.5246044264532124  7.953948813674069 -0.85863733383878194 1.502490016529008  7.9496540380341294 -0.89688726703810429 1.4794296918371299  7.9395674970018719 -0.98267881730408979 1.4242485766019559  7.9337175068603081 -1.0295120600895509 1.3915047740754773  7.9277701907020868 -1.0746039326008234 1.3573599544091528  7.9217676882501786 -1.1179403672452481 1.3219233191264361  7.9157494508390087 -1.1595161877438416 1.2852970835562216  7.9097520220404833 -1.199333589174014 1.2475756337867381  7.9038088182899635 -1.2374006180122876 1.2088446836194529  7.8792531001609181 -1.38966199580453 1.0426048203209937  7.861448209401158 -1.4876913654875217 0.90674838691743542  7.8454709858375651 -1.5685816161488955 0.7638706802653934  7.8320370200136074 -1.6327143274302272 0.61579893506875538  7.8216576771340343 -1.6804921754772215 0.46413468887637033  7.8146391532892316 -1.71221465935456 0.31022573723648994  7.8111222890866694 -1.7281112767797746 0.15520974824921807  7.8111223009826087 -1.7281112230097206 -5.9999999992839329e-07 
 0 9 0.19955684839646695 7 0.32339032161410108 7 0.48482703313398012 7 1 9
7 0 0  7 26 5  -7.8441190013125759 -1.5715588099867601 -5.9999999995915975e-07  -7.8441189892201066 -1.5715588703438816 0.15777394278722301  -7.8478288556609179 -1.5530434172803973 0.31535384306862396  -7.855231341588496 -1.5160870290124271 0.47143115802261876  -7.8661173571314187 -1.4603446814022201 0.62437038181598004  -7.8799954909263263 -1.3853431260181883 0.7721329737128263  -7.8960564927761014 -1.290677354981544 0.9123556637515815  -7.9187508184672613 -1.1379062927827945 1.0843558578876826  -7.9244452451299194 -1.0981384243299632 1.1255423823637876  -7.9302068714139873 -1.056191999322851 1.1654639971276362  -7.935988876741205 -1.0120605037291281 1.2039894443367132  -7.941739264656448 -0.96574923707641858 1.240972670327402  -7.9474013818777065 -0.91727907445879475 1.2762548911990803  -7.9571625593201505 -0.82770865304307695 1.3354123203538875  -7.9613219758362561 -0.78747097451392545 1.3600461112889577  -7.9653649028178402 -0.74599774680114006 1.3834897959228614  -7.9692617622656803 -0.70331955408339031 1.4056594958179738  -7.9729820244849217 -0.65947912765629302 1.4264681416632645  -7.9764950503121144 -0.61453346271601028 1.4458279255579474  -7.9851271055093829 -0.49338122614519214 1.492796909338397  -7.9898521732238006 -0.41540859547401571 1.5178531876674082  -7.9938105451694046 -0.33501481598050781 1.5384145108016314  -7.9968786573428705 -0.25266612499747837 1.5541270335844719  -7.9989600361199162 -0.16892372122606822 1.5647109345841197  -7.9999999999957874 -0.084447781867519181 1.5699999999893108  -8 4.4408920985006262e-16 1.5700000000000001 
 0 8 0.50264233314942719 6 0.66676287461324557 6 0.79322706177593849 6 1 8
7 0 0  7 26 5  -8 4.8985871965894128e-16 1.5700000000000001  -7.999999999999166 0.084553308148358819 1.5699999999978833  -7.9989574356141793 0.16913489441337565 1.5646977071088684  -7.996870847231933 0.25298010594166259 1.5540873216004576  -7.9937951986993081 0.33542640504294463 1.5383359174854412  -7.9898274316135938 0.41591078898366335 1.5177246620997755  -7.9850916661451157 0.49396572355486218 1.4926089741297022  -7.9764204984503397 0.61552558534817459 1.4454192223361593  -7.9728765212704502 0.66078927571070267 1.4258835000125001  -7.9691227149859811 0.7049297838800046 1.4048785289140062  -7.965190421462248 0.74788907939899851 1.382494121170105  -7.9611108570113363 0.78962378591235094 1.3588192934306984  -7.9569142431070663 0.83010298810337002 1.3339397350540898  -7.9471294048843522 0.9196171340275745 1.2745625466790806  -7.9414841306767512 0.96782333023413458 1.239339249563193  -7.9357531229608016 1.0138855547272814 1.2024326279817807  -7.9299922927023294 1.05778362637421 1.1639993704009135  -7.9242529526691259 1.0995125849975398 1.1241836066792843  -7.9185813167506911 1.1390790209402424 1.0831149040292904  -7.8959383628301589 1.2913735361893068 0.91132382450510152  -7.8799104020359598 1.3858029591315331 0.77122656753791852  -7.8660640078160933 1.4606177575594272 0.62362013270071415  -7.8552041578488545 1.5162227884351465 0.47085731889847249  -7.847819781079604 1.5530886966076736 0.31496787017790828  -7.8441189892349055 1.5715588702700189 0.1575808659195542  -7.8441190013125759 1.5715588099867595 -5.9999999980266395e-07 
 0 8 0.20703187870509043 6 0.33445156138702758 6 0.4979751577541664 6 1 8
7 0 0  8 30 5  7.8111223009826096 1.728111223009722 -5.9999999975630817e-07  7.8111222890888401 1.7281112767699716 0.15518144717693122  7.8146378709965578 1.7122204554060694 0.31016965238659971  7.8216538731197955 1.6805093708763872 0.46405142286903495  7.8320295404901614 1.6327487564264245 0.61568961702056713  7.8454588810872519 1.5686394141320643 0.76373716891499399  7.8614309087505596 1.4877789112092374 0.90659360894344621  7.8792305750523175 1.3897860389747143 1.0424329713128924  7.9037714135320378 1.2376374264005909 1.2085974948419302  7.9097040090732138 1.1996459322902231 1.2472674094557239  7.9156908070674845 1.1599101349459797 1.2849317147903949  7.9216985771262447 1.1184220143840071 1.3215051737127748  7.9276909841697334 1.0751793507711405 1.3568939410487906  7.933628804856161 1.0301872286724243 1.3909963967252659  7.9394701440108344 0.98345954129862978 1.4237039789117278  7.9495387321711766 0.89790350097869387 1.4788078838985761  7.9538239285269405 0.859783353992567 1.5018262951492978  7.9580062993660317 0.82067248982705288 1.5239051612243244  7.9620648392519202 0.78058879609184495 1.5449891794286694  7.9659778443008245 0.73955649684132185 1.5650208422895338  7.9697232784144711 0.69760703744119401 1.5839414457834351  7.973279139512834 0.65477996943515249 1.6016920975633329  7.9820481001251453 0.54032411598236885 1.6450104418945743  7.9869195149524455 0.46731116192639521 1.6685889464143582  7.9911422493870274 0.39233114384300527 1.6886816544937913  7.9946272923910584 0.31567776790594798 1.7050476270006685  7.9972987082474996 0.23769469272188223 1.7174818303313886  7.9990999184495708 0.15877780696473789 1.7258285560790543  7.9999999999828519 0.07937736778586936 1.7299999999601792  8 0 1.7300000000000002 
 0 9 0.51508035347758585 7 0.67623924265909663 7 0.79972915241629949 7 1 9
1 -15 3.6739403974420594e-16 1.5 0.99995000374968757 2.4491711427988776e-18 0.0099995000374968768 
2 -15 0 0 1 0 0 -0 0 1 0 -1 0 1.5
1 -15.199999999999999 3.6739403974420594e-16 1.5 1 0 0 
2 -15.199999999999999 0 0 1 0 0 -0 0 1 0 -1 0 1.5
2 15 0 0 1 0 0 -0 0 1 0 -1 0 1.8
2 15.199999999999999 0 0 1 0 0 -0 0 1 0 -1 0 1.8
1 15 4.4087284769304716e-16 1.8 1 0 0 
Polygon3D 0
PolygonOnTriangulations 0
Surfaces 14
2 0 0 0 0 0 1 1 0 -0 -0 1 0 24.800000000000001
1 0 0 166 0 0 1 1 0 -0 -0 1 0 
1 0 0 -4 0 0 1 1 0 -0 -0 1 0 
1 0 0 0 0 0 1 1 0 -0 -0 1 0 
1 0 0 170 0 0 1 1 0 -0 -0 1 0 
2 0 0 -0.20000000000000001 0 0 1 1 0 -0 -0 1 0 8
3 -15 0 0 1 0 0 -0 0 1 0 -1 0 1.5
0.0099996666866652394
3 0 0 0 0 0 1 1 0 -0 -0 1 0 1.5
0.0099996666866652394
2 -15.199999999999999 0 0 1 0 0 -0 0 1 0 -1 0 1.5
1 -15.199999999999999 0 0 1 0 0 -0 0 1 0 -1 0 
2 15 0 0 1 0 0 -0 0 1 0 -1 0 1.8
1 15.199999999999999 0 0 1 0 0 -0 0 1 0 -1 0 
1 -15 0 0 1 0 0 -0 0 1 0 -1 0 
1 15 0 0 1 0 0 -0 0 1 0 -1 0 
Triangulations 0

TShapes 87
Ve
1e-07
24.8 -6.07424812377087e-15 166
0 0

0101101
*
Ed
 1e-07 1 1 0
1  1 0 0 6.28318530717959
2  1 1 0 0 6.28318530717959
2  2 2 0 0 6.28318530717959
2  3 3 5 0 6.28318530717959
0

0101000
+87 0 -87 0 *
Ve
1e-07
24.8 -6.07424812377087e-15 0
0 0

0101101
*
Ed
 1e-07 1 1 0
1  2 0 0 166
3  4 5CN 1 0 0 166
0

0101000
-87 0 +85 0 *
Ed
 1e-07 1 1 0
1  3 0 0 6.28318530717959
2  6 1 0 0 6.28318530717959
2  7 4 0 0 6.28318530717959
2  8 5 6 0 6.28318530717959
0

0101000
+85 0 -85 0 *
Wi

0101100
-86 0 +84 0 +83 0 -84 0 *
Fa
0  1e-07 1 0

0101000
+82 0 *
Wi

0101100
+86 0 *
Ve
1.00000001959435e-07
8 -1.95943487863577e-15 166
0 0

0101101
*
Ed
 1e-07 1 1 0
1  4 0 0 6.28318530717959
2  9 2 0 0 6.28318530717959
2  10 6 0 0 6.28318530717959
0

0101100
+79 0 -79 0 *
Wi

0101100
-78 0 *
Fa
0  1e-07 2 0

0101000
+80 0 +77 0 *
Wi

0101100
+83 0 *
Ve
1.83921226928994e-07
7.81112230098259 1.72811122300983 0
0 0

0101101
*
Ve
2.38703474913386e-07
-7.84411900131255 1.57155880998687 0
0 0

0101101
*
Ed
 1e-07 1 1 0
1  5 0 0.217730130439933 2.94386185652319
2  11 4 0 0.217730130439933 2.94386185652319
2  12 6 0 0.217730130439933 2.94386185652319
2  13 5 6 0.217730130439933 2.94386185652319
0

0101000
+74 0 -73 0 *
Ve
1.00000031977507e-07
-15 1.5 -2.75545529808154e-16
0 0

0101101
*
Ed
 1.00000031977507e-07 1 1 0
1  6 0 0.761185496311159 1
2  14 4 0 0.761185496311159 1
2  15 7 0 0.761185496311159 1
2  16 8 9 0.761185496311159 1
0

0101000
+73 0 -71 0 *
Ve
1.50000000275546e-07
-15.2 1.5 -2.75545529808154e-16
0 0

0101101
*
Ed
 1e-07 1 1 0
1  7 0 0 0.199999999999999
2  17 4 0 0 0.199999999999999
2  18 9 0 0 0.199999999999999
0

0101000
+69 0 -71 0 *
Ve
1.50000000091849e-07
-15.2 -1.5 9.18485099360515e-17
0 0

0101101
*
Ed
 1.5e-07 1 1 0
1  8 0 -1.5 1.5
2  19 4 0 -1.5 1.5
2  20 10 0 -1.5 1.5
0

0101000
+67 0 -69 0 *
Ve
1.00000586226192e-07
-15 -1.5 9.18485099360515e-17
0 0

0101101
*
Ed
 1e-07 1 1 0
1  9 0 0 0.199999999999999
2  21 4 0 0 0.199999999999999
2  22 9 0 0 0.199999999999999
0

0101000
+67 0 -65 0 *
Ve
2.2217760755862e-07
-7.84411900131255 -1.57155880998688 0
0 0

0101101
*
Ed
 1.00000021317439e-07 1 1 0
1  10 0 0 0.244323394901163
2  23 4 0 0 0.244323394901163
2  24 7 0 0 0.244323394901163
2  25 8 9 0 0.244323394901163
0

0101000
+65 0 -63 0 *
Ve
2.0570685897858e-07
7.81112230098259 -1.72811122300982 0
0 0

0101101
*
Ed
 1e-07 1 1 0
1  5 0 3.3393234506564 6.06545517673965
2  11 4 0 3.3393234506564 6.06545517673965
2  12 6 0 3.3393234506564 6.06545517673965
2  26 5 6 3.3393234506564 6.06545517673965
0

0101000
+63 0 -61 0 *
Ve
1.00549049612022e-07
15 -1.8 1.10218211923262e-16
0 0

0101101
*
Ed
 1.0000003375151e-07 1 1 0
1  10 0 0.761595039566034 1
2  23 4 0 0.761595039566034 1
2  24 7 0 0.761595039566034 1
2  27 8 9 0.761595039566034 1
0

0101000
+61 0 -59 0 *
Ve
1.50000000110218e-07
15.2 -1.8 1.10218211923262e-16
0 0

0101101
*
Ed
 1e-07 1 1 0
1  11 0 0 0.199999999999999
2  28 4 0 0 0.199999999999999
2  29 11 0 0 0.199999999999999
0

0101000
+59 0 -57 0 *
Ve
1.50000000330655e-07
15.2 1.8 -3.30654635769785e-16
0 0

0101101
*
Ed
 1.5e-07 1 1 0
1  12 0 -1.8 1.8
2  30 4 0 -1.8 1.8
2  31 12 0 -1.8 1.8
0

0101000
+57 0 -55 0 *
Ve
1.00270012634491e-07
15 1.8 -3.30654635769785e-16
0 0

0101101
*
Ed
 1e-07 1 1 0
1  13 0 0 0.199999999999999
2  32 4 0 0 0.199999999999999
2  33 11 0 0 0.199999999999999
0

0101000
+53 0 -55 0 *
Ed
 1.00000026649053e-07 1 1 0
1  6 0 0 0.242080975734147
2  14 4 0 0 0.242080975734147
2  15 7 0 0 0.242080975734147
2  34 8 9 0 0.242080975734147
0

0101000
+53 0 -74 0 *
Wi

0101100
-72 0 -70 0 +68 0 +66 0 -64 0 -62 0 -60 0 -58 0 -56 0 -54 0 
+52 0 -51 0 *
Fa
0  1e-07 4 0

0101000
+75 0 +50 0 *
Ve
2.0570685897858e-07
8 -7.6785354306539e-16 1.73
0 0

0101101
*
Ed
 1e-07 1 1 0
1  14 0 1.93 166.2
3  35 36CN 6 0 1.93 166.2
0

0101000
+48 0 -79 0 *
Ed
 2.0570685897858e-07 1 1 0
1  15 0 0 0.99999975106059
2  37 6 0 0 0.99999975106059
2  38 7 0 0 0.99999975106059
2  39 8 9 0 0.99999975106059
0

0101000
+48 0 -61 0 *
Ve
2.38703474913386e-07
-8 3.84539094932269e-16 1.57
0 0

0101101
*
Ed
 2.2217760755862e-07 1 1 0
1  16 0 2.73070850837215e-07 1
2  40 6 0 2.73070850837215e-07 1
2  41 7 0 2.73070850837215e-07 1
2  42 8 9 2.73070850837215e-07 1
0

0101000
+63 0 -45 0 *
Ed
 2.38703474913386e-07 1 1 0
1  17 0 0 0.999999726930445
2  43 6 0 0 0.999999726930445
2  44 7 0 0 0.999999726930445
2  45 8 9 0 0.999999726930445
0

0101000
+45 0 -73 0 *
Ed
 1.83921226928994e-07 1 1 0
1  18 0 2.4894004995765e-07 1
2  46 6 0 2.4894004995765e-07 1
2  47 7 0 2.4894004995765e-07 1
2  48 8 9 2.4894004995765e-07 1
0

0101000
+74 0 -48 0 *
Wi

0101100
+47 0 -46 0 +60 0 -44 0 -43 0 +72 0 -42 0 -47 0 -78 0 *
Fa
0  1e-07 6 0

0101000
+41 0 *
Ve
1.00000031978263e-07
-15 3.67394039744206e-16 1.5
0 0

0101101
*
Ed
 1.00000031978263e-07 1 1 0
1  19 0 0 7.00034999125044
3  49 50CN 7 0 0 7.00034999125044
2  51 8 9 0 7.00034999125044
0

0101000
+39 0 -45 0 *
Ed
 1.00000004884981e-07 1 1 0
1  20 0 4.71238898038469 6.28318530717959
2  52 9 0 4.71238898038469 6.28318530717959
2  53 13 0 4.71238898038469 6.28318530717959
2  54 7 0 4.71238898038469 6.28318530717959
2  55 8 9 4.71238898038469 6.28318530717959
0

0101000
+71 0 -39 0 *
Wi

0101100
+38 0 +37 0 +70 0 +43 0 *
Fa
0  1e-07 7 0

0101000
+36 0 *
Ve
1e-07
-15.2 3.67394039744206e-16 1.5
0 0

0101101
*
Ed
 1e-07 1 1 0
1  21 0 0 0.2
3  56 57CN 9 0 0 0.2
0

0101000
+34 0 -39 0 *
Ed
 1e-07 1 1 0
1  22 0 4.71238898038469 6.28318530717959
2  58 9 0 4.71238898038469 6.28318530717959
2  59 10 0 4.71238898038469 6.28318530717959
0

0101000
+69 0 -34 0 *
Wi

0101100
+33 0 +32 0 -68 0 -37 0 *
Fa
0  1e-07 9 0

0101000
+31 0 *
Ed
 1e-07 1 1 0
1  22 0 0 1.5707963267949
2  58 9 0 0 1.5707963267949
2  59 10 0 0 1.5707963267949
0

0101000
+34 0 -67 0 *
Wi

0101100
+32 0 +66 0 +29 0 *
Fa
0  1e-07 10 0

0101000
+28 0 *
Ed
 1.00000004218847e-07 1 1 0
1  20 0 0 1.5707963267949
2  52 9 0 0 1.5707963267949
2  53 13 0 0 1.5707963267949
2  54 7 0 0 1.5707963267949
2  60 8 9 0 1.5707963267949
0

0101000
+39 0 -65 0 *
Wi

0101100
-26 0 +64 0 +29 0 -33 0 *
Fa
0  1e-07 9 0

0101000
+25 0 *
Wi

0101100
+44 0 +62 0 +26 0 -38 0 *
Fa
0  1e-07 7 0

0101000
+23 0 *
Ve
1.00000031979495e-07
15 4.40872847693047e-16 1.8
0 0

0101101
*
Ed
 1.00000005551115e-07 1 1 0
1  23 0 0 1.5707963267949
2  61 7 0 0 1.5707963267949
2  62 14 0 0 1.5707963267949
2  63 11 0 0 1.5707963267949
2  64 8 9 0 1.5707963267949
0

0101000
+21 0 -59 0 *
Ed
 1.00000031979495e-07 1 1 0
1  19 0 23.0011499712514 30.0014999625019
3  49 50CN 7 0 23.0011499712514 30.0014999625019
2  65 8 9 23.0011499712514 30.0014999625019
0

0101000
+48 0 -21 0 *
Wi

0101100
-20 0 +58 0 +46 0 -19 0 *
Fa
0  1e-07 7 0

0101000
+18 0 *
Ve
1e-07
15.2 4.40872847693047e-16 1.8
0 0

0101101
*
Ed
 1e-07 1 1 0
1  24 0 0 1.5707963267949
2  66 11 0 0 1.5707963267949
2  67 12 0 0 1.5707963267949
0

0101000
+16 0 -57 0 *
Ed
 1e-07 1 1 0
1  25 0 0 0.2
3  68 69CN 11 0 0 0.2
0

0101000
+21 0 -16 0 *
Wi

0101100
-15 0 +56 0 +20 0 -14 0 *
Fa
0  1e-07 11 0

0101000
+13 0 *
Ed
 1e-07 1 1 0
1  24 0 4.71238898038469 6.28318530717959
2  66 11 0 4.71238898038469 6.28318530717959
2  67 12 0 4.71238898038469 6.28318530717959
0

0101000
+55 0 -16 0 *
Wi

0101100
+11 0 +54 0 +15 0 *
Fa
0  1e-07 12 0

0101000
+10 0 *
Ed
 1.0000000577316e-07 1 1 0
1  23 0 4.71238898038469 6.28318530717959
2  61 7 0 4.71238898038469 6.28318530717959
2  62 14 0 4.71238898038469 6.28318530717959
2  63 11 0 4.71238898038469 6.28318530717959
2  70 8 9 4.71238898038469 6.28318530717959
0

0101000
+53 0 -21 0 *
Wi

0101100
+14 0 +8 0 -52 0 -11 0 *
Fa
0  1e-07 11 0

0101000
+7 0 *
Wi

0101100
+19 0 +42 0 +51 0 -8 0 *
Fa
0  1e-07 7 0

0101000
+5 0 *
Sh

0101100
+81 0 +76 0 -49 0 -40 0 -35 0 -30 0 +27 0 -24 0 -22 0 -17 0 
-12 0 -9 0 -6 0 -4 0 *
So

0100000
+3 0 *
Co

0100000
+2 0 *

+1 0 