DBRep_DrawableShape

CASCADE Topology V3, (c) Open Cascade
Locations 5
1
              1               0               0               0 
              0               1               0               0 
              0               0               1           741.4 
1
              1               0               0               0 
              0               1               0               0 
              0               0               1            1382 
2  1 1 2 -1 0
1
              1               0               0               0 
              0               1               0               0 
              0               0               1            1592 
2  1 1 4 -1 0
Curve2ds 20
1 0 4 1 0 
2 0 0 1 0 -0 1 28.25
1 6.2831853071795862 -0 0 1 
1 0 -0 0 1 
1 0 0 1 0 
2 0 0 1 0 -0 1 28.25
2 0 0 1 0 -0 1 26.5
1 0 4.2000000000000002 1 0 
1 0 642.60000000000002 1 0 
1 0 852.60000000000002 1 0 
2 0 0 1 0 -0 1 26.5
1 0 0.20000000000000018 1 0 
1 0 638.60000000000002 1 0 
1 0 848.60000000000002 1 0 
1 6.2831853071795862 -0 0 1 
1 0 -0 0 1 
8 0.20000000000000018 4.2000000000000002
1 6.2831853071795862 638.39999999999998 0 1 
8 0.20000000000000018 4.2000000000000002
1 0 638.39999999999998 0 1 
8 0.20000000000000018 4.2000000000000002
1 6.2831853071795862 848.39999999999998 0 1 
8 0.20000000000000018 4.2000000000000002
1 0 848.39999999999998 0 1 
Curves 6
2 0 0 2 0 0 1 1 0 -0 -0 1 0 28.25
1 28.25 -6.9192544151825453e-15 -2 0 0 1 
2 0 0 -2 0 0 1 1 0 -0 -0 1 0 28.25
2 0 0 2 0 0 1 1 0 -0 -0 1 0 26.5
2 0 0 -2 0 0 1 1 0 -0 -0 1 0 26.5
1 26.5 -6.4906280354809723e-15 -2.2000000000000002 0 0 1 
Polygon3D 0
PolygonOnTriangulations 0
Surfaces 5
2 0 0 -2 0 0 1 1 0 -0 -0 1 0 28.25
1 0 0 2 0 0 1 1 0 -0 -0 1 0 
1 0 0 -2 0 0 1 1 0 -0 -0 1 0 
2 0 0 -2.2000000000000002 0 0 1 1 0 -0 -0 1 0 26.5
2 0 0 0 0 0 1 1 0 -0 -0 1 0 26.5
Triangulations 0

TShapes 23
Ve
1e-07
28.25 -6.91925441518255e-15 2
0 0

0101101
*
Ed
 1e-07 1 1 0
1  1 0 0 6.28318530717959
2  1 1 0 0 6.28318530717959
2  2 2 0 0 6.28318530717959
0

0101000
+23 0 -23 0 *
Ve
1e-07
28.25 -6.91925441518255e-15 -2
0 0

0101101
*
Ed
 1e-07 1 1 0
1  2 0 0 4
3  3 4CN 1 0 0 4
0

0101000
-23 0 +21 0 *
Ed
 1e-07 1 1 0
1  3 0 0 6.28318530717959
2  5 1 0 0 6.28318530717959
2  6 3 0 0 6.28318530717959
0

0101000
+21 0 -21 0 *
Wi

0101100
-22 0 +20 0 +19 0 -20 0 *
Fa
0  1e-07 1 0

0101000
+18 0 *
Wi

0101100
+22 0 *
Ve
1.00000006490628e-07
26.5 -6.49062803548097e-15 2
0 0

0101101
*
Ed
 1e-07 1 1 0
1  4 0 0 6.28318530717959
2  7 2 0 0 6.28318530717959
2  8 4 0 0 6.28318530717959
2  9 5 3 0 6.28318530717959
2  10 5 5 0 6.28318530717959
0

0101100
+15 0 -15 0 *
Wi

0101100
-14 0 *
Fa
0  1e-07 2 0

0101000
+16 0 +13 0 *
Wi

0101100
+19 0 *
Ve
1.00000006490628e-07
26.5 -6.49062803548097e-15 -2
0 0

0101101
*
Ed
 1e-07 1 1 0
1  5 0 0 6.28318530717959
2  11 3 0 0 6.28318530717959
2  12 4 0 0 6.28318530717959
2  13 5 3 0 6.28318530717959
2  14 5 5 0 6.28318530717959
0

0101100
+10 0 -10 0 *
Wi

0101100
-9 0 *
Fa
0  1e-07 3 0

0101000
+11 0 +8 0 *
Ed
 1e-07 1 1 0
1  6 0 0.2 4.2
3  15 16CN 4 0 0.2 4.2
3  17 18C0 5 3 0.2 4.2
3  19 20C0 5 5 0.2 4.2
0

0101000
+10 0 -15 0 *
Wi

0101100
-14 0 +6 0 +9 0 -6 0 *
Fa
0  1e-07 4 0

0101000
+5 0 *
Sh

0101100
+17 0 +12 0 -7 0 -4 0 *
So

0100000
+3 0 *
Co

0100000
+2 0 *

+1 0 