DBRep_DrawableShape

CASCADE Topology V3, (c) Open Cascade
Locations 0
Curve2ds 13
1 0 0.20000000000000001 1 0 
2 0 0 1 0 -0 1 0.75
1 6.2831853071795862 -0 0 1 
1 0 -0 0 1 
1 0 0 1 0 
2 0 0 1 0 -0 1 0.75
1 0 1.1499999999999999 1 0 
2 0 0 1 0 -0 1 0.45000000000000001
2 0 0 1 0 -0 1 0.45000000000000001
1 6.2831853071795862 -0 0 1 
1 0 -0 0 1 
1 0 0 1 0 
2 0 0 1 0 -0 1 0.45000000000000001
Curves 6
2 0 1.3499999999999999 0 0 1 0 0 -0 1 1 0 -0 0.75
1 -1.8369701987210297e-16 1.1499999999999999 0.75 0 1 0 
2 0 1.1499999999999999 0 0 1 0 0 -0 1 1 0 -0 0.75
2 0 1.1499999999999999 0 0 1 0 0 -0 1 1 0 -0 0.45000000000000001
1 -1.1021821192326179e-16 0 0.45000000000000001 0 1 0 
2 0 0 0 0 1 0 0 -0 1 1 0 -0 0.45000000000000001
Polygon3D 0
PolygonOnTriangulations 0
Surfaces 6
2 0 1.1499999999999999 0 0 1 0 0 -0 1 1 0 -0 0.75
1 0 1.3499999999999999 0 0 1 0 0 -0 1 1 0 -0 
1 0 1.1499999999999999 0 0 1 0 0 -0 1 1 0 -0 
2 0 0 0 0 1 0 0 -0 1 1 0 -0 0.45000000000000001
1 0 1.1499999999999999 0 0 1 0 0 -0 1 1 0 -0 
1 0 0 0 0 1 0 0 -0 1 1 0 -0 
Triangulations 0

TShapes 24
Ve
1e-07
-1.83697019872103e-16 1.35 0.75
0 0

0101101
*
Ed
 1e-07 1 1 0
1  1 0 0 6.28318530717959
2  1 1 0 0 6.28318530717959
2  2 2 0 0 6.28318530717959
0

0101000
+24 0 -24 0 *
Ve
1e-07
-1.83697019872103e-16 1.15 0.75
0 0

0101101
*
Ed
 1e-07 1 1 0
1  2 0 0 0.2
3  3 4CN 1 0 0 0.2
0

0101000
-24 0 +22 0 *
Ed
 1e-07 1 1 0
1  3 0 0 6.28318530717959
2  5 1 0 0 6.28318530717959
2  6 3 0 0 6.28318530717959
0

0101000
+22 0 -22 0 *
Wi

0101100
-23 0 +21 0 +20 0 -21 0 *
Fa
0  1e-07 1 0

0101000
+19 0 *
Wi

0101100
+23 0 *
Fa
0  1e-07 2 0

0101000
+17 0 *
Wi

0101100
+20 0 *
Ve
1e-07
-1.10218211923262e-16 1.15 0.45
0 0

0101101
*
Ed
 1e-07 1 1 0
1  4 0 0 6.28318530717959
2  7 4 0 0 6.28318530717959
2  8 5 0 0 6.28318530717959
2  9 3 0 0 6.28318530717959
0

0101000
+14 0 -14 0 *
Wi

0101100
-13 0 *
Fa
0  1e-07 3 0

0101000
+15 0 +12 0 *
Ve
1e-07
-1.10218211923262e-16 0 0.45
0 0

0101101
*
Ed
 1e-07 1 1 0
1  5 0 0 1.15
3  10 11CN 4 0 0 1.15
0

0101000
-14 0 +10 0 *
Ed
 1e-07 1 1 0
1  6 0 0 6.28318530717959
2  12 4 0 0 6.28318530717959
2  13 6 0 0 6.28318530717959
0

0101000
+10 0 -10 0 *
Wi

0101100
-13 0 +9 0 +8 0 -9 0 *
Fa
0  1e-07 4 0

0101000
+7 0 *
Wi

0101100
-8 0 *
Fa
0  1e-07 6 0

0101000
-5 0 *
Sh

0101100
+18 0 +16 0 -11 0 +6 0 -4 0 *
So

0100000
+3 0 *
Co

0100000
+2 0 *

+1 0 