DBRep_DrawableShape

CASCADE Topology V3, (c) Open Cascade
Locations 0
Curve2ds 24
1 0 200 1 0 
2 0 0 1 0 -0 1 44.200000000000003
8 -5.9999999999999997e-07 200.00000059999999
1 3.5168384427685737 0 0 1 
8 -5.9999999999999997e-07 200.00000059999999
1 66.299999999999997 -0.20000000000000001 0 -1 
1 0 0 1 0 
2 0 0 1 0 -0 1 44.200000000000003
8 -5.9999999999999997e-07 200.00000059999999
1 2.7663468644110125 0 0 1 
8 -5.9999999999999997e-07 200.00000059999999
1 44.200000000000003 -0.20000000000000001 0 -1 
8 -47.505551830738796 -0
1 0 0 0.93041756798202457 -0.36650122672429719 
8 -47.505551830738796 -0
1 0 -200.19999999999999 -1 -0 
2 0 0 1 0 -0 1 42.200000000000003
1 0 200.19999999999999 1 0 
8 -55.25 -7.7444481692612008
1 -51.405570631006853 -20.249192776517429 -0.93041756798202446 -0.36650122672429736 
8 -55.25 -7.7444481692612008
1 55.25 -200.19999999999999 -1 -0 
8 -55.25 -7.7444481692612008
1 -51.405570631006853 -20.249192776517429 -0.93041756798202446 -0.36650122672429736 
8 -55.25 -7.7444481692612008
1 55.25 -0.20000000000000001 -1 -0 
8 0.19999940000000002 200.20000059999998
1 3.5168384427685742 0 0 1 
8 0.19999940000000002 200.20000059999998
1 68.299999999999997 0 0 -1 
8 -47.505551830738796 -0
1 0 0 0.93041756798202457 -0.36650122672429719 
8 -47.505551830738796 -0
1 0 -0.20000000000000001 -1 -0 
2 0 0 1 0 -0 1 42.200000000000003
1 0 0.20000000000000001 1 0 
8 0.19999940000000002 200.20000059999998
1 2.7663468644110125 0 0 1 
8 0.19999940000000002 200.20000059999998
1 42.200000000000003 0 0 -1 
Curves 12
2 0 0 200 0 0 1 1 0 -0 -0 1 0 44.200000000000003
1 -41.124456504805487 -16.199354221213945 0 0 0 1 
2 0 0 0 0 0 1 1 0 -0 -0 1 0 44.200000000000003
1 -41.124456504805487 16.199354221213937 0 0 0 1 
1 0 0 200 0.93041756798202457 -0.36650122672429719 0 
2 0 0 200 0 0 1 1 0 -0 -0 1 0 42.200000000000003
1 -51.405570631006853 -20.249192776517429 200 -0.93041756798202446 -0.36650122672429736 0 
1 -51.405570631006853 -20.249192776517429 0 -0.93041756798202446 -0.36650122672429736 0 
1 -39.263621368841434 -15.466351767765349 -0.20000000000000001 0 0 1 
1 0 0 0 0.93041756798202457 -0.36650122672429719 0 
2 0 0 0 0 0 1 1 0 -0 -0 1 0 42.200000000000003
1 -39.263621368841441 15.466351767765342 -0.20000000000000001 0 0 1 
Polygon3D 0
PolygonOnTriangulations 0
Surfaces 6
2 0 0 0 0 0 1 1 0 -0 -0 1 0 44.200000000000003
1 0 0 200 0 0 1 1 0 -0 -0 1 0 
1 -102.81114126201371 -40.498385553034858 -0.20000000000000001 -0.36650122672429736 0.93041756798202446 0 0.93041756798202446 0.36650122672429736 0 0 0 -1 
1 0 0 0 0 0 1 1 0 -0 -0 1 0 
1 0 0 -0.20000000000000001 -0.36650122672429719 -0.93041756798202457 0 -0.93041756798202457 0.36650122672429719 0 -0 0 -1 
2 0 0 -0.20000000000000001 0 0 1 1 0 -0 -0 1 0 42.200000000000003
Triangulations 0

TShapes 34
Ve
1.50000003552714e-07
-41.1244565048055 16.1993542212139 200
0 0

0101101
*
Ve
1.5e-07
-41.1244565048055 -16.1993542212139 200
0 0

0101101
*
Ed
 1e-07 1 1 0
1  1 0 2.76634686441101 3.51683844276857
2  1 1 0 2.76634686441101 3.51683844276857
2  2 2 0 2.76634686441101 3.51683844276857
0

0101000
+34 0 -33 0 *
Ve
1.5e-07
-41.1244565048055 -16.1993542212139 0
0 0

0101101
*
Ed
 1e-07 1 1 0
1  2 0 0 200
2  3 1 0 0 200
2  4 3 0 0 200
0

0101000
+31 0 -33 0 *
Ve
1.50000003552714e-07
-41.1244565048055 16.1993542212139 0
0 0

0101101
*
Ed
 1e-07 1 1 0
1  3 0 2.76634686441101 3.51683844276857
2  5 1 0 2.76634686441101 3.51683844276857
2  6 4 0 2.76634686441101 3.51683844276857
0

0101000
+29 0 -31 0 *
Ed
 1e-07 1 1 0
1  4 0 0 200
2  7 1 0 0 200
2  8 5 0 0 200
0

0101000
+29 0 -34 0 *
Wi

0101100
-32 0 +30 0 +28 0 -27 0 *
Fa
0  1e-07 1 0

0101000
+26 0 *
Ve
1.50000001776357e-07
-39.2636213688414 15.4663517677653 200
0 0

0101101
*
Ed
 1.5e-07 1 1 0
1  5 0 -44.2 -42.2
2  9 2 0 -44.2 -42.2
2  10 5 0 -44.2 -42.2
0

0101000
+34 0 -24 0 *
Ve
1.5e-07
-39.2636213688414 -15.4663517677653 200
0 0

0101101
*
Ed
 1e-07 1 1 0
1  6 0 2.76634686441101 3.51683844276857
2  11 2 0 2.76634686441101 3.51683844276857
2  12 6 0 2.76634686441101 3.51683844276857
0

0101000
+24 0 -22 0 *
Ed
 1.5e-07 1 1 0
1  7 0 -13.05 -11.05
2  13 2 0 -13.05 -11.05
2  14 3 0 -13.05 -11.05
0

0101000
+22 0 -33 0 *
Wi

0101100
-23 0 -21 0 -20 0 +32 0 *
Fa
0  1e-07 2 0

0101000
+19 0 *
Ve
1.5e-07
-39.2636213688414 -15.4663517677653 0
0 0

0101101
*
Ed
 1.5e-07 1 1 0
1  8 0 -13.05 -11.05
2  15 4 0 -13.05 -11.05
2  16 3 0 -13.05 -11.05
0

0101000
+17 0 -31 0 *
Ed
 1e-07 1 1 0
1  9 0 0.2 200.2
2  17 6 0 0.2 200.2
2  18 3 0 0.2 200.2
0

0101000
+17 0 -22 0 *
Wi

0101100
+16 0 -15 0 -20 0 +30 0 *
Fa
0  1e-07 3 0

0101000
+14 0 *
Ve
1.50000001776357e-07
-39.2636213688414 15.4663517677653 0
0 0

0101101
*
Ed
 1.5e-07 1 1 0
1  10 0 -44.2 -42.2
2  19 4 0 -44.2 -42.2
2  20 5 0 -44.2 -42.2
0

0101000
+29 0 -12 0 *
Ed
 1e-07 1 1 0
1  11 0 2.76634686441101 3.51683844276857
2  21 4 0 2.76634686441101 3.51683844276857
2  22 6 0 2.76634686441101 3.51683844276857
0

0101000
+12 0 -17 0 *
Wi

0101100
-11 0 -10 0 -16 0 +28 0 *
Fa
0  1e-07 4 0

0101000
+9 0 *
Ed
 1e-07 1 1 0
1  12 0 0.2 200.2
2  23 6 0 0.2 200.2
2  24 5 0 0.2 200.2
0

0101000
+12 0 -24 0 *
Wi

0101100
-27 0 -23 0 +7 0 +11 0 *
Fa
0  1e-07 5 0

0101000
+6 0 *
Wi

0101100
-21 0 +15 0 +10 0 -7 0 *
Fa
0  1e-07 6 0

0101000
+4 0 *
Sh

0101100
+25 0 +18 0 -13 0 -8 0 -5 0 -3 0 *
So

0100000
+2 0 *

+1 0 