DBRep_DrawableShape

CASCADE Topology V3, (c) Open Cascade
Locations 14
1
              1              -0               0              -0 
              0               1               0               0 
             -0               0               1              -0 
2  1 -1 0
1
              1              -0               0              -0 
              0               1               0               0 
             -0               0               1              -0 
2  1 1 3 -1 0
2  3 -1 0
2  3 1 1 -1 0
1
              1              -0               0              -0 
              0               1               0               0 
             -0               0               1              -0 
1
              1              -0               0              -0 
              0               1               0               0 
             -0               0               1              -0 
2  3 1 8 -1 0
2  8 -1 0
2  3 1 7 -1 0
2  7 -1 0
2  8 1 3 -1 0
2  7 1 3 -1 0
Curve2ds 208
1 0 0 1 0 
2 0 0 1 0 -0 1 6.5
2 4 1 1 0 -0 1 6.5
1 0 0 1 0 
1 0 0 1 0 
1 -4 -1 1 0 
2 0 0 1 0 -0 1 2.1800000000000002
1 0 0.29999999999999982 1 0 
2 4 1 1 0 -0 1 2.1800000000000002
1 0 0.75 1 0 
2 4 1 1 0 -0 1 2.1800000000000002
1 0 0.75 1 0 
1 -4 -1 1 0 
1 0 0 0 1 
1 0 0 1 0 
1 -4 -1 0 1 
2 4 1 1 0 -0 1 6.5
1 0 8 1 0 
1 0 0 1 0 
1 0 0 0 1 
1 0 0 1 0 
1 11 0 0 1 
1 0 0.75 1 0 
1 6.2831853071795862 -0 0 1 
1 0 -0 0 1 
8 0.29999939999999992 2.3000005999999997
1 5.8066361001697651 0 0 1 
8 0.29999939999999992 2.3000005999999997
1 5.9371112513224427 0.29999999999999982 0 -1 
1 5.8066361001697651 0.45000000000000018 0 1 
2 0 0 1 0 -0 1 2.1800000000000002
1 0 2.2999999999999998 1 0 
2 4 1 1 0 -0 1 2.1800000000000002
1 0 2.75 1 0 
2 4 1 1 0 -0 1 2.1800000000000002
1 0 2.75 1 0 
8 0.29999939999999992 2.3000005999999997
1 3.6181418605996147 0 0 1 
8 0.29999939999999992 2.3000005999999997
1 2.0628887486775573 0.29999999999999982 0 -1 
1 3.6181418605996147 0.45000000000000018 0 1 
1 0 0 0 1 
1 0 2 1 0 
1 8 0 0 1 
1 0 0 0 -1 
8 -5.999999999062311e-07 2.0000005999999999
1 2.2336701504450325 0 0 1 
8 -5.999999999062311e-07 2.0000005999999999
1 6.123475382979799 0 0 1 
1 0 0 0 -1 
1 8 0 0 1 
1 11 0 0 -1 
1 0 8 1 0 
1 0 -2 1 0 
1 -11 0 1 0 
1 -11 8 1 0 
1 12 0 0 1 
1 0 0 1 0 
1 1 0 0 1 
1 -11 0 1 0 
1 -11 0 1 0 
1 0 0 0 -1 
1 0 0 0 1 
1 11 0 0 -1 
1 0 0 1 0 
1 0 -2 1 0 
8 -5.999999999062311e-07 2.0000005999999999
1 6.1287257086954021 0 0 1 
8 -5.999999999062311e-07 2.0000005999999999
1 10.422616289332565 0 0 -1 
1 0 2.75 1 0 
1 0 2 1 0 
2 0 0 1 0 -0 1 6.5
2 4 1 1 0 -0 1 6.5
1 -4 -1 1 0 
1 -4 -1 1 0 
1 -4 -1 0 1 
2 4 1 1 0 -0 1 6.5
8 0 8
1 11 0 0 1 
8 0 8
1 0 2 1 0 
1 12 0 0 -1 
1 8 0 0 1 
1 1 0 0 -1 
1 -11 -2 1 0 
1 0 0 1 0 
1 0 8 1 0 
1 2 0 0 1 
1 0 0 1 0 
1 0 0 1 0 
1 0 0 1 0 
1 12 0 0 -1 
1 0 0 0 1 
1 1 0 0 -1 
1 -11 -2 1 0 
8 0 8
1 11 0 0 1 
8 0 8
1 0 6.5 1 0 
1 0 4 1 0 
1 0 0 0 1 
1 7 6.25 1 0 
1 0 0 0 1 
1 0 0 0 -1 
1 7 2.25 0 1 
1 0 0 1 0 
1 0 0 0 1 
1 7 2.25 1 0 
1 2 0 0 -1 
1 8 0 0 1 
8 0 2
1 0 -2.25 1 0 
8 0 2
1 0 1 1 0 
1 2 0 0 1 
1 0 8.5 1 0 
1 0 4 1 0 
1 2 0 0 1 
1 7 6.25 1 0 
1 0 0 0 1 
1 2 0 0 -1 
1 7 2.25 0 1 
1 0 0 1 0 
1 2 0 0 1 
1 7 2.25 1 0 
1 2 0 0 -1 
1 0 0 0 1 
1 0 -8.5 1 0 
1 0 0 1 0 
1 12 0 0 -1 
1 0 0 0 1 
1 1 -6.5 0 -1 
1 0 0 1 0 
1 0 0 1 0 
1 -11 -6.5 1 0 
1 0 0 0 1 
1 0 0 1 0 
1 0 8 1 0 
1 0 0 1 0 
1 0 0 1 0 
2 0 0 1 0 -0 1 6.5
2 4 1 1 0 -0 1 6.5
2 4 1 1 0 -0 1 6.5
1 0 -8.5 1 0 
1 0 8 1 0 
1 12 0 0 -1 
1 8 0 0 1 
1 1 -6.5 0 -1 
1 -11 -6.5 1 0 
8 0 2
1 0 -6.25 1 0 
8 0 2
1 0 1 1 0 
1 1 -2.25 0 1 
8 11.800000000000001 14.199999999999999
1 -12 3.4128784747791983 1 0 
8 11.800000000000001 14.199999999999999
1 6.1961188248321903 0 0 1 
1 12 0 0 1 
1 0 2 1 0 
1 1 0 0 1 
1 1 -2.25 0 1 
1 0 0 1 0 
1 0 -2 1 0 
1 -11 -8.5 1 0 
1 -11 0 1 0 
1 11 6.5 0 -1 
1 0 0 0 1 
1 0 2 1 0 
1 8 0 0 1 
1 0 0 0 -1 
8 -5.999999999062311e-07 2.0000005999999999
1 2.2336701504450325 0 0 1 
8 -5.999999999062311e-07 2.0000005999999999
1 6.123475382979799 0 0 1 
1 11 6.5 0 -1 
1 0 8 1 0 
1 0 -2 1 0 
8 -5.999999999062311e-07 2.0000005999999999
1 6.1287257086954021 0 0 1 
8 -5.999999999062311e-07 2.0000005999999999
1 10.422616289332565 0 0 -1 
1 -4 -1 1 0 
2 0 0 1 0 -0 1 2.1800000000000002
1 0 0.30000000000000004 1 0 
2 4 1 1 0 -0 1 2.1800000000000002
1 0 7.25 1 0 
2 4 1 1 0 -0 1 2.1800000000000002
1 0 7.25 1 0 
1 -4 -1 1 0 
1 -4 -1 0 1 
1 -11 -8.5 1 0 
1 -11 8 1 0 
8 11.800000000000001 14.199999999999999
1 -12 3.4128784747791983 1 0 
8 11.800000000000001 14.199999999999999
1 0.087066482347395752 0 0 1 
2 -19.5 2 1 0 -0 1 23
1 0 12 1 0 
2 -19.5 2 1 0 -0 1 23
1 0 12 1 0 
1 6.2831853071795862 -0 0 1 
1 0 -0 0 1 
2 -19.5 2 1 0 -0 1 23
1 0 14 1 0 
2 -19.5 2 1 0 -0 1 23
1 0 14 1 0 
1 0 0 0 1 
1 0 8.5 1 0 
1 11 0 0 1 
1 0 2 1 0 
2 0 0 1 0 -0 1 6.5
2 4 1 1 0 -0 1 6.5
2 4 1 1 0 -0 1 6.5
1 0 7.25 1 0 
8 0.29999940000000014 2.3000005999999997
1 5.8066361001697651 0 0 1 
8 0.29999940000000014 2.3000005999999997
1 5.9371112513224427 0.30000000000000004 0 -1 
1 5.8066361001697651 6.9500000000000002 0 1 
2 0 0 1 0 -0 1 2.1800000000000002
1 0 2.2999999999999998 1 0 
2 4 1 1 0 -0 1 2.1800000000000002
1 0 9.25 1 0 
2 4 1 1 0 -0 1 2.1800000000000002
1 0 9.25 1 0 
8 0.29999940000000014 2.3000005999999997
1 3.6181418605996147 0 0 1 
8 0.29999940000000014 2.3000005999999997
1 2.0628887486775573 0.30000000000000004 0 -1 
1 3.6181418605996147 6.9500000000000002 0 1 
1 -4 -1 1 0 
1 -4 -1 1 0 
1 -4 -1 0 1 
1 0 9.25 1 0 
Curves 66
2 0 -4.25 0 0 1 0 0 -0 1 1 0 -0 6.5
1 -1 -4.25 -4 0 0 1 
2 0 -4.25 0 0 1 0 0 -0 1 1 0 -0 2.1800000000000002
1 -1 -4.25 -4 1 0 0 
1 7 -4.25 -4 0 0 1 
1 -1 -4.25 7 1 0 0 
1 -5.33946004428246e-16 -5 2.1800000000000002 0 1 0 
1 -1 -4.5499999999999998 1.9371112513224429 0 1 0 
2 0 -2.25 0 0 1 0 0 -0 1 1 0 -0 2.1800000000000002
1 -1 -4.5499999999999998 -1.9371112513224429 0 1 0 
1 -1 -2.25 -4 1 0 0 
1 7 -4.25 -4 0 1 0 
1 5.123475382979799 -4.25 -4 0 1 0 
1 7 -4.25 7 0 1 0 
1 7 -2.25 -4 0 0 1 
1 -1 -4.25 8 1 0 0 
1 -1 -4.25 7 0 1 0 
1 -1 -2.25 -4 0 0 1 
1 -1 -4.25 6.4226162893325647 0 1 0 
2 0 -2.25 0 0 1 0 0 -0 1 1 0 -0 6.5
1 -1 -2.25 7 1 0 0 
1 7 -4.25 8 0 1 0 
1 7 -4.25 7 0 0 1 
1 -1 -4.25 9 1 0 0 
1 -1 -4.25 7 0 0 1 
1 -1 -4.25 8 0 1 0 
1 -1 2.25 7 1 0 0 
1 6 2 7 1 0 0 
1 6 -2 7 0 1 0 
1 6 -2 7 1 0 0 
1 7 -4.25 9 0 1 0 
1 7 -2 7 0 0 1 
1 -1 4.25 9 1 0 0 
1 6 2 9 1 0 0 
1 6 -2 9 0 1 0 
1 6 -2 9 1 0 0 
1 -1 -4.25 9 0 1 0 
1 -1 4.25 7 0 0 1 
1 -1 2.25 8 0 1 0 
1 -1 2.25 -4 0 0 1 
1 -1 2.25 -4 1 0 0 
1 7 2.25 -4 0 0 1 
2 0 2.25 0 0 1 0 0 -0 1 1 0 -0 6.5
1 7 4.25 7 0 0 1 
1 7 2.25 8 0 1 0 
1 7 2 7 0 0 1 
1 9.4128784747791983 -2 -5 0 0 1 
1 -1 4.25 8 1 0 0 
1 -1 4.25 -4 0 0 1 
1 -1 4.25 -4 1 0 0 
1 7 2.25 -4 0 1 0 
1 5.123475382979799 2.25 -4 0 1 0 
1 7 4.25 -4 0 0 1 
1 -1 2.25 6.4226162893325647 0 1 0 
2 0 2.25 0 0 1 0 0 -0 1 1 0 -0 2.1800000000000002
1 9.4128784747791983 2 -5 0 0 1 
2 -13.5 0 7 0 0 1 1 0 -0 -0 1 0 23
2 -13.5 0 7 0 0 1 1 0 -0 -0 1 0 23
1 9.5 -5.6333752760778247e-15 -5 0 0 1 
2 -13.5 0 9 0 0 1 1 0 -0 -0 1 0 23
2 -13.5 0 9 0 0 1 1 0 -0 -0 1 0 23
1 -1 4.25 7 1 0 0 
2 0 4.25 0 0 1 0 0 -0 1 1 0 -0 6.5
1 -1 1.95 1.9371112513224429 0 1 0 
2 0 4.25 0 0 1 0 0 -0 1 1 0 -0 2.1800000000000002
1 -1 1.95 -1.9371112513224429 0 1 0 
Polygon3D 0
PolygonOnTriangulations 0
Surfaces 33
1 0 -4.25 0 0 1 0 0 -0 1 1 0 -0 
2 0 -4.25 0 0 1 0 0 -0 1 1 0 -0 6.5
1 -1 -4.25 -4 0 1 0 0 0 1 1 0 0 
1 -1 -4.25 -4 1 0 0 0 0 1 0 -1 0 
2 0 -4.5499999999999998 0 0 1 0 0 -0 1 1 0 -0 2.1800000000000002
2 0 -5 0 0 1 0 0 -0 1 1 0 -0 2.1800000000000002
1 -1 -4.25 -4 0 0 1 1 0 0 0 1 0 
1 7 -4.25 -4 1 0 0 0 0 1 0 -1 0 
1 -1 -4.25 7 0 1 0 0 0 1 1 0 0 
1 -1 -4.25 7 0 0 1 1 0 0 0 1 0 
1 0 -2.25 0 0 1 0 0 -0 1 1 0 -0 
1 -1 -2.25 -4 0 1 0 0 0 1 1 0 0 
1 7 -4.25 7 1 0 0 0 0 1 0 -1 0 
1 -1 -4.25 8 0 0 1 1 0 0 0 1 0 
1 -1 -4.25 7 1 0 0 0 0 1 0 -1 0 
1 -1 -4.25 9 0 0 1 1 0 0 0 1 0 
1 -1 2.25 -4 0 1 0 0 0 1 1 0 0 
1 6 -2 7 0 0 1 1 0 0 0 1 0 
1 6 2 7 0 1 0 0 0 1 1 0 0 
1 6 -2 7 1 0 0 0 0 1 0 -1 0 
1 6 -2 7 0 1 0 0 0 1 1 0 0 
1 -1 4.25 7 0 1 0 0 0 1 1 0 0 
1 6 -2 9 0 0 1 1 0 0 0 1 0 
1 -1 2.25 -4 1 0 0 0 0 1 0 -1 0 
1 -1 2.25 8 0 0 1 1 0 0 0 1 0 
1 -1 2.25 -4 0 0 1 1 0 0 0 1 0 
1 7 2.25 -4 1 0 0 0 0 1 0 -1 0 
2 0 2.25 0 0 1 0 0 -0 1 1 0 -0 6.5
1 0 2.25 0 0 1 0 0 -0 1 1 0 -0 
2 -13.5 0 -5 0 0 1 1 0 -0 -0 1 0 23
1 -1 4.25 -4 0 1 0 0 0 1 1 0 0 
2 0 1.95 0 0 1 0 0 -0 1 1 0 -0 2.1800000000000002
1 0 4.25 0 0 1 0 0 -0 1 1 0 -0 
Triangulations 0

TShapes 277
Ve
1.00000011129397e-07
-0.999999999999989 -4.25 6.42261628933257
0 0

0101101
*
Ve
1e-07
-1.59204083889156e-15 -4.25 6.5
0 0

0101101
*
Ed
 1e-07 1 1 0
1  1 0 6.1287257086954 6.28318530717959
2  1 2 0 6.1287257086954 6.28318530717959
2  2 1 0 6.1287257086954 6.28318530717959
2  3 3 1 6.1287257086954 6.28318530717959
0

0101000
+277 0 -276 0 *
Ve
1.00000103478742e-07
-1.00000000000007 -4.25 1.93711125132237
0 0

0101101
*
Ed
 1e-07 1 1 0
1  2 0 5.93711125132237 10.4226162893326
2  4 3 0 5.93711125132237 10.4226162893326
2  5 4 0 5.93711125132237 10.4226162893326
2  6 1 2 5.93711125132237 10.4226162893326
0

0101000
+274 2 -277 2 *
Ve
1.00000000800593e-07
-5.33946004428246e-16 -4.25 2.18
0 0

0101101
*
Ed
 1e-07 1 1 0
1  3 0 5.80663610016972 6.28318530717959
2  7 1 0 5.80663610016972 6.28318530717959
2  8 5 0 5.80663610016972 6.28318530717959
2  9 3 1 5.80663610016972 6.28318530717959
2  10 6 0 5.80663610016972 6.28318530717959
0

0101000
+274 0 -272 0 *
Ve
1.00000002987305e-07
-1 -4.25 -1.93711125132244
0 0

0101101
*
Ed
 1.00000000800593e-07 1 1 0
1  3 0 0 3.61814186059962
2  7 1 0 0 3.61814186059962
2  8 5 0 0 3.61814186059962
2  11 3 1 0 3.61814186059962
2  12 6 0 0 3.61814186059962
0

0101000
+272 0 -270 0 *
Ve
1e-07
-1 -4.25 -4
0 0

0101101
*
Ed
 1e-07 1 1 0
1  2 0 0 2.06288874867756
2  4 3 0 0 2.06288874867756
2  5 4 0 0 2.06288874867756
2  13 1 2 0 2.06288874867756
0

0101000
+268 2 -270 2 *
Ve
1.00000170982997e-07
5.12347538297966 -4.25 -4.00000000000009
0 0

0101101
*
Ed
 1e-07 1 1 0
1  4 0 0 6.12347538297966
2  14 3 0 0 6.12347538297966
2  15 7 0 0 6.12347538297966
2  16 1 2 0 6.12347538297966
0

0101000
+268 2 -266 2 *
Ed
 1e-07 1 1 0
1  1 0 0 2.23367015044506
2  1 2 0 0 2.23367015044506
2  2 1 0 0 2.23367015044506
2  17 3 1 0 2.23367015044506
0

0101000
+276 0 -266 0 *
Wi

0101100
+275 0 +273 1 -271 0 -269 0 +267 1 -265 1 +264 0 *
Fa
0  1e-07 1 0

0101000
+263 0 *
Ve
1e-07
7 -4.25 -4
0 0

0101101
*
Ed
 1e-07 1 1 0
1  4 0 6.12347538297966 8
2  14 3 0 6.12347538297966 8
2  15 7 0 6.12347538297966 8
0

0101000
+266 2 -261 2 *
Ve
1e-07
7 -4.25 7
0 0

0101101
*
Ed
 1e-07 1 1 0
1  5 0 0 11
2  18 3 0 0 11
2  19 8 0 0 11
0

0101000
+261 2 -259 2 *
Ve
1e-07
-1 -4.25 7
0 0

0101101
*
Ed
 1e-07 1 1 0
1  6 0 0 8
2  20 9 0 0 8
2  21 10 0 0 8
2  22 3 4 0 8
0

0101000
-259 5 +257 5 *
Ed
 1e-07 1 1 0
1  2 0 10.4226162893326 11
2  4 3 0 10.4226162893326 11
2  5 4 0 10.4226162893326 11
0

0101000
+277 2 -257 2 *
Wi

0101100
-260 1 -258 1 +256 3 +255 1 -275 0 -264 0 *
Fa
0  1e-07 3 1

0101000
+254 0 *
Ed
 1.00000000800593e-07 1 1 0
1  3 0 3.61814186059962 5.80663610016972
2  7 1 0 3.61814186059962 5.80663610016972
2  8 5 0 3.61814186059962 5.80663610016972
2  23 6 0 3.61814186059962 5.80663610016972
0

0101000
+270 0 -274 0 *
Ed
 1e-07 1 1 0
1  1 0 2.23367015044506 6.1287257086954
2  1 2 0 2.23367015044506 6.1287257086954
2  2 1 0 2.23367015044506 6.1287257086954
0

0101000
+266 0 -277 0 *
Wi

0101100
+265 1 -267 1 -252 0 -273 1 +251 0 *
Fa
0  1e-07 1 0

0101000
+250 0 *
Ve
1.00000000800593e-07
-5.33946004428246e-16 -2.25 2.18
0 0

0101101
*
Ed
 1e-07 1 1 0
1  7 0 0.75 2.75
3  24 25CN 6 0 0.75 2.75
0

0101000
+272 0 -248 0 *
Ve
1.00000103478742e-07
-1.00000000000007 -2.25 1.93711125132237
0 0

0101101
*
Ed
 1.00000000314018e-07 1 1 0
1  8 0 0.3 2.3
2  26 5 0 0.3 2.3
2  27 4 1 0.3 2.3
2  28 6 0 0.3 2.3
0

0101000
+274 0 -246 0 *
Ed
 1e-07 1 1 0
1  9 0 5.80663610016972 6.28318530717959
2  29 11 0 5.80663610016972 6.28318530717959
2  30 5 0 5.80663610016972 6.28318530717959
2  31 12 1 5.80663610016972 6.28318530717959
2  32 6 0 5.80663610016972 6.28318530717959
0

0101000
+246 0 -248 0 *
Wi

0101100
+247 0 +271 0 -245 0 -244 0 *
Fa
0  1e-07 6 0

0101000
+243 0 *
Ve
1.00000002987305e-07
-1 -2.25 -1.93711125132244
0 0

0101101
*
Ed
 1.00000000800593e-07 1 1 0
1  9 0 0 3.61814186059962
2  29 11 0 0 3.61814186059962
2  30 5 0 0 3.61814186059962
2  33 12 1 0 3.61814186059962
2  34 6 0 0 3.61814186059962
0

0101000
+248 0 -241 0 *
Ed
 1.00000000248253e-07 1 1 0
1  10 0 0.3 2.3
2  35 5 0 0.3 2.3
2  36 4 1 0.3 2.3
2  37 6 0 0.3 2.3
0

0101000
+270 0 -241 0 *
Wi

0101100
-240 0 +239 0 +269 0 -247 0 *
Fa
0  1e-07 6 0

0101000
+238 0 *
Ve
1.00000170982997e-07
5.12347538297966 -2.25 -4.00000000000009
0 0

0101101
*
Ve
1e-07
7 -2.25 -4
0 0

0101101
*
Ed
 1e-07 1 1 0
1  11 0 6.12347538297966 8
2  38 12 0 6.12347538297966 8
2  39 7 0 6.12347538297966 8
0

0101000
+236 2 -235 2 *
Ed
 1e-07 1 1 0
1  12 0 0 2
2  40 7 0 0 2
2  41 8 0 0 2
0

0101000
-235 2 +261 2 *
Ed
 1e-07 1 1 0
1  13 0 0 2
2  42 2 0 0 2
2  43 7 1 0 2
0

0101000
+266 0 -236 0 *
Wi

0101100
-234 1 +233 1 +260 1 -232 0 *
Fa
0  1e-07 7 1

0101000
+231 0 *
Ve
1.5e-07
7 -2.25 7
0 0

0101101
*
Ed
 1e-07 1 1 0
1  14 0 0 2
2  44 13 0 0 2
2  45 10 0 0 2
2  46 8 4 0 2
0

0101000
+259 5 -229 5 *
Ed
 1e-07 1 1 0
1  15 0 0 11
2  47 12 0 0 11
2  48 8 0 0 11
0

0101000
+235 2 -229 2 *
Wi

0101100
-258 1 -228 3 +227 1 +233 1 *
Fa
0  1e-07 8 1

0101000
+226 0 *
Ve
1e-07
7 -4.25 8
0 0

0101101
*
Ed
 1e-07 1 1 0
1  5 0 11 12
2  18 3 0 11 12
2  19 8 0 11 12
2  49 13 6 11 12
2  50 9 6 11 12
0

0101000
+259 2 -224 2 *
Ve
1e-07
-1 -4.25 8
0 0

0101101
*
Ed
 1e-07 1 1 0
1  16 0 0 8
2  51 3 0 0 8
2  52 14 0 0 8
2  53 9 6 0 8
0

0101000
-224 2 +222 2 *
Ed
 1e-07 1 1 0
1  2 0 11 12
2  4 3 0 11 12
2  5 4 0 11 12
2  54 15 6 11 12
2  55 9 6 11 12
0

0101000
+257 2 -222 2 *
Wi

0101100
-223 1 +221 1 +220 1 -256 3 *
Fa
0  1e-07 3 1

0101000
+219 0 *
Ve
1.5e-07
-1 -2.25 7
0 0

0101101
*
Ed
 1e-07 1 1 0
1  17 0 0 2
2  56 15 0 0 2
2  57 10 0 0 2
2  58 4 4 0 2
0

0101000
+257 5 -217 5 *
Ve
1.00000011129397e-07
-0.999999999999989 -2.25 6.42261628933257
0 0

0101101
*
Ed
 1e-07 1 1 0
1  18 0 10.4226162893326 11
2  59 12 0 10.4226162893326 11
2  60 4 0 10.4226162893326 11
0

0101000
+215 2 -217 2 *
Ed
 1e-07 1 1 0
1  19 0 0 2
2  61 2 0 0 2
2  62 4 1 0 2
0

0101000
+277 0 -215 0 *
Wi

0101100
-255 1 -216 3 +214 1 +213 0 *
Fa
0  1e-07 4 1

0101000
+212 0 *
Ed
 1.00000000800593e-07 1 1 0
1  9 0 3.61814186059962 5.80663610016972
2  29 11 0 3.61814186059962 5.80663610016972
2  30 5 0 3.61814186059962 5.80663610016972
2  63 6 0 3.61814186059962 5.80663610016972
0

0101000
+241 0 -246 0 *
Wi

0101100
-210 0 +245 0 +252 0 -239 0 *
Fa
0  1e-07 5 0

0101000
+209 0 *
Ed
 1e-07 1 1 0
1  20 0 2.23367015044506 6.1287257086954
2  64 2 0 2.23367015044506 6.1287257086954
2  65 11 0 2.23367015044506 6.1287257086954
0

0101000
+236 0 -215 0 *
Wi

0101100
-207 0 +213 0 +251 0 -232 0 *
Fa
0  1e-07 2 0

0101000
+206 0 *
Ve
1e-07
-1.59204083889156e-15 -2.25 6.5
0 0

0101101
*
Ed
 1e-07 1 1 0
1  20 0 6.1287257086954 6.28318530717959
2  64 2 0 6.1287257086954 6.28318530717959
2  65 11 0 6.1287257086954 6.28318530717959
2  66 12 1 6.1287257086954 6.28318530717959
0

0101000
+215 0 -204 0 *
Ed
 1e-07 1 1 0
1  18 0 5.93711125132237 10.4226162893326
2  59 12 0 5.93711125132237 10.4226162893326
2  60 4 0 5.93711125132237 10.4226162893326
2  67 11 2 5.93711125132237 10.4226162893326
0

0101000
+246 2 -215 2 *
Ve
1e-07
-1 -2.25 -4
0 0

0101101
*
Ed
 1e-07 1 1 0
1  18 0 0 2.06288874867756
2  59 12 0 0 2.06288874867756
2  60 4 0 0 2.06288874867756
2  68 11 2 0 2.06288874867756
0

0101000
+201 2 -241 2 *
Ed
 1e-07 1 1 0
1  11 0 0 6.12347538297966
2  38 12 0 0 6.12347538297966
2  39 7 0 0 6.12347538297966
2  69 11 2 0 6.12347538297966
0

0101000
+201 2 -236 2 *
Ed
 1e-07 1 1 0
1  20 0 0 2.23367015044506
2  64 2 0 0 2.23367015044506
2  65 11 0 0 2.23367015044506
2  70 12 1 0 2.23367015044506
0

0101000
+204 0 -236 0 *
Wi

0101100
+203 0 +202 1 -244 0 -240 0 +200 1 -199 1 +198 0 *
Fa
0  1e-07 11 0

0101000
+197 0 *
Ed
 1.5e-07 1 1 0
1  21 0 0 8
2  71 12 1 0 8
2  72 10 3 0 8
0

0101000
+217 0 -229 0 *
Wi

0101100
-234 1 -227 1 +195 0 +214 1 -203 0 -198 0 *
Fa
0  1e-07 12 1

0101000
+194 0 *
Ve
1e-07
7 -2.25 8
0 0

0101101
*
Ed
 1e-07 1 1 0
1  22 0 0 2
2  73 8 0 0 2
2  74 14 0 0 2
2  75 13 6 0 2
0

0101000
-192 2 +224 2 *
Ed
 1e-07 1 1 0
1  15 0 11 12
2  47 12 0 11 12
2  48 8 0 11 12
2  76 13 6 11 12
0

0101000
+229 2 -192 2 *
Wi

0101100
-223 1 -191 1 +190 1 +228 3 *
Fa
0  1e-07 8 1

0101000
+189 0 *
Ve
1e-07
7 -4.25 9
0 0

0101101
*
Ed
 1e-07 1 1 0
1  23 0 1 2
2  77 13 0 1 2
2  78 9 0 1 2
0

0101000
+224 5 -187 5 *
Ve
1e-07
-1 -4.25 9
0 0

0101101
*
Ed
 1e-07 1 1 0
1  24 0 0 8
2  79 9 0 0 8
2  80 16 0 0 8
0

0101000
-187 5 +185 5 *
Ed
 1e-07 1 1 0
1  25 0 1 2
2  81 9 0 1 2
2  82 15 0 1 2
0

0101000
+222 5 -185 5 *
Wi

0101100
-186 3 +184 3 +183 3 -221 1 *
Fa
0  1e-07 9 3

0101000
+182 0 *
Ve
1e-07
-1 -2.25 8
0 0

0101101
*
Ed
 1e-07 1 1 0
1  26 0 0 2
2  83 4 0 0 2
2  84 14 0 0 2
2  85 15 6 0 2
0

0101000
-180 2 +222 2 *
Ed
 1e-07 1 1 0
1  18 0 11 12
2  59 12 0 11 12
2  60 4 0 11 12
2  86 15 6 11 12
0

0101000
+217 2 -180 2 *
Wi

0101100
-220 1 -179 1 +178 1 +216 3 *
Fa
0  1e-07 4 1

0101000
+177 0 *
Wi

0101100
+199 1 -200 1 -210 0 -202 1 +207 0 *
Fa
0  1e-07 11 0

0101000
+175 0 *
Ve
1.5e-07
-1 2.25 7
0 0

0101101
*
Ed
 1e-07 1 1 0
1  17 0 2 6.5
2  56 15 0 2 6.5
2  57 10 0 2 6.5
0

0101000
+217 5 -173 5 *
Ve
1.5e-07
7 2.25 7
0 0

0101101
*
Ed
 1.5e-07 1 1 0
1  27 0 0 8
2  87 17 7 0 8
2  88 10 3 0 8
0

0101000
+173 0 -171 0 *
Ve
1.5e-07
7 2 7
0 0

0101101
*
Ed
 1e-07 1 1 0
1  14 0 6.25 6.5
2  44 13 0 6.25 6.5
2  45 10 0 6.25 6.5
0

0101000
+169 5 -171 5 *
Ve
1e-07
6 2 7
0 0

0101101
*
Ed
 1e-07 1 1 0
1  28 0 0 1
2  89 18 0 0 1
2  90 19 0 0 1
2  91 10 9 0 1
0

0101000
+167 10 -169 10 *
Ve
1e-07
6 -2 7
0 0

0101101
*
Ed
 1e-07 1 1 0
1  29 0 0 4
2  92 18 0 0 4
2  93 20 0 0 4
2  94 10 9 0 4
0

0101000
-167 10 +165 10 *
Ve
1.5e-07
7 -2 7
0 0

0101101
*
Ed
 1e-07 1 1 0
1  30 0 0 1
2  95 18 0 0 1
2  96 21 0 0 1
2  97 10 9 0 1
0

0101000
+165 10 -163 10 *
Ed
 1e-07 1 1 0
1  14 0 2 2.25
2  44 13 0 2 2.25
2  45 10 0 2 2.25
0

0101000
+229 5 -163 5 *
Wi

0101100
-172 3 -170 0 +168 3 +166 8 +164 8 -162 8 +161 3 +195 0 *
Fa
0  1e-07 10 3

0101000
+160 0 *
Ve
1.5e-07
7 -2 9
0 0

0101101
*
Ed
 1e-07 1 1 0
1  31 0 0 2.25
2  98 13 0 0 2.25
2  99 16 0 0 2.25
0

0101000
+187 5 -158 5 *
Ed
 1.5e-07 1 1 0
1  32 0 0 2
2  100 13 3 0 2
2  101 21 8 0 2
0

0101000
+163 0 -158 0 *
Wi

0101100
-186 3 -157 3 +156 0 +161 3 -190 1 +191 1 *
Fa
0  1e-07 13 3

0101000
+155 0 *
Ve
1e-07
7 4.25 9
0 0

0101101
*
Ve
1e-07
-1 4.25 9
0 0

0101101
*
Ed
 1e-07 1 1 0
1  33 0 0 8
2  102 22 0 0 8
2  103 16 0 0 8
0

0101000
-153 5 +152 5 *
Ve
1.5e-07
7 2 9
0 0

0101101
*
Ed
 1e-07 1 1 0
1  31 0 6.25 8.5
2  98 13 0 6.25 8.5
2  99 16 0 6.25 8.5
0

0101000
+150 5 -153 5 *
Ve
1e-07
6 2 9
0 0

0101101
*
Ed
 1e-07 1 1 0
1  34 0 0 1
2  104 23 0 0 1
2  105 19 0 0 1
2  106 16 9 0 1
0

0101000
+148 10 -150 10 *
Ve
1e-07
6 -2 9
0 0

0101101
*
Ed
 1e-07 1 1 0
1  35 0 0 4
2  107 23 0 0 4
2  108 20 0 0 4
2  109 16 9 0 4
0

0101000
-148 10 +146 10 *
Ed
 1e-07 1 1 0
1  36 0 0 1
2  110 23 0 0 1
2  111 21 0 0 1
2  112 16 9 0 1
0

0101000
+146 10 -158 10 *
Ed
 1e-07 1 1 0
1  37 0 0 8.5
2  113 15 0 0 8.5
2  114 16 0 0 8.5
0

0101000
-152 5 +185 5 *
Wi

0101100
-151 3 +149 3 +147 8 +145 8 -144 8 +157 3 +184 3 -143 3 *
Fa
0  1e-07 16 3

0101000
+142 0 *
Ve
1e-07
-1 4.25 8
0 0

0101101
*
Ed
 1e-07 1 1 0
1  38 0 1 2
2  115 15 0 1 2
2  116 22 0 1 2
0

0101000
+140 5 -152 5 *
Ve
1e-07
-1 2.25 8
0 0

0101101
*
Ed
 1e-07 1 1 0
1  39 0 0 2
2  117 24 0 0 2
2  118 25 0 0 2
2  119 15 11 0 2
0

0101000
-140 12 +138 12 *
Ed
 1e-07 1 1 0
1  40 0 11 12
2  120 17 0 11 12
2  121 24 0 11 12
2  122 15 11 11 12
0

0101000
+173 12 -138 12 *
Wi

0101100
-183 3 -143 3 +139 3 +137 7 +136 7 +172 3 -178 1 +179 1 *
Fa
0  1e-07 15 3

0101000
+135 0 *
Ve
1.00000170982997e-07
5.12347538297966 2.25 -4.00000000000009
0 0

0101101
*
Ve
1e-07
7 2.25 -4
0 0

0101101
*
Ed
 1e-07 1 1 0
1  41 0 6.12347538297966 8
2  123 17 0 6.12347538297966 8
2  124 26 0 6.12347538297966 8
0

0101000
+133 12 -132 12 *
Ed
 1e-07 1 1 0
1  42 0 0 11
2  125 17 0 0 11
2  126 27 0 0 11
0

0101000
+132 12 -171 12 *
Ve
1.00000011129397e-07
-0.999999999999989 2.25 6.42261628933257
0 0

0101101
*
Ed
 1e-07 1 1 0
1  40 0 10.4226162893326 11
2  120 17 0 10.4226162893326 11
2  121 24 0 10.4226162893326 11
0

0101000
+129 12 -173 12 *
Ve
1e-07
-1.59204083889156e-15 2.25 6.5
0 0

0101101
*
Ed
 1e-07 1 1 0
1  43 0 6.1287257086954 6.28318530717959
2  127 28 0 6.1287257086954 6.28318530717959
2  128 29 0 6.1287257086954 6.28318530717959
2  129 17 7 6.1287257086954 6.28318530717959
0

0101000
+129 0 -127 0 *
Ed
 1e-07 1 1 0
1  43 0 0 2.23367015044506
2  127 28 0 0 2.23367015044506
2  128 29 0 0 2.23367015044506
2  130 17 7 0 2.23367015044506
0

0101000
+127 0 -133 0 *
Wi

0101100
-131 7 -130 7 +170 0 +128 7 -126 0 -125 0 *
Fa
0  1e-07 17 7

0101000
+124 0 *
Ve
1e-07
7 4.25 8
0 0

0101101
*
Ed
 1e-07 1 1 0
1  44 0 1 2
2  131 13 0 1 2
2  132 22 0 1 2
0

0101000
+122 5 -153 5 *
Ve
1e-07
7 2.25 8
0 0

0101101
*
Ed
 1e-07 1 1 0
1  45 0 0 2
2  133 27 0 0 2
2  134 25 0 0 2
2  135 13 11 0 2
0

0101000
-122 12 +120 12 *
Ed
 1e-07 1 1 0
1  42 0 11 12
2  125 17 0 11 12
2  126 27 0 11 12
2  136 13 11 11 12
0

0101000
+171 12 -120 12 *
Ed
 1.5e-07 1 1 0
1  46 0 0 2
2  137 13 3 0 2
2  138 19 8 0 2
0

0101000
+169 0 -150 0 *
Wi

0101100
-149 3 +121 3 +119 7 +118 7 +168 3 -117 0 *
Fa
0  1e-07 13 3

0101000
+116 0 *
Ed
 1e-07 1 1 0
1  14 0 2.25 6.25
2  44 13 0 2.25 6.25
2  45 10 0 2.25 6.25
2  139 18 13 2.25 6.25
0

0101000
+163 5 -169 5 *
Wi

0101100
+162 8 -164 8 -166 8 +114 3 *
Fa
0  1e-07 10 3

0101000
+113 0 *
Ve
1.00000009057678e-07
9.4128784747792 -2 7
0 0

0101101
*
Ed
 1e-07 1 1 0
1  30 0 1 3.4128784747792
2  95 18 0 1 3.4128784747792
2  96 21 0 1 3.4128784747792
0

0101000
+163 10 -111 10 *
Ve
1.00000009057678e-07
9.4128784747792 -2 9
0 0

0101101
*
Ed
 1e-07 1 1 0
1  47 0 12 14
2  140 21 8 12 14
2  141 30 0 12 14
0

0101000
+111 0 -109 0 *
Ed
 1e-07 1 1 0
1  36 0 1 3.4128784747792
2  110 23 0 1 3.4128784747792
2  111 21 0 1 3.4128784747792
0

0101000
+158 10 -109 10 *
Wi

0101100
-110 8 -108 0 +107 8 +156 0 *
Fa
0  1e-07 21 8

0101000
+106 0 *
Ed
 1e-07 1 1 0
1  48 0 0 8
2  142 31 0 0 8
2  143 25 0 0 8
2  144 22 11 0 8
0

0101000
-122 12 +140 12 *
Wi

0101100
-121 3 +151 3 +139 3 -104 7 *
Fa
0  1e-07 22 3

0101000
+103 0 *
Ed
 1e-07 1 1 0
1  31 0 2.25 6.25
2  98 13 0 2.25 6.25
2  99 16 0 2.25 6.25
2  145 23 13 2.25 6.25
0

0101000
+158 5 -150 5 *
Wi

0101100
+101 3 +144 8 -145 8 -147 8 *
Fa
0  1e-07 16 3

0101000
+100 0 *
Ve
1e-07
-1 4.25 7
0 0

0101101
*
Ed
 1e-07 1 1 0
1  49 0 11 12
2  146 31 0 11 12
2  147 24 0 11 12
2  148 15 11 11 12
2  149 22 11 11 12
0

0101000
+98 12 -140 12 *
Ed
 1e-07 1 1 0
1  17 0 6.5 8.5
2  56 15 0 6.5 8.5
2  57 10 0 6.5 8.5
2  150 24 14 6.5 8.5
0

0101000
+173 5 -98 5 *
Wi

0101100
-136 7 -137 7 +97 7 +96 3 *
Fa
0  1e-07 24 7

0101000
+95 0 *
Ve
1.00000170982997e-07
5.12347538297966 4.25 -4.00000000000009
0 0

0101101
*
Ve
1e-07
7 4.25 -4
0 0

0101101
*
Ed
 1e-07 1 1 0
1  50 0 6.12347538297966 8
2  151 31 0 6.12347538297966 8
2  152 26 0 6.12347538297966 8
0

0101000
+93 12 -92 12 *
Ed
 1e-07 1 1 0
1  51 0 0 2
2  153 26 0 0 2
2  154 27 0 0 2
0

0101000
-92 12 +132 12 *
Ed
 1e-07 1 1 0
1  52 0 0 2
2  155 28 0 0 2
2  156 26 7 0 2
0

0101000
+133 0 -93 0 *
Wi

0101100
-91 7 +90 7 +131 7 -89 0 *
Fa
0  1e-07 26 7

0101000
+88 0 *
Ve
1e-07
7 4.25 7
0 0

0101101
*
Ed
 1e-07 1 1 0
1  14 0 6.5 8.5
2  44 13 0 6.5 8.5
2  45 10 0 6.5 8.5
2  157 27 14 6.5 8.5
0

0101000
+171 5 -86 5 *
Ed
 1e-07 1 1 0
1  53 0 0 11
2  158 31 0 0 11
2  159 27 0 0 11
0

0101000
+92 12 -86 12 *
Wi

0101100
-130 7 -85 3 +84 7 +90 7 *
Fa
0  1e-07 27 7

0101000
+83 0 *
Ve
1.00000011129397e-07
-0.999999999999989 4.25 6.42261628933257
0 0

0101101
*
Ed
 1e-07 1 1 0
1  49 0 10.4226162893326 11
2  146 31 0 10.4226162893326 11
2  147 24 0 10.4226162893326 11
0

0101000
+81 12 -98 12 *
Ed
 1e-07 1 1 0
1  54 0 0 2
2  160 28 0 0 2
2  161 24 7 0 2
0

0101000
+129 0 -81 0 *
Wi

0101100
-128 7 -96 3 +80 7 +79 0 *
Fa
0  1e-07 24 7

0101000
+78 0 *
Ve
1.00000103478742e-07
-1.00000000000007 2.25 1.93711125132237
0 0

0101101
*
Ed
 1e-07 1 1 0
1  40 0 5.93711125132237 10.4226162893326
2  120 17 0 5.93711125132237 10.4226162893326
2  121 24 0 5.93711125132237 10.4226162893326
2  162 29 12 5.93711125132237 10.4226162893326
0

0101000
+76 12 -129 12 *
Ve
1.00000000800593e-07
-5.33946004428246e-16 2.25 2.18
0 0

0101101
*
Ed
 1e-07 1 1 0
1  55 0 5.80663610016972 6.28318530717959
2  163 29 0 5.80663610016972 6.28318530717959
2  164 32 0 5.80663610016972 6.28318530717959
2  165 17 7 5.80663610016972 6.28318530717959
2  166 6 0 5.80663610016972 6.28318530717959
0

0101000
+76 0 -74 0 *
Ve
1.00000002987305e-07
-1 2.25 -1.93711125132244
0 0

0101101
*
Ed
 1.00000000800593e-07 1 1 0
1  55 0 0 3.61814186059962
2  163 29 0 0 3.61814186059962
2  164 32 0 0 3.61814186059962
2  167 17 7 0 3.61814186059962
2  168 6 0 0 3.61814186059962
0

0101000
+74 0 -72 0 *
Ve
1e-07
-1 2.25 -4
0 0

0101101
*
Ed
 1e-07 1 1 0
1  40 0 0 2.06288874867756
2  120 17 0 0 2.06288874867756
2  121 24 0 0 2.06288874867756
2  169 29 12 0 2.06288874867756
0

0101000
+70 12 -72 12 *
Ed
 1e-07 1 1 0
1  41 0 0 6.12347538297966
2  123 17 0 0 6.12347538297966
2  124 26 0 0 6.12347538297966
2  170 29 12 0 6.12347538297966
0

0101000
+70 12 -133 12 *
Wi

0101100
+126 0 +75 7 -73 0 -71 0 +69 7 -68 7 +125 0 *
Fa
0  1e-07 29 0

0101000
+67 0 *
Ed
 1e-07 1 1 0
1  53 0 11 12
2  158 31 0 11 12
2  159 27 0 11 12
2  171 13 11 11 12
2  172 22 11 11 12
0

0101000
+86 12 -122 12 *
Wi

0101100
-118 7 -119 7 +65 7 +85 3 *
Fa
0  1e-07 27 7

0101000
+64 0 *
Ve
1.00000001831027e-07
9.4128784747792 2 7
0 0

0101101
*
Ed
 1e-07 1 1 0
1  28 0 1 3.4128784747792
2  89 18 0 1 3.4128784747792
2  90 19 0 1 3.4128784747792
0

0101000
+169 10 -62 10 *
Ve
1.00000001831027e-07
9.4128784747792 2 9
0 0

0101101
*
Ed
 1e-07 1 1 0
1  56 0 12 14
2  173 19 8 12 14
2  174 30 0 12 14
0

0101000
+62 0 -60 0 *
Ed
 1e-07 1 1 0
1  34 0 1 3.4128784747792
2  104 23 0 1 3.4128784747792
2  105 19 0 1 3.4128784747792
0

0101000
+150 10 -60 10 *
Wi

0101100
-61 8 -59 0 +58 8 +117 0 *
Fa
0  1e-07 19 8

0101000
+57 0 *
Ve
1.00000005633375e-07
9.5 -5.63337527607782e-15 7
0 0

0101101
*
Ed
 1e-07 1 1 0
1  57 0 0 0.0870664823473958
2  175 18 8 0 0.0870664823473958
2  176 30 0 0 0.0870664823473958
0

0101000
+55 0 -62 0 *
Ed
 1e-07 1 1 0
1  58 0 6.19611882483219 6.28318530717959
2  177 18 8 6.19611882483219 6.28318530717959
2  178 30 0 6.19611882483219 6.28318530717959
0

0101000
+111 0 -55 0 *
Wi

0101100
-61 8 +54 0 +53 0 +110 8 -114 3 *
Fa
0  1e-07 18 8

0101000
+52 0 *
Ve
1.00000005633375e-07
9.5 -5.63337527607782e-15 9
0 0

0101101
*
Ed
 1e-07 1 1 0
1  59 0 12 14
3  179 180CN 30 0 12 14
0

0101000
+55 0 -50 0 *
Ed
 1e-07 1 1 0
1  60 0 6.19611882483219 6.28318530717959
2  181 23 8 6.19611882483219 6.28318530717959
2  182 30 0 6.19611882483219 6.28318530717959
0

0101000
+109 0 -50 0 *
Wi

0101100
+49 0 +53 0 -108 0 -48 0 *
Fa
0  1e-07 30 0

0101000
+47 0 *
Ed
 1e-07 1 1 0
1  61 0 0 0.0870664823473958
2  183 23 8 0 0.0870664823473958
2  184 30 0 0 0.0870664823473958
0

0101000
+50 0 -60 0 *
Wi

0101100
-58 8 +45 0 +48 0 +107 8 -101 3 *
Fa
0  1e-07 23 8

0101000
+44 0 *
Ed
 1e-07 1 1 0
1  62 0 0 8
2  185 22 0 0 8
2  186 10 0 0 8
2  187 31 14 0 8
0

0101000
-86 5 +98 5 *
Wi

0101100
-65 7 +104 7 +97 7 -42 3 *
Fa
0  1e-07 31 7

0101000
+41 0 *
Ve
1e-07
-1.59204083889156e-15 4.25 6.5
0 0

0101101
*
Ed
 1e-07 1 1 0
1  63 0 6.1287257086954 6.28318530717959
2  188 28 0 6.1287257086954 6.28318530717959
2  189 33 0 6.1287257086954 6.28318530717959
2  190 31 7 6.1287257086954 6.28318530717959
0

0101000
+81 0 -39 0 *
Ed
 1e-07 1 1 0
1  63 0 0 2.23367015044506
2  188 28 0 0 2.23367015044506
2  189 33 0 0 2.23367015044506
2  191 31 7 0 2.23367015044506
0

0101000
+39 0 -93 0 *
Wi

0101100
-91 7 -84 7 +42 3 +80 7 -38 0 -37 0 *
Fa
0  1e-07 31 7

0101000
+36 0 *
Ed
 1e-07 1 1 0
1  63 0 2.23367015044506 6.1287257086954
2  188 28 0 2.23367015044506 6.1287257086954
2  189 33 0 2.23367015044506 6.1287257086954
0

0101000
+93 0 -81 0 *
Ed
 1e-07 1 1 0
1  43 0 2.23367015044506 6.1287257086954
2  127 28 0 2.23367015044506 6.1287257086954
2  128 29 0 2.23367015044506 6.1287257086954
0

0101000
+133 0 -129 0 *
Wi

0101100
-34 0 +79 0 +33 0 -89 0 *
Fa
0  1e-07 28 0

0101000
+32 0 *
Ed
 1.00000000800593e-07 1 1 0
1  55 0 3.61814186059962 5.80663610016972
2  163 29 0 3.61814186059962 5.80663610016972
2  164 32 0 3.61814186059962 5.80663610016972
2  192 6 0 3.61814186059962 5.80663610016972
0

0101000
+72 0 -76 0 *
Wi

0101100
+68 7 -69 7 -30 0 -75 7 +33 0 *
Fa
0  1e-07 29 0

0101000
+29 0 *
Ve
1.00000000800593e-07
-5.33946004428246e-16 4.25 2.18
0 0

0101101
*
Ed
 1e-07 1 1 0
1  7 0 7.25 9.25
3  24 25CN 6 0 7.25 9.25
0

0101000
+74 0 -27 0 *
Ve
1.00000103478742e-07
-1.00000000000007 4.25 1.93711125132237
0 0

0101101
*
Ed
 1.00000000942055e-07 1 1 0
1  64 0 0.3 2.3
2  193 32 0 0.3 2.3
2  194 24 7 0.3 2.3
2  195 6 0 0.3 2.3
0

0101000
+76 0 -25 0 *
Ed
 1e-07 1 1 0
1  65 0 5.80663610016972 6.28318530717959
2  196 33 0 5.80663610016972 6.28318530717959
2  197 32 0 5.80663610016972 6.28318530717959
2  198 31 7 5.80663610016972 6.28318530717959
2  199 6 0 5.80663610016972 6.28318530717959
0

0101000
+25 0 -27 0 *
Wi

0101100
+26 0 +73 0 -24 0 -23 0 *
Fa
0  1e-07 6 0

0101000
+22 0 *
Ve
1.00000002987305e-07
-1 4.25 -1.93711125132244
0 0

0101101
*
Ed
 1.00000000800593e-07 1 1 0
1  65 0 0 3.61814186059962
2  196 33 0 0 3.61814186059962
2  197 32 0 0 3.61814186059962
2  200 31 7 0 3.61814186059962
2  201 6 0 0 3.61814186059962
0

0101000
+27 0 -20 0 *
Ed
 1.0000000092222e-07 1 1 0
1  66 0 0.3 2.3
2  202 32 0 0.3 2.3
2  203 24 7 0.3 2.3
2  204 6 0 0.3 2.3
0

0101000
+72 0 -20 0 *
Wi

0101100
-19 0 +18 0 +71 0 -26 0 *
Fa
0  1e-07 6 0

0101000
+17 0 *
Wi

0101100
-45 0 +59 0 +54 0 -49 0 *
Fa
0  1e-07 30 0

0101000
+15 0 *
Ed
 1e-07 1 1 0
1  49 0 5.93711125132237 10.4226162893326
2  146 31 0 5.93711125132237 10.4226162893326
2  147 24 0 5.93711125132237 10.4226162893326
2  205 33 12 5.93711125132237 10.4226162893326
0

0101000
+25 12 -81 12 *
Ve
1e-07
-1 4.25 -4
0 0

0101101
*
Ed
 1e-07 1 1 0
1  49 0 0 2.06288874867756
2  146 31 0 0 2.06288874867756
2  147 24 0 0 2.06288874867756
2  206 33 12 0 2.06288874867756
0

0101000
+12 12 -20 12 *
Ed
 1e-07 1 1 0
1  50 0 0 6.12347538297966
2  151 31 0 0 6.12347538297966
2  152 26 0 0 6.12347538297966
2  207 33 12 0 6.12347538297966
0

0101000
+12 12 -93 12 *
Wi

0101100
+38 0 +13 7 -23 0 -19 0 +11 7 -10 7 +37 0 *
Fa
0  1e-07 33 0

0101000
+9 0 *
Ed
 1.00000000800593e-07 1 1 0
1  65 0 3.61814186059962 5.80663610016972
2  196 33 0 3.61814186059962 5.80663610016972
2  197 32 0 3.61814186059962 5.80663610016972
2  208 6 0 3.61814186059962 5.80663610016972
0

0101000
+20 0 -25 0 *
Wi

0101100
+10 7 -11 7 -7 0 -13 7 +34 0 *
Fa
0  1e-07 33 0

0101000
+6 0 *
Wi

0101100
-7 0 +24 0 +30 0 -18 0 *
Fa
0  1e-07 32 0

0101000
+4 0 *
Sh

0101100
-262 0 -253 0 -249 0 -242 0 -237 0 -230 0 +225 0 -218 0 -211 0 -208 0 
+205 0 +196 0 +193 0 +188 0 -181 0 -176 0 +174 0 -159 0 +154 0 +141 0 
-134 0 -123 0 +115 0 -112 0 -105 0 +102 0 +99 0 -94 0 -87 0 +82 0 
-77 0 -66 0 +63 0 +56 0 -51 0 +46 0 +43 0 +40 0 +35 0 +31 0 
-28 0 -21 0 -16 0 +14 0 +8 0 +5 0 -3 0 *
So

0100000
+2 0 *

+1 0 