DBRep_DrawableShape

CASCADE Topology V3, (c) Open Cascade
Locations 4
1
              1              -0               0              -0 
              0               1               0               0 
             -0               0               1              -0 
2  1 -1 0
1
              1              -0               0              -0 
              0               1               0               0 
             -0               0               1              -0 
2  3 -1 0
Curve2ds 56
1 0 4 1 0 
1 238 0 0 1 
1 -0.89999999999999858 2 1 0 
1 0 0 0 1 
1 238 0 0 -1 
1 -0.89999999999999858 -2 0 1 
1 0 0 1 0 
1 238 0 0 1 
1 -0.89999999999999858 -2 1 0 
1 3 0 0 1 
1 2.1000000000000014 -2 0 1 
1 -0.89999999999999858 2 1 0 
1 238 0 0 -1 
1 1.2000000000000028 0 0 1 
1 1.2000000000000028 0 0 1 
1 0 42 1 0 
1 238 0 0 1 
1 0 42 1 0 
1 238 0 0 -1 
1 0 0 0 1 
1 0 0 0 1 
1 0 4 1 0 
1 0 0 0 1 
1 0 4 1 0 
8 0 238
1 0 -2 1 0 
8 0 238
1 0 0.89999999999999858 1 0 
1 0 0 1 0 
1 0 -4 1 0 
1 0 4 1 0 
1 0 3 1 0 
8 0 238
1 0 -2 1 0 
8 0 238
1 0 2.1000000000000014 1 0 
1 0 3 1 0 
1 3 0 0 1 
1 3 0 0 1 
1 0 0 1 0 
1 0 0 1 0 
1 0 0 0 1 
1 0 0 1 0 
1 0 0 1 0 
1 0 0 0 1 
1 0 0 0 1 
1 0 0 0 -1 
1 0 -42 1 0 
1 0 0 1 0 
1 0 0 0 -1 
1 0 0 0 1 
1 0.89999999999999858 2 0 1 
1 0 42 1 0 
1 0.89999999999999858 44 1 0 
1 0 0 0 1 
1 0 -42 1 0 
1 0 1.2000000000000028 1 0 
1 0 0 0 -1 
1 1.2000000000000028 0 0 1 
1 2.1000000000000014 2 0 1 
Curves 22
1 46.5 -19 238 1 0 0 
1 46.5 -23 238 0 1 0 
1 46.5 -23 238 1 0 0 
1 49.5 -23 238 0 1 0 
1 48.600000000000001 -21 238 0 1 0 
1 47.399999999999999 21 238 1 0 0 
1 47.399999999999999 -21 238 0 1 0 
1 46.5 -19 0 1 0 0 
1 47.399999999999999 -19 0 0 0 1 
1 46.5 -19 0 0 0 1 
1 49.5 -19 0 0 0 1 
1 48.600000000000001 -19 0 0 0 1 
1 49.5 -23 0 0 0 1 
1 49.5 -23 0 0 1 0 
1 46.5 -23 0 1 0 0 
1 46.5 -23 0 0 0 1 
1 46.5 -23 0 0 1 0 
1 47.399999999999999 21 0 0 0 1 
1 47.399999999999999 -21 0 0 1 0 
1 47.399999999999999 21 0 1 0 0 
1 48.600000000000001 21 0 0 0 1 
1 48.600000000000001 -21 0 0 1 0 
Polygon3D 0
PolygonOnTriangulations 0
Surfaces 13
1 47.399999999999999 -21 238 0 0 1 1 0 0 0 1 0 
1 46.5 -23 238 0 0 1 1 0 0 0 1 0 
1 46.5 -19 0 0 1 0 0 0 1 1 0 0 
1 46.5 -23 0 1 0 0 0 0 1 0 -1 0 
1 46.5 -23 0 0 1 0 0 0 1 1 0 0 
1 48.600000000000001 -21 0 1 0 0 0 0 1 0 -1 0 
1 47.399999999999999 -21 238 0 0 1 1 0 0 0 1 0 
1 47.399999999999999 21 0 0 1 0 0 0 1 1 0 0 
1 47.399999999999999 -21 0 1 0 0 0 0 1 0 -1 0 
1 46.5 -23 0 0 0 1 1 0 0 0 1 0 
1 46.5 -23 0 0 0 1 1 0 0 0 1 0 
1 49.5 -23 0 1 0 0 0 0 1 0 -1 0 
1 47.399999999999999 -21 0 0 0 1 1 0 0 0 1 0 
Triangulations 0

TShapes 62
Ve
1e-07
46.5 -19 238
0 0

0101101
*
Ve
1.5e-07
47.4 -19 238
0 0

0101101
*
Ed
 1e-07 1 1 0
1  1 0 0 0.899999999999999
2  1 2 0 0 0.899999999999999
2  2 3 0 0 0.899999999999999
2  3 1 2 0 0.899999999999999
0

0101000
+62 2 -61 2 *
Ve
1e-07
46.5 -23 238
0 0

0101101
*
Ed
 1e-07 1 1 0
1  2 0 0 4
2  4 2 0 0 4
2  5 4 0 0 4
2  6 1 2 0 4
0

0101000
-62 2 +59 2 *
Ve
1e-07
49.5 -23 238
0 0

0101101
*
Ed
 1e-07 1 1 0
1  3 0 0 3
2  7 2 0 0 3
2  8 5 0 0 3
2  9 1 2 0 3
0

0101000
-57 2 +59 2 *
Ve
1e-07
49.5 -19 238
0 0

0101101
*
Ed
 1e-07 1 1 0
1  4 0 0 4
2  10 2 0 0 4
2  11 1 2 0 4
0

0101000
-55 2 +57 2 *
Ve
1.5e-07
48.6 -19 238
0 0

0101101
*
Ed
 1e-07 1 1 0
1  1 0 2.1 3
2  1 2 0 2.1 3
2  2 3 0 2.1 3
2  12 1 2 2.1 3
0

0101000
+53 2 -55 2 *
Ve
1e-07
48.6 21 238
0 0

0101101
*
Ed
 1e-07 1 1 0
1  5 0 2 42
2  13 6 0 2 42
2  14 7 0 2 42
2  15 1 4 2 42
0

0101000
+53 4 -51 4 *
Ve
1e-07
47.4 21 238
0 0

0101101
*
Ed
 1e-07 1 1 0
1  6 0 0 1.2
2  16 7 0 0 1.2
2  17 8 0 0 1.2
2  18 1 4 0 1.2
0

0101000
-51 4 +49 4 *
Ed
 1e-07 1 1 0
1  7 0 2 42
2  19 9 0 2 42
2  20 7 0 2 42
2  21 1 4 2 42
0

0101000
+61 4 -49 4 *
Wi

0101100
-60 1 -58 1 +56 1 +54 1 -52 1 +50 3 -48 3 -47 3 *
Fa
0  0 1 0

0101000
+46 0 *
Ve
1e-07
46.5 -19 0
0 0

0101101
*
Ve
1.5e-07
47.4 -19 0
0 0

0101101
*
Ed
 1e-07 1 1 0
1  8 0 0 0.899999999999999
2  22 10 0 0 0.899999999999999
2  23 3 0 0 0.899999999999999
2  24 11 2 0 0.899999999999999
0

0101000
+44 2 -43 2 *
Ed
 1.5e-07 1 1 0
1  9 0 0 238
2  25 9 3 0 238
2  26 3 1 0 238
0

0101000
+43 0 -61 0 *
Ed
 1e-07 1 1 0
1  10 0 0 238
2  27 3 0 0 238
2  28 4 0 0 238
0

0101000
-62 2 +44 2 *
Wi

0101100
-42 1 -41 0 +60 1 +40 1 *
Fa
0  1e-07 3 1

0101000
+39 0 *
Ve
1.5e-07
48.6 -19 0
0 0

0101101
*
Ve
1e-07
49.5 -19 0
0 0

0101101
*
Ed
 1e-07 1 1 0
1  8 0 2.1 3
2  22 10 0 2.1 3
2  23 3 0 2.1 3
2  29 11 2 2.1 3
0

0101000
+37 2 -36 2 *
Ed
 1e-07 1 1 0
1  11 0 0 238
2  30 3 0 0 238
0

0101000
-55 2 +36 2 *
Ed
 1.5e-07 1 1 0
1  12 0 0 238
2  31 6 3 0 238
2  32 3 1 0 238
0

0101000
+37 0 -53 0 *
Wi

0101100
-35 1 -34 1 +52 1 +33 0 *
Fa
0  1e-07 3 1

0101000
+32 0 *
Ve
1e-07
49.5 -23 0
0 0

0101101
*
Ed
 1e-07 1 1 0
1  13 0 0 238
2  33 5 0 0 238
0

0101000
-57 2 +30 2 *
Ed
 1e-07 1 1 0
1  14 0 0 4
2  34 10 0 0 4
2  35 11 2 0 4
0

0101000
-36 2 +30 2 *
Wi

0101100
-29 0 -54 0 +34 0 +28 0 *
Fa
0  1e-07 12 0

0101000
+27 0 *
Ve
1e-07
46.5 -23 0
0 0

0101101
*
Ed
 1e-07 1 1 0
1  15 0 0 3
2  36 10 0 0 3
2  37 11 2 0 3
2  38 5 0 0 3
0

0101000
-30 2 +25 2 *
Ed
 1e-07 1 1 0
1  16 0 0 238
2  39 5 0 0 238
2  40 4 0 0 238
0

0101000
-59 2 +25 2 *
Wi

0101100
-24 0 -29 0 +56 0 +23 0 *
Fa
0  1e-07 5 0

0101000
+22 0 *
Ed
 1e-07 1 1 0
1  17 0 0 4
2  41 10 0 0 4
2  42 11 2 0 4
2  43 4 0 0 4
0

0101000
-44 2 +25 2 *
Wi

0101100
-23 0 -58 0 +40 0 +20 0 *
Fa
0  1e-07 4 0

0101000
+19 0 *
Ve
1e-07
47.4 21 0
0 0

0101101
*
Ed
 1e-07 1 1 0
1  18 0 0 238
2  44 9 0 0 238
2  45 8 0 0 238
0

0101000
-49 4 +17 4 *
Ed
 1e-07 1 1 0
1  19 0 2 42
2  46 9 0 2 42
2  47 13 0 2 42
2  48 11 4 2 42
0

0101000
+43 4 -17 4 *
Wi

0101100
-47 3 +16 3 +15 3 -41 0 *
Fa
0  1e-07 9 3

0101000
+14 0 *
Ve
1e-07
48.6 21 0
0 0

0101101
*
Ed
 1e-07 1 1 0
1  20 0 0 1.2
2  49 13 0 0 1.2
2  50 11 4 0 1.2
2  51 8 0 0 1.2
0

0101000
-12 4 +17 4 *
Ed
 1e-07 1 1 0
1  21 0 0 238
2  52 6 0 0 238
2  53 8 0 0 238
0

0101000
-51 4 +12 4 *
Wi

0101100
-11 0 -10 0 +48 0 +16 0 *
Fa
0  1e-07 8 0

0101000
+9 0 *
Ed
 1e-07 1 1 0
1  22 0 2 42
2  54 6 0 2 42
2  55 13 0 2 42
2  56 11 4 2 42
0

0101000
+37 4 -12 4 *
Wi

0101100
-50 3 +10 3 +7 3 -33 0 *
Fa
0  1e-07 6 3

0101000
+6 0 *
Wi

0101100
-42 1 -20 1 +24 1 +28 1 -35 1 +7 3 -11 3 -15 3 *
Fa
0  0 11 0

0101000
+4 0 *
Sh

0101100
+45 0 +38 0 +31 0 +26 1 -21 1 -18 1 -13 0 +8 3 +5 0 -3 0 
*
So

0100000
+2 0 *

+1 0 