DBRep_DrawableShape

CASCADE Topology V3, (c) Open Cascade
Locations 0
Curve2ds 23
1 0 1.5 1 0 
2 0 0 1 0 -0 1 4.5
1 6.2831853071795862 -0 0 1 
1 0 -0 0 1 
1 0 0 1 0 
2 0 0 1 0 -0 1 4.5
1 0 0 1 0 
2 0 0 1 0 -0 1 3
2 0 0 1 0 -0 1 3
1 0 10.199999999999999 1 0 
2 0 0 1 0 -0 1 3
1 6.2831853071795862 -0 0 1 
1 0 -0 0 1 
2 0 0 1 0 -0 1 2.75
1 0 0.099999999999999645 1 0 
2 0 0 1 0 -0 1 2.75
1 0 0.54999999999999893 1 0 
1 6.2831853071795862 -0 0 1 
1 0 -0 0 1 
1 0 10.649999999999999 1 0 
2 0 0 1 0 -0 1 3
1 0 11 1 0 
2 0 0 1 0 -0 1 3
Curves 11
2 0 0 0 0 1 0 0 -0 1 1 0 -0 4.5
1 -1.1021821192326179e-15 -1.5 4.5 0 1 0 
2 0 -1.5 0 0 1 0 0 -0 1 1 0 -0 4.5
2 0 0 0 0 1 0 0 -0 1 1 0 -0 3
2 0 10.199999999999999 0 0 1 0 0 -0 1 1 0 -0 3
1 -7.3478807948841188e-16 0 3 0 1 0 
2 0 10.199999999999999 0 0 1 0 0 -0 1 1 0 -0 2.75
2 0 10.649999999999999 0 0 1 0 0 -0 1 1 0 -0 2.75
1 -6.735557395310443e-16 10.1 2.75 0 1 0 
2 0 10.649999999999999 0 0 1 0 0 -0 1 1 0 -0 3
2 0 11 0 0 1 0 0 -0 1 1 0 -0 3
Polygon3D 0
PolygonOnTriangulations 0
Surfaces 9
2 0 -1.5 0 0 1 0 0 -0 1 1 0 -0 4.5
1 0 0 0 0 1 0 0 -0 1 1 0 -0 
1 0 -1.5 0 0 1 0 0 -0 1 1 0 -0 
2 0 0 0 0 1 0 0 -0 1 1 0 -0 3
1 0 0 0 0 1 0 0 -0 1 1 0 -0 
1 0 10.199999999999999 0 0 1 0 0 -0 1 1 0 -0 
2 0 10.1 0 0 1 0 0 -0 1 1 0 -0 2.75
1 0 10.649999999999999 0 0 1 0 0 -0 1 1 0 -0 
1 0 11 0 0 1 0 0 -0 1 1 0 -0 
Triangulations 0

TShapes 44
Ve
1e-07
-1.10218211923262e-15 0 4.5
0 0

0101101
*
Ed
 1e-07 1 1 0
1  1 0 0 6.28318530717959
2  1 1 0 0 6.28318530717959
2  2 2 0 0 6.28318530717959
0

0101000
+44 0 -44 0 *
Ve
1e-07
-1.10218211923262e-15 -1.5 4.5
0 0

0101101
*
Ed
 1e-07 1 1 0
1  2 0 0 1.5
3  3 4CN 1 0 0 1.5
0

0101000
-44 0 +42 0 *
Ed
 1e-07 1 1 0
1  3 0 0 6.28318530717959
2  5 1 0 0 6.28318530717959
2  6 3 0 0 6.28318530717959
0

0101000
+42 0 -42 0 *
Wi

0101100
-43 0 +41 0 +40 0 -41 0 *
Fa
0  1e-07 1 0

0101000
+39 0 *
Wi

0101100
+43 0 *
Ve
1e-07
-7.34788079488412e-16 0 3
0 0

0101101
*
Ed
 1e-07 1 1 0
1  4 0 0 6.28318530717959
2  7 4 0 0 6.28318530717959
2  8 5 0 0 6.28318530717959
2  9 2 0 0 6.28318530717959
0

0101000
+36 0 -36 0 *
Wi

0101100
-35 0 *
Fa
0  1e-07 2 0

0101000
+37 0 +34 0 *
Wi

0101100
-40 0 *
Fa
0  1e-07 3 0

0101000
-32 0 *
Ve
1.00000000734788e-07
-7.34788079488412e-16 10.2 3
0 0

0101101
*
Ed
 1e-07 1 1 0
1  5 0 0 6.28318530717959
2  10 4 0 0 6.28318530717959
2  11 6 0 0 6.28318530717959
0

0101100
+30 0 -30 0 *
Ed
 1e-07 1 1 0
1  6 0 0 10.2
3  12 13CN 4 0 0 10.2
0

0101000
+36 0 -30 0 *
Wi

0101100
-29 0 +28 0 +35 0 -28 0 *
Fa
0  1e-07 4 0

0101000
+27 0 *
Wi

0101100
+29 0 *
Ve
1.00000000673556e-07
-6.73555739531044e-16 10.2 2.75
0 0

0101101
*
Ed
 1e-07 1 1 0
1  7 0 0 6.28318530717959
2  14 6 0 0 6.28318530717959
2  15 7 0 0 6.28318530717959
0

0101100
+24 0 -24 0 *
Wi

0101100
-23 0 *
Fa
0  1e-07 6 0

0101000
+25 0 +22 0 *
Ve
1.00000000673556e-07
-6.73555739531044e-16 10.65 2.75
0 0

0101101
*
Ed
 1e-07 1 1 0
1  8 0 0 6.28318530717959
2  16 8 0 0 6.28318530717959
2  17 7 0 0 6.28318530717959
0

0101100
+20 0 -20 0 *
Ed
 1e-07 1 1 0
1  9 0 0.0999999999999996 0.549999999999999
3  18 19CN 7 0 0.0999999999999996 0.549999999999999
0

0101000
+24 0 -20 0 *
Wi

0101100
-19 0 +18 0 +23 0 -18 0 *
Fa
0  1e-07 7 0

0101000
+17 0 *
Ve
1.00000000734788e-07
-7.34788079488412e-16 10.65 3
0 0

0101101
*
Ed
 1e-07 1 1 0
1  10 0 0 6.28318530717959
2  20 4 0 0 6.28318530717959
2  21 8 0 0 6.28318530717959
0

0101100
+15 0 -15 0 *
Wi

0101100
+14 0 *
Wi

0101100
-19 0 *
Fa
0  1e-07 8 0

0101000
+13 0 +12 0 *
Ve
1e-07
-7.34788079488412e-16 11 3
0 0

0101101
*
Ed
 1e-07 1 1 0
1  6 0 10.65 11
3  12 13CN 4 0 10.65 11
0

0101000
+15 0 -10 0 *
Ed
 1e-07 1 1 0
1  11 0 0 6.28318530717959
2  22 4 0 0 6.28318530717959
2  23 9 0 0 6.28318530717959
0

0101000
+10 0 -10 0 *
Wi

0101100
+9 0 +14 0 -9 0 -8 0 *
Fa
0  1e-07 4 0

0101000
+7 0 *
Wi

0101100
+8 0 *
Fa
0  1e-07 9 0

0101000
+5 0 *
Sh

0101100
+38 0 +33 0 -31 0 +26 0 +21 0 +16 0 -11 0 +6 0 +4 0 *
So

0100000
+3 0 *
Co

0100000
+2 0 *

+1 0 