DBRep_DrawableShape

CASCADE Topology V3, (c) Open Cascade
Locations 0
Curve2ds 12
1 0 5 1 0 
2 0 0 1 0 -0 1 8.5
1 6.2831853071795862 -0 0 1 
1 0 -0 0 1 
1 0 0 1 0 
2 0 0 1 0 -0 1 8.5
2 0 0 1 0 -0 1 3.3999999999999999
1 0 5.2000000000000002 1 0 
2 0 0 1 0 -0 1 3.3999999999999999
1 0 0.20000000000000018 1 0 
1 6.2831853071795862 -0 0 1 
1 0 -0 0 1 
Curves 6
2 0 0 2.5 0 0 1 1 0 -0 -0 1 0 8.5
1 8.5 -2.0818995585505003e-15 -2.5 0 0 1 
2 0 0 -2.5 0 0 1 1 0 -0 -0 1 0 8.5
2 0 0 2.5 0 0 1 1 0 -0 -0 1 0 3.3999999999999999
2 0 0 -2.5 0 0 1 1 0 -0 -0 1 0 3.3999999999999999
1 3.3999999999999999 -8.3275982342020011e-16 -2.7000000000000002 0 0 1 
Polygon3D 0
PolygonOnTriangulations 0
Surfaces 4
2 0 0 -2.5 0 0 1 1 0 -0 -0 1 0 8.5
1 0 0 2.5 0 0 1 1 0 -0 -0 1 0 
1 0 0 -2.5 0 0 1 1 0 -0 -0 1 0 
2 0 0 -2.7000000000000002 0 0 1 1 0 -0 -0 1 0 3.3999999999999999
Triangulations 0

TShapes 23
Ve
1e-07
8.5 -2.0818995585505e-15 2.5
0 0

0101101
*
Ed
 1e-07 1 1 0
1  1 0 0 6.28318530717959
2  1 1 0 0 6.28318530717959
2  2 2 0 0 6.28318530717959
0

0101000
+23 0 -23 0 *
Ve
1e-07
8.5 -2.0818995585505e-15 -2.5
0 0

0101101
*
Ed
 1e-07 1 1 0
1  2 0 0 5
3  3 4CN 1 0 0 5
0

0101000
-23 0 +21 0 *
Ed
 1e-07 1 1 0
1  3 0 0 6.28318530717959
2  5 1 0 0 6.28318530717959
2  6 3 0 0 6.28318530717959
0

0101000
+21 0 -21 0 *
Wi

0101100
-22 0 +20 0 +19 0 -20 0 *
Fa
0  1e-07 1 0

0101000
+18 0 *
Wi

0101100
+22 0 *
Ve
1.0000000083276e-07
3.4 -8.327598234202e-16 2.5
0 0

0101101
*
Ed
 1e-07 1 1 0
1  4 0 0 6.28318530717959
2  7 2 0 0 6.28318530717959
2  8 4 0 0 6.28318530717959
0

0101100
+15 0 -15 0 *
Wi

0101100
-14 0 *
Fa
0  1e-07 2 0

0101000
+16 0 +13 0 *
Wi

0101100
+19 0 *
Ve
1.0000000083276e-07
3.4 -8.327598234202e-16 -2.5
0 0

0101101
*
Ed
 1e-07 1 1 0
1  5 0 0 6.28318530717959
2  9 3 0 0 6.28318530717959
2  10 4 0 0 6.28318530717959
0

0101100
+10 0 -10 0 *
Wi

0101100
-9 0 *
Fa
0  1e-07 3 0

0101000
+11 0 +8 0 *
Ed
 1e-07 1 1 0
1  6 0 0.2 5.2
3  11 12CN 4 0 0.2 5.2
0

0101000
+10 0 -15 0 *
Wi

0101100
-14 0 +6 0 +9 0 -6 0 *
Fa
0  1e-07 4 0

0101000
+5 0 *
Sh

0101100
+17 0 +12 0 -7 0 -4 0 *
So

0100000
+3 0 *
Co

0100000
+2 0 *

+1 0 