DBRep_DrawableShape

CASCADE Topology V3, (c) Open Cascade
Locations 0
Curve2ds 24
1 0 200 1 0 
2 0 0 1 0 -0 1 44.200000000000003
8 -5.9999999999999997e-07 200.00000059999999
1 4.302236606166022 0 0 1 
8 -5.9999999999999997e-07 200.00000059999999
1 66.299999999999997 -0.20000000000000001 0 -1 
1 0 0 1 0 
2 0 0 1 0 -0 1 44.200000000000003
8 -5.9999999999999997e-07 200.00000059999999
1 3.5517450278084604 0 0 1 
8 -5.9999999999999997e-07 200.00000059999999
1 44.200000000000003 -0.20000000000000001 0 -1 
8 -48.197496799362341 0
1 0 0 0.91706007438512405 0.39874906892524631 
8 -48.197496799362341 0
1 0 -200.19999999999999 -1 0 
2 0 0 1 0 -0 1 42.200000000000003
1 0 200.19999999999999 1 0 
8 -55.25 -7.0525032006376538
1 -22.030886058119872 -50.667569109778093 -0.39874906892524659 -0.91706007438512394 
8 -55.25 -7.0525032006376538
1 55.25 -200.19999999999999 -1 -0 
8 -55.25 -7.0525032006376538
1 -22.030886058119872 -50.667569109778093 -0.39874906892524659 -0.91706007438512394 
8 -55.25 -7.0525032006376538
1 55.25 -0.20000000000000001 -1 -0 
8 0.19999940000000002 200.20000059999998
1 4.302236606166022 0 0 1 
8 0.19999940000000002 200.20000059999998
1 68.299999999999997 0 0 -1 
8 -48.197496799362341 0
1 0 0 0.91706007438512405 0.39874906892524631 
8 -48.197496799362341 0
1 0 -0.20000000000000001 -1 0 
2 0 0 1 0 -0 1 42.200000000000003
1 0 0.20000000000000001 1 0 
8 0.19999940000000002 200.20000059999998
1 3.5517450278084604 0 0 1 
8 0.19999940000000002 200.20000059999998
1 42.200000000000003 0 0 -1 
Curves 12
2 0 0 200 0 0 1 1 0 -0 -0 1 0 44.200000000000003
1 -17.624708846495899 -40.534055287822483 0 0 0 1 
2 0 0 0 0 0 1 1 0 -0 -0 1 0 44.200000000000003
1 -40.534055287822483 -17.624708846495889 0 0 0 1 
1 0 0 200 0.91706007438512405 0.39874906892524631 -0 
2 0 0 200 0 0 1 1 0 -0 -0 1 0 42.200000000000003
1 -22.030886058119872 -50.667569109778093 200 -0.39874906892524659 -0.91706007438512394 0 
1 -22.030886058119872 -50.667569109778093 0 -0.39874906892524659 -0.91706007438512394 0 
1 -16.827210708645406 -38.699935139052229 -0.20000000000000001 0 0 1 
1 0 0 0 0.91706007438512405 0.39874906892524631 -0 
2 0 0 0 0 0 1 1 0 -0 -0 1 0 42.200000000000003
1 -38.699935139052236 -16.827210708645396 -0.20000000000000001 0 0 1 
Polygon3D 0
PolygonOnTriangulations 0
Surfaces 6
2 0 0 0 0 0 1 1 0 -0 -0 1 0 44.200000000000003
1 0 0 200 0 0 1 1 0 -0 -0 1 0 
1 -44.061772116239744 -101.33513821955619 -0.20000000000000001 -0.91706007438512394 0.39874906892524659 0 0.39874906892524659 0.91706007438512394 0 0 0 -1 
1 0 0 0 0 0 1 1 0 -0 -0 1 0 
1 0 0 -0.20000000000000001 0.39874906892524631 -0.91706007438512405 0 -0.91706007438512405 -0.39874906892524631 0 0 -0 -1 
2 0 0 -0.20000000000000001 0 0 1 1 0 -0 -0 1 0 42.200000000000003
Triangulations 0

TShapes 34
Ve
1.5e-07
-40.5340552878225 -17.6247088464959 200
0 0

0101101
*
Ve
1.5e-07
-17.6247088464959 -40.5340552878225 200
0 0

0101101
*
Ed
 1e-07 1 1 0
1  1 0 3.55174502780846 4.30223660616602
2  1 1 0 3.55174502780846 4.30223660616602
2  2 2 0 3.55174502780846 4.30223660616602
0

0101000
+34 0 -33 0 *
Ve
1.5e-07
-17.6247088464959 -40.5340552878225 0
0 0

0101101
*
Ed
 1e-07 1 1 0
1  2 0 0 200
2  3 1 0 0 200
2  4 3 0 0 200
0

0101000
+31 0 -33 0 *
Ve
1.5e-07
-40.5340552878225 -17.6247088464959 0
0 0

0101101
*
Ed
 1e-07 1 1 0
1  3 0 3.55174502780846 4.30223660616602
2  5 1 0 3.55174502780846 4.30223660616602
2  6 4 0 3.55174502780846 4.30223660616602
0

0101000
+29 0 -31 0 *
Ed
 1e-07 1 1 0
1  4 0 0 200
2  7 1 0 0 200
2  8 5 0 0 200
0

0101000
+29 0 -34 0 *
Wi

0101100
-32 0 +30 0 +28 0 -27 0 *
Fa
0  1e-07 1 0

0101000
+26 0 *
Ve
1.5e-07
-38.6999351390522 -16.8272107086454 200
0 0

0101101
*
Ed
 1.5e-07 1 1 0
1  5 0 -44.2 -42.2
2  9 2 0 -44.2 -42.2
2  10 5 0 -44.2 -42.2
0

0101000
+34 0 -24 0 *
Ve
1.5e-07
-16.8272107086454 -38.6999351390522 200
0 0

0101101
*
Ed
 1e-07 1 1 0
1  6 0 3.55174502780846 4.30223660616602
2  11 2 0 3.55174502780846 4.30223660616602
2  12 6 0 3.55174502780846 4.30223660616602
0

0101000
+24 0 -22 0 *
Ed
 1.5e-07 1 1 0
1  7 0 -13.05 -11.05
2  13 2 0 -13.05 -11.05
2  14 3 0 -13.05 -11.05
0

0101000
+22 0 -33 0 *
Wi

0101100
-23 0 -21 0 -20 0 +32 0 *
Fa
0  1e-07 2 0

0101000
+19 0 *
Ve
1.5e-07
-16.8272107086454 -38.6999351390522 0
0 0

0101101
*
Ed
 1.5e-07 1 1 0
1  8 0 -13.05 -11.05
2  15 4 0 -13.05 -11.05
2  16 3 0 -13.05 -11.05
0

0101000
+17 0 -31 0 *
Ed
 1e-07 1 1 0
1  9 0 0.2 200.2
2  17 6 0 0.2 200.2
2  18 3 0 0.2 200.2
0

0101000
+17 0 -22 0 *
Wi

0101100
+16 0 -15 0 -20 0 +30 0 *
Fa
0  1e-07 3 0

0101000
+14 0 *
Ve
1.5e-07
-38.6999351390522 -16.8272107086454 0
0 0

0101101
*
Ed
 1.5e-07 1 1 0
1  10 0 -44.2 -42.2
2  19 4 0 -44.2 -42.2
2  20 5 0 -44.2 -42.2
0

0101000
+29 0 -12 0 *
Ed
 1e-07 1 1 0
1  11 0 3.55174502780846 4.30223660616602
2  21 4 0 3.55174502780846 4.30223660616602
2  22 6 0 3.55174502780846 4.30223660616602
0

0101000
+12 0 -17 0 *
Wi

0101100
-11 0 -10 0 -16 0 +28 0 *
Fa
0  1e-07 4 0

0101000
+9 0 *
Ed
 1e-07 1 1 0
1  12 0 0.2 200.2
2  23 6 0 0.2 200.2
2  24 5 0 0.2 200.2
0

0101000
+12 0 -24 0 *
Wi

0101100
-27 0 -23 0 +7 0 +11 0 *
Fa
0  1e-07 5 0

0101000
+6 0 *
Wi

0101100
-21 0 +15 0 +10 0 -7 0 *
Fa
0  1e-07 6 0

0101000
+4 0 *
Sh

0101100
+25 0 +18 0 -13 0 -8 0 -5 0 -3 0 *
So

0100000
+2 0 *

+1 0 