DBRep_DrawableShape

CASCADE Topology V3, (c) Open Cascade
Locations 5
1
              1               0               0               0 
              0               1               0               0 
              0               0               1             469 
1
              1               0               0               0 
              0               1               0               0 
              0               0               1            -125 
1
              1               0               0               0 
              0               1               0               0 
              0               0               1            -125 
1
              1               0               0               0 
              0               1               0               0 
              0               0               1             469 
2  1 1 2 1 3 -1 4 -1 0
Curve2ds 27
1 6.2831853071795862 -0 0 1 
1 0 -0 0 1 
1 0 1 1 0 
2 0 0 1 0 -0 1 3.2000000000000002
1 0 47 1 0 
2 0 0 1 0 -0 1 3.2000000000000002
1 0 1 1 0 
2 0 0 1 0 -0 1 4.4500000000000002
1 6.2831853071795862 -0 0 1 
1 0 -0 0 1 
1 0 0 1 0 
2 0 0 1 0 -0 1 4.4500000000000002
1 0 0 1 0 
2 0 0 1 0 -0 1 3.2000000000000002
2 0 0 1 0 -0 1 3.2000000000000002
2 0 0 1 0 -0 1 3.2000000000000002
2 0 0 1 0 -0 1 1.8599999999999999
1 0 0.24413111231467408 1 0 
1 6.2831853071795862 -0 0 1 
1 0 -0 0 1 
1 0 0.61032778078668515 1 0 
2 0 0 1 0 -0 1 1.6499999999999999
1 0 0.5 1 0 
1 6.2831853071795862 -0 0 1 
1 0 -0 0 1 
1 0 6.4000000000000004 1 0 
2 0 0 1 0 -0 1 1.6499999999999999
Curves 12
1 3.2000000000000002 -7.8377395145430609e-16 0 0 0 1 
2 0 0 1 0 0 1 1 0 -0 -0 1 0 3.2000000000000002
2 0 0 47 0 0 1 1 0 -0 -0 1 0 3.2000000000000002
2 0 0 1 0 0 1 1 0 -0 -0 1 0 4.4500000000000002
1 4.4500000000000002 -1.0899356512411444e-15 0 0 0 1 
2 0 0 0 0 0 1 1 0 -0 -0 1 0 4.4500000000000002
2 0 0 0 0 0 1 1 0 -0 -0 1 0 3.2000000000000002
2 0 0 0 0 0 1 1 0 -0 -0 1 0 1.8599999999999999
1 2 -4.8985871965894128e-16 -0.20000000000000001 -0.57346234436332832 1.4045776489121744e-16 0.81923192051904048 
2 0 0 0.29999999999999999 0 0 1 1 0 -0 -0 1 0 1.6499999999999999
1 1.6499999999999999 -4.0413344371862655e-16 -0.20000000000000001 0 0 1 
2 0 0 6.2000000000000002 0 0 1 1 0 -0 -0 1 0 1.6499999999999999
Polygon3D 0
PolygonOnTriangulations 0
Surfaces 11
2 0 0 0 0 0 1 1 0 -0 -0 1 0 3.2000000000000002
1 0 0 1 0 0 1 1 0 -0 -0 1 0 
1 0 0 47 0 0 1 1 0 -0 -0 1 0 
2 0 0 0 0 0 1 1 0 -0 -0 1 0 4.4500000000000002
1 0 0 0 0 0 1 1 0 -0 -0 1 0 
1 0 0 0 0 0 1 1 0 -0 -0 1 0 
1 0 0 0 0 0 1 1 0 -0 -0 1 0 
3 0 0 -0.20000000000000001 0 0 1 1 0 -0 -0 1 0 2
-0.61072596438920868
1 0 0 0.29999999999999999 0 0 1 1 0 -0 -0 1 0 
2 0 0 -0.20000000000000001 0 0 1 1 0 -0 -0 1 0 1.6499999999999999
1 0 0 6.2000000000000002 0 0 1 1 0 -0 -0 1 0 
Triangulations 0

TShapes 44
Ve
1.00000000783774e-07
3.2 -7.83773951454306e-16 1
0 0

0101101
*
Ve
1e-07
3.2 -7.83773951454306e-16 47
0 0

0101101
*
Ed
 1e-07 1 1 0
1  1 0 1 47
3  1 2CN 1 0 1 47
0

0101000
+44 0 -43 0 *
Ed
 1e-07 1 1 0
1  2 0 0 6.28318530717959
2  3 1 0 0 6.28318530717959
2  4 2 0 0 6.28318530717959
0

0101100
+44 0 -44 0 *
Ed
 1e-07 1 1 0
1  3 0 0 6.28318530717959
2  5 1 0 0 6.28318530717959
2  6 3 0 0 6.28318530717959
0

0101000
+43 0 -43 0 *
Wi

0101100
+42 0 +41 0 -42 0 -40 0 *
Fa
0  1e-07 1 0

0101000
+39 0 *
Ve
1e-07
4.45 -1.08993565124114e-15 1
0 0

0101101
*
Ed
 1e-07 1 1 0
1  4 0 0 6.28318530717959
2  7 4 0 0 6.28318530717959
2  8 2 0 0 6.28318530717959
0

0101000
+37 0 -37 0 *
Wi

0101100
+36 0 *
Wi

0101100
-41 0 *
Fa
0  1e-07 2 0

0101000
+35 0 +34 0 *
Wi

0101100
+40 0 *
Fa
0  1e-07 3 0

0101000
+32 0 *
Ve
1e-07
4.45 -1.08993565124114e-15 0
0 0

0101101
*
Ed
 1e-07 1 1 0
1  5 0 0 1
3  9 10CN 4 0 0 1
0

0101000
-37 0 +30 0 *
Ed
 1e-07 1 1 0
1  6 0 0 6.28318530717959
2  11 4 0 0 6.28318530717959
2  12 5 0 0 6.28318530717959
0

0101000
+30 0 -30 0 *
Wi

0101100
-36 0 +29 0 +28 0 -29 0 *
Fa
0  1e-07 4 0

0101000
+27 0 *
Wi

0101100
+28 0 *
Ve
1e-07
3.2 -7.83773951454306e-16 0
0 0

0101101
*
Ed
 1e-07 1 1 0
1  7 0 0 6.28318530717959
2  13 1 0 0 6.28318530717959
2  14 6 0 0 6.28318530717959
2  15 5 0 0 6.28318530717959
2  16 7 5 0 6.28318530717959
0

0101000
+24 0 -24 0 *
Wi

0101100
-23 0 *
Fa
0  1e-07 5 0

0101000
+25 0 +22 0 *
Wi

0101100
+23 0 *
Ve
1.00000000455569e-07
1.86 -4.55568609282815e-16 0
0 0

0101101
*
Ed
 1e-07 1 1 0
1  8 0 0 6.28318530717959
2  17 6 0 0 6.28318530717959
2  18 8 0 0 6.28318530717959
0

0101100
+19 0 -19 0 *
Wi

0101100
-18 0 *
Fa
0  1e-07 6 0

0101000
+20 0 +17 0 *
Ve
1.00000000400297e-07
1.65 -4.04133443718627e-16 0.3
0 0

0101101
*
Ed
 1e-07 1 1 0
1  9 0 0.244131112314674 0.610327780786685
3  19 20CN 8 0 0.244131112314674 0.610327780786685
0

0101000
+19 0 -15 0 *
Ed
 1.00000000400297e-07 1 1 0
1  10 0 0 6.28318530717959
2  21 8 0 0 6.28318530717959
2  22 9 0 0 6.28318530717959
2  23 10 0 0 6.28318530717959
0

0101000
+15 0 -15 0 *
Wi

0101100
+14 0 +18 0 -14 0 -13 0 *
Fa
0  1e-07 8 0

0101000
+12 0 *
Ve
1e-07
1.65 -4.04133443718627e-16 6.2
0 0

0101101
*
Ed
 1e-07 1 1 0
1  11 0 0.5 6.4
3  24 25CN 10 0 0.5 6.4
0

0101000
+15 0 -10 0 *
Ed
 1e-07 1 1 0
1  12 0 0 6.28318530717959
2  26 10 0 0 6.28318530717959
2  27 11 0 0 6.28318530717959
0

0101000
+10 0 -10 0 *
Wi

0101100
+9 0 +13 0 -9 0 -8 0 *
Fa
0  1e-07 10 0

0101000
+7 0 *
Wi

0101100
+8 0 *
Fa
0  1e-07 11 0

0101000
+5 0 *
Sh

0101100
+38 0 +33 0 +31 0 +26 0 -21 0 -16 0 -11 0 -6 0 -4 0 *
So

0100000
+3 0 *
Co

0100000
+2 0 *

+1 0 