DBRep_DrawableShape

CASCADE Topology V3, (c) Open Cascade
Locations 0
Curve2ds 6
8 0 9.4264966774408947
1 6.2831853071795862 0 0 1 
1 0 0 0 1 
1 0 0 1 0 
7 1 1  6 6 2  -0.049992078838256848 -8.3266726846886741e-17  1.6690784610682365 -0.049992078838256404 -0.083077153778552987  1.0367296232096121 0.052735330689150206 -0.095005619162280258  1.0383466998475064 0.13746376721216647 -2.5673907444456745e-16  0.85353433019614966 0.05273533068915065 0.095005619162280258  1.0383466998475068 -0.049992078838256737 0.08307715377855282  1.0367296232096115
 0 6 6.2831853071795862 6
1 0 9.4264966774408947 1 0 
7 1 1  6 6 2  -0.049992078838191678 8.0766239279883578e-08  1.6690784610682365 -0.049992213056040402 -0.083077073012205266  1.0367296232096121 0.052735177199833672 -0.095005704360340532  1.0383466998475064 0.13746376721198716 -2.2208381406096933e-07  0.85353433019614966 0.052735484178329517 0.095005533963972072  1.0383466998475068 -0.049991944620341955 0.08307723454468377  1.0367296232096115
 0 6 6.2831853071795862 6
Curves 3
7 1 0  9 17 3  0.6000000000000002 6.9388939039072284e-17 0.049999999999999982  1.6690784610682365 0.60000000000010711 0.31416239108991278 0.059999866575480648  1.6690784610682268 0.41492101158209255 0.62830139385382955 0.069998769806798047  1.6690784610682838 0.045127780539957266 0.81761641773435456 0.080003683701301079  1.6690784610681342 -0.4134510691779712 0.75977307333473687 0.089995015723774857  1.6690784610683629 -0.75975032104525209 0.41338645297530668 0.10000327711978196  1.6690784610681357 -0.81760156272036066 -0.045066443516819529 0.10999904262878961  1.6690784610682856 -0.6283176477356005 -0.41494499939700347 0.1199999305603399  1.6690784610682285 1.8350986086615449e-09 -0.78505492192494186 0.13999995961049513  1.669078461068231 0.62831764967552772 -0.41494499645957594 0.15999998866065343  1.6690784610682561 0.81760156292834163 -0.045066439690980717 0.17000087659218066  1.6690784610681453 0.75975031912144186 0.41338645651631395 0.17999664210126598  1.6690784610684255 0.41345106561370198 0.7597730752815729 0.19000490349714583  1.6690784610680054 -0.045127784354240842 0.8176164175154359 0.19999623551974052  1.6690784610684204 -0.41492101452107699 0.62830139191440026 0.21000114941416054  1.6690784610681433 -0.60000000146913357 0.31416238828467907 0.22000005264555339  1.669078461068261 -0.60000000000034492 -2.805195825628104e-09 0.22999991922096336  1.6690784610682365
 0 10 4.7132483387204474 7 9.4264966774408947 10
7 1 1  6 6 2  0.6000000000000002 6.9388939039072284e-17 0.049999999999999982  1.6690784610682365 0.59999999999999976 4.163336342344337e-16 0.13307715377855289  1.0367296232096121 0.49727259047259315 -1.1102230246251565e-16 0.14500561916228016  1.0383466998475064 0.41254415394957689 2.3592239273284576e-16 0.050000000000000155  0.85353433019614966 0.4972725904725927 1.9428902930940239e-16 -0.045005619162280353  1.0383466998475068 0.60000000000000009 8.3266726846886741e-17 -0.033077153778552915  1.0367296232096115
 0 6 6.2831853071795862 6
7 1 1  6 6 2  -0.60000000000034492 -2.805195825628104e-09 0.22999991922096336  1.6690784610682365 -0.60000013421819365 -2.805195464805621e-09 0.3130770729994079  1.0367296232096121 -0.49727274396231974 2.9578059446144778e-09 0.32500570434754317  1.0383466998475064 -0.41254415395016641 7.7110660634538419e-09 0.2300002220710167  0.85353433019614966 -0.4972724369838239 2.9578058335921753e-09 0.13499446602323056  1.0383466998475068 -0.5999998657824952 -2.8051958395058918e-09 0.14692276544251887  1.0367296232096115
 0 6 6.2831853071795862 6
Polygon3D 0
PolygonOnTriangulations 0
Surfaces 3
9 1 1 1 0 6 9 6 17 2 3 0.6000000000000002 6.9388939039072284e-17 0.049999999999999989  1.6690784610682365 0.600000000000107 0.31416239108991278 0.059999866575480648  1.6690784610682268 0.41492101158209255 0.62830139385382955 0.069998769806798047  1.6690784610682838 0.045127780539957266 0.81761641773435467 0.080003683701301065  1.6690784610681342 -0.4134510691779712 0.75977307333473687 0.089995015723774857  1.6690784610683629 -0.75975032104525209 0.41338645297530668 0.10000327711978196  1.6690784610681357 -0.81760156272036066 -0.045066443516819529 0.10999904262878961  1.6690784610682856 -0.62831764773560039 -0.41494499939700347 0.11999993056033989  1.6690784610682285 1.8350986086615451e-09 -0.78505492192494186 0.13999995961049513  1.669078461068231 0.62831764967552772 -0.41494499645957594 0.15999998866065343  1.6690784610682561 0.81760156292834163 -0.045066439690980717 0.17000087659218066  1.6690784610681453 0.75975031912144186 0.41338645651631389 0.17999664210126601  1.6690784610684255 0.41345106561370193 0.7597730752815729 0.19000490349714583  1.6690784610680054 -0.045127784354240842 0.8176164175154359 0.19999623551974052  1.6690784610684204 -0.41492101452107694 0.62830139191440026 0.21000114941416054  1.6690784610681433 -0.60000000146913357 0.31416238828467907 0.22000005264555339  1.669078461068261 -0.60000000000034481 -2.805195825628104e-09 0.22999991922096336  1.6690784610682365 
0.59999999999999976 4.163336342344337e-16 0.13307715377855289  1.0367296232096121 0.60000022169068512 0.31416242623224194 0.14307702035403275  1.0367296232096019 0.41492301419509131 0.62830159470385183 0.15307592358467148  1.0367296232096539 0.04512156763187275 0.81761595970092937 0.16308083748153462  1.0367296232095295 -0.41344280777441172 0.7597741766260584 0.17307216950013857  1.0367296232097081 -0.75975606142192098 0.41338556432580559 0.1830804308996887  1.0367296232095407 -0.81759995226171911 -0.045066046695069487 0.19307619640700746  1.0367296232096443 -0.62831773541272173 -0.41494508925359208 0.20307708433881827  1.0367296232096075 1.0026000688521941e-08 -0.78505500973195019 0.22307711338902855  1.036729623209609 0.6283177025510629 -0.41494499942457475 0.24307714243921114  1.0367296232096233 0.81760335628323444 -0.045066846621110615 0.25307803037285437  1.0367296232095606 0.75974474868799691 0.4133874377322746 0.26307379587227653  1.036729623209715 0.41345941952156207 0.75977214180481645 0.27308205728677148  1.0367296232094891 -0.045134007370234597 0.81761705856757805 0.28307338928998371  1.0367296232097112 -0.41491910471999816 0.6283013315602024 0.2930783031952251  1.0367296232095586 -0.59999991399626129 0.314162423427024 0.30307720642435576  1.0367296232096272 -0.60000013421819365 -2.805195464805621e-09 0.3130770729994079  1.0367296232096121 
0.49727259047259309 -1.1102230246251565e-16 0.14500561916228016  1.0383466998475064 0.4972728439942658 0.26036806346418317 0.15500575986484857  1.0383466998475015 0.34388717377255423 0.52076905863507816 0.16500691645957036  1.0383466998475301 0.037384147202345057 0.67753748366686606 0.17500173452357592  1.0383466998474584 -0.34264065250596248 0.62980176860211667 0.18501087531932892  1.0383466998475557 -0.62968611732798985 0.34253716363849734 0.1950021632830542  1.0383466998474788 -0.67761484548581974 -0.037329284073507316 0.20500662875597944  1.0383466998475142 -0.52074177924667364 -0.34390145158688434 0.2150056923896656  1.0383466998475064 7.4317733607734415e-09 -0.65064385083584775 0.23500566175493565  1.0383466998475019 0.52074173740241714 -0.34390135531677712 0.25500563112017294  1.0383466998475155 0.67761873780617965 -0.03733020725937021 0.26500469475602612  1.0383466998474717 0.62967318451835375 0.34253929823259671 0.2750091602196218  1.0383466998475712 0.3426596572362709 0.62979943735879862 0.28500044820101589  1.0383466998474358 -0.037398364681112718 0.67753874078033294 0.2950095889785086  1.0383466998475555 -0.34388269650446712 0.52076876197153177 0.30500440705259702  1.0383466998474844 -0.49727248889108022 0.26036806642229798 0.31500556364527249  1.0383466998475122 -0.49727274396231974 2.9578059446144778e-09 0.32500570434754317  1.0383466998475064 
0.41254415394957689 2.3592239273284576e-16 0.050000000000000155  0.85353433019614966 0.4125441539496798 0.21599902088820055 0.060000366799572741  0.853534330196144 0.28529506726167264 0.43207715316257833 0.070003381945049042  0.85353433019617697 0.031010248751722695 0.56200287670349081 0.079989873074254786  0.85353433019608971 -0.28425424021532236 0.52260056487728301 0.090013702358267139  0.85353433019622627 -0.52239861488466932 0.28410330415618579 0.099990990814473185  0.8535343301960866 -0.56215870282924008 -0.030948588224422438 0.11000263192541027  0.85353433019618263 -0.43201420418112774 -0.28530532790998814 0.12000019089774823  0.85353433019614089 -5.0449152633191829e-09 -0.53978289580487382 0.14000011103546825  0.85353433019615443 0.43201419884804299 -0.28530533598527547 0.16000003117319184  0.85353433019614888 0.5621587022509652 -0.030948598731829882 0.1699975901456276  0.85353433019614533 0.52239862019461714 0.28410329438862097 0.180009231256123  0.85353433019616665 0.28425424998508647 0.52260055956719043 0.18998651971321856  0.85353433019612834 -0.031010238247450389 0.56200287728173204 0.20001034899618203  0.85353433019616498 -0.28529505918461107 0.4320771584941549 0.20999684012620154  0.85353433019614267 -0.41254414991119792 0.21599902859983733 0.21999985527118288  0.85353433019615144 -0.41254415395016641 7.7110660634538419e-09 0.23000022207101672  0.85353433019614966 
0.4972725904725927 1.9428902930940239e-16 -0.045005619162280353  1.0383466998475068 0.49727233695113571 0.26036798308784881 -0.035005478459713579  1.0383466998474944 0.34388259346421945 0.5207685992577088 -0.025004321863424217  1.0383466998475597 0.037398357154302286 0.67753853126541608 -0.015009503804851998  1.038346699847394 -0.3426595477070058 0.6297992451916441 -0.0050003630001933252  1.0383466998476518 -0.62967298813387584 0.34253919612746137 0.0049909249553689861  1.0383466998473836 -0.67761852887199792 -0.037330191670729915 0.014995390432201716  1.0383466998475746 -0.52074157871454485 -0.34390124606994893 0.024994454065271302  1.0383466998474895 -1.1302189058346596e-08 -0.65064365000664925 0.044994423430421371  1.0383466998475142 0.52074161646730888 -0.34390134853532761 0.064994392795602499  1.0383466998475097 0.67761463610585593 -0.037329276542657344 0.074993456426608485  1.0383466998474793 0.62968592502420884 0.34253705402892809 0.084997921912323277  1.038346699847567 0.34264055046249636 0.6298015723749375 0.094989209851118778  1.0383466998474389 -0.037384131610733277 0.67753727458780211 0.10499835067296087  1.0383466998475541 -0.34388706453648715 0.52076890001154752 0.11499316872228996  1.0383466998474857 -0.49727268895605486 0.26036798604593486 0.12499432532014126  1.0383466998475124 -0.4972724369838239 2.9578058335921753e-09 0.13499446602323056  1.0383466998475068 
0.60000000000000009 8.3266726846886741e-17 -0.033077153778552915  1.0367296232096115 0.59999977830953677 0.31416235594758324 -0.023077287203074115  1.036729623209601 0.41491900896906703 0.62830119300379805 -0.013078383971065949  1.0367296232096548 0.045133993448075789 0.8176168757678085 -0.0030734700789504243  1.0367296232095238 -0.41345933058155326 0.75977197004337937 0.0069178619474342951  1.036729623209715 -0.75974458066856776 0.4133873416248311 0.016926123339854771  1.0367296232095333 -0.81760317317901365 -0.045066840338583644 0.026921888850583192  1.0367296232096459 -0.62831756005847395 -0.41494490954040719 0.036922776781858888  1.0367296232096086 -6.3558052237032425e-09 -0.78505483411794375 0.056922805831962825  1.0367296232096035 0.628317596799991 -0.41494499349456948 0.076922834882096447  1.0367296232096304 0.8175997695734597 -0.045066032760871302 0.086923722811501708  1.0367296232095282 0.75975588955486617 0.41338547530038094 0.096919488330265841  1.0367296232097736 0.41344271170586444 0.75977400875829781 0.10692774970750853  1.0367296232094192 -0.045121561338264969 0.81761577646331751 0.1169190817495059  1.0367296232097647 -0.41492292432215083 0.62830145226858802 0.12692399563309262  1.0367296232095309 -0.6000000889420033 0.31416235314233659 0.13692289886675152  1.0367296232096339 -0.5999998657824952 -2.8051958395058918e-09 0.14692276544251887  1.0367296232096115 

0 6
6.2831853071795862 6

0 10
4.7132483387204474 7
9.4264966774408947 10

1 0.55000792116174335 1.2376634719937446e-16 0.049999999999999899 -4.7865222970917794e-16 -1 3.9876008183559968e-16 -1 4.7865222970917794e-16 0 -1.9086740228962404e-31 -3.9876008183559968e-16 -1 
1 -0.55000792116215336 -6.4308517981782379e-13 0.22999999998720264 -5.6099941596738487e-08 0.99999999999999845 -9.2146176355829429e-14 0.99999999999999845 5.6099941596738487e-08 -7.5231638452626401e-37 5.1693951119247949e-21 -9.214617635582929e-14 -1 
Triangulations 0

TShapes 13
Ve
1.05901671313366e-05
0.6 6.93889390390723e-17 0.05
0 0

0101101
*
Ve
1.05901671313366e-05
-0.600000000000345 -2.8051958256281e-09 0.229999919220963
0 0

0101101
*
Ed
 1e-07 1 1 0
1  1 0 0 9.42649667744089
3  1 2G1 1 0 0 9.42649667744089
0

0101000
+13 0 -12 0 *
Ed
 1e-07 1 1 0
1  2 0 0 6.28318530717959
2  3 1 0 0 6.28318530717959
2  4 2 0 0 6.28318530717959
0

0101000
+13 0 -13 0 *
Ed
 1e-07 1 1 0
1  3 0 0 6.28318530717959
2  5 1 0 0 6.28318530717959
2  6 3 0 0 6.28318530717959
0

0101000
+12 0 -12 0 *
Wi

0101100
+11 0 +10 0 -11 0 -9 0 *
Fa
0  1e-07 1 0

0101000
+8 0 *
Wi

0101100
+10 0 *
Fa
0  1e-07 2 0

0101000
+6 0 *
Wi

0101100
+9 0 *
Fa
0  1e-07 3 0

0101000
+4 0 *
Sh

0101100
+7 0 -5 0 +3 0 *
So

0100100
-2 0 *

+1 0 