DBRep_DrawableShape

CASCADE Topology V3, (c) Open Cascade
Locations 4
1
              1              -0               0              -0 
              0               1               0               0 
             -0               0               1              -0 
2  1 -1 0
1
              1              -0               0              -0 
              0               1               0               0 
             -0               0               1              -0 
2  3 -1 0
Curve2ds 32
1 0 0 1 0 
1 26 0 0 -1 
1 0 0 0 -1 
1 0 -38 1 0 
8 -33.5 -1.5
1 3 -1.5 0 1 
8 -33.5 -1.5
1 0.5 -1.5 0 -1 
8 1.5 21.5
1 1.5 -35 1 0 
8 1.5 21.5
1 -1.5 0.5 1 0 
8 -33.5 -1.5
1 23 -1.5 0 1 
8 -33.5 -1.5
1 0.5 -1.5 0 -1 
8 1.5 21.5
1 1.5 -3 1 0 
8 1.5 21.5
1 -1.5 0.5 1 0 
1 0 0 1 0 
1 26 0 0 -1 
1 0 0 0 -1 
1 0 -38 1 0 
1 0 0 0 1 
1 0 32 1 0 
8 -33.5 -1.5
1 3 -1.5 0 1 
8 -33.5 -1.5
1 3.5 -1.5 0 -1 
1 0 0 0 1 
1 0 0 1 0 
8 1.5 21.5
1 1.5 -35 1 0 
8 1.5 21.5
1 -1.5 3.5 1 0 
1 20 0 0 1 
1 0 32 1 0 
8 -33.5 -1.5
1 23 -1.5 0 1 
8 -33.5 -1.5
1 3.5 -1.5 0 -1 
1 20 0 0 1 
1 0 0 1 0 
8 1.5 21.5
1 1.5 -3 1 0 
8 1.5 21.5
1 -1.5 3.5 1 0 
Curves 24
1 -1.5 -19 -13 0 0 1 
1 -1.5 -19 13 0 1 0 
1 -1.5 -19 -13 0 1 0 
1 -1.5 19 -13 0 0 1 
1 -1.5 -17.5 -10 0 -1 0 
1 -1.5 16 -11.5 0 0 1 
1 -1.5 -17.5 10 0 -1 0 
1 -1.5 -16 -11.5 0 0 1 
1 -1.5 -19 -13 1 0 0 
1 1.5 -19 -13 0 0 1 
1 -1.5 -19 13 1 0 0 
1 -1.5 19 13 1 0 0 
1 1.5 -19 13 0 1 0 
1 -1.5 19 -13 1 0 0 
1 1.5 -19 -13 0 1 0 
1 1.5 19 -13 0 0 1 
1 -2 16 -10 1 0 0 
1 1.5 -17.5 -10 0 -1 0 
1 -2 -16 -10 1 0 0 
1 1.5 16 -11.5 0 0 1 
1 -2 16 10 1 0 0 
1 1.5 -17.5 10 0 -1 0 
1 -2 -16 10 1 0 0 
1 1.5 -16 -11.5 0 0 1 
Polygon3D 0
PolygonOnTriangulations 0
Surfaces 10
1 -1.5 -19 -13 1 0 0 0 0 1 0 -1 0 
1 -2 -16 -10 0 0 1 1 0 0 0 1 0 
1 -2 16 -10 0 1 0 0 0 1 1 0 0 
1 -2 -16 10 0 0 1 1 0 0 0 1 0 
1 -2 -16 -10 0 1 0 0 0 1 1 0 0 
1 -1.5 -19 -13 0 1 0 0 0 1 1 0 0 
1 1.5 -19 -13 1 0 0 0 0 1 0 -1 0 
1 -1.5 -19 13 0 0 1 1 0 0 0 1 0 
1 -1.5 -19 -13 0 0 1 1 0 0 0 1 0 
1 -1.5 19 -13 0 1 0 0 0 1 1 0 0 
Triangulations 0

TShapes 65
Ve
1e-07
-1.5 -19 13
0 0

0101101
*
Ve
1e-07
-1.5 -19 -13
0 0

0101101
*
Ed
 1e-07 1 1 0
1  1 0 0 26
2  1 1 0 0 26
0

0101000
-65 2 +64 2 *
Ve
1e-07
-1.5 19 13
0 0

0101101
*
Ed
 1e-07 1 1 0
1  2 0 0 38
2  2 1 0 0 38
0

0101000
-62 2 +65 2 *
Ve
1e-07
-1.5 19 -13
0 0

0101101
*
Ed
 1e-07 1 1 0
1  3 0 0 38
2  3 1 0 0 38
0

0101000
-60 2 +64 2 *
Ed
 1e-07 1 1 0
1  4 0 0 26
2  4 1 0 0 26
0

0101000
-62 2 +60 2 *
Wi

0101100
-63 1 -61 1 +59 1 +58 1 *
Ve
1.5e-07
-1.5 16 -10
0 0

0101101
*
Ve
1.5e-07
-1.5 -16 -10
0 0

0101101
*
Ed
 1.5e-07 1 1 0
1  5 0 -33.5 -1.5
2  5 1 1 -33.5 -1.5
2  6 2 3 -33.5 -1.5
0

0101000
+56 0 -55 0 *
Ve
1.5e-07
-1.5 16 10
0 0

0101101
*
Ed
 1.5e-07 1 1 0
1  6 0 1.5 21.5
2  7 1 1 1.5 21.5
2  8 3 3 1.5 21.5
0

0101000
+56 0 -53 0 *
Ve
1.5e-07
-1.5 -16 10
0 0

0101101
*
Ed
 1.5e-07 1 1 0
1  7 0 -33.5 -1.5
2  9 1 1 -33.5 -1.5
2  10 4 3 -33.5 -1.5
0

0101000
+53 0 -51 0 *
Ed
 1.5e-07 1 1 0
1  8 0 1.5 21.5
2  11 1 1 1.5 21.5
2  12 5 3 1.5 21.5
0

0101000
+55 0 -51 0 *
Wi

0101100
+54 0 -52 0 -50 0 +49 0 *
Fa
0  1e-07 1 1

0101000
+57 0 +48 0 *
Ve
1e-07
1.5 -19 -13
0 0

0101101
*
Ed
 1e-07 1 1 0
1  9 0 0 3
0

0101000
-46 2 +64 2 *
Ve
1e-07
1.5 -19 13
0 0

0101101
*
Ed
 1e-07 1 1 0
1  10 0 0 26
2  13 7 0 0 26
0

0101000
-44 2 +46 2 *
Ed
 1e-07 1 1 0
1  11 0 0 3
0

0101000
-44 2 +65 2 *
Wi

0101100
-45 0 -43 0 +42 0 +63 0 *
Fa
0  1e-07 6 0

0101000
+41 0 *
Ve
1e-07
1.5 19 13
0 0

0101101
*
Ed
 1e-07 1 1 0
1  12 0 0 3
0

0101000
-39 2 +62 2 *
Ed
 1e-07 1 1 0
1  13 0 0 38
2  14 7 0 0 38
0

0101000
-39 2 +44 2 *
Wi

0101100
-61 0 -38 0 +37 0 +42 0 *
Fa
0  1e-07 8 0

0101000
+36 0 *
Ve
1e-07
1.5 19 -13
0 0

0101101
*
Ed
 1e-07 1 1 0
1  14 0 0 3
0

0101000
-34 2 +60 2 *
Ed
 1e-07 1 1 0
1  15 0 0 38
2  15 7 0 0 38
0

0101000
-34 2 +46 2 *
Wi

0101100
-59 0 -33 0 +32 0 +45 0 *
Fa
0  1e-07 9 0

0101000
+31 0 *
Ed
 1e-07 1 1 0
1  16 0 0 26
2  16 7 0 0 26
0

0101000
-39 2 +34 2 *
Wi

0101100
-33 0 -29 0 +38 0 +58 0 *
Fa
0  1e-07 10 0

0101000
+28 0 *
Ve
1.5e-07
1.5 16 -10
0 0

0101101
*
Ed
 1e-07 1 1 0
1  17 0 0.5 3.5
2  17 3 0 0.5 3.5
2  18 2 0 0.5 3.5
0

0101000
+56 4 -26 4 *
Ve
1.5e-07
1.5 -16 -10
0 0

0101101
*
Ed
 1.5e-07 1 1 0
1  18 0 -33.5 -1.5
2  19 7 1 -33.5 -1.5
2  20 2 3 -33.5 -1.5
0

0101000
+26 0 -24 0 *
Ed
 1e-07 1 1 0
1  19 0 0.5 3.5
2  21 5 0 0.5 3.5
2  22 2 0 0.5 3.5
0

0101000
+55 4 -24 4 *
Wi

0101100
-25 3 -23 0 +22 3 +54 0 *
Fa
0  1e-07 2 3

0101000
+21 0 *
Ve
1.5e-07
1.5 16 10
0 0

0101101
*
Ed
 1.5e-07 1 1 0
1  20 0 1.5 21.5
2  23 7 1 1.5 21.5
2  24 3 3 1.5 21.5
0

0101000
+26 0 -19 0 *
Ed
 1e-07 1 1 0
1  21 0 0.5 3.5
2  25 3 0 0.5 3.5
2  26 4 0 0.5 3.5
0

0101000
+53 4 -19 4 *
Wi

0101100
-25 3 -18 0 +17 3 +52 0 *
Fa
0  1e-07 3 3

0101000
+16 0 *
Ve
1.5e-07
1.5 -16 10
0 0

0101101
*
Ed
 1.5e-07 1 1 0
1  22 0 -33.5 -1.5
2  27 7 1 -33.5 -1.5
2  28 4 3 -33.5 -1.5
0

0101000
+19 0 -14 0 *
Ed
 1e-07 1 1 0
1  23 0 0.5 3.5
2  29 5 0 0.5 3.5
2  30 4 0 0.5 3.5
0

0101000
+51 4 -14 4 *
Wi

0101100
-17 3 -13 0 +12 3 +50 0 *
Fa
0  1e-07 4 3

0101000
+11 0 *
Ed
 1.5e-07 1 1 0
1  24 0 1.5 21.5
2  31 7 1 1.5 21.5
2  32 5 3 1.5 21.5
0

0101000
+24 0 -14 0 *
Wi

0101100
-22 3 -9 0 +12 3 +49 0 *
Fa
0  1e-07 5 3

0101000
+8 0 *
Wi

0101100
-43 1 -37 1 +32 1 +29 1 *
Wi

0101100
+23 0 -18 0 -13 0 +9 0 *
Fa
0  1e-07 7 1

0101000
+6 0 +5 0 *
Sh

0101100
-47 0 -40 1 +35 1 -30 1 +27 1 +20 0 -15 0 -10 0 +7 0 +4 0 
*
So

0100000
+3 0 *
Co

0100000
+2 0 *

+1 0 