DBRep_DrawableShape

CASCADE Topology V3, (c) Open Cascade
Locations 0
Curve2ds 12
1 0 12 1 0 
2 0 0 1 0 -0 1 45.600000000000001
1 6.2831853071795862 -0 0 1 
1 0 -0 0 1 
1 0 0 1 0 
2 0 0 1 0 -0 1 45.600000000000001
2 0 0 1 0 -0 1 44.399999999999999
1 0 12.199999999999999 1 0 
2 0 0 1 0 -0 1 44.399999999999999
1 0 0.20000000000000018 1 0 
1 6.2831853071795862 -0 0 1 
1 0 -0 0 1 
Curves 6
2 0 0 6 0 0 1 1 0 -0 -0 1 0 45.600000000000001
1 45.600000000000001 -1.1168778808223861e-14 -6 0 0 1 
2 0 0 -6 0 0 1 1 0 -0 -0 1 0 45.600000000000001
2 0 0 5.9999999999999991 0 0 1 1 0 -0 -0 1 0 44.399999999999999
2 0 0 -6 0 0 1 1 0 -0 -0 1 0 44.399999999999999
1 44.399999999999999 -1.0874863576428496e-14 -6.2000000000000002 0 0 1 
Polygon3D 0
PolygonOnTriangulations 0
Surfaces 4
2 0 0 -6 0 0 1 1 0 -0 -0 1 0 45.600000000000001
1 0 0 6 0 0 1 1 0 -0 -0 1 0 
1 0 0 -6 0 0 1 1 0 -0 -0 1 0 
2 0 0 -6.2000000000000002 0 0 1 1 0 -0 -0 1 0 44.399999999999999
Triangulations 0

TShapes 23
Ve
1e-07
45.6 -1.11687788082239e-14 6
0 0

0101101
*
Ed
 1e-07 1 1 0
1  1 0 0 6.28318530717959
2  1 1 0 0 6.28318530717959
2  2 2 0 0 6.28318530717959
0

0101000
+23 0 -23 0 *
Ve
1e-07
45.6 -1.11687788082239e-14 -6
0 0

0101101
*
Ed
 1e-07 1 1 0
1  2 0 0 12
3  3 4CN 1 0 0 12
0

0101000
-23 0 +21 0 *
Ed
 1e-07 1 1 0
1  3 0 0 6.28318530717959
2  5 1 0 0 6.28318530717959
2  6 3 0 0 6.28318530717959
0

0101000
+21 0 -21 0 *
Wi

0101100
-22 0 +20 0 +19 0 -20 0 *
Fa
0  1e-07 1 0

0101000
+18 0 *
Wi

0101100
+22 0 *
Ve
1.00000010874864e-07
44.4 -1.08748635764285e-14 6
0 0

0101101
*
Ed
 1e-07 1 1 0
1  4 0 0 6.28318530717959
2  7 2 0 0 6.28318530717959
2  8 4 0 0 6.28318530717959
0

0101100
+15 0 -15 0 *
Wi

0101100
-14 0 *
Fa
0  1e-07 2 0

0101000
+16 0 +13 0 *
Wi

0101100
+19 0 *
Ve
1.00000010874864e-07
44.4 -1.08748635764285e-14 -6
0 0

0101101
*
Ed
 1e-07 1 1 0
1  5 0 0 6.28318530717959
2  9 3 0 0 6.28318530717959
2  10 4 0 0 6.28318530717959
0

0101100
+10 0 -10 0 *
Wi

0101100
-9 0 *
Fa
0  1e-07 3 0

0101000
+11 0 +8 0 *
Ed
 1e-07 1 1 0
1  6 0 0.2 12.2
3  11 12CN 4 0 0.2 12.2
0

0101000
+10 0 -15 0 *
Wi

0101100
-14 0 +6 0 +9 0 -6 0 *
Fa
0  1e-07 4 0

0101000
+5 0 *
Sh

0101100
+17 0 +12 0 -7 0 -4 0 *
So

0100000
+3 0 *
Co

0100000
+2 0 *

+1 0 