DBRep_DrawableShape

CASCADE Topology V3, (c) Open Cascade
Locations 2
1
              1              -0               0              -0 
              0               1               0               0 
             -0               0               1              -0 
2  1 -1 0
Curve2ds 93
1 0 0 1 0 
1 0 0 1 0 
8 -5.999999999062311e-07 2.5000005999999999
1 0.48416201231002032 0.29999999999999982 0 -1 
8 -5.999999999062311e-07 2.5000005999999999
1 4.0500084740354447 0 0 1 
8 -1.1000000000000001 3.3000000000000003
1 1.1000000000000001 -2.2000000000000002 1 0 
8 -1.1000000000000001 3.3000000000000003
1 -1.1000000000000001 -2.2000000000000002 1 0 
8 -5.999999999062311e-07 2.5000005999999999
1 3.9158379876899803 0.29999999999999982 0 -1 
8 -5.999999999062311e-07 2.5000005999999999
1 5.3747694867339346 0 0 1 
1 0 0 1 0 
1 4.4000000000000004 0 0 -1 
1 0 0 0 1 
1 0 0 1 0 
1 0 -7.5999999999999996 1 0 
1 0 0 0 -1 
1 0 0 0 1 
1 0 0 1 0 
1 0 0 0 1 
2 2.2000000000000002 2.2000000000000002 1 0 -0 1 2.79
1 0 0.29999999999999982 1 0 
1 0 2.5 1 0 
2 0 0 1 0 -0 1 2.79
8 -5.999999999062311e-07 2.5000005999999999
1 0.4841620123100201 -0.29999999999999982 0 1 
8 -5.999999999062311e-07 2.5000005999999999
1 3.8039731599390376 0 0 1 
8 -3.8900000000000001 1.1000000000000001
1 1.1000000000000001 2.2000000000000002 -1 0 
8 -3.8900000000000001 1.1000000000000001
1 2.2000000000000002 -1.1000000000000001 0 -1 
8 -3.8900000000000001 1.1000000000000001
1 1.1000000000000001 2.2000000000000002 -1 0 
8 -3.8900000000000001 1.1000000000000001
1 -2.2000000000000002 -1.1000000000000001 0 -1 
1 0 2.5 1 0 
2 0 0 1 0 -0 1 1.6499999999999999
8 -5.999999999062311e-07 2.5000005999999999
1 0.4841620123100201 -0.29999999999999982 0 1 
8 -5.999999999062311e-07 2.5000005999999999
1 5.6208048008303413 0 0 1 
1 0 0 1 0 
1 4.4000000000000004 0 0 1 
1 10 0 0 1 
1 4.4000000000000004 0 0 -1 
1 4.4000000000000004 0 0 1 
8 -5.999999999062311e-07 2.5000005999999999
1 9.5158379876899808 -0.29999999999999982 0 1 
8 -5.999999999062311e-07 2.5000005999999999
1 0.66238050634924484 0 0 1 
8 -6.0999999999999996 -1.1099999999999999
1 3.8999999999999999 2.2000000000000002 -1 0 
8 -6.0999999999999996 -1.1099999999999999
1 2.2000000000000002 -3.8999999999999999 0 -1 
8 -5.999999999062311e-07 2.5000005999999999
1 6.0841620123100197 -0.29999999999999982 0 1 
8 -5.999999999062311e-07 2.5000005999999999
1 5.6208048008303413 0 0 1 
8 -5.999999999062311e-07 2.5000005999999999
1 3.9158379876899803 -0.29999999999999982 0 1 
8 -5.999999999062311e-07 2.5000005999999999
1 0.66238050634924472 0 0 1 
1 4.4000000000000004 0 0 1 
1 0 7.5999999999999996 1 0 
1 0 0 0 1 
1 0 7.5999999999999996 1 0 
1 0 10 1 0 
1 0 -7.5999999999999996 1 0 
2 2.2000000000000002 2.2000000000000002 1 0 -0 1 1.6499999999999999
1 0 7.8999999999999995 1 0 
2 2.2000000000000002 5 1 0 -0 1 0.59999999999999998
1 0 0.64999999999999991 1 0 
2 2.2000000000000002 7.7999999999999998 1 0 -0 1 1.6499999999999999
1 0 7.8999999999999995 1 0 
1 10 0 0 1 
1 0 0 0 -1 
1 0 0 0 1 
8 -5.999999999062311e-07 2.5000005999999999
1 9.5158379876899808 -0.29999999999999982 0 1 
8 -5.999999999062311e-07 2.5000005999999999
1 2.4792121472405486 0 0 1 
8 -6.0999999999999996 -1.1099999999999999
1 3.8999999999999999 2.2000000000000002 -1 0 
8 -6.0999999999999996 -1.1099999999999999
1 -2.2000000000000002 -3.8999999999999999 0 -1 
8 -5.999999999062311e-07 2.5000005999999999
1 6.0841620123100197 -0.29999999999999982 0 1 
8 -5.999999999062311e-07 2.5000005999999999
1 3.8039731599390376 0 0 1 
8 -5.999999999062311e-07 2.5000005999999999
1 3.9158379876899803 -0.29999999999999982 0 1 
8 -5.999999999062311e-07 2.5000005999999999
1 2.4792121472405486 0 0 1 
2 2.2000000000000002 2.2000000000000002 1 0 -0 1 2.79
1 0 0.29999999999999982 1 0 
1 6.2831853071795862 -0 0 1 
1 0 -0 0 1 
1 0 10 1 0 
1 0 0 1 0 
8 -5.999999999062311e-07 2.5000005999999999
1 0.48416201231002032 0.29999999999999982 0 -1 
8 -5.999999999062311e-07 2.5000005999999999
1 2.2331768331441415 0 0 1 
8 -1.1000000000000001 3.3000000000000003
1 1.1000000000000001 -2.2000000000000002 1 0 
8 -1.1000000000000001 3.3000000000000003
1 -1.1000000000000001 2.2000000000000002 1 0 
8 -5.999999999062311e-07 2.5000005999999999
1 3.9158379876899803 0.29999999999999982 0 -1 
8 -5.999999999062311e-07 2.5000005999999999
1 0.90841582044565183 0 0 1 
2 2.2000000000000002 7.7999999999999998 1 0 -0 1 2.79
1 0 0.29999999999999982 1 0 
1 0 2.5 1 0 
2 0 0 1 0 -0 1 2.79
1 0 2.5 1 0 
2 0 0 1 0 -0 1 1.6499999999999999
2 2.2000000000000002 7.7999999999999998 1 0 -0 1 2.79
1 0 0.29999999999999982 1 0 
1 6.2831853071795862 -0 0 1 
1 0 -0 0 1 
1 0 0 1 0 
2 0 0 1 0 -0 1 0.59999999999999998
1 6.2831853071795862 -0 0 1 
1 0 -0 0 1 
Curves 45
1 -5 -3.7999999999999998 -2.2000000000000002 0 0 1 
1 -5 -4.0999999999999996 -1.7158379876899799 0 1 0 
1 -5 -1.5999999999999996 -1.1000000000000001 0 0 1 
1 -5 -4.0999999999999996 1.7158379876899799 0 1 0 
1 -5 -3.7999999999999998 2.2000000000000002 0 1 0 
1 -5 3.7999999999999998 -2.2000000000000002 0 0 1 
1 -5 -3.7999999999999998 -2.2000000000000002 0 1 0 
1 -5 -3.7999999999999998 -2.2000000000000002 1 0 0 
2 -2.7999999999999998 -3.7999999999999998 0 0 1 0 0 -0 1 1 0 -0 2.79
2 -2.7999999999999998 -1.5999999999999996 0 0 1 0 0 -0 1 1 0 -0 2.79
1 -4.5158379876899799 -4.0999999999999996 -2.2000000000000002 0 1 0 
1 -3.8999999999999999 -1.5999999999999996 2.2000000000000002 -1 0 0 
1 -3.8999999999999999 -1.5999999999999996 -2.2000000000000002 -1 0 0 
2 -2.7999999999999998 -1.5999999999999996 0 0 1 0 0 -0 1 1 0 -0 1.6499999999999999
1 -4.5158379876899799 -4.0999999999999996 2.2000000000000002 0 1 0 
1 -5 -3.7999999999999998 2.2000000000000002 1 0 0 
1 5 -3.7999999999999998 2.2000000000000002 0 1 0 
1 4.5158379876899799 -4.0999999999999996 2.2000000000000002 0 1 0 
1 -1.1000000000000001 -1.5999999999999996 2.2000000000000002 -1 0 0 
1 1.08416201231002 -4.0999999999999996 2.2000000000000002 0 1 0 
1 -1.08416201231002 -4.0999999999999996 2.2000000000000002 0 1 0 
1 -5 3.7999999999999998 2.2000000000000002 1 0 0 
1 -5 3.7999999999999998 -2.2000000000000002 1 0 0 
1 5 3.7999999999999998 -2.2000000000000002 0 0 1 
2 -2.7999999999999998 3.7999999999999998 0 0 1 0 0 -0 1 1 0 -0 1.6499999999999999
2 0 3.7999999999999998 0 0 1 0 0 -0 1 1 0 -0 0.59999999999999998
2 2.7999999999999998 3.7999999999999998 0 0 1 0 0 -0 1 1 0 -0 1.6499999999999999
1 5 -3.7999999999999998 -2.2000000000000002 0 1 0 
1 4.5158379876899799 -4.0999999999999996 -2.2000000000000002 0 1 0 
1 -1.1000000000000001 -1.5999999999999996 -2.2000000000000002 -1 0 0 
1 1.08416201231002 -4.0999999999999996 -2.2000000000000002 0 1 0 
1 -1.08416201231002 -4.0999999999999996 -2.2000000000000002 0 1 0 
2 -2.7999999999999998 -3.7999999999999998 0 0 1 0 0 -0 1 1 0 -0 2.79
1 -2.8000000000000003 -4.0999999999999996 1.6499999999999999 0 1 0 
1 5 -3.7999999999999998 -2.2000000000000002 0 0 1 
1 5 -4.0999999999999996 -1.7158379876899799 0 1 0 
1 5 -1.5999999999999996 -1.1000000000000001 0 0 1 
1 5 -4.0999999999999996 1.7158379876899799 0 1 0 
2 2.7999999999999998 -3.7999999999999998 0 0 1 0 0 -0 1 1 0 -0 2.79
2 2.7999999999999998 -1.5999999999999996 0 0 1 0 0 -0 1 1 0 -0 2.79
2 2.7999999999999998 -1.5999999999999996 0 0 1 0 0 -0 1 1 0 -0 1.6499999999999999
2 2.7999999999999998 -3.7999999999999998 0 0 1 0 0 -0 1 1 0 -0 2.79
1 -1.4695761589768238e-16 3.1499999999999999 0.59999999999999998 0 1 0 
2 0 3.1499999999999999 0 0 1 0 0 -0 1 1 0 -0 0.59999999999999998
1 2.7999999999999994 -4.0999999999999996 1.6499999999999999 0 1 0 
Polygon3D 0
PolygonOnTriangulations 0
Surfaces 14
1 -5 -3.7999999999999998 -2.2000000000000002 1 0 0 0 0 1 0 -1 0 
1 -5 -3.7999999999999998 -2.2000000000000002 0 1 0 0 0 1 1 0 0 
2 -2.7999999999999998 -4.0999999999999996 0 0 1 0 0 -0 1 1 0 -0 2.79
1 -2.7999999999999998 -1.5999999999999996 0 0 1 0 0 -0 1 1 0 -0 
1 -5 -3.7999999999999998 2.2000000000000002 0 0 1 1 0 0 0 1 0 
1 -5 3.7999999999999998 -2.2000000000000002 0 1 0 0 0 1 1 0 0 
1 -5 -3.7999999999999998 -2.2000000000000002 0 0 1 1 0 0 0 1 0 
2 -2.7999999999999998 -4.0999999999999996 0 0 1 0 0 -0 1 1 0 -0 1.6499999999999999
1 5 -3.7999999999999998 -2.2000000000000002 1 0 0 0 0 1 0 -1 0 
2 2.7999999999999998 -4.0999999999999996 0 0 1 0 0 -0 1 1 0 -0 2.79
1 2.7999999999999998 -1.5999999999999996 0 0 1 0 0 -0 1 1 0 -0 
2 0 3.1499999999999999 0 0 1 0 0 -0 1 1 0 -0 0.59999999999999998
2 2.7999999999999998 -4.0999999999999996 0 0 1 0 0 -0 1 1 0 -0 1.6499999999999999
1 0 3.1499999999999999 0 0 1 0 0 -0 1 1 0 -0 
Triangulations 0

TShapes 147
Ve
1e-07
-5 -3.8 -2.2
0 0

0101101
*
Ve
1.00000001110223e-07
-5 -3.8 -1.71583798768998
0 0

0101101
*
Ed
 1e-07 1 1 0
1  1 0 0 0.484162012310019
2  1 1 0 0 0.484162012310019
2  2 2 0 0 0.484162012310019
0

0101000
+147 2 -146 2 *
Ve
1.50000000888178e-07
-5 -1.6 -1.71583798768998
0 0

0101101
*
Ed
 1e-07 1 1 0
1  2 0 0.3 2.5
2  3 1 1 0.3 2.5
2  4 3 0 0.3 2.5
0

0101000
+146 0 -144 0 *
Ve
1.50000000222045e-07
-5 -1.6 1.71583798768998
0 0

0101101
*
Ed
 1.5e-07 1 1 0
1  3 0 -0.615837987689981 2.81583798768998
2  5 1 1 -0.615837987689981 2.81583798768998
2  6 4 0 -0.615837987689981 2.81583798768998
0

0101000
+144 0 -142 0 *
Ve
1.00000001110223e-07
-5 -3.8 1.71583798768998
0 0

0101101
*
Ed
 1e-07 1 1 0
1  4 0 0.3 2.5
2  7 1 1 0.3 2.5
2  8 3 0 0.3 2.5
0

0101000
+140 0 -142 0 *
Ve
1e-07
-5 -3.8 2.2
0 0

0101101
*
Ed
 1e-07 1 1 0
1  1 0 3.91583798768998 4.4
2  1 1 0 3.91583798768998 4.4
2  9 2 0 3.91583798768998 4.4
0

0101000
+140 2 -138 2 *
Ve
1e-07
-5 3.8 2.2
0 0

0101101
*
Ed
 1e-07 1 1 0
1  5 0 0 7.6
2  10 1 0 0 7.6
2  11 5 0 0 7.6
0

0101000
-136 2 +138 2 *
Ve
1.00000000222045e-07
-5 3.8 -2.2
0 0

0101101
*
Ed
 1e-07 1 1 0
1  6 0 0 4.4
2  12 6 0 0 4.4
2  13 1 0 0 4.4
0

0101000
-136 2 +134 2 *
Ed
 1e-07 1 1 0
1  7 0 0 7.6
2  14 1 0 0 7.6
2  15 7 0 0 7.6
0

0101000
-134 2 +147 2 *
Wi

0101100
-145 1 -143 0 -141 0 +139 0 -137 1 -135 1 +133 1 +132 1 *
Fa
0  1e-07 1 1

0101000
+131 0 *
Ve
1.00000000888178e-07
-4.51583798768998 -3.8 -2.2
0 0

0101101
*
Ed
 1e-07 1 1 0
1  8 0 0 0.484162012310019
2  16 7 0 0 0.484162012310019
2  17 2 0 0 0.484162012310019
0

0101000
+147 2 -129 2 *
Ed
 1e-07 1 1 0
1  9 0 3.80397315993904 4.05000847403544
2  18 2 1 3.80397315993904 4.05000847403544
2  19 3 0 3.80397315993904 4.05000847403544
0

0101000
+129 0 -146 0 *
Wi

0101100
-128 1 -127 0 +145 1 *
Fa
0  1e-07 2 1

0101000
+126 0 *
Ve
1.5e-07
-4.51583798768998 -1.6 -2.2
0 0

0101101
*
Ed
 1e-07 1 1 0
1  10 0 3.80397315993904 4.05000847403544
2  20 3 0 3.80397315993904 4.05000847403544
2  21 4 0 3.80397315993904 4.05000847403544
0

0101000
+124 0 -144 0 *
Ed
 1e-07 1 1 0
1  11 0 0.3 2.5
2  22 7 1 0.3 2.5
2  23 3 0 0.3 2.5
0

0101000
+129 0 -124 0 *
Wi

0101100
-123 0 +143 0 +127 0 -122 0 *
Fa
0  1e-07 3 0

0101000
+121 0 *
Ve
1.50000000222045e-07
-1.08416201231002 -1.6 2.2
0 0

0101101
*
Ve
1.50000000888178e-07
-4.51583798768998 -1.6 2.2
0 0

0101101
*
Ed
 1.5e-07 1 1 0
1  12 0 -2.81583798768998 0.615837987689981
2  24 5 1 -2.81583798768998 0.615837987689981
2  25 4 0 -2.81583798768998 0.615837987689981
0

0101000
+119 0 -118 0 *
Ed
 1e-07 1 1 0
1  10 0 5.37476948673393 5.62080480083034
2  20 3 0 5.37476948673393 5.62080480083034
2  21 4 0 5.37476948673393 5.62080480083034
0

0101000
+142 0 -118 0 *
Ve
1.50000000637775e-07
-1.08416201231002 -1.6 -2.2
0 0

0101101
*
Ed
 1.5e-07 1 1 0
1  13 0 -2.81583798768998 0.61583798768998
2  26 7 1 -2.81583798768998 0.61583798768998
2  27 4 0 -2.81583798768998 0.61583798768998
0

0101000
+115 0 -124 0 *
Ed
 1e-07 1 1 0
1  10 0 0.662380506349245 2.47921214724055
2  20 3 0 0.662380506349245 2.47921214724055
2  21 4 0 0.662380506349245 2.47921214724055
0

0101000
+119 0 -115 0 *
Wi

0101100
-117 0 +116 0 +141 0 +123 0 +114 0 +113 0 *
Ve
1.00000000444089e-07
-2.8 -1.6 1.65
0 0

0101101
*
Ed
 1e-07 1 1 0
1  14 0 0 6.28318530717959
2  28 8 0 0 6.28318530717959
2  29 4 0 0 6.28318530717959
0

0101100
+111 0 -111 0 *
Wi

0101100
-110 0 *
Fa
0  1e-07 4 0

0101000
+112 0 +109 0 *
Ve
1.00000000888178e-07
-4.51583798768998 -3.8 2.2
0 0

0101101
*
Ed
 1e-07 1 1 0
1  15 0 0.3 2.5
2  30 5 1 0.3 2.5
2  31 3 0 0.3 2.5
0

0101000
+107 0 -118 0 *
Ed
 1e-07 1 1 0
1  9 0 5.37476948673393 5.62080480083034
2  18 2 1 5.37476948673393 5.62080480083034
2  19 3 0 5.37476948673393 5.62080480083034
0

0101000
+140 0 -107 0 *
Wi

0101100
+106 0 +105 0 -139 0 -116 0 *
Fa
0  1e-07 3 0

0101000
+104 0 *
Ed
 1e-07 1 1 0
1  16 0 0 0.484162012310019
2  32 5 0 0 0.484162012310019
2  33 2 0 0 0.484162012310019
0

0101000
+138 2 -107 2 *
Wi

0101100
-105 0 +102 1 +137 1 *
Fa
0  1e-07 2 1

0101000
+101 0 *
Ve
1e-07
5 3.8 2.2
0 0

0101101
*
Ve
1e-07
5 -3.8 2.2
0 0

0101101
*
Ed
 1e-07 1 1 0
1  17 0 0 7.6
2  34 5 0 0 7.6
2  35 9 0 0 7.6
0

0101000
-99 2 +98 2 *
Ve
1.00000000888178e-07
4.51583798768998 -3.8 2.2
0 0

0101101
*
Ed
 1e-07 1 1 0
1  16 0 9.51583798768998 10
2  32 5 0 9.51583798768998 10
2  36 2 0 9.51583798768998 10
0

0101000
+96 2 -98 2 *
Ve
1.50000000888178e-07
4.51583798768998 -1.6 2.2
0 0

0101101
*
Ed
 1e-07 1 1 0
1  18 0 0.3 2.5
2  37 5 1 0.3 2.5
2  38 10 0 0.3 2.5
0

0101000
+96 0 -94 0 *
Ve
1.50000000915513e-07
1.08416201231002 -1.6 2.2
0 0

0101101
*
Ed
 1.5e-07 1 1 0
1  19 0 -5.61583798768998 -2.18416201231002
2  39 5 1 -5.61583798768998 -2.18416201231002
2  40 11 0 -5.61583798768998 -2.18416201231002
0

0101000
+94 0 -92 0 *
Ve
1.00000004379404e-07
1.08416201231002 -3.8 2.2
0 0

0101101
*
Ed
 1e-07 1 1 0
1  20 0 0.3 2.5
2  41 5 1 0.3 2.5
2  42 10 0 0.3 2.5
0

0101000
+90 0 -92 0 *
Ve
1.00000001110223e-07
-1.08416201231002 -3.8 2.2
0 0

0101101
*
Ed
 1e-07 1 1 0
1  16 0 3.91583798768998 6.08416201231002
2  32 5 0 3.91583798768998 6.08416201231002
2  36 2 0 3.91583798768998 6.08416201231002
0

0101000
+88 2 -90 2 *
Ed
 1e-07 1 1 0
1  21 0 0.3 2.5
2  43 5 1 0.3 2.5
2  44 3 0 0.3 2.5
0

0101000
+88 0 -119 0 *
Ed
 1e-07 1 1 0
1  22 0 0 10
2  45 6 0 0 10
2  46 5 0 0 10
0

0101000
-99 2 +136 2 *
Wi

0101100
+97 1 +95 1 -93 0 -91 0 +89 0 +87 1 -86 0 -117 0 +106 0 +102 1 
-135 1 -85 1 *
Fa
0  1e-07 5 1

0101000
+84 0 *
Ve
1e-07
5 3.8 -2.2
0 0

0101101
*
Ed
 1e-07 1 1 0
1  23 0 0 10
2  47 6 0 0 10
2  48 7 0 0 10
0

0101000
-82 2 +134 2 *
Ed
 1e-07 1 1 0
1  24 0 0 4.4
2  49 6 0 0 4.4
2  50 9 0 0 4.4
0

0101000
-99 2 +82 2 *
Wi

0101100
-81 1 -80 1 +133 1 +85 1 *
Ve
1.00000000444089e-07
-2.8 3.8 1.65
0 0

0101101
*
Ed
 1e-07 1 1 0
1  25 0 0 6.28318530717959
2  51 6 1 0 6.28318530717959
2  52 8 0 0 6.28318530717959
0

0101100
+78 0 -78 0 *
Wi

0101100
-77 0 *
Ve
1.00000000146958e-07
-1.46957615897682e-16 3.8 0.6
0 0

0101101
*
Ed
 1e-07 1 1 0
1  26 0 0 6.28318530717959
2  53 6 1 0 6.28318530717959
2  54 12 0 0 6.28318530717959
0

0101100
+75 0 -75 0 *
Wi

0101100
-74 0 *
Ve
1.00000000444089e-07
2.8 3.8 1.65
0 0

0101101
*
Ed
 1e-07 1 1 0
1  27 0 0 6.28318530717959
2  55 6 1 0 6.28318530717959
2  56 13 0 0 6.28318530717959
0

0101100
+72 0 -72 0 *
Wi

0101100
-71 0 *
Fa
0  1e-07 6 1

0101000
+79 0 +76 0 +73 0 +70 0 *
Ve
1e-07
5 -3.8 -2.2
0 0

0101101
*
Ed
 1e-07 1 1 0
1  28 0 0 7.6
2  57 7 0 0 7.6
2  58 9 0 0 7.6
0

0101000
-82 2 +68 2 *
Ve
1.00000000888178e-07
4.51583798768998 -3.8 -2.2
0 0

0101101
*
Ed
 1e-07 1 1 0
1  8 0 9.51583798768998 10
2  16 7 0 9.51583798768998 10
2  59 2 0 9.51583798768998 10
0

0101000
+66 2 -68 2 *
Ve
1.50000000444089e-07
4.51583798768998 -1.6 -2.2
0 0

0101101
*
Ed
 1e-07 1 1 0
1  29 0 0.3 2.5
2  60 7 1 0.3 2.5
2  61 10 0 0.3 2.5
0

0101000
+66 0 -64 0 *
Ve
1.50000000444089e-07
1.08416201231002 -1.6 -2.2
0 0

0101101
*
Ed
 1.5e-07 1 1 0
1  30 0 -5.61583798768998 -2.18416201231002
2  62 7 1 -5.61583798768998 -2.18416201231002
2  63 11 0 -5.61583798768998 -2.18416201231002
0

0101000
+64 0 -62 0 *
Ve
1.00000003140185e-07
1.08416201231002 -3.8 -2.2
0 0

0101101
*
Ed
 1e-07 1 1 0
1  31 0 0.3 2.5
2  64 7 1 0.3 2.5
2  65 10 0 0.3 2.5
0

0101000
+60 0 -62 0 *
Ve
1.00000001404333e-07
-1.08416201231002 -3.8 -2.2
0 0

0101101
*
Ed
 1e-07 1 1 0
1  8 0 3.91583798768998 6.08416201231002
2  16 7 0 3.91583798768998 6.08416201231002
2  59 2 0 3.91583798768998 6.08416201231002
0

0101000
+58 2 -60 2 *
Ed
 1e-07 1 1 0
1  32 0 0.3 2.5
2  66 7 1 0.3 2.5
2  67 3 0 0.3 2.5
0

0101000
+58 0 -115 0 *
Wi

0101100
+67 1 +65 1 -63 0 -61 0 +59 0 +57 1 -56 0 -114 0 +122 0 +128 1 
-132 1 -81 1 *
Fa
0  1e-07 7 1

0101000
+55 0 *
Ed
 1e-07 1 1 0
1  33 0 0.662380506349245 2.47921214724055
2  68 2 1 0.662380506349245 2.47921214724055
2  69 3 0 0.662380506349245 2.47921214724055
0

0101000
+88 0 -58 0 *
Wi

0101100
-113 0 +56 0 +53 0 -86 0 *
Fa
0  1e-07 3 0

0101000
+52 0 *
Ed
 1e-07 1 1 0
1  34 0 2.5 7.9
3  70 71CN 8 0 2.5 7.9
0

0101000
+111 0 -78 0 *
Wi

0101100
-50 0 -77 0 +50 0 +110 0 *
Fa
0  1e-07 8 0

0101000
+49 0 *
Ve
1.00000001110223e-07
5 -3.8 -1.71583798768998
0 0

0101101
*
Ed
 1e-07 1 1 0
1  35 0 0 0.484162012310019
2  72 2 0 0 0.484162012310019
2  73 9 0 0 0.484162012310019
0

0101000
+68 2 -47 2 *
Ve
1.5e-07
5 -1.6 -1.71583798768998
0 0

0101101
*
Ed
 1e-07 1 1 0
1  36 0 0.3 2.5
2  74 9 1 0.3 2.5
2  75 10 0 0.3 2.5
0

0101000
+47 0 -45 0 *
Ve
1.50000000222045e-07
5 -1.6 1.71583798768998
0 0

0101101
*
Ed
 1.5e-07 1 1 0
1  37 0 -0.61583798768998 2.81583798768998
2  76 9 1 -0.61583798768998 2.81583798768998
2  77 11 0 -0.61583798768998 2.81583798768998
0

0101000
+45 0 -43 0 *
Ve
1.00000001110223e-07
5 -3.8 1.71583798768998
0 0

0101101
*
Ed
 1e-07 1 1 0
1  38 0 0.3 2.5
2  78 9 1 0.3 2.5
2  79 10 0 0.3 2.5
0

0101000
+41 0 -43 0 *
Ed
 1e-07 1 1 0
1  35 0 3.91583798768998 4.4
2  72 2 0 3.91583798768998 4.4
2  73 9 0 3.91583798768998 4.4
0

0101000
+41 2 -98 2 *
Wi

0101100
-46 1 -44 0 -42 0 +40 0 -39 1 -97 1 +80 1 +67 1 *
Fa
0  1e-07 9 1

0101000
+38 0 *
Ed
 1e-07 1 1 0
1  39 0 0.662380506349245 0.908415820445652
2  80 2 1 0.662380506349245 0.908415820445652
2  81 10 0 0.662380506349245 0.908415820445652
0

0101000
+96 0 -41 0 *
Wi

0101100
-36 0 -39 1 +95 1 *
Fa
0  1e-07 2 1

0101000
+35 0 *
Ed
 1e-07 1 1 0
1  40 0 0.662380506349245 0.908415820445652
2  82 10 0 0.662380506349245 0.908415820445652
2  83 11 0 0.662380506349245 0.908415820445652
0

0101000
+94 0 -43 0 *
Wi

0101100
-33 0 +40 0 +36 0 -93 0 *
Fa
0  1e-07 10 0

0101000
+32 0 *
Ed
 1e-07 1 1 0
1  40 0 3.80397315993904 5.62080480083034
2  82 10 0 3.80397315993904 5.62080480083034
2  83 11 0 3.80397315993904 5.62080480083034
0

0101000
+62 0 -92 0 *
Ed
 1e-07 1 1 0
1  40 0 2.23317683314414 2.47921214724055
2  82 10 0 2.23317683314414 2.47921214724055
2  83 11 0 2.23317683314414 2.47921214724055
0

0101000
+45 0 -64 0 *
Wi

0101100
-91 0 +30 0 +61 0 +29 0 -42 0 +33 0 *
Ve
1.00000000444089e-07
2.8 -1.6 1.65
0 0

0101101
*
Ed
 1e-07 1 1 0
1  41 0 0 6.28318530717959
2  84 13 0 0 6.28318530717959
2  85 11 0 0 6.28318530717959
0

0101100
+27 0 -27 0 *
Wi

0101100
-26 0 *
Fa
0  1e-07 11 0

0101000
+28 0 +25 0 *
Ed
 1e-07 1 1 0
1  42 0 3.80397315993904 5.62080480083034
2  86 2 1 3.80397315993904 5.62080480083034
2  87 10 0 3.80397315993904 5.62080480083034
0

0101000
+60 0 -90 0 *
Wi

0101100
+89 0 +23 0 -59 0 -30 0 *
Fa
0  1e-07 10 0

0101000
+22 0 *
Wi

0101100
-57 1 -23 0 +87 1 -53 0 *
Fa
0  1e-07 2 1

0101000
+20 0 *
Ve
1e-07
-1.46957615897682e-16 3.15 0.6
0 0

0101101
*
Ed
 1e-07 1 1 0
1  43 0 0 0.65
3  88 89CN 12 0 0 0.65
0

0101000
+18 0 -75 0 *
Ed
 1e-07 1 1 0
1  44 0 0 6.28318530717959
2  90 12 0 0 6.28318530717959
2  91 14 0 0 6.28318530717959
0

0101000
+18 0 -18 0 *
Wi

0101100
-74 0 +17 0 +16 0 -17 0 *
Fa
0  1e-07 12 0

0101000
+15 0 *
Ed
 1e-07 1 1 0
1  45 0 2.5 7.9
3  92 93CN 13 0 2.5 7.9
0

0101000
+27 0 -72 0 *
Wi

0101100
-13 0 -71 0 +13 0 +26 0 *
Fa
0  1e-07 13 0

0101000
+12 0 *
Ed
 1e-07 1 1 0
1  39 0 2.23317683314414 2.47921214724055
2  80 2 1 2.23317683314414 2.47921214724055
2  81 10 0 2.23317683314414 2.47921214724055
0

0101000
+47 0 -66 0 *
Wi

0101100
-65 1 -46 1 -10 0 *
Fa
0  1e-07 2 1

0101000
+9 0 *
Wi

0101100
-29 0 +63 0 +10 0 -44 0 *
Fa
0  1e-07 10 0

0101000
+7 0 *
Wi

0101100
-16 0 *
Fa
0  1e-07 14 0

0101000
-5 0 *
Sh

0101100
-130 0 -125 0 -120 0 -108 0 -103 0 -100 0 +83 0 +69 0 -54 0 -51 0 
-48 0 +37 0 -34 0 -31 0 -24 0 -21 0 -19 0 -14 0 -11 0 -8 0 
-6 0 +4 0 *
So

0100000
+3 0 *
Co

0100000
+2 0 *

+1 0 