DBRep_DrawableShape

CASCADE Topology V3, (c) Open Cascade
Locations 5
1
              1               0               0               0 
              0               1               0               0 
              0               0               1            1603 
1
              1               0               0               0 
              0               1               0               0 
              0               0               1            1368 
2  1 1 2 -1 0
1
              1               0               0               0 
              0               1               0               0 
              0               0               1            1371 
2  4 1 2 -1 0
Curve2ds 26
1 0 238 1 0 
2 0 0 1 0 -0 1 45.549999999999997
2 0 0 1 0 -0 1 45.549999999999997
8 -5.9999999999999997e-07 238.00000059999999
1 4.7123889803846897 0 0 1 
8 -5.9999999999999997e-07 238.00000059999999
1 68.325000000000003 -0.20000000000000001 0 -1 
1 0 0 1 0 
2 0 0 1 0 -0 1 45.549999999999997
2 0 0 1 0 -0 1 45.549999999999997
8 -5.9999999999999997e-07 238.00000059999999
1 3.4033920413889422 0 0 1 
8 -5.9999999999999997e-07 238.00000059999999
1 45.549999999999997 -0.20000000000000001 0 -1 
8 -47.156830017679283 0
1 0 0 0.96592582628906831 0.25881904510252079 
8 -47.156830017679283 0
1 0 -238.19999999999999 -1 0 
2 0 0 1 0 -0 1 44.350000000000001
1 0 238.19999999999999 1 0 
8 -56.9375 -11.387500000000003
1 -1.0459249068967862e-14 -56.9375 -1.8369701987210297e-16 -1 
8 -56.9375 -11.387500000000003
1 56.9375 -238.19999999999999 -1 -0 
8 -56.9375 -11.387500000000003
1 -1.0459249068967862e-14 -56.9375 -1.8369701987210297e-16 -1 
8 -56.9375 -11.387500000000003
1 56.9375 -0.20000000000000001 -1 -0 
8 0.19999940000000002 238.20000059999998
1 4.7123889803846897 0 0 1 
8 0.19999940000000002 238.20000059999998
1 69.525000000000006 0 0 -1 
8 -47.156830017679283 0
1 0 0 0.96592582628906831 0.25881904510252079 
8 -47.156830017679283 0
1 0 -0.20000000000000001 -1 0 
2 0 0 1 0 -0 1 44.350000000000001
1 0 0.20000000000000001 1 0 
8 0.19999940000000002 238.20000059999998
1 3.4033920413889422 0 0 1 
8 0.19999940000000002 238.20000059999998
1 44.350000000000009 0 0 -1 
Curves 12
2 0 0 238 0 0 1 1 0 -0 -0 1 0 45.549999999999997
1 -8.3673992551742897e-15 -45.549999999999997 0 0 0 1 
2 0 0 0 0 0 1 1 0 -0 -0 1 0 45.549999999999997
1 -43.997921387467059 -11.789207504419821 0 0 0 1 
1 0 0 238 0.96592582628906831 0.25881904510252079 -0 
2 0 0 238 0 0 1 1 0 -0 -0 1 0 44.350000000000001
1 -1.0459249068967862e-14 -56.9375 238 -1.8369701987210297e-16 -1 0 
1 -1.0459249068967862e-14 -56.9375 0 -1.8369701987210297e-16 -1 0 
1 -8.1469628313277661e-15 -44.350000000000001 -0.20000000000000001 0 0 1 
1 0 0 0 0.96592582628906831 0.25881904510252079 -0 
2 0 0 0 0 0 1 1 0 -0 -0 1 0 44.350000000000001
1 -42.838810395920184 -11.478624650296798 -0.20000000000000001 0 0 1 
Polygon3D 0
PolygonOnTriangulations 0
Surfaces 8
2 0 0 0 0 0 1 1 0 -0 -0 1 0 45.549999999999997
1 0 0 238 0 0 1 1 0 -0 -0 1 0 
1 0 0 3 0 0 1 1 0 -0 -0 1 0 
1 -2.0918498137935724e-14 -113.875 -0.20000000000000001 -1 1.8369701987210297e-16 0 1.8369701987210297e-16 1 0 0 0 -1 
1 0 0 0 0 0 1 1 0 -0 -0 1 0 
1 0 0 -3 0 0 1 1 0 -0 -0 1 0 
1 0 0 -0.20000000000000001 0.25881904510252079 -0.96592582628906831 0 -0.96592582628906831 -0.25881904510252079 0 0 -0 -1 
2 0 0 -0.20000000000000001 0 0 1 1 0 -0 -0 1 0 44.350000000000001
Triangulations 0

TShapes 34
Ve
1.5e-07
-43.9979213874671 -11.7892075044198 238
0 0

0101101
*
Ve
1.5e-07
-8.36739925517429e-15 -45.55 238
0 0

0101101
*
Ed
 1e-07 1 1 0
1  1 0 3.40339204138894 4.71238898038469
2  1 1 0 3.40339204138894 4.71238898038469
2  2 2 0 3.40339204138894 4.71238898038469
2  3 3 3 3.40339204138894 4.71238898038469
0

0101000
+34 0 -33 0 *
Ve
1.5e-07
-8.36739925517429e-15 -45.55 0
0 0

0101101
*
Ed
 1e-07 1 1 0
1  2 0 0 238
2  4 1 0 0 238
2  5 4 0 0 238
0

0101000
+31 0 -33 0 *
Ve
1.5e-07
-43.9979213874671 -11.7892075044198 0
0 0

0101101
*
Ed
 1e-07 1 1 0
1  3 0 3.40339204138894 4.71238898038469
2  6 1 0 3.40339204138894 4.71238898038469
2  7 5 0 3.40339204138894 4.71238898038469
2  8 6 5 3.40339204138894 4.71238898038469
0

0101000
+29 0 -31 0 *
Ed
 1e-07 1 1 0
1  4 0 0 238
2  9 1 0 0 238
2  10 7 0 0 238
0

0101000
+29 0 -34 0 *
Wi

0101100
-32 0 +30 0 +28 0 -27 0 *
Fa
0  1e-07 1 0

0101000
+26 0 *
Ve
1.50000007324107e-07
-42.8388103959202 -11.4786246502968 238
0 0

0101101
*
Ed
 1.5e-07 1 1 0
1  5 0 -45.55 -44.35
2  11 2 0 -45.55 -44.35
2  12 7 0 -45.55 -44.35
0

0101000
+34 0 -24 0 *
Ve
1.5e-07
-8.14696283132777e-15 -44.35 238
0 0

0101101
*
Ed
 1e-07 1 1 0
1  6 0 3.40339204138894 4.71238898038469
2  13 2 0 3.40339204138894 4.71238898038469
2  14 8 0 3.40339204138894 4.71238898038469
0

0101000
+24 0 -22 0 *
Ed
 1.5e-07 1 1 0
1  7 0 -12.5875 -11.3875
2  15 2 0 -12.5875 -11.3875
2  16 4 0 -12.5875 -11.3875
0

0101000
+22 0 -33 0 *
Wi

0101100
-23 0 -21 0 -20 0 +32 0 *
Fa
0  1e-07 2 0

0101000
+19 0 *
Ve
1.5e-07
-8.14696283132777e-15 -44.35 0
0 0

0101101
*
Ed
 1.5e-07 1 1 0
1  8 0 -12.5875 -11.3875
2  17 5 0 -12.5875 -11.3875
2  18 4 0 -12.5875 -11.3875
0

0101000
+17 0 -31 0 *
Ed
 1e-07 1 1 0
1  9 0 0.2 238.2
2  19 8 0 0.2 238.2
2  20 4 0 0.2 238.2
0

0101000
+17 0 -22 0 *
Wi

0101100
+16 0 -15 0 -20 0 +30 0 *
Fa
0  1e-07 4 0

0101000
+14 0 *
Ve
1.50000007324107e-07
-42.8388103959202 -11.4786246502968 0
0 0

0101101
*
Ed
 1.5e-07 1 1 0
1  10 0 -45.55 -44.35
2  21 5 0 -45.55 -44.35
2  22 7 0 -45.55 -44.35
0

0101000
+29 0 -12 0 *
Ed
 1e-07 1 1 0
1  11 0 3.40339204138894 4.71238898038469
2  23 5 0 3.40339204138894 4.71238898038469
2  24 8 0 3.40339204138894 4.71238898038469
0

0101000
+12 0 -17 0 *
Wi

0101100
-11 0 -10 0 -16 0 +28 0 *
Fa
0  1e-07 5 0

0101000
+9 0 *
Ed
 1e-07 1 1 0
1  12 0 0.2 238.2
2  25 8 0 0.2 238.2
2  26 7 0 0.2 238.2
0

0101000
+12 0 -24 0 *
Wi

0101100
-27 0 -23 0 +7 0 +11 0 *
Fa
0  1e-07 7 0

0101000
+6 0 *
Wi

0101100
-21 0 +15 0 +10 0 -7 0 *
Fa
0  1e-07 8 0

0101000
+4 0 *
Sh

0101100
+25 0 +18 0 -13 0 -8 0 -5 0 -3 0 *
So

0100000
+2 0 *

+1 0 