DBRep_DrawableShape

CASCADE Topology V3, (c) Open Cascade
Locations 14
1
              1               0               0               0 
              0               1               0               0 
              0               0               1           741.4 
1
            0.5 -0.866025403784439               0               0 
0.866025403784439             0.5               0               0 
              0               0               1               0 
1
              1               0               0               0 
              0               1               0               0 
              0               0               1           741.4 
2  1 1 2 -1 3 -1 0
1
             -1 -1.22464679914735e-16               0               0 
1.22464679914735e-16              -1               0               0 
              0               0               1               0 
1
              1               0               0               0 
              0               1               0               0 
              0               0               1           741.4 
2  1 1 5 -1 6 -1 0
1
            0.5 0.866025403784439               0               0 
-0.866025403784439             0.5               0               0 
              0               0               1               0 
1
              1               0               0               0 
              0               1               0               0 
              0               0               1           741.4 
2  1 1 8 -1 9 -1 0
1
              1               0               0               0 
              0               1               0               0 
              0               0               1            1613 
2  11 1 2 -1 3 -1 0
2  11 1 5 -1 6 -1 0
2  11 1 8 -1 9 -1 0
Curve2ds 55
1 6.2831853071795862 -0 0 1 
1 0 -0 0 1 
1 1.0471975511965974 0.20000000000004547 0 1 
1 3.1415926535897927 0.20000000000004547 0 1 
1 5.2359877559829879 0.20000000000004547 0 1 
1 0 0 1 0 
2 0 0 1 0 -0 1 25.350000000000001
8 6.2220987833597849 6.2831853071795862
1 -5.2359877559829888 0.20000000000000001 1 0 
8 6.2220987833597849 6.2831853071795862
1 -3.1415926535897936 0.20000000000000001 1 0 
8 6.2220987833597849 6.2831853071795862
1 -1.0471975511965983 0.20000000000000001 1 0 
8 -5.9999999999999997e-07 867.60000060000004
1 6.2220987833597849 0 0 1 
8 -5.9999999999999997e-07 867.60000060000004
1 25.350000000000005 -0.20000000000000001 0 -1 
1 0.98611102737679612 0.20000000000004547 0 1 
1 3.0805061297699914 0.20000000000004547 0 1 
1 5.1749012321631866 0.20000000000004547 0 1 
1 0 867.60000000000002 1 0 
2 0 0 1 0 -0 1 25.350000000000001
8 6.2220987833597849 6.2831853071795862
1 -5.2359877559829888 867.80000000000007 1 0 
8 6.2220987833597849 6.2831853071795862
1 -3.1415926535897936 867.80000000000007 1 0 
8 6.2220987833597849 6.2831853071795862
1 -1.0471975511965983 867.80000000000007 1 0 
8 0 0.061086523819801536
1 1.0471975511965974 867.80000000000007 1 0 
8 0 0.061086523819801536
1 3.1415926535897931 867.80000000000007 1 0 
8 0 0.061086523819801536
1 5.2359877559829879 867.80000000000007 1 0 
8 -5.9999999999999997e-07 867.60000060000004
1 0.061086523819801536 0 0 1 
8 -5.9999999999999997e-07 867.60000060000004
1 38.024999999999999 -0.20000000000000001 0 -1 
1 1.1082840750163991 0.20000000000004547 0 1 
1 3.2026791774095944 0.20000000000004547 0 1 
1 5.2970742798027901 0.20000000000004547 0 1 
8 0 0.061086523819801536
1 1.0471975511965974 0.20000000000000001 1 0 
8 0 0.061086523819801536
1 3.1415926535897931 0.20000000000000001 1 0 
8 0 0.061086523819801536
1 5.2359877559829879 0.20000000000000001 1 0 
8 -25.397371216874149 -0
1 0 0 -0.99813479842186703 0.06104853953485688 
8 -25.397371216874149 -0
1 0 -0.20000000000000004 -1 -0 
2 0 0 1 0 -0 1 23
1 0 0.20000000000000001 1 0 
8 -31.687499999999996 -6.2901287831258523
1 31.628396424992907 1.9344755965107772 0.99813479842186703 0.06104853953485688 
8 -31.687499999999996 -6.2901287831258523
1 31.687499999999996 -0.20000000000000004 -1 0 
8 -25.397371216874149 -0
1 0 0 -0.99813479842186703 0.06104853953485688 
8 -25.397371216874149 -0
1 0 -867.80000000000018 -1 -0 
8 0.19999940000000002 867.80000060000009
1 6.2220987833597849 0 0 1 
8 0.19999940000000002 867.80000060000009
1 23.000000000000004 0 0 -1 
2 0 0 1 0 -0 1 23
1 0 867.80000000000007 1 0 
2 0 0 0.50000000000000011 0.8660254037844386 -0.8660254037844386 0.50000000000000011 23
2 0 0 -1 1.2246467991473532e-16 -1.2246467991473532e-16 -1 23
2 0 0 0.50000000000000011 -0.8660254037844386 0.8660254037844386 0.50000000000000011 23
2 0 0 0.50000000000000011 0.8660254037844386 -0.8660254037844386 0.50000000000000011 23
2 0 0 -1 1.2246467991473532e-16 -1.2246467991473532e-16 -1 23
2 0 0 0.50000000000000011 -0.8660254037844386 0.8660254037844386 0.50000000000000011 23
8 -31.687499999999996 -6.2901287831258523
1 31.628396424992907 1.9344755965107772 0.99813479842186703 0.06104853953485688 
8 -31.687499999999996 -6.2901287831258523
1 31.687499999999996 -867.80000000000018 -1 0 
8 0.19999940000000002 867.80000060000009
1 0.061086523819801536 0 0 1 
8 0.19999940000000002 867.80000060000009
1 40.375 0 0 -1 
1 6.2831853071795862 -0 0 1 
1 0 -0 0 1 
Curves 14
1 25.350000000000001 -6.2089592716770812e-15 0 0 0 1 
2 0 0 0 0 0 1 1 0 -0 -0 1 0 25.350000000000001
1 25.302717139994332 -1.5475804772086219 0 0 0 1 
2 0 0 867.60000000000002 0 0 1 1 0 -0 -0 1 0 25.350000000000001
1 25.302717139994332 1.5475804772086219 0 0 0 1 
1 0 0 2.7755575615628914e-17 -0.99813479842186703 0.06104853953485688 0 
2 0 0 0 0 0 1 1 0 -0 -0 1 0 23
1 31.628396424992907 1.9344755965107772 2.7755575615628914e-17 0.99813479842186703 0.06104853953485688 -0 
1 0 0 867.60000000000014 -0.99813479842186703 0.06104853953485688 0 
1 22.957100363702942 -1.4041164093017082 -0.20000000000000001 0 0 1 
2 0 0 867.60000000000002 0 0 1 1 0 -0 -0 1 0 23
1 31.628396424992907 1.9344755965107772 867.60000000000014 0.99813479842186703 0.06104853953485688 -0 
1 22.957100363702942 1.4041164093017082 -0.20000000000000001 0 0 1 
1 23 -5.6333752760778247e-15 -0.20000000000000001 0 0 1 
Polygon3D 0
PolygonOnTriangulations 0
Surfaces 8
2 0 0 0 0 0 1 1 0 -0 -0 1 0 25.350000000000001
2 0 0 -0.20000000000000001 0 0 1 1 0 -0 -0 1 0 25.350000000000001
1 0 0 0 0 0 1 1 0 -0 -0 1 0 
1 0 0 -0.20000000000000001 0.06104853953485688 0.99813479842186703 -0 0.99813479842186703 -0.06104853953485688 0 0 -0 -1 
1 0 0 867.60000000000002 0 0 1 1 0 -0 -0 1 0 
1 63.256792849985814 3.8689511930215543 -0.20000000000000001 0.06104853953485688 -0.99813479842186703 0 -0.99813479842186703 -0.06104853953485688 0 0 -0 -1 
2 0 0 -0.20000000000000001 0 0 1 1 0 -0 -0 1 0 23
1 0 0 -4 0 0 1 1 0 -0 -0 1 0 
Triangulations 0

TShapes 49
Ve
1.00000025536694e-07
25.35 -6.20895927167708e-15 867.6
0 0

0101101
*
Ve
1.00000025536694e-07
25.35 -6.20895927167708e-15 0
0 0

0101101
*
Ed
 1.00000017495086e-07 1 1 0
1  1 0 0 867.6
3  1 2CN 1 0 0 867.6
2  3 2 4 0 867.6
2  4 2 7 0 867.6
2  5 2 10 0 867.6
0

0101000
-49 0 +48 0 *
Ve
1.50000003559754e-07
25.3027171399943 -1.54758047720862 0
0 0

0101101
*
Ed
 1.00000019131949e-07 1 1 0
1  2 0 6.22209878335978 6.28318530717959
2  6 1 0 6.22209878335978 6.28318530717959
2  7 3 0 6.22209878335978 6.28318530717959
2  8 2 4 6.22209878335978 6.28318530717959
2  9 2 7 6.22209878335978 6.28318530717959
2  10 2 10 6.22209878335978 6.28318530717959
0

0101000
+46 0 -48 0 *
Ve
1.50000113742552e-07
25.3027171399943 -1.54758047720862 867.6
0 0

0101101
*
Ed
 1.00000019131949e-07 1 1 0
1  3 0 0 867.6
2  11 1 0 0 867.6
2  12 4 0 0 867.6
2  13 2 4 0 867.6
2  14 2 7 0 867.6
2  15 2 10 0 867.6
0

0101000
+46 0 -44 0 *
Ed
 1.00000019131949e-07 1 1 0
1  4 0 6.22209878335978 6.28318530717959
2  16 1 0 6.22209878335978 6.28318530717959
2  17 5 0 6.22209878335978 6.28318530717959
2  18 2 4 6.22209878335978 6.28318530717959
2  19 2 7 6.22209878335978 6.28318530717959
2  20 2 10 6.22209878335978 6.28318530717959
0

0101000
+44 0 -49 0 *
Wi

0101100
+47 0 +45 0 -43 0 -42 0 *
Fa
0  1e-07 1 0

0101000
+41 0 *
Ve
1.50000113687055e-07
25.3027171399943 1.54758047720862 867.6
0 0

0101101
*
Ed
 1.00000012932073e-07 1 1 0
1  4 0 0 0.0610865238198015
2  16 1 0 0 0.0610865238198015
2  17 5 0 0 0.0610865238198015
2  21 2 4 0 0.0610865238198015
2  22 2 7 0 0.0610865238198015
2  23 2 10 0 0.0610865238198015
0

0101000
+49 0 -39 0 *
Ve
1.50000000223773e-07
25.3027171399943 1.54758047720862 0
0 0

0101101
*
Ed
 1.00000009565974e-07 1 1 0
1  5 0 0 867.6
2  24 1 0 0 867.6
2  25 6 0 0 867.6
2  26 2 4 0 867.6
2  27 2 7 0 867.6
2  28 2 10 0 867.6
0

0101000
+37 0 -39 0 *
Ed
 1.00000012932073e-07 1 1 0
1  2 0 0 0.0610865238198015
2  6 1 0 0 0.0610865238198015
2  7 3 0 0 0.0610865238198015
2  29 2 4 0 0.0610865238198015
2  30 2 7 0 0.0610865238198015
2  31 2 10 0 0.0610865238198015
0

0101000
+48 0 -37 0 *
Wi

0101100
-38 0 +36 0 +35 0 -47 0 *
Fa
0  1e-07 1 0

0101000
+34 0 *
Ve
1.50000003559754e-07
22.9571003637029 -1.40411640930171 0
0 0

0101101
*
Ed
 1.5e-07 1 1 0
1  6 0 -25.35 -23
2  32 3 0 -25.35 -23
2  33 4 0 -25.35 -23
0

0101000
+46 0 -32 0 *
Ve
1.00000005633375e-07
23 -5.63337527607782e-15 0
0 0

0101101
*
Ed
 1e-07 1 1 0
1  7 0 6.22209878335978 6.28318530717959
2  34 3 0 6.22209878335978 6.28318530717959
2  35 7 0 6.22209878335978 6.28318530717959
0

0101000
+32 0 -30 0 *
Ve
1.50000003559754e-07
22.9571003637029 1.40411640930171 0
0 0

0101101
*
Ed
 1e-07 1 1 0
1  7 0 0 0.0610865238198015
2  34 3 0 0 0.0610865238198015
2  35 7 0 0 0.0610865238198015
0

0101000
+30 0 -28 0 *
Ed
 1.5e-07 1 1 0
1  8 0 -8.6875 -6.3375
2  36 3 0 -8.6875 -6.3375
2  37 6 0 -8.6875 -6.3375
0

0101000
+28 0 -37 0 *
Wi

0101100
+45 0 -31 0 -29 0 -27 0 -26 0 +35 0 *
Fa
0  1e-07 3 0

0101000
+25 0 *
Ve
1.50000113742552e-07
22.9571003637029 -1.40411640930171 867.6
0 0

0101101
*
Ed
 1.5e-07 1 1 0
1  9 0 -25.35 -23
2  38 5 0 -25.35 -23
2  39 4 0 -25.35 -23
0

0101000
+44 0 -23 0 *
Ed
 1e-07 1 1 0
1  10 0 0.2 867.8
2  40 7 0 0.2 867.8
2  41 4 0 0.2 867.8
0

0101000
+32 0 -23 0 *
Wi

0101100
-43 0 -22 0 +21 0 +31 0 *
Fa
0  1e-07 4 0

0101000
+20 0 *
Ve
1.00000005633375e-07
23 -5.63337527607782e-15 867.6
0 0

0101101
*
Ed
 1e-07 1 1 0
1  11 0 6.22209878335978 6.28318530717959
2  42 5 0 6.22209878335978 6.28318530717959
2  43 7 0 6.22209878335978 6.28318530717959
2  44 8 12 6.22209878335978 6.28318530717959
2  45 8 13 6.22209878335978 6.28318530717959
2  46 8 14 6.22209878335978 6.28318530717959
0

0101000
+23 0 -18 0 *
Ve
1.50000113742552e-07
22.9571003637029 1.40411640930171 867.6
0 0

0101101
*
Ed
 1e-07 1 1 0
1  11 0 0 0.0610865238198015
2  42 5 0 0 0.0610865238198015
2  43 7 0 0 0.0610865238198015
2  47 8 12 0 0.0610865238198015
2  48 8 13 0 0.0610865238198015
2  49 8 14 0 0.0610865238198015
0

0101000
+18 0 -16 0 *
Ed
 1.5e-07 1 1 0
1  12 0 -8.6875 -6.3375
2  50 5 0 -8.6875 -6.3375
2  51 6 0 -8.6875 -6.3375
0

0101000
+16 0 -39 0 *
Wi

0101100
+42 0 -22 0 -17 0 -15 0 -14 0 +38 0 *
Fa
0  1e-07 5 0

0101000
+13 0 *
Ed
 1e-07 1 1 0
1  13 0 0.2 867.8
2  52 7 0 0.2 867.8
2  53 6 0 0.2 867.8
0

0101000
+28 0 -16 0 *
Wi

0101100
+26 0 -11 0 -14 0 +36 0 *
Fa
0  1e-07 6 0

0101000
+10 0 *
Ed
 1e-07 1 1 0
1  14 0 0.2 867.8
3  54 55CN 7 0 0.2 867.8
0

0101000
+30 0 -18 0 *
Wi

0101100
+8 0 +29 0 -21 0 -17 0 *
Fa
0  1e-07 7 0

0101000
+7 0 *
Wi

0101100
-15 0 +11 0 +27 0 -8 0 *
Fa
0  1e-07 7 0

0101000
+5 0 *
Sh

0101100
+40 0 +33 0 -24 0 -19 0 +12 0 -9 0 -6 0 -4 0 *
So

0100000
+3 0 *
Co

0100000
+2 0 *

+1 0 