DBRep_DrawableShape

CASCADE Topology V3, (c) Open Cascade
Locations 21
1
              1              -0               0              -0 
              0               1               0               0 
             -0               0               1              -0 
2  1 -1 0
1
              1              -0               0              -0 
              0               1               0               0 
             -0               0               1              -0 
1
              1               0               0               0 
              0               1               0               0 
              0               0               1        1210.306 
1
              1               0               0               0 
              0               1               0               0 
              0               0               1               0 
1
              1               0               0               0 
              0               1               0               0 
              0               0               1          -480.6 
1
              1               0               0               0 
              0               1               0               0 
              0               0               1          -480.6 
1
              1               0               0               0 
              0               1               0               0 
              0               0               1            1218 
2  3 1 4 1 5 1 6 1 7 -1 8 -1 1 -1 0
1
              1              -0               0              -0 
              0               1               0               0 
             -0               0               1              -0 
2  10 -1 0
1
              1               0               0               0 
              0               1               0               0 
              0               0               1        1210.306 
1
           -0.5 0.866025403784438               0               0 
-0.866025403784438            -0.5               0               0 
              0               0               1               0 
1
              1               0               0               0 
              0               1               0               0 
              0               0               1          -480.6 
2  3 1 12 1 13 1 14 1 7 -1 8 -1 10 -1 0
1
              1              -0               0              -0 
              0               1               0               0 
             -0               0               1              -0 
2  16 -1 0
1
              1               0               0               0 
              0               1               0               0 
              0               0               1        1210.306 
1
           -0.5 -0.866025403784439               0               0 
0.866025403784439            -0.5               0               0 
              0               0               1               0 
1
              1               0               0               0 
              0               1               0               0 
              0               0               1          -480.6 
2  3 1 18 1 19 1 20 1 7 -1 8 -1 16 -1 0
Curve2ds 102
1 0 8 1 0 
2 0 0 1 0 -0 1 25.300000000000001
1 6.2831853071795862 -0 0 1 
1 0 -0 0 1 
1 0 0 1 0 
2 0 0 1 0 -0 1 25.300000000000001
2 0 0 1 0 -0 1 25.300000000000001
2 0 0 1 0 -0 1 19.5
1 0 8.1999999999999993 1 0 
2 0 0 1 0 -0 1 19.5
1 0 0.20000000000000018 1 0 
2 0 0 1 0 -0 1 19.5
1 0 3 1 0 
1 0 0 0 1 
1 19.300000000000001 1.5 1 0 
1 0.80000000000000071 4.25 1 0 
1 0 0 0 1 
1 0 0 0 -1 
1 19.300000000000001 -1.5 0 1 
1 0.80000000000000071 1.25 0 1 
1 0 0 1 0 
1 0 0 0 1 
1 19.300000000000001 -1.5 1 0 
1 0.80000000000000071 1.25 1 0 
2 0 0 1 0 -0 1 19.5
1 0 0 0 1 
1 -1.3322676295501878e-15 3 1 0 
1 -8.3509618943233512 -17.464290293039664 -0.50000000000000044 -0.86602540378443849 
1 0.80000000000000426 4.2499999999999991 1 0 
1 0 0 0 -1 
1 0 0 0 1 
1 -10.949038105676667 -15.964290293039664 0.86602540378443849 -0.50000000000000044 
1 0.80000000000000426 1.25 0 1 
1 0 0 0 1 
1 0 0 1 0 
1 -10.949038105676667 -15.964290293039664 -0.50000000000000044 -0.86602540378443849 
1 0.80000000000000426 1.25 1 0 
2 0 0 1 0 -0 1 19.5
1 0 0 0 1 
1 -6.6613381477509392e-16 3 1 0 
1 -10.949038105676655 15.964290293039667 -0.49999999999999983 0.86602540378443882 
1 0.79999999999999716 4.25 1 -5.5511151231257827e-17 
1 0 0 0 -1 
1 0 0 0 1 
1 -8.3509618943233388 17.464290293039667 -0.86602540378443882 -0.49999999999999983 
1 0.79999999999999716 1.2500000000000009 5.5511151231257827e-17 1 
1 0 0 0 1 
1 0 0 1 0 
1 -8.3509618943233388 17.464290293039667 -0.49999999999999983 0.86602540378443882 
1 0.79999999999999716 1.2500000000000009 1 -5.5511151231257827e-17 
8 0.19999940000000027 2.4000000000000004
1 6.2061861665227624 0 0 1 
8 0.19999940000000027 2.4000000000000004
1 -0.20000000000000018 0.14222209522358042 1 0 
8 0.19999940000000027 2.4000000000000004
1 4.2657893454432134 0 0 1 
8 0.19999940000000027 2.4000000000000004
1 -0.20000000000000018 0.1422220952235799 1 0 
1 0 2.2000000000000002 1 0 
2 -19.300000000000004 1.5 -0.50000000000000044 0.86602540378443849 -0.86602540378443849 -0.50000000000000044 19.5
8 0.19999940000000027 2.4000000000000004
1 4.1117910641295667 0 0 1 
8 0.19999940000000027 2.4000000000000004
1 -0.20000000000000018 0.14222209522357901 1 0 
8 0.19999940000000027 2.4000000000000004
1 2.171394243050019 0 0 1 
8 0.19999940000000027 2.4000000000000004
1 -0.20000000000000018 0.14222209522358298 1 0 
1 0 2.2000000000000002 1 0 
2 -19.300000000000001 1.4999999999999982 -0.49999999999999983 -0.86602540378443882 0.86602540378443882 -0.49999999999999983 19.5
8 0.19999940000000027 2.4000000000000004
1 2.0173959617363719 0 0 1 
8 0.19999940000000027 2.4000000000000004
1 -0.20000000000000018 0.14222209522358298 1 0 
8 0.19999940000000027 2.4000000000000004
1 0.076999140656823575 0 0 1 
8 0.19999940000000027 2.4000000000000004
1 -0.20000000000000018 0.14222209522358042 1 0 
1 0 2.2000000000000002 1 0 
2 -19.300000000000001 1.5 1 0 -0 1 19.5
1 6.2831853071795862 -0 0 1 
1 0 -0 0 1 
1 0 2.2000000000000002 1 0 
2 -19.300000000000001 1.5 1 0 -0 1 19.5
1 2 0 0 1 
1 0 0 1 0 
1 0 0 1 0 
1 0 0 1 0 
1 2 0 0 1 
1 -1.3322676295501878e-15 3 1 0 
1 0 -3 1 0 
1 0 0 1 0 
1 2 0 0 1 
1 0 0 1 0 
1 2 0 0 -1 
1 0 0 0 1 
1 0 0 1 0 
1 0 0 1 0 
1 2 0 0 1 
1 -6.6613381477509392e-16 3 1 0 
1 0 -3 1 0 
1 0 0 1 0 
1 2 0 0 1 
1 0 0 1 0 
1 2 0 0 -1 
1 0 0 0 1 
1 0 0 1 0 
1 0 0 1 0 
1 2 0 0 1 
1 0 3 1 0 
1 0 -3 1 0 
1 0 0 1 0 
1 2 0 0 -1 
1 0 0 0 1 
Curves 40
2 0 0 4 0 0 1 1 0 -0 -0 1 0 25.300000000000001
1 25.300000000000001 -6.196712803685607e-15 -4 0 0 1 
2 0 0 -4 0 0 1 1 0 -0 -0 1 0 25.300000000000001
2 0 0 3.9999999999999991 0 0 1 1 0 -0 -0 1 0 19.5
2 0 0 -4 0 0 1 1 0 -0 -0 1 0 19.5
1 19.300000000000001 1.5 -4 1 0 0 
1 19.300000000000001 -1.5 -4 0 1 0 
1 19.300000000000001 -1.5 -4 1 0 0 
1 -8.3509618943233512 -17.464290293039664 -4 -0.50000000000000044 -0.86602540378443849 0 
1 -10.949038105676667 -15.964290293039664 -4 0.86602540378443849 -0.50000000000000044 0 
1 -10.949038105676667 -15.964290293039664 -4 -0.50000000000000044 -0.86602540378443849 0 
1 -10.949038105676655 15.964290293039667 -4 -0.49999999999999983 0.86602540378443882 0 
1 -8.3509618943233388 17.464290293039667 -4 -0.86602540378443882 -0.49999999999999983 0 
1 -8.3509618943233388 17.464290293039667 -4 -0.49999999999999983 0.86602540378443882 0 
1 19.442222095223581 -1.5 -4.2000000000000002 0 0 1 
1 -8.4220729419351432 -17.587458240482732 -4.2000000000000002 0 0 1 
2 0 0 -2 0 0 1 1 0 -0 -0 1 0 19.5
1 -11.020149153288457 -16.087458240482732 -4.2000000000000002 0 0 1 
1 -11.020149153288447 16.087458240482739 -4.2000000000000002 0 0 1 
2 0 0 -2 0 0 1 1 0 -0 -0 1 0 19.5
1 -8.4220729419351308 17.587458240482739 -4.2000000000000002 0 0 1 
1 19.442222095223581 1.5 -4.2000000000000002 0 0 1 
2 0 0 -2 0 0 1 1 0 -0 -0 1 0 19.5
1 19.5 -4.7761225166746779e-15 -4.2000000000000002 0 0 1 
2 0 0 -2 0 0 1 1 0 -0 -0 1 0 19.5
1 19.300000000000001 -1.5 -2 1 0 0 
1 19.300000000000001 -1.5 -4 0 0 1 
1 -8.3509618943233512 -17.464290293039664 -2 -0.50000000000000044 -0.86602540378443849 0 
1 -8.3509618943233512 -17.464290293039664 -4 0 0 1 
1 -10.949038105676667 -15.964290293039664 -2 -0.50000000000000044 -0.86602540378443849 0 
1 -10.949038105676667 -15.964290293039664 -2 0.86602540378443849 -0.50000000000000044 0 
1 -10.949038105676667 -15.964290293039664 -4 0 0 1 
1 -10.949038105676655 15.964290293039667 -2 -0.49999999999999983 0.86602540378443882 0 
1 -10.949038105676655 15.964290293039667 -4 0 0 1 
1 -8.3509618943233388 17.464290293039667 -2 -0.49999999999999983 0.86602540378443882 0 
1 -8.3509618943233388 17.464290293039667 -2 -0.86602540378443882 -0.49999999999999983 0 
1 -8.3509618943233388 17.464290293039667 -4 0 0 1 
1 19.300000000000001 1.5 -2 1 0 0 
1 19.300000000000001 1.5 -4 0 0 1 
1 19.300000000000001 -1.5 -2 0 1 0 
Polygon3D 0
PolygonOnTriangulations 0
Surfaces 21
2 0 0 -4 0 0 1 1 0 -0 -0 1 0 25.300000000000001
1 0 0 4 0 0 1 1 0 -0 -0 1 0 
1 0 0 -4 0 0 1 1 0 -0 -0 1 0 
1 0 0 -4 0 0 1 1 0 -0 -0 1 0 
2 0 0 -4.2000000000000002 0 0 1 1 0 -0 -0 1 0 19.5
1 19.300000000000001 -1.5 -4 0 0 1 1 0 0 0 1 0 
1 19.300000000000001 1.5 -4 0 1 0 0 0 1 1 0 0 
1 18.5 -2.75 3.69399999999996 0 0 1 1 0 0 0 1 0 
1 19.300000000000001 -1.5 -4 1 0 0 0 0 1 0 -1 0 
1 19.300000000000001 -1.5 -4 0 1 0 0 0 1 1 0 0 
1 -8.3509618943233512 -17.464290293039664 -4 0.86602540378443849 -0.50000000000000044 0 0 0 1 -0.50000000000000044 -0.86602540378443849 0 
1 -10.949038105676667 -15.964290293039664 -4 0 0 1 -0.50000000000000044 -0.86602540378443849 0 0.86602540378443849 -0.50000000000000044 0 
1 -10.949038105676667 -15.964290293039664 -4 -0.50000000000000044 -0.86602540378443849 0 0 0 1 -0.86602540378443849 0.50000000000000044 0 
1 -10.949038105676667 -15.964290293039664 -4 0.86602540378443849 -0.50000000000000044 0 0 0 1 -0.50000000000000044 -0.86602540378443849 0 
1 -10.949038105676655 15.964290293039667 -4 -0.86602540378443882 -0.49999999999999983 0 0 0 1 -0.49999999999999983 0.86602540378443882 0 
1 -8.3509618943233388 17.464290293039667 -4 0 0 1 -0.49999999999999983 0.86602540378443882 0 -0.86602540378443882 -0.49999999999999983 0 
1 -8.3509618943233388 17.464290293039667 -4 -0.49999999999999983 0.86602540378443882 0 0 0 1 0.86602540378443882 0.49999999999999983 0 
1 -8.3509618943233388 17.464290293039667 -4 -0.86602540378443882 -0.49999999999999983 0 0 0 1 -0.49999999999999983 0.86602540378443882 0 
1 -10.949038105676667 -15.964290293039664 -2 0 0 1 -0.50000000000000044 -0.86602540378443849 0 0.86602540378443849 -0.50000000000000044 0 
1 -8.3509618943233388 17.464290293039667 -2 0 0 1 -0.49999999999999983 0.86602540378443882 0 -0.86602540378443882 -0.49999999999999983 0 
1 19.300000000000001 -1.5 -2 0 0 1 1 0 0 0 1 0 
Triangulations 0

TShapes 106
Ve
1e-07
25.3 -6.19671280368561e-15 4
0 0

0101101
*
Ed
 1e-07 1 1 0
1  1 0 0 6.28318530717959
2  1 1 0 0 6.28318530717959
2  2 2 0 0 6.28318530717959
0

0101000
+106 0 -106 0 *
Ve
1e-07
25.3 -6.19671280368561e-15 -4
0 0

0101101
*
Ed
 1e-07 1 1 0
1  2 0 0 8
3  3 4CN 1 0 0 8
0

0101000
-106 0 +104 0 *
Ed
 1e-07 1 1 0
1  3 0 0 6.28318530717959
2  5 1 0 0 6.28318530717959
2  6 3 0 0 6.28318530717959
2  7 4 0 0 6.28318530717959
0

0101000
+104 0 -104 0 *
Wi

0101100
-105 0 +103 0 +102 0 -103 0 *
Fa
0  1e-07 1 0

0101000
+101 0 *
Wi

0101100
+105 0 *
Ve
1.00000004776123e-07
19.5 -4.77612251667468e-15 4
0 0

0101101
*
Ed
 1e-07 1 1 0
1  4 0 0 6.28318530717959
2  8 2 0 0 6.28318530717959
2  9 5 0 0 6.28318530717959
0

0101100
+98 0 -98 0 *
Wi

0101100
-97 0 *
Fa
0  1e-07 2 0

0101000
+99 0 +96 0 *
Wi

0101100
+102 0 *
Ve
1.00000152487587e-07
19.4422220952236 1.49999999999985 -4
0 0

0101101
*
Ve
1.00000207157026e-07
-8.42207294193532 17.5874582404827 -4
0 0

0101101
*
Ed
 1e-07 1 1 0
1  5 0 0.0769991406568158 2.01739596173638
2  10 3 0 0.0769991406568158 2.01739596173638
2  11 5 0 0.0769991406568158 2.01739596173638
2  12 4 0 0.0769991406568158 2.01739596173638
0

0101000
+93 0 -92 0 *
Ve
1e-07
19.3 1.5 -4
0 0

0101101
*
Ed
 1e-07 1 1 0
1  6 0 0 0.142222095223602
2  13 6 0 0 0.142222095223602
2  14 7 0 0 0.142222095223602
2  15 4 2 0 0.142222095223602
2  16 8 9 0 0.142222095223602
0

0101000
+90 2 -93 2 *
Ve
1e-07
19.3 -1.5 -4
0 0

0101101
*
Ed
 1e-07 1 1 0
1  7 0 0 3
2  17 6 0 0 3
2  18 9 0 0 3
2  19 4 2 0 3
2  20 8 9 0 3
0

0101000
-90 2 +88 2 *
Ve
1.00000152487587e-07
19.4422220952236 -1.49999999999985 -4
0 0

0101101
*
Ed
 1e-07 1 1 0
1  8 0 0 0.142222095223602
2  21 6 0 0 0.142222095223602
2  22 10 0 0 0.142222095223602
2  23 4 2 0 0.142222095223602
2  24 8 9 0 0.142222095223602
0

0101000
+88 2 -86 2 *
Ve
1.0000021375412e-07
-8.42207294193534 -17.5874582404827 -4
0 0

0101101
*
Ed
 1e-07 1 1 0
1  5 0 4.2657893454432 6.20618616652277
2  10 3 0 4.2657893454432 6.20618616652277
2  11 5 0 4.2657893454432 6.20618616652277
2  25 4 0 4.2657893454432 6.20618616652277
0

0101000
+84 0 -86 0 *
Ve
1e-07
-8.35096189432335 -17.4642902930397 -4
0 0

0101101
*
Ed
 1e-07 1 1 0
1  9 0 0 0.142222095223612
2  26 11 0 0 0.142222095223612
2  27 12 0 0 0.142222095223612
2  28 4 11 0 0.142222095223612
2  29 8 15 0 0.142222095223612
0

0101000
+82 11 -84 11 *
Ve
1e-07
-10.9490381056767 -15.9642902930397 -4
0 0

0101101
*
Ed
 1e-07 1 1 0
1  10 0 0 3
2  30 13 0 0 3
2  31 12 0 0 3
2  32 4 11 0 3
2  33 8 15 0 3
0

0101000
-82 11 +80 11 *
Ve
1.00000151480646e-07
-11.0201491532886 -16.0874582404826 -4
0 0

0101101
*
Ed
 1e-07 1 1 0
1  11 0 0 0.142222095223555
2  34 14 0 0 0.142222095223555
2  35 12 0 0 0.142222095223555
2  36 4 11 0 0.142222095223555
2  37 8 15 0 0.142222095223555
0

0101000
+80 11 -78 11 *
Ve
1.00000148748011e-07
-11.0201491532886 16.0874582404826 -4
0 0

0101101
*
Ed
 1e-07 1 1 0
1  5 0 2.17139424305003 4.11179106412956
2  10 3 0 2.17139424305003 4.11179106412956
2  11 5 0 2.17139424305003 4.11179106412956
2  38 4 0 2.17139424305003 4.11179106412956
0

0101000
+76 0 -78 0 *
Ve
1e-07
-10.9490381056767 15.9642902930397 -4
0 0

0101101
*
Ed
 1e-07 1 1 0
1  12 0 0 0.142222095223557
2  39 15 0 0 0.142222095223557
2  40 16 0 0 0.142222095223557
2  41 4 17 0 0.142222095223557
2  42 8 21 0 0.142222095223557
0

0101000
+74 17 -76 17 *
Ve
1e-07
-8.35096189432334 17.4642902930397 -4
0 0

0101101
*
Ed
 1e-07 1 1 0
1  13 0 0 3
2  43 17 0 0 3
2  44 16 0 0 3
2  45 4 17 0 3
2  46 8 21 0 3
0

0101000
-74 17 +72 17 *
Ed
 1e-07 1 1 0
1  14 0 0 0.142222095223611
2  47 18 0 0 0.142222095223611
2  48 16 0 0 0.142222095223611
2  49 4 17 0 0.142222095223611
2  50 8 21 0 0.142222095223611
0

0101000
+72 17 -92 17 *
Wi

0101100
-91 0 -89 1 -87 1 +85 1 -83 0 -81 10 -79 10 +77 10 -75 0 -73 16 
-71 16 +70 16 *
Fa
0  0 4 0

0101000
+94 0 +69 0 *
Ve
1.0000000865974e-07
19.4422220952236 -1.5 -2
0 0

0101101
*
Ed
 1e-07 1 1 0
1  15 0 0.2 2.2
2  51 5 0 0.2 2.2
2  52 10 1 0.2 2.2
0

0101000
+86 0 -67 0 *
Ve
1.00000012809491e-07
-8.42207294193514 -17.5874582404827 -2
0 0

0101101
*
Ed
 1e-07 1 1 0
1  16 0 0.2 2.2
2  53 5 0 0.2 2.2
2  54 11 10 0.2 2.2
0

0101000
+84 0 -65 0 *
Ve
1.00000003972055e-07
-11.0201491532885 -16.0874582404827 -2
0 0

0101101
*
Ed
 1e-07 1 1 0
1  17 0 4.11179106412957 4.26578934544321
2  55 5 0 4.11179106412957 4.26578934544321
2  56 19 10 4.11179106412957 4.26578934544321
0

0101000
+63 0 -65 0 *
Ed
 1e-07 1 1 0
1  18 0 0.2 2.2
2  57 5 0 0.2 2.2
2  58 14 10 0.2 2.2
0

0101000
+78 0 -63 0 *
Ve
1.00000003552714e-07
-11.0201491532884 16.0874582404827 -2
0 0

0101101
*
Ed
 1e-07 1 1 0
1  19 0 0.2 2.2
2  59 5 0 0.2 2.2
2  60 15 16 0.2 2.2
0

0101000
+76 0 -60 0 *
Ve
1.00000003972055e-07
-8.42207294193513 17.5874582404827 -2
0 0

0101101
*
Ed
 1e-07 1 1 0
1  20 0 2.01739596173637 2.17139424305002
2  61 5 0 2.01739596173637 2.17139424305002
2  62 20 16 2.01739596173637 2.17139424305002
0

0101000
+58 0 -60 0 *
Ed
 1e-07 1 1 0
1  21 0 0.2 2.2
2  63 5 0 0.2 2.2
2  64 18 16 0.2 2.2
0

0101000
+92 0 -58 0 *
Ve
1e-07
19.4422220952236 1.5 -2
0 0

0101101
*
Ed
 1e-07 1 1 0
1  22 0 0.2 2.2
2  65 5 0 0.2 2.2
2  66 7 1 0.2 2.2
0

0101000
+93 0 -55 0 *
Ve
1.00000004776123e-07
19.5 -4.77612251667468e-15 -2
0 0

0101101
*
Ed
 1e-07 1 1 0
1  23 0 0 0.0769991406568236
2  67 5 0 0 0.0769991406568236
2  68 21 1 0 0.0769991406568236
0

0101000
+53 0 -55 0 *
Ed
 1e-07 1 1 0
1  24 0 2.2 8.2
3  69 70CN 5 0 2.2 8.2
0

0101000
+53 0 -98 0 *
Ed
 1e-07 1 1 0
1  25 0 6.20618616652276 6.28318530717959
2  71 5 0 6.20618616652276 6.28318530717959
2  72 21 1 6.20618616652276 6.28318530717959
0

0101000
+67 0 -53 0 *
Wi

0101100
+66 0 +83 0 -64 0 +62 0 +61 0 +75 0 -59 0 +57 0 +56 0 +91 0 
-54 0 +52 0 -51 0 -97 0 +51 0 +50 0 *
Fa
0  1e-07 5 0

0101000
+49 0 *
Ve
1e-07
19.3 -1.5 -2
0 0

0101101
*
Ed
 1e-07 1 1 0
1  26 0 0 0.14222209522358
2  73 10 0 0 0.14222209522358
2  74 21 0 0 0.14222209522358
0

0101000
+47 2 -67 2 *
Ed
 1e-07 1 1 0
1  27 0 0 2
2  75 9 0 0 2
2  76 10 0 0 2
0

0101000
-47 2 +88 2 *
Wi

0101100
-85 1 -66 0 +46 1 +45 1 *
Fa
0  1e-07 10 1

0101000
+44 0 *
Ve
1e-07
-8.35096189432335 -17.4642902930397 -2
0 0

0101101
*
Ed
 1e-07 1 1 0
1  28 0 0 0.142222095223579
2  77 11 0 0 0.142222095223579
2  78 19 0 0 0.142222095223579
0

0101000
+42 11 -65 11 *
Ed
 1e-07 1 1 0
1  29 0 0 2
2  79 13 0 0 2
2  80 11 0 0 2
0

0101000
-42 11 +82 11 *
Wi

0101100
-81 10 -64 0 +41 10 +40 10 *
Fa
0  1e-07 11 10

0101000
+39 0 *
Ve
1e-07
-10.9490381056767 -15.9642902930397 -2
0 0

0101101
*
Ed
 1e-07 1 1 0
1  30 0 0 0.142222095223578
2  81 14 0 0 0.142222095223578
2  82 19 0 0 0.142222095223578
0

0101000
+37 11 -63 11 *
Ed
 1e-07 1 1 0
1  31 0 0 3
2  83 13 0 0 3
2  84 19 0 0 3
0

0101000
-42 11 +37 11 *
Wi

0101100
-41 10 +62 0 +36 10 -35 10 *
Fa
0  1e-07 19 10

0101000
+34 0 *
Ed
 1e-07 1 1 0
1  32 0 0 2
2  85 13 0 0 2
2  86 14 0 0 2
0

0101000
-37 11 +80 11 *
Wi

0101100
-77 10 -61 0 +36 10 +32 10 *
Fa
0  1e-07 14 10

0101000
+31 0 *
Ve
1e-07
-10.9490381056767 15.9642902930397 -2
0 0

0101101
*
Ed
 1e-07 1 1 0
1  33 0 0 0.142222095223582
2  87 15 0 0 0.142222095223582
2  88 20 0 0 0.142222095223582
0

0101000
+29 17 -60 17 *
Ed
 1e-07 1 1 0
1  34 0 0 2
2  89 17 0 0 2
2  90 15 0 0 2
0

0101000
-29 17 +74 17 *
Wi

0101100
-73 16 -59 0 +28 16 +27 16 *
Fa
0  1e-07 15 16

0101000
+26 0 *
Ve
1e-07
-8.35096189432334 17.4642902930397 -2
0 0

0101101
*
Ed
 1e-07 1 1 0
1  35 0 0 0.142222095223579
2  91 18 0 0 0.142222095223579
2  92 20 0 0 0.142222095223579
0

0101000
+24 17 -58 17 *
Ed
 1e-07 1 1 0
1  36 0 0 3
2  93 17 0 0 3
2  94 20 0 0 3
0

0101000
-29 17 +24 17 *
Wi

0101100
-28 16 +57 0 +23 16 -22 16 *
Fa
0  1e-07 20 16

0101000
+21 0 *
Ed
 1e-07 1 1 0
1  37 0 0 2
2  95 17 0 0 2
2  96 18 0 0 2
0

0101000
-24 17 +72 17 *
Wi

0101100
-70 16 -56 0 +23 16 +19 16 *
Fa
0  1e-07 18 16

0101000
+18 0 *
Ve
1e-07
19.3 1.5 -2
0 0

0101101
*
Ed
 1e-07 1 1 0
1  38 0 0 0.14222209522358
2  97 7 0 0 0.14222209522358
2  98 21 0 0 0.14222209522358
0

0101000
+16 2 -55 2 *
Ed
 1e-07 1 1 0
1  39 0 0 2
2  99 9 0 0 2
2  100 7 0 0 2
0

0101000
-16 2 +90 2 *
Wi

0101100
-89 1 -54 0 +15 1 +14 1 *
Fa
0  1e-07 7 1

0101000
+13 0 *
Ed
 1e-07 1 1 0
1  40 0 0 3
2  101 9 0 0 3
2  102 21 0 0 3
0

0101000
-16 2 +47 2 *
Wi

0101100
-15 1 +52 0 +50 0 +46 1 -11 1 *
Fa
0  1e-07 21 1

0101000
+10 0 *
Wi

0101100
-45 0 -11 0 +14 0 +87 0 *
Fa
0  1e-07 9 0

0101000
+8 0 *
Wi

0101100
-32 0 -35 0 +40 0 +79 0 *
Fa
0  1e-07 13 0

0101000
+6 0 *
Wi

0101100
-19 0 -22 0 +27 0 +71 0 *
Fa
0  1e-07 17 0

0101000
+4 0 *
Sh

0101100
+100 0 +95 0 -68 0 -48 0 -43 0 +38 0 +33 0 -30 0 +25 0 +20 0 
-17 0 +12 0 +9 0 -7 1 -5 10 -3 16 *
So

0100000
+2 0 *

+1 0 