DBRep_DrawableShape

CASCADE Topology V3, (c) Open Cascade
Locations 0
Curve2ds 5
8 0 10.11774874217601
1 6.2831853071795862 0 0 1 
1 0 0 0 1 
1 0 0 1 0 
1 0 10.11774874217601 1 0 
7 1 1  6 6 2  -0.049992078826172182 1.0992119641173304e-06  1.6690784610682365 -0.049993905503591285 -0.083076054546507017  1.0367296232096121 0.052733241719194746 -0.095006778669143976  1.0383466998475064 0.13746376717893766 -3.0225151959051288e-06  0.85353433019614966 0.052737419633610838 0.095004459609485004  1.0383466998475068 -0.049990252148752745 0.083078252970434363  1.0367296232096115
 0 6 6.2831853071795862 6
Curves 3
7 1 0  9 17 3  0.59999999999999987 4.163336342344337e-17 0.050000000000000044  1.6690784610682365 0.59999999999988396 0.3141636755984587 0.25444262856632727  1.6690784610682265 0.41491949801548661 0.62831323721655996 0.45887214617111005  1.6690784610682856 0.045130597557642635 0.81758003392075163 0.66338346786003655  1.6690784610681317 -0.41345728932914827 0.75982115987357468 0.86770994266453094  1.6690784610683664 -0.75974530978214061 0.4133531472849673 1.072266823243019  1.6690784610681306 -0.81760391932688037 -0.045057090193268173 1.2766536370124488  1.6690784610682916 -0.62831709914344303 -0.41494557131974008 1.4811101660513664  1.6690784610682241 5.1060060458408586e-07 -0.78505475717912365 1.8899994503083946  1.6690784610682399 0.6283176389119326 -0.4149447540103644 2.2988887345618436  1.6690784610682421 0.81760397764762316 -0.045056026531856086 2.50334526359946  1.6690784610682141 0.75974477303116839 0.41335413526370229 2.7077320773734743  1.6690784610682541 0.41345629960040714 0.75982169806393174 2.9122889579549924  1.6690784610682408 -0.04513166013574909 0.81757997499144874 3.1166154327448763  1.6690784610682208 -0.41492031553878067 0.62831269755090247 3.3211267544514333  1.6690784610682454 -0.60000040875130356 0.31416289511199602 3.5255562720441782  1.6690784610682352 -0.59999999998175113 -7.8048443295786186e-07 3.729998900613865  1.6690784610682365
 0 10 5.0588743710880051 7 10.11774874217601 10
7 1 1  6 6 2  0.59999999999999987 4.163336342344337e-17 0.050000000000000044  1.6690784610682365 0.59999999999999909 1.3877787807814457e-16 0.13307715377855289  1.0367296232096121 0.49727259047259315 3.0531133177191805e-16 0.14500561916227994  1.0383466998475064 0.41254415394957689 -1.3877787807814457e-17 0.050000000000000266  0.85353433019614966 0.49727259047259292 2.3592239273284576e-16 -0.045005619162280519  1.0383466998475068 0.59999999999999931 -8.3266726846886741e-17 -0.033077153778552804  1.0367296232096115
 0 6 6.2831853071795862 6
7 1 1  6 6 2  -0.59999999998175113 -7.8048443295786186e-07 3.729998900613865  1.6690784610682365 -0.60000182665917023 -7.8049858483197898e-07 3.8130760543723361  1.0367296232096121 -0.49727467944889964 8.2304228984919625e-07 3.8250067784949731  1.0383466998475064 -0.41254415399947925 2.1456430103899971e-06 3.730003022341025  0.85353433019614966 -0.49727050153448354 8.2307465688880033e-07 3.6349955402163441  1.0383466998475068 -0.59999817330433169 -7.8047028213845682e-07 3.6469217468553947  1.0367296232096115
 0 6 6.2831853071795862 6
Polygon3D 0
PolygonOnTriangulations 0
Surfaces 3
9 1 1 1 0 6 9 6 17 2 3 0.59999999999999998 4.163336342344337e-17 0.050000000000000044  1.6690784610682365 0.59999999999988385 0.3141636755984587 0.25444262856632727  1.6690784610682265 0.41491949801548667 0.62831323721655996 0.45887214617111005  1.6690784610682856 0.045130597557642635 0.81758003392075163 0.66338346786003655  1.6690784610681317 -0.41345728932914827 0.75982115987357468 0.86770994266453094  1.6690784610683664 -0.75974530978214061 0.4133531472849673 1.072266823243019  1.6690784610681306 -0.81760391932688037 -0.045057090193268173 1.2766536370124486  1.6690784610682916 -0.62831709914344303 -0.41494557131974008 1.4811101660513666  1.6690784610682241 5.1060060458408586e-07 -0.78505475717912365 1.8899994503083946  1.6690784610682399 0.62831763891193249 -0.41494475401036435 2.2988887345618436  1.6690784610682421 0.81760397764762316 -0.045056026531856086 2.50334526359946  1.6690784610682141 0.75974477303116839 0.41335413526370224 2.7077320773734748  1.6690784610682541 0.41345629960040708 0.75982169806393163 2.912288957954992  1.6690784610682408 -0.045131660135749097 0.81757997499144874 3.1166154327448767  1.6690784610682208 -0.41492031553878067 0.62831269755090247 3.3211267544514333  1.6690784610682454 -0.60000040875130356 0.31416289511199602 3.5255562720441782  1.6690784610682352 -0.59999999998175102 -7.8048443295786196e-07 3.7299989006138654  1.6690784610682365 
0.59999999999999909 1.3877787807814457e-16 0.13307715377855289  1.0367296232096121 0.60000301715923365 0.31416415387826668 0.33751978234486635  1.0367296232096026 0.41494675320853974 0.62831597083128299 0.54194929982333462  1.0367296232096523 0.045046041040070151 0.81757379995205592 0.7464606219507961  1.0367296232095311 -0.41334485322168402 0.75983617572843398 0.95078709603631795  1.0367296232097065 -0.75982343517163065 0.41334105275074784 1.1553439772735936  1.0367296232095422 -0.81758200132097025 -0.045051689475882034 1.3597307907281366  1.0367296232096426 -0.62831829240249226 -0.41494679425597958 1.5641873198163354  1.0367296232096093 6.2208079973315091e-07 -0.78505595221127289 1.9730766040832259  1.036729623209605 0.62831835853523377 -0.41494479436285558 2.3819658883412451  1.0367296232096292 0.81762838492142531 -0.045061564461239323 2.5864224177711366  1.0367296232095466 0.7596689603390373 0.41336748841034854 2.7908092297544345  1.0367296232097145 0.41356999488380342 0.75980899511556343 2.9953661137850638  1.0367296232095125 -0.045216354343194334 0.81758869847728266 3.1996925849838842  1.0367296232096801 -0.41489432345662364 0.62831187647825215 3.4042039086952807  1.03672962320958 -0.59999921827411939 0.31416337342474288 3.6086334258689665  1.036729623209621 -0.60000182665917023 -7.8049858483197898e-07 3.8130760543723361  1.0367296232096121 
0.49727259047259315 3.0531133177191805e-16 0.14500561916227994  1.0383466998475064 0.49727604084455779 0.26036721565293564 0.34945197853725718  1.0383466998475011 0.34391764832371086 0.52075946566351805 0.55391216391100073  1.0383466998475319 0.037291584100549814 0.67756924689279041 0.7582860835754448  1.0383466998474558 -0.34251496063600856 0.62976696919811148 0.96285493187368743  1.0383466998475568 -0.62977418021647358 0.34255947123627828 1.1671808077452801  1.0383466998474802 -0.67758913696493717 -0.037333425234396228 1.3716860261557355  1.0383466998475124 -0.52074362208820202 -0.34390214423741383 1.5761177268689357  1.0383466998475077 -4.1096610801634546e-07 -0.65064529077206301 1.9850061988342791  1.0383466998474993 0.5207425112345756 -0.34390165374687609 2.3938946707974735  1.0383466998475195 0.67764205226565577 -0.037347056167676557 2.5983263719050793  1.0383466998474624 0.62959870527190376 0.34258753090192995 2.8028315886186452  1.0383466998475614 0.34277460436790413 0.62973470289626765 3.0071574676874802  1.0383466998474693 -0.037484015812522177 0.6775864141281368 3.2117263127048066  1.0383466998475179 -0.34385589352743212 0.52075596968731075 3.4161002341510072  1.0383466998475068 -0.49727079801522539 0.26036803875100017 3.6205604191984291  1.0383466998475064 -0.49727467944889964 8.2304228984919625e-07 3.8250067784949731  1.0383466998475064 
0.41254415394957689 -1.3877787807814457e-17 0.050000000000000266  0.85353433019614966 0.41254415394945326 0.21599548962481929 0.25444943650488172  0.853534330196144 0.2852992282359435 0.43204459437108078 0.45893491658058316  0.85353433019617653 0.031002504436235076 0.56210290006550423 0.66319550765239321  0.8535343301960906 -0.28423714028804509 0.52246836935536189 0.86796426444087582  0.85353433019622471 -0.52241239143538454 0.28419486539552485 1.0720996087981001  0.85353433019608871 -0.56215222424174927 -0.030974301605096038 1.2767024867103416  0.85353433019618075 -0.43201571232510777 -0.2853037556275414 1.4811137091908986  0.853534330196142 -1.4037007779730583e-06 -0.53978334871036071 1.8900015111664488  0.85353433019615232 0.43201422843844006 -0.28530600250654825 2.2988893131520083  0.85353433019615188 0.56215206391374528 -0.030977225736100289 2.503300535637758  0.85353433019613856 0.52241386701881665 0.28419214933019332 2.7079034135290856  0.85353433019616032 0.2842398611778103 0.52246688980266698 2.9120387578959122  0.85353433019614988 -0.030999583290625909 0.56210306207094929 3.1168075147022831  0.85353433019614167 -0.28529698076725224 0.4320460779757257 3.3210681057427696  0.8535343301961561 -0.41254303024449424 0.21599763527301005 3.5255535858436318  0.85353433019614811 -0.41254415399947925 2.1456430103899971e-06 3.730003022341025  0.85353433019614966 
0.49727259047259292 2.3592239273284576e-16 -0.045005619162280519  1.0383466998475068 0.49726914010039047 0.26036612174765011 0.15944074021268873  1.0383466998474944 0.34385531117389001 0.52075321343291281 0.36390092587549927  1.0383466998475595 0.037484978889331839 0.67758350501393361 0.56827484453661081  1.0383466998473951 -0.34277212067374174 0.62973262544581543 0.77284369447967838  1.0383466998476507 -0.62959549448504615 0.34258713344338843 0.97716956884416306  1.0383466998473829 -0.67763926708190081 -0.037345777571414163 1.181674787975016  1.0383466998475763 -0.52074089290674419 -0.34389934717926474 1.3861064885754311  1.038346699847488 -6.6593980446510645e-07 -0.65064255753521993 1.7949949605182463  1.038346699847517 0.52074086533663511 -0.34390156145402462 2.2038834324709455  1.0383466998475055 0.67758622877988206 -0.037334390004084755 2.4083151326814911  1.0383466998474977 0.62977210148067264 0.34255699003935702 2.6128203534903802  1.0383466998475162 0.34251456438579297 0.62976375664753548 2.8171462246710472  1.0383466998475088 -0.037290306104085534 0.67756646206815752 3.0217150779011996  1.0383466998474951 -0.34391534173304983 0.52075784761676469 3.2260889947623701  1.0383466998475166 -0.49727352083410853 0.26036694477036437 3.4305491807680815  1.0383466998475046 -0.49727050153448354 8.2307465688880033e-07 3.6349955402163441  1.0383466998475068 
0.59999999999999931 -8.3266726846886741e-17 -0.033077153778552804  1.0367296232096115 0.59999698284052916 0.31416319731865894 0.17136547478775599  1.0367296232096008 0.41489224282245479 0.62831050360179563 0.3757949925189854  1.0367296232096557 0.045215154075154793 0.81758626788953936 0.58030631376911335  1.0367296232095227 -0.41356972543650705 0.75980614401860369 0.7846327892929108  1.0367296232097167 -0.75966718439275638 0.41336524181926559 0.98918966921233353  1.0367296232095315 -0.81762583733273142 -0.045062490910690811 1.1935764832968063  1.0367296232096463 -0.62831590588440522 -0.41494434838348926 1.3980330122863891  1.036729623209609 3.9912042143648834e-07 -0.78505356214699129 1.8069222965335781  1.0367296232096022 0.62831691928860423 -0.41494471365786612 2.2158115807824155  1.0367296232096324 0.81757957037392315 -0.045050488602451977 2.4202681094279015  1.0367296232095338 0.75982058572314148 0.41334078211693415 2.6246549249922611  1.0367296232097323 0.41334260431710196 0.75983440101250344 2.8292118021252572  1.0367296232094949 -0.045046965928294054 0.81757125150545351 3.0335382805055673  1.0367296232096901 -0.41494630762097218 0.62831351862361684 3.238049600207761  1.0367296232095737 -0.60000159922847518 0.31416241679923873 3.4424791182193344  1.0367296232096221 -0.59999817330433169 -7.8047028213845682e-07 3.6469217468553947  1.0367296232096115 

0 6
6.2831853071795862 6

0 10
5.0588743710880051 7
10.11774874217601 10

1 -0.55000792116166963 -1.2363390969201722e-10 3.7299999998258291 -1.5609688920450962e-05 0.99999999987816879 -1.7288038652300227e-10 0.99999999987816879 1.5609688920450962e-05 0 2.6986090540713885e-15 -1.7288038650194005e-10 -1 
1 0.55000792116174313 9.4835177426215297e-17 0.049999999999999781 -9.3097118609904674e-16 -1 9.0453300309673026e-16 -1 9.3097118609904674e-16 0 -8.4209416275869571e-31 -9.0453300309673026e-16 -1 
Triangulations 0

TShapes 13
Ve
1.05391419041909e-05
0.6 4.16333634234434e-17 0.05
0 0

0101101
*
Ve
1.05391419041909e-05
-0.599999999981751 -7.80484432957862e-07 3.72999890061386
0 0

0101101
*
Ed
 1e-07 1 1 0
1  1 0 0 10.117748742176
3  1 2G1 1 0 0 10.117748742176
0

0101000
+13 0 -12 0 *
Ed
 1e-07 1 1 0
1  2 0 0 6.28318530717959
2  3 1 0 0 6.28318530717959
0

0101000
+13 0 -13 0 *
Ed
 1e-07 1 1 0
1  3 0 0 6.28318530717959
2  4 1 0 0 6.28318530717959
2  5 2 0 0 6.28318530717959
0

0101000
+12 0 -12 0 *
Wi

0101100
+11 0 +10 0 -11 0 -9 0 *
Fa
0  1e-07 1 0

0101000
+8 0 *
Wi

0101100
+10 0 *
Fa
0  1e-07 3 0

0101000
+6 0 *
Wi

0101100
+9 0 *
Fa
0  1e-07 2 0

0101000
+4 0 *
Sh

0101100
+7 0 -5 0 +3 0 *
So

0100100
-2 0 *

+1 0 