DBRep_DrawableShape

CASCADE Topology V3, (c) Open Cascade
Locations 21
1
              1              -0               0              -0 
              0               1               0               0 
             -0               0               1              -0 
1
              1              -0               0              -0 
              0               1               0               0 
             -0               0               1              -0 
2  2 -1 0
2  1 -1 0
1
              1              -0               0              -0 
              0               1               0               0 
             -0               0               1              -0 
2  5 -1 0
1
              1               0               0               0 
              0               1               0               0 
              0               0               1             467 
1
              1               0               0               0 
              0               1               0               0 
              0               0               1            -125 
1
              1               0               0               0 
              0               1               0               0 
              0               0               1            -125 
1
              1               0               0               0 
              0               1               0               0 
              0               0               1             469 
2  7 1 8 1 9 -1 10 -1 0
1
              1               0               0               0 
              0               1               0               0 
              0               0               1             340 
1
              1               0               0               0 
              0               1               0               0 
              0               0               1            -340 
1
              1               0               0               0 
              0               1               0               0 
              0               0               1             340 
2  12 1 13 1 14 1 9 -1 10 -1 0
1
              1               0               0               0 
              0               1               0               0 
              0               0               1             469 
1
              1               0               0               0 
              0               1               0               0 
              0               0               1            -125 
2  16 1 17 1 9 -1 10 -1 2 -1 0
2  16 1 17 1 9 -1 10 -1 1 -1 0
2  16 1 17 1 9 -1 10 -1 5 -1 0
2  16 1 17 1 9 -1 10 -1 0
Curve2ds 141
1 6.2831853071795862 -0 0 1 
1 0 -0 0 1 
1 0 0 1 0 
2 0 0 1 0 -0 1 4.5
8 -5.999999999062311e-07 2.0000005999999999
1 5.4600808482843597 0 0 1 
8 -5.999999999062311e-07 2.0000005999999999
1 0 0.13748219369606218 1 0 
1 0 2 1 0 
2 0 0 1 0 -0 1 4.5
8 -5.999999999062311e-07 2.0000005999999999
1 0.82310445889522688 0 0 1 
8 -5.999999999062311e-07 2.0000005999999999
1 0 0.13748219369606218 1 0 
1 0 0 0 -1 
1 0 0 0 1 
1 2.9910254037844384 3.1806079660838633 -0.8660254037844386 0.50000000000000011 
1 2.9910254037844384 3.1806079660838633 -0.8660254037844386 0.50000000000000011 
1 0 0 0 1 
1 0 0 1 0 
1 2.9910254037844384 3.1806079660838633 0.50000000000000011 0.8660254037844386 
1 2.9910254037844384 3.1806079660838633 0.50000000000000011 0.8660254037844386 
1 0 0 0 1 
1 -2.2204460492503131e-16 2 1 0 
1 2.9910254037844384 -3.1806079660838633 0.50000000000000011 -0.8660254037844386 
1 2.9910254037844384 -3.1806079660838633 0.50000000000000011 -0.8660254037844386 
1 0 0 0 -1 
1 0 0 0 1 
1 1.2589745962155614 -4.1806079660838638 0.8660254037844386 0.50000000000000011 
1 1.2589745962155614 -4.1806079660838638 0.8660254037844386 0.50000000000000011 
1 0 0 0 1 
1 0 0 1 0 
1 1.2589745962155614 -4.1806079660838638 0.50000000000000011 -0.8660254037844386 
1 1.2589745962155614 -4.1806079660838638 0.50000000000000011 -0.8660254037844386 
1 0 0 0 1 
1 -2.4492935982947064e-16 2 1 0 
1 -4.2499999999999991 -0.99999999999999944 -1 1.2246467991473532e-16 
1 -4.2499999999999991 -0.99999999999999944 -1 1.2246467991473532e-16 
1 0 0 0 -1 
1 0 0 0 1 
1 -4.2499999999999991 1.0000000000000004 -1.2246467991473532e-16 -1 
1 -4.2499999999999991 1.0000000000000004 -1.2246467991473532e-16 -1 
1 0 0 0 1 
1 0 0 1 0 
1 -4.2499999999999991 1.0000000000000004 -1 1.2246467991473532e-16 
1 -4.2499999999999991 1.0000000000000004 -1 1.2246467991473532e-16 
1 0 0 0 1 
1 2.2204460492503131e-16 2 1 0 
1 1.2589745962155614 4.1806079660838638 0.50000000000000011 0.8660254037844386 
1 1.2589745962155614 4.1806079660838638 0.50000000000000011 0.8660254037844386 
2 0 0 1 0 -0 1 2.1499999999999999
1 0 0.20000000000000018 1 0 
2 0 0 1 0 -0 1 2.1499999999999999
8 -5.999999999062311e-07 2.0000005999999999
1 0 15.224342094150446 1 0 
8 -5.999999999062311e-07 2.0000005999999999
1 5.2872923112471888 0 0 1 
1 5.2872923112471888 6.1999999999999886 0 1 
1 2 0 0 1 
1 -2.2204460492503131e-16 2 1 0 
1 2.9910254037844384 -3.1806079660838633 0.50000000000000011 -0.8660254037844386 
1 2 0 0 -1 
1 0 0 0 1 
1 2.9910254037844384 3.1806079660838633 -0.8660254037844386 0.50000000000000011 
1 2.9910254037844384 3.1806079660838633 -0.8660254037844386 0.50000000000000011 
1 2.9910254037844384 3.1806079660838633 -0.8660254037844386 0.50000000000000011 
1 2 0 0 1 
1 0 0 1 0 
1 2.9910254037844384 3.1806079660838633 0.50000000000000011 0.8660254037844386 
1 2.9910254037844384 3.1806079660838633 0.50000000000000011 0.8660254037844386 
1 2.9910254037844384 -3.1806079660838633 0.50000000000000011 -0.8660254037844386 
1 2 0 0 -1 
1 0 0 0 1 
1 1.2589745962155614 -4.1806079660838638 0.8660254037844386 0.50000000000000011 
1 1.2589745962155614 -4.1806079660838638 0.8660254037844386 0.50000000000000011 
1 1.2589745962155614 -4.1806079660838638 0.8660254037844386 0.50000000000000011 
1 2 0 0 1 
1 0 0 1 0 
1 1.2589745962155614 -4.1806079660838638 0.50000000000000011 -0.8660254037844386 
1 1.2589745962155614 -4.1806079660838638 0.50000000000000011 -0.8660254037844386 
1 2 0 0 1 
1 -2.4492935982947064e-16 2 1 0 
1 -4.2499999999999991 -0.99999999999999944 -1 1.2246467991473532e-16 
1 -4.2499999999999991 -0.99999999999999944 -1 1.2246467991473532e-16 
1 2 0 0 -1 
1 0 0 0 1 
1 -4.2499999999999991 1.0000000000000004 -1.2246467991473532e-16 -1 
1 -4.2499999999999991 1.0000000000000004 -1.2246467991473532e-16 -1 
1 -4.2499999999999991 1.0000000000000004 -1.2246467991473532e-16 -1 
1 2 0 0 1 
1 0 0 1 0 
1 -4.2499999999999991 1.0000000000000004 -1 1.2246467991473532e-16 
1 -4.2499999999999991 1.0000000000000004 -1 1.2246467991473532e-16 
1 2 0 0 1 
1 2.2204460492503131e-16 2 1 0 
1 1.2589745962155614 4.1806079660838638 0.50000000000000011 0.8660254037844386 
1 1.2589745962155614 4.1806079660838638 0.50000000000000011 0.8660254037844386 
2 0 0 1 0 -0 1 2.1499999999999999
1 0 2.2000000000000002 1 0 
2 0 0 1 0 -0 1 2.1499999999999999
8 -5.999999999062311e-07 2.0000005999999999
1 0 15.224342094150446 1 0 
8 -5.999999999062311e-07 2.0000005999999999
1 0.99589299593239777 0 0 1 
1 0.99589299593239777 6.1999999999999886 0 1 
2 -4.2499999999999991 0.99999999999999978 0.50000000000000011 -0.8660254037844386 0.8660254037844386 0.50000000000000011 4.5
2 -4.25 1.0000000000000002 0.50000000000000011 0.8660254037844386 -0.8660254037844386 0.50000000000000011 4.5
8 -5.999999999062311e-07 2.0000005999999999
1 5.011894663681618 0 0 1 
8 -5.999999999062311e-07 2.0000005999999999
1 0 0.13748219369606168 1 0 
8 -5.999999999062311e-07 2.0000005999999999
1 3.3656857458911635 0 0 1 
8 -5.999999999062311e-07 2.0000005999999999
1 0 0.13748219369606218 1 0 
2 -4.2499999999999991 0.99999999999999989 -1 -1.2246467991473532e-16 1.2246467991473532e-16 -1 4.5
8 -5.999999999062311e-07 2.0000005999999999
1 2.9174995612884222 0 0 1 
8 -5.999999999062311e-07 2.0000005999999999
1 0 0.13748219369606218 1 0 
8 -5.999999999062311e-07 2.0000005999999999
1 1.2712906434979685 0 0 1 
8 -5.999999999062311e-07 2.0000005999999999
1 0 0.13748219369606168 1 0 
1 6.2831853071795862 -0 0 1 
1 0 -0 0 1 
1 0 0 1 0 
2 0 0 1 0 -0 1 19.5
2 -4.25 1.0000000000000002 0.50000000000000011 0.8660254037844386 -0.8660254037844386 0.50000000000000011 19.5
1 0 6.1999999999999886 1 0 
1 0 2 1 0 
2 0 0 1 0 -0 1 19.5
2 -4.25 1.0000000000000002 0.50000000000000011 0.8660254037844386 -0.8660254037844386 0.50000000000000011 19.5
8 5.1846832007187746 5.2872923112471542
1 0 8.1999999999999993 1 0 
8 -5.999999999062311e-07 2.0000005999999999
1 0 15.224342094150446 1 0 
8 -5.999999999062311e-07 2.0000005999999999
1 5.1846832007187889 0 0 1 
1 5.1846832007187889 6.1999999999999886 0 1 
2 -4.25 1.0000000000000002 0.50000000000000011 0.8660254037844386 -0.8660254037844386 0.50000000000000011 4.5
2 -4.2499999999999991 0.99999999999999978 0.50000000000000011 -0.8660254037844386 0.8660254037844386 0.50000000000000011 4.5
2 -4.2499999999999991 0.99999999999999989 -1 -1.2246467991473532e-16 1.2246467991473532e-16 -1 4.5
2 -4.2499999999999991 0.99999999999999978 0.50000000000000011 -0.8660254037844386 0.8660254037844386 0.50000000000000011 19.5
1 0 6.1999999999999886 1 0 
2 -4.2499999999999991 0.99999999999999978 0.50000000000000011 -0.8660254037844386 0.8660254037844386 0.50000000000000011 19.5
8 0.99589299593243374 1.0985021064608127
1 0 8.1999999999999993 1 0 
8 -5.999999999062311e-07 2.0000005999999999
1 0 15.224342094150446 1 0 
8 -5.999999999062311e-07 2.0000005999999999
1 1.0985021064607974 0 0 1 
1 1.0985021064607974 6.1999999999999886 0 1 
8 -5.999999999062311e-07 2.0000005999999999
1 0 15.224342094150447 1 0 
8 -5.999999999062311e-07 2.0000005999999999
1 3.1928972088539926 0 0 1 
1 3.1928972088539926 6.1999999999999886 0 1 
2 -4.2499999999999991 0.99999999999999989 -1 -1.2246467991473532e-16 1.2246467991473532e-16 -1 19.5
1 0 6.1999999999999886 1 0 
8 -5.999999999062311e-07 2.0000005999999999
1 0 15.224342094150447 1 0 
8 -5.999999999062311e-07 2.0000005999999999
1 3.0902880983255931 0 0 1 
1 3.0902880983255931 6.1999999999999886 0 1 
2 -4.2499999999999991 0.99999999999999989 -1 -1.2246467991473532e-16 1.2246467991473532e-16 -1 19.5
8 3.0902880983256087 3.1928972088539762
1 0 8.1999999999999993 1 0 
Curves 38
1 4.5 -1.1021821192326179e-15 -2 0 0 1 
2 0 0 -2 0 0 1 1 0 -0 -0 1 0 4.5
1 3.0597665006324695 -3.299671038392666 -2 0 0 1 
2 0 0 0 0 0 1 1 0 -0 -0 1 0 4.5
1 3.0597665006324695 3.299671038392666 -2 0 0 1 
1 2.9910254037844384 3.1806079660838633 -2 -0.8660254037844386 0.50000000000000011 0 
1 2.9910254037844384 3.1806079660838633 -2 0.50000000000000011 0.8660254037844386 0 
1 2.9910254037844384 -3.1806079660838633 -2 0.50000000000000011 -0.8660254037844386 0 
1 1.2589745962155614 -4.1806079660838638 -2 0.8660254037844386 0.50000000000000011 0 
1 1.2589745962155614 -4.1806079660838638 -2 0.50000000000000011 -0.8660254037844386 0 
1 -4.2499999999999991 -0.99999999999999944 -2 -1 1.2246467991473532e-16 0 
1 -4.2499999999999991 1.0000000000000004 -2 -1.2246467991473532e-16 -1 0 
1 -4.2499999999999991 1.0000000000000004 -2 -1 1.2246467991473532e-16 0 
1 1.2589745962155614 4.1806079660838638 -2 0.50000000000000011 0.8660254037844386 0 
2 0 0 -2 0 0 1 1 0 -0 -0 1 0 2.1499999999999999
1 10.603196450859663 -16.365274975522929 -2 0 0 1 
1 2.9910254037844384 -3.1806079660838633 0 0.50000000000000011 -0.8660254037844386 0 
1 2.9910254037844384 3.1806079660838633 0 -0.8660254037844386 0.50000000000000011 0 
1 2.9910254037844384 3.1806079660838633 0 0.50000000000000011 0.8660254037844386 0 
1 1.2589745962155614 -4.1806079660838638 0 0.8660254037844386 0.50000000000000011 0 
1 1.2589745962155614 -4.1806079660838638 0 0.50000000000000011 -0.8660254037844386 0 
1 -4.2499999999999991 -0.99999999999999944 0 -1 1.2246467991473532e-16 0 
1 -4.2499999999999991 1.0000000000000004 0 -1.2246467991473532e-16 -1 0 
1 -4.2499999999999991 1.0000000000000004 0 -1 1.2246467991473532e-16 0 
1 1.2589745962155614 4.1806079660838638 0 0.50000000000000011 0.8660254037844386 0 
2 0 0 0 0 0 1 1 0 -0 -0 1 0 2.1499999999999999
1 10.603196450859663 16.365274975522929 -2 0 0 1 
1 1.3277156930635923 -4.299671038392666 -2 0 0 1 
1 -4.3874821936960613 -0.99999999999999944 -2 0 0 1 
1 -4.3874821936960613 1.0000000000000004 -2 0 0 1 
1 1.3277156930635923 4.299671038392666 -2 0 0 1 
1 2.1499999999999999 -5.2659812363336185e-16 -2.2000000000000002 0 0 1 
2 0 0 -2 0 0 1 1 0 -0 -0 1 0 19.5
2 0 0 0 0 0 1 1 0 -0 -0 1 0 19.5
1 8.8711456432907863 -17.365274975522929 -2 0 0 1 
1 8.8711456432907863 17.365274975522929 -2 0 0 1 
1 -19.474342094150447 -0.99999999999999767 -2 0 0 1 
1 -19.474342094150447 1.0000000000000022 -2 0 0 1 
Polygon3D 0
PolygonOnTriangulations 0
Surfaces 26
2 0 0 -2 0 0 1 1 0 -0 -0 1 0 4.5
1 0 0 -2 0 0 1 1 0 -0 -0 1 0 
1 2.9910254037844384 -3.1806079660838633 -2 0.8660254037844386 0.50000000000000011 0 0 0 1 0.50000000000000011 -0.8660254037844386 0 
1 0 0 0 0 0 1 1 0 -0 -0 1 0 
1 2.9910254037844384 3.1806079660838633 -2 -0.8660254037844386 0.50000000000000011 0 0 0 1 0.50000000000000011 0.8660254037844386 0 
1 2.9910254037844384 3.1806079660838633 -2 0.50000000000000011 0.8660254037844386 0 0 0 1 0.8660254037844386 -0.50000000000000011 0 
1 2.9910254037844384 3.1806079660838633 -2 0 0 1 0.50000000000000011 0.8660254037844386 0 -0.8660254037844386 0.50000000000000011 0 
1 0 0 -2 0 0 1 1 0 -0 -0 1 0 
1 1.2589745962155614 -4.1806079660838638 -2 0 0 1 0.50000000000000011 -0.8660254037844386 0 0.8660254037844386 0.50000000000000011 0 
1 1.2589745962155614 -4.1806079660838638 -2 0.50000000000000011 -0.8660254037844386 0 0 0 1 -0.8660254037844386 -0.50000000000000011 0 
1 1.2589745962155614 -4.1806079660838638 -2 0.8660254037844386 0.50000000000000011 0 0 0 1 0.50000000000000011 -0.8660254037844386 0 
1 -4.2499999999999991 -0.99999999999999944 -2 -1.2246467991473532e-16 -1 0 0 0 1 -1 1.2246467991473532e-16 0 
1 -4.2499999999999991 1.0000000000000004 -2 0 0 1 -1 1.2246467991473532e-16 0 -1.2246467991473532e-16 -1 0 
1 -4.2499999999999991 1.0000000000000004 -2 -1 1.2246467991473532e-16 0 0 0 1 1.2246467991473532e-16 1 0 
1 -4.2499999999999991 1.0000000000000004 -2 -1.2246467991473532e-16 -1 0 0 0 1 -1 1.2246467991473532e-16 0 
1 1.2589745962155614 4.1806079660838638 -2 -0.8660254037844386 0.50000000000000011 0 0 0 1 0.50000000000000011 0.8660254037844386 0 
2 0 0 -2.2000000000000002 0 0 1 1 0 -0 -0 1 0 2.1499999999999999
1 0 0 0 0 0 1 1 0 -0 -0 1 0 
2 0 0 -2 0 0 1 1 0 -0 -0 1 0 19.5
2 0 0 -4.2000000000000002 0 0 1 1 0 -0 -0 1 0 19.5
1 1.2589745962155614 -4.1806079660838638 0 0 0 1 0.50000000000000011 -0.8660254037844386 0 0.8660254037844386 0.50000000000000011 0 
1 0 0 0 0 0 1 1 0 -0 -0 1 0 
1 2.9910254037844384 3.1806079660838633 0 0 0 1 0.50000000000000011 0.8660254037844386 0 -0.8660254037844386 0.50000000000000011 0 
1 0 0 0 0 0 1 1 0 -0 -0 1 0 
1 -4.2499999999999991 1.0000000000000004 0 0 0 1 -1 1.2246467991473532e-16 0 -1.2246467991473532e-16 -1 0 
1 0 0 0 0 0 1 1 0 -0 -0 1 0 
Triangulations 0

TShapes 166
Ve
1e-07
4.5 -1.10218211923262e-15 0
0 0

0101101
*
Ve
1e-07
4.5 -1.10218211923262e-15 -2
0 0

0101101
*
Ed
 1e-07 1 1 0
1  1 0 0 2
3  1 2CN 1 0 0 2
0

0101000
-166 0 +165 0 *
Ve
1.00000076403997e-07
3.05976650063243 -3.29967103839273 -2
0 0

0101101
*
Ed
 1e-07 1 1 0
1  2 0 5.46008084828434 6.28318530717959
2  3 1 0 5.46008084828434 6.28318530717959
2  4 2 0 5.46008084828434 6.28318530717959
0

0101000
+163 0 -165 0 *
Ve
1.00000076403997e-07
3.05976650063243 -3.29967103839273 0
0 0

0101101
*
Ed
 1e-07 1 1 0
1  3 0 0 2
2  5 1 0 0 2
2  6 3 1 0 2
0

0101000
+163 0 -161 0 *
Ed
 1e-07 1 1 0
1  4 0 5.46008084828434 6.28318530717959
2  7 1 0 5.46008084828434 6.28318530717959
2  8 4 0 5.46008084828434 6.28318530717959
0

0101000
+161 0 -166 0 *
Wi

0101100
+164 0 +162 0 -160 0 -159 0 *
Fa
0  1e-07 1 0

0101000
+158 0 *
Ve
1.00000075683017e-07
3.05976650063243 3.29967103839273 0
0 0

0101101
*
Ed
 1e-07 1 1 0
1  4 0 0 0.823104458895243
2  7 1 0 0 0.823104458895243
2  8 4 0 0 0.823104458895243
0

0101000
+166 0 -156 0 *
Ve
1.00000075683017e-07
3.05976650063243 3.29967103839273 -2
0 0

0101101
*
Ed
 1e-07 1 1 0
1  5 0 0 2
2  9 1 0 0 2
2  10 5 2 0 2
0

0101000
+154 0 -156 0 *
Ed
 1e-07 1 1 0
1  2 0 0 0.823104458895243
2  3 1 0 0 0.823104458895243
2  4 2 0 0 0.823104458895243
0

0101000
+165 0 -154 0 *
Wi

0101100
-155 0 +153 0 +152 0 -164 0 *
Fa
0  1e-07 1 0

0101000
+151 0 *
Ve
1e-07
1.25897459621556 4.18060796608386 -2
0 0

0101101
*
Ve
1e-07
2.99102540378444 3.18060796608386 -2
0 0

0101101
*
Ed
 1e-07 1 1 0
1  6 0 0 2
2  11 6 0 0 2
2  12 7 0 0 2
2  13 8 3 0 2
2  14 2 3 0 2
0

0101000
-149 3 +148 3 *
Ed
 1e-07 1 1 0
1  7 0 0 0.137482193696093
2  15 5 0 0 0.137482193696093
2  16 7 0 0 0.137482193696093
2  17 8 3 0 0.137482193696093
2  18 2 3 0 0.137482193696093
0

0101000
+148 3 -154 3 *
Ve
1e-07
2.99102540378444 -3.18060796608386 -2
0 0

0101101
*
Ed
 1e-07 1 1 0
1  8 0 0 0.137482193696094
2  19 3 0 0 0.137482193696094
2  20 9 0 0 0.137482193696094
2  21 8 4 0 0.137482193696094
2  22 2 4 0 0.137482193696094
0

0101000
+145 4 -163 4 *
Ve
1e-07
1.25897459621556 -4.18060796608386 -2
0 0

0101101
*
Ed
 1e-07 1 1 0
1  9 0 0 2
2  23 10 0 0 2
2  24 9 0 0 2
2  25 8 4 0 2
2  26 2 4 0 2
0

0101000
-145 4 +143 4 *
Ve
1.00000122227034e-07
1.32771569306347 -4.29967103839268 -2
0 0

0101101
*
Ed
 1e-07 1 1 0
1  10 0 0 0.137482193696011
2  27 11 0 0 0.137482193696011
2  28 9 0 0 0.137482193696011
2  29 8 4 0 0.137482193696011
2  30 2 4 0 0.137482193696011
0

0101000
+143 4 -141 4 *
Ve
1.00000077917094e-07
-4.38748219369609 -0.999999999999928 -2
0 0

0101101
*
Ed
 1e-07 1 1 0
1  2 0 3.36568574589115 5.01189466368159
2  3 1 0 3.36568574589115 5.01189466368159
2  4 2 0 3.36568574589115 5.01189466368159
0

0101000
+139 0 -141 0 *
Ve
1e-07
-4.25 -0.999999999999999 -2
0 0

0101101
*
Ed
 1e-07 1 1 0
1  11 0 0 0.137482193696094
2  31 12 0 0 0.137482193696094
2  32 13 0 0 0.137482193696094
2  33 8 6 0 0.137482193696094
2  34 2 6 0 0.137482193696094
0

0101000
+137 6 -139 6 *
Ve
1e-07
-4.25 1 -2
0 0

0101101
*
Ed
 1e-07 1 1 0
1  12 0 0 2
2  35 14 0 0 2
2  36 13 0 0 2
2  37 8 6 0 2
2  38 2 6 0 2
0

0101000
-137 6 +135 6 *
Ve
1.00000073543372e-07
-4.38748219369609 0.999999999999933 -2
0 0

0101101
*
Ed
 1e-07 1 1 0
1  13 0 0 0.137482193696092
2  39 15 0 0 0.137482193696092
2  40 13 0 0 0.137482193696092
2  41 8 6 0 0.137482193696092
2  42 2 6 0 0.137482193696092
0

0101000
+135 6 -133 6 *
Ve
1.00000118248707e-07
1.32771569306347 4.29967103839268 -2
0 0

0101101
*
Ed
 1e-07 1 1 0
1  2 0 1.27129064349799 2.91749956128844
2  3 1 0 1.27129064349799 2.91749956128844
2  4 2 0 1.27129064349799 2.91749956128844
0

0101000
+131 0 -133 0 *
Ed
 1e-07 1 1 0
1  14 0 0 0.137482193696013
2  43 16 0 0 0.137482193696013
2  44 7 0 0 0.137482193696013
2  45 8 3 0 0.137482193696013
2  46 2 3 0 0.137482193696013
0

0101000
+149 3 -131 3 *
Wi

0101100
+147 2 -146 2 +152 0 +162 0 +144 1 +142 1 -140 1 +138 0 +136 5 +134 5 
-132 5 +130 0 +129 2 *
Ve
1.00000000526598e-07
2.15 -5.26598123633362e-16 -2
0 0

0101101
*
Ed
 1e-07 1 1 0
1  15 0 0 6.28318530717959
2  47 2 0 0 6.28318530717959
2  48 17 0 0 6.28318530717959
2  49 18 11 0 6.28318530717959
0

0101100
+127 0 -127 0 *
Wi

0101100
-126 0 *
Fa
0  1e-07 2 0

0101000
+128 0 +125 0 *
Ve
1.00000684347092e-07
10.6031964508591 -16.3652749755233 -2
0 0

0101101
*
Ed
 1e-07 1 1 0
1  8 0 0.137482193696094 15.2243420941505
2  19 3 0 0.137482193696094 15.2243420941505
2  20 9 0 0.137482193696094 15.2243420941505
2  21 8 4 0.137482193696094 15.2243420941505
0

0101000
+163 4 -123 4 *
Ve
1.00000684347092e-07
10.6031964508591 -16.3652749755233 0
0 0

0101101
*
Ed
 1.00000001776357e-07 1 1 0
1  16 0 0 2
2  50 3 1 0 2
2  51 19 0 0 2
2  52 20 15 0 2
0

0101000
+123 0 -121 0 *
Ed
 1e-07 1 1 0
1  17 0 0.137482193696094 15.2243420941505
2  53 3 0 0.137482193696094 15.2243420941505
2  54 21 0 0.137482193696094 15.2243420941505
2  55 22 4 0.137482193696094 15.2243420941505
0

0101000
+161 4 -121 4 *
Wi

0101100
-122 1 -120 0 +119 1 +160 0 *
Fa
0  1e-07 3 1

0101000
+118 0 *
Ve
1e-07
1.25897459621556 4.18060796608386 0
0 0

0101101
*
Ve
1e-07
2.99102540378444 3.18060796608386 0
0 0

0101101
*
Ed
 1e-07 1 1 0
1  18 0 0 2
2  56 6 0 0 2
2  57 23 0 0 2
2  58 22 3 0 2
2  59 4 3 0 2
2  60 24 18 0 2
0

0101000
-116 3 +115 3 *
Ed
 1e-07 1 1 0
1  19 0 0 0.137482193696093
2  61 5 0 0 0.137482193696093
2  62 23 0 0 0.137482193696093
2  63 22 3 0 0.137482193696093
2  64 4 3 0 0.137482193696093
0

0101000
+115 3 -156 3 *
Ve
1e-07
2.99102540378444 -3.18060796608386 0
0 0

0101101
*
Ed
 1e-07 1 1 0
1  17 0 0 0.137482193696094
2  53 3 0 0 0.137482193696094
2  54 21 0 0 0.137482193696094
2  55 22 4 0 0.137482193696094
2  65 4 4 0 0.137482193696094
0

0101000
+112 4 -161 4 *
Ve
1e-07
1.25897459621556 -4.18060796608386 0
0 0

0101101
*
Ed
 1e-07 1 1 0
1  20 0 0 2
2  66 10 0 0 2
2  67 21 0 0 2
2  68 22 4 0 2
2  69 4 4 0 2
2  70 24 19 0 2
0

0101000
-112 4 +110 4 *
Ve
1.00000122227034e-07
1.32771569306347 -4.29967103839268 0
0 0

0101101
*
Ed
 1e-07 1 1 0
1  21 0 0 0.137482193696011
2  71 11 0 0 0.137482193696011
2  72 21 0 0 0.137482193696011
2  73 22 4 0 0.137482193696011
2  74 4 4 0 0.137482193696011
0

0101000
+110 4 -108 4 *
Ve
1.00000077917094e-07
-4.38748219369609 -0.999999999999928 0
0 0

0101101
*
Ed
 1e-07 1 1 0
1  4 0 3.36568574589115 5.01189466368159
2  7 1 0 3.36568574589115 5.01189466368159
2  8 4 0 3.36568574589115 5.01189466368159
0

0101000
+106 0 -108 0 *
Ve
1e-07
-4.25 -0.999999999999999 0
0 0

0101101
*
Ed
 1e-07 1 1 0
1  22 0 0 0.137482193696094
2  75 12 0 0 0.137482193696094
2  76 25 0 0 0.137482193696094
2  77 22 6 0 0.137482193696094
2  78 4 6 0 0.137482193696094
0

0101000
+104 6 -106 6 *
Ve
1e-07
-4.25 1 0
0 0

0101101
*
Ed
 1e-07 1 1 0
1  23 0 0 2
2  79 14 0 0 2
2  80 25 0 0 2
2  81 22 6 0 2
2  82 4 6 0 2
2  83 24 20 0 2
0

0101000
-104 6 +102 6 *
Ve
1.00000073543372e-07
-4.38748219369609 0.999999999999933 0
0 0

0101101
*
Ed
 1e-07 1 1 0
1  24 0 0 0.137482193696092
2  84 15 0 0 0.137482193696092
2  85 25 0 0 0.137482193696092
2  86 22 6 0 0.137482193696092
2  87 4 6 0 0.137482193696092
0

0101000
+102 6 -100 6 *
Ve
1.00000118248707e-07
1.32771569306347 4.29967103839268 0
0 0

0101101
*
Ed
 1e-07 1 1 0
1  4 0 1.27129064349799 2.91749956128844
2  7 1 0 1.27129064349799 2.91749956128844
2  8 4 0 1.27129064349799 2.91749956128844
0

0101000
+98 0 -100 0 *
Ed
 1e-07 1 1 0
1  25 0 0 0.137482193696013
2  88 16 0 0 0.137482193696013
2  89 23 0 0 0.137482193696013
2  90 22 3 0 0.137482193696013
2  91 4 3 0 0.137482193696013
0

0101000
+116 3 -98 3 *
Wi

0101100
+114 2 -113 2 +155 0 +159 0 +111 1 +109 1 -107 1 +105 0 +103 5 +101 5 
-99 5 +97 0 +96 2 *
Ve
1.00000000526598e-07
2.15 -5.26598123633362e-16 0
0 0

0101101
*
Ed
 1e-07 1 1 0
1  26 0 0 6.28318530717959
2  92 4 0 0 6.28318530717959
2  93 17 0 0 6.28318530717959
2  94 26 21 0 6.28318530717959
0

0101100
+94 0 -94 0 *
Wi

0101100
-93 0 *
Fa
0  1e-07 4 0

0101000
+95 0 +92 0 *
Ve
1.00000702108271e-07
10.6031964508591 16.3652749755233 -2
0 0

0101101
*
Ed
 1e-07 1 1 0
1  7 0 0.137482193696093 15.2243420941505
2  15 5 0 0.137482193696093 15.2243420941505
2  16 7 0 0.137482193696093 15.2243420941505
2  17 8 3 0.137482193696093 15.2243420941505
0

0101000
+154 3 -90 3 *
Ve
1.00000702108271e-07
10.6031964508591 16.3652749755233 0
0 0

0101101
*
Ed
 1e-07 1 1 0
1  27 0 0 2
2  95 5 2 0 2
2  96 19 0 0 2
2  97 20 15 0 2
0

0101000
+90 0 -88 0 *
Ed
 1e-07 1 1 0
1  19 0 0.137482193696093 15.2243420941505
2  61 5 0 0.137482193696093 15.2243420941505
2  62 23 0 0.137482193696093 15.2243420941505
2  63 22 3 0.137482193696093 15.2243420941505
0

0101000
+156 3 -88 3 *
Wi

0101100
-89 2 -87 0 +86 2 +153 0 *
Fa
0  1e-07 5 2

0101000
+85 0 *
Ed
 1e-07 1 1 0
1  2 0 0.823104458895243 1.27129064349799
2  3 1 0 0.823104458895243 1.27129064349799
2  4 2 0 0.823104458895243 1.27129064349799
2  98 7 2 0.823104458895243 1.27129064349799
0

0101000
+154 0 -131 0 *
Wi

0101100
+146 2 -147 2 -129 2 +83 0 *
Fa
0  1e-07 2 0

0101000
+82 0 *
Ed
 1e-07 1 1 0
1  2 0 5.01189466368159 5.46008084828434
2  3 1 0 5.01189466368159 5.46008084828434
2  4 2 0 5.01189466368159 5.46008084828434
2  99 9 1 5.01189466368159 5.46008084828434
0

0101000
+141 0 -163 0 *
Wi

0101100
+80 0 +140 1 -142 1 -144 1 *
Fa
0  1e-07 2 0

0101000
+79 0 *
Ed
 1e-07 1 1 0
1  28 0 0 2
2  100 1 0 0 2
2  101 11 1 0 2
0

0101000
+141 0 -108 0 *
Ed
 1e-07 1 1 0
1  29 0 0 2
2  102 1 0 0 2
2  103 12 5 0 2
0

0101000
+139 0 -106 0 *
Wi

0101100
+77 0 +138 0 -76 0 -105 0 *
Fa
0  1e-07 1 0

0101000
+75 0 *
Ed
 1e-07 1 1 0
1  2 0 2.91749956128844 3.36568574589115
2  3 1 0 2.91749956128844 3.36568574589115
2  4 2 0 2.91749956128844 3.36568574589115
2  104 13 5 2.91749956128844 3.36568574589115
0

0101000
+133 0 -139 0 *
Wi

0101100
+132 5 -134 5 -136 5 +73 0 *
Fa
0  1e-07 2 0

0101000
+72 0 *
Ed
 1e-07 1 1 0
1  30 0 0 2
2  105 1 0 0 2
2  106 15 5 0 2
0

0101000
+133 0 -100 0 *
Ed
 1e-07 1 1 0
1  31 0 0 2
2  107 1 0 0 2
2  108 16 2 0 2
0

0101000
+131 0 -98 0 *
Wi

0101100
+70 0 +130 0 -69 0 -97 0 *
Fa
0  1e-07 1 0

0101000
+68 0 *
Ed
 1e-07 1 1 0
1  32 0 0.2 2.2
3  109 110CN 17 0 0.2 2.2
0

0101000
+127 0 -94 0 *
Wi

0101100
-93 0 +66 0 +126 0 -66 0 *
Fa
0  1e-07 17 0

0101000
+65 0 *
Ve
1.00000305352589e-07
8.87114564329051 -17.3652749755231 -2
0 0

0101101
*
Ed
 1e-07 1 1 0
1  33 0 5.18468320071877 5.28729231124715
2  111 19 0 5.18468320071877 5.28729231124715
2  112 8 0 5.18468320071877 5.28729231124715
2  113 9 1 5.18468320071877 5.28729231124715
2  114 20 15 5.18468320071877 5.28729231124715
0

0101000
+63 0 -123 0 *
Ed
 1e-07 1 1 0
1  10 0 0.137482193696011 15.2243420941504
2  27 11 0 0.137482193696011 15.2243420941504
2  28 9 0 0.137482193696011 15.2243420941504
2  29 8 4 0.137482193696011 15.2243420941504
0

0101000
+141 4 -63 4 *
Wi

0101100
-122 1 +62 0 +61 1 -80 0 *
Fa
0  1e-07 9 1

0101000
+60 0 *
Ve
1.00000305352589e-07
8.87114564329051 -17.3652749755231 0
0 0

0101101
*
Ed
 1.00000019214237e-07 1 1 0
1  34 0 5.18468320071877 5.28729231124715
2  115 19 0 5.18468320071877 5.28729231124715
2  116 22 0 5.18468320071877 5.28729231124715
2  117 21 1 5.18468320071877 5.28729231124715
2  118 20 15 5.18468320071877 5.28729231124715
0

0101000
+58 0 -121 0 *
Ed
 1.00000003972055e-07 1 1 0
1  35 0 0 2
2  119 11 1 0 2
2  120 19 0 0 2
2  121 20 15 0 2
0

0101000
+63 0 -58 0 *
Wi

0101100
-57 0 +120 0 +62 0 -56 0 *
Fa
0  1e-07 19 0

0101000
+55 0 *
Ed
 1e-07 1 1 0
1  21 0 0.137482193696011 15.2243420941504
2  71 11 0 0.137482193696011 15.2243420941504
2  72 21 0 0.137482193696011 15.2243420941504
2  73 22 4 0.137482193696011 15.2243420941504
0

0101000
+108 4 -58 4 *
Ed
 1e-07 1 1 0
1  4 0 5.01189466368159 5.46008084828434
2  7 1 0 5.01189466368159 5.46008084828434
2  8 4 0 5.01189466368159 5.46008084828434
2  122 21 1 5.01189466368159 5.46008084828434
0

0101000
+108 0 -161 0 *
Wi

0101100
-119 1 +57 0 +53 1 -52 0 *
Fa
0  1e-07 21 1

0101000
+51 0 *
Ed
 1e-07 1 1 0
1  4 0 0.823104458895243 1.27129064349799
2  7 1 0 0.823104458895243 1.27129064349799
2  8 4 0 0.823104458895243 1.27129064349799
2  123 23 2 0.823104458895243 1.27129064349799
0

0101000
+156 0 -98 0 *
Wi

0101100
+113 2 -114 2 -96 2 +49 0 *
Fa
0  1e-07 4 0

0101000
+48 0 *
Wi

0101100
+52 0 +107 1 -109 1 -111 1 *
Fa
0  1e-07 4 0

0101000
+46 0 *
Ed
 1e-07 1 1 0
1  4 0 2.91749956128844 3.36568574589115
2  7 1 0 2.91749956128844 3.36568574589115
2  8 4 0 2.91749956128844 3.36568574589115
2  124 25 5 2.91749956128844 3.36568574589115
0

0101000
+100 0 -106 0 *
Wi

0101100
+99 5 -101 5 -103 5 +44 0 *
Fa
0  1e-07 4 0

0101000
+43 0 *
Ve
1.00000297416461e-07
8.87114564329051 17.3652749755231 -2
0 0

0101101
*
Ed
 1e-07 1 1 0
1  14 0 0.137482193696013 15.2243420941504
2  43 16 0 0.137482193696013 15.2243420941504
2  44 7 0 0.137482193696013 15.2243420941504
2  45 8 3 0.137482193696013 15.2243420941504
0

0101000
+131 3 -41 3 *
Ed
 1e-07 1 1 0
1  33 0 0.995892995932434 1.09850210646081
2  111 19 0 0.995892995932434 1.09850210646081
2  112 8 0 0.995892995932434 1.09850210646081
2  125 7 2 0.995892995932434 1.09850210646081
2  126 20 15 0.995892995932434 1.09850210646081
0

0101000
+90 0 -41 0 *
Wi

0101100
-40 2 +39 0 +89 2 -83 0 *
Fa
0  1e-07 7 2

0101000
+38 0 *
Ve
1.00000297416461e-07
8.87114564329051 17.3652749755231 0
0 0

0101101
*
Ed
 1e-07 1 1 0
1  34 0 0.995892995932434 1.09850210646081
2  115 19 0 0.995892995932434 1.09850210646081
2  116 22 0 0.995892995932434 1.09850210646081
2  127 23 2 0.995892995932434 1.09850210646081
2  128 20 15 0.995892995932434 1.09850210646081
0

0101000
+88 0 -36 0 *
Ed
 1.00000001776357e-07 1 1 0
1  36 0 0 2
2  129 16 2 0 2
2  130 19 0 0 2
2  131 20 15 0 2
0

0101000
+41 0 -36 0 *
Wi

0101100
-35 0 +34 0 +39 0 -87 0 *
Fa
0  1e-07 19 0

0101000
+33 0 *
Ed
 1e-07 1 1 0
1  25 0 0.137482193696013 15.2243420941504
2  88 16 0 0.137482193696013 15.2243420941504
2  89 23 0 0.137482193696013 15.2243420941504
2  90 22 3 0.137482193696013 15.2243420941504
0

0101000
+98 3 -36 3 *
Wi

0101100
-31 2 +35 0 +86 2 -49 0 *
Fa
0  1e-07 23 2

0101000
+30 0 *
Wi

0101100
-61 1 -56 0 +53 1 +77 0 *
Fa
0  1e-07 11 1

0101000
+28 0 *
Ve
1.00000302873074e-07
-19.4743420941505 -0.999999999999696 -2
0 0

0101101
*
Ed
 1e-07 1 1 0
1  11 0 0.137482193696094 15.2243420941505
2  31 12 0 0.137482193696094 15.2243420941505
2  32 13 0 0.137482193696094 15.2243420941505
2  33 8 6 0.137482193696094 15.2243420941505
0

0101000
+139 6 -26 6 *
Ve
1.00000302873074e-07
-19.4743420941505 -0.999999999999696 0
0 0

0101101
*
Ed
 1.00000006217249e-07 1 1 0
1  37 0 0 2
2  132 12 5 0 2
2  133 19 0 0 2
2  134 20 15 0 2
0

0101000
+26 0 -24 0 *
Ed
 1e-07 1 1 0
1  22 0 0.137482193696094 15.2243420941505
2  75 12 0 0.137482193696094 15.2243420941505
2  76 25 0 0.137482193696094 15.2243420941505
2  77 22 6 0.137482193696094 15.2243420941505
0

0101000
+106 6 -24 6 *
Wi

0101100
-25 5 -23 0 +22 5 +76 0 *
Fa
0  1e-07 12 5

0101000
+21 0 *
Ve
1.0000030265201e-07
-19.4743420941505 0.999999999999701 -2
0 0

0101101
*
Ed
 1e-07 1 1 0
1  33 0 3.09028809832561 3.19289720885398
2  111 19 0 3.09028809832561 3.19289720885398
2  112 8 0 3.09028809832561 3.19289720885398
2  135 13 5 3.09028809832561 3.19289720885398
2  136 20 15 3.09028809832561 3.19289720885398
0

0101000
+19 0 -26 0 *
Ed
 1e-07 1 1 0
1  13 0 0.137482193696092 15.2243420941505
2  39 15 0 0.137482193696092 15.2243420941505
2  40 13 0 0.137482193696092 15.2243420941505
2  41 8 6 0.137482193696092 15.2243420941505
0

0101000
+133 6 -19 6 *
Wi

0101100
-25 5 +18 0 +17 5 -73 0 *
Fa
0  1e-07 13 5

0101000
+16 0 *
Ve
1.0000030265201e-07
-19.4743420941505 0.999999999999701 0
0 0

0101101
*
Ed
 1.00000002664535e-07 1 1 0
1  38 0 0 2
2  137 15 5 0 2
2  138 19 0 0 2
2  139 20 15 0 2
0

0101000
+19 0 -14 0 *
Ed
 1e-07 1 1 0
1  24 0 0.137482193696092 15.2243420941505
2  84 15 0 0.137482193696092 15.2243420941505
2  85 25 0 0.137482193696092 15.2243420941505
2  86 22 6 0.137482193696092 15.2243420941505
0

0101000
+100 6 -14 6 *
Wi

0101100
-17 5 -13 0 +12 5 +70 0 *
Fa
0  1e-07 15 5

0101000
+11 0 *
Wi

0101100
-40 2 -34 0 +31 2 +69 0 *
Fa
0  1e-07 16 2

0101000
+9 0 *
Ed
 1.00000025979219e-07 1 1 0
1  34 0 3.09028809832561 3.19289720885398
2  115 19 0 3.09028809832561 3.19289720885398
2  116 22 0 3.09028809832561 3.19289720885398
2  140 25 5 3.09028809832561 3.19289720885398
2  141 20 15 3.09028809832561 3.19289720885398
0

0101000
+14 0 -24 0 *
Wi

0101100
-22 5 +7 0 +12 5 -44 0 *
Fa
0  1e-07 25 5

0101000
+6 0 *
Wi

0101100
-7 0 +23 0 +18 0 -13 0 *
Fa
0  1e-07 19 0

0101000
+4 0 *
Sh

0101100
+157 0 +150 0 -124 0 +117 0 +91 0 -84 0 -81 0 -78 0 +74 0 -71 0 
+67 0 -64 0 -59 0 +54 0 +50 0 +47 0 +45 0 +42 0 -37 0 +32 0 
+29 0 -27 0 +20 0 -15 0 -10 0 +8 0 +5 0 +3 0 *
So

0100000
+2 0 *

+1 0 