DBRep_DrawableShape

CASCADE Topology V3, (c) Open Cascade
Locations 0
Curve2ds 12
1 0 6.0000000000000648 1 0 
2 0 0 1 0 -0 1 3.2000000000000002
1 6.2831853071795862 -0 0 1 
1 0 -0 0 1 
1 0 0 1 0 
2 0 0 1 0 -0 1 3.2000000000000002
2 -5.9120729242881091e-15 0 1 0 -0 1 2.1499999999999999
1 0 6.2000000000000366 1 0 
2 2.0692255235008381e-14 0 1 0 -0 1 2.1499999999999999
1 0 0.19999999999998969 1 0 
1 6.2831853071795862 -0 0 1 
1 0 -0 0 1 
Curves 6
2 33.328201177351374 0 1617.9923017660271 0.55470019622522315 0 0.83205029433784772 0.83205029433784772 0 -0.55470019622522315 -0 1 0 3.2000000000000002
1 32.662560941881111 -7.8377395145432009e-16 1611.2249593720792 0.55470019622522315 2.4651903288156619e-32 0.83205029433784772 
2 30 0 1613 0.55470019622522315 0 0.83205029433784772 0.83205029433784772 0 -0.55470019622522315 -0 1 0 3.2000000000000002
2 33.328201177351367 0 1617.9923017660271 0.55470019622522315 0 0.83205029433784772 0.83205029433784772 0 -0.55470019622522315 -0 1 0 2.1499999999999999
2 30.000000000000025 0 1613 0.55470019622522315 0 0.83205029433784772 0.83205029433784772 0 -0.55470019622522315 -0 1 0 2.1499999999999999
1 31.677968093581327 -5.2659812363337881e-16 1611.6409845192481 0.55470019622522315 2.4651903288156619e-32 0.83205029433784772 
Polygon3D 0
PolygonOnTriangulations 0
Surfaces 4
2 30 0 1613 0.55470019622522315 0 0.83205029433784772 0.83205029433784772 0 -0.55470019622522315 -0 1 0 3.2000000000000002
1 33.328201177351374 0 1617.9923017660271 0.55470019622522315 0 0.83205029433784772 0.83205029433784772 0 -0.55470019622522315 -0 1 0 
1 30 0 1613 0.55470019622522315 0 0.83205029433784772 0.83205029433784772 0 -0.55470019622522315 -0 1 0 
2 29.889059960754956 0 1612.8335899411325 0.55470019622522315 0 0.83205029433784772 0.83205029433784772 0 -0.55470019622522315 -0 1 0 2.1499999999999999
Triangulations 0

TShapes 22
Ve
1e-07
35.9907621192325 -7.8377395145432e-16 1616.21726113811
0 0

0101101
*
Ed
 1e-07 1 1 0
1  1 0 0 6.28318530717959
2  1 1 0 0 6.28318530717959
2  2 2 0 0 6.28318530717959
0

0101000
+22 0 -22 0 *
Ve
1e-07
32.6625609418811 -7.8377395145432e-16 1611.22495937208
0 0

0101101
*
Ed
 1e-07 1 1 0
1  2 0 0 6.00000000000006
3  3 4CN 1 0 0 6.00000000000006
0

0101000
-22 0 +20 0 *
Ed
 1e-07 1 1 0
1  3 0 0 6.28318530717959
2  5 1 0 0 6.28318530717959
2  6 3 0 0 6.28318530717959
0

0101000
+20 0 -20 0 *
Wi

0101100
-21 0 +19 0 +18 0 -19 0 *
Fa
0  1e-07 1 0

0101000
+17 0 *
Wi

0101100
+21 0 *
Ve
1.00000056845858e-07
35.1171093101777 -5.26598123633379e-16 1616.79969634414
0 0

0101101
*
Ed
 1e-07 1 1 0
1  4 0 0 6.28318530717959
2  7 2 0 0 6.28318530717959
2  8 4 0 0 6.28318530717959
0

0101100
+14 0 -14 0 *
Wi

0101100
-13 0 *
Fa
0  1e-07 2 0

0101000
+15 0 +12 0 *
Wi

0101100
+18 0 *
Ve
1.0000004618828e-07
31.7889081328264 -5.26598123633379e-16 1611.80739457812
0 0

0101101
*
Ed
 1e-07 1 1 0
1  5 0 0 6.28318530717959
2  9 3 0 0 6.28318530717959
2  10 4 0 0 6.28318530717959
0

0101100
+9 0 -9 0 *
Wi

0101100
-8 0 *
Fa
0  1e-07 3 0

0101000
+10 0 +7 0 *
Ed
 1e-07 1 1 0
1  6 0 0.199999999999964 6.2
3  11 12CN 4 0 0.199999999999964 6.2
0

0101000
+9 0 -14 0 *
Wi

0101100
-13 0 +5 0 +8 0 -5 0 *
Fa
0  1e-07 4 0

0101000
+4 0 *
Sh

0101100
+16 0 +11 0 -6 0 -3 0 *
So

0100000
+2 0 *

+1 0 