DBRep_DrawableShape

CASCADE Topology V3, (c) Open Cascade
Locations 3
1
              1              -0               0              -0 
              0               1               0               0 
             -0               0               1              -0 
1
              1               0               0              10 
              0               1               0               0 
              0               0               1               0 
2  1 1 2 1 0
Curve2ds 13
1 0 11 1 0 
2 0 0 1 0 -0 1 5.2000000000000002
2 23 -11 1 0 -0 1 5.2000000000000002
1 6.2831853071795862 -0 0 1 
1 0 -0 0 1 
1 0 0 1 0 
2 0 0 1 0 -0 1 5.2000000000000002
2 0 0 1 0 -0 1 3
1 0 11.199999999999999 1 0 
2 0 0 1 0 -0 1 3
1 0 0.19999999999999996 1 0 
1 6.2831853071795862 -0 0 1 
1 0 -0 0 1 
Curves 6
2 10 0 0 1 0 0 -0 0 1 0 -1 0 5.2000000000000002
1 -1 1.2736326711132475e-15 5.2000000000000002 1 0 0 
2 -1 0 0 1 0 0 -0 0 1 0 -1 0 5.2000000000000002
2 10 0 0 1 0 0 -0 0 1 0 -1 0 3
2 -1 0 0 1 0 0 -0 0 1 0 -1 0 3
1 -1.2 7.3478807948841188e-16 3 1 0 0 
Polygon3D 0
PolygonOnTriangulations 0
Surfaces 5
2 -1 0 0 1 0 0 -0 0 1 0 -1 0 5.2000000000000002
1 10 0 0 1 0 0 -0 0 1 0 -1 0 
1 0 -11 -23 1 0 0 0 0 1 0 -1 0 
1 -1 0 0 1 0 0 -0 0 1 0 -1 0 
2 -1.2 0 0 1 0 0 -0 0 1 0 -1 0 3
Triangulations 0

TShapes 23
Ve
1e-07
10 1.27363267111325e-15 5.2
0 0

0101101
*
Ed
 1e-07 1 1 0
1  1 0 0 6.28318530717959
2  1 1 0 0 6.28318530717959
2  2 2 0 0 6.28318530717959
2  3 3 3 0 6.28318530717959
0

0101000
+23 0 -23 0 *
Ve
1e-07
-1 1.27363267111325e-15 5.2
0 0

0101101
*
Ed
 1e-07 1 1 0
1  2 0 0 11
3  4 5CN 1 0 0 11
0

0101000
-23 0 +21 0 *
Ed
 1e-07 1 1 0
1  3 0 0 6.28318530717959
2  6 1 0 0 6.28318530717959
2  7 4 0 0 6.28318530717959
0

0101000
+21 0 -21 0 *
Wi

0101100
-22 0 +20 0 +19 0 -20 0 *
Fa
0  1e-07 1 0

0101000
+18 0 *
Wi

0101100
+22 0 *
Ve
1.00000000734788e-07
10 7.34788079488412e-16 3
0 0

0101101
*
Ed
 1e-07 1 1 0
1  4 0 0 6.28318530717959
2  8 2 0 0 6.28318530717959
2  9 5 0 0 6.28318530717959
0

0101100
+15 0 -15 0 *
Wi

0101100
-14 0 *
Fa
0  1e-07 2 0

0101000
+16 0 +13 0 *
Wi

0101100
+19 0 *
Ve
1.00000000734788e-07
-1 7.34788079488412e-16 3
0 0

0101101
*
Ed
 1e-07 1 1 0
1  5 0 0 6.28318530717959
2  10 4 0 0 6.28318530717959
2  11 5 0 0 6.28318530717959
0

0101100
+10 0 -10 0 *
Wi

0101100
-9 0 *
Fa
0  1e-07 4 0

0101000
+11 0 +8 0 *
Ed
 1e-07 1 1 0
1  6 0 0.2 11.2
3  12 13CN 5 0 0.2 11.2
0

0101000
+10 0 -15 0 *
Wi

0101100
-14 0 +6 0 +9 0 -6 0 *
Fa
0  1e-07 5 0

0101000
+5 0 *
Sh

0101100
+17 0 +12 0 -7 0 -4 0 *
So

0100000
+3 0 *
Co

0100000
+2 0 *

+1 0 