DBRep_DrawableShape

CASCADE Topology V3, (c) Open Cascade
Locations 0
Curve2ds 24
1 0 867.60000000000002 1 0 
2 0 0 1 0 -0 1 26.5
7 0 0  7 38 7  5.9389045881183913 867.60000060000016  5.9382678462904419 867.4579344659079  5.9377369546686412 867.31568212736249  5.9373118905581999 867.1732808305668  5.9369926372055213 867.03076776149624  5.9367791837982082 866.88818004589791  5.9366715254650613 866.74555474929059  5.936658595448348 865.75523908550099  5.9403847363225157 864.90909569338601  5.9478232040913124 864.07089248729392  5.9589920260093745 863.24724103986364  5.9739358464293515 862.44610385574242  5.9927243256940343 861.67761552681588  6.0208850676366676 860.78365958593008  6.0265484611284856 860.61372057860751  6.0324417387809364 860.44658178995394  6.0385671718934191 860.28244791471923  6.0449270438671885 860.12154707307127  6.0515236757596993 859.96413079900947  6.0664331675757319 859.62899045332313  6.0748421065759626 859.45271473772266  6.083588661221496 859.28214615928107  6.0926744842162481 859.11783190072561  6.102100563323698 858.96036755604439  6.1118672961043927 858.8103976363243  6.1296119737972257 858.56148092002161  6.1374448024269466 858.45900770513879  6.1454681800361426 858.3615674549261  6.1536767518924389 858.26952478431417  6.1620646921786015 858.18323851940556  6.1706257171336309 858.10306231770278  6.1932577664327439 857.91189758783923  6.2076076389625898 857.81065181926783  6.2223244376428966 857.72756990884614  6.2373260045970982 857.66414790989961  6.2525276294310421 857.6214276388074  6.2678430757793455 857.60000000000014  6.2831853071795862 857.60000000000014 
 0 8 0.074993109661608132 6 0.52071093387655731 6 0.62732637372579025 6 0.75324956730502879 6 0.84840158047170078 6 1 8
7 0 0  7 38 7  1.4594552453718972 9.9449393905858283  1.4753387221475247 9.9392441985828697  1.4912101190610614 9.9344839625596695  1.5070718848150111 9.9306655387938871  1.5229264477041755 9.9277940761761716  1.538776215615649 9.9258730162101365  1.5546235760288227 9.924904093012378  1.6646586556098537 9.9247877228681176  1.7586711535382304 9.9583230760070069  1.8531632504582023 10.025273047544996  1.9487406235722855 10.123614176172669  2.0460283822922536 10.249436962178338  2.145702289546489 10.396551633879662  2.2732182153915934 10.593973739334563  2.2980277150042983 10.632796239355239  2.3230474760819804 10.672214723701885  2.3482920034061392 10.712099326211931  2.37377590745028 10.752308491972501  2.3995143315242435 10.792688509735703  2.4562425910183578 10.88077110359265  2.4873454815849914 10.928484993396413  2.518852005049653 10.975930227989766  2.5507819114929871 11.022794332112555  2.5831557858023473 11.068738597951095  2.6159960868290786 11.113399842089295  2.6745150985114838 11.188878678388212  2.6999860401077469 11.220416433172256  2.7257359182846015 11.250817699396697  2.7517608991355664 11.279892643022277  2.7780583666308556 11.307451645034208  2.8046268813505635 11.333307623090667  2.8742270744685632 11.395469082660011  2.9177457864936978 11.428937356265333  2.9618605079895297 11.456771010165697  3.0064292488105275 11.478213814209003  3.0513228356426914 11.4927227332209  3.0964183055779726 11.5  3.1415926535897936 11.5 
 0 8 0.074993109661608132 6 0.52071093387655731 6 0.62732637372579025 6 0.75324956730502879 6 0.84840158047170078 6 1 8
1 6.2831853071795862 -0 0 1 
1 0 -0 0 1 
1 0 0 1 0 
2 0 0 1 0 -0 1 26.5
7 0 0  7 38 7  0 857.60000000000014  0.015436315383041257 857.60000000000014  0.030846230071383325 857.62169124759941  0.046140804076474272 857.66493985205852  0.061231912786785379 857.72914224513966  0.076033001195550703 857.8132303792089  0.090460148850094221 857.91566824654853  0.113091332056386 858.10803079603579  0.12158467425324851 858.18797487306256  0.1299069492693917 858.27392980059381  0.13805206592318725 858.36554923262236  0.1460143775260101 858.46248203212792  0.15378869471292994 858.56437167570243  0.17159903575998284 858.81451876249719  0.18147857679989304 858.96656631727876  0.19100886564414135 859.12627901055566  0.20019037882899587 859.29298963559836  0.20902420428309482 859.46608255944705  0.21751212043455551 859.64499319144431  0.23250268994924164 859.9840512142008  0.23910728064889117 860.14266902147904  0.24547287569666443 860.30478360439463  0.25160183453432533 860.47014142650607  0.25749647383268059 860.63851269606391  0.26315909355849115 860.80969137793113  0.29106752086972149 861.70250792558568  0.30965191292085642 862.46773558886059  0.32443470295565124 863.26506372603387  0.33548361543349037 864.08455091526343  0.34284201305006007 864.91836739143014  0.34652738669722488 865.7599942290426  0.34651365476268314 866.74572285477609  0.3464059136860515 866.88832009650309  0.3461924190908493 867.03087974300854  0.34587316610540819 867.17336475109983  0.34544814392274165 867.31573801672096  0.34491733580054479 867.4579623749496  0.34428071906119406 867.60000060000016 
 0 8 0.15251635140153671 6 0.24701583108006214 6 0.37451001651717386 6 0.48167696073595867 6 0.92501815259322295 6 1 8
7 0 0  7 38 7  3.1415926535897936 11.5  3.1870440266620821 11.5  3.232417653411257 11.492633205837061  3.2775873900247623 11.47794485054639  3.3224271808087047 11.456239405575186  3.3668045611850497 11.428073555766955  3.4105737938159844 11.394222878340212  3.4802083414233111 11.33170517342127  3.5065805769111864 11.305937801143514  3.5326851462134345 11.278498790104546  3.5585207466473538 11.249571392756904  3.5840849346339669 11.219341202666699  3.6093740893788073 11.187993924250836  3.6681247125626766 11.112161453269177  3.7013618388964993 11.066903837861421  3.7341212425575767 11.020340475777061  3.7664263391180168 10.972847569352181  3.798298580329925 10.92477552682463  3.8297585617367043 10.876447145385788  3.8869422314639528 10.787563852587576  3.9127852707847901 10.746991124697081  3.9383725790520026 10.706605581830233  3.9637195089698585 10.666562360286841  3.9888408710261793 10.627004248746788  4.0137513693767692 10.588062175619728  4.1407086705107501 10.39179850665448  4.2397828272667741 10.246047802129031  4.3365128509968924 10.121488998127747  4.4315621337698499 10.024179659062156  4.5255445243480388 9.957950094418468  4.6190550001935842 9.9247816481753315  4.7285804096552706 9.924905235578759  4.7444246593263113 9.9258749034444946  4.7602713174408491 9.9277963326886987  4.7761227701252116 9.930667789212972  4.7919814238355354 9.934485832859151  4.8078497053577731 9.9392453174093269  4.8237300618076944 9.9449393905858301 
 0 8 0.15251635140153671 6 0.24701583108006214 6 0.37451001651717386 6 0.48167696073595867 6 0.92501815259322295 6 1 8
8 -5.999999999062311e-07 16.800000000000001
1 15 8.9442719099991592 1 0 
8 -5.999999999062311e-07 16.800000000000001
1 4.8237299947256531 0 0 1 
2 0 0 1 0 -0 1 25.350000000000001
1 0 867.80000000000007 1 0 
8 -5.999999999062311e-07 16.800000000000001
1 15 -8.9442719099991592 1 0 
8 -5.999999999062311e-07 16.800000000000001
1 1.4594553124539327 0 0 1 
7 0 0  6 37 8  0 857.80000000000007  0.01824828820013414 857.80000000000007  0.036462183235567353 857.82853251250333  0.054491861878906048 857.88539538068164  0.072189203660695062 857.9693920257655  0.089409884018578925 858.07834721449308  0.1168104221404417 858.29401889630481  0.1273578511651618 858.388268631345  0.13764688139566483 858.49118513502253  0.14766568607594877 858.60212502931881  0.15740356894282415 858.72043011989035  0.1789889828550498 859.00601667167427  0.190650412977136 859.17768853119958  0.20183508311811951 859.35928944605496  0.2125438721458516 859.5497767106026  0.22277903478645919 859.74821419321324  0.24057528514955817 860.12281410527885  0.24828999012256495 860.29670522485765  0.25569229650190378 860.47502451403534  0.26278577792176988 860.65739889596455  0.26957395659356098 860.8435017022183  0.28158329582022468 861.19444716882629  0.28688743797024269 861.35834124016492  0.29197470860957414 861.52455464881984  0.29684686329669052 861.69292393333069  0.30150551547978283 861.86330245528154  0.32502496949329757 862.77442413112351  0.34022147983131568 863.54881498330508  0.35159361302854031 864.34688470789706  0.35916815781999262 865.16005673750601  0.36295773540274939 865.98111669534421  0.36294325408705136 866.96949388580379  0.36278508979196272 867.13586191190404  0.3624712011629086 867.30216290133433  0.36200159112042729 867.46833059174685  0.36137626311626009 867.63429863556837  0.36059522113335163 867.80000060000009 
 0 7 0.14768032953691537 5 0.24365451126430909 5 0.36696099015507944 5 0.46836459551255477 5 0.55470535652179032 5 0.9250456462011305 5 1 7
7 0 0  6 37 8  3.141592653589794 10.350000000000001  3.1929919986868387 10.350000000000001  3.2442944561042388 10.339870162783743  3.2952917373277621 10.319681932112815  3.3457758620864269 10.290071709385508  3.3955186493895444 10.252220186804966  3.4759178009484812 10.178717916884169  3.5071984094843009 10.146900653457386  3.5380899029460555 10.112559584007707  3.5685885282835232 10.076049480518693  3.5986875306637724 10.037729684682104  3.66652160135656 9.946853464737389  3.7039992052505064 9.8933383840580245  3.7408520490601886 9.8380752994303844  3.7771160940044339 9.7816790340558004  3.8128243478167607 9.724707972322598  3.8769460407557337 9.6207420051816559  3.9055342175788592 9.5737634925365942  3.9337995124286347 9.5269881271189902  3.9617648672345402 9.4806562258932914  3.9894526131005468 9.4349841637281049  4.0402437438241003 9.3520046533585575  4.0634172055091637 9.3144626677991926  4.086418852825509 9.2776607758973739  4.1092612087812972 9.241710371859142  4.1319565316918636 9.2067131718495663  4.2512843421795283 9.0271315280725855  4.3456937111649205 8.9005472558557628  4.4384612510026837 8.8007490091640008  4.5301760906593254 8.7325740371521832  4.6214019410352414 8.6984677189309849  4.7312216354842 8.6985980507644118  4.7497071272555402 8.7000215276612405  4.7681966589465086 8.7028464853280987  4.786694262108897 8.7070685457560675  4.8052040188450142 8.7126790109093335  4.8237300618076953 8.7196648627251978 
 0 7 0.14768032953691537 5 0.24365451126430909 5 0.36696099015507944 5 0.46836459551255477 5 0.55470535652179032 5 0.9250456462011305 5 1 7
7 0 0  6 37 8  5.9225900860462355 867.80000060000009  5.9218088906029118 867.63426607817337  5.9211834703379305 867.4682653742326  5.9207138292330184 867.30206495834182  5.9203999707393296 867.13573121642185  5.9202418977774514 866.96933045015112  5.9202283724309881 865.98438538309733  5.9239867722341844 865.16677204209509  5.931498563155265 864.35695007648894  5.9427760226269699 863.56204892775804  5.9578452548782863 862.79053109277913  5.981156725645068 861.88271768237473  5.9857656919946338 861.71322737220623  5.9905853584431412 861.54571000372164  5.9956172934723719 861.38030873433502  6.0008632049117807 861.21718298378494  6.0128690979873829 860.8639909205217  6.0197230839387172 860.67499305354261  6.0268905853666963 860.48980419266934  6.0343752627962077 860.30876255545309  6.0421808365022605 860.13225516248349  6.0601352691248458 859.75344473838402  6.0704359137099599 859.55337770379629  6.0812171305323801 859.36136431446664  6.0924812465010776 859.17836020555558  6.1042291753336322 859.00543081818489  6.1255184555761701 858.72402683739676  6.1348425562774764 858.61045576607432  6.1444248421872638 858.50363024130058  6.1542561601404309 858.40412743908803  6.1643264079651798 858.31251345358396  6.1915818797105668 858.09239787828346  6.2091928610267555 857.97806210219721  6.227313490824117 857.8898116149486  6.2457908514990521 857.83001866703171  6.2644678116394719 857.80000000000007  6.2831853071795862 857.80000000000007 
 0 7 0.074969488998042955 5 0.44375078284309122 5 0.52954523226548222 5 0.63234268289070628 5 0.75655549577736525 5 0.84853823133803341 5 1 7
7 0 0  6 37 8  1.4594552453718839 8.7196648627252031  1.4779849283619901 8.7126776383176718  1.4964983185467549 8.7070663411398392  1.514999551171839 8.7028439968906124  1.533492710807554 8.7000193078599555  1.5519818313488631 8.6985966529288898  1.6614201779276789 8.6984749248171696  1.7522633022223846 8.7323006357626767  1.8435891980479828 8.7999105054924929  1.935953904143658 8.8988984867111451  2.0299384589587701 9.0245053375636086  2.148654054799755 9.2027672215934224  2.1711924159098497 9.2374502233097857  2.1938750525897555 9.2730820249849195  2.2167139497273323 9.3095633295753863  2.2397213494514872 9.3467854502204517  2.2906936997780272 9.4299753780837428  2.3187375139548845 9.4762141269130868  2.3470650585499562 9.52314607752764  2.375699549586578 9.5705469439900686  2.4046648454734232 9.6181672438798724  2.4694171381249852 9.7232033122215071  2.5053767640893367 9.7806068902450356  2.5418998070884045 9.8374357197552946  2.5790200132796244 9.8931196082425483  2.6167741639709887 9.9470302220924545  2.6836649748960659 10.036592422423254  2.7124993896564678 10.073356973322314  2.7417008280452446 10.108469583477905  2.7712639375418218 10.141615028809126  2.8011858654111186 10.172481224096485  2.8813266244315461 10.247341431519711  2.932263685090744 10.287016147252867  2.9839897819617249 10.318113999572846  3.0362649532319841 10.339342545438816  3.0888717078184729 10.350000000000001  3.141592653589794 10.350000000000001 
 0 7 0.074969488998042955 5 0.44375078284309122 5 0.52954523226548222 5 0.63234268289070628 5 0.75655549577736525 5 0.84853823133803341 5 1 7
2 0 0 1 0 -0 1 25.350000000000001
1 0 0.20000000000000001 1 0 
1 6.2831853071795862 -0 0 1 
1 0 -0 0 1 
Curves 12
2 0 0 867.60000000000002 0 0 1 1 0 -0 -0 1 0 26.5
7 0 0  7 38 7  24.944939390585827 -8.944271842917102 867.60000060000016  24.939244198582873 -8.9601553292228147 867.4579344659079  24.934483962559664 -8.9733941543354607 867.31568212736249  24.930665538793882 -8.9839914147057165 867.1732808305668  24.927794076176166 -8.9919494292314166 867.03076776149624  24.925873016210137 -8.9972697392575345 866.88818004589791  24.92490409301238 -8.9999531085761859 866.74555474929059  24.924787722868118 -9.0002753877859956 865.75523908550099  24.958323076007005 -8.9074016517898418 864.90909569338601  25.025273047544996 -8.7220007395872461 864.07089248729392  25.123614176172669 -8.4428304940091898 863.24724103986364  25.249436962178336 -8.0672311226634861 862.44610385574242  25.39655163387966 -7.5912991864806507 861.67761552681588  25.593973739334562 -6.8716270426334471 860.78365958593008  25.632796239355233 -6.7266524379519366 860.61372057860751  25.672214723701877 -6.5755315754112198 860.44658178995394  25.712099326211931 -6.4181762924953523 860.28244791471923  25.752308491972503 -6.2544982928257165 860.12154707307127  25.792688509735704 -6.0844090971597096 859.96413079900947  25.88077110359265 -5.6992511060222224 859.62899045332313  25.92848499339641 -5.4815730723947471 859.45271473772266  25.975930227989767 -5.2546791979980254 859.28214615928107  26.022794332112557 -5.0184851503533183 859.11783190072561  26.068738597951093 -4.7729294434853582 858.96036755604439  26.113399842089297 -4.5179739213956269 858.8103976363243  26.188878678388203 -4.0538371728654345 858.56148092002161  26.220416433172261 -3.8486691865031952 858.45900770513879  26.250817699396698 -3.6382199848464158 858.3615674549261  26.279892643022283 -3.4226265774349138 858.26952478431417  26.30745164503421 -3.2020433398918642 858.18323851940556  26.333307623090672 -2.9766420728648675 858.10306231770278  26.395469082660014 -2.3801228497854301 857.91189758783923  26.428937356265333 -2.0012797824038775 857.81065181926783  26.456771010165699 -1.6121900891499039 857.72756990884614  26.478213814208999 -1.2151153709984222 857.66414790989961  26.492722733220898 -0.81242839678063461 857.6214276388074  26.5 -0.40656913210639495 857.60000000000014  26.5 0 857.60000000000014 
 0 8 0.074993109661608132 6 0.52071093387655731 6 0.62732637372579025 6 0.75324956730502879 6 0.84840158047170078 6 1 8
1 26.5 -6.4906280354809723e-15 0 0 0 1 
2 0 0 0 0 0 1 1 0 -0 -0 1 0 26.5
7 0 0  7 38 7  26.5 3.445711829034255e-15 857.60000000000014  26.5 0.40906235765059679 857.60000000000014  26.492633205837059 0.81742503323215832 857.62169124759941  26.477944850546383 1.2225722706141369 857.66493985205852  26.456239405575186 1.6220111458887307 857.72914224513966  26.428073555766957 2.0133179268816432 857.8132303792089  26.394222878340212 2.3941835939894696 857.91566824654853  26.331705173421273 2.9906425090987581 858.10803079603579  26.305937801143511 3.2142482615615813 858.18797487306256  26.278498790104543 3.4330923920019414 858.27392980059381  26.249571392756899 3.6470084805697072 858.36554923262236  26.219341202666698 3.8558470169773726 858.46248203212792  26.187993924250836 4.0594753421825676 858.56437167570243  26.112161453269177 4.5253175135796315 858.81451876249719  26.066903837861421 4.7832042149846794 858.96656631727876  26.020340475777065 5.031454444016636 859.12627901055566  25.972847569352179 5.2701096877351077 859.29298963559836  25.924775526824629 5.4992356537939751 859.46608255944705  25.876447145385786 5.7189217537070061 859.64499319144431  25.787563852587574 6.1061005185765893 859.9840512142008  25.746991124697075 6.2763606989835958 860.14266902147904  25.706605581830239 6.4401515034498429 860.30478360439463  25.666562360286843 6.5975629171645309 860.47014142650607  25.627004248746783 6.7486845883884214 860.63851269606391  25.588062175619719 6.8936058824515607 860.80969137793113  25.391798506654482 7.6066621729668196 861.70250792558568  25.246047802129031 8.0773461160367575 862.46773558886059  25.121488998127745 8.4488651657097513 863.26506372603387  25.024179659062156 8.7250294767301959 864.08455091526343  24.957950094418468 8.9084345984657975 864.91836739143014  24.92478164817533 9.0002922112374399 865.7599942290426  24.924905235578755 8.9999499443157891 866.74572285477609  24.925874903444491 8.9972645126211734 866.88832009650309  24.927796332688697 8.9919431754868064 867.03087974300854  24.930667789212968 8.9839851691111701 867.17336475109983  24.934485832859149 8.973388952785788 867.31573801672096  24.939245317409327 8.9601522088952272 867.4579623749496  24.94493939058583 8.9442718429170913 867.60000060000016 
 0 8 0.15251635140153671 6 0.24701583108006214 6 0.37451001651717386 6 0.48167696073595867 6 0.92501815259322295 6 1 8
1 15 8.9442719099991592 867.60000000000002 1 0 0 
2 0 0 867.60000000000002 0 0 1 1 0 -0 -0 1 0 25.350000000000001
1 15 -8.9442719099991592 867.60000000000002 1 0 0 
7 0 0  6 37 8  25.350000000000001 3.4457118290342546e-15 857.60000000000002  25.350000000000001 0.46259410587340388 857.60000000000002  25.339870162783743 0.92431626476419104 857.62853251250328  25.319681932112815 1.3810917408703332 857.6853953806816  25.290071709385508 1.828891617671319 857.76939202576546  25.252220186804966 2.2638726141440721 857.87834721449303  25.178717916884167 2.9545763385785482 858.09401889630465  25.14690065345739 3.2200775052614681 858.18826863134473  25.112559584007702 3.4786648919982404 858.2911851350226  25.076049480518691 3.7300304791229135 858.40212502931865  25.037729684682102 3.9739085331900781 858.52043011989019  24.946853464737387 4.5134997435773476 858.80601667167412  24.893338384058023 4.8042673095281563 858.97768853119931  24.838075299430386 5.0824017002813582 859.15928944605503  24.781679034055802 5.3479787136387218 859.34977671060267  24.724707972322602 5.6011247643409208 859.54821419321331  24.620742005181654 6.0401165840990716 859.92281410527869  24.573763492536596 6.2299681500148347 860.09670522485749  24.526988127118994 6.41170522210962 860.27502451403541  24.480656225893295 6.5854629668345881 860.4573988959645  24.434984163728107 6.7513766340467072 860.64350170221826  24.352004653358559 7.0442864072561164 860.99444716882635  24.314462667799194 7.1734022979538041 861.15834124016499  24.27766077589737 7.2970061284388246 861.3245546488198  24.241710371859142 7.4151705530686876 861.49292393333064  24.206713171849568 7.5279641092160183 861.66330245528127  24.027131528072584 8.0964942549681922 862.57442413112346  23.900547255855763 8.4605024767551527 863.34881498330503  23.800749009164001 8.7309720985069941 864.14688470789702  23.732574037152183 8.9104775689030422 864.96005673750597  23.698467718930985 9.000284877046937 865.78111669534417  23.698598050764407 8.9999416904846541 866.76949388580385  23.700021527661235 8.9961934261857461 866.935861911904  23.702846485328099 8.9887546941423793 867.10216290133428  23.707068545756069 8.9776239143039636 867.2683305917468  23.712679010909337 8.9627978969954061 867.43429863556833  23.7196648627252 8.9442718429170984 867.60000060000004 
 0 7 0.14768032953691537 5 0.24365451126430909 5 0.36696099015507944 5 0.46836459551255477 5 0.55470535652179032 5 0.9250456462011305 5 1 7
7 0 0  6 37 8  23.719664862725207 -8.9442718429170895 867.60000060000027  23.712677638317672 -8.9628015370250065 867.43426607817355  23.707066341139839 -8.9776297401417242 867.26826537423267  23.702843996890618 -8.9887612545001527 867.10206495834166  23.700019307859957 -8.9961992714046488 866.93573121642191  23.698596652928888 -8.999945371231048 866.76933045015119  23.69847492481717 -9.0002659026833136 865.78438538309729  23.732300635762677 -8.9111974514736101 864.96677204209504  23.799910505492491 -8.7331790807436125 864.1569500764889  23.898898486711143 -8.4649688651376707 863.362048927758  24.02450533756361 -8.1040410040331476 862.59053109277909  24.202767221593422 -7.5406232014601677 861.6827176823748  24.237450223309789 -7.4290509902601443 861.51322737220642  24.273082024984916 -7.3121805536822704 861.34571000372171  24.309563329575383 -7.1899450469406112 861.18030873433497  24.346785450220448 -7.0622735732362543 861.01718298378489  24.429975378083739 -6.7695143090433874 860.66399092052177  24.476214126913089 -6.6020262899372248 860.47499305354256  24.523146077527638 -6.426486338743012 860.28980419266918  24.57054694399007 -6.2427537195823648 860.10876255545315  24.618167243879871 -6.0506875995100708 859.93225516248356  24.723203312221511 -5.6078283958257558 859.55344473838397  24.780606890245036 -5.3530779125546681 859.35337770379613  24.837435719755291 -5.0857151492241472 859.1613643144666  24.893119608242547 -4.8056101635058237 858.97836020555553  24.947030222092454 -4.512685009003774 858.80543081818485  25.036592422423254 -3.9804852090413458 858.52402683739683  25.073356973322316 -3.7469826396432979 858.41045576607439  25.108469583477909 -3.5065993454073356 858.30363024130065  25.141615028809124 -3.2595622751926965 858.20412743908798  25.172481224096483 -3.0061338323391769 858.11251345358403  25.247341431519711 -2.3192750584445037 857.89239787828342  25.287016147252867 -1.8745171663209161 857.77806210219717  25.318113999572844 -1.4160517026527071 857.68981161494855  25.339342545438818 -0.94794935500310018 857.63001866703166  25.350000000000001 -0.47448851194189068 857.60000000000002  25.350000000000001 0 857.60000000000002 
 0 7 0.074969488998042955 5 0.44375078284309122 5 0.52954523226548222 5 0.63234268289070628 5 0.75655549577736525 5 0.84853823133803341 5 1 7
2 0 0 0 0 0 1 1 0 -0 -0 1 0 25.350000000000001
1 25.350000000000001 -6.2089592716770812e-15 -0.20000000000000001 0 0 1 
Polygon3D 0
PolygonOnTriangulations 0
Surfaces 5
2 0 0 0 0 0 1 1 0 -0 -0 1 0 26.5
1 0 0 867.60000000000002 0 0 1 1 0 -0 -0 1 0 
2 15 0 866.60000000000002 1 0 0 -0 0 1 0 -1 0 9
1 0 0 0 0 0 1 1 0 -0 -0 1 0 
2 0 0 -0.20000000000000001 0 0 1 1 0 -0 -0 1 0 25.350000000000001
Triangulations 0

TShapes 33
Ve
1.00000009565974e-07
24.9449393665328 8.94427190999916 867.6
0 0

0101101
*
Ve
1.00000015987212e-07
24.9449393665328 -8.94427190999916 867.6
0 0

0101101
*
Ed
 1e-07 1 1 0
1  1 0 0.344280721750399 5.93890458542919
2  1 1 0 0.344280721750399 5.93890458542919
2  2 2 0 0.344280721750399 5.93890458542919
0

0101000
+33 0 -32 0 *
Ve
1.00000114120234e-07
26.5 -6.49062803548097e-15 857.6
0 0

0101101
*
Ed
 1e-07 1 1 0
1  2 0 4.52464077033587e-08 1
2  3 1 0 4.52464077033587e-08 1
2  4 3 0 4.52464077033587e-08 1
0

0101000
+32 0 -30 0 *
Ve
1e-07
26.5 -6.49062803548097e-15 0
0 0

0101101
*
Ed
 1e-07 1 1 0
1  3 0 0 857.6
3  5 6CN 1 0 0 857.6
0

0101000
+28 0 -30 0 *
Ed
 1e-07 1 1 0
1  4 0 0 6.28318530717959
2  7 1 0 0 6.28318530717959
2  8 4 0 0 6.28318530717959
0

0101000
+28 0 -28 0 *
Ed
 1e-07 1 1 0
1  5 0 0 0.999999954751498
2  9 1 0 0 0.999999954751498
2  10 3 0 0 0.999999954751498
0

0101000
+30 0 -33 0 *
Wi

0101100
-31 0 -29 0 +27 0 +26 0 -27 0 -25 0 *
Fa
0  1e-07 1 0

0101000
+24 0 *
Ve
2.58893053421312e-07
23.7196648374297 8.94427190999916 867.6
0 0

0101101
*
Ed
 1e-07 1 1 0
1  6 0 8.71966483742973 9.94493936653284
2  11 2 0 8.71966483742973 9.94493936653284
2  12 3 0 8.71966483742973 9.94493936653284
0

0101000
+22 0 -33 0 *
Ve
2.5033567233385e-07
23.7196648374297 -8.94427190999917 867.6
0 0

0101101
*
Ed
 1e-07 1 1 0
1  7 0 0.360595223961471 5.92259008321811
2  13 2 0 0.360595223961471 5.92259008321811
2  14 5 0 0.360595223961471 5.92259008321811
0

0101000
+22 0 -20 0 *
Ed
 1e-07 1 1 0
1  8 0 8.71966483742972 9.94493936653284
2  15 2 0 8.71966483742972 9.94493936653284
2  16 3 0 8.71966483742972 9.94493936653284
0

0101000
+20 0 -32 0 *
Wi

0101100
+21 0 -19 0 -18 0 +31 0 *
Fa
0  1e-07 2 0

0101000
+17 0 *
Ve
2.58893939498796e-07
25.35 -6.20895927167708e-15 857.6
0 0

0101101
*
Ed
 2.58892939498796e-07 1 1 0
1  9 0 0 0.99999995476556
2  17 5 0 0 0.99999995476556
2  18 3 0 0 0.99999995476556
0

0101000
+15 0 -22 0 *
Ed
 2.50335558425184e-07 1 1 0
1  10 0 4.52347035422217e-08 1
2  19 5 0 4.52347035422217e-08 1
2  20 3 0 4.52347035422217e-08 1
0

0101000
+20 0 -15 0 *
Wi

0101100
-29 0 -25 0 +21 0 +14 0 +13 0 -18 0 *
Fa
0  1e-07 3 0

0101000
+12 0 *
Wi

0101100
+26 0 *
Ve
1.00000006208959e-07
25.35 -6.20895927167708e-15 0
0 0

0101101
*
Ed
 1e-07 1 1 0
1  11 0 0 6.28318530717959
2  21 4 0 0 6.28318530717959
2  22 5 0 0 6.28318530717959
0

0101100
+9 0 -9 0 *
Wi

0101100
-8 0 *
Fa
0  1e-07 4 0

0101000
+10 0 +7 0 *
Ed
 1e-07 1 1 0
1  12 0 0.2 857.8
3  23 24CN 5 0 0.2 857.8
0

0101000
+9 0 -15 0 *
Wi

0101100
-19 0 -13 0 +5 0 +8 0 -5 0 -14 0 *
Fa
0  1e-07 5 0

0101000
+4 0 *
Sh

0101100
+23 0 +16 0 -11 0 -6 0 -3 0 *
So

0100000
+2 0 *

+1 0 