DBRep_DrawableShape

CASCADE Topology V3, (c) Open Cascade
Locations 0
Curve2ds 30
1 6.2831853071795862 -0 0 1 
1 0 -0 0 1 
7 0 0  6 52 11  6.2831853071795862 14  6.2652650974356874 14  6.2473810621604606 13.969931077617673  6.2296868293891547 13.91002142590477  6.2123341570943458 13.821576799917596  6.1954703463955507 13.706962454763403  6.1690506348896621 13.483525147596636  6.1591010867233704 13.388364089720191  6.1493965730827194 13.284772680974433  6.1399477254619228 13.17337236816644  6.1307640942296118 13.05479666773064  6.1101663673782154 12.76558827600905  6.0989473067680082 12.590221067737957  6.0881971390008003 12.404775101426154  6.0779149127873877 12.210322385991738  6.0680982568036752 12.007825253440044  6.0508785142716919 11.621859462713777  6.0433385336022205 11.440464640794765  6.0361192042174396 11.254414083361949  6.0292166788803305 11.0641168146367  6.0226271624746408 10.869930351910895  6.0109603324572722 10.502538176643471  6.0058012801286909 10.330280120323238  6.0008675657605499 10.155587681481096  5.9961572391360756 9.9786430853121519  5.9916685062929558 9.79960959873919  5.9836200093829399 9.4583873933367801  5.980012833427871 9.2966235479346988  5.9765771788491584 9.1334448258054799  5.9733121689788646 8.968950891668948  5.9702170732900717 8.8032362433656903  5.9570132189857983 8.0502673553170627  5.9488203636665906 7.4499359924846464  5.9426961970105889 6.8396164798092141  5.9386315669724503 6.2228336082800322  5.936621939553441 5.6027514305514527  5.9367106378904433 4.4657718189070303  5.938179254236938 3.9491767917311211  5.941075394535809 3.434564987445436  5.9454006966580941 2.9238049847389944  5.9511592375203719 2.4189090283741401  5.9605389122567081 1.7716240568775079  5.9628526471972014 1.6218274616348223  5.9652990328716298 1.4728274681878497  5.967878419815432 1.3246853073360672  5.9705912340430372 1.1774643621540111  5.9768610649584808 0.8553897421735428  5.980477718045333 0.68098084206993503  5.9842889146845577 0.50811183471317956  5.9882957645365336 0.33690252450591496  5.9924995085458832 0.16748415322069762  5.9969015189414563 -6.0000000000000008e-07 
 0 7 0.11536930848859338 5 0.18772323107515537 5 0.28263394023325994 5 0.36242291446202368 5 0.43085607454908137 5 0.49144912202122543 5 0.7043098640461033 5 0.88164302701241226 5 0.93538161892452754 5 1 7
7 0 0  6 52 11  0 11.5  0.052765062023703194 11.5  0.10542359530020093 11.489787974471906  0.15775728875571149 11.469441012962649  0.20954810451023123 11.439630298434073  0.2605560009152138 11.401597154305817  0.34181293362078113 11.328949209097397  0.37275170190356471 11.298310695676228  0.40331025308281809 11.265353504692081  0.43348570689359106 11.230407925447366  0.46327240238205963 11.193807226576849  0.53121344875351961 11.106127748942022  0.56908861026209479 11.054083344327681  0.60633042938313386 11.000404450219277  0.64297553627622284 10.945697936700874  0.6790574987200273 10.890513521725312  0.74449863304844766 10.788953064213912  0.77401885236445667 10.742565395848326  0.80319789300156608 10.696453282792985  0.83206057598562133 10.650867449966931  0.86063100238125623 10.606032401274199  0.91320871522307845 10.524509226779122  0.9372867680701229 10.487570015492546  0.96118219709653729 10.451457859142451  0.9849087891787468 10.416289457280469  1.0084800192017327 10.382170642814803  1.0526539108422643 10.319999849981823  1.0732867828840451 10.291701654027561  1.0938162656049311 10.264368764538554  1.1142505034222363 10.238062983531174  1.134597185750031 10.212840944647064  1.2260583931671465 10.104138121076163  1.2962925421517983 10.033496059997951  1.36583838402899 9.9791369791852311  1.4349366815797118 9.9425443592501992  1.5038238165649978 9.9244578206261291  1.6301551233461948 9.9252561041500496  1.6875623099694144 9.9384740830327285  1.7450976982865718 9.9645313204934194  1.8028935876386791 10.003059531383689  1.8610860946810386 10.053322642176498  1.9376212298530131 10.13264990122836  1.9554715911194371 10.152074548064725  1.9733777183523753 10.172444941845248  1.9913444570920429 10.193727679937084  2.009376902302638 10.215886322640523  2.0492490857570731 10.266531991738169  2.0711200015411109 10.295391145301009  2.0931030524109078 10.32539126688301  2.1152083647055941 10.356457181888601  2.1374462844169781 10.388506128121136  2.1598273771895449 10.421447755782914 
 0 7 0.11536930848859338 5 0.18772323107515537 5 0.28263394023325994 5 0.36242291446202368 5 0.43085607454908137 5 0.49144912202122543 5 0.7043098640461033 5 0.88164302701241226 5 0.93538161892452754 5 1 7
8 0 0.99999996141835112
7 0 0  6 52 11  6.2831853071795862 11.5  6.3359503692032897 11.5  6.3886089024797874 11.489787974471906  6.4409425959352973 11.469441012962649  6.4927334116898177 11.439630298434073  6.5437413080948001 11.401597154305817  6.6249982408003678 11.328949209097397  6.6559370090831509 11.298310695676228  6.6864955602624043 11.265353504692081  6.7166710140731771 11.230407925447366  6.7464577095616463 11.193807226576849  6.8143987559331061 11.106127748942022  6.8522739174416811 11.054083344327681  6.8895157365627204 11.000404450219277  6.9261608434558095 10.945697936700874  6.9622428058996135 10.890513521725312  7.0276839402280338 10.788953064213912  7.0572041595440425 10.742565395848326  7.0863832001811522 10.696453282792985  7.1152458831652075 10.650867449966931  7.143816309560842 10.606032401274199  7.1963940224026643 10.524509226779122  7.2204720752497096 10.487570015492546  7.2443675042761235 10.451457859142451  7.2680940963583334 10.416289457280469  7.2916653263813185 10.382170642814803  7.3358392180218503 10.319999849981823  7.3564720900636313 10.291701654027561  7.3770015727845175 10.264368764538554  7.3974358106018228 10.238062983531174  7.417782492929617 10.212840944647064  7.5092437003467332 10.104138121076163  7.5794778493313846 10.033496059997951  7.6490236912085763 9.9791369791852311  7.7181219887592984 9.9425443592501992  7.7870091237445838 9.9244578206261291  7.9133404305257811 9.9252561041500496  7.9707476171490006 9.9384740830327285  8.0282830054661574 9.9645313204934194  8.0860788948182645 10.003059531383689  8.1442714018606246 10.053322642176498  8.2208065370325993 10.13264990122836  8.2386568982990234 10.152074548064725  8.2565630255319622 10.172444941845248  8.2745297642716285 10.193727679937084  8.2925622094822238 10.215886322640523  8.3324343929366584 10.266531991738169  8.3543053087206971 10.295391145301009  8.3762883595904931 10.32539126688301  8.3983936718851808 10.356457181888601  8.4206315915965639 10.388506128121136  8.4430126843691315 10.421447755782914 
 0 7 0.11536930848859338 5 0.18772323107515537 5 0.28263394023325994 5 0.36242291446202368 5 0.43085607454908137 5 0.49144912202122543 5 0.7043098640461033 5 0.88164302701241226 5 0.93538161892452754 5 1 7
1 0 0 1 0 
2 0 0 1 0 -0 1 26.5
7 0 0  6 52 11  0.28628378823812994 -6.0000000000000008e-07  0.29063761128977267 0.16565075332351717  0.29479748398318795 0.33319359354619088  0.2987647346424121 0.50248988121317273  0.30254056598881379 0.67341254368744041  0.30612605514109353 0.84584547514979802  0.31238884392113059 1.1664224752163506  0.31512053216782437 1.3141593728633436  0.31771772919545488 1.4628278159507306  0.32018086890299841 1.6123635918855552  0.32251030824831811 1.7627046890710263  0.33195300188025278 2.4123641636835984  0.3377485677060037 2.9191710093846104  0.34209966893688115 3.4319017777188656  0.34501044801918579 3.9485203094152337  0.34648256528481047 4.4671366716670411  0.34655384438009046 5.5995030524478997  0.34457820982697418 6.2129546387864218  0.34059114884197139 6.8232003424265439  0.33458834921861841 7.4271726557137541  0.32656110239757352 8.0214618537145341  0.31371934956611519 8.7619843383926828  0.31078973017241013 8.9209422565243983  0.30770435347623559 9.0787955135722811  0.3044625956947889 9.2354616655112292  0.30106371162374784 9.3908540707798949  0.2932162971702284 9.730680312055604  0.28869600657624556 9.9144864303498483  0.28394426490409835 10.096148459696225  0.27895920080339004 10.275494335332299  0.27373876952455028 10.452331713200383  0.26195379150235948 10.828284446089276  0.25530759219734372 11.026463658523596  0.24833815849537988 11.220669070214951  0.24104151346508765 11.410529522016425  0.23341361056392496 11.595619270142942  0.21606566251284109 11.987392461113147  0.20621301155481433 12.192083893049926  0.19588800087875413 12.3886676071859  0.18508803228740908 12.576166907902101  0.17381194032246963 12.753491404980847  0.15322037441410036 13.044249086650268  0.14411063781608627 13.162638833602893  0.13473846024470573 13.27397389383164  0.12511287383617178 13.377635378386337  0.11524395707292186 13.473014122052897  0.088744422340840234 13.69992491905885  0.071698305780302285 13.817232533937926  0.054146763358216603 13.907810950015257  0.036241775161760817 13.969188998428796  0.018139989677038254 14  0 14 
 0 7 0.06391223279950195 5 0.11786136872229941 5 0.29588889705533239 5 0.50647858279248059 5 0.56451275373977916 5 0.63451736333543729 5 0.71566707318121847 5 0.81129950930549155 5 0.88322891703056094 5 1 7
7 0 0  6 52 11  4.1233579299900418 10.421447755782919  4.1454940243827627 10.38886672916456  4.1674900573970453 10.357158950595378  4.1893562560524318 10.326411837653801  4.2111026367307991 10.296705540458582  4.2327390051763318 10.268112941668788  4.2724537293854308 10.217559750651168  4.2905606116965922 10.195260706307327  4.3086010215545327 10.173842587708673  4.3265801231501522 10.153342372697047  4.3445028267397712 10.133793952699753  4.4213464324608625 10.053962516807532  4.4797696564655709 10.003382842370806  4.5377921187139041 9.9646247533276817  4.5955515688940496 9.9384345654121837  4.6531818723187319 9.9251850405165261  4.7790005139292742 9.9245435294485773  4.847153194756606 9.9423241707171286  4.9155110861613842 9.9782163013468619  4.9843027434700247 10.031509169845361  5.053760958568688 10.100778907013762  5.1435456040245002 10.206694642004935  5.1630156755952159 10.230624771244727  5.1825648373155602 10.255557938300784  5.202199787148273 10.281445031816725  5.2219276027095836 10.308232619778599  5.2656737377912437 10.369192458916254  5.2897370014396605 10.403746830556431  5.3139594742570857 10.439426391494054  5.338355435661402 10.476119723348507  5.3629395024457756 10.513703662299916  5.4164599953589336 10.596486806724  5.4454662464685377 10.641945368903738  5.4747713804062537 10.688211558424269  5.5044006621590036 10.73505179285945  5.5343801193069808 10.78220465785885  5.6005139109293056 10.884973012704911  5.6368237010612816 10.940609810363066  5.6737025671841792 10.995795849830024  5.71118514009643 11.049972322697348  5.749309157116719 11.102521270415437  5.8173097779727989 11.190566877794998  5.8468918901072557 11.227066245177101  5.8768579695880412 11.261949123634929  5.9072032919707338 11.29488943619234  5.9379258016763421 11.325563170058984  6.0195145532252194 11.399262429236167  6.0711083491909887 11.438166236985195  6.1235104597400767 11.468690266707071  6.1764734298326651 11.4895359527814  6.2297731153527511 11.5  6.2831853071795862 11.5 
 0 7 0.06391223279950195 5 0.11786136872229941 5 0.29588889705533239 5 0.50647858279248059 5 0.56451275373977916 5 0.63451736333543729 5 0.71566707318121847 5 0.81129950930549155 5 0.88322891703056094 5 1 7
8 3.8582377963239031e-08 1
7 0 0  6 52 11  4.1233579299900418 10.421447755782919  4.1454940243827627 10.38886672916456  4.1674900573970453 10.357158950595378  4.1893562560524318 10.326411837653801  4.2111026367307991 10.296705540458582  4.2327390051763318 10.268112941668788  4.2724537293854308 10.217559750651168  4.2905606116965922 10.195260706307327  4.3086010215545327 10.173842587708673  4.3265801231501522 10.153342372697047  4.3445028267397712 10.133793952699753  4.4213464324608625 10.053962516807532  4.4797696564655709 10.003382842370806  4.5377921187139041 9.9646247533276817  4.5955515688940496 9.9384345654121837  4.6531818723187319 9.9251850405165261  4.7790005139292742 9.9245435294485773  4.847153194756606 9.9423241707171286  4.9155110861613842 9.9782163013468619  4.9843027434700247 10.031509169845361  5.053760958568688 10.100778907013762  5.1435456040245002 10.206694642004935  5.1630156755952159 10.230624771244727  5.1825648373155602 10.255557938300784  5.202199787148273 10.281445031816725  5.2219276027095836 10.308232619778599  5.2656737377912437 10.369192458916254  5.2897370014396605 10.403746830556431  5.3139594742570857 10.439426391494054  5.338355435661402 10.476119723348507  5.3629395024457756 10.513703662299916  5.4164599953589336 10.596486806724  5.4454662464685377 10.641945368903738  5.4747713804062537 10.688211558424269  5.5044006621590036 10.73505179285945  5.5343801193069808 10.78220465785885  5.6005139109293056 10.884973012704911  5.6368237010612816 10.940609810363066  5.6737025671841792 10.995795849830024  5.71118514009643 11.049972322697348  5.749309157116719 11.102521270415437  5.8173097779727989 11.190566877794998  5.8468918901072557 11.227066245177101  5.8768579695880412 11.261949123634929  5.9072032919707338 11.29488943619234  5.9379258016763421 11.325563170058984  6.0195145532252194 11.399262429236167  6.0711083491909887 11.438166236985195  6.1235104597400767 11.468690266707071  6.1764734298326651 11.4895359527814  6.2297731153527511 11.5  6.2831853071795862 11.5 
 0 7 0.06391223279950195 5 0.11786136872229941 5 0.29588889705533239 5 0.50647858279248059 5 0.56451275373977916 5 0.63451736333543729 5 0.71566707318121847 5 0.81129950930549155 5 0.88322891703056094 5 1 7
1 0 46.400000000000091 1 0 
2 0 0 1 0 -0 1 26.5
8 -5.999999999062311e-07 16.800000000000001
1 15 7.4833147735478827 1 0 
8 -5.999999999062311e-07 16.800000000000001
1 4.1233580101684151 0 0 1 
8 9.2202910800014948 10.421447637772324
1 4.1233580101684151 0 0 1 
7 0 0  6 57 12  0.29966460819223162 0.19999940000000002  0.30400263636061836 0.35725121324491466  0.30815810392292531 0.51621606483883464  0.3121321850946146 0.67678095673352867  0.31592588161163149 0.8388391897150389  0.31954002273040505 1.0022903634036824  0.32585616154002667 1.3052046266106203  0.32861123947958154 1.4442818155118617  0.331240885151106 1.5842160554398308  0.33374541939836505 1.724953137510485  0.33612509780429439 1.8664405314736854  0.34653737849899097 2.5229731154627606  0.35306588610068168 3.046626778689919  0.35796962308446273 3.5769720600959265  0.36125074605192675 4.1117109623763648  0.36290968457164591 4.6487155157648852  0.36297901310453878 5.6959064020088341  0.36154926634684287 6.2058696131492761  0.35865694047461477 6.713956953604689  0.3543018037269286 7.2183415940699476  0.34848235605426342 7.7170691913914498  0.33918340168705452 8.3435085988587847  0.33705904350653654 8.4784820482380248  0.33482251689029258 8.6128225406966497  0.33247363869955682 8.7464860650189511  0.33001217743053607 8.8794274428447384  0.32431709197910252 9.1718287940103238  0.32103046669308571 9.3309273236957946  0.31757747874759867 9.4888138714238508  0.31395748758870917 9.6454017000864525  0.31016971071731342 9.8005993817693984  0.30173840446515138 10.128159667794828  0.29704790381771679 10.300101636115825  0.29214021825038178 10.470003848401735  0.2870136967470483 10.63771607893187  0.28166654077197145 10.803070730578449  0.2696136945215441 11.155394266744119  0.26282901717661061 11.341460759993746  0.25573922843674141 11.523802336378351  0.24834081040518827 11.702092703092161  0.24063019007794409 11.875959305630785  0.22283995844898241 12.250589038999671  0.2126065038034404 12.4490779473703  0.20189937923671128 12.639619169860183  0.1907163177422139 12.82127686304932  0.17905642670614685 12.993008537356189  0.15740892353849628 13.279563250863076  0.14760365570003517 13.398680896898171  0.13751366312598343 13.510329586673647  0.12714971607449055 13.613839297799087  0.11652374099755808 13.708554154654054  0.089092069790535383 13.923658599460632  0.071928071157357512 14.031845122870603  0.05429212913842979 14.115234325062357  0.036327342955038061 14.171679083937462  0.018180498343668187 14.199999999999999  0 14.199999999999999 
 0 7 0.060718137525454442 5 0.1116381696948652 5 0.29583593709838041 5 0.47072819325087867 5 0.51902761046646595 5 0.57757926763153433 5 0.64380167129732369 5 0.72088379368953581 5 0.81464866421149618 5 0.88812914703469459 5 1 7
7 0 0  6 57 12  4.1233579299900418 9.2202912038645906  4.1443715885661829 9.1878283753231162  4.1652601729754144 9.1561848683101825  4.1860330117240396 9.1254389758451691  4.2066989230268019 9.0956633853716742  4.2272662148068818 9.0669251787575131  4.2649148600615838 9.0161066560487715  4.2820231480089488 8.9937004013845332  4.2990721394701676 8.9721034329377058  4.3160662091848412 8.9513495751296528  4.333009515700005 8.931470112167375  4.4110272301833184 8.8438489661881405  4.4715545382618878 8.7870015675639852  4.5316494080455811 8.7433534507580468  4.5914611920661796 8.7138310968989057  4.6511350746993019 8.6989001760078661  4.7674897608242093 8.6982762199797907  4.8241463094479826 8.7111443090210603  4.8809161391308562 8.7371793301585026  4.9379227867192776 8.7760115497942248  4.9952929175698744 8.8268965356921907  5.0691439940684413 8.9057746203464223  5.0851647397478716 8.9236783197105893  5.1012278737618155 8.9423930760448673  5.1173368231466005 8.9618936823306097  5.1334951818078265 8.9821528882007815  5.1693593673435689 9.0285850225467019  5.1890901505023272 9.0551003355027557  5.2089057693701752 9.0826352774197332  5.2288133606838638 9.1111330941462825  5.2488204885433589 9.1405323387681268  5.2916849848948564 9.2049623758057546  5.3145717633325171 9.2402250980901126  5.3376077727173241 9.2764608339313899  5.3608055807437482 9.3135653735475668  5.3841780298082318 9.3514245019043329  5.4351620494128419 9.4347153339090308  5.4628403355862005 9.4803705015476911  5.4907959846788179 9.5266859778023214  5.5190513018939749 9.573445642771107  5.5476292150421935 9.6204094886500275  5.6117399915874415 9.7243662661353998  5.6474477721931224 9.7813433353609991  5.6837112639546321 9.8377476649524542  5.7205635015876872 9.893020986450173  5.7580404703996235 9.9465485589664855  5.8260766711616467 10.037723462898038  5.8563834366823135 10.076307736954464  5.8870951327307921 10.113056396068293  5.9182053373089731 10.147603196030003  5.9497106904571604 10.179586314688892  6.0301772123516972 10.252917114457235  6.0797469899447734 10.290507809108847  6.1300511771018771 10.319905502327265  6.1808633044910781 10.339945284269705  6.2319769035115877 10.350000000000001  6.2831853071795862 10.350000000000001 
 0 7 0.060718137525454442 5 0.1116381696948652 5 0.29583593709838041 5 0.47072819325087867 5 0.51902761046646595 5 0.57757926763153433 5 0.64380167129732369 5 0.72088379368953581 5 0.81464866421149618 5 0.88812914703469459 5 1 7
8 3.861204222942769e-08 1
7 0 0  6 57 12  4.1233579299900418 9.2202912038645906  4.1443715885661829 9.1878283753231162  4.1652601729754144 9.1561848683101825  4.1860330117240396 9.1254389758451691  4.2066989230268019 9.0956633853716742  4.2272662148068818 9.0669251787575131  4.2649148600615838 9.0161066560487715  4.2820231480089488 8.9937004013845332  4.2990721394701676 8.9721034329377058  4.3160662091848412 8.9513495751296528  4.333009515700005 8.931470112167375  4.4110272301833184 8.8438489661881405  4.4715545382618878 8.7870015675639852  4.5316494080455811 8.7433534507580468  4.5914611920661796 8.7138310968989057  4.6511350746993019 8.6989001760078661  4.7674897608242093 8.6982762199797907  4.8241463094479826 8.7111443090210603  4.8809161391308562 8.7371793301585026  4.9379227867192776 8.7760115497942248  4.9952929175698744 8.8268965356921907  5.0691439940684413 8.9057746203464223  5.0851647397478716 8.9236783197105893  5.1012278737618155 8.9423930760448673  5.1173368231466005 8.9618936823306097  5.1334951818078265 8.9821528882007815  5.1693593673435689 9.0285850225467019  5.1890901505023272 9.0551003355027557  5.2089057693701752 9.0826352774197332  5.2288133606838638 9.1111330941462825  5.2488204885433589 9.1405323387681268  5.2916849848948564 9.2049623758057546  5.3145717633325171 9.2402250980901126  5.3376077727173241 9.2764608339313899  5.3608055807437482 9.3135653735475668  5.3841780298082318 9.3514245019043329  5.4351620494128419 9.4347153339090308  5.4628403355862005 9.4803705015476911  5.4907959846788179 9.5266859778023214  5.5190513018939749 9.573445642771107  5.5476292150421935 9.6204094886500275  5.6117399915874415 9.7243662661353998  5.6474477721931224 9.7813433353609991  5.6837112639546321 9.8377476649524542  5.7205635015876872 9.893020986450173  5.7580404703996235 9.9465485589664855  5.8260766711616467 10.037723462898038  5.8563834366823135 10.076307736954464  5.8870951327307921 10.113056396068293  5.9182053373089731 10.147603196030003  5.9497106904571604 10.179586314688892  6.0301772123516972 10.252917114457235  6.0797469899447734 10.290507809108847  6.1300511771018771 10.319905502327265  6.1808633044910781 10.339945284269705  6.2319769035115877 10.350000000000001  6.2831853071795862 10.350000000000001 
 0 7 0.060718137525454442 5 0.1116381696948652 5 0.29583593709838041 5 0.47072819325087867 5 0.51902761046646595 5 0.57757926763153433 5 0.64380167129732369 5 0.72088379368953581 5 0.81464866421149618 5 0.88812914703469459 5 1 7
7 0 0  6 57 12  6.2831853071795862 14.199999999999999  6.2644459383515123 14.199999999999999  6.2457456732940431 14.169911134301227  6.2272449762064408 14.109969444444637  6.2091023749517644 14.021497463734619  6.1914721354684286 13.906886751506843  6.1643579964292465 13.687638513389965  6.1544377641149595 13.597443264555244  6.1447493395841493 13.499591082354508  6.1353023633088428 13.394622927606706  6.1261055838745238 13.283090052311872  6.1050843167651836 13.006685242399785  6.0934715930742671 12.83682870948128  6.0823290921998527 12.657118842456176  6.0716561553867381 12.468583451411952  6.0614507548385328 12.272147314106155  6.043541110507511 11.897991124219386  6.0356974989796583 11.722338551684624  6.0281745438342389 11.542115238361859  6.0209685340189436 11.357711337260541  6.0140758097416693 11.16946805762039  6.0018672754087552 10.813789424251238  5.9964679346487122 10.647311095566151  5.9912926553560517 10.478432486203141  5.9863395914232891 10.307325489963032  5.9816070482149328 10.134144029977319  5.9732575699184887 9.810196066528702  5.9695799141287296 9.6599721647913359  5.9660596727612507 9.508439796987604  5.962696128858096 9.3556822290115438  5.9594886909402911 9.2017785491597568  5.953825838902481 8.9142104203814085  5.9513287141022921 8.780833407262076  5.9489452271971635 8.6467198061035138  5.9466751367854398 8.5119155750427584  5.9445182514739363 8.3764654530237603  5.9350174387073658 7.7440182437830645  5.9290636587323355 7.2394838909335348  5.9246100046943262 6.7290932674186585  5.9216548558133439 6.2148737463354715  5.9201979554147544 5.6987171196522395  5.9202844638761372 4.6443670109626476  5.9219578545846945 4.1064043431549742  5.9252592756300011 3.5707288369066315  5.9301891674792691 3.0394795474051883  5.936749724753839 2.5149675526357176  5.9471985581686253 1.858170944154933  5.9495759187575032 1.7172128230084045  5.9520772746705406 1.5770017469146553  5.9547028804936808 1.437589739032558  5.9574530553592391 1.2990304864934938  5.9637488441609108 0.99760993454206315  5.9673463753704183 0.83512669569538367  5.971121425341706 0.67402218650849577  5.9750748110746033 0.5143951520700224  5.9792075178015063 0.35635051991002414  5.9835206989873546 0.19999940000000002 
 0 7 0.11529917825290167 5 0.18419331255246507 5 0.27731730650597514 5 0.35540031485306811 5 0.42212356626789915 5 0.47882919194720297 5 0.52734533227021341 5 0.70435903578005243 5 0.88888781914365189 5 0.93962994319808102 5 1 7
7 0 0  6 57 12  0 10.350000000000001  0.052782555532409292 10.350000000000001  0.1054549526570332 10.339317621936008  0.15779666286444138 10.318036270170385  0.20958723831208595 10.286860876818391  0.26058353174478704 10.247093289299961  0.34031703532295382 10.172535832953285  0.36979194662238579 10.142147268264718  0.39891850274892865 10.109545585342525  0.4276940510322052 10.075028919924421  0.45611358714474642 10.038898393746752  0.52209293632196818 9.9508347888169464  0.55935724251773855 9.897806146739903  0.59600367018522549 9.8430195566561434  0.63206717385694355 9.7870803010317236  0.66757978401883855 9.7305390061526733  0.73191579627500636 9.6263826549874665  0.76089901108984292 9.5787914741517941  0.78954928972050809 9.5313896557565077  0.81789048827633692 9.4844281581483454  0.84594580121942542 9.4381326820634541  0.89748886004200157 9.3538863275364807  0.92104738928899599 9.3157014687781867  0.94442808049425508 9.2782778982898506  0.96764408910596789 9.241732730551627  0.99070828803036803 9.2061727470678552  1.0331163606227849 9.1423925202231384  1.0524984462548501 9.1138728103329747  1.0717867910096652 9.0861954236320681  1.0909882841881309 9.0594163791730491  1.1101094379103131 9.0335875581256744  1.1454525561337925 8.9875119472029219  1.1616943989751527 8.9669977739392408  1.1778857521730124 8.9472441521611703  1.1940302809521963 8.9282789681449941  1.2101314792288649 8.9101280262679108  1.2847927720362933 8.829647735962272  1.3428747990292929 8.7776199961643417  1.4005800500464118 8.7379154352241191  1.4580400963019382 8.7113136530088351  1.5153832062949248 8.6982011723802355  1.6325334398360603 8.6989797470608323  1.6923154531850813 8.714040715684364  1.7522366916560903 8.7437441573900134  1.8124432096133198 8.7876196702020319  1.8730852798392548 8.8447327625468066  1.9511653889994471 8.9326265734446952  1.9680519969191239 8.9524787653233933  1.9849891689474386 8.9731981039397137  2.0019810259598141 8.9947535626964665  2.0190319023798065 9.0171116093141155  2.056508125737027 9.0677485189482816  2.0769598653325771 9.0963457410533763  2.0975092400012532 9.1259673592377037  2.1181644216044559 9.1565473767717176  2.1389340788294855 9.1880143131046594  2.1598273771895449 9.2202912038645888 
 0 7 0.11529917825290167 5 0.18419331255246507 5 0.27731730650597514 5 0.35540031485306811 5 0.42212356626789915 5 0.47882919194720297 5 0.52734533227021341 5 0.70435903578005243 5 0.88888781914365189 5 0.93962994319808102 5 1 7
8 0 0.99999996138815295
7 0 0  6 57 12  6.2831853071795862 10.350000000000001  6.3359678627119953 10.350000000000001  6.3886402598366194 10.339317621936008  6.4409819700440281 10.318036270170385  6.4927725454916718 10.286860876818391  6.5437688389243736 10.247093289299961  6.6235023425025403 10.172535832953285  6.6529772538019722 10.142147268264718  6.682103809928515 10.109545585342525  6.7108793582117912 10.075028919924421  6.7392988943243326 10.038898393746752  6.8052782435015544 9.9508347888169464  6.8425425496973249 9.897806146739903  6.8791889773648114 9.8430195566561434  6.9152524810365295 9.7870803010317236  6.9507650911984245 9.7305390061526733  7.0151011034545929 9.6263826549874665  7.0440843182694293 9.5787914741517941  7.0727345969000943 9.5313896557565077  7.1010757954559232 9.4844281581483454  7.1291311083990117 9.4381326820634541  7.1806741672215875 9.3538863275364807  7.2042326964685826 9.3157014687781867  7.2276133876738413 9.2782778982898506  7.2508293962855541 9.241732730551627  7.2738935952099544 9.2061727470678552  7.3163016678023709 9.1423925202231384  7.3356837534344361 9.1138728103329747  7.3549720981892515 9.0861954236320681  7.3741735913677173 9.0594163791730491  7.3932947450898991 9.0335875581256744  7.4286378633133783 8.9875119472029219  7.4448797061547385 8.9669977739392408  7.4610710593525988 8.9472441521611703  7.4772155881317826 8.9282789681449941  7.4933167864084513 8.9101280262679108  7.5679780792158793 8.829647735962272  7.6260601062088789 8.7776199961643417  7.6837653572259983 8.7379154352241191  7.7412254034815247 8.7113136530088351  7.7985685134745113 8.6982011723802355  7.9157187470156467 8.6989797470608323  7.9755007603646675 8.714040715684364  8.0354219988356768 8.7437441573900134  8.0956285167929067 8.7876196702020319  8.1562705870188417 8.8447327625468066  8.2343506961790336 8.9326265734446952  8.2512373040987104 8.9524787653233933  8.2681744761270242 8.9731981039397137  8.2851663331394008 8.9947535626964665  8.3022172095593927 9.0171116093141155  8.3396934329166132 9.0677485189482816  8.3601451725121638 9.0963457410533763  8.3806945471808394 9.1259673592377037  8.4013497287840426 9.1565473767717176  8.4221193860090722 9.1880143131046594  8.4430126843691315 9.2202912038645888 
 0 7 0.11529917825290167 5 0.18419331255246507 5 0.27731730650597514 5 0.35540031485306811 5 0.42212356626789915 5 0.47882919194720297 5 0.52734533227021341 5 0.70435903578005243 5 0.88888781914365189 5 0.93962994319808102 5 1 7
8 -5.999999999062311e-07 16.800000000000001
1 15 -7.4833147735478827 1 0 
8 -5.999999999062311e-07 16.800000000000001
1 2.1598272970111707 0 0 1 
8 9.2202910800014983 10.421447637772321
1 8.4430126041907574 0 0 1 
2 0 0 1 0 -0 1 25.350000000000001
1 0 0.20000000000000001 1 0 
2 0 0 1 0 -0 1 25.350000000000001
1 0 46.600000000000094 1 0 
1 6.2831853071795862 -0 0 1 
1 0 -0 0 1 
Curves 12
1 26.5 -6.4906280354809723e-15 0 0 0 1 
7 0 0  6 52 11  26.5 -1.7763568394002505e-15 14  26.5 -0.47488555821333023 14  26.489787974471906 -0.94881240552143176 13.969931077617733  26.469441012962648 -1.4174355069503317 13.91002142590464  26.439630298434075 -1.8764621314978331 13.821576799917676  26.401597154305819 -2.3218105786353584 13.706962454763403  26.328949209097392 -3.0181535888653381 13.483525147596636  26.298310695676225 -3.280051202405657 13.388364089720191  26.265353504692083 -3.535127515389902 13.284772680974434  26.230407925447366 -3.7830949421825366 13.173372368166442  26.193807226576851 -4.0237063952690741 13.05479666773064  26.106127748942026 -4.5624580583790566 12.76558827600905  26.054083344327683 -4.8552046556800867 12.590221067737941  26.000404450219275 -5.1350189877803274 12.404775101426154  25.945697936700871 -5.401979059111933 12.210322385991754  25.89051352172531 -5.6562151123711528 12.007825253440044  25.78895306421391 -6.1010929781123764 11.621859462713777  25.74256539584832 -6.2954531561679135 11.44046464079476  25.696453282792987 -6.4811366267610575 11.254414083361945  25.650867449966928 -6.6582910913195628 11.064116814636703  25.606032401274195 -6.8270640264163704 10.869930351910895  25.52450922677912 -7.1252932611572275 10.502538176643471  25.487570015492548 -7.2569263200198941 10.330280120323241  25.451457859142451 -7.3825875280351854 10.155587681481096  25.416289457280467 -7.5023575326331517 9.9786430853121519  25.382170642814803 -7.6163121113916121 9.79960959873919  25.319999849981826 -7.8203350401436049 9.4583873933367801  25.291701654027563 -7.9116415885294478 9.2966235479346988  25.264368764538556 -7.9984880647997558 9.1334448258054799  25.238062983531179 -8.0809159817722165 8.968950891668948  25.212840944647066 -8.1589621174761149 8.8032362433656903  25.104138121076165 -8.491550756892341 8.0502673553170627  25.033496059997951 -8.6968749242708263 7.4499359924846331  24.979136979185231 -8.8497926742578912 6.8396164798092451  24.942544359250199 -8.951099283969139 6.2228336082800109  24.924457820626131 -9.0011890321235981 5.6027514305514527  24.925256104150048 -8.998978235537507 4.4657718189070303  24.93847408303273 -8.9623725799735254 3.9491767917311242  24.964531320493418 -8.8901857081344442 3.434564987445436  25.003059531383688 -8.7822318152765071 2.9238049847389909  25.0533226421765 -8.6381370789303542 2.4189090283741401  25.132649901228362 -8.4025740388459891 1.7716240568775079  25.152074548064729 -8.3444181590402824 1.6218274616348223  25.172444941845246 -8.282872017007838 1.4728274681878497  25.19372767993708 -8.2179154534320418 1.3246853073360672  25.215886322640525 -8.1495256278855326 1.1774643621540111  25.266531991738173 -7.9912821090552555 0.85538974217354291  25.295391145301011 -7.899888310809331 0.68098084206993459  25.325391266883013 -7.8034484895489546 0.50811183471317889  25.356457181888601 -7.7019110327579563 0.33690252450591518  25.388506128121136 -7.5952198499474859 0.16748415322069898  25.421447755782911 -7.4833143726559959 -5.999999986208479e-07 
 0 7 0.11536930848859338 5 0.18772323107515537 5 0.28263394023325994 5 0.36242291446202368 5 0.43085607454908137 5 0.49144912202122543 5 0.7043098640461033 5 0.88164302701241226 5 0.93538161892452754 5 1 7
2 0 0 0 0 0 1 1 0 -0 -0 1 0 26.5
7 0 0  6 52 11  25.421447755782918 7.4833143726559896 -5.999999981767587e-07  25.388866729164558 7.5939948579012508 0.165650753323519  25.357158950595377 7.6995745604293093 0.3331935935461911  25.326411837653797 7.8001120947267237 0.50248988121317162  25.296705540458579 7.8956617937866547 0.67341254368743975  25.26811294166879 7.9862737091088789 0.84584547514979835  25.217559750651166 8.1443508797177948 1.1664224752163506  25.195260706307327 8.2132209822644828 1.3141593728633436  25.173842587708673 8.2786298546858106 1.4628278159507306  25.15334237269705 8.3406007051321271 1.6123635918855552  25.133793952699751 8.3991540135581868 1.7627046890710263  25.05396251680753 8.6363094183116988 2.4123641636835984  25.003382842370812 8.7813330473612208 2.9191710093846139  24.964624753327683 8.8899308628046398 3.4319017777188656  24.93843456541218 8.9624821237152474 3.9485203094152292  24.925185040516528 8.9991750424568053 4.4671366716670411  24.924543529448577 9.0009516661487154 5.5995030524478997  24.942324170717136 8.9517091975648295 6.2129546387864307  24.978216301346848 8.8523351436518141 6.8232003424265351  25.031509169845371 8.7024518496281793 7.427172655713755  25.100778907013758 8.5012983079085327 8.0214618537145341  25.206694642004933 8.1778940144679826 8.7619843383926828  25.230624771244731 8.1040388770256513 8.9209422565243965  25.255557938300786 8.0261699222977665 9.0787955135722793  25.28144503181673 7.9442554347243108 9.2354616655112292  25.308232619778597 7.8582597367670113 9.3908540707798949  25.369192458916256 7.6594387196645997 9.730680312055604  25.403746830556425 7.5447417676934672 9.9144864303498483  25.439426391494056 7.4239781245197314 10.096148459696225  25.476119723348503 7.2970681307674203 10.275494335332299  25.513703662299914 7.1639266761608162 10.452331713200383  25.596486806724002 6.8627964074589825 10.828284446089276  25.641945368903745 6.6926349921365178 11.026463658523602  25.688211558424268 6.5138246952193883 11.220669070214951  25.735051792859448 6.3262107162260799 11.410529522016416  25.782204657858852 6.1296375345028524 11.595619270142942  25.884973012704915 5.6815508054213408 11.987392461113147  25.940609810363071 5.4264368576193016 12.19208389304992  25.995795849830021 5.158417492901596 12.388667607185896  26.049972322697347 4.8773544020405231 12.576166907902104  26.102521270415441 4.5831620260379902 12.753491404980844  26.190566877794993 4.0446355086481569 13.044249086650268  26.227066245177099 3.8059897650871837 13.162638833602905  26.261949123634931 3.5600660080342839 13.273973893831643  26.294889436192346 3.3070972606007909 13.377635378386328  26.325563170058984 3.0473557238024611 13.473014122052897  26.399262429236167 2.3489960994499484 13.69992491905885  26.438166236985193 1.8988712492444666 13.817232533937963  26.468690266707075 1.434604876872063 13.907810950015181  26.489535952781399 0.96040694757725764 13.969188998428837  26.5 0.48070972644151483 14  26.5 1.1021821192326179e-15 14 
 0 7 0.06391223279950195 5 0.11786136872229941 5 0.29588889705533239 5 0.50647858279248059 5 0.56451275373977916 5 0.63451736333543729 5 0.71566707318121847 5 0.81129950930549155 5 0.88322891703056094 5 1 7
2 0 0 46.400000000000091 0 0 1 1 0 -0 -0 1 0 26.5
1 15 7.4833147735478827 0 1 0 0 
7 0 0  6 57 12  24.220291203864591 7.4833143726559852 -5.9999999817150762e-07  24.187828375323107 7.5883826781448791 0.15725121324491642  24.156184868310177 7.6888602757958262 0.31621606483883474  24.125438975845167 7.7847988587907304 0.47678095673352749  24.095663385371676 7.8762450281296035 0.63883918971503795  24.066925178757515 7.9632402926305588 0.80229036340368232  24.016106656048773 8.1150757588315017 1.1052046266106201  23.99370040138453 8.181225716956126 1.2442818155118613  23.972103432937704 8.2442923618883004 1.3842160554398302  23.951349575129655 8.3042948886909205 1.5249531375104846  23.931470112167375 8.3612502689051613 1.6664405314736852  23.843848966188137 8.6102338663364595 2.3229731154627609  23.78700156756398 8.7656740059083535 2.8466267786899206  23.743353450758047 8.8820727449735397 3.3769720600959268  23.713831096898904 8.9598308452822426 3.9117109623763624  23.698900176007864 8.999146140625589 4.4487155157648859  23.698276219979793 9.0007891284164945 5.4959064020088348  23.711144309021062 8.9669054957122309 6.0058696131492804  23.737179330158501 8.8983651462627087 6.513956953604688  23.776011549794223 8.7950144144780023 7.0183415940699421  23.826896535692189 8.6565363456005624 7.5170691913914487  23.905774620346421 8.4343963665969017 8.1435085988587854  23.923678319710593 8.3836069923881897 8.2784820482380255  23.942393076044869 8.3300885630567034 8.4128225406966504  23.961893682330608 8.2738278480609182 8.5464860650189518  23.982152888200776 8.2148098943043131 8.6794274428447391  24.028585022546693 8.0781099529288127 8.971828794010321  24.055100335502754 7.9991253721947233 9.1309273236957935  24.08263527741973 7.9160345346224252 9.2888138714238497  24.111133094146286 7.8288033687374918 9.4454017000864514  24.140532338768125 7.7373934809017113 9.6005993817693973  24.204962375805753 7.5336023430575709 9.9281596677948247  24.240225098090111 7.4200458234054141 10.100101636115825  24.276460833931385 7.301026668676994 10.270003848401737  24.313565373547565 7.176474674367733 10.437716078931871  24.351424501904333 7.0463153591481067 10.60307073057845  24.434715333909036 6.7523474756604474 10.955394266744117  24.480370501547693 6.5865212267339563 11.14146075999375  24.52668597780232 6.4128559962548755 11.323802336378348  24.573445642771105 6.2312166833619216 11.502092703092154  24.620409488650029 6.0414681743657956 11.675959305630784  24.724366266135394 5.6026309743884459 12.050589038999673  24.781343335360997 5.3495306657854442 12.249077947370269  24.837747664952456 5.0839985163067691 12.439619169860181  24.893020986450171 4.8059077538231083 12.621276863049351  24.946548558966484 4.5151821708399673 12.793008537356188  25.03772346289804 3.9740451365209801 13.079563250863076  25.076307736954462 3.7284791672394082 13.198680896898161  25.113056396068291 3.4753241157637436 13.310329586673644  25.147603196030005 3.2148475522774795 13.413839297799095  25.179586314688891 2.9473603311253043 13.508554154654055  25.252917114457237 2.2558447270825788 13.723658599460633  25.290507809108846 1.8222840896599832 13.831845122870575  25.319905502327266 1.3760315881673986 13.915234325062423  25.339945284269707 0.92089806517767703 13.971679083937424  25.350000000000001 0.46087563301198964 14  25.350000000000001 1.1021821192326179e-15 14 
 0 7 0.060718137525454442 5 0.1116381696948652 5 0.29583593709838041 5 0.47072819325087867 5 0.51902761046646595 5 0.57757926763153433 5 0.64380167129732369 5 0.72088379368953581 5 0.81464866421149618 5 0.88812914703469459 5 1 7
7 0 0  6 57 12  25.350000000000001 -1.7763568394002505e-15 14  25.350000000000001 -0.47504299979168607 14  25.339317621936008 -0.94909462409359513 13.969911134301269  25.318036270170385 -1.4177874958325507 13.909969444444558  25.286860876818391 -1.8768065637616127 13.82149746373466  25.247093289299961 -2.3220465080521011 13.706886751506843  25.172535832953287 -3.0053342725433563 13.487638513389966  25.142147268264722 -3.2549889616028129 13.39744326455525  25.109545585342527 -3.4984429982235206 13.299591082354508  25.075028919924421 -3.7354458529687986 13.194622927606707  25.038898393746752 -3.9657803448718276 13.083090052311874  24.950834788816948 -4.491342536247207 12.806685242399785  24.897806146739899 -4.780943577723451 12.636828709481293  24.843019556656145 -5.0580821499656921 12.457118842456177  24.787080301031725 -5.3228266634460804 12.268583451411937  24.730539006152679 -5.5752958338125458 12.072147314106155  24.626382654987463 -6.0171963496353991 11.697991124219385  24.578791474151796 -6.2102631003706081 11.522338551684634  24.531389655756502 -6.3949976069864638 11.342115238361856  24.484428158148344 -6.5715401460997134 11.157711337260531  24.438132682063454 -6.7400312142746044 10.969468057620388  24.353886327536475 -7.0378303910707158 10.613789424251232  24.315701468778187 -7.169272760610613 10.44731109556615  24.278277898289847 -7.2950195227401053 10.278432486203146  24.241732730551629 -7.4151470328957094 10.107325489963035  24.206172747067857 -7.5297272607516677 9.93414402997732  24.142392520223144 -7.7315482985024238 9.610196066528701  24.113872810332975 -7.8203085595083657 9.4599721647913384  24.086195423632073 -7.9051474438230427 9.3084397969876047  24.059416379173047 -7.9861000116633702 9.1556822290115445  24.033587558125674 -8.0631975128779239 9.0017785491597575  23.987511947202918 -8.1991555497032067 8.7142104203814057  23.966997773939241 -8.2590418340436216 8.5808334072620731  23.947244152161172 -8.3161433952252448 8.4467198061035145  23.928278968144994 -8.370475621318997 8.3119155750427609  23.910128026267909 -8.4220521332096379 8.1764654530237593  23.829647735962268 -8.6490532954565698 7.5440182437830634  23.777619996164344 -8.7907400247613854 7.0394838909335276  23.737915435224114 -8.8964310560336042 6.5290932674186593  23.711313653008833 -8.9664595472536153 6.0148737463354784  23.698201172380237 -9.0009867429206807 5.4987171196522384  23.698979747060836 -8.9989366150230818 4.4443670109626474  23.714040715684362 -8.9592788038362965 3.9064043431549735  23.743744157390012 -8.8810390932104628 3.3707288369066304  23.787619670202034 -8.7640174544672931 2.8394795474051868  23.844732762546808 -8.6078092259249726 2.314967552635717  23.932626573444693 -8.3579392712445237 1.6581709441549324  23.952478765323395 -8.3010366059154492 1.5172128230084041  23.973198103939712 -8.2411073960225547 1.3770017469146547  23.994753562696463 -8.178134788406048 1.2375897390325583  24.017111609314114 -8.1120997339655627 1.0990304864934937  24.067748518948282 -7.9607474840713577 0.79760993454206319  24.096345741053373 -7.8741490949158814 0.63512669569538305  24.125967359237702 -7.7831499300737148 0.47402218650849509  24.156547376771712 -7.6877091322534428 0.31439515207002261  24.188014313104659 -7.5877808769922668 0.1563505199100256  24.220291203864587 -7.4833143726559896 -5.9999999861559683e-07 
 0 7 0.11529917825290167 5 0.18419331255246507 5 0.27731730650597514 5 0.35540031485306811 5 0.42212356626789915 5 0.47882919194720297 5 0.52734533227021341 5 0.70435903578005243 5 0.88888781914365189 5 0.93962994319808102 5 1 7
1 15 -7.4833147735478827 0 1 0 0 
2 0 0 0 0 0 1 1 0 -0 -0 1 0 25.350000000000001
2 0 0 46.400000000000091 0 0 1 1 0 -0 -0 1 0 25.350000000000001
1 25.350000000000001 -6.2089592716770812e-15 -0.20000000000000001 0 0 1 
Polygon3D 0
PolygonOnTriangulations 0
Surfaces 6
2 0 0 0 0 0 1 1 0 -0 -0 1 0 26.5
2 15 0 5 1 0 0 -0 0 1 0 -1 0 9
10 3.1415926535897949 9.4247779607693811 -2e+100 2e+100
2 15 0 5 1 0 0 -0 0 1 0 -1 0 9
1 0 0 0 0 0 1 1 0 -0 -0 1 0 
1 0 0 46.400000000000091 0 0 1 1 0 -0 -0 1 0 
2 0 0 -0.20000000000000001 0 0 1 1 0 -0 -0 1 0 25.350000000000001
Triangulations 0

TShapes 33
Ve
2.45961796788001e-07
26.5 -2.14313189850787e-15 14
0 0

0101101
*
Ve
1e-07
26.5 -6.49062803548097e-15 46.4000000000001
0 0

0101101
*
Ed
 1e-07 1 1 0
1  1 0 14 46.4000000000001
3  1 2CN 1 0 14 46.4000000000001
0

0101000
+33 0 -32 0 *
Ve
2.23729537753869e-07
25.4214476377723 -7.48331477354789 0
0 0

0101101
*
Ed
 2.23729531229347e-07 1 1 0
1  2 0 0 0.999999961418351
2  3 1 0 0 0.999999961418351
2  4 2 0 0 0.999999961418351
2  5 3 0 0 0.999999961418351
0

0101000
+33 0 -30 0 *
Ve
2.45960801162299e-07
25.4214476377723 7.48331477354788 0
0 0

0101101
*
Ed
 1e-07 1 1 0
1  3 0 0.286283804007959 5.99690150317163
2  6 1 0 0.286283804007959 5.99690150317163
2  7 4 0 0.286283804007959 5.99690150317163
0

0101000
+28 0 -30 0 *
Ed
 2.45960796788001e-07 1 1 0
1  4 0 3.8582377963239e-08 1
2  8 1 0 3.8582377963239e-08 1
2  9 2 0 3.8582377963239e-08 1
2  10 3 0 3.8582377963239e-08 1
0

0101000
+28 0 -33 0 *
Ed
 1e-07 1 1 0
1  5 0 0 6.28318530717959
2  11 1 0 0 6.28318530717959
2  12 5 0 0 6.28318530717959
0

0101000
+32 0 -32 0 *
Wi

0101100
+31 0 -29 0 +27 0 -26 0 -31 0 -25 0 *
Fa
0  1e-07 1 0

0101000
+24 0 *
Ve
1.97610249121107e-07
24.2202910800015 7.48331477354789 0
0 0

0101101
*
Ed
 1e-07 1 1 0
1  6 0 9.22029108000149 10.4214476377723
2  13 4 0 9.22029108000149 10.4214476377723
2  14 2 0 9.22029108000149 10.4214476377723
2  15 3 0 9.22029108000149 10.4214476377723
0

0101000
+22 0 -28 0 *
Ve
2.05825718498625e-07
25.35 -2.00229751660592e-15 14
0 0

0101101
*
Ed
 1.97610243547672e-07 1 1 0
1  7 0 3.86120422294277e-08 1
2  16 6 0 3.86120422294277e-08 1
2  17 2 0 3.86120422294277e-08 1
2  18 3 0 3.86120422294277e-08 1
0

0101000
+22 0 -20 0 *
Ve
2.05824726381971e-07
24.2202910800015 -7.48331477354788 0
0 0

0101101
*
Ed
 2.05824718498625e-07 1 1 0
1  8 0 0 0.999999961388153
2  19 6 0 0 0.999999961388153
2  20 2 0 0 0.999999961388153
2  21 3 0 0 0.999999961388153
0

0101000
+20 0 -18 0 *
Ed
 1e-07 1 1 0
1  9 0 9.2202910800015 10.4214476377723
2  22 4 0 9.2202910800015 10.4214476377723
2  23 2 0 9.2202910800015 10.4214476377723
2  24 3 0 9.2202910800015 10.4214476377723
0

0101000
+18 0 -30 0 *
Wi

0101100
-29 0 -26 0 -21 0 +19 0 +17 0 +16 0 *
Fa
0  0 3 0

0101000
+15 0 *
Ed
 1e-07 1 1 0
1  10 0 0.299664624744134 5.98352068243545
2  25 4 0 0.299664624744134 5.98352068243545
2  26 6 0 0.299664624744134 5.98352068243545
0

0101000
+22 0 -18 0 *
Wi

0101100
+21 0 -13 0 -16 0 +27 0 *
Fa
0  1e-07 4 0

0101000
+12 0 *
Wi

0101100
+25 0 *
Ve
1.00000006208959e-07
25.35 -6.20895927167708e-15 46.4000000000001
0 0

0101101
*
Ed
 1e-07 1 1 0
1  11 0 0 6.28318530717959
2  27 5 0 0 6.28318530717959
2  28 6 0 0 6.28318530717959
0

0101100
+9 0 -9 0 *
Wi

0101100
-8 0 *
Fa
0  1e-07 5 0

0101000
+10 0 +7 0 *
Ed
 1e-07 1 1 0
1  12 0 14.2 46.6000000000001
3  29 30CN 6 0 14.2 46.6000000000001
0

0101000
+20 0 -9 0 *
Wi

0101100
+5 0 -17 0 +13 0 -19 0 -5 0 -8 0 *
Fa
0  1e-07 6 0

0101000
+4 0 *
Sh

0101100
+23 0 -14 0 -11 0 +6 0 -3 0 *
So

0100000
+2 0 *

+1 0 