DBRep_DrawableShape

CASCADE Topology V3, (c) Open Cascade
Locations 25
1
              1              -0               0              -0 
              0               1               0               0 
             -0               0               1              -0 
2  1 -1 0
1
              1              -0               0              -0 
              0               1               0               0 
             -0               0               1              -0 
1
              1              -0               0              -0 
              0               1               0               0 
             -0               0               1              -0 
1
              1              -0               0              -0 
              0               1               0               0 
             -0               0               1              -0 
2  5 1 4 -1 0
2  4 -1 0
1
              1              -0               0              -0 
              0               1               0               0 
             -0               0               1              -0 
2  8 -1 0
2  5 -1 0
1
              1               0               0               0 
              0               1               0               0 
              0               0               1            1218 
1
              1               0               0               0 
              0               1               0               0 
              0               0               1          -480.6 
1
              1               0               0               0 
              0               1               0               0 
              0               0               1          -480.6 
1
              1               0               0               0 
              0               1               0               0 
              0               0               1               0 
1
              1               0               0               0 
              0               1               0               0 
              0               0               1        1210.306 
2  11 1 12 1 13 -1 14 -1 15 -1 5 -1 0
1
              1               0               0               0 
              0               1               0               0 
              0               0               1          -480.6 
1
           -0.5 -0.866025403784439               0               0 
0.866025403784439            -0.5               0               0 
              0               0               1               0 
1
              1               0               0               0 
              0               1               0               0 
              0               0               1        1210.306 
2  11 1 12 1 17 -1 18 -1 19 -1 5 -1 0
1
              1               0               0               0 
              0               1               0               0 
              0               0               1          -480.6 
1
           -0.5 0.866025403784438               0               0 
-0.866025403784438            -0.5               0               0 
              0               0               1               0 
1
              1               0               0               0 
              0               1               0               0 
              0               0               1        1210.306 
2  11 1 12 1 21 -1 22 -1 23 -1 5 -1 0
2  3 -1 0
Curve2ds 186
1 0 0 1 0 
1 0 0 1 0 
8 -3 -2.5
1 2.5499999999999998 2.5 0 1 
8 -3 -2.5
1 0.72000000000000064 2.5 0 -1 
1 0 0 1 0 
1 0 -0.5 1 0 
1 0 0 1 0 
1 0 0 0 -1 
1 0 0 0 1 
1 0 0 0 1 
1 0 0 0 -1 
1 0 0 0 -1 
1 0 0 0 1 
1 0 8 1 0 
1 0 0 1 0 
1 0 0 1 0 
1 6.2000000000000002 8 -1 0 
1 6.2000000000000002 -0.5 -1 0 
1 0.40000000000000036 0 0 -1 
1 0.5 0 0 1 
1 0.5 0 0 1 
1 6.2000000000000002 5 0 -1 
1 3.6500000000000004 8.7200000000000006 -1 0 
1 6.2000000000000002 5 -1 0 
1 0 0 0 -1 
1 0 5 0 -1 
1 0 8 1 0 
1 0 -0.5 1 0 
1 0 4.5 1 0 
1 0 0 0 -1 
1 0.5 0 0 1 
1 5.7999999999999998 5 0 -1 
1 0 0 0 1 
1 0 0 0 -1 
1 0 0 0 -1 
8 3.75 4.25
1 5.7999999999999998 3.75 0 1 
8 3.75 4.25
1 -3.75 5 1 0 
8 3.75 4.25
1 5.7999999999999998 3.75 0 1 
8 3.75 4.25
1 -3.75 0.5 1 0 
1 0.20000000000000018 0 1 0 
1 3.4500000000000002 8.2200000000000006 1 0 
8 0 0.5
1 7.5 0 0 1 
8 0 0.5
1 0.20000000000000018 0 0 -1 
1 0.20000000000000018 0 0 -1 
8 -3.1000000000000001 -2.8999999999999999
1 2.8999999999999999 7.5 -1 0 
8 -3.1000000000000001 -2.8999999999999999
1 -2.8999999999999999 -0.5 -1 0 
1 -2.8999999999999999 -0.5 -1 0 
8 -3.1000000000000001 -2.8999999999999999
1 2.8999999999999999 7.5 -1 0 
8 -3.1000000000000001 -2.8999999999999999
1 -2.8999999999999999 -5 -1 0 
1 -2.8999999999999999 -5 -1 0 
8 2.5 3
1 7.5 -2.5 0 1 
8 2.5 3
1 0.20000000000000018 -2.5 0 -1 
1 0.20000000000000018 -2.5 0 -1 
1 0.20000000000000018 -5.5 1 0 
1 6 7.5 1 0 
1 0.4939999999999598 0 0 -1 
1 0 0 0 1 
1 0.89399999999996016 0 0 -1 
1 0.4939999999999598 0 0 1 
1 0 5.5 1 0 
1 6.69399999999996 7.5 0 1 
1 1.5 0 0 1 
1 0.4939999999999598 0 0 -1 
1 20 -2.75 0 1 
1 -7.6184301395927898 18.695508075688775 -0.86602540378443882 -0.49999999999999983 
1 -12.381569860407215 -15.945508075688769 0.86602540378443849 -0.50000000000000044 
1 0.4939999999999598 0 0 1 
1 0 0 1 0 
1 4.1439999999999602 8.2200000000000006 0 1 
1 0 1.5 1 0 
1 0 0 1 0 
1 3.6500000000000004 9.7200000000000006 1 0 
1 0 1.5 1 0 
1 0 -5.5 1 0 
1 6.2000000000000002 9 1 0 
1 1.5 0 0 1 
1 0 0 0 -1 
1 6 0 0 1 
1 0 0.5 1 0 
1 6 0 0 1 
1 6 0 0 1 
1 0 0 1 0 
1 6 0 0 -1 
1 0 0 0 1 
1 0 0 1 0 
8 -3 -2.5
1 3.4500000000000002 2.5 0 1 
8 -3 -2.5
1 0.72000000000000064 2.5 0 -1 
1 0 5.5 1 0 
1 0.90000000000000002 0 0 1 
1 3.4500000000000002 -0.72000000000000064 0 1 
8 0.35999999999999943 0.47999999999999876
1 3.4500000000000002 -0.35999999999999943 0 1 
8 0.35999999999999943 0.47999999999999876
1 0.36000000000000121 5 1 0 
1 0.83999999999999986 0 0 1 
1 0.90000000000000002 0 0 -1 
8 0.35999999999999943 0.47999999999999876
1 3.4500000000000002 -0.35999999999999943 0 1 
8 0.35999999999999943 0.47999999999999876
1 0.36000000000000121 0.5 1 0 
8 -0.5 0
1 3.4500000000000002 0 0 1 
8 -0.5 0
1 0.72000000000000064 0 0 -1 
1 0 0 1 0 
1 0.90000000000000002 0 0 1 
1 0.90000000000000002 0 0 1 
1 0 0 0 1 
1 0.90000000000000002 0 0 -1 
1 0 0 1 0 
1 0 0 1 0 
1 0 0 1 0 
1 0 0 1 0 
1 2.5499999999999998 -0.72000000000000064 1 0 
1 0 -5.5 1 0 
1 0 0 0 1 
1 0 0 0 -1 
1 0 0 1 0 
1 0 0 1 0 
1 -2.5499999999999998 0.72000000000000064 1 0 
1 6 0 0 -1 
1 0 0 0 1 
1 0 -0.5 1 0 
1 0 0 1 0 
8 -2.1750000000000003 -1.2750000000000001
1 1.2749999999999999 0.11999999999999922 -1 0 
8 -2.1750000000000003 -1.2750000000000001
1 -1.2750000000000001 -5 -1 0 
1 0.83999999999999986 0 0 1 
1 0 0 0 -1 
8 -2.1750000000000003 -1.2750000000000001
1 1.2749999999999999 0.11999999999999922 -1 0 
8 -2.1750000000000003 -1.2750000000000001
1 -1.2750000000000001 -0.5 -1 0 
1 6 0 0 1 
1 0 0.5 1 0 
1 6 0 0 1 
1 0 0 1 0 
1 3.4500000000000002 0.72000000000000064 0 1 
1 0 0 0 1 
8 0.35999999999999943 0.47999999999999876
1 2.5499999999999998 -0.35999999999999943 0 1 
8 0.35999999999999943 0.47999999999999876
1 0.36000000000000121 0.5 1 0 
2 3 6 1 0 -0 1 0.65000000000000002
1 0 0.95000000000000018 1 0 
1 6.2831853071795862 -0 0 1 
1 0 -0 0 1 
2 3 6 1 0 -0 1 0.65000000000000002
1 0 0.45000000000000018 1 0 
2 0.45000000000000001 6.7200000000000006 1 0 -0 1 0.65000000000000002
1 -2.5499999999999998 0.72000000000000064 1 0 
8 -0.5 0
1 2.5499999999999998 0 0 1 
8 -0.5 0
1 0.72000000000000064 0 0 -1 
1 0 0 0 -1 
1 0 0 0 1 
1 -2.5499999999999998 0.72000000000000064 0 1 
1 0 0 1 0 
1 0 0 0 1 
1 0 0 0 1 
1 0 0 0 1 
1 0 0 1 0 
1 3.6500000000000004 8.2200000000000006 0 1 
1 0 5.5 1 0 
1 0 0 0 1 
1 6.2000000000000002 7.5 0 1 
1 0 5.5 1 0 
1 0 0 0 1 
1 2.5499999999999998 -0.72000000000000064 0 1 
2 3 6 1 0 -0 1 1.1499999999999999
1 0 0.50999999999999934 1 0 
2 3 6 1 0 -0 1 1.1499999999999999
1 6.2831853071795862 0.50999999999999934 0 1 
1 0 0.50999999999999934 0 1 
1 0 7.2999999999999998 1 0 
2 0 0 1 0 -0 1 1.1499999999999999
8 0 6.2831853071795862
1 0 0.34999999999999998 1 0 
2 0 0 1 0 -0 1 1.1499999999999999
2 0 0 1 0 -0 1 0.65000000000000002
1 0 0.65000000000000036 1 0 
1 6.2831853071795862 -0 0 1 
1 0 -0 0 1 
2 0 0 1 0 -0 1 0.65000000000000002
1 0 0.30000000000000071 1 0 
1 0 7.2499999999999973 1 0 
2 0 0 1 0 -0 1 0.84999999999999998
2 0 0 1 0 -0 1 0.84999999999999998
1 0 0.30000000000000004 1 0 
1 0 7.2499999999999973 -0 -1 
1 6.2831853071795862 7.2499999999999973 -0 -1 
1 0 0 1 0 
2 0 0 1 0 -0 1 1.1499999999999999
2 3 6 1 0 -0 1 1.1499999999999999
1 0 0.0099999999999993427 1 0 
1 6.2831853071795862 -0 0 1 
1 0 -0 0 1 
8 0.35999999999999943 0.47999999999999876
1 2.5499999999999998 -0.35999999999999943 0 1 
8 0.35999999999999943 0.47999999999999876
1 0.36000000000000121 5 1 0 
Curves 77
1 11 2.25 -3 0 0 1 
1 11 -0.25 -0.45000000000000007 0 -1 0 
1 11 2.75 -3 0 0 1 
1 11 2.25 -3 0 1 0 
1 11 2.75 -3 1 0 0 
1 19 2.25 -3 0 1 0 
1 11 2.25 -3 1 0 0 
1 19 2.25 -3 0 0 1 
8 0 6.2000000000000002
1 19 2.75 3.2000000000000002 0 0 -1 
1 19 -2.75 3.2000000000000002 0 1 0 
8 0 6.2000000000000002
1 19 -2.75 3.2000000000000002 0 0 -1 
1 19 -2.75 -3 0 1 0 
1 19 -2.25 -3 0 0 1 
1 19 -2.75 2.7999999999999998 0 1 0 
1 18.5 -2.75 2.7999999999999998 0 1 0 
1 14.75 2.25 2.7999999999999998 1 0 0 
1 14.75 -2.25 2.7999999999999998 1 0 0 
8 0 0.69399999999995998
1 18.5 -2.75 3 0 0 1 
1 18.5 -2.75 3 0 1 0 
1 18.5 -2.25 -0.10000000000000009 0 0 -1 
1 18.5 2.25 -0.10000000000000009 0 0 -1 
1 18.5 -0.25 3 0 1 0 
8 0 0.69399999999995998
1 18.5 2.75 3 0 0 1 
1 18.5 -2.75 3.69399999999996 0 1 0 
1 18.5 2.75 3.69399999999996 1 0 0 
1 20 -2.75 3.69399999999996 0 1 0 
1 18.5 -2.75 3.69399999999996 1 0 0 
1 20 -2.75 3.2000000000000002 0 0 1 
1 20 2.75 3.2000000000000002 0 0 1 
1 20 -2.75 3.2000000000000002 0 1 0 
1 11 2.75 3 1 0 0 
1 11 2.25 3 1 0 0 
1 11 2.25 3 0 1 0 
1 11 -0.25 0.45000000000000007 0 -1 0 
1 10.279999999999999 2.75 0.45000000000000001 1 0 0 
1 10.640000000000001 2.25 0.45000000000000007 1 0 0 
1 11.119999999999999 -2.75 0.45000000000000001 0 1 0 
1 10.640000000000001 -2.25 0.45000000000000007 1 0 0 
1 11 -2.75 0.45000000000000007 0 -1 0 
1 10.279999999999999 -2.75 0.45000000000000001 1 0 0 
1 10.279999999999999 -2.75 0.45000000000000001 0 1 0 
1 10.279999999999999 -2.75 -0.45000000000000001 0 0 1 
1 10.279999999999999 2.75 -0.45000000000000001 0 0 1 
1 10.279999999999999 -2.75 -0.45000000000000001 0 1 0 
1 11 -2.75 -3 0 0 1 
1 11 -2.75 3 0 1 0 
1 11 -2.25 -3 0 0 1 
1 11.119999999999999 2.25 -1.7250000000000001 0 0 -1 
1 11.119999999999999 -2.75 -0.45000000000000001 0 1 0 
1 11.119999999999999 -2.25 -1.7250000000000001 0 0 -1 
1 11 -2.25 3 1 0 0 
1 11 -2.75 3 1 0 0 
1 11 -2.25 -3 1 0 0 
1 10.640000000000001 -2.25 -0.45000000000000007 1 0 0 
2 17 -2.25 0 0 1 0 0 -0 1 1 0 -0 0.65000000000000002
1 17 -3.2000000000000002 0.65000000000000002 0 1 0 
2 17 -2.75 0 0 1 0 0 -0 1 1 0 -0 0.65000000000000002
1 11 -2.75 -0.45000000000000007 0 -1 0 
1 11 -2.75 -3 0 1 0 
1 11 -2.75 -3 1 0 0 
1 10.279999999999999 -2.75 -0.45000000000000001 1 0 0 
1 18.5 -2.75 3.2000000000000002 1 0 0 
1 18.5 2.75 3.2000000000000002 1 0 0 
1 10.279999999999999 2.75 -0.45000000000000001 1 0 0 
2 17 2.75 0 0 1 0 0 -0 1 1 0 -0 1.1499999999999999
8 0 6.7899999999999991
1 17 2.75 1.1499999999999999 0 1 0 
2 17 9.5400000000000009 0 0 1 0 0 -0 1 1 0 -0 1.1499999999999999
2 17 9.5399999999999974 0 0 1 0 0 -0 1 1 0 -0 0.65000000000000002
1 17 8.889999999999997 0.65000000000000002 0 1 0 
2 17 9.1899999999999977 0 0 1 0 0 -0 1 1 0 -0 0.65000000000000002
2 17 9.1899999999999977 0 0 1 0 0 -0 1 1 0 -0 0.84999999999999998
2 17 2.2400000000000007 0 0 1 0 0 -0 1 1 0 -0 0.84999999999999998
8 0 6.9499999999999975
1 17 9.1899999999999977 0.84999999999999998 0 -1 0 
2 17 2.2400000000000007 0 0 1 0 0 -0 1 1 0 -0 1.1499999999999999
2 17 2.25 0 0 1 0 0 -0 1 1 0 -0 1.1499999999999999
1 17 2.2400000000000007 1.1499999999999999 0 1 0 
1 10.640000000000001 2.25 -0.45000000000000007 1 0 0 
Polygon3D 0
PolygonOnTriangulations 0
Surfaces 43
1 11 2.25 -3 1 0 0 0 0 1 0 -1 0 
1 11 2.25 -3 0 1 0 0 0 1 1 0 0 
1 10.279999999999999 -2.75 -0.45000000000000001 0 0 1 1 0 0 0 1 0 
1 11 2.75 -3 0 1 0 0 0 1 1 0 0 
1 11 2.75 -3 0 1 0 0 0 1 1 0 0 
1 11 2.25 -3 0 0 1 1 0 0 0 1 0 
1 19 2.25 -3 1 0 0 0 0 1 0 -1 0 
1 19 2.25 -3 1 0 0 0 0 1 0 -1 0 
1 19 -2.75 2.7999999999999998 1 0 0 0 0 1 0 -1 0 
1 18.5 -2.75 3.2000000000000002 0 0 1 1 0 0 0 1 0 
1 18.5 -2.75 3.2000000000000002 0 0 1 1 0 0 0 1 0 
1 10.279999999999999 -2.75 -0.45000000000000001 0 1 0 0 0 1 1 0 0 
1 19 -2.75 -3 1 0 0 0 0 1 0 -1 0 
1 11 -2.25 -3 0 1 0 0 0 1 1 0 0 
1 18.5 -2.75 2.7999999999999998 0 0 1 1 0 0 0 1 0 
1 18.5 -2.75 2.7999999999999998 1 0 0 0 0 1 0 -1 0 
1 18.5 -2.75 2.7999999999999998 1 0 0 0 0 1 0 -1 0 
1 11 -2.75 3 0 0 1 1 0 0 0 1 0 
1 11 2.25 3 0 0 1 1 0 0 0 1 0 
1 18.5 -2.75 3.2000000000000002 1 0 0 0 0 1 0 -1 0 
1 18.5 -2.75 3.69399999999996 0 0 1 1 0 0 0 1 0 
1 18.5 2.75 3.2000000000000002 0 1 0 0 0 1 1 0 0 
1 20 -2.75 3.2000000000000002 1 0 0 0 0 1 0 -1 0 
1 0 0 -4 0 0 1 1 0 -0 -0 1 0 
1 18.5 -2.75 3.2000000000000002 0 1 0 0 0 1 1 0 0 
1 10.279999999999999 -2.75 0.45000000000000001 0 0 1 1 0 0 0 1 0 
1 10.279999999999999 2.75 -0.45000000000000001 0 1 0 0 0 1 1 0 0 
1 11.119999999999999 -2.75 -0.45000000000000001 1 0 0 0 0 1 0 -1 0 
1 11 -2.75 -3 1 0 0 0 0 1 0 -1 0 
1 10.279999999999999 -2.75 -0.45000000000000001 0 1 0 0 0 1 1 0 0 
1 10.279999999999999 -2.75 -0.45000000000000001 1 0 0 0 0 1 0 -1 0 
1 11 -2.75 -3 0 1 0 0 0 1 1 0 0 
2 17 -3.2000000000000002 0 0 1 0 0 -0 1 1 0 -0 0.65000000000000002
1 11 -2.75 -3 0 0 1 1 0 0 0 1 0 
2 17 2.2400000000000007 0 0 1 0 0 -0 1 1 0 -0 1.1499999999999999
1 17 9.5400000000000009 0 0 1 0 0 -0 1 1 0 -0 
2 17 9.1899999999999977 0 0 1 0 0 -0 1 1 0 -0 1.1499999999999999
1 17 9.5399999999999974 0 0 1 0 0 -0 1 1 0 -0 
1 17 9.5400000000000009 0 0 1 0 0 -0 1 1 0 -0 
2 17 8.889999999999997 0 0 1 0 0 -0 1 1 0 -0 0.65000000000000002
1 17 9.1899999999999977 0 0 1 0 0 -0 1 1 0 -0 
2 17 1.9400000000000006 0 0 1 0 0 -0 1 1 0 -0 0.84999999999999998
1 17 2.2400000000000007 0 0 1 0 0 -0 1 1 0 -0 
Triangulations 0

TShapes 204
Ve
1e-07
11 2.25 -3
0 0

0101101
*
Ve
1.50000000111022e-07
11 2.25 -0.45
0 0

0101101
*
Ed
 1e-07 1 1 0
1  1 0 0 2.55
2  1 1 0 0 2.55
2  2 2 0 0 2.55
0

0101000
+204 2 -203 2 *
Ve
1.5e-07
11 2.75 -0.45
0 0

0101101
*
Ed
 1.5e-07 1 1 0
1  2 0 -3 -2.5
2  3 1 1 -3 -2.5
2  4 3 3 -3 -2.5
0

0101000
+201 0 -203 0 *
Ve
1e-07
11 2.75 -3
0 0

0101101
*
Ed
 1e-07 1 1 0
1  3 0 0 2.55
2  5 4 0 0 2.55
2  6 1 0 0 2.55
2  7 5 2 0 2.55
0

0101000
+199 2 -201 2 *
Ed
 1e-07 1 1 0
1  4 0 0 0.5
2  8 1 0 0 0.5
0

0101000
-199 2 +204 2 *
Wi

0101100
-202 1 +200 0 +198 1 +197 1 *
Fa
0  1e-07 1 1

0101000
+196 0 *
Ve
1e-07
19 2.75 -3
0 0

0101101
*
Ed
 1e-07 1 1 0
1  5 0 0 8
2  9 4 0 0 8
2  10 5 2 0 8
0

0101000
-194 2 +199 2 *
Ve
1e-07
19 2.25 -3
0 0

0101101
*
Ed
 1e-07 1 1 0
1  6 0 0 0.5
2  11 7 0 0 0.5
2  12 8 2 0 0.5
0

0101000
-194 2 +192 2 *
Ed
 1e-07 1 1 0
1  7 0 0 8
2  13 2 0 0 8
0

0101000
-192 2 +204 2 *
Wi

0101100
-197 0 -193 0 +191 0 +190 0 *
Fa
0  1e-07 6 0

0101000
+189 0 *
Ve
1.5e-07
19 2.25 2.8
0 0

0101101
*
Ed
 1e-07 1 1 0
1  8 0 0 5.8
2  14 2 0 0 5.8
2  15 7 0 0 5.8
2  16 8 2 0 5.8
0

0101000
+192 2 -187 2 *
Ve
1e-07
19 2.75 3.2
0 0

0101101
*
Ed
 1e-07 1 1 0
1  9 0 0 6.2
2  17 5 0 0 6.2
2  18 8 0 0 6.2
0

0101000
+185 0 -194 0 *
Ve
1e-07
19 -2.75 3.2
0 0

0101101
*
Ed
 1e-07 1 1 0
1  10 0 0 5.5
2  19 9 0 0 5.5
2  20 10 0 0 5.5
2  21 11 6 0 5.5
2  22 8 7 0 5.5
0

0101000
-185 7 +183 7 *
Ve
1e-07
19 -2.75 -3
0 0

0101101
*
Ed
 1e-07 1 1 0
1  11 0 0 6.2
2  23 12 0 0 6.2
2  24 8 0 0 6.2
0

0101000
+183 0 -181 0 *
Ve
1e-07
19 -2.25 -3
0 0

0101101
*
Ed
 1e-07 1 1 0
1  12 0 0 0.5
2  25 13 0 0 0.5
2  26 8 9 0 0.5
0

0101000
-179 9 +181 9 *
Ve
1.5e-07
19 -2.25 2.8
0 0

0101101
*
Ed
 1e-07 1 1 0
1  13 0 0 5.8
2  27 14 0 0 5.8
2  28 13 0 0 5.8
2  29 8 9 0 5.8
0

0101000
+179 9 -177 9 *
Ed
 1e-07 1 1 0
1  14 0 0.5 5
2  30 9 0 0.5 5
2  31 15 0 0.5 5
2  32 8 7 0.5 5
0

0101000
+177 7 -187 7 *
Wi

0101100
-186 1 +191 1 -184 0 -182 4 +180 0 +178 8 +176 8 +175 4 *
Fa
0  0 8 0

0101000
+174 0 *
Ve
1.5e-07
18.5 -2.25 2.8
0 0

0101101
*
Ve
1.5e-07
18.5 2.25 2.8
0 0

0101101
*
Ed
 1e-07 1 1 0
1  15 0 0.5 5
2  33 15 0 0.5 5
2  34 16 0 0.5 5
2  35 17 7 0.5 5
0

0101000
+172 7 -171 7 *
Ed
 1.5e-07 1 1 0
1  16 0 3.75 4.25
2  36 2 1 3.75 4.25
2  37 15 4 3.75 4.25
0

0101000
+171 0 -187 0 *
Ed
 1.5e-07 1 1 0
1  17 0 3.75 4.25
2  38 14 8 3.75 4.25
2  39 15 4 3.75 4.25
0

0101000
+172 0 -177 0 *
Wi

0101100
-170 4 -169 0 +175 4 +168 0 *
Fa
0  1e-07 15 4

0101000
+167 0 *
Ve
1.5e-07
18.5 -2.75 3
0 0

0101101
*
Ve
1e-07
18.5 -2.75 3.69399999999996
0 0

0101101
*
Ed
 1e-07 1 1 0
1  18 0 0 0.69399999999996
2  40 17 0 0 0.69399999999996
2  41 12 0 0 0.69399999999996
0

0101000
+165 0 -164 0 *
Ve
1.5e-07
18.5 -2.25 3
0 0

0101101
*
Ed
 1.5e-07 1 1 0
1  19 0 0 0.5
2  42 18 8 0 0.5
2  43 16 4 0 0.5
2  44 17 0 0 0.5
0

0101000
+165 0 -162 0 *
Ed
 1.5e-07 1 1 0
1  20 0 -3.1 -2.9
2  45 14 8 -3.1 -2.9
2  46 16 4 -3.1 -2.9
2  47 17 0 -3.1 -2.9
0

0101000
+162 0 -172 0 *
Ve
1.5e-07
18.5 2.25 3
0 0

0101101
*
Ed
 1.5e-07 1 1 0
1  21 0 -3.1 -2.9
2  48 2 1 -3.1 -2.9
2  49 16 4 -3.1 -2.9
2  50 17 0 -3.1 -2.9
0

0101000
+159 0 -171 0 *
Ve
1.5e-07
18.5 2.75 3
0 0

0101101
*
Ed
 1.5e-07 1 1 0
1  22 0 2.5 3
2  51 19 1 2.5 3
2  52 16 4 2.5 3
2  53 17 0 2.5 3
0

0101000
+159 0 -157 0 *
Ve
1e-07
18.5 2.75 3.69399999999996
0 0

0101101
*
Ed
 1e-07 1 1 0
1  23 0 0 0.69399999999996
2  54 17 0 0 0.69399999999996
2  55 5 0 0 0.69399999999996
0

0101000
+157 0 -155 0 *
Ed
 1e-07 1 1 0
1  24 0 0 5.5
2  56 20 0 0 5.5
2  57 21 0 0 5.5
2  58 17 10 0 5.5
0

0101000
-155 10 +164 10 *
Wi

0101100
-163 0 +161 0 +160 0 +170 4 -158 0 +156 0 +154 0 -153 5 *
Fa
0  0 17 0

0101000
+152 0 *
Ve
1e-07
20 2.75 3.69399999999996
0 0

0101101
*
Ed
 1e-07 1 1 0
1  25 0 0 1.5
2  59 22 0 0 1.5
2  60 21 0 0 1.5
2  61 5 10 0 1.5
0

0101000
-150 10 +155 10 *
Ve
1e-07
20 -2.75 3.69399999999996
0 0

0101101
*
Ed
 1e-07 1 1 0
1  26 0 0 5.5
2  62 21 0 0 5.5
2  63 23 0 0 5.5
2  64 24 16 0 5.5
2  65 24 20 0 5.5
2  66 24 24 0 5.5
0

0101000
-150 10 +148 10 *
Ed
 1e-07 1 1 0
1  27 0 0 1.5
2  67 25 0 0 1.5
2  68 21 0 0 1.5
2  69 12 10 0 1.5
0

0101000
-148 10 +164 10 *
Wi

0101100
-153 0 -149 0 +147 0 +146 0 *
Fa
0  1e-07 21 0

0101000
+145 0 *
Ve
1e-07
20 -2.75 3.2
0 0

0101101
*
Ed
 1e-07 1 1 0
1  28 0 0 0.49399999999996
2  70 25 0 0 0.49399999999996
2  71 23 0 0 0.49399999999996
2  72 12 10 0 0.49399999999996
0

0101000
-148 10 +143 10 *
Ve
1e-07
20 2.75 3.2
0 0

0101101
*
Ed
 1e-07 1 1 0
1  29 0 0 0.49399999999996
2  73 22 0 0 0.49399999999996
2  74 23 0 0 0.49399999999996
2  75 5 10 0 0.49399999999996
0

0101000
-150 10 +141 10 *
Ed
 1e-07 1 1 0
1  30 0 0 5.5
2  76 11 0 0 5.5
2  77 23 0 0 5.5
0

0101000
-141 10 +143 10 *
Wi

0101100
-142 0 -147 0 +140 0 +139 0 *
Fa
0  1e-07 23 0

0101000
+138 0 *
Ve
1e-07
11 2.75 3
0 0

0101101
*
Ed
 1e-07 1 1 0
1  31 0 0 7.5
2  78 4 0 0 7.5
2  79 19 0 0 7.5
2  80 5 2 0 7.5
0

0101000
+136 2 -157 2 *
Ve
1e-07
11 2.25 3
0 0

0101101
*
Ed
 1e-07 1 1 0
1  32 0 0 7.5
2  81 2 0 0 7.5
2  82 19 0 0 7.5
0

0101000
+134 2 -159 2 *
Ed
 1e-07 1 1 0
1  33 0 0 0.5
2  83 1 0 0 0.5
2  84 19 0 0 0.5
0

0101000
-136 2 +134 2 *
Wi

0101100
-135 1 +156 0 +133 1 -132 1 *
Fa
0  1e-07 19 1

0101000
+131 0 *
Ve
1.50000000111022e-07
11 2.25 0.45
0 0

0101101
*
Ed
 1e-07 1 1 0
1  1 0 3.45 6
2  1 1 0 3.45 6
2  2 2 0 3.45 6
0

0101000
+129 2 -134 2 *
Ve
1.5e-07
11 2.75 0.45
0 0

0101101
*
Ed
 1e-07 1 1 0
1  3 0 3.45 6
2  5 4 0 3.45 6
2  6 1 0 3.45 6
2  85 5 2 3.45 6
0

0101000
+127 2 -136 2 *
Ed
 1.5e-07 1 1 0
1  34 0 -3 -2.5
2  86 1 1 -3 -2.5
2  87 26 3 -3 -2.5
0

0101000
+127 0 -129 0 *
Wi

0101100
-128 1 -132 1 +126 1 -125 0 *
Fa
0  1e-07 1 1

0101000
+124 0 *
Ve
1e-07
10.28 2.75 0.45
0 0

0101101
*
Ed
 1e-07 1 1 0
1  35 0 0 0.720000000000001
2  88 26 0 0 0.720000000000001
2  89 27 0 0 0.720000000000001
2  90 5 25 0 0.720000000000001
0

0101000
+122 25 -127 25 *
Ve
1.50000000166533e-07
11.12 2.25 0.45
0 0

0101101
*
Ed
 1.5e-07 1 1 0
1  36 0 0.359999999999999 0.479999999999999
2  91 2 1 0.359999999999999 0.479999999999999
2  92 26 3 0.359999999999999 0.479999999999999
0

0101000
+129 0 -120 0 *
Ve
1.50000000166533e-07
11.12 -2.25 0.45
0 0

0101101
*
Ed
 1e-07 1 1 0
1  37 0 0.5 5
2  93 26 0 0.5 5
2  94 28 0 0.5 5
0

0101000
+118 25 -120 25 *
Ve
1.50000000111022e-07
11 -2.25 0.45
0 0

0101101
*
Ed
 1.5e-07 1 1 0
1  38 0 0.359999999999999 0.479999999999999
2  95 14 8 0.359999999999999 0.479999999999999
2  96 26 3 0.359999999999999 0.479999999999999
0

0101000
+116 0 -118 0 *
Ve
1.5e-07
11 -2.75 0.45
0 0

0101101
*
Ed
 1.5e-07 1 1 0
1  39 0 -0.5 0
2  97 29 8 -0.5 0
2  98 26 3 -0.5 0
0

0101000
+116 0 -114 0 *
Ve
1e-07
10.28 -2.75 0.45
0 0

0101101
*
Ed
 1e-07 1 1 0
1  40 0 0 0.720000000000001
2  99 26 0 0 0.720000000000001
2  100 30 0 0 0.720000000000001
2  101 12 25 0 0.720000000000001
0

0101000
+112 25 -114 25 *
Ed
 1e-07 1 1 0
1  41 0 0 5.5
2  102 26 0 0 5.5
2  103 31 0 0 5.5
0

0101000
-122 25 +112 25 *
Wi

0101100
-121 3 -125 0 -119 0 +117 3 +115 0 -113 0 +111 3 -110 3 *
Fa
0  1e-07 26 3

0101000
+109 0 *
Ve
1e-07
10.28 -2.75 -0.45
0 0

0101101
*
Ed
 1e-07 1 1 0
1  42 0 0 0.9
2  104 30 0 0 0.9
2  105 12 25 0 0.9
2  106 31 0 0 0.9
0

0101000
-112 25 +107 25 *
Ve
1e-07
10.28 2.75 -0.45
0 0

0101101
*
Ed
 1e-07 1 1 0
1  43 0 0 0.9
2  107 27 0 0 0.9
2  108 5 25 0 0.9
2  109 31 0 0 0.9
0

0101000
-122 25 +105 25 *
Ed
 1e-07 1 1 0
1  44 0 0 5.5
2  110 3 0 0 5.5
2  111 31 0 0 5.5
0

0101000
-105 25 +107 25 *
Wi

0101100
-106 0 -110 0 +104 0 +103 0 *
Fa
0  1e-07 31 0

0101000
+102 0 *
Ve
1e-07
11 -2.75 3
0 0

0101101
*
Ed
 1e-07 1 1 0
1  45 0 3.45 6
2  112 32 0 3.45 6
2  113 29 0 3.45 6
2  114 12 9 3.45 6
0

0101000
+114 9 -100 9 *
Ve
1e-07
11 -2.25 3
0 0

0101101
*
Ed
 1e-07 1 1 0
1  46 0 0 0.5
2  115 29 0 0 0.5
2  116 18 0 0 0.5
0

0101000
-98 9 +100 9 *
Ed
 1e-07 1 1 0
1  47 0 3.45 6
2  117 29 0 3.45 6
2  118 14 0 3.45 6
0

0101000
+116 9 -98 9 *
Wi

0101100
-99 8 -97 8 +96 8 -113 0 *
Fa
0  1e-07 29 8

0101000
+95 0 *
Ve
1.50000000055511e-07
11.12 2.25 -0.45
0 0

0101101
*
Ed
 1.5e-07 1 1 0
1  48 0 -2.175 -1.275
2  119 2 1 -2.175 -1.275
2  120 28 3 -2.175 -1.275
0

0101000
+120 0 -93 0 *
Ve
1.50000000055511e-07
11.12 -2.25 -0.45
0 0

0101101
*
Ed
 1e-07 1 1 0
1  49 0 0.5 5
2  121 3 0 0.5 5
2  122 28 0 0.5 5
0

0101000
+91 25 -93 25 *
Ed
 1.5e-07 1 1 0
1  50 0 -2.175 -1.275
2  123 14 8 -2.175 -1.275
2  124 28 3 -2.175 -1.275
0

0101000
+118 0 -91 0 *
Wi

0101100
-117 3 -92 0 +90 3 +89 0 *
Fa
0  1e-07 28 3

0101000
+88 0 *
Ed
 1e-07 1 1 0
1  51 0 0 7.5
2  125 14 0 0 7.5
2  126 18 0 0 7.5
0

0101000
+98 9 -162 9 *
Ed
 1e-07 1 1 0
1  52 0 0 7.5
2  127 32 0 0 7.5
2  128 18 0 0 7.5
2  129 12 9 0 7.5
0

0101000
+100 9 -165 9 *
Wi

0101100
-86 8 +161 0 +85 8 -97 8 *
Fa
0  1e-07 18 8

0101000
+84 0 *
Ve
1e-07
11 -2.25 -3
0 0

0101101
*
Ed
 1e-07 1 1 0
1  53 0 0 8
2  130 14 0 0 8
0

0101000
-179 9 +82 9 *
Ve
1.50000000111022e-07
11 -2.25 -0.45
0 0

0101101
*
Ed
 1e-07 1 1 0
1  47 0 0 2.55
2  117 29 0 0 2.55
2  118 14 0 0 2.55
0

0101000
+82 9 -80 9 *
Ed
 1.5e-07 1 1 0
1  54 0 0.359999999999999 0.479999999999999
2  131 14 8 0.359999999999999 0.479999999999999
2  132 3 3 0.359999999999999 0.479999999999999
0

0101000
+80 0 -91 0 *
Wi

0101100
-176 8 -81 8 +168 0 +79 8 +160 0 +78 0 +86 8 -89 0 +96 8 -115 0 
*
Ve
1e-07
17 -2.25 0.65
0 0

0101101
*
Ed
 1e-07 1 1 0
1  55 0 0 6.28318530717959
2  133 14 8 0 6.28318530717959
2  134 33 0 0 6.28318530717959
0

0101100
+76 0 -76 0 *
Wi

0101100
-75 0 *
Fa
0  1e-07 14 8

0101000
+77 0 +74 0 *
Ve
1e-07
17 -2.75 0.65
0 0

0101101
*
Ed
 1e-07 1 1 0
1  56 0 0.45 0.95
3  135 136CN 33 0 0.45 0.95
0

0101000
+72 0 -76 0 *
Ed
 1e-07 1 1 0
1  57 0 0 6.28318530717959
2  137 32 8 0 6.28318530717959
2  138 33 0 0 6.28318530717959
2  139 12 0 0 6.28318530717959
0

0101100
+72 0 -72 0 *
Wi

0101100
-75 0 +71 0 +70 0 -71 0 *
Fa
0  1e-07 33 0

0101000
+69 0 *
Ve
1e-07
11 -2.75 -3
0 0

0101101
*
Ve
1.5e-07
11 -2.75 -0.45
0 0

0101101
*
Ed
 1e-07 1 1 0
1  45 0 0 2.55
2  112 32 0 0 2.55
2  113 29 0 0 2.55
2  140 12 9 0 2.55
0

0101000
+67 9 -66 9 *
Ed
 1.5e-07 1 1 0
1  58 0 -0.5 0
2  141 29 8 -0.5 0
2  142 3 3 -0.5 0
0

0101000
+80 0 -66 0 *
Ed
 1e-07 1 1 0
1  59 0 0 0.5
2  143 29 0 0 0.5
0

0101000
-82 9 +67 9 *
Wi

0101100
-65 8 +64 0 +79 8 +63 8 *
Fa
0  1e-07 29 8

0101000
+62 0 *
Ed
 1e-07 1 1 0
1  60 0 0 8
2  144 32 0 0 8
2  145 12 9 0 8
0

0101000
-181 9 +67 9 *
Wi

0101100
-63 0 -81 0 +178 0 +60 0 *
Fa
0  1e-07 34 0

0101000
+59 0 *
Ed
 1e-07 1 1 0
1  61 0 0 0.720000000000001
2  146 3 0 0 0.720000000000001
2  147 30 0 0 0.720000000000001
2  148 12 25 0 0.720000000000001
0

0101000
+107 25 -66 25 *
Ed
 1e-07 1 1 0
1  62 0 0.5 1.5
2  149 25 0 0.5 1.5
2  150 11 0 0.5 1.5
2  151 12 10 0.5 1.5
0

0101000
+183 10 -143 10 *
Wi

0101100
-57 3 +106 3 +111 3 +99 8 +85 8 +163 0 +146 5 -142 5 -56 5 +180 0 
-60 8 +65 8 *
Wi

0101100
-70 0 *
Fa
0  0 12 0

0101000
+55 0 +54 0 *
Ed
 1e-07 1 1 0
1  63 0 0.5 1.5
2  152 11 0 0.5 1.5
2  153 22 0 0.5 1.5
2  154 5 10 0.5 1.5
0

0101000
+185 10 -141 10 *
Wi

0101100
-182 4 -52 5 +139 5 +56 5 *
Fa
0  1e-07 11 5

0101000
+51 0 *
Ed
 1e-07 1 1 0
1  64 0 0 0.720000000000001
2  155 3 0 0 0.720000000000001
2  156 27 0 0 0.720000000000001
2  157 5 25 0 0.720000000000001
0

0101000
+105 25 -201 25 *
Wi

0101100
-193 1 +198 1 -49 3 +104 3 +121 3 +126 1 +135 1 +154 0 +149 5 -140 5 
-52 5 +184 0 *
Ve
1e-07
17 2.75 1.15
0 0

0101101
*
Ed
 1e-07 1 1 0
1  65 0 0 6.28318530717959
2  158 4 1 0 6.28318530717959
2  159 35 0 0 6.28318530717959
2  160 5 0 0 6.28318530717959
0

0101000
+47 0 -47 0 *
Wi

0101100
-46 0 *
Fa
0  0 5 0

0101000
+48 0 +45 0 *
Ve
1.00000003662053e-07
17 9.54 1.15
0 0

0101101
*
Ed
 1e-07 1 1 0
1  66 0 0 6.79
3  161 162C0 35 0 0 6.79
0

0101000
+47 0 -43 0 *
Ed
 1.00000003662053e-07 1 1 0
1  67 0 0 6.28318530717959
2  163 35 0 0 6.28318530717959
2  164 36 0 0 6.28318530717959
2  165 37 0 0 6.28318530717959
2  166 38 0 0 6.28318530717959
0

0101000
+43 0 -43 0 *
Wi

0101100
+46 0 +42 0 -41 0 -42 0 *
Fa
0  0 35 0

0101000
+40 0 *
Wi

0101100
+41 0 *
Ve
1e-07
17 9.54 0.65
0 0

0101101
*
Ed
 1e-07 1 1 0
1  68 0 0 6.28318530717959
2  167 38 0 0 6.28318530717959
2  168 40 0 0 6.28318530717959
0

0101100
+37 0 -37 0 *
Wi

0101100
-36 0 *
Fa
0  0 39 0

0101000
+38 0 +35 0 *
Ve
1e-07
17 9.19 0.65
0 0

0101101
*
Ed
 1e-07 1 1 0
1  69 0 0.300000000000001 0.65
3  169 170CN 40 0 0.300000000000001 0.65
0

0101000
+33 0 -37 0 *
Ed
 1e-07 1 1 0
1  70 0 0 6.28318530717959
2  171 41 0 0 6.28318530717959
2  172 40 0 0 6.28318530717959
0

0101100
+33 0 -33 0 *
Wi

0101100
-36 0 +32 0 +31 0 -32 0 *
Fa
0  1e-07 40 0

0101000
+30 0 *
Ve
1e-07
17 9.19 0.85
0 0

0101101
*
Ed
 1e-07 1 1 0
1  71 0 0 6.28318530717959
2  173 42 0 0 6.28318530717959
2  174 41 0 0 6.28318530717959
0

0101000
+28 0 -28 0 *
Wi

0101100
+27 0 *
Wi

0101100
-31 0 *
Fa
0  1e-07 41 0

0101000
+26 0 +25 0 *
Ve
1e-07
17 2.24 0.85
0 0

0101101
*
Ed
 1e-07 1 1 0
1  72 0 0 6.28318530717959
2  175 43 0 0 6.28318530717959
2  176 42 0 0 6.28318530717959
0

0101000
+23 0 -23 0 *
Ed
 1e-07 1 1 0
1  73 0 0 6.95
3  177 178C0 42 0 0 6.95
0

0101000
+28 0 -23 0 *
Wi

0101100
+22 0 -21 0 -27 0 +21 0 *
Fa
0  0 42 0

0101000
+20 0 *
Ve
1e-07
17 2.24 1.15
0 0

0101101
*
Ed
 1e-07 1 1 0
1  74 0 0 6.28318530717959
2  179 35 0 0 6.28318530717959
2  180 43 0 0 6.28318530717959
0

0101000
+18 0 -18 0 *
Wi

0101100
+17 0 *
Wi

0101100
-22 0 *
Fa
0  1e-07 43 0

0101000
+16 0 +15 0 *
Ve
1e-07
17 2.25 1.15
0 0

0101101
*
Ed
 1e-07 1 1 0
1  75 0 0 6.28318530717959
2  181 2 1 0 6.28318530717959
2  182 35 0 0 6.28318530717959
0

0101100
+13 0 -13 0 *
Ed
 1e-07 1 1 0
1  76 0 0 0.00999999999999934
3  183 184CN 35 0 0 0.00999999999999934
0

0101000
+18 0 -13 0 *
Wi

0101100
-12 0 +11 0 +17 0 -11 0 *
Fa
0  1e-07 35 0

0101000
+10 0 *
Ed
 1.5e-07 1 1 0
1  77 0 0.359999999999999 0.479999999999999
2  185 2 1 0.359999999999999 0.479999999999999
2  186 3 3 0.359999999999999 0.479999999999999
0

0101000
+203 0 -93 0 *
Wi

0101100
-49 3 -200 0 -8 0 +90 3 +78 0 -64 0 +57 3 -103 3 *
Fa
0  1e-07 3 3

0101000
+7 0 *
Wi

0101100
-186 1 -190 1 +169 0 +202 1 +158 0 +8 0 +133 1 -92 0 +128 1 -119 0 
*
Wi

0101100
-12 0 *
Fa
0  1e-07 2 1

0101000
+5 0 +4 0 *
Sh

0101100
-195 0 -188 1 +173 0 -166 0 -151 0 +144 5 +137 5 +130 0 -123 0 +108 0 
-101 3 -94 0 +87 0 +83 0 +73 0 -68 0 -61 0 -58 8 -53 0 -50 0 
+44 0 +39 0 +34 0 -29 0 -24 0 -19 0 -14 0 +9 0 -6 0 -3 0 
*
So

0100000
+2 0 *

+1 0 