DBRep_DrawableShape

CASCADE Topology V3, (c) Open Cascade
Locations 0
Curve2ds 48
1 0 16.124515496597098 1 0 
2 0 0 1 0 -0 1 1.2
7 0 0  7 20 4  2.587285157388306 0.45227644592494082  2.6663949436019143 0.47152637289064753  2.7472310122912971 0.48790606971365097  2.8296488292166293 0.50114494956754696  2.9133727670947116 0.51100035966369206  2.9979857419427276 0.51729849166999542  3.0829793647850567 0.51995816005289341  3.295192474630297 0.51755638077693455  3.4222744286638545 0.50796920469707629  3.5474645987551412 0.4902912279679299  3.6691157696659502 0.46506648741330991  3.7864818088494303 0.43328994145400657  3.8995471152075205 0.39598248286699717  4.1178001741548433 0.31232986588996675  4.2229883295544637 0.2659835776043204  4.3246094572798608 0.21613128673288351  4.4234368094498677 0.16374703321530706  4.5203859548689156 0.10971719453794991  4.6163870514915208 0.054858245081811349  4.7123889803846923 0 
 2.6484095268631842 8 3.1644043902435595 6 3.9383966853141268 6 4.7123889803846915 8
7 0 0  5 6 2  5.7900021804529178 16.124515496597098  5.8886388057982453 16.098118001460179  5.987275431143587 16.071720480977859  6.085912056488894 16.045858145686509  6.1845486818342268 16.021065583693879  6.2831853071795543 15.997813869360469 
 1.5707963267948966 6 2.0639794535215339 6
7 0 0  5 6 2  5.7473749032645536 0  5.846011528609881 0.02639749513691864  5.9446481539551996 0.052795015619305108  6.0432847793005635 0.078657350910584678  6.1419214046458617 0.10344991290322489  6.2405580299911891 0.12670162723663481 
 1.5707963267948966 6 2.0639794535215339 6
1 6.2831853071795862 -0 0 1 
1 0 -0 0 1 
1 0 0 1 0 
2 0 0 1 0 -0 1 1.2
7 0 0  5 6 2  -3.1974423109204508e-14 15.997813869360469  0.0085254554376454905 15.9958041548786  0.017050910875322928 15.993805951776579  0.025576366313000726 15.991819564372832  0.034101821750677927 15.989845293499236  0.042627277188355392 15.987883436227373 
 2.0639794535215339 6 2.1066067307099212 6
7 0 0  5 6 2  6.2405580299911891 0.12670162723663481  6.2490834854288666 0.12871134171850279  6.2576089408665609 0.13070954482058394  6.2661343963042242 0.13269593222429688  6.2746598517418999 0.13467020309786371  6.2831853071795774 0.13663206036972753 
 2.0639794535215339 6 2.1066067307099212 6
7 0 0  8 9 2  0.042627277188355392 15.987883436227373  0.36835005839770141 15.912928894314788  0.6940728396061786 15.854541516755489  1.0197956208130563 15.824836952080659  1.3455184020240267 15.832190257249749  1.6712411832322687 15.877098568693327  1.9969639644432391 15.950172712797212  2.3226867456537774 16.037344372252019  2.6484095268631234 16.124515496597105 
 2.1066067307099212 9 4.7123889803846897 9
7 0 0  8 9 2  -8.8817841970012523e-15 0.13663206036972753  0.32572278120933718 0.21158660228231135  0.65144556241830287 0.26997397983976157  0.97716834362290683 0.29967854445771991  1.3028911248420627 0.29232523934456367  1.6286139060430287 0.24741692785323721  1.9543366872560455 0.17434278379090529  2.2800594684654154 0.087171124345090834  2.6057822496747614 3.5527136788005009e-15 
 2.1066067307099212 9 4.7123889803846897 9
1 0 0 1 0 
2 0 0 1 0 -0 1 1.2
7 0 0  8 30 5  2.587285157388294 0.45227644592496657  2.6534707197545755 0.50273143484273919  2.7233651292267496 0.55121848842793497  2.7976742124792509 0.59727285725307411  2.8771439091397042 0.64033603925281568  2.9624531397621467 0.67974460514824386  3.0542084097883162 0.71468667346812254  3.1522903925537116 0.74426948953700178  3.3333083395950154 0.78534668533593055  3.4139015672919317 0.79951399505333387  3.4970953967862641 0.80992813080030501  3.5822320610759562 0.81631179589220437  3.668321298330369 0.81848471199122841  3.7542322877073966 0.81641280153106388  3.8389531732636644 0.81021684001788008  4.0458342267752778 0.78494776369377528  4.1655323158774991 0.76098602058254983  4.2781685337140516 0.72894266763546511  4.3822126012237277 0.69005328487037332  4.4781795488070202 0.64566831901447586  4.5668988683228235 0.59683044513417371  4.6494060681310367 0.54443689994755684  4.8040288407956924 0.4339820056935994  4.876144214036108 0.37592093265158844  4.9440850888119598 0.31575218812313022  5.0088579950690928 0.25404021986508951  5.0713453469047067 0.19123690025975293  5.1323311160356919 0.12772643107983392  5.19256996318334 0.06386325410829867  5.2528084806553004 -2.9605947323337522e-14 
 2.6057822496748217 9 3.2300711537365432 7 3.6982878317828307 7 4.4006128488522656 7 5.1029378659217013 9
1 0 0 1 0 
2 0 0 1 0 -0 1 1.2
8 -0.56811849176879903 1.2
1 0 0 0 -1 
8 -0.56811849176879903 1.2
1 0 0 0 -1 
8 -1.3623509092741122 1.3623509092741122
1 0 0 -0.88083032927205529 0.47343207647399949 
8 -1.3623509092741122 1.3623509092741122
1 0 0 -0.85985516965295072 0.51053803699733824 
1 6.2831853071795862 -0 0 1 
1 0 -0 0 1 
7 0 0  5 6 2  6.7503757877722067e-05 16.028577872710809  0.0012081467237177665 16.029106201305009  0.0023487896895604266 16.02963453419548  0.0034894326553992806 16.030162869950061  0.0046300756212379474 16.030691207136734  0.0057707185870779915 16.031219544323417 
 4.7066857708276313 6 4.7123889856568315 6
7 0 0  5 6 2  -1.7141843500212417e-12 0.0026416691705861695  0.00114064296412586 0.0021133405763860144  0.0022812859299625697 0.0015850076859566867  0.0034219288958129215 0.0010566719313497841  0.0045625718616460909 0.00052833474466113895  0.005703214827486135 -2.4420216959697427e-09 
 4.7066857708276313 6 4.7123889856568315 6
1 0 16.031219541881399 1 0 
2 0 0 1 0 -0 1 1.2
7 0 0  7 14 3  2.111215827065497 1.7763568394002501e-14  2.1693443683614291 0.061626314184401294  2.2274723219754247 0.1232525798686032  2.2863240951086863 0.18453900449539468  2.346613689334796 0.24514453935589334  2.4091186332869392 0.30469329382968308  2.474711589598825 0.36273014968067069  2.6139876825997965 0.47460100113669057  2.6876689934973683 0.52843487604289407  2.7663536991085493 0.57957868759172015  2.8510323415121093 0.62730475379709105  2.9427802046130864 0.67071682191959781  3.0422541416587281 0.70863908473800907  3.1488389035697448 0.73996181097445957 
 1.9613452123318924 8 2.5543542896183329 6 3.1473633669047762 8
7 0 0  8 9 2  3.1473633901887026 16.031219531096443  3.5393411298123363 15.849658409521011  3.9313188694313794 15.668095825842101  4.3232966090818081 15.529057399406156  4.7152743486331019 15.474951926007634  5.1072520883280959 15.527800424199086  5.4992298279221359 15.665898381394072  5.8912075675541349 15.846988507506525  6.2831853071777681 16.028546605994894 
 1.5707963500788666 9 4.7066182670679337 9
7 0 0  8 9 2  3.1472958864291023 1.0784958703879965e-08  3.5392736260527355 0.18156113236039215  3.931251365677781 0.36312371602889471  4.323229105277278 0.50216214249394397  4.7152068449395301 0.55626761579787853  5.1071845845217467 0.50341911769055514  5.4991623241694469 0.36532116047072805  5.8911400637945421 0.18423103437486946  6.2831178034181754 0.0026729358865011932 
 1.5707963500788666 9 4.7066182670679337 9
8 -0.66253431921518668 1.2977178411853401
1 0 0 0.38069602703294553 -0.92470024061926737 
8 -0.66253431921518668 1.2977178411853401
1 0 0 0.51449575542752657 -0.85749292571254421 
1 0 0 1 0 
2 0 0 1 0 -0 1 1.2
7 0 0  8 23 4  1.0714496051147626 -5.9211894646675026e-15  1.1551960543190587 0.087445000072637211  1.238942329125166 0.17489044076768323  1.3246420128534737 0.26139791208265706  1.4142361259082463 0.34604870450289127  1.5099215612472108 0.42770529471317786  1.6141577368387061 0.50502718860110463  1.7303131829199994 0.57585877725630008  1.9248448891474639 0.66831528622547753  1.9930719215702646 0.69683594438338814  2.0648849047036322 0.72271991367151145  2.1403760406238916 0.74560038279199148  2.2194636533759109 0.76508131921410794  2.3017536691410649 0.78078336395308101  2.3864841466172599 0.79240708196729959  2.558938189204583 0.80716113478059559  2.6466606083180175 0.81029109831086199  2.7349395590590859 0.80900583247538904  2.8226237385049444 0.80325770291915433  2.9085673115241093 0.79317685673935046  2.991880756793968 0.77903542412543314  3.0720599654583483 0.76117600970440813  3.1488389035697462 0.73996181097442804 
 1.2100337428423371 9 2.1786648029937563 7 2.6629803330694686 7 3.1472958631451804 9
1 6.2831853071795862 -0 0 1 
1 0 -0 0 1 
1 0 17.349351572897472 1 0 
2 0 0 1 0 -0 1 1.2
8 -1.2977178411853409 0.0074887160612696624
1 -2.4651903288156619e-32 -8.2362551474341565e-16 0.38069602703294553 -0.92470024061926737 
8 -1.2977178411853409 0.0074887160612696624
1 0 0 0.51449575542752657 -0.85749292571254421 
8 -1.2000195162240377 1.2000195162240377
1 -2.4651903288156619e-32 -8.2362551474341565e-16 0.99998334948012535 0.0057706812864440904 
8 -1.2000195162240377 1.2000195162240377
1 0 0 0.99998373674446639 0.0057031786377249316 
1 0 0 1 0 
2 0 0 1 0 -0 1 1.2
8 -1.2825611372390333 0.0073146752795341732
1 0 0 -0.35298783067513101 -0.93562791289874681 
8 -1.2825611372390333 0.0073146752795341732
1 0 0 -0.47885213068057331 -0.87789557291438447 
Curves 22
2 8 0 32 0.49613893835683387 0 0.8682431421244593 0.8682431421244593 0 -0.49613893835683387 -0 1 0 1.2
3 8 0 32 0.57371752995095227 0.19173222411659449 0.79629576795452228 -0.29320224968816977 -0.85970973194492872 0.41824827265270925 0.76477489276569122 -0.47343207647399943 -0.43701422443753785 1.2294805512265334 1.2
1 1.0418917705493511 -2.9391523179536451e-16 17.4046332739718 0.49613893835683387 0 0.8682431421244593 
2 0 0 18 0.49613893835683387 0 0.8682431421244593 0.8682431421244593 0 -0.49613893835683387 -0 1 0 1.2
3 8 0 32 0.57371752995095227 0.19173222411659449 0.79629576795452228 -0.29320224968816977 -0.85970973194492872 0.41824827265270925 0.76477489276569122 -0.47343207647399943 -0.43701422443753785 1.2294805512265334 1.2
3 8 0 32 0.57371752995095227 0.19173222411659449 0.79629576795452228 -0.29320224968816977 -0.85970973194492872 0.41824827265270925 0.76477489276569122 -0.47343207647399943 -0.43701422443753785 1.2294805512265334 1.2
2 8 0 32 0.6237828615518054 0.37426971693108324 0.68616114770698589 0.7399400733959437 2.7755575615628914e-17 -0.67267279399631252 -0.25176105619624078 0.92731989032281992 -0.27693716181586481 1.2
2 8 0 32 0 0 1 1 0 -0 -0 1 0 1.2
1 8 0 32 0 -1 0 
1 8 0 32 -0.76477489276569122 0.47343207647399949 0.4370142244375379 
1 8.8879280880751317 -2.3924674977392892e-16 31.192792647204424 0.6237828615518054 0.37426971693108324 0.68616114770698589 
3 18 6.0000000000000009 43 0.67413082647297906 0.015240130886998066 0.73845471574728638 -0.014227474976685032 0.99986954266358574 -0.0076470000326900739 -0.73847492019339844 -0.0053512675376333188 0.67425970974179872 1.2862920457122069 1.2
2 18 6.0000000000000009 43 0.6237828615518054 0.37426971693108324 0.68616114770698589 0.7399400733959437 2.7755575615628914e-17 -0.67267279399631252 -0.25176105619624078 0.92731989032281992 -0.27693716181586481 1.2
3 18 6.0000000000000009 43 0.67413082647297906 0.015240130886998066 0.73845471574728638 -0.014227474976685032 0.99986954266358574 -0.0076470000326900739 -0.73847492019339844 -0.0053512675376333188 0.67425970974179872 1.2862920457122069 1.2
1 8 0 32 0.51449575542752657 -0.85749292571254421 0 
2 18 6 43 0.6340294594746585 -0.34583425062254097 0.69166850124508195 0.73715414020074144 -5.5511151231257827e-17 -0.67572462851734638 0.23368872053049139 0.93829562031182134 0.25493314966962688 1.2
1 18.88458496824089 5.9999999999999982 42.189130445779185 0.6340294594746585 -0.34583425062254097 0.69166850124508195 
2 29 0 55 0.6340294594746585 -0.34583425062254097 0.69166850124508195 0.73715414020074144 -5.5511151231257827e-17 -0.67572462851734638 0.23368872053049139 0.93829562031182134 0.25493314966962688 1.2
1 18 6 43 0.51449575542752657 -0.85749292571254421 0 
1 18 6 43 0.73847492019339833 0.0053512675376332494 -0.67425970974179872 
2 18 6 43 0 0 1 1 0 -0 -0 1 0 1.2
1 18 6 43 -0.47885213068057331 -0.87789557291438447 0 
Polygon3D 0
PolygonOnTriangulations 0
Surfaces 13
2 0 0 18 0.49613893835683387 0 0.8682431421244593 0.8682431421244593 0 -0.49613893835683387 -0 1 0 1.2
1 8 0 32 0.49613893835683387 0 0.8682431421244593 0.8682431421244593 0 -0.49613893835683387 -0 1 0 
4 8 0 32 0 0 1 1 0 -0 -0 1 0 1.2
2 8 0 32 0.6237828615518054 0.37426971693108324 0.68616114770698589 0.7399400733959437 2.7755575615628914e-17 -0.67267279399631252 -0.25176105619624078 0.92731989032281992 -0.27693716181586481 1.2
1 0 0 18 0.49613893835683387 0 0.8682431421244593 0.8682431421244593 0 -0.49613893835683387 -0 1 0 
1 8 0 32 0.6237828615518054 0.37426971693108324 0.68616114770698589 0.7399400733959437 2.7755575615628914e-17 -0.67267279399631252 -0.25176105619624078 0.92731989032281992 -0.27693716181586481 
1 8 0 32 0 0 1 1 0 -0 -0 1 0 
2 18 6 43 0.6340294594746585 -0.34583425062254097 0.69166850124508195 0.73715414020074133 -2.7755575615628914e-17 -0.67572462851734638 0.23368872053049139 0.93829562031182134 0.25493314966962688 1.2
1 18 6.0000000000000009 43 0.6237828615518054 0.37426971693108324 0.68616114770698589 0.7399400733959437 2.7755575615628914e-17 -0.67267279399631252 -0.25176105619624078 0.92731989032281992 -0.27693716181586481 
4 18 6 43 0 0 1 1 0 -0 -0 1 0 1.2
1 18 6 43 0.6340294594746585 -0.34583425062254097 0.69166850124508195 0.73715414020074133 -2.7755575615628914e-17 -0.67572462851734638 0.23368872053049139 0.93829562031182134 0.25493314966962688 
1 29 0 55 0.6340294594746585 -0.34583425062254097 0.69166850124508195 0.73715414020074133 -2.7755575615628914e-17 -0.67572462851734638 0.23368872053049139 0.93829562031182134 0.25493314966962688 
1 18 6 43 0 0 1 1 0 -0 -0 1 0 
Triangulations 0

TShapes 69
Ve
1.50000073612056e-07
7.08227012868115 0.568118491768735 32.5244170693251
0 0

0101101
*
Ve
1.50000003552714e-07
8 -1.2 32
0 0

0101101
*
Ed
 1.2734238204087e-07 1 1 0
1  1 0 2.64840952686318 4.71238898038469
2  1 1 0 2.64840952686318 4.71238898038469
2  2 2 0 2.64840952686318 4.71238898038469
2  3 3 0 2.64840952686318 4.71238898038469
0

0101000
+69 0 -68 0 *
Ve
1.50000036577426e-07
8.91772987131884 -0.568118491768768 31.4755829306749
0 0

0101101
*
Ed
 1e-07 1 1 0
1  1 0 4.71238898038469 5.79000218045295
2  1 1 0 4.71238898038469 5.79000218045295
2  2 2 0 4.71238898038469 5.79000218045295
0

0101000
+68 0 -66 0 *
Ve
1.00000199293959e-07
8.97903015972418 -2.93915231795365e-16 31.2946254550278
0 0

0101101
*
Ed
 1e-07 1 1 0
1  2 0 1.5707963267949 2.06397945352153
2  4 1 0 1.5707963267949 2.06397945352153
2  5 4 0 1.5707963267949 2.06397945352153
0

0101000
+66 0 -64 0 *
Ve
1e-07
1.04189177054935 -2.93915231795365e-16 17.4046332739718
0 0

0101101
*
Ed
 1e-07 1 1 0
1  3 0 0 15.9978138693607
3  6 7CN 1 0 0 15.9978138693607
0

0101000
+62 0 -64 0 *
Ed
 1e-07 1 1 0
1  4 0 0 6.28318530717959
2  8 1 0 0 6.28318530717959
2  9 5 0 0 6.28318530717959
0

0101000
+62 0 -62 0 *
Ve
1.00000051309731e-07
8.97315682567225 0.0511372425582694 31.2865442585613
0 0

0101101
*
Ed
 1e-07 1 1 0
1  5 0 2.06397945352153 2.10660673070992
2  10 1 0 2.06397945352153 2.10660673070992
2  11 4 0 2.06397945352153 2.10660673070992
0

0101000
+64 0 -59 0 *
Ed
 1e-07 1 1 0
1  6 0 2.10660673070992 4.71238898038469
2  12 1 0 2.10660673070992 4.71238898038469
2  13 4 0 2.10660673070992 4.71238898038469
0

0101000
+59 0 -69 0 *
Wi

0101100
-67 0 -65 0 -63 0 +61 0 +60 0 -61 0 -58 0 -57 0 *
Fa
0  1e-07 1 0

0101000
+56 0 *
Ve
1.50000054968486e-07
8.61739490651308 -1.02899151085503 32
0 0

0101101
*
Ed
 1.00000001831027e-07 1 1 0
1  7 0 2.60578224967482 5.1029378659217
2  14 4 0 2.60578224967482 5.1029378659217
2  15 6 0 2.60578224967482 5.1029378659217
2  16 3 0 2.60578224967482 5.1029378659217
0

0101000
+69 0 -54 0 *
Ed
 1e-07 1 1 0
1  8 0 4.71238898038469 5.25280848065532
2  17 3 0 4.71238898038469 5.25280848065532
2  18 7 0 4.71238898038469 5.25280848065532
0

0101000
+68 0 -54 0 *
Wi

0101100
+67 0 -53 0 +52 0 *
Fa
0  1e-07 3 0

0101000
+51 0 *
Ve
1.5e-07
8 0 32
0 0

0101101
*
Ed
 1.5e-07 1 1 0
1  9 0 0 1.2
2  19 2 0 0 1.2
2  20 7 0 0 1.2
0

0101000
+49 0 -68 0 *
Ed
 1.5e-07 1 1 0
1  10 0 -1.2 0
2  21 2 0 -1.2 0
2  22 6 0 -1.2 0
0

0101000
+66 0 -49 0 *
Wi

0101100
+65 0 +48 0 +47 0 *
Fa
0  1e-07 2 0

0101000
+46 0 *
Ed
 1e-07 1 1 0
1  7 0 5.1029378659217 5.74737490326458
2  14 4 0 5.1029378659217 5.74737490326458
2  15 6 0 5.1029378659217 5.74737490326458
0

0101000
+54 0 -66 0 *
Ve
5.43683524078604e-05
18.8862604219185 5.99903215827025 42.1909582159563
0 0

0101101
*
Ed
 1e-07 1 1 0
1  11 0 0.136632060369678 16.0285466059892
3  23 24CN 4 0 0.136632060369678 16.0285466059892
0

0101000
+59 0 -43 0 *
Ve
1.50000004440892e-07
18.8861699042321 6.00642152104516 42.1908883483098
0 0

0101101
*
Ed
 1e-07 1 1 0
1  12 0 4.70668577082763 4.71238898565683
2  25 4 0 4.70668577082763 4.71238898565683
2  26 8 0 4.70668577082763 4.71238898565683
0

0101000
+43 0 -41 0 *
Ve
1.50000031974423e-07
17.3826050934869 7.02899151085504 43
0 0

0101101
*
Ed
 1e-07 1 1 0
1  13 0 0.00577071331494146 1.96134521233189
2  27 4 0 0.00577071331494146 1.96134521233189
2  28 9 0 0.00577071331494146 1.96134521233189
0

0101000
+41 0 -39 0 *
Ve
1.50000056843419e-07
17.1138300957679 5.99357847895478 43.8091116516902
0 0

0101101
*
Ed
 1.00000000888178e-07 1 1 0
1  13 0 1.96134521233189 3.14736336690478
2  27 4 0 1.96134521233189 3.14736336690478
2  28 9 0 1.96134521233189 3.14736336690478
2  29 10 0 1.96134521233189 3.14736336690478
0

0101000
+39 0 -37 0 *
Ed
 1e-07 1 1 0
1  14 0 1.57079635007887 4.70661826706793
2  30 4 0 1.57079635007887 4.70661826706793
2  31 8 0 1.57079635007887 4.70661826706793
0

0101000
+37 0 -43 0 *
Wi

0101100
+44 0 +53 0 +57 0 -42 0 -40 0 -38 0 -36 0 -35 0 +42 0 +58 0 
+63 0 *
Fa
0  1e-07 4 0

0101000
+34 0 *
Wi

0101100
-60 0 *
Fa
0  1e-07 5 0

0101000
-32 0 *
Ed
 1.5e-07 1 1 0
1  15 0 0 1.2
2  32 6 0 0 1.2
2  33 7 0 0 1.2
0

0101000
+49 0 -54 0 *
Wi

0101100
+48 0 -30 0 +52 0 *
Fa
0  1e-07 7 0

0101000
+29 0 *
Wi

0101100
+44 0 +30 0 +47 0 *
Fa
0  1e-07 6 0

0101000
+27 0 *
Ve
1.50000012338969e-07
18.5746225568167 7.05347468749726 43
0 0

0101101
*
Ed
 1.00000000888178e-07 1 1 0
1  16 0 1.21003374284234 3.14729586314518
2  34 8 0 1.21003374284234 3.14729586314518
2  35 11 0 1.21003374284234 3.14729586314518
2  36 10 0 1.21003374284234 3.14729586314518
0

0101000
+25 0 -37 0 *
Ed
 1e-07 1 1 0
1  16 0 0.00570320955534593 1.21003374284234
2  34 8 0 0.00570320955534593 1.21003374284234
2  35 11 0 0.00570320955534593 1.21003374284234
0

0101000
+41 0 -25 0 *
Ve
1e-07
29.8845849682409 -1.12178230825832e-15 54.1891304457792
0 0

0101101
*
Ed
 1e-07 1 1 0
1  17 0 0.00264166917591954 17.3493515728975
3  37 38CN 8 0 0.00264166917591954 17.3493515728975
0

0101000
+43 0 -22 0 *
Ed
 1e-07 1 1 0
1  18 0 0 6.28318530717959
2  39 8 0 0 6.28318530717959
2  40 12 0 0 6.28318530717959
0

0101000
+22 0 -22 0 *
Wi

0101100
+35 0 +24 0 +23 0 +40 0 -21 0 -20 0 +21 0 *
Fa
0  1e-07 8 0

0101000
+19 0 *
Ve
1.50000003972055e-07
18 6 43
0 0

0101101
*
Ed
 1.5e-07 1 1 0
1  19 0 -1.2 1.82785610799217e-15
2  41 9 0 -1.2 1.82785610799217e-15
2  42 13 0 -1.2 1.82785610799217e-15
0

0101000
+39 0 -17 0 *
Ed
 1.5e-07 1 1 0
1  20 0 2.62358995042219e-15 1.2
2  43 9 0 2.62358995042219e-15 1.2
2  44 11 0 2.62358995042219e-15 1.2
0

0101000
+17 0 -41 0 *
Wi

0101100
+16 0 +38 0 +15 0 *
Fa
0  1e-07 9 0

0101000
+14 0 *
Ed
 1e-07 1 1 0
1  21 0 1.07144960511476 2.1112158270655
2  45 10 0 1.07144960511476 2.1112158270655
2  46 13 0 1.07144960511476 2.1112158270655
0

0101000
+25 0 -39 0 *
Wi

0101100
-24 0 +36 0 +12 0 *
Fa
0  1e-07 10 0

0101000
+11 0 *
Ed
 1.5e-07 1 1 0
1  22 0 -1.2 -1.70122451479164e-15
2  47 11 0 -1.2 -1.70122451479164e-15
2  48 13 0 -1.2 -1.70122451479164e-15
0

0101000
+25 0 -17 0 *
Wi

0101100
+9 0 +23 0 +15 0 *
Fa
0  1e-07 11 0

0101000
+8 0 *
Wi

0101100
+20 0 *
Fa
0  1e-07 12 0

0101000
+6 0 *
Wi

0101100
-9 0 +16 0 +12 0 *
Fa
0  1e-07 13 0

0101000
+4 0 *
Sh

0101100
+55 0 +50 0 +45 0 +33 0 -31 0 -28 0 -26 0 +18 0 +13 0 +10 0 
-7 0 +5 0 -3 0 *
So

0100000
+2 0 *

+1 0 