DBRep_DrawableShape

CASCADE Topology V3, (c) Open Cascade
Locations 0
Curve2ds 14
1 1.9669860669976094 -6.2831853071795862 0 1 
2 607.14750000000004 -303.57375000000002 -1 -0 0 -1 243.309
1 0 -1.5707963267948966 1 0 
1 1.1746065865921835 3.1415926535897931 0 -1 
2 0 -303.57375000000002 -1 -0 0 -1 243.309
1 0 1.5707963267948966 1 0 
1 0 0 0 -1 
1 607.14750000000004 0 0 -1 
1 1.9669860669976094 -6.2831853071795862 0 1 
2 607.14750000000004 -303.57375000000002 -1 -0 0 -1 242.85900000000001
1 1.1746065865921835 3.1415926535897931 0 -1 
2 0 -303.57375000000002 -1 -0 0 -1 242.85900000000001
1 0 -1.5707963267948966 1 0 
1 0 1.5707963267948966 1 0 
Curves 5
2 2.6220109517005494e-14 1.0968109402378975e-14 0 0.92253808945624638 0.38590604232431863 -0 -0.38590604232431863 0.92253808945624638 0 0 0 1 243.309
2 0 0 0 -0.92253808945624638 0.38590604232431874 0 -0.38590604232431874 -0.92253808945624638 0 0 0 1 243.309
1 0 0 -303.57375000000002 0 0 1 
2 2.6220109517005494e-14 1.0968109402378975e-14 0 0.92253808945624638 0.38590604232431863 -0 -0.38590604232431863 0.92253808945624638 0 0 0 1 242.85900000000001
2 0 0 0 -0.92253808945624638 0.38590604232431874 0 -0.38590604232431874 -0.92253808945624638 0 0 0 1 242.85900000000001
Polygon3D 0
PolygonOnTriangulations 0
Surfaces 4
4 0 0 0 0 0 1 1 0 -0 -0 1 0 243.309
1 -234.30188883210423 560.11669466813635 -303.57375000000002 0.92253808945624638 0.38590604232431863 -0 0.38590604232431863 -0.92253808945624638 0 0 -0 -1 
1 0 0 -303.57375000000002 -0.92253808945624638 0.38590604232431874 0 0.38590604232431874 0.92253808945624638 0 0 0 -1 
4 0 0 0 0 0 1 1 0 -0 -0 1 0 242.85900000000001
Triangulations 0

TShapes 24
Ve
1.00000059593518e-07
1.48983794026872e-14 -3.64905052959674e-30 -243.309
0 0

0101101
*
Ve
1.0000008157259e-07
1.48983794026872e-14 -3.64905052959674e-30 243.309
0 0

0101101
*
Ed
 1e-07 1 1 0
1  1 0 4.71238898038469 7.85398163397448
2  1 1 0 4.71238898038469 7.85398163397448
2  2 2 0 4.71238898038469 7.85398163397448
0

0101000
+24 0 -23 0 *
Ed
 1e-07 1 1 1
2  3 1 0 1.17460658659218 1.96698606699761
0

0101000
+24 0 -24 0 *
Ed
 1e-07 1 1 0
1  2 0 1.5707963267949 4.71238898038469
2  4 1 0 1.5707963267949 4.71238898038469
2  5 3 0 1.5707963267949 4.71238898038469
0

0101000
+23 0 -24 0 *
Ed
 1e-07 1 1 1
2  6 1 0 1.17460658659218 1.96698606699761
0

0101000
+23 0 -23 0 *
Wi

0101100
+22 0 +21 0 +20 0 -19 0 *
Fa
0  1e-07 1 0

0101000
+18 0 *
Ve
1.00000059483299e-07
1.48708248497064e-14 -3.64230161057476e-30 -242.859
0 0

0101101
*
Ed
 1e-07 1 1 0
1  3 0 60.26475 60.71475
2  7 3 0 60.26475 60.71475
2  8 2 0 60.26475 60.71475
0

0101000
+24 0 -16 0 *
Ve
1.00000081431196e-07
1.48708248497064e-14 -3.64230161057476e-30 242.859
0 0

0101101
*
Ed
 1e-07 1 1 0
1  4 0 4.71238898038469 7.85398163397448
2  9 4 0 4.71238898038469 7.85398163397448
2  10 2 0 4.71238898038469 7.85398163397448
0

0101000
+16 0 -14 0 *
Ed
 1e-07 1 1 0
1  3 0 546.43275 546.88275
2  7 3 0 546.43275 546.88275
2  8 2 0 546.43275 546.88275
0

0101000
+14 0 -23 0 *
Wi

0101100
-15 0 -13 0 -12 0 +22 0 *
Fa
0  1e-07 2 0

0101000
+11 0 *
Ed
 1e-07 1 1 0
1  5 0 1.5707963267949 4.71238898038469
2  11 4 0 1.5707963267949 4.71238898038469
2  12 3 0 1.5707963267949 4.71238898038469
0

0101000
+14 0 -16 0 *
Wi

0101100
+20 0 +12 0 -9 0 +15 0 *
Fa
0  1e-07 3 0

0101000
+8 0 *
Ed
 1e-07 1 1 1
2  13 4 0 1.17460658659218 1.96698606699761
0

0101000
+16 0 -16 0 *
Ed
 1e-07 1 1 1
2  14 4 0 1.17460658659218 1.96698606699761
0

0101000
+14 0 -14 0 *
Wi

0101100
+13 0 +6 0 +9 0 -5 0 *
Fa
0  1e-07 4 0

0101000
+4 0 *
Sh

0101100
+17 0 -10 0 -7 0 -3 0 *
So

0100000
+2 0 *

+1 0 