DBRep_DrawableShape

CASCADE Topology V3, (c) Open Cascade
Locations 0
Curve2ds 24
1 0 214 1 0 
2 0 0 1 0 -0 1 47.439999999999998
8 -5.9999999999999997e-07 214.00000059999999
1 1.7453292519943295 0 0 1 
8 -5.9999999999999997e-07 214.00000059999999
1 71.160000000000011 -0.20000000000000001 0 -1 
1 0 0 1 0 
2 0 0 1 0 -0 1 47.439999999999998
8 -5.9999999999999997e-07 214.00000059999999
1 1.4660765716752369 0 0 1 
8 -5.9999999999999997e-07 214.00000059999999
1 47.440000000000005 -0.20000000000000001 0 -1 
8 -47.701312782493218 -0
1 0 0 -0.10452846326765346 -0.9945218953682734 
8 -47.701312782493218 -0
1 0 -214.20000000000002 -1 -0 
2 0 0 1 0 -0 1 47.409999999999997
1 0 214.19999999999999 1 0 
8 -59.300000000000004 -11.128161532140259
1 -10.297336935648966 58.399099753623936 -0.1736481776669303 0.98480775301220813 
8 -59.300000000000004 -11.128161532140259
1 59.300000000000004 -214.20000000000002 -1 -0 
8 -59.300000000000004 -11.128161532140259
1 -10.297336935648966 58.399099753623936 -0.1736481776669303 0.98480775301220813 
8 -59.300000000000004 -11.128161532140259
1 59.300000000000004 -0.20000000000000004 -1 -0 
8 0.19999940000000002 214.20000059999998
1 1.7453292519943295 0 0 1 
8 0.19999940000000002 214.20000059999998
1 71.189999999999998 0 0 -1 
8 -47.701312782493218 -0
1 0 0 -0.10452846326765346 -0.9945218953682734 
8 -47.701312782493218 -0
1 0 -0.20000000000000004 -1 -0 
2 0 0 1 0 -0 1 47.409999999999997
1 0 0.20000000000000001 1 0 
8 0.19999940000000002 214.20000059999998
1 1.4660765716752369 0 0 1 
8 0.19999940000000002 214.20000059999998
1 47.410000000000004 0 0 -1 
Curves 12
2 0 0 214 0 0 1 1 0 -0 -0 1 0 47.439999999999998
1 -8.2378695485191731 46.719279802899152 0 0 0 1 
2 0 0 0 0 0 1 1 0 -0 -0 1 0 47.439999999999998
1 4.9588302974174798 47.18011871627089 0 0 0 1 
1 0 0 214.00000000000003 -0.10452846326765346 -0.9945218953682734 0 
2 0 0 214 0 0 1 1 0 -0 -0 1 0 47.409999999999997
1 -10.297336935648966 58.399099753623936 214.00000000000003 -0.1736481776669303 0.98480775301220813 0 
1 -10.297336935648966 58.399099753623936 2.7755575615628914e-17 -0.1736481776669303 0.98480775301220813 0 
1 -8.2326601031891649 46.689735570308784 -0.20000000000000001 0 0 1 
1 0 0 2.7755575615628914e-17 -0.10452846326765346 -0.9945218953682734 0 
2 0 0 0 0 0 1 1 0 -0 -0 1 0 47.409999999999997
1 4.9556944435194499 47.150283059409837 -0.20000000000000001 0 0 1 
Polygon3D 0
PolygonOnTriangulations 0
Surfaces 6
2 0 0 0 0 0 1 1 0 -0 -0 1 0 47.439999999999998
1 0 0 214 0 0 1 1 0 -0 -0 1 0 
1 -20.594673871297932 116.79819950724787 -0.20000000000000001 0.98480775301220813 0.1736481776669303 -0 0.1736481776669303 -0.98480775301220813 0 0 -0 -1 
1 0 0 0 0 0 1 1 0 -0 -0 1 0 
1 0 0 -0.20000000000000001 -0.9945218953682734 0.10452846326765346 0 0.10452846326765346 0.9945218953682734 0 0 0 -1 
2 0 0 -0.20000000000000001 0 0 1 1 0 -0 -0 1 0 47.409999999999997
Triangulations 0

TShapes 35
Ve
1.50000029296428e-07
4.95883029741748 47.1801187162709 214
0 0

0101101
*
Ve
1.50000028477166e-07
-8.23786954851917 46.7192798028991 214
0 0

0101101
*
Ed
 1e-07 1 1 0
1  1 0 1.46607657167524 1.74532925199433
2  1 1 0 1.46607657167524 1.74532925199433
2  2 2 0 1.46607657167524 1.74532925199433
0

0101000
+35 0 -34 0 *
Ve
1.50000001776574e-07
-8.23786954851917 46.7192798028991 0
0 0

0101101
*
Ed
 1e-07 1 1 0
1  2 0 0 214
2  3 1 0 0 214
2  4 3 0 0 214
0

0101000
+32 0 -34 0 *
Ve
1.50000007105482e-07
4.95883029741748 47.1801187162709 0
0 0

0101101
*
Ed
 1e-07 1 1 0
1  3 0 1.46607657167524 1.74532925199433
2  5 1 0 1.46607657167524 1.74532925199433
2  6 4 0 1.46607657167524 1.74532925199433
0

0101000
+30 0 -32 0 *
Ed
 1e-07 1 1 0
1  4 0 0 214
2  7 1 0 0 214
2  8 5 0 0 214
0

0101000
+30 0 -35 0 *
Wi

0101100
-33 0 +31 0 +29 0 -28 0 *
Fa
0  1e-07 1 0

0101000
+27 0 *
Ve
1.50000029296428e-07
4.95569444351945 47.1502830594098 214
0 0

0101101
*
Ed
 1.5e-07 1 1 0
1  5 0 -47.44 -47.41
2  9 2 0 -47.44 -47.41
2  10 5 0 -47.44 -47.41
0

0101000
+35 0 -25 0 *
Ve
1.50000028477166e-07
-8.23266010318916 46.6897355703088 214
0 0

0101101
*
Ed
 1e-07 1 1 0
1  6 0 1.46607657167524 1.74532925199433
2  11 2 0 1.46607657167524 1.74532925199433
2  12 6 0 1.46607657167524 1.74532925199433
0

0101000
+25 0 -23 0 *
Ed
 1.5e-07 1 1 0
1  7 0 -11.89 -11.86
2  13 2 0 -11.89 -11.86
2  14 3 0 -11.89 -11.86
0

0101000
+23 0 -34 0 *
Wi

0101100
-24 0 -22 0 -21 0 +33 0 *
Fa
0  1e-07 2 0

0101000
+20 0 *
Ve
1.50000001776574e-07
-8.23266010318916 46.6897355703088 0
0 0

0101101
*
Ed
 1.5e-07 1 1 0
1  8 0 -11.89 -11.86
2  15 4 0 -11.89 -11.86
2  16 3 0 -11.89 -11.86
0

0101000
+18 0 -32 0 *
Ed
 1e-07 1 1 0
1  9 0 0.2 214.2
2  17 6 0 0.2 214.2
2  18 3 0 0.2 214.2
0

0101000
+18 0 -23 0 *
Wi

0101100
+17 0 -16 0 -21 0 +31 0 *
Fa
0  1e-07 3 0

0101000
+15 0 *
Ve
1.50000007105482e-07
4.95569444351945 47.1502830594098 0
0 0

0101101
*
Ed
 1.5e-07 1 1 0
1  10 0 -47.44 -47.41
2  19 4 0 -47.44 -47.41
2  20 5 0 -47.44 -47.41
0

0101000
+30 0 -13 0 *
Ed
 1e-07 1 1 0
1  11 0 1.46607657167524 1.74532925199433
2  21 4 0 1.46607657167524 1.74532925199433
2  22 6 0 1.46607657167524 1.74532925199433
0

0101000
+13 0 -18 0 *
Wi

0101100
-12 0 -11 0 -17 0 +29 0 *
Fa
0  1e-07 4 0

0101000
+10 0 *
Ed
 1e-07 1 1 0
1  12 0 0.2 214.2
2  23 6 0 0.2 214.2
2  24 5 0 0.2 214.2
0

0101000
+13 0 -25 0 *
Wi

0101100
-28 0 -24 0 +8 0 +12 0 *
Fa
0  1e-07 5 0

0101000
+7 0 *
Wi

0101100
-22 0 +16 0 +11 0 -8 0 *
Fa
0  1e-07 6 0

0101000
+5 0 *
Sh

0101100
+26 0 +19 0 -14 0 -9 0 -6 0 -4 0 *
So

0100000
+3 0 *
Co

0100000
+2 0 *

+1 0 