DBRep_DrawableShape

CASCADE Topology V3, (c) Open Cascade
Locations 0
Curve2ds 23
1 0 1.5 1 0 
2 0 0 1 0 -0 1 4.4000000000000004
1 6.2831853071795862 -0 0 1 
1 0 -0 0 1 
1 0 0 1 0 
2 0 0 1 0 -0 1 4.4000000000000004
1 0 0 1 0 
2 0 0 1 0 -0 1 4
2 0 0 1 0 -0 1 4
1 0 19.699999999999999 1 0 
2 0 0 1 0 -0 1 4
1 6.2831853071795862 -0 0 1 
1 0 -0 0 1 
2 0 0 1 0 -0 1 3.75
1 0 0.10000000000000142 1 0 
2 0 0 1 0 -0 1 3.75
1 0 0.55000000000000071 1 0 
1 6.2831853071795862 -0 0 1 
1 0 -0 0 1 
1 0 20.149999999999999 1 0 
2 0 0 1 0 -0 1 4
1 0 20.5 1 0 
2 0 0 1 0 -0 1 4
Curves 11
2 0 0 0 0 1 0 0 -0 1 1 0 -0 4.4000000000000004
1 -1.077689183249671e-15 -1.5 4.4000000000000004 0 1 0 
2 0 -1.5 0 0 1 0 0 -0 1 1 0 -0 4.4000000000000004
2 0 0 0 0 1 0 0 -0 1 1 0 -0 4
2 0 19.699999999999999 0 0 1 0 0 -0 1 1 0 -0 4
1 -9.7971743931788257e-16 0 4 0 1 0 
2 0 19.699999999999999 0 0 1 0 0 -0 1 1 0 -0 3.75
2 0 20.149999999999999 0 0 1 0 0 -0 1 1 0 -0 3.75
1 -9.1848509936051499e-16 19.599999999999998 3.75 0 1 0 
2 0 20.149999999999999 0 0 1 0 0 -0 1 1 0 -0 4
2 0 20.5 0 0 1 0 0 -0 1 1 0 -0 4
Polygon3D 0
PolygonOnTriangulations 0
Surfaces 9
2 0 -1.5 0 0 1 0 0 -0 1 1 0 -0 4.4000000000000004
1 0 0 0 0 1 0 0 -0 1 1 0 -0 
1 0 -1.5 0 0 1 0 0 -0 1 1 0 -0 
2 0 0 0 0 1 0 0 -0 1 1 0 -0 4
1 0 0 0 0 1 0 0 -0 1 1 0 -0 
1 0 19.699999999999999 0 0 1 0 0 -0 1 1 0 -0 
2 0 19.599999999999998 0 0 1 0 0 -0 1 1 0 -0 3.75
1 0 20.149999999999999 0 0 1 0 0 -0 1 1 0 -0 
1 0 20.5 0 0 1 0 0 -0 1 1 0 -0 
Triangulations 0

TShapes 44
Ve
1e-07
-1.07768918324967e-15 0 4.4
0 0

0101101
*
Ed
 1e-07 1 1 0
1  1 0 0 6.28318530717959
2  1 1 0 0 6.28318530717959
2  2 2 0 0 6.28318530717959
0

0101000
+44 0 -44 0 *
Ve
1e-07
-1.07768918324967e-15 -1.5 4.4
0 0

0101101
*
Ed
 1e-07 1 1 0
1  2 0 0 1.5
3  3 4CN 1 0 0 1.5
0

0101000
-44 0 +42 0 *
Ed
 1e-07 1 1 0
1  3 0 0 6.28318530717959
2  5 1 0 0 6.28318530717959
2  6 3 0 0 6.28318530717959
0

0101000
+42 0 -42 0 *
Wi

0101100
-43 0 +41 0 +40 0 -41 0 *
Fa
0  1e-07 1 0

0101000
+39 0 *
Wi

0101100
+43 0 *
Ve
1e-07
-9.79717439317883e-16 0 4
0 0

0101101
*
Ed
 1e-07 1 1 0
1  4 0 0 6.28318530717959
2  7 4 0 0 6.28318530717959
2  8 5 0 0 6.28318530717959
2  9 2 0 0 6.28318530717959
0

0101000
+36 0 -36 0 *
Wi

0101100
-35 0 *
Fa
0  1e-07 2 0

0101000
+37 0 +34 0 *
Wi

0101100
-40 0 *
Fa
0  1e-07 3 0

0101000
-32 0 *
Ve
1.00000000979717e-07
-9.79717439317883e-16 19.7 4
0 0

0101101
*
Ed
 1e-07 1 1 0
1  5 0 0 6.28318530717959
2  10 4 0 0 6.28318530717959
2  11 6 0 0 6.28318530717959
0

0101100
+30 0 -30 0 *
Ed
 1e-07 1 1 0
1  6 0 0 19.7
3  12 13CN 4 0 0 19.7
0

0101000
+36 0 -30 0 *
Wi

0101100
-29 0 +28 0 +35 0 -28 0 *
Fa
0  1e-07 4 0

0101000
+27 0 *
Wi

0101100
+29 0 *
Ve
1.00000000918485e-07
-9.18485099360515e-16 19.7 3.75
0 0

0101101
*
Ed
 1e-07 1 1 0
1  7 0 0 6.28318530717959
2  14 6 0 0 6.28318530717959
2  15 7 0 0 6.28318530717959
0

0101100
+24 0 -24 0 *
Wi

0101100
-23 0 *
Fa
0  1e-07 6 0

0101000
+25 0 +22 0 *
Ve
1.00000000918485e-07
-9.18485099360515e-16 20.15 3.75
0 0

0101101
*
Ed
 1e-07 1 1 0
1  8 0 0 6.28318530717959
2  16 8 0 0 6.28318530717959
2  17 7 0 0 6.28318530717959
0

0101100
+20 0 -20 0 *
Ed
 1e-07 1 1 0
1  9 0 0.100000000000001 0.550000000000001
3  18 19CN 7 0 0.100000000000001 0.550000000000001
0

0101000
+24 0 -20 0 *
Wi

0101100
-19 0 +18 0 +23 0 -18 0 *
Fa
0  1e-07 7 0

0101000
+17 0 *
Ve
1.00000000979717e-07
-9.79717439317883e-16 20.15 4
0 0

0101101
*
Ed
 1e-07 1 1 0
1  10 0 0 6.28318530717959
2  20 4 0 0 6.28318530717959
2  21 8 0 0 6.28318530717959
0

0101100
+15 0 -15 0 *
Wi

0101100
+14 0 *
Wi

0101100
-19 0 *
Fa
0  1e-07 8 0

0101000
+13 0 +12 0 *
Ve
1e-07
-9.79717439317883e-16 20.5 4
0 0

0101101
*
Ed
 1e-07 1 1 0
1  6 0 20.15 20.5
3  12 13CN 4 0 20.15 20.5
0

0101000
+15 0 -10 0 *
Ed
 1e-07 1 1 0
1  11 0 0 6.28318530717959
2  22 4 0 0 6.28318530717959
2  23 9 0 0 6.28318530717959
0

0101000
+10 0 -10 0 *
Wi

0101100
+9 0 +14 0 -9 0 -8 0 *
Fa
0  1e-07 4 0

0101000
+7 0 *
Wi

0101100
+8 0 *
Fa
0  1e-07 9 0

0101000
+5 0 *
Sh

0101100
+38 0 +33 0 -31 0 +26 0 +21 0 +16 0 -11 0 +6 0 +4 0 *
So

0100000
+3 0 *
Co

0100000
+2 0 *

+1 0 