DBRep_DrawableShape

CASCADE Topology V3, (c) Open Cascade
Locations 8
1
              1               0               0               0 
              0               1               0               0 
              0               0               1             340 
1
              1               0               0               0 
              0               1               0               0 
              0               0               1            -125 
1
            0.5 0.866025403784439               0               0 
-0.866025403784439             0.5               0               0 
              0               0               1               0 
1
              1               0               0               0 
              0               1               0               0 
              0               0               1             469 
2  1 1 2 -1 3 -1 4 -1 0
1
              1               0               0               0 
              0               1               0               0 
              0               0               1            1218 
1
              1               0               0               0 
              0               1               0               0 
              0               0               1          -480.6 
2  6 1 7 1 2 -1 3 -1 4 -1 0
Curve2ds 194
1 5.8912262425104984 0 1 0 
2 0 0 0.9241624717725021 -0.38199964105655826 0.38199964105655826 0.9241624717725021 28.5
8 -5.9999999999999997e-07 1.4000006
1 0.39195906466909097 0 0 1 
8 -5.9999999999999997e-07 1.4000006
1 6.2117365759417753 0.20000000000000001 0 1 
8 0 1.4000000000000001
1 6.6751443718486776 0 0 1 
1 0 1.4000000000000001 1 0 
2 -23.745264020360228 -11.072598457606325 1 0 -0 1 28.5
8 0.39195906466909147 0.48070556132807329
1 6.2831853071795862 1.4000000000000001 1 0 
8 -5.9999999999999997e-07 1.4000006
1 0.48070556132807385 0 0 1 
8 -5.9999999999999997e-07 1.4000006
1 0.94411335723497614 0.20000000000000001 0 1 
8 0 1.4000000000000001
1 6.7638908685076604 0 0 1 
1 0 0 1 0 
2 0 0 1 0 -0 1 28.5
8 0.48070556132807657 0.50614548307835572
1 6.2831853071795862 0 1 0 
8 -5.9999999999999997e-07 389.4000006
1 0.50614548307835572 0 0 1 
8 -5.9999999999999997e-07 389.4000006
1 42.749999999999993 -0.20000000000000001 0 -1 
8 0 389.39999999999998
1 6.7893307902579423 0 0 1 
1 0 389.39999999999998 1 0 
2 0 0 1 0 -0 1 28.5
8 0.48070556132807657 0.50614548307835572
1 6.2831853071795862 389.39999999999998 1 0 
8 387.99999939999998 389.4000006
1 0.48070556132807385 0 0 1 
8 387.99999939999998 389.4000006
1 0.94411335723497614 -388 0 1 
8 388 389.39999999999998
1 6.7638908685076604 0 0 1 
1 0 388 1 0 
2 -23.745264020360228 -11.072598457606325 1 0 -0 1 28.5
8 0.39195906466909147 0.48070556132807329
1 6.2831853071795862 388 1 0 
8 387.99999939999998 389.4000006
1 0.39195906466909097 0 0 1 
8 387.99999939999998 389.4000006
1 6.2117365759417753 -388 0 1 
8 388 389.39999999999998
1 6.6751443718486776 0 0 1 
1 6.675144371848674 389.39999999999998 -1 -0 
2 0 0 0.9241624717725021 0.38199964105655831 0.38199964105655831 -0.9241624717725021 28.500000000000004
8 387.99999939999998 389.4000006
1 5.8912262425104949 0 0 1 
8 387.99999939999998 389.4000006
1 0.071448731237811355 -388 0 1 
8 388 389.39999999999998
1 5.8912262425104949 0 0 1 
1 0 388 1 0 
2 -23.745264020360228 11.072598457606325 1 0 -0 1 28.5
8 5.8024797458515129 5.8912262425104949
1 0 388 1 0 
8 387.99999939999998 389.4000006
1 5.802479745851512 0 0 1 
8 387.99999939999998 389.4000006
1 5.3390719499446098 -388 0 1 
8 388 389.39999999999998
1 5.802479745851512 0 0 1 
8 5.7770398241012302 5.8024797458515094
1 0 389.39999999999998 1 0 
8 -5.9999999999999997e-07 389.4000006
1 5.7770398241012302 0 0 1 
8 -5.9999999999999997e-07 389.4000006
1 28.500000000000004 -0.20000000000000001 0 -1 
8 0 389.39999999999998
1 5.7770398241012302 0 0 1 
8 5.7770398241012302 5.8024797458515094
1 0 0 1 0 
8 -5.9999999999999997e-07 1.4000006
1 5.802479745851512 0 0 1 
8 -5.9999999999999997e-07 1.4000006
1 5.3390719499446098 0.20000000000000001 0 1 
8 0 1.4000000000000001
1 5.802479745851512 0 0 1 
1 0 1.4000000000000001 1 0 
2 -23.745264020360228 11.072598457606325 1 0 -0 1 28.5
8 5.8024797458515129 5.8912262425104949
1 0 1.4000000000000001 1 0 
8 -5.9999999999999997e-07 1.4000006
1 5.8912262425104949 0 0 1 
8 -5.9999999999999997e-07 1.4000006
1 0.071448731237811355 0.20000000000000001 0 1 
8 0 1.4000000000000001
1 5.8912262425104949 0 0 1 
1 0 1.6000000000000001 1 0 
2 0 0 1 0 -0 1 2.6000000000000001
8 0.19999940000000002 1.6000006
1 5.9128425210656559 0 0 1 
8 0.19999940000000002 1.6000006
1 2.0444402211279069 0 0 1 
8 0.20000000000000001 1.6000000000000001
1 5.9128425210656559 0 0 1 
2 23.745264020360228 -11.072598457606325 1 0 -0 1 2.6000000000000001
1 0 0.20000000000000001 1 0 
1 5.912842521065655 0.20000000000000001 1 0 
2 0 0 0.93220333408448897 -0.36193499958108893 0.36193499958108893 0.93220333408448897 24.199999999999999
2 0 0 0.15265676288631141 -0.98827926860026394 0.98827926860026394 0.15265676288631141 24.200000000000003
8 0.19999940000000002 1.6000006
1 0.37034278611393057 0 0 1 
8 0.19999940000000002 1.6000006
1 4.2387450860516793 0 0 1 
8 0.20000000000000001 1.6000000000000001
1 6.6535280932935166 0 0 1 
1 0 1.6000000000000001 1 0 
2 -23.745264020360228 -11.072598457606325 1 0 -0 1 24.199999999999999
8 0.37034278611393029 0.50232183988323464
1 6.2831853071795862 1.6000000000000001 1 0 
8 0.19999940000000002 1.6000006
1 0.5023218398832342 0 0 1 
8 0.19999940000000002 1.6000006
1 2.9171048471250729 0 0 1 
8 0.20000000000000001 1.6000000000000001
1 6.7855071470628205 0 0 1 
2 0 0 1 0 -0 1 24.199999999999999
1 0 0.20000000000000001 1 0 
8 0.5023218398832342 0.50614548307835572
1 6.2831853071795862 0.20000000000000001 1 0 
2 0 0 0.50000000000000011 -0.8660254037844386 0.8660254037844386 0.50000000000000011 24.200000000000003
8 0.19999940000000002 389.60000059999999
1 0.50614548307835572 0 0 1 
8 0.19999940000000002 389.60000059999999
1 47.049999999999997 0 0 -1 
8 0.20000000000000001 389.59999999999997
1 6.7893307902579423 0 0 1 
2 0 0 1 0 -0 1 24.199999999999999
1 0 389.59999999999997 1 0 
8 0.5023218398832342 0.50614548307835572
1 6.2831853071795862 389.59999999999997 1 0 
2 0 0 0.50000000000000011 -0.8660254037844386 0.8660254037844386 0.50000000000000011 24.200000000000003
8 388.19999939999997 389.60000059999999
1 0.5023218398832342 0 0 1 
8 388.19999939999997 389.60000059999999
1 2.9171048471250729 -388.19999999999999 0 1 
8 388.19999999999999 389.59999999999997
1 6.7855071470628205 0 0 1 
1 0 388.19999999999999 1 0 
2 -23.745264020360228 -11.072598457606325 1 0 -0 1 24.199999999999999
8 0.37034278611393029 0.50232183988323464
1 6.2831853071795862 388.19999999999999 1 0 
8 388.19999939999997 389.60000059999999
1 0.37034278611393057 0 0 1 
8 388.19999939999997 389.60000059999999
1 4.2387450860516793 -388.19999999999999 0 1 
8 388.19999999999999 389.59999999999997
1 6.6535280932935166 0 0 1 
1 6.6535280932935166 389.59999999999997 -1 -0 
2 0 0 0.93220333408448897 0.36193499958108882 0.36193499958108882 -0.93220333408448897 24.199999999999999
2 0 0 0.77954657119817772 -0.62634426901917495 -0.62634426901917495 -0.77954657119817772 24.200000000000003
8 388.19999939999997 389.60000059999999
1 5.9128425210656559 0 0 1 
8 388.19999939999997 389.60000059999999
1 2.0444402211279069 -388.19999999999999 0 1 
8 388.19999999999999 389.59999999999997
1 5.9128425210656559 0 0 1 
1 0 388.19999999999999 1 0 
2 -23.745264020360228 11.072598457606325 1 0 -0 1 24.199999999999999
8 5.7808634672963519 5.9128425210656559
1 0 388.19999999999999 1 0 
8 388.19999939999997 389.60000059999999
1 5.7808634672963519 0 0 1 
8 388.19999939999997 389.60000059999999
1 3.3660804600545133 -388.19999999999999 0 1 
8 388.19999999999999 389.59999999999997
1 5.7808634672963519 0 0 1 
8 5.7770398241012311 5.780863467296351
1 0 389.59999999999997 1 0 
2 0 0 0.50000000000000011 -0.8660254037844386 0.8660254037844386 0.50000000000000011 24.200000000000003
8 0.19999940000000002 389.60000059999999
1 5.7770398241012302 0 0 1 
8 0.19999940000000002 389.60000059999999
1 24.200000000000003 0 0 -1 
8 0.20000000000000001 389.59999999999997
1 5.7770398241012302 0 0 1 
8 5.7770398241012311 5.780863467296351
1 0 0.20000000000000001 1 0 
2 0 0 0.50000000000000011 -0.8660254037844386 0.8660254037844386 0.50000000000000011 24.200000000000003
8 0.19999940000000002 1.6000006
1 5.7808634672963519 0 0 1 
8 0.19999940000000002 1.6000006
1 3.3660804600545133 0 0 1 
8 0.20000000000000001 1.6000000000000001
1 5.7808634672963519 0 0 1 
1 0 1.6000000000000001 1 0 
2 -23.745264020360228 11.072598457606325 1 0 -0 1 24.199999999999999
8 5.7808634672963519 5.9128425210656559
1 0 1.6000000000000001 1 0 
7 0 0  3 91 89  6.2831853071795862 14.799999999999997  6.2798000871389439 14.800027655719479  6.2730573813572326 14.792914751207602  6.26311723414954 14.761770798656498  6.2534437085609591 14.711054505203709  6.2441225091874477 14.642115415887654  6.2352340365068395 14.556600621981374  6.2268481344380202 14.456441207552347  6.219036116065026 14.344022288412555  6.2118207880552188 14.221486014077048  6.2051530063530214 14.089577085583679  6.1990371326662013 13.949708005991118  6.1934613517578239 13.802943126305912  6.1884167955681404 13.650284375268818  6.1838929468634314 13.492608136335541  6.1798794008324816 13.330697567952605  6.176365685496517 13.165235744426194  6.1733422775464142 12.996854166449118  6.1707984616572809 12.825986023216705  6.1687266255712361 12.653066615456567  6.1671212331629395 12.478546645877552  6.1659779094161333 12.302840754653259  6.1652936344027385 12.126350086740535  6.1650666429242449 11.949464764722579  6.1652964063978786 11.772571472282538  6.1659835930149782 11.59605963167972  6.1671300448502979 11.420327214119983  6.1687387208895865 11.245788721568601  6.1708137714611437 11.072874324405582  6.1733601335026433 10.902061856261874  6.1763849240840738 10.733786053768474  6.17989980026376 10.568418439067605  6.183914037684958 10.406605461792251  6.1884381590326178 10.249025537191244  6.1934825352595473 10.096462287388929  6.1990576785257456 9.9497908903889112  6.2051724140778761 9.8100127372428236  6.2118386338057237 9.6781896382719417  6.2190516148595902 9.5557377675530226  6.2268618364136472 9.4433804907476109  6.2352466447487522 9.3432645155686931  6.244134376964686 9.2577855654670156  6.2534542589183726 9.1888774470751269  6.2631273999467156 9.1381958579528746  6.2730601029502644 9.1070615803792112  6.2831869928234427 9.0964676960934394  6.293312746959062 9.1070676366273347  6.3032428531650391 9.1381965117314792  6.3129126082843987 9.188856441013229  6.3222289772786784 9.2577265778604207  6.3311136917765465 9.3431563457192475  6.339496429552173 9.4432198089856794  6.3473062606452659 9.5555387851991025  6.3545197895154759 9.6779663495234765  6.3611864045651645 9.809762285824549  6.3673016739077344 9.9495150877509335  6.3728774060097386 10.096161766600396  6.3779224422140004 10.248701206012267  6.3824472901178488 10.40625842957529  6.3864623028222889 10.568048763606162  6.3899780630578507 10.733397746581339  6.3930036127146499 10.901644044059335  6.3955515393465365 11.072475313656886  6.3976287326835761 11.245479509698962  6.3992394760218625 11.420167658028086  6.4003874433139547 11.596102728954559  6.4010751720430079 11.772857583076703  6.4013042096680497 11.950018808966595  6.4010750759775767 12.127178393603229  6.4003872754706421 12.303928468279516  6.399239281933319 12.479856043445494  6.3976285731265765 12.654534661160101  6.3955514821833654 12.827528162250662  6.3930037215612563 12.998348676359297  6.3899783894454831 13.166585030310952  6.3864629089672214 13.331924361814181  6.3824482379847609 13.493705612271835  6.3779237959250255 13.651254426622636  6.3728792328699226 13.803786286419749  6.3673040376402632 13.950426488495024  6.3611893904149781 14.090173830302716  6.3545234089113967 14.221966737933577  6.3473108049115412 14.344389678912499  6.3395011442785565 14.456718944295499  6.33111732754426 14.556805511260885  6.3222310730092239 14.642257845766988  6.3129125545875908 14.711142570782904  6.3032425132298702 14.761813316285084  6.2933069701659194 14.792924040191615  6.2865682551883362 14.800027879389342  6.2831853071795862 14.799999999999997 
 0 4 0.022727348884235353 1 0.045454697768470706 1 0.068182046652706052 1 0.090909395536941412 1 0.11363674442117677 1 0.1363640933054121 1 0.15909144218964746 1 0.18181879107388282 1 0.20454613995811818 1 0.22727348884235354 1 0.25000083772658888 1 0.27272818661082421 1 0.2954555354950596 1 0.31818288437929493 1 0.34091023326353032 1 0.36363758214776565 1 0.38636493103200098 1 0.40909227991623637 1 0.4318196288004717 1 0.45454697768470709 1 0.47727432656894242 1 0.50000167545317775 1 0.52272902433741308 1 0.54545637322164842 1 0.56818372210588386 1 0.59091107099011919 1 0.61363841987435452 1 0.63636576875858986 1 0.65909311764282519 1 0.68182046652706063 1 0.70454781541129596 1 0.7272751642955313 1 0.75000251317976663 1 0.77272986206400196 1 0.7954572109482374 1 0.81818455983247274 1 0.84091190871670807 1 0.8636392576009434 1 0.88636660648517873 1 0.90909395536941418 1 0.93182130425364951 1 0.95454865313788484 1 0.97727600202212017 1 1.0000033509063555 1 1.0227306997905909 1 1.0454580486748262 1 1.0681853975590616 1 1.0909127464432968 1 1.1136400953275323 1 1.1363674442117677 1 1.1590947930960029 1 1.1818221419802384 1 1.2045494908644736 1 1.227276839748709 1 1.2500041886329445 1 1.2727315375171797 1 1.2954588864014152 1 1.3181862352856504 1 1.3409135841698858 1 1.3636409330541213 1 1.3863682819383565 1 1.4090956308225919 1 1.4318229797068271 1 1.4545503285910626 1 1.477277677475298 1 1.5000050263595333 1 1.5227323752437687 1 1.5454597241280039 1 1.5681870730122394 1 1.5909144218964748 1 1.61364177078071 1 1.6363691196649455 1 1.6590964685491807 1 1.6818238174334161 1 1.7045511663176516 1 1.7272785152018868 1 1.7500058640861222 1 1.7727332129703575 1 1.7954605618545929 1 1.8181879107388284 1 1.8409152596230636 1 1.863642608507299 1 1.8863699573915342 1 1.9090973062757697 1 1.9318246551600049 1 1.9545520040442403 1 1.9772793529284758 1 2.000006701812711 4
7 0 0  3 91 89  4.6746232615796102e-16 0.24999999999999645  0.028740471219803193 0.25000717438766923  0.086001412327968457 0.24916235145733376  0.17102269359480687 0.24551698565712685  0.25497045575368232 0.23966192313595391  0.3376177281821679 0.2318739201776592  0.41870456603675665 0.22248473990815329  0.4979623447355111 0.21187071519790959  0.574977319047144 0.20045089325382895  0.64965780195716905 0.18859548273878199  0.72261527366264 0.1765241328256478  0.7938976439862323 0.16450849657184322  0.86368719262764815 0.15276866297997188  0.9321184966021473 0.14150199759840668  0.99933029397676298 0.13087730617930415  1.0654529674244877 0.12103887747261075  1.1306176635463707 0.11210764719310171  1.1949423274420774 0.10418516067533541  1.2585910568860801 0.097349262933900949  1.321700668384719 0.091666817425301889  1.3843842793715579 0.087192791954619042  1.446754592506923 0.083968759721846073  1.5089193592441863 0.082024175296074614  1.5709840089016607 0.081376624082690904  1.6330521736606791 0.082032075522426265  1.6952266055169298 0.083984865524996399  1.7576101771954615 0.087217520908412491  1.8203061039663679 0.091700294281039207  1.883421535900877 0.097390867868434483  1.947059157247111 0.10423256886183016  2.0113544439817472 0.11215731250218343  2.0764942457283149 0.12108981001339865  2.1425905877558602 0.1309279127782885  2.2097759887093678 0.14155091611611906  2.2781802324296452 0.15281457574067722  2.3479420628526531 0.16455023892981219  2.4191956065343443 0.17656067549891616  2.492123884686122 0.18862615759888177  2.5667711872464216 0.20047480277582172  2.643762123084052 0.21188927681937422  2.7230048907776454 0.22249934172091829  2.804081350738219 0.23188494675895976  2.88671475583712 0.23966984973545855  2.9706566726428907 0.24552037796343593  3.0556164781390791 0.2491669553541235  3.1416069463742247 0.25041669945216133  3.2275878932147544 0.24916624667471585  3.3125256511289796 0.24552031481546069  3.3964379504960278 0.23967227148381848  3.4790390469307826 0.23189155591201413  3.5600854456498476 0.22251107462990749  3.6393044046356127 0.21190602209200546  3.7162856874280168 0.20049457593402267  3.7909319273827982 0.18864721706333193  3.8638567974023426 0.17658294190196402  3.9351075449019386 0.1645731661601556  4.0048663821468802 0.15283773885878796  4.0732676000981733 0.14157386655126458  4.1404499700830621 0.13095021012011326  4.2065428676797865 0.12111107160914876  4.2716802708447235 0.11217700732527409  4.3359686143923284 0.10425080966555027  4.3996168951164245 0.097405295927381536  4.4627675621200469 0.091709061399395886  4.5255184471600556 0.087220605729518105  4.5879741411025332 0.08398367939112894  4.6502337713195772 0.082029330612882104  4.7123955756384763 0.08137594364274757  4.7745568303802139 0.082029604229028705  4.8368148497493033 0.083984154578854539  4.8992679835833348 0.087221149531071435  4.9620155457835162 0.091709501396056478  5.0251623736238304 0.097405448577651807  5.0888066351267014 0.10425051672555331  5.1530910533724361 0.11217615897034436  5.2182243714758494 0.12110954999516454  5.2843130579578714 0.13094792422607635  5.351491055284848 0.14157075063639246  5.4198877038142177 0.15283375773139277  5.489641801070591 0.16456833186399678  5.5608874083917215 0.17657728154045407  5.6338074566316187 0.18864092762243331  5.7084463562162826 0.20048748195092209  5.78542821872602 0.21189963969225403  5.8646589502640376 0.22250692034179176  5.9457203201947681 0.23188984076605806  6.0283403709528676 0.23967201546109804  6.1122559456453738 0.24552194232032273  6.1972371057039055 0.24916344718334199  6.254464095662521 0.25000719428205148  6.2831853071795871 0.24999999999999645 
 0 4 0.022727348884235353 1 0.045454697768470706 1 0.068182046652706052 1 0.090909395536941412 1 0.11363674442117677 1 0.1363640933054121 1 0.15909144218964746 1 0.18181879107388282 1 0.20454613995811818 1 0.22727348884235354 1 0.25000083772658888 1 0.27272818661082421 1 0.2954555354950596 1 0.31818288437929493 1 0.34091023326353032 1 0.36363758214776565 1 0.38636493103200098 1 0.40909227991623637 1 0.4318196288004717 1 0.45454697768470709 1 0.47727432656894242 1 0.50000167545317775 1 0.52272902433741308 1 0.54545637322164842 1 0.56818372210588386 1 0.59091107099011919 1 0.61363841987435452 1 0.63636576875858986 1 0.65909311764282519 1 0.68182046652706063 1 0.70454781541129596 1 0.7272751642955313 1 0.75000251317976663 1 0.77272986206400196 1 0.7954572109482374 1 0.81818455983247274 1 0.84091190871670807 1 0.8636392576009434 1 0.88636660648517873 1 0.90909395536941418 1 0.93182130425364951 1 0.95454865313788484 1 0.97727600202212017 1 1.0000033509063555 1 1.0227306997905909 1 1.0454580486748262 1 1.0681853975590616 1 1.0909127464432968 1 1.1136400953275323 1 1.1363674442117677 1 1.1590947930960029 1 1.1818221419802384 1 1.2045494908644736 1 1.227276839748709 1 1.2500041886329445 1 1.2727315375171797 1 1.2954588864014152 1 1.3181862352856504 1 1.3409135841698858 1 1.3636409330541213 1 1.3863682819383565 1 1.4090956308225919 1 1.4318229797068271 1 1.4545503285910626 1 1.477277677475298 1 1.5000050263595333 1 1.5227323752437687 1 1.5454597241280039 1 1.5681870730122394 1 1.5909144218964748 1 1.61364177078071 1 1.6363691196649455 1 1.6590964685491807 1 1.6818238174334161 1 1.7045511663176516 1 1.7272785152018868 1 1.7500058640861222 1 1.7727332129703575 1 1.7954605618545929 1 1.8181879107388284 1 1.8409152596230636 1 1.863642608507299 1 1.8863699573915342 1 1.9090973062757697 1 1.9318246551600049 1 1.9545520040442403 1 1.9772793529284758 1 2.000006701812711 4
7 0 0  3 91 89  6.2831853071795862 196.82636328886838  6.2798000870770991 196.82639094453316  6.2730573811551658 196.81927803969214  6.2631172337231114 196.78813408593095  6.2534437079674481 196.73741779053432  6.2441225084303333 196.66847869838452  6.235234035591148 196.58296390107515  6.2268481334149159 196.48280448323027  6.2190361149838207 196.37038556045138  6.2118207868359345 196.24784928077452  6.2051530050547443 196.1159403469787  6.1990371313108623 195.97607126177812  6.1934613503760634 195.82930637636136  6.1884167941869066 195.6766476194897  6.1838929455096707 195.51897137469317  6.1798793995309849 195.35706080038079  6.1763656842753258 195.19159897116106  6.1733422764180403 195.02321738673916  6.1707984606945532 194.85234924042109  6.1687266247910193 194.67942983067095  6.1671212325633427 194.50490985853205  6.1659779090024092 194.32920396421426  6.1652936341876572 194.15271329313902  6.1650666429228407 193.97582796841078  6.1652964066224607 193.79893467393842  6.1659835934749827 193.62242283181803  6.1671300455570988 193.44669041278786  6.1687387218618426 193.27215191838278  6.1708137727253769 193.09923751893834  6.1733601350682532 192.9284250497079  6.1763849259111696 192.76014924935484  6.1798998023681868 192.59478163637863  6.183914040069034 192.43296866138232  6.1884381617025337 192.2753887394135  6.1934825382204268 192.122825492716  6.1990576817829179 191.97615409933007  6.2051724176354996 191.83637595038215  6.2118386376697314 191.70455285623527  6.2190516190257936 191.58210099113626  6.2268618409222993 191.46974372029965  6.2352466495485706 191.36962775274222  6.2441343820225699 191.28414881134483  6.2534542641888473 191.2152407026646  6.2631274053884054 191.16455912406693  6.2730601084947226 191.13342485760157  6.2831869984875475 191.12283098502201  6.2933127524308112 191.13343093691208  6.3032428584316138 191.16455982273209  6.3129126133288462 191.21521976184948  6.3222289820492659 191.28408990724998  6.3311136962172467 191.3695196824072  6.3394964336642401 191.4695831521266  6.3473062644076608 191.58190213304206  6.3545197928793025 191.70432970022949  6.3611864075702993 191.83612563873288  6.3673016765687844 191.97587844200646  6.372877408348387 192.12252512153984  6.3779224442500153 192.27506456104547  6.3824472918711956 192.43262178420213  6.3864623043123476 192.59441211739897  6.3899780643034703 192.75976109918165  6.3930036137339545 192.92800739515272  6.3955515401583192 193.09883866310574  6.3976287333029456 193.27184285723459  6.3992394764641984 193.44653100345641  6.4003874435939236 193.62246607209602  6.4010751721748971 193.79922092377873  6.4013042096657715 193.9763821470969  6.4010750758547195 194.15354172904907  6.4003872752405417 194.33029180094516  6.3992392816091153 194.50621937325238  6.3976285727212927 194.6808979880428  6.3955514817098438 194.85389148616548  6.39300372103272 195.02471199725571  6.3899783888737236 195.1929483482327  6.3864629083651305 195.35828767674187  6.3824482373655211 195.5200689242096  6.3779237953022108 195.67761773558982  6.3728792322577457 195.83014959245557  6.3673040370527865 195.9767897916737  6.3611893898692022 196.11653713070061  6.3545234084158091 196.2483300357699  6.3473108045086937 196.37075297406273  6.3395011438827948 196.4830822381731  6.331117327187946 196.58316880396049  6.3222310727263462 196.66862113706452  6.3129125543654832 196.73750586093013  6.3032425130576488 196.78817660576411  6.2933069700923001 196.81928732925854  6.2865682551690334 196.82639116831368  6.2831853071795862 196.82636328886838 
 0 4 0.022727349169864543 1 0.045454698339729087 1 0.068182047509593627 1 0.090909396679458174 1 0.11363674584932272 1 0.13636409501918725 1 0.1590914441890518 1 0.18181879335891635 1 0.20454614252878089 1 0.22727349169864544 1 0.25000084086850999 1 0.27272819003837451 1 0.29545553920823908 1 0.3181828883781036 1 0.34091023754796818 1 0.36363758671783269 1 0.38636493588769721 1 0.40909228505756179 1 0.43181963422742631 1 0.45454698339729088 1 0.4772743325671554 1 0.50000168173701998 1 0.5227290309068845 1 0.54545638007674901 1 0.56818372924661353 1 0.59091107841647816 1 0.61363842758634268 1 0.6363657767562072 1 0.65909312592607172 1 0.68182047509593635 1 0.70454782426580087 1 0.72727517343566539 1 0.75000252260552991 1 0.77272987177539443 1 0.79545722094525906 1 0.81818457011512358 1 0.8409119192849881 1 0.86363926845485262 1 0.88636661762471725 1 0.90909396679458176 1 0.93182131596444628 1 0.9545486651343108 1 0.97727601430417532 1 1.00000336347404 1 1.0227307126439045 1 1.045458061813769 1 1.0681854109836335 1 1.090912760153498 1 1.1136401093233625 1 1.1363674584932271 1 1.1590948076630918 1 1.1818221568329563 1 1.2045495060028208 1 1.2272768551726854 1 1.2500042043425499 1 1.2727315535124144 1 1.2954589026822789 1 1.3181862518521434 1 1.340913601022008 1 1.3636409501918727 1 1.3863682993617372 1 1.4090956485316017 1 1.4318229977014663 1 1.4545503468713308 1 1.4772776960411953 1 1.5000050452110598 1 1.5227323943809243 1 1.5454597435507889 1 1.5681870927206536 1 1.5909144418905181 1 1.6136417910603826 1 1.6363691402302472 1 1.6590964894001117 1 1.6818238385699762 1 1.7045511877398407 1 1.7272785369097052 1 1.7500058860795698 1 1.7727332352494345 1 1.795460584419299 1 1.8181879335891635 1 1.840915282759028 1 1.8636426319288926 1 1.8863699810987571 1 1.9090973302686216 1 1.9318246794384861 1 1.9545520286083506 1 1.9772793777782154 1 2.0000067269480799 4
7 0 0  3 91 89  4.6746232615796624e-16 0.24999999999999645  0.028740471746421751 0.25000717438244913  0.086001414046720487 0.24916235141319387  0.17102269725495248 0.2455169854710107  0.2549704609344281 0.23966192272892808  0.33761773497545311 0.23187391946557945  0.41870457451933257 0.22248473885072401  0.49796235455692361 0.21187071382332981  0.5749773299356683 0.20045089157861465  0.64965781487543495 0.18859548064277123  0.72261528826855226 0.17652413037921799  0.79389766028991238 0.16450849381725963  0.86368721055818587 0.15276865998419636  0.93211851612537633 0.14150199443484926  0.9993303150547499 0.13087730293037894  1.0654529900581773 0.1210388742225203  1.130617687645584 0.11210764404018086  1.1949423533030745 0.10418515767887157  1.2585910832929796 0.097349260318580211  1.3217006950355736 0.091666815265951732  1.3843843065695787 0.087192790271682571  1.4467546205338886 0.083968758549781197  1.5089193882191314 0.082024174683630241  1.5709840387702232 0.081376624078697654  1.6330522043003795 0.082032076161992054  1.6952266368708044 0.083984866828227492  1.7576102093803811 0.087217522892341762  1.8203061372691745 0.091700296972323944  1.8834215706539961 0.097390871303945276  1.9470591932172443 0.10423257302088344  2.0113544801397683 0.11215731722238267  2.076494282416514 0.12108981527257549  2.1425906249717088 0.13092791850597812  2.2097760265439832 0.14155092223986096  2.2781802709508576 0.15281458217215574  2.3479421021396436 0.16455024556721506  2.4191956466623425 0.17656068222441057  2.492123925758591 0.18862616428140694  2.5667712292900542 0.2004748092573683  2.6437621665621824 0.21188928298282678  2.7230049352974266 0.22249934730628965  2.8040813961767102 0.2318849515548928  2.886714802015597 0.23966985354238726  2.9706567194708464 0.24552038061391723  3.0556165253346195 0.24916695672552142  3.1416069944120255 0.25041669944547895  3.2275879397898932 0.24916624532874701  3.3125256964543377 0.24552031223771492  3.3964379947055821 0.23967226782851755  3.4790390897861592 0.23189155139176093  3.5600854868360248 0.22251106946289895  3.6393044443180433 0.21190601645432705  3.7162857254009465 0.2004945700806037  3.7909319631611931 0.18864721123867004  3.863856831315478 0.17658293621759824  3.9351075770204651 0.16457316073383144  4.0048664125958116 0.15283773377614288  4.0732676289753531 0.14157386187915474  4.1404499974825022 0.13095020590586121  4.2065428936866356 0.12111106788399334  4.2716802955389728 0.11217700410607737  4.3359686378434006 0.10425080695726446  4.3996169174340665 0.097405293720876598  4.462767583343723 0.09170905968505684  4.5255184673400697 0.087220604488129183  4.5879741602790771 0.083983678597748343  4.6502337895290395 0.08202933023695895  4.7123955929122445 0.081375943649258237  4.7745568467454182 0.082029604579164972  4.8368148652287237 0.083984155230738586  4.8992679981960876 0.087221150440556228  4.9620155595439215 0.091709502517137026  5.0251623865449471 0.097405449863749452  5.0888066472093412 0.10425051812846528  5.1530910646439025 0.11217616044616741  5.218224381930896 0.1211095514980416  5.2843130675890322 0.13094792571151428  5.3514910640787443 0.14157075206202291  5.4198877117506656 0.15283375905773164  5.4896418081303358 0.16456833305674232  5.5608874145270404 0.17657728256801467  5.6338074618736043 0.18864092847145233  5.7084463602746638 0.20048748257657972  5.7854282225097968 0.21189964021485996  5.8646589535698066 0.22250692075562289  5.9457203227378423 0.23188984103730417  6.0283403728868956 0.2396720156090294  6.1122559471227103 0.24552194239177172  6.1972371063317437 0.24916344720561279  6.2544640958281761 0.2500071942876565  6.2831853071795871 0.24999999999999645 
 0 4 0.022727349169864543 1 0.045454698339729087 1 0.068182047509593627 1 0.090909396679458174 1 0.11363674584932272 1 0.13636409501918725 1 0.1590914441890518 1 0.18181879335891635 1 0.20454614252878089 1 0.22727349169864544 1 0.25000084086850999 1 0.27272819003837451 1 0.29545553920823908 1 0.3181828883781036 1 0.34091023754796818 1 0.36363758671783269 1 0.38636493588769721 1 0.40909228505756179 1 0.43181963422742631 1 0.45454698339729088 1 0.4772743325671554 1 0.50000168173701998 1 0.5227290309068845 1 0.54545638007674901 1 0.56818372924661353 1 0.59091107841647816 1 0.61363842758634268 1 0.6363657767562072 1 0.65909312592607172 1 0.68182047509593635 1 0.70454782426580087 1 0.72727517343566539 1 0.75000252260552991 1 0.77272987177539443 1 0.79545722094525906 1 0.81818457011512358 1 0.8409119192849881 1 0.86363926845485262 1 0.88636661762471725 1 0.90909396679458176 1 0.93182131596444628 1 0.9545486651343108 1 0.97727601430417532 1 1.00000336347404 1 1.0227307126439045 1 1.045458061813769 1 1.0681854109836335 1 1.090912760153498 1 1.1136401093233625 1 1.1363674584932271 1 1.1590948076630918 1 1.1818221568329563 1 1.2045495060028208 1 1.2272768551726854 1 1.2500042043425499 1 1.2727315535124144 1 1.2954589026822789 1 1.3181862518521434 1 1.340913601022008 1 1.3636409501918727 1 1.3863682993617372 1 1.4090956485316017 1 1.4318229977014663 1 1.4545503468713308 1 1.4772776960411953 1 1.5000050452110598 1 1.5227323943809243 1 1.5454597435507889 1 1.5681870927206536 1 1.5909144418905181 1 1.6136417910603826 1 1.6363691402302472 1 1.6590964894001117 1 1.6818238385699762 1 1.7045511877398407 1 1.7272785369097052 1 1.7500058860795698 1 1.7727332352494345 1 1.795460584419299 1 1.8181879335891635 1 1.840915282759028 1 1.8636426319288926 1 1.8863699810987571 1 1.9090973302686216 1 1.9318246794384861 1 1.9545520286083506 1 1.9772793777782154 1 2.0000067269480799 4
1 6.2831853071795862 -0 0 1 
1 0 -0 0 1 
1 0 3.4500000000000002 1 0 
2 0 0 1 0 -0 1 2.8500000000000001
1 6.2831853071795862 -0 0 1 
1 0 -0 0 1 
1 0 3.4500000000000002 1 0 
2 0 0 1 0 -0 1 2.8500000000000001
8 -5.9999999998949782e-07 1.6000006
1 24.28690621860482 0 0 -1 
8 -5.9999999998949782e-07 1.6000006
1 3.4149566543626539 0 0 1 
2 2.2834804599886454 -26.100301090003732 0.50000000000000011 -0.8660254037844386 0.8660254037844386 0.50000000000000011 2.5999999999999988
8 -32.585590934389622 -0
1 0 0 -0.87461970713939585 0.48480962024633711 
8 -32.585590934389622 -0
1 0 -0.20000000000000004 -1 -0 
1 0 0 -0.017452406437283574 0.99984769515639138 
8 -32.585590934389622 -0
1 0 0 -0.87461970713939585 0.48480962024633711 
8 -32.585590934389622 -0
1 0 -389.60000000000002 -1 -0 
1 0 0 -0.017452406437283574 0.99984769515639138 
2 23.745264020360228 -11.072598457606325 1 0 -0 1 2.6000000000000001
1 0 1.3999999999999773 1 0 
2 2.2834804599886454 -26.100301090003732 0.50000000000000011 -0.8660254037844386 0.8660254037844386 0.50000000000000011 2.5999999999999988
8 -6.0000002122251317e-07 1.6000005999999871
1 24.28690621860482 -388.19999999999999 0 -1 
8 -6.0000002122251317e-07 1.6000005999999871
1 3.4149566543626539 0 0 1 
1 0 0 1 0 
2 0 0 1 0 -0 1 2.6000000000000001
8 -6.0000002122251317e-07 1.6000005999999871
1 46.963093781395173 -388.19999999999999 0 -1 
8 -6.0000002122251317e-07 1.6000005999999871
1 2.8682286528169301 0 0 1 
2 23.745264020360228 11.072598457606325 1 0 -0 1 2.6000000000000001
1 0 1.3999999999999773 1 0 
2 21.461783560371586 -15.027702632397407 0.50000000000000011 -0.8660254037844386 0.8660254037844386 0.50000000000000011 2.5999999999999992
1 0 0 1 0 
2 0 0 1 0 -0 1 2.6000000000000001
8 -35.625 -3.0394090656103763
1 31.158327066840972 17.271342721275758 0.87461970713939585 0.48480962024633711 
8 -35.625 -3.0394090656103763
1 35.625 -389.60000000000002 -1 0 
1 30.536585087512755 -18.348231418670672 0.85716730070211233 -0.51503807491005404 
8 -35.625 -3.0394090656103763
1 31.158327066840972 17.271342721275758 0.87461970713939585 0.48480962024633711 
8 -35.625 -3.0394090656103763
1 35.625 -0.20000000000000004 -1 0 
1 30.536585087512755 -18.348231418670672 0.85716730070211233 -0.51503807491005404 
2 23.745264020360228 11.072598457606325 1 0 -0 1 2.6000000000000001
1 0 0.20000000000000001 1 0 
2 21.461783560371586 -15.027702632397407 0.50000000000000011 -0.8660254037844386 0.8660254037844386 0.50000000000000011 2.5999999999999992
1 0 1.6000000000000001 1 0 
2 0 0 1 0 -0 1 2.6000000000000001
8 -5.9999999998949782e-07 1.6000006
1 46.963093781395173 0 0 -1 
8 -5.9999999998949782e-07 1.6000006
1 2.8682286528169301 0 0 1 
8 11.131910941596306 15.133905882742745
1 13.068089058403697 -1.6000000000000003 1 0 
8 11.131910941596306 15.133905882742745
1 -12.315655795227645 4.7370631638563161 0.87461970713939585 -0.48480962024633711 
1 0 1.6000000000000001 1 0 
2 0 0 1 0 -0 1 1.3500000000000001
1 6.2831853071795862 -0 0 1 
1 0 -0 0 1 
1 0 388.19999999999999 1 0 
2 0 0 1 0 -0 1 1.3500000000000001
8 -5.9999999998949782e-07 1.6000006
1 27.985450015009974 0 0 -1 
8 -5.9999999998949782e-07 1.6000006
1 4.9975303402500142 0 0 1 
8 -6.0000002122251317e-07 1.6000005999999871
1 27.985450015009974 -388.19999999999999 0 -1 
8 -6.0000002122251317e-07 1.6000005999999871
1 4.9975303402500142 0 0 1 
8 11.131910941596306 15.133905882742745
1 13.068089058403697 -388.20000000000005 1 0 
8 11.131910941596306 15.133905882742745
1 -12.315655795227645 4.7370631638563161 0.87461970713939585 -0.48480962024633711 
8 20.491094117257262 24.493089058403694
1 22.556910941596303 -388.20000000000005 1 0 
8 20.491094117257262 24.493089058403694
1 18.842671271613323 12.534279557419445 -0.87461970713939585 -0.48480962024633711 
1 0 388.19999999999999 1 0 
2 0 0 1 0 -0 1 1.3500000000000001
1 0 1.6000000000000001 1 0 
2 0 0 1 0 -0 1 1.3500000000000001
1 6.2831853071795862 -0 0 1 
1 0 -0 0 1 
8 -6.0000002122251317e-07 1.6000005999999871
1 43.264549984990033 -388.19999999999999 0 -1 
8 -6.0000002122251317e-07 1.6000005999999871
1 1.2856549669295738 0 0 1 
8 -5.9999999998949782e-07 1.6000006
1 43.264549984990033 0 0 -1 
8 -5.9999999998949782e-07 1.6000006
1 1.2856549669295738 0 0 1 
8 20.491094117257262 24.493089058403694
1 22.556910941596303 -1.6000000000000003 1 0 
8 20.491094117257262 24.493089058403694
1 18.842671271613323 12.534279557419445 -0.87461970713939585 -0.48480962024633711 
Curves 72
8 0 0.78391812933817617
2 0 0 0 0 0 1 0.9241624717725021 -0.38199964105655826 0 0.38199964105655826 0.9241624717725021 -0 28.5
1 26.338630445516277 10.886989770111986 0 0 0 1 
2 0 0 1.4000000000000001 0 0 1 1 0 -0 -0 1 0 28.5
1 25.270063322177965 13.178539361139988 0 0 0 1 
2 0 0 0 0 0 1 1 0 -0 -0 1 0 28.5
1 24.926661653472781 13.817074177020611 0 0 0 1 
2 0 0 389.39999999999998 0 0 1 1 0 -0 -0 1 0 28.5
1 25.270063322177965 13.178539361139988 0 0 0 1 
2 0 0 388 0 0 1 1 0 -0 -0 1 0 28.5
1 26.338630445516277 10.886989770111986 0 0 0 1 
8 0 0.78391812933817617
2 0 0 389.39999999999998 0 0 -1 0.9241624717725021 0.38199964105655831 0 0.38199964105655831 -0.9241624717725021 0 28.5
1 26.338630445516277 -10.886989770111986 0 0 0 1 
2 0 0 388 0 0 1 1 0 -0 -0 1 0 28.5
1 25.270063322177965 -13.178539361139988 0 0 0 1 
1 24.926661653472781 -13.817074177020608 0 0 0 1 
1 25.270063322177965 -13.178539361139988 0 0 0 1 
2 0 0 1.4000000000000001 0 0 1 1 0 -0 -0 1 0 28.5
1 26.338630445516277 -10.886989770111986 0 0 0 1 
2 23.745264020360228 -11.072598457606325 1.4000000000000001 0 0 1 1 0 -0 -0 1 0 2.6000000000000001
1 22.559320684844632 -8.7588269898623512 -0.20000000000000001 0 0 1 
2 23.745264020360228 -11.072598457606325 0 0 0 1 1 0 -0 -0 1 0 2.6000000000000001
8 0 0.74068557222786136
2 0 0 0 0 0 1 0.93220333408448897 -0.36193499958108893 0 0.36193499958108893 0.93220333408448897 -0 24.199999999999999
1 22.559320684844632 8.7588269898623512 -0.20000000000000001 0 0 1 
2 0 0 1.4000000000000001 0 0 1 1 0 -0 -0 1 0 24.199999999999999
1 21.210502562987962 11.65137678669268 -0.20000000000000001 0 0 1 
2 0 0 0 0 0 1 1 0 -0 -0 1 0 24.199999999999999
1 21.165796912773381 11.732392809961361 -0.20000000000000001 0 0 1 
2 0 0 389.39999999999998 0 0 1 1 0 -0 -0 1 0 24.199999999999999
1 21.210502562987962 11.65137678669268 -0.20000000000000001 0 0 1 
2 0 0 388 0 0 1 1 0 -0 -0 1 0 24.199999999999999
1 22.559320684844632 8.7588269898623512 -0.20000000000000001 0 0 1 
8 0 0.74068557222786136
2 0 0 389.39999999999998 0 0 -1 0.93220333408448897 0.36193499958108882 0 0.36193499958108882 -0.93220333408448897 0 24.199999999999999
1 22.559320684844632 -8.7588269898623512 -0.20000000000000001 0 0 1 
2 0 0 388 0 0 1 1 0 -0 -0 1 0 24.199999999999999
1 21.210502562987962 -11.65137678669268 -0.20000000000000001 0 0 1 
1 21.165796912773381 -11.732392809961357 -0.20000000000000001 0 0 1 
1 21.210502562987962 -11.65137678669268 -0.20000000000000001 0 0 1 
2 0 0 1.4000000000000001 0 0 1 1 0 -0 -0 1 0 24.199999999999999
7 0 0  7 62 11  24.199999999999996 -1.3322676295501878e-15 14.599999999999998  24.199999999999996 -0.2476548078615893 14.599999999999998  24.197043755408838 -0.49303545271381266 14.57489297962158  24.191225872960565 -0.73218303503845461 14.525508734003889  24.182931277187695 -0.96133075698364301 14.453681367870308  24.17277374471778 -1.1771439880598937 14.362195853158706  24.161483519041493 -1.3769278399808769 14.254748946000436  24.135113442214951 -1.7854662575434193 13.987837476406202  24.119611826275083 -1.9870121021130593 13.820316076540086  24.104204118742036 -2.1638001165888316 13.63807835836554  24.089640806965694 -2.3166371184195818 13.444710354256951  24.076446909672136 -2.446465860090691 13.242977875641419  24.064989023659979 -2.554181921728726 13.035021418488805  24.042255060909326 -2.7612924939663128 12.525103965616582  24.032860474547096 -2.8403557731766864 12.21837949679484  24.028020582887549 -2.8794957362861546 11.906706051958276  24.028015939044362 -2.8795248747685043 11.593409325059927  24.03285785324033 -2.8403858097022274 11.28158830546792  24.042261351200516 -2.761235188259338 10.974754944627257  24.064989023659987 -2.5541819217286736 10.464978581511065  24.076446909672153 -2.4464658600905467 10.257022124358661  24.089640806965637 -2.3166371184200161 10.055289645743118  24.104204118742079 -2.163800116588587 9.8619216416344848  24.119611826275083 -1.9870121021128586 9.6796839234596934  24.135113442214937 -1.7854662575436229 9.5121625235939309  24.161481202324495 -1.3769637317191705 9.245274503242527  24.172772253348295 -1.1771764370036781 9.1378162273805881  24.18293206806673 -0.9613310894002528 9.0463107709813233  24.191228078732252 -0.732139719870467 8.9744724132985922  24.197045394432781 -0.4929600740821985 8.9250929652548017  24.199999999999996 -0.24758545479667196 8.9000000000000004  24.199999999999996 0.24765480601936399 8.9000000000000004  24.197043755348464 0.49303545642298446 8.9251070209707688  24.191225873050069 0.73218303317644795 8.9744912651065842  24.182931277213203 0.96133075479193431 9.0463186318870861  24.172773744580347 1.1771439913750232 9.1378041482122274  24.161483519130297 1.3769278386050356 9.2452510531006844  24.13511344221493 1.7854662575437292 9.5121625235940055  24.119611826275111 1.9870121021124842 9.6796839234595229  24.104204118742047 2.163800116589063 9.8619216416345967  24.089640806965665 2.3166371184196213 10.055289645742981  24.076446909672139 2.4464658600908047 10.257022124358974  24.064989023659994 2.554181921728583 10.464978581510859  24.042274343387891 2.7611168270483093 10.974463532911326  24.032865769467357 2.8403263901192561 11.281222940808631  24.028010241147395 2.8795730852049961 11.593213278785729  24.028010975501982 2.879567549539106 11.906843319415973  24.032867038894949 2.8403156161279632 12.218817231330553  24.042275147875603 2.7611094980176394 12.52555451155937  24.064989023659976 2.5541819217287745 13.035021418488672  24.0764469096722 2.4464658600901248 13.242977875642302  24.089640806965583 2.3166371184207191 13.444710354255463  24.104204118742132 2.1638001165877196 13.63807835836678  24.119611826275047 1.9870121021135374 13.820316076539623  24.135113442214955 1.7854662575433593 13.987837476406238  24.16148158666627 1.3769577773042567 14.254729386970894  24.172772754944255 1.177167227214305 14.362188275861387  24.182932236283992 0.96132434872672512 14.453690542745365  24.19122779731709 0.73214148810296431 14.52552507707713  24.19704501852744 0.49297225149090884 14.57490386899776  24.199999999999996 0.24760111744588453 14.599999999999998  24.199999999999996 -1.3489666681069203e-15 14.599999999999998 
 0 8 0.16033008848453301 6 0.36014412580936317 6 0.63971657917771974 6 0.83962546252304238 6 1 6 1.160419460028131 6 1.3603448766123365 6 1.6396663353569587 6 1.8396039015462076 6 2.000006701812711 8
7 0 0  7 62 11  24.199999999999996 -1.3322676295501878e-15 196.62636328886839  24.199999999999996 -0.24765480600985532 196.62636328886839  24.197043755348652 -0.49303545643237684 196.6012562678996  24.191225873049611 -0.73218303318361089 196.55187202375734  24.182931277213189 -0.96133075478482033 196.48004465698119  24.172773744581097 -1.1771439913665378 196.38855914066363  24.161483519129771 -1.3769278386132782 196.28111223576235  24.135113442214941 -1.7854662575435822 196.01420076527452  24.119611826275097 -1.9870121021128431 195.84667936540879  24.104204118742025 -2.1638001165889955 195.66444164723342  24.089640806965708 -2.3166371184194392 195.47107364312603  24.076446909672125 -2.4464658600907958 195.26934116450943  24.064989023659987 -2.5541819217286772 195.06138470735735  24.042255060708378 -2.7612924957969804 194.5514672499778  24.032860475133738 -2.8403557678245432 194.24474279586778  24.028020582010562 -2.8794957443170599 193.93306933499426  24.028015939905547 -2.8795248668823703 193.6197726079871  24.032857852686284 -2.8403858147566465 193.30795160402886  24.042261351381843 -2.7612351866074021 193.00111822942853  24.06498902365999 -2.5541819217286514 192.49134187037944  24.076446909672139 -2.4464658600906808 192.28338541322725  24.089640806965669 -2.3166371184197594 192.0816529346113  24.104204118742054 -2.1638001165887641 191.88828493050303  24.11961182627509 -1.9870121021128695 191.70604721232814  24.135113442214941 -1.7854662575435669 191.53852581246232  24.161481202324499 -1.3769637317191314 191.27163779211091  24.172772253348295 -1.1771764370037272 191.16417951624905  24.182932068066737 -0.96133108940028467 191.07267405984976  24.191228078732252 -0.73213971987039472 191.00083570216702  24.197045394432774 -0.49296007408212023 190.95145625412323  24.199999999999996 -0.2475854547967713 190.92636328886846  24.199999999999996 0.24765480778968202 190.92636328886846  24.197043755410665 0.49303545270432414 190.95147030923226  24.191225872959649 0.73218303509475469 191.00085455487002  24.182931277184561 0.96133075703797333 191.07268192102603  24.172773744717212 1.1771439880508818 191.16416743571941  24.161483519045408 1.3769278399202491 191.27161434282837  24.135113442214951 1.7854662575434315 191.53852581246224  24.119611826275083 1.9870121021130798 191.70604721232829  24.104204118742047 2.163800116588626 191.88828493050292  24.089640806965679 2.3166371184198131 192.08165293461138  24.076446909672143 2.446465860090639 192.28338541322717  24.064989023659987 2.5541819217286683 192.49134187037947  24.042274343387756 2.7611168270495496 193.00082682178279  24.032865769467325 2.8403263901193774 193.30758622968003  24.028010241147463 2.8795730852045813 193.61957656765361  24.028010975502021 2.8795675495386717 193.93320660828377  24.032867038894867 2.8403156161286742 194.24518052019619  24.042275147875561 2.7611094980180488 194.55191780042679  24.064989023659997 2.5541819217285497 195.06138470735766  24.076446909672125 2.4464658600908593 195.2693411645092  24.089640806965697 2.3166371184195023 195.47107364312581  24.104204118742022 2.1638001165890324 195.66444164723364  24.119611826275101 1.9870121021128524 195.8466793654087  24.135113442214951 1.7854662575434277 196.01420076527461  24.161481586586024 1.3769577785474796 196.28109267502711  24.172772755078832 1.1771672238435291 196.38855156606388  24.182932236254345 0.96132435108683489 196.48005383133665  24.191227797226652 0.73214149009657781 196.55188836505491  24.197045018587453 0.49297224769002057 196.60126715844848  24.199999999999996 0.2476011192312528 196.62636328886839  24.199999999999996 -1.3489666681069203e-15 196.62636328886839 
 0 8 0.16033008715149066 6 0.36014412131265017 6 0.63971657449169783 6 0.8396254604370913 6 1 6 1.1604194632613329 6 1.3603448853204592 6 1.6396663517173788 6 1.8396039233839714 6 2.0000067269480799 8
1 23.949999999999999 6.9804867551399161e-16 196.62636328886842 1 0 0 
2 27.399999999999999 0 193.77636328886842 1 0 0 -0 0 1 0 -1 0 2.8500000000000001
1 23.949999999999999 6.9804867551399161e-16 14.6 1 0 0 
2 27.399999999999999 0 11.75 1 0 0 -0 0 1 0 -1 0 2.8500000000000001
1 21.241806804238113 -11.774525780800206 -0.20000000000000001 0 0 1 
1 0 0 2.7755575615628914e-17 -0.87461970713939585 0.48480962024633711 0 
1 0 0 389.40000000000003 -0.87461970713939585 0.48480962024633711 0 
2 23.745264020360228 -11.072598457606325 389.39999999999998 0 0 1 1 0 -0 -0 1 0 2.6000000000000001
1 21.241806804238113 -11.774525780800206 388 0 0 1 
2 23.745264020360228 -11.072598457606325 388 0 0 1 1 0 -0 -0 1 0 2.6000000000000001
1 21.241806804238117 11.774525780800211 388 0 0 1 
2 23.745264020360228 11.072598457606325 389.39999999999998 0 0 1 1 0 -0 -0 1 0 2.6000000000000001
2 23.745264020360228 11.072598457606325 388 0 0 1 1 0 -0 -0 1 0 2.6000000000000001
1 31.158327066840972 17.271342721275758 389.40000000000003 0.87461970713939585 0.48480962024633711 -0 
1 31.158327066840972 17.271342721275758 2.7755575615628914e-17 0.87461970713939585 0.48480962024633711 -0 
2 23.745264020360228 11.072598457606325 0 0 0 1 1 0 -0 -0 1 0 2.6000000000000001
2 23.745264020360228 11.072598457606325 1.4000000000000001 0 0 1 1 0 -0 -0 1 0 2.6000000000000001
1 21.241806804238117 11.774525780800211 -0.20000000000000001 0 0 1 
1 11.429608225132583 -6.3355352937500093 1.4000000000000004 0.87461970713939585 -0.48480962024633711 0 
2 23.745264020360228 -11.072598457606325 1.4000000000000001 0 0 1 1 0 -0 -0 1 0 1.3500000000000001
1 25.095264020360229 -11.072598457606325 -0.20000000000000001 0 0 1 
2 23.745264020360228 -11.072598457606325 388 0 0 1 1 0 -0 -0 1 0 1.3500000000000001
1 24.476626096292218 -13.567615394199832 -0.20000000000000001 0 0 1 
1 24.476626096292218 -13.567615394199832 388 0 0 1 
1 11.429608225132583 -6.3355352937500093 388.00000000000006 0.87461970713939585 -0.48480962024633711 0 
1 42.587935291973551 23.606878015025771 388.00000000000006 -0.87461970713939585 -0.48480962024633711 0 
2 23.745264020360228 11.072598457606325 388 0 0 1 1 0 -0 -0 1 0 1.3500000000000001
2 23.745264020360228 11.072598457606325 1.4000000000000001 0 0 1 1 0 -0 -0 1 0 1.3500000000000001
1 25.095264020360229 11.072598457606325 -0.20000000000000001 0 0 1 
1 24.476626096292215 13.567615394199834 388 0 0 1 
1 24.476626096292215 13.567615394199834 -0.20000000000000001 0 0 1 
1 42.587935291973551 23.606878015025771 1.4000000000000004 -0.87461970713939585 -0.48480962024633711 0 
Polygon3D 0
PolygonOnTriangulations 0
Surfaces 24
10 3.1415926535897931 9.4247779607693793 -2e+100 2e+100
2 0 0 0 0 0 1 1 0 -0 -0 1 0 28.5
1 0 0 0 0 0 1 1 0 -0 -0 1 0 
2 0 0 0 0 0 1 1 0 -0 -0 1 0 28.5
2 23.745264020360228 11.072598457606325 -0.20000000000000001 0 0 1 1 0 -0 -0 1 0 2.6000000000000001
1 23.745264020360228 11.072598457606325 1.4000000000000001 0 0 1 1 0 -0 -0 1 0 
1 62.316654133681944 34.542685442551516 -0.20000000000000001 0.48480962024633711 -0.87461970713939585 0 -0.87461970713939585 -0.48480962024633711 0 0 -0 -1 
1 0 0 389.39999999999998 0 0 1 1 0 -0 -0 1 0 
2 23.745264020360228 11.072598457606325 388 0 0 1 1 0 -0 -0 1 0 2.6000000000000001
1 23.745264020360228 11.072598457606325 388 0 0 1 1 0 -0 -0 1 0 
2 23.745264020360228 -11.072598457606325 388 0 0 1 1 0 -0 -0 1 0 2.6000000000000001
1 23.745264020360228 -11.072598457606325 388 0 0 1 1 0 -0 -0 1 0 
1 0 0 -0.20000000000000001 0.48480962024633711 0.87461970713939585 -0 0.87461970713939585 -0.48480962024633711 0 0 -0 -1 
2 23.745264020360228 -11.072598457606325 -0.20000000000000001 0 0 1 1 0 -0 -0 1 0 2.6000000000000001
1 23.745264020360228 -11.072598457606325 1.4000000000000001 0 0 1 1 0 -0 -0 1 0 
2 0 0 -0.20000000000000001 0 0 1 1 0 -0 -0 1 0 24.199999999999999
10 3.1415926535897931 9.4247779607693793 -2e+100 2e+100
2 0 0 -0.20000000000000001 0 0 1 1 0 -0 -0 1 0 24.199999999999999
1 0 0 4 0 0 1 1 0 -0 -0 1 0 
1 0 0 -4 0 0 1 1 0 -0 -0 1 0 
2 23.949999999999999 0 11.75 1 0 0 -0 0 1 0 -1 0 2.8500000000000001
2 23.949999999999999 0 193.77636328886842 1 0 0 -0 0 1 0 -1 0 2.8500000000000001
1 27.399999999999999 0 193.77636328886842 1 0 0 -0 0 1 0 -1 0 
1 27.399999999999999 0 11.75 1 0 0 -0 0 1 0 -1 0 
2 23.745264020360228 -11.072598457606325 -0.20000000000000001 0 0 1 1 0 -0 -0 1 0 1.3500000000000001
2 23.745264020360228 11.072598457606325 -0.20000000000000001 0 0 1 1 0 -0 -0 1 0 1.3500000000000001
Triangulations 0

TShapes 240
Ve
1.0000008280567e-07
26.3386304455163 -10.8869897701119 0
0 0

0101101
*
Ve
1.00000081169984e-07
26.3386304455163 10.8869897701119 0
0 0

0101101
*
Ed
 1e-07 1 1 0
1  1 0 0 0.783918129338176
2  1 1 0 0 0.783918129338176
2  2 2 0 0 0.783918129338176
0

0101000
+240 0 -239 0 *
Ve
1.00000014321447e-07
26.3386304455163 10.886989770112 1.4
0 0

0101101
*
Ed
 1e-07 1 1 0
1  2 0 0 1.4
2  3 3 0 0 1.4
2  4 4 0 0 1.4
2  5 1 0 0 1.4
0

0101000
+239 0 -237 0 *
Ve
1.00000015888219e-07
25.270063322178 13.17853936114 1.4
0 0

0101101
*
Ed
 1e-07 1 1 0
1  3 0 0.391959064669091 0.480705561328073
2  6 3 0 0.391959064669091 0.480705561328073
2  7 5 0 0.391959064669091 0.480705561328073
2  8 1 0 0.391959064669091 0.480705561328073
0

0101000
+237 0 -235 0 *
Ve
1.00000076279998e-07
25.2700633221779 13.1785393611401 0
0 0

0101101
*
Ed
 1e-07 1 1 0
1  4 0 0 1.4
2  9 3 0 0 1.4
2  10 4 0 0 1.4
2  11 1 0 0 1.4
0

0101000
+233 0 -235 0 *
Ve
1.50000003552822e-07
24.9266616534728 13.8170741770206 0
0 0

0101101
*
Ed
 1e-07 1 1 0
1  5 0 0.480705561328077 0.506145483078356
2  12 3 0 0.480705561328077 0.506145483078356
2  13 2 0 0.480705561328077 0.506145483078356
2  14 1 0 0.480705561328077 0.506145483078356
0

0101000
+233 0 -231 0 *
Ve
1.50000056954333e-07
24.9266616534728 13.8170741770206 389.4
0 0

0101101
*
Ed
 1e-07 1 1 0
1  6 0 0 389.4
2  15 3 0 0 389.4
2  16 6 0 0 389.4
2  17 1 0 0 389.4
0

0101000
+231 0 -229 0 *
Ve
1.00000076279998e-07
25.2700633221779 13.1785393611401 389.4
0 0

0101101
*
Ed
 1e-07 1 1 0
1  7 0 0.480705561328077 0.506145483078356
2  18 3 0 0.480705561328077 0.506145483078356
2  19 7 0 0.480705561328077 0.506145483078356
2  20 1 0 0.480705561328077 0.506145483078356
0

0101000
+227 0 -229 0 *
Ve
1.00000015888219e-07
25.270063322178 13.17853936114 388
0 0

0101101
*
Ed
 1e-07 1 1 0
1  8 0 388 389.4
2  21 3 0 388 389.4
2  22 8 0 388 389.4
2  23 1 0 388 389.4
0

0101000
+225 0 -227 0 *
Ve
1.00000014321447e-07
26.3386304455163 10.886989770112 388
0 0

0101101
*
Ed
 1e-07 1 1 0
1  9 0 0.391959064669091 0.480705561328073
2  24 3 0 0.391959064669091 0.480705561328073
2  25 9 0 0.391959064669091 0.480705561328073
2  26 1 0 0.391959064669091 0.480705561328073
0

0101000
+223 0 -225 0 *
Ve
1.00000081169984e-07
26.3386304455163 10.8869897701119 389.4
0 0

0101101
*
Ed
 1e-07 1 1 0
1  10 0 388 389.4
2  27 3 0 388 389.4
2  28 8 0 388 389.4
2  29 1 0 388 389.4
0

0101000
+223 0 -221 0 *
Ve
1.0000008280567e-07
26.3386304455163 -10.8869897701119 389.4
0 0

0101101
*
Ed
 1e-07 1 1 0
1  11 0 0 0.783918129338176
2  30 1 0 0 0.783918129338176
2  31 7 0 0 0.783918129338176
0

0101000
+221 0 -219 0 *
Ve
1.00000015888219e-07
26.3386304455163 -10.886989770112 388
0 0

0101101
*
Ed
 1e-07 1 1 0
1  12 0 388 389.4
2  32 3 0 388 389.4
2  33 10 0 388 389.4
2  34 1 0 388 389.4
0

0101000
+217 0 -219 0 *
Ve
1.00000014321447e-07
25.270063322178 -13.17853936114 388
0 0

0101101
*
Ed
 1e-07 1 1 0
1  13 0 5.80247974585151 5.89122624251049
2  35 3 0 5.80247974585151 5.89122624251049
2  36 11 0 5.80247974585151 5.89122624251049
2  37 1 0 5.80247974585151 5.89122624251049
0

0101000
+215 0 -217 0 *
Ve
1.00000092165363e-07
25.2700633221779 -13.1785393611401 389.4
0 0

0101101
*
Ed
 1e-07 1 1 0
1  14 0 388 389.4
2  38 3 0 388 389.4
2  39 10 0 388 389.4
2  40 1 0 388 389.4
0

0101000
+215 0 -213 0 *
Ve
1.5000006029155e-07
24.9266616534728 -13.8170741770206 389.4
0 0

0101101
*
Ed
 1e-07 1 1 0
1  7 0 5.77703982410123 5.80247974585151
2  18 3 0 5.77703982410123 5.80247974585151
2  19 7 0 5.77703982410123 5.80247974585151
2  41 1 0 5.77703982410123 5.80247974585151
0

0101000
+211 0 -213 0 *
Ve
1.50000020097203e-07
24.9266616534728 -13.8170741770206 0
0 0

0101101
*
Ed
 1e-07 1 1 0
1  15 0 0 389.4
2  42 3 0 0 389.4
2  43 12 0 0 389.4
2  44 1 0 0 389.4
0

0101000
+209 0 -211 0 *
Ve
1.00000092165363e-07
25.2700633221779 -13.1785393611401 0
0 0

0101101
*
Ed
 1e-07 1 1 0
1  5 0 5.77703982410123 5.80247974585151
2  12 3 0 5.77703982410123 5.80247974585151
2  13 2 0 5.77703982410123 5.80247974585151
2  45 1 0 5.77703982410123 5.80247974585151
0

0101000
+209 0 -207 0 *
Ve
1.00000014321447e-07
25.270063322178 -13.17853936114 1.4
0 0

0101101
*
Ed
 1e-07 1 1 0
1  16 0 0 1.4
2  46 3 0 0 1.4
2  47 13 0 0 1.4
2  48 1 0 0 1.4
0

0101000
+207 0 -205 0 *
Ve
1.00000015888219e-07
26.3386304455163 -10.886989770112 1.4
0 0

0101101
*
Ed
 1e-07 1 1 0
1  17 0 5.80247974585151 5.89122624251049
2  49 3 0 5.80247974585151 5.89122624251049
2  50 14 0 5.80247974585151 5.89122624251049
2  51 1 0 5.80247974585151 5.89122624251049
0

0101000
+205 0 -203 0 *
Ed
 1e-07 1 1 0
1  18 0 0 1.4
2  52 3 0 0 1.4
2  53 13 0 0 1.4
2  54 1 0 0 1.4
0

0101000
+240 0 -203 0 *
Wi

0101100
+238 0 +236 0 +234 0 -232 0 +230 0 +228 0 -226 0 -224 0 -222 0 +220 0 
+218 0 -216 0 -214 0 +212 0 -210 0 -208 0 +206 0 +204 0 +202 0 -201 0 
*
Fa
0  0 1 0

0101000
+200 0 *
Ve
1.00000009565974e-07
22.5593206848446 -8.75882698986234 1.4
0 0

0101101
*
Ed
 1e-07 1 1 0
1  19 0 0.0714487312378061 2.04444022112791
2  55 13 0 0.0714487312378061 2.04444022112791
2  56 14 0 0.0714487312378061 2.04444022112791
0

0101000
+203 0 -198 0 *
Ve
1.00000020791724e-07
22.5593206848446 -8.75882698986235 0
0 0

0101101
*
Ed
 1e-07 1 1 0
1  20 0 0.2 1.6
2  57 15 0 0.2 1.6
2  58 13 0 0.2 1.6
2  59 16 0 0.2 1.6
0

0101000
+196 0 -198 0 *
Ed
 1e-07 1 1 0
1  21 0 0.0714487312378398 2.04444022112791
2  60 2 0 0.0714487312378398 2.04444022112791
2  61 13 0 0.0714487312378398 2.04444022112791
0

0101000
+240 0 -196 0 *
Wi

0101100
-197 0 +195 0 +194 0 -201 0 *
Fa
0  1e-07 13 0

0101000
+193 0 *
Ve
1.00000005024296e-07
22.5593206848446 8.75882698986235 0
0 0

0101101
*
Ed
 1e-07 1 1 0
1  22 0 0 0.740685572227861
2  62 16 0 0 0.740685572227861
2  63 2 0 0 0.740685572227861
2  64 17 5 0 0.740685572227861
0

0101000
+196 0 -191 0 *
Ve
1.00000008881784e-07
22.5593206848446 8.75882698986234 1.4
0 0

0101101
*
Ed
 1e-07 1 1 0
1  23 0 0.2 1.6
2  65 15 0 0.2 1.6
2  66 4 0 0.2 1.6
2  67 16 0 0.2 1.6
0

0101000
+191 0 -189 0 *
Ve
1.00000011234667e-07
21.210502562988 11.6513767866927 1.4
0 0

0101101
*
Ed
 1e-07 1 1 0
1  24 0 0.37034278611393 0.502321839883235
2  68 15 0 0.37034278611393 0.502321839883235
2  69 5 0 0.37034278611393 0.502321839883235
2  70 16 0 0.37034278611393 0.502321839883235
0

0101000
+189 0 -187 0 *
Ve
1.00000007324107e-07
21.210502562988 11.6513767866927 0
0 0

0101101
*
Ed
 1e-07 1 1 0
1  25 0 0.2 1.6
2  71 15 0 0.2 1.6
2  72 4 0 0.2 1.6
2  73 16 0 0.2 1.6
0

0101000
+185 0 -187 0 *
Ve
1.50000001776574e-07
21.1657969127734 11.7323928099614 0
0 0

0101101
*
Ed
 1e-07 1 1 0
1  26 0 0.502321839883234 0.506145483078356
2  74 2 0 0.502321839883234 0.506145483078356
2  75 15 0 0.502321839883234 0.506145483078356
2  76 16 0 0.502321839883234 0.506145483078356
2  77 17 5 0.502321839883234 0.506145483078356
0

0101000
+185 0 -183 0 *
Ve
1.50000056871168e-07
21.1657969127734 11.7323928099614 389.4
0 0

0101101
*
Ed
 1e-07 1 1 0
1  27 0 0.2 389.6
2  78 15 0 0.2 389.6
2  79 6 0 0.2 389.6
2  80 16 0 0.2 389.6
0

0101000
+183 0 -181 0 *
Ve
1.00000007324107e-07
21.210502562988 11.6513767866927 389.4
0 0

0101101
*
Ed
 1e-07 1 1 0
1  28 0 0.502321839883234 0.506145483078356
2  81 7 0 0.502321839883234 0.506145483078356
2  82 15 0 0.502321839883234 0.506145483078356
2  83 16 0 0.502321839883234 0.506145483078356
2  84 18 8 0.502321839883234 0.506145483078356
0

0101000
+179 0 -181 0 *
Ve
1.00000011234667e-07
21.210502562988 11.6513767866927 388
0 0

0101101
*
Ed
 1e-07 1 1 0
1  29 0 388.2 389.6
2  85 15 0 388.2 389.6
2  86 8 0 388.2 389.6
2  87 16 0 388.2 389.6
0

0101000
+177 0 -179 0 *
Ve
1.00000008881784e-07
22.5593206848446 8.75882698986234 388
0 0

0101101
*
Ed
 1e-07 1 1 0
1  30 0 0.37034278611393 0.502321839883235
2  88 15 0 0.37034278611393 0.502321839883235
2  89 9 0 0.37034278611393 0.502321839883235
2  90 16 0 0.37034278611393 0.502321839883235
0

0101000
+175 0 -177 0 *
Ve
1.00000005024296e-07
22.5593206848446 8.75882698986235 389.4
0 0

0101101
*
Ed
 1e-07 1 1 0
1  31 0 388.2 389.6
2  91 15 0 388.2 389.6
2  92 8 0 388.2 389.6
2  93 16 0 388.2 389.6
0

0101000
+175 0 -173 0 *
Ve
1.00000020791724e-07
22.5593206848446 -8.75882698986235 389.4
0 0

0101101
*
Ed
 1e-07 1 1 0
1  32 0 0 0.740685572227861
2  94 16 0 0 0.740685572227861
2  95 7 0 0 0.740685572227861
2  96 18 8 0 0.740685572227861
0

0101000
+173 0 -171 0 *
Ve
1.00000009565974e-07
22.5593206848446 -8.75882698986234 388
0 0

0101101
*
Ed
 1e-07 1 1 0
1  33 0 388.2 389.6
2  97 15 0 388.2 389.6
2  98 10 0 388.2 389.6
2  99 16 0 388.2 389.6
0

0101000
+169 0 -171 0 *
Ve
1.00000009565974e-07
21.210502562988 -11.6513767866927 388
0 0

0101101
*
Ed
 1e-07 1 1 0
1  34 0 5.78086346729635 5.91284252106566
2  100 15 0 5.78086346729635 5.91284252106566
2  101 11 0 5.78086346729635 5.91284252106566
2  102 16 0 5.78086346729635 5.91284252106566
0

0101000
+167 0 -169 0 *
Ve
1.00000022257687e-07
21.210502562988 -11.6513767866927 389.4
0 0

0101101
*
Ed
 1e-07 1 1 0
1  35 0 388.2 389.6
2  103 15 0 388.2 389.6
2  104 10 0 388.2 389.6
2  105 16 0 388.2 389.6
0

0101000
+167 0 -165 0 *
Ve
1.50000057285787e-07
21.1657969127734 -11.7323928099614 389.4
0 0

0101101
*
Ed
 1e-07 1 1 0
1  28 0 5.77703982410123 5.78086346729635
2  81 7 0 5.77703982410123 5.78086346729635
2  82 15 0 5.77703982410123 5.78086346729635
2  106 16 0 5.77703982410123 5.78086346729635
2  107 18 8 5.77703982410123 5.78086346729635
0

0101000
+163 0 -165 0 *
Ve
1.50000007105482e-07
21.1657969127734 -11.7323928099614 0
0 0

0101101
*
Ed
 1e-07 1 1 0
1  36 0 0.2 389.6
2  108 15 0 0.2 389.6
2  109 12 0 0.2 389.6
2  110 16 0 0.2 389.6
0

0101000
+161 0 -163 0 *
Ve
1.00000022257687e-07
21.210502562988 -11.6513767866927 0
0 0

0101101
*
Ed
 1e-07 1 1 0
1  26 0 5.77703982410123 5.78086346729635
2  74 2 0 5.77703982410123 5.78086346729635
2  75 15 0 5.77703982410123 5.78086346729635
2  111 16 0 5.77703982410123 5.78086346729635
2  112 17 5 5.77703982410123 5.78086346729635
0

0101000
+161 0 -159 0 *
Ve
1.00000009565974e-07
21.210502562988 -11.6513767866927 1.4
0 0

0101101
*
Ed
 1e-07 1 1 0
1  37 0 0.2 1.6
2  113 15 0 0.2 1.6
2  114 13 0 0.2 1.6
2  115 16 0 0.2 1.6
0

0101000
+159 0 -157 0 *
Ed
 1e-07 1 1 0
1  38 0 5.78086346729635 5.91284252106566
2  116 15 0 5.78086346729635 5.91284252106566
2  117 14 0 5.78086346729635 5.91284252106566
2  118 16 0 5.78086346729635 5.91284252106566
0

0101000
+157 0 -198 0 *
Wi

0101100
-195 0 +190 0 +188 0 +186 0 -184 0 +182 0 +180 0 -178 0 -176 0 -174 0 
+172 0 +170 0 -168 0 -166 0 +164 0 -162 0 -160 0 +158 0 +156 0 +155 0 
*
Ve
1.000000044685e-07
24.2 6.98048675513992e-16 14.6
0 0

0101101
*
Ed
 1e-07 1 1 0
1  39 0 0 2.00000670181271
2  119 16 0 0 2.00000670181271
2  120 19 0 0 2.00000670181271
0

0101100
+153 0 -153 0 *
Wi

0101100
-152 0 *
Ve
1.00000028715947e-07
24.2 6.98048675513992e-16 196.626363288868
0 0

0101101
*
Ed
 1e-07 1 1 0
1  40 0 0 2.00000672694808
2  121 16 0 0 2.00000672694808
2  122 20 0 0 2.00000672694808
0

0101100
+150 0 -150 0 *
Wi

0101100
-149 0 *
Fa
0  1e-07 16 0

0101000
+154 0 +151 0 +148 0 *
Ve
1e-07
27.4 6.98048675513992e-16 196.626363288868
0 0

0101101
*
Ed
 1e-07 1 1 0
1  41 0 0.25 3.45
3  123 124CN 20 0 0.25 3.45
0

0101000
+150 0 -146 0 *
Ed
 1e-07 1 1 0
1  42 0 0 6.28318530717959
2  125 20 0 0 6.28318530717959
2  126 21 0 0 6.28318530717959
0

0101000
+146 0 -146 0 *
Wi

0101100
+145 0 -144 0 -145 0 +149 0 *
Fa
0  1e-07 20 0

0101000
+143 0 *
Wi

0101100
+144 0 *
Fa
0  1e-07 21 0

0101000
+141 0 *
Ve
1e-07
27.4 6.98048675513992e-16 14.6
0 0

0101101
*
Ed
 1e-07 1 1 0
1  43 0 0.25 3.45
3  127 128CN 19 0 0.25 3.45
0

0101000
+153 0 -139 0 *
Ed
 1e-07 1 1 0
1  44 0 0 6.28318530717959
2  129 19 0 0 6.28318530717959
2  130 22 0 0 6.28318530717959
0

0101000
+139 0 -139 0 *
Wi

0101100
+138 0 -137 0 -138 0 +152 0 *
Fa
0  1e-07 19 0

0101000
+136 0 *
Wi

0101100
+137 0 *
Fa
0  1e-07 22 0

0101000
+134 0 *
Ve
1.50000003559646e-07
21.2418068042381 -11.7745257808002 1.4
0 0

0101101
*
Ed
 1e-07 1 1 0
1  19 0 3.36608046005452 3.41495665436265
2  55 13 0 3.36608046005452 3.41495665436265
2  56 14 0 3.36608046005452 3.41495665436265
0

0101000
+157 0 -132 0 *
Ve
1.50000007944109e-07
21.2418068042381 -11.7745257808002 2.77555756156289e-17
0 0

0101101
*
Ed
 1e-07 1 1 0
1  45 0 0.2 1.6
2  131 12 0 0.2 1.6
2  132 13 0 0.2 1.6
0

0101000
+130 0 -132 0 *
Ed
 1e-07 1 1 0
1  21 0 3.36608046005452 3.41495665436265
2  60 2 0 3.36608046005452 3.41495665436265
2  61 13 0 3.36608046005452 3.41495665436265
2  133 17 5 3.36608046005452 3.41495665436265
0

0101000
+159 0 -130 0 *
Wi

0101100
-131 0 +129 0 +128 0 -156 0 *
Fa
0  1e-07 13 0

0101000
+127 0 *
Ed
 1.5e-07 1 1 0
1  46 0 -24.2869062186048 -24.2
2  134 2 0 -24.2869062186048 -24.2
2  135 12 0 -24.2869062186048 -24.2
2  136 17 5 -24.2869062186048 -24.2
0

0101000
+130 0 -161 0 *
Wi

0101100
-125 0 -158 0 -128 0 *
Fa
0  1e-07 2 0

0101000
+124 0 *
Ve
1.50000007944109e-07
21.2418068042381 -11.7745257808002 389.4
0 0

0101101
*
Ed
 1.5e-07 1 1 0
1  47 0 -24.2869062186048 -24.2
2  137 7 0 -24.2869062186048 -24.2
2  138 12 0 -24.2869062186048 -24.2
2  139 18 8 -24.2869062186048 -24.2
0

0101000
+122 0 -163 0 *
Ed
 1e-07 1 1 0
1  48 0 3.36608046005452 3.41495665436265
2  140 7 0 3.36608046005452 3.41495665436265
2  141 10 0 3.36608046005452 3.41495665436265
2  142 18 8 3.36608046005452 3.41495665436265
0

0101000
+165 0 -122 0 *
Wi

0101100
-121 0 -162 0 -120 0 *
Fa
0  1e-07 7 0

0101000
+119 0 *
Ve
1.50000056954333e-07
21.2418068042381 -11.7745257808002 388
0 0

0101101
*
Ed
 1e-07 1 1 0
1  49 0 0 1.40000000000003
2  143 12 0 0 1.40000000000003
2  144 10 0 0 1.40000000000003
0

0101000
+117 0 -122 0 *
Ed
 1e-07 1 1 0
1  50 0 3.36608046005452 3.41495665436265
2  145 10 0 3.36608046005452 3.41495665436265
2  146 11 0 3.36608046005452 3.41495665436265
0

0101000
+167 0 -117 0 *
Wi

0101100
-164 0 -120 0 +116 0 +115 0 *
Fa
0  1e-07 10 0

0101000
+114 0 *
Ve
1.50000057065031e-07
21.2418068042381 11.7745257808002 388
0 0

0101101
*
Ve
1.50000003972055e-07
21.2418068042382 11.7745257808002 389.4
0 0

0101101
*
Ed
 1e-07 1 1 0
1  51 0 0 1.40000000000003
2  147 6 0 0 1.40000000000003
2  148 8 0 0 1.40000000000003
0

0101000
+112 0 -111 0 *
Ed
 1e-07 1 1 0
1  52 0 2.86822865281692 2.91710484712507
2  149 7 0 2.86822865281692 2.91710484712507
2  150 8 0 2.86822865281692 2.91710484712507
2  151 18 8 2.86822865281692 2.91710484712507
0

0101000
+111 0 -179 0 *
Ed
 1e-07 1 1 0
1  53 0 2.86822865281693 2.91710484712507
2  152 8 0 2.86822865281693 2.91710484712507
2  153 9 0 2.86822865281693 2.91710484712507
0

0101000
+112 0 -177 0 *
Wi

0101100
-110 0 -109 0 +176 0 +108 0 *
Fa
0  1e-07 8 0

0101000
+107 0 *
Ed
 1.5e-07 1 1 0
1  54 0 -11.425 -11.3380937813951
2  154 7 0 -11.425 -11.3380937813951
2  155 6 0 -11.425 -11.3380937813951
2  156 18 8 -11.425 -11.3380937813951
0

0101000
+181 0 -111 0 *
Wi

0101100
-178 0 -105 0 -109 0 *
Fa
0  1e-07 7 0

0101000
+104 0 *
Ve
1.50000003972055e-07
21.2418068042382 11.7745257808002 2.77555756156289e-17
0 0

0101101
*
Ed
 1.5e-07 1 1 0
1  55 0 -11.425 -11.3380937813951
2  157 2 0 -11.425 -11.3380937813951
2  158 6 0 -11.425 -11.3380937813951
2  159 17 5 -11.425 -11.3380937813951
0

0101000
+183 0 -102 0 *
Ed
 1e-07 1 1 0
1  56 0 2.86822865281692 2.91710484712507
2  160 2 0 2.86822865281692 2.91710484712507
2  161 4 0 2.86822865281692 2.91710484712507
2  162 17 5 2.86822865281692 2.91710484712507
0

0101000
+102 0 -185 0 *
Wi

0101100
-182 0 -101 0 -100 0 *
Fa
0  1e-07 2 0

0101000
+99 0 *
Ve
1.500000050292e-07
21.2418068042381 11.7745257808002 1.4
0 0

0101101
*
Ed
 1e-07 1 1 0
1  57 0 2.86822865281693 2.91710484712507
2  163 4 0 2.86822865281693 2.91710484712507
2  164 5 0 2.86822865281693 2.91710484712507
0

0101000
+97 0 -187 0 *
Ed
 1e-07 1 1 0
1  58 0 0.2 1.6
2  165 6 0 0.2 1.6
2  166 4 0 0.2 1.6
0

0101000
+102 0 -97 0 *
Wi

0101100
-96 0 +184 0 +100 0 -95 0 *
Fa
0  1e-07 4 0

0101000
+94 0 *
Ve
1.50000003559646e-07
24.4766260962922 -13.5676153941998 1.4
0 0

0101101
*
Ed
 1e-07 1 1 0
1  19 0 4.99753034025001 5.33907194994462
2  55 13 0 4.99753034025001 5.33907194994462
2  56 14 0 4.99753034025001 5.33907194994462
0

0101000
+92 0 -205 0 *
Ed
 1.5e-07 1 1 0
1  59 0 11.2188171602011 14.9173609566063
2  167 12 0 11.2188171602011 14.9173609566063
2  168 14 0 11.2188171602011 14.9173609566063
0

0101000
+132 0 -92 0 *
Wi

0101100
+202 0 +91 0 +90 0 +131 0 -155 0 +197 0 *
Ve
1e-07
25.0952640203602 -11.0725984576063 1.4
0 0

0101101
*
Ed
 1e-07 1 1 0
1  60 0 0 6.28318530717959
2  169 23 0 0 6.28318530717959
2  170 14 0 0 6.28318530717959
0

0101100
+88 0 -88 0 *
Wi

0101100
-87 0 *
Fa
0  1e-07 14 0

0101000
+89 0 +86 0 *
Ve
1e-07
25.0952640203602 -11.0725984576063 388
0 0

0101101
*
Ed
 1e-07 1 1 0
1  61 0 1.6 388.2
3  171 172CN 23 0 1.6 388.2
0

0101000
+88 0 -84 0 *
Ed
 1e-07 1 1 0
1  62 0 0 6.28318530717959
2  173 23 0 0 6.28318530717959
2  174 11 0 0 6.28318530717959
0

0101100
+84 0 -84 0 *
Wi

0101100
+87 0 -83 0 -82 0 +83 0 *
Fa
0  1e-07 23 0

0101000
+81 0 *
Ve
1.50000003972055e-07
24.4766260962922 -13.5676153941998 2.77555756156289e-17
0 0

0101101
*
Ed
 1e-07 1 1 0
1  21 0 4.99753034025001 5.33907194994458
2  60 2 0 4.99753034025001 5.33907194994458
2  61 13 0 4.99753034025001 5.33907194994458
0

0101000
+79 0 -207 0 *
Ed
 1e-07 1 1 0
1  63 0 0.2 1.6
2  175 12 0 0.2 1.6
2  176 13 0 0.2 1.6
0

0101000
+79 0 -92 0 *
Wi

0101100
+204 0 +78 0 -77 0 -91 0 *
Fa
0  1e-07 13 0

0101000
+76 0 *
Ed
 1.5e-07 1 1 0
1  46 0 -28.5 -27.98545001501
2  134 2 0 -28.5 -27.98545001501
2  135 12 0 -28.5 -27.98545001501
0

0101000
+209 0 -79 0 *
Wi

0101100
-74 0 -78 0 +206 0 *
Fa
0  1e-07 2 0

0101000
+73 0 *
Ve
1.50000003972055e-07
24.4766260962922 -13.5676153941998 389.4
0 0

0101101
*
Ed
 1.5e-07 1 1 0
1  47 0 -28.5 -27.98545001501
2  137 7 0 -28.5 -27.98545001501
2  138 12 0 -28.5 -27.98545001501
0

0101000
+211 0 -71 0 *
Ve
1.50000056954333e-07
24.4766260962922 -13.5676153941998 388
0 0

0101101
*
Ed
 1e-07 1 1 0
1  64 0 0 1.40000000000003
2  177 12 0 0 1.40000000000003
2  178 10 0 0 1.40000000000003
0

0101000
+69 0 -71 0 *
Ed
 1.5e-07 1 1 0
1  65 0 11.2188171602011 14.9173609566063
2  179 12 0 11.2188171602011 14.9173609566063
2  180 11 0 11.2188171602011 14.9173609566063
0

0101000
+117 0 -69 0 *
Wi

0101100
-208 0 -70 0 +68 0 +67 0 -116 0 -121 0 +160 0 +125 0 -129 0 -90 0 
+77 0 +74 0 *
Fa
0  1e-07 12 0

0101000
+66 0 *
Ed
 1e-07 1 1 0
1  48 0 4.99753034025001 5.33907194994458
2  140 7 0 4.99753034025001 5.33907194994458
2  141 10 0 4.99753034025001 5.33907194994458
0

0101000
+71 0 -213 0 *
Wi

0101100
-70 0 -64 0 +210 0 *
Fa
0  1e-07 7 0

0101000
+63 0 *
Ed
 1e-07 1 1 0
1  50 0 4.99753034025001 5.33907194994462
2  145 10 0 4.99753034025001 5.33907194994462
2  146 11 0 4.99753034025001 5.33907194994462
0

0101000
+69 0 -215 0 *
Wi

0101100
+61 0 -68 0 -64 0 +212 0 *
Fa
0  1e-07 10 0

0101000
+60 0 *
Ed
 1e-07 1 1 0
1  50 0 0.0714487312378061 2.04444022112791
2  145 10 0 0.0714487312378061 2.04444022112791
2  146 11 0 0.0714487312378061 2.04444022112791
0

0101000
+217 0 -169 0 *
Wi

0101100
+214 0 +61 0 +67 0 +115 0 -166 0 +58 0 *
Wi

0101100
-82 0 *
Fa
0  1e-07 11 0

0101000
+57 0 +56 0 *
Ed
 1e-07 1 1 0
1  48 0 0.0714487312378398 2.04444022112791
2  140 7 0 0.0714487312378398 2.04444022112791
2  141 10 0 0.0714487312378398 2.04444022112791
0

0101000
+219 0 -171 0 *
Wi

0101100
-216 0 -54 0 +168 0 +58 0 *
Fa
0  1e-07 10 0

0101000
+53 0 *
Ed
 1e-07 1 1 0
1  52 0 4.23874508605168 6.21173657594175
2  149 7 0 4.23874508605168 6.21173657594175
2  150 8 0 4.23874508605168 6.21173657594175
0

0101000
+173 0 -221 0 *
Wi

0101100
-54 0 -218 0 -51 0 +170 0 *
Fa
0  1e-07 7 0

0101000
+50 0 *
Ed
 1e-07 1 1 0
1  53 0 4.23874508605168 6.21173657594178
2  152 8 0 4.23874508605168 6.21173657594178
2  153 9 0 4.23874508605168 6.21173657594178
0

0101000
+175 0 -223 0 *
Wi

0101100
+48 0 -172 0 -51 0 +220 0 *
Fa
0  1e-07 8 0

0101000
+47 0 *
Ve
1.50000056954333e-07
24.4766260962922 13.5676153941998 388
0 0

0101101
*
Ed
 1.5e-07 1 1 0
1  66 0 20.7076390433937 24.4061828397989
2  181 6 0 20.7076390433937 24.4061828397989
2  182 9 0 20.7076390433937 24.4061828397989
0

0101000
+45 0 -112 0 *
Ed
 1e-07 1 1 0
1  53 0 0.944113357234971 1.28565496692958
2  152 8 0 0.944113357234971 1.28565496692958
2  153 9 0 0.944113357234971 1.28565496692958
0

0101000
+225 0 -45 0 *
Wi

0101100
+222 0 +48 0 -174 0 +108 0 +44 0 +43 0 *
Ve
1e-07
25.0952640203602 11.0725984576063 388
0 0

0101101
*
Ed
 1e-07 1 1 0
1  67 0 0 6.28318530717959
2  183 24 0 0 6.28318530717959
2  184 9 0 0 6.28318530717959
0

0101100
+41 0 -41 0 *
Wi

0101100
-40 0 *
Fa
0  1e-07 9 0

0101000
+42 0 +39 0 *
Ve
1e-07
25.0952640203602 11.0725984576063 1.4
0 0

0101101
*
Ed
 1e-07 1 1 0
1  68 0 0 6.28318530717959
2  185 24 0 0 6.28318530717959
2  186 5 0 0 6.28318530717959
0

0101100
+37 0 -37 0 *
Ed
 1e-07 1 1 0
1  69 0 1.6 388.2
3  187 188CN 24 0 1.6 388.2
0

0101000
+37 0 -41 0 *
Wi

0101100
+36 0 -35 0 -40 0 +35 0 *
Fa
0  1e-07 24 0

0101000
+34 0 *
Ve
1.5e-07
24.4766260962922 13.5676153941998 389.4
0 0

0101101
*
Ed
 1e-07 1 1 0
1  52 0 0.944113357235002 1.28565496692958
2  149 7 0 0.944113357235002 1.28565496692958
2  150 8 0 0.944113357235002 1.28565496692958
0

0101000
+227 0 -32 0 *
Ed
 1e-07 1 1 0
1  70 0 0 1.40000000000003
2  189 6 0 0 1.40000000000003
2  190 8 0 0 1.40000000000003
0

0101000
+45 0 -32 0 *
Wi

0101100
-224 0 -31 0 +30 0 +43 0 *
Fa
0  1e-07 8 0

0101000
+29 0 *
Ed
 1.5e-07 1 1 0
1  54 0 -7.63954998499007 -7.125
2  154 7 0 -7.63954998499007 -7.125
2  155 6 0 -7.63954998499007 -7.125
0

0101000
+32 0 -229 0 *
Wi

0101100
-31 0 -27 0 +226 0 *
Fa
0  1e-07 7 0

0101000
+26 0 *
Ve
1.5e-07
24.4766260962922 13.5676153941998 2.77555756156289e-17
0 0

0101101
*
Ed
 1.5e-07 1 1 0
1  55 0 -7.63954998499007 -7.125
2  157 2 0 -7.63954998499007 -7.125
2  158 6 0 -7.63954998499007 -7.125
0

0101000
+24 0 -231 0 *
Ve
1.50000003559646e-07
24.4766260962922 13.5676153941998 1.4
0 0

0101101
*
Ed
 1e-07 1 1 0
1  71 0 0.2 1.6
2  191 6 0 0.2 1.6
2  192 4 0 0.2 1.6
0

0101000
+24 0 -22 0 *
Ed
 1.5e-07 1 1 0
1  72 0 20.7076390433937 24.4061828397989
2  193 6 0 20.7076390433937 24.4061828397989
2  194 5 0 20.7076390433937 24.4061828397989
0

0101000
+22 0 -97 0 *
Wi

0101100
-180 0 -105 0 +110 0 +44 0 -30 0 -27 0 +228 0 +23 0 -21 0 -20 0 
+95 0 +101 0 *
Fa
0  1e-07 6 0

0101000
+19 0 *
Ed
 1e-07 1 1 0
1  56 0 0.944113357235002 1.28565496692958
2  160 2 0 0.944113357235002 1.28565496692958
2  161 4 0 0.944113357235002 1.28565496692958
0

0101000
+233 0 -24 0 *
Wi

0101100
-17 0 -23 0 +230 0 *
Fa
0  1e-07 2 0

0101000
+16 0 *
Ed
 1e-07 1 1 0
1  57 0 0.944113357234971 1.28565496692958
2  163 4 0 0.944113357234971 1.28565496692958
2  164 5 0 0.944113357234971 1.28565496692958
0

0101000
+235 0 -22 0 *
Wi

0101100
-14 0 +21 0 +17 0 -232 0 *
Fa
0  1e-07 4 0

0101000
+13 0 *
Ed
 1e-07 1 1 0
1  57 0 4.23874508605168 6.21173657594178
2  163 4 0 4.23874508605168 6.21173657594178
2  164 5 0 4.23874508605168 6.21173657594178
0

0101000
+189 0 -237 0 *
Wi

0101100
+234 0 +11 0 -186 0 +96 0 +20 0 +14 0 *
Wi

0101100
-36 0 *
Fa
0  1e-07 5 0

0101000
+10 0 +9 0 *
Ed
 1e-07 1 1 0
1  56 0 4.23874508605168 6.21173657594175
2  160 2 0 4.23874508605168 6.21173657594175
2  161 4 0 4.23874508605168 6.21173657594175
0

0101000
+191 0 -239 0 *
Wi

0101100
+236 0 +7 0 -188 0 -11 0 *
Fa
0  1e-07 4 0

0101000
+6 0 *
Wi

0101100
-194 0 +238 0 -7 0 -190 0 *
Fa
0  1e-07 2 0

0101000
+4 0 *
Sh

0101100
+199 0 -192 0 -147 0 -142 0 -140 0 -135 0 -133 0 -126 0 -123 0 +118 0 
-113 0 -106 0 +103 0 -98 0 -93 0 -85 0 -80 0 -75 0 -72 0 -65 0 
+62 0 -59 0 +55 0 -52 0 +49 0 -46 0 +38 0 -33 0 -28 0 +25 0 
-18 0 -15 0 -12 0 -8 0 -5 0 -3 0 *
So

0100000
+2 0 *

+1 0 