DBRep_DrawableShape

CASCADE Topology V3, (c) Open Cascade
Locations 2
1
              1              -0               0              -0 
              0               1               0               0 
             -0               0               1              -0 
2  1 -1 0
Curve2ds 30
1 0 0 1 0 
1 0 0 1 0 
1 22 0 0 -1 
1 0 0 0 1 
1 0 0 0 -1 
1 0 0 0 1 
1 0 -34 1 0 
1 0 0 1 0 
2 11 -17 1 0 -0 1 4
1 0 0.5 1 0 
1 0 0 1 0 
1 0 0 0 1 
1 0 0 1 0 
1 0 4 1 0 
1 22 0 0 1 
1 0 0 1 0 
1 0 34 1 0 
1 22 0 0 1 
1 22 0 0 -1 
1 4 0 0 1 
1 0 34 1 0 
1 0 0 0 1 
1 0 0 0 -1 
1 4 0 0 1 
1 0 -34 1 0 
1 0 4 1 0 
2 11 -17 1 0 -0 1 4
1 0 4.5 1 0 
1 6.2831853071795862 -0 0 1 
1 0 -0 0 1 
Curves 15
1 -2 -17 -11 0 0 1 
1 -2 -17 11 0 1 0 
1 -2 -17 -11 0 1 0 
1 -2 17 -11 0 0 1 
2 -2 0 0 1 0 0 -0 0 1 0 -1 0 4
1 -2 -17 -11 1 0 0 
1 2 -17 -11 0 0 1 
1 -2 -17 11 1 0 0 
1 -2 17 11 1 0 0 
1 2 -17 11 0 1 0 
1 -2 17 -11 1 0 0 
1 2 -17 -11 0 1 0 
1 2 17 -11 0 0 1 
2 2 0 0 1 0 0 -0 0 1 0 -1 0 4
1 -2.5 9.7971743931788257e-16 4 1 0 0 
Polygon3D 0
PolygonOnTriangulations 0
Surfaces 7
1 -2 -17 -11 1 0 0 0 0 1 0 -1 0 
1 -2 -17 -11 0 1 0 0 0 1 1 0 0 
1 -2 -17 11 0 0 1 1 0 0 0 1 0 
1 -2 -17 -11 0 0 1 1 0 0 0 1 0 
1 -2 17 -11 0 1 0 0 0 1 1 0 0 
2 -2.5 0 0 1 0 0 -0 0 1 0 -1 0 4
1 2 -17 -11 1 0 0 0 0 1 0 -1 0 
Triangulations 0

TShapes 44
Ve
1e-07
-2 -17 11
0 0

0101101
*
Ve
1e-07
-2 -17 -11
0 0

0101101
*
Ed
 1e-07 1 1 0
1  1 0 0 22
2  1 1 0 0 22
2  2 2 0 0 22
0

0101000
-44 2 +43 2 *
Ve
1e-07
-2 17 11
0 0

0101101
*
Ed
 1e-07 1 1 0
1  2 0 0 34
2  3 1 0 0 34
2  4 3 0 0 34
0

0101000
-41 2 +44 2 *
Ve
1e-07
-2 17 -11
0 0

0101101
*
Ed
 1e-07 1 1 0
1  3 0 0 34
2  5 1 0 0 34
2  6 4 0 0 34
0

0101000
-39 2 +43 2 *
Ed
 1e-07 1 1 0
1  4 0 0 22
2  7 1 0 0 22
2  8 5 0 0 22
0

0101000
-41 2 +39 2 *
Wi

0101100
-42 1 -40 1 +38 1 +37 1 *
Ve
1.00000000979717e-07
-2 9.79717439317883e-16 4
0 0

0101101
*
Ed
 1e-07 1 1 0
1  5 0 0 6.28318530717959
2  9 1 1 0 6.28318530717959
2  10 6 0 0 6.28318530717959
0

0101100
+35 0 -35 0 *
Wi

0101100
-34 0 *
Fa
0  1e-07 1 1

0101000
+36 0 +33 0 *
Ve
1e-07
2 -17 -11
0 0

0101101
*
Ed
 1e-07 1 1 0
1  6 0 0 4
2  11 4 0 0 4
2  12 2 0 0 4
0

0101000
-31 2 +43 2 *
Ve
1e-07
2 -17 11
0 0

0101101
*
Ed
 1e-07 1 1 0
1  7 0 0 22
2  13 7 0 0 22
2  14 2 0 0 22
0

0101000
-29 2 +31 2 *
Ed
 1e-07 1 1 0
1  8 0 0 4
2  15 2 0 0 4
2  16 3 0 0 4
0

0101000
-29 2 +44 2 *
Wi

0101100
-30 0 -28 0 +27 0 +42 0 *
Fa
0  1e-07 2 0

0101000
+26 0 *
Ve
1e-07
2 17 11
0 0

0101101
*
Ed
 1e-07 1 1 0
1  9 0 0 4
2  17 3 0 0 4
2  18 5 0 0 4
0

0101000
-24 2 +41 2 *
Ed
 1e-07 1 1 0
1  10 0 0 34
2  19 7 0 0 34
2  20 3 0 0 34
0

0101000
-24 2 +29 2 *
Wi

0101100
-40 0 -23 0 +22 0 +27 0 *
Fa
0  1e-07 3 0

0101000
+21 0 *
Ve
1e-07
2 17 -11
0 0

0101101
*
Ed
 1e-07 1 1 0
1  11 0 0 4
2  21 4 0 0 4
2  22 5 0 0 4
0

0101000
-19 2 +39 2 *
Ed
 1e-07 1 1 0
1  12 0 0 34
2  23 7 0 0 34
2  24 4 0 0 34
0

0101000
-19 2 +31 2 *
Wi

0101100
-38 0 -18 0 +17 0 +30 0 *
Fa
0  1e-07 4 0

0101000
+16 0 *
Ed
 1e-07 1 1 0
1  13 0 0 22
2  25 7 0 0 22
2  26 5 0 0 22
0

0101000
-24 2 +19 2 *
Wi

0101100
-18 0 -14 0 +23 0 +37 0 *
Fa
0  1e-07 5 0

0101000
+13 0 *
Ve
1.00000000979717e-07
2 9.79717439317883e-16 4
0 0

0101101
*
Ed
 1e-07 1 1 0
1  14 0 0 6.28318530717959
2  27 7 1 0 6.28318530717959
2  28 6 0 0 6.28318530717959
0

0101100
+11 0 -11 0 *
Ed
 1e-07 1 1 0
1  15 0 0.5 4.5
3  29 30CN 6 0 0.5 4.5
0

0101000
+35 0 -11 0 *
Wi

0101100
-10 0 +9 0 +34 0 -9 0 *
Fa
0  1e-07 6 0

0101000
+8 0 *
Wi

0101100
-28 1 -22 1 +17 1 +14 1 *
Wi

0101100
-10 0 *
Fa
0  1e-07 7 1

0101000
+6 0 +5 0 *
Sh

0101100
-32 0 -25 1 +20 1 -15 1 +12 1 -7 0 +4 0 *
So

0100000
+3 0 *
Co

0100000
+2 0 *

+1 0 