DBRep_DrawableShape

CASCADE Topology V3, (c) Open Cascade
Locations 3
1
              1               0               0               0 
              0               1               0               0 
              0               0               1            1368 
1
              1               0               0               0 
              0               1               0               0 
              0               0               1            1380 
2  1 1 2 -1 0
Curve2ds 28
1 0 214 1 0 
2 0 0 1 0 -0 1 47.399999999999999
8 -5.9999999999999997e-07 214.00000059999999
1 1.7453292519943295 0 0 1 
8 -5.9999999999999997e-07 214.00000059999999
1 71.099999999999994 -0.20000000000000001 0 -1 
1 0 0 1 0 
2 0 0 1 0 -0 1 47.399999999999999
8 -5.9999999999999997e-07 214.00000059999999
1 1.4660765716752369 0 0 1 
8 -5.9999999999999997e-07 214.00000059999999
1 47.400000000000006 -0.20000000000000001 0 -1 
8 -47.66109245131068 -0
1 0 0 -0.10452846326765347 -0.9945218953682734 
8 -47.66109245131068 -0
1 0 -214.20000000000002 -1 -0 
2 0 0 1 0 -0 1 47.200000000000003
1 0 214.19999999999999 1 0 
1 0 226 1 0 
8 -59.25 -11.118778596615686
1 -10.288654526765621 58.349859365973323 -0.17364817766693033 0.98480775301220813 
8 -59.25 -11.118778596615686
1 59.25 -214.20000000000002 -1 -0 
8 -59.25 -11.118778596615686
1 -10.288654526765621 58.349859365973323 -0.17364817766693033 0.98480775301220813 
8 -59.25 -11.118778596615686
1 59.25 -0.20000000000000004 -1 -0 
8 0.19999940000000002 214.20000059999998
1 1.7453292519943295 0 0 1 
8 0.19999940000000002 214.20000059999998
1 71.299999999999997 0 0 -1 
8 0.20000000000000001 214.19999999999999
1 1.7453292519943295 11.800000000000001 0 1 
8 -47.66109245131068 -0
1 0 0 -0.10452846326765347 -0.9945218953682734 
8 -47.66109245131068 -0
1 0 -0.20000000000000004 -1 -0 
2 0 0 1 0 -0 1 47.200000000000003
1 0 0.20000000000000001 1 0 
1 0 12 1 0 
8 0.19999940000000002 214.20000059999998
1 1.4660765716752369 0 0 1 
8 0.19999940000000002 214.20000059999998
1 47.20000000000001 0 0 -1 
1 1.4660765716752369 11.799999999999955 0 1 
Curves 12
2 0 0 214 0 0 1 1 0 -0 -0 1 0 47.399999999999999
1 -8.2309236214124972 46.679887492778661 0 0 0 1 
2 0 0 0 0 0 1 1 0 -0 -0 1 0 47.399999999999999
1 4.9546491588867747 47.140337840456155 0 0 0 1 
1 0 0 214.00000000000003 -0.10452846326765347 -0.9945218953682734 0 
2 0 0 214 0 0 1 1 0 -0 -0 1 0 47.200000000000003
1 -10.288654526765621 58.349859365973323 214.00000000000003 -0.17364817766693033 0.98480775301220813 0 
1 -10.288654526765621 58.349859365973323 2.7755575615628914e-17 -0.17364817766693033 0.98480775301220813 0 
1 -8.1961939858791126 46.482925942176223 -0.20000000000000001 0 0 1 
1 0 0 2.7755575615628914e-17 -0.10452846326765347 -0.9945218953682734 0 
2 0 0 0 0 0 1 1 0 -0 -0 1 0 47.200000000000003
1 4.9337434662332438 46.941433461382509 -0.20000000000000001 0 0 1 
Polygon3D 0
PolygonOnTriangulations 0
Surfaces 7
2 0 0 0 0 0 1 1 0 -0 -0 1 0 47.399999999999999
1 0 0 214 0 0 1 1 0 -0 -0 1 0 
1 -20.577309053531241 116.69971873194665 -0.20000000000000001 0.98480775301220813 0.17364817766693033 -0 0.17364817766693033 -0.98480775301220813 0 0 -0 -1 
1 0 0 0 0 0 1 1 0 -0 -0 1 0 
1 0 0 -0.20000000000000001 -0.9945218953682734 0.10452846326765347 0 0.10452846326765347 0.9945218953682734 0 0 0 -1 
2 0 0 -0.20000000000000001 0 0 1 1 0 -0 -0 1 0 47.200000000000003
2 0 0 0 0 0 1 1 0 -0 -0 1 0 47.200000000000003
Triangulations 0

TShapes 35
Ve
1.50000029309888e-07
4.95464915888677 47.1403378404562 214
0 0

0101101
*
Ve
1.50000028477166e-07
-8.2309236214125 46.6798874927787 214
0 0

0101101
*
Ed
 1e-07 1 1 0
1  1 0 1.46607657167524 1.74532925199433
2  1 1 0 1.46607657167524 1.74532925199433
2  2 2 0 1.46607657167524 1.74532925199433
0

0101000
+35 0 -34 0 *
Ve
1.50000001776574e-07
-8.2309236214125 46.6798874927787 0
0 0

0101101
*
Ed
 1e-07 1 1 0
1  2 0 0 214
2  3 1 0 0 214
2  4 3 0 0 214
0

0101000
+32 0 -34 0 *
Ve
1.50000007160777e-07
4.95464915888677 47.1403378404562 0
0 0

0101101
*
Ed
 1e-07 1 1 0
1  3 0 1.46607657167524 1.74532925199433
2  5 1 0 1.46607657167524 1.74532925199433
2  6 4 0 1.46607657167524 1.74532925199433
0

0101000
+30 0 -32 0 *
Ed
 1e-07 1 1 0
1  4 0 0 214
2  7 1 0 0 214
2  8 5 0 0 214
0

0101000
+30 0 -35 0 *
Wi

0101100
-33 0 +31 0 +29 0 -28 0 *
Fa
0  1e-07 1 0

0101000
+27 0 *
Ve
1.50000029296428e-07
4.93374346623324 46.9414334613825 214
0 0

0101101
*
Ed
 1.5e-07 1 1 0
1  5 0 -47.4 -47.2
2  9 2 0 -47.4 -47.2
2  10 5 0 -47.4 -47.2
0

0101000
+35 0 -25 0 *
Ve
1.50000028421709e-07
-8.19619398587911 46.4829259421762 214
0 0

0101101
*
Ed
 1e-07 1 1 0
1  6 0 1.46607657167524 1.74532925199433
2  11 2 0 1.46607657167524 1.74532925199433
2  12 6 0 1.46607657167524 1.74532925199433
2  13 7 3 1.46607657167524 1.74532925199433
0

0101000
+25 0 -23 0 *
Ed
 1.5e-07 1 1 0
1  7 0 -12.05 -11.85
2  14 2 0 -12.05 -11.85
2  15 3 0 -12.05 -11.85
0

0101000
+23 0 -34 0 *
Wi

0101100
-24 0 -22 0 -21 0 +33 0 *
Fa
0  1e-07 2 0

0101000
+20 0 *
Ve
1.50000000027756e-07
-8.19619398587911 46.4829259421762 0
0 0

0101101
*
Ed
 1.5e-07 1 1 0
1  8 0 -12.05 -11.85
2  16 4 0 -12.05 -11.85
2  17 3 0 -12.05 -11.85
0

0101000
+18 0 -32 0 *
Ed
 1.00000001776357e-07 1 1 0
1  9 0 0.2 214.2
2  18 6 0 0.2 214.2
2  19 3 0 0.2 214.2
2  20 7 3 0.2 214.2
0

0101000
+18 0 -23 0 *
Wi

0101100
+17 0 -16 0 -21 0 +31 0 *
Fa
0  1e-07 3 0

0101000
+15 0 *
Ve
1.50000007105482e-07
4.93374346623324 46.9414334613825 0
0 0

0101101
*
Ed
 1.5e-07 1 1 0
1  10 0 -47.4 -47.2
2  21 4 0 -47.4 -47.2
2  22 5 0 -47.4 -47.2
0

0101000
+30 0 -13 0 *
Ed
 1e-07 1 1 0
1  11 0 1.46607657167524 1.74532925199433
2  23 4 0 1.46607657167524 1.74532925199433
2  24 6 0 1.46607657167524 1.74532925199433
2  25 7 3 1.46607657167524 1.74532925199433
0

0101000
+13 0 -18 0 *
Wi

0101100
-12 0 -11 0 -17 0 +29 0 *
Fa
0  1e-07 4 0

0101000
+10 0 *
Ed
 1.00000007105427e-07 1 1 0
1  12 0 0.2 214.2
2  26 6 0 0.2 214.2
2  27 5 0 0.2 214.2
2  28 7 3 0.2 214.2
0

0101000
+13 0 -25 0 *
Wi

0101100
-28 0 -24 0 +8 0 +12 0 *
Fa
0  1e-07 5 0

0101000
+7 0 *
Wi

0101100
-22 0 +16 0 +11 0 -8 0 *
Fa
0  1e-07 6 0

0101000
+5 0 *
Sh

0101100
+26 0 +19 0 -14 0 -9 0 -6 0 -4 0 *
So

0100000
+3 0 *
Co

0100000
+2 0 *

+1 0 