DBRep_DrawableShape

CASCADE Topology V3, (c) Open Cascade
Locations 7
1
              1               0               0               0 
              0               1               0               0 
              0               0               1            1603 
1
              1               0               0               0 
              0               1               0               0 
              0               0               1            1368 
2  1 1 2 -1 0
1
              1               0               0               0 
              0               1               0               0 
              0               0               1            1371 
2  4 1 2 -1 0
1
              1              -0               0              -0 
              0               1               0               0 
             -0               0               1              -0 
2  6 -1 0
Curve2ds 52
1 0 238 1 0 
2 0 0 1 0 -0 1 47.200000000000003
2 0 0 1 0 -0 1 47.200000000000003
8 -5.9999999999999997e-07 238.00000059999999
1 1.7453292519943295 0 0 1 
8 -5.9999999999999997e-07 238.00000059999999
1 70.799999999999997 -0.20000000000000001 0 -1 
1 0 0 1 0 
2 0 0 1 0 -0 1 47.200000000000003
2 0 0 1 0 -0 1 47.200000000000003
8 -5.9999999999999997e-07 238.00000059999999
1 0.17453292519943295 0 0 1 
8 -5.9999999999999997e-07 238.00000059999999
1 47.200000000000003 -0.20000000000000001 0 -1 
1 0 79 1 0 
2 -34 21 1 0 -0 1 47.200000000000003
8 70.799999999999997 169.19999999999999
1 0.46107963115561718 0 0 1 
8 70.799999999999997 169.19999999999999
1 -79 8.2710302689678983 1 0 
1 0 161 1 0 
2 -34 21 1 0 -0 1 47.200000000000003
8 -47.928136081007167 -0
1 0 0 -0.98480775301220813 -0.17364817766693033 
8 -47.928136081007167 -0
1 0 -238.20000000000002 -1 -0 
1 0 0 -0.98480775301220813 -0.17364817766693033 
2 0 0 1 0 -0 1 46
1 0 238.19999999999999 1 0 
2 0 0 1 0 -0 1 46
8 -59 -11.071863918992831
1 -10.245242482348889 58.103657427720272 -0.1736481776669303 0.98480775301220813 
8 -59 -11.071863918992831
1 59 -238.20000000000002 -1 -0 
1 -10.245242482348889 58.103657427720272 -0.1736481776669303 0.98480775301220813 
8 -59 -11.071863918992831
1 -10.245242482348889 58.103657427720272 -0.1736481776669303 0.98480775301220813 
8 -59 -11.071863918992831
1 59 -0.20000000000000004 -1 -0 
1 -10.245242482348889 58.103657427720272 -0.1736481776669303 0.98480775301220813 
8 0.19999940000000002 238.20000059999998
1 1.7453292519943295 0 0 1 
8 0.19999940000000002 238.20000059999998
1 71.999999999999986 0 0 -1 
8 -47.928136081007167 -0
1 0 0 -0.98480775301220813 -0.17364817766693033 
8 -47.928136081007167 -0
1 0 -0.20000000000000004 -1 -0 
1 0 0 -0.98480775301220813 -0.17364817766693033 
2 0 0 1 0 -0 1 46
1 0 0.20000000000000001 1 0 
2 0 0 1 0 -0 1 46
8 31.081574064295239 32.281574064295235
1 14.91842593570477 -79.200000000000003 1 0 
8 31.081574064295239 32.281574064295235
1 -19.30821847577954 23.590557477394206 0.98480775301220813 0.17364817766693033 
8 0.19999940000000002 238.20000059999998
1 0.17453292519943295 0 0 1 
8 0.19999940000000002 238.20000059999998
1 46.000000000000007 0 0 -1 
1 0 42 1 0 
1 0 0 0 1 
1 0 79.200000000000003 1 0 
2 -34 21 1 0 -0 1 46
1 0 42 1 0 
1 82 0 0 1 
8 71 169.39999999999998
1 0.47408183731851655 0 0 1 
8 71 169.39999999999998
1 -79.200000000000003 6.9267638593622465 1 0 
8 31.081574064295239 32.281574064295235
1 14.91842593570477 -161.19999999999999 1 0 
8 31.081574064295239 32.281574064295235
1 -19.30821847577954 23.590557477394206 0.98480775301220813 0.17364817766693033 
1 0 161.19999999999999 1 0 
2 -34 21 1 0 -0 1 46
Curves 22
2 0 0 238 0 0 1 1 0 -0 -0 1 0 47.200000000000003
1 -8.1961939858791144 46.482925942176223 0 0 0 1 
2 0 0 0 0 0 1 1 0 -0 -0 1 0 47.200000000000003
1 46.482925942176223 8.1961939858791126 0 0 0 1 
2 0 0 79 0 0 1 1 0 -0 -0 1 0 47.200000000000003
1 42.271030268967898 21 0 0 0 1 
2 0 0 161 0 0 1 1 0 -0 -0 1 0 47.200000000000003
1 0 0 238.00000000000003 -0.98480775301220813 -0.17364817766693033 0 
2 0 0 238 0 0 1 1 0 -0 -0 1 0 46
1 -10.245242482348889 58.103657427720272 238.00000000000003 -0.1736481776669303 0.98480775301220813 0 
1 -10.245242482348889 58.103657427720272 2.7755575615628914e-17 -0.1736481776669303 0.98480775301220813 0 
1 -7.987816172678798 45.301156638561572 -0.20000000000000001 0 0 1 
1 0 0 2.7755575615628914e-17 -0.98480775301220813 -0.17364817766693033 0 
2 0 0 0 0 0 1 1 0 -0 -0 1 0 46
1 14.69178152422046 2.5905574773942046 79 0.98480775301220813 0.17364817766693033 -0 
1 45.301156638561572 7.9878161726787953 -0.20000000000000001 0 0 1 
1 34 21 79 1 0 0 
2 0 0 79 0 0 1 1 0 -0 -0 1 0 46
1 34 21 161 1 0 0 
1 40.926763859362246 21 -0.20000000000000001 0 0 1 
1 14.69178152422046 2.5905574773942046 161 0.98480775301220813 0.17364817766693033 -0 
2 0 0 161 0 0 1 1 0 -0 -0 1 0 46
Polygon3D 0
PolygonOnTriangulations 0
Surfaces 11
2 0 0 0 0 0 1 1 0 -0 -0 1 0 47.200000000000003
1 0 0 238 0 0 1 1 0 -0 -0 1 0 
1 0 0 3 0 0 1 1 0 -0 -0 1 0 
1 -20.490484964697774 116.20731485544054 -0.20000000000000001 0.98480775301220813 0.1736481776669303 -0 0.1736481776669303 -0.98480775301220813 0 0 -0 -1 
1 0 0 0 0 0 1 1 0 -0 -0 1 0 
1 0 0 -3 0 0 1 1 0 -0 -0 1 0 
1 0 0 -0.20000000000000001 -0.17364817766693033 0.98480775301220813 0 0.98480775301220813 0.17364817766693033 0 0 0 -1 
1 34 -21 79 0 0 1 1 0 0 0 1 0 
1 34 21 79 0 1 0 0 0 1 1 0 0 
1 34 -21 161 0 0 1 1 0 0 0 1 0 
2 0 0 -0.20000000000000001 0 0 1 1 0 -0 -0 1 0 46
Triangulations 0

TShapes 62
Ve
1.50000028421709e-07
46.4829259421762 8.19619398587911 238
0 0

0101101
*
Ve
1.50000028477166e-07
-8.19619398587911 46.4829259421762 238
0 0

0101101
*
Ed
 1e-07 1 1 0
1  1 0 0.174532925199433 1.74532925199433
2  1 1 0 0.174532925199433 1.74532925199433
2  2 2 0 0.174532925199433 1.74532925199433
2  3 3 3 0.174532925199433 1.74532925199433
0

0101000
+62 0 -61 0 *
Ve
1.50000001776574e-07
-8.19619398587911 46.4829259421762 0
0 0

0101101
*
Ed
 1e-07 1 1 0
1  2 0 0 238
2  4 1 0 0 238
2  5 4 0 0 238
0

0101000
+59 0 -61 0 *
Ve
1.50000000027756e-07
46.4829259421762 8.19619398587911 0
0 0

0101101
*
Ed
 1e-07 1 1 0
1  3 0 0.174532925199433 1.74532925199433
2  6 1 0 0.174532925199433 1.74532925199433
2  7 5 0 0.174532925199433 1.74532925199433
2  8 6 5 0.174532925199433 1.74532925199433
0

0101000
+57 0 -59 0 *
Ve
1.5e-07
46.4829259421762 8.19619398587911 79
0 0

0101101
*
Ed
 1e-07 1 1 0
1  4 0 0 79
2  9 1 0 0 79
2  10 7 0 0 79
0

0101000
+57 0 -55 0 *
Ve
1e-07
42.2710302689679 21 79
0 0

0101101
*
Ed
 1e-07 1 1 0
1  5 0 0.174532925199433 0.461079631155617
2  11 1 0 0.174532925199433 0.461079631155617
2  12 8 6 0.174532925199433 0.461079631155617
0

0101000
+55 0 -53 0 *
Ve
1e-07
42.2710302689679 21 161
0 0

0101101
*
Ed
 1e-07 1 1 0
1  6 0 79 161
2  13 1 0 79 161
2  14 9 6 79 161
0

0101000
+53 0 -51 0 *
Ve
1.5e-07
46.4829259421762 8.19619398587911 161
0 0

0101101
*
Ed
 1e-07 1 1 0
1  7 0 0.174532925199433 0.461079631155617
2  15 1 0 0.174532925199433 0.461079631155617
2  16 10 6 0.174532925199433 0.461079631155617
0

0101000
+49 0 -51 0 *
Ed
 1e-07 1 1 0
1  4 0 161 238
2  9 1 0 161 238
2  10 7 0 161 238
0

0101000
+49 0 -62 0 *
Wi

0101100
-60 0 +58 0 +56 0 -54 0 -52 0 -50 0 +48 0 -47 0 *
Fa
0  1e-07 1 0

0101000
+46 0 *
Ve
1.50000029309888e-07
45.3011566385616 7.9878161726788 238
0 0

0101101
*
Ed
 1.5e-07 1 1 0
1  8 0 -47.2 -46
2  17 2 0 -47.2 -46
2  18 7 0 -47.2 -46
2  19 3 3 -47.2 -46
0

0101000
+62 0 -44 0 *
Ve
1.50000029350232e-07
-7.98781617267879 45.3011566385616 238
0 0

0101101
*
Ed
 1e-07 1 1 0
1  9 0 0.174532925199433 1.74532925199433
2  20 2 0 0.174532925199433 1.74532925199433
2  21 11 0 0.174532925199433 1.74532925199433
2  22 3 3 0.174532925199433 1.74532925199433
0

0101000
+44 0 -42 0 *
Ed
 1.5e-07 1 1 0
1  10 0 -13 -11.8
2  23 2 0 -13 -11.8
2  24 4 0 -13 -11.8
2  25 3 3 -13 -11.8
0

0101000
+42 0 -61 0 *
Wi

0101100
-43 0 -41 0 -40 0 +60 0 *
Fa
0  1e-07 2 0

0101000
+39 0 *
Ve
1.50000007324159e-07
-7.98781617267879 45.3011566385616 0
0 0

0101101
*
Ed
 1.5e-07 1 1 0
1  11 0 -13 -11.8
2  26 5 0 -13 -11.8
2  27 4 0 -13 -11.8
2  28 6 5 -13 -11.8
0

0101000
+37 0 -59 0 *
Ed
 1e-07 1 1 0
1  12 0 0.2 238.2
2  29 11 0 0.2 238.2
2  30 4 0 0.2 238.2
0

0101000
+37 0 -42 0 *
Wi

0101100
+36 0 -35 0 -40 0 +58 0 *
Fa
0  1e-07 4 0

0101000
+34 0 *
Ve
1.50000007160777e-07
45.3011566385616 7.9878161726788 0
0 0

0101101
*
Ed
 1.5e-07 1 1 0
1  13 0 -47.2 -46
2  31 5 0 -47.2 -46
2  32 7 0 -47.2 -46
2  33 6 5 -47.2 -46
0

0101000
+57 0 -32 0 *
Ed
 1e-07 1 1 0
1  14 0 0.174532925199433 1.74532925199433
2  34 5 0 0.174532925199433 1.74532925199433
2  35 11 0 0.174532925199433 1.74532925199433
2  36 6 5 0.174532925199433 1.74532925199433
0

0101000
+32 0 -37 0 *
Wi

0101100
-31 0 -30 0 -36 0 +56 0 *
Fa
0  1e-07 5 0

0101000
+29 0 *
Ve
1.500000075886e-07
45.3011566385616 7.9878161726788 79
0 0

0101101
*
Ed
 1.5e-07 1 1 0
1  15 0 31.0815740642952 32.2815740642952
2  37 7 0 31.0815740642952 32.2815740642952
2  38 8 6 31.0815740642952 32.2815740642952
0

0101000
+27 0 -55 0 *
Ed
 1e-07 1 1 0
1  16 0 0.2 79.2
2  39 11 0 0.2 79.2
2  40 7 0 0.2 79.2
0

0101000
+32 0 -27 0 *
Wi

0101100
-54 0 +26 0 +25 0 +31 0 *
Fa
0  1e-07 7 0

0101000
+24 0 *
Ve
1.00000007105427e-07
40.9267638593623 21 79
0 0

0101101
*
Ed
 1e-07 1 1 0
1  17 0 6.92676385936225 8.2710302689679
2  41 8 0 6.92676385936225 8.2710302689679
2  42 9 0 6.92676385936225 8.2710302689679
0

0101000
+22 7 -53 7 *
Ed
 1e-07 1 1 0
1  18 0 0.174532925199433 0.474081837318516
2  43 11 0 0.174532925199433 0.474081837318516
2  44 8 6 0.174532925199433 0.474081837318516
0

0101000
+27 0 -22 0 *
Wi

0101100
-21 6 +52 0 +26 0 -20 0 *
Fa
0  1e-07 8 6

0101000
+19 0 *
Ve
1.00000007105427e-07
40.9267638593623 21 161
0 0

0101101
*
Ed
 1e-07 1 1 0
1  19 0 6.92676385936225 8.2710302689679
2  45 10 0 6.92676385936225 8.2710302689679
2  46 9 0 6.92676385936225 8.2710302689679
0

0101000
+17 7 -51 7 *
Ed
 1e-07 1 1 0
1  20 0 79.2 161.2
2  47 11 0 79.2 161.2
2  48 9 6 79.2 161.2
0

0101000
+22 0 -17 0 *
Wi

0101100
-21 6 -50 0 +16 6 +15 0 *
Fa
0  1e-07 9 6

0101000
+14 0 *
Ve
1.500000075886e-07
45.3011566385616 7.9878161726788 161
0 0

0101101
*
Ed
 1.5e-07 1 1 0
1  21 0 31.0815740642952 32.2815740642952
2  49 7 0 31.0815740642952 32.2815740642952
2  50 10 6 31.0815740642952 32.2815740642952
0

0101000
+12 0 -49 0 *
Ed
 1e-07 1 1 0
1  22 0 0.174532925199433 0.474081837318516
2  51 11 0 0.174532925199433 0.474081837318516
2  52 10 6 0.174532925199433 0.474081837318516
0

0101000
+12 0 -17 0 *
Wi

0101100
-16 6 +48 0 +11 0 -10 0 *
Fa
0  1e-07 10 6

0101000
+9 0 *
Ed
 1e-07 1 1 0
1  16 0 161.2 238.2
2  39 11 0 161.2 238.2
2  40 7 0 161.2 238.2
0

0101000
+12 0 -44 0 *
Wi

0101100
-47 0 -43 0 +7 0 -11 0 *
Fa
0  1e-07 7 0

0101000
+6 0 *
Wi

0101100
-41 0 +35 0 +30 0 -25 0 -20 0 -15 0 +10 0 -7 0 *
Fa
0  1e-07 11 0

0101000
+4 0 *
Sh

0101100
+45 0 +38 0 -33 0 -28 0 -23 0 +18 0 -13 0 -8 0 -5 0 -3 0 
*
So

0100000
+2 0 *

+1 0 