DBRep_DrawableShape

CASCADE Topology V3, (c) Open Cascade
Locations 5
1
              1               0               0               0 
              0               1               0               0 
              0               0               1            1603 
1
              1               0               0               0 
              0               1               0               0 
              0               0               1            1368 
2  1 1 2 -1 0
1
              1               0               0               0 
              0               1               0               0 
              0               0               1            1371 
2  4 1 2 -1 0
Curve2ds 32
1 0 238 1 0 
2 0 0 1 0 -0 1 48.649999999999999
2 0 0 1 0 -0 1 48.649999999999999
8 -5.9999999999999997e-07 238.00000059999999
1 2.9670597283903604 0 0 1 
8 -5.9999999999999997e-07 238.00000059999999
1 72.975000000000009 -0.20000000000000001 0 -1 
1 0 0 1 0 
2 0 0 1 0 -0 1 48.649999999999999
2 0 0 1 0 -0 1 48.649999999999999
8 -5.9999999999999997e-07 238.00000059999999
1 1.3962634015954636 0 0 1 
8 -5.9999999999999997e-07 238.00000059999999
1 48.650000000000006 -0.20000000000000001 0 -1 
8 -49.400504668241496 -0
1 0 0 -0.17364817766693044 -0.98480775301220813 
8 -49.400504668241496 -0
1 0 -238.20000000000002 -1 -0 
1 0 0 -0.17364817766693044 -0.98480775301220813 
2 0 0 1 0 -0 1 47.450000000000003
1 0 238.19999999999999 1 0 
2 0 0 1 0 -0 1 47.450000000000003
8 -60.812500000000007 -11.411995331758506
1 -59.888621480054901 10.559979804370197 -0.98480775301220813 0.1736481776669303 
8 -60.812500000000007 -11.411995331758506
1 60.812500000000007 -238.20000000000002 -1 -0 
1 -59.888621480054901 10.559979804370197 -0.98480775301220813 0.1736481776669303 
8 -60.812500000000007 -11.411995331758506
1 -59.888621480054901 10.559979804370197 -0.98480775301220813 0.1736481776669303 
8 -60.812500000000007 -11.411995331758506
1 60.812500000000007 -0.20000000000000004 -1 -0 
1 -59.888621480054901 10.559979804370197 -0.98480775301220813 0.1736481776669303 
8 0.19999940000000002 238.20000059999998
1 2.9670597283903604 0 0 1 
8 0.19999940000000002 238.20000059999998
1 74.174999999999983 0 0 -1 
8 -49.400504668241496 -0
1 0 0 -0.17364817766693044 -0.98480775301220813 
8 -49.400504668241496 -0
1 0 -0.20000000000000004 -1 -0 
1 0 0 -0.17364817766693044 -0.98480775301220813 
2 0 0 1 0 -0 1 47.450000000000003
1 0 0.20000000000000001 1 0 
2 0 0 1 0 -0 1 47.450000000000003
8 0.19999940000000002 238.20000059999998
1 1.3962634015954636 0 0 1 
8 0.19999940000000002 238.20000059999998
1 47.450000000000017 0 0 -1 
Curves 12
2 0 0 238 0 0 1 1 0 -0 -0 1 0 48.649999999999999
1 -47.910897184043925 8.4479838434961589 0 0 0 1 
2 0 0 0 0 0 1 1 0 -0 -0 1 0 48.649999999999999
1 8.447983843496166 47.910897184043925 0 0 0 1 
1 0 0 238.00000000000003 -0.17364817766693044 -0.98480775301220813 0 
2 0 0 238 0 0 1 1 0 -0 -0 1 0 47.450000000000003
1 -59.888621480054901 10.559979804370197 238.00000000000003 -0.98480775301220813 0.1736481776669303 0 
1 -59.888621480054901 10.559979804370197 2.7755575615628914e-17 -0.98480775301220813 0.1736481776669303 0 
1 -46.729127880429282 8.2396060302958443 -0.20000000000000001 0 0 1 
1 0 0 2.7755575615628914e-17 -0.17364817766693044 -0.98480775301220813 0 
2 0 0 0 0 0 1 1 0 -0 -0 1 0 47.450000000000003
1 8.2396060302958496 46.729127880429282 -0.20000000000000001 0 0 1 
Polygon3D 0
PolygonOnTriangulations 0
Surfaces 8
2 0 0 0 0 0 1 1 0 -0 -0 1 0 48.649999999999999
1 0 0 238 0 0 1 1 0 -0 -0 1 0 
1 0 0 3 0 0 1 1 0 -0 -0 1 0 
1 -119.7772429601098 21.119959608740395 -0.20000000000000001 0.1736481776669303 0.98480775301220813 -0 0.98480775301220813 -0.1736481776669303 0 0 -0 -1 
1 0 0 0 0 0 1 1 0 -0 -0 1 0 
1 0 0 -3 0 0 1 1 0 -0 -0 1 0 
1 0 0 -0.20000000000000001 -0.98480775301220813 0.17364817766693044 0 0.17364817766693044 0.98480775301220813 0 0 0 -1 
2 0 0 -0.20000000000000001 0 0 1 1 0 -0 -0 1 0 47.450000000000003
Triangulations 0

TShapes 34
Ve
1.50000029350232e-07
8.44798384349616 47.9108971840439 238
0 0

0101101
*
Ve
1.50000028421709e-07
-47.9108971840439 8.44798384349616 238
0 0

0101101
*
Ed
 1e-07 1 1 0
1  1 0 1.39626340159546 2.96705972839036
2  1 1 0 1.39626340159546 2.96705972839036
2  2 2 0 1.39626340159546 2.96705972839036
2  3 3 3 1.39626340159546 2.96705972839036
0

0101000
+34 0 -33 0 *
Ve
1.50000000027756e-07
-47.9108971840439 8.44798384349616 0
0 0

0101101
*
Ed
 1e-07 1 1 0
1  2 0 0 238
2  4 1 0 0 238
2  5 4 0 0 238
0

0101000
+31 0 -33 0 *
Ve
1.50000007324159e-07
8.44798384349616 47.9108971840439 0
0 0

0101101
*
Ed
 1e-07 1 1 0
1  3 0 1.39626340159546 2.96705972839036
2  6 1 0 1.39626340159546 2.96705972839036
2  7 5 0 1.39626340159546 2.96705972839036
2  8 6 5 1.39626340159546 2.96705972839036
0

0101000
+29 0 -31 0 *
Ed
 1e-07 1 1 0
1  4 0 0 238
2  9 1 0 0 238
2  10 7 0 0 238
0

0101000
+29 0 -34 0 *
Wi

0101100
-32 0 +30 0 +28 0 -27 0 *
Fa
0  1e-07 1 0

0101000
+26 0 *
Ve
1.50000031974423e-07
8.23960603029585 46.7291278804293 238
0 0

0101101
*
Ed
 1.5e-07 1 1 0
1  5 0 -48.65 -47.45
2  11 2 0 -48.65 -47.45
2  12 7 0 -48.65 -47.45
2  13 3 3 -48.65 -47.45
0

0101000
+34 0 -24 0 *
Ve
1.50000028421709e-07
-46.7291278804293 8.23960603029584 238
0 0

0101101
*
Ed
 1e-07 1 1 0
1  6 0 1.39626340159546 2.96705972839036
2  14 2 0 1.39626340159546 2.96705972839036
2  15 8 0 1.39626340159546 2.96705972839036
2  16 3 3 1.39626340159546 2.96705972839036
0

0101000
+24 0 -22 0 *
Ed
 1.5e-07 1 1 0
1  7 0 -13.3625 -12.1625
2  17 2 0 -13.3625 -12.1625
2  18 4 0 -13.3625 -12.1625
2  19 3 3 -13.3625 -12.1625
0

0101000
+22 0 -33 0 *
Wi

0101100
-23 0 -21 0 -20 0 +32 0 *
Fa
0  1e-07 2 0

0101000
+19 0 *
Ve
1.50000000027756e-07
-46.7291278804293 8.23960603029584 0
0 0

0101101
*
Ed
 1.5e-07 1 1 0
1  8 0 -13.3625 -12.1625
2  20 5 0 -13.3625 -12.1625
2  21 4 0 -13.3625 -12.1625
2  22 6 5 -13.3625 -12.1625
0

0101000
+17 0 -31 0 *
Ed
 1e-07 1 1 0
1  9 0 0.2 238.2
2  23 8 0 0.2 238.2
2  24 4 0 0.2 238.2
0

0101000
+17 0 -22 0 *
Wi

0101100
+16 0 -15 0 -20 0 +30 0 *
Fa
0  1e-07 4 0

0101000
+14 0 *
Ve
1.5000001464824e-07
8.23960603029585 46.7291278804293 0
0 0

0101101
*
Ed
 1.5e-07 1 1 0
1  10 0 -48.65 -47.45
2  25 5 0 -48.65 -47.45
2  26 7 0 -48.65 -47.45
2  27 6 5 -48.65 -47.45
0

0101000
+29 0 -12 0 *
Ed
 1e-07 1 1 0
1  11 0 1.39626340159546 2.96705972839036
2  28 5 0 1.39626340159546 2.96705972839036
2  29 8 0 1.39626340159546 2.96705972839036
2  30 6 5 1.39626340159546 2.96705972839036
0

0101000
+12 0 -17 0 *
Wi

0101100
-11 0 -10 0 -16 0 +28 0 *
Fa
0  1e-07 5 0

0101000
+9 0 *
Ed
 1e-07 1 1 0
1  12 0 0.2 238.2
2  31 8 0 0.2 238.2
2  32 7 0 0.2 238.2
0

0101000
+12 0 -24 0 *
Wi

0101100
-27 0 -23 0 +7 0 +11 0 *
Fa
0  1e-07 7 0

0101000
+6 0 *
Wi

0101100
-21 0 +15 0 +10 0 -7 0 *
Fa
0  1e-07 8 0

0101000
+4 0 *
Sh

0101100
+25 0 +18 0 -13 0 -8 0 -5 0 -3 0 *
So

0100000
+2 0 *

+1 0 