DBRep_DrawableShape

CASCADE Topology V3, (c) Open Cascade
Locations 0
Curve2ds 6
8 0 25.176869973642848
1 6.2831853071795862 0 0 1 
1 0 0 0 1 
1 0 0 1 0 
7 1 1  6 6 2  -0.079987326141210402 -6.9388939039072284e-17  1.6690784610682365 -0.079987326141209847 -0.13292344604568471  1.0367296232096121 0.084376529102640485 -0.15200899065964832  1.0383466998475064 0.21994202753946568 -4.163336342344337e-16  0.85353433019614966 0.084376529102640485 0.15200899065964837  1.0383466998475068 -0.079987326141210624 0.13292344604568454  1.0367296232096115
 0 6 6.2831853071795862 6
1 0 25.176869973642848 1 0 
7 1 1  6 6 2  -0.079987326139818737 -4.7190089125237478e-07  1.6690784610682365 -0.079986541931923894 -0.13292391794426273  1.0367296232096121 0.084377425907974812 -0.15200849286114826  1.0383466998475064 0.2199420275356393 1.2975910557155856e-06  0.85353433019614966 0.084375632294369063 0.15200948845285778  1.0383466998475068 -0.079988110347715913 0.13292297414247978  1.0367296232096115
 0 6 6.2831853071795862 6
Curves 3
7 1 0  10 41 5  0.79999999999999993 -9.9117762608624815e-16 0.079999999999999946  1.6690784610682365 0.79999999999987181 0.50265489367142091 0.11725251060089392  1.6690784610682758 0.44915646169288514 1.0057131979045661 0.15449303304672588  1.6690784610680867 -0.25335142230106633 1.2299149665329678 0.19176239408860851  1.669078461068523 -1.0555544328942326 0.91581895765082222 0.22898948349543036  1.6690784610678755 -1.4804999868279825 -8.5022081844094571e-08 0.26625170529789333  1.6690784610685665 -1.0555544774350187 -0.91581867972636821 0.30350823589766451  1.6690784610680118 -0.25335148198658974 -1.2299151398188755 0.34074033186091446  1.6690784610683493 0.44915641280033369 -1.0057130883357306 0.37800584326346442  1.6690784610681972 0.79999997559214286 -0.50265501138536361 0.41524891899877914  1.6690784610682448 0.8000000000000359 1.5018368493269207e-15 0.45249999999980306  1.6690784610682359 0.79999999999985816 0.50265489367135863 0.4897525106014769  1.6690784610683387 0.44915646169261025 1.0057131979049525 0.52699303304572109  1.6690784610678522 -0.25335142229983287 1.2299149665318141 0.56426239408965451  1.6690784610690754 -1.0555544328970758 0.91581895765281685 0.60148948349501374  1.6690784610669402 -1.4804999868240061 -8.5024128438759144e-08 0.63875170529723957  1.6690784610697109 -1.0555544774383621 -0.91581867972490949 0.67600823589920556  1.6690784610670055 -0.25335148198476554 -1.2299151398198034 0.71324033185909386  1.6690784610689835 0.44915641279966068 -1.0057130883352601 0.75050584326502923  1.6690784610679212 0.79999997559231317 -0.50265501138549695 0.78774891899769728  1.6690784610683145 0.80000000000000859 -1.4235357684300176e-14 0.82500000000040841  1.6690784610682374 0.79999999999979288 0.50265489367135219 0.86225251059966901  1.6690784610681739 0.4491564616933249 1.0057131979047103 0.89949303304918504  1.6690784610684748 -0.25335142230255348 1.2299149665329348 0.93676239408488438  1.6690784610677154 -1.0555544328912263 0.91581895765066657 0.97398948350000969  1.6690784610690237 -1.4804999868316711 -8.5021945327211704e-08 1.0112517052930381  1.6690784610673874 -1.0555544774323105 -0.91581867972657993 1.0485082359022364  1.6690784610689144 -0.25335148198783408 -1.229915139818444 1.0857403318571599  1.6690784610678364 0.44915641280063756 -1.0057130883361336 1.1230058432659891  1.6690784610684009 0.79999997559216907 -0.50265501138518875 1.1602489189975094  1.6690784610681981 0.79999999999998328 -6.3586289011929856e-15 1.1975000000002116  1.6690784610682365 0.80000000000000793 0.50265489755765858 1.2347524634026068  1.6690784610682707 0.44915646169240708 1.0057131812458151 1.2719932353650987  1.6690784610680951 -0.25335142229986396 1.2299150095561475 1.3092618715809525  1.6690784610685643 -1.0555544328966819 0.91581887618231927 1.3464904729083198  1.6690784610677483 -1.480499986824007 3.5962035324459136e-08 1.383750235984992  1.6690784610687546 -1.0555544774400722 -0.91581882490756494 1.4210099990723861  1.6690784610678295 -0.25335148198144375 -1.2299149972483003 1.4582386003909626  1.6690784610684732 0.4491564127961043 -1.0057132030650426 1.4955072366126609  1.669078461068138 0.79999997559492875 -0.50265493642032244 1.5327480085720881  1.6690784610682616 0.79999999999859439 -3.8862743332018085e-08 1.5700004719756637  1.6690784610682365
 0 11 6.294217493410712 10 12.588434986821424 10 18.882652480232135 10 25.176869973642848 11
7 1 1  6 6 2  0.79999999999999993 -9.9117762608624815e-16 0.079999999999999946  1.6690784610682365 0.79999999999999938 -6.123573870198129e-16 0.21292344604568458  1.0367296232096121 0.63563614475614905 -1.2815269678778662e-16 0.2320089906596482  1.0383466998475064 0.50007064631932385 -8.4481033280070496e-16 0.080000000000000293  0.85353433019614966 0.63563614475614905 -4.7227846633468573e-16 -0.072008990659648497  1.0383466998475068 0.80000000000000016 6.5485811218124468e-17 -0.052923446045684663  1.0367296232096115
 0 6 6.2831853071795862 6
7 1 1  6 6 2  0.79999999999859439 -3.8862743332018085e-08 1.5700004719756637  1.6690784610682365 0.79999921579069955 -3.8862546300824641e-08 1.7029239180190352  1.0367296232096121 0.63563524795082027 4.0982848139225689e-08 1.7220084929359207  1.0383466998475064 0.50007064632317177 1.06838203916583e-07 1.5699987024837168  0.85353433019614966 0.63563704156442602 4.0982400344863334e-08 1.4179905116219147  1.0383466998475068 0.80000078420649157 -3.8862938849014775e-08 1.4370770259322927  1.0367296232096115
 0 6 6.2831853071795862 6
Polygon3D 0
PolygonOnTriangulations 0
Surfaces 3
9 1 1 1 0 6 10 6 41 2 5 0.79999999999999993 -9.9117762608624815e-16 0.07999999999999996  1.6690784610682365 0.79999999999987181 0.50265489367142091 0.11725251060089392  1.6690784610682758 0.44915646169288514 1.0057131979045661 0.1544930330467259  1.6690784610680867 -0.25335142230106633 1.2299149665329678 0.19176239408860851  1.669078461068523 -1.0555544328942326 0.91581895765082222 0.22898948349543036  1.6690784610678755 -1.4804999868279825 -8.5022081844094571e-08 0.26625170529789333  1.6690784610685665 -1.0555544774350187 -0.91581867972636821 0.30350823589766451  1.6690784610680118 -0.25335148198658974 -1.2299151398188755 0.34074033186091446  1.6690784610683493 0.44915641280033369 -1.0057130883357306 0.37800584326346442  1.6690784610681972 0.79999997559214286 -0.50265501138536361 0.41524891899877914  1.6690784610682448 0.8000000000000359 1.5018368493269207e-15 0.45249999999980306  1.6690784610682359 0.79999999999985827 0.50265489367135863 0.4897525106014769  1.6690784610683387 0.44915646169261025 1.0057131979049525 0.52699303304572109  1.6690784610678522 -0.25335142229983287 1.2299149665318139 0.56426239408965451  1.6690784610690754 -1.0555544328970758 0.91581895765281685 0.60148948349501374  1.6690784610669402 -1.4804999868240063 -8.5024128438759144e-08 0.63875170529723968  1.6690784610697109 -1.0555544774383621 -0.91581867972490949 0.67600823589920556  1.6690784610670055 -0.25335148198476554 -1.2299151398198034 0.71324033185909386  1.6690784610689835 0.44915641279966068 -1.0057130883352601 0.75050584326502934  1.6690784610679212 0.79999997559231317 -0.50265501138549695 0.78774891899769728  1.6690784610683145 0.80000000000000859 -1.4235357684300176e-14 0.82500000000040841  1.6690784610682374 0.79999999999979288 0.50265489367135219 0.86225251059966901  1.6690784610681739 0.4491564616933249 1.0057131979047103 0.89949303304918504  1.6690784610684748 -0.25335142230255348 1.229914966532935 0.93676239408488438  1.6690784610677154 -1.0555544328912263 0.91581895765066668 0.97398948350000969  1.6690784610690237 -1.4804999868316711 -8.5021945327211704e-08 1.0112517052930381  1.6690784610673874 -1.0555544774323105 -0.91581867972657993 1.0485082359022364  1.6690784610689144 -0.25335148198783408 -1.229915139818444 1.0857403318571599  1.6690784610678364 0.44915641280063756 -1.0057130883361336 1.1230058432659891  1.6690784610684009 0.79999997559216907 -0.50265501138518875 1.1602489189975094  1.6690784610681981 0.79999999999998328 -6.3586289011929864e-15 1.1975000000002116  1.6690784610682365 0.80000000000000793 0.50265489755765858 1.2347524634026068  1.6690784610682707 0.44915646169240708 1.0057131812458151 1.2719932353650987  1.6690784610680951 -0.25335142229986396 1.2299150095561475 1.3092618715809525  1.6690784610685643 -1.0555544328966819 0.91581887618231939 1.3464904729083198  1.6690784610677483 -1.480499986824007 3.596203532445913e-08 1.383750235984992  1.6690784610687546 -1.0555544774400722 -0.91581882490756494 1.4210099990723859  1.6690784610678295 -0.25335148198144375 -1.2299149972483001 1.4582386003909626  1.6690784610684732 0.4491564127961043 -1.0057132030650426 1.4955072366126612  1.669078461068138 0.79999997559492886 -0.50265493642032244 1.5327480085720881  1.6690784610682616 0.79999999999859439 -3.8862743332018085e-08 1.5700004719756637  1.6690784610682365 
0.79999999999999938 -6.123573870198129e-16 0.21292344604568458  1.0367296232096121 0.79999582852828632 0.50265464730393705 0.2501759566463545  1.0367296232096495 0.44916800787550959 1.0057128063442069 0.28741647907557977  1.0367296232094656 -0.25337085012288074 1.2299142226345274 0.32468584020579172  1.036729623209913 -1.0555367757656058 0.91581840423284355 0.36191292937001868  1.036729623209192 -1.4805017024973315 2.2124245361633023e-07 0.39917515160069172  1.0367296232100491 -1.0555665263340976 -0.9158183354198669 0.43643168168036728  1.0367296232092669 -0.25333555088105364 -1.2299146780652901 0.47366377808620047  1.0367296232098149 0.44914707759354877 -1.0057124940426991 0.51092928922955083  1.0367296232095298 0.80000177172228626 -0.50265476501926254 0.54817236506183731  1.0367296232096312 0.80000000000031446 9.1825418796487313e-15 0.58542344604548779  1.0367296232096117 0.79999582852722573 0.50265464730389653 0.62267595664692643  1.0367296232096634 0.44916800787769873 1.0057128063442264 0.65991647907461815  1.0367296232094219 -0.25337085012592553 1.2299142226342892 0.69718584020674523  1.0367296232100178 -1.0555367757628684 0.91581840423397665 0.73441292936973379  1.0367296232089931 -1.4805017024985216 2.2124012350496595e-07 0.77167515159990818  1.036729623210316 -1.0555665263346234 -0.91581833541700142 0.80893168168199692  1.0367296232090191 -0.25333555087941328 -1.2299146780675765 0.84616377808433885  1.0367296232099774 0.44914707759160832 -1.005712494041614 0.8834292892311274  1.0367296232094567 0.80000177172387921 -0.50265476501946904 0.92067236506075378  1.0367296232096499 0.79999999999934202 -6.8277414971840145e-14 0.95792344604609303  1.0367296232096128 0.79999582853061468 0.5026546473038187 0.99517595664512992  1.0367296232095691 0.44916800787003519 1.0057128063450014 1.032416479078037  1.0367296232097787 -0.25337085011358007 1.2299142226329685 1.0696858402020752  1.0367296232092496 -1.0555367757776977 0.91581840423447736 1.1069129293745779  1.0367296232101495 -1.4805017024844132 2.2124154607579445e-07 1.1441751515958738  1.0367296232090462 -1.0555665263459606 -0.91581833542008417 1.1814316816848913  1.0367296232100536 -0.25333555087218107 -1.2299146780644388 1.2186637780824872  1.0367296232093561 0.44914707758840011 -1.0057124940432911 1.2559292892320522  1.0367296232097165 0.8000017717244986 -0.50265476501911055 1.2931723650605746  1.0367296232095879 0.79999999999970262 -8.0554053011328008e-15 1.3304234460458964  1.0367296232096121 0.79999590695051381 0.50265465119016206 1.3676759094482973  1.0367296232096155 0.44916767171342775 1.005712789685768 1.404916681392963  1.0367296232095926 -0.25336998195032223 1.2299142656567994 1.4421853177007016  1.0367296232096619 -1.0555384197238515 0.9158183227658071 1.4794139187780333  1.0367296232095469 -1.4804992611628303 3.4222484901372079e-07 1.5166736822950462  1.0367296232096614 -1.0555694559329101 -0.91581848059955395 1.5539334448463751  1.0367296232095966 -0.25333267396234116 -1.2299145354957219 1.5911620466247967  1.036729623209605 0.44914476247907542 -1.0057126087713835 1.6284306825718833  1.0367296232096215 0.8000032844382633 -0.50265469005461194 1.6656714546396196  1.036729623209609 0.79999921579069955 -3.8862546300824641e-08 1.7029239180190352  1.0367296232096121 
0.63563614475614905 -1.2815269678778662e-16 0.2320089906596482  1.0383466998475064 0.63563137433241745 0.39938161393667887 0.26925634310970059  1.0383466998475375 0.35688784066243939 0.79908543179456071 0.30651633762864494  1.0383466998473834 -0.20131912383124059 0.97721903809359034 0.34374592057702141  1.0383466998477584 -0.83867122541662775 0.72766194485273727 0.38102008062594533  1.0383466998471529 -1.1763185124919984 4.3989963915340262e-07 0.41825719263363809  1.0383466998478807 -0.83870514975364474 -0.72766247707515064 0.45550030520889095  1.0383466998472004 -0.20127862502274527 -0.97721917801050451 0.49276918638313133  1.0383466998476936 0.35686401262065992 -0.7990853154989348 0.53000282856580849  1.0383466998474251 0.63563822451915286 -0.39938148980307514 0.56726013064745184  1.0383466998475268 0.63563614475650421 -1.2953180195118819e-14 0.60450899065979824  1.0383466998475059 0.63563137433121886 0.39938161393653565 0.641756343108977  1.0383466998475681 0.35688784066496926 0.79908543179505087 0.67901633763056135  1.038346699847275 -0.20131912383493386 0.97721903809242106 0.716245920573503  1.038346699848006 -0.83867122541291639 0.72766194485484292 0.75352008063063902  1.0383466998467445 -1.1763185124943707 4.3989695964097471e-07 0.79075719262909883  1.0383466998483626 -0.8387051497530873 -0.72766247707266296 0.82800030521189039  1.0383466998467967 -0.20127862502171065 -0.97721917801218017 0.86526918638211137  1.0383466998479369 0.35686401261881651 -0.79908531549824313 0.90250282856546971  1.0383466998473232 0.63563822452088592 -0.39938148980317123 0.93976013064820185  1.0383466998475521 0.63563614475539354 -7.1067067161645348e-14 0.9770089906592303  1.038346699847507 0.63563137433504491 0.3993816139366424 1.0142563431113785  1.0383466998474697 0.35688784065620138 0.7990854317952536 1.0515163376242456  1.0383466998476478 -0.20131912382026648 0.97721903809179311 1.0887459205854237  1.03834669984719 -0.83867122543156303 0.72766194485538183 1.1260200806138059  1.0383466998479942 -1.1763185124756237 4.39896896567947e-07 1.1632571926471267  1.0383466998469728 -0.83870514976845545 -0.72766247707310505 1.2005003051972847  1.0383466998479276 -0.20127862501203445 -0.97721917801165104 1.2377691863908495  1.0383466998472668 0.3568640126146585 -0.79908531549832051 1.2750028285619073  1.0383466998475999 0.6356382245216623 -0.39938148980336408 1.3122601306488668  1.0383466998474857 0.63563614475581076 1.7420093145759097e-14 1.3495089906595126  1.0383466998475064 0.63563146401438242 0.3993816098383533 1.3867563928829258  1.0383466998475226 0.35688745623466678 0.79908544936264347 1.4240161242721623  1.0383466998474367 -0.20131813100739407 0.97721899272202239 1.4612464715918192  1.038346699847674 -0.83867310541303286 0.72766203076733404 1.4985190372329473  1.0383466998472473 -1.1763157206325396 3.1231432498653698e-07 1.5357587421074421  1.0383466998477977 -0.83870849998177754 -0.72766232397370822 1.5729984458429795  1.0383466998472561 -0.20127533503877329 -0.97721932835853442 1.6102710123130679  1.0383466998476698 0.35686136510435473 -0.79908519451083693 1.647501359203595  1.0383466998474304 0.63563995442940135 -0.3993815688578129 1.6847610907414015  1.0383466998475273 0.63563524795082027 4.0982848139225689e-08 1.7220084929359207  1.0383466998475064 
0.50007064631932385 -8.4481033280070505e-16 0.080000000000000293  0.85353433019614966 0.50007064631972464 0.31420346379485237 0.11724309806451294  0.85353433019617986 0.28076160321162291 0.6286619420368228 0.15451915296954266  0.85353433019603397 -0.15836291490844237 0.76879977043735004 0.19171592720025077  0.85353433019638403 -0.6598251902611576 0.5724732668590603 0.22902891110238399  0.85353433019583103 -0.92542940072864655 2.33737379491325e-07 0.26624531193472589  0.8535343301964633 -0.65982506781271266 -0.57247403090865945 0.30347735855594138  0.85353433019591929 -0.15836275082657736 -0.76879929405249514 0.34077657884396745  0.85353433019627467 0.28076173762336482 -0.6286622432551553 0.37798393618568632  0.85353433019610259 0.50007071341913167 -0.31420314018514067 0.41525297179885429  0.85353433019615998 0.50007064631935783 -4.2901012603513422e-14 0.45250000000043622  0.85353433019614944 0.50007064631977705 0.314203463794612 0.48974309806270327  0.85353433019619296 0.280761603211239 0.62866194203797654 0.52701915297389923  0.85353433019599156 -0.15836291490745294 0.76879977043482539 0.56421592719290659  0.85353433019648561 -0.65982519026276054 0.57247326686237621 0.6015289111113693  0.85353433019564007 -0.92542940072689051 2.3373478849251193e-07 0.6387453119269173  0.85353433019672043 -0.65982506781393724 -0.57247403090767157 0.67597735856018493  0.85353433019567981 -0.15836275082603335 -0.76879929405242231 0.71327657884358397  0.85353433019643132 0.28076173762319817 -0.62866224325540676 0.75048393618378795  0.85353433019603231 0.50007071341918197 -0.3142031401850755 0.78775297180111181  0.85353433019617819 0.50007064631933307 -3.9172224491901275e-15 0.82499999999890061  0.8535343301961501 0.50007064631962372 0.31420346379493486 0.86224309806858024  0.85353433019612379 0.28076160321201782 0.62866194203658532 0.89951915295950136  0.85353433019624914 -0.15836291490942386 0.76879977043739889 0.93671592721862706  0.85353433019593328 -0.65982519025956254 0.57247326686025324 0.97402891107648515  0.85353433019647529 -0.92542940073023883 2.3373410703068052e-07 1.011245311963328  0.85353433019579938 -0.65982506781188088 -0.57247403090421844 1.0484773585309859  0.85353433019642788 -0.15836275082676188 -0.76879929405618075 1.0857765788611609  0.85353433019598623 0.28076173762332912 -0.62866224325317577 1.1229839361764766  0.85353433019621727 0.50007071341918918 -0.31420314018579043 1.1602529718024848  0.85353433019613378 0.5000706463193052 3.9027808762526206e-14 1.1974999999995781  0.85353433019614966 0.50007064631932074 0.31420345311096409 1.2347432278182768  0.85353433019615954 0.2807616032134615 0.62866198783409022 1.2720185967711382  0.85353433019610792 -0.15836291491321258 0.76879965216097512 1.3092173636390925  0.85353433019625236 -0.65982519025234254 0.57247349082606336 1.346526191083754  0.85353433019599123 -0.92542940074124425 -9.8862153992320539e-08 1.3837493512553816  0.85353433019632496 -0.65982506779811334 -0.57247363178902189 1.4209725113765304  0.85353433019600233 -0.15836275084066367 -0.76879968599531978 1.4582813388604263  0.85353433019624414 0.28076173763465884 -0.62866192785092478 1.4954801057048681  0.85353433019610703 0.50007071341175435 -0.31420334627293312 1.5327554746683272  0.8535343301961611 0.50007064632317177 1.06838203916583e-07 1.569998702483717  0.85353433019614966 
0.63563614475614905 -4.7227846633468573e-16 -0.072008990659648497  1.0383466998475068 0.63564091518020227 0.3993821774200022 -0.034761638209068857  1.0383466998475483 0.3568614326266436 0.79908632735817797 0.0024983563477835036  1.0383466998473432 -0.20127468917845062 0.9772207395124729 0.039727939094320264  1.0383466998478486 -0.83871161020067986 0.72766321061184325 0.077002099697803805  1.0383466998470192 -1.1763145884706387 -2.6057802607901484e-07 0.11423921072643173  1.0383466998480233 -0.83867759192228564 -0.72766326456188923 0.1514823244909923  1.0383466998470914 -0.20131506210502589 -0.97722023411707637 0.18875120465307904  1.0383466998477546 0.3568853637879511 -0.79908667474591599 0.22598484742856961  1.0383466998474025 0.63563411647139645 -0.39938205328320475 0.26324214928841494  1.0383466998475321 0.63563614475586383 -3.2834195431985513e-14 0.30049100934050132  1.0383466998475064 0.6356409151814425 0.39938217741983473 0.33773836179020389  1.0383466998475619 0.35686143262346581 0.79908632735923357 0.37499835634971601  1.0383466998473039 -0.20127468917268512 0.97722073951002131 0.41222793909076982  1.0383466998479387 -0.83871161020831997 0.72766321061493389 0.44950209970253863  1.0383466998468542 -1.1763145884634063 -2.6058002142691217e-07 0.48673921072186194  1.0383466998482347 -0.83867759192667424 -0.72766326456170283 0.52398232449400073  1.0383466998469089 -0.20131506210403408 -0.97722023411641734 0.56125120465206568  1.0383466998478654 0.35688536378904545 -0.79908667474635742 0.59848484742822294  1.0383466998473565 0.63563411646986756 -0.39938205328317017 0.63574214928916817  1.0383466998475439 0.63563614475692298 5.3716796635794317e-14 0.6729910093399335  1.0383466998475075 0.63564091517741217 0.39938217742010013 0.71023836179261257  1.0383466998474626 0.35686143263364645 0.79908632735717411 0.74749835634336737  1.038346699847678 -0.20127468919180205 0.97722073951476207 0.78472793910276684  1.0383466998471247 -0.83871161018108187 0.72766321060970995 0.82200209968558435  1.0383466998480937 -1.1763145884925421 -2.6057835346210076e-07 0.85923921074003062  1.0383466998468618 -0.83867759190383173 -0.7276632645592418 0.89648232447927012  1.0383466998480266 -0.20131506211707265 -0.9772202341196774 0.93375120466088635  1.0383466998472 0.35688536379412739 -0.79908667474470041 0.9709848474246231  1.0383466998476325 0.63563411646899648 -0.39938205328346083 1.0082421492898421  1.0383466998474775 0.63563614475645269 1.9126627365251281e-14 1.0454910093402159  1.0383466998475068 0.63564082549791456 0.39938217332172055 1.0827384115636272  1.0383466998475166 0.35686181705603037 0.79908634492531661 1.1199981429935713  1.0383466998474604 -0.20127568200660187 0.97722069414367985 1.1572284901032581  1.0383466998476185 -0.83870973019636719 0.72766329652230977 1.1945010563158969  1.0383466998473418 -1.1763173803410012 -3.8815966570257196e-07 1.2317407601837833  1.0383466998476809 -0.83867424168220361 -0.72766311146264584 1.268980465144804  1.0383466998473643 -0.2013183520999878 -0.97722038446382276 1.3062530305636557  1.0383466998475994 0.35688801131285686 -0.79908655375888604 1.3434833780819426  1.0383466998474624 0.63563238655557253 -0.39938213233709891 1.3807431093721692  1.0383466998475197 0.63563704156442602 4.0982400344863334e-08 1.4179905116219147  1.0383466998475068 
0.80000000000000016 6.5485811218124468e-17 -0.052923446045684663  1.0367296232096115 0.80000417147143033 0.5026551400389071 -0.015670935444553447  1.0367296232096468 0.44914491551032931 1.0057135894649778 0.021569587017821745  1.0367296232094725 -0.25333199447924515 1.2299157104312215 0.058838947971532662  1.0367296232099013 -1.055572090023204 0.91581951106900739 0.096066037620685218  1.0367296232091894 -1.480498271157954 -3.9128645164059582e-07 0.13332825899525669  1.0367296232100784 -1.0555424285364332 -0.91581902403342752 0.17058479011484562  1.0367296232092182 -0.25336741309200039 -1.2299156015719903 0.20781688563568357  1.0367296232098548 0.4491657480071376 -1.0057136826289457 0.24508239729736325  1.0367296232095087 0.79999817946199225 -0.50265525775143405 0.2823254729357223  1.0367296232096359 0.79999999999975235 -8.3585482285597479e-15 0.31957655395411855  1.036729623209611 0.80000417147250713 0.50265514003884293 0.35682906455601809  1.0367296232096628 0.44914491550749736 1.0057135894655338 0.39406958701685896  1.0367296232094223 -0.25333199447388544 1.2299157104297358 0.431338947972492  1.036729623210016 -1.0555720900307035 0.91581951107113158 0.46856603762039245  1.0367296232089913 -1.4804982711503909 -3.9128815052056481e-07 0.50582825899447781  1.0367296232103191 -1.0555424285414508 -0.91581902403272575 0.5430847901164757  1.0367296232090137 -0.25336741309038813 -1.2299156015721118 0.58031688563382078  1.0367296232099816 0.44916574800779507 -1.0057136826289044 0.6175823972989406  1.0367296232094527 0.79999817946071838 -0.50265525775151243 0.65482547293463877  1.0367296232096503 0.80000000000067806 4.036636476467681e-14 0.69207655395472378  1.0367296232096121 0.80000417146899006 0.50265514003889622 0.72932906455421853  1.0367296232095755 0.44914491551652347 1.0057135894643761 0.76656958702029077  1.0367296232097463 -0.2533319944912843 1.2299157104329785 0.80383894796779065  1.0367296232093264 -1.0555720900052183 0.91581951106678028 0.84106603762529142  1.0367296232100169 -1.4804982711782673 -3.9128532281613136e-07 0.87832825899037104  1.0367296232092109 -1.0555424285192705 -0.91581902403327986 0.91558479011944249  1.0367296232098946 -0.25336741310313882 -1.2299156015722623 0.95281688563191591  1.0367296232094687 0.44916574801275067 -1.0057136826290578 0.99008239729989134  1.0367296232096612 0.79999817945986895 -0.50265525775125108 1.0273254729344528  1.0367296232096015 0.80000000000026428 -5.2308418013735647e-15 1.0645765539545271  1.0367296232096115 0.80000409304952891 0.50265514392517829 1.1018290173569323  1.0367296232096221 0.44914525167132335 1.0057135728057214 1.1390697893371637  1.0367296232095642 -0.25333286264944543 1.2299157534558618 1.1763384254613818  1.0367296232097212 -1.0555704460691289 0.91581942959836071 1.2135670270383052  1.0367296232094589 -1.4805007124858414 -2.7030060660614488e-07 1.2508267896753025  1.0367296232097587 -1.0555394989467957 -0.91581916921540962 1.2880865532980748  1.0367296232095058 -0.25337029000066646 -1.2299154590010368 1.325315154157334  1.0367296232096699 0.44916806311313306 -1.0057137973586625 1.3625837906533473  1.0367296232095875 0.79999666675159486 -0.50265518278602783 1.3998245625045809  1.0367296232096175 0.80000078420649157 -3.8862938849014775e-08 1.4370770259322927  1.0367296232096115 

0 6
6.2831853071795862 6

0 11
6.294217493410712 10
12.588434986821424 10
18.882652480232135 10
25.176869973642848 11

1 0.72001267385878953 -6.1453023767108589e-16 0.079999999999999877 -2.7067474942457418e-15 -1 -9.1268510709251345e-16 -1 2.7067474942457418e-15 0 2.4704081266580671e-30 9.1268510709251345e-16 -1 
1 0.72001267385878509 -6.1622016632514317e-12 1.5700000000747725 -4.8578422168312393e-07 -0.99999999999988198 -1.3910179409239888e-12 -0.99999999999988198 4.8578422168312393e-07 -9.6296497219361793e-35 6.7573456777902171e-19 1.3910179409238246e-12 -1 
Triangulations 0

TShapes 13
Ve
1.17293224195837e-05
0.8 -9.91177626086248e-16 0.0799999999999999
0 0

0101101
*
Ve
1.17293224195837e-05
0.799999999998594 -3.88627433320181e-08 1.57000047197566
0 0

0101101
*
Ed
 1e-07 1 1 0
1  1 0 0 25.1768699736428
3  1 2G1 1 0 0 25.1768699736428
0

0101000
+13 0 -12 0 *
Ed
 1e-07 1 1 0
1  2 0 0 6.28318530717959
2  3 1 0 0 6.28318530717959
2  4 2 0 0 6.28318530717959
0

0101000
+13 0 -13 0 *
Ed
 1e-07 1 1 0
1  3 0 0 6.28318530717959
2  5 1 0 0 6.28318530717959
2  6 3 0 0 6.28318530717959
0

0101000
+12 0 -12 0 *
Wi

0101100
+11 0 +10 0 -11 0 -9 0 *
Fa
0  1e-07 1 0

0101000
+8 0 *
Wi

0101100
+10 0 *
Fa
0  1e-07 2 0

0101000
+6 0 *
Wi

0101100
+9 0 *
Fa
0  1e-07 3 0

0101000
+4 0 *
Sh

0101100
+7 0 -5 0 +3 0 *
So

0100100
-2 0 *

+1 0 