DBRep_DrawableShape

CASCADE Topology V3, (c) Open Cascade
Locations 13
1
              1               0               0               0 
              0               1               0               0 
              0               0               1             340 
1
              1               0               0               0 
              0               1               0               0 
              0               0               1            -125 
1
            0.5 -0.866025403784439               0               0 
0.866025403784439             0.5               0               0 
              0               0               1               0 
1
              1               0               0               0 
              0               1               0               0 
              0               0               1             469 
2  1 1 2 -1 3 -1 4 -1 0
1
              1               0               0               0 
              0               1               0               0 
              0               0               1            -125 
1
             -1 -1.22464679914735e-16               0               0 
1.22464679914735e-16              -1               0               0 
              0               0               1               0 
1
              1               0               0               0 
              0               1               0               0 
              0               0               1             469 
2  1 1 6 -1 7 -1 8 -1 0
1
              1               0               0               0 
              0               1               0               0 
              0               0               1            1218 
1
              1               0               0               0 
              0               1               0               0 
              0               0               1          -480.6 
2  10 1 11 1 2 -1 3 -1 4 -1 0
2  10 1 11 1 6 -1 7 -1 8 -1 0
Curve2ds 44
1 6.0213859193804371 0 1 0 
2 0 0 0.96592582628906842 -0.25881904510252068 0.25881904510252068 0.96592582628906842 24.200000000000003
2 0 0 0.70710678118654757 0.70710678118654746 -0.70710678118654746 0.70710678118654757 24.199999999999999
2 0 0 -0.96592582628906842 0.25881904510252079 -0.25881904510252079 -0.96592582628906842 24.200000000000003
8 -5.9999999999999997e-07 389.4000006
1 0.26179938779914935 0 0 1 
8 -5.9999999999999997e-07 389.4000006
1 36.300000000000004 -0.20000000000000001 0 -1 
8 0 389.39999999999998
1 6.5449846949787354 0 0 1 
1 6.5449846949787354 389.39999999999998 -1 -0 
2 0 0 0.96592582628906842 0.25881904510252068 0.25881904510252068 -0.96592582628906842 24.200000000000003
2 0 0 0.25881904510252102 0.96592582628906831 0.96592582628906831 -0.25881904510252102 24.199999999999999
2 0 0 -0.96592582628906842 -0.25881904510252057 -0.25881904510252057 0.96592582628906842 24.200000000000003
8 -5.9999999999999997e-07 389.4000006
1 6.0213859193804371 0 0 1 
8 -5.9999999999999997e-07 389.4000006
1 24.199999999999999 -0.20000000000000001 0 -1 
8 0 389.39999999999998
1 6.0213859193804371 0 0 1 
8 -25.053683565924011 -0
1 0 0 -0.96592582628906831 0.25881904510252074 
8 -25.053683565924011 -0
1 0 -389.59999999999997 -1 -0 
1 0 0 -0.70710678118654768 -0.70710678118654746 
1 0 0 0.96592582628906831 -0.25881904510252085 
8 0.19999940000000002 389.60000059999999
1 6.0213859193804371 0 0 1 
8 0.19999940000000002 389.60000059999999
1 23 0 0 -1 
8 0.20000000000000001 389.59999999999997
1 6.0213859193804371 0 0 1 
8 -25.053683565924011 -0
1 0 0 -0.96592582628906831 0.25881904510252074 
8 -25.053683565924011 -0
1 0 -0.20000000000000001 -1 -0 
1 0 0 -0.70710678118654768 -0.70710678118654746 
1 0 0 0.96592582628906831 -0.25881904510252085 
1 6.0213859193804371 0.20000000000000001 1 0 
2 0 0 0.96592582628906831 -0.25881904510252068 0.25881904510252068 0.96592582628906831 23
2 0 0 0.70710678118654757 0.70710678118654746 -0.70710678118654746 0.70710678118654757 23
2 0 0 -0.96592582628906831 0.25881904510252079 -0.25881904510252079 -0.96592582628906831 23
8 0.19999940000000002 389.60000059999999
1 0.26179938779914935 0 0 1 
8 0.19999940000000002 389.60000059999999
1 37.5 0 0 -1 
8 0.20000000000000001 389.59999999999997
1 6.5449846949787354 0 0 1 
1 6.5449846949787354 389.59999999999997 -1 -0 
2 0 0 0.96592582628906831 0.25881904510252068 0.25881904510252068 -0.96592582628906831 23
2 0 0 0.25881904510252096 0.9659258262890682 0.9659258262890682 -0.25881904510252096 22.999999999999996
2 0 0 -0.96592582628906831 -0.25881904510252057 -0.25881904510252057 0.96592582628906831 23
8 -30.250000000000007 -5.1963164340759924
1 29.219256245244317 7.8292761143512513 0.96592582628906831 0.25881904510252074 
8 -30.250000000000007 -5.1963164340759924
1 30.25 -389.59999999999997 -1 0 
1 7.8292761143512593 29.219256245244313 0.25881904510252091 0.9659258262890682 
1 -29.219256245244317 -7.8292761143512477 -0.96592582628906831 -0.25881904510252063 
8 -30.250000000000007 -5.1963164340759924
1 29.219256245244317 7.8292761143512513 0.96592582628906831 0.25881904510252074 
8 -30.250000000000007 -5.1963164340759924
1 30.25 -0.20000000000000001 -1 0 
1 7.8292761143512593 29.219256245244313 0.25881904510252091 0.9659258262890682 
1 -29.219256245244317 -7.8292761143512477 -0.96592582628906831 -0.25881904510252063 
Curves 12
8 0 0.52359877559829882
2 0 0 0 0 0 1 0.96592582628906842 -0.25881904510252068 0 0.25881904510252068 0.96592582628906842 -0 24.199999999999999
1 23.375404996195453 6.2634208914810001 0 0 0 1 
8 0 0.52359877559829882
2 0 0 389.39999999999998 0 0 -1 0.96592582628906842 0.25881904510252068 0 0.25881904510252068 -0.96592582628906842 0 24.199999999999999
1 23.375404996195453 -6.2634208914810019 0 0 0 1 
1 0 0 389.39999999999998 -0.96592582628906831 0.25881904510252074 0 
1 22.216294004648571 -5.952838037357977 -0.20000000000000001 0 0 1 
1 0 0 0 -0.96592582628906831 0.25881904510252074 0 
8 0 0.5235987755982987
2 0 0 0 0 0 1 0.96592582628906831 -0.25881904510252068 0 0.25881904510252068 0.96592582628906831 -0 23
1 22.216294004648571 5.9528380373579752 -0.20000000000000001 0 0 1 
8 0 0.5235987755982987
2 0 0 389.39999999999998 0 0 -1 0.96592582628906831 0.25881904510252068 0 0.25881904510252068 -0.96592582628906831 0 23
1 29.219256245244317 7.8292761143512513 389.39999999999998 0.96592582628906831 0.25881904510252074 -0 
1 29.219256245244317 7.8292761143512513 0 0.96592582628906831 0.25881904510252074 -0 
Polygon3D 0
PolygonOnTriangulations 0
Surfaces 11
10 3.1415926535897931 9.4247779607693793 -2e+100 2e+100
2 0 0 0 0 0 1 1 0 -0 -0 1 0 24.199999999999999
1 0 0 0 0 0 1 1 0 -0 -0 1 0 
1 0 0 4 0 0 1 1 0 -0 -0 1 0 
1 0 0 4 0 0 1 1 0 -0 -0 1 0 
2 0 0 0 0 0 1 1 0 -0 -0 1 0 24.199999999999999
1 58.438512490488634 15.658552228702504 -0.20000000000000001 0.25881904510252074 -0.96592582628906831 0 -0.96592582628906831 -0.25881904510252074 0 0 -0 -1 
1 0 0 389.39999999999998 0 0 1 1 0 -0 -0 1 0 
1 0 0 -4 0 0 1 1 0 -0 -0 1 0 
1 0 0 -0.20000000000000001 0.25881904510252074 0.96592582628906831 -0 0.96592582628906831 -0.25881904510252074 0 0 -0 -1 
2 0 0 -0.20000000000000001 0 0 1 1 0 -0 -0 1 0 23
10 3.1415926535897931 9.4247779607693793 -2e+100 2e+100
2 0 0 -0.20000000000000001 0 0 1 1 0 -0 -0 1 0 23
Triangulations 0

TShapes 34
Ve
1.50000001776357e-07
23.3754049961955 -6.263420891481 0
0 0

0101101
*
Ve
1.5e-07
23.3754049961955 6.263420891481 0
0 0

0101101
*
Ed
 1e-07 1 1 0
1  1 0 0 0.523598775598299
2  1 1 0 0 0.523598775598299
2  2 2 0 0 0.523598775598299
2  3 3 5 0 0.523598775598299
2  4 4 9 0 0.523598775598299
0

0101000
+34 0 -33 0 *
Ve
1.5e-07
23.3754049961955 6.263420891481 389.4
0 0

0101101
*
Ed
 1e-07 1 1 0
1  2 0 0 389.4
2  5 5 0 0 389.4
2  6 6 0 0 389.4
2  7 1 0 0 389.4
0

0101000
+33 0 -31 0 *
Ve
1.50000001776357e-07
23.3754049961955 -6.263420891481 389.4
0 0

0101101
*
Ed
 1e-07 1 1 0
1  3 0 0 0.523598775598299
2  8 1 0 0 0.523598775598299
2  9 7 0 0 0.523598775598299
2  10 8 12 0 0.523598775598299
2  11 8 13 0 0.523598775598299
0

0101000
+31 0 -29 0 *
Ed
 1e-07 1 1 0
1  4 0 0 389.4
2  12 5 0 0 389.4
2  13 9 0 0 389.4
2  14 1 0 0 389.4
0

0101000
+34 0 -29 0 *
Wi

0101100
+32 0 +30 0 +28 0 -27 0 *
Fa
0  0 1 0

0101000
+26 0 *
Ve
1.50000000888178e-07
22.2162940046486 -5.95283803735798 389.4
0 0

0101101
*
Ed
 1.5e-07 1 1 0
1  5 0 -24.2 -23
2  15 7 0 -24.2 -23
2  16 9 0 -24.2 -23
2  17 8 12 -24.2 -23
2  18 8 13 -24.2 -23
0

0101000
+29 0 -24 0 *
Ve
1.50000000888178e-07
22.2162940046486 -5.95283803735798 0
0 0

0101101
*
Ed
 1e-07 1 1 0
1  6 0 0.2 389.6
2  19 10 0 0.2 389.6
2  20 9 0 0.2 389.6
2  21 11 0 0.2 389.6
0

0101000
+22 0 -24 0 *
Ed
 1.5e-07 1 1 0
1  7 0 -24.2 -23
2  22 2 0 -24.2 -23
2  23 9 0 -24.2 -23
2  24 3 5 -24.2 -23
2  25 4 9 -24.2 -23
0

0101000
+34 0 -22 0 *
Wi

0101100
-27 0 -23 0 +21 0 +20 0 *
Fa
0  1e-07 9 0

0101000
+19 0 *
Ve
1.50000000888178e-07
22.2162940046486 5.95283803735798 0
0 0

0101101
*
Ed
 1e-07 1 1 0
1  8 0 0 0.523598775598299
2  26 11 0 0 0.523598775598299
2  27 2 0 0 0.523598775598299
2  28 3 5 0 0.523598775598299
2  29 4 9 0 0.523598775598299
0

0101000
+22 0 -17 0 *
Ve
1.50000000888178e-07
22.2162940046486 5.95283803735798 389.4
0 0

0101101
*
Ed
 1e-07 1 1 0
1  9 0 0.2 389.6
2  30 10 0 0.2 389.6
2  31 6 0 0.2 389.6
2  32 11 0 0.2 389.6
0

0101000
+17 0 -15 0 *
Ed
 1e-07 1 1 0
1  10 0 0 0.523598775598299
2  33 11 0 0 0.523598775598299
2  34 7 0 0 0.523598775598299
2  35 8 12 0 0.523598775598299
2  36 8 13 0 0.523598775598299
0

0101000
+15 0 -24 0 *
Wi

0101100
+16 0 +14 0 +13 0 -21 0 *
Fa
0  0 11 0

0101000
+12 0 *
Ed
 1.5e-07 1 1 0
1  11 0 -7.25 -6.05
2  37 7 0 -7.25 -6.05
2  38 6 0 -7.25 -6.05
2  39 8 12 -7.25 -6.05
2  40 8 13 -7.25 -6.05
0

0101000
+15 0 -31 0 *
Wi

0101100
-23 0 -28 0 -10 0 +13 0 *
Fa
0  1e-07 7 0

0101000
+9 0 *
Ed
 1.5e-07 1 1 0
1  12 0 -7.25 -6.05
2  41 2 0 -7.25 -6.05
2  42 6 0 -7.25 -6.05
2  43 3 5 -7.25 -6.05
2  44 4 9 -7.25 -6.05
0

0101000
+17 0 -33 0 *
Wi

0101100
+7 0 -14 0 -10 0 +30 0 *
Fa
0  1e-07 6 0

0101000
+6 0 *
Wi

0101100
+32 0 -7 0 -16 0 -20 0 *
Fa
0  1e-07 2 0

0101000
+4 0 *
Sh

0101100
+25 0 -18 0 -11 0 +8 0 -5 0 -3 0 *
So

0100000
+2 0 *

+1 0 