DBRep_DrawableShape

CASCADE Topology V3, (c) Open Cascade
Locations 0
Curve2ds 32
1 0 171.79941792683701 1 0 
2 0 0 1 0 -0 1 26.299999999999997
1 6.2831853071795862 -0 0 1 
1 0 -0 0 1 
1 0 0 1 0 
2 0 0 1 0 -0 1 1.5
8 -1.5 1.5
1 -15.199999999999999 0 0 1 
8 -1.5 1.5
1 0 0 0 -1 
8 -5.999999999062311e-07 0.2000005999999992
1 -15.199999999999999 -1.5 1 0 
8 -5.999999999062311e-07 0.2000005999999992
1 1.5707963267948966 0 0 1 
7 0 0  5 6 2  -14.999999999999414 -1.5000000000000058  -9.3736455428342182 -1.5562635445716577  -3.1052235807569524 -1.6189477641924299  3.0391677227179983 -1.6803916772271807  8.9159760372102177 -1.7391597603721021  14.999999999450978 -1.7999999999945098 
 0 6 1 6
7 0 0  5 6 2  1.5707963267948966 0  1.5707963267948966 5.6266357678554622  1.5707963267948968 11.895371143993875  1.5707963267948959 18.040069657156604  1.5707963267948968 23.917171806667653  1.5707963267948968 30.001499962501875 
 0 6 1 6
8 -5.999999999062311e-07 0.2000005999999992
1 15 -1.8 1 0 
8 -5.999999999062311e-07 0.2000005999999992
1 1.5707963267948966 0 0 1 
8 -1.8 1.8
1 15.199999999999999 0 0 1 
8 -1.8 1.8
1 0 0 0 -1 
8 -5.999999999062311e-07 0.2000005999999992
1 15 1.8 1 0 
8 -5.999999999062311e-07 0.2000005999999992
1 4.7123889803846897 0 0 1 
7 0 0  5 6 2  14.999999999730001 1.7999999999973  9.2114455325522542 1.7421144553255226  2.9872387932869344 1.6798723879328696  -3.0997774643930462 1.6190022253560694  -8.9627486861493306 1.5603725131385067  -15 1.5 
 0 6 1 6
7 0 0  5 6 2  4.7123889803846897 30.001499962501875  4.7123889803846897 24.212656074836104  4.7123889803846897 17.988138132057756  4.7123889803846897 11.900817532248782  4.7123889803846897 6.0375531688701756  4.7123889803846897 0 
 0 6 1 6
8 -5.999999999062311e-07 0.2000005999999992
1 -15.199999999999999 1.5 1 0 
8 -5.999999999062311e-07 0.2000005999999992
1 4.7123889803846897 0 0 1 
1 0 0 1 0 
2 0 0 1 0 -0 1 1.5
1 0 0.20000000000000001 1 0 
2 0 0 1 0 -0 1 1.5
8 0 6.2831853071795862
1 0 0 1 0 
1 0 30.001499962501875 1 0 
2 0 0 1 0 -0 1 1.8
8 0 6.2831853071795862
1 0 0 1 0 
1 0 0.20000000000000001 1 0 
2 0 0 1 0 -0 1 1.8
Curves 15
2 0 0 170 0 0 1 1 0 -0 -0 1 0 26.299999999999997
1 1.5 -3.6739403974420594e-16 0 0.14435438896865993 -3.5356628078668276e-17 0.9895260534142013 
2 0 0 0 0 0 1 1 0 -0 -0 1 0 1.5
1 -15.199999999999999 0 170 0 1 0 
1 -15.199999999999999 -1.5 170 1 0 0 
7 0 0  5 6 2  -14.999999999999414 -1.5000000000000058 170  -9.3736455428342182 -1.5562635445716577 170  -3.1052235807569524 -1.6189477641924299 170  3.0391677227179983 -1.6803916772271807 170  8.9159760372102177 -1.7391597603721021 170  14.999999999450978 -1.7999999999945098 170 
 0 6 1 6
1 15 -1.8 170 1 0 0 
1 15.199999999999999 0 170 0 1 0 
1 15 1.8 170 1 0 0 
7 0 0  5 6 2  14.999999999730001 1.7999999999973 170  9.2114455325522542 1.7421144553255226 170  2.9872387932869344 1.6798723879328696 170  -3.0997774643930462 1.6190022253560694 170  -8.9627486861493306 1.5603725131385067 170  -15 1.5 170 
 0 6 1 6
1 -15.199999999999999 1.5 170 1 0 0 
2 -15.199999999999999 0 170 1 0 0 -0 0 1 0 -1 0 1.5
2 -15 0 170 1 0 0 -0 0 1 0 -1 0 1.5
2 15 0 170 1 0 0 -0 0 1 0 -1 0 1.8
2 15.199999999999999 0 170 1 0 0 -0 0 1 0 -1 0 1.8
Polygon3D 0
PolygonOnTriangulations 0
Surfaces 10
3 0 0 0 0 0 1 1 0 -0 -0 1 0 1.5
0.14486049670295131
1 0 0 170 0 0 1 1 0 -0 -0 1 0 
1 0 0 0 0 0 1 1 0 -0 -0 1 0 
1 -15.199999999999999 0 170 1 0 0 -0 0 1 0 -1 0 
2 -15.199999999999999 0 170 1 0 0 -0 0 1 0 -1 0 1.5
3 -15 0 170 1 0 0 -0 0 1 0 -1 0 1.5
0.0099996666866652394
2 15 0 170 1 0 0 -0 0 1 0 -1 0 1.8
1 15.199999999999999 0 170 1 0 0 -0 0 1 0 -1 0 
1 -15 0 170 1 0 0 -0 0 1 0 -1 0 
1 15 0 170 1 0 0 -0 0 1 0 -1 0 
Triangulations 0

TShapes 45
Ve
1e-07
26.3 -6.44164216351508e-15 170
0 0

0101101
*
Ed
 1e-07 1 1 0
1  1 0 0 6.28318530717959
2  1 1 0 0 6.28318530717959
2  2 2 0 0 6.28318530717959
0

0101000
+45 0 -45 0 *
Ve
1e-07
1.5 -3.67394039744206e-16 0
0 0

0101101
*
Ed
 1e-07 1 1 0
1  2 0 0 171.799417926837
3  3 4CN 1 0 0 171.799417926837
0

0101000
-45 0 +43 0 *
Ed
 1e-07 1 1 0
1  3 0 0 6.28318530717959
2  5 1 0 0 6.28318530717959
2  6 3 0 0 6.28318530717959
0

0101000
+43 0 -43 0 *
Wi

0101100
-44 0 +42 0 +41 0 -42 0 *
Fa
0  1e-07 1 0

0101000
+40 0 *
Wi

0101100
+44 0 *
Ve
1.5e-07
-15.2 -1.5 170
0 0

0101101
*
Ve
1.5e-07
-15.2 1.5 170
0 0

0101101
*
Ed
 1.5e-07 1 1 0
1  4 0 -1.5 1.5
2  7 2 0 -1.5 1.5
2  8 4 0 -1.5 1.5
0

0101000
+37 0 -36 0 *
Ve
1.00000586226185e-07
-15 -1.5 170
0 0

0101101
*
Ed
 1e-07 1 1 0
1  5 0 0 0.199999999999999
2  9 2 0 0 0.199999999999999
2  10 5 0 0 0.199999999999999
0

0101000
+37 0 -34 0 *
Ve
1.00549049612022e-07
15 -1.8 170
0 0

0101101
*
Ed
 1e-07 1 1 0
1  6 0 0 1
2  11 2 0 0 1
2  12 6 0 0 1
0

0101000
+34 0 -32 0 *
Ve
1.5e-07
15.2 -1.8 170
0 0

0101101
*
Ed
 1e-07 1 1 0
1  7 0 0 0.199999999999999
2  13 2 0 0 0.199999999999999
2  14 7 0 0 0.199999999999999
0

0101000
+32 0 -30 0 *
Ve
1.5e-07
15.2 1.8 170
0 0

0101101
*
Ed
 1.5e-07 1 1 0
1  8 0 -1.8 1.8
2  15 2 0 -1.8 1.8
2  16 8 0 -1.8 1.8
0

0101000
+30 0 -28 0 *
Ve
1.00270012634491e-07
15 1.8 170
0 0

0101101
*
Ed
 1e-07 1 1 0
1  9 0 0 0.199999999999999
2  17 2 0 0 0.199999999999999
2  18 7 0 0 0.199999999999999
0

0101000
+26 0 -28 0 *
Ve
1.00000000666134e-07
-15 1.5 170
0 0

0101101
*
Ed
 1e-07 1 1 0
1  10 0 0 1
2  19 2 0 0 1
2  20 6 0 0 1
0

0101000
+26 0 -24 0 *
Ed
 1e-07 1 1 0
1  11 0 0 0.199999999999999
2  21 2 0 0 0.199999999999999
2  22 5 0 0 0.199999999999999
0

0101000
+36 0 -24 0 *
Wi

0101100
+35 0 -33 0 -31 0 -29 0 -27 0 +25 0 -23 0 +22 0 *
Fa
0  1e-07 2 0

0101000
+38 0 +21 0 *
Wi

0101100
-41 0 *
Fa
0  1e-07 3 0

0101000
-19 0 *
Ed
 1e-07 1 1 0
1  12 0 1.5707963267949 4.71238898038469
2  23 5 0 1.5707963267949 4.71238898038469
2  24 4 0 1.5707963267949 4.71238898038469
0

0101000
+37 0 -36 0 *
Wi

0101100
-35 0 +17 0 *
Fa
0  1e-07 4 0

0101000
+16 0 *
Ed
 1.00000000666134e-07 1 1 0
1  13 0 1.5707963267949 4.71238898038469
2  25 5 0 1.5707963267949 4.71238898038469
2  26 9 0 1.5707963267949 4.71238898038469
2  27 6 0 1.5707963267949 4.71238898038469
0

0101000
+34 0 -24 0 *
Wi

0101100
-14 0 +22 0 +17 0 -33 0 *
Fa
0  1e-07 5 0

0101000
+13 0 *
Ed
 1.00000002775558e-07 1 1 0
1  14 0 1.5707963267949 4.71238898038469
2  28 6 0 1.5707963267949 4.71238898038469
2  29 10 0 1.5707963267949 4.71238898038469
2  30 7 0 1.5707963267949 4.71238898038469
0

0101000
+32 0 -26 0 *
Wi

0101100
-11 0 -23 0 +14 0 -31 0 *
Fa
0  1e-07 6 0

0101000
+10 0 *
Ed
 1e-07 1 1 0
1  15 0 1.5707963267949 4.71238898038469
2  31 7 0 1.5707963267949 4.71238898038469
2  32 8 0 1.5707963267949 4.71238898038469
0

0101000
+30 0 -28 0 *
Wi

0101100
-8 0 +25 0 +11 0 -29 0 *
Fa
0  1e-07 7 0

0101000
+7 0 *
Wi

0101100
-27 0 +8 0 *
Fa
0  1e-07 8 0

0101000
+5 0 *
Sh

0101100
+39 0 +20 0 -18 0 +15 0 -12 0 -9 0 -6 0 -4 0 *
So

0100000
+3 0 *
Co

0100000
+2 0 *

+1 0 