DBRep_DrawableShape

CASCADE Topology V3, (c) Open Cascade
Locations 0
Curve2ds 12
1 0 5.9999999999999636 1 0 
2 0 0 1 0 -0 1 3.2000000000000002
1 6.2831853071795862 -0 0 1 
1 0 -0 0 1 
1 0 0 1 0 
2 0 0 1 0 -0 1 3.2000000000000002
2 3.7616968363769958e-14 0 1 0 -0 1 2.1499999999999999
1 0 6.2000000000000419 1 0 
2 1.8808484181884979e-14 0 1 0 -0 1 2.1499999999999999
1 0 0.2000000000000689 1 0 
1 6.2831853071795862 -0 0 1 
1 0 -0 0 1 
Curves 6
2 32.823529411764703 0 1618.2941176470588 0.47058823529412008 0 0.88235294117646934 0.88235294117646934 0 -0.47058823529412008 -0 1 0 3.2000000000000002
1 32.823529411764703 -7.8377395145429485e-16 1611.4941176470588 0.47058823529412008 -1.2325951644078309e-32 0.88235294117646934 
2 30 0 1613 0.47058823529412008 0 0.88235294117646934 0.88235294117646934 0 -0.47058823529412008 -0 1 0 3.2000000000000002
2 32.823529411764746 0 1618.2941176470588 0.47058823529412008 0 0.88235294117646934 0.88235294117646934 0 -0.47058823529412008 -0 1 0 2.1499999999999999
2 30.000000000000021 0 1613 0.47058823529412008 0 0.88235294117646934 0.88235294117646934 0 -0.47058823529412008 -0 1 0 2.1499999999999999
1 31.802941176470586 -5.2659812363337881e-16 1611.8117647058823 0.47058823529412008 -1.2325951644078309e-32 0.88235294117646934 
Polygon3D 0
PolygonOnTriangulations 0
Surfaces 4
2 30 0 1613 0.47058823529412008 0 0.88235294117646934 0.88235294117646934 0 -0.47058823529412008 -0 1 0 3.2000000000000002
1 32.823529411764703 0 1618.2941176470588 0.47058823529412008 0 0.88235294117646934 0.88235294117646934 0 -0.47058823529412008 -0 1 0 
1 30 0 1613 0.47058823529412008 0 0.88235294117646934 0.88235294117646934 0 -0.47058823529412008 -0 1 0 
2 29.905882352941177 0 1612.8235294117646 0.47058823529412008 0 0.88235294117646934 0.88235294117646934 0 -0.47058823529412008 -0 1 0 2.1499999999999999
Triangulations 0

TShapes 22
Ve
1e-07
35.6470588235294 -7.8377395145432e-16 1616.78823529412
0 0

0101101
*
Ed
 1e-07 1 1 0
1  1 0 0 6.28318530717959
2  1 1 0 0 6.28318530717959
2  2 2 0 0 6.28318530717959
0

0101000
+22 0 -22 0 *
Ve
1e-07
32.8235294117647 -7.83773951454295e-16 1611.49411764706
0 0

0101101
*
Ed
 1e-07 1 1 0
1  2 0 0 5.99999999999996
3  3 4CN 1 0 0 5.99999999999996
0

0101000
-22 0 +20 0 *
Ed
 1e-07 1 1 0
1  3 0 0 6.28318530717959
2  5 1 0 0 6.28318530717959
2  6 3 0 0 6.28318530717959
0

0101000
+20 0 -20 0 *
Wi

0101100
-21 0 +19 0 +18 0 -19 0 *
Fa
0  1e-07 1 0

0101000
+17 0 *
Wi

0101100
+21 0 *
Ve
1.00000028426587e-07
34.7205882352941 -5.26598123633379e-16 1617.28235294118
0 0

0101101
*
Ed
 1e-07 1 1 0
1  4 0 0 6.28318530717959
2  7 2 0 0 6.28318530717959
2  8 4 0 0 6.28318530717959
0

0101100
+14 0 -14 0 *
Wi

0101100
-13 0 *
Fa
0  1e-07 2 0

0101000
+15 0 +12 0 *
Wi

0101100
+18 0 *
Ve
1.00000035527137e-07
31.8970588235294 -5.26598123633379e-16 1611.98823529412
0 0

0101101
*
Ed
 1e-07 1 1 0
1  5 0 0 6.28318530717959
2  9 3 0 0 6.28318530717959
2  10 4 0 0 6.28318530717959
0

0101100
+9 0 -9 0 *
Wi

0101100
-8 0 *
Fa
0  1e-07 3 0

0101000
+10 0 +7 0 *
Ed
 1e-07 1 1 0
1  6 0 0.200000000000054 6.20000000000003
3  11 12CN 4 0 0.200000000000054 6.20000000000003
0

0101000
+9 0 -14 0 *
Wi

0101100
-13 0 +5 0 +8 0 -5 0 *
Fa
0  1e-07 4 0

0101000
+4 0 *
Sh

0101100
+16 0 +11 0 -6 0 -3 0 *
So

0100000
+2 0 *

+1 0 