DBRep_DrawableShape

CASCADE Topology V3, (c) Open Cascade
Locations 90
1
              1              -0               0              -0 
              0               1               0               0 
             -0               0               1              -0 
2  1 -1 0
1
              1               0               0            -0.4 
              0               1               0               0 
              0               0               1              -4 
1
              1               0               0               4 
              0               1               0               0 
              0               0               1            -8.5 
1
0.17364817766693               0 0.984807753012208               0 
              0               1               0               0 
-0.984807753012208               0 0.17364817766693               0 
1
              1               0               0              18 
              0               1               0               0 
              0               0               1             480 
1
              1               0               0               0 
              0               1               0               0 
              0               0               1               0 
1
              1               0               0              18 
              0               1               0               0 
              0               0               1             480 
2  3 1 4 1 5 1 6 1 7 1 8 -1 0
1
              1               0               0               0 
              0               1               0               0 
              0               0               1             340 
1
              1               0               0               0 
              0               1               0               0 
              0               0               1            -125 
1
              1               0               0               0 
              0               1               0               0 
              0               0               1               0 
1
              1               0               0              18 
              0               1               0               0 
              0               0               1             480 
2  10 1 11 -1 12 -1 13 -1 1 -1 0
1
              1               0               0               0 
              0               1               0               0 
              0               0               1             340 
1
              1               0               0               0 
              0               1               0               0 
              0               0               1            -125 
1
              1               0               0               0 
              0               1               0               0 
              0               0               1               0 
1
              1               0               0              18 
              0               1               0               0 
              0               0               1             480 
2  15 1 16 -1 17 -1 18 -1 1 -1 0
1
              1               0               0               0 
              0               1               0               0 
              0               0               1            -125 
1
           -0.5 -0.866025403784439               0               0 
0.866025403784439            -0.5               0               0 
              0               0               1               0 
1
              1               0               0              18 
              0               1               0               0 
              0               0               1             480 
2  10 1 20 -1 21 -1 22 -1 1 -1 0
1
              1               0               0               0 
              0               1               0               0 
              0               0               1            -125 
1
           -0.5 -0.866025403784439               0               0 
0.866025403784439            -0.5               0               0 
              0               0               1               0 
1
              1               0               0              18 
              0               1               0               0 
              0               0               1             480 
2  15 1 24 -1 25 -1 26 -1 1 -1 0
1
              1               0               0               0 
              0               1               0               0 
              0               0               1            -125 
1
           -0.5 0.866025403784438               0               0 
-0.866025403784438            -0.5               0               0 
              0               0               1               0 
1
              1               0               0              18 
              0               1               0               0 
              0               0               1             480 
2  10 1 28 -1 29 -1 30 -1 1 -1 0
1
              1               0               0               0 
              0               1               0               0 
              0               0               1            -125 
1
           -0.5 0.866025403784438               0               0 
-0.866025403784438            -0.5               0               0 
              0               0               1               0 
1
              1               0               0              18 
              0               1               0               0 
              0               0               1             480 
2  15 1 32 -1 33 -1 34 -1 1 -1 0
2  10 1 11 -1 12 -1 13 -1 0
2  15 1 16 -1 17 -1 18 -1 0
2  10 1 20 -1 21 -1 22 -1 0
2  15 1 24 -1 25 -1 26 -1 0
2  10 1 28 -1 29 -1 30 -1 0
2  15 1 32 -1 33 -1 34 -1 0
2  8 1 7 -1 6 -1 5 -1 4 -1 3 -1 0
1
              1               0               0               7 
              0               1               0               8 
              0               0               1            3.05 
1
              1               0               0            -0.4 
              0               1               0               0 
              0               0               1              -4 
1
              1               0               0               4 
              0               1               0               0 
              0               0               1            -8.5 
1
0.17364817766693               0 0.984807753012208               0 
              0               1               0               0 
-0.984807753012208               0 0.17364817766693               0 
1
              1               0               0              18 
              0               1               0               0 
              0               0               1             480 
1
              1               0               0               0 
              0               1               0               0 
              0               0               1               0 
1
              1               0               0               0 
              0               1               0               0 
              0               0               1            -125 
2  43 1 44 1 45 1 46 1 47 1 48 1 49 1 11 -1 12 -1 13 -1 0
1
              1               0               0               7 
              0               1               0               8 
              0               0               1            3.05 
1
              1               0               0            -0.4 
              0               1               0               0 
              0               0               1              -4 
1
              1               0               0               4 
              0               1               0               0 
              0               0               1            -8.5 
1
0.17364817766693               0 0.984807753012208               0 
              0               1               0               0 
-0.984807753012208               0 0.17364817766693               0 
1
              1               0               0              18 
              0               1               0               0 
              0               0               1             480 
1
              1               0               0               0 
              0               1               0               0 
              0               0               1               0 
1
              1               0               0               0 
              0               1               0               0 
              0               0               1            -125 
2  51 1 52 1 53 1 54 1 55 1 56 1 57 1 16 -1 17 -1 18 -1 0
1
              1               0               0               7 
              0               1               0               8 
              0               0               1            3.05 
1
              1               0               0            -0.4 
              0               1               0               0 
              0               0               1              -4 
1
              1               0               0               4 
              0               1               0               0 
              0               0               1            -8.5 
1
0.17364817766693               0 0.984807753012208               0 
              0               1               0               0 
-0.984807753012208               0 0.17364817766693               0 
1
              1               0               0              18 
              0               1               0               0 
              0               0               1             480 
1
           -0.5 -0.866025403784439               0               0 
0.866025403784439            -0.5               0               0 
              0               0               1               0 
1
              1               0               0               0 
              0               1               0               0 
              0               0               1            -125 
2  59 1 60 1 61 1 62 1 63 1 64 1 65 1 20 -1 21 -1 22 -1 0
1
              1               0               0               7 
              0               1               0               8 
              0               0               1            3.05 
1
              1               0               0            -0.4 
              0               1               0               0 
              0               0               1              -4 
1
              1               0               0               4 
              0               1               0               0 
              0               0               1            -8.5 
1
0.17364817766693               0 0.984807753012208               0 
              0               1               0               0 
-0.984807753012208               0 0.17364817766693               0 
1
              1               0               0              18 
              0               1               0               0 
              0               0               1             480 
1
           -0.5 -0.866025403784439               0               0 
0.866025403784439            -0.5               0               0 
              0               0               1               0 
1
              1               0               0               0 
              0               1               0               0 
              0               0               1            -125 
2  67 1 68 1 69 1 70 1 71 1 72 1 73 1 24 -1 25 -1 26 -1 0
1
              1               0               0               7 
              0               1               0               8 
              0               0               1            3.05 
1
              1               0               0            -0.4 
              0               1               0               0 
              0               0               1              -4 
1
              1               0               0               4 
              0               1               0               0 
              0               0               1            -8.5 
1
0.17364817766693               0 0.984807753012208               0 
              0               1               0               0 
-0.984807753012208               0 0.17364817766693               0 
1
              1               0               0              18 
              0               1               0               0 
              0               0               1             480 
1
           -0.5 0.866025403784438               0               0 
-0.866025403784438            -0.5               0               0 
              0               0               1               0 
1
              1               0               0               0 
              0               1               0               0 
              0               0               1            -125 
2  75 1 76 1 77 1 78 1 79 1 80 1 81 1 28 -1 29 -1 30 -1 0
1
              1               0               0               7 
              0               1               0               8 
              0               0               1            3.05 
1
              1               0               0            -0.4 
              0               1               0               0 
              0               0               1              -4 
1
              1               0               0               4 
              0               1               0               0 
              0               0               1            -8.5 
1
0.17364817766693               0 0.984807753012208               0 
              0               1               0               0 
-0.984807753012208               0 0.17364817766693               0 
1
              1               0               0              18 
              0               1               0               0 
              0               0               1             480 
1
           -0.5 0.866025403784438               0               0 
-0.866025403784438            -0.5               0               0 
              0               0               1               0 
1
              1               0               0               0 
              0               1               0               0 
              0               0               1            -125 
2  83 1 84 1 85 1 86 1 87 1 88 1 89 1 32 -1 33 -1 34 -1 0
Curve2ds 308
1 0 12 1 0 
1 0 0 1 0 
1 -11 6 1 0 
2 17.55625825365091 14.603224843710311 1 0 -0 1 3.2999999999999998
1 0 17 1 0 
2 6.5562582536509115 8.6032248437103114 1 0 -0 1 3.2999999999999989
2 17.705406680406696 14.487492047145448 1 0 -0 1 3.2999999999999998
1 0 17 1 0 
2 6.7054066804066963 8.487492047145448 1 0 -0 1 3.3000000000000007
2 17.852512575330898 14.369173878282844 1 0 -0 1 3.2999999999999998
1 0 17 1 0 
2 6.8525125753308975 8.3691738782828438 1 0 -0 1 3.2999999999999998
2 17.997531128542875 14.248306377982907 1 0 -0 1 3.2999999999999998
1 0 17 1 0 
2 6.9975311285428745 8.2483063779829067 1 0 -0 1 3.3000000000000007
2 18.140418165986489 14.124926363657096 1 0 -0 1 3.2999999999999998
1 0 17 1 0 
2 7.1404181659864907 8.1249263636570959 1 0 -0 1 3.2999999999999989
2 18.281130162885962 13.999071418052988 1 0 -0 1 3.2999999999999998
1 0 17 1 0 
2 7.2811301628859617 7.9990714180529885 1 0 -0 1 3.3000000000000007
2 18.419624257003925 13.870779877806196 1 0 -0 1 3.2999999999999998
1 0 17 1 0 
2 7.4196242570039264 7.8707798778061964 1 0 -0 1 3.2999999999999989
2 18.555858261697693 13.740090821762667 1 0 -0 1 3.2999999999999998
1 0 17 1 0 
2 7.5558582616976953 7.740090821762668 1 0 -0 1 3.2999999999999989
2 18.689790678769707 13.607044059074887 1 0 -0 1 3.2999999999999998
1 0 17 1 0 
2 7.6897906787697066 7.6070440590748873 1 0 -0 1 3.2999999999999998
2 18.82138071110829 13.471680117075621 1 0 -0 1 3.2999999999999998
1 0 17 1 0 
2 7.82138071110829 7.4716801170756213 1 0 -0 1 3.3000000000000007
2 18.950588275114853 13.334040228932905 1 0 -0 1 3.2999999999999998
1 0 17 1 0 
2 7.9505882751148551 7.3340402289329045 1 0 -0 1 3.2999999999999989
2 19.077374012913744 13.194166321090012 1 0 -0 1 3.2999999999999998
1 0 17 1 0 
2 8.0773740129137419 7.1941663210900115 1 0 -0 1 3.2999999999999989
2 19.201699304341012 13.052101000494259 1 0 -0 1 3.2999999999999998
1 0 17 1 0 
2 8.2016993043410125 7.0521010004942593 1 0 -0 1 3.3000000000000007
2 19.323526278708538 12.907887541618521 1 0 -0 1 3.2999999999999998
1 0 17 1 0 
2 8.3235262787085382 6.9078875416185204 1 0 -0 1 3.3000000000000007
2 19.442817826339763 12.761569873279397 1 0 -0 1 3.2999999999999998
1 0 17 1 0 
2 8.4428178263397609 6.761569873279397 1 0 -0 1 3.2999999999999989
2 19.559537609873665 12.613192565256073 1 0 -0 1 3.2999999999999998
1 0 17 1 0 
2 8.5595376098736651 6.6131925652560728 1 0 -0 1 3.3000000000000007
2 19.673650075333502 12.462800814713937 1 0 -0 1 3.2999999999999998
1 0 17 1 0 
2 8.6736500753335015 6.4628008147139377 1 0 -0 1 3.3000000000000007
2 19.785120462956854 12.310440432437083 1 0 -0 1 3.2999999999999998
1 0 17 1 0 
2 8.785120462956856 6.3104404324370833 1 0 -0 1 3.2999999999999989
2 19.893914817783823 12.1561578288739 1 0 -0 1 3.2999999999999998
1 0 17 1 0 
2 8.8939148177838216 6.1561578288738996 1 0 -0 1 3.2999999999999989
2 20 12 1 0 -0 1 3.2999999999999998
1 0 17 1 0 
2 9 6 1 0 -0 1 3.3000000000000007
1 19 0 0 1 
1 0 0 1 0 
1 8 -6 0 1 
1 0 0 1 0 
1 0 0 1 0 
1 -11 -6 1 0 
1 0 0 1 0 
2 0 0 1 0 -0 1 6.5
2 0 0 1 0 -0 1 6.5
1 -11 -6 1 0 
8 1.193829582992942 5.2000006000000001
1 -6.6840224055063642 -8.9756926291067778 0.17364817766693044 0.98480775301220813 
8 1.193829582992942 5.2000006000000001
1 3.9109199971129391 6.3837823915946501e-16 0 1 
8 3.0215974843872786 4.8499999999999979
1 10.194105304292526 6.3837823915946501e-16 0 1 
8 1.6750000000000007 4.1750000000000007
1 -3.7748507925454002 -4.5638390083370997 -0.98480775301220813 0.17364817766693044 
8 1.6750000000000007 4.1750000000000007
1 -2.9250000000000007 -0.79999999999999982 1 0 
8 -5.9999999959233805e-07 3.4000006000000011
1 -5.709536511227471 -4.2227017169421028 0.17364817766693044 0.98480775301220813 
8 -5.9999999959233805e-07 3.4000006000000011
1 3.8360909192163488 -3.3306690738754696e-16 0 1 
8 1.6750000000000003 4.1750000000000007
1 -3.1844469884778368 -1.2154926480955917 -0.98480775301220813 0.17364817766693044 
8 1.6750000000000003 4.1750000000000007
1 -2.9250000000000003 -0.79999999999999982 1 0 
8 -6.0000000002968054e-07 3.4000006000000007
1 -7.6012904289847469 -3.8891344603805522 0.17364817766693044 0.98480775301220813 
8 -6.0000000002968054e-07 3.4000006000000007
1 5.5886870415530305 -8.3266726846886741e-17 0 1 
8 0 3.3999999999999999
1 5.5886870415530305 -8.3266726846886741e-17 0 1 
8 0.90248959730039113 5.200000600000001
1 -8.3111918580750768 -8.6887787524342919 0.17364817766693044 0.98480775301220813 
8 0.90248959730039113 5.200000600000001
1 5.5138579636564398 -4.7184478546569153e-16 0 1 
8 2.7302574986947352 4.8499999999999996
1 5.5138579636564398 -4.7184478546569153e-16 0 1 
8 0.057745989347166973 8.4000006000000038
1 -11.013618556163223 -7.8568686980144529 0.17364817766693044 0.98480775301220813 
8 0.057745989347166973 8.4000006000000038
1 3.8713203098167592 -4.163336342344337e-16 0 1 
8 3.8000000000000007 5.6492840048576136
1 -5.436541313048366 -0.31067434963052831 -0.98480775301220813 0.17364817766693044 
8 3.8000000000000007 5.6492840048576136
1 -5.3000000000000007 -1 1 0 
1 0 0 0 1 
1 -11 -6 0 1 
1 0 0 1 0 
1 12 7 1 0 
1 12 7 1 0 
1 -12.06217782649107 6.8923048454132658 -0.49999999999999983 0.86602540378443882 
1 -12.06217782649107 6.8923048454132658 -0.49999999999999983 0.86602540378443882 
1 0.062177826491065957 -13.892304845413264 -0.50000000000000044 -0.86602540378443849 
1 0.062177826491065957 -13.892304845413264 -0.50000000000000044 -0.86602540378443849 
1 -11 6 1 0 
2 0 0 1 0 -0 1 6.5
2 0 0 1 0 -0 1 4.1500000000000004
1 0 0.29999999999999982 1 0 
2 11 6 1 0 -0 1 4.1500000000000004
1 0 16 1 0 
2 0 0 1 0 -0 1 4.1500000000000004
1 6.2831853071795862 -0 0 1 
1 0 -0 0 1 
2 0 0 1 0 -0 1 4.1500000000000004
1 0 2.2999999999999998 1 0 
2 11 6 1 0 -0 1 4.1500000000000004
8 0 6.2831853071795862
1 0 18 1 0 
2 0 0 1 0 -0 1 4.1500000000000004
1 0 12 1 0 
1 0 -2 1 0 
1 -11 6 1 0 
2 17.55625825365091 14.603224843710311 1 0 -0 1 3.2999999999999998
1 0 19 1 0 
2 6.5562582536509115 8.6032248437103114 1 0 -0 1 3.2999999999999989
2 17.705406680406696 14.487492047145448 1 0 -0 1 3.2999999999999998
1 0 19 1 0 
2 6.7054066804066963 8.487492047145448 1 0 -0 1 3.3000000000000007
2 17.852512575330898 14.369173878282844 1 0 -0 1 3.2999999999999998
1 0 19 1 0 
2 6.8525125753308975 8.3691738782828438 1 0 -0 1 3.2999999999999998
2 17.997531128542875 14.248306377982907 1 0 -0 1 3.2999999999999998
1 0 19 1 0 
2 6.9975311285428745 8.2483063779829067 1 0 -0 1 3.3000000000000007
2 18.140418165986489 14.124926363657096 1 0 -0 1 3.2999999999999998
1 0 19 1 0 
2 7.1404181659864907 8.1249263636570959 1 0 -0 1 3.2999999999999989
2 18.281130162885962 13.999071418052988 1 0 -0 1 3.2999999999999998
1 0 19 1 0 
2 7.2811301628859617 7.9990714180529885 1 0 -0 1 3.3000000000000007
2 18.419624257003925 13.870779877806196 1 0 -0 1 3.2999999999999998
1 0 19 1 0 
2 7.4196242570039264 7.8707798778061964 1 0 -0 1 3.2999999999999989
2 18.555858261697693 13.740090821762667 1 0 -0 1 3.2999999999999998
1 0 19 1 0 
2 7.5558582616976953 7.740090821762668 1 0 -0 1 3.2999999999999989
2 18.689790678769707 13.607044059074887 1 0 -0 1 3.2999999999999998
1 0 19 1 0 
2 7.6897906787697066 7.6070440590748873 1 0 -0 1 3.2999999999999998
2 18.82138071110829 13.471680117075621 1 0 -0 1 3.2999999999999998
1 0 19 1 0 
2 7.82138071110829 7.4716801170756213 1 0 -0 1 3.3000000000000007
2 18.950588275114853 13.334040228932905 1 0 -0 1 3.2999999999999998
1 0 19 1 0 
2 7.9505882751148551 7.3340402289329045 1 0 -0 1 3.2999999999999989
2 19.077374012913744 13.194166321090012 1 0 -0 1 3.2999999999999998
1 0 19 1 0 
2 8.0773740129137419 7.1941663210900115 1 0 -0 1 3.2999999999999989
2 19.201699304341012 13.052101000494259 1 0 -0 1 3.2999999999999998
1 0 19 1 0 
2 8.2016993043410125 7.0521010004942593 1 0 -0 1 3.3000000000000007
2 19.323526278708538 12.907887541618521 1 0 -0 1 3.2999999999999998
1 0 19 1 0 
2 8.3235262787085382 6.9078875416185204 1 0 -0 1 3.3000000000000007
2 19.442817826339763 12.761569873279397 1 0 -0 1 3.2999999999999998
1 0 19 1 0 
2 8.4428178263397609 6.761569873279397 1 0 -0 1 3.2999999999999989
2 19.559537609873665 12.613192565256073 1 0 -0 1 3.2999999999999998
1 0 19 1 0 
2 8.5595376098736651 6.6131925652560728 1 0 -0 1 3.3000000000000007
2 19.673650075333502 12.462800814713937 1 0 -0 1 3.2999999999999998
1 0 19 1 0 
2 8.6736500753335015 6.4628008147139377 1 0 -0 1 3.3000000000000007
2 19.785120462956854 12.310440432437083 1 0 -0 1 3.2999999999999998
1 0 19 1 0 
2 8.785120462956856 6.3104404324370833 1 0 -0 1 3.2999999999999989
2 19.893914817783823 12.1561578288739 1 0 -0 1 3.2999999999999998
1 0 19 1 0 
2 8.8939148177838216 6.1561578288738996 1 0 -0 1 3.2999999999999989
2 20 12 1 0 -0 1 3.2999999999999998
1 0 19 1 0 
2 9 6 1 0 -0 1 3.3000000000000007
1 19 0 0 1 
1 0 2 1 0 
1 8 -6 0 1 
1 0 0 1 0 
1 0 -2 1 0 
1 -11 -6 1 0 
1 0 2 1 0 
2 0 0 1 0 -0 1 6.5
2 0 0 1 0 -0 1 6.5
1 -11 -6 1 0 
8 0.057745989347162657 8.4000006000000038
1 -11.013618556163223 -7.8568686980144529 0.17364817766693044 0.98480775301220813 
8 0.057745989347162657 8.4000006000000038
1 2.411864997362827 -4.163336342344337e-16 0 1 
8 3.8000000000000007 5.6492840048576136
1 -5.436541313048366 -0.31067434963052831 -0.98480775301220813 0.17364817766693044 
8 3.8000000000000007 5.6492840048576136
1 -5.3000000000000007 1 1 0 
1 0 0 0 1 
1 -11 -6 0 1 
1 0 2 1 0 
1 12 9 1 0 
1 12 9 1 0 
1 -13.794228634059946 5.8923048454132658 -0.49999999999999983 0.86602540378443882 
1 -13.794228634059946 5.8923048454132658 -0.49999999999999983 0.86602540378443882 
1 1.7942286340599409 -14.892304845413264 -0.50000000000000044 -0.86602540378443849 
1 1.7942286340599409 -14.892304845413264 -0.50000000000000044 -0.86602540378443849 
1 -11 6 1 0 
2 0 0 1 0 -0 1 6.5
8 1.6750000000000007 4.1750000000000007
1 -3.7748507925454002 -4.5638390083370997 -0.98480775301220813 0.17364817766693044 
8 1.6750000000000007 4.1750000000000007
1 -2.9250000000000007 1.2000000000000002 1 0 
8 -5.9999999959233805e-07 3.4000006000000007
1 -6.3107307565518367 -4.116694950844753 0.17364817766693044 0.98480775301220813 
8 -5.9999999959233805e-07 3.4000006000000007
1 1.8545904360032239 -1.457167719820518e-16 0 1 
8 -6.0000000002968054e-07 3.4000006000000007
1 -7.0000961836603812 -3.9951412264779016 0.17364817766693044 0.98480775301220813 
8 -6.0000000002968054e-07 3.4000006000000007
1 1.2870022175865692 1.457167719820518e-16 0 1 
8 0 3.3999999999999999
1 7.5701875247661556 1.457167719820518e-16 0 1 
8 1.6750000000000003 4.1750000000000007
1 -3.1844469884778368 -1.2154926480955917 -0.98480775301220813 0.17364817766693044 
8 1.6750000000000003 4.1750000000000007
1 -2.9250000000000003 1.2000000000000002 1 0 
8 -5.999999999062311e-07 2.0000005999999999
1 1.9655874464946581 0 0 1 
8 -5.999999999062311e-07 2.0000005999999999
1 8.5 0 0 -1 
8 -5.999999999062311e-07 2.0000005999999999
1 1.176005207095135 0 0 1 
8 -5.999999999062311e-07 2.0000005999999999
1 13.5 0 0 -1 
1 0 0 0 -1 
1 12 0 0 1 
1 24 7 0 1 
1 24 7 0 1 
1 -18.062177826491066 17.284609690826528 -0.86602540378443882 -0.49999999999999983 
1 -18.062177826491066 17.284609690826528 -0.86602540378443882 -0.49999999999999983 
1 -5.9378221735089403 -24.284609690826528 0.86602540378443849 -0.50000000000000044 
1 -5.9378221735089403 -24.284609690826528 0.86602540378443849 -0.50000000000000044 
8 -0.5 1.5
1 6.6703135229359347 0.5 0 1 
8 -0.5 1.5
1 0.34928400485761357 -0.5 0 1 
1 18.670313522935935 7.5 0 1 
1 18.670313522935935 7.5 0 1 
1 -15.830347289851254 12.41896580748266 -0.86602540378443882 -0.49999999999999983 
1 -15.830347289851254 12.41896580748266 -0.86602540378443882 -0.49999999999999983 
1 -2.8399662330846862 -19.918965807482657 0.86602540378443849 -0.50000000000000044 
1 -2.8399662330846862 -19.918965807482657 0.86602540378443849 -0.50000000000000044 
1 0 8.4000000000000004 1 0 
2 0 0 1 0 -0 1 1.5
3 -0.82148397023968656 -1 1 0 -0 1 1.5231399178286174 1.5
7 0 0  6 7 2  2.214297435588179 1.8470686158134164  2.5233958415887177 1.9124714822196658  2.8324942475892101 1.9596781468768256  3.1415926535897256 1.9774600972114627  3.450691059590298 1.9596781468768256  3.7597894655908712 1.9124714822196649  4.0688878715914099 1.8470686158134155 
 5.3558900891779713 7 7.2104805251812039 7
7 0 0  6 7 2  2.4118649973628092 1.2355138907415011  2.6551075494384655 1.2784041155288233  2.8983501015141542 1.3072970884371529  3.1415926535896688 1.3176278371885246  3.3848352056654107 1.3072970884371671  3.6280777577411207 1.2784041155288233  3.871320309816777 1.2355138907415011 
 5.5534576509526179 7 7.0129129634065546 7
7 0 0  6 7 2  2.4118649973628092 1.2355138907415011  2.6551075494384655 1.2784041155288233  2.8983501015141542 1.3072970884371529  3.1415926535896688 1.3176278371885246  3.3848352056654107 1.3072970884371671  3.6280777577411207 1.2784041155288233  3.871320309816777 1.2355138907415011 
 5.5534576509526179 7 7.0129129634065546 7
7 0 0  6 7 2  2.4118649973628101 1.2355138907415011  2.6551075494384664 1.2784041155288233  2.8983501015141542 1.3072970884371529  3.1415926535897256 1.3176278371885246  3.3848352056654107 1.3072970884371671  3.6280777577411216 1.2784041155288233  3.8713203098167779 1.2355138907415011 
 5.5534576509526179 7 7.0129129634065546 7
7 0 0  6 7 2  2.4118649973628101 1.2355138907415011  2.6551075494384664 1.2784041155288233  2.8983501015141542 1.3072970884371529  3.1415926535897256 1.3176278371885246  3.3848352056654107 1.3072970884371671  3.6280777577411216 1.2784041155288233  3.8713203098167779 1.2355138907415011 
 5.5534576509526179 7 7.0129129634065546 7
7 0 0  6 7 2  2.4118649973628092 1.2355138907415011  2.6551075494384655 1.2784041155288233  2.8983501015141258 1.3072970884371813  3.1415926535898393 1.317627837188553  3.3848352056653823 1.3072970884371813  3.6280777577411216 1.2784041155288233  3.8713203098167774 1.2355138907415011 
 5.5534576509526179 7 7.0129129634065546 7
7 0 0  6 7 2  2.4118649973628092 1.2355138907415011  2.6551075494384655 1.2784041155288233  2.8983501015141258 1.3072970884371813  3.1415926535898393 1.317627837188553  3.3848352056653823 1.3072970884371813  3.6280777577411216 1.2784041155288233  3.8713203098167774 1.2355138907415011 
 5.5534576509526179 7 7.0129129634065546 7
1 5.5886870415530305 0 1 0 
2 -2.2204460492503131e-14 0 0.7683749084919419 -0.64000000000000001 0.64000000000000001 0.7683749084919419 1.25
1 7.5701875247661556 3.3999999999999999 -1 -0 
2 -2.3092638912203256e-14 0 0.27999999999999964 0.96000000000000019 0.96000000000000019 -0.27999999999999964 1.25
1 0 3.3999999999999999 1 0 
2 0 0 1 0 -0 1 1.25
1 0 0 1 0 
2 0 0 1 0 -0 1 1.25
1 5.5138579636564344 4.8499999999999988 1 0 
2 -2.2204460492503131e-14 0 0.71837876703731707 -0.69565217391304413 0.69565217391304413 0.71837876703731707 1.1499999999999999
3 4.0017924362176016 -0.79999999999999982 1 0 -0 1 1.1677406036686067 1.1499999999999999
7 0 0  6 7 2  5.2288641212315818 2.7757930153074977  5.404584318889583 2.7448088034049678  5.5803045165475744 2.7175350664138591  5.7560247142056156 2.695692529438702  5.931744911863575 2.6806647913359711  6.1074651095215851 2.6731514637262723  6.2831853071795862 2.6731514637262723 
 2.0872714676417883 7 3.1415926535897931 7
8 2.37226531006664 3.1415926535897931
7 0 0  6 7 2  5.2288641212315818 2.7757930153074977  5.404584318889583 2.7448088034049678  5.5803045165475744 2.7175350664138591  5.7560247142056156 2.695692529438702  5.931744911863575 2.6806647913359711  6.1074651095215851 2.6731514637262723  6.2831853071795862 2.6731514637262723 
 2.0872714676417883 7 3.1415926535897931 7
8 2.37226531006664 3.1415926535897931
7 0 0  6 7 2  5.2288641212315818 2.7757930153074977  5.404584318889583 2.7448088034049678  5.5803045165475744 2.7175350664138591  5.7560247142056156 2.695692529438702  5.931744911863575 2.6806647913359711  6.1074651095215851 2.6731514637262723  6.2831853071795862 2.6731514637262723 
 2.0872714676417883 7 3.1415926535897931 7
3 4.0017924362176016 -0.79999999999999982 1 0 -0 1 1.1677406036686067 1.1499999999999999
7 0 0  8 16 3  0 2.6731514637262723  0.2622446149711124 2.6731514637262723  0.52448922994210412 2.6890901964160254  0.78673384491332143 2.7209593581179661  1.0489784598843812 2.7664467102049457  1.3112230748555049 2.8208271232437596  1.5734676898268205 2.8780082097681587  1.835712304797787 2.9319827792533459  2.3602015347400114 3.0238979184745527  2.6224461497108678 3.0618376102506772  2.884690764680272 3.0869431354512926  3.1469353796510404 3.0955754457700095  3.4091799946218089 3.0863276611034962  3.6714246095934868 3.0606733289018848  3.9336692245666862 3.0223027689394257  4.1959138395377984 2.9760619677745161 
 3.1415926535897931 9 5.2395495733586923 7 7.3375064931275915 9
8 3.1415926535897931 7.0525126507027398
7 0 0  8 16 3  6.2831853071795862 2.6731514637262723  6.5454299221506984 2.6731514637262723  6.8076745371216907 2.6890901964160254  7.0699191520929077 2.7209593581179661  7.3321637670639674 2.7664467102049457  7.5944083820350912 2.8208271232437596  7.8566529970064067 2.8780082097681587  8.1188976119773741 2.9319827792533459  8.6433868419195967 3.0238979184745527  8.905631456890454 3.0618376102506772  9.1678760718598582 3.0869431354512926  9.4301206868306267 3.0955754457700095  9.6923653018013951 3.0863276611034962  9.9546099167730731 3.0606733289018848  10.216854531746272 3.0223027689394257  10.479099146717385 2.9760619677745161 
 3.1415926535897931 9 5.2395495733586923 7 7.3375064931275915 9
8 3.1415926535897931 7.0525126507027398
7 0 0  8 16 3  6.2831853071795862 2.6731514637262723  6.5454299221506984 2.6731514637262723  6.8076745371216907 2.6890901964160254  7.0699191520929077 2.7209593581179661  7.3321637670639674 2.7664467102049457  7.5944083820350912 2.8208271232437596  7.8566529970064067 2.8780082097681587  8.1188976119773741 2.9319827792533459  8.6433868419195967 3.0238979184745527  8.905631456890454 3.0618376102506772  9.1678760718598582 3.0869431354512926  9.4301206868306267 3.0955754457700095  9.6923653018013951 3.0863276611034962  9.9546099167730731 3.0606733289018848  10.216854531746272 3.0223027689394257  10.479099146717385 2.9760619677745161 
 3.1415926535897931 9 5.2395495733586923 7 7.3375064931275915 9
8 -5.999999999062311e-07 2.0000005999999999
1 4.3175978606849279 0 0 1 
8 -5.999999999062311e-07 2.0000005999999999
1 8.5 0 0 -1 
8 -5.999999999062311e-07 2.0000005999999999
1 5.1071801000844514 0 0 1 
8 -5.999999999062311e-07 2.0000005999999999
1 13.5 0 0 -1 
1 19 0 0 -1 
1 0 0 0 1 
8 16.800000000000001 19.199999999999999
1 8.8551629612967222 -17 0 1 
8 16.800000000000001 19.199999999999999
1 4.4045181119866363 0 0 1 
8 16.9999994 19.0000006
1 3.7097143913625672 0 0 1 
8 16.9999994 19.0000006
1 3.76692941543208 0 0 1 
8 16.9999994 19.0000006
1 3.7271676838825258 0 0 1 
8 16.9999994 19.0000006
1 3.7843827079520391 0 0 1 
8 16.9999994 19.0000006
1 3.7446209764024654 0 0 1 
8 16.9999994 19.0000006
1 3.8018360004719787 0 0 1 
8 16.9999994 19.0000006
1 3.7620742689224107 0 0 1 
8 16.9999994 19.0000006
1 3.819289292991924 0 0 1 
8 16.9999994 19.0000006
1 3.7795275614423409 0 0 1 
8 16.9999994 19.0000006
1 3.8367425855118538 0 0 1 
8 16.9999994 19.0000006
1 3.7969808539623005 0 0 1 
8 16.9999994 19.0000006
1 3.8541958780318133 0 0 1 
8 16.9999994 19.0000006
1 3.8144341464822333 0 0 1 
8 16.9999994 19.0000006
1 3.8716491705517466 0 0 1 
8 16.9999994 19.0000006
1 3.8318874390021649 0 0 1 
8 16.9999994 19.0000006
1 3.8891024630716777 0 0 1 
8 16.9999994 19.0000006
1 3.8493407315221266 0 0 1 
8 16.9999994 19.0000006
1 3.9065557555916399 0 0 1 
8 16.9999994 19.0000006
1 3.866794024042072 0 0 1 
8 16.9999994 19.0000006
1 3.9240090481115852 0 0 1 
8 16.9999994 19.0000006
1 3.8842473165620053 0 0 1 
8 16.9999994 19.0000006
1 3.9414623406315186 0 0 1 
8 16.9999994 19.0000006
1 3.9017006090819502 0 0 1 
8 16.9999994 19.0000006
1 3.958915633151463 0 0 1 
8 16.9999994 19.0000006
1 3.9191539016019004 0 0 1 
8 16.9999994 19.0000006
1 3.9763689256714136 0 0 1 
8 16.9999994 19.0000006
1 3.9366071941218364 0 0 1 
8 16.9999994 19.0000006
1 3.9938222181913492 0 0 1 
8 16.9999994 19.0000006
1 3.9540604866417821 0 0 1 
8 16.9999994 19.0000006
1 4.011275510711295 0 0 1 
8 16.9999994 19.0000006
1 3.9715137791617217 0 0 1 
8 16.9999994 19.0000006
1 4.0287288032312354 0 0 1 
8 16.9999994 19.0000006
1 3.988967071681675 0 0 1 
8 16.9999994 19.0000006
1 4.0461820957511883 0 0 1 
8 16.9999994 19.0000006
1 4.0064203642016132 0 0 1 
8 16.9999994 19.0000006
1 4.0636353882711269 0 0 1 
8 16.9999994 19.0000006
1 4.0238736567215465 0 0 1 
8 16.9999994 19.0000006
1 4.0810886807910602 0 0 1 
8 16.800000000000001 19.199999999999999
1 15.528150659589535 17 0 -1 
8 16.800000000000001 19.199999999999999
1 4.0505380027233215 0 0 1 
Curves 104
1 6 7 -11 0 0 1 
2 8.6032248437103114 7 6.5562582536509115 0 1 0 0 -0 1 1 0 -0 3.2999999999999998
2 8.487492047145448 7 6.7054066804066963 0 1 0 0 -0 1 1 0 -0 3.2999999999999998
2 8.3691738782828438 7 6.8525125753308975 0 1 0 0 -0 1 1 0 -0 3.2999999999999998
2 8.2483063779829067 7 6.9975311285428745 0 1 0 0 -0 1 1 0 -0 3.2999999999999998
2 8.1249263636570959 7 7.1404181659864907 0 1 0 0 -0 1 1 0 -0 3.2999999999999998
2 7.9990714180529885 7 7.2811301628859617 0 1 0 0 -0 1 1 0 -0 3.2999999999999998
2 7.8707798778061964 7 7.4196242570039264 0 1 0 0 -0 1 1 0 -0 3.2999999999999998
2 7.740090821762668 7 7.5558582616976953 0 1 0 0 -0 1 1 0 -0 3.2999999999999998
2 7.6070440590748873 7 7.6897906787697066 0 1 0 0 -0 1 1 0 -0 3.2999999999999998
2 7.4716801170756213 7 7.82138071110829 0 1 0 0 -0 1 1 0 -0 3.2999999999999998
2 7.3340402289329045 7 7.9505882751148551 0 1 0 0 -0 1 1 0 -0 3.2999999999999998
2 7.1941663210900115 7 8.0773740129137419 0 1 0 0 -0 1 1 0 -0 3.2999999999999998
2 7.0521010004942593 7 8.2016993043410125 0 1 0 0 -0 1 1 0 -0 3.2999999999999998
2 6.9078875416185204 7 8.3235262787085382 0 1 0 0 -0 1 1 0 -0 3.2999999999999998
2 6.761569873279397 7 8.4428178263397609 0 1 0 0 -0 1 1 0 -0 3.2999999999999998
2 6.6131925652560728 7 8.5595376098736651 0 1 0 0 -0 1 1 0 -0 3.2999999999999998
2 6.4628008147139377 7 8.6736500753335015 0 1 0 0 -0 1 1 0 -0 3.2999999999999998
2 6.3104404324370833 7 8.785120462956856 0 1 0 0 -0 1 1 0 -0 3.2999999999999998
2 6.1561578288738996 7 8.8939148177838216 0 1 0 0 -0 1 1 0 -0 3.2999999999999998
2 6 7 9 0 1 0 0 -0 1 1 0 -0 3.2999999999999998
1 -6 7 8 1 0 0 
1 -6 7 -11 0 0 1 
2 0 7 0 0 1 0 0 -0 1 1 0 -0 6.5
1 -8.9756926291067778 7 -6.6840224055063642 0.98480775301220813 0 0.17364817766693044 
1 -4.5638390083370997 7 -3.7748507925454002 0.17364817766693044 0 -0.98480775301220813 
1 -4.2227017169421028 7 -5.709536511227471 0.98480775301220813 0 0.17364817766693044 
1 -1.2154926480955917 7 -3.1844469884778368 0.17364817766693044 0 -0.98480775301220813 
1 -3.8891344603805522 7 -7.6012904289847469 0.98480775301220813 0 0.17364817766693044 
1 -8.6887787524342919 7 -8.3111918580750768 0.98480775301220813 0 0.17364817766693044 
1 -7.8568686980144529 7 -11.013618556163223 0.98480775301220813 0 0.17364817766693044 
1 -0.31067434963052831 7 -5.436541313048366 0.17364817766693044 0 -0.98480775301220813 
1 -6 7 -11 1 0 0 
2 0 7 0 0 1 0 0 -0 1 1 0 -0 4.1500000000000004
1 -1.0164568432923032e-15 -9 4.1500000000000004 0 1 0 
2 0 9 0 0 1 0 0 -0 1 1 0 -0 4.1500000000000004
1 6 9 -11 0 0 1 
2 8.6032248437103114 9 6.5562582536509115 0 1 0 0 -0 1 1 0 -0 3.2999999999999998
2 8.487492047145448 9 6.7054066804066963 0 1 0 0 -0 1 1 0 -0 3.2999999999999998
2 8.3691738782828438 9 6.8525125753308975 0 1 0 0 -0 1 1 0 -0 3.2999999999999998
2 8.2483063779829067 9 6.9975311285428745 0 1 0 0 -0 1 1 0 -0 3.2999999999999998
2 8.1249263636570959 9 7.1404181659864907 0 1 0 0 -0 1 1 0 -0 3.2999999999999998
2 7.9990714180529885 9 7.2811301628859617 0 1 0 0 -0 1 1 0 -0 3.2999999999999998
2 7.8707798778061964 9 7.4196242570039264 0 1 0 0 -0 1 1 0 -0 3.2999999999999998
2 7.740090821762668 9 7.5558582616976953 0 1 0 0 -0 1 1 0 -0 3.2999999999999998
2 7.6070440590748873 9 7.6897906787697066 0 1 0 0 -0 1 1 0 -0 3.2999999999999998
2 7.4716801170756213 9 7.82138071110829 0 1 0 0 -0 1 1 0 -0 3.2999999999999998
2 7.3340402289329045 9 7.9505882751148551 0 1 0 0 -0 1 1 0 -0 3.2999999999999998
2 7.1941663210900115 9 8.0773740129137419 0 1 0 0 -0 1 1 0 -0 3.2999999999999998
2 7.0521010004942593 9 8.2016993043410125 0 1 0 0 -0 1 1 0 -0 3.2999999999999998
2 6.9078875416185204 9 8.3235262787085382 0 1 0 0 -0 1 1 0 -0 3.2999999999999998
2 6.761569873279397 9 8.4428178263397609 0 1 0 0 -0 1 1 0 -0 3.2999999999999998
2 6.6131925652560728 9 8.5595376098736651 0 1 0 0 -0 1 1 0 -0 3.2999999999999998
2 6.4628008147139377 9 8.6736500753335015 0 1 0 0 -0 1 1 0 -0 3.2999999999999998
2 6.3104404324370833 9 8.785120462956856 0 1 0 0 -0 1 1 0 -0 3.2999999999999998
2 6.1561578288738996 9 8.8939148177838216 0 1 0 0 -0 1 1 0 -0 3.2999999999999998
2 6 9 9 0 1 0 0 -0 1 1 0 -0 3.2999999999999998
1 -6 9 8 1 0 0 
1 -6 9 -11 0 0 1 
2 0 9 0 0 1 0 0 -0 1 1 0 -0 6.5
1 -7.8568686980144529 9 -11.013618556163223 0.98480775301220813 0 0.17364817766693044 
1 -0.31067434963052831 9 -5.436541313048366 0.17364817766693044 0 -0.98480775301220813 
1 -6 9 -11 1 0 0 
1 -4.5638390083370997 9 -3.7748507925454002 0.17364817766693044 0 -0.98480775301220813 
1 -4.116694950844753 9 -6.3107307565518367 0.98480775301220813 0 0.17364817766693044 
1 -3.9951412264779016 9 -7.0000961836603812 0.98480775301220813 0 0.17364817766693044 
1 -1.2154926480955917 9 -3.1844469884778368 0.17364817766693044 0 -0.98480775301220813 
1 6 7 -2.5 0 1 0 
1 6 7 2.5 0 1 0 
1 6 7 -11 0 1 0 
1 0.67031352293593482 7.5 -11 0 1 0 
2 7 8 11.25 0 0 1 1 0 -0 -0 1 0 1.5
3 -6 8 -11.821483970239687 1 0 0 -0 0 1 0 -1 0 1.5231399178286174 1.5
8 0 1.9815004832131251
2 -4.0559180886613273 7.7999999999999998 -6.655413470106109 0.98480775301220813 2.1684043449710091e-16 0.17364817766693016 0.13342690262462006 -0.6399999999999999 -0.75670156710291026 0.11113483370683513 0.76837490849194201 -0.63027696192781324 1.25
8 0 1.9815004832131251
2 -0.70757172841982019 7.7999999999999998 -6.0650096660385451 -0.98480775301220802 -4.3368086899420171e-17 -0.17364817766693075 0.048621489746740493 0.96000000000000019 -0.27574617084341785 0.16670225056025356 -0.27999999999999964 -0.94541544289171986 1.25
2 2.25 7.7999999999999998 10.75 0 0 1 1 0 -0 -0 1 0 1.25
2 2.25 7.7999999999999998 7.3499999999999996 0 0 1 1 0 -0 -0 1 0 1.25
8 0 4.6802473406360861
2 -4.0559180886613273 7.7999999999999998 -6.655413470106109 0.98480775301220813 8.3787143889679714e-16 0.1736481776669303 0.12474516377064696 -0.69565217391304413 -0.7074649793777007 0.12079873229003799 0.71837876703731718 -0.68508365426936291 1.1499999999999999
3 -6 7.7999999999999998 -6.9982075637823984 1 0 0 -0 0 1 0 -1 0 1.1677406036686067 1.1499999999999999
3 -6 7.7999999999999998 -6.9982075637823984 1 0 0 -0 0 1 0 -1 0 1.1677406036686067 1.1499999999999999
1 -6 7 -2.5 0 1 0 
1 -6 7 2.5 0 1 0 
1 -6 7 8 0 1 0 
1 2.8551629612967226 -10 8 0 1 0 
1 4.224435702940502 -10 6.2183869019923694 0 1 0 
1 4.3323181165192404 -10 6.143713242691903 0 1 0 
1 4.4388808640316295 -10 6.0671681488221889 0 1 0 
1 4.544091485432415 -10 5.988774936760378 0 1 0 
1 4.6479179325471769 -10 5.9085574858382337 0 1 0 
1 4.7503285788342149 -10 5.8265402310684822 0 1 0 
1 4.8512922290187417 -10 5.742748155701328 0 1 0 
1 4.9507781285947905 -10 5.6572067836146953 0 1 0 
1 5.0487559731935283 -10 5.5699421715392461 0 1 0 
1 5.145195917814477 -10 5.4809809011210673 0 1 0 
1 5.2400685859162532 -10 5.3903500708249261 0 1 0 
1 5.3333450783650509 -10 5.2980772876797442 0 1 0 
1 5.4249969822376896 -10 5.2041906588691216 0 1 0 
1 5.5149963794764467 -10 5.1087187831696443 0 1 0 
1 5.6033158553930233 -10 5.0116907422395691 0 1 0 
1 5.6899285070195207 -10 4.9131360917600544 0 1 0 
1 5.7748079513031767 -10 4.8130848524324037 0 1 0 
1 5.8579283331430752 -10 4.711567500833266 0 1 0 
1 5.9392643332656831 -10 4.6086149601313835 0 1 0 
1 6 -10 4.5281506595895351 0 1 0 
Polygon3D 0
PolygonOnTriangulations 0
Surfaces 50
1 0 7 0 0 1 0 0 -0 1 1 0 -0 
1 -6 7 -11 0 1 0 0 0 1 1 0 0 
1 6 7 -11 1 0 0 0 0 1 0 -1 0 
2 8.6032248437103114 -10 6.5562582536509115 0 1 0 0 -0 1 1 0 -0 3.2999999999999998
2 8.487492047145448 -10 6.7054066804066963 0 1 0 0 -0 1 1 0 -0 3.2999999999999998
2 8.3691738782828438 -10 6.8525125753308975 0 1 0 0 -0 1 1 0 -0 3.2999999999999998
2 8.2483063779829067 -10 6.9975311285428745 0 1 0 0 -0 1 1 0 -0 3.2999999999999998
2 8.1249263636570959 -10 7.1404181659864907 0 1 0 0 -0 1 1 0 -0 3.2999999999999998
2 7.9990714180529885 -10 7.2811301628859617 0 1 0 0 -0 1 1 0 -0 3.2999999999999998
2 7.8707798778061964 -10 7.4196242570039264 0 1 0 0 -0 1 1 0 -0 3.2999999999999998
2 7.740090821762668 -10 7.5558582616976953 0 1 0 0 -0 1 1 0 -0 3.2999999999999998
2 7.6070440590748873 -10 7.6897906787697066 0 1 0 0 -0 1 1 0 -0 3.2999999999999998
2 7.4716801170756213 -10 7.82138071110829 0 1 0 0 -0 1 1 0 -0 3.2999999999999998
2 7.3340402289329045 -10 7.9505882751148551 0 1 0 0 -0 1 1 0 -0 3.2999999999999998
2 7.1941663210900115 -10 8.0773740129137419 0 1 0 0 -0 1 1 0 -0 3.2999999999999998
2 7.0521010004942593 -10 8.2016993043410125 0 1 0 0 -0 1 1 0 -0 3.2999999999999998
2 6.9078875416185204 -10 8.3235262787085382 0 1 0 0 -0 1 1 0 -0 3.2999999999999998
2 6.761569873279397 -10 8.4428178263397609 0 1 0 0 -0 1 1 0 -0 3.2999999999999998
2 6.6131925652560728 -10 8.5595376098736651 0 1 0 0 -0 1 1 0 -0 3.2999999999999998
2 6.4628008147139377 -10 8.6736500753335015 0 1 0 0 -0 1 1 0 -0 3.2999999999999998
2 6.3104404324370833 -10 8.785120462956856 0 1 0 0 -0 1 1 0 -0 3.2999999999999998
2 6.1561578288738996 -10 8.8939148177838216 0 1 0 0 -0 1 1 0 -0 3.2999999999999998
2 6 -10 9 0 1 0 0 -0 1 1 0 -0 3.2999999999999998
1 -6 7 8 0 0 1 1 0 0 0 1 0 
1 -6 7 -11 1 0 0 0 0 1 0 -1 0 
2 0 7 0 0 1 0 0 -0 1 1 0 -0 6.5
1 0 7 0 0 1 0 0 -0 1 1 0 -0 
2 2.25 7.7999999999999998 2.5 0 0 1 1 0 -0 -0 1 0 1.1499999999999999
10 4.712388980384687 10.995574287564274 -2e+100 2e+100
2 -8.8322356907705348 7.7999999999999998 -7.4976071317907209 0.98480775301220813 0 0.17364817766693044 0.17364817766693044 0 -0.98480775301220813 0 1 0 1.1499999999999999
1 2.25 7.7999999999999998 7.3499999999999996 0 0 1 1 0 -0 -0 1 0 
2 2.25 7.7999999999999998 7.3499999999999996 0 0 1 1 0 -0 -0 1 0 1.25
1 2.25 7.7999999999999998 10.75 0 0 1 1 0 -0 -0 1 0 
10 3.4378446295698 9.7210299367493853 -2e+100 2e+100
2 -4.0559180886613273 7.7999999999999998 -6.655413470106109 0.98480775301220813 0 0.17364817766693044 0.17364817766693044 0 -0.98480775301220813 0 1 0 1.25
2 7 8 2.8500000000000001 0 0 1 1 0 -0 -0 1 0 1.5
1 7 8 11.25 0 0 1 1 0 -0 -0 1 0 
1 -6 7 -11 0 0 1 1 0 0 0 1 0 
1 0 0 4 0 0 1 1 0 -0 -0 1 0 
1 0 0 4 0 0 1 1 0 -0 -0 1 0 
1 0 0 4 0 0 1 1 0 -0 -0 1 0 
1 0 0 4 0 0 1 1 0 -0 -0 1 0 
1 0 0 4 0 0 1 1 0 -0 -0 1 0 
1 0 0 4 0 0 1 1 0 -0 -0 1 0 
2 0 6.7000000000000002 0 0 1 0 0 -0 1 1 0 -0 4.1500000000000004
2 0 -9 0 0 1 0 0 -0 1 1 0 -0 4.1500000000000004
1 0 9 0 0 1 0 0 -0 1 1 0 -0 
1 -6 9 -11 0 1 0 0 0 1 1 0 0 
1 0 9 0 0 1 0 0 -0 1 1 0 -0 
2 0 0 0.45000000000000001 0 0 1 1 0 -0 -0 1 0 1.5
2 0 0 0.45000000000000001 0 0 1 1 0 -0 -0 1 0 1.5
10 4.712388980384687 10.995574287564274 -2e+100 2e+100
2 -8.8322356907705348 7.7999999999999998 -7.4976071317907209 0.98480775301220813 0 0.17364817766693044 0.17364817766693044 0 -0.98480775301220813 0 1 0 1.1499999999999999
Triangulations 0

TShapes 268
Ve
1.00000207378249e-07
6.00000000000004 7 2.4999999999998
0 0

0101101
*
Ve
1.00000010658141e-07
6 7 4.52815065958955
0 0

0101101
*
Ed
 1e-07 1 1 0
1  1 0 13.4999999999998 15.5281506595895
2  1 2 0 13.4999999999998 15.5281506595895
2  2 3 0 13.4999999999998 15.5281506595895
2  3 1 2 13.4999999999998 15.5281506595895
0

0101000
+268 2 -267 2 *
Ve
1.00000025940284e-07
5.9392643332657 7 4.60861496013136
0 0

0101101
*
Ed
 1e-07 1 1 0
1  2 0 4.05053800272333 4.08108868079105
2  4 2 1 4.05053800272333 4.08108868079105
2  5 4 0 4.05053800272333 4.08108868079105
2  6 1 0 4.05053800272333 4.08108868079105
0

0101000
+267 0 -265 0 *
Ve
1.00000025152862e-07
5.85792833314309 7 4.71156750083325
0 0

0101101
*
Ed
 1e-07 1 1 0
1  3 0 4.02387365672154 4.06363538827112
2  7 2 1 4.02387365672154 4.06363538827112
2  8 5 0 4.02387365672154 4.06363538827112
2  9 1 0 4.02387365672154 4.06363538827112
0

0101000
+265 0 -263 0 *
Ve
1.00000025152862e-07
5.77480795130319 7 4.81308485243239
0 0

0101101
*
Ed
 1e-07 1 1 0
1  4 0 4.00642036420161 4.04618209575118
2  10 2 1 4.00642036420161 4.04618209575118
2  11 6 0 4.00642036420161 4.04618209575118
2  12 1 0 4.00642036420161 4.04618209575118
0

0101000
+263 0 -261 0 *
Ve
1.00000051560268e-07
5.68992850701949 7 4.91313609176009
0 0

0101101
*
Ed
 1e-07 1 1 0
1  5 0 3.98896707168167 4.02872880323125
2  13 2 1 3.98896707168167 4.02872880323125
2  14 7 0 3.98896707168167 4.02872880323125
2  15 1 0 3.98896707168167 4.02872880323125
0

0101000
+261 0 -259 0 *
Ve
1.00000049618896e-07
5.60331585539299 7 5.0116907422396
0 0

0101101
*
Ed
 1e-07 1 1 0
1  6 0 3.97151377916174 4.01127551071131
2  16 2 1 3.97151377916174 4.01127551071131
2  17 8 0 3.97151377916174 4.01127551071131
2  18 1 0 3.97151377916174 4.01127551071131
0

0101000
+259 0 -257 0 *
Ve
1.00000049618896e-07
5.51499637947641 7 5.10871878316968
0 0

0101101
*
Ed
 1e-07 1 1 0
1  7 0 3.9540604866418 3.99382221819136
2  19 2 1 3.9540604866418 3.99382221819136
2  20 9 0 3.9540604866418 3.99382221819136
2  21 1 0 3.9540604866418 3.99382221819136
0

0101000
+257 0 -255 0 *
Ve
1.00000025757174e-07
5.42499698223771 7 5.2041906588691
0 0

0101101
*
Ed
 1e-07 1 1 0
1  8 0 3.93660719412185 3.97636892567141
2  22 2 1 3.93660719412185 3.97636892567141
2  23 10 0 3.93660719412185 3.97636892567141
2  24 1 0 3.93660719412185 3.97636892567141
0

0101000
+255 0 -253 0 *
Ve
1.00000027633627e-07
5.33334507836507 7 5.29807728767972
0 0

0101101
*
Ed
 1e-07 1 1 0
1  9 0 3.91915390160189 3.95891563315145
2  25 2 1 3.91915390160189 3.95891563315145
2  26 11 0 3.91915390160189 3.95891563315145
2  27 1 0 3.91915390160189 3.95891563315145
0

0101000
+253 0 -251 0 *
Ve
1.00000049650683e-07
5.24006858591622 7 5.39035007082496
0 0

0101101
*
Ed
 1e-07 1 1 0
1  10 0 3.90170060908194 3.94146234063153
2  28 2 1 3.90170060908194 3.94146234063153
2  29 12 0 3.90170060908194 3.94146234063153
2  30 1 0 3.90170060908194 3.94146234063153
0

0101000
+251 0 -249 0 *
Ve
1.00000025152862e-07
5.1451959178145 7 5.48098090112105
0 0

0101101
*
Ed
 1e-07 1 1 0
1  11 0 3.88424731656202 3.92400904811158
2  31 2 1 3.88424731656202 3.92400904811158
2  32 13 0 3.88424731656202 3.92400904811158
2  33 1 0 3.88424731656202 3.92400904811158
0

0101000
+249 0 -247 0 *
Ve
1.00000024565801e-07
5.04875597319355 7 5.56994217153923
0 0

0101101
*
Ed
 1e-07 1 1 0
1  12 0 3.86679402404207 3.90655575559163
2  34 2 1 3.86679402404207 3.90655575559163
2  35 14 0 3.86679402404207 3.90655575559163
2  36 1 0 3.86679402404207 3.90655575559163
0

0101000
+247 0 -245 0 *
Ve
1.00000049243867e-07
4.95077812859475 7 5.65720678361473
0 0

0101101
*
Ed
 1e-07 1 1 0
1  13 0 3.84934073152212 3.88910246307169
2  37 2 1 3.84934073152212 3.88910246307169
2  38 15 0 3.84934073152212 3.88910246307169
2  39 1 0 3.84934073152212 3.88910246307169
0

0101000
+245 0 -243 0 *
Ve
1.00000025940284e-07
4.85129222901876 7 5.74274815570131
0 0

0101101
*
Ed
 1e-07 1 1 0
1  14 0 3.83188743900218 3.87164917055174
2  40 2 1 3.83188743900218 3.87164917055174
2  41 16 0 3.83188743900218 3.87164917055174
2  42 1 0 3.83188743900218 3.87164917055174
0

0101000
+243 0 -241 0 *
Ve
1.00000049563221e-07
4.75032857883417 7 5.82654023106851
0 0

0101101
*
Ed
 1e-07 1 1 0
1  15 0 3.81443414648223 3.85419587803183
2  43 2 1 3.81443414648223 3.85419587803183
2  44 17 0 3.81443414648223 3.85419587803183
2  45 1 0 3.81443414648223 3.85419587803183
0

0101000
+241 0 -239 0 *
Ve
1.00000049563221e-07
4.64791793254714 7 5.90855748583826
0 0

0101101
*
Ed
 1e-07 1 1 0
1  16 0 3.79698085396232 3.83674258551187
2  46 2 1 3.79698085396232 3.83674258551187
2  47 18 0 3.79698085396232 3.83674258551187
2  48 1 0 3.79698085396232 3.83674258551187
0

0101000
+239 0 -237 0 *
Ve
1.00000024884851e-07
4.54409148543244 7 5.98877493676036
0 0

0101101
*
Ed
 1e-07 1 1 0
1  17 0 3.77952756144236 3.81928929299192
2  49 2 1 3.77952756144236 3.81928929299192
2  50 19 0 3.77952756144236 3.81928929299192
2  51 1 0 3.77952756144236 3.81928929299192
0

0101000
+237 0 -235 0 *
Ve
1.00000025618983e-07
4.43888086403165 7 6.06716814882217
0 0

0101101
*
Ed
 1e-07 1 1 0
1  18 0 3.7620742689224 3.80183600047197
2  52 2 1 3.7620742689224 3.80183600047197
2  53 20 0 3.7620742689224 3.80183600047197
2  54 1 0 3.7620742689224 3.80183600047197
0

0101000
+235 0 -233 0 *
Ve
1.0000005000689e-07
4.3323181165192 7 6.14371324269193
0 0

0101101
*
Ed
 1e-07 1 1 0
1  19 0 3.74462097640246 3.78438270795206
2  55 2 1 3.74462097640246 3.78438270795206
2  56 21 0 3.74462097640246 3.78438270795206
2  57 1 0 3.74462097640246 3.78438270795206
0

0101000
+233 0 -231 0 *
Ve
1.00000049523414e-07
4.22443570294046 7 6.2183869019924
0 0

0101101
*
Ed
 1e-07 1 1 0
1  20 0 3.72716768388254 3.7669294154321
2  58 2 1 3.72716768388254 3.7669294154321
2  59 22 0 3.72716768388254 3.7669294154321
2  60 1 0 3.72716768388254 3.7669294154321
0

0101000
+231 0 -229 0 *
Ve
1.00000001601186e-07
2.85516296129672 7 8
0 0

0101101
*
Ed
 1e-07 1 1 0
1  21 0 3.70971439136258 4.40451811198664
2  61 2 1 3.70971439136258 4.40451811198664
2  62 23 0 3.70971439136258 4.40451811198664
2  63 1 0 3.70971439136258 4.40451811198664
0

0101000
+229 0 -227 0 *
Ve
1e-07
-6 7 8
0 0

0101101
*
Ed
 1e-07 1 1 0
1  22 0 0 8.85516296129672
2  64 2 0 0 8.85516296129672
2  65 24 0 0 8.85516296129672
2  66 1 2 0 8.85516296129672
0

0101000
+225 2 -227 2 *
Ve
1.00000206943666e-07
-6.00000000000004 7 2.4999999999998
0 0

0101101
*
Ed
 1e-07 1 1 0
1  23 0 13.4999999999998 19
2  67 2 0 13.4999999999998 19
2  68 25 0 13.4999999999998 19
2  69 1 2 13.4999999999998 19
0

0101000
+223 2 -225 2 *
Ve
1.00000014022253e-07
-6 7 -2.49999999999999
0 0

0101101
*
Ed
 1e-07 1 1 0
1  24 0 4.31759786068493 5.10718010008442
2  70 26 0 4.31759786068493 5.10718010008442
2  71 27 0 4.31759786068493 5.10718010008442
2  72 1 0 4.31759786068493 5.10718010008442
0

0101000
+221 0 -223 0 *
Ve
1.0000001256074e-07
-6 7 -6.15932750869954
0 0

0101101
*
Ed
 1e-07 1 1 0
1  23 0 4.84067249130046 8.50000000000001
2  67 2 0 4.84067249130046 8.50000000000001
2  68 25 0 4.84067249130046 8.50000000000001
2  73 1 2 4.84067249130046 8.50000000000001
0

0101000
+219 2 -221 2 *
Ve
1.50000000888178e-07
-4.19937502699757 7 -5.84182874382175
0 0

0101101
*
Ed
 1e-07 1 1 0
1  25 0 3.02159748438728 4.85
2  74 1 0 3.02159748438728 4.85
2  75 28 9 3.02159748438728 4.85
2  76 29 0 3.02159748438728 4.85
0

0101000
+219 0 -217 0 *
Ve
1.5e-07
-4.2227017169421 7 -5.70953651122747
0 0

0101101
*
Ed
 1.5e-07 1 1 0
1  26 0 1.96453136438507 2.09886441790708
2  77 1 0 1.96453136438507 2.09886441790708
2  78 30 9 1.96453136438507 2.09886441790708
0

0101000
+215 0 -217 0 *
Ve
1.50000000111022e-07
-0.874355356700595 7 -5.11913270715991
0 0

0101101
*
Ed
 1e-07 1 1 0
1  27 0 0 3.4
2  79 1 0 0 3.4
2  80 31 9 0 3.4
0

0101000
+215 0 -213 0 *
Ve
1.50000000888178e-07
-0.540788100139045 7 -7.01088662491718
0 0

0101101
*
Ed
 1.5e-07 1 1 0
1  28 0 1.96453136438507 3.88546863561493
2  81 1 0 1.96453136438507 3.88546863561493
2  82 32 9 1.96453136438507 3.88546863561493
0

0101000
+213 0 -211 0 *
Ve
1.50000000993014e-07
-3.88913446038055 7 -7.60129042898475
0 0

0101101
*
Ed
 1e-07 1 1 0
1  29 0 0 3.4
2  83 1 0 0 3.4
2  84 31 9 0 3.4
2  85 33 0 0 3.4
0

0101000
+209 0 -211 0 *
Ve
1.50000001601186e-07
-3.91246115032508 7 -7.46899819639046
0 0

0101101
*
Ed
 1.5e-07 1 1 0
1  26 0 3.75113558209291 3.88546863561493
2  77 1 0 3.75113558209291 3.88546863561493
2  78 30 9 3.75113558209291 3.88546863561493
0

0101000
+207 0 -209 0 *
Ve
1.00000010805157e-07
-6 7 -7.83708761886525
0 0

0101101
*
Ed
 1e-07 1 1 0
1  30 0 2.73025749869474 4.85
2  86 1 0 2.73025749869474 4.85
2  87 28 9 2.73025749869474 4.85
2  88 29 0 2.73025749869474 4.85
0

0101000
+205 0 -207 0 *
Ve
1.00000078903043e-07
-6 7 -10.6862025050703
0 0

0101101
*
Ed
 1e-07 1 1 0
1  23 0 0.31379749492972 3.16291238113475
2  67 2 0 0.31379749492972 3.16291238113475
2  68 25 0 0.31379749492972 3.16291238113475
2  73 1 2 0.31379749492972 3.16291238113475
0

0101000
+203 2 -205 2 *
Ve
1.50000001779823e-07
0.415516427288094 7 -9.55497386376101
0 0

0101101
*
Ed
 1e-07 1 1 0
1  31 0 1.88551389074151 8.4
2  89 1 0 1.88551389074151 8.4
2  90 34 9 1.88551389074151 8.4
0

0101000
+203 0 -201 0 *
Ve
1.50000000222045e-07
0.670313522935935 7 -11
0 0

0101101
*
Ed
 1.5e-07 1 1 0
1  32 0 4.1819660112501 5.64928400485761
2  91 1 0 4.1819660112501 5.64928400485761
2  92 35 9 4.1819660112501 5.64928400485761
0

0101000
+201 0 -199 0 *
Ve
1e-07
6 7 -11
0 0

0101101
*
Ed
 1e-07 1 1 0
1  33 0 6.67031352293593 12
2  93 2 0 6.67031352293593 12
2  94 1 2 6.67031352293593 12
2  95 36 0 6.67031352293593 12
2  96 37 14 6.67031352293593 12
2  97 38 19 6.67031352293593 12
2  98 39 23 6.67031352293593 12
2  99 40 27 6.67031352293593 12
2  100 41 31 6.67031352293593 12
2  101 42 35 6.67031352293593 12
0

0101000
+199 2 -197 2 *
Ve
1.00000016377201e-07
6 7 -2.49999999999998
0 0

0101101
*
Ed
 1e-07 1 1 0
1  1 0 0 8.50000000000002
2  1 2 0 0 8.50000000000002
2  2 3 0 0 8.50000000000002
2  102 1 2 0 8.50000000000002
0

0101000
+197 2 -195 2 *
Ed
 1e-07 1 1 0
1  24 0 1.17600520709517 1.96558744649466
2  70 26 0 1.17600520709517 1.96558744649466
2  71 27 0 1.17600520709517 1.96558744649466
2  103 1 0 1.17600520709517 1.96558744649466
0

0101000
+268 0 -195 0 *
Wi

0101100
-266 1 -264 0 -262 0 -260 0 -258 0 -256 0 -254 0 -252 0 -250 0 -248 0 
-246 0 -244 0 -242 0 -240 0 -238 0 -236 0 -234 0 -232 0 -230 0 -228 0 
-226 0 +224 1 +222 1 +220 0 +218 1 -216 0 +214 0 -212 0 -210 0 +208 0 
+206 0 +204 0 +202 1 -200 0 -198 0 -196 1 -194 1 +193 0 *
Ve
1.00000001016457e-07
-1.0164568432923e-15 7 4.15
0 0

0101101
*
Ed
 1.00000000444089e-07 1 1 0
1  34 0 0 6.28318530717959
2  104 27 0 0 6.28318530717959
2  105 43 0 0 6.28318530717959
2  106 2 1 0 6.28318530717959
2  107 44 0 0 6.28318530717959
2  108 1 0 0 6.28318530717959
0

0101100
+191 0 -191 0 *
Wi

0101100
-190 0 *
Fa
0  1e-07 1 0

0101000
+192 0 +189 0 *
Ve
1.0000000184297e-07
-1.0164568432923e-15 9 4.15
0 0

0101101
*
Ed
 1e-07 1 1 0
1  35 0 16 18
3  109 110CN 44 0 16 18
0

0101000
+191 0 -187 0 *
Ed
 1.0000000184297e-07 1 1 0
1  36 0 0 6.28318530717959
2  111 45 0 0 6.28318530717959
2  112 43 0 0 6.28318530717959
2  113 46 1 0 6.28318530717959
2  114 44 0 0 6.28318530717959
2  115 47 0 0 6.28318530717959
0

0101000
+187 0 -187 0 *
Wi

0101100
+186 0 +190 0 -186 0 -185 0 *
Fa
0  1e-07 44 0

0101000
+184 0 *
Ve
1.00000207378249e-07
6.00000000000004 9 2.4999999999998
0 0

0101101
*
Ve
1.00000010658141e-07
6 9 4.52815065958955
0 0

0101101
*
Ed
 1e-07 1 1 0
1  37 0 13.4999999999998 15.5281506595895
2  116 46 0 13.4999999999998 15.5281506595895
2  117 3 0 13.4999999999998 15.5281506595895
2  118 47 2 13.4999999999998 15.5281506595895
0

0101000
+182 2 -181 2 *
Ve
1.00000025940284e-07
5.9392643332657 9 4.60861496013136
0 0

0101101
*
Ed
 1e-07 1 1 0
1  38 0 4.05053800272333 4.08108868079105
2  119 46 1 4.05053800272333 4.08108868079105
2  120 4 0 4.05053800272333 4.08108868079105
2  121 47 0 4.05053800272333 4.08108868079105
0

0101000
+181 0 -179 0 *
Ve
1.00000025152862e-07
5.85792833314309 9 4.71156750083325
0 0

0101101
*
Ed
 1e-07 1 1 0
1  39 0 4.02387365672154 4.06363538827112
2  122 46 1 4.02387365672154 4.06363538827112
2  123 5 0 4.02387365672154 4.06363538827112
2  124 47 0 4.02387365672154 4.06363538827112
0

0101000
+179 0 -177 0 *
Ve
1.00000025152862e-07
5.77480795130319 9 4.81308485243239
0 0

0101101
*
Ed
 1e-07 1 1 0
1  40 0 4.00642036420161 4.04618209575118
2  125 46 1 4.00642036420161 4.04618209575118
2  126 6 0 4.00642036420161 4.04618209575118
2  127 47 0 4.00642036420161 4.04618209575118
0

0101000
+177 0 -175 0 *
Ve
1.00000051560268e-07
5.68992850701949 9 4.91313609176009
0 0

0101101
*
Ed
 1e-07 1 1 0
1  41 0 3.98896707168167 4.02872880323125
2  128 46 1 3.98896707168167 4.02872880323125
2  129 7 0 3.98896707168167 4.02872880323125
2  130 47 0 3.98896707168167 4.02872880323125
0

0101000
+175 0 -173 0 *
Ve
1.00000049618896e-07
5.60331585539299 9 5.0116907422396
0 0

0101101
*
Ed
 1e-07 1 1 0
1  42 0 3.97151377916174 4.01127551071131
2  131 46 1 3.97151377916174 4.01127551071131
2  132 8 0 3.97151377916174 4.01127551071131
2  133 47 0 3.97151377916174 4.01127551071131
0

0101000
+173 0 -171 0 *
Ve
1.00000049618896e-07
5.51499637947641 9 5.10871878316968
0 0

0101101
*
Ed
 1e-07 1 1 0
1  43 0 3.9540604866418 3.99382221819136
2  134 46 1 3.9540604866418 3.99382221819136
2  135 9 0 3.9540604866418 3.99382221819136
2  136 47 0 3.9540604866418 3.99382221819136
0

0101000
+171 0 -169 0 *
Ve
1.00000025757174e-07
5.42499698223771 9 5.2041906588691
0 0

0101101
*
Ed
 1e-07 1 1 0
1  44 0 3.93660719412185 3.97636892567141
2  137 46 1 3.93660719412185 3.97636892567141
2  138 10 0 3.93660719412185 3.97636892567141
2  139 47 0 3.93660719412185 3.97636892567141
0

0101000
+169 0 -167 0 *
Ve
1.00000027633627e-07
5.33334507836507 9 5.29807728767972
0 0

0101101
*
Ed
 1e-07 1 1 0
1  45 0 3.91915390160189 3.95891563315145
2  140 46 1 3.91915390160189 3.95891563315145
2  141 11 0 3.91915390160189 3.95891563315145
2  142 47 0 3.91915390160189 3.95891563315145
0

0101000
+167 0 -165 0 *
Ve
1.00000049650683e-07
5.24006858591622 9 5.39035007082496
0 0

0101101
*
Ed
 1e-07 1 1 0
1  46 0 3.90170060908194 3.94146234063153
2  143 46 1 3.90170060908194 3.94146234063153
2  144 12 0 3.90170060908194 3.94146234063153
2  145 47 0 3.90170060908194 3.94146234063153
0

0101000
+165 0 -163 0 *
Ve
1.00000025152862e-07
5.1451959178145 9 5.48098090112105
0 0

0101101
*
Ed
 1e-07 1 1 0
1  47 0 3.88424731656202 3.92400904811158
2  146 46 1 3.88424731656202 3.92400904811158
2  147 13 0 3.88424731656202 3.92400904811158
2  148 47 0 3.88424731656202 3.92400904811158
0

0101000
+163 0 -161 0 *
Ve
1.00000024565801e-07
5.04875597319355 9 5.56994217153923
0 0

0101101
*
Ed
 1e-07 1 1 0
1  48 0 3.86679402404207 3.90655575559163
2  149 46 1 3.86679402404207 3.90655575559163
2  150 14 0 3.86679402404207 3.90655575559163
2  151 47 0 3.86679402404207 3.90655575559163
0

0101000
+161 0 -159 0 *
Ve
1.00000049243867e-07
4.95077812859475 9 5.65720678361473
0 0

0101101
*
Ed
 1e-07 1 1 0
1  49 0 3.84934073152212 3.88910246307169
2  152 46 1 3.84934073152212 3.88910246307169
2  153 15 0 3.84934073152212 3.88910246307169
2  154 47 0 3.84934073152212 3.88910246307169
0

0101000
+159 0 -157 0 *
Ve
1.00000025940284e-07
4.85129222901876 9 5.74274815570131
0 0

0101101
*
Ed
 1e-07 1 1 0
1  50 0 3.83188743900218 3.87164917055174
2  155 46 1 3.83188743900218 3.87164917055174
2  156 16 0 3.83188743900218 3.87164917055174
2  157 47 0 3.83188743900218 3.87164917055174
0

0101000
+157 0 -155 0 *
Ve
1.00000049563221e-07
4.75032857883417 9 5.82654023106851
0 0

0101101
*
Ed
 1e-07 1 1 0
1  51 0 3.81443414648223 3.85419587803183
2  158 46 1 3.81443414648223 3.85419587803183
2  159 17 0 3.81443414648223 3.85419587803183
2  160 47 0 3.81443414648223 3.85419587803183
0

0101000
+155 0 -153 0 *
Ve
1.00000049563221e-07
4.64791793254714 9 5.90855748583826
0 0

0101101
*
Ed
 1e-07 1 1 0
1  52 0 3.79698085396232 3.83674258551187
2  161 46 1 3.79698085396232 3.83674258551187
2  162 18 0 3.79698085396232 3.83674258551187
2  163 47 0 3.79698085396232 3.83674258551187
0

0101000
+153 0 -151 0 *
Ve
1.00000024884851e-07
4.54409148543244 9 5.98877493676036
0 0

0101101
*
Ed
 1e-07 1 1 0
1  53 0 3.77952756144236 3.81928929299192
2  164 46 1 3.77952756144236 3.81928929299192
2  165 19 0 3.77952756144236 3.81928929299192
2  166 47 0 3.77952756144236 3.81928929299192
0

0101000
+151 0 -149 0 *
Ve
1.00000025618983e-07
4.43888086403165 9 6.06716814882217
0 0

0101101
*
Ed
 1e-07 1 1 0
1  54 0 3.7620742689224 3.80183600047197
2  167 46 1 3.7620742689224 3.80183600047197
2  168 20 0 3.7620742689224 3.80183600047197
2  169 47 0 3.7620742689224 3.80183600047197
0

0101000
+149 0 -147 0 *
Ve
1.0000005000689e-07
4.3323181165192 9 6.14371324269193
0 0

0101101
*
Ed
 1e-07 1 1 0
1  55 0 3.74462097640246 3.78438270795206
2  170 46 1 3.74462097640246 3.78438270795206
2  171 21 0 3.74462097640246 3.78438270795206
2  172 47 0 3.74462097640246 3.78438270795206
0

0101000
+147 0 -145 0 *
Ve
1.00000049523414e-07
4.22443570294046 9 6.2183869019924
0 0

0101101
*
Ed
 1e-07 1 1 0
1  56 0 3.72716768388254 3.7669294154321
2  173 46 1 3.72716768388254 3.7669294154321
2  174 22 0 3.72716768388254 3.7669294154321
2  175 47 0 3.72716768388254 3.7669294154321
0

0101000
+145 0 -143 0 *
Ve
1.00000001601186e-07
2.85516296129672 9 8
0 0

0101101
*
Ed
 1e-07 1 1 0
1  57 0 3.70971439136258 4.40451811198664
2  176 46 1 3.70971439136258 4.40451811198664
2  177 23 0 3.70971439136258 4.40451811198664
2  178 47 0 3.70971439136258 4.40451811198664
0

0101000
+143 0 -141 0 *
Ve
1e-07
-6 9 8
0 0

0101101
*
Ed
 1e-07 1 1 0
1  58 0 0 8.85516296129672
2  179 46 0 0 8.85516296129672
2  180 24 0 0 8.85516296129672
2  181 47 2 0 8.85516296129672
0

0101000
+139 2 -141 2 *
Ve
1.00000206943666e-07
-6.00000000000004 9 2.4999999999998
0 0

0101101
*
Ed
 1e-07 1 1 0
1  59 0 13.4999999999998 19
2  182 46 0 13.4999999999998 19
2  183 25 0 13.4999999999998 19
2  184 47 2 13.4999999999998 19
0

0101000
+137 2 -139 2 *
Ve
1.00000014022253e-07
-6 9 -2.49999999999999
0 0

0101101
*
Ed
 1e-07 1 1 0
1  60 0 4.31759786068493 5.10718010008442
2  185 26 0 4.31759786068493 5.10718010008442
2  186 45 0 4.31759786068493 5.10718010008442
2  187 47 0 4.31759786068493 5.10718010008442
0

0101000
+135 0 -137 0 *
Ve
1.00000079321842e-07
-6 9 -10.6862025050703
0 0

0101101
*
Ed
 1e-07 1 1 0
1  59 0 0.31379749492972 8.50000000000001
2  182 46 0 0.31379749492972 8.50000000000001
2  183 25 0 0.31379749492972 8.50000000000001
2  188 47 2 0.31379749492972 8.50000000000001
0

0101000
+133 2 -135 2 *
Ve
1.50000001784146e-07
0.415516427288095 9 -9.55497386376101
0 0

0101101
*
Ed
 1e-07 1 1 0
1  61 0 1.88551389074151 8.4
2  189 47 0 1.88551389074151 8.4
2  190 34 9 1.88551389074151 8.4
0

0101000
+133 0 -131 0 *
Ve
1.50000000222045e-07
0.670313522935935 9 -11
0 0

0101101
*
Ed
 1.5e-07 1 1 0
1  62 0 4.1819660112501 5.64928400485761
2  191 47 0 4.1819660112501 5.64928400485761
2  192 35 9 4.1819660112501 5.64928400485761
0

0101000
+131 0 -129 0 *
Ve
1e-07
6 9 -11
0 0

0101101
*
Ed
 1e-07 1 1 0
1  63 0 6.67031352293593 12
2  193 46 0 6.67031352293593 12
2  194 47 2 6.67031352293593 12
2  195 36 0 6.67031352293593 12
2  196 37 14 6.67031352293593 12
2  197 38 19 6.67031352293593 12
2  198 39 23 6.67031352293593 12
2  199 40 27 6.67031352293593 12
2  200 41 31 6.67031352293593 12
2  201 42 35 6.67031352293593 12
0

0101000
+129 2 -127 2 *
Ve
1.00000016377201e-07
6 9 -2.49999999999998
0 0

0101101
*
Ed
 1e-07 1 1 0
1  37 0 0 8.50000000000002
2  116 46 0 0 8.50000000000002
2  117 3 0 0 8.50000000000002
2  202 47 2 0 8.50000000000002
0

0101000
+127 2 -125 2 *
Ed
 1e-07 1 1 0
1  60 0 1.17600520709517 1.96558744649466
2  185 26 0 1.17600520709517 1.96558744649466
2  186 45 0 1.17600520709517 1.96558744649466
2  203 47 0 1.17600520709517 1.96558744649466
0

0101000
+182 0 -125 0 *
Wi

0101100
-180 1 -178 0 -176 0 -174 0 -172 0 -170 0 -168 0 -166 0 -164 0 -162 0 
-160 0 -158 0 -156 0 -154 0 -152 0 -150 0 -148 0 -146 0 -144 0 -142 0 
-140 0 +138 1 +136 1 +134 0 +132 1 -130 0 -128 0 -126 1 -124 1 +123 0 
*
Ve
1.50000001256074e-07
-4.11669495084475 9 -6.31073075655184
0 0

0101101
*
Ve
1.50000001256074e-07
-3.9951412264779 9 -7.00009618366038
0 0

0101101
*
Ed
 1.5e-07 1 1 0
1  64 0 2.575 3.275
2  204 47 0 2.575 3.275
2  205 30 9 2.575 3.275
0

0101000
+121 0 -120 0 *
Ve
1.5e-07
-0.768348590603246 9 -5.72032695248427
0 0

0101101
*
Ed
 1e-07 1 1 0
1  65 0 0 3.4
2  206 47 0 0 3.4
2  207 31 9 0 3.4
0

0101000
+121 0 -118 0 *
Ve
1.5e-07
-0.646794866236395 9 -6.40969237959282
0 0

0101101
*
Ed
 1e-07 1 1 0
1  66 0 0 3.4
2  208 47 0 0 3.4
2  209 31 9 0 3.4
2  210 33 0 0 3.4
0

0101000
+120 0 -116 0 *
Ed
 1.5e-07 1 1 0
1  67 0 2.575 3.275
2  211 47 0 2.575 3.275
2  212 32 9 2.575 3.275
0

0101000
+118 0 -116 0 *
Wi

0101100
+119 0 -117 0 +115 0 -114 0 *
Wi

0101100
-185 0 *
Fa
0  1e-07 47 0

0101000
+122 0 +113 0 +112 0 *
Ed
 1e-07 1 1 0
1  68 0 0 2
2  213 26 0 0 2
2  214 3 1 0 2
0

0101000
+195 0 -125 0 *
Ed
 1e-07 1 1 0
1  69 0 0 2
2  215 26 0 0 2
2  216 3 1 0 2
0

0101000
+268 0 -182 0 *
Wi

0101100
-123 0 +110 0 +193 0 -109 0 *
Fa
0  1e-07 26 0

0101000
+108 0 *
Ed
 1e-07 1 1 0
1  70 0 0 2
2  217 3 0 0 2
2  218 36 0 0 2
2  219 37 14 0 2
2  220 38 19 0 2
2  221 39 23 0 2
2  222 40 27 0 2
2  223 41 31 0 2
2  224 42 35 0 2
0

0101000
-127 2 +197 2 *
Wi

0101100
-194 1 -110 0 +124 1 +106 1 *
Fa
0  1e-07 3 1

0101000
+105 0 *
Ed
 1.5e-07 1 1 0
1  71 0 -0.5 1.5
2  225 36 1 -0.5 1.5
2  226 35 9 -0.5 1.5
2  227 37 36 -0.5 1.5
2  228 38 37 -0.5 1.5
2  229 39 38 -0.5 1.5
2  230 40 39 -0.5 1.5
2  231 41 40 -0.5 1.5
2  232 42 41 -0.5 1.5
0

0101000
+199 0 -129 0 *
Wi

0101100
-126 1 +106 1 +196 1 -103 0 *
Fa
0  1e-07 36 1

0101000
+102 0 *
Ed
 1e-07 1 1 0
1  72 0 2.41186499736283 3.87132030981676
2  233 34 0 2.41186499736283 3.87132030981676
2  234 35 0 2.41186499736283 3.87132030981676
0

0101000
+131 42 -201 42 *
Wi

0101100
-128 0 +103 0 +198 0 +100 9 *
Fa
0  1e-07 35 9

0101000
+99 0 *
Ed
 1.00000065249385e-07 1 1 0
1  73 0 5.55345765095262 7.01291296340655
2  235 25 1 5.55345765095262 7.01291296340655
2  236 34 9 5.55345765095262 7.01291296340655
2  237 48 50 5.55345765095262 7.01291296340655
2  238 49 58 5.55345765095262 7.01291296340655
2  239 48 66 5.55345765095262 7.01291296340655
2  240 49 74 5.55345765095262 7.01291296340655
2  241 48 82 5.55345765095262 7.01291296340655
2  242 49 90 5.55345765095262 7.01291296340655
0

0101000
+133 0 -203 0 *
Wi

0101100
-100 9 +200 0 +97 0 -130 0 *
Fa
0  1e-07 34 9

0101000
+96 0 *
Ed
 1e-07 1 1 0
1  74 0 0 1.98150048321313
2  243 33 0 0 1.98150048321313
2  244 30 9 0 1.98150048321313
0

0101000
+209 0 -120 0 *
Ed
 1e-07 1 1 0
1  75 0 0 1.98150048321313
2  245 33 0 0 1.98150048321313
2  246 32 9 0 1.98150048321313
0

0101000
+116 0 -211 0 *
Wi

0101100
+94 0 +115 0 +93 0 -208 0 *
Fa
0  0 33 0

0101000
+92 0 *
Ed
 1e-07 1 1 0
1  76 0 1.85459043600322 3.83609091921635
2  247 31 0 1.85459043600322 3.83609091921635
2  248 32 0 1.85459043600322 3.83609091921635
0

0101000
+118 42 -213 42 *
Wi

0101100
+210 0 -93 0 -114 0 +90 9 *
Fa
0  1e-07 32 9

0101000
+89 0 *
Ed
 1e-07 1 1 0
1  77 0 1.85459043600322 3.83609091921635
2  249 31 0 1.85459043600322 3.83609091921635
2  250 30 0 1.85459043600322 3.83609091921635
0

0101000
+121 42 -215 42 *
Wi

0101100
-90 9 +212 0 +87 9 -117 0 *
Fa
0  1e-07 31 9

0101000
+86 0 *
Ed
 1e-07 1 1 0
1  78 0 0 4.68024734063609
2  251 29 0 0 4.68024734063609
2  252 30 9 0 4.68024734063609
0

0101000
+207 0 -217 0 *
Wi

0101100
+94 0 -119 0 +87 9 +214 0 -84 0 +206 0 *
Fa
0  1e-07 30 9

0101000
+83 0 *
Ve
1.00000001776357e-07
-6 7.8 -8.16594816745101
0 0

0101101
*
Ed
 1e-07 1 1 0
1  79 0 2.37226531006664 3.14159265358979
2  253 25 1 2.37226531006664 3.14159265358979
2  254 28 9 2.37226531006664 3.14159265358979
2  255 29 0 2.37226531006664 3.14159265358979
2  256 50 0 2.37226531006664 3.14159265358979
0

0101000
+205 0 -81 0 *
Ed
 1e-07 1 1 0
1  80 0 3.14159265358979 7.05251265070274
2  257 25 1 3.14159265358979 7.05251265070274
2  258 28 9 3.14159265358979 7.05251265070274
2  259 29 0 3.14159265358979 7.05251265070274
2  260 50 0 3.14159265358979 7.05251265070274
0

0101000
+81 0 -219 0 *
Wi

0101100
-84 0 -204 0 +80 0 +79 0 +216 0 *
Fa
0  0 29 0

0101000
+78 0 *
Ed
 1e-07 1 1 0
1  81 0 0 2
2  261 26 0 0 2
2  262 25 1 0 2
0

0101000
+221 0 -135 0 *
Wi

0101100
-202 1 -80 0 -79 0 -218 1 -76 0 +132 1 -97 0 *
Fa
0  1e-07 25 1

0101000
+75 0 *
Ed
 1e-07 1 1 0
1  82 0 0 2
2  263 26 0 0 2
2  264 25 1 0 2
0

0101000
+223 0 -137 0 *
Wi

0101100
+73 0 +220 0 -76 0 -134 0 *
Fa
0  1e-07 26 0

0101000
+72 0 *
Ed
 1e-07 1 1 0
1  83 0 0 2
2  265 25 0 0 2
2  266 24 0 0 2
0

0101000
-139 2 +225 2 *
Wi

0101100
-222 1 -70 1 +136 1 +73 0 *
Fa
0  1e-07 25 1

0101000
+69 0 *
Ed
 1e-07 1 1 0
1  84 0 17 19
2  267 24 1 17 19
2  268 23 0 17 19
0

0101000
+227 0 -141 0 *
Wi

0101100
-138 1 +67 0 +224 1 -70 1 *
Fa
0  1e-07 24 1

0101000
+66 0 *
Ed
 1e-07 1 1 0
1  85 0 17 19
2  269 23 0 17 19
2  270 22 0 17 19
0

0101000
+229 0 -143 0 *
Wi

0101100
-64 0 -140 0 +67 0 +226 0 *
Fa
0  1e-07 23 0

0101000
+63 0 *
Ed
 1e-07 1 1 0
1  86 0 17 19
2  271 22 0 17 19
2  272 21 0 17 19
0

0101000
+231 0 -145 0 *
Wi

0101100
-61 0 -142 0 +64 0 +228 0 *
Fa
0  1e-07 22 0

0101000
+60 0 *
Ed
 1e-07 1 1 0
1  87 0 17 19
2  273 21 0 17 19
2  274 20 0 17 19
0

0101000
+233 0 -147 0 *
Wi

0101100
-58 0 -144 0 +61 0 +230 0 *
Fa
0  1e-07 21 0

0101000
+57 0 *
Ed
 1e-07 1 1 0
1  88 0 17 19
2  275 20 0 17 19
2  276 19 0 17 19
0

0101000
+235 0 -149 0 *
Wi

0101100
-55 0 -146 0 +58 0 +232 0 *
Fa
0  1e-07 20 0

0101000
+54 0 *
Ed
 1e-07 1 1 0
1  89 0 17 19
2  277 19 0 17 19
2  278 18 0 17 19
0

0101000
+237 0 -151 0 *
Wi

0101100
-52 0 -148 0 +55 0 +234 0 *
Fa
0  1e-07 19 0

0101000
+51 0 *
Ed
 1e-07 1 1 0
1  90 0 17 19
2  279 18 0 17 19
2  280 17 0 17 19
0

0101000
+239 0 -153 0 *
Wi

0101100
-49 0 -150 0 +52 0 +236 0 *
Fa
0  1e-07 18 0

0101000
+48 0 *
Ed
 1e-07 1 1 0
1  91 0 17 19
2  281 17 0 17 19
2  282 16 0 17 19
0

0101000
+241 0 -155 0 *
Wi

0101100
-46 0 -152 0 +49 0 +238 0 *
Fa
0  1e-07 17 0

0101000
+45 0 *
Ed
 1e-07 1 1 0
1  92 0 17 19
2  283 16 0 17 19
2  284 15 0 17 19
0

0101000
+243 0 -157 0 *
Wi

0101100
-43 0 -154 0 +46 0 +240 0 *
Fa
0  1e-07 16 0

0101000
+42 0 *
Ed
 1e-07 1 1 0
1  93 0 17 19
2  285 15 0 17 19
2  286 14 0 17 19
0

0101000
+245 0 -159 0 *
Wi

0101100
-40 0 -156 0 +43 0 +242 0 *
Fa
0  1e-07 15 0

0101000
+39 0 *
Ed
 1e-07 1 1 0
1  94 0 17 19
2  287 14 0 17 19
2  288 13 0 17 19
0

0101000
+247 0 -161 0 *
Wi

0101100
-37 0 -158 0 +40 0 +244 0 *
Fa
0  1e-07 14 0

0101000
+36 0 *
Ed
 1e-07 1 1 0
1  95 0 17 19
2  289 13 0 17 19
2  290 12 0 17 19
0

0101000
+249 0 -163 0 *
Wi

0101100
-34 0 -160 0 +37 0 +246 0 *
Fa
0  1e-07 13 0

0101000
+33 0 *
Ed
 1e-07 1 1 0
1  96 0 17 19
2  291 12 0 17 19
2  292 11 0 17 19
0

0101000
+251 0 -165 0 *
Wi

0101100
-31 0 -162 0 +34 0 +248 0 *
Fa
0  1e-07 12 0

0101000
+30 0 *
Ed
 1e-07 1 1 0
1  97 0 17 19
2  293 11 0 17 19
2  294 10 0 17 19
0

0101000
+253 0 -167 0 *
Wi

0101100
-28 0 -164 0 +31 0 +250 0 *
Fa
0  1e-07 11 0

0101000
+27 0 *
Ed
 1e-07 1 1 0
1  98 0 17 19
2  295 10 0 17 19
2  296 9 0 17 19
0

0101000
+255 0 -169 0 *
Wi

0101100
-25 0 -166 0 +28 0 +252 0 *
Fa
0  1e-07 10 0

0101000
+24 0 *
Ed
 1e-07 1 1 0
1  99 0 17 19
2  297 9 0 17 19
2  298 8 0 17 19
0

0101000
+257 0 -171 0 *
Wi

0101100
-22 0 -168 0 +25 0 +254 0 *
Fa
0  1e-07 9 0

0101000
+21 0 *
Ed
 1e-07 1 1 0
1  100 0 17 19
2  299 8 0 17 19
2  300 7 0 17 19
0

0101000
+259 0 -173 0 *
Wi

0101100
-19 0 -170 0 +22 0 +256 0 *
Fa
0  1e-07 8 0

0101000
+18 0 *
Ed
 1e-07 1 1 0
1  101 0 17 19
2  301 7 0 17 19
2  302 6 0 17 19
0

0101000
+261 0 -175 0 *
Wi

0101100
-16 0 -172 0 +19 0 +258 0 *
Fa
0  1e-07 7 0

0101000
+15 0 *
Ed
 1e-07 1 1 0
1  102 0 17 19
2  303 6 0 17 19
2  304 5 0 17 19
0

0101000
+263 0 -177 0 *
Wi

0101100
-13 0 -174 0 +16 0 +260 0 *
Fa
0  1e-07 6 0

0101000
+12 0 *
Ed
 1e-07 1 1 0
1  103 0 17 19
2  305 5 0 17 19
2  306 4 0 17 19
0

0101000
+265 0 -179 0 *
Wi

0101100
-10 0 -176 0 +13 0 +262 0 *
Fa
0  1e-07 5 0

0101000
+9 0 *
Ed
 1e-07 1 1 0
1  104 0 17 19
2  307 3 1 17 19
2  308 4 0 17 19
0

0101000
+267 0 -181 0 *
Wi

0101100
-7 0 -178 0 +10 0 +264 0 *
Fa
0  1e-07 4 0

0101000
+6 0 *
Wi

0101100
-266 1 -7 0 +180 1 +109 0 *
Fa
0  1e-07 3 1

0101000
+4 0 *
Sh

0101100
-188 0 -183 0 +111 0 +107 0 +104 0 -101 0 -98 0 -95 0 -91 0 -88 0 
-85 0 +82 0 -77 0 -74 0 +71 0 -68 0 +65 0 -62 0 -59 0 -56 0 
-53 0 -50 0 -47 0 -44 0 -41 0 -38 0 -35 0 -32 0 -29 0 -26 0 
-23 0 -20 0 -17 0 -14 0 -11 0 -8 0 -5 0 +3 0 *
So

0100000
+2 0 *

+1 0 