DBRep_DrawableShape

CASCADE Topology V3, (c) Open Cascade
Locations 2
1
              1              -0               0              -0 
              0               1               0               0 
             -0               0               1              -0 
2  1 -1 0
Curve2ds 46
1 0 -1.5707963267948966 1 0 
1 6.2831853071795862 -6.2831853071795862 0 1 
1 0 -6.2831853071795862 0 1 
1 0 -0.0082200926537255147 1 0 
2 -242.90000000000001 2 1 0 -0 1 243.30077986106002
7 0 0  5 6 2  0.0082203703833151065 0.0082200926537254939  0.0082201481933879619 0.0049320555972398299  0.0082200371109353992 0.0016440185332478106  0.0082200371109353715 -0.0016440185332473299  0.0082201481933879619 -0.0049320555972399288  0.0082203703833151065 -0.0082200926537255928 
 1.5625759564115815 6 1.5790166971782118 6
2 2 -242.90000000000001 1 0 -0 1 243.30077986106002
1 0 0.0082200926537255147 1 0 
2 -242.90000000000001 2 1 0 -0 1 243.30077986106002
1 0 1.5707963267948966 1 0 
1 0.39618974020271286 -6.2831853071795862 0 1 
2 607.14750000000004 -303.57375000000002 -1 0 -0 -1 243.309
1 5.8869955669768732 3.1415926535897931 0 -1 
2 0 -303.57375000000002 -1 -0 0 -1 243.309
1 0 0.0082200926537255147 1 0 
2 -242.90000000000001 2 1 0 -0 1 243.30077986106002
7 0 0  5 6 2  6.2749649367962714 0.0082200926537254939  6.2749651589861983 0.0049320555972398299  6.2749652700686624 0.0016440185332478106  6.2749652700686624 -0.0016440185332473299  6.2749651589861983 -0.0049320555972399288  6.2749649367962714 -0.0082200926537255928 
 1.5625759564115815 6 1.5790166971782118 6
2 2 -242.90000000000001 1 0 -0 1 243.30077986106002
1 0 -0.0082200926537255147 1 0 
2 -242.90000000000001 2 1 0 -0 1 243.30077986106002
1 0 4 1 0 
1 0 0 0 1 
1 0.5 0 0 1 
1 0 0 0 -1 
1 0 0 1 0 
1 0 0 0 1 
1 0 0.5 1 0 
1 0 -4 1 0 
1 0 4 1 0 
1 4 0 0 1 
1 0.5 0 0 1 
1 4 0 0 -1 
1 0 0 1 0 
1 4 0 0 1 
1 0 0 0 -1 
1 607.14750000000004 0 0 -1 
1 0.39618974020271286 -6.2831853071795862 0 1 
2 607.14750000000004 -303.57375000000002 -1 0 -0 -1 242.85900000000001
1 5.8869955669768732 3.1415926535897931 0 -1 
2 0 -303.57375000000002 -1 -0 0 -1 242.85900000000001
1 0 0.5 1 0 
1 0 0 1 0 
1 0 -1.5707963267948966 1 0 
1 6.2831853071795862 -6.2831853071795862 0 1 
1 0 -6.2831853071795862 0 1 
1 0 1.5707963267948966 1 0 
Curves 21
2 0 0 0 -2.4492935982947064e-16 -1 0 1 -2.4492935982947064e-16 0 0 0 1 243.309
2 0 0 -2 0 0 1 1 0 -0 -0 1 0 243.30077986106002
2 0 2 0 0 1 0 0 -0 1 1 0 -0 243.30077986106002
2 0 0 2 0 0 1 1 0 -0 -0 1 0 243.30077986106002
2 1.0968109402378976e-14 -2.6220109517005494e-14 0 0.38590604232431869 -0.92253808945624638 0 0.92253808945624638 0.38590604232431869 0 -0 0 1 243.309
2 0 0 0 0.38590604232431869 0.92253808945624638 -0 -0.92253808945624638 0.38590604232431869 0 0 0 1 243.309
2 0 0 2 0 0 1 1 0 -0 -0 1 0 243.30077986106002
2 0 -2 0 0 1 0 0 -0 1 1 0 -0 243.30077986106002
2 0 0 -2 0 0 1 1 0 -0 -0 1 0 243.30077986106002
1 242.90000000000001 2 -2 1 0 0 
1 243.40000000000001 -2 -2 0 1 0 
1 242.90000000000001 -2 -2 1 0 0 
1 243.40000000000001 2 -2 0 0 1 
1 242.90000000000001 2 2 1 0 0 
1 243.40000000000001 -2 2 0 1 0 
1 242.90000000000001 -2 2 1 0 0 
1 0 0 -303.57375000000002 0 0 1 
2 1.0968109402378976e-14 -2.6220109517005494e-14 0 0.38590604232431869 -0.92253808945624638 0 0.92253808945624638 0.38590604232431869 0 -0 0 1 242.85900000000001
2 0 0 0 0.38590604232431869 0.92253808945624638 -0 -0.92253808945624638 0.38590604232431869 0 0 0 1 242.85900000000001
1 243.40000000000001 -2 -2 0 0 1 
2 0 0 0 -2.4492935982947064e-16 -1 0 1 -2.4492935982947064e-16 0 0 0 1 242.85900000000001
Polygon3D 0
PolygonOnTriangulations 0
Surfaces 9
4 0 0 0 0 0 1 1 0 -0 -0 1 0 243.309
1 242.90000000000001 -2 -2 0 0 1 1 0 0 0 1 0 
1 242.90000000000001 2 -2 0 1 0 0 0 1 1 0 0 
1 242.90000000000001 -2 2 0 0 1 1 0 0 0 1 0 
1 560.11669466813635 234.30188883210425 -303.57375000000002 0.38590604232431869 -0.92253808945624638 0 -0.92253808945624638 -0.38590604232431869 0 0 -0 -1 
1 0 0 -303.57375000000002 0.38590604232431869 0.92253808945624638 -0 0.92253808945624638 -0.38590604232431869 0 0 -0 -1 
1 242.90000000000001 -2 -2 0 1 0 0 0 1 1 0 0 
1 243.40000000000001 -2 -2 1 0 0 0 0 1 0 -1 0 
4 0 0 0 0 0 1 1 0 -0 -0 1 0 242.85900000000001
Triangulations 0

TShapes 69
Ve
1.00000062683374e-07
1.48983794026872e-14 -3.64905052959674e-30 -243.309
0 0

0101101
*
Ed
 1e-07 1 1 1
2  1 1 0 0 0.396189740202713
0

0101000
+69 0 -69 0 *
Ve
1.00000066171463e-07
243.30077986106 -5.95915042573804e-14 -2
0 0

0101101
*
Ed
 1e-07 1 1 0
1  1 0 4.71238898038469 6.27496521452586
3  2 3CN 1 0 4.71238898038469 6.27496521452586
0

0101000
+69 0 -67 0 *
Ve
1.00000018651747e-07
243.292559444386 2 -2
0 0

0101101
*
Ed
 1e-07 1 1 0
1  2 0 0 0.00822037038331511
2  4 1 0 0 0.00822037038331511
2  5 2 1 0 0.00822037038331511
0

0101000
+67 0 -65 0 *
Ve
1.00000005329071e-07
243.292559444386 2 2
0 0

0101101
*
Ed
 1e-07 1 1 0
1  3 0 1.56257595641158 1.57901669717821
2  6 1 0 1.56257595641158 1.57901669717821
2  7 3 1 1.56257595641158 1.57901669717821
0

0101000
+63 0 -65 0 *
Ve
1.00000140001866e-07
243.30077986106 -5.95915042573804e-14 1.99999999999988
0 0

0101101
*
Ed
 1e-07 1 1 0
1  4 0 0 0.00822037038331511
2  8 1 0 0 0.00822037038331511
2  9 4 1 0 0.00822037038331511
0

0101000
+61 0 -63 0 *
Ve
1.00000064840594e-07
1.48983794026872e-14 -3.64905052959674e-30 243.309
0 0

0101101
*
Ed
 1e-07 1 1 0
1  1 0 6.29140539983331 7.85398163397448
3  2 3CN 1 0 6.29140539983331 7.85398163397448
0

0101000
+61 0 -59 0 *
Ed
 1e-07 1 1 1
2  10 1 0 0 0.396189740202713
0

0101000
+59 0 -59 0 *
Ed
 1e-07 1 1 0
1  5 0 4.71238898038469 7.85398163397448
2  11 1 0 4.71238898038469 7.85398163397448
2  12 5 0 4.71238898038469 7.85398163397448
0

0101000
+69 0 -59 0 *
Wi

0101100
+68 0 -66 0 -64 0 +62 0 +60 0 -58 0 -57 0 +56 0 *
Fa
0  1e-07 1 0

0101000
+55 0 *
Ed
 1e-07 1 1 1
2  1 1 0 5.88699556697687 6.28318530717959
0

0101000
+69 0 -69 0 *
Ed
 1e-07 1 1 0
1  6 0 1.5707963267949 4.71238898038469
2  13 1 0 1.5707963267949 4.71238898038469
2  14 6 0 1.5707963267949 4.71238898038469
0

0101000
+59 0 -69 0 *
Ed
 1e-07 1 1 1
2  10 1 0 5.88699556697687 6.28318530717959
0

0101000
+59 0 -59 0 *
Ve
1.00000014654944e-07
243.292559444386 -2 2
0 0

0101101
*
Ed
 1e-07 1 1 0
1  7 0 6.27496493679627 6.28318530717959
2  15 1 0 6.27496493679627 6.28318530717959
2  16 4 1 6.27496493679627 6.28318530717959
0

0101000
+50 0 -61 0 *
Ve
1.00000018651747e-07
243.292559444386 -2 -2
0 0

0101101
*
Ed
 1e-07 1 1 0
1  8 0 1.56257595641158 1.57901669717821
2  17 1 0 1.56257595641158 1.57901669717821
2  18 7 1 1.56257595641158 1.57901669717821
0

0101000
+50 0 -48 0 *
Ed
 1e-07 1 1 0
1  9 0 6.27496493679627 6.28318530717959
2  19 1 0 6.27496493679627 6.28318530717959
2  20 2 1 6.27496493679627 6.28318530717959
0

0101000
+48 0 -67 0 *
Wi

0101100
+53 0 +52 0 -51 0 +58 0 +49 0 -47 0 -46 0 +66 0 *
Fa
0  1e-07 1 0

0101000
+45 0 *
Ve
1e-07
243.4 2 -2
0 0

0101101
*
Ed
 1e-07 1 1 0
1  10 0 0.392559444385796 0.5
2  21 2 0 0.392559444385796 0.5
2  22 3 0 0.392559444385796 0.5
0

0101000
+65 2 -43 2 *
Ve
1e-07
243.4 -2 -2
0 0

0101101
*
Ed
 1e-07 1 1 0
1  11 0 0 4
2  23 2 0 0 4
2  24 8 0 0 4
0

0101000
-43 2 +41 2 *
Ed
 1e-07 1 1 0
1  12 0 0.392559444385796 0.5
2  25 2 0 0.392559444385796 0.5
2  26 7 0 0.392559444385796 0.5
0

0101000
+48 2 -41 2 *
Wi

0101100
-42 1 +40 1 +39 1 -46 0 -64 0 *
Fa
0  1e-07 2 1

0101000
+38 0 *
Ve
1e-07
243.4 2 2
0 0

0101101
*
Ed
 1e-07 1 1 0
1  13 0 0 4
2  27 3 0 0 4
2  28 8 0 0 4
0

0101000
-36 2 +43 2 *
Ed
 1e-07 1 1 0
1  14 0 0.392559444385796 0.5
2  29 4 0 0.392559444385796 0.5
2  30 3 0 0.392559444385796 0.5
0

0101000
+63 2 -36 2 *
Wi

0101100
-42 1 -35 1 +34 1 -62 0 *
Fa
0  1e-07 3 1

0101000
+33 0 *
Ve
1e-07
243.4 -2 2
0 0

0101101
*
Ed
 1e-07 1 1 0
1  15 0 0 4
2  31 4 0 0 4
2  32 8 0 0 4
0

0101000
-36 2 +31 2 *
Ed
 1e-07 1 1 0
1  16 0 0.392559444385796 0.5
2  33 4 0 0.392559444385796 0.5
2  34 7 0 0.392559444385796 0.5
0

0101000
+50 2 -31 2 *
Wi

0101100
-34 1 +30 1 +29 1 -49 0 -60 0 *
Fa
0  1e-07 4 1

0101000
+28 0 *
Ve
1.00000062586473e-07
1.48708248497064e-14 -3.64230161057476e-30 -242.859
0 0

0101101
*
Ed
 1e-07 1 1 0
1  17 0 60.26475 60.71475
2  35 6 0 60.26475 60.71475
2  36 5 0 60.26475 60.71475
0

0101000
+69 0 -26 0 *
Ve
1.0000006473907e-07
1.48708248497064e-14 -3.64230161057476e-30 242.859
0 0

0101101
*
Ed
 1e-07 1 1 0
1  18 0 4.71238898038469 7.85398163397448
2  37 9 0 4.71238898038469 7.85398163397448
2  38 5 0 4.71238898038469 7.85398163397448
0

0101000
+26 0 -24 0 *
Ed
 1e-07 1 1 0
1  17 0 546.43275 546.88275
2  35 6 0 546.43275 546.88275
2  36 5 0 546.43275 546.88275
0

0101000
+24 0 -59 0 *
Wi

0101100
-25 0 -23 0 -22 0 +56 0 *
Fa
0  1e-07 5 0

0101000
+21 0 *
Ed
 1e-07 1 1 0
1  19 0 1.5707963267949 4.71238898038469
2  39 9 0 1.5707963267949 4.71238898038469
2  40 6 0 1.5707963267949 4.71238898038469
0

0101000
+24 0 -26 0 *
Wi

0101100
+52 0 +22 0 -19 0 +25 0 *
Fa
0  1e-07 6 0

0101000
+18 0 *
Ed
 1e-07 1 1 0
1  20 0 0 4
2  41 7 0 0 4
2  42 8 0 0 4
0

0101000
-31 2 +41 2 *
Wi

0101100
-39 1 -16 1 +29 1 -47 0 *
Fa
0  1e-07 7 1

0101000
+15 0 *
Wi

0101100
-16 0 -30 0 +35 0 +40 0 *
Fa
0  1e-07 8 0

0101000
+13 0 *
Ed
 1e-07 1 1 1
2  43 9 0 0 0.396189740202713
0

0101000
+26 0 -26 0 *
Ed
 1e-07 1 1 0
1  21 0 4.71238898038469 7.85398163397448
3  44 45CN 9 0 4.71238898038469 7.85398163397448
0

0101000
-24 0 +26 0 *
Ed
 1e-07 1 1 1
2  46 9 0 0 0.396189740202713
0

0101000
+24 0 -24 0 *
Wi

0101100
+23 0 +11 0 -10 0 -9 0 *
Fa
0  1e-07 9 0

0101000
+8 0 *
Ed
 1e-07 1 1 1
2  43 9 0 5.88699556697687 6.28318530717959
0

0101000
+26 0 -26 0 *
Ed
 1e-07 1 1 1
2  46 9 0 5.88699556697687 6.28318530717959
0

0101000
+24 0 -24 0 *
Wi

0101100
+10 0 +6 0 +19 0 -5 0 *
Fa
0  1e-07 9 0

0101000
+4 0 *
Sh

0101100
+54 0 +44 0 -37 0 +32 0 +27 0 -20 0 -17 0 -14 0 +12 1 -7 0 
-3 0 *
So

0100000
+2 0 *

+1 0 