DBRep_DrawableShape

CASCADE Topology V3, (c) Open Cascade
Locations 8
1
              1              -0               0              -0 
              0               1               0               0 
             -0               0               1              -0 
2  1 -1 0
1
              1              -0               0              -0 
              0               1               0               0 
             -0               0               1              -0 
2  3 -1 0
1
              1              -0               0              -0 
              0               1               0               0 
             -0               0               1              -0 
2  5 -1 0
1
              1              -0               0              -0 
              0               1               0               0 
             -0               0               1              -0 
2  7 -1 0
Curve2ds 32
1 0 -3 1 0 
1 0 0 1 0 
1 0 -3 1 0 
1 0 0 1 0 
1 0 0 0 -1 
1 0 0 0 1 
1 0 0 1 0 
1 0 0 1 0 
1 3 0 0 -1 
1 0 0 0 1 
8 -3 0
1 0 27.5 -1 0 
8 -3 0
1 3 0 0 -1 
1 3 0 0 -1 
1 3 0 0 1 
8 -3 0
1 0 2.5 -1 0 
8 -3 0
1 3 0 0 -1 
1 0 -3 1 0 
1 0 0 1 0 
1 0 -3 1 0 
1 0 3 1 0 
1 0 0 0 -1 
1 3 0 0 1 
1 0 0 1 0 
1 0 3 1 0 
8 -3 0
1 0 27.5 -1 0 
8 -3 0
1 56 0 0 -1 
8 -3 0
1 0 2.5 -1 0 
8 -3 0
1 56 0 0 -1 
1 0 0 1 0 
1 0 0 1 0 
1 0 3 1 0 
1 0 3 1 0 
Curves 24
8 0 31
1 -1.5 15.5 -29.5 0 -1 0 
1 -1.5 15.5 -29.5 0 0 1 
8 0 31
1 -1.5 -15.5 29.5 0 1 0 
1 -1.5 -15.5 -29.5 0 0 1 
1 -1.5 -12.5 -29.5 0 0 1 
1 -1.5 -15 26.5 0 1 0 
1 -1.5 12.5 -29.5 0 0 1 
1 -1.5 -15 -26.5 0 1 0 
1 -1.5 12.5 -26.5 -1 0 0 
1 1.5 -15 -26.5 0 1 0 
1 -1.5 -12.5 -26.5 -1 0 0 
8 0 31
1 1.5 15.5 -29.5 0 -1 0 
1 1.5 15.5 -29.5 0 0 1 
8 0 31
1 1.5 -15.5 29.5 0 1 0 
1 1.5 -15.5 -29.5 0 0 1 
1 1.5 -12.5 -29.5 0 0 1 
1 1.5 -15 26.5 0 1 0 
1 1.5 12.5 -29.5 0 0 1 
1 -1.5 12.5 26.5 -1 0 0 
1 -1.5 -12.5 26.5 -1 0 0 
1 -1.5 -15.5 -29.5 1 0 0 
1 -1.5 -15.5 29.5 1 0 0 
1 -1.5 15.5 29.5 1 0 0 
1 -1.5 15.5 -29.5 1 0 0 
Polygon3D 0
PolygonOnTriangulations 0
Surfaces 22
1 -1.5 -15 -29.5 1 0 0 0 0 1 0 -1 0 
1 -1.5 12.5 -29.5 1 0 0 0 0 1 0 -1 0 
1 -1.5 -15.5 -29.5 1 0 0 0 0 1 0 -1 0 
1 -1.5 -12.5 -29.5 0 1 0 0 0 1 1 0 0 
1 -1.5 -15 26.5 1 0 0 0 0 1 0 -1 0 
1 -1.5 -15 26.5 0 0 1 1 0 0 0 1 0 
1 -1.5 12.5 -29.5 0 1 0 0 0 1 1 0 0 
1 -1.5 -15 -29.5 1 0 0 0 0 1 0 -1 0 
1 -1.5 -15 -26.5 0 0 1 1 0 0 0 1 0 
1 1.5 -15 -29.5 1 0 0 0 0 1 0 -1 0 
1 1.5 -15 -29.5 1 0 0 0 0 1 0 -1 0 
1 1.5 12.5 -29.5 1 0 0 0 0 1 0 -1 0 
1 1.5 -15.5 -29.5 1 0 0 0 0 1 0 -1 0 
1 1.5 -15 26.5 1 0 0 0 0 1 0 -1 0 
1 -1.5 -15.5 -29.5 0 1 0 0 0 1 1 0 0 
1 -1.5 -15.5 -29.5 0 0 1 1 0 0 0 1 0 
1 -1.5 -15.5 29.5 0 0 1 1 0 0 0 1 0 
1 -1.5 -15.5 29.5 0 0 1 1 0 0 0 1 0 
1 -1.5 12.5 29.5 0 0 1 1 0 0 0 1 0 
1 -1.5 15.5 -29.5 0 1 0 0 0 1 1 0 0 
1 -1.5 12.5 -29.5 0 0 1 1 0 0 0 1 0 
1 -1.5 -15 -29.5 0 0 1 1 0 0 0 1 0 
Triangulations 0

TShapes 64
Ve
1e-07
-1.5 15.5 -29.5
0 0

0101101
*
Ve
1e-07
-1.5 -15.5 -29.5
0 0

0101101
*
Ed
 1e-07 1 1 0
1  1 0 0 31
0

0101000
+64 0 -63 0 *
Ve
1e-07
-1.5 15.5 29.5
0 0

0101101
*
Ed
 1e-07 1 1 0
1  2 0 0 59
2  1 2 0 0 59
0

0101000
-61 2 +64 2 *
Ve
1e-07
-1.5 -15.5 29.5
0 0

0101101
*
Ed
 1e-07 1 1 0
1  3 0 0 31
0

0101000
+59 0 -61 0 *
Ed
 1e-07 1 1 0
1  4 0 0 59
2  2 3 0 0 59
0

0101000
-59 4 +63 4 *
Wi

0101100
-62 0 +60 1 -58 0 -57 3 *
Ve
1.5e-07
-1.5 -12.5 -26.5
0 0

0101101
*
Ve
1.5e-07
-1.5 -12.5 26.5
0 0

0101101
*
Ed
 1e-07 1 1 0
1  5 0 3 56
2  3 3 0 3 56
2  4 4 0 3 56
0

0101000
+55 4 -54 4 *
Ve
1.5e-07
-1.5 12.5 26.5
0 0

0101101
*
Ed
 1e-07 1 1 0
1  6 0 2.5 27.5
2  5 5 0 2.5 27.5
2  6 6 0 2.5 27.5
0

0101000
+54 6 -52 6 *
Ve
1.5e-07
-1.5 12.5 -26.5
0 0

0101101
*
Ed
 1e-07 1 1 0
1  7 0 3 56
2  7 2 0 3 56
2  8 7 0 3 56
0

0101000
+50 2 -52 2 *
Ed
 1e-07 1 1 0
1  8 0 2.5 27.5
2  9 8 0 2.5 27.5
2  10 9 0 2.5 27.5
0

0101000
+55 8 -50 8 *
Wi

0101100
+53 3 +51 5 -49 1 -48 7 *
Fa
0  0 1 0

0101000
+56 0 +47 0 *
Ve
1.5e-07
1.5 12.5 -26.5
0 0

0101101
*
Ed
 1.5e-07 1 1 0
1  9 0 -3 0
2  11 9 7 -3 0
2  12 7 1 -3 0
0

0101000
+45 0 -50 0 *
Ve
1.5e-07
1.5 -12.5 -26.5
0 0

0101101
*
Ed
 1e-07 1 1 0
1  10 0 2.5 27.5
2  13 10 0 2.5 27.5
2  14 9 0 2.5 27.5
0

0101000
+43 8 -45 8 *
Ed
 1.5e-07 1 1 0
1  11 0 -3 0
2  15 9 7 -3 0
2  16 4 3 -3 0
0

0101000
+43 0 -55 0 *
Wi

0101100
-48 7 +44 0 +42 7 -41 0 *
Fa
0  1e-07 9 7

0101000
+40 0 *
Ve
1e-07
1.5 15.5 -29.5
0 0

0101101
*
Ve
1e-07
1.5 -15.5 -29.5
0 0

0101101
*
Ed
 1e-07 1 1 0
1  12 0 0 31
0

0101000
+38 0 -37 0 *
Ve
1e-07
1.5 15.5 29.5
0 0

0101101
*
Ed
 1e-07 1 1 0
1  13 0 0 59
2  17 12 0 0 59
0

0101000
-35 2 +38 2 *
Ve
1e-07
1.5 -15.5 29.5
0 0

0101101
*
Ed
 1e-07 1 1 0
1  14 0 0 31
0

0101000
+33 0 -35 0 *
Ed
 1e-07 1 1 0
1  15 0 0 59
2  18 13 0 0 59
0

0101000
-33 4 +37 4 *
Wi

0101100
-36 0 +34 1 -32 0 -31 3 *
Ve
1.5e-07
1.5 -12.5 26.5
0 0

0101101
*
Ed
 1e-07 1 1 0
1  16 0 3 56
2  19 13 0 3 56
2  20 4 0 3 56
0

0101000
+43 4 -29 4 *
Ve
1.5e-07
1.5 12.5 26.5
0 0

0101101
*
Ed
 1e-07 1 1 0
1  17 0 2.5 27.5
2  21 14 0 2.5 27.5
2  22 6 0 2.5 27.5
0

0101000
+29 6 -27 6 *
Ed
 1e-07 1 1 0
1  18 0 3 56
2  23 12 0 3 56
2  24 7 0 3 56
0

0101000
+45 2 -27 2 *
Wi

0101100
+28 3 +26 5 -25 1 -42 7 *
Fa
0  0 11 0

0101000
+30 0 +24 0 *
Ed
 1.5e-07 1 1 0
1  19 0 -3 0
2  25 6 5 -3 0
2  26 7 1 -3 0
0

0101000
+27 0 -52 0 *
Wi

0101100
-25 1 -22 0 +49 1 +44 0 *
Fa
0  1e-07 7 1

0101000
+21 0 *
Ed
 1.5e-07 1 1 0
1  20 0 -3 0
2  27 6 5 -3 0
2  28 4 3 -3 0
0

0101000
+29 0 -54 0 *
Wi

0101100
-51 5 +22 0 +26 5 -19 0 *
Fa
0  1e-07 6 5

0101000
+18 0 *
Wi

0101100
-28 3 -19 0 +53 3 +41 0 *
Fa
0  1e-07 4 3

0101000
+16 0 *
Ed
 1e-07 1 1 0
1  21 0 0 3
2  29 16 0 0 3
0

0101000
-37 4 +63 4 *
Ed
 1e-07 1 1 0
1  22 0 0 3
2  30 17 0 0 3
0

0101000
-33 4 +59 4 *
Wi

0101100
-14 0 -31 0 +13 0 +57 0 *
Fa
0  1e-07 15 0

0101000
+12 0 *
Ed
 1e-07 1 1 0
1  23 0 0 3
2  31 19 0 0 3
0

0101000
-35 2 +61 2 *
Wi

0101100
-58 0 +13 3 +32 0 -10 1 *
Fa
0  0 18 0

0101000
+9 0 *
Ed
 1e-07 1 1 0
1  24 0 0 3
2  32 21 0 0 3
0

0101000
-38 2 +64 2 *
Wi

0101100
-7 0 -34 0 +10 0 +60 0 *
Fa
0  1e-07 20 0

0101000
+6 0 *
Wi

0101100
+14 3 -36 0 -7 1 +62 0 *
Fa
0  0 22 0

0101000
+4 0 *
Sh

0101100
-46 0 +39 0 +23 0 -20 0 -17 0 +15 0 -11 3 +8 0 +5 1 -3 0 
*
So

0100000
+2 0 *

+1 0 