DBRep_DrawableShape

CASCADE Topology V3, (c) Open Cascade
Locations 0
Curve2ds 6
8 0 25.58512813471371
1 6.2831853071795862 0 0 1 
1 0 0 0 1 
1 0 0 1 0 
7 1 1  6 6 2  -5.5511151231257827e-17 0.079987326141210957  1.6690784610682365 -0.13292344604568479 0.079987326141209958  1.0367296232096121 -0.15200899065964807 -0.084376529102640929  1.0383466998475064 -4.9960036108132044e-16 -0.21994202753946623  0.85353433019614966 0.1520089906596484 -0.084376529102640485  1.0383466998475068 0.13292344604568423 0.079987326141211068  1.0367296232096115
 0 6 6.2831853071795862 6
1 0 25.58512813471371 1 0 
7 1 1  6 6 2  -0.079987326128475811 -1.4273242898710237e-06  1.6690784610682365 -0.079984954191917756 -0.13292487334881109  1.0367296232096121 0.084379241595487597 -0.15200748498854999  1.0383466998475064 0.21994202750444858 3.9247292473731932e-06  0.85353433019614966 0.084373816582924199 0.15201049628234564  1.0383466998475068 -0.079989698065037307 0.13292201870023135  1.0367296232096115
 0 6 6.2831853071795862 6
Curves 3
7 1 0  10 41 5  0.80000000000000038 -1.0299920638612292e-17 0.080000000000000071  1.6690784610682365 0.79999999999996652 0.50265312810593843 0.19975745087983873  1.669078461068273 0.4491571771841002 1.0057180420283029 0.31947953948872509  1.6690784610680995 -0.25335255019324787 1.2299069371334679 0.4392859071216515  1.669078461068493 -1.0555517156082777 0.91582585479539591 0.55897118409924929  1.6690784610679255 -1.4805030616512851 3.4967854296743921e-07 0.67875071374083062  1.6690784610685043 -1.055552148724435 -0.91582535623142858 0.79853024350851287  1.6690784610680682 -0.25335313050594721 -1.2299068174558341 0.91821552039719512  1.6690784610683134 0.44915670174246208 -1.0057182541874374 1.0380218880728178  1.6690784610682099 0.79999976269802486 -0.50265350598626857 1.1577439766691631  1.6690784610682439 0.79999999998635674 -3.7788056047542012e-07 1.2775014275503813  1.669078461068235 0.80000000002627258 0.5026538570258211 1.3972546971798041  1.6690784610683111 0.44915717714391151 1.005716926463319 1.5169837538482018  1.6690784610679401 -0.25335255014362229 1.2299083234103958 1.6367806700744281  1.6690784610689031 -1.0555517156580947 0.91582444313370837 1.7564765170402186  1.6690784610672038 -1.4805030616109369 1.5260649795452485e-06 1.8762462696228444  1.6690784610693945 -1.0555521487501955 -0.91582614839307841 1.9960332361084721  1.6690784610672995 -0.25335313049323449 -1.2299063991159846 2.1157139400100506  1.6690784610687812 0.44915670173779004 -1.0057184161713457 2.2355225000084142  1.6690784610680178 0.79999976269913864 -0.50265346819751389 2.3552438339127115  1.6690784610682881 0.79999999998635585 -3.7788072838711162e-07 2.4750014275509216  1.6690784610682374 0.80000000002634164 0.50265385702591459 2.5947546971789182  1.6690784610682088 0.44915717714372611 1.0057169264634915 2.7144837538496756  1.6690784610683489 -0.25335255014351754 1.2299083234099282 2.834280670072121  1.6690784610679728 -1.0555517156578227 0.91582444313456102 2.9539765170431385  1.6690784610686331 -1.4805030616112806 1.5260634612170336e-06 3.0737462696202003  1.6690784610678098 -1.0555521487505528 -0.91582614839137322 3.1935332361100697  1.6690784610685832 -0.25335313049250036 -1.229906399117096 3.3132139400094873  1.669078461068024 0.4491567017373409 -1.005718416170873 3.4330225000084784  1.6690784610683269 0.799999762699241 -0.50265346819767664 3.5527438339127522  1.6690784610682166 0.79999999998637572 -3.7788071960409824e-07 3.6725014275508965  1.6690784610682348 0.80000000002624883 0.50265385702593934 3.7922546971791222  1.6690784610682707 0.44915717714387654 1.0057169264635593 3.9119837538489803  1.669078461068106 -0.25335255014341862 1.2299083234093844 4.0317806700735028  1.6690784610685576 -1.0555517156586849 0.91582444313580769 4.1514765170413011  1.6690784610676923 -1.4805030616098296 1.5260619133213244e-06 4.2712462696220639  1.66907846106888 -1.0555521487515975 -0.91582614838994258 4.3910332361081599  1.6690784610677079 -0.25335313049215613 -1.2299063991182559 4.510713940011577  1.6690784610685412 0.44915670173733485 -1.0057184161701485 4.63052250000655  1.6690784610681166 0.79999976269920725 -0.50265346819797252 4.7502438339139781  1.6690784610682641 0.79999999998634308 -3.7788064564297017e-07 4.870001427550446  1.6690784610682365
 0 11 6.3962820336784274 10 12.792564067356855 10 19.188846101035281 10 25.58512813471371 11
7 1 1  6 6 2  0.80000000000000038 -1.0299920638612292e-17 0.080000000000000071  1.6690784610682365 0.79999999999999938 -7.6132676551932121e-16 0.21292344604568481  1.0367296232096121 0.63563614475614849 -2.07407875596477e-16 0.23200899065964808  1.0383466998475064 0.50007064631932319 2.4882439858542327e-16 0.080000000000000515  0.85353433019614966 0.63563614475614894 -1.0332446703786857e-16 -0.072008990659648386  1.0383466998475068 0.80000000000000049 1.6946079955948434e-16 -0.052923446045684219  1.0367296232096115
 0 6 6.2831853071795862 6
7 1 1  6 6 2  0.79999999998634308 -3.7788064564297017e-07 4.870001427550446  1.6690784610682365 0.79999762804978491 -3.7787508106248979e-07 5.0029248735749672  1.0367296232096121 0.63563343226421321 3.9849967647758149e-07 5.0220074852147061  1.0383466998475064 0.50007064635676457 1.0388380035889107e-06 4.8699960754969087  0.85353433019614966 0.6356388572767766 3.9848694503386104e-07 4.7179895039438104  1.0383466998475068 0.80000237192290458 -3.7788621268968533e-07 4.7370779815259247  1.0367296232096115
 0 6 6.2831853071795862 6
Polygon3D 0
PolygonOnTriangulations 0
Surfaces 3
9 1 1 1 0 6 10 6 41 2 5 0.80000000000000049 -1.0299920638612292e-17 0.080000000000000071  1.6690784610682365 0.79999999999996652 0.50265312810593843 0.19975745087983876  1.669078461068273 0.4491571771841002 1.0057180420283029 0.31947953948872509  1.6690784610680995 -0.25335255019324787 1.2299069371334679 0.4392859071216515  1.669078461068493 -1.0555517156082777 0.91582585479539602 0.55897118409924929  1.6690784610679255 -1.4805030616512851 3.4967854296743921e-07 0.67875071374083062  1.6690784610685043 -1.055552148724435 -0.91582535623142858 0.79853024350851287  1.6690784610680682 -0.25335313050594721 -1.2299068174558339 0.91821552039719512  1.6690784610683134 0.44915670174246208 -1.0057182541874374 1.0380218880728178  1.6690784610682099 0.79999976269802486 -0.50265350598626857 1.1577439766691631  1.6690784610682439 0.79999999998635674 -3.7788056047542012e-07 1.2775014275503815  1.669078461068235 0.80000000002627258 0.5026538570258211 1.3972546971798041  1.6690784610683111 0.44915717714391151 1.005716926463319 1.5169837538482018  1.6690784610679401 -0.25335255014362229 1.2299083234103958 1.6367806700744283  1.6690784610689031 -1.0555517156580947 0.91582444313370837 1.7564765170402188  1.6690784610672038 -1.4805030616109369 1.5260649795452485e-06 1.8762462696228444  1.6690784610693945 -1.0555521487501955 -0.91582614839307841 1.9960332361084721  1.6690784610672995 -0.25335313049323449 -1.2299063991159846 2.1157139400100506  1.6690784610687812 0.44915670173779004 -1.0057184161713457 2.2355225000084142  1.6690784610680178 0.79999976269913864 -0.50265346819751389 2.3552438339127115  1.6690784610682881 0.79999999998635585 -3.7788072838711162e-07 2.4750014275509216  1.6690784610682374 0.80000000002634164 0.50265385702591459 2.5947546971789182  1.6690784610682088 0.44915717714372611 1.0057169264634915 2.7144837538496756  1.6690784610683489 -0.25335255014351754 1.2299083234099282 2.834280670072121  1.6690784610679728 -1.0555517156578227 0.91582444313456091 2.9539765170431389  1.6690784610686331 -1.4805030616112806 1.5260634612170336e-06 3.0737462696202003  1.6690784610678098 -1.0555521487505528 -0.91582614839137322 3.1935332361100697  1.6690784610685832 -0.25335313049250036 -1.229906399117096 3.3132139400094873  1.669078461068024 0.4491567017373409 -1.005718416170873 3.4330225000084784  1.6690784610683269 0.799999762699241 -0.50265346819767664 3.5527438339127517  1.6690784610682166 0.79999999998637583 -3.7788071960409824e-07 3.6725014275508965  1.6690784610682348 0.80000000002624883 0.50265385702593934 3.7922546971791222  1.6690784610682707 0.4491571771438766 1.0057169264635593 3.9119837538489803  1.669078461068106 -0.25335255014341862 1.2299083234093844 4.0317806700735028  1.6690784610685576 -1.0555517156586849 0.91582444313580769 4.1514765170413011  1.6690784610676923 -1.4805030616098296 1.5260619133213244e-06 4.2712462696220639  1.66907846106888 -1.0555521487515975 -0.91582614838994258 4.3910332361081599  1.6690784610677079 -0.25335313049215613 -1.2299063991182559 4.510713940011577  1.6690784610685412 0.4491567017373348 -1.0057184161701485 4.63052250000655  1.6690784610681166 0.79999976269920725 -0.50265346819797252 4.7502438339139781  1.6690784610682641 0.79999999998634319 -3.7788064564297022e-07 4.870001427550446  1.6690784610682365 
0.79999999999999938 -7.6132676551932121e-16 0.21292344604568481  1.0367296232096121 0.79998762004203727 0.50265238293590264 0.33268089692557634  1.0367296232096455 0.44919108333850194 1.0057168577434845 0.45240298537142642  1.0367296232094823 -0.25340868624782831 1.2299046869506773 0.57220935384472504  1.0367296232098724 -1.0555032817194736 0.91582418129673937 0.69189462853547479  1.0367296232092618 -1.4805008667716444 1.2754340363001909e-06 0.81167416220448652  1.0367296232099585 -1.0555974531281103 -0.91582431424517297 0.93145368706926002  1.0367296232093557 -0.25329624321475591 -1.2299054212334906 1.0511389681636507  1.036729623209752 0.44912146385659013 -1.0057164564835492 1.1709453333277688  1.0367296232095575 0.80000977072124413 -0.50265276086917743 1.2906674229146335  1.0367296232096255 0.79999762804999475 -3.778750317980778e-07 1.4104248735749036  1.0367296232096113 0.79999219546022715 0.50265311184489969 1.5301781432663157  1.0367296232096566 0.44918408095490847 1.0057157421962735 1.6499071996686099  1.0367296232094341 -0.25339998460948165 1.2299060732039717 1.7697041168747403  1.0367296232100154 -1.0555121426953953 0.91582276965974252 1.889399961397995  1.0367296232089773 -1.4804934826208036 2.4518008840208796e-06 2.009169718151699  1.0367296232103369 -1.0556024255014715 -0.91582510639535608 2.1289566796254071  1.0367296232090135 -0.25329361731282435 -1.2299050028985659 2.248637387799616  1.0367296232099679 0.44912044709161214 -1.00571661846578 2.3684459452544218  1.0367296232094656 0.80001000791893651 -0.50265272308092701 2.4881672801602686  1.0367296232096472 0.79999762804910213 -3.7787512478142452e-07 2.6079248735754432  1.0367296232096128 0.79999219546120903 0.50265311184506878 2.7276781432654258  1.0367296232095962 0.44918408095461626 1.0057157421953604 2.8474071996700991  1.0367296232096777 -0.25339998461077184 1.2299060732066009 2.9672041168724057  1.0367296232094558 -1.0555121426924914 0.91582276965569986 3.0868999614009502  1.0367296232098469 -1.4804934826238181 2.4518042776792807e-06 3.2066697181490156  1.0367296232093619 -1.0556024255001455 -0.91582510639684866 3.3264566796270501  1.0367296232098133 -0.25329361731272937 -1.2299050028983907 3.4461373877990162  1.0367296232094896 0.44912044709130605 -1.0057166184655715 3.5659459452545006  1.0367296232096652 0.8000100079189898 -0.50265272308108144 3.685667280160307  1.0367296232095995 0.79999762804916696 -3.7787512029239384e-07 3.8054248735754186  1.036729623209611 0.79999219546091993 0.50265311184508277 3.9251781432655752  1.0367296232096539 0.44918408095560108 1.0057157421958791 4.0449071996696304  1.0367296232094501 -0.25339998461306701 1.2299060732041045 4.1647041168732519  1.0367296232099852 -1.0555121426884377 0.91582276966130005 4.2843999613999717  1.0367296232090188 -1.4804934826299403 2.4517966501883025e-06 4.4041697181498884  1.0367296232102878 -1.055602425492373 -0.91582510638977022 4.5239566796259787  1.0367296232090597 -0.25329361732004013 -1.2299050029029137 4.6436373878005925  1.0367296232099354 0.44912044709622839 -1.0057166184637913 4.763445945252788  1.0367296232094823 0.80001000791667498 -0.50265272308140763 4.8831672801614801  1.0367296232096421 0.79999762804978491 -3.7787508106248979e-07 5.0029248735749672  1.0367296232096121 
0.63563614475614849 -2.07407875596477e-16 0.23200899065964808  1.0383466998475064 0.63562198724694396 0.39938290538847654 0.35175113334771257  1.0383466998475377 0.35691265662598526 0.79907941688633355 0.47153056706904706  1.0383466998473823 -0.20135991332548397 0.97722578292144813 0.59122112564249218  1.0383466998477597 -0.83863889514569134 0.72765339057572775 0.71103937657796945  1.0383466998471518 -1.1763107979058878 6.8992674435281419e-07 0.83075824074703575  1.0383466998478816 -0.83874563592026674 -0.72765463852457302 0.95047709458419294  1.0383466998471986 -0.20123004978237941 -0.9772268857006069 1.0702953530278241  1.0383466998476969 0.35683408605389144 -0.7990784916592063 1.1899859077290296  1.0383466998474211 0.63564784000765329 -0.39938250695591726 1.3097653427803049  1.0383466998475295 0.63563343226445279 3.984996181024018e-07 1.4295074852148868  1.0383466998475055 0.6356272195593069 0.39938213669492006 1.5492540373044876  1.0383466998475472 0.35690464890863893 0.79908059332343384 1.6690261227488041  1.0383466998473441 -0.20134996239159281 0.97722432099915701 1.7887266484589428  1.0383466998478705 -0.83864902829337606 0.72765487926813943 1.9085337526298511  1.0383466998469393 -1.1763023536102397 -5.5064976443874609e-07 2.0282629273752835  1.0383466998481499 -0.83875132218028337 -0.72765380314130379 2.1479739386793626  1.0383466998469746 -0.20122704687711412 -0.97722732686407887 2.2677970196566042  1.0383466998478224 0.35683292331063704 -0.79907832083817565 2.3874852624001637  1.0383466998473765 0.63564811126015042 -0.39938254680632274 2.5072654933268979  1.0383466998475372 0.63563343226343316 3.984998657143371e-07 2.6270074852143241  1.038346699847507 0.63562721956052548 0.39938213669462208 2.7467540373047772  1.0383466998474917 0.35690464890778806 0.7990805933229872 2.8665261227497698  1.0383466998475646 -0.20134996239170183 0.97722432100148782 2.9862266484560407  1.0383466998473685 -0.83864902829226606 0.72765487926401373 3.1060337526341089  1.038346699847708 -1.176302353611465 -5.5064572969940658e-07 3.2257629273713402  1.0383466998473005 -0.83875132217999049 -0.72765380314372541 3.3454739386817449  1.0383466998476605 -0.20122704687674364 -0.97722732686318514 3.4652970196557251  1.0383466998474222 0.35683292331035493 -0.79907832083832075 3.5849852624003375  1.0383466998475364 0.6356481112601724 -0.39938254680636537 3.704765493326871  1.0383466998475017 0.63563343226350288 3.9849985261717485e-07 3.8245074852143528  1.0383466998475053 0.63562721956021906 0.39938213669469946 3.9442540373046882  1.0383466998475401 0.35690464890902179 0.79908059332323178 4.0640261227502661  1.038346699847374 -0.20134996239513919 0.97722432099971401 4.1837266484542264  1.0383466998478252 -0.83864902828543708 0.72765487926835903 4.3035337526383302  1.038346699846977 -1.1763023536217769 -5.5065174569093097e-07 4.4232629273645285  1.0383466998481319 -0.83875132216803916 -0.72765380313843842 4.5429739386895989  1.0383466998469766 -0.20122704688694171 -0.97722732686596347 4.6627970196491386  1.0383466998478295 0.35683292331665911 -0.79907832083786201 4.7824852624043093  1.0383466998473692 0.63564811125740728 -0.39938254680599172 4.9022654933252436  1.0383466998475401 0.63563343226421321 3.9849967647758149e-07 5.0220074852147061  1.0383466998475064 
0.50007064631932319 2.4882439858542327e-16 0.080000000000000515  0.85353433019614966 0.50007064631929088 0.31420831754081574 0.1997295166599895  0.85353433019618019 0.28075963624326306 0.62864862497416285 0.31955624833856788  0.85353433019603231 -0.15835981420227024 0.76882184419578159 0.43915128712207574  0.85353433019639013 -0.65983266039628696 0.57245430580153733 0.55907921828442153  0.85353433019581681 -0.92542094768112926 -9.6130477883591033e-07 0.67874803783759141  0.85353433019648661 -0.65983146971020346 -0.57245567641606443 0.79841685706430598  0.85353433019589053 -0.15835821885344126 -0.7688221732014423 0.9183447884556617  0.85353433019630154 0.28076094328688622 -0.62864804172472699 1.0379398271306748  0.85353433019608427 0.50007129869039557 -0.31420727870346721 1.1577665588399564  0.85353433019616731 0.500070646356777 1.038837907310782e-06 1.2774960754972946  0.85353433019614899 0.50007064624665554 0.31420631365490093 1.3972370869046702  0.85353433019619829 0.2807596363555202 0.62865169179221103 1.5170446625648428  0.85353433019595737 -0.15835981434317206 0.76881803315959474 1.6366656843939369  0.85353433019658509 -0.65983266025218934 0.57245818662237413 1.7565645573792814  0.85353433019546754 -0.92542094780057105 -4.1953246704733637e-06 1.876260255267906  0.8535343301969236 -0.65983146963082473 -0.572453498675766 1.9959086300325271  0.8535343301955074 -0.15835821889464274 -0.76882332326338398 2.1158491331388003  0.85353433019653913 0.28076094330258705 -0.62864759641339674 2.2354381448427523  0.85353433019598457 0.50007129868679212 -0.3142073825887402 2.3552669512952771  0.85353433019619029 0.500070646356777 1.0388383406842797e-06 2.4749960754958229  0.8535343301961501 0.50007064624694231 0.31420631365411855 2.594737086905905  0.85353433019613301 0.28075963635428569 0.62865169179351466 2.7145446625654852  0.85353433019621883 -0.1583598143405659 0.76881803315781116 2.8341656843903249  0.8535343301959849 -0.6598326602555602 0.57245818662434489 2.9540645573849833  0.85353433019640201 -0.9254209477975468 -4.1953265541371616e-06 3.0737602552625414  0.85353433019587288 -0.65983146963304606 -0.57245349867447182 3.193408630035782  0.85353433019637481 -0.15835821889340701 -0.76882332326382952 3.3133491331375815  0.85353433019601455 0.28076094330216028 -0.62864759641340417 3.4329381448430176  0.85353433019620584 0.50007129868685585 -0.31420738258870218 3.5527669512952036  0.853534330196137 0.5000706463567971 1.0388383152637503e-06 3.672496075495896  0.85353433019614877 0.50007064624687225 0.31420631365424662 3.7922370869056259  0.85353433019617808 0.28075963635460743 0.62865169179311275 3.9120446625667538  0.85353433019603964 -0.15835981434155363 0.76881803315871733 4.0316656843863559  0.85353433019641434 -0.65983266025355714 0.57245818662256698 4.1515645573934581  0.85353433019570923 -0.92542094780056705 -4.1953235505961693e-06 4.2712602552494134  0.85353433019667346 -0.65983146962958017 -0.57245349867818018 4.3909086300509852  0.85353433019570257 -0.15835821889603047 -0.76882332326059988 4.5108491331242666  0.85353433019642433 0.28076094330333434 -0.62864759641548817 4.6304381448516772  0.85353433019603298 0.5000712986866005 -0.31420738258769887 4.7502669512912679  0.85353433019617819 0.50007064635676457 1.0388380035889107e-06 4.8699960754969087  0.85353433019614966 
0.63563614475614894 -1.0332446703786857e-16 -0.072008990659648386  1.0383466998475068 0.63565030226526065 0.39938460971600936 0.047733152028435644  1.0383466998475508 0.3568351076239587 0.79908212554236602 0.16751258612199438  1.0383466998473347 -0.20123152085248786 0.97723092946259649 0.28720314277502013  1.038346699847867 -0.83874967148752155 0.72765721814528439 0.40702139893809086  1.0383466998469897 -1.1763158179597073 -1.4274296834796861e-06 0.52674025389929779  1.0383466998480624 -0.83864201723022291 -0.7276570217204783 0.64645911894682651  1.038346699847051 -0.20136016045868538 -0.97723007909251203 0.76627736777376843  1.0383466998477859 0.35691468094718998 -0.79908260330644487 0.88596792821787629  1.0383466998473847 0.63562494999755836 -0.39938421116235656 1.0057473610041623  1.038346699847539 0.63563885727656233 3.9848697572675718e-07 1.1254895039439923  1.0383466998475059 0.63564506989708502 0.3993838410473422 1.2452360558918139  1.0383466998475397 0.35684311542799219 0.79908330193873711 1.3650081419447406  1.0383466998473738 -0.20124147189612951 0.97722946759465501 1.4847086654137294  1.0383466998478084 -0.83873953822624481 0.727658706780971 1.6045157751710009  1.038346699847033 -1.1763242623508396 -2.6679617156614597e-06 1.7242449403766678  1.0383466998480473 -0.83863633090585155 -0.72765618636267237 1.8439559631436282  1.0383466998470583 -0.20136316339771626 -0.97723052024529633 1.9637790343488466  1.0383466998477762 0.35691584370335089 -0.79908243248902366 2.0834672829098206  1.0383466998473936 0.63562467874215778 -0.39938425101165603 2.2032475115458969  1.0383466998475344 0.63563885727757996 3.9848705077880943e-07 2.3229895039434303  1.0383466998475075 0.63564506989624281 0.39938384104686719 2.4427360558921132  1.0383466998474895 0.35684311542728503 0.79908330194082433 2.5625081419456741  1.0383466998475763 -0.20124147189281871 0.97722946758976992 2.682208665410883  1.0383466998473443 -0.83873953823149905 0.72765870678817612 2.8020157751751933  1.0383466998477473 -1.1763242623456378 -2.6679689328105386e-06 2.9217449403727778  1.0383466998472544 -0.83863633090955747 -0.72765618635786711 3.0414559631459759  1.0383466998477051 -0.20136316339585203 -0.97723052024724066 3.1612790343479897  1.0383466998473914 0.35691584370274465 -0.79908243248863386 3.2809672829099794  1.0383466998475517 0.63562467874228612 -0.39938425101168823 3.4007475115458758  1.0383466998474982 0.63563885727755087 3.9848704364703596e-07 3.5204895039434598  1.0383466998475057 0.63564506989639402 0.39938384104694807 3.640236055892049  1.038346699847533 0.35684311542652458 0.79908330194022092 3.7600081419460656  1.0383466998474047 -0.2012414718903543 0.97722946759199258 3.8797086654093169  1.0383466998477526 -0.83873953823691405 0.72765870678309519 3.999515775179014  1.038346699847098 -1.1763242623373638 -2.6679611517118566e-06 4.1192449403664426  1.0383466998479898 -0.83863633091861756 -0.72765618636577001 4.2389559631534048  1.0383466998471018 -0.20136316338822574 -0.97723052024209467 4.358779034341679  1.0383466998477493 0.35691584369771157 -0.79908243249066102 4.4784672829138312  1.0383466998474067 0.63562467874474682 -0.39938425101124403 4.5982475115442769  1.0383466998475308 0.6356388572767766 3.9848694503386104e-07 4.7179895039438104  1.0383466998475068 
0.80000000000000049 1.6946079955948434e-16 -0.052923446045684219  1.0367296232096115 0.8000123799578589 0.50265387327596078 0.066834004834185556  1.0367296232096497 0.44912327102980998 1.0057192263132388 0.18655609360570358  1.0367296232094627 -0.25329641413875281 1.2299091873158976 0.3063624603992765  1.0367296232099241 -1.0556001494972818 0.91582752829454683 0.42604773966193532  1.036729623209149 -1.4805052565304284 -5.7607710930327946e-07 0.54582726527844549  1.0367296232101331 -1.0555068443210336 -0.9158263982179613 0.66560679994667127  1.0367296232091607 -0.2534100177972009 -1.2299082136779078 0.78529207263142164  1.0367296232099006 0.4491919396284576 -1.0057200518914036 0.9050984428175779  1.0367296232094827 0.79998975467476607 -0.50265425110336082 1.0248205304237614  1.0367296232096452 0.80000237192271761 -3.7788608716043254e-07 1.1445779815258601  1.0367296232096106 0.80000780459229648 0.50265460220672886 1.2643312510933022  1.0367296232096574 0.44913027333299627 1.0057181107304005 1.3840603080277565  1.0367296232094254 -0.25330511567793668 1.2299105736167526 1.5038572232741976  1.036729623210038 -1.0555912886205683 0.91582611660778057 1.6235530726823157  1.0367296232089345 -1.4805126406012421 6.0032897803482393e-07 1.7433228210941423  1.0367296232103929 -1.0555018719988023 -0.91582719039076987 1.8631097925913875  1.0367296232089558 -0.25341264367373201 -1.2299077953334112 1.9827904922205959  1.0367296232100089 0.4491929563840158 -1.0057202138768939 2.1025990547623539  1.0367296232094445 0.799989517479329 -0.50265421331411242 2.2223203876651683  1.0367296232096519 0.80000237192360824 -3.7788633184838299e-07 2.3420779815263999  1.0367296232096121 0.8000078045914818 0.50265460220675728 2.4618312510924114  1.0367296232095835 0.44913027333282812 1.0057181107316309 2.5815603080292426  1.0367296232097247 -0.25330511567632435 1.2299105736132547 2.7013572232718799  1.0367296232093446 -1.0555912886229113 0.91582611661346458 2.8210530726852303  1.0367296232100269 -1.4805126405991276 6.0032243551656067e-07 2.9408228210915222  1.0367296232091425 -1.0555018720006708 -0.91582719038557547 3.0606097925929512  1.0367296232100098 -0.25341264367237626 -1.2299077953360313 3.1802904922200654  1.0367296232093595 0.44919295638338891 -1.0057202138760892 3.3000990547623923  1.0367296232097223 0.79998951747949265 -0.50265421331428395 3.4198203876652209  1.0367296232095842 0.80000237192358514 -3.7788632280993158e-07 3.5395779815263744  1.0367296232096104 0.8000078045915513 0.50265460220676272 3.6593312510925715  1.0367296232096557 0.44913027333220112 1.0057181107314719 3.7790603080287402  1.0367296232094398 -0.25330511567362674 1.2299105736140692 3.8988572232727714  1.0367296232100118 -1.0555912886295753 0.91582611661103019 4.0185530726842442  1.036729623208964 -1.4805126405887603 6.0032695364873982e-07 4.1383228210923084  1.0367296232103633 -1.0555018720114053 -0.91582719039041838 4.2581097925920597  1.0367296232089804 -0.253412643664159 -1.2299077953332835 4.3777904922214477  1.0367296232099941 0.44919295637848516 -1.0057202138766239 4.497599054760804  1.0367296232094518 0.79998951748171643 -0.50265421331451987 4.6173203876663518  1.0367296232096497 0.80000237192290458 -3.7788621268968533e-07 4.7370779815259247  1.0367296232096115 

0 6
6.2831853071795862 6

0 11
6.3962820336784274 10
12.792564067356855 10
19.188846101035281 10
25.58512813471371 11

1 0.72001267385878942 -8.7647151699489923e-17 0.080000000000000016 -0 -1 -2.0966239318022985e-15 0 2.0966239318022985e-15 -1 1 -0 0 
1 0.72001267385875944 -5.9884983626735161e-11 4.8700000002261561 -4.7235078246333902e-06 -0.99999999998884426 -4.2413547139083161e-11 -0.99999999998884426 4.7235078246333902e-06 0 2.0034072178191645e-16 4.2413547138610007e-11 -1 
Triangulations 0

TShapes 13
Ve
1.18308148587568e-05
0.8 -1.02999206386123e-17 0.0800000000000001
0 0

0101101
*
Ve
1.18308148587568e-05
0.799999999986343 -3.7788064564297e-07 4.87000142755045
0 0

0101101
*
Ed
 1e-07 1 1 0
1  1 0 0 25.5851281347137
3  1 2G1 1 0 0 25.5851281347137
0

0101000
+13 0 -12 0 *
Ed
 1e-07 1 1 0
1  2 0 0 6.28318530717959
2  3 1 0 0 6.28318530717959
2  4 2 0 0 6.28318530717959
0

0101000
+13 0 -13 0 *
Ed
 1e-07 1 1 0
1  3 0 0 6.28318530717959
2  5 1 0 0 6.28318530717959
2  6 3 0 0 6.28318530717959
0

0101000
+12 0 -12 0 *
Wi

0101100
+11 0 +10 0 -11 0 -9 0 *
Fa
0  1e-07 1 0

0101000
+8 0 *
Wi

0101100
+10 0 *
Fa
0  1e-07 2 0

0101000
+6 0 *
Wi

0101100
+9 0 *
Fa
0  1e-07 3 0

0101000
+4 0 *
Sh

0101100
+7 0 -5 0 +3 0 *
So

0100100
-2 0 *

+1 0 