DBRep_DrawableShape

CASCADE Topology V3, (c) Open Cascade
Locations 2
1
              1              -0               0              -0 
              0               1               0               0 
             -0               0               1              -0 
2  1 -1 0
Curve2ds 30
1 0 0 1 0 
1 0 0 1 0 
1 0 0 0 1 
1 5.5 0 0 -1 
1 0 0 1 0 
1 0 -4.4000000000000004 1 0 
1 0 0 0 1 
1 0 0 0 -1 
1 0 0 0 1 
1 0 0 1 0 
1 0 4 1 0 
1 0 0 1 0 
1 5.5 0 0 1 
1 0 0 1 0 
2 2.75 2 1 0 -0 1 0.65000000000000002
1 0 0.29999999999999982 1 0 
1 5.5 0 0 1 
1 0 4.4000000000000004 1 0 
1 4 0 0 1 
1 5.5 0 0 -1 
1 0 0 0 1 
1 0 4.4000000000000004 1 0 
1 0 4 1 0 
1 0 -4.4000000000000004 1 0 
2 2.75 2 1 0 -0 1 0.65000000000000002
1 0 4.7000000000000002 1 0 
1 4 0 0 1 
1 0 0 0 -1 
1 6.2831853071795862 -0 0 1 
1 0 -0 0 1 
Curves 15
1 -2 -2.2000000000000002 -2.75 0 0 1 
1 -2 -2.2000000000000002 2.75 0 1 0 
1 -2 2.2000000000000002 -2.75 0 0 1 
1 -2 -2.2000000000000002 -2.75 0 1 0 
1 -2 -2.2000000000000002 -2.75 1 0 0 
1 2 -2.2000000000000002 -2.75 0 0 1 
1 -2 -2.2000000000000002 2.75 1 0 0 
2 0 -2.2000000000000002 0 0 1 0 0 -0 1 1 0 -0 0.65000000000000002
1 -2 2.2000000000000002 2.75 1 0 0 
1 2 -2.2000000000000002 2.75 0 1 0 
1 -2 2.2000000000000002 -2.75 1 0 0 
1 2 2.2000000000000002 -2.75 0 0 1 
2 0 2.2000000000000002 0 0 1 0 0 -0 1 1 0 -0 0.65000000000000002
1 2 -2.2000000000000002 -2.75 0 1 0 
1 -1.5920408388915593e-16 -2.5 0.65000000000000002 0 1 0 
Polygon3D 0
PolygonOnTriangulations 0
Surfaces 7
1 -2 -2.2000000000000002 -2.75 1 0 0 0 0 1 0 -1 0 
1 -2 -2.2000000000000002 -2.75 0 1 0 0 0 1 1 0 0 
1 -2 -2.2000000000000002 2.75 0 0 1 1 0 0 0 1 0 
1 -2 2.2000000000000002 -2.75 0 1 0 0 0 1 1 0 0 
1 -2 -2.2000000000000002 -2.75 0 0 1 1 0 0 0 1 0 
1 2 -2.2000000000000002 -2.75 1 0 0 0 0 1 0 -1 0 
2 0 -2.5 0 0 1 0 0 -0 1 1 0 -0 0.65000000000000002
Triangulations 0

TShapes 44
Ve
1e-07
-2 -2.2 2.75
0 0

0101101
*
Ve
1e-07
-2 -2.2 -2.75
0 0

0101101
*
Ed
 1e-07 1 1 0
1  1 0 0 5.5
2  1 2 0 0 5.5
2  2 1 0 0 5.5
0

0101000
-44 2 +43 2 *
Ve
1e-07
-2 2.2 2.75
0 0

0101101
*
Ed
 1e-07 1 1 0
1  2 0 0 4.4
2  3 3 0 0 4.4
2  4 1 0 0 4.4
0

0101000
-41 2 +44 2 *
Ve
1e-07
-2 2.2 -2.75
0 0

0101101
*
Ed
 1e-07 1 1 0
1  3 0 0 5.5
2  5 4 0 0 5.5
2  6 1 0 0 5.5
0

0101000
-41 2 +39 2 *
Ed
 1e-07 1 1 0
1  4 0 0 4.4
2  7 5 0 0 4.4
2  8 1 0 0 4.4
0

0101000
-39 2 +43 2 *
Wi

0101100
-42 0 -40 0 +38 0 +37 0 *
Fa
0  1e-07 1 0

0101000
+36 0 *
Ve
1e-07
2 -2.2 -2.75
0 0

0101101
*
Ed
 1e-07 1 1 0
1  5 0 0 4
2  9 2 0 0 4
2  10 5 0 0 4
0

0101000
-34 2 +43 2 *
Ve
1e-07
2 -2.2 2.75
0 0

0101101
*
Ed
 1e-07 1 1 0
1  6 0 0 5.5
2  11 2 0 0 5.5
2  12 6 0 0 5.5
0

0101000
-32 2 +34 2 *
Ed
 1e-07 1 1 0
1  7 0 0 4
2  13 2 0 0 4
2  14 3 0 0 4
0

0101000
-32 2 +44 2 *
Wi

0101100
-33 1 -31 1 +42 1 +30 1 *
Ve
1.00000000159204e-07
-1.59204083889156e-16 -2.2 0.65
0 0

0101101
*
Ed
 1e-07 1 1 0
1  8 0 0 6.28318530717959
2  15 2 1 0 6.28318530717959
2  16 7 0 0 6.28318530717959
0

0101100
+28 0 -28 0 *
Wi

0101100
-27 0 *
Fa
0  1e-07 2 1

0101000
+29 0 +26 0 *
Ve
1e-07
2 2.2 2.75
0 0

0101101
*
Ed
 1e-07 1 1 0
1  9 0 0 4
2  17 4 0 0 4
2  18 3 0 0 4
0

0101000
-24 2 +41 2 *
Ed
 1e-07 1 1 0
1  10 0 0 4.4
2  19 3 0 0 4.4
2  20 6 0 0 4.4
0

0101000
-24 2 +32 2 *
Wi

0101100
-40 0 -23 0 +22 0 +30 0 *
Fa
0  1e-07 3 0

0101000
+21 0 *
Ve
1e-07
2 2.2 -2.75
0 0

0101101
*
Ed
 1e-07 1 1 0
1  11 0 0 4
2  21 4 0 0 4
2  22 5 0 0 4
0

0101000
-19 2 +39 2 *
Ed
 1e-07 1 1 0
1  12 0 0 5.5
2  23 4 0 0 5.5
2  24 6 0 0 5.5
0

0101000
-24 2 +19 2 *
Wi

0101100
-18 1 -17 1 +38 1 +23 1 *
Ve
1.00000000159204e-07
-1.59204083889156e-16 2.2 0.65
0 0

0101101
*
Ed
 1e-07 1 1 0
1  13 0 0 6.28318530717959
2  25 4 1 0 6.28318530717959
2  26 7 0 0 6.28318530717959
0

0101100
+15 0 -15 0 *
Wi

0101100
-14 0 *
Fa
0  1e-07 4 1

0101000
+16 0 +13 0 *
Ed
 1e-07 1 1 0
1  14 0 0 4.4
2  27 5 0 0 4.4
2  28 6 0 0 4.4
0

0101000
-19 2 +34 2 *
Wi

0101100
-37 0 -18 0 +11 0 +33 0 *
Fa
0  1e-07 5 0

0101000
+10 0 *
Wi

0101100
-31 0 -22 0 +17 0 +11 0 *
Fa
0  1e-07 6 0

0101000
+8 0 *
Ed
 1e-07 1 1 0
1  15 0 0.3 4.7
3  29 30CN 7 0 0.3 4.7
0

0101000
+28 0 -15 0 *
Wi

0101100
-14 0 +6 0 +27 0 -6 0 *
Fa
0  1e-07 7 0

0101000
+5 0 *
Sh

0101100
-35 1 -25 0 +20 1 +12 0 -9 1 +7 1 -4 0 *
So

0100000
+3 0 *
Co

0100000
+2 0 *

+1 0 