DBRep_DrawableShape

CASCADE Topology V3, (c) Open Cascade
Locations 4
1
              1              -0               0              -0 
              0               1               0               0 
             -0               0               1              -0 
2  1 -1 0
1
              1              -0               0              -0 
              0               1               0               0 
             -0               0               1              -0 
2  3 -1 0
Curve2ds 106
1 0 0 0 1 
1 0 0 1 0 
1 -1.5 -6.5 0 1 
8 103.5 105.20000060000001
1 3.5363837732895544 0 0 1 
8 103.5 105.20000060000001
1 -103.7 4.1999999999999993 1 0 
1 -105.2 -2.3000000000000007 1 0 
8 -13.5 4.5
1 -4.5 -2 -1 0 
8 -13.5 4.5
1 1.5 4.5 0 -1 
1 0 -2 0 -1 
1 0 0 1 0 
1 0 0 1 0 
1 -1.5 -6.5 1 0 
1 2 0 0 1 
1 0 0 1 0 
1 0.5 -6.5 0 1 
1 0 0 1 0 
1 0 0 1 0 
1 0 0 1 0 
1 8.9950025294648608 0 -1 -0 
2 7 2.5 -0.90905934288631329 0.41666666666665853 0.41666666666665853 0.90905934288631329 6.0000000000000009
1 0 0 1 0 
1 0 5 1 0 
1 0 5 1 0 
1 0.5 -6.5 0 1 
1 0 18 1 0 
1 0 0 1 0 
1 -1.5 11.5 1 0 
1 0 -2 0 -1 
8 103.5 105.20000060000001
1 5.8883941874798245 0 0 1 
8 103.5 105.20000060000001
1 -103.7 13.800000000000001 1 0 
1 -105.2 7.3000000000000007 1 0 
1 0 2 1 0 
2 7 2.5 1 0 -0 1 2.1800000000000068
1 6.2831853071795862 -0 0 1 
1 0 -0 0 1 
8 0.29999999999999982 4.2999999999999998
1 6.2831853071795862 1.7000000000000002 0 1 
8 0.29999999999999982 4.2999999999999998
1 0 1.7000000000000002 0 1 
1 6.2831853071795862 6 -1 -0 
2 8.5 9.0000000000000089 1 -4.3700699559137538e-15 -4.3700699559137538e-15 -1 2.1800000000000068
1 0 0 0 1 
1 0 4 1 0 
1 0 0 0 1 
8 103.5 105.20000060000001
1 2.7468015338900318 0 0 1 
8 103.5 105.20000060000001
1 -103.7 4.1999999999999993 1 0 
1 -103.7 4.1999999999999993 1 0 
8 -13.5 4.5
1 -4.5 2 -1 0 
8 -13.5 4.5
1 1.5 4.5 0 -1 
1 1.5 4.5 0 -1 
1 0 0 1 0 
1 0 -4 1 0 
1 0 0 1 0 
1 2 0 0 1 
1 0 4 1 0 
1 2 0 0 1 
1 0 -4 1 0 
1 0 0 1 0 
1 1.5 6.5 1 0 
1 3.5713680848943121 4 1 0 
2 8.5 9 -0.90905934288631329 -0.41666666666665869 0.41666666666665869 -0.90905934288631329 6.0000000000000018
1 0 -4 1 0 
1 0 5 1 0 
1 1.5 11.5 1 0 
1 2 0 0 1 
1 0 18 1 0 
1 0 -4 1 0 
1 0 18 1 0 
1 1.5 4.5 0 -1 
8 103.5 105.20000060000001
1 0.39479111969976144 0 0 1 
8 103.5 105.20000060000001
1 -103.7 13.800000000000001 1 0 
1 -103.7 13.800000000000001 1 0 
1 18 0 0 1 
1 2 0 0 -1 
8 -1 3
1 9 -1 0 1 
8 -1 3
1 1.5 -1 0 -1 
8 -4 0
1 0.5 0 0 1 
8 -4 0
1 11.5 0 0 -1 
8 -5.999999999062311e-07 4.0000005999999999
1 1.5456439426821476 0 0 -1 
8 -5.999999999062311e-07 4.0000005999999999
1 2.7118172222852652 0 0 1 
8 0 4
1 8.9950025294648519 0 0 1 
8 -5.999999999062311e-07 4.0000005999999999
1 1.5456439426821476 0 0 -1 
8 -5.999999999062311e-07 4.0000005999999999
1 3.571368084894321 0 0 1 
8 0 4
1 3.571368084894321 0 0 1 
8 -4 0
1 0.5 0 0 1 
8 -4 0
1 6.5 0 0 -1 
1 0 0 0 1 
1 2 0 0 -1 
8 -1 3
1 -9 -1 0 1 
8 -1 3
1 1.5 -1 0 -1 
1 0 105 1 0 
2 0 0 1 0 -0 1 9.5
2 0 0 1 0 -0 1 5.2000000000000002
1 0 105.2 1 0 
1 6.2831853071795862 -0 0 1 
1 0 -0 0 1 
1 0 0 1 0 
2 0 0 1 0 -0 1 9.5
2 0 0 1 0 -0 1 5.2000000000000002
1 0 0.20000000000000001 1 0 
1 0 103.7 1 0 
2 9 2 1 0 -0 1 5.2000000000000002
1 0 103.7 1 0 
2 9 2 1 0 -0 1 5.2000000000000002
1 6.2831853071795862 -0 0 1 
1 0 -0 0 1 
1 0 103.7 1 0 
2 9 2 1 0 -0 1 5.2000000000000002
Curves 40
1 -9 -2 103.5 1 0 0 
1 -4.8000000000000007 -2 -0.20000000000000001 0 0 1 
1 -4.5 -2 105 -1 0 0 
1 -9 -2 103.5 0 0 1 
1 -9 -2 105.5 1 0 0 
1 -2.5 -2 105 0 0 1 
8 0 5.4236344445705491
2 0 -2 112 0 -1 0 0.41666666666665853 0 -0.90905934288631329 0.90905934288631329 0 0.41666666666665853 6
1 2.5 -2 105 0 0 1 
1 9 -2 103.5 0 0 1 
1 4.8000000000000007 -2 -0.20000000000000001 0 0 1 
2 0 -2 112 0 1 0 0 -0 1 1 0 -0 2.1800000000000002
1 -5.3394600442824689e-16 -2.2999999999999998 114.18000000000001 0 1 0 
2 8.992806499463768e-15 2 112 0 -1 0 -4.3700699559137538e-15 0 1 -1 -0 -4.3700699559137538e-15 2.1800000000000082
1 -9 2 103.5 1 0 0 
1 -4.8000000000000007 2 -0.20000000000000001 0 0 1 
1 -4.5 2 105 -1 0 0 
1 -9 2 103.5 0 0 1 
1 -9 2 105.5 1 0 0 
1 -2.5 2 105 0 0 1 
8 0 5.4236344445705491
2 0 2 112 0 1 0 -0.41666666666665869 0 -0.90905934288631329 -0.90905934288631329 0 0.41666666666665869 6
1 2.5 2 105 0 0 1 
1 9 2 103.5 0 0 1 
1 4.8000000000000007 2 -0.20000000000000001 0 0 1 
1 9 -2 105.5 0 1 0 
1 9 -1 105 0 1 0 
1 2.5 -2 105.5 0 -1 0 
1 2.5 -2 106.54564394268215 0 1 0 
1 -2.5 -2 106.54564394268215 0 1 0 
1 -2.5 -2 105.5 0 -1 0 
1 -9 -2 105.5 0 1 0 
1 -9 -1 105 0 1 0 
2 0 0 105 0 0 1 1 0 -0 -0 1 0 9.5
2 0 0 105 0 0 1 1 0 -0 -0 1 0 5.2000000000000002
1 9.5 -2.326828918379971e-15 0 0 0 1 
2 0 0 0 0 0 1 1 0 -0 -0 1 0 9.5
2 0 0 0 0 0 1 1 0 -0 -0 1 0 5.2000000000000002
2 0 0 103.5 0 0 1 1 0 -0 -0 1 0 5.2000000000000002
2 0 0 103.5 0 0 1 1 0 -0 -0 1 0 5.2000000000000002
1 5.2000000000000002 -1.2736326711132475e-15 -0.20000000000000001 0 0 1 
2 0 0 103.5 0 0 1 1 0 -0 -0 1 0 5.2000000000000002
Polygon3D 0
PolygonOnTriangulations 0
Surfaces 20
1 -2.5 -2 105 0 1 0 0 0 1 1 0 0 
1 -9 -2 103.5 0 1 0 0 0 1 1 0 0 
1 -9 -2 103.5 0 0 1 1 0 0 0 1 0 
2 0 0 -0.20000000000000001 0 0 1 1 0 -0 -0 1 0 5.2000000000000002
1 0 0 105 0 0 1 1 0 -0 -0 1 0 
1 -9 -2 103.5 1 0 0 0 0 1 0 -1 0 
1 -9 -2 105.5 0 0 1 1 0 0 0 1 0 
1 -2.5 -2 105 1 0 0 0 0 1 0 -1 0 
1 -2.5 -2 105 0 1 0 0 0 1 1 0 0 
10 3.1415926535897936 9.4247779607693793 -2e+100 2e+100
2 0 -2 112 0 1 0 0 -0 1 1 0 -0 6
1 2.5 -2 105 1 0 0 0 0 1 0 -1 0 
1 9 -2 103.5 1 0 0 0 0 1 0 -1 0 
2 0 -4 112 0 1 0 0 -0 1 1 0 -0 2.1800000000000002
2 0 -2.2999999999999998 112 0 1 0 0 -0 1 1 0 -0 2.1800000000000002
1 -9 2 103.5 0 1 0 0 0 1 1 0 0 
1 -9 2 103.5 0 1 0 0 0 1 1 0 0 
1 -2.5 2 105 0 1 0 0 0 1 1 0 0 
2 0 -2 112 0 1 0 0 -0 1 1 0 -0 6
2 0 0 0 0 0 1 1 0 -0 -0 1 0 9.5
1 0 0 0 0 0 1 1 0 -0 -0 1 0 
Triangulations 0

TShapes 111
Ve
1.00000003202373e-07
-4.8 -2 103.5
0 0

0101101
*
Ve
1.00000001776357e-07
4.8 -2 103.5
0 0

0101101
*
Ed
 1e-07 1 1 0
1  1 0 4.2 13.8
2  1 2 0 4.2 13.8
2  2 3 0 4.2 13.8
2  3 1 2 4.2 13.8
0

0101000
+111 2 -110 2 *
Ve
1.50000001554312e-07
-4.8 -2 105
0 0

0101101
*
Ed
 1e-07 1 1 0
1  2 0 103.7 105.2
2  4 4 0 103.7 105.2
2  5 2 1 103.7 105.2
2  6 1 0 103.7 105.2
0

0101000
+111 0 -108 0 *
Ve
1.5e-07
-9 -2 105
0 0

0101101
*
Ed
 1.5e-07 1 1 0
1  3 0 0.300000000000001 4.5
2  7 5 0 0.300000000000001 4.5
2  8 2 1 0.300000000000001 4.5
2  9 1 0 0.300000000000001 4.5
0

0101000
+108 0 -106 0 *
Ve
1e-07
-9 -2 105.5
0 0

0101101
*
Ed
 1e-07 1 1 0
1  4 0 1.5 2
2  10 2 0 1.5 2
2  11 6 0 1.5 2
2  12 1 2 1.5 2
0

0101000
+106 2 -104 2 *
Ve
1.5e-07
-2.5 -2 105.5
0 0

0101101
*
Ed
 1e-07 1 1 0
1  5 0 0 6.5
2  13 2 0 0 6.5
2  14 7 0 0 6.5
2  15 1 2 0 6.5
0

0101000
+104 2 -102 2 *
Ve
1.00000059048837e-07
-2.49999999999996 -2 106.545643942682
0 0

0101101
*
Ed
 1e-07 1 1 0
1  6 0 0.5 1.5456439426821
2  16 8 0 0.5 1.5456439426821
2  17 9 0 0.5 1.5456439426821
2  18 1 4 0.5 1.5456439426821
0

0101000
+102 4 -100 4 *
Ve
1.00000059666819e-07
2.49999999999996 -2 106.545643942682
0 0

0101101
*
Ed
 1e-07 1 1 0
1  7 0 0 5.42363444457055
2  19 10 0 0 5.42363444457055
2  20 1 0 0 5.42363444457055
0

0101000
+98 0 -100 0 *
Ve
1.5e-07
2.5 -2 105.5
0 0

0101101
*
Ed
 1e-07 1 1 0
1  8 0 0.5 1.5456439426821
2  21 11 0 0.5 1.5456439426821
2  22 9 0 0.5 1.5456439426821
2  23 1 4 0.5 1.5456439426821
0

0101000
+96 4 -98 4 *
Ve
1e-07
9 -2 105.5
0 0

0101101
*
Ed
 1e-07 1 1 0
1  5 0 11.5 18
2  13 2 0 11.5 18
2  14 7 0 11.5 18
2  24 1 2 11.5 18
0

0101000
+96 2 -94 2 *
Ve
1.5e-07
9 -2 105
0 0

0101101
*
Ed
 1e-07 1 1 0
1  9 0 1.5 2
2  25 2 0 1.5 2
2  26 12 0 1.5 2
2  27 1 2 1.5 2
0

0101000
+92 2 -94 2 *
Ve
1.50000002664535e-07
4.8 -2 105
0 0

0101101
*
Ed
 1.5e-07 1 1 0
1  3 0 -13.5 -9.3
2  7 5 0 -13.5 -9.3
2  8 2 1 -13.5 -9.3
2  28 1 0 -13.5 -9.3
0

0101000
+92 0 -90 0 *
Ed
 1e-07 1 1 0
1  10 0 103.7 105.2
2  29 4 0 103.7 105.2
2  30 2 1 103.7 105.2
2  31 1 0 103.7 105.2
0

0101000
+110 0 -90 0 *
Wi

0101100
-109 1 +107 0 +105 0 +103 1 +101 1 +99 3 -97 0 -95 3 +93 1 -91 1 
+89 0 -88 0 *
Ve
1.0000000288658e-07
-5.33946004428247e-16 -2 114.18
0 0

0101101
*
Ed
 1e-07 1 1 0
1  11 0 0 6.28318530717959
2  32 13 0 0 6.28318530717959
2  33 1 0 0 6.28318530717959
0

0101000
+86 0 -86 0 *
Wi

0101100
-85 0 *
Fa
0  0 1 0

0101000
+87 0 +84 0 *
Ve
1.0000000288658e-07
-5.33946004428247e-16 2 114.18
0 0

0101101
*
Ed
 1.00000000444089e-07 1 1 0
1  12 0 0.3 4.3
3  34 35CN 14 0 0.3 4.3
3  36 37C0 13 0 0.3 4.3
0

0101000
+86 0 -82 0 *
Ed
 1e-07 1 1 0
1  13 0 0 6.28318530717959
2  38 13 0 0 6.28318530717959
2  39 15 0 0 6.28318530717959
0

0101000
+82 0 -82 0 *
Wi

0101100
+81 0 +80 0 -81 0 +85 0 *
Fa
0  0 13 0

0101000
+79 0 *
Ve
1e-07
-4.8 2 103.5
0 0

0101101
*
Ve
1e-07
4.8 2 103.5
0 0

0101101
*
Ed
 1e-07 1 1 0
1  14 0 4.2 13.8
2  40 16 0 4.2 13.8
2  41 3 0 4.2 13.8
2  42 15 2 4.2 13.8
0

0101000
+77 2 -76 2 *
Ve
1.5e-07
-4.8 2 105
0 0

0101101
*
Ed
 1e-07 1 1 0
1  15 0 103.7 105.2
2  43 4 0 103.7 105.2
2  44 16 1 103.7 105.2
2  45 15 0 103.7 105.2
0

0101000
+77 0 -74 0 *
Ve
1.5e-07
-9 2 105
0 0

0101101
*
Ed
 1.5e-07 1 1 0
1  16 0 0.300000000000001 4.5
2  46 5 0 0.300000000000001 4.5
2  47 16 1 0.300000000000001 4.5
2  48 15 0 0.300000000000001 4.5
0

0101000
+74 0 -72 0 *
Ve
1e-07
-9 2 105.5
0 0

0101101
*
Ed
 1e-07 1 1 0
1  17 0 1.5 2
2  49 16 0 1.5 2
2  50 6 0 1.5 2
2  51 15 2 1.5 2
0

0101000
+72 2 -70 2 *
Ve
1.5e-07
-2.5 2 105.5
0 0

0101101
*
Ed
 1e-07 1 1 0
1  18 0 0 6.5
2  52 16 0 0 6.5
2  53 7 0 0 6.5
2  54 15 2 0 6.5
0

0101000
+70 2 -68 2 *
Ve
1.00000059048837e-07
-2.49999999999996 2 106.545643942682
0 0

0101101
*
Ed
 1e-07 1 1 0
1  19 0 0.5 1.5456439426821
2  55 8 0 0.5 1.5456439426821
2  56 17 0 0.5 1.5456439426821
2  57 15 4 0.5 1.5456439426821
0

0101000
+68 4 -66 4 *
Ve
1.00000059666819e-07
2.49999999999996 2 106.545643942682
0 0

0101101
*
Ed
 1e-07 1 1 0
1  20 0 0 5.42363444457055
2  58 10 0 0 5.42363444457055
2  59 15 0 0 5.42363444457055
0

0101000
+66 0 -64 0 *
Ve
1.5e-07
2.5 2 105.5
0 0

0101101
*
Ed
 1e-07 1 1 0
1  21 0 0.5 1.5456439426821
2  60 11 0 0.5 1.5456439426821
2  61 17 0 0.5 1.5456439426821
2  62 15 4 0.5 1.5456439426821
0

0101000
+62 4 -64 4 *
Ve
1e-07
9 2 105.5
0 0

0101101
*
Ed
 1e-07 1 1 0
1  18 0 11.5 18
2  52 16 0 11.5 18
2  53 7 0 11.5 18
2  63 15 2 11.5 18
0

0101000
+62 2 -60 2 *
Ve
1.5e-07
9 2 105
0 0

0101101
*
Ed
 1e-07 1 1 0
1  22 0 1.5 2
2  64 16 0 1.5 2
2  65 12 0 1.5 2
2  66 15 2 1.5 2
0

0101000
+58 2 -60 2 *
Ve
1.5e-07
4.8 2 105
0 0

0101101
*
Ed
 1.5e-07 1 1 0
1  16 0 -13.5 -9.3
2  46 5 0 -13.5 -9.3
2  47 16 1 -13.5 -9.3
2  67 15 0 -13.5 -9.3
0

0101000
+58 0 -56 0 *
Ed
 1e-07 1 1 0
1  23 0 103.7 105.2
2  68 4 0 103.7 105.2
2  69 16 1 103.7 105.2
2  70 15 0 103.7 105.2
0

0101000
+76 0 -56 0 *
Wi

0101100
-75 1 +73 0 +71 0 +69 1 +67 1 +65 3 +63 0 -61 3 +59 1 -57 1 
+55 0 -54 0 *
Wi

0101100
+80 0 *
Fa
0  0 15 0

0101000
+53 0 +52 0 *
Ed
 1e-07 1 1 0
1  24 0 0 4
2  71 7 0 0 4
2  72 12 0 0 4
0

0101000
-60 2 +94 2 *
Ed
 1.5e-07 1 1 0
1  25 0 -1 3
2  73 5 0 -1 3
2  74 12 1 -1 3
0

0101000
+92 0 -58 0 *
Wi

0101100
-91 1 -50 1 +57 1 +49 0 *
Fa
0  1e-07 12 1

0101000
+48 0 *
Ed
 1.5e-07 1 1 0
1  26 0 -4 0
2  75 11 3 -4 0
2  76 7 1 -4 0
0

0101000
+62 0 -96 0 *
Wi

0101100
-59 1 +50 1 +93 1 +46 0 *
Fa
0  1e-07 7 1

0101000
+45 0 *
Ed
 1e-07 1 1 0
1  27 0 0 4
2  77 11 3 0 4
2  78 18 0 0 4
2  79 10 0 0 4
0

0101000
+98 0 -64 0 *
Wi

0101100
-95 3 -43 0 +61 3 -46 0 *
Fa
0  1e-07 11 3

0101000
+42 0 *
Ed
 1e-07 1 1 0
1  28 0 0 4
2  80 8 3 0 4
2  81 18 0 0 4
2  82 10 0 0 4
0

0101000
+100 0 -66 0 *
Wi

0101100
-63 0 -40 0 -97 0 +43 0 *
Fa
0  0 10 0

0101000
+39 0 *
Ed
 1.5e-07 1 1 0
1  29 0 -4 0
2  83 8 3 -4 0
2  84 7 1 -4 0
0

0101000
+68 0 -102 0 *
Wi

0101100
-99 3 -40 0 +65 3 -37 0 *
Fa
0  1e-07 8 3

0101000
+36 0 *
Ed
 1e-07 1 1 0
1  30 0 0 4
2  85 7 0 0 4
2  86 6 0 0 4
0

0101000
-70 2 +104 2 *
Wi

0101100
-67 1 -37 0 +101 1 -34 1 *
Fa
0  1e-07 7 1

0101000
+33 0 *
Ed
 1.5e-07 1 1 0
1  31 0 -1 3
2  87 5 0 -1 3
2  88 6 1 -1 3
0

0101000
+106 0 -72 0 *
Wi

0101100
-103 1 -34 1 +69 1 +31 0 *
Fa
0  1e-07 6 1

0101000
+30 0 *
Ve
1e-07
9.5 -2.32682891837997e-15 105
0 0

0101101
*
Ed
 1e-07 1 1 0
1  32 0 0 6.28318530717959
2  89 19 0 0 6.28318530717959
2  90 5 0 0 6.28318530717959
0

0101000
+28 0 -28 0 *
Wi

0101100
+27 0 *
Ed
 1e-07 1 1 0
1  33 0 0.394791119699761 2.74680153389003
2  91 5 0 0.394791119699761 2.74680153389003
2  92 4 0 0.394791119699761 2.74680153389003
0

0101000
+56 0 -74 0 *
Ed
 1e-07 1 1 0
1  33 0 3.53638377328955 5.88839418747982
2  91 5 0 3.53638377328955 5.88839418747982
2  92 4 0 3.53638377328955 5.88839418747982
0

0101000
+108 0 -90 0 *
Wi

0101100
-25 0 -71 0 +31 0 +105 0 -24 0 +89 0 -49 0 -55 0 *
Fa
0  1e-07 5 0

0101000
+26 0 +23 0 *
Ve
1e-07
9.5 -2.32682891837997e-15 0
0 0

0101101
*
Ed
 1e-07 1 1 0
1  34 0 0 105
3  93 94CN 19 0 0 105
0

0101000
-28 0 +21 0 *
Ed
 1e-07 1 1 0
1  35 0 0 6.28318530717959
2  95 19 0 0 6.28318530717959
2  96 20 0 0 6.28318530717959
0

0101000
+21 0 -21 0 *
Wi

0101100
-27 0 +20 0 +19 0 -20 0 *
Fa
0  1e-07 19 0

0101000
+18 0 *
Wi

0101100
+19 0 *
Ve
1.00000001273633e-07
5.2 -1.27363267111325e-15 0
0 0

0101101
*
Ed
 1e-07 1 1 0
1  36 0 0 6.28318530717959
2  97 20 0 0 6.28318530717959
2  98 4 0 0 6.28318530717959
0

0101100
+15 0 -15 0 *
Wi

0101100
-14 0 *
Fa
0  1e-07 20 0

0101000
+16 0 +13 0 *
Ed
 1e-07 1 1 0
1  37 0 2.74680153389003 3.53638377328956
2  99 4 0 2.74680153389003 3.53638377328956
2  100 3 1 2.74680153389003 3.53638377328956
0

0101000
+77 0 -111 0 *
Ve
1.00000001273633e-07
5.2 -1.27363267111325e-15 103.5
0 0

0101101
*
Ed
 1e-07 1 1 0
1  38 0 5.88839418747983 6.28318530717959
2  101 4 0 5.88839418747983 6.28318530717959
2  102 3 1 5.88839418747983 6.28318530717959
0

0101000
+110 0 -10 0 *
Ed
 1e-07 1 1 0
1  39 0 0.2 103.7
3  103 104CN 4 0 0.2 103.7
0

0101000
+15 0 -10 0 *
Ed
 1e-07 1 1 0
1  40 0 0 0.394791119699761
2  105 4 0 0 0.394791119699761
2  106 3 1 0 0.394791119699761
0

0101000
+10 0 -76 0 *
Wi

0101100
-25 0 +73 0 -11 0 -107 0 -24 0 +88 0 -9 0 +8 0 +14 0 -8 0 
-7 0 -54 0 *
Fa
0  1e-07 4 0

0101000
+6 0 *
Wi

0101100
-75 1 +7 0 +9 0 +109 1 +11 0 *
Fa
0  1e-07 3 1

0101000
+4 0 *
Sh

0101100
-83 0 -78 0 +51 0 +47 0 +44 0 +41 0 +38 0 -35 0 +32 0 -29 0 
+22 0 +17 0 -12 0 -5 0 -3 0 *
So

0100000
+2 0 *

+1 0 