DBRep_DrawableShape

CASCADE Topology V3, (c) Open Cascade
Locations 2
1
              1              -0               0              -0 
              0               1               0               0 
             -0               0               1              -0 
2  1 -1 0
Curve2ds 106
1 6.2831853071795862 -0 0 1 
1 0 -0 0 1 
1 0 3.8999999999999999 1 0 
2 -1 2.7000000000000002 1 0 -0 1 4.5
8 -5.999999999062311e-07 4.0000005999999999
1 5.639684198386302 0 0 1 
8 -5.999999999062311e-07 4.0000005999999999
1 2.6000000000000001 0.10000000000000009 0 -1 
1 0 0.10000000000000009 1 0 
2 -1 2.7000000000000002 1 0 -0 1 4.5
1 0 0 1 0 
2 0 0 1 0 -0 1 4.5
1 0 0.10000000000000009 1 0 
2 -1 2.7000000000000002 1 0 -0 1 4.5
8 -5.999999999062311e-07 4.0000005999999999
1 0.64350110879328437 0 0 1 
8 -5.999999999062311e-07 4.0000005999999999
1 2.6000000000000001 0.10000000000000009 0 -1 
1 0 3.8999999999999999 1 0 
2 -1 2.7000000000000002 1 0 -0 1 4.5
1 0 4 1 0 
2 0 0 1 0 -0 1 4.5
1 0 5.4000000000000004 1 0 
1 0 -3.7999999999999998 1 0 
1 7 0 0 1 
1 0 3.7999999999999998 1 0 
8 -5.999999999062311e-07 2.4400000000000013
1 5 5.0216373532487797 1 0 
8 -5.999999999062311e-07 2.4400000000000013
1 0.6858529646187107 0 0 1 
8 -1.3500000000000001 4.0500000000000007
1 5 1.3500000000000001 0 1 
8 -1.3500000000000001 4.0500000000000007
1 -1.3500000000000001 1.8999999999999999 1 0 
8 -5.999999999062311e-07 2.4400000000000013
1 5 0.37836264675122022 1 0 
8 -5.999999999062311e-07 2.4400000000000013
1 2.4557396889710823 0 0 1 
1 0 3.7999999999999998 1 0 
1 0 0 1 0 
1 0 -3.7999999999999998 1 0 
1 0 0 1 0 
1 0 0 1 0 
1 7 0 0 -1 
1 0 0 0 1 
8 -5.999999999062311e-07 2.4400000000000013
1 5 -0.59233031693779825 1 0 
8 -5.999999999062311e-07 2.4400000000000013
1 3.5926194653860555 0 0 1 
8 -2.8499999999999996 0.94999999999999996
1 5 -0.94999999999999996 0 1 
8 -2.8499999999999996 0.94999999999999996
1 -2.7000000000000002 -0.94999999999999996 0 -1 
8 -5.999999999062311e-07 2.4400000000000013
1 5 -3.2076696830622016 1 0 
8 -5.999999999062311e-07 2.4400000000000013
1 2.6905658417935308 0 0 1 
1 0 0 0 1 
1 0 5.4000000000000004 1 0 
1 0 0 1 0 
1 7 0 0 1 
1 0 0 1 0 
8 -5.999999999062311e-07 2.4400000000000013
1 5 5.0216373532487797 1 0 
8 -5.999999999062311e-07 2.4400000000000013
1 5.5973323425608754 0 0 1 
8 -1.3500000000000001 4.0500000000000007
1 5 1.3500000000000001 0 1 
8 -1.3500000000000001 4.0500000000000007
1 -1.3500000000000001 -1.8999999999999999 1 0 
8 -5.999999999062311e-07 2.4400000000000013
1 5 0.37836264675122022 1 0 
8 -5.999999999062311e-07 2.4400000000000013
1 3.8274456182085039 0 0 1 
1 0 0 1 0 
2 0 0 1 0 -0 1 2.1800000000000002
1 0 0.29999999999999982 1 0 
1 0 2 1 0 
1 7 0 0 -1 
1 5.4000000000000004 0 0 1 
8 -5.999999999062311e-07 2.4400000000000013
1 5 -0.59233031693779825 1 0 
8 -5.999999999062311e-07 2.4400000000000013
1 5.8321584953833243 0 0 1 
8 -2.8499999999999996 0.94999999999999996
1 5 -0.94999999999999996 0 1 
8 -2.8499999999999996 0.94999999999999996
1 2.7000000000000002 -0.94999999999999996 0 -1 
8 -5.999999999062311e-07 2.4400000000000013
1 5 -3.2076696830622016 1 0 
8 -5.999999999062311e-07 2.4400000000000013
1 0.45102681179626231 0 0 1 
1 5.4000000000000004 0 0 1 
2 0 0 1 0 -0 1 2.1800000000000002
1 0 4.2999999999999998 1 0 
1 0 6 1 0 
2 2.7000000000000002 1.8999999999999999 1 0 -0 1 3
1 0 2 1 0 
1 6.2831853071795862 -0 0 1 
1 0 -0 0 1 
1 0 0 1 0 
2 0 0 1 0 -0 1 3
2 2.7000000000000002 1.8999999999999999 1 0 -0 1 3
1 0 2 1 0 
2 2.7000000000000002 1.8999999999999999 1 0 -0 1 3
1 0 2 1 0 
1 0 54 1 0 
2 0 0 1 0 -0 1 3
1 6.2831853071795862 -0 0 1 
1 0 -0 0 1 
8 4.1999999999999993 4.2999999999999998
1 6.2831853071795862 1.7000000000000002 0 1 
8 4.1999999999999993 4.2999999999999998
1 0 1.7000000000000002 0 1 
1 0 4.1999999999999993 1 0 
2 -1 2.7000000000000002 1 0 -0 1 2.1800000000000002
1 0 5.8999999999999995 1 0 
8 0.29999939999999992 4.3000005999999997
1 5.1889381873945108 0 0 1 
8 0.29999939999999992 4.3000005999999997
1 0.76288874867755729 -0.39999999999999991 0 1 
1 5.1889381873945108 1.7000000000000002 0 1 
1 0 0.39999999999999991 1 0 
2 -1 2.7000000000000002 1 0 -0 1 2.1800000000000002
1 0 2.1000000000000001 1 0 
8 0.29999999999999982 0.39999999999999991
1 6.2831853071795862 1.7000000000000002 0 1 
8 0.29999999999999982 0.39999999999999991
1 0 1.7000000000000002 0 1 
1 0 0.39999999999999991 1 0 
2 -1 2.7000000000000002 1 0 -0 1 2.1800000000000002
1 0 2.1000000000000001 1 0 
8 0.29999939999999992 4.3000005999999997
1 1.0942471197850752 0 0 1 
8 0.29999939999999992 4.3000005999999997
1 4.6371112513224428 -0.39999999999999991 0 1 
1 1.0942471197850752 1.7000000000000002 0 1 
1 0 4.1999999999999993 1 0 
2 -1 2.7000000000000002 1 0 -0 1 2.1800000000000002
1 0 5.8999999999999995 1 0 
1 6.2831853071795862 -0 0 1 
1 0 -0 0 1 
Curves 45
1 -1.1021821192326179e-15 -2 4.5 0 1 0 
2 0 1.8999999999999999 0 0 1 0 0 -0 1 1 0 -0 4.5
1 -2.7000000000000002 -2 3.6000000000000001 0 1 0 
2 0 -1.8999999999999999 0 0 1 0 0 -0 1 1 0 -0 4.5
2 0 -2 0 0 1 0 0 -0 1 1 0 -0 4.5
2 0 -1.8999999999999999 0 0 1 0 0 -0 1 1 0 -0 4.5
1 2.7000000000000002 -2 3.6000000000000001 0 1 0 
2 0 1.8999999999999999 0 0 1 0 0 -0 1 1 0 -0 4.5
2 0 2 0 0 1 0 0 -0 1 1 0 -0 4.5
1 2.7000000000000002 1.8999999999999999 1 0 0 1 
1 -2.7000000000000002 1.8999999999999999 8 1 0 0 
1 2.32163735324878 1.8999999999999999 6 0 0 1 
1 -1.3500000000000001 1.8999999999999999 6 1 0 0 
1 -2.32163735324878 1.8999999999999999 6 0 0 1 
1 -2.7000000000000002 1.8999999999999999 1 0 0 1 
1 -2.7000000000000002 -1.8999999999999999 1 0 0 1 
1 -2.7000000000000002 -1.8999999999999999 8 0 1 0 
1 -2.7000000000000002 -1.3076696830622017 6 0 0 1 
1 -2.7000000000000002 -0.94999999999999996 6 0 -1 0 
1 -2.7000000000000002 1.3076696830622017 6 0 0 1 
1 2.7000000000000002 -1.8999999999999999 1 0 0 1 
1 -2.7000000000000002 -1.8999999999999999 8 1 0 0 
1 2.32163735324878 -1.8999999999999999 6 0 0 1 
1 -1.3500000000000001 -1.8999999999999999 6 1 0 0 
1 -2.32163735324878 -1.8999999999999999 6 0 0 1 
2 0 -2 0 0 1 0 0 -0 1 1 0 -0 2.1800000000000002
1 2.7000000000000002 -1.8999999999999999 8 0 1 0 
1 2.7000000000000002 -1.3076696830622017 6 0 0 1 
1 2.7000000000000002 -0.94999999999999996 6 0 -1 0 
1 2.7000000000000002 1.3076696830622017 6 0 0 1 
2 0 2 0 0 1 0 0 -0 1 1 0 -0 2.1800000000000002
2 0 0 8 0 0 1 1 0 -0 -0 1 0 3
1 3 -7.3478807948841188e-16 6 0 0 1 
2 0 0 6 0 0 1 1 0 -0 -0 1 0 3
2 0 0 8 0 0 1 1 0 -0 -0 1 0 3
2 0 0 8 0 0 1 1 0 -0 -0 1 0 3
2 0 0 60 0 0 1 1 0 -0 -0 1 0 3
1 -5.33946004428246e-16 -2.2999999999999998 2.1800000000000002 0 1 0 
2 0 1.8999999999999995 0 0 1 0 0 -0 1 1 0 -0 2.1800000000000002
1 -1.9371112513224429 -2.2999999999999998 1 0 1 0 
2 0 -1.8999999999999999 0 0 1 0 0 -0 1 1 0 -0 2.1800000000000002
2 0 -1.8999999999999999 0 0 1 0 0 -0 1 1 0 -0 2.1800000000000002
1 1.9371112513224429 -2.2999999999999998 1 0 1 0 
2 0 1.8999999999999995 0 0 1 0 0 -0 1 1 0 -0 2.1800000000000002
1 -5.33946004428246e-16 -4 2.1800000000000002 0 1 0 
Polygon3D 0
PolygonOnTriangulations 0
Surfaces 14
2 0 -2 0 0 1 0 0 -0 1 1 0 -0 4.5
1 -2.7000000000000002 1.8999999999999999 1 0 1 0 0 0 1 1 0 0 
1 -2.7000000000000002 -1.8999999999999999 1 1 0 0 0 0 1 0 -1 0 
1 -2.7000000000000002 -1.8999999999999999 1 0 1 0 0 0 1 1 0 0 
1 0 -2 0 0 1 0 0 -0 1 1 0 -0 
1 2.7000000000000002 -1.8999999999999999 1 1 0 0 0 0 1 0 -1 0 
1 0 2 0 0 1 0 0 -0 1 1 0 -0 
1 -2.7000000000000002 -1.8999999999999999 8 0 0 1 1 0 0 0 1 0 
2 0 0 6 0 0 1 1 0 -0 -0 1 0 3
1 0 0 6 0 0 1 1 0 -0 -0 1 0 
2 0 -2.2999999999999998 0 0 1 0 0 -0 1 1 0 -0 2.1800000000000002
2 0 -4 0 0 1 0 0 -0 1 1 0 -0 2.1800000000000002
1 0 0 60 0 0 1 1 0 -0 -0 1 0 
1 -2.7000000000000002 -1.8999999999999999 1 0 0 1 1 0 0 0 1 0 
Triangulations 0

TShapes 139
Ve
1.00000001102182e-07
-1.10218211923262e-15 1.9 4.5
0 0

0101101
*
Ve
1e-07
-1.10218211923262e-15 2 4.5
0 0

0101101
*
Ed
 1e-07 1 1 0
1  1 0 3.9 4
3  1 2CN 1 0 3.9 4
0

0101000
+139 0 -138 0 *
Ve
1.00000000444089e-07
-2.7 1.9 3.6
0 0

0101101
*
Ed
 1e-07 1 1 0
1  2 0 5.6396841983863 6.28318530717959
2  3 1 0 5.6396841983863 6.28318530717959
2  4 2 1 5.6396841983863 6.28318530717959
0

0101000
+136 0 -139 0 *
Ve
1.00000000444089e-07
-2.7 -1.9 3.6
0 0

0101101
*
Ed
 1e-07 1 1 0
1  3 0 0.1 3.9
2  5 1 0 0.1 3.9
2  6 3 1 0.1 3.9
0

0101000
+134 0 -136 0 *
Ve
1.00000001102182e-07
-1.10218211923262e-15 -1.9 4.5
0 0

0101101
*
Ed
 1e-07 1 1 0
1  4 0 5.6396841983863 6.28318530717959
2  7 1 0 5.6396841983863 6.28318530717959
2  8 4 1 5.6396841983863 6.28318530717959
0

0101000
+134 0 -132 0 *
Ve
1e-07
-1.10218211923262e-15 -2 4.5
0 0

0101101
*
Ed
 1e-07 1 1 0
1  1 0 0 0.1
3  1 2CN 1 0 0 0.1
0

0101000
+130 0 -132 0 *
Ed
 1e-07 1 1 0
1  5 0 0 6.28318530717959
2  9 1 0 0 6.28318530717959
2  10 5 0 0 6.28318530717959
0

0101000
+130 0 -130 0 *
Ve
1.00000000444089e-07
2.7 -1.9 3.6
0 0

0101101
*
Ed
 1e-07 1 1 0
1  6 0 0 0.643501108793284
2  11 1 0 0 0.643501108793284
2  12 4 1 0 0.643501108793284
0

0101000
+132 0 -127 0 *
Ve
1.00000000444089e-07
2.7 1.9 3.6
0 0

0101101
*
Ed
 1e-07 1 1 0
1  7 0 0.1 3.9
2  13 1 0 0.1 3.9
2  14 6 1 0.1 3.9
0

0101000
+127 0 -125 0 *
Ed
 1e-07 1 1 0
1  8 0 0 0.643501108793284
2  15 1 0 0 0.643501108793284
2  16 2 1 0 0.643501108793284
0

0101000
+139 0 -125 0 *
Ed
 1e-07 1 1 0
1  9 0 0 6.28318530717959
2  17 1 0 0 6.28318530717959
2  18 7 0 0 6.28318530717959
0

0101000
+138 0 -138 0 *
Wi

0101100
+137 0 +135 0 +133 0 -131 0 +129 0 +128 0 -129 0 -126 0 -124 0 +123 0 
-137 0 -122 0 *
Fa
0  1e-07 1 0

0101000
+121 0 *
Ve
1e-07
2.7 1.9 8
0 0

0101101
*
Ed
 1e-07 1 1 0
1  10 0 2.6 7
2  19 2 0 2.6 7
2  20 6 0 2.6 7
0

0101000
+125 2 -119 2 *
Ve
1.00000000628037e-07
2.32163735324878 1.9 8
0 0

0101101
*
Ed
 1e-07 1 1 0
1  11 0 5.02163735324878 5.4
2  21 2 0 5.02163735324878 5.4
2  22 8 0 5.02163735324878 5.4
0

0101000
+117 2 -119 2 *
Ve
1.5e-07
2.32163735324878 1.9 6
0 0

0101101
*
Ed
 1e-07 1 1 0
1  12 0 0 2
2  23 2 1 0 2
2  24 9 0 0 2
0

0101000
+115 0 -117 0 *
Ve
1.50000000666134e-07
-2.32163735324878 1.9 6
0 0

0101101
*
Ed
 1.5e-07 1 1 0
1  13 0 -0.971637353248779 3.67163735324878
2  25 2 1 -0.971637353248779 3.67163735324878
2  26 10 0 -0.971637353248779 3.67163735324878
0

0101000
+113 0 -115 0 *
Ve
1.00000000800593e-07
-2.32163735324878 1.9 8
0 0

0101101
*
Ed
 1e-07 1 1 0
1  14 0 0 2
2  27 2 1 0 2
2  28 9 0 0 2
0

0101000
+113 0 -111 0 *
Ve
1e-07
-2.7 1.9 8
0 0

0101101
*
Ed
 1e-07 1 1 0
1  11 0 0 0.37836264675122
2  21 2 0 0 0.37836264675122
2  29 8 0 0 0.37836264675122
0

0101000
+109 2 -111 2 *
Ed
 1e-07 1 1 0
1  15 0 2.6 7
2  30 2 0 2.6 7
2  31 3 0 2.6 7
0

0101000
+136 2 -109 2 *
Wi

0101100
-135 0 -123 0 -118 1 +116 1 +114 0 +112 0 -110 0 +108 1 +107 1 *
Fa
0  1e-07 2 1

0101000
+106 0 *
Ve
1e-07
-2.7 -1.9 8
0 0

0101101
*
Ed
 1e-07 1 1 0
1  16 0 2.6 7
2  32 4 0 2.6 7
2  33 3 0 2.6 7
0

0101000
+134 2 -104 2 *
Ve
1.00000002782211e-07
-2.7 -1.3076696830622 8
0 0

0101101
*
Ed
 1e-07 1 1 0
1  17 0 0 0.592330316937798
2  34 3 0 0 0.592330316937798
2  35 8 0 0 0.592330316937798
0

0101000
+104 2 -102 2 *
Ve
1.5e-07
-2.7 -1.3076696830622 6
0 0

0101101
*
Ed
 1e-07 1 1 0
1  18 0 0 2
2  36 3 1 0 2
2  37 9 0 0 2
0

0101000
+100 0 -102 0 *
Ve
1.50000000222045e-07
-2.7 1.3076696830622 6
0 0

0101101
*
Ed
 1.5e-07 1 1 0
1  19 0 -2.2576696830622 0.357669683062201
2  38 3 1 -2.2576696830622 0.357669683062201
2  39 10 0 -2.2576696830622 0.357669683062201
0

0101000
+98 0 -100 0 *
Ve
1.00000000444089e-07
-2.7 1.3076696830622 8
0 0

0101101
*
Ed
 1e-07 1 1 0
1  20 0 0 2
2  40 3 1 0 2
2  41 9 0 0 2
0

0101000
+98 0 -96 0 *
Ed
 1e-07 1 1 0
1  17 0 3.2076696830622 3.8
2  34 3 0 3.2076696830622 3.8
2  42 8 0 3.2076696830622 3.8
0

0101000
+96 2 -109 2 *
Wi

0101100
-103 1 -101 1 +99 0 +97 0 -95 0 -94 1 +107 1 +133 0 *
Fa
0  1e-07 3 1

0101000
+93 0 *
Ve
1e-07
2.7 -1.9 8
0 0

0101101
*
Ed
 1e-07 1 1 0
1  21 0 2.6 7
2  43 4 0 2.6 7
2  44 6 0 2.6 7
0

0101000
+127 2 -91 2 *
Ve
1.00000003580362e-07
2.32163735324878 -1.9 8
0 0

0101101
*
Ed
 1e-07 1 1 0
1  22 0 5.02163735324878 5.4
2  45 4 0 5.02163735324878 5.4
2  46 8 0 5.02163735324878 5.4
0

0101000
+89 2 -91 2 *
Ve
1.50000000666134e-07
2.32163735324878 -1.9 6
0 0

0101101
*
Ed
 1e-07 1 1 0
1  23 0 0 2
2  47 4 1 0 2
2  48 9 0 0 2
0

0101000
+87 0 -89 0 *
Ve
1.5e-07
-2.32163735324878 -1.9 6
0 0

0101101
*
Ed
 1.5e-07 1 1 0
1  24 0 -0.97163735324878 3.67163735324878
2  49 4 1 -0.97163735324878 3.67163735324878
2  50 10 0 -0.97163735324878 3.67163735324878
0

0101000
+85 0 -87 0 *
Ve
1.00000002673771e-07
-2.32163735324878 -1.9 8
0 0

0101101
*
Ed
 1e-07 1 1 0
1  25 0 0 2
2  51 4 1 0 2
2  52 9 0 0 2
0

0101000
+85 0 -83 0 *
Ed
 1e-07 1 1 0
1  22 0 0 0.37836264675122
2  45 4 0 0 0.37836264675122
2  53 8 0 0 0.37836264675122
0

0101000
+104 2 -83 2 *
Wi

0101100
-131 0 -126 0 -90 1 +88 1 +86 0 +84 0 -82 0 +81 1 +103 1 *
Fa
0  1e-07 4 1

0101000
+80 0 *
Wi

0101100
+128 0 *
Ve
1.00000000533946e-07
-5.33946004428246e-16 -2 2.18
0 0

0101101
*
Ed
 1.00000000222045e-07 1 1 0
1  26 0 0 6.28318530717959
2  54 5 0 0 6.28318530717959
2  55 11 0 0 6.28318530717959
2  56 12 0 0 6.28318530717959
0

0101100
+77 0 -77 0 *
Wi

0101100
-76 0 *
Fa
0  1e-07 5 0

0101000
+78 0 +75 0 *
Ve
1.00000002186886e-07
2.7 -1.3076696830622 8
0 0

0101101
*
Ed
 1e-07 1 1 0
1  27 0 0 0.592330316937798
2  57 6 0 0 0.592330316937798
2  58 8 0 0 0.592330316937798
0

0101000
+91 2 -73 2 *
Ve
1.5e-07
2.7 -1.3076696830622 6
0 0

0101101
*
Ed
 1e-07 1 1 0
1  28 0 0 2
2  59 6 1 0 2
2  60 9 0 0 2
0

0101000
+71 0 -73 0 *
Ve
1.50000000222045e-07
2.7 1.3076696830622 6
0 0

0101101
*
Ed
 1.5e-07 1 1 0
1  29 0 -2.2576696830622 0.357669683062201
2  61 6 1 -2.2576696830622 0.357669683062201
2  62 10 0 -2.2576696830622 0.357669683062201
0

0101000
+69 0 -71 0 *
Ve
1e-07
2.7 1.3076696830622 8
0 0

0101101
*
Ed
 1e-07 1 1 0
1  30 0 0 2
2  63 6 1 0 2
2  64 9 0 0 2
0

0101000
+69 0 -67 0 *
Ed
 1e-07 1 1 0
1  27 0 3.2076696830622 3.8
2  57 6 0 3.2076696830622 3.8
2  65 8 0 3.2076696830622 3.8
0

0101000
+67 2 -119 2 *
Wi

0101100
-90 1 -72 1 +70 0 +68 0 -66 0 -65 1 +118 1 +124 0 *
Fa
0  1e-07 6 1

0101000
+64 0 *
Wi

0101100
+122 0 *
Ve
1.00000000533946e-07
-5.33946004428246e-16 2 2.18
0 0

0101101
*
Ed
 1.00000000222045e-07 1 1 0
1  31 0 0 6.28318530717959
2  66 7 0 0 6.28318530717959
2  67 11 0 0 6.28318530717959
2  68 12 0 0 6.28318530717959
0

0101100
+61 0 -61 0 *
Wi

0101100
-60 0 *
Fa
0  1e-07 7 0

0101000
+62 0 +59 0 *
Ed
 1e-07 1 1 0
1  32 0 0.451026811796262 0.685852964618711
2  69 8 1 0.451026811796262 0.685852964618711
2  70 9 0 0.451026811796262 0.685852964618711
0

0101000
+67 0 -117 0 *
Wi

0101100
-116 1 +65 1 -57 0 *
Fa
0  1e-07 8 1

0101000
+56 0 *
Ve
1e-07
3 -7.34788079488412e-16 60
0 0

0101101
*
Ve
1e-07
3 -7.34788079488412e-16 6
0 0

0101101
*
Ed
 1e-07 1 1 0
1  33 0 0 54
3  71 72CN 9 0 0 54
0

0101000
-54 0 +53 0 *
Ed
 1e-07 1 1 0
1  34 0 5.83215849538332 6.28318530717959
2  73 9 0 5.83215849538332 6.28318530717959
2  74 10 0 5.83215849538332 6.28318530717959
0

0101000
+71 0 -53 0 *
Ed
 1e-07 1 1 0
1  35 0 5.59733234256087 5.83215849538332
2  75 8 1 5.59733234256087 5.83215849538332
2  76 9 0 5.59733234256087 5.83215849538332
0

0101000
+89 0 -73 0 *
Ed
 1e-07 1 1 0
1  34 0 3.8274456182085 5.59733234256088
2  73 9 0 3.8274456182085 5.59733234256088
2  74 10 0 3.8274456182085 5.59733234256088
0

0101000
+85 0 -87 0 *
Ed
 1e-07 1 1 0
1  36 0 3.59261946538605 3.8274456182085
2  77 8 1 3.59261946538605 3.8274456182085
2  78 9 0 3.59261946538605 3.8274456182085
0

0101000
+102 0 -83 0 *
Ed
 1e-07 1 1 0
1  34 0 2.69056584179353 3.59261946538606
2  73 9 0 2.69056584179353 3.59261946538606
2  74 10 0 2.69056584179353 3.59261946538606
0

0101000
+98 0 -100 0 *
Ed
 1e-07 1 1 0
1  36 0 2.45573968897108 2.69056584179353
2  77 8 1 2.45573968897108 2.69056584179353
2  78 9 0 2.45573968897108 2.69056584179353
0

0101000
+111 0 -96 0 *
Ed
 1e-07 1 1 0
1  34 0 0.685852964618711 2.45573968897108
2  73 9 0 0.685852964618711 2.45573968897108
2  74 10 0 0.685852964618711 2.45573968897108
0

0101000
+115 0 -113 0 *
Ed
 1e-07 1 1 0
1  34 0 0 0.451026811796262
2  73 9 0 0 0.451026811796262
2  74 10 0 0 0.451026811796262
0

0101000
+53 0 -69 0 *
Ed
 1e-07 1 1 0
1  37 0 0 6.28318530717959
2  79 9 0 0 6.28318530717959
2  80 13 0 0 6.28318530717959
0

0101000
+54 0 -54 0 *
Wi

0101100
+52 0 +51 0 -70 0 +50 0 +86 0 +49 0 -82 0 +48 0 +99 0 +47 0 
-95 0 +46 0 +110 0 +45 0 -114 0 +57 0 +66 0 +44 0 -52 0 -43 0 
*
Fa
0  1e-07 9 0

0101000
+42 0 *
Wi

0101100
+112 0 +45 0 *
Fa
0  1e-07 10 0

0101000
+40 0 *
Wi

0101100
-94 1 -108 1 -46 0 *
Fa
0  1e-07 8 1

0101000
+38 0 *
Wi

0101100
-101 1 -48 0 +81 1 *
Fa
0  1e-07 8 1

0101000
+36 0 *
Wi

0101100
-97 0 +47 0 *
Fa
0  1e-07 10 0

0101000
+34 0 *
Wi

0101100
-50 0 +72 1 +88 1 *
Fa
0  1e-07 8 1

0101000
+32 0 *
Wi

0101100
+49 0 -84 0 *
Fa
0  1e-07 10 0

0101000
+30 0 *
Ve
1.00000000533946e-07
-5.33946004428246e-16 1.9 2.18
0 0

0101101
*
Ed
 1e-07 1 1 0
1  38 0 4.2 4.3
3  81 82CN 11 0 4.2 4.3
3  83 84C0 12 0 4.2 4.3
0

0101000
+28 0 -61 0 *
Ve
1.00000001368775e-07
-1.93711125132244 1.9 1
0 0

0101101
*
Ed
 1e-07 1 1 0
1  39 0 5.18893818739451 6.28318530717959
2  85 11 0 5.18893818739451 6.28318530717959
2  86 2 1 5.18893818739451 6.28318530717959
2  87 12 0 5.18893818739451 6.28318530717959
0

0101000
+26 0 -28 0 *
Ve
1.00000001313634e-07
-1.93711125132244 -1.9 1
0 0

0101101
*
Ed
 1.00000001313634e-07 1 1 0
1  40 0 0.4 4.2
2  88 11 0 0.4 4.2
2  89 14 1 0.4 4.2
2  90 12 0 0.4 4.2
0

0101000
+24 0 -26 0 *
Ve
1.00000000533946e-07
-5.33946004428246e-16 -1.9 2.18
0 0

0101101
*
Ed
 1e-07 1 1 0
1  41 0 5.18893818739451 6.28318530717959
2  91 11 0 5.18893818739451 6.28318530717959
2  92 4 1 5.18893818739451 6.28318530717959
2  93 12 0 5.18893818739451 6.28318530717959
0

0101000
+24 0 -22 0 *
Ed
 1.00000000222045e-07 1 1 0
1  38 0 0.3 0.4
3  81 82CN 11 0 0.3 0.4
3  94 95C0 12 0 0.3 0.4
0

0101000
+77 0 -22 0 *
Ve
1.00000000314018e-07
1.93711125132244 -1.9 1
0 0

0101101
*
Ed
 1e-07 1 1 0
1  42 0 0 1.09424711978507
2  96 11 0 0 1.09424711978507
2  97 4 1 0 1.09424711978507
2  98 12 0 0 1.09424711978507
0

0101000
+22 0 -19 0 *
Ve
1.00000000543896e-07
1.93711125132244 1.9 1
0 0

0101101
*
Ed
 1.00000000314018e-07 1 1 0
1  43 0 0.4 4.2
2  99 11 0 0.4 4.2
2  100 14 1 0.4 4.2
2  101 12 0 0.4 4.2
0

0101000
+19 0 -17 0 *
Ed
 1e-07 1 1 0
1  44 0 0 1.09424711978507
2  102 11 0 0 1.09424711978507
2  103 2 1 0 1.09424711978507
2  104 12 0 0 1.09424711978507
0

0101000
+28 0 -17 0 *
Wi

0101100
+27 0 +25 0 +23 0 -21 0 +20 0 +76 0 -20 0 -18 0 -16 0 +15 0 
-27 0 -60 0 *
Fa
0  1e-07 11 0

0101000
+14 0 *
Wi

0101100
+51 0 +68 0 +44 0 *
Fa
0  1e-07 10 0

0101000
+12 0 *
Wi

0101100
+43 0 *
Fa
0  1e-07 13 0

0101000
+10 0 *
Ed
 1e-07 1 1 0
1  45 0 2.1 5.9
3  105 106CN 12 0 2.1 5.9
0

0101000
+22 0 -28 0 *
Wi

0101100
+8 0 +21 0 -23 0 -25 0 *
Fa
0  1e-07 12 0

0101000
+7 0 *
Wi

0101100
-15 0 +16 0 +18 0 -8 0 *
Fa
0  1e-07 12 0

0101000
+5 0 *
Sh

0101100
+120 0 +105 0 -92 0 -79 0 -74 0 +63 0 +58 0 +55 0 +41 0 -39 0 
+37 0 +35 0 -33 0 +31 0 -29 0 -13 0 -11 0 +9 0 -6 0 -4 0 
*
So

0100000
+3 0 *
Co

0100000
+2 0 *

+1 0 