DBRep_DrawableShape

CASCADE Topology V3, (c) Open Cascade
Locations 4
1
              1              -0               0              -0 
              0               1               0               0 
             -0               0               1              -0 
2  1 -1 0
1
              1              -0               0              -0 
              0               1               0               0 
             -0               0               1              -0 
2  3 -1 0
Curve2ds 80
1 0 0 0 1 
1 0 0 1 0 
8 93.5 95.20000060000001
1 3.6651914291880918 0 0 1 
8 93.5 95.20000060000001
1 -93.700000000000003 3.5358983848622456 1 0 
8 -10.5 3.5
1 -3.5 -2 -1 0 
8 -10.5 3.5
1 1.5 3.5 0 -1 
1 0 0 1 0 
1 0 0 1 0 
1 2 0 0 1 
1 0 0 1 0 
1 0 0 1 0 
1 0 0 1 0 
1 8.9529161234897199 0 -1 -0 
1 0 0 1 0 
1 0 5 1 0 
1 0 14 1 0 
1 0 0 1 0 
8 93.5 95.20000060000001
1 5.7595865315812871 0 0 1 
8 93.5 95.20000060000001
1 -93.700000000000003 10.464101615137753 1 0 
1 0 2 1 0 
1 6.2831853071795862 -0 0 1 
1 0 -0 0 1 
8 0.29999999999999982 4.2999999999999998
1 6.2831853071795862 1.7000000000000002 0 1 
8 0.29999999999999982 4.2999999999999998
1 0 1.7000000000000002 0 1 
1 6.2831853071795862 6 -1 -0 
1 0 0 0 1 
1 0 4 1 0 
8 93.5 95.20000060000001
1 2.6179938779914944 0 0 1 
8 93.5 95.20000060000001
1 -93.700000000000003 3.5358983848622456 1 0 
8 -10.5 3.5
1 -3.5 2 -1 0 
8 -10.5 3.5
1 1.5 3.5 0 -1 
1 0 0 1 0 
1 0 -4 1 0 
1 2 0 0 1 
1 0 4 1 0 
1 0 -4 1 0 
1 0 0 1 0 
1 3.6134544908694526 4 1 0 
1 0 -4 1 0 
1 0 5 1 0 
1 0 14 1 0 
1 0 -4 1 0 
8 93.5 95.20000060000001
1 0.52359877559829893 0 0 1 
8 93.5 95.20000060000001
1 -93.700000000000003 10.464101615137753 1 0 
1 14 0 0 1 
1 2 0 0 -1 
8 -1 3
1 7 -1 0 1 
8 -1 3
1 1.5 -1 0 -1 
8 -4 0
1 0.5 0 0 1 
8 -4 0
1 9.5 0 0 -1 
8 -5.999999999062311e-07 4.0000005999999999
1 2.1010205144336425 0 0 -1 
8 -5.999999999062311e-07 4.0000005999999999
1 2.6697308163101514 0 0 1 
8 0 4
1 8.9529161234897376 0 0 1 
8 -5.999999999062311e-07 4.0000005999999999
1 2.1010205144336425 0 0 -1 
8 -5.999999999062311e-07 4.0000005999999999
1 3.6134544908694348 0 0 1 
8 0 4
1 3.6134544908694348 0 0 1 
8 -4 0
1 0.5 0 0 1 
8 -4 0
1 4.5 0 0 -1 
1 0 0 0 1 
1 2 0 0 -1 
8 -1 3
1 -7 -1 0 1 
8 -1 3
1 1.5 -1 0 -1 
1 0 95 1 0 
2 0 0 1 0 -0 1 7.5
2 0 0 1 0 -0 1 4
1 0 95.200000000000003 1 0 
1 6.2831853071795862 -0 0 1 
1 0 -0 0 1 
1 0 0 1 0 
2 0 0 1 0 -0 1 7.5
2 0 0 1 0 -0 1 4
1 0 0.20000000000000001 1 0 
1 0 93.700000000000003 1 0 
2 7 2 1 0 -0 1 4
1 0 93.700000000000003 1 0 
2 7 2 1 0 -0 1 4
1 6.2831853071795862 -0 0 1 
1 0 -0 0 1 
1 0 93.700000000000003 1 0 
2 7 2 1 0 -0 1 4
Curves 40
1 -7 -2 93.5 1 0 0 
1 -3.4641016151377544 -2 -0.20000000000000001 0 0 1 
1 -3.5 -2 95 -1 0 0 
1 -7 -2 93.5 0 0 1 
1 -7 -2 95.5 1 0 0 
1 -2.5 -2 95 0 0 1 
8 0 5.3394616326202673
2 0 -2 102 0 -1 0 0.45454545454547018 0 -0.89072354283023869 0.89072354283023869 0 0.45454545454547018 5.5
1 2.5 -2 95 0 0 1 
1 7 -2 93.5 0 0 1 
1 3.4641016151377544 -2 -0.20000000000000001 0 0 1 
2 0 -2 102 0 1 0 0 -0 1 1 0 -0 2.1800000000000002
1 -5.3394600442824689e-16 -2.2999999999999998 104.18000000000001 0 1 0 
2 8.992806499463768e-15 2 102 0 -1 0 -4.3700699559137538e-15 0 1 -1 -0 -4.3700699559137538e-15 2.1800000000000082
1 -7 2 93.5 1 0 0 
1 -3.4641016151377544 2 -0.20000000000000001 0 0 1 
1 -3.5 2 95 -1 0 0 
1 -7 2 93.5 0 0 1 
1 -7 2 95.5 1 0 0 
1 -2.5 2 95 0 0 1 
8 0 5.3394616326202673
2 0 2 102 0 1 0 -0.4545454545454703 0 -0.89072354283023858 -0.89072354283023858 0 0.4545454545454703 5.5
1 2.5 2 95 0 0 1 
1 7 2 93.5 0 0 1 
1 3.4641016151377544 2 -0.20000000000000001 0 0 1 
1 7 -2 95.5 0 1 0 
1 7 -1 95 0 1 0 
1 2.5 -2 95.5 0 -1 0 
1 2.5 -2 97.101020514433642 0 1 0 
1 -2.5 -2 97.101020514433642 0 1 0 
1 -2.5 -2 95.5 0 -1 0 
1 -7 -2 95.5 0 1 0 
1 -7 -1 95 0 1 0 
2 0 0 95 0 0 1 1 0 -0 -0 1 0 7.5
2 0 0 95 0 0 1 1 0 -0 -0 1 0 4
1 7.5 -1.83697019872103e-15 0 0 0 1 
2 0 0 0 0 0 1 1 0 -0 -0 1 0 7.5
2 0 0 0 0 0 1 1 0 -0 -0 1 0 4
2 0 0 93.5 0 0 1 1 0 -0 -0 1 0 4
2 0 0 93.5 0 0 1 1 0 -0 -0 1 0 4
1 4 -9.7971743931788257e-16 -0.20000000000000001 0 0 1 
2 0 0 93.5 0 0 1 1 0 -0 -0 1 0 4
Polygon3D 0
PolygonOnTriangulations 0
Surfaces 20
1 -2.5 -2 95 0 1 0 0 0 1 1 0 0 
1 -7 -2 93.5 0 1 0 0 0 1 1 0 0 
1 -7 -2 93.5 0 0 1 1 0 0 0 1 0 
2 0 0 -0.20000000000000001 0 0 1 1 0 -0 -0 1 0 4
1 0 0 95 0 0 1 1 0 -0 -0 1 0 
1 -7 -2 93.5 1 0 0 0 0 1 0 -1 0 
1 -7 -2 95.5 0 0 1 1 0 0 0 1 0 
1 -2.5 -2 95 1 0 0 0 0 1 0 -1 0 
1 -2.5 -2 95 0 1 0 0 0 1 1 0 0 
10 3.1415926535897931 9.4247779607693793 -2e+100 2e+100
2 0 -2 102 0 1 0 0 -0 1 1 0 -0 5.5
1 2.5 -2 95 1 0 0 0 0 1 0 -1 0 
1 7 -2 93.5 1 0 0 0 0 1 0 -1 0 
2 0 -4 102 0 1 0 0 -0 1 1 0 -0 2.1800000000000002
2 0 -2.2999999999999998 102 0 1 0 0 -0 1 1 0 -0 2.1800000000000002
1 -7 2 93.5 0 1 0 0 0 1 1 0 0 
1 -7 2 93.5 0 1 0 0 0 1 1 0 0 
1 -2.5 2 95 0 1 0 0 0 1 1 0 0 
2 0 -2 102 0 1 0 0 -0 1 1 0 -0 5.5
2 0 0 0 0 0 1 1 0 -0 -0 1 0 7.5
1 0 0 0 0 0 1 1 0 -0 -0 1 0 
Triangulations 0

TShapes 111
Ve
1.00000000444089e-07
-3.46410161513775 -2 93.5
0 0

0101101
*
Ve
1.00000001776357e-07
3.46410161513775 -2 93.5
0 0

0101101
*
Ed
 1e-07 1 1 0
1  1 0 3.53589838486225 10.4641016151378
2  1 2 0 3.53589838486225 10.4641016151378
2  2 3 0 3.53589838486225 10.4641016151378
0

0101000
+111 2 -110 2 *
Ve
1.50000000444089e-07
-3.46410161513775 -2 95
0 0

0101101
*
Ed
 1e-07 1 1 0
1  2 0 93.7 95.2
2  3 4 0 93.7 95.2
2  4 2 1 93.7 95.2
0

0101000
+111 0 -108 0 *
Ve
1.5e-07
-7 -2 95
0 0

0101101
*
Ed
 1.5e-07 1 1 0
1  3 0 -0.0358983848622456 3.5
2  5 5 0 -0.0358983848622456 3.5
2  6 2 1 -0.0358983848622456 3.5
0

0101000
+108 0 -106 0 *
Ve
1e-07
-7 -2 95.5
0 0

0101101
*
Ed
 1e-07 1 1 0
1  4 0 1.5 2
2  7 2 0 1.5 2
2  8 6 0 1.5 2
0

0101000
+106 2 -104 2 *
Ve
1.5e-07
-2.5 -2 95.5
0 0

0101101
*
Ed
 1e-07 1 1 0
1  5 0 0 4.5
2  9 2 0 0 4.5
2  10 7 0 0 4.5
0

0101000
+104 2 -102 2 *
Ve
1.00000102068087e-07
-2.50000000000007 -2 97.1010205144337
0 0

0101101
*
Ed
 1e-07 1 1 0
1  6 0 0.5 2.10102051443371
2  11 8 0 0.5 2.10102051443371
2  12 9 0 0.5 2.10102051443371
0

0101000
+102 4 -100 4 *
Ve
1.00000101749745e-07
2.50000000000007 -2 97.1010205144337
0 0

0101101
*
Ed
 1e-07 1 1 0
1  7 0 0 5.33946163262027
2  13 10 0 0 5.33946163262027
0

0101000
+98 0 -100 0 *
Ve
1.5e-07
2.5 -2 95.5
0 0

0101101
*
Ed
 1e-07 1 1 0
1  8 0 0.5 2.10102051443371
2  14 11 0 0.5 2.10102051443371
2  15 9 0 0.5 2.10102051443371
0

0101000
+96 4 -98 4 *
Ve
1e-07
7 -2 95.5
0 0

0101101
*
Ed
 1e-07 1 1 0
1  5 0 9.5 14
2  9 2 0 9.5 14
2  10 7 0 9.5 14
0

0101000
+96 2 -94 2 *
Ve
1.5e-07
7 -2 95
0 0

0101101
*
Ed
 1e-07 1 1 0
1  9 0 1.5 2
2  16 2 0 1.5 2
2  17 12 0 1.5 2
0

0101000
+92 2 -94 2 *
Ve
1.50000001776357e-07
3.46410161513775 -2 95
0 0

0101101
*
Ed
 1.5e-07 1 1 0
1  3 0 -10.5 -6.96410161513775
2  5 5 0 -10.5 -6.96410161513775
2  6 2 1 -10.5 -6.96410161513775
0

0101000
+92 0 -90 0 *
Ed
 1e-07 1 1 0
1  10 0 93.7 95.2
2  18 4 0 93.7 95.2
2  19 2 1 93.7 95.2
0

0101000
+110 0 -90 0 *
Wi

0101100
-109 1 +107 0 +105 0 +103 1 +101 1 +99 3 -97 0 -95 3 +93 1 -91 1 
+89 0 -88 0 *
Ve
1.0000000288658e-07
-5.33946004428247e-16 -2 104.18
0 0

0101101
*
Ed
 1e-07 1 1 0
1  11 0 0 6.28318530717959
2  20 13 0 0 6.28318530717959
0

0101000
+86 0 -86 0 *
Wi

0101100
-85 0 *
Fa
0  0 1 0

0101000
+87 0 +84 0 *
Ve
1.0000000288658e-07
-5.33946004428247e-16 2 104.18
0 0

0101101
*
Ed
 1.00000000444089e-07 1 1 0
1  12 0 0.3 4.3
3  21 22CN 14 0 0.3 4.3
3  23 24C0 13 0 0.3 4.3
0

0101000
+86 0 -82 0 *
Ed
 1e-07 1 1 0
1  13 0 0 6.28318530717959
2  25 13 0 0 6.28318530717959
0

0101000
+82 0 -82 0 *
Wi

0101100
+81 0 +80 0 -81 0 +85 0 *
Fa
0  0 13 0

0101000
+79 0 *
Ve
1.00000001404333e-07
-3.46410161513775 2 93.5
0 0

0101101
*
Ve
1.00000000888178e-07
3.46410161513775 2 93.5
0 0

0101101
*
Ed
 1e-07 1 1 0
1  14 0 3.53589838486225 10.4641016151378
2  26 16 0 3.53589838486225 10.4641016151378
2  27 3 0 3.53589838486225 10.4641016151378
0

0101000
+77 2 -76 2 *
Ve
1.50000001332268e-07
-3.46410161513775 2 95
0 0

0101101
*
Ed
 1e-07 1 1 0
1  15 0 93.7 95.2
2  28 4 0 93.7 95.2
2  29 16 1 93.7 95.2
0

0101000
+77 0 -74 0 *
Ve
1.5e-07
-7 2 95
0 0

0101101
*
Ed
 1.5e-07 1 1 0
1  16 0 -0.0358983848622461 3.5
2  30 5 0 -0.0358983848622461 3.5
2  31 16 1 -0.0358983848622461 3.5
0

0101000
+74 0 -72 0 *
Ve
1e-07
-7 2 95.5
0 0

0101101
*
Ed
 1e-07 1 1 0
1  17 0 1.5 2
2  32 16 0 1.5 2
2  33 6 0 1.5 2
0

0101000
+72 2 -70 2 *
Ve
1.5e-07
-2.5 2 95.5
0 0

0101101
*
Ed
 1e-07 1 1 0
1  18 0 0 4.5
2  34 16 0 0 4.5
2  35 7 0 0 4.5
0

0101000
+70 2 -68 2 *
Ve
1.00000102068087e-07
-2.50000000000007 2 97.1010205144337
0 0

0101101
*
Ed
 1e-07 1 1 0
1  19 0 0.5 2.10102051443371
2  36 8 0 0.5 2.10102051443371
2  37 17 0 0.5 2.10102051443371
0

0101000
+68 4 -66 4 *
Ve
1.00000101749745e-07
2.50000000000007 2 97.1010205144337
0 0

0101101
*
Ed
 1e-07 1 1 0
1  20 0 0 5.33946163262027
2  38 10 0 0 5.33946163262027
0

0101000
+66 0 -64 0 *
Ve
1.5e-07
2.5 2 95.5
0 0

0101101
*
Ed
 1e-07 1 1 0
1  21 0 0.5 2.10102051443371
2  39 11 0 0.5 2.10102051443371
2  40 17 0 0.5 2.10102051443371
0

0101000
+62 4 -64 4 *
Ve
1e-07
7 2 95.5
0 0

0101101
*
Ed
 1e-07 1 1 0
1  18 0 9.5 14
2  34 16 0 9.5 14
2  35 7 0 9.5 14
0

0101000
+62 2 -60 2 *
Ve
1.5e-07
7 2 95
0 0

0101101
*
Ed
 1e-07 1 1 0
1  22 0 1.5 2
2  41 16 0 1.5 2
2  42 12 0 1.5 2
0

0101000
+58 2 -60 2 *
Ve
1.5e-07
3.46410161513775 2 95
0 0

0101101
*
Ed
 1.5e-07 1 1 0
1  16 0 -10.5 -6.96410161513775
2  30 5 0 -10.5 -6.96410161513775
2  31 16 1 -10.5 -6.96410161513775
0

0101000
+58 0 -56 0 *
Ed
 1e-07 1 1 0
1  23 0 93.7 95.2
2  43 4 0 93.7 95.2
2  44 16 1 93.7 95.2
0

0101000
+76 0 -56 0 *
Wi

0101100
-75 1 +73 0 +71 0 +69 1 +67 1 +65 3 +63 0 -61 3 +59 1 -57 1 
+55 0 -54 0 *
Wi

0101100
+80 0 *
Fa
0  0 15 0

0101000
+53 0 +52 0 *
Ed
 1e-07 1 1 0
1  24 0 0 4
2  45 7 0 0 4
2  46 12 0 0 4
0

0101000
-60 2 +94 2 *
Ed
 1.5e-07 1 1 0
1  25 0 -1 3
2  47 5 0 -1 3
2  48 12 1 -1 3
0

0101000
+92 0 -58 0 *
Wi

0101100
-91 1 -50 1 +57 1 +49 0 *
Fa
0  1e-07 12 1

0101000
+48 0 *
Ed
 1.5e-07 1 1 0
1  26 0 -4 0
2  49 11 3 -4 0
2  50 7 1 -4 0
0

0101000
+62 0 -96 0 *
Wi

0101100
-59 1 +50 1 +93 1 +46 0 *
Fa
0  1e-07 7 1

0101000
+45 0 *
Ed
 1e-07 1 1 0
1  27 0 0 4
2  51 11 3 0 4
2  52 18 0 0 4
2  53 10 0 0 4
0

0101000
+98 0 -64 0 *
Wi

0101100
-95 3 -43 0 +61 3 -46 0 *
Fa
0  1e-07 11 3

0101000
+42 0 *
Ed
 1e-07 1 1 0
1  28 0 0 4
2  54 8 3 0 4
2  55 18 0 0 4
2  56 10 0 0 4
0

0101000
+100 0 -66 0 *
Wi

0101100
-63 0 -40 0 -97 0 +43 0 *
Fa
0  0 10 0

0101000
+39 0 *
Ed
 1.5e-07 1 1 0
1  29 0 -4 0
2  57 8 3 -4 0
2  58 7 1 -4 0
0

0101000
+68 0 -102 0 *
Wi

0101100
-99 3 -40 0 +65 3 -37 0 *
Fa
0  1e-07 8 3

0101000
+36 0 *
Ed
 1e-07 1 1 0
1  30 0 0 4
2  59 7 0 0 4
2  60 6 0 0 4
0

0101000
-70 2 +104 2 *
Wi

0101100
-67 1 -37 0 +101 1 -34 1 *
Fa
0  1e-07 7 1

0101000
+33 0 *
Ed
 1.5e-07 1 1 0
1  31 0 -1 3
2  61 5 0 -1 3
2  62 6 1 -1 3
0

0101000
+106 0 -72 0 *
Wi

0101100
-103 1 -34 1 +69 1 +31 0 *
Fa
0  1e-07 6 1

0101000
+30 0 *
Ve
1e-07
7.5 -1.83697019872103e-15 95
0 0

0101101
*
Ed
 1e-07 1 1 0
1  32 0 0 6.28318530717959
2  63 19 0 0 6.28318530717959
2  64 5 0 0 6.28318530717959
0

0101000
+28 0 -28 0 *
Wi

0101100
+27 0 *
Ed
 1e-07 1 1 0
1  33 0 0.523598775598299 2.61799387799149
2  65 5 0 0.523598775598299 2.61799387799149
2  66 4 0 0.523598775598299 2.61799387799149
0

0101000
+56 0 -74 0 *
Ed
 1e-07 1 1 0
1  33 0 3.66519142918809 5.75958653158129
2  65 5 0 3.66519142918809 5.75958653158129
2  66 4 0 3.66519142918809 5.75958653158129
0

0101000
+108 0 -90 0 *
Wi

0101100
-25 0 -71 0 +31 0 +105 0 -24 0 +89 0 -49 0 -55 0 *
Fa
0  1e-07 5 0

0101000
+26 0 +23 0 *
Ve
1e-07
7.5 -1.83697019872103e-15 0
0 0

0101101
*
Ed
 1e-07 1 1 0
1  34 0 0 95
3  67 68CN 19 0 0 95
0

0101000
-28 0 +21 0 *
Ed
 1e-07 1 1 0
1  35 0 0 6.28318530717959
2  69 19 0 0 6.28318530717959
2  70 20 0 0 6.28318530717959
0

0101000
+21 0 -21 0 *
Wi

0101100
-27 0 +20 0 +19 0 -20 0 *
Fa
0  1e-07 19 0

0101000
+18 0 *
Wi

0101100
+19 0 *
Ve
1.00000000979717e-07
4 -9.79717439317883e-16 0
0 0

0101101
*
Ed
 1e-07 1 1 0
1  36 0 0 6.28318530717959
2  71 20 0 0 6.28318530717959
2  72 4 0 0 6.28318530717959
0

0101100
+15 0 -15 0 *
Wi

0101100
-14 0 *
Fa
0  1e-07 20 0

0101000
+16 0 +13 0 *
Ed
 1e-07 1 1 0
1  37 0 2.61799387799149 3.66519142918809
2  73 4 0 2.61799387799149 3.66519142918809
2  74 3 1 2.61799387799149 3.66519142918809
0

0101000
+77 0 -111 0 *
Ve
1.00000000979717e-07
4 -9.79717439317883e-16 93.5
0 0

0101101
*
Ed
 1e-07 1 1 0
1  38 0 5.75958653158129 6.28318530717959
2  75 4 0 5.75958653158129 6.28318530717959
2  76 3 1 5.75958653158129 6.28318530717959
0

0101000
+110 0 -10 0 *
Ed
 1e-07 1 1 0
1  39 0 0.2 93.7
3  77 78CN 4 0 0.2 93.7
0

0101000
+15 0 -10 0 *
Ed
 1e-07 1 1 0
1  40 0 0 0.523598775598299
2  79 4 0 0 0.523598775598299
2  80 3 1 0 0.523598775598299
0

0101000
+10 0 -76 0 *
Wi

0101100
-25 0 +73 0 -11 0 -107 0 -24 0 +88 0 -9 0 +8 0 +14 0 -8 0 
-7 0 -54 0 *
Fa
0  1e-07 4 0

0101000
+6 0 *
Wi

0101100
-75 1 +7 0 +9 0 +109 1 +11 0 *
Fa
0  1e-07 3 1

0101000
+4 0 *
Sh

0101100
-83 0 -78 0 +51 0 +47 0 +44 0 +41 0 +38 0 -35 0 +32 0 -29 0 
+22 0 +17 0 -12 0 -5 0 -3 0 *
So

0100000
+2 0 *

+1 0 