DBRep_DrawableShape

CASCADE Topology V3, (c) Open Cascade
Locations 41
1
              1               0               0               0 
              0               1               0               0 
              0               0               1            -340 
1
              1               0               0               0 
              0               1               0               0 
              0               0               1            -125 
1
              1               0               0               0 
              0               1               0               0 
              0               0               1               0 
1
              1               0               0              18 
              0               1               0               0 
              0               0               1             480 
1
0.17364817766693               0 0.984807753012208               0 
              0               1               0               0 
-0.984807753012208               0 0.17364817766693               0 
1
              1               0               0               4 
              0               1               0               0 
              0               0               1            -8.5 
1
              1               0               0            -0.4 
              0               1               0               0 
              0               0               1              -4 
1
              1               0               0               7 
              0               1               0               8 
              0               0               1            3.05 
2  1 -1 2 -1 3 -1 4 -1 5 -1 6 -1 7 -1 8 -1 0
1
              1               0               0               0 
              0               1               0               0 
              0               0               1            -125 
1
           -0.5 -0.866025403784439               0               0 
0.866025403784439            -0.5               0               0 
              0               0               1               0 
1
              1               0               0              18 
              0               1               0               0 
              0               0               1             480 
1
0.17364817766693               0 0.984807753012208               0 
              0               1               0               0 
-0.984807753012208               0 0.17364817766693               0 
1
              1               0               0               4 
              0               1               0               0 
              0               0               1            -8.5 
1
              1               0               0            -0.4 
              0               1               0               0 
              0               0               1              -4 
1
              1               0               0               7 
              0               1               0              -8 
              0               0               1            3.05 
2  1 -1 10 -1 11 -1 12 -1 13 -1 14 -1 15 -1 16 -1 0
1
              1               0               0               0 
              0               1               0               0 
              0               0               1            -125 
1
              1               0               0               7 
              0               1               0               8 
              0               0               1            3.05 
2  1 -1 18 -1 11 -1 12 -1 13 -1 14 -1 15 -1 19 -1 0
1
              1               0               0               0 
              0               1               0               0 
              0               0               1            -125 
1
           -0.5 0.866025403784438               0               0 
-0.866025403784438            -0.5               0               0 
              0               0               1               0 
1
              1               0               0              18 
              0               1               0               0 
              0               0               1             480 
1
0.17364817766693               0 0.984807753012208               0 
              0               1               0               0 
-0.984807753012208               0 0.17364817766693               0 
1
              1               0               0               4 
              0               1               0               0 
              0               0               1            -8.5 
1
              1               0               0            -0.4 
              0               1               0               0 
              0               0               1              -4 
1
              1               0               0               7 
              0               1               0              -8 
              0               0               1            3.05 
2  1 -1 21 -1 22 -1 23 -1 24 -1 25 -1 26 -1 27 -1 0
1
              1               0               0               0 
              0               1               0               0 
              0               0               1            -125 
1
              1               0               0               7 
              0               1               0               8 
              0               0               1            3.05 
2  1 -1 29 -1 22 -1 23 -1 24 -1 25 -1 26 -1 30 -1 0
1
              1               0               0               0 
              0               1               0               0 
              0               0               1            -125 
1
              1               0               0               7 
              0               1               0              -8 
              0               0               1            3.05 
2  1 -1 32 -1 3 -1 4 -1 5 -1 6 -1 7 -1 33 -1 0
1
              1               0               0               0 
              0               1               0               0 
              0               0               1            -340 
2  35 -1 2 -1 3 -1 4 -1 5 -1 6 -1 7 -1 8 -1 0
2  35 -1 10 -1 11 -1 12 -1 13 -1 14 -1 15 -1 16 -1 0
2  35 -1 18 -1 11 -1 12 -1 13 -1 14 -1 15 -1 19 -1 0
2  35 -1 21 -1 22 -1 23 -1 24 -1 25 -1 26 -1 27 -1 0
2  35 -1 29 -1 22 -1 23 -1 24 -1 25 -1 26 -1 30 -1 0
2  35 -1 32 -1 3 -1 4 -1 5 -1 6 -1 7 -1 33 -1 0
Curve2ds 40
1 0 0.63639610306789274 1 0 
2 0 0 1 0 -0 1 1.5
8 0 6.2831853071795862
1 0 0 1 0 
1 6.2831853071795862 -0 0 1 
1 0 -0 0 1 
1 0 0 1 0 
2 0 0 1 0 -0 1 1.05
1 0 7.0999999999999996 1 0 
2 0 0 1 0 -0 1 1.5
8 0 6.2831853071795862
1 0 0 1 0 
1 6.2831853071795862 -0 0 1 
1 0 -0 0 1 
1 0 0.63639610306789274 1 0 
2 0 0 1 0 -0 1 1.05
1 6.2831853071795862 -0 0 1 
1 0 -0 0 1 
1 6.2831853071795862 -0 0 1 
1 0 -0 0 1 
1 6.2831853071795862 -0 0 1 
1 0 -0 0 1 
1 6.2831853071795862 -0 0 1 
1 0 -0 0 1 
1 6.2831853071795862 -0 0 1 
1 0 -0 0 1 
1 6.2831853071795862 -0 0 1 
1 0 -0 0 1 
1 6.2831853071795862 -0 0 1 
1 0 -0 0 1 
1 6.2831853071795862 -0 0 1 
1 0 -0 0 1 
1 6.2831853071795862 -0 0 1 
1 0 -0 0 1 
1 6.2831853071795862 -0 0 1 
1 0 -0 0 1 
1 6.2831853071795862 -0 0 1 
1 0 -0 0 1 
1 6.2831853071795862 -0 0 1 
1 0 -0 0 1 
1 6.2831853071795862 -0 0 1 
1 0 -0 0 1 
Curves 7
2 0 0 0.45000000000000001 0 0 1 1 0 -0 -0 1 0 1.5
1 1.05 -2.571758278209442e-16 0 0.70710678118654757 -1.7319121124709868e-16 0.70710678118654757 
2 0 0 0 0 0 1 1 0 -0 -0 1 0 1.05
2 0 0 7.5499999999999998 0 0 1 1 0 -0 -0 1 0 1.5
1 1.5 -3.6739403974420594e-16 0.45000000000000001 0 0 1 
2 0 0 8 0 0 1 1 0 -0 -0 1 0 1.05
1 1.5 -3.6739403974420594e-16 7.5499999999999998 -0.70710678118654757 1.7319121124709868e-16 0.70710678118654757 
Polygon3D 0
PolygonOnTriangulations 0
Surfaces 19
3 0 0 0 0 0 1 1 0 -0 -0 1 0 1.05
0.78539816339744828
1 0 0 0.45000000000000001 0 0 1 1 0 -0 -0 1 0 
2 0 0 0.45000000000000001 0 0 1 1 0 -0 -0 1 0 1.5
1 0 0 0 0 0 1 1 0 -0 -0 1 0 
1 0 0 7.5499999999999998 0 0 1 1 0 -0 -0 1 0 
3 0 0 7.5499999999999998 0 0 1 1 0 -0 -0 1 0 1.5
-0.78539816339744828
1 0 0 8 0 0 1 1 0 -0 -0 1 0 
3 17.969535952546266 8 4.2311062805034272 0.98480775301220813 0 0.17364817766693044 0.17364817766693044 0 -0.98480775301220813 0 1 0 1.5
-0.78539816339744828
3 -2.05656474599762 19.562074629122865 4.2311062805034272 -0.49240387650610384 0.85286853195244339 0.17364817766693044 -0.086824088833465179 0.15038373318043538 -0.98480775301220813 -0.86602540378443882 -0.49999999999999983 0 1.5
-0.78539816339744828
3 -15.91297120654864 11.56207462912287 4.2311062805034272 -0.49240387650610384 0.85286853195244339 0.17364817766693044 -0.086824088833465179 0.15038373318043538 -0.98480775301220813 -0.86602540378443882 -0.49999999999999983 0 1.5
-0.78539816339744828
3 -15.912971206548651 -11.562074629122861 4.2311062805034272 -0.49240387650610445 -0.85286853195244305 0.17364817766693041 -0.086824088833465304 -0.15038373318043535 -0.98480775301220813 0.86602540378443849 -0.50000000000000044 0 1.5
-0.78539816339744828
3 -2.0565647459976328 -19.562074629122868 4.2311062805034272 -0.49240387650610445 -0.85286853195244305 0.17364817766693041 -0.086824088833465304 -0.15038373318043535 -0.98480775301220813 0.86602540378443849 -0.50000000000000044 0 1.5
-0.78539816339744828
3 17.969535952546266 -8 4.2311062805034272 0.98480775301220813 0 0.17364817766693044 0.17364817766693044 0 -0.98480775301220813 0 1 0 1.5
-0.78539816339744828
3 17.969535952546266 8 4.2311062805034272 0.98480775301220813 0 0.17364817766693044 0.17364817766693044 0 -0.98480775301220813 0 1 0 1.5
-0.78539816339744828
3 -2.05656474599762 19.562074629122865 4.2311062805034272 -0.49240387650610384 0.85286853195244339 0.17364817766693044 -0.086824088833465179 0.15038373318043538 -0.98480775301220813 -0.86602540378443882 -0.49999999999999983 0 1.5
-0.78539816339744828
3 -15.91297120654864 11.56207462912287 4.2311062805034272 -0.49240387650610384 0.85286853195244339 0.17364817766693044 -0.086824088833465179 0.15038373318043538 -0.98480775301220813 -0.86602540378443882 -0.49999999999999983 0 1.5
-0.78539816339744828
3 -15.912971206548651 -11.562074629122861 4.2311062805034272 -0.49240387650610445 -0.85286853195244305 0.17364817766693041 -0.086824088833465304 -0.15038373318043535 -0.98480775301220813 0.86602540378443849 -0.50000000000000044 0 1.5
-0.78539816339744828
3 -2.0565647459976328 -19.562074629122868 4.2311062805034272 -0.49240387650610445 -0.85286853195244305 0.17364817766693041 -0.086824088833465304 -0.15038373318043535 -0.98480775301220813 0.86602540378443849 -0.50000000000000044 0 1.5
-0.78539816339744828
3 17.969535952546266 -8 4.2311062805034272 0.98480775301220813 0 0.17364817766693044 0.17364817766693044 0 -0.98480775301220813 0 1 0 1.5
-0.78539816339744828
Triangulations 0

TShapes 23
Ve
1.00000000666134e-07
1.5 -3.67394039744206e-16 0.45
0 0

0101101
*
Ed
 1.00000000666134e-07 1 1 0
1  1 0 0 6.28318530717959
2  1 1 0 0 6.28318530717959
2  2 2 0 0 6.28318530717959
2  3 3 0 0 6.28318530717959
0

0101000
+23 0 -23 0 *
Ve
1e-07
1.05 -2.57175827820944e-16 0
0 0

0101101
*
Ed
 1e-07 1 1 0
1  2 0 0 0.636396103067893
3  4 5CN 1 0 0 0.636396103067893
0

0101000
+21 0 -23 0 *
Ed
 1e-07 1 1 0
1  3 0 0 6.28318530717959
2  6 1 0 0 6.28318530717959
2  7 4 0 0 6.28318530717959
0

0101000
+21 0 -21 0 *
Wi

0101100
-22 0 +20 0 +19 0 -20 0 *
Fa
0  1e-07 1 0

0101000
+18 0 *
Ve
1.00000000666134e-07
1.5 -3.67394039744206e-16 7.55
0 0

0101101
*
Ed
 1.00000000666134e-07 1 1 0
1  4 0 0 6.28318530717959
2  8 3 0 0 6.28318530717959
2  9 5 0 0 6.28318530717959
2  10 6 0 0 6.28318530717959
0

0101000
+16 0 -16 0 *
Ed
 1e-07 1 1 0
1  5 0 0 7.1
3  11 12CN 3 0 0 7.1
0

0101000
+23 0 -16 0 *
Wi

0101100
-15 0 +14 0 +22 0 -14 0 *
Fa
0  1e-07 3 0

0101000
+13 0 *
Wi

0101100
-19 0 *
Fa
0  1e-07 4 0

0101000
-11 0 *
Ve
1e-07
1.05 -2.57175827820944e-16 8
0 0

0101101
*
Ed
 1e-07 1 1 0
1  6 0 0 6.28318530717959
2  13 6 0 0 6.28318530717959
2  14 7 0 0 6.28318530717959
0

0101000
+9 0 -9 0 *
Ed
 1e-07 1 1 0
1  7 0 0 0.636396103067893
3  15 16CN 6 0 0 0.636396103067893
3  17 18C0 8 9 0 0.636396103067893
3  19 20C0 9 17 0 0.636396103067893
3  21 22C0 10 20 0 0.636396103067893
3  23 24C0 11 28 0 0.636396103067893
3  25 26C0 12 31 0 0.636396103067893
3  27 28C0 13 34 0 0.636396103067893
3  29 30C0 14 36 0 0.636396103067893
3  31 32C0 15 37 0 0.636396103067893
3  33 34C0 16 38 0 0.636396103067893
3  35 36C0 17 39 0 0.636396103067893
3  37 38C0 18 40 0 0.636396103067893
3  39 40C0 19 41 0 0.636396103067893
0

0101000
+16 0 -9 0 *
Wi

0101100
-8 0 +7 0 +15 0 -7 0 *
Fa
0  1e-07 6 0

0101000
+6 0 *
Wi

0101100
+8 0 *
Fa
0  1e-07 7 0

0111000
+4 0 *
Sh

0101100
+17 0 +12 0 -10 0 +5 0 +3 0 *
So

0100000
+2 0 *

+1 0 