DBRep_DrawableShape

CASCADE Topology V3, (c) Open Cascade
Locations 0
Curve2ds 22
1 6.2831853071795862 -0 0 1 
1 0 -0 0 1 
1 0 0 1 0 
2 0 0 1 0 -0 1 9.3345000000000002
1 0 72 1 0 
1 0 74 1 0 
2 0 0 1 0 -0 1 9.3345000000000002
8 0 6.2831853071795862
1 0 0 1 0 
1 0 0 1 0 
2 0 0 1 0 -0 1 9.3345000000000002
1 -1.5707963267948966 1.036930563640301 1 0 
1 -1.5707963267948966 8.0355703126785016 1 0 
1 6.2831853071795862 -6.2831853071795862 0 1 
1 0 -6.2831853071795862 0 1 
1 6.2831853071795862 -0 0 1 
1 0 -0 0 1 
1 0 8.5500000000000007 1 0 
2 0 0 1 0 -0 1 4.75
1 0 1.1578861916713512 1 0 
2 0 0 1 0 -0 1 3.7457162532685326
1 0 1.3022785522073075 1 0 
2 0 0 1 0 -0 1 2.4764672923339819
Curves 10
1 9.3345000000000002 -2.2862931093281936e-15 0 0 0 1 
2 0 0 72 0 0 1 1 0 -0 -0 1 0 9.3345000000000002
2 0 0 74 0 0 1 1 0 -0 -0 1 0 9.3345000000000002
2 0 0 0 0 0 1 1 0 -0 -0 1 0 9.3345000000000002
2 0 0 82.035570312678502 0 0 1 0 -1 0 1 0 -0 4.75
2 0 0 74 -2.4492935982947064e-16 -1 0 1 -2.4492935982947064e-16 0 0 0 1 9.3345000000000002
1 4.75 -1.1634144591899855e-15 74 0 0 1 
2 0 0 82.549999999999997 0 0 1 1 0 -0 -0 1 0 4.75
2 0 0 82.549999999999997 0 0 1 1 0 -0 -0 1 0 3.7457162532685326
2 0 0 83 0 0 1 1 0 -0 -0 1 0 2.4764672923339819
Polygon3D 0
PolygonOnTriangulations 0
Surfaces 9
2 0 0 0 0 0 1 1 0 -0 -0 1 0 9.3345000000000002
3 0 0 72 0 0 1 1 0 -0 -0 1 0 9.3345000000000002
-0.85338107049311696
1 0 0 72 0 0 1 1 0 -0 -0 1 0 
1 0 0 74 0 0 1 1 0 -0 -0 1 0 
4 0 0 74 0 0 1 1 0 -0 -0 1 0 9.3345000000000002
1 0 0 0 0 0 1 1 0 -0 -0 1 0 
2 0 0 74 0 0 1 1 0 -0 -0 1 0 4.75
1 0 0 82.549999999999997 0 0 1 1 0 -0 -0 1 0 
1 0 0 83 0 0 1 1 0 -0 -0 1 0 
Triangulations 0

TShapes 39
Ve
1.00000000888178e-07
9.3345 -2.28629310932819e-15 72
0 0

0101101
*
Ve
1.00000004145351e-07
9.3345 -2.28629310932819e-15 74
0 0

0101101
*
Ed
 1e-07 1 1 0
1  1 0 72 74
3  1 2CN 1 0 72 74
0

0101000
+39 0 -38 0 *
Ed
 1.00000000888178e-07 1 1 0
1  2 0 0 6.28318530717959
2  3 2 0 0 6.28318530717959
2  4 3 0 0 6.28318530717959
2  5 1 0 0 6.28318530717959
0

0101000
+39 0 -39 0 *
Ed
 1.00000004145351e-07 1 1 0
1  3 0 0 6.28318530717959
2  6 1 0 0 6.28318530717959
2  7 4 0 0 6.28318530717959
2  8 5 0 0 6.28318530717959
0

0101000
+38 0 -38 0 *
Wi

0101100
+37 0 +36 0 -37 0 -35 0 *
Fa
0  1e-07 1 0

0101000
+34 0 *
Ve
1e-07
9.3345 -2.28629310932819e-15 0
0 0

0101101
*
Ed
 1e-07 1 1 0
1  1 0 0 72
3  1 2CN 1 0 0 72
0

0101000
+32 0 -39 0 *
Ed
 1e-07 1 1 0
1  4 0 0 6.28318530717959
2  9 1 0 0 6.28318530717959
2  10 6 0 0 6.28318530717959
0

0101000
+32 0 -32 0 *
Wi

0101100
-36 0 +31 0 +30 0 -31 0 *
Fa
0  1e-07 1 0

0101000
+29 0 *
Ve
1.00000318681718e-07
4.74999999999979 -1.16341445918993e-15 82.0355703126787
0 0

0101101
*
Ed
 1e-07 1 1 0
1  5 0 1.5707963267949 7.85398163397448
2  11 5 0 1.5707963267949 7.85398163397448
2  12 7 0 1.5707963267949 7.85398163397448
0

0101100
+27 0 -27 0 *
Ed
 1e-07 1 1 0
1  6 0 6.28318530717959 7.32011587081992
3  13 14CN 5 0 6.28318530717959 7.32011587081992
0

0101000
+38 0 -27 0 *
Wi

0101100
-26 0 +25 0 +35 0 -25 0 *
Fa
0  1e-07 5 0

0101000
+24 0 *
Wi

0101100
-30 0 *
Fa
0  1e-07 6 0

0101000
-22 0 *
Ve
1e-07
4.75 -1.16341445918999e-15 82.55
0 0

0101101
*
Ed
 1e-07 1 1 0
1  7 0 8.03557031267874 8.55
3  15 16CN 7 0 8.03557031267874 8.55
0

0101000
+27 0 -20 0 *
Ed
 1e-07 1 1 0
1  8 0 0 6.28318530717959
2  17 7 0 0 6.28318530717959
2  18 8 0 0 6.28318530717959
0

0101000
+20 0 -20 0 *
Wi

0101100
+19 0 +26 0 -19 0 -18 0 *
Fa
0  1e-07 7 0

0101000
+17 0 *
Wi

0101100
+18 0 *
Ve
1.00000009370891e-07
3.74571625326854 -9.17435884015907e-16 82.55
0 0

0101101
*
Ed
 1e-07 1 1 0
1  9 0 0 6.28318530717959
2  19 5 0 0 6.28318530717959
2  20 8 0 0 6.28318530717959
0

0101100
+14 0 -14 0 *
Wi

0101100
-13 0 *
Fa
0  1e-07 8 0

0101000
+15 0 +12 0 *
Ve
1.00000006246767e-07
2.47646729233398 -6.06559548549983e-16 83
0 0

0101101
*
Ed
 1e-07 1 1 0
1  6 0 7.44107149885094 7.58546385938689
3  13 14CN 5 0 7.44107149885094 7.58546385938689
0

0101000
+14 0 -10 0 *
Ed
 1e-07 1 1 0
1  10 0 0 6.28318530717959
2  21 5 0 0 6.28318530717959
2  22 9 0 0 6.28318530717959
0

0101100
+10 0 -10 0 *
Wi

0101100
+9 0 +13 0 -9 0 -8 0 *
Fa
0  1e-07 5 0

0101000
+7 0 *
Wi

0101100
+8 0 *
Fa
0  1e-07 9 0

0101000
+5 0 *
Sh

0101100
+33 0 +28 0 +23 0 -21 0 +16 0 +11 0 +6 0 +4 0 *
So

0100000
+3 0 *
Co

0100000
+2 0 *

+1 0 