DBRep_DrawableShape

CASCADE Topology V3, (c) Open Cascade
Locations 1
1
              1              -0               0              -0 
              0               1               0               0 
             -0               0               1              -0 
Curve2ds 28
1 6.2831853071795862 -0 0 1 
1 0 -0 0 1 
1 0 0 1 0 
2 0 0 1 0 -0 1 2.5
8 -5.9999999998949782e-07 0.38000060000000002
1 1.9823131728623846 0 0 1 
8 -5.9999999998949782e-07 0.38000060000000002
1 1.39128784747792 0.10999999999999999 0 1 
1 0 0.38 1 0 
2 0 0 1 0 -0 1 2.5
8 -5.9999999998949782e-07 0.38000060000000002
1 1.1592794807274085 0 0 1 
8 -5.9999999998949782e-07 0.38000060000000002
1 1.39128784747792 0.10999999999999999 0 1 
8 0.44999999999999996 2.0499999999999998
1 -1 0.44999999999999996 0 1 
8 0.44999999999999996 2.0499999999999998
1 -0.44999999999999996 0.10999999999999999 1 0 
2 0 0 1 0 -0 1 1.5800000000000001
1 0 0.29999999999999999 1 0 
8 0.44999999999999996 2.0499999999999998
1 1 0.44999999999999996 0 1 
8 0.44999999999999996 2.0499999999999998
1 -0.44999999999999996 0.10999999999999999 1 0 
8 0.29999939999999997 0.68000059999999996
1 2.2561041845039278 0 0 1 
8 0.29999939999999997 0.68000059999999996
1 0.32327429466984259 -0.19 0 1 
8 0.44999999999999996 2.0499999999999998
1 -1 0.44999999999999996 0 1 
8 0.44999999999999996 2.0499999999999998
1 -0.44999999999999996 0.48999999999999999 1 0 
2 0 0 1 0 -0 1 1.5800000000000001
1 0 0.67999999999999994 1 0 
8 0.44999999999999996 2.0499999999999998
1 1 0.44999999999999996 0 1 
8 0.44999999999999996 2.0499999999999998
1 -0.44999999999999996 0.48999999999999999 1 0 
8 0.29999939999999997 0.68000059999999996
1 0.8854884690858652 0 0 1 
8 0.29999939999999997 0.68000059999999996
1 0.32327429466984259 -0.19 0 1 
1 6.2831853071795862 -0 0 1 
1 0 -0 0 1 
Curves 14
1 -6.1232339957367663e-16 -0.19 2.5 0 1 0 
2 0 -0.19 0 0 1 0 0 -0 1 1 0 -0 2.5
1 2.2912878474779199 -0.19 -1 0 1 0 
2 0 0.19 0 0 1 0 0 -0 1 1 0 -0 2.5
1 2.2912878474779199 -0.19 1 0 1 0 
1 0.44999999999999996 -0.19 -1 1 0 0 
2 0 -0.19 0 0 1 0 0 -0 1 1 0 -0 1.5800000000000001
1 0.44999999999999996 -0.19 1 1 0 0 
1 1.2232742946698425 -0.48999999999999999 -1 0 1 0 
1 0.44999999999999996 0.19 -1 1 0 0 
2 0 0.18999999999999995 0 0 1 0 0 -0 1 1 0 -0 1.5800000000000001
1 0.44999999999999996 0.19 1 1 0 0 
1 1.2232742946698425 -0.48999999999999999 1 0 1 0 
1 -3.8698838853056364e-16 -0.48999999999999999 1.5800000000000001 0 1 0 
Polygon3D 0
PolygonOnTriangulations 0
Surfaces 6
2 0 -0.19 0 0 1 0 0 -0 1 1 0 -0 2.5
1 0 -0.19 0 0 1 0 0 -0 1 1 0 -0 
1 0.89999999999999991 -0.29999999999999999 -1 0 0 1 1 0 0 0 1 0 
1 0 0.19 0 0 1 0 0 -0 1 1 0 -0 
1 0.89999999999999991 -0.29999999999999999 1 0 0 1 1 0 0 0 1 0 
2 0 -0.48999999999999999 0 0 1 0 0 -0 1 1 0 -0 1.5800000000000001
Triangulations 0

TShapes 49
Ve
1e-07
-6.12323399573677e-16 0.19 2.5
0 0

0101101
*
Ve
1e-07
-6.12323399573677e-16 -0.19 2.5
0 0

0101101
*
Ed
 1e-07 1 1 0
1  1 0 0 0.38
3  1 2CN 1 0 0 0.38
0

0101000
-49 0 +48 0 *
Ve
1.50000000111022e-07
2.29128784747792 -0.19 -1
0 0

0101101
*
Ed
 1e-07 1 1 0
1  2 0 1.98231317286238 6.28318530717959
2  3 1 0 1.98231317286238 6.28318530717959
2  4 2 0 1.98231317286238 6.28318530717959
0

0101000
+46 0 -48 0 *
Ve
1.50000000111022e-07
2.29128784747792 0.19 -1
0 0

0101101
*
Ed
 1e-07 1 1 0
1  3 0 0 0.38
2  5 1 0 0 0.38
2  6 3 1 0 0.38
0

0101000
+46 0 -44 0 *
Ed
 1e-07 1 1 0
1  4 0 1.98231317286238 6.28318530717959
2  7 1 0 1.98231317286238 6.28318530717959
2  8 4 0 1.98231317286238 6.28318530717959
0

0101000
+44 0 -49 0 *
Wi

0101100
+47 0 +45 0 -43 0 -42 0 *
Fa
0  1e-07 1 0

0101000
+41 0 *
Ve
1.50000000222045e-07
2.29128784747792 0.19 1
0 0

0101101
*
Ed
 1e-07 1 1 0
1  4 0 0 1.15927948072741
2  7 1 0 0 1.15927948072741
2  8 4 0 0 1.15927948072741
0

0101000
+49 0 -39 0 *
Ve
1.50000000222045e-07
2.29128784747792 -0.19 1
0 0

0101101
*
Ed
 1e-07 1 1 0
1  5 0 0 0.38
2  9 1 0 0 0.38
2  10 5 1 0 0.38
0

0101000
+37 0 -39 0 *
Ed
 1e-07 1 1 0
1  2 0 0 1.15927948072741
2  3 1 0 0 1.15927948072741
2  4 2 0 0 1.15927948072741
0

0101000
+48 0 -37 0 *
Wi

0101100
-38 0 +36 0 +35 0 -47 0 *
Fa
0  1e-07 1 0

0101000
+34 0 *
Ve
1.50000000222045e-07
1.22327429466984 -0.19 -1
0 0

0101101
*
Ed
 1.5e-07 1 1 0
1  6 0 0.773274294669842 1.84128784747792
2  11 2 0 0.773274294669842 1.84128784747792
2  12 3 1 0.773274294669842 1.84128784747792
0

0101000
+32 0 -46 0 *
Ve
1.00000000386988e-07
-3.86988388530564e-16 -0.19 1.58
0 0

0101101
*
Ed
 1e-07 1 1 0
1  7 0 2.25610418450393 6.28318530717959
2  13 2 0 2.25610418450393 6.28318530717959
2  14 6 0 2.25610418450393 6.28318530717959
0

0101000
+32 0 -30 0 *
Ve
1.50000000111022e-07
1.22327429466984 -0.19 1
0 0

0101101
*
Ed
 1e-07 1 1 0
1  7 0 0 0.885488469085865
2  13 2 0 0 0.885488469085865
2  14 6 0 0 0.885488469085865
0

0101000
+30 0 -28 0 *
Ed
 1.5e-07 1 1 0
1  8 0 0.773274294669843 1.84128784747792
2  15 2 0 0.773274294669843 1.84128784747792
2  16 5 1 0.773274294669843 1.84128784747792
0

0101000
+28 0 -37 0 *
Wi

0101100
+45 0 +31 0 -29 0 -27 0 -26 0 +35 0 *
Fa
0  1e-07 2 0

0101000
+25 0 *
Ve
1.50000000228878e-07
1.22327429466984 0.19 -1
0 0

0101101
*
Ed
 1e-07 1 1 0
1  9 0 0.3 0.68
2  17 6 0 0.3 0.68
2  18 3 1 0.3 0.68
0

0101000
+32 0 -23 0 *
Ed
 1.5e-07 1 1 0
1  10 0 0.773274294669842 1.84128784747792
2  19 4 0 0.773274294669842 1.84128784747792
2  20 3 1 0.773274294669842 1.84128784747792
0

0101000
+23 0 -44 0 *
Wi

0101100
+31 0 -22 0 -21 0 +43 0 *
Fa
0  1e-07 3 1

0101000
+20 0 *
Ve
1.00000000386988e-07
-3.86988388530564e-16 0.19 1.58
0 0

0101101
*
Ed
 1e-07 1 1 0
1  11 0 2.25610418450393 6.28318530717959
2  21 4 0 2.25610418450393 6.28318530717959
2  22 6 0 2.25610418450393 6.28318530717959
0

0101000
+23 0 -18 0 *
Ve
1.50000000124127e-07
1.22327429466984 0.19 1
0 0

0101101
*
Ed
 1e-07 1 1 0
1  11 0 0 0.885488469085865
2  21 4 0 0 0.885488469085865
2  22 6 0 0 0.885488469085865
0

0101000
+18 0 -16 0 *
Ed
 1.5e-07 1 1 0
1  12 0 0.773274294669843 1.84128784747792
2  23 4 0 0.773274294669843 1.84128784747792
2  24 5 1 0.773274294669843 1.84128784747792
0

0101000
+16 0 -39 0 *
Wi

0101100
+42 0 +21 0 -17 0 -15 0 -14 0 +38 0 *
Fa
0  1e-07 4 0

0101000
+13 0 *
Ed
 1e-07 1 1 0
1  13 0 0.3 0.68
2  25 6 0 0.3 0.68
2  26 5 1 0.3 0.68
0

0101000
+28 0 -16 0 *
Wi

0101100
+26 0 -11 0 -14 0 +36 0 *
Fa
0  1e-07 5 1

0101000
+10 0 *
Ed
 1e-07 1 1 0
1  14 0 0.3 0.68
3  27 28CN 6 0 0.3 0.68
0

0101000
+30 0 -18 0 *
Wi

0101100
+8 0 +29 0 -22 0 -17 0 *
Fa
0  1e-07 6 0

0101000
+7 0 *
Wi

0101100
-15 0 +11 0 +27 0 -8 0 *
Fa
0  1e-07 6 0

0101000
+5 0 *
Sh

0101100
+40 0 +33 0 -24 0 +19 0 +12 0 -9 0 -6 0 -4 0 *
So

0100000
+3 0 *
Co

0100000
+2 0 *

+1 0 