DBRep_DrawableShape

CASCADE Topology V3, (c) Open Cascade
Locations 0
Curve2ds 56
1 0 3 1 0 
2 0 0 1 0 -0 1 1.5
1 6.2831853071795862 -0 0 1 
1 0 -0 0 1 
1 0 0 1 0 
2 0 0 1 0 -0 1 1.5
1 0 5 1 0 
2 0 0 1 0 -0 1 1.1000000000000001
2 0 0 1 0 -0 1 1.1000000000000001
1 6.2831853071795862 -0 0 1 
1 0 -0 0 1 
1 0 0 1 0 
2 0 0 1 0 -0 1 1.1000000000000001
2 0 0 1 0 -0 1 1.1000000000000001
1 0 3 1 0 
2 0 0 1 0 -0 1 2.75
1 6.2831853071795862 -0 0 1 
1 0 -0 0 1 
1 0 0 1 0 
2 0 0 1 0 -0 1 2.75
8 -1.0825317547305489 0.36084391824351619
1 -0.31250000000000006 1.2629537138523066 0.86602540378443871 0.50000000000000011 
8 -1.0825317547305489 0.36084391824351619
1 0.36084391824351619 -0.0099999999999997868 -1 0 
8 -1.0825317547305484 0.36084391824351619
1 -1.2500000000000002 0.36084391824351597 -1.5383701491068509e-16 1 
8 -1.0825317547305484 0.36084391824351619
1 0.36084391824351619 -0.0099999999999997868 -1 -0 
8 -1.0825317547305482 0.36084391824351603
1 -0.93750000000000022 -0.90210979560879068 -0.86602540378443871 0.50000000000000011 
8 -1.0825317547305482 0.36084391824351603
1 0.36084391824351603 -0.0099999999999997868 -1 -0 
8 -1.082531754730548 0.36084391824351608
1 0.31249999999999972 -1.2629537138523066 -0.86602540378443882 -0.49999999999999967 
8 -1.082531754730548 0.36084391824351608
1 0.36084391824351608 -0.0099999999999997868 -1 -0 
8 -1.0825317547305486 0.3608439182435163
1 1.25 -0.36084391824351664 -3.0767402982137008e-16 -1 
8 -1.0825317547305486 0.3608439182435163
1 0.3608439182435163 -0.0099999999999997868 -1 -0 
8 -1.0825317547305486 0.36084391824351625
1 0.93750000000000022 0.90210979560879045 0.86602540378443871 -0.50000000000000011 
8 -1.0825317547305486 0.36084391824351625
1 0.36084391824351625 -0.0099999999999997868 -1 -0 
1 1.443375672974065 0 0 -1 
1 0 0 0 -1 
1 0 -1.3200000000000001 1 0 
1 1.0120102113629934e-16 1.4433756729740645 -0.86602540378443871 -0.50000000000000011 
1 1.443375672974065 0 0 -1 
1 0 0 0 -1 
1 1.4433756729740645 0 0 -1 
1 0 0 0 -1 
1 0 -1.3200000000000001 1 0 
1 -1.2500000000000002 0.72168783648703216 1.5383701491068509e-16 -1 
1 1.4433756729740643 0 0 -1 
1 0 0 0 -1 
1 0 -1.3200000000000001 1 0 
1 -1.25 -0.72168783648703239 0.86602540378443871 -0.50000000000000011 
1 1.4433756729740641 0 0 -1 
1 0 0 0 -1 
1 0 -1.3200000000000001 1 0 
1 -2.5232405843866967e-16 -1.4433756729740645 0.86602540378443882 0.49999999999999967 
1 0 0 0 -1 
1 1.443375672974065 0 0 -1 
1 0 -1.3200000000000001 1 0 
1 1.2499999999999998 -0.72168783648703294 3.0767402982137008e-16 1 
1 0 -1.3200000000000001 1 0 
1 1.2500000000000002 0.72168783648703216 -0.86602540378443871 0.50000000000000011 
Curves 27
2 0 0 8 0 0 1 1 0 -0 -0 1 0 1.5
1 1.5 -3.6739403974420594e-16 5 0 0 1 
2 0 0 5 0 0 1 1 0 -0 -0 1 0 1.5
2 0 0 5 0 0 1 1 0 -0 -0 1 0 1.1000000000000001
1 1.1000000000000001 -2.6942229581241775e-16 0 0 0 1 
2 0 0 0 0 0 1 1 0 -0 -0 1 0 1.1000000000000001
2 0 0 0 0 0 1 1 0 -0 -0 1 0 2.75
1 2.75 -6.735557395310443e-16 -3 0 0 1 
2 0 0 -3 0 0 1 1 0 -0 -0 1 0 2.75
1 -0.31250000000000006 1.2629537138523066 -3 0.86602540378443871 0.50000000000000011 -0 
1 -1.2500000000000002 0.36084391824351597 -3 -1.5383701491068509e-16 1 0 
1 -0.93750000000000022 -0.90210979560879068 -3 -0.86602540378443871 0.50000000000000011 0 
1 0.31249999999999972 -1.2629537138523066 -3 -0.86602540378443882 -0.49999999999999967 0 
1 1.25 -0.36084391824351664 -3 -3.0767402982137008e-16 -1 0 
1 0.93750000000000022 0.90210979560879045 -3 0.86602540378443871 -0.50000000000000011 0 
1 -1.2500000000000002 0.72168783648703216 -3.0099999999999998 0 0 1 
1 8.8381269893742247e-17 1.4433756729740645 -1.6899999999999997 -0.8660254037844386 -0.5 0 
1 8.8381269893742247e-17 1.4433756729740645 -3.0099999999999998 0 0 1 
1 -1.25 -0.72168783648703239 -3.0099999999999998 0 0 1 
1 -1.2500000000000002 0.72168783648703216 -1.6899999999999997 1.5383701491068509e-16 -1 0 
1 -2.6514380968122674e-16 -1.4433756729740645 -3.0099999999999998 0 0 1 
1 -1.25 -0.72168783648703239 -1.6899999999999997 0.8660254037844386 -0.5 0 
1 1.2499999999999998 -0.72168783648703294 -3.0099999999999998 0 0 1 
1 -2.6514380968122674e-16 -1.4433756729740645 -1.6899999999999997 0.86602540378443882 0.49999999999999967 0 
1 1.2500000000000002 0.72168783648703216 -3.0099999999999998 0 0 1 
1 1.2499999999999998 -0.72168783648703294 -1.6899999999999997 3.0767402982137008e-16 1 0 
1 1.2500000000000002 0.72168783648703216 -1.6899999999999997 -0.8660254037844386 0.5 0 
Polygon3D 0
PolygonOnTriangulations 0
Surfaces 16
2 0 0 5 0 0 1 1 0 -0 -0 1 0 1.5
1 0 0 8 0 0 1 1 0 -0 -0 1 0 
1 0 0 5 0 0 1 1 0 -0 -0 1 0 
2 0 0 0 0 0 1 1 0 -0 -0 1 0 1.1000000000000001
1 0 0 5 0 0 1 1 0 -0 -0 1 0 
1 0 0 0 0 0 1 1 0 -0 -0 1 0 
1 0 0 0 0 0 1 1 0 -0 -0 1 0 
2 0 0 -3 0 0 1 1 0 -0 -0 1 0 2.75
1 0 0 -3 0 0 1 1 0 -0 -0 1 0 
1 8.8381269893742247e-17 1.4433756729740645 -3.0099999999999998 0.50000000000000011 -0.86602540378443871 0 -0.86602540378443871 -0.50000000000000011 0 0 -0 -1 
1 -1.2500000000000002 0.72168783648703216 -3.0099999999999998 1 1.5383701491068509e-16 -0 1.5383701491068509e-16 -1 0 0 -0 -1 
1 -1.25 -0.72168783648703239 -3.0099999999999998 0.50000000000000011 0.86602540378443871 -0 0.86602540378443871 -0.50000000000000011 0 0 -0 -1 
1 -2.6514380968122674e-16 -1.4433756729740645 -3.0099999999999998 -0.49999999999999967 0.86602540378443882 0 0.86602540378443882 0.49999999999999967 0 0 0 -1 
1 1.2499999999999998 -0.72168783648703294 -3.0099999999999998 -1 3.0767402982137008e-16 0 3.0767402982137008e-16 1 0 0 0 -1 
1 1.2500000000000002 0.72168783648703216 -3.0099999999999998 -0.50000000000000011 -0.86602540378443871 0 -0.86602540378443871 0.50000000000000011 0 -0 0 -1 
1 -1.2819751242557091e-17 -1.2819751242557091e-17 -1.6899999999999997 0 0 1 1 0 -0 -0 1 0 
Triangulations 0

TShapes 78
Ve
1e-07
1.5 -3.67394039744206e-16 8
0 0

0101101
*
Ed
 1e-07 1 1 0
1  1 0 0 6.28318530717959
2  1 1 0 0 6.28318530717959
2  2 2 0 0 6.28318530717959
0

0101000
+78 0 -78 0 *
Ve
1e-07
1.5 -3.67394039744206e-16 5
0 0

0101101
*
Ed
 1e-07 1 1 0
1  2 0 0 3
3  3 4CN 1 0 0 3
0

0101000
-78 0 +76 0 *
Ed
 1e-07 1 1 0
1  3 0 0 6.28318530717959
2  5 1 0 0 6.28318530717959
2  6 3 0 0 6.28318530717959
0

0101000
+76 0 -76 0 *
Wi

0101100
-77 0 +75 0 +74 0 -75 0 *
Fa
0  1e-07 1 0

0101000
+73 0 *
Wi

0101100
+77 0 *
Fa
0  1e-07 2 0

0101000
+71 0 *
Wi

0101100
+74 0 *
Ve
1e-07
1.1 -2.69422295812418e-16 5
0 0

0101101
*
Ed
 1e-07 1 1 0
1  4 0 0 6.28318530717959
2  7 4 0 0 6.28318530717959
2  8 5 0 0 6.28318530717959
2  9 3 0 0 6.28318530717959
0

0101000
+68 0 -68 0 *
Wi

0101100
-67 0 *
Fa
0  1e-07 3 0

0101000
+69 0 +66 0 *
Ve
1e-07
1.1 -2.69422295812418e-16 0
0 0

0101101
*
Ed
 1e-07 1 1 0
1  5 0 0 5
3  10 11CN 4 0 0 5
0

0101000
-68 0 +64 0 *
Ed
 1e-07 1 1 0
1  6 0 0 6.28318530717959
2  12 4 0 0 6.28318530717959
2  13 6 0 0 6.28318530717959
2  14 7 0 0 6.28318530717959
0

0101000
+64 0 -64 0 *
Wi

0101100
-67 0 +63 0 +62 0 -63 0 *
Fa
0  1e-07 4 0

0101000
+61 0 *
Ve
1e-07
2.75 -6.73555739531044e-16 0
0 0

0101101
*
Ed
 1e-07 1 1 0
1  7 0 0 6.28318530717959
2  15 8 0 0 6.28318530717959
2  16 7 0 0 6.28318530717959
0

0101000
+59 0 -59 0 *
Wi

0101100
+58 0 *
Wi

0101100
-62 0 *
Fa
0  1e-07 7 0

0101000
+57 0 +56 0 *
Ve
1e-07
2.75 -6.73555739531044e-16 -3
0 0

0101101
*
Ed
 1e-07 1 1 0
1  8 0 0 3
3  17 18CN 8 0 0 3
0

0101000
-59 0 +54 0 *
Ed
 1e-07 1 1 0
1  9 0 0 6.28318530717959
2  19 8 0 0 6.28318530717959
2  20 9 0 0 6.28318530717959
0

0101000
+54 0 -54 0 *
Wi

0101100
-58 0 +53 0 +52 0 -53 0 *
Fa
0  1e-07 8 0

0101000
+51 0 *
Wi

0101100
+52 0 *
Ve
1.50000000457757e-07
-1.25 0.721687836487032 -3
0 0

0101101
*
Ve
1.50000000486803e-07
8.83812698937422e-17 1.44337567297406 -3
0 0

0101101
*
Ed
 1.5e-07 1 1 0
1  10 0 -1.08253175473055 0.360843918243516
2  21 9 0 -1.08253175473055 0.360843918243516
2  22 10 0 -1.08253175473055 0.360843918243516
0

0101000
+48 0 -47 0 *
Ve
1.50000000314018e-07
-1.25 -0.721687836487032 -3
0 0

0101101
*
Ed
 1.5e-07 1 1 0
1  11 0 -1.08253175473055 0.360843918243516
2  23 9 0 -1.08253175473055 0.360843918243516
2  24 11 0 -1.08253175473055 0.360843918243516
0

0101000
+45 0 -48 0 *
Ve
1.50000000446176e-07
-2.65143809681227e-16 -1.44337567297406 -3
0 0

0101101
*
Ed
 1.5e-07 1 1 0
1  12 0 -1.08253175473055 0.360843918243516
2  25 9 0 -1.08253175473055 0.360843918243516
2  26 12 0 -1.08253175473055 0.360843918243516
0

0101000
+43 0 -45 0 *
Ve
1.50000000222045e-07
1.25 -0.721687836487033 -3
0 0

0101101
*
Ed
 1.5e-07 1 1 0
1  13 0 -1.08253175473055 0.360843918243516
2  27 9 0 -1.08253175473055 0.360843918243516
2  28 13 0 -1.08253175473055 0.360843918243516
0

0101000
+41 0 -43 0 *
Ve
1.50000000248253e-07
1.25 0.721687836487032 -3
0 0

0101101
*
Ed
 1.5e-07 1 1 0
1  14 0 -1.08253175473055 0.360843918243516
2  29 9 0 -1.08253175473055 0.360843918243516
2  30 14 0 -1.08253175473055 0.360843918243516
0

0101000
+39 0 -41 0 *
Ed
 1.5e-07 1 1 0
1  15 0 -1.08253175473055 0.360843918243516
2  31 9 0 -1.08253175473055 0.360843918243516
2  32 15 0 -1.08253175473055 0.360843918243516
0

0101000
+47 0 -39 0 *
Wi

0101100
+46 0 +44 0 +42 0 +40 0 +38 0 +37 0 *
Fa
0  1e-07 9 0

0101000
+49 0 +36 0 *
Ve
1e-07
-1.25 0.721687836487032 -1.69
0 0

0101101
*
Ed
 1e-07 1 1 0
1  16 0 0.00999999999999979 1.32
2  33 10 0 0.00999999999999979 1.32
2  34 11 0 0.00999999999999979 1.32
0

0101000
+48 0 -34 0 *
Ve
1e-07
8.83812698937422e-17 1.44337567297406 -1.69
0 0

0101101
*
Ed
 1e-07 1 1 0
1  17 0 0 1.44337567297406
2  35 10 0 0 1.44337567297406
2  36 16 0 0 1.44337567297406
0

0101000
+32 0 -34 0 *
Ed
 1e-07 1 1 0
1  18 0 0.00999999999999979 1.32
2  37 15 0 0.00999999999999979 1.32
2  38 10 0 0.00999999999999979 1.32
0

0101000
+47 0 -32 0 *
Wi

0101100
+46 0 -33 0 +31 0 +30 0 *
Fa
0  1e-07 10 0

0101000
+29 0 *
Ve
1e-07
-1.25 -0.721687836487032 -1.69
0 0

0101101
*
Ed
 1e-07 1 1 0
1  19 0 0.00999999999999979 1.32
2  39 11 0 0.00999999999999979 1.32
2  40 12 0 0.00999999999999979 1.32
0

0101000
+45 0 -27 0 *
Ed
 1e-07 1 1 0
1  20 0 0 1.44337567297406
2  41 11 0 0 1.44337567297406
2  42 16 0 0 1.44337567297406
0

0101000
+34 0 -27 0 *
Wi

0101100
+44 0 -26 0 +25 0 +33 0 *
Fa
0  1e-07 11 0

0101000
+24 0 *
Ve
1e-07
-2.65143809681227e-16 -1.44337567297406 -1.69
0 0

0101101
*
Ed
 1e-07 1 1 0
1  21 0 0.00999999999999979 1.32
2  43 12 0 0.00999999999999979 1.32
2  44 13 0 0.00999999999999979 1.32
0

0101000
+43 0 -22 0 *
Ed
 1e-07 1 1 0
1  22 0 0 1.44337567297406
2  45 12 0 0 1.44337567297406
2  46 16 0 0 1.44337567297406
0

0101000
+27 0 -22 0 *
Wi

0101100
+42 0 -21 0 +20 0 +26 0 *
Fa
0  1e-07 12 0

0101000
+19 0 *
Ve
1e-07
1.25 -0.721687836487033 -1.69
0 0

0101101
*
Ed
 1e-07 1 1 0
1  23 0 0.00999999999999979 1.32
2  47 13 0 0.00999999999999979 1.32
2  48 14 0 0.00999999999999979 1.32
0

0101000
+41 0 -17 0 *
Ed
 1e-07 1 1 0
1  24 0 0 1.44337567297406
2  49 13 0 0 1.44337567297406
2  50 16 0 0 1.44337567297406
0

0101000
+22 0 -17 0 *
Wi

0101100
+40 0 -16 0 +15 0 +21 0 *
Fa
0  1e-07 13 0

0101000
+14 0 *
Ve
1e-07
1.25 0.721687836487032 -1.69
0 0

0101101
*
Ed
 1e-07 1 1 0
1  25 0 0.00999999999999979 1.32
2  51 15 0 0.00999999999999979 1.32
2  52 14 0 0.00999999999999979 1.32
0

0101000
+39 0 -12 0 *
Ed
 1e-07 1 1 0
1  26 0 0 1.44337567297406
2  53 14 0 0 1.44337567297406
2  54 16 0 0 1.44337567297406
0

0101000
+17 0 -12 0 *
Wi

0101100
+38 0 -11 0 +10 0 +16 0 *
Fa
0  1e-07 14 0

0101000
+9 0 *
Ed
 1e-07 1 1 0
1  27 0 0 1.44337567297406
2  55 15 0 0 1.44337567297406
2  56 16 0 0 1.44337567297406
0

0101000
+12 0 -32 0 *
Wi

0101100
+37 0 -30 0 +7 0 +11 0 *
Fa
0  1e-07 15 0

0101000
+6 0 *
Wi

0101100
+7 0 +31 0 +25 0 +20 0 +15 0 +10 0 *
Fa
0  1e-07 16 0

0101000
+4 0 *
Sh

0101100
+72 0 +70 0 -65 0 +60 0 +55 0 +50 0 -35 0 +28 0 +23 0 +18 0 
+13 0 +8 0 +5 0 -3 0 *
So

0100000
+2 0 *

+1 0 