DBRep_DrawableShape

CASCADE Topology V3, (c) Open Cascade
Locations 5
1
              1               0               0               0 
              0               1               0               0 
              0               0               1             469 
1
              1               0               0               0 
              0               1               0               0 
              0               0               1            -125 
1
              1               0               0               0 
              0               1               0               0 
              0               0               1            -125 
1
              1               0               0               0 
              0               1               0               0 
              0               0               1             467 
2  1 1 2 1 3 -1 4 -1 0
Curve2ds 50
1 0 2.7999999999999998 1 0 
2 0 0 1 0 -0 1 3.5
2 0 0 1 0 -0 1 3.5
1 6.2831853071795862 -0 0 1 
1 0 -0 0 1 
1 0 0 1 0 
2 0 0 1 0 -0 1 3.5
1 0 0 1 0 
2 0 0 1 0 -0 1 2
2 0 0 1 0 -0 1 2
8 -1.0825317547305489 0.36084391824351619
1 -0.31250000000000006 1.2629537138523066 0.86602540378443871 0.50000000000000011 
8 -1.0825317547305489 0.36084391824351619
1 0.36084391824351619 -0.0099999999999997868 -1 0 
8 -1.0825317547305484 0.36084391824351619
1 -1.2500000000000002 0.36084391824351597 -1.5383701491068509e-16 1 
8 -1.0825317547305484 0.36084391824351619
1 0.36084391824351619 -0.0099999999999997868 -1 -0 
8 -1.0825317547305482 0.36084391824351603
1 -0.93750000000000022 -0.90210979560879068 -0.86602540378443871 0.50000000000000011 
8 -1.0825317547305482 0.36084391824351603
1 0.36084391824351603 -0.0099999999999997868 -1 -0 
8 -1.082531754730548 0.36084391824351608
1 0.31249999999999972 -1.2629537138523066 -0.86602540378443882 -0.49999999999999967 
8 -1.082531754730548 0.36084391824351608
1 0.36084391824351608 -0.0099999999999997868 -1 -0 
8 -1.0825317547305486 0.3608439182435163
1 1.25 -0.36084391824351664 -3.0767402982137008e-16 -1 
8 -1.0825317547305486 0.3608439182435163
1 0.3608439182435163 -0.0099999999999997868 -1 -0 
8 -1.0825317547305486 0.36084391824351625
1 0.93750000000000022 0.90210979560879045 0.86602540378443871 -0.50000000000000011 
8 -1.0825317547305486 0.36084391824351625
1 0.36084391824351625 -0.0099999999999997868 -1 -0 
1 0 8 1 0 
2 0 0 1 0 -0 1 2
1 6.2831853071795862 -0 0 1 
1 0 -0 0 1 
1 1.443375672974065 0 0 -1 
1 0 0 0 -1 
1 0 -2.3199999999999998 1 0 
1 1.0120102113629934e-16 1.4433756729740645 -0.86602540378443871 -0.50000000000000011 
1 1.443375672974065 0 0 -1 
1 0 0 0 -1 
1 1.4433756729740645 0 0 -1 
1 0 0 0 -1 
1 0 -2.3199999999999998 1 0 
1 -1.2500000000000002 0.72168783648703216 1.5383701491068509e-16 -1 
1 1.4433756729740643 0 0 -1 
1 0 0 0 -1 
1 0 -2.3199999999999998 1 0 
1 -1.25 -0.72168783648703239 0.86602540378443871 -0.50000000000000011 
1 1.4433756729740641 0 0 -1 
1 0 0 0 -1 
1 0 -2.3199999999999998 1 0 
1 -2.5232405843866967e-16 -1.4433756729740645 0.86602540378443882 0.49999999999999967 
1 0 0 0 -1 
1 1.443375672974065 0 0 -1 
1 0 -2.3199999999999998 1 0 
1 1.2499999999999998 -0.72168783648703294 3.0767402982137008e-16 1 
1 0 -2.3199999999999998 1 0 
1 1.2500000000000002 0.72168783648703216 -0.86602540378443871 0.50000000000000011 
Curves 24
2 0 0 0 0 0 1 1 0 -0 -0 1 0 3.5
1 3.5 -8.5725275940314722e-16 -2.7999999999999998 0 0 1 
2 0 0 -2.7999999999999998 0 0 1 1 0 -0 -0 1 0 3.5
2 0 0 0 0 0 1 1 0 -0 -0 1 0 2
1 -0.31250000000000006 1.2629537138523066 -2.7999999999999998 0.86602540378443871 0.50000000000000011 -0 
1 -1.2500000000000002 0.36084391824351597 -2.7999999999999998 -1.5383701491068509e-16 1 0 
1 -0.93750000000000022 -0.90210979560879068 -2.7999999999999998 -0.86602540378443871 0.50000000000000011 0 
1 0.31249999999999972 -1.2629537138523066 -2.7999999999999998 -0.86602540378443882 -0.49999999999999967 0 
1 1.25 -0.36084391824351664 -2.7999999999999998 -3.0767402982137008e-16 -1 0 
1 0.93750000000000022 0.90210979560879045 -2.7999999999999998 0.86602540378443871 -0.50000000000000011 0 
2 0 0 8 0 0 1 1 0 -0 -0 1 0 2
1 2 -4.8985871965894128e-16 0 0 0 1 
1 -1.2500000000000002 0.72168783648703216 -2.8099999999999996 0 0 1 
1 8.8381269893742247e-17 1.4433756729740645 -0.48999999999999977 -0.8660254037844386 -0.5 0 
1 8.8381269893742247e-17 1.4433756729740645 -2.8099999999999996 0 0 1 
1 -1.25 -0.72168783648703239 -2.8099999999999996 0 0 1 
1 -1.2500000000000002 0.72168783648703216 -0.48999999999999977 1.5383701491068509e-16 -1 0 
1 -2.6514380968122674e-16 -1.4433756729740645 -2.8099999999999996 0 0 1 
1 -1.25 -0.72168783648703239 -0.48999999999999977 0.8660254037844386 -0.5 0 
1 1.2499999999999998 -0.72168783648703294 -2.8099999999999996 0 0 1 
1 -2.6514380968122674e-16 -1.4433756729740645 -0.48999999999999977 0.86602540378443882 0.49999999999999967 0 
1 1.2500000000000002 0.72168783648703216 -2.8099999999999996 0 0 1 
1 1.2499999999999998 -0.72168783648703294 -0.48999999999999977 3.0767402982137008e-16 1 0 
1 1.2500000000000002 0.72168783648703216 -0.48999999999999977 -0.8660254037844386 0.5 0 
Polygon3D 0
PolygonOnTriangulations 0
Surfaces 14
2 0 0 -2.7999999999999998 0 0 1 1 0 -0 -0 1 0 3.5
1 0 0 0 0 0 1 1 0 -0 -0 1 0 
1 0 0 -2 0 0 1 1 0 -0 -0 1 0 
1 0 0 -2.7999999999999998 0 0 1 1 0 -0 -0 1 0 
2 0 0 0 0 0 1 1 0 -0 -0 1 0 2
1 0 0 0 0 0 1 1 0 -0 -0 1 0 
1 8.8381269893742247e-17 1.4433756729740645 -2.8099999999999996 0.50000000000000011 -0.86602540378443871 0 -0.86602540378443871 -0.50000000000000011 0 0 -0 -1 
1 -1.2500000000000002 0.72168783648703216 -2.8099999999999996 1 1.5383701491068509e-16 -0 1.5383701491068509e-16 -1 0 0 -0 -1 
1 -1.25 -0.72168783648703239 -2.8099999999999996 0.50000000000000011 0.86602540378443871 -0 0.86602540378443871 -0.50000000000000011 0 0 -0 -1 
1 -2.6514380968122674e-16 -1.4433756729740645 -2.8099999999999996 -0.49999999999999967 0.86602540378443882 0 0.86602540378443882 0.49999999999999967 0 0 0 -1 
1 1.2499999999999998 -0.72168783648703294 -2.8099999999999996 -1 3.0767402982137008e-16 0 3.0767402982137008e-16 1 0 0 0 -1 
1 1.2500000000000002 0.72168783648703216 -2.8099999999999996 -0.50000000000000011 -0.86602540378443871 0 -0.86602540378443871 0.50000000000000011 0 -0 0 -1 
1 0 0 8 0 0 1 1 0 -0 -0 1 0 
1 -1.2819751242557091e-17 -1.2819751242557091e-17 -0.48999999999999977 0 0 1 1 0 -0 -0 1 0 
Triangulations 0

TShapes 68
Ve
1e-07
3.5 -8.57252759403147e-16 0
0 0

0101101
*
Ed
 1e-07 1 1 0
1  1 0 0 6.28318530717959
2  1 1 0 0 6.28318530717959
2  2 2 0 0 6.28318530717959
2  3 3 5 0 6.28318530717959
0

0101000
+68 0 -68 0 *
Ve
1e-07
3.5 -8.57252759403147e-16 -2.8
0 0

0101101
*
Ed
 1e-07 1 1 0
1  2 0 0 2.8
3  4 5CN 1 0 0 2.8
0

0101000
-68 0 +66 0 *
Ed
 1e-07 1 1 0
1  3 0 0 6.28318530717959
2  6 1 0 0 6.28318530717959
2  7 4 0 0 6.28318530717959
0

0101000
+66 0 -66 0 *
Wi

0101100
-67 0 +65 0 +64 0 -65 0 *
Fa
0  1e-07 1 0

0101000
+63 0 *
Wi

0101100
+67 0 *
Ve
1e-07
2 -4.89858719658941e-16 0
0 0

0101101
*
Ed
 1e-07 1 1 0
1  4 0 0 6.28318530717959
2  8 5 0 0 6.28318530717959
2  9 6 0 0 6.28318530717959
2  10 2 0 0 6.28318530717959
0

0101000
+60 0 -60 0 *
Wi

0101100
-59 0 *
Fa
0  1e-07 2 0

0101000
+61 0 +58 0 *
Wi

0101100
+64 0 *
Ve
1.50000000457757e-07
-1.25 0.721687836487032 -2.8
0 0

0101101
*
Ve
1.50000000486803e-07
8.83812698937422e-17 1.44337567297406 -2.8
0 0

0101101
*
Ed
 1.5e-07 1 1 0
1  5 0 -1.08253175473055 0.360843918243516
2  11 4 0 -1.08253175473055 0.360843918243516
2  12 7 0 -1.08253175473055 0.360843918243516
0

0101000
+55 0 -54 0 *
Ve
1.50000000314018e-07
-1.25 -0.721687836487032 -2.8
0 0

0101101
*
Ed
 1.5e-07 1 1 0
1  6 0 -1.08253175473055 0.360843918243516
2  13 4 0 -1.08253175473055 0.360843918243516
2  14 8 0 -1.08253175473055 0.360843918243516
0

0101000
+52 0 -55 0 *
Ve
1.50000000446176e-07
-2.65143809681227e-16 -1.44337567297406 -2.8
0 0

0101101
*
Ed
 1.5e-07 1 1 0
1  7 0 -1.08253175473055 0.360843918243516
2  15 4 0 -1.08253175473055 0.360843918243516
2  16 9 0 -1.08253175473055 0.360843918243516
0

0101000
+50 0 -52 0 *
Ve
1.50000000222045e-07
1.25 -0.721687836487033 -2.8
0 0

0101101
*
Ed
 1.5e-07 1 1 0
1  8 0 -1.08253175473055 0.360843918243516
2  17 4 0 -1.08253175473055 0.360843918243516
2  18 10 0 -1.08253175473055 0.360843918243516
0

0101000
+48 0 -50 0 *
Ve
1.50000000248253e-07
1.25 0.721687836487032 -2.8
0 0

0101101
*
Ed
 1.5e-07 1 1 0
1  9 0 -1.08253175473055 0.360843918243516
2  19 4 0 -1.08253175473055 0.360843918243516
2  20 11 0 -1.08253175473055 0.360843918243516
0

0101000
+46 0 -48 0 *
Ed
 1.5e-07 1 1 0
1  10 0 -1.08253175473055 0.360843918243516
2  21 4 0 -1.08253175473055 0.360843918243516
2  22 12 0 -1.08253175473055 0.360843918243516
0

0101000
+54 0 -46 0 *
Wi

0101100
+53 0 +51 0 +49 0 +47 0 +45 0 +44 0 *
Fa
0  1e-07 4 0

0101000
+56 0 +43 0 *
Ve
1e-07
2 -4.89858719658941e-16 8
0 0

0101101
*
Ed
 1e-07 1 1 0
1  11 0 0 6.28318530717959
2  23 5 0 0 6.28318530717959
2  24 13 0 0 6.28318530717959
0

0101000
+41 0 -41 0 *
Ed
 1e-07 1 1 0
1  12 0 0 8
3  25 26CN 5 0 0 8
0

0101000
-41 0 +60 0 *
Wi

0101100
-40 0 +39 0 +59 0 -39 0 *
Fa
0  1e-07 5 0

0101000
+38 0 *
Ve
1e-07
-1.25 0.721687836487032 -0.49
0 0

0101101
*
Ed
 1e-07 1 1 0
1  13 0 0.00999999999999979 2.32
2  27 7 0 0.00999999999999979 2.32
2  28 8 0 0.00999999999999979 2.32
0

0101000
+55 0 -36 0 *
Ve
1e-07
8.83812698937422e-17 1.44337567297406 -0.49
0 0

0101101
*
Ed
 1e-07 1 1 0
1  14 0 0 1.44337567297406
2  29 7 0 0 1.44337567297406
2  30 14 0 0 1.44337567297406
0

0101000
+34 0 -36 0 *
Ed
 1e-07 1 1 0
1  15 0 0.00999999999999979 2.32
2  31 12 0 0.00999999999999979 2.32
2  32 7 0 0.00999999999999979 2.32
0

0101000
+54 0 -34 0 *
Wi

0101100
+53 0 -35 0 +33 0 +32 0 *
Fa
0  1e-07 7 0

0101000
+31 0 *
Ve
1e-07
-1.25 -0.721687836487032 -0.49
0 0

0101101
*
Ed
 1e-07 1 1 0
1  16 0 0.00999999999999979 2.32
2  33 8 0 0.00999999999999979 2.32
2  34 9 0 0.00999999999999979 2.32
0

0101000
+52 0 -29 0 *
Ed
 1e-07 1 1 0
1  17 0 0 1.44337567297406
2  35 8 0 0 1.44337567297406
2  36 14 0 0 1.44337567297406
0

0101000
+36 0 -29 0 *
Wi

0101100
+51 0 -28 0 +27 0 +35 0 *
Fa
0  1e-07 8 0

0101000
+26 0 *
Ve
1e-07
-2.65143809681227e-16 -1.44337567297406 -0.49
0 0

0101101
*
Ed
 1e-07 1 1 0
1  18 0 0.00999999999999979 2.32
2  37 9 0 0.00999999999999979 2.32
2  38 10 0 0.00999999999999979 2.32
0

0101000
+50 0 -24 0 *
Ed
 1e-07 1 1 0
1  19 0 0 1.44337567297406
2  39 9 0 0 1.44337567297406
2  40 14 0 0 1.44337567297406
0

0101000
+29 0 -24 0 *
Wi

0101100
+49 0 -23 0 +22 0 +28 0 *
Fa
0  1e-07 9 0

0101000
+21 0 *
Ve
1e-07
1.25 -0.721687836487033 -0.49
0 0

0101101
*
Ed
 1e-07 1 1 0
1  20 0 0.00999999999999979 2.32
2  41 10 0 0.00999999999999979 2.32
2  42 11 0 0.00999999999999979 2.32
0

0101000
+48 0 -19 0 *
Ed
 1e-07 1 1 0
1  21 0 0 1.44337567297406
2  43 10 0 0 1.44337567297406
2  44 14 0 0 1.44337567297406
0

0101000
+24 0 -19 0 *
Wi

0101100
+47 0 -18 0 +17 0 +23 0 *
Fa
0  1e-07 10 0

0101000
+16 0 *
Ve
1e-07
1.25 0.721687836487032 -0.49
0 0

0101101
*
Ed
 1e-07 1 1 0
1  22 0 0.00999999999999979 2.32
2  45 12 0 0.00999999999999979 2.32
2  46 11 0 0.00999999999999979 2.32
0

0101000
+46 0 -14 0 *
Ed
 1e-07 1 1 0
1  23 0 0 1.44337567297406
2  47 11 0 0 1.44337567297406
2  48 14 0 0 1.44337567297406
0

0101000
+19 0 -14 0 *
Wi

0101100
+45 0 -13 0 +12 0 +18 0 *
Fa
0  1e-07 11 0

0101000
+11 0 *
Ed
 1e-07 1 1 0
1  24 0 0 1.44337567297406
2  49 12 0 0 1.44337567297406
2  50 14 0 0 1.44337567297406
0

0101000
+14 0 -34 0 *
Wi

0101100
+44 0 -32 0 +9 0 +13 0 *
Fa
0  1e-07 12 0

0101000
+8 0 *
Wi

0101100
+40 0 *
Fa
0  1e-07 13 0

0101000
+6 0 *
Wi

0101100
+9 0 +33 0 +27 0 +22 0 +17 0 +12 0 *
Fa
0  1e-07 14 0

0101000
+4 0 *
Sh

0101100
+62 0 +57 0 -42 0 +37 0 +30 0 +25 0 +20 0 +15 0 +10 0 +7 0 
+5 0 -3 0 *
So

0100000
+2 0 *

+1 0 