ISO-10303-21;
HEADER;
FILE_DESCRIPTION(('Open CASCADE Model'),'2;1');
FILE_NAME('ACE_HBD_15_25_AA_P_DRAWING_DERIVED','2026-08-18T00:00:00',('STINGRAY DF8 WP02'),(
    'Open CASCADE'),'Open CASCADE STEP processor 7.9','Open CASCADE 7.9'
  ,'Unknown');
FILE_SCHEMA((
'AP242_MANAGED_MODEL_BASED_3D_ENGINEERING_MIM_LF {1 0 10303 442 1 1 4 }'
    ));
ENDSEC;
DATA;
#1 = APPLICATION_PROTOCOL_DEFINITION('international standard',
  'ap242_managed_model_based_3d_engineering',2013,#2);
#2 = APPLICATION_CONTEXT('Managed model based 3d engineering');
#3 = SHAPE_DEFINITION_REPRESENTATION(#4,#10);
#4 = PRODUCT_DEFINITION_SHAPE('','',#5);
#5 = PRODUCT_DEFINITION('design','',#6,#9);
#6 = PRODUCT_DEFINITION_FORMATION('','',#7);
#7 = PRODUCT('Open CASCADE STEP translator 7.9 2',
  'Open CASCADE STEP translator 7.9 2','',(#8));
#8 = PRODUCT_CONTEXT('',#2,'mechanical');
#9 = PRODUCT_DEFINITION_CONTEXT('part definition',#2,'design');
#10 = SHAPE_REPRESENTATION('',(#11,#15,#19),#23);
#11 = AXIS2_PLACEMENT_3D('',#12,#13,#14);
#12 = CARTESIAN_POINT('',(0.,0.,0.));
#13 = DIRECTION('',(0.,0.,1.));
#14 = DIRECTION('',(1.,0.,-0.));
#15 = AXIS2_PLACEMENT_3D('',#16,#17,#18);
#16 = CARTESIAN_POINT('',(0.,0.,0.));
#17 = DIRECTION('',(0.,0.,1.));
#18 = DIRECTION('',(1.,0.,-0.));
#19 = AXIS2_PLACEMENT_3D('',#20,#21,#22);
#20 = CARTESIAN_POINT('',(0.,0.,0.));
#21 = DIRECTION('',(0.,0.,1.));
#22 = DIRECTION('',(1.,0.,-0.));
#23 = ( GEOMETRIC_REPRESENTATION_CONTEXT(3) 
GLOBAL_UNCERTAINTY_ASSIGNED_CONTEXT((#27)) GLOBAL_UNIT_ASSIGNED_CONTEXT(
(#24,#25,#26)) REPRESENTATION_CONTEXT('Context #1',
  '3D Context with UNIT and UNCERTAINTY') );
#24 = ( LENGTH_UNIT() NAMED_UNIT(*) SI_UNIT(.MILLI.,.METRE.) );
#25 = ( NAMED_UNIT(*) PLANE_ANGLE_UNIT() SI_UNIT($,.RADIAN.) );
#26 = ( NAMED_UNIT(*) SI_UNIT($,.STERADIAN.) SOLID_ANGLE_UNIT() );
#27 = UNCERTAINTY_MEASURE_WITH_UNIT(LENGTH_MEASURE(1.E-07),#24,
  'distance_accuracy_value','confusion accuracy');
#28 = PRODUCT_RELATED_PRODUCT_CATEGORY('part',$,(#7));
#29 = SHAPE_DEFINITION_REPRESENTATION(#30,#36);
#30 = PRODUCT_DEFINITION_SHAPE('','',#31);
#31 = PRODUCT_DEFINITION('design','',#32,#35);
#32 = PRODUCT_DEFINITION_FORMATION('','',#33);
#33 = PRODUCT('Open CASCADE STEP translator 7.9 2.1',
  'Open CASCADE STEP translator 7.9 2.1','',(#34));
#34 = PRODUCT_CONTEXT('',#2,'mechanical');
#35 = PRODUCT_DEFINITION_CONTEXT('part definition',#2,'design');
#36 = ADVANCED_BREP_SHAPE_REPRESENTATION('',(#11,#37),#663);
#37 = MANIFOLD_SOLID_BREP('',#38);
#38 = CLOSED_SHELL('',(#39,#127,#162,#265,#320,#327,#445,#526,#576,#629,
    #636));
#39 = ADVANCED_FACE('',(#40),#53,.T.);
#40 = FACE_BOUND('',#41,.T.);
#41 = EDGE_LOOP('',(#42,#76,#99,#126));
#42 = ORIENTED_EDGE('',*,*,#43,.F.);
#43 = EDGE_CURVE('',#44,#44,#46,.T.);
#44 = VERTEX_POINT('',#45);
#45 = CARTESIAN_POINT('',(7.5,-1.836970198721E-15,117.62560953992));
#46 = SURFACE_CURVE('',#47,(#52,#64),.PCURVE_S1.);
#47 = CIRCLE('',#48,7.5);
#48 = AXIS2_PLACEMENT_3D('',#49,#50,#51);
#49 = CARTESIAN_POINT('',(0.,0.,117.62560953992));
#50 = DIRECTION('',(0.,0.,1.));
#51 = DIRECTION('',(1.,0.,-0.));
#52 = PCURVE('',#53,#58);
#53 = CYLINDRICAL_SURFACE('',#54,7.5);
#54 = AXIS2_PLACEMENT_3D('',#55,#56,#57);
#55 = CARTESIAN_POINT('',(0.,0.,38.625609539921));
#56 = DIRECTION('',(0.,0.,1.));
#57 = DIRECTION('',(1.,0.,-0.));
#58 = DEFINITIONAL_REPRESENTATION('',(#59),#63);
#59 = LINE('',#60,#61);
#60 = CARTESIAN_POINT('',(0.,79.));
#61 = VECTOR('',#62,1.);
#62 = DIRECTION('',(1.,0.));
#63 = ( GEOMETRIC_REPRESENTATION_CONTEXT(2) 
PARAMETRIC_REPRESENTATION_CONTEXT() REPRESENTATION_CONTEXT('2D SPACE',''
  ) );
#64 = PCURVE('',#65,#70);
#65 = PLANE('',#66);
#66 = AXIS2_PLACEMENT_3D('',#67,#68,#69);
#67 = CARTESIAN_POINT('',(0.,0.,117.62560953992));
#68 = DIRECTION('',(0.,0.,1.));
#69 = DIRECTION('',(1.,0.,-0.));
#70 = DEFINITIONAL_REPRESENTATION('',(#71),#75);
#71 = CIRCLE('',#72,7.5);
#72 = AXIS2_PLACEMENT_2D('',#73,#74);
#73 = CARTESIAN_POINT('',(0.,0.));
#74 = DIRECTION('',(1.,0.));
#75 = ( GEOMETRIC_REPRESENTATION_CONTEXT(2) 
PARAMETRIC_REPRESENTATION_CONTEXT() REPRESENTATION_CONTEXT('2D SPACE',''
  ) );
#76 = ORIENTED_EDGE('',*,*,#77,.F.);
#77 = EDGE_CURVE('',#78,#44,#80,.T.);
#78 = VERTEX_POINT('',#79);
#79 = CARTESIAN_POINT('',(7.5,-1.836970198721E-15,38.625609539921));
#80 = SEAM_CURVE('',#81,(#85,#92),.PCURVE_S1.);
#81 = LINE('',#82,#83);
#82 = CARTESIAN_POINT('',(7.5,-1.836970198721E-15,38.625609539921));
#83 = VECTOR('',#84,1.);
#84 = DIRECTION('',(0.,0.,1.));
#85 = PCURVE('',#53,#86);
#86 = DEFINITIONAL_REPRESENTATION('',(#87),#91);
#87 = LINE('',#88,#89);
#88 = CARTESIAN_POINT('',(6.28318530718,-0.));
#89 = VECTOR('',#90,1.);
#90 = DIRECTION('',(0.,1.));
#91 = ( GEOMETRIC_REPRESENTATION_CONTEXT(2) 
PARAMETRIC_REPRESENTATION_CONTEXT() REPRESENTATION_CONTEXT('2D SPACE',''
  ) );
#92 = PCURVE('',#53,#93);
#93 = DEFINITIONAL_REPRESENTATION('',(#94),#98);
#94 = LINE('',#95,#96);
#95 = CARTESIAN_POINT('',(0.,-0.));
#96 = VECTOR('',#97,1.);
#97 = DIRECTION('',(0.,1.));
#98 = ( GEOMETRIC_REPRESENTATION_CONTEXT(2) 
PARAMETRIC_REPRESENTATION_CONTEXT() REPRESENTATION_CONTEXT('2D SPACE',''
  ) );
#99 = ORIENTED_EDGE('',*,*,#100,.T.);
#100 = EDGE_CURVE('',#78,#78,#101,.T.);
#101 = SURFACE_CURVE('',#102,(#107,#114),.PCURVE_S1.);
#102 = CIRCLE('',#103,7.5);
#103 = AXIS2_PLACEMENT_3D('',#104,#105,#106);
#104 = CARTESIAN_POINT('',(0.,0.,38.625609539921));
#105 = DIRECTION('',(0.,0.,1.));
#106 = DIRECTION('',(1.,0.,-0.));
#107 = PCURVE('',#53,#108);
#108 = DEFINITIONAL_REPRESENTATION('',(#109),#113);
#109 = LINE('',#110,#111);
#110 = CARTESIAN_POINT('',(0.,0.));
#111 = VECTOR('',#112,1.);
#112 = DIRECTION('',(1.,0.));
#113 = ( GEOMETRIC_REPRESENTATION_CONTEXT(2) 
PARAMETRIC_REPRESENTATION_CONTEXT() REPRESENTATION_CONTEXT('2D SPACE',''
  ) );
#114 = PCURVE('',#115,#120);
#115 = PLANE('',#116);
#116 = AXIS2_PLACEMENT_3D('',#117,#118,#119);
#117 = CARTESIAN_POINT('',(0.,0.,38.625609539921));
#118 = DIRECTION('',(0.,0.,1.));
#119 = DIRECTION('',(1.,0.,-0.));
#120 = DEFINITIONAL_REPRESENTATION('',(#121),#125);
#121 = CIRCLE('',#122,7.5);
#122 = AXIS2_PLACEMENT_2D('',#123,#124);
#123 = CARTESIAN_POINT('',(0.,0.));
#124 = DIRECTION('',(1.,0.));
#125 = ( GEOMETRIC_REPRESENTATION_CONTEXT(2) 
PARAMETRIC_REPRESENTATION_CONTEXT() REPRESENTATION_CONTEXT('2D SPACE',''
  ) );
#126 = ORIENTED_EDGE('',*,*,#77,.T.);
#127 = ADVANCED_FACE('',(#128,#131),#65,.T.);
#128 = FACE_BOUND('',#129,.T.);
#129 = EDGE_LOOP('',(#130));
#130 = ORIENTED_EDGE('',*,*,#43,.T.);
#131 = FACE_BOUND('',#132,.T.);
#132 = EDGE_LOOP('',(#133));
#133 = ORIENTED_EDGE('',*,*,#134,.F.);
#134 = EDGE_CURVE('',#135,#135,#137,.T.);
#135 = VERTEX_POINT('',#136);
#136 = CARTESIAN_POINT('',(5.,-1.224646799147E-15,117.62560953992));
#137 = SURFACE_CURVE('',#138,(#143,#150),.PCURVE_S1.);
#138 = CIRCLE('',#139,5.);
#139 = AXIS2_PLACEMENT_3D('',#140,#141,#142);
#140 = CARTESIAN_POINT('',(0.,0.,117.62560953992));
#141 = DIRECTION('',(0.,0.,1.));
#142 = DIRECTION('',(1.,0.,-0.));
#143 = PCURVE('',#65,#144);
#144 = DEFINITIONAL_REPRESENTATION('',(#145),#149);
#145 = CIRCLE('',#146,5.);
#146 = AXIS2_PLACEMENT_2D('',#147,#148);
#147 = CARTESIAN_POINT('',(0.,0.));
#148 = DIRECTION('',(1.,0.));
#149 = ( GEOMETRIC_REPRESENTATION_CONTEXT(2) 
PARAMETRIC_REPRESENTATION_CONTEXT() REPRESENTATION_CONTEXT('2D SPACE',''
  ) );
#150 = PCURVE('',#151,#156);
#151 = CYLINDRICAL_SURFACE('',#152,5.);
#152 = AXIS2_PLACEMENT_3D('',#153,#154,#155);
#153 = CARTESIAN_POINT('',(0.,0.,117.62560953992));
#154 = DIRECTION('',(0.,0.,1.));
#155 = DIRECTION('',(1.,0.,-0.));
#156 = DEFINITIONAL_REPRESENTATION('',(#157),#161);
#157 = LINE('',#158,#159);
#158 = CARTESIAN_POINT('',(0.,0.));
#159 = VECTOR('',#160,1.);
#160 = DIRECTION('',(1.,0.));
#161 = ( GEOMETRIC_REPRESENTATION_CONTEXT(2) 
PARAMETRIC_REPRESENTATION_CONTEXT() REPRESENTATION_CONTEXT('2D SPACE',''
  ) );
#162 = ADVANCED_FACE('',(#163,#166),#115,.F.);
#163 = FACE_BOUND('',#164,.F.);
#164 = EDGE_LOOP('',(#165));
#165 = ORIENTED_EDGE('',*,*,#100,.T.);
#166 = FACE_BOUND('',#167,.F.);
#167 = EDGE_LOOP('',(#168,#198,#221,#244));
#168 = ORIENTED_EDGE('',*,*,#169,.T.);
#169 = EDGE_CURVE('',#170,#172,#174,.T.);
#170 = VERTEX_POINT('',#171);
#171 = CARTESIAN_POINT('',(-4.,-4.,38.625609539921));
#172 = VERTEX_POINT('',#173);
#173 = CARTESIAN_POINT('',(-4.,4.,38.625609539921));
#174 = SURFACE_CURVE('',#175,(#179,#186),.PCURVE_S1.);
#175 = LINE('',#176,#177);
#176 = CARTESIAN_POINT('',(-4.,-4.,38.625609539921));
#177 = VECTOR('',#178,1.);
#178 = DIRECTION('',(0.,1.,0.));
#179 = PCURVE('',#115,#180);
#180 = DEFINITIONAL_REPRESENTATION('',(#181),#185);
#181 = LINE('',#182,#183);
#182 = CARTESIAN_POINT('',(-4.,-4.));
#183 = VECTOR('',#184,1.);
#184 = DIRECTION('',(0.,1.));
#185 = ( GEOMETRIC_REPRESENTATION_CONTEXT(2) 
PARAMETRIC_REPRESENTATION_CONTEXT() REPRESENTATION_CONTEXT('2D SPACE',''
  ) );
#186 = PCURVE('',#187,#192);
#187 = PLANE('',#188);
#188 = AXIS2_PLACEMENT_3D('',#189,#190,#191);
#189 = CARTESIAN_POINT('',(-4.,-4.,38.625609539921));
#190 = DIRECTION('',(0.,0.,1.));
#191 = DIRECTION('',(1.,0.,0.));
#192 = DEFINITIONAL_REPRESENTATION('',(#193),#197);
#193 = LINE('',#194,#195);
#194 = CARTESIAN_POINT('',(0.,0.));
#195 = VECTOR('',#196,1.);
#196 = DIRECTION('',(0.,1.));
#197 = ( GEOMETRIC_REPRESENTATION_CONTEXT(2) 
PARAMETRIC_REPRESENTATION_CONTEXT() REPRESENTATION_CONTEXT('2D SPACE',''
  ) );
#198 = ORIENTED_EDGE('',*,*,#199,.T.);
#199 = EDGE_CURVE('',#172,#200,#202,.T.);
#200 = VERTEX_POINT('',#201);
#201 = CARTESIAN_POINT('',(4.,4.,38.625609539921));
#202 = SURFACE_CURVE('',#203,(#207,#214),.PCURVE_S1.);
#203 = LINE('',#204,#205);
#204 = CARTESIAN_POINT('',(-4.,4.,38.625609539921));
#205 = VECTOR('',#206,1.);
#206 = DIRECTION('',(1.,0.,0.));
#207 = PCURVE('',#115,#208);
#208 = DEFINITIONAL_REPRESENTATION('',(#209),#213);
#209 = LINE('',#210,#211);
#210 = CARTESIAN_POINT('',(-4.,4.));
#211 = VECTOR('',#212,1.);
#212 = DIRECTION('',(1.,0.));
#213 = ( GEOMETRIC_REPRESENTATION_CONTEXT(2) 
PARAMETRIC_REPRESENTATION_CONTEXT() REPRESENTATION_CONTEXT('2D SPACE',''
  ) );
#214 = PCURVE('',#187,#215);
#215 = DEFINITIONAL_REPRESENTATION('',(#216),#220);
#216 = LINE('',#217,#218);
#217 = CARTESIAN_POINT('',(0.,8.));
#218 = VECTOR('',#219,1.);
#219 = DIRECTION('',(1.,0.));
#220 = ( GEOMETRIC_REPRESENTATION_CONTEXT(2) 
PARAMETRIC_REPRESENTATION_CONTEXT() REPRESENTATION_CONTEXT('2D SPACE',''
  ) );
#221 = ORIENTED_EDGE('',*,*,#222,.F.);
#222 = EDGE_CURVE('',#223,#200,#225,.T.);
#223 = VERTEX_POINT('',#224);
#224 = CARTESIAN_POINT('',(4.,-4.,38.625609539921));
#225 = SURFACE_CURVE('',#226,(#230,#237),.PCURVE_S1.);
#226 = LINE('',#227,#228);
#227 = CARTESIAN_POINT('',(4.,-4.,38.625609539921));
#228 = VECTOR('',#229,1.);
#229 = DIRECTION('',(0.,1.,0.));
#230 = PCURVE('',#115,#231);
#231 = DEFINITIONAL_REPRESENTATION('',(#232),#236);
#232 = LINE('',#233,#234);
#233 = CARTESIAN_POINT('',(4.,-4.));
#234 = VECTOR('',#235,1.);
#235 = DIRECTION('',(0.,1.));
#236 = ( GEOMETRIC_REPRESENTATION_CONTEXT(2) 
PARAMETRIC_REPRESENTATION_CONTEXT() REPRESENTATION_CONTEXT('2D SPACE',''
  ) );
#237 = PCURVE('',#187,#238);
#238 = DEFINITIONAL_REPRESENTATION('',(#239),#243);
#239 = LINE('',#240,#241);
#240 = CARTESIAN_POINT('',(8.,0.));
#241 = VECTOR('',#242,1.);
#242 = DIRECTION('',(0.,1.));
#243 = ( GEOMETRIC_REPRESENTATION_CONTEXT(2) 
PARAMETRIC_REPRESENTATION_CONTEXT() REPRESENTATION_CONTEXT('2D SPACE',''
  ) );
#244 = ORIENTED_EDGE('',*,*,#245,.F.);
#245 = EDGE_CURVE('',#170,#223,#246,.T.);
#246 = SURFACE_CURVE('',#247,(#251,#258),.PCURVE_S1.);
#247 = LINE('',#248,#249);
#248 = CARTESIAN_POINT('',(-4.,-4.,38.625609539921));
#249 = VECTOR('',#250,1.);
#250 = DIRECTION('',(1.,0.,0.));
#251 = PCURVE('',#115,#252);
#252 = DEFINITIONAL_REPRESENTATION('',(#253),#257);
#253 = LINE('',#254,#255);
#254 = CARTESIAN_POINT('',(-4.,-4.));
#255 = VECTOR('',#256,1.);
#256 = DIRECTION('',(1.,0.));
#257 = ( GEOMETRIC_REPRESENTATION_CONTEXT(2) 
PARAMETRIC_REPRESENTATION_CONTEXT() REPRESENTATION_CONTEXT('2D SPACE',''
  ) );
#258 = PCURVE('',#187,#259);
#259 = DEFINITIONAL_REPRESENTATION('',(#260),#264);
#260 = LINE('',#261,#262);
#261 = CARTESIAN_POINT('',(0.,0.));
#262 = VECTOR('',#263,1.);
#263 = DIRECTION('',(1.,0.));
#264 = ( GEOMETRIC_REPRESENTATION_CONTEXT(2) 
PARAMETRIC_REPRESENTATION_CONTEXT() REPRESENTATION_CONTEXT('2D SPACE',''
  ) );
#265 = ADVANCED_FACE('',(#266),#151,.T.);
#266 = FACE_BOUND('',#267,.T.);
#267 = EDGE_LOOP('',(#268,#297,#318,#319));
#268 = ORIENTED_EDGE('',*,*,#269,.F.);
#269 = EDGE_CURVE('',#270,#270,#272,.T.);
#270 = VERTEX_POINT('',#271);
#271 = CARTESIAN_POINT('',(5.,-1.224646799147E-15,122.62560953992));
#272 = SURFACE_CURVE('',#273,(#278,#285),.PCURVE_S1.);
#273 = CIRCLE('',#274,5.);
#274 = AXIS2_PLACEMENT_3D('',#275,#276,#277);
#275 = CARTESIAN_POINT('',(0.,0.,122.62560953992));
#276 = DIRECTION('',(0.,0.,1.));
#277 = DIRECTION('',(1.,0.,-0.));
#278 = PCURVE('',#151,#279);
#279 = DEFINITIONAL_REPRESENTATION('',(#280),#284);
#280 = LINE('',#281,#282);
#281 = CARTESIAN_POINT('',(0.,5.));
#282 = VECTOR('',#283,1.);
#283 = DIRECTION('',(1.,0.));
#284 = ( GEOMETRIC_REPRESENTATION_CONTEXT(2) 
PARAMETRIC_REPRESENTATION_CONTEXT() REPRESENTATION_CONTEXT('2D SPACE',''
  ) );
#285 = PCURVE('',#286,#291);
#286 = PLANE('',#287);
#287 = AXIS2_PLACEMENT_3D('',#288,#289,#290);
#288 = CARTESIAN_POINT('',(0.,0.,122.62560953992));
#289 = DIRECTION('',(0.,0.,1.));
#290 = DIRECTION('',(1.,0.,-0.));
#291 = DEFINITIONAL_REPRESENTATION('',(#292),#296);
#292 = CIRCLE('',#293,5.);
#293 = AXIS2_PLACEMENT_2D('',#294,#295);
#294 = CARTESIAN_POINT('',(0.,0.));
#295 = DIRECTION('',(1.,0.));
#296 = ( GEOMETRIC_REPRESENTATION_CONTEXT(2) 
PARAMETRIC_REPRESENTATION_CONTEXT() REPRESENTATION_CONTEXT('2D SPACE',''
  ) );
#297 = ORIENTED_EDGE('',*,*,#298,.F.);
#298 = EDGE_CURVE('',#135,#270,#299,.T.);
#299 = SEAM_CURVE('',#300,(#304,#311),.PCURVE_S1.);
#300 = LINE('',#301,#302);
#301 = CARTESIAN_POINT('',(5.,-1.224646799147E-15,117.62560953992));
#302 = VECTOR('',#303,1.);
#303 = DIRECTION('',(0.,0.,1.));
#304 = PCURVE('',#151,#305);
#305 = DEFINITIONAL_REPRESENTATION('',(#306),#310);
#306 = LINE('',#307,#308);
#307 = CARTESIAN_POINT('',(6.28318530718,-0.));
#308 = VECTOR('',#309,1.);
#309 = DIRECTION('',(0.,1.));
#310 = ( GEOMETRIC_REPRESENTATION_CONTEXT(2) 
PARAMETRIC_REPRESENTATION_CONTEXT() REPRESENTATION_CONTEXT('2D SPACE',''
  ) );
#311 = PCURVE('',#151,#312);
#312 = DEFINITIONAL_REPRESENTATION('',(#313),#317);
#313 = LINE('',#314,#315);
#314 = CARTESIAN_POINT('',(0.,-0.));
#315 = VECTOR('',#316,1.);
#316 = DIRECTION('',(0.,1.));
#317 = ( GEOMETRIC_REPRESENTATION_CONTEXT(2) 
PARAMETRIC_REPRESENTATION_CONTEXT() REPRESENTATION_CONTEXT('2D SPACE',''
  ) );
#318 = ORIENTED_EDGE('',*,*,#134,.T.);
#319 = ORIENTED_EDGE('',*,*,#298,.T.);
#320 = ADVANCED_FACE('',(#321),#187,.F.);
#321 = FACE_BOUND('',#322,.F.);
#322 = EDGE_LOOP('',(#323,#324,#325,#326));
#323 = ORIENTED_EDGE('',*,*,#169,.F.);
#324 = ORIENTED_EDGE('',*,*,#245,.T.);
#325 = ORIENTED_EDGE('',*,*,#222,.T.);
#326 = ORIENTED_EDGE('',*,*,#199,.F.);
#327 = ADVANCED_FACE('',(#328,#331),#286,.T.);
#328 = FACE_BOUND('',#329,.T.);
#329 = EDGE_LOOP('',(#330));
#330 = ORIENTED_EDGE('',*,*,#269,.T.);
#331 = FACE_BOUND('',#332,.T.);
#332 = EDGE_LOOP('',(#333,#363,#391,#419));
#333 = ORIENTED_EDGE('',*,*,#334,.T.);
#334 = EDGE_CURVE('',#335,#337,#339,.T.);
#335 = VERTEX_POINT('',#336);
#336 = CARTESIAN_POINT('',(3.316624790355,-3.,122.62560953992));
#337 = VERTEX_POINT('',#338);
#338 = CARTESIAN_POINT('',(-3.316624790355,-3.,122.62560953992));
#339 = SURFACE_CURVE('',#340,(#344,#351),.PCURVE_S1.);
#340 = LINE('',#341,#342);
#341 = CARTESIAN_POINT('',(0.,-3.,122.62560953992));
#342 = VECTOR('',#343,1.);
#343 = DIRECTION('',(-1.,0.,0.));
#344 = PCURVE('',#286,#345);
#345 = DEFINITIONAL_REPRESENTATION('',(#346),#350);
#346 = LINE('',#347,#348);
#347 = CARTESIAN_POINT('',(0.,-3.));
#348 = VECTOR('',#349,1.);
#349 = DIRECTION('',(-1.,0.));
#350 = ( GEOMETRIC_REPRESENTATION_CONTEXT(2) 
PARAMETRIC_REPRESENTATION_CONTEXT() REPRESENTATION_CONTEXT('2D SPACE',''
  ) );
#351 = PCURVE('',#352,#357);
#352 = PLANE('',#353);
#353 = AXIS2_PLACEMENT_3D('',#354,#355,#356);
#354 = CARTESIAN_POINT('',(0.,-3.,127.62560953992));
#355 = DIRECTION('',(0.,1.,0.));
#356 = DIRECTION('',(0.,-0.,1.));
#357 = DEFINITIONAL_REPRESENTATION('',(#358),#362);
#358 = LINE('',#359,#360);
#359 = CARTESIAN_POINT('',(-5.,0.));
#360 = VECTOR('',#361,1.);
#361 = DIRECTION('',(0.,-1.));
#362 = ( GEOMETRIC_REPRESENTATION_CONTEXT(2) 
PARAMETRIC_REPRESENTATION_CONTEXT() REPRESENTATION_CONTEXT('2D SPACE',''
  ) );
#363 = ORIENTED_EDGE('',*,*,#364,.T.);
#364 = EDGE_CURVE('',#337,#365,#367,.T.);
#365 = VERTEX_POINT('',#366);
#366 = CARTESIAN_POINT('',(-3.316624790355,3.,122.62560953992));
#367 = SURFACE_CURVE('',#368,(#372,#379),.PCURVE_S1.);
#368 = LINE('',#369,#370);
#369 = CARTESIAN_POINT('',(-3.316624790355,-3.,122.62560953992));
#370 = VECTOR('',#371,1.);
#371 = DIRECTION('',(0.,1.,0.));
#372 = PCURVE('',#286,#373);
#373 = DEFINITIONAL_REPRESENTATION('',(#374),#378);
#374 = LINE('',#375,#376);
#375 = CARTESIAN_POINT('',(-3.316624790355,-3.));
#376 = VECTOR('',#377,1.);
#377 = DIRECTION('',(0.,1.));
#378 = ( GEOMETRIC_REPRESENTATION_CONTEXT(2) 
PARAMETRIC_REPRESENTATION_CONTEXT() REPRESENTATION_CONTEXT('2D SPACE',''
  ) );
#379 = PCURVE('',#380,#385);
#380 = CYLINDRICAL_SURFACE('',#381,6.);
#381 = AXIS2_PLACEMENT_3D('',#382,#383,#384);
#382 = CARTESIAN_POINT('',(0.,-3.,127.62560953992));
#383 = DIRECTION('',(0.,1.,0.));
#384 = DIRECTION('',(0.,-0.,1.));
#385 = DEFINITIONAL_REPRESENTATION('',(#386),#390);
#386 = LINE('',#387,#388);
#387 = CARTESIAN_POINT('',(3.727278197047,0.));
#388 = VECTOR('',#389,1.);
#389 = DIRECTION('',(0.,1.));
#390 = ( GEOMETRIC_REPRESENTATION_CONTEXT(2) 
PARAMETRIC_REPRESENTATION_CONTEXT() REPRESENTATION_CONTEXT('2D SPACE',''
  ) );
#391 = ORIENTED_EDGE('',*,*,#392,.F.);
#392 = EDGE_CURVE('',#393,#365,#395,.T.);
#393 = VERTEX_POINT('',#394);
#394 = CARTESIAN_POINT('',(3.316624790355,3.,122.62560953992));
#395 = SURFACE_CURVE('',#396,(#400,#407),.PCURVE_S1.);
#396 = LINE('',#397,#398);
#397 = CARTESIAN_POINT('',(0.,3.,122.62560953992));
#398 = VECTOR('',#399,1.);
#399 = DIRECTION('',(-1.,0.,0.));
#400 = PCURVE('',#286,#401);
#401 = DEFINITIONAL_REPRESENTATION('',(#402),#406);
#402 = LINE('',#403,#404);
#403 = CARTESIAN_POINT('',(0.,3.));
#404 = VECTOR('',#405,1.);
#405 = DIRECTION('',(-1.,0.));
#406 = ( GEOMETRIC_REPRESENTATION_CONTEXT(2) 
PARAMETRIC_REPRESENTATION_CONTEXT() REPRESENTATION_CONTEXT('2D SPACE',''
  ) );
#407 = PCURVE('',#408,#413);
#408 = PLANE('',#409);
#409 = AXIS2_PLACEMENT_3D('',#410,#411,#412);
#410 = CARTESIAN_POINT('',(0.,3.,127.62560953992));
#411 = DIRECTION('',(0.,1.,0.));
#412 = DIRECTION('',(0.,-0.,1.));
#413 = DEFINITIONAL_REPRESENTATION('',(#414),#418);
#414 = LINE('',#415,#416);
#415 = CARTESIAN_POINT('',(-5.,0.));
#416 = VECTOR('',#417,1.);
#417 = DIRECTION('',(0.,-1.));
#418 = ( GEOMETRIC_REPRESENTATION_CONTEXT(2) 
PARAMETRIC_REPRESENTATION_CONTEXT() REPRESENTATION_CONTEXT('2D SPACE',''
  ) );
#419 = ORIENTED_EDGE('',*,*,#420,.F.);
#420 = EDGE_CURVE('',#335,#393,#421,.T.);
#421 = SURFACE_CURVE('',#422,(#426,#433),.PCURVE_S1.);
#422 = LINE('',#423,#424);
#423 = CARTESIAN_POINT('',(3.316624790355,-3.,122.62560953992));
#424 = VECTOR('',#425,1.);
#425 = DIRECTION('',(0.,1.,0.));
#426 = PCURVE('',#286,#427);
#427 = DEFINITIONAL_REPRESENTATION('',(#428),#432);
#428 = LINE('',#429,#430);
#429 = CARTESIAN_POINT('',(3.316624790355,-3.));
#430 = VECTOR('',#431,1.);
#431 = DIRECTION('',(0.,1.));
#432 = ( GEOMETRIC_REPRESENTATION_CONTEXT(2) 
PARAMETRIC_REPRESENTATION_CONTEXT() REPRESENTATION_CONTEXT('2D SPACE',''
  ) );
#433 = PCURVE('',#434,#439);
#434 = CYLINDRICAL_SURFACE('',#435,6.);
#435 = AXIS2_PLACEMENT_3D('',#436,#437,#438);
#436 = CARTESIAN_POINT('',(0.,-3.,127.62560953992));
#437 = DIRECTION('',(0.,1.,0.));
#438 = DIRECTION('',(0.,-0.,1.));
#439 = DEFINITIONAL_REPRESENTATION('',(#440),#444);
#440 = LINE('',#441,#442);
#441 = CARTESIAN_POINT('',(2.555907110133,0.));
#442 = VECTOR('',#443,1.);
#443 = DIRECTION('',(0.,1.));
#444 = ( GEOMETRIC_REPRESENTATION_CONTEXT(2) 
PARAMETRIC_REPRESENTATION_CONTEXT() REPRESENTATION_CONTEXT('2D SPACE',''
  ) );
#445 = ADVANCED_FACE('',(#446,#495),#352,.F.);
#446 = FACE_BOUND('',#447,.F.);
#447 = EDGE_LOOP('',(#448,#472,#494));
#448 = ORIENTED_EDGE('',*,*,#449,.T.);
#449 = EDGE_CURVE('',#337,#450,#452,.T.);
#450 = VERTEX_POINT('',#451);
#451 = CARTESIAN_POINT('',(-1.7763568394E-15,-3.,133.62560953992));
#452 = SURFACE_CURVE('',#453,(#458,#465),.PCURVE_S1.);
#453 = CIRCLE('',#454,6.);
#454 = AXIS2_PLACEMENT_3D('',#455,#456,#457);
#455 = CARTESIAN_POINT('',(0.,-3.,127.62560953992));
#456 = DIRECTION('',(0.,1.,0.));
#457 = DIRECTION('',(0.,-0.,1.));
#458 = PCURVE('',#352,#459);
#459 = DEFINITIONAL_REPRESENTATION('',(#460),#464);
#460 = CIRCLE('',#461,6.);
#461 = AXIS2_PLACEMENT_2D('',#462,#463);
#462 = CARTESIAN_POINT('',(0.,0.));
#463 = DIRECTION('',(1.,0.));
#464 = ( GEOMETRIC_REPRESENTATION_CONTEXT(2) 
PARAMETRIC_REPRESENTATION_CONTEXT() REPRESENTATION_CONTEXT('2D SPACE',''
  ) );
#465 = PCURVE('',#380,#466);
#466 = DEFINITIONAL_REPRESENTATION('',(#467),#471);
#467 = LINE('',#468,#469);
#468 = CARTESIAN_POINT('',(0.,0.));
#469 = VECTOR('',#470,1.);
#470 = DIRECTION('',(1.,0.));
#471 = ( GEOMETRIC_REPRESENTATION_CONTEXT(2) 
PARAMETRIC_REPRESENTATION_CONTEXT() REPRESENTATION_CONTEXT('2D SPACE',''
  ) );
#472 = ORIENTED_EDGE('',*,*,#473,.T.);
#473 = EDGE_CURVE('',#450,#335,#474,.T.);
#474 = SURFACE_CURVE('',#475,(#480,#487),.PCURVE_S1.);
#475 = CIRCLE('',#476,6.);
#476 = AXIS2_PLACEMENT_3D('',#477,#478,#479);
#477 = CARTESIAN_POINT('',(0.,-3.,127.62560953992));
#478 = DIRECTION('',(0.,1.,0.));
#479 = DIRECTION('',(0.,-0.,1.));
#480 = PCURVE('',#352,#481);
#481 = DEFINITIONAL_REPRESENTATION('',(#482),#486);
#482 = CIRCLE('',#483,6.);
#483 = AXIS2_PLACEMENT_2D('',#484,#485);
#484 = CARTESIAN_POINT('',(0.,0.));
#485 = DIRECTION('',(1.,0.));
#486 = ( GEOMETRIC_REPRESENTATION_CONTEXT(2) 
PARAMETRIC_REPRESENTATION_CONTEXT() REPRESENTATION_CONTEXT('2D SPACE',''
  ) );
#487 = PCURVE('',#434,#488);
#488 = DEFINITIONAL_REPRESENTATION('',(#489),#493);
#489 = LINE('',#490,#491);
#490 = CARTESIAN_POINT('',(0.,0.));
#491 = VECTOR('',#492,1.);
#492 = DIRECTION('',(1.,0.));
#493 = ( GEOMETRIC_REPRESENTATION_CONTEXT(2) 
PARAMETRIC_REPRESENTATION_CONTEXT() REPRESENTATION_CONTEXT('2D SPACE',''
  ) );
#494 = ORIENTED_EDGE('',*,*,#334,.T.);
#495 = FACE_BOUND('',#496,.F.);
#496 = EDGE_LOOP('',(#497));
#497 = ORIENTED_EDGE('',*,*,#498,.F.);
#498 = EDGE_CURVE('',#499,#499,#501,.T.);
#499 = VERTEX_POINT('',#500);
#500 = CARTESIAN_POINT('',(-1.7763568394E-15,-3.,130.27560953992));
#501 = SURFACE_CURVE('',#502,(#507,#514),.PCURVE_S1.);
#502 = CIRCLE('',#503,2.65);
#503 = AXIS2_PLACEMENT_3D('',#504,#505,#506);
#504 = CARTESIAN_POINT('',(0.,-3.,127.62560953992));
#505 = DIRECTION('',(0.,1.,0.));
#506 = DIRECTION('',(0.,-0.,1.));
#507 = PCURVE('',#352,#508);
#508 = DEFINITIONAL_REPRESENTATION('',(#509),#513);
#509 = CIRCLE('',#510,2.65);
#510 = AXIS2_PLACEMENT_2D('',#511,#512);
#511 = CARTESIAN_POINT('',(0.,0.));
#512 = DIRECTION('',(1.,0.));
#513 = ( GEOMETRIC_REPRESENTATION_CONTEXT(2) 
PARAMETRIC_REPRESENTATION_CONTEXT() REPRESENTATION_CONTEXT('2D SPACE',''
  ) );
#514 = PCURVE('',#515,#520);
#515 = CYLINDRICAL_SURFACE('',#516,2.65);
#516 = AXIS2_PLACEMENT_3D('',#517,#518,#519);
#517 = CARTESIAN_POINT('',(0.,-8.,127.62560953992));
#518 = DIRECTION('',(0.,1.,0.));
#519 = DIRECTION('',(0.,-0.,1.));
#520 = DEFINITIONAL_REPRESENTATION('',(#521),#525);
#521 = LINE('',#522,#523);
#522 = CARTESIAN_POINT('',(0.,5.));
#523 = VECTOR('',#524,1.);
#524 = DIRECTION('',(1.,0.));
#525 = ( GEOMETRIC_REPRESENTATION_CONTEXT(2) 
PARAMETRIC_REPRESENTATION_CONTEXT() REPRESENTATION_CONTEXT('2D SPACE',''
  ) );
#526 = ADVANCED_FACE('',(#527),#434,.T.);
#527 = FACE_BOUND('',#528,.T.);
#528 = EDGE_LOOP('',(#529,#553,#574,#575));
#529 = ORIENTED_EDGE('',*,*,#530,.F.);
#530 = EDGE_CURVE('',#531,#393,#533,.T.);
#531 = VERTEX_POINT('',#532);
#532 = CARTESIAN_POINT('',(-1.7763568394E-15,3.,133.62560953992));
#533 = SURFACE_CURVE('',#534,(#539,#546),.PCURVE_S1.);
#534 = CIRCLE('',#535,6.);
#535 = AXIS2_PLACEMENT_3D('',#536,#537,#538);
#536 = CARTESIAN_POINT('',(0.,3.,127.62560953992));
#537 = DIRECTION('',(0.,1.,0.));
#538 = DIRECTION('',(0.,-0.,1.));
#539 = PCURVE('',#434,#540);
#540 = DEFINITIONAL_REPRESENTATION('',(#541),#545);
#541 = LINE('',#542,#543);
#542 = CARTESIAN_POINT('',(0.,6.));
#543 = VECTOR('',#544,1.);
#544 = DIRECTION('',(1.,0.));
#545 = ( GEOMETRIC_REPRESENTATION_CONTEXT(2) 
PARAMETRIC_REPRESENTATION_CONTEXT() REPRESENTATION_CONTEXT('2D SPACE',''
  ) );
#546 = PCURVE('',#408,#547);
#547 = DEFINITIONAL_REPRESENTATION('',(#548),#552);
#548 = CIRCLE('',#549,6.);
#549 = AXIS2_PLACEMENT_2D('',#550,#551);
#550 = CARTESIAN_POINT('',(0.,0.));
#551 = DIRECTION('',(1.,0.));
#552 = ( GEOMETRIC_REPRESENTATION_CONTEXT(2) 
PARAMETRIC_REPRESENTATION_CONTEXT() REPRESENTATION_CONTEXT('2D SPACE',''
  ) );
#553 = ORIENTED_EDGE('',*,*,#554,.F.);
#554 = EDGE_CURVE('',#450,#531,#555,.T.);
#555 = SURFACE_CURVE('',#556,(#560,#567),.PCURVE_S1.);
#556 = LINE('',#557,#558);
#557 = CARTESIAN_POINT('',(-1.7763568394E-15,-3.,133.62560953992));
#558 = VECTOR('',#559,1.);
#559 = DIRECTION('',(0.,1.,0.));
#560 = PCURVE('',#434,#561);
#561 = DEFINITIONAL_REPRESENTATION('',(#562),#566);
#562 = LINE('',#563,#564);
#563 = CARTESIAN_POINT('',(0.,-0.));
#564 = VECTOR('',#565,1.);
#565 = DIRECTION('',(0.,1.));
#566 = ( GEOMETRIC_REPRESENTATION_CONTEXT(2) 
PARAMETRIC_REPRESENTATION_CONTEXT() REPRESENTATION_CONTEXT('2D SPACE',''
  ) );
#567 = PCURVE('',#380,#568);
#568 = DEFINITIONAL_REPRESENTATION('',(#569),#573);
#569 = LINE('',#570,#571);
#570 = CARTESIAN_POINT('',(6.28318530718,-0.));
#571 = VECTOR('',#572,1.);
#572 = DIRECTION('',(0.,1.));
#573 = ( GEOMETRIC_REPRESENTATION_CONTEXT(2) 
PARAMETRIC_REPRESENTATION_CONTEXT() REPRESENTATION_CONTEXT('2D SPACE',''
  ) );
#574 = ORIENTED_EDGE('',*,*,#473,.T.);
#575 = ORIENTED_EDGE('',*,*,#420,.T.);
#576 = ADVANCED_FACE('',(#577,#603),#408,.T.);
#577 = FACE_BOUND('',#578,.T.);
#578 = EDGE_LOOP('',(#579,#601,#602));
#579 = ORIENTED_EDGE('',*,*,#580,.T.);
#580 = EDGE_CURVE('',#365,#531,#581,.T.);
#581 = SURFACE_CURVE('',#582,(#587,#594),.PCURVE_S1.);
#582 = CIRCLE('',#583,6.);
#583 = AXIS2_PLACEMENT_3D('',#584,#585,#586);
#584 = CARTESIAN_POINT('',(0.,3.,127.62560953992));
#585 = DIRECTION('',(0.,1.,0.));
#586 = DIRECTION('',(0.,-0.,1.));
#587 = PCURVE('',#408,#588);
#588 = DEFINITIONAL_REPRESENTATION('',(#589),#593);
#589 = CIRCLE('',#590,6.);
#590 = AXIS2_PLACEMENT_2D('',#591,#592);
#591 = CARTESIAN_POINT('',(0.,0.));
#592 = DIRECTION('',(1.,0.));
#593 = ( GEOMETRIC_REPRESENTATION_CONTEXT(2) 
PARAMETRIC_REPRESENTATION_CONTEXT() REPRESENTATION_CONTEXT('2D SPACE',''
  ) );
#594 = PCURVE('',#380,#595);
#595 = DEFINITIONAL_REPRESENTATION('',(#596),#600);
#596 = LINE('',#597,#598);
#597 = CARTESIAN_POINT('',(0.,6.));
#598 = VECTOR('',#599,1.);
#599 = DIRECTION('',(1.,0.));
#600 = ( GEOMETRIC_REPRESENTATION_CONTEXT(2) 
PARAMETRIC_REPRESENTATION_CONTEXT() REPRESENTATION_CONTEXT('2D SPACE',''
  ) );
#601 = ORIENTED_EDGE('',*,*,#530,.T.);
#602 = ORIENTED_EDGE('',*,*,#392,.T.);
#603 = FACE_BOUND('',#604,.T.);
#604 = EDGE_LOOP('',(#605));
#605 = ORIENTED_EDGE('',*,*,#606,.F.);
#606 = EDGE_CURVE('',#607,#607,#609,.T.);
#607 = VERTEX_POINT('',#608);
#608 = CARTESIAN_POINT('',(-1.7763568394E-15,3.,130.27560953992));
#609 = SURFACE_CURVE('',#610,(#615,#622),.PCURVE_S1.);
#610 = CIRCLE('',#611,2.65);
#611 = AXIS2_PLACEMENT_3D('',#612,#613,#614);
#612 = CARTESIAN_POINT('',(0.,3.,127.62560953992));
#613 = DIRECTION('',(0.,1.,0.));
#614 = DIRECTION('',(0.,-0.,1.));
#615 = PCURVE('',#408,#616);
#616 = DEFINITIONAL_REPRESENTATION('',(#617),#621);
#617 = CIRCLE('',#618,2.65);
#618 = AXIS2_PLACEMENT_2D('',#619,#620);
#619 = CARTESIAN_POINT('',(0.,0.));
#620 = DIRECTION('',(1.,0.));
#621 = ( GEOMETRIC_REPRESENTATION_CONTEXT(2) 
PARAMETRIC_REPRESENTATION_CONTEXT() REPRESENTATION_CONTEXT('2D SPACE',''
  ) );
#622 = PCURVE('',#515,#623);
#623 = DEFINITIONAL_REPRESENTATION('',(#624),#628);
#624 = LINE('',#625,#626);
#625 = CARTESIAN_POINT('',(0.,11.));
#626 = VECTOR('',#627,1.);
#627 = DIRECTION('',(1.,0.));
#628 = ( GEOMETRIC_REPRESENTATION_CONTEXT(2) 
PARAMETRIC_REPRESENTATION_CONTEXT() REPRESENTATION_CONTEXT('2D SPACE',''
  ) );
#629 = ADVANCED_FACE('',(#630),#380,.T.);
#630 = FACE_BOUND('',#631,.T.);
#631 = EDGE_LOOP('',(#632,#633,#634,#635));
#632 = ORIENTED_EDGE('',*,*,#554,.T.);
#633 = ORIENTED_EDGE('',*,*,#580,.F.);
#634 = ORIENTED_EDGE('',*,*,#364,.F.);
#635 = ORIENTED_EDGE('',*,*,#449,.T.);
#636 = ADVANCED_FACE('',(#637),#515,.F.);
#637 = FACE_BOUND('',#638,.F.);
#638 = EDGE_LOOP('',(#639,#640,#661,#662));
#639 = ORIENTED_EDGE('',*,*,#606,.F.);
#640 = ORIENTED_EDGE('',*,*,#641,.F.);
#641 = EDGE_CURVE('',#499,#607,#642,.T.);
#642 = SEAM_CURVE('',#643,(#647,#654),.PCURVE_S1.);
#643 = LINE('',#644,#645);
#644 = CARTESIAN_POINT('',(-1.7763568394E-15,-8.,130.27560953992));
#645 = VECTOR('',#646,1.);
#646 = DIRECTION('',(0.,1.,0.));
#647 = PCURVE('',#515,#648);
#648 = DEFINITIONAL_REPRESENTATION('',(#649),#653);
#649 = LINE('',#650,#651);
#650 = CARTESIAN_POINT('',(6.28318530718,-0.));
#651 = VECTOR('',#652,1.);
#652 = DIRECTION('',(0.,1.));
#653 = ( GEOMETRIC_REPRESENTATION_CONTEXT(2) 
PARAMETRIC_REPRESENTATION_CONTEXT() REPRESENTATION_CONTEXT('2D SPACE',''
  ) );
#654 = PCURVE('',#515,#655);
#655 = DEFINITIONAL_REPRESENTATION('',(#656),#660);
#656 = LINE('',#657,#658);
#657 = CARTESIAN_POINT('',(0.,-0.));
#658 = VECTOR('',#659,1.);
#659 = DIRECTION('',(0.,1.));
#660 = ( GEOMETRIC_REPRESENTATION_CONTEXT(2) 
PARAMETRIC_REPRESENTATION_CONTEXT() REPRESENTATION_CONTEXT('2D SPACE',''
  ) );
#661 = ORIENTED_EDGE('',*,*,#498,.T.);
#662 = ORIENTED_EDGE('',*,*,#641,.T.);
#663 = ( GEOMETRIC_REPRESENTATION_CONTEXT(3) 
GLOBAL_UNCERTAINTY_ASSIGNED_CONTEXT((#667)) GLOBAL_UNIT_ASSIGNED_CONTEXT
((#664,#665,#666)) REPRESENTATION_CONTEXT('Context #1',
  '3D Context with UNIT and UNCERTAINTY') );
#664 = ( LENGTH_UNIT() NAMED_UNIT(*) SI_UNIT(.MILLI.,.METRE.) );
#665 = ( NAMED_UNIT(*) PLANE_ANGLE_UNIT() SI_UNIT($,.RADIAN.) );
#666 = ( NAMED_UNIT(*) SI_UNIT($,.STERADIAN.) SOLID_ANGLE_UNIT() );
#667 = UNCERTAINTY_MEASURE_WITH_UNIT(LENGTH_MEASURE(1.E-07),#664,
  'distance_accuracy_value','confusion accuracy');
#668 = CONTEXT_DEPENDENT_SHAPE_REPRESENTATION(#669,#671);
#669 = ( REPRESENTATION_RELATIONSHIP('','',#36,#10) 
REPRESENTATION_RELATIONSHIP_WITH_TRANSFORMATION(#670) 
SHAPE_REPRESENTATION_RELATIONSHIP() );
#670 = ITEM_DEFINED_TRANSFORMATION('','',#11,#15);
#671 = PRODUCT_DEFINITION_SHAPE('Placement','Placement of an item',#672
  );
#672 = NEXT_ASSEMBLY_USAGE_OCCURRENCE('1','','',#5,#31,$);
#673 = PRODUCT_RELATED_PRODUCT_CATEGORY('part',$,(#33));
#674 = SHAPE_DEFINITION_REPRESENTATION(#675,#681);
#675 = PRODUCT_DEFINITION_SHAPE('','',#676);
#676 = PRODUCT_DEFINITION('design','',#677,#680);
#677 = PRODUCT_DEFINITION_FORMATION('','',#678);
#678 = PRODUCT('Open CASCADE STEP translator 7.9 2.2',
  'Open CASCADE STEP translator 7.9 2.2','',(#679));
#679 = PRODUCT_CONTEXT('',#2,'mechanical');
#680 = PRODUCT_DEFINITION_CONTEXT('part definition',#2,'design');
#681 = ADVANCED_BREP_SHAPE_REPRESENTATION('',(#11,#682),#1429);
#682 = MANIFOLD_SOLID_BREP('',#683);
#683 = CLOSED_SHELL('',(#684,#1183,#1243,#1278,#1313,#1343,#1398,#1425)
  );
#684 = ADVANCED_FACE('',(#685),#728,.T.);
#685 = FACE_BOUND('',#686,.T.);
#686 = EDGE_LOOP('',(#687,#809,#832,#859,#860,#985));
#687 = ORIENTED_EDGE('',*,*,#688,.T.);
#688 = EDGE_CURVE('',#689,#691,#693,.T.);
#689 = VERTEX_POINT('',#690);
#690 = CARTESIAN_POINT('',(-1.7763568394E-15,-3.,12.0000001));
#691 = VERTEX_POINT('',#692);
#692 = CARTESIAN_POINT('',(3.,-7.347880794884E-16,11.196152522695));
#693 = SURFACE_CURVE('',#694,(#727,#768),.PCURVE_S1.);
#694 = B_SPLINE_CURVE_WITH_KNOTS('',6,(#695,#696,#697,#698,#699,#700,
    #701,#702,#703,#704,#705,#706,#707,#708,#709,#710,#711,#712,#713,
    #714,#715,#716,#717,#718,#719,#720,#721,#722,#723,#724,#725,#726),
  .UNSPECIFIED.,.F.,.F.,(7,5,5,5,5,5,7),(0.,0.236087042649,
    0.346261622204,0.428543532741,0.489971954549,0.670349827401,1.),
  .UNSPECIFIED.);
#695 = CARTESIAN_POINT('',(0.,-3.,12.0000001));
#696 = CARTESIAN_POINT('',(0.226727659649,-3.,12.0000001));
#697 = CARTESIAN_POINT('',(0.451457284599,-2.979437683787,
    11.989718859826));
#698 = CARTESIAN_POINT('',(0.670762252684,-2.938993448384,
    11.969497138617));
#699 = CARTESIAN_POINT('',(0.881333550924,-2.88034897903,11.940570229813
    ));
#700 = CARTESIAN_POINT('',(1.080176443625,-2.806184541724,11.90498855531
    ));
#701 = CARTESIAN_POINT('',(1.350953820565,-2.680289421478,
    11.846596712925));
#702 = CARTESIAN_POINT('',(1.434356765843,-2.637529867325,
    11.827021917802));
#703 = CARTESIAN_POINT('',(1.514990247562,-2.59228897834,11.806622840823
    ));
#704 = CARTESIAN_POINT('',(1.592848958439,-2.544771973403,
    11.785563684017));
#705 = CARTESIAN_POINT('',(1.667937402993,-2.495169372378,
    11.764000213046));
#706 = CARTESIAN_POINT('',(1.794289220648,-2.405186962816,
    11.725706377564));
#707 = CARTESIAN_POINT('',(1.846782298076,-2.365643759017,
    11.709131264876));
#708 = CARTESIAN_POINT('',(1.897763680747,-2.325093377017,
    11.692410500649));
#709 = CARTESIAN_POINT('',(1.947249877657,-2.283594757548,
    11.675598166586));
#710 = CARTESIAN_POINT('',(1.995258838183,-2.241200397656,
    11.658744924881));
#711 = CARTESIAN_POINT('',(2.07656317355,-2.165672054682,11.629320783661
    ));
#712 = CARTESIAN_POINT('',(2.110503515831,-2.132914454854,
    11.616747205673));
#713 = CARTESIAN_POINT('',(2.143638729089,-2.099702863162,11.60419701973
    ));
#714 = CARTESIAN_POINT('',(2.175976269898,-2.066055216377,
    11.591689209512));
#715 = CARTESIAN_POINT('',(2.207523301237,-2.031988076102,
    11.579242006903));
#716 = CARTESIAN_POINT('',(2.328620041667,-1.896294976627,
    11.530552332693));
#717 = CARTESIAN_POINT('',(2.41221580527,-1.791566447867,11.494897546783
    ));
#718 = CARTESIAN_POINT('',(2.489221391049,-1.683733789427,
    11.460360101914));
#719 = CARTESIAN_POINT('',(2.559758323984,-1.57313278062,11.427346799534
    ));
#720 = CARTESIAN_POINT('',(2.623921499154,-1.460033711712,
    11.396222767401));
#721 = CARTESIAN_POINT('',(2.787515066578,-1.133759937916,11.31448324849
    ));
#722 = CARTESIAN_POINT('',(2.87236888357,-0.91485967595,11.268962451027)
  );
#723 = CARTESIAN_POINT('',(2.936083830694,-0.690191188115,
    11.233054716304));
#724 = CARTESIAN_POINT('',(2.978644714915,-0.461682462672,
    11.208481950924));
#725 = CARTESIAN_POINT('',(3.,-0.231061084778,11.196152522707));
#726 = CARTESIAN_POINT('',(3.,-8.881784197001E-16,11.196152522707));
#727 = PCURVE('',#728,#733);
#728 = CYLINDRICAL_SURFACE('',#729,3.);
#729 = AXIS2_PLACEMENT_3D('',#730,#731,#732);
#730 = CARTESIAN_POINT('',(0.,0.,11.0000001));
#731 = DIRECTION('',(0.,0.,1.));
#732 = DIRECTION('',(1.,0.,-0.));
#733 = DEFINITIONAL_REPRESENTATION('',(#734),#767);
#734 = B_SPLINE_CURVE_WITH_KNOTS('',6,(#735,#736,#737,#738,#739,#740,
    #741,#742,#743,#744,#745,#746,#747,#748,#749,#750,#751,#752,#753,
    #754,#755,#756,#757,#758,#759,#760,#761,#762,#763,#764,#765,#766),
  .UNSPECIFIED.,.F.,.F.,(7,5,5,5,5,5,7),(0.,0.236087042649,
    0.346261622204,0.428543532741,0.489971954549,0.670349827401,1.),
  .UNSPECIFIED.);
#735 = CARTESIAN_POINT('',(4.712388980385,1.));
#736 = CARTESIAN_POINT('',(4.787964866934,1.));
#737 = CARTESIAN_POINT('',(4.86287466622,0.989718759826));
#738 = CARTESIAN_POINT('',(4.936753710203,0.969497038617));
#739 = CARTESIAN_POINT('',(5.009205498273,0.940570129813));
#740 = CARTESIAN_POINT('',(5.07973041328,0.90498845531));
#741 = CARTESIAN_POINT('',(5.17926821691,0.846596612925));
#742 = CARTESIAN_POINT('',(5.210486793609,0.827021817802));
#743 = CARTESIAN_POINT('',(5.241274129507,0.806622740823));
#744 = CARTESIAN_POINT('',(5.271648882377,0.785563584017));
#745 = CARTESIAN_POINT('',(5.301628021009,0.764000113046));
#746 = CARTESIAN_POINT('',(5.353334044573,0.725706277564));
#747 = CARTESIAN_POINT('',(5.375233107229,0.709131164876));
#748 = CARTESIAN_POINT('',(5.396935774114,0.692410400649));
#749 = CARTESIAN_POINT('',(5.418452897639,0.675598066586));
#750 = CARTESIAN_POINT('',(5.439795499534,0.658744824881));
#751 = CARTESIAN_POINT('',(5.476786377601,0.629320683661));
#752 = CARTESIAN_POINT('',(5.49250685589,0.616747105673));
#753 = CARTESIAN_POINT('',(5.508140792083,0.60419691973));
#754 = CARTESIAN_POINT('',(5.523692671597,0.591689109512));
#755 = CARTESIAN_POINT('',(5.539166878897,0.579241906903));
#756 = CARTESIAN_POINT('',(5.599790524621,0.530552232693));
#757 = CARTESIAN_POINT('',(5.6443901614,0.494897446783));
#758 = CARTESIAN_POINT('',(5.688465430779,0.460360001914));
#759 = CARTESIAN_POINT('',(5.732103875098,0.427346699534));
#760 = CARTESIAN_POINT('',(5.775390843139,0.396222667401));
#761 = CARTESIAN_POINT('',(5.897054053487,0.31448314849));
#762 = CARTESIAN_POINT('',(5.974958470425,0.268962351027));
#763 = CARTESIAN_POINT('',(6.052298927869,0.233054616304));
#764 = CARTESIAN_POINT('',(6.129291224838,0.208481850924));
#765 = CARTESIAN_POINT('',(6.206164945587,0.196152422707));
#766 = CARTESIAN_POINT('',(6.28318530718,0.196152422707));
#767 = ( GEOMETRIC_REPRESENTATION_CONTEXT(2) 
PARAMETRIC_REPRESENTATION_CONTEXT() REPRESENTATION_CONTEXT('2D SPACE',''
  ) );
#768 = PCURVE('',#769,#774);
#769 = CYLINDRICAL_SURFACE('',#770,6.);
#770 = AXIS2_PLACEMENT_3D('',#771,#772,#773);
#771 = CARTESIAN_POINT('',(0.,-3.,6.0000001));
#772 = DIRECTION('',(0.,1.,0.));
#773 = DIRECTION('',(0.,-0.,1.));
#774 = DEFINITIONAL_REPRESENTATION('',(#775),#808);
#775 = B_SPLINE_CURVE_WITH_KNOTS('',6,(#776,#777,#778,#779,#780,#781,
    #782,#783,#784,#785,#786,#787,#788,#789,#790,#791,#792,#793,#794,
    #795,#796,#797,#798,#799,#800,#801,#802,#803,#804,#805,#806,#807),
  .UNSPECIFIED.,.F.,.F.,(7,5,5,5,5,5,7),(0.,0.236087042649,
    0.346261622204,0.428543532741,0.489971954549,0.670349827401,1.),
  .UNSPECIFIED.);
#776 = CARTESIAN_POINT('',(0.,0.));
#777 = CARTESIAN_POINT('',(3.778794327487E-02,0.));
#778 = CARTESIAN_POINT('',(7.524294690892E-02,2.056231621349E-02));
#779 = CARTESIAN_POINT('',(0.111890595201,6.100655161628E-02));
#780 = CARTESIAN_POINT('',(0.147269420044,0.11965102097));
#781 = CARTESIAN_POINT('',(0.180915354379,0.193815458276));
#782 = CARTESIAN_POINT('',(0.227082320419,0.319710578522));
#783 = CARTESIAN_POINT('',(0.241358183701,0.362470132675));
#784 = CARTESIAN_POINT('',(0.255217508097,0.40771102166));
#785 = CARTESIAN_POINT('',(0.268657755671,0.455228026597));
#786 = CARTESIAN_POINT('',(0.281676921858,0.504830627622));
#787 = CARTESIAN_POINT('',(0.303681466629,0.594813037184));
#788 = CARTESIAN_POINT('',(0.312855492886,0.634356240983));
#789 = CARTESIAN_POINT('',(0.321796916278,0.674906622983));
#790 = CARTESIAN_POINT('',(0.330506906745,0.716405242452));
#791 = CARTESIAN_POINT('',(0.338986717384,0.758799602344));
#792 = CARTESIAN_POINT('',(0.353397530296,0.834327945318));
#793 = CARTESIAN_POINT('',(0.359429777091,0.867085545146));
#794 = CARTESIAN_POINT('',(0.36533493395,0.900297136838));
#795 = CARTESIAN_POINT('',(0.371113431122,0.933944783623));
#796 = CARTESIAN_POINT('',(0.376765619993,0.968011923898));
#797 = CARTESIAN_POINT('',(0.398518719975,1.103705023373));
#798 = CARTESIAN_POINT('',(0.413662415108,1.208433552133));
#799 = CARTESIAN_POINT('',(0.427725211464,1.316266210573));
#800 = CARTESIAN_POINT('',(0.440703284016,1.42686721938));
#801 = CARTESIAN_POINT('',(0.452588041022,1.539966288288));
#802 = CARTESIAN_POINT('',(0.483067635405,1.866240062084));
#803 = CARTESIAN_POINT('',(0.499109639629,2.08514032405));
#804 = CARTESIAN_POINT('',(0.511297936115,2.309808811885));
#805 = CARTESIAN_POINT('',(0.519488994768,2.538317537328));
#806 = CARTESIAN_POINT('',(0.523598775598,2.768938915222));
#807 = CARTESIAN_POINT('',(0.523598775598,3.));
#808 = ( GEOMETRIC_REPRESENTATION_CONTEXT(2) 
PARAMETRIC_REPRESENTATION_CONTEXT() REPRESENTATION_CONTEXT('2D SPACE',''
  ) );
#809 = ORIENTED_EDGE('',*,*,#810,.T.);
#810 = EDGE_CURVE('',#691,#811,#813,.T.);
#811 = VERTEX_POINT('',#812);
#812 = CARTESIAN_POINT('',(3.,-7.347880794884E-16,35.625609539921));
#813 = SEAM_CURVE('',#814,(#818,#825),.PCURVE_S1.);
#814 = LINE('',#815,#816);
#815 = CARTESIAN_POINT('',(3.,-7.347880794884E-16,11.0000001));
#816 = VECTOR('',#817,1.);
#817 = DIRECTION('',(0.,0.,1.));
#818 = PCURVE('',#728,#819);
#819 = DEFINITIONAL_REPRESENTATION('',(#820),#824);
#820 = LINE('',#821,#822);
#821 = CARTESIAN_POINT('',(0.,-0.));
#822 = VECTOR('',#823,1.);
#823 = DIRECTION('',(0.,1.));
#824 = ( GEOMETRIC_REPRESENTATION_CONTEXT(2) 
PARAMETRIC_REPRESENTATION_CONTEXT() REPRESENTATION_CONTEXT('2D SPACE',''
  ) );
#825 = PCURVE('',#728,#826);
#826 = DEFINITIONAL_REPRESENTATION('',(#827),#831);
#827 = LINE('',#828,#829);
#828 = CARTESIAN_POINT('',(6.28318530718,-0.));
#829 = VECTOR('',#830,1.);
#830 = DIRECTION('',(0.,1.));
#831 = ( GEOMETRIC_REPRESENTATION_CONTEXT(2) 
PARAMETRIC_REPRESENTATION_CONTEXT() REPRESENTATION_CONTEXT('2D SPACE',''
  ) );
#832 = ORIENTED_EDGE('',*,*,#833,.F.);
#833 = EDGE_CURVE('',#811,#811,#834,.T.);
#834 = SURFACE_CURVE('',#835,(#840,#847),.PCURVE_S1.);
#835 = CIRCLE('',#836,3.);
#836 = AXIS2_PLACEMENT_3D('',#837,#838,#839);
#837 = CARTESIAN_POINT('',(0.,0.,35.625609539921));
#838 = DIRECTION('',(0.,0.,1.));
#839 = DIRECTION('',(1.,0.,-0.));
#840 = PCURVE('',#728,#841);
#841 = DEFINITIONAL_REPRESENTATION('',(#842),#846);
#842 = LINE('',#843,#844);
#843 = CARTESIAN_POINT('',(0.,24.625609439921));
#844 = VECTOR('',#845,1.);
#845 = DIRECTION('',(1.,0.));
#846 = ( GEOMETRIC_REPRESENTATION_CONTEXT(2) 
PARAMETRIC_REPRESENTATION_CONTEXT() REPRESENTATION_CONTEXT('2D SPACE',''
  ) );
#847 = PCURVE('',#848,#853);
#848 = PLANE('',#849);
#849 = AXIS2_PLACEMENT_3D('',#850,#851,#852);
#850 = CARTESIAN_POINT('',(0.,0.,35.625609539921));
#851 = DIRECTION('',(0.,0.,1.));
#852 = DIRECTION('',(1.,0.,-0.));
#853 = DEFINITIONAL_REPRESENTATION('',(#854),#858);
#854 = CIRCLE('',#855,3.);
#855 = AXIS2_PLACEMENT_2D('',#856,#857);
#856 = CARTESIAN_POINT('',(0.,0.));
#857 = DIRECTION('',(1.,0.));
#858 = ( GEOMETRIC_REPRESENTATION_CONTEXT(2) 
PARAMETRIC_REPRESENTATION_CONTEXT() REPRESENTATION_CONTEXT('2D SPACE',''
  ) );
#859 = ORIENTED_EDGE('',*,*,#810,.F.);
#860 = ORIENTED_EDGE('',*,*,#861,.T.);
#861 = EDGE_CURVE('',#691,#862,#864,.T.);
#862 = VERTEX_POINT('',#863);
#863 = CARTESIAN_POINT('',(-1.7763568394E-15,3.,12.0000001));
#864 = SURFACE_CURVE('',#865,(#903,#944),.PCURVE_S1.);
#865 = B_SPLINE_CURVE_WITH_KNOTS('',6,(#866,#867,#868,#869,#870,#871,
    #872,#873,#874,#875,#876,#877,#878,#879,#880,#881,#882,#883,#884,
    #885,#886,#887,#888,#889,#890,#891,#892,#893,#894,#895,#896,#897,
    #898,#899,#900,#901,#902),.UNSPECIFIED.,.F.,.F.,(7,5,5,5,5,5,5,7),(
    0.,0.331404947579,0.507858803238,0.569240982725,0.651122750871,
    0.762142704063,0.851589278877,1.),.UNSPECIFIED.);
#866 = CARTESIAN_POINT('',(3.,-8.114832495943E-16,11.196152522707));
#867 = CARTESIAN_POINT('',(3.,0.232448879208,11.196152522707));
#868 = CARTESIAN_POINT('',(2.978387427451,0.464446505983,11.208630493219
    ));
#869 = CARTESIAN_POINT('',(2.935316806062,0.69429378575,11.233497567676)
  );
#870 = CARTESIAN_POINT('',(2.870839698046,0.920235352091,11.269824035699
    ));
#871 = CARTESIAN_POINT('',(2.784968966319,1.140309409803,11.315848694256
    ));
#872 = CARTESIAN_POINT('',(2.620990104909,1.465055614902,11.397635173867
    ));
#873 = CARTESIAN_POINT('',(2.55797090073,1.575682211911,11.428160960818)
  );
#874 = CARTESIAN_POINT('',(2.488842205684,1.68390815435,11.460488615094)
  );
#875 = CARTESIAN_POINT('',(2.41351470493,1.789479353382,11.494275187832)
  );
#876 = CARTESIAN_POINT('',(2.33187461893,1.892081585925,11.529139482572)
  );
#877 = CARTESIAN_POINT('',(2.213140806878,2.025867468045,11.577015383228
    ));
#878 = CARTESIAN_POINT('',(2.181714572235,2.05999334523,11.589451653072)
  );
#879 = CARTESIAN_POINT('',(2.14949882826,2.093701737476,11.60195066857)
  );
#880 = CARTESIAN_POINT('',(2.116486446429,2.126976202617,11.614494266597
    ));
#881 = CARTESIAN_POINT('',(2.082669993239,2.159798939228,11.627063539658
    ));
#882 = CARTESIAN_POINT('',(2.001848789054,2.235307065707,11.656413859175
    ));
#883 = CARTESIAN_POINT('',(1.954211855859,2.277624934628,11.673199379235
    ));
#884 = CARTESIAN_POINT('',(1.905111829622,2.319059262649,11.689948931468
    ));
#885 = CARTESIAN_POINT('',(1.854530930754,2.359558637778,11.706612717031
    ));
#886 = CARTESIAN_POINT('',(1.802452701073,2.399065366776,11.72313760284)
  );
#887 = CARTESIAN_POINT('',(1.676200691814,2.489648316565,11.761607610781
    ));
#888 = CARTESIAN_POINT('',(1.600740053008,2.539852450281,11.783394721044
    ));
#889 = CARTESIAN_POINT('',(1.522464476607,2.587948987481,11.804679869138
    ));
#890 = CARTESIAN_POINT('',(1.441367784168,2.633744183021,11.825304187981
    ));
#891 = CARTESIAN_POINT('',(1.357453755964,2.677028831235,11.845099953471
    ));
#892 = CARTESIAN_POINT('',(1.200870410582,2.750247050427,11.879032399689
    ));
#893 = CARTESIAN_POINT('',(1.129175656267,2.781144729708,11.893523207705
    ));
#894 = CARTESIAN_POINT('',(1.055715575671,2.810125480069,11.907260247112
    ));
#895 = CARTESIAN_POINT('',(0.980560586933,2.83704970387,11.920141140459)
  );
#896 = CARTESIAN_POINT('',(0.903788320691,2.861782762358,11.932066906997
    ));
#897 = CARTESIAN_POINT('',(0.695559551891,2.921379798535,11.960990189589
    ));
#898 = CARTESIAN_POINT('',(0.561219863238,2.952230574799,11.976175951065
    ));
#899 = CARTESIAN_POINT('',(0.423439581474,2.975939880897,11.987970038588
    ));
#900 = CARTESIAN_POINT('',(0.283257709828,2.991962776211,11.995981488712
    ));
#901 = CARTESIAN_POINT('',(0.1417498576,3.,12.0000001));
#902 = CARTESIAN_POINT('',(0.,3.,12.0000001));
#903 = PCURVE('',#728,#904);
#904 = DEFINITIONAL_REPRESENTATION('',(#905),#943);
#905 = B_SPLINE_CURVE_WITH_KNOTS('',6,(#906,#907,#908,#909,#910,#911,
    #912,#913,#914,#915,#916,#917,#918,#919,#920,#921,#922,#923,#924,
    #925,#926,#927,#928,#929,#930,#931,#932,#933,#934,#935,#936,#937,
    #938,#939,#940,#941,#942),.UNSPECIFIED.,.F.,.F.,(7,5,5,5,5,5,5,7),(
    0.,0.331404947579,0.507858803238,0.569240982725,0.651122750871,
    0.762142704063,0.851589278877,1.),.UNSPECIFIED.);
#906 = CARTESIAN_POINT('',(0.,0.196152422707));
#907 = CARTESIAN_POINT('',(7.748295973605E-02,0.196152422707));
#908 = CARTESIAN_POINT('',(0.154815428663,0.208630393219));
#909 = CARTESIAN_POINT('',(0.232268823746,0.233497467676));
#910 = CARTESIAN_POINT('',(0.310077753995,0.269823935699));
#911 = CARTESIAN_POINT('',(0.388462921747,0.315848594256));
#912 = CARTESIAN_POINT('',(0.50972900417,0.397635073867));
#913 = CARTESIAN_POINT('',(0.552114523615,0.428160860818));
#914 = CARTESIAN_POINT('',(0.594838447708,0.460488515094));
#915 = CARTESIAN_POINT('',(0.637980996819,0.494275087832));
#916 = CARTESIAN_POINT('',(0.681624405612,0.529139382572));
#917 = CARTESIAN_POINT('',(0.741249512534,0.577015283228));
#918 = CARTESIAN_POINT('',(0.7567107926,0.589451553072));
#919 = CARTESIAN_POINT('',(0.772249209771,0.60195056857));
#920 = CARTESIAN_POINT('',(0.787869136873,0.614494166597));
#921 = CARTESIAN_POINT('',(0.803575050027,0.627063439658));
#922 = CARTESIAN_POINT('',(0.840443501175,0.656413759175));
#923 = CARTESIAN_POINT('',(0.861676465626,0.673199279235));
#924 = CARTESIAN_POINT('',(0.883081454239,0.689948831468));
#925 = CARTESIAN_POINT('',(0.904669352548,0.706612617031));
#926 = CARTESIAN_POINT('',(0.926450899387,0.72313750284));
#927 = CARTESIAN_POINT('',(0.978246266656,0.761607510781));
#928 = CARTESIAN_POINT('',(1.00843920977,0.783394621044));
#929 = CARTESIAN_POINT('',(1.039032708591,0.804679769138));
#930 = CARTESIAN_POINT('',(1.070044521038,0.825304087981));
#931 = CARTESIAN_POINT('',(1.101494116236,0.845099853471));
#932 = CARTESIAN_POINT('',(1.159112835872,0.879032299689));
#933 = CARTESIAN_POINT('',(1.185123819498,0.893523107705));
#934 = CARTESIAN_POINT('',(1.211427788544,0.907260147113));
#935 = CARTESIAN_POINT('',(1.238017923618,0.920141040459));
#936 = CARTESIAN_POINT('',(1.264889356373,0.932066806997));
#937 = CARTESIAN_POINT('',(1.337085868198,0.960990089589));
#938 = CARTESIAN_POINT('',(1.382966817224,0.976175851065));
#939 = CARTESIAN_POINT('',(1.429459901553,0.987969938588));
#940 = CARTESIAN_POINT('',(1.476377094928,0.995981388712));
#941 = CARTESIAN_POINT('',(1.523546374261,1.));
#942 = CARTESIAN_POINT('',(1.570796326795,1.));
#943 = ( GEOMETRIC_REPRESENTATION_CONTEXT(2) 
PARAMETRIC_REPRESENTATION_CONTEXT() REPRESENTATION_CONTEXT('2D SPACE',''
  ) );
#944 = PCURVE('',#769,#945);
#945 = DEFINITIONAL_REPRESENTATION('',(#946),#984);
#946 = B_SPLINE_CURVE_WITH_KNOTS('',6,(#947,#948,#949,#950,#951,#952,
    #953,#954,#955,#956,#957,#958,#959,#960,#961,#962,#963,#964,#965,
    #966,#967,#968,#969,#970,#971,#972,#973,#974,#975,#976,#977,#978,
    #979,#980,#981,#982,#983),.UNSPECIFIED.,.F.,.F.,(7,5,5,5,5,5,5,7),(
    0.,0.331404947579,0.507858803238,0.569240982725,0.651122750871,
    0.762142704063,0.851589278877,1.),.UNSPECIFIED.);
#947 = CARTESIAN_POINT('',(0.523598775598,3.));
#948 = CARTESIAN_POINT('',(0.523598775598,3.232448879208));
#949 = CARTESIAN_POINT('',(0.51943948169,3.464446505983));
#950 = CARTESIAN_POINT('',(0.511150314999,3.69429378575));
#951 = CARTESIAN_POINT('',(0.498817135873,3.920235352091));
#952 = CARTESIAN_POINT('',(0.482586319717,4.140309409803));
#953 = CARTESIAN_POINT('',(0.452045775064,4.465055614902));
#954 = CARTESIAN_POINT('',(0.440376040224,4.575682211911));
#955 = CARTESIAN_POINT('',(0.427658878052,4.68390815435));
#956 = CARTESIAN_POINT('',(0.41390227661,4.789479353382));
#957 = CARTESIAN_POINT('',(0.399109844003,4.892081585925));
#958 = CARTESIAN_POINT('',(0.377772721952,5.025867468045));
#959 = CARTESIAN_POINT('',(0.372139925473,5.05999334523));
#960 = CARTESIAN_POINT('',(0.366380884533,5.093701737476));
#961 = CARTESIAN_POINT('',(0.36049525573,5.126976202617));
#962 = CARTESIAN_POINT('',(0.354482615283,5.159798939228));
#963 = CARTESIAN_POINT('',(0.34015169659,5.235307065707));
#964 = CARTESIAN_POINT('',(0.331734114885,5.277624934628));
#965 = CARTESIAN_POINT('',(0.32308840918,5.319059262649));
#966 = CARTESIAN_POINT('',(0.314213342809,5.359558637778));
#967 = CARTESIAN_POINT('',(0.305107747182,5.399065366776));
#968 = CARTESIAN_POINT('',(0.283110581107,5.489648316565));
#969 = CARTESIAN_POINT('',(0.270021511486,5.539852450281));
#970 = CARTESIAN_POINT('',(0.256504391074,5.587948987481));
#971 = CARTESIAN_POINT('',(0.242561060065,5.633744183021));
#972 = CARTESIAN_POINT('',(0.228193893773,5.677028831235));
#973 = CARTESIAN_POINT('',(0.201490921114,5.750247050427));
#974 = CARTESIAN_POINT('',(0.189301356349,5.781144729708));
#975 = CARTESIAN_POINT('',(0.176847811376,5.810125480069));
#976 = CARTESIAN_POINT('',(0.164141612364,5.83704970387));
#977 = CARTESIAN_POINT('',(0.151194453542,5.861782762358));
#978 = CARTESIAN_POINT('',(0.116156467635,5.921379798535));
#979 = CARTESIAN_POINT('',(9.36312203382E-02,5.952230574799));
#980 = CARTESIAN_POINT('',(7.059698035476E-02,5.975939880897));
#981 = CARTESIAN_POINT('',(4.720962318905E-02,5.991962776211));
#982 = CARTESIAN_POINT('',(2.362497626672E-02,6.));
#983 = CARTESIAN_POINT('',(0.,6.));
#984 = ( GEOMETRIC_REPRESENTATION_CONTEXT(2) 
PARAMETRIC_REPRESENTATION_CONTEXT() REPRESENTATION_CONTEXT('2D SPACE',''
  ) );
#985 = ORIENTED_EDGE('',*,*,#986,.T.);
#986 = EDGE_CURVE('',#862,#689,#987,.T.);
#987 = SURFACE_CURVE('',#988,(#1051,#1117),.PCURVE_S1.);
#988 = B_SPLINE_CURVE_WITH_KNOTS('',6,(#989,#990,#991,#992,#993,#994,
    #995,#996,#997,#998,#999,#1000,#1001,#1002,#1003,#1004,#1005,#1006,
    #1007,#1008,#1009,#1010,#1011,#1012,#1013,#1014,#1015,#1016,#1017,
    #1018,#1019,#1020,#1021,#1022,#1023,#1024,#1025,#1026,#1027,#1028,
    #1029,#1030,#1031,#1032,#1033,#1034,#1035,#1036,#1037,#1038,#1039,
    #1040,#1041,#1042,#1043,#1044,#1045,#1046,#1047,#1048,#1049,#1050),
  .UNSPECIFIED.,.F.,.F.,(7,5,5,5,5,5,5,5,5,5,5,5,7),(0.,0.118054470968,
    0.173146870609,0.214291642087,0.245008702022,0.335206004318,
    0.50004637969,0.588152307873,0.665756264114,0.825568351419,
    0.881076108087,0.925797606962,1.),.UNSPECIFIED.);
#989 = CARTESIAN_POINT('',(0.,3.,12.0000001));
#990 = CARTESIAN_POINT('',(-0.226727659649,3.,12.0000001));
#991 = CARTESIAN_POINT('',(-0.451457284599,2.979437683786,
    11.989718859826));
#992 = CARTESIAN_POINT('',(-0.670762252684,2.938993448384,
    11.969497138617));
#993 = CARTESIAN_POINT('',(-0.881333550924,2.88034897903,11.940570229813
    ));
#994 = CARTESIAN_POINT('',(-1.080176443625,2.806184541724,11.90498855531
    ));
#995 = CARTESIAN_POINT('',(-1.350953820565,2.680289421478,
    11.846596712925));
#996 = CARTESIAN_POINT('',(-1.434356765843,2.637529867325,
    11.827021917802));
#997 = CARTESIAN_POINT('',(-1.514990247562,2.59228897834,11.806622840823
    ));
#998 = CARTESIAN_POINT('',(-1.592848958439,2.544771973403,
    11.785563684017));
#999 = CARTESIAN_POINT('',(-1.667937402993,2.495169372378,
    11.764000213046));
#1000 = CARTESIAN_POINT('',(-1.794289220648,2.405186962816,
    11.725706377564));
#1001 = CARTESIAN_POINT('',(-1.846782298076,2.365643759017,
    11.709131264876));
#1002 = CARTESIAN_POINT('',(-1.897763680747,2.325093377017,
    11.692410500649));
#1003 = CARTESIAN_POINT('',(-1.947249877657,2.283594757548,
    11.675598166586));
#1004 = CARTESIAN_POINT('',(-1.995258838183,2.241200397656,
    11.658744924881));
#1005 = CARTESIAN_POINT('',(-2.07656317355,2.165672054682,
    11.629320783661));
#1006 = CARTESIAN_POINT('',(-2.110503515831,2.132914454854,
    11.616747205673));
#1007 = CARTESIAN_POINT('',(-2.143638729089,2.099702863162,
    11.60419701973));
#1008 = CARTESIAN_POINT('',(-2.175976269898,2.066055216377,
    11.591689209512));
#1009 = CARTESIAN_POINT('',(-2.207523301237,2.031988076102,
    11.579242006903));
#1010 = CARTESIAN_POINT('',(-2.328620041667,1.896294976627,
    11.530552332693));
#1011 = CARTESIAN_POINT('',(-2.41221580527,1.791566447867,
    11.494897546783));
#1012 = CARTESIAN_POINT('',(-2.489221391049,1.683733789427,
    11.460360101914));
#1013 = CARTESIAN_POINT('',(-2.559758323984,1.57313278062,
    11.427346799534));
#1014 = CARTESIAN_POINT('',(-2.623921499154,1.460033711712,
    11.396222767401));
#1015 = CARTESIAN_POINT('',(-2.787515066578,1.133759937916,
    11.31448324849));
#1016 = CARTESIAN_POINT('',(-2.87236888357,0.91485967595,11.268962451027
    ));
#1017 = CARTESIAN_POINT('',(-2.936083830694,0.690191188116,
    11.233054716304));
#1018 = CARTESIAN_POINT('',(-2.978644714915,0.461682462672,
    11.208481950924));
#1019 = CARTESIAN_POINT('',(-3.,0.231061084778,11.196152522707));
#1020 = CARTESIAN_POINT('',(-3.,-0.123500394217,11.196152522707));
#1021 = CARTESIAN_POINT('',(-2.993899076973,-0.246976143552,
    11.199674693161));
#1022 = CARTESIAN_POINT('',(-2.98170171182,-0.370129798369,
    11.20671740549));
#1023 = CARTESIAN_POINT('',(-2.963417581602,-0.492655339519,
    11.217201556036));
#1024 = CARTESIAN_POINT('',(-2.939066320546,-0.614237736996,
    11.230974766973));
#1025 = CARTESIAN_POINT('',(-2.881919931236,-0.840526107221,
    11.262649030372));
#1026 = CARTESIAN_POINT('',(-2.850478488068,-0.945511639906,
    11.279861834968));
#1027 = CARTESIAN_POINT('',(-2.814365417617,-1.049352754973,
    11.299312258726));
#1028 = CARTESIAN_POINT('',(-2.773579873806,-1.151878445154,
    11.320827166073));
#1029 = CARTESIAN_POINT('',(-2.728115630915,-1.252902610907,
    11.344204996506));
#1030 = CARTESIAN_POINT('',(-2.574685334977,-1.556758278183,
    11.420730248984));
#1031 = CARTESIAN_POINT('',(-2.451642866785,-1.753841726646,
    11.479122623975));
#1032 = CARTESIAN_POINT('',(-2.308466596216,-1.94249185062,
    11.542569947904));
#1033 = CARTESIAN_POINT('',(-2.144293824532,-2.121166715604,
    11.608975822965));
#1034 = CARTESIAN_POINT('',(-1.958060801121,-2.287420088445,
    11.675722556697));
#1035 = CARTESIAN_POINT('',(-1.67620069181,-2.489648316568,
    11.761607610782));
#1036 = CARTESIAN_POINT('',(-1.600740053008,-2.53985245028,
    11.783394721044));
#1037 = CARTESIAN_POINT('',(-1.522464476611,-2.587948987479,
    11.804679869136));
#1038 = CARTESIAN_POINT('',(-1.44136778417,-2.63374418302,11.82530418798
    ));
#1039 = CARTESIAN_POINT('',(-1.35745375596,-2.677028831237,
    11.845099953472));
#1040 = CARTESIAN_POINT('',(-1.200870410557,-2.750247050439,
    11.879032399695));
#1041 = CARTESIAN_POINT('',(-1.129175656274,-2.781144729703,
    11.893523207702));
#1042 = CARTESIAN_POINT('',(-1.055715575699,-2.810125480059,
    11.907260247108));
#1043 = CARTESIAN_POINT('',(-0.980560586941,-2.83704970387,
    11.920141140458));
#1044 = CARTESIAN_POINT('',(-0.90378832066,-2.861782762366,
    11.932066907001));
#1045 = CARTESIAN_POINT('',(-0.695559551891,-2.921379798535,
    11.960990189589));
#1046 = CARTESIAN_POINT('',(-0.561219863238,-2.952230574799,
    11.976175951065));
#1047 = CARTESIAN_POINT('',(-0.423439581475,-2.975939880897,
    11.987970038587));
#1048 = CARTESIAN_POINT('',(-0.283257709827,-2.991962776211,
    11.995981488712));
#1049 = CARTESIAN_POINT('',(-0.1417498576,-3.,12.0000001));
#1050 = CARTESIAN_POINT('',(0.,-3.,12.0000001));
#1051 = PCURVE('',#728,#1052);
#1052 = DEFINITIONAL_REPRESENTATION('',(#1053),#1116);
#1053 = B_SPLINE_CURVE_WITH_KNOTS('',6,(#1054,#1055,#1056,#1057,#1058,
    #1059,#1060,#1061,#1062,#1063,#1064,#1065,#1066,#1067,#1068,#1069,
    #1070,#1071,#1072,#1073,#1074,#1075,#1076,#1077,#1078,#1079,#1080,
    #1081,#1082,#1083,#1084,#1085,#1086,#1087,#1088,#1089,#1090,#1091,
    #1092,#1093,#1094,#1095,#1096,#1097,#1098,#1099,#1100,#1101,#1102,
    #1103,#1104,#1105,#1106,#1107,#1108,#1109,#1110,#1111,#1112,#1113,
    #1114,#1115),.UNSPECIFIED.,.F.,.F.,(7,5,5,5,5,5,5,5,5,5,5,5,7),(0.,
    0.118054470968,0.173146870609,0.214291642087,0.245008702022,
    0.335206004318,0.50004637969,0.588152307873,0.665756264114,
    0.825568351419,0.881076108087,0.925797606962,1.),.UNSPECIFIED.);
#1054 = CARTESIAN_POINT('',(1.570796326795,1.));
#1055 = CARTESIAN_POINT('',(1.646372213345,1.));
#1056 = CARTESIAN_POINT('',(1.72128201263,0.989718759826));
#1057 = CARTESIAN_POINT('',(1.795161056613,0.969497038617));
#1058 = CARTESIAN_POINT('',(1.867612844683,0.940570129813));
#1059 = CARTESIAN_POINT('',(1.93813775969,0.90498845531));
#1060 = CARTESIAN_POINT('',(2.03767556332,0.846596612925));
#1061 = CARTESIAN_POINT('',(2.068894140019,0.827021817802));
#1062 = CARTESIAN_POINT('',(2.099681475917,0.806622740823));
#1063 = CARTESIAN_POINT('',(2.130056228787,0.785563584017));
#1064 = CARTESIAN_POINT('',(2.160035367419,0.764000113046));
#1065 = CARTESIAN_POINT('',(2.211741390983,0.725706277564));
#1066 = CARTESIAN_POINT('',(2.233640453639,0.709131164876));
#1067 = CARTESIAN_POINT('',(2.255343120524,0.692410400649));
#1068 = CARTESIAN_POINT('',(2.276860244049,0.675598066586));
#1069 = CARTESIAN_POINT('',(2.298202845944,0.658744824881));
#1070 = CARTESIAN_POINT('',(2.335193724011,0.629320683661));
#1071 = CARTESIAN_POINT('',(2.3509142023,0.616747105673));
#1072 = CARTESIAN_POINT('',(2.366548138493,0.60419691973));
#1073 = CARTESIAN_POINT('',(2.382100018007,0.591689109512));
#1074 = CARTESIAN_POINT('',(2.397574225307,0.579241906903));
#1075 = CARTESIAN_POINT('',(2.458197871031,0.530552232693));
#1076 = CARTESIAN_POINT('',(2.502797507811,0.494897446783));
#1077 = CARTESIAN_POINT('',(2.546872777189,0.460360001914));
#1078 = CARTESIAN_POINT('',(2.590511221508,0.427346699534));
#1079 = CARTESIAN_POINT('',(2.633798189549,0.396222667401));
#1080 = CARTESIAN_POINT('',(2.755461399897,0.31448314849));
#1081 = CARTESIAN_POINT('',(2.833365816835,0.268962351027));
#1082 = CARTESIAN_POINT('',(2.910706274279,0.233054616304));
#1083 = CARTESIAN_POINT('',(2.987698571248,0.208481850924));
#1084 = CARTESIAN_POINT('',(3.064572291997,0.196152422707));
#1085 = CARTESIAN_POINT('',(3.182759451662,0.196152422707));
#1086 = CARTESIAN_POINT('',(3.223918050347,0.199674593161));
#1087 = CARTESIAN_POINT('',(3.265094801843,0.20671730549));
#1088 = CARTESIAN_POINT('',(3.306313182798,0.217201456036));
#1089 = CARTESIAN_POINT('',(3.347594483384,0.230974666973));
#1090 = CARTESIAN_POINT('',(3.425392038551,0.262648930372));
#1091 = CARTESIAN_POINT('',(3.461888146966,0.279861734968));
#1092 = CARTESIAN_POINT('',(3.498482716338,0.299312158726));
#1093 = CARTESIAN_POINT('',(3.535209141701,0.320827066073));
#1094 = CARTESIAN_POINT('',(3.572099904696,0.344204896506));
#1095 = CARTESIAN_POINT('',(3.685565084008,0.420730148984));
#1096 = CARTESIAN_POINT('',(3.762694656443,0.479122523975));
#1097 = CARTESIAN_POINT('',(3.841140137736,0.542569847904));
#1098 = CARTESIAN_POINT('',(3.921459992997,0.608975722965));
#1099 = CARTESIAN_POINT('',(4.004204737743,0.675722456698));
#1100 = CARTESIAN_POINT('',(4.119838920247,0.761607510782));
#1101 = CARTESIAN_POINT('',(4.15003186336,0.783394621044));
#1102 = CARTESIAN_POINT('',(4.180625362179,0.804679769137));
#1103 = CARTESIAN_POINT('',(4.211637174627,0.825304087981));
#1104 = CARTESIAN_POINT('',(4.243086769827,0.845099853472));
#1105 = CARTESIAN_POINT('',(4.300705489471,0.879032299695));
#1106 = CARTESIAN_POINT('',(4.326716473085,0.893523107702));
#1107 = CARTESIAN_POINT('',(4.353020442124,0.907260147108));
#1108 = CARTESIAN_POINT('',(4.379610577206,0.920141040458));
#1109 = CARTESIAN_POINT('',(4.406482009974,0.932066807001));
#1110 = CARTESIAN_POINT('',(4.478678521788,0.960990089589));
#1111 = CARTESIAN_POINT('',(4.524559470814,0.976175851065));
#1112 = CARTESIAN_POINT('',(4.571052555142,0.987969938588));
#1113 = CARTESIAN_POINT('',(4.617969748518,0.995981388712));
#1114 = CARTESIAN_POINT('',(4.665139027851,1.));
#1115 = CARTESIAN_POINT('',(4.712388980385,1.));
#1116 = ( GEOMETRIC_REPRESENTATION_CONTEXT(2) 
PARAMETRIC_REPRESENTATION_CONTEXT() REPRESENTATION_CONTEXT('2D SPACE',''
  ) );
#1117 = PCURVE('',#769,#1118);
#1118 = DEFINITIONAL_REPRESENTATION('',(#1119),#1182);
#1119 = B_SPLINE_CURVE_WITH_KNOTS('',6,(#1120,#1121,#1122,#1123,#1124,
    #1125,#1126,#1127,#1128,#1129,#1130,#1131,#1132,#1133,#1134,#1135,
    #1136,#1137,#1138,#1139,#1140,#1141,#1142,#1143,#1144,#1145,#1146,
    #1147,#1148,#1149,#1150,#1151,#1152,#1153,#1154,#1155,#1156,#1157,
    #1158,#1159,#1160,#1161,#1162,#1163,#1164,#1165,#1166,#1167,#1168,
    #1169,#1170,#1171,#1172,#1173,#1174,#1175,#1176,#1177,#1178,#1179,
    #1180,#1181),.UNSPECIFIED.,.F.,.F.,(7,5,5,5,5,5,5,5,5,5,5,5,7),(0.,
    0.118054470968,0.173146870609,0.214291642087,0.245008702022,
    0.335206004318,0.50004637969,0.588152307873,0.665756264114,
    0.825568351419,0.881076108087,0.925797606962,1.),.UNSPECIFIED.);
#1120 = CARTESIAN_POINT('',(6.28318530718,6.));
#1121 = CARTESIAN_POINT('',(6.245397363905,6.));
#1122 = CARTESIAN_POINT('',(6.207942360271,5.979437683786));
#1123 = CARTESIAN_POINT('',(6.171294711978,5.938993448384));
#1124 = CARTESIAN_POINT('',(6.135915887135,5.88034897903));
#1125 = CARTESIAN_POINT('',(6.1022699528,5.806184541724));
#1126 = CARTESIAN_POINT('',(6.05610298676,5.680289421478));
#1127 = CARTESIAN_POINT('',(6.041827123478,5.637529867325));
#1128 = CARTESIAN_POINT('',(6.027967799083,5.59228897834));
#1129 = CARTESIAN_POINT('',(6.014527551508,5.544771973403));
#1130 = CARTESIAN_POINT('',(6.001508385322,5.495169372378));
#1131 = CARTESIAN_POINT('',(5.979503840551,5.405186962816));
#1132 = CARTESIAN_POINT('',(5.970329814293,5.365643759017));
#1133 = CARTESIAN_POINT('',(5.961388390902,5.325093377017));
#1134 = CARTESIAN_POINT('',(5.952678400435,5.283594757548));
#1135 = CARTESIAN_POINT('',(5.944198589796,5.241200397656));
#1136 = CARTESIAN_POINT('',(5.929787776884,5.165672054682));
#1137 = CARTESIAN_POINT('',(5.923755530088,5.132914454854));
#1138 = CARTESIAN_POINT('',(5.91785037323,5.099702863162));
#1139 = CARTESIAN_POINT('',(5.912071876057,5.066055216377));
#1140 = CARTESIAN_POINT('',(5.906419687187,5.031988076102));
#1141 = CARTESIAN_POINT('',(5.884666587205,4.896294976627));
#1142 = CARTESIAN_POINT('',(5.869522892071,4.791566447867));
#1143 = CARTESIAN_POINT('',(5.855460095716,4.683733789427));
#1144 = CARTESIAN_POINT('',(5.842482023163,4.57313278062));
#1145 = CARTESIAN_POINT('',(5.830597266157,4.460033711712));
#1146 = CARTESIAN_POINT('',(5.800117671775,4.133759937916));
#1147 = CARTESIAN_POINT('',(5.78407566755,3.91485967595));
#1148 = CARTESIAN_POINT('',(5.771887371065,3.690191188116));
#1149 = CARTESIAN_POINT('',(5.763696312411,3.461682462672));
#1150 = CARTESIAN_POINT('',(5.759586531581,3.231061084778));
#1151 = CARTESIAN_POINT('',(5.759586531581,2.876499605783));
#1152 = CARTESIAN_POINT('',(5.76076062605,2.753023856448));
#1153 = CARTESIAN_POINT('',(5.763108091474,2.629870201631));
#1154 = CARTESIAN_POINT('',(5.766620820197,2.507344660481));
#1155 = CARTESIAN_POINT('',(5.77128341031,2.385762263004));
#1156 = CARTESIAN_POINT('',(5.782172967965,2.159473892779));
#1157 = CARTESIAN_POINT('',(5.788147005884,2.054488360094));
#1158 = CARTESIAN_POINT('',(5.79498308188,1.950647245027));
#1159 = CARTESIAN_POINT('',(5.802667948619,1.848121554846));
#1160 = CARTESIAN_POINT('',(5.811187741486,1.747097389093));
#1161 = CARTESIAN_POINT('',(5.839763649161,1.443241721817));
#1162 = CARTESIAN_POINT('',(5.862458514816,1.246158273354));
#1163 = CARTESIAN_POINT('',(5.888544978505,1.05750814938));
#1164 = CARTESIAN_POINT('',(5.918032009116,0.878833284396));
#1165 = CARTESIAN_POINT('',(5.950965617466,0.712579911555));
#1166 = CARTESIAN_POINT('',(6.000074726073,0.510351683432));
#1167 = CARTESIAN_POINT('',(6.013163795694,0.46014754972));
#1168 = CARTESIAN_POINT('',(6.026680916105,0.412051012521));
#1169 = CARTESIAN_POINT('',(6.040624247115,0.36625581698));
#1170 = CARTESIAN_POINT('',(6.054991413408,0.322971168763));
#1171 = CARTESIAN_POINT('',(6.08169438607,0.249752949561));
#1172 = CARTESIAN_POINT('',(6.09388395083,0.218855270297));
#1173 = CARTESIAN_POINT('',(6.106337495799,0.189874519941));
#1174 = CARTESIAN_POINT('',(6.119043694815,0.16295029613));
#1175 = CARTESIAN_POINT('',(6.131990853643,0.138217237634));
#1176 = CARTESIAN_POINT('',(6.167028839545,7.862020146472E-02));
#1177 = CARTESIAN_POINT('',(6.189554086841,4.776942520074E-02));
#1178 = CARTESIAN_POINT('',(6.212588326825,2.406011910269E-02));
#1179 = CARTESIAN_POINT('',(6.235975683991,8.037223788583E-03));
#1180 = CARTESIAN_POINT('',(6.259560330913,0.));
#1181 = CARTESIAN_POINT('',(6.28318530718,0.));
#1182 = ( GEOMETRIC_REPRESENTATION_CONTEXT(2) 
PARAMETRIC_REPRESENTATION_CONTEXT() REPRESENTATION_CONTEXT('2D SPACE',''
  ) );
#1183 = ADVANCED_FACE('',(#1184),#769,.T.);
#1184 = FACE_BOUND('',#1185,.T.);
#1185 = EDGE_LOOP('',(#1186,#1187,#1214,#1215,#1216));
#1186 = ORIENTED_EDGE('',*,*,#986,.F.);
#1187 = ORIENTED_EDGE('',*,*,#1188,.F.);
#1188 = EDGE_CURVE('',#862,#862,#1189,.T.);
#1189 = SURFACE_CURVE('',#1190,(#1195,#1202),.PCURVE_S1.);
#1190 = CIRCLE('',#1191,6.);
#1191 = AXIS2_PLACEMENT_3D('',#1192,#1193,#1194);
#1192 = CARTESIAN_POINT('',(0.,3.,6.0000001));
#1193 = DIRECTION('',(0.,1.,0.));
#1194 = DIRECTION('',(0.,-0.,1.));
#1195 = PCURVE('',#769,#1196);
#1196 = DEFINITIONAL_REPRESENTATION('',(#1197),#1201);
#1197 = LINE('',#1198,#1199);
#1198 = CARTESIAN_POINT('',(0.,6.));
#1199 = VECTOR('',#1200,1.);
#1200 = DIRECTION('',(1.,0.));
#1201 = ( GEOMETRIC_REPRESENTATION_CONTEXT(2) 
PARAMETRIC_REPRESENTATION_CONTEXT() REPRESENTATION_CONTEXT('2D SPACE',''
  ) );
#1202 = PCURVE('',#1203,#1208);
#1203 = PLANE('',#1204);
#1204 = AXIS2_PLACEMENT_3D('',#1205,#1206,#1207);
#1205 = CARTESIAN_POINT('',(0.,3.,6.0000001));
#1206 = DIRECTION('',(0.,1.,0.));
#1207 = DIRECTION('',(0.,-0.,1.));
#1208 = DEFINITIONAL_REPRESENTATION('',(#1209),#1213);
#1209 = CIRCLE('',#1210,6.);
#1210 = AXIS2_PLACEMENT_2D('',#1211,#1212);
#1211 = CARTESIAN_POINT('',(0.,0.));
#1212 = DIRECTION('',(1.,0.));
#1213 = ( GEOMETRIC_REPRESENTATION_CONTEXT(2) 
PARAMETRIC_REPRESENTATION_CONTEXT() REPRESENTATION_CONTEXT('2D SPACE',''
  ) );
#1214 = ORIENTED_EDGE('',*,*,#861,.F.);
#1215 = ORIENTED_EDGE('',*,*,#688,.F.);
#1216 = ORIENTED_EDGE('',*,*,#1217,.T.);
#1217 = EDGE_CURVE('',#689,#689,#1218,.T.);
#1218 = SURFACE_CURVE('',#1219,(#1224,#1231),.PCURVE_S1.);
#1219 = CIRCLE('',#1220,6.);
#1220 = AXIS2_PLACEMENT_3D('',#1221,#1222,#1223);
#1221 = CARTESIAN_POINT('',(0.,-3.,6.0000001));
#1222 = DIRECTION('',(0.,1.,0.));
#1223 = DIRECTION('',(0.,-0.,1.));
#1224 = PCURVE('',#769,#1225);
#1225 = DEFINITIONAL_REPRESENTATION('',(#1226),#1230);
#1226 = LINE('',#1227,#1228);
#1227 = CARTESIAN_POINT('',(0.,0.));
#1228 = VECTOR('',#1229,1.);
#1229 = DIRECTION('',(1.,0.));
#1230 = ( GEOMETRIC_REPRESENTATION_CONTEXT(2) 
PARAMETRIC_REPRESENTATION_CONTEXT() REPRESENTATION_CONTEXT('2D SPACE',''
  ) );
#1231 = PCURVE('',#1232,#1237);
#1232 = PLANE('',#1233);
#1233 = AXIS2_PLACEMENT_3D('',#1234,#1235,#1236);
#1234 = CARTESIAN_POINT('',(0.,-3.,6.0000001));
#1235 = DIRECTION('',(0.,1.,0.));
#1236 = DIRECTION('',(0.,-0.,1.));
#1237 = DEFINITIONAL_REPRESENTATION('',(#1238),#1242);
#1238 = CIRCLE('',#1239,6.);
#1239 = AXIS2_PLACEMENT_2D('',#1240,#1241);
#1240 = CARTESIAN_POINT('',(0.,0.));
#1241 = DIRECTION('',(1.,0.));
#1242 = ( GEOMETRIC_REPRESENTATION_CONTEXT(2) 
PARAMETRIC_REPRESENTATION_CONTEXT() REPRESENTATION_CONTEXT('2D SPACE',''
  ) );
#1243 = ADVANCED_FACE('',(#1244,#1275),#848,.F.);
#1244 = FACE_BOUND('',#1245,.F.);
#1245 = EDGE_LOOP('',(#1246));
#1246 = ORIENTED_EDGE('',*,*,#1247,.T.);
#1247 = EDGE_CURVE('',#1248,#1248,#1250,.T.);
#1248 = VERTEX_POINT('',#1249);
#1249 = CARTESIAN_POINT('',(4.5,-1.102182119233E-15,35.625609539921));
#1250 = SURFACE_CURVE('',#1251,(#1256,#1263),.PCURVE_S1.);
#1251 = CIRCLE('',#1252,4.5);
#1252 = AXIS2_PLACEMENT_3D('',#1253,#1254,#1255);
#1253 = CARTESIAN_POINT('',(0.,0.,35.625609539921));
#1254 = DIRECTION('',(0.,0.,1.));
#1255 = DIRECTION('',(1.,0.,-0.));
#1256 = PCURVE('',#848,#1257);
#1257 = DEFINITIONAL_REPRESENTATION('',(#1258),#1262);
#1258 = CIRCLE('',#1259,4.5);
#1259 = AXIS2_PLACEMENT_2D('',#1260,#1261);
#1260 = CARTESIAN_POINT('',(0.,0.));
#1261 = DIRECTION('',(1.,0.));
#1262 = ( GEOMETRIC_REPRESENTATION_CONTEXT(2) 
PARAMETRIC_REPRESENTATION_CONTEXT() REPRESENTATION_CONTEXT('2D SPACE',''
  ) );
#1263 = PCURVE('',#1264,#1269);
#1264 = CYLINDRICAL_SURFACE('',#1265,4.5);
#1265 = AXIS2_PLACEMENT_3D('',#1266,#1267,#1268);
#1266 = CARTESIAN_POINT('',(0.,0.,35.625609539921));
#1267 = DIRECTION('',(0.,0.,1.));
#1268 = DIRECTION('',(1.,0.,-0.));
#1269 = DEFINITIONAL_REPRESENTATION('',(#1270),#1274);
#1270 = LINE('',#1271,#1272);
#1271 = CARTESIAN_POINT('',(0.,0.));
#1272 = VECTOR('',#1273,1.);
#1273 = DIRECTION('',(1.,0.));
#1274 = ( GEOMETRIC_REPRESENTATION_CONTEXT(2) 
PARAMETRIC_REPRESENTATION_CONTEXT() REPRESENTATION_CONTEXT('2D SPACE',''
  ) );
#1275 = FACE_BOUND('',#1276,.F.);
#1276 = EDGE_LOOP('',(#1277));
#1277 = ORIENTED_EDGE('',*,*,#833,.F.);
#1278 = ADVANCED_FACE('',(#1279,#1282),#1232,.F.);
#1279 = FACE_BOUND('',#1280,.F.);
#1280 = EDGE_LOOP('',(#1281));
#1281 = ORIENTED_EDGE('',*,*,#1217,.T.);
#1282 = FACE_BOUND('',#1283,.F.);
#1283 = EDGE_LOOP('',(#1284));
#1284 = ORIENTED_EDGE('',*,*,#1285,.F.);
#1285 = EDGE_CURVE('',#1286,#1286,#1288,.T.);
#1286 = VERTEX_POINT('',#1287);
#1287 = CARTESIAN_POINT('',(-1.7763568394E-15,-3.,8.6500001));
#1288 = SURFACE_CURVE('',#1289,(#1294,#1301),.PCURVE_S1.);
#1289 = CIRCLE('',#1290,2.65);
#1290 = AXIS2_PLACEMENT_3D('',#1291,#1292,#1293);
#1291 = CARTESIAN_POINT('',(0.,-3.,6.0000001));
#1292 = DIRECTION('',(0.,1.,0.));
#1293 = DIRECTION('',(0.,-0.,1.));
#1294 = PCURVE('',#1232,#1295);
#1295 = DEFINITIONAL_REPRESENTATION('',(#1296),#1300);
#1296 = CIRCLE('',#1297,2.65);
#1297 = AXIS2_PLACEMENT_2D('',#1298,#1299);
#1298 = CARTESIAN_POINT('',(0.,0.));
#1299 = DIRECTION('',(1.,0.));
#1300 = ( GEOMETRIC_REPRESENTATION_CONTEXT(2) 
PARAMETRIC_REPRESENTATION_CONTEXT() REPRESENTATION_CONTEXT('2D SPACE',''
  ) );
#1301 = PCURVE('',#1302,#1307);
#1302 = CYLINDRICAL_SURFACE('',#1303,2.65);
#1303 = AXIS2_PLACEMENT_3D('',#1304,#1305,#1306);
#1304 = CARTESIAN_POINT('',(0.,-8.,6.0000001));
#1305 = DIRECTION('',(0.,1.,0.));
#1306 = DIRECTION('',(0.,-0.,1.));
#1307 = DEFINITIONAL_REPRESENTATION('',(#1308),#1312);
#1308 = LINE('',#1309,#1310);
#1309 = CARTESIAN_POINT('',(0.,5.));
#1310 = VECTOR('',#1311,1.);
#1311 = DIRECTION('',(1.,0.));
#1312 = ( GEOMETRIC_REPRESENTATION_CONTEXT(2) 
PARAMETRIC_REPRESENTATION_CONTEXT() REPRESENTATION_CONTEXT('2D SPACE',''
  ) );
#1313 = ADVANCED_FACE('',(#1314,#1317),#1203,.T.);
#1314 = FACE_BOUND('',#1315,.T.);
#1315 = EDGE_LOOP('',(#1316));
#1316 = ORIENTED_EDGE('',*,*,#1188,.T.);
#1317 = FACE_BOUND('',#1318,.T.);
#1318 = EDGE_LOOP('',(#1319));
#1319 = ORIENTED_EDGE('',*,*,#1320,.F.);
#1320 = EDGE_CURVE('',#1321,#1321,#1323,.T.);
#1321 = VERTEX_POINT('',#1322);
#1322 = CARTESIAN_POINT('',(-1.7763568394E-15,3.,8.6500001));
#1323 = SURFACE_CURVE('',#1324,(#1329,#1336),.PCURVE_S1.);
#1324 = CIRCLE('',#1325,2.65);
#1325 = AXIS2_PLACEMENT_3D('',#1326,#1327,#1328);
#1326 = CARTESIAN_POINT('',(0.,3.,6.0000001));
#1327 = DIRECTION('',(0.,1.,0.));
#1328 = DIRECTION('',(0.,-0.,1.));
#1329 = PCURVE('',#1203,#1330);
#1330 = DEFINITIONAL_REPRESENTATION('',(#1331),#1335);
#1331 = CIRCLE('',#1332,2.65);
#1332 = AXIS2_PLACEMENT_2D('',#1333,#1334);
#1333 = CARTESIAN_POINT('',(0.,0.));
#1334 = DIRECTION('',(1.,0.));
#1335 = ( GEOMETRIC_REPRESENTATION_CONTEXT(2) 
PARAMETRIC_REPRESENTATION_CONTEXT() REPRESENTATION_CONTEXT('2D SPACE',''
  ) );
#1336 = PCURVE('',#1302,#1337);
#1337 = DEFINITIONAL_REPRESENTATION('',(#1338),#1342);
#1338 = LINE('',#1339,#1340);
#1339 = CARTESIAN_POINT('',(0.,11.));
#1340 = VECTOR('',#1341,1.);
#1341 = DIRECTION('',(1.,0.));
#1342 = ( GEOMETRIC_REPRESENTATION_CONTEXT(2) 
PARAMETRIC_REPRESENTATION_CONTEXT() REPRESENTATION_CONTEXT('2D SPACE',''
  ) );
#1343 = ADVANCED_FACE('',(#1344),#1264,.T.);
#1344 = FACE_BOUND('',#1345,.T.);
#1345 = EDGE_LOOP('',(#1346,#1375,#1396,#1397));
#1346 = ORIENTED_EDGE('',*,*,#1347,.F.);
#1347 = EDGE_CURVE('',#1348,#1348,#1350,.T.);
#1348 = VERTEX_POINT('',#1349);
#1349 = CARTESIAN_POINT('',(4.5,-1.102182119233E-15,43.625609539921));
#1350 = SURFACE_CURVE('',#1351,(#1356,#1363),.PCURVE_S1.);
#1351 = CIRCLE('',#1352,4.5);
#1352 = AXIS2_PLACEMENT_3D('',#1353,#1354,#1355);
#1353 = CARTESIAN_POINT('',(0.,0.,43.625609539921));
#1354 = DIRECTION('',(0.,0.,1.));
#1355 = DIRECTION('',(1.,0.,-0.));
#1356 = PCURVE('',#1264,#1357);
#1357 = DEFINITIONAL_REPRESENTATION('',(#1358),#1362);
#1358 = LINE('',#1359,#1360);
#1359 = CARTESIAN_POINT('',(0.,8.));
#1360 = VECTOR('',#1361,1.);
#1361 = DIRECTION('',(1.,0.));
#1362 = ( GEOMETRIC_REPRESENTATION_CONTEXT(2) 
PARAMETRIC_REPRESENTATION_CONTEXT() REPRESENTATION_CONTEXT('2D SPACE',''
  ) );
#1363 = PCURVE('',#1364,#1369);
#1364 = PLANE('',#1365);
#1365 = AXIS2_PLACEMENT_3D('',#1366,#1367,#1368);
#1366 = CARTESIAN_POINT('',(0.,0.,43.625609539921));
#1367 = DIRECTION('',(0.,0.,1.));
#1368 = DIRECTION('',(1.,0.,-0.));
#1369 = DEFINITIONAL_REPRESENTATION('',(#1370),#1374);
#1370 = CIRCLE('',#1371,4.5);
#1371 = AXIS2_PLACEMENT_2D('',#1372,#1373);
#1372 = CARTESIAN_POINT('',(0.,0.));
#1373 = DIRECTION('',(1.,0.));
#1374 = ( GEOMETRIC_REPRESENTATION_CONTEXT(2) 
PARAMETRIC_REPRESENTATION_CONTEXT() REPRESENTATION_CONTEXT('2D SPACE',''
  ) );
#1375 = ORIENTED_EDGE('',*,*,#1376,.F.);
#1376 = EDGE_CURVE('',#1248,#1348,#1377,.T.);
#1377 = SEAM_CURVE('',#1378,(#1382,#1389),.PCURVE_S1.);
#1378 = LINE('',#1379,#1380);
#1379 = CARTESIAN_POINT('',(4.5,-1.102182119233E-15,35.625609539921));
#1380 = VECTOR('',#1381,1.);
#1381 = DIRECTION('',(0.,0.,1.));
#1382 = PCURVE('',#1264,#1383);
#1383 = DEFINITIONAL_REPRESENTATION('',(#1384),#1388);
#1384 = LINE('',#1385,#1386);
#1385 = CARTESIAN_POINT('',(6.28318530718,-0.));
#1386 = VECTOR('',#1387,1.);
#1387 = DIRECTION('',(0.,1.));
#1388 = ( GEOMETRIC_REPRESENTATION_CONTEXT(2) 
PARAMETRIC_REPRESENTATION_CONTEXT() REPRESENTATION_CONTEXT('2D SPACE',''
  ) );
#1389 = PCURVE('',#1264,#1390);
#1390 = DEFINITIONAL_REPRESENTATION('',(#1391),#1395);
#1391 = LINE('',#1392,#1393);
#1392 = CARTESIAN_POINT('',(0.,-0.));
#1393 = VECTOR('',#1394,1.);
#1394 = DIRECTION('',(0.,1.));
#1395 = ( GEOMETRIC_REPRESENTATION_CONTEXT(2) 
PARAMETRIC_REPRESENTATION_CONTEXT() REPRESENTATION_CONTEXT('2D SPACE',''
  ) );
#1396 = ORIENTED_EDGE('',*,*,#1247,.T.);
#1397 = ORIENTED_EDGE('',*,*,#1376,.T.);
#1398 = ADVANCED_FACE('',(#1399),#1302,.F.);
#1399 = FACE_BOUND('',#1400,.F.);
#1400 = EDGE_LOOP('',(#1401,#1402,#1423,#1424));
#1401 = ORIENTED_EDGE('',*,*,#1320,.F.);
#1402 = ORIENTED_EDGE('',*,*,#1403,.F.);
#1403 = EDGE_CURVE('',#1286,#1321,#1404,.T.);
#1404 = SEAM_CURVE('',#1405,(#1409,#1416),.PCURVE_S1.);
#1405 = LINE('',#1406,#1407);
#1406 = CARTESIAN_POINT('',(-1.7763568394E-15,-8.,8.6500001));
#1407 = VECTOR('',#1408,1.);
#1408 = DIRECTION('',(0.,1.,0.));
#1409 = PCURVE('',#1302,#1410);
#1410 = DEFINITIONAL_REPRESENTATION('',(#1411),#1415);
#1411 = LINE('',#1412,#1413);
#1412 = CARTESIAN_POINT('',(6.28318530718,-0.));
#1413 = VECTOR('',#1414,1.);
#1414 = DIRECTION('',(0.,1.));
#1415 = ( GEOMETRIC_REPRESENTATION_CONTEXT(2) 
PARAMETRIC_REPRESENTATION_CONTEXT() REPRESENTATION_CONTEXT('2D SPACE',''
  ) );
#1416 = PCURVE('',#1302,#1417);
#1417 = DEFINITIONAL_REPRESENTATION('',(#1418),#1422);
#1418 = LINE('',#1419,#1420);
#1419 = CARTESIAN_POINT('',(0.,-0.));
#1420 = VECTOR('',#1421,1.);
#1421 = DIRECTION('',(0.,1.));
#1422 = ( GEOMETRIC_REPRESENTATION_CONTEXT(2) 
PARAMETRIC_REPRESENTATION_CONTEXT() REPRESENTATION_CONTEXT('2D SPACE',''
  ) );
#1423 = ORIENTED_EDGE('',*,*,#1285,.T.);
#1424 = ORIENTED_EDGE('',*,*,#1403,.T.);
#1425 = ADVANCED_FACE('',(#1426),#1364,.T.);
#1426 = FACE_BOUND('',#1427,.T.);
#1427 = EDGE_LOOP('',(#1428));
#1428 = ORIENTED_EDGE('',*,*,#1347,.T.);
#1429 = ( GEOMETRIC_REPRESENTATION_CONTEXT(3) 
GLOBAL_UNCERTAINTY_ASSIGNED_CONTEXT((#1433)) 
GLOBAL_UNIT_ASSIGNED_CONTEXT((#1430,#1431,#1432)) REPRESENTATION_CONTEXT
('Context #1','3D Context with UNIT and UNCERTAINTY') );
#1430 = ( LENGTH_UNIT() NAMED_UNIT(*) SI_UNIT(.MILLI.,.METRE.) );
#1431 = ( NAMED_UNIT(*) PLANE_ANGLE_UNIT() SI_UNIT($,.RADIAN.) );
#1432 = ( NAMED_UNIT(*) SI_UNIT($,.STERADIAN.) SOLID_ANGLE_UNIT() );
#1433 = UNCERTAINTY_MEASURE_WITH_UNIT(LENGTH_MEASURE(1.E-07),#1430,
  'distance_accuracy_value','confusion accuracy');
#1434 = CONTEXT_DEPENDENT_SHAPE_REPRESENTATION(#1435,#1437);
#1435 = ( REPRESENTATION_RELATIONSHIP('','',#681,#10) 
REPRESENTATION_RELATIONSHIP_WITH_TRANSFORMATION(#1436) 
SHAPE_REPRESENTATION_RELATIONSHIP() );
#1436 = ITEM_DEFINED_TRANSFORMATION('','',#11,#19);
#1437 = PRODUCT_DEFINITION_SHAPE('Placement','Placement of an item',
  #1438);
#1438 = NEXT_ASSEMBLY_USAGE_OCCURRENCE('2','','',#5,#676,$);
#1439 = PRODUCT_RELATED_PRODUCT_CATEGORY('part',$,(#678));
ENDSEC;
END-ISO-10303-21;
